G75*
%MOIN*%
%OFA0B0*%
%FSLAX24Y24*%
%IPPOS*%
%LPD*%
%AMOC8*
5,1,8,0,0,1.08239X$1,22.5*
%
%ADD10OC8,0.0660*%
%ADD11OC8,0.0700*%
%ADD12R,0.0700X0.0700*%
%ADD13R,0.0472X0.0984*%
%ADD14OC8,0.1065*%
%ADD15OC8,0.0531*%
%ADD16OC8,0.1095*%
%ADD17OC8,0.1620*%
%ADD18OC8,0.1325*%
%ADD19OC8,0.1424*%
%ADD20C,0.0270*%
%ADD21C,0.0120*%
%ADD22C,0.0472*%
%ADD23C,0.0320*%
%ADD24C,0.0376*%
%ADD25C,0.0100*%
%ADD26C,0.0531*%
%ADD27OC8,0.1181*%
%ADD28C,0.0945*%
%ADD29C,0.0070*%
%ADD30OC8,0.0768*%
%ADD31OC8,0.1266*%
%ADD32C,0.1000*%
%ADD33C,0.0560*%
%ADD34OC8,0.0650*%
%ADD35C,0.0416*%
%ADD36C,0.0400*%
%ADD37C,0.0700*%
%ADD38C,0.0240*%
D10*
X010041Y013395D03*
X010041Y014395D03*
X010041Y015395D03*
X010041Y016395D03*
X010041Y017395D03*
X010041Y018395D03*
X010041Y019395D03*
X010041Y020395D03*
X010041Y021395D03*
X010041Y022395D03*
X010041Y023995D03*
X010041Y024995D03*
X010041Y025995D03*
X010041Y026995D03*
X010041Y027995D03*
X010041Y028995D03*
X010041Y029995D03*
X010041Y030995D03*
X029041Y030995D03*
X029041Y029995D03*
X029041Y028995D03*
X029041Y027995D03*
X029041Y026995D03*
X029041Y025995D03*
X029041Y023995D03*
X029041Y022995D03*
X029041Y021995D03*
X029041Y020995D03*
X029041Y019995D03*
X029041Y018995D03*
X029041Y017995D03*
X029041Y016995D03*
X027743Y010095D03*
X026743Y010095D03*
X025743Y010095D03*
X024743Y010095D03*
X023743Y010095D03*
X023743Y009095D03*
X024743Y009095D03*
X025743Y009095D03*
X026743Y009095D03*
X027743Y009095D03*
X052282Y026918D03*
X052282Y027918D03*
X053282Y027918D03*
X053282Y026918D03*
X053282Y028918D03*
X052282Y028918D03*
X052282Y029918D03*
X053282Y029918D03*
D11*
X052693Y032565D03*
X046493Y032565D03*
X040293Y032565D03*
X034093Y032565D03*
X020041Y032045D03*
X020041Y031045D03*
X019041Y031045D03*
X019041Y032045D03*
X018041Y032045D03*
X018443Y010875D03*
X012243Y010875D03*
D12*
X018041Y031045D03*
D13*
X045809Y007778D03*
X046793Y007778D03*
X047778Y007778D03*
D14*
X019943Y007805D03*
X016943Y007805D03*
X013743Y007805D03*
X010743Y007805D03*
X032593Y035635D03*
X035593Y035635D03*
X038793Y035635D03*
X041793Y035635D03*
X044993Y035635D03*
X047993Y035635D03*
X051193Y035635D03*
X054193Y035635D03*
D15*
X021543Y035595D03*
X020543Y035595D03*
X019543Y035595D03*
D16*
X012823Y031495D03*
X010973Y031495D03*
X009123Y031495D03*
X009973Y036495D03*
X011973Y036495D03*
X033293Y012995D03*
X033293Y006995D03*
X040793Y006995D03*
X040793Y012995D03*
D17*
X051770Y010719D03*
D18*
X051770Y008357D03*
D19*
X053541Y007965D03*
X049998Y007965D03*
D20*
X046793Y008645D03*
X045843Y008645D03*
X045793Y014395D03*
X045793Y014895D03*
X045293Y014895D03*
X044793Y014895D03*
X044293Y014895D03*
X043793Y014895D03*
X043793Y014395D03*
X044293Y014395D03*
X044793Y014395D03*
X044793Y015395D03*
X044293Y015395D03*
X043793Y015395D03*
X043793Y015895D03*
X043793Y016395D03*
X043793Y016895D03*
X043793Y017395D03*
X043793Y017895D03*
X043793Y018395D03*
X044293Y018395D03*
X044293Y017895D03*
X044293Y017395D03*
X044293Y016895D03*
X044293Y016395D03*
X044293Y015895D03*
X045293Y015395D03*
X045793Y015395D03*
X046293Y015395D03*
X046293Y014895D03*
X046293Y014395D03*
X046793Y014395D03*
X046793Y014895D03*
X046793Y015395D03*
X047293Y015395D03*
X047293Y014895D03*
X047293Y014395D03*
X047793Y014395D03*
X047793Y014895D03*
X047793Y015395D03*
X048293Y015395D03*
X048293Y014895D03*
X048293Y014395D03*
X048793Y014395D03*
X048793Y014895D03*
X048793Y015395D03*
X048793Y015895D03*
X048293Y015895D03*
X048293Y016395D03*
X048293Y016895D03*
X048293Y017395D03*
X048293Y017895D03*
X048293Y018395D03*
X048293Y018895D03*
X048293Y019395D03*
X048293Y019895D03*
X048793Y019895D03*
X048793Y019395D03*
X048793Y018895D03*
X048793Y018395D03*
X048793Y017895D03*
X048793Y017395D03*
X048793Y016895D03*
X048793Y016395D03*
X049293Y016395D03*
X049293Y015895D03*
X049293Y015395D03*
X049293Y014895D03*
X049293Y014395D03*
X049793Y014395D03*
X049793Y014895D03*
X049793Y015395D03*
X049793Y015895D03*
X049793Y016395D03*
X049793Y016895D03*
X049293Y016895D03*
X049293Y017395D03*
X049293Y017895D03*
X049293Y018395D03*
X049293Y018895D03*
X049293Y019395D03*
X049293Y019895D03*
X049793Y019895D03*
X049793Y019395D03*
X049793Y018895D03*
X049793Y018395D03*
X049793Y017895D03*
X049793Y017395D03*
X050293Y017395D03*
X050293Y016895D03*
X050293Y016395D03*
X050293Y015895D03*
X050293Y015395D03*
X050293Y014895D03*
X050293Y014395D03*
X050793Y014395D03*
X050793Y014895D03*
X050793Y015395D03*
X050793Y015895D03*
X050793Y016395D03*
X050793Y016895D03*
X050793Y017395D03*
X050793Y017895D03*
X050293Y017895D03*
X050293Y018395D03*
X050293Y018895D03*
X050293Y019395D03*
X050293Y019895D03*
X050793Y019895D03*
X050793Y019395D03*
X050793Y018895D03*
X050793Y018395D03*
X051293Y018395D03*
X051293Y017895D03*
X051293Y017395D03*
X051293Y016895D03*
X051293Y016395D03*
X051293Y015895D03*
X051293Y015395D03*
X051293Y014895D03*
X051293Y018895D03*
X051293Y019395D03*
X051293Y019895D03*
X051293Y020395D03*
X050793Y020395D03*
X050293Y020395D03*
X049793Y020395D03*
X049293Y020395D03*
X048793Y020395D03*
X048293Y020395D03*
X047793Y020395D03*
X047293Y020395D03*
X046793Y020395D03*
X046293Y020395D03*
X045793Y020395D03*
X045293Y020395D03*
X044793Y020395D03*
X044293Y019895D03*
X044293Y019395D03*
X044293Y018895D03*
X043593Y020645D03*
X042543Y021395D03*
X043993Y022495D03*
X044293Y022145D03*
X044793Y021845D03*
X045243Y021845D03*
X044743Y021345D03*
X046293Y020895D03*
X046793Y020895D03*
X046793Y021395D03*
X047293Y021395D03*
X047293Y020895D03*
X047793Y020895D03*
X047793Y021395D03*
X047793Y021895D03*
X047293Y021895D03*
X047793Y022395D03*
X048293Y022395D03*
X048293Y021895D03*
X048293Y021395D03*
X048293Y020895D03*
X048793Y020895D03*
X048793Y021395D03*
X048793Y021895D03*
X048793Y022395D03*
X048793Y022895D03*
X048293Y022895D03*
X048293Y023395D03*
X048793Y023395D03*
X048793Y023895D03*
X049293Y023895D03*
X049293Y023395D03*
X049293Y022895D03*
X049293Y022395D03*
X049293Y021895D03*
X049293Y021395D03*
X049293Y020895D03*
X049793Y020895D03*
X049793Y021395D03*
X049793Y021895D03*
X049793Y022395D03*
X049793Y022895D03*
X049793Y023395D03*
X049793Y023895D03*
X050293Y023895D03*
X050293Y023395D03*
X050293Y022895D03*
X050293Y022395D03*
X050293Y021895D03*
X050293Y021395D03*
X050293Y020895D03*
X050793Y020895D03*
X050793Y021395D03*
X050793Y021895D03*
X050793Y022395D03*
X050793Y022895D03*
X050793Y023395D03*
X050793Y023895D03*
X051293Y023895D03*
X051293Y023395D03*
X051293Y022895D03*
X051293Y022395D03*
X051293Y021895D03*
X051293Y021395D03*
X051293Y020895D03*
X047193Y024145D03*
X047893Y025045D03*
X045693Y025045D03*
X044793Y025195D03*
X044793Y026195D03*
X044293Y026195D03*
X043793Y026195D03*
X043293Y026195D03*
X042793Y026195D03*
X042293Y026195D03*
X041793Y026195D03*
X041293Y026195D03*
X040793Y026195D03*
X040293Y026195D03*
X039793Y026195D03*
X039793Y026695D03*
X039793Y027195D03*
X039793Y027695D03*
X039793Y028195D03*
X039793Y028695D03*
X039793Y029195D03*
X039793Y029695D03*
X039793Y030195D03*
X039793Y030695D03*
X040293Y030695D03*
X040293Y030195D03*
X040293Y029695D03*
X040293Y029195D03*
X040293Y028695D03*
X040293Y028195D03*
X040293Y027695D03*
X040293Y027195D03*
X040293Y026695D03*
X040793Y026695D03*
X040793Y027195D03*
X040793Y027695D03*
X040793Y028195D03*
X040793Y028695D03*
X040793Y029195D03*
X040793Y029695D03*
X040793Y030195D03*
X040793Y030695D03*
X041293Y030695D03*
X041293Y030195D03*
X041293Y029695D03*
X041293Y029195D03*
X041293Y028695D03*
X041293Y028195D03*
X041293Y027695D03*
X041293Y027195D03*
X041293Y026695D03*
X038743Y025645D03*
X038193Y024295D03*
X037393Y024095D03*
X038193Y023445D03*
X038693Y023095D03*
X038743Y021995D03*
X039443Y021795D03*
X040143Y021795D03*
X039843Y020995D03*
X038293Y019045D03*
X038843Y018595D03*
X038843Y017795D03*
X038293Y017345D03*
X038393Y016995D03*
X038943Y016595D03*
X038943Y015695D03*
X038393Y015295D03*
X037593Y015395D03*
X037593Y016895D03*
X037493Y017445D03*
X037493Y018945D03*
X039743Y018695D03*
X040143Y018745D03*
X040793Y018745D03*
X042543Y022795D03*
X042543Y023595D03*
X043993Y023895D03*
X044093Y024295D03*
X045793Y024145D03*
X045793Y026195D03*
X045293Y026195D03*
X045293Y026695D03*
X045293Y027195D03*
X045293Y027695D03*
X045293Y028195D03*
X045293Y028695D03*
X045293Y029195D03*
X045293Y029695D03*
X045293Y030195D03*
X045293Y030695D03*
X045793Y030695D03*
X045793Y030195D03*
X045793Y029695D03*
X045793Y029195D03*
X045793Y028695D03*
X045793Y028195D03*
X045793Y027695D03*
X045793Y027195D03*
X045793Y026695D03*
X044593Y031295D03*
X038793Y029845D03*
X037443Y029295D03*
X037343Y031045D03*
X038393Y032595D03*
X035093Y031445D03*
X033743Y030345D03*
X033343Y030595D03*
X032693Y029745D03*
X034643Y029645D03*
X035093Y028545D03*
X031943Y026395D03*
X032243Y024295D03*
X031693Y023845D03*
X031693Y023045D03*
X032193Y022595D03*
X033043Y022595D03*
X033343Y021745D03*
X032943Y021095D03*
X034943Y020445D03*
X035593Y021695D03*
X033043Y024095D03*
X035593Y024645D03*
X039843Y023695D03*
X034393Y017695D03*
X034943Y017495D03*
X023343Y017595D03*
X022943Y017595D03*
X022943Y017995D03*
X023343Y017995D03*
X023343Y017195D03*
X022943Y017195D03*
X015293Y016895D03*
X015293Y018395D03*
X013943Y019295D03*
X013643Y016895D03*
X010893Y011645D03*
X010893Y010595D03*
X009393Y009695D03*
X016543Y010845D03*
X023393Y007345D03*
X019393Y027695D03*
X018693Y027695D03*
X018143Y028145D03*
X018143Y028995D03*
X019443Y029295D03*
X021993Y029395D03*
X023693Y028995D03*
X025893Y028545D03*
X027893Y030295D03*
X023493Y031845D03*
X022201Y033095D03*
X021993Y031895D03*
X023293Y036145D03*
X023293Y036695D03*
X019793Y037145D03*
X016343Y036145D03*
X013943Y036145D03*
X013943Y036695D03*
X015843Y033895D03*
X015843Y032795D03*
X016293Y031195D03*
X014193Y027845D03*
X030793Y037145D03*
D21*
X019793Y037145D01*
X023293Y036695D02*
X023493Y036495D01*
X029793Y036495D01*
X030293Y035995D01*
X030293Y034595D01*
X031493Y033395D01*
X037593Y033395D01*
X038393Y032595D01*
X033343Y030595D02*
X033343Y021745D01*
X032693Y021345D02*
X032943Y021095D01*
X032693Y021345D02*
X032693Y029745D01*
X024193Y029495D02*
X023693Y028995D01*
X024193Y029495D02*
X024193Y031895D01*
X023643Y032445D01*
X022843Y032445D01*
X022201Y033088D01*
X022201Y033095D01*
X039743Y020895D02*
X039743Y018695D01*
X039743Y020895D02*
X039843Y020995D01*
X045443Y023545D02*
X045793Y023195D01*
X046143Y023195D01*
X045843Y008645D02*
X045809Y008645D01*
X045809Y007778D01*
X046793Y007778D02*
X046793Y008645D01*
D22*
X032643Y015645D03*
X031143Y019195D03*
X029943Y020045D03*
X020143Y011695D03*
X018443Y016245D03*
D23*
X018493Y016795D02*
X016393Y018895D01*
X013943Y018895D01*
X013643Y018595D01*
X018493Y016795D02*
X024893Y016795D01*
X026093Y017995D01*
X029041Y017995D01*
X029943Y017745D02*
X032043Y015645D01*
X032643Y015645D01*
X029943Y017745D02*
X029943Y020045D01*
X031143Y019195D02*
X032593Y019195D01*
X033593Y020195D01*
X033593Y021295D01*
X025343Y011195D02*
X020643Y011195D01*
X020143Y011695D01*
X025343Y011195D02*
X025743Y010795D01*
X025743Y010095D01*
D24*
X016493Y015395D03*
X016393Y012095D03*
X013643Y018595D03*
X021643Y028045D03*
X035893Y011295D03*
X035893Y010845D03*
X035893Y010395D03*
X035893Y009945D03*
X036343Y009945D03*
X036793Y009945D03*
X037243Y009945D03*
X037693Y009945D03*
X038143Y009945D03*
X038143Y010395D03*
X038143Y010845D03*
X038143Y011295D03*
D25*
X040046Y012685D02*
X040484Y012248D01*
X041103Y012248D01*
X041541Y012685D01*
X041541Y013305D01*
X041150Y013695D01*
X046115Y013695D01*
X045660Y013240D01*
X045660Y012550D01*
X046148Y012062D01*
X046838Y012062D01*
X047326Y012550D01*
X047326Y013240D01*
X046871Y013695D01*
X049065Y013695D01*
X048610Y013240D01*
X048610Y012550D01*
X049098Y012062D01*
X049788Y012062D01*
X050276Y012550D01*
X050276Y013240D01*
X049821Y013695D01*
X051543Y013695D01*
X051635Y013733D01*
X051705Y013803D01*
X051743Y013895D01*
X051743Y031995D01*
X051705Y032087D01*
X051635Y032157D01*
X051543Y032195D01*
X046901Y032195D01*
X047043Y032337D01*
X047043Y032793D01*
X046721Y033115D01*
X046265Y033115D01*
X045943Y032793D01*
X045943Y032337D01*
X046085Y032195D01*
X040701Y032195D01*
X040843Y032337D01*
X040843Y032793D01*
X040521Y033115D01*
X040065Y033115D01*
X039743Y032793D01*
X039743Y032337D01*
X039885Y032195D01*
X034501Y032195D01*
X034643Y032337D01*
X034643Y032793D01*
X034321Y033115D01*
X033865Y033115D01*
X033543Y032793D01*
X033543Y032337D01*
X033685Y032195D01*
X033444Y032195D01*
X033352Y032157D01*
X033281Y032087D01*
X033243Y031995D01*
X033243Y030916D01*
X033154Y030879D01*
X033059Y030785D01*
X033008Y030662D01*
X033008Y030528D01*
X033059Y030405D01*
X033083Y030381D01*
X033083Y022930D01*
X032977Y022930D01*
X032953Y022920D01*
X032953Y029531D01*
X032977Y029555D01*
X033028Y029678D01*
X033028Y029812D01*
X032977Y029935D01*
X032883Y030029D01*
X032760Y030080D01*
X032627Y030080D01*
X032504Y030029D01*
X029723Y030029D01*
X029723Y029949D02*
X029723Y031549D01*
X029647Y031625D01*
X028239Y031625D01*
X028163Y031549D01*
X028163Y025591D01*
X028239Y025515D01*
X028771Y025515D01*
X028821Y025465D01*
X029260Y025465D01*
X029310Y025515D01*
X030497Y025515D01*
X030573Y025591D01*
X030573Y025699D01*
X030573Y029399D01*
X030497Y029475D01*
X030397Y029575D01*
X030097Y029575D01*
X029723Y029949D01*
X029742Y029931D02*
X032408Y029931D01*
X032409Y029935D02*
X032358Y029812D01*
X032358Y029678D01*
X032409Y029555D01*
X032433Y029531D01*
X032433Y022829D01*
X032383Y022879D01*
X032260Y022930D01*
X032127Y022930D01*
X032004Y022879D01*
X031909Y022785D01*
X031858Y022662D01*
X031858Y022528D01*
X031909Y022405D01*
X032004Y022311D01*
X032127Y022260D01*
X032260Y022260D01*
X032383Y022311D01*
X032433Y022361D01*
X032433Y021293D01*
X032473Y021198D01*
X032608Y021062D01*
X032608Y021028D01*
X032659Y020905D01*
X032754Y020811D01*
X032877Y020760D01*
X033010Y020760D01*
X033133Y020811D01*
X033227Y020905D01*
X033233Y020920D01*
X033233Y020344D01*
X032444Y019555D01*
X031400Y019555D01*
X031390Y019565D01*
X031230Y019631D01*
X031057Y019631D01*
X030896Y019565D01*
X030773Y019442D01*
X030707Y019282D01*
X030707Y019108D01*
X030773Y018948D01*
X030896Y018825D01*
X031057Y018759D01*
X031230Y018759D01*
X031390Y018825D01*
X031400Y018835D01*
X032665Y018835D01*
X032797Y018890D01*
X033243Y019336D01*
X033243Y013895D01*
X033281Y013803D01*
X033342Y013742D01*
X032984Y013742D01*
X032546Y013305D01*
X032546Y012685D01*
X032984Y012248D01*
X033603Y012248D01*
X034041Y012685D01*
X034041Y013305D01*
X033650Y013695D01*
X040436Y013695D01*
X040046Y013305D01*
X040046Y012685D01*
X040046Y012693D02*
X034041Y012693D01*
X034041Y012792D02*
X040046Y012792D01*
X040046Y012890D02*
X034041Y012890D01*
X034041Y012989D02*
X040046Y012989D01*
X040046Y013087D02*
X034041Y013087D01*
X034041Y013186D02*
X040046Y013186D01*
X040046Y013284D02*
X034041Y013284D01*
X033963Y013383D02*
X040124Y013383D01*
X040222Y013481D02*
X033864Y013481D01*
X033766Y013580D02*
X040321Y013580D01*
X040419Y013678D02*
X033667Y013678D01*
X033493Y013945D02*
X033493Y019586D01*
X033797Y019890D01*
X033898Y019991D01*
X033953Y020123D01*
X033953Y020845D01*
X039483Y020845D01*
X039483Y018909D01*
X039459Y018885D01*
X039408Y018762D01*
X039408Y018628D01*
X039459Y018505D01*
X039554Y018411D01*
X039677Y018360D01*
X039810Y018360D01*
X039933Y018411D01*
X039974Y018452D01*
X040077Y018410D01*
X040210Y018410D01*
X040333Y018461D01*
X040367Y018495D01*
X040570Y018495D01*
X040604Y018461D01*
X040727Y018410D01*
X040860Y018410D01*
X040983Y018461D01*
X041017Y018495D01*
X041043Y018495D01*
X041135Y018533D01*
X041205Y018603D01*
X051493Y018603D01*
X051493Y018505D02*
X041066Y018505D01*
X041205Y018603D02*
X041243Y018695D01*
X041243Y020845D01*
X043320Y020845D01*
X043309Y020835D01*
X043258Y020712D01*
X043258Y020578D01*
X043309Y020455D01*
X043404Y020361D01*
X043527Y020310D01*
X043660Y020310D01*
X043783Y020361D01*
X043877Y020455D01*
X043928Y020578D01*
X043928Y020712D01*
X043877Y020835D01*
X043867Y020845D01*
X045593Y020845D01*
X045685Y020883D01*
X045755Y020953D01*
X045793Y021045D01*
X045793Y022545D01*
X046435Y022545D01*
X046493Y022604D01*
X046493Y023786D01*
X046435Y023845D01*
X045793Y023845D01*
X045793Y024045D01*
X045755Y024137D01*
X045685Y024207D01*
X045593Y024245D01*
X038528Y024245D01*
X038528Y024362D01*
X038477Y024485D01*
X038383Y024579D01*
X038260Y024630D01*
X038127Y024630D01*
X038004Y024579D01*
X037909Y024485D01*
X037858Y024362D01*
X037858Y024245D01*
X037694Y024245D01*
X037677Y024285D01*
X037583Y024379D01*
X037460Y024430D01*
X037327Y024430D01*
X037204Y024379D01*
X037109Y024285D01*
X037093Y024245D01*
X033603Y024245D01*
X033603Y030381D01*
X033627Y030405D01*
X033678Y030528D01*
X033678Y030662D01*
X033627Y030785D01*
X033533Y030879D01*
X033493Y030895D01*
X033493Y031945D01*
X050605Y031945D01*
X050412Y031865D01*
X050223Y031676D01*
X050121Y031429D01*
X050121Y031161D01*
X050223Y030914D01*
X050412Y030725D01*
X050660Y030623D01*
X050927Y030623D01*
X051174Y030725D01*
X051363Y030914D01*
X051466Y031161D01*
X051466Y031429D01*
X051363Y031676D01*
X051174Y031865D01*
X050981Y031945D01*
X051493Y031945D01*
X051493Y013945D01*
X033493Y013945D01*
X033493Y013974D02*
X051493Y013974D01*
X051493Y014072D02*
X033493Y014072D01*
X033493Y014171D02*
X051493Y014171D01*
X051493Y014269D02*
X033493Y014269D01*
X033493Y014368D02*
X051493Y014368D01*
X051493Y014466D02*
X033493Y014466D01*
X033493Y014565D02*
X051493Y014565D01*
X051493Y014663D02*
X033493Y014663D01*
X033493Y014762D02*
X051493Y014762D01*
X051493Y014860D02*
X033493Y014860D01*
X033493Y014959D02*
X051493Y014959D01*
X051493Y015057D02*
X038629Y015057D01*
X038583Y015011D02*
X038677Y015105D01*
X038728Y015228D01*
X038728Y015362D01*
X038677Y015485D01*
X038583Y015579D01*
X038460Y015630D01*
X038327Y015630D01*
X038204Y015579D01*
X038109Y015485D01*
X038058Y015362D01*
X038058Y015228D01*
X038109Y015105D01*
X038204Y015011D01*
X038327Y014960D01*
X038460Y014960D01*
X038583Y015011D01*
X038698Y015156D02*
X051493Y015156D01*
X051493Y015254D02*
X038728Y015254D01*
X038728Y015353D02*
X051493Y015353D01*
X051493Y015451D02*
X039173Y015451D01*
X039133Y015411D02*
X039227Y015505D01*
X039278Y015628D01*
X039278Y015762D01*
X039227Y015885D01*
X039133Y015979D01*
X039010Y016030D01*
X038877Y016030D01*
X038754Y015979D01*
X038659Y015885D01*
X038608Y015762D01*
X038608Y015628D01*
X038659Y015505D01*
X038754Y015411D01*
X038877Y015360D01*
X039010Y015360D01*
X039133Y015411D01*
X039246Y015550D02*
X051493Y015550D01*
X051493Y015648D02*
X039278Y015648D01*
X039278Y015747D02*
X051493Y015747D01*
X051493Y015845D02*
X039244Y015845D01*
X039169Y015944D02*
X051493Y015944D01*
X051493Y016042D02*
X033493Y016042D01*
X033493Y015944D02*
X038718Y015944D01*
X038643Y015845D02*
X033493Y015845D01*
X033493Y015747D02*
X038608Y015747D01*
X038608Y015648D02*
X037814Y015648D01*
X037783Y015679D02*
X037660Y015730D01*
X037527Y015730D01*
X037404Y015679D01*
X037309Y015585D01*
X037258Y015462D01*
X037258Y015328D01*
X037309Y015205D01*
X037404Y015111D01*
X037527Y015060D01*
X037660Y015060D01*
X037783Y015111D01*
X037877Y015205D01*
X037928Y015328D01*
X037928Y015462D01*
X037877Y015585D01*
X037783Y015679D01*
X037892Y015550D02*
X038174Y015550D01*
X038095Y015451D02*
X037928Y015451D01*
X037928Y015353D02*
X038058Y015353D01*
X038058Y015254D02*
X037898Y015254D01*
X037828Y015156D02*
X038088Y015156D01*
X038158Y015057D02*
X033493Y015057D01*
X033493Y015156D02*
X037359Y015156D01*
X037289Y015254D02*
X033493Y015254D01*
X033493Y015353D02*
X037258Y015353D01*
X037258Y015451D02*
X033493Y015451D01*
X033493Y015550D02*
X037295Y015550D01*
X037373Y015648D02*
X033493Y015648D01*
X033243Y015648D02*
X033080Y015648D01*
X033080Y015732D02*
X033013Y015892D01*
X032890Y016015D01*
X032730Y016081D01*
X032557Y016081D01*
X032396Y016015D01*
X032386Y016005D01*
X032192Y016005D01*
X030303Y017894D01*
X030303Y019788D01*
X030313Y019798D01*
X030380Y019958D01*
X030380Y020132D01*
X030313Y020292D01*
X030190Y020415D01*
X030030Y020481D01*
X029857Y020481D01*
X029696Y020415D01*
X029693Y020412D01*
X029693Y024495D01*
X029493Y024695D01*
X027993Y024695D01*
X027993Y023095D01*
X026693Y023095D01*
X022793Y026895D01*
X022793Y029145D01*
X021893Y029145D01*
X021893Y032795D01*
X016993Y032795D01*
X016993Y031676D01*
X016212Y030895D01*
X013280Y030895D01*
X013571Y031185D01*
X013571Y031805D01*
X013133Y032242D01*
X012514Y032242D01*
X012076Y031805D01*
X012076Y031185D01*
X012366Y030895D01*
X011430Y030895D01*
X011721Y031185D01*
X011721Y031805D01*
X011283Y032242D01*
X010664Y032242D01*
X010226Y031805D01*
X010226Y031695D01*
X009871Y031695D01*
X009871Y031805D01*
X009433Y032242D01*
X008814Y032242D01*
X008376Y031805D01*
X008376Y031695D01*
X007393Y031695D01*
X007393Y036862D01*
X007776Y037245D01*
X019472Y037245D01*
X019458Y037212D01*
X019458Y037078D01*
X019509Y036955D01*
X019604Y036861D01*
X019727Y036810D01*
X019860Y036810D01*
X019983Y036861D01*
X020007Y036885D01*
X023010Y036885D01*
X023009Y036885D01*
X022958Y036762D01*
X022958Y036628D01*
X023009Y036505D01*
X023095Y036420D01*
X023009Y036335D01*
X022958Y036212D01*
X022958Y036078D01*
X023009Y035955D01*
X023104Y035861D01*
X023227Y035810D01*
X023360Y035810D01*
X023483Y035861D01*
X023577Y035955D01*
X023628Y036078D01*
X023628Y036212D01*
X023619Y036235D01*
X029686Y036235D01*
X030033Y035887D01*
X030033Y034543D01*
X030073Y034448D01*
X031346Y033175D01*
X031442Y033135D01*
X037486Y033135D01*
X038058Y032562D01*
X038058Y032528D01*
X038109Y032405D01*
X038204Y032311D01*
X038327Y032260D01*
X038460Y032260D01*
X038583Y032311D01*
X038677Y032405D01*
X038728Y032528D01*
X038728Y032662D01*
X038677Y032785D01*
X038583Y032879D01*
X038460Y032930D01*
X038426Y032930D01*
X037814Y033542D01*
X037741Y033615D01*
X037645Y033655D01*
X031601Y033655D01*
X030553Y034703D01*
X030553Y036047D01*
X030514Y036142D01*
X030014Y036642D01*
X029941Y036715D01*
X029845Y036755D01*
X023628Y036755D01*
X023628Y036762D01*
X023577Y036885D01*
X030580Y036885D01*
X030604Y036861D01*
X030727Y036810D01*
X030860Y036810D01*
X030983Y036861D01*
X031077Y036955D01*
X031128Y037078D01*
X031128Y037212D01*
X031114Y037245D01*
X055610Y037245D01*
X055993Y036862D01*
X055993Y006578D01*
X055610Y006195D01*
X044461Y006195D01*
X044734Y006468D01*
X044734Y007122D01*
X044271Y007586D01*
X043616Y007586D01*
X043153Y007122D01*
X043153Y006468D01*
X043425Y006195D01*
X025943Y006195D01*
X025943Y008565D01*
X025963Y008565D01*
X026043Y008645D01*
X026043Y008206D01*
X026150Y007948D01*
X026347Y007752D01*
X027697Y006402D01*
X027954Y006295D01*
X032936Y006295D01*
X032984Y006248D01*
X033603Y006248D01*
X034041Y006685D01*
X034041Y007305D01*
X033603Y007742D01*
X032984Y007742D01*
X032936Y007695D01*
X028383Y007695D01*
X028283Y007795D01*
X039003Y007795D01*
X040046Y006753D01*
X040046Y006685D01*
X040484Y006248D01*
X041103Y006248D01*
X041541Y006685D01*
X041541Y007305D01*
X041103Y007742D01*
X041036Y007742D01*
X039887Y008892D01*
X039690Y009088D01*
X039433Y009195D01*
X028533Y009195D01*
X028393Y009335D01*
X028393Y010645D01*
X028355Y010737D01*
X028285Y010807D01*
X028193Y010845D01*
X027294Y010845D01*
X027243Y010824D01*
X027193Y010845D01*
X026294Y010845D01*
X026202Y010807D01*
X026131Y010737D01*
X026103Y010669D01*
X026103Y010867D01*
X026048Y010999D01*
X025648Y011399D01*
X025547Y011500D01*
X025415Y011555D01*
X020792Y011555D01*
X020580Y011768D01*
X020580Y011782D01*
X020513Y011942D01*
X020390Y012065D01*
X020230Y012131D01*
X020057Y012131D01*
X019896Y012065D01*
X019773Y011942D01*
X019707Y011782D01*
X019707Y011608D01*
X019773Y011448D01*
X019896Y011325D01*
X020057Y011259D01*
X020070Y011259D01*
X020439Y010890D01*
X020572Y010835D01*
X025194Y010835D01*
X025383Y010646D01*
X025383Y010485D01*
X025243Y010345D01*
X024963Y010625D01*
X024524Y010625D01*
X024243Y010345D01*
X023963Y010625D01*
X023524Y010625D01*
X023213Y010315D01*
X023213Y009875D01*
X023524Y009565D01*
X023963Y009565D01*
X024243Y009845D01*
X024494Y009595D01*
X024213Y009315D01*
X024213Y008875D01*
X024524Y008565D01*
X024543Y008565D01*
X024543Y007845D01*
X021593Y007845D01*
X020393Y006645D01*
X015393Y006645D01*
X015393Y015683D01*
X016155Y016445D01*
X018054Y016445D01*
X018007Y016332D01*
X018007Y016158D01*
X018073Y015998D01*
X018196Y015875D01*
X018357Y015809D01*
X018530Y015809D01*
X018690Y015875D01*
X018813Y015998D01*
X018880Y016158D01*
X018880Y016332D01*
X018837Y016435D01*
X024965Y016435D01*
X024989Y016445D01*
X029693Y016445D01*
X029693Y017486D01*
X031839Y015340D01*
X031972Y015285D01*
X032386Y015285D01*
X032396Y015275D01*
X032557Y015209D01*
X032730Y015209D01*
X032890Y015275D01*
X033013Y015398D01*
X033080Y015558D01*
X033080Y015732D01*
X033073Y015747D02*
X033243Y015747D01*
X033243Y015845D02*
X033033Y015845D01*
X032962Y015944D02*
X033243Y015944D01*
X033243Y016042D02*
X032825Y016042D01*
X032462Y016042D02*
X032155Y016042D01*
X032057Y016141D02*
X033243Y016141D01*
X033243Y016239D02*
X031958Y016239D01*
X031860Y016338D02*
X033243Y016338D01*
X033243Y016436D02*
X031761Y016436D01*
X031663Y016535D02*
X033243Y016535D01*
X033243Y016633D02*
X031564Y016633D01*
X031466Y016732D02*
X033243Y016732D01*
X033243Y016830D02*
X031367Y016830D01*
X031269Y016929D02*
X033243Y016929D01*
X033243Y017027D02*
X031170Y017027D01*
X031072Y017126D02*
X033243Y017126D01*
X033243Y017224D02*
X030973Y017224D01*
X030875Y017323D02*
X033243Y017323D01*
X033243Y017421D02*
X030776Y017421D01*
X030678Y017520D02*
X033243Y017520D01*
X033243Y017618D02*
X030579Y017618D01*
X030481Y017717D02*
X033243Y017717D01*
X033243Y017815D02*
X030382Y017815D01*
X030303Y017914D02*
X033243Y017914D01*
X033243Y018012D02*
X030303Y018012D01*
X030303Y018111D02*
X033243Y018111D01*
X033243Y018209D02*
X030303Y018209D01*
X030303Y018308D02*
X033243Y018308D01*
X033243Y018406D02*
X030303Y018406D01*
X030303Y018505D02*
X033243Y018505D01*
X033243Y018603D02*
X030303Y018603D01*
X030303Y018702D02*
X033243Y018702D01*
X033243Y018800D02*
X031330Y018800D01*
X030957Y018800D02*
X030303Y018800D01*
X030303Y018899D02*
X030823Y018899D01*
X030753Y018997D02*
X030303Y018997D01*
X030303Y019096D02*
X030712Y019096D01*
X030707Y019194D02*
X030303Y019194D01*
X030303Y019293D02*
X030712Y019293D01*
X030752Y019391D02*
X030303Y019391D01*
X030303Y019490D02*
X030821Y019490D01*
X030952Y019588D02*
X030303Y019588D01*
X030303Y019687D02*
X032576Y019687D01*
X032674Y019785D02*
X030303Y019785D01*
X030349Y019884D02*
X032773Y019884D01*
X032871Y019982D02*
X030380Y019982D01*
X030380Y020081D02*
X032970Y020081D01*
X033068Y020179D02*
X030360Y020179D01*
X030319Y020278D02*
X033167Y020278D01*
X033233Y020376D02*
X030229Y020376D01*
X030046Y020475D02*
X033233Y020475D01*
X033233Y020573D02*
X029693Y020573D01*
X029693Y020475D02*
X029840Y020475D01*
X029693Y020672D02*
X033233Y020672D01*
X033233Y020770D02*
X033034Y020770D01*
X032852Y020770D02*
X029693Y020770D01*
X029693Y020869D02*
X032696Y020869D01*
X032634Y020967D02*
X029693Y020967D01*
X029693Y021066D02*
X032605Y021066D01*
X032507Y021164D02*
X029693Y021164D01*
X029693Y021263D02*
X032446Y021263D01*
X032433Y021361D02*
X029693Y021361D01*
X029693Y021460D02*
X032433Y021460D01*
X032433Y021558D02*
X029693Y021558D01*
X029693Y021657D02*
X032433Y021657D01*
X032433Y021755D02*
X029693Y021755D01*
X029693Y021854D02*
X032433Y021854D01*
X032433Y021952D02*
X029693Y021952D01*
X029693Y022051D02*
X032433Y022051D01*
X032433Y022149D02*
X029693Y022149D01*
X029693Y022248D02*
X032433Y022248D01*
X032433Y022346D02*
X032418Y022346D01*
X031969Y022346D02*
X029693Y022346D01*
X029693Y022445D02*
X031893Y022445D01*
X031858Y022543D02*
X029693Y022543D01*
X029693Y022642D02*
X031858Y022642D01*
X031832Y022740D02*
X031891Y022740D01*
X031883Y022761D02*
X031760Y022710D01*
X031627Y022710D01*
X031504Y022761D01*
X031409Y022855D01*
X031358Y022978D01*
X031358Y023112D01*
X031409Y023235D01*
X031504Y023329D01*
X031627Y023380D01*
X031760Y023380D01*
X031883Y023329D01*
X031977Y023235D01*
X032028Y023112D01*
X032028Y022978D01*
X031977Y022855D01*
X031883Y022761D01*
X031961Y022839D02*
X031963Y022839D01*
X032011Y022937D02*
X032433Y022937D01*
X032424Y022839D02*
X032433Y022839D01*
X032433Y023036D02*
X032028Y023036D01*
X032019Y023134D02*
X032433Y023134D01*
X032433Y023233D02*
X031978Y023233D01*
X031878Y023331D02*
X032433Y023331D01*
X032433Y023430D02*
X029693Y023430D01*
X029693Y023528D02*
X032433Y023528D01*
X032433Y023627D02*
X029693Y023627D01*
X029693Y023725D02*
X032433Y023725D01*
X032433Y023824D02*
X029693Y023824D01*
X029693Y023922D02*
X032433Y023922D01*
X032433Y024021D02*
X029693Y024021D01*
X029693Y024119D02*
X032433Y024119D01*
X032433Y024218D02*
X029693Y024218D01*
X029693Y024316D02*
X032433Y024316D01*
X032433Y024415D02*
X029693Y024415D01*
X029675Y024513D02*
X032433Y024513D01*
X032433Y024612D02*
X029577Y024612D01*
X029293Y025498D02*
X032433Y025498D01*
X032433Y025400D02*
X024328Y025400D01*
X024227Y025498D02*
X028788Y025498D01*
X028163Y025597D02*
X024126Y025597D01*
X024025Y025695D02*
X028163Y025695D01*
X028163Y025794D02*
X023924Y025794D01*
X023823Y025892D02*
X028163Y025892D01*
X028163Y025991D02*
X023722Y025991D01*
X023620Y026089D02*
X028163Y026089D01*
X028163Y026188D02*
X023519Y026188D01*
X023418Y026286D02*
X028163Y026286D01*
X028163Y026385D02*
X023317Y026385D01*
X023216Y026483D02*
X028163Y026483D01*
X028163Y026582D02*
X023115Y026582D01*
X023014Y026680D02*
X028163Y026680D01*
X028163Y026779D02*
X022913Y026779D01*
X022812Y026877D02*
X028163Y026877D01*
X028163Y026976D02*
X022793Y026976D01*
X022793Y027074D02*
X028163Y027074D01*
X028163Y027173D02*
X022793Y027173D01*
X022793Y027271D02*
X028163Y027271D01*
X028163Y027370D02*
X022793Y027370D01*
X022793Y027468D02*
X028163Y027468D01*
X028163Y027567D02*
X022793Y027567D01*
X022793Y027665D02*
X028163Y027665D01*
X028163Y027764D02*
X022793Y027764D01*
X022793Y027862D02*
X028163Y027862D01*
X028163Y027961D02*
X022793Y027961D01*
X022793Y028059D02*
X028163Y028059D01*
X028163Y028158D02*
X022793Y028158D01*
X022793Y028256D02*
X028163Y028256D01*
X028163Y028355D02*
X022793Y028355D01*
X022793Y028453D02*
X028163Y028453D01*
X028163Y028552D02*
X022793Y028552D01*
X022793Y028650D02*
X028163Y028650D01*
X028163Y028749D02*
X023921Y028749D01*
X023883Y028711D02*
X023977Y028805D01*
X024028Y028928D01*
X024028Y028962D01*
X024414Y029348D01*
X024453Y029443D01*
X024453Y031947D01*
X024414Y032042D01*
X024341Y032115D01*
X023791Y032665D01*
X023695Y032705D01*
X022951Y032705D01*
X022536Y033120D01*
X022536Y033162D01*
X022485Y033285D01*
X022390Y033379D01*
X022267Y033430D01*
X022134Y033430D01*
X022011Y033379D01*
X021917Y033285D01*
X021866Y033162D01*
X021866Y033028D01*
X021917Y032905D01*
X022011Y032811D01*
X022134Y032760D01*
X022161Y032760D01*
X022623Y032298D01*
X022696Y032225D01*
X022792Y032185D01*
X023536Y032185D01*
X023541Y032180D01*
X023427Y032180D01*
X023304Y032129D01*
X023209Y032035D01*
X023158Y031912D01*
X023158Y031778D01*
X023209Y031655D01*
X023304Y031561D01*
X023427Y031510D01*
X023560Y031510D01*
X023683Y031561D01*
X023777Y031655D01*
X023828Y031778D01*
X023828Y031892D01*
X023933Y031787D01*
X023933Y029603D01*
X023661Y029330D01*
X023627Y029330D01*
X023504Y029279D01*
X023409Y029185D01*
X023358Y029062D01*
X023358Y028928D01*
X023409Y028805D01*
X023504Y028711D01*
X023627Y028660D01*
X023760Y028660D01*
X023883Y028711D01*
X023995Y028847D02*
X028163Y028847D01*
X028163Y028946D02*
X024028Y028946D01*
X024110Y029044D02*
X028163Y029044D01*
X028163Y029143D02*
X024209Y029143D01*
X024307Y029241D02*
X028163Y029241D01*
X028163Y029340D02*
X024406Y029340D01*
X024451Y029438D02*
X028163Y029438D01*
X028163Y029537D02*
X024453Y029537D01*
X024453Y029635D02*
X028163Y029635D01*
X028163Y029734D02*
X024453Y029734D01*
X024453Y029832D02*
X028163Y029832D01*
X028163Y029931D02*
X024453Y029931D01*
X024453Y030029D02*
X028163Y030029D01*
X028163Y030128D02*
X024453Y030128D01*
X024453Y030226D02*
X028163Y030226D01*
X028163Y030325D02*
X024453Y030325D01*
X024453Y030423D02*
X028163Y030423D01*
X028163Y030522D02*
X024453Y030522D01*
X024453Y030620D02*
X028163Y030620D01*
X028163Y030719D02*
X024453Y030719D01*
X024453Y030817D02*
X028163Y030817D01*
X028163Y030916D02*
X024453Y030916D01*
X024453Y031014D02*
X028163Y031014D01*
X028163Y031113D02*
X024453Y031113D01*
X024453Y031211D02*
X028163Y031211D01*
X028163Y031310D02*
X024453Y031310D01*
X024453Y031408D02*
X028163Y031408D01*
X028163Y031507D02*
X024453Y031507D01*
X024453Y031605D02*
X028220Y031605D01*
X029667Y031605D02*
X031581Y031605D01*
X031483Y031704D02*
X024453Y031704D01*
X024453Y031802D02*
X031436Y031802D01*
X031473Y031714D02*
X031343Y032026D01*
X031343Y032364D01*
X031473Y032676D01*
X031712Y032916D01*
X032024Y033045D01*
X032362Y033045D01*
X032675Y032916D01*
X032914Y032676D01*
X033043Y032364D01*
X033043Y032026D01*
X032914Y031714D01*
X032675Y031474D01*
X032362Y031345D01*
X032024Y031345D01*
X031712Y031474D01*
X031473Y031714D01*
X031395Y031901D02*
X024453Y031901D01*
X024432Y031999D02*
X031354Y031999D01*
X031343Y032098D02*
X024358Y032098D01*
X024260Y032196D02*
X031343Y032196D01*
X031343Y032295D02*
X024161Y032295D01*
X024063Y032393D02*
X031355Y032393D01*
X031396Y032492D02*
X023964Y032492D01*
X023866Y032590D02*
X031437Y032590D01*
X031485Y032689D02*
X023735Y032689D01*
X023272Y032098D02*
X021893Y032098D01*
X021893Y032196D02*
X022765Y032196D01*
X022626Y032295D02*
X021893Y032295D01*
X021893Y032393D02*
X022528Y032393D01*
X022429Y032492D02*
X021893Y032492D01*
X021893Y032590D02*
X022331Y032590D01*
X022232Y032689D02*
X021893Y032689D01*
X021893Y032787D02*
X022069Y032787D01*
X021936Y032886D02*
X016168Y032886D01*
X016178Y032862D02*
X016127Y032985D01*
X016093Y033019D01*
X016093Y033671D01*
X016127Y033705D01*
X016178Y033828D01*
X016178Y033962D01*
X016127Y034085D01*
X016033Y034179D01*
X015910Y034230D01*
X015777Y034230D01*
X015654Y034179D01*
X015559Y034085D01*
X015508Y033962D01*
X015508Y033828D01*
X015559Y033705D01*
X015593Y033671D01*
X015593Y033019D01*
X015559Y032985D01*
X015508Y032862D01*
X015508Y032728D01*
X015559Y032605D01*
X015654Y032511D01*
X015777Y032460D01*
X015910Y032460D01*
X016033Y032511D01*
X016127Y032605D01*
X016178Y032728D01*
X016178Y032862D01*
X016178Y032787D02*
X016993Y032787D01*
X016993Y032689D02*
X016162Y032689D01*
X016112Y032590D02*
X016993Y032590D01*
X016993Y032492D02*
X015986Y032492D01*
X015700Y032492D02*
X007393Y032492D01*
X007393Y032590D02*
X015574Y032590D01*
X015525Y032689D02*
X007393Y032689D01*
X007393Y032787D02*
X015508Y032787D01*
X015518Y032886D02*
X007393Y032886D01*
X007393Y032984D02*
X015559Y032984D01*
X015593Y033083D02*
X007393Y033083D01*
X007393Y033181D02*
X015593Y033181D01*
X015593Y033280D02*
X007393Y033280D01*
X007393Y033378D02*
X015593Y033378D01*
X015593Y033477D02*
X007393Y033477D01*
X007393Y033575D02*
X015593Y033575D01*
X015591Y033674D02*
X007393Y033674D01*
X007393Y033772D02*
X015532Y033772D01*
X015508Y033871D02*
X007393Y033871D01*
X007393Y033969D02*
X015511Y033969D01*
X015552Y034068D02*
X007393Y034068D01*
X007393Y034166D02*
X015641Y034166D01*
X015843Y033895D02*
X015843Y032795D01*
X016128Y032984D02*
X021884Y032984D01*
X021866Y033083D02*
X016093Y033083D01*
X016093Y033181D02*
X021874Y033181D01*
X021914Y033280D02*
X016093Y033280D01*
X016093Y033378D02*
X022010Y033378D01*
X022391Y033378D02*
X031143Y033378D01*
X031241Y033280D02*
X022487Y033280D01*
X022528Y033181D02*
X031340Y033181D01*
X031044Y033477D02*
X016093Y033477D01*
X016093Y033575D02*
X030946Y033575D01*
X030847Y033674D02*
X016096Y033674D01*
X016155Y033772D02*
X030749Y033772D01*
X030650Y033871D02*
X016178Y033871D01*
X016175Y033969D02*
X030552Y033969D01*
X030453Y034068D02*
X016134Y034068D01*
X016046Y034166D02*
X030355Y034166D01*
X030256Y034265D02*
X007393Y034265D01*
X007393Y034363D02*
X030158Y034363D01*
X030067Y034462D02*
X007393Y034462D01*
X007393Y034560D02*
X030033Y034560D01*
X030033Y034659D02*
X007393Y034659D01*
X007393Y034757D02*
X030033Y034757D01*
X030033Y034856D02*
X007393Y034856D01*
X007393Y034954D02*
X014013Y034954D01*
X013950Y034980D02*
X014108Y034915D01*
X014279Y034915D01*
X014437Y034980D01*
X014558Y035101D01*
X014623Y035259D01*
X014623Y035431D01*
X014558Y035589D01*
X014437Y035710D01*
X014279Y035775D01*
X014108Y035775D01*
X013950Y035710D01*
X013829Y035589D01*
X013763Y035431D01*
X013763Y035259D01*
X013829Y035101D01*
X013950Y034980D01*
X013878Y035053D02*
X007393Y035053D01*
X007393Y035151D02*
X013808Y035151D01*
X013767Y035250D02*
X007393Y035250D01*
X007393Y035348D02*
X013763Y035348D01*
X013770Y035447D02*
X007393Y035447D01*
X007393Y035545D02*
X013811Y035545D01*
X013884Y035644D02*
X007393Y035644D01*
X007393Y035742D02*
X014028Y035742D01*
X014010Y035810D02*
X014133Y035861D01*
X014227Y035955D01*
X014278Y036078D01*
X014278Y036212D01*
X014227Y036335D01*
X014133Y036429D01*
X014010Y036480D01*
X013877Y036480D01*
X013754Y036429D01*
X013659Y036335D01*
X013608Y036212D01*
X013608Y036078D01*
X013659Y035955D01*
X013754Y035861D01*
X013877Y035810D01*
X014010Y035810D01*
X014084Y035841D02*
X016203Y035841D01*
X016154Y035861D02*
X016277Y035810D01*
X016410Y035810D01*
X016533Y035861D01*
X016627Y035955D01*
X016678Y036078D01*
X016678Y036212D01*
X016627Y036335D01*
X016533Y036429D01*
X016410Y036480D01*
X016277Y036480D01*
X016154Y036429D01*
X016059Y036335D01*
X016008Y036212D01*
X016008Y036078D01*
X016059Y035955D01*
X016154Y035861D01*
X016075Y035939D02*
X014211Y035939D01*
X014261Y036038D02*
X016025Y036038D01*
X016008Y036136D02*
X014278Y036136D01*
X014269Y036235D02*
X016018Y036235D01*
X016059Y036333D02*
X014228Y036333D01*
X014127Y036432D02*
X016160Y036432D01*
X016527Y036432D02*
X023083Y036432D01*
X023009Y036333D02*
X016628Y036333D01*
X016669Y036235D02*
X022968Y036235D01*
X022958Y036136D02*
X016678Y036136D01*
X016661Y036038D02*
X019327Y036038D01*
X019350Y036061D02*
X019078Y035788D01*
X019078Y035402D01*
X019350Y035129D01*
X019736Y035129D01*
X020009Y035402D01*
X020009Y035788D01*
X019736Y036061D01*
X019350Y036061D01*
X019229Y035939D02*
X016611Y035939D01*
X016484Y035841D02*
X019130Y035841D01*
X019078Y035742D02*
X017783Y035742D01*
X017862Y035710D02*
X017704Y035775D01*
X017533Y035775D01*
X017375Y035710D01*
X017254Y035589D01*
X017188Y035431D01*
X017188Y035259D01*
X017254Y035101D01*
X017375Y034980D01*
X017533Y034915D01*
X017704Y034915D01*
X017862Y034980D01*
X017983Y035101D01*
X018048Y035259D01*
X018048Y035431D01*
X017983Y035589D01*
X017862Y035710D01*
X017928Y035644D02*
X019078Y035644D01*
X019078Y035545D02*
X018001Y035545D01*
X018042Y035447D02*
X019078Y035447D01*
X019132Y035348D02*
X018048Y035348D01*
X018044Y035250D02*
X019230Y035250D01*
X019329Y035151D02*
X018003Y035151D01*
X017934Y035053D02*
X023228Y035053D01*
X023179Y035101D02*
X023300Y034980D01*
X023458Y034915D01*
X023629Y034915D01*
X023787Y034980D01*
X023908Y035101D01*
X023973Y035259D01*
X023973Y035431D01*
X023908Y035589D01*
X023787Y035710D01*
X023629Y035775D01*
X023458Y035775D01*
X023300Y035710D01*
X023179Y035589D01*
X023113Y035431D01*
X023113Y035259D01*
X023179Y035101D01*
X023158Y035151D02*
X020758Y035151D01*
X020736Y035129D02*
X021009Y035402D01*
X021009Y035788D01*
X020736Y036061D01*
X020350Y036061D01*
X020078Y035788D01*
X020078Y035402D01*
X020350Y035129D01*
X020736Y035129D01*
X020857Y035250D02*
X023117Y035250D01*
X023113Y035348D02*
X020955Y035348D01*
X021009Y035447D02*
X023120Y035447D01*
X023161Y035545D02*
X021009Y035545D01*
X021009Y035644D02*
X023234Y035644D01*
X023378Y035742D02*
X021009Y035742D01*
X020956Y035841D02*
X023153Y035841D01*
X023025Y035939D02*
X020858Y035939D01*
X020759Y036038D02*
X022975Y036038D01*
X022999Y036530D02*
X012721Y036530D01*
X012721Y036432D02*
X013760Y036432D01*
X013659Y036333D02*
X012721Y036333D01*
X012721Y036235D02*
X013618Y036235D01*
X013608Y036136D02*
X012672Y036136D01*
X012721Y036185D02*
X012283Y035748D01*
X011664Y035748D01*
X011226Y036185D01*
X011226Y036805D01*
X011664Y037242D01*
X012283Y037242D01*
X012721Y036805D01*
X012721Y036185D01*
X012573Y036038D02*
X013625Y036038D01*
X013675Y035939D02*
X012475Y035939D01*
X012376Y035841D02*
X013803Y035841D01*
X014358Y035742D02*
X015028Y035742D01*
X014950Y035710D02*
X014829Y035589D01*
X014763Y035431D01*
X014763Y035259D01*
X014829Y035101D01*
X014950Y034980D01*
X015108Y034915D01*
X015279Y034915D01*
X015437Y034980D01*
X015558Y035101D01*
X015623Y035259D01*
X015623Y035431D01*
X015558Y035589D01*
X015437Y035710D01*
X015279Y035775D01*
X015108Y035775D01*
X014950Y035710D01*
X014884Y035644D02*
X014503Y035644D01*
X014576Y035545D02*
X014811Y035545D01*
X014770Y035447D02*
X014617Y035447D01*
X014623Y035348D02*
X014763Y035348D01*
X014767Y035250D02*
X014619Y035250D01*
X014578Y035151D02*
X014808Y035151D01*
X014878Y035053D02*
X014509Y035053D01*
X014373Y034954D02*
X015013Y034954D01*
X015373Y034954D02*
X016438Y034954D01*
X016375Y034980D02*
X016533Y034915D01*
X016704Y034915D01*
X016862Y034980D01*
X016983Y035101D01*
X017048Y035259D01*
X017048Y035431D01*
X016983Y035589D01*
X016862Y035710D01*
X016704Y035775D01*
X016533Y035775D01*
X016375Y035710D01*
X016254Y035589D01*
X016188Y035431D01*
X016188Y035259D01*
X016254Y035101D01*
X016375Y034980D01*
X016303Y035053D02*
X015509Y035053D01*
X015578Y035151D02*
X016233Y035151D01*
X016192Y035250D02*
X015619Y035250D01*
X015623Y035348D02*
X016188Y035348D01*
X016195Y035447D02*
X015617Y035447D01*
X015576Y035545D02*
X016236Y035545D01*
X016309Y035644D02*
X015503Y035644D01*
X015358Y035742D02*
X016453Y035742D01*
X016783Y035742D02*
X017453Y035742D01*
X017309Y035644D02*
X016928Y035644D01*
X017001Y035545D02*
X017236Y035545D01*
X017195Y035447D02*
X017042Y035447D01*
X017048Y035348D02*
X017188Y035348D01*
X017192Y035250D02*
X017044Y035250D01*
X017003Y035151D02*
X017233Y035151D01*
X017303Y035053D02*
X016934Y035053D01*
X016798Y034954D02*
X017438Y034954D01*
X017798Y034954D02*
X023363Y034954D01*
X023723Y034954D02*
X024363Y034954D01*
X024300Y034980D02*
X024458Y034915D01*
X024629Y034915D01*
X024787Y034980D01*
X024908Y035101D01*
X024973Y035259D01*
X024973Y035431D01*
X024908Y035589D01*
X024787Y035710D01*
X024629Y035775D01*
X024458Y035775D01*
X024300Y035710D01*
X024179Y035589D01*
X024113Y035431D01*
X024113Y035259D01*
X024179Y035101D01*
X024300Y034980D01*
X024228Y035053D02*
X023859Y035053D01*
X023928Y035151D02*
X024158Y035151D01*
X024117Y035250D02*
X023969Y035250D01*
X023973Y035348D02*
X024113Y035348D01*
X024120Y035447D02*
X023967Y035447D01*
X023926Y035545D02*
X024161Y035545D01*
X024234Y035644D02*
X023853Y035644D01*
X023708Y035742D02*
X024378Y035742D01*
X024708Y035742D02*
X030033Y035742D01*
X030033Y035644D02*
X024853Y035644D01*
X024926Y035545D02*
X030033Y035545D01*
X030033Y035447D02*
X024967Y035447D01*
X024973Y035348D02*
X030033Y035348D01*
X030033Y035250D02*
X024969Y035250D01*
X024928Y035151D02*
X030033Y035151D01*
X030033Y035053D02*
X024859Y035053D01*
X024723Y034954D02*
X030033Y034954D01*
X030553Y034954D02*
X055993Y034954D01*
X055993Y034856D02*
X030553Y034856D01*
X030553Y034757D02*
X055993Y034757D01*
X055993Y034659D02*
X030597Y034659D01*
X030696Y034560D02*
X055993Y034560D01*
X055993Y034462D02*
X030794Y034462D01*
X030893Y034363D02*
X055993Y034363D01*
X055993Y034265D02*
X030991Y034265D01*
X031090Y034166D02*
X055993Y034166D01*
X055993Y034068D02*
X031188Y034068D01*
X031287Y033969D02*
X055993Y033969D01*
X055993Y033871D02*
X031385Y033871D01*
X031484Y033772D02*
X055993Y033772D01*
X055993Y033674D02*
X031582Y033674D01*
X031877Y032984D02*
X022672Y032984D01*
X022770Y032886D02*
X031682Y032886D01*
X031583Y032787D02*
X022869Y032787D01*
X022573Y033083D02*
X033833Y033083D01*
X033735Y032984D02*
X032509Y032984D01*
X032705Y032886D02*
X033636Y032886D01*
X033543Y032787D02*
X032803Y032787D01*
X032902Y032689D02*
X033543Y032689D01*
X033543Y032590D02*
X032950Y032590D01*
X032990Y032492D02*
X033543Y032492D01*
X033543Y032393D02*
X033031Y032393D01*
X033043Y032295D02*
X033586Y032295D01*
X033684Y032196D02*
X033043Y032196D01*
X033043Y032098D02*
X033292Y032098D01*
X033245Y031999D02*
X033032Y031999D01*
X032991Y031901D02*
X033243Y031901D01*
X033243Y031802D02*
X032951Y031802D01*
X032904Y031704D02*
X033243Y031704D01*
X033243Y031605D02*
X032805Y031605D01*
X032707Y031507D02*
X033243Y031507D01*
X033243Y031408D02*
X032515Y031408D01*
X031872Y031408D02*
X029723Y031408D01*
X029723Y031310D02*
X033243Y031310D01*
X033243Y031211D02*
X029723Y031211D01*
X029723Y031113D02*
X033243Y031113D01*
X033243Y031014D02*
X029723Y031014D01*
X029723Y030916D02*
X033242Y030916D01*
X033092Y030817D02*
X029723Y030817D01*
X029723Y030719D02*
X033032Y030719D01*
X033008Y030620D02*
X029723Y030620D01*
X029723Y030522D02*
X033011Y030522D01*
X033052Y030423D02*
X029723Y030423D01*
X029723Y030325D02*
X033083Y030325D01*
X033083Y030226D02*
X029723Y030226D01*
X029723Y030128D02*
X033083Y030128D01*
X033083Y030029D02*
X032883Y030029D01*
X032979Y029931D02*
X033083Y029931D01*
X033083Y029832D02*
X033020Y029832D01*
X033028Y029734D02*
X033083Y029734D01*
X033083Y029635D02*
X033010Y029635D01*
X032959Y029537D02*
X033083Y029537D01*
X033083Y029438D02*
X032953Y029438D01*
X032953Y029340D02*
X033083Y029340D01*
X033083Y029241D02*
X032953Y029241D01*
X032953Y029143D02*
X033083Y029143D01*
X033083Y029044D02*
X032953Y029044D01*
X032953Y028946D02*
X033083Y028946D01*
X033083Y028847D02*
X032953Y028847D01*
X032953Y028749D02*
X033083Y028749D01*
X033083Y028650D02*
X032953Y028650D01*
X032953Y028552D02*
X033083Y028552D01*
X033083Y028453D02*
X032953Y028453D01*
X032953Y028355D02*
X033083Y028355D01*
X033083Y028256D02*
X032953Y028256D01*
X032953Y028158D02*
X033083Y028158D01*
X033083Y028059D02*
X032953Y028059D01*
X032953Y027961D02*
X033083Y027961D01*
X033083Y027862D02*
X032953Y027862D01*
X032953Y027764D02*
X033083Y027764D01*
X033083Y027665D02*
X032953Y027665D01*
X032953Y027567D02*
X033083Y027567D01*
X033083Y027468D02*
X032953Y027468D01*
X032953Y027370D02*
X033083Y027370D01*
X033083Y027271D02*
X032953Y027271D01*
X032953Y027173D02*
X033083Y027173D01*
X033083Y027074D02*
X032953Y027074D01*
X032953Y026976D02*
X033083Y026976D01*
X033083Y026877D02*
X032953Y026877D01*
X032953Y026779D02*
X033083Y026779D01*
X033083Y026680D02*
X032953Y026680D01*
X032953Y026582D02*
X033083Y026582D01*
X033083Y026483D02*
X032953Y026483D01*
X032953Y026385D02*
X033083Y026385D01*
X033083Y026286D02*
X032953Y026286D01*
X032953Y026188D02*
X033083Y026188D01*
X033083Y026089D02*
X032953Y026089D01*
X032953Y025991D02*
X033083Y025991D01*
X033083Y025892D02*
X032953Y025892D01*
X032953Y025794D02*
X033083Y025794D01*
X033083Y025695D02*
X032953Y025695D01*
X032953Y025597D02*
X033083Y025597D01*
X033083Y025498D02*
X032953Y025498D01*
X032953Y025400D02*
X033083Y025400D01*
X033083Y025301D02*
X032953Y025301D01*
X032953Y025203D02*
X033083Y025203D01*
X033083Y025104D02*
X032953Y025104D01*
X032953Y025006D02*
X033083Y025006D01*
X033083Y024907D02*
X032953Y024907D01*
X032953Y024809D02*
X033083Y024809D01*
X033083Y024710D02*
X032953Y024710D01*
X032953Y024612D02*
X033083Y024612D01*
X033083Y024513D02*
X032953Y024513D01*
X032953Y024415D02*
X033083Y024415D01*
X033083Y024316D02*
X032953Y024316D01*
X032953Y024218D02*
X033083Y024218D01*
X033083Y024119D02*
X032953Y024119D01*
X032953Y024021D02*
X033083Y024021D01*
X033083Y023922D02*
X032953Y023922D01*
X032953Y023824D02*
X033083Y023824D01*
X033083Y023725D02*
X032953Y023725D01*
X032953Y023627D02*
X033083Y023627D01*
X033083Y023528D02*
X032953Y023528D01*
X032953Y023430D02*
X033083Y023430D01*
X033083Y023331D02*
X032953Y023331D01*
X032953Y023233D02*
X033083Y023233D01*
X033083Y023134D02*
X032953Y023134D01*
X032953Y023036D02*
X033083Y023036D01*
X033083Y022937D02*
X032953Y022937D01*
X033553Y022937D02*
X042294Y022937D01*
X042302Y022956D02*
X042258Y022852D01*
X042258Y022738D01*
X042302Y022634D01*
X042382Y022553D01*
X042487Y022510D01*
X042600Y022510D01*
X042705Y022553D01*
X042785Y022634D01*
X042828Y022738D01*
X042828Y022852D01*
X042785Y022956D01*
X042705Y023037D01*
X042600Y023080D01*
X042487Y023080D01*
X042382Y023037D01*
X042302Y022956D01*
X042381Y023036D02*
X033553Y023036D01*
X033553Y023134D02*
X044693Y023134D01*
X044693Y023036D02*
X042706Y023036D01*
X042793Y022937D02*
X044693Y022937D01*
X044693Y022839D02*
X042828Y022839D01*
X042828Y022740D02*
X043840Y022740D01*
X043832Y022737D02*
X043752Y022656D01*
X043708Y022552D01*
X043708Y022438D01*
X043752Y022334D01*
X043832Y022253D01*
X043937Y022210D01*
X044050Y022210D01*
X044155Y022253D01*
X044235Y022334D01*
X044278Y022438D01*
X044278Y022552D01*
X044235Y022656D01*
X044155Y022737D01*
X044050Y022780D01*
X043937Y022780D01*
X043832Y022737D01*
X043746Y022642D02*
X042788Y022642D01*
X042680Y022543D02*
X043708Y022543D01*
X043708Y022445D02*
X033553Y022445D01*
X033553Y022543D02*
X042407Y022543D01*
X042298Y022642D02*
X033553Y022642D01*
X033553Y022740D02*
X042258Y022740D01*
X042258Y022839D02*
X033553Y022839D01*
X033553Y023233D02*
X044693Y023233D01*
X044693Y023331D02*
X033553Y023331D01*
X033553Y023430D02*
X044693Y023430D01*
X044693Y023528D02*
X033553Y023528D01*
X033553Y023627D02*
X044693Y023627D01*
X044693Y023704D02*
X044693Y022686D01*
X044693Y022604D01*
X044752Y022545D01*
X045543Y022545D01*
X045543Y021095D01*
X040993Y021095D01*
X040993Y018948D01*
X040955Y018987D01*
X040850Y019030D01*
X040737Y019030D01*
X040632Y018987D01*
X040552Y018906D01*
X040508Y018802D01*
X040508Y018745D01*
X040028Y018745D01*
X040028Y018752D01*
X039985Y018856D01*
X039953Y018888D01*
X039953Y020732D01*
X040005Y020753D01*
X040085Y020834D01*
X040128Y020938D01*
X040128Y021052D01*
X040085Y021156D01*
X040005Y021237D01*
X039900Y021280D01*
X039787Y021280D01*
X039682Y021237D01*
X039602Y021156D01*
X039576Y021095D01*
X033493Y021095D01*
X033493Y021499D01*
X033505Y021503D01*
X033585Y021584D01*
X033628Y021688D01*
X033628Y021802D01*
X033585Y021906D01*
X033553Y021938D01*
X033553Y023995D01*
X037126Y023995D01*
X037152Y023934D01*
X037232Y023853D01*
X037337Y023810D01*
X037450Y023810D01*
X037555Y023853D01*
X037635Y023934D01*
X037660Y023995D01*
X045543Y023995D01*
X045543Y023845D01*
X044752Y023845D01*
X044693Y023786D01*
X044693Y023704D01*
X044693Y023725D02*
X033553Y023725D01*
X033553Y023824D02*
X037304Y023824D01*
X037163Y023922D02*
X033553Y023922D01*
X033603Y024316D02*
X035512Y024316D01*
X035527Y024310D02*
X035660Y024310D01*
X035783Y024361D01*
X035877Y024455D01*
X035928Y024578D01*
X035928Y024712D01*
X035877Y024835D01*
X035783Y024929D01*
X035660Y024980D01*
X035527Y024980D01*
X035404Y024929D01*
X035309Y024835D01*
X035258Y024712D01*
X035258Y024578D01*
X035309Y024455D01*
X035404Y024361D01*
X035527Y024310D01*
X035675Y024316D02*
X037141Y024316D01*
X037289Y024415D02*
X035837Y024415D01*
X035901Y024513D02*
X037938Y024513D01*
X037880Y024415D02*
X037497Y024415D01*
X037646Y024316D02*
X037858Y024316D01*
X038082Y024612D02*
X035928Y024612D01*
X035928Y024710D02*
X047827Y024710D01*
X047960Y024710D01*
X048083Y024761D01*
X048168Y024846D01*
X048223Y024714D01*
X048412Y024525D01*
X048660Y024423D01*
X048927Y024423D01*
X049174Y024525D01*
X049363Y024714D01*
X049466Y024961D01*
X049466Y025229D01*
X049363Y025476D01*
X049174Y025665D01*
X048927Y025767D01*
X048660Y025767D01*
X048412Y025665D01*
X048223Y025476D01*
X048139Y025273D01*
X048083Y025329D01*
X047960Y025380D01*
X047827Y025380D01*
X047704Y025329D01*
X047609Y025235D01*
X047558Y025112D01*
X047558Y024978D01*
X047609Y024855D01*
X047704Y024761D01*
X047827Y024710D01*
X047960Y024710D02*
X048227Y024710D01*
X048184Y024809D02*
X048131Y024809D01*
X048326Y024612D02*
X038304Y024612D01*
X038449Y024513D02*
X048441Y024513D01*
X049146Y024513D02*
X051493Y024513D01*
X051493Y024415D02*
X047398Y024415D01*
X047383Y024429D02*
X047260Y024480D01*
X047127Y024480D01*
X047004Y024429D01*
X046909Y024335D01*
X046858Y024212D01*
X046858Y024078D01*
X046909Y023955D01*
X047004Y023861D01*
X047127Y023810D01*
X047260Y023810D01*
X047383Y023861D01*
X047477Y023955D01*
X047528Y024078D01*
X047528Y024212D01*
X047477Y024335D01*
X047383Y024429D01*
X047485Y024316D02*
X051493Y024316D01*
X051493Y024218D02*
X047526Y024218D01*
X047528Y024119D02*
X051493Y024119D01*
X051493Y024021D02*
X047504Y024021D01*
X047444Y023922D02*
X051493Y023922D01*
X051493Y023824D02*
X047293Y023824D01*
X047094Y023824D02*
X046456Y023824D01*
X046493Y023725D02*
X051493Y023725D01*
X051493Y023627D02*
X046493Y023627D01*
X046493Y023528D02*
X051493Y023528D01*
X051493Y023430D02*
X046493Y023430D01*
X046493Y023331D02*
X051493Y023331D01*
X051493Y023233D02*
X046493Y023233D01*
X046493Y023134D02*
X051493Y023134D01*
X051493Y023036D02*
X046493Y023036D01*
X046493Y022937D02*
X051493Y022937D01*
X051493Y022839D02*
X046493Y022839D01*
X046493Y022740D02*
X051493Y022740D01*
X051493Y022642D02*
X046493Y022642D01*
X045793Y022543D02*
X051493Y022543D01*
X051493Y022445D02*
X045793Y022445D01*
X045793Y022346D02*
X051493Y022346D01*
X051493Y022248D02*
X045793Y022248D01*
X045793Y022149D02*
X051493Y022149D01*
X051493Y022051D02*
X045793Y022051D01*
X045793Y021952D02*
X051493Y021952D01*
X051493Y021854D02*
X045793Y021854D01*
X045793Y021755D02*
X051493Y021755D01*
X051493Y021657D02*
X045793Y021657D01*
X045793Y021558D02*
X051493Y021558D01*
X051493Y021460D02*
X045793Y021460D01*
X045793Y021361D02*
X051493Y021361D01*
X051493Y021263D02*
X045793Y021263D01*
X045793Y021164D02*
X051493Y021164D01*
X051493Y021066D02*
X045793Y021066D01*
X045761Y020967D02*
X051493Y020967D01*
X051493Y020869D02*
X045650Y020869D01*
X045543Y021164D02*
X042715Y021164D01*
X042705Y021153D02*
X042785Y021234D01*
X042828Y021338D01*
X042828Y021452D01*
X042785Y021556D01*
X042705Y021637D01*
X042600Y021680D01*
X042487Y021680D01*
X042382Y021637D01*
X042302Y021556D01*
X042258Y021452D01*
X042258Y021338D01*
X042302Y021234D01*
X042382Y021153D01*
X042487Y021110D01*
X042600Y021110D01*
X042705Y021153D01*
X042797Y021263D02*
X045543Y021263D01*
X045543Y021361D02*
X042828Y021361D01*
X042825Y021460D02*
X045543Y021460D01*
X045543Y021558D02*
X042783Y021558D01*
X042657Y021657D02*
X045029Y021657D01*
X045002Y021684D02*
X045082Y021603D01*
X045187Y021560D01*
X045300Y021560D01*
X045405Y021603D01*
X045485Y021684D01*
X045528Y021788D01*
X045528Y021902D01*
X045485Y022006D01*
X045405Y022087D01*
X045300Y022130D01*
X045187Y022130D01*
X045082Y022087D01*
X045002Y022006D01*
X044958Y021902D01*
X044958Y021788D01*
X045002Y021684D01*
X044972Y021755D02*
X040428Y021755D01*
X040428Y021738D02*
X040385Y021634D01*
X040305Y021553D01*
X040200Y021510D01*
X040087Y021510D01*
X039982Y021553D01*
X039902Y021634D01*
X039858Y021738D01*
X039858Y021852D01*
X039902Y021956D01*
X039982Y022037D01*
X040087Y022080D01*
X040200Y022080D01*
X040305Y022037D01*
X040385Y021956D01*
X040428Y021852D01*
X040428Y021738D01*
X040394Y021657D02*
X042430Y021657D01*
X042303Y021558D02*
X040309Y021558D01*
X040428Y021854D02*
X044958Y021854D01*
X044979Y021952D02*
X040387Y021952D01*
X040271Y022051D02*
X045046Y022051D01*
X045441Y022051D02*
X045543Y022051D01*
X045543Y022149D02*
X038988Y022149D01*
X038985Y022156D02*
X038905Y022237D01*
X038800Y022280D01*
X038687Y022280D01*
X038582Y022237D01*
X038502Y022156D01*
X038458Y022052D01*
X038458Y021938D01*
X038502Y021834D01*
X038582Y021753D01*
X038687Y021710D01*
X038800Y021710D01*
X038905Y021753D01*
X038985Y021834D01*
X039028Y021938D01*
X039028Y022052D01*
X038985Y022156D01*
X039028Y022051D02*
X039315Y022051D01*
X039282Y022037D02*
X039202Y021956D01*
X039158Y021852D01*
X039158Y021738D01*
X039202Y021634D01*
X039282Y021553D01*
X039387Y021510D01*
X039500Y021510D01*
X039605Y021553D01*
X039685Y021634D01*
X039728Y021738D01*
X039728Y021852D01*
X039685Y021956D01*
X039605Y022037D01*
X039500Y022080D01*
X039387Y022080D01*
X039282Y022037D01*
X039200Y021952D02*
X039028Y021952D01*
X038993Y021854D02*
X039159Y021854D01*
X039158Y021755D02*
X038906Y021755D01*
X039192Y021657D02*
X035878Y021657D01*
X035878Y021638D02*
X035835Y021534D01*
X035755Y021453D01*
X035650Y021410D01*
X035537Y021410D01*
X035432Y021453D01*
X035352Y021534D01*
X035308Y021638D01*
X035308Y021752D01*
X035352Y021856D01*
X035432Y021937D01*
X035537Y021980D01*
X035650Y021980D01*
X035755Y021937D01*
X035835Y021856D01*
X035878Y021752D01*
X035878Y021638D01*
X035845Y021558D02*
X039277Y021558D01*
X039609Y021558D02*
X039977Y021558D01*
X039892Y021657D02*
X039694Y021657D01*
X039728Y021755D02*
X039858Y021755D01*
X039859Y021854D02*
X039728Y021854D01*
X039687Y021952D02*
X039900Y021952D01*
X040015Y022051D02*
X039571Y022051D01*
X038878Y022248D02*
X043846Y022248D01*
X043747Y022346D02*
X033553Y022346D01*
X033553Y022248D02*
X038608Y022248D01*
X038499Y022149D02*
X033553Y022149D01*
X033553Y022051D02*
X038458Y022051D01*
X038458Y021952D02*
X035717Y021952D01*
X035836Y021854D02*
X038493Y021854D01*
X038580Y021755D02*
X035877Y021755D01*
X035761Y021460D02*
X042262Y021460D01*
X042258Y021361D02*
X033493Y021361D01*
X033493Y021263D02*
X039744Y021263D01*
X039609Y021164D02*
X033493Y021164D01*
X033493Y021460D02*
X035426Y021460D01*
X035342Y021558D02*
X033559Y021558D01*
X033615Y021657D02*
X035308Y021657D01*
X035310Y021755D02*
X033628Y021755D01*
X033607Y021854D02*
X035350Y021854D01*
X035469Y021952D02*
X033553Y021952D01*
X033233Y020869D02*
X033191Y020869D01*
X033953Y020770D02*
X034853Y020770D01*
X034877Y020780D02*
X034754Y020729D01*
X034659Y020635D01*
X034608Y020512D01*
X034608Y020378D01*
X034659Y020255D01*
X034754Y020161D01*
X034877Y020110D01*
X035010Y020110D01*
X035133Y020161D01*
X035227Y020255D01*
X035278Y020378D01*
X035278Y020512D01*
X035227Y020635D01*
X035133Y020729D01*
X035010Y020780D01*
X034877Y020780D01*
X035034Y020770D02*
X039483Y020770D01*
X039483Y020672D02*
X035191Y020672D01*
X035253Y020573D02*
X039483Y020573D01*
X039483Y020475D02*
X035278Y020475D01*
X035277Y020376D02*
X039483Y020376D01*
X039483Y020278D02*
X035237Y020278D01*
X035151Y020179D02*
X039483Y020179D01*
X039483Y020081D02*
X033936Y020081D01*
X033953Y020179D02*
X034736Y020179D01*
X034650Y020278D02*
X033953Y020278D01*
X033953Y020376D02*
X034609Y020376D01*
X034608Y020475D02*
X033953Y020475D01*
X033953Y020573D02*
X034634Y020573D01*
X034696Y020672D02*
X033953Y020672D01*
X033889Y019982D02*
X039483Y019982D01*
X039483Y019884D02*
X033791Y019884D01*
X033692Y019785D02*
X039483Y019785D01*
X039483Y019687D02*
X033594Y019687D01*
X033495Y019588D02*
X039483Y019588D01*
X039483Y019490D02*
X033493Y019490D01*
X033493Y019391D02*
X039483Y019391D01*
X039483Y019293D02*
X033493Y019293D01*
X033493Y019194D02*
X039483Y019194D01*
X039483Y019096D02*
X033493Y019096D01*
X033493Y018997D02*
X039483Y018997D01*
X039473Y018899D02*
X033493Y018899D01*
X033493Y018800D02*
X039424Y018800D01*
X039408Y018702D02*
X033493Y018702D01*
X033493Y018603D02*
X039419Y018603D01*
X039460Y018505D02*
X033493Y018505D01*
X033493Y018406D02*
X039566Y018406D01*
X039921Y018406D02*
X051493Y018406D01*
X051493Y018308D02*
X033493Y018308D01*
X033493Y018209D02*
X051493Y018209D01*
X051493Y018111D02*
X038957Y018111D01*
X038910Y018130D02*
X038777Y018130D01*
X038654Y018079D01*
X038559Y017985D01*
X038508Y017862D01*
X038508Y017728D01*
X038559Y017605D01*
X038654Y017511D01*
X038777Y017460D01*
X038910Y017460D01*
X039033Y017511D01*
X039127Y017605D01*
X039178Y017728D01*
X039178Y017862D01*
X039127Y017985D01*
X039033Y018079D01*
X038910Y018130D01*
X038730Y018111D02*
X033493Y018111D01*
X033493Y018012D02*
X034283Y018012D01*
X034327Y018030D02*
X034204Y017979D01*
X034109Y017885D01*
X034058Y017762D01*
X034058Y017628D01*
X034109Y017505D01*
X034204Y017411D01*
X034327Y017360D01*
X034460Y017360D01*
X034583Y017411D01*
X034608Y017436D01*
X034608Y017428D01*
X034659Y017305D01*
X034754Y017211D01*
X034877Y017160D01*
X035010Y017160D01*
X035133Y017211D01*
X035227Y017305D01*
X035278Y017428D01*
X035278Y017562D01*
X035227Y017685D01*
X035133Y017779D01*
X035010Y017830D01*
X034877Y017830D01*
X034754Y017779D01*
X034728Y017754D01*
X034728Y017762D01*
X034677Y017885D01*
X034583Y017979D01*
X034460Y018030D01*
X034327Y018030D01*
X034503Y018012D02*
X038587Y018012D01*
X038530Y017914D02*
X034649Y017914D01*
X034706Y017815D02*
X034841Y017815D01*
X035046Y017815D02*
X038508Y017815D01*
X038513Y017717D02*
X037696Y017717D01*
X037683Y017729D02*
X037560Y017780D01*
X037427Y017780D01*
X037304Y017729D01*
X037209Y017635D01*
X037158Y017512D01*
X037158Y017378D01*
X037209Y017255D01*
X037304Y017161D01*
X037427Y017110D01*
X037560Y017110D01*
X037683Y017161D01*
X037777Y017255D01*
X037828Y017378D01*
X037828Y017512D01*
X037777Y017635D01*
X037683Y017729D01*
X037784Y017618D02*
X038093Y017618D01*
X038104Y017629D02*
X038009Y017535D01*
X037958Y017412D01*
X037958Y017278D01*
X038009Y017155D01*
X038104Y017061D01*
X038227Y017010D01*
X038360Y017010D01*
X038483Y017061D01*
X038577Y017155D01*
X038628Y017278D01*
X038628Y017412D01*
X038577Y017535D01*
X038483Y017629D01*
X038360Y017680D01*
X038227Y017680D01*
X038104Y017629D01*
X038003Y017520D02*
X037825Y017520D01*
X037828Y017421D02*
X037962Y017421D01*
X037958Y017323D02*
X037805Y017323D01*
X037746Y017224D02*
X037981Y017224D01*
X038039Y017126D02*
X037597Y017126D01*
X037389Y017126D02*
X033493Y017126D01*
X033493Y017224D02*
X034741Y017224D01*
X034652Y017323D02*
X033493Y017323D01*
X033493Y017421D02*
X034194Y017421D01*
X034103Y017520D02*
X033493Y017520D01*
X033493Y017618D02*
X034063Y017618D01*
X034058Y017717D02*
X033493Y017717D01*
X033493Y017815D02*
X034080Y017815D01*
X034138Y017914D02*
X033493Y017914D01*
X033493Y017027D02*
X038186Y017027D01*
X038401Y017027D02*
X051493Y017027D01*
X051493Y016929D02*
X033493Y016929D01*
X033493Y016830D02*
X051493Y016830D01*
X051493Y016732D02*
X033493Y016732D01*
X033493Y016633D02*
X051493Y016633D01*
X051493Y016535D02*
X033493Y016535D01*
X033493Y016436D02*
X051493Y016436D01*
X051493Y016338D02*
X033493Y016338D01*
X033493Y016239D02*
X051493Y016239D01*
X051493Y016141D02*
X033493Y016141D01*
X033243Y015550D02*
X033076Y015550D01*
X033035Y015451D02*
X033243Y015451D01*
X033243Y015353D02*
X032968Y015353D01*
X032839Y015254D02*
X033243Y015254D01*
X033243Y015156D02*
X015393Y015156D01*
X015393Y015254D02*
X032447Y015254D01*
X031827Y015353D02*
X015393Y015353D01*
X015393Y015451D02*
X031728Y015451D01*
X031630Y015550D02*
X015393Y015550D01*
X015393Y015648D02*
X031531Y015648D01*
X031433Y015747D02*
X015456Y015747D01*
X015555Y015845D02*
X018269Y015845D01*
X018128Y015944D02*
X015653Y015944D01*
X015752Y016042D02*
X018055Y016042D01*
X018014Y016141D02*
X015850Y016141D01*
X015949Y016239D02*
X018007Y016239D01*
X018009Y016338D02*
X016047Y016338D01*
X016146Y016436D02*
X018050Y016436D01*
X018618Y015845D02*
X031334Y015845D01*
X031236Y015944D02*
X018759Y015944D01*
X018831Y016042D02*
X031137Y016042D01*
X031039Y016141D02*
X018872Y016141D01*
X018880Y016239D02*
X030940Y016239D01*
X030842Y016338D02*
X018877Y016338D01*
X015393Y015057D02*
X033243Y015057D01*
X033243Y014959D02*
X015393Y014959D01*
X015393Y014860D02*
X033243Y014860D01*
X033243Y014762D02*
X015393Y014762D01*
X015393Y014663D02*
X033243Y014663D01*
X033243Y014565D02*
X015393Y014565D01*
X015393Y014466D02*
X033243Y014466D01*
X033243Y014368D02*
X015393Y014368D01*
X015393Y014269D02*
X033243Y014269D01*
X033243Y014171D02*
X015393Y014171D01*
X015393Y014072D02*
X033243Y014072D01*
X033243Y013974D02*
X015393Y013974D01*
X015393Y013875D02*
X033252Y013875D01*
X033308Y013777D02*
X015393Y013777D01*
X015393Y013678D02*
X032919Y013678D01*
X032821Y013580D02*
X015393Y013580D01*
X015393Y013481D02*
X032722Y013481D01*
X032624Y013383D02*
X015393Y013383D01*
X015393Y013284D02*
X032546Y013284D01*
X032546Y013186D02*
X015393Y013186D01*
X015393Y013087D02*
X032546Y013087D01*
X032546Y012989D02*
X015393Y012989D01*
X015393Y012890D02*
X032546Y012890D01*
X032546Y012792D02*
X015393Y012792D01*
X015393Y012693D02*
X032546Y012693D01*
X032637Y012595D02*
X015393Y012595D01*
X015393Y012496D02*
X032735Y012496D01*
X032834Y012398D02*
X015393Y012398D01*
X015393Y012299D02*
X032932Y012299D01*
X033654Y012299D02*
X040432Y012299D01*
X040334Y012398D02*
X033753Y012398D01*
X033851Y012496D02*
X040235Y012496D01*
X040137Y012595D02*
X033950Y012595D01*
X030743Y016436D02*
X024967Y016436D01*
X029693Y016535D02*
X030645Y016535D01*
X030546Y016633D02*
X029693Y016633D01*
X029693Y016732D02*
X030448Y016732D01*
X030349Y016830D02*
X029693Y016830D01*
X029693Y016929D02*
X030251Y016929D01*
X030152Y017027D02*
X029693Y017027D01*
X029693Y017126D02*
X030054Y017126D01*
X029955Y017224D02*
X029693Y017224D01*
X029693Y017323D02*
X029857Y017323D01*
X029758Y017421D02*
X029693Y017421D01*
X031334Y019588D02*
X032477Y019588D01*
X033003Y019096D02*
X033243Y019096D01*
X033243Y019194D02*
X033101Y019194D01*
X033200Y019293D02*
X033243Y019293D01*
X033243Y018997D02*
X032904Y018997D01*
X032806Y018899D02*
X033243Y018899D01*
X034593Y017421D02*
X034611Y017421D01*
X035146Y017224D02*
X037241Y017224D01*
X037181Y017323D02*
X035234Y017323D01*
X035275Y017421D02*
X037158Y017421D01*
X037162Y017520D02*
X035278Y017520D01*
X035255Y017618D02*
X037202Y017618D01*
X037291Y017717D02*
X035196Y017717D01*
X038494Y017618D02*
X038554Y017618D01*
X038584Y017520D02*
X038645Y017520D01*
X038624Y017421D02*
X051493Y017421D01*
X051493Y017323D02*
X038628Y017323D01*
X038606Y017224D02*
X051493Y017224D01*
X051493Y017126D02*
X038548Y017126D01*
X039042Y017520D02*
X051493Y017520D01*
X051493Y017618D02*
X039133Y017618D01*
X039173Y017717D02*
X051493Y017717D01*
X051493Y017815D02*
X039178Y017815D01*
X039157Y017914D02*
X051493Y017914D01*
X051493Y018012D02*
X039100Y018012D01*
X040008Y018800D02*
X040508Y018800D01*
X040548Y018899D02*
X039953Y018899D01*
X039953Y018997D02*
X040657Y018997D01*
X040930Y018997D02*
X040993Y018997D01*
X040993Y019096D02*
X039953Y019096D01*
X039953Y019194D02*
X040993Y019194D01*
X040993Y019293D02*
X039953Y019293D01*
X039953Y019391D02*
X040993Y019391D01*
X040993Y019490D02*
X039953Y019490D01*
X039953Y019588D02*
X040993Y019588D01*
X040993Y019687D02*
X039953Y019687D01*
X039953Y019785D02*
X040993Y019785D01*
X040993Y019884D02*
X039953Y019884D01*
X039953Y019982D02*
X040993Y019982D01*
X040993Y020081D02*
X039953Y020081D01*
X039953Y020179D02*
X040993Y020179D01*
X040993Y020278D02*
X039953Y020278D01*
X039953Y020376D02*
X040993Y020376D01*
X040993Y020475D02*
X039953Y020475D01*
X039953Y020573D02*
X040993Y020573D01*
X040993Y020672D02*
X039953Y020672D01*
X040021Y020770D02*
X040993Y020770D01*
X040993Y020869D02*
X040099Y020869D01*
X040128Y020967D02*
X040993Y020967D01*
X040993Y021066D02*
X040123Y021066D01*
X040077Y021164D02*
X042371Y021164D01*
X042290Y021263D02*
X039942Y021263D01*
X041243Y020770D02*
X043282Y020770D01*
X043258Y020672D02*
X041243Y020672D01*
X041243Y020573D02*
X043261Y020573D01*
X043301Y020475D02*
X041243Y020475D01*
X041243Y020376D02*
X043389Y020376D01*
X043798Y020376D02*
X051493Y020376D01*
X051493Y020278D02*
X041243Y020278D01*
X041243Y020179D02*
X051493Y020179D01*
X051493Y020081D02*
X041243Y020081D01*
X041243Y019982D02*
X051493Y019982D01*
X051493Y019884D02*
X041243Y019884D01*
X041243Y019785D02*
X051493Y019785D01*
X051493Y019687D02*
X041243Y019687D01*
X041243Y019588D02*
X051493Y019588D01*
X051493Y019490D02*
X041243Y019490D01*
X041243Y019391D02*
X051493Y019391D01*
X051493Y019293D02*
X041243Y019293D01*
X041243Y019194D02*
X051493Y019194D01*
X051493Y019096D02*
X041243Y019096D01*
X041243Y018997D02*
X051493Y018997D01*
X051493Y018899D02*
X041243Y018899D01*
X041243Y018800D02*
X051493Y018800D01*
X051493Y018702D02*
X041243Y018702D01*
X043885Y020475D02*
X051493Y020475D01*
X051493Y020573D02*
X043926Y020573D01*
X043928Y020672D02*
X051493Y020672D01*
X051493Y020770D02*
X043904Y020770D01*
X044141Y022248D02*
X045543Y022248D01*
X045543Y022346D02*
X044240Y022346D01*
X044278Y022445D02*
X045543Y022445D01*
X045543Y022543D02*
X044278Y022543D01*
X044241Y022642D02*
X044693Y022642D01*
X044693Y022740D02*
X044146Y022740D01*
X045507Y021952D02*
X045543Y021952D01*
X045543Y021854D02*
X045528Y021854D01*
X045515Y021755D02*
X045543Y021755D01*
X045543Y021657D02*
X045458Y021657D01*
X045543Y023922D02*
X037623Y023922D01*
X037483Y023824D02*
X044730Y023824D01*
X045659Y024218D02*
X046861Y024218D01*
X046858Y024119D02*
X045763Y024119D01*
X045793Y024021D02*
X046882Y024021D01*
X046943Y023922D02*
X045793Y023922D01*
X046902Y024316D02*
X038528Y024316D01*
X038506Y024415D02*
X046989Y024415D01*
X047656Y024809D02*
X035888Y024809D01*
X035805Y024907D02*
X044613Y024907D01*
X044604Y024911D02*
X044727Y024860D01*
X044860Y024860D01*
X044983Y024911D01*
X045077Y025005D01*
X045128Y025128D01*
X045128Y025262D01*
X045077Y025385D01*
X044983Y025479D01*
X044860Y025530D01*
X044727Y025530D01*
X044604Y025479D01*
X044509Y025385D01*
X044458Y025262D01*
X044458Y025128D01*
X044509Y025005D01*
X044604Y024911D01*
X044509Y025006D02*
X033603Y025006D01*
X033603Y025104D02*
X044468Y025104D01*
X044458Y025203D02*
X033603Y025203D01*
X033603Y025301D02*
X044475Y025301D01*
X044524Y025400D02*
X038972Y025400D01*
X038933Y025361D02*
X039027Y025455D01*
X039078Y025578D01*
X039078Y025712D01*
X039027Y025835D01*
X038933Y025929D01*
X038810Y025980D01*
X038677Y025980D01*
X038554Y025929D01*
X038459Y025835D01*
X038408Y025712D01*
X038408Y025578D01*
X038459Y025455D01*
X038554Y025361D01*
X038677Y025310D01*
X038810Y025310D01*
X038933Y025361D01*
X039045Y025498D02*
X044650Y025498D01*
X044937Y025498D02*
X048245Y025498D01*
X048192Y025400D02*
X045063Y025400D01*
X045112Y025301D02*
X047676Y025301D01*
X047596Y025203D02*
X045128Y025203D01*
X045118Y025104D02*
X047558Y025104D01*
X047558Y025006D02*
X045077Y025006D01*
X044974Y024907D02*
X047588Y024907D01*
X048111Y025301D02*
X048151Y025301D01*
X048344Y025597D02*
X039078Y025597D01*
X039078Y025695D02*
X048485Y025695D01*
X049102Y025695D02*
X051493Y025695D01*
X051493Y025597D02*
X049243Y025597D01*
X049341Y025498D02*
X051493Y025498D01*
X051493Y025400D02*
X049395Y025400D01*
X049436Y025301D02*
X051493Y025301D01*
X051493Y025203D02*
X049466Y025203D01*
X049466Y025104D02*
X051493Y025104D01*
X051493Y025006D02*
X049466Y025006D01*
X049443Y024907D02*
X051493Y024907D01*
X051493Y024809D02*
X049402Y024809D01*
X049359Y024710D02*
X051493Y024710D01*
X051493Y024612D02*
X049261Y024612D01*
X051743Y024612D02*
X055993Y024612D01*
X055993Y024710D02*
X051743Y024710D01*
X051743Y024809D02*
X055993Y024809D01*
X055993Y024907D02*
X051743Y024907D01*
X051743Y025006D02*
X055993Y025006D01*
X055993Y025104D02*
X051743Y025104D01*
X051743Y025203D02*
X055993Y025203D01*
X055993Y025301D02*
X051743Y025301D01*
X051743Y025400D02*
X055993Y025400D01*
X055993Y025498D02*
X051743Y025498D01*
X051743Y025597D02*
X055993Y025597D01*
X055993Y025695D02*
X051743Y025695D01*
X051743Y025794D02*
X055993Y025794D01*
X055993Y025892D02*
X051743Y025892D01*
X051743Y025991D02*
X055993Y025991D01*
X055993Y026089D02*
X051743Y026089D01*
X051743Y026188D02*
X055993Y026188D01*
X055993Y026286D02*
X051743Y026286D01*
X051743Y026385D02*
X055993Y026385D01*
X055993Y026483D02*
X053597Y026483D01*
X053502Y026388D02*
X053812Y026698D01*
X053812Y027137D01*
X053532Y027418D01*
X053812Y027698D01*
X053812Y028137D01*
X053502Y028448D01*
X053063Y028448D01*
X052782Y028167D01*
X052502Y028448D01*
X052063Y028448D01*
X051752Y028137D01*
X051752Y027698D01*
X052033Y027418D01*
X051752Y027137D01*
X051752Y026698D01*
X052063Y026388D01*
X052502Y026388D01*
X052782Y026668D01*
X053063Y026388D01*
X053502Y026388D01*
X053696Y026582D02*
X055993Y026582D01*
X055993Y026680D02*
X053794Y026680D01*
X053812Y026779D02*
X055993Y026779D01*
X055993Y026877D02*
X053812Y026877D01*
X053812Y026976D02*
X055993Y026976D01*
X055993Y027074D02*
X053812Y027074D01*
X053777Y027173D02*
X055993Y027173D01*
X055993Y027271D02*
X053679Y027271D01*
X053580Y027370D02*
X055993Y027370D01*
X055993Y027468D02*
X053582Y027468D01*
X053681Y027567D02*
X055993Y027567D01*
X055993Y027665D02*
X053779Y027665D01*
X053812Y027764D02*
X055993Y027764D01*
X055993Y027862D02*
X053812Y027862D01*
X053812Y027961D02*
X055993Y027961D01*
X055993Y028059D02*
X053812Y028059D01*
X053792Y028158D02*
X055993Y028158D01*
X055993Y028256D02*
X053694Y028256D01*
X053595Y028355D02*
X055993Y028355D01*
X055993Y028453D02*
X051743Y028453D01*
X051743Y028355D02*
X051969Y028355D01*
X051871Y028256D02*
X051743Y028256D01*
X051743Y028158D02*
X051772Y028158D01*
X051752Y028059D02*
X051743Y028059D01*
X051743Y027961D02*
X051752Y027961D01*
X051743Y027862D02*
X051752Y027862D01*
X051743Y027764D02*
X051752Y027764D01*
X051743Y027665D02*
X051786Y027665D01*
X051743Y027567D02*
X051884Y027567D01*
X051983Y027468D02*
X051743Y027468D01*
X051743Y027370D02*
X051984Y027370D01*
X051886Y027271D02*
X051743Y027271D01*
X051743Y027173D02*
X051787Y027173D01*
X051752Y027074D02*
X051743Y027074D01*
X051743Y026976D02*
X051752Y026976D01*
X051743Y026877D02*
X051752Y026877D01*
X051743Y026779D02*
X051752Y026779D01*
X051743Y026680D02*
X051771Y026680D01*
X051743Y026582D02*
X051869Y026582D01*
X051968Y026483D02*
X051743Y026483D01*
X051493Y026483D02*
X046328Y026483D01*
X046328Y026385D02*
X051493Y026385D01*
X051493Y026286D02*
X046328Y026286D01*
X046328Y026188D02*
X051493Y026188D01*
X051493Y026089D02*
X046328Y026089D01*
X046328Y025991D02*
X051493Y025991D01*
X051493Y025892D02*
X046323Y025892D01*
X046328Y025898D02*
X046328Y031092D01*
X046191Y031230D01*
X044928Y031230D01*
X044928Y031362D01*
X044877Y031485D01*
X044783Y031579D01*
X044660Y031630D01*
X044527Y031630D01*
X044404Y031579D01*
X044309Y031485D01*
X044258Y031362D01*
X044258Y031230D01*
X039496Y031230D01*
X039358Y031092D01*
X039358Y025898D01*
X039496Y025760D01*
X046191Y025760D01*
X046328Y025898D01*
X046224Y025794D02*
X051493Y025794D01*
X052597Y026483D02*
X052968Y026483D01*
X052869Y026582D02*
X052696Y026582D01*
X051493Y026582D02*
X046328Y026582D01*
X046328Y026680D02*
X051493Y026680D01*
X051493Y026779D02*
X046328Y026779D01*
X046328Y026877D02*
X051493Y026877D01*
X051493Y026976D02*
X046328Y026976D01*
X046328Y027074D02*
X051493Y027074D01*
X051493Y027173D02*
X046328Y027173D01*
X046328Y027271D02*
X051493Y027271D01*
X051493Y027370D02*
X046328Y027370D01*
X046328Y027468D02*
X051493Y027468D01*
X051493Y027567D02*
X046328Y027567D01*
X046328Y027665D02*
X051493Y027665D01*
X051493Y027764D02*
X046328Y027764D01*
X046328Y027862D02*
X051493Y027862D01*
X051493Y027961D02*
X046328Y027961D01*
X046328Y028059D02*
X051493Y028059D01*
X051493Y028158D02*
X046328Y028158D01*
X046328Y028256D02*
X051493Y028256D01*
X051493Y028355D02*
X046328Y028355D01*
X046328Y028453D02*
X051493Y028453D01*
X051493Y028552D02*
X046328Y028552D01*
X046328Y028650D02*
X051493Y028650D01*
X051493Y028749D02*
X046328Y028749D01*
X046328Y028847D02*
X051493Y028847D01*
X051493Y028946D02*
X046328Y028946D01*
X046328Y029044D02*
X051493Y029044D01*
X051493Y029143D02*
X046328Y029143D01*
X046328Y029241D02*
X051493Y029241D01*
X051493Y029340D02*
X046328Y029340D01*
X046328Y029438D02*
X051493Y029438D01*
X051493Y029537D02*
X046328Y029537D01*
X046328Y029635D02*
X051493Y029635D01*
X051493Y029734D02*
X046328Y029734D01*
X046328Y029832D02*
X051493Y029832D01*
X051493Y029931D02*
X046328Y029931D01*
X046328Y030029D02*
X051493Y030029D01*
X051493Y030128D02*
X046328Y030128D01*
X046328Y030226D02*
X051493Y030226D01*
X051493Y030325D02*
X046328Y030325D01*
X046328Y030423D02*
X051493Y030423D01*
X051493Y030522D02*
X046328Y030522D01*
X046328Y030620D02*
X051493Y030620D01*
X051493Y030719D02*
X051159Y030719D01*
X051266Y030817D02*
X051493Y030817D01*
X051493Y030916D02*
X051364Y030916D01*
X051405Y031014D02*
X051493Y031014D01*
X051493Y031113D02*
X051446Y031113D01*
X051466Y031211D02*
X051493Y031211D01*
X051493Y031310D02*
X051466Y031310D01*
X051466Y031408D02*
X051493Y031408D01*
X051493Y031507D02*
X051434Y031507D01*
X051393Y031605D02*
X051493Y031605D01*
X051493Y031704D02*
X051336Y031704D01*
X051237Y031802D02*
X051493Y031802D01*
X051493Y031901D02*
X051089Y031901D01*
X050498Y031901D02*
X033493Y031901D01*
X033493Y031802D02*
X050349Y031802D01*
X050251Y031704D02*
X035309Y031704D01*
X035283Y031729D02*
X035160Y031780D01*
X035027Y031780D01*
X034904Y031729D01*
X034809Y031635D01*
X034758Y031512D01*
X034758Y031378D01*
X034809Y031255D01*
X034904Y031161D01*
X035027Y031110D01*
X035160Y031110D01*
X035283Y031161D01*
X035377Y031255D01*
X035428Y031378D01*
X035428Y031512D01*
X035377Y031635D01*
X035283Y031729D01*
X035390Y031605D02*
X044466Y031605D01*
X044331Y031507D02*
X035428Y031507D01*
X035428Y031408D02*
X044278Y031408D01*
X044258Y031310D02*
X037553Y031310D01*
X037533Y031329D02*
X037410Y031380D01*
X037277Y031380D01*
X037154Y031329D01*
X037059Y031235D01*
X037008Y031112D01*
X037008Y030978D01*
X037059Y030855D01*
X037154Y030761D01*
X037277Y030710D01*
X037410Y030710D01*
X037533Y030761D01*
X037627Y030855D01*
X037678Y030978D01*
X037678Y031112D01*
X037627Y031235D01*
X037533Y031329D01*
X037637Y031211D02*
X039477Y031211D01*
X039379Y031113D02*
X037678Y031113D01*
X037678Y031014D02*
X039358Y031014D01*
X039358Y030916D02*
X037652Y030916D01*
X037589Y030817D02*
X039358Y030817D01*
X039358Y030719D02*
X037431Y030719D01*
X037256Y030719D02*
X033655Y030719D01*
X033678Y030620D02*
X039358Y030620D01*
X039358Y030522D02*
X033675Y030522D01*
X033635Y030423D02*
X039358Y030423D01*
X039358Y030325D02*
X033603Y030325D01*
X033603Y030226D02*
X039358Y030226D01*
X039358Y030128D02*
X038985Y030128D01*
X038983Y030129D02*
X038860Y030180D01*
X038727Y030180D01*
X038604Y030129D01*
X038509Y030035D01*
X038458Y029912D01*
X038458Y029778D01*
X038509Y029655D01*
X038604Y029561D01*
X038727Y029510D01*
X038860Y029510D01*
X038983Y029561D01*
X039077Y029655D01*
X039128Y029778D01*
X039128Y029912D01*
X039077Y030035D01*
X038983Y030129D01*
X039080Y030029D02*
X039358Y030029D01*
X039358Y029931D02*
X039120Y029931D01*
X039128Y029832D02*
X039358Y029832D01*
X039358Y029734D02*
X039110Y029734D01*
X039057Y029635D02*
X039358Y029635D01*
X039358Y029537D02*
X038924Y029537D01*
X038663Y029537D02*
X037676Y029537D01*
X037633Y029579D02*
X037510Y029630D01*
X037377Y029630D01*
X037254Y029579D01*
X037159Y029485D01*
X037108Y029362D01*
X037108Y029228D01*
X037159Y029105D01*
X037254Y029011D01*
X037377Y028960D01*
X037510Y028960D01*
X037633Y029011D01*
X037727Y029105D01*
X037778Y029228D01*
X037778Y029362D01*
X037727Y029485D01*
X037633Y029579D01*
X037747Y029438D02*
X039358Y029438D01*
X039358Y029340D02*
X037778Y029340D01*
X037778Y029241D02*
X039358Y029241D01*
X039358Y029143D02*
X037743Y029143D01*
X037666Y029044D02*
X039358Y029044D01*
X039358Y028946D02*
X033603Y028946D01*
X033603Y029044D02*
X037220Y029044D01*
X037144Y029143D02*
X033603Y029143D01*
X033603Y029241D02*
X037108Y029241D01*
X037108Y029340D02*
X034781Y029340D01*
X034833Y029361D02*
X034927Y029455D01*
X034978Y029578D01*
X034978Y029712D01*
X034927Y029835D01*
X034833Y029929D01*
X034710Y029980D01*
X034577Y029980D01*
X034454Y029929D01*
X034359Y029835D01*
X034308Y029712D01*
X034308Y029578D01*
X034359Y029455D01*
X034454Y029361D01*
X034577Y029310D01*
X034710Y029310D01*
X034833Y029361D01*
X034910Y029438D02*
X037140Y029438D01*
X037211Y029537D02*
X034961Y029537D01*
X034978Y029635D02*
X038529Y029635D01*
X038477Y029734D02*
X034969Y029734D01*
X034928Y029832D02*
X038458Y029832D01*
X038466Y029931D02*
X034829Y029931D01*
X034457Y029931D02*
X033603Y029931D01*
X033603Y030029D02*
X038507Y030029D01*
X038602Y030128D02*
X033603Y030128D01*
X033603Y029832D02*
X034358Y029832D01*
X034317Y029734D02*
X033603Y029734D01*
X033603Y029635D02*
X034308Y029635D01*
X034326Y029537D02*
X033603Y029537D01*
X033603Y029438D02*
X034376Y029438D01*
X034505Y029340D02*
X033603Y029340D01*
X033603Y028847D02*
X039358Y028847D01*
X039358Y028749D02*
X033603Y028749D01*
X033603Y028650D02*
X039358Y028650D01*
X039358Y028552D02*
X033603Y028552D01*
X033603Y028453D02*
X039358Y028453D01*
X039358Y028355D02*
X033603Y028355D01*
X033603Y028256D02*
X039358Y028256D01*
X039358Y028158D02*
X033603Y028158D01*
X033603Y028059D02*
X039358Y028059D01*
X039358Y027961D02*
X033603Y027961D01*
X033603Y027862D02*
X039358Y027862D01*
X039358Y027764D02*
X033603Y027764D01*
X033603Y027665D02*
X039358Y027665D01*
X039358Y027567D02*
X033603Y027567D01*
X033603Y027468D02*
X039358Y027468D01*
X039358Y027370D02*
X033603Y027370D01*
X033603Y027271D02*
X039358Y027271D01*
X039358Y027173D02*
X033603Y027173D01*
X033603Y027074D02*
X039358Y027074D01*
X039358Y026976D02*
X033603Y026976D01*
X033603Y026877D02*
X039358Y026877D01*
X039358Y026779D02*
X033603Y026779D01*
X033603Y026680D02*
X039358Y026680D01*
X039358Y026582D02*
X033603Y026582D01*
X033603Y026483D02*
X039358Y026483D01*
X039358Y026385D02*
X033603Y026385D01*
X033603Y026286D02*
X039358Y026286D01*
X039358Y026188D02*
X033603Y026188D01*
X033603Y026089D02*
X039358Y026089D01*
X039358Y025991D02*
X033603Y025991D01*
X033603Y025892D02*
X038517Y025892D01*
X038442Y025794D02*
X033603Y025794D01*
X033603Y025695D02*
X038408Y025695D01*
X038408Y025597D02*
X033603Y025597D01*
X033603Y025498D02*
X038442Y025498D01*
X038515Y025400D02*
X033603Y025400D01*
X033603Y024907D02*
X035382Y024907D01*
X035298Y024809D02*
X033603Y024809D01*
X033603Y024710D02*
X035258Y024710D01*
X035258Y024612D02*
X033603Y024612D01*
X033603Y024513D02*
X035285Y024513D01*
X035350Y024415D02*
X033603Y024415D01*
X032433Y024710D02*
X025036Y024710D01*
X025137Y024612D02*
X027993Y024612D01*
X027993Y024513D02*
X025238Y024513D01*
X025339Y024415D02*
X026689Y024415D01*
X026629Y024390D02*
X026498Y024259D01*
X026428Y024088D01*
X026428Y023902D01*
X026498Y023731D01*
X026629Y023600D01*
X026801Y023529D01*
X026986Y023529D01*
X027157Y023600D01*
X027288Y023731D01*
X027359Y023902D01*
X027359Y024088D01*
X027288Y024259D01*
X027157Y024390D01*
X026986Y024461D01*
X026801Y024461D01*
X026629Y024390D01*
X026556Y024316D02*
X025440Y024316D01*
X025541Y024218D02*
X026481Y024218D01*
X026441Y024119D02*
X025642Y024119D01*
X025743Y024021D02*
X026428Y024021D01*
X026428Y023922D02*
X025844Y023922D01*
X025946Y023824D02*
X026460Y023824D01*
X026505Y023725D02*
X026047Y023725D01*
X026148Y023627D02*
X026603Y023627D01*
X026350Y023430D02*
X027993Y023430D01*
X027993Y023528D02*
X026249Y023528D01*
X026451Y023331D02*
X027993Y023331D01*
X027993Y023233D02*
X026552Y023233D01*
X026653Y023134D02*
X027993Y023134D01*
X027993Y023627D02*
X027184Y023627D01*
X027282Y023725D02*
X027993Y023725D01*
X027993Y023824D02*
X027326Y023824D01*
X027359Y023922D02*
X027993Y023922D01*
X027993Y024021D02*
X027359Y024021D01*
X027346Y024119D02*
X027993Y024119D01*
X027993Y024218D02*
X027305Y024218D01*
X027231Y024316D02*
X027993Y024316D01*
X027993Y024415D02*
X027097Y024415D01*
X024935Y024809D02*
X032433Y024809D01*
X032433Y024907D02*
X024834Y024907D01*
X024732Y025006D02*
X032433Y025006D01*
X032433Y025104D02*
X024631Y025104D01*
X024530Y025203D02*
X032433Y025203D01*
X032433Y025301D02*
X024429Y025301D01*
X023466Y028749D02*
X022793Y028749D01*
X022793Y028847D02*
X023392Y028847D01*
X023358Y028946D02*
X022793Y028946D01*
X022793Y029044D02*
X023358Y029044D01*
X023392Y029143D02*
X022793Y029143D01*
X023466Y029241D02*
X021893Y029241D01*
X021893Y029340D02*
X023670Y029340D01*
X023769Y029438D02*
X021893Y029438D01*
X021893Y029537D02*
X023867Y029537D01*
X023933Y029635D02*
X021893Y029635D01*
X021893Y029734D02*
X023933Y029734D01*
X023933Y029832D02*
X021893Y029832D01*
X021893Y029931D02*
X023933Y029931D01*
X023933Y030029D02*
X021893Y030029D01*
X021893Y030128D02*
X023933Y030128D01*
X023933Y030226D02*
X021893Y030226D01*
X021893Y030325D02*
X023933Y030325D01*
X023933Y030423D02*
X021893Y030423D01*
X021893Y030522D02*
X023933Y030522D01*
X023933Y030620D02*
X021893Y030620D01*
X021893Y030719D02*
X023933Y030719D01*
X023933Y030817D02*
X021893Y030817D01*
X021893Y030916D02*
X023933Y030916D01*
X023933Y031014D02*
X021893Y031014D01*
X021893Y031113D02*
X023933Y031113D01*
X023933Y031211D02*
X021893Y031211D01*
X021893Y031310D02*
X023933Y031310D01*
X023933Y031408D02*
X021893Y031408D01*
X021893Y031507D02*
X023933Y031507D01*
X023933Y031605D02*
X023727Y031605D01*
X023797Y031704D02*
X023933Y031704D01*
X023919Y031802D02*
X023828Y031802D01*
X023259Y031605D02*
X021893Y031605D01*
X021893Y031704D02*
X023189Y031704D01*
X023158Y031802D02*
X021893Y031802D01*
X021893Y031901D02*
X023158Y031901D01*
X023195Y031999D02*
X021893Y031999D01*
X020329Y035151D02*
X019758Y035151D01*
X019857Y035250D02*
X020230Y035250D01*
X020132Y035348D02*
X019955Y035348D01*
X020009Y035447D02*
X020078Y035447D01*
X020078Y035545D02*
X020009Y035545D01*
X020009Y035644D02*
X020078Y035644D01*
X020078Y035742D02*
X020009Y035742D01*
X019956Y035841D02*
X020130Y035841D01*
X020229Y035939D02*
X019858Y035939D01*
X019759Y036038D02*
X020327Y036038D01*
X019898Y036826D02*
X022985Y036826D01*
X022958Y036727D02*
X012721Y036727D01*
X012721Y036629D02*
X022958Y036629D01*
X023577Y036885D02*
X023577Y036885D01*
X023602Y036826D02*
X030689Y036826D01*
X030898Y036826D02*
X055993Y036826D01*
X055993Y036727D02*
X029912Y036727D01*
X030027Y036629D02*
X055993Y036629D01*
X055993Y036530D02*
X030126Y036530D01*
X030224Y036432D02*
X055993Y036432D01*
X055993Y036333D02*
X030323Y036333D01*
X030421Y036235D02*
X055993Y036235D01*
X055993Y036136D02*
X030516Y036136D01*
X030553Y036038D02*
X055993Y036038D01*
X055993Y035939D02*
X030553Y035939D01*
X030553Y035841D02*
X055993Y035841D01*
X055993Y035742D02*
X030553Y035742D01*
X030553Y035644D02*
X055993Y035644D01*
X055993Y035545D02*
X030553Y035545D01*
X030553Y035447D02*
X055993Y035447D01*
X055993Y035348D02*
X030553Y035348D01*
X030553Y035250D02*
X055993Y035250D01*
X055993Y035151D02*
X030553Y035151D01*
X030553Y035053D02*
X055993Y035053D01*
X055993Y033575D02*
X037781Y033575D01*
X037879Y033477D02*
X055993Y033477D01*
X055993Y033378D02*
X037978Y033378D01*
X038076Y033280D02*
X055993Y033280D01*
X055993Y033181D02*
X038175Y033181D01*
X038273Y033083D02*
X040033Y033083D01*
X039935Y032984D02*
X038372Y032984D01*
X038567Y032886D02*
X039836Y032886D01*
X039743Y032787D02*
X038675Y032787D01*
X038717Y032689D02*
X039743Y032689D01*
X039743Y032590D02*
X038728Y032590D01*
X038713Y032492D02*
X039743Y032492D01*
X039743Y032393D02*
X038665Y032393D01*
X038543Y032295D02*
X039786Y032295D01*
X039884Y032196D02*
X034502Y032196D01*
X034601Y032295D02*
X038243Y032295D01*
X038121Y032393D02*
X034643Y032393D01*
X034643Y032492D02*
X038074Y032492D01*
X038031Y032590D02*
X034643Y032590D01*
X034643Y032689D02*
X037932Y032689D01*
X037834Y032787D02*
X034643Y032787D01*
X034551Y032886D02*
X037735Y032886D01*
X037637Y032984D02*
X034452Y032984D01*
X034354Y033083D02*
X037538Y033083D01*
X037134Y031310D02*
X035400Y031310D01*
X035333Y031211D02*
X037049Y031211D01*
X037009Y031113D02*
X035166Y031113D01*
X035020Y031113D02*
X033493Y031113D01*
X033493Y031211D02*
X034853Y031211D01*
X034787Y031310D02*
X033493Y031310D01*
X033493Y031408D02*
X034758Y031408D01*
X034758Y031507D02*
X033493Y031507D01*
X033493Y031605D02*
X034797Y031605D01*
X034878Y031704D02*
X033493Y031704D01*
X033493Y031014D02*
X037008Y031014D01*
X037034Y030916D02*
X033493Y030916D01*
X033595Y030817D02*
X037097Y030817D01*
X040702Y032196D02*
X046084Y032196D01*
X045986Y032295D02*
X040801Y032295D01*
X040843Y032393D02*
X045943Y032393D01*
X045943Y032492D02*
X040843Y032492D01*
X040843Y032590D02*
X045943Y032590D01*
X045943Y032689D02*
X040843Y032689D01*
X040843Y032787D02*
X045943Y032787D01*
X046036Y032886D02*
X040751Y032886D01*
X040652Y032984D02*
X046135Y032984D01*
X046233Y033083D02*
X040554Y033083D01*
X044720Y031605D02*
X050194Y031605D01*
X050153Y031507D02*
X044856Y031507D01*
X044909Y031408D02*
X050121Y031408D01*
X050121Y031310D02*
X044928Y031310D01*
X046210Y031211D02*
X050121Y031211D01*
X050141Y031113D02*
X046308Y031113D01*
X046328Y031014D02*
X050182Y031014D01*
X050223Y030916D02*
X046328Y030916D01*
X046328Y030817D02*
X050320Y030817D01*
X050428Y030719D02*
X046328Y030719D01*
X046902Y032196D02*
X052284Y032196D01*
X052186Y032295D02*
X047001Y032295D01*
X047043Y032393D02*
X052143Y032393D01*
X052143Y032337D02*
X052465Y032015D01*
X052921Y032015D01*
X053243Y032337D01*
X053243Y032793D01*
X052921Y033115D01*
X052465Y033115D01*
X052143Y032793D01*
X052143Y032337D01*
X052143Y032492D02*
X047043Y032492D01*
X047043Y032590D02*
X052143Y032590D01*
X052143Y032689D02*
X047043Y032689D01*
X047043Y032787D02*
X052143Y032787D01*
X052236Y032886D02*
X046951Y032886D01*
X046852Y032984D02*
X052335Y032984D01*
X052433Y033083D02*
X046754Y033083D01*
X051694Y032098D02*
X052383Y032098D01*
X053004Y032098D02*
X053843Y032098D01*
X053843Y032026D02*
X053973Y031714D01*
X054212Y031474D01*
X054524Y031345D01*
X054862Y031345D01*
X055175Y031474D01*
X055414Y031714D01*
X055543Y032026D01*
X055543Y032364D01*
X055414Y032676D01*
X055175Y032916D01*
X054862Y033045D01*
X054524Y033045D01*
X054212Y032916D01*
X053973Y032676D01*
X053843Y032364D01*
X053843Y032026D01*
X053854Y031999D02*
X051742Y031999D01*
X051743Y031901D02*
X053895Y031901D01*
X053936Y031802D02*
X051743Y031802D01*
X051743Y031704D02*
X053983Y031704D01*
X054081Y031605D02*
X051743Y031605D01*
X051743Y031507D02*
X054180Y031507D01*
X054372Y031408D02*
X051743Y031408D01*
X051743Y031310D02*
X055993Y031310D01*
X055993Y031408D02*
X055015Y031408D01*
X055207Y031507D02*
X055993Y031507D01*
X055993Y031605D02*
X055305Y031605D01*
X055404Y031704D02*
X055993Y031704D01*
X055993Y031802D02*
X055451Y031802D01*
X055491Y031901D02*
X055993Y031901D01*
X055993Y031999D02*
X055532Y031999D01*
X055543Y032098D02*
X055993Y032098D01*
X055993Y032196D02*
X055543Y032196D01*
X055543Y032295D02*
X055993Y032295D01*
X055993Y032393D02*
X055531Y032393D01*
X055490Y032492D02*
X055993Y032492D01*
X055993Y032590D02*
X055450Y032590D01*
X055402Y032689D02*
X055993Y032689D01*
X055993Y032787D02*
X055303Y032787D01*
X055205Y032886D02*
X055993Y032886D01*
X055993Y032984D02*
X055009Y032984D01*
X054377Y032984D02*
X053052Y032984D01*
X053151Y032886D02*
X054182Y032886D01*
X054083Y032787D02*
X053243Y032787D01*
X053243Y032689D02*
X053985Y032689D01*
X053937Y032590D02*
X053243Y032590D01*
X053243Y032492D02*
X053896Y032492D01*
X053855Y032393D02*
X053243Y032393D01*
X053201Y032295D02*
X053843Y032295D01*
X053843Y032196D02*
X053102Y032196D01*
X052954Y033083D02*
X055993Y033083D01*
X055993Y031211D02*
X051743Y031211D01*
X051743Y031113D02*
X055993Y031113D01*
X055993Y031014D02*
X051743Y031014D01*
X051743Y030916D02*
X055993Y030916D01*
X055993Y030817D02*
X051743Y030817D01*
X051743Y030719D02*
X055993Y030719D01*
X055993Y030620D02*
X051743Y030620D01*
X051743Y030522D02*
X055993Y030522D01*
X055993Y030423D02*
X051743Y030423D01*
X051743Y030325D02*
X055993Y030325D01*
X055993Y030226D02*
X051743Y030226D01*
X051743Y030128D02*
X055993Y030128D01*
X055993Y030029D02*
X051743Y030029D01*
X051743Y029931D02*
X055993Y029931D01*
X055993Y029832D02*
X051743Y029832D01*
X051743Y029734D02*
X055993Y029734D01*
X055993Y029635D02*
X051743Y029635D01*
X051743Y029537D02*
X055993Y029537D01*
X055993Y029438D02*
X051743Y029438D01*
X051743Y029340D02*
X055993Y029340D01*
X055993Y029241D02*
X051743Y029241D01*
X051743Y029143D02*
X055993Y029143D01*
X055993Y029044D02*
X051743Y029044D01*
X051743Y028946D02*
X055993Y028946D01*
X055993Y028847D02*
X051743Y028847D01*
X051743Y028749D02*
X055993Y028749D01*
X055993Y028650D02*
X051743Y028650D01*
X051743Y028552D02*
X055993Y028552D01*
X052969Y028355D02*
X052595Y028355D01*
X052694Y028256D02*
X052871Y028256D01*
X051743Y024513D02*
X055993Y024513D01*
X055993Y024415D02*
X051743Y024415D01*
X051743Y024316D02*
X055993Y024316D01*
X055993Y024218D02*
X051743Y024218D01*
X051743Y024119D02*
X055993Y024119D01*
X055993Y024021D02*
X051743Y024021D01*
X051743Y023922D02*
X055993Y023922D01*
X055993Y023824D02*
X051743Y023824D01*
X051743Y023725D02*
X055993Y023725D01*
X055993Y023627D02*
X051743Y023627D01*
X051743Y023528D02*
X055993Y023528D01*
X055993Y023430D02*
X051743Y023430D01*
X051743Y023331D02*
X055993Y023331D01*
X055993Y023233D02*
X051743Y023233D01*
X051743Y023134D02*
X055993Y023134D01*
X055993Y023036D02*
X051743Y023036D01*
X051743Y022937D02*
X055993Y022937D01*
X055993Y022839D02*
X051743Y022839D01*
X051743Y022740D02*
X055993Y022740D01*
X055993Y022642D02*
X051743Y022642D01*
X051743Y022543D02*
X055993Y022543D01*
X055993Y022445D02*
X051743Y022445D01*
X051743Y022346D02*
X055993Y022346D01*
X055993Y022248D02*
X051743Y022248D01*
X051743Y022149D02*
X055993Y022149D01*
X055993Y022051D02*
X051743Y022051D01*
X051743Y021952D02*
X055993Y021952D01*
X055993Y021854D02*
X051743Y021854D01*
X051743Y021755D02*
X055993Y021755D01*
X055993Y021657D02*
X051743Y021657D01*
X051743Y021558D02*
X055993Y021558D01*
X055993Y021460D02*
X051743Y021460D01*
X051743Y021361D02*
X055993Y021361D01*
X055993Y021263D02*
X051743Y021263D01*
X051743Y021164D02*
X055993Y021164D01*
X055993Y021066D02*
X051743Y021066D01*
X051743Y020967D02*
X055993Y020967D01*
X055993Y020869D02*
X051743Y020869D01*
X051743Y020770D02*
X055993Y020770D01*
X055993Y020672D02*
X051743Y020672D01*
X051743Y020573D02*
X055993Y020573D01*
X055993Y020475D02*
X051743Y020475D01*
X051743Y020376D02*
X055993Y020376D01*
X055993Y020278D02*
X051743Y020278D01*
X051743Y020179D02*
X055993Y020179D01*
X055993Y020081D02*
X051743Y020081D01*
X051743Y019982D02*
X055993Y019982D01*
X055993Y019884D02*
X051743Y019884D01*
X051743Y019785D02*
X055993Y019785D01*
X055993Y019687D02*
X051743Y019687D01*
X051743Y019588D02*
X055993Y019588D01*
X055993Y019490D02*
X051743Y019490D01*
X051743Y019391D02*
X055993Y019391D01*
X055993Y019293D02*
X051743Y019293D01*
X051743Y019194D02*
X055993Y019194D01*
X055993Y019096D02*
X051743Y019096D01*
X051743Y018997D02*
X055993Y018997D01*
X055993Y018899D02*
X051743Y018899D01*
X051743Y018800D02*
X055993Y018800D01*
X055993Y018702D02*
X051743Y018702D01*
X051743Y018603D02*
X055993Y018603D01*
X055993Y018505D02*
X051743Y018505D01*
X051743Y018406D02*
X055993Y018406D01*
X055993Y018308D02*
X051743Y018308D01*
X051743Y018209D02*
X055993Y018209D01*
X055993Y018111D02*
X051743Y018111D01*
X051743Y018012D02*
X055993Y018012D01*
X055993Y017914D02*
X051743Y017914D01*
X051743Y017815D02*
X055993Y017815D01*
X055993Y017717D02*
X051743Y017717D01*
X051743Y017618D02*
X055993Y017618D01*
X055993Y017520D02*
X051743Y017520D01*
X051743Y017421D02*
X055993Y017421D01*
X055993Y017323D02*
X051743Y017323D01*
X051743Y017224D02*
X055993Y017224D01*
X055993Y017126D02*
X051743Y017126D01*
X051743Y017027D02*
X055993Y017027D01*
X055993Y016929D02*
X051743Y016929D01*
X051743Y016830D02*
X055993Y016830D01*
X055993Y016732D02*
X051743Y016732D01*
X051743Y016633D02*
X055993Y016633D01*
X055993Y016535D02*
X051743Y016535D01*
X051743Y016436D02*
X055993Y016436D01*
X055993Y016338D02*
X051743Y016338D01*
X051743Y016239D02*
X055993Y016239D01*
X055993Y016141D02*
X051743Y016141D01*
X051743Y016042D02*
X055993Y016042D01*
X055993Y015944D02*
X051743Y015944D01*
X051743Y015845D02*
X055993Y015845D01*
X055993Y015747D02*
X051743Y015747D01*
X051743Y015648D02*
X055993Y015648D01*
X055993Y015550D02*
X051743Y015550D01*
X051743Y015451D02*
X055993Y015451D01*
X055993Y015353D02*
X051743Y015353D01*
X051743Y015254D02*
X055993Y015254D01*
X055993Y015156D02*
X051743Y015156D01*
X051743Y015057D02*
X055993Y015057D01*
X055993Y014959D02*
X051743Y014959D01*
X051743Y014860D02*
X055993Y014860D01*
X055993Y014762D02*
X051743Y014762D01*
X051743Y014663D02*
X055993Y014663D01*
X055993Y014565D02*
X051743Y014565D01*
X051743Y014466D02*
X055993Y014466D01*
X055993Y014368D02*
X051743Y014368D01*
X051743Y014269D02*
X055993Y014269D01*
X055993Y014171D02*
X051743Y014171D01*
X051743Y014072D02*
X055993Y014072D01*
X055993Y013974D02*
X051743Y013974D01*
X051735Y013875D02*
X055993Y013875D01*
X055993Y013777D02*
X051678Y013777D01*
X050276Y013186D02*
X054182Y013186D01*
X054212Y013216D02*
X053973Y012976D01*
X053843Y012664D01*
X053843Y012326D01*
X053973Y012014D01*
X054212Y011774D01*
X054524Y011645D01*
X054862Y011645D01*
X055175Y011774D01*
X055414Y012014D01*
X055543Y012326D01*
X055543Y012664D01*
X055414Y012976D01*
X055175Y013216D01*
X054862Y013345D01*
X054524Y013345D01*
X054212Y013216D01*
X054377Y013284D02*
X050232Y013284D01*
X050134Y013383D02*
X055993Y013383D01*
X055993Y013481D02*
X050035Y013481D01*
X049937Y013580D02*
X055993Y013580D01*
X055993Y013678D02*
X049838Y013678D01*
X050276Y013087D02*
X054083Y013087D01*
X053985Y012989D02*
X050276Y012989D01*
X050276Y012890D02*
X053937Y012890D01*
X053896Y012792D02*
X050276Y012792D01*
X050276Y012693D02*
X053855Y012693D01*
X053843Y012595D02*
X050276Y012595D01*
X050222Y012496D02*
X053843Y012496D01*
X053843Y012398D02*
X050124Y012398D01*
X050025Y012299D02*
X053854Y012299D01*
X053895Y012201D02*
X049927Y012201D01*
X049828Y012102D02*
X053936Y012102D01*
X053983Y012004D02*
X020452Y012004D01*
X020528Y011905D02*
X054081Y011905D01*
X054180Y011807D02*
X020569Y011807D01*
X020639Y011708D02*
X051330Y011708D01*
X051351Y011730D02*
X050759Y011138D01*
X050759Y010301D01*
X051351Y009709D01*
X052188Y009709D01*
X052780Y010301D01*
X052780Y011138D01*
X052188Y011730D01*
X051351Y011730D01*
X051231Y011610D02*
X020738Y011610D01*
X020301Y012102D02*
X046108Y012102D01*
X046010Y012201D02*
X015393Y012201D01*
X015393Y012102D02*
X019986Y012102D01*
X019835Y012004D02*
X015393Y012004D01*
X015393Y011905D02*
X019758Y011905D01*
X019717Y011807D02*
X015393Y011807D01*
X015393Y011708D02*
X019707Y011708D01*
X019707Y011610D02*
X015393Y011610D01*
X015393Y011511D02*
X019747Y011511D01*
X019809Y011413D02*
X018684Y011413D01*
X018671Y011425D02*
X018215Y011425D01*
X017893Y011103D01*
X017893Y010647D01*
X018215Y010325D01*
X018671Y010325D01*
X018993Y010647D01*
X018993Y011103D01*
X018671Y011425D01*
X018782Y011314D02*
X019923Y011314D01*
X020114Y011216D02*
X018881Y011216D01*
X018979Y011117D02*
X020212Y011117D01*
X020311Y011019D02*
X018993Y011019D01*
X018993Y010920D02*
X020409Y010920D01*
X018993Y010822D02*
X025208Y010822D01*
X025306Y010723D02*
X018993Y010723D01*
X018971Y010625D02*
X023523Y010625D01*
X023425Y010526D02*
X018872Y010526D01*
X018774Y010428D02*
X023326Y010428D01*
X023228Y010329D02*
X018675Y010329D01*
X018211Y010329D02*
X015393Y010329D01*
X015393Y010231D02*
X023213Y010231D01*
X023213Y010132D02*
X015393Y010132D01*
X015393Y010034D02*
X023213Y010034D01*
X023213Y009935D02*
X015393Y009935D01*
X015393Y009837D02*
X023252Y009837D01*
X023351Y009738D02*
X015393Y009738D01*
X015393Y009640D02*
X023449Y009640D01*
X024037Y009640D02*
X024449Y009640D01*
X024440Y009541D02*
X015393Y009541D01*
X015393Y009443D02*
X024341Y009443D01*
X024243Y009344D02*
X015393Y009344D01*
X015393Y009246D02*
X024213Y009246D01*
X024213Y009147D02*
X015393Y009147D01*
X015393Y009049D02*
X024213Y009049D01*
X024213Y008950D02*
X015393Y008950D01*
X015393Y008852D02*
X024237Y008852D01*
X024336Y008753D02*
X015393Y008753D01*
X015393Y008655D02*
X024434Y008655D01*
X024543Y008556D02*
X015393Y008556D01*
X015393Y008458D02*
X024543Y008458D01*
X024543Y008359D02*
X015393Y008359D01*
X015393Y008261D02*
X024543Y008261D01*
X024543Y008162D02*
X015393Y008162D01*
X015393Y008064D02*
X024543Y008064D01*
X024543Y007965D02*
X015393Y007965D01*
X015393Y007867D02*
X024543Y007867D01*
X025943Y007867D02*
X026232Y007867D01*
X026143Y007965D02*
X025943Y007965D01*
X025943Y008064D02*
X026102Y008064D01*
X026061Y008162D02*
X025943Y008162D01*
X025943Y008261D02*
X026043Y008261D01*
X026043Y008359D02*
X025943Y008359D01*
X025943Y008458D02*
X026043Y008458D01*
X026043Y008556D02*
X025943Y008556D01*
X026343Y008795D02*
X026343Y010595D01*
X027143Y010595D01*
X027143Y008795D01*
X026343Y008795D01*
X026343Y008852D02*
X027143Y008852D01*
X027143Y008950D02*
X026343Y008950D01*
X026343Y009049D02*
X027143Y009049D01*
X027143Y009147D02*
X026343Y009147D01*
X026343Y009246D02*
X027143Y009246D01*
X027143Y009344D02*
X026343Y009344D01*
X026343Y009443D02*
X027143Y009443D01*
X027143Y009541D02*
X026343Y009541D01*
X026343Y009640D02*
X027143Y009640D01*
X027143Y009738D02*
X026343Y009738D01*
X026343Y009837D02*
X027143Y009837D01*
X027143Y009935D02*
X026343Y009935D01*
X026343Y010034D02*
X027143Y010034D01*
X027143Y010132D02*
X026343Y010132D01*
X026343Y010231D02*
X027143Y010231D01*
X027143Y010329D02*
X026343Y010329D01*
X026343Y010428D02*
X027143Y010428D01*
X027143Y010526D02*
X026343Y010526D01*
X026126Y010723D02*
X026103Y010723D01*
X026103Y010822D02*
X026237Y010822D01*
X026081Y010920D02*
X050759Y010920D01*
X050759Y010822D02*
X028250Y010822D01*
X028361Y010723D02*
X050759Y010723D01*
X050759Y010625D02*
X028393Y010625D01*
X028393Y010526D02*
X050759Y010526D01*
X050759Y010428D02*
X028393Y010428D01*
X028393Y010329D02*
X050759Y010329D01*
X050830Y010231D02*
X028393Y010231D01*
X028393Y010132D02*
X050928Y010132D01*
X051027Y010034D02*
X045061Y010034D01*
X044912Y010095D02*
X044574Y010095D01*
X044262Y009966D01*
X044023Y009726D01*
X043893Y009414D01*
X043893Y009076D01*
X044023Y008764D01*
X044262Y008524D01*
X044574Y008395D01*
X044912Y008395D01*
X045225Y008524D01*
X045464Y008764D01*
X045593Y009076D01*
X045593Y009414D01*
X045464Y009726D01*
X045225Y009966D01*
X044912Y010095D01*
X045255Y009935D02*
X051125Y009935D01*
X051224Y009837D02*
X045354Y009837D01*
X045452Y009738D02*
X051322Y009738D01*
X052217Y009738D02*
X055993Y009738D01*
X055993Y009640D02*
X045500Y009640D01*
X045541Y009541D02*
X055993Y009541D01*
X055993Y009443D02*
X045582Y009443D01*
X045593Y009344D02*
X055993Y009344D01*
X055993Y009246D02*
X045593Y009246D01*
X045593Y009147D02*
X055993Y009147D01*
X055993Y009049D02*
X045582Y009049D01*
X045541Y008950D02*
X045704Y008950D01*
X045654Y008929D02*
X045559Y008835D01*
X045508Y008712D01*
X045508Y008578D01*
X045549Y008480D01*
X045549Y008470D01*
X045490Y008470D01*
X045373Y008353D01*
X045373Y007203D01*
X045490Y007086D01*
X046128Y007086D01*
X046245Y007203D01*
X046245Y008353D01*
X046132Y008466D01*
X046178Y008578D01*
X046178Y008712D01*
X046127Y008835D01*
X046033Y008929D01*
X045910Y008980D01*
X045777Y008980D01*
X045654Y008929D01*
X045576Y008852D02*
X045500Y008852D01*
X045525Y008753D02*
X045453Y008753D01*
X045508Y008655D02*
X045355Y008655D01*
X045256Y008556D02*
X045518Y008556D01*
X045478Y008458D02*
X045063Y008458D01*
X045379Y008359D02*
X040419Y008359D01*
X040321Y008458D02*
X044423Y008458D01*
X044230Y008556D02*
X040222Y008556D01*
X040124Y008655D02*
X044132Y008655D01*
X044033Y008753D02*
X040025Y008753D01*
X039927Y008852D02*
X043986Y008852D01*
X043945Y008950D02*
X039828Y008950D01*
X039887Y008892D02*
X039887Y008892D01*
X039730Y009049D02*
X043905Y009049D01*
X043893Y009147D02*
X039548Y009147D01*
X040518Y008261D02*
X045373Y008261D01*
X045373Y008162D02*
X040616Y008162D01*
X040715Y008064D02*
X045373Y008064D01*
X045373Y007965D02*
X040813Y007965D01*
X040912Y007867D02*
X045373Y007867D01*
X045373Y007768D02*
X041010Y007768D01*
X041176Y007670D02*
X045373Y007670D01*
X045373Y007571D02*
X044285Y007571D01*
X044384Y007473D02*
X045373Y007473D01*
X045373Y007374D02*
X044482Y007374D01*
X044581Y007276D02*
X045373Y007276D01*
X045399Y007177D02*
X044679Y007177D01*
X044734Y007079D02*
X049595Y007079D01*
X049620Y007053D02*
X050376Y007053D01*
X050910Y007587D01*
X050910Y008343D01*
X050376Y008877D01*
X049620Y008877D01*
X049086Y008343D01*
X049086Y007587D01*
X049620Y007053D01*
X049497Y007177D02*
X047204Y007177D01*
X047230Y007203D02*
X047230Y008353D01*
X047112Y008470D01*
X047083Y008470D01*
X047128Y008578D01*
X047128Y008712D01*
X047077Y008835D01*
X046983Y008929D01*
X046860Y008980D01*
X046727Y008980D01*
X046604Y008929D01*
X046509Y008835D01*
X046458Y008712D01*
X046458Y008578D01*
X046503Y008470D01*
X046474Y008470D01*
X046357Y008353D01*
X046357Y007203D01*
X046474Y007086D01*
X047112Y007086D01*
X047230Y007203D01*
X047230Y007276D02*
X049398Y007276D01*
X049300Y007374D02*
X047230Y007374D01*
X047230Y007473D02*
X049201Y007473D01*
X049103Y007571D02*
X047230Y007571D01*
X047230Y007670D02*
X049086Y007670D01*
X049086Y007768D02*
X047230Y007768D01*
X047230Y007867D02*
X049086Y007867D01*
X049086Y007965D02*
X047230Y007965D01*
X047230Y008064D02*
X049086Y008064D01*
X049086Y008162D02*
X047230Y008162D01*
X047230Y008261D02*
X049086Y008261D01*
X049103Y008359D02*
X047223Y008359D01*
X047125Y008458D02*
X049201Y008458D01*
X049300Y008556D02*
X047119Y008556D01*
X047128Y008655D02*
X049398Y008655D01*
X049497Y008753D02*
X047111Y008753D01*
X047061Y008852D02*
X049595Y008852D01*
X050401Y008852D02*
X053138Y008852D01*
X053164Y008877D02*
X052630Y008343D01*
X052630Y007587D01*
X053164Y007053D01*
X053919Y007053D01*
X054453Y007587D01*
X054453Y008343D01*
X053919Y008877D01*
X053164Y008877D01*
X053040Y008753D02*
X050500Y008753D01*
X050598Y008655D02*
X052941Y008655D01*
X052843Y008556D02*
X050697Y008556D01*
X050795Y008458D02*
X052744Y008458D01*
X052646Y008359D02*
X050894Y008359D01*
X050910Y008261D02*
X052630Y008261D01*
X052630Y008162D02*
X050910Y008162D01*
X050910Y008064D02*
X052630Y008064D01*
X052630Y007965D02*
X050910Y007965D01*
X050910Y007867D02*
X052630Y007867D01*
X052630Y007768D02*
X050910Y007768D01*
X050910Y007670D02*
X051615Y007670D01*
X051667Y007691D02*
X051478Y007613D01*
X051333Y007468D01*
X051255Y007279D01*
X051255Y007074D01*
X051333Y006884D01*
X051478Y006740D01*
X051667Y006661D01*
X051872Y006661D01*
X052061Y006740D01*
X052206Y006884D01*
X052285Y007074D01*
X052285Y007279D01*
X052206Y007468D01*
X052061Y007613D01*
X051872Y007691D01*
X051667Y007691D01*
X051924Y007670D02*
X052630Y007670D01*
X052646Y007571D02*
X052103Y007571D01*
X052202Y007473D02*
X052744Y007473D01*
X052843Y007374D02*
X052245Y007374D01*
X052285Y007276D02*
X052941Y007276D01*
X053040Y007177D02*
X052285Y007177D01*
X052285Y007079D02*
X053138Y007079D01*
X052246Y006980D02*
X055993Y006980D01*
X055993Y006882D02*
X052203Y006882D01*
X052105Y006783D02*
X055993Y006783D01*
X055993Y006685D02*
X051929Y006685D01*
X051611Y006685D02*
X048509Y006685D01*
X048509Y006620D02*
X048509Y006770D01*
X048452Y006909D01*
X048346Y007015D01*
X048207Y007072D01*
X048057Y007072D01*
X047918Y007015D01*
X047812Y006909D01*
X047755Y006770D01*
X047755Y006620D01*
X047812Y006481D01*
X047918Y006375D01*
X048057Y006318D01*
X048207Y006318D01*
X048346Y006375D01*
X048452Y006481D01*
X048509Y006620D01*
X048495Y006586D02*
X055993Y006586D01*
X055903Y006488D02*
X048454Y006488D01*
X048359Y006389D02*
X055804Y006389D01*
X055706Y006291D02*
X044557Y006291D01*
X044655Y006389D02*
X045227Y006389D01*
X045241Y006375D02*
X045380Y006318D01*
X045530Y006318D01*
X045668Y006375D01*
X045774Y006481D01*
X045832Y006620D01*
X045832Y006770D01*
X045774Y006909D01*
X045668Y007015D01*
X045530Y007072D01*
X045380Y007072D01*
X045241Y007015D01*
X045135Y006909D01*
X045078Y006770D01*
X045078Y006620D01*
X045135Y006481D01*
X045241Y006375D01*
X045132Y006488D02*
X044734Y006488D01*
X044734Y006586D02*
X045092Y006586D01*
X045078Y006685D02*
X044734Y006685D01*
X044734Y006783D02*
X045083Y006783D01*
X045124Y006882D02*
X044734Y006882D01*
X044734Y006980D02*
X045206Y006980D01*
X045703Y006980D02*
X047884Y006980D01*
X047801Y006882D02*
X045786Y006882D01*
X045827Y006783D02*
X047760Y006783D01*
X047755Y006685D02*
X045832Y006685D01*
X045818Y006586D02*
X047769Y006586D01*
X047810Y006488D02*
X045777Y006488D01*
X045682Y006389D02*
X047904Y006389D01*
X048504Y006783D02*
X051435Y006783D01*
X051336Y006882D02*
X048463Y006882D01*
X048380Y006980D02*
X051294Y006980D01*
X051255Y007079D02*
X050401Y007079D01*
X050500Y007177D02*
X051255Y007177D01*
X051255Y007276D02*
X050598Y007276D01*
X050697Y007374D02*
X051294Y007374D01*
X051338Y007473D02*
X050795Y007473D01*
X050894Y007571D02*
X051436Y007571D01*
X052315Y009837D02*
X055993Y009837D01*
X055993Y009935D02*
X052414Y009935D01*
X052512Y010034D02*
X055993Y010034D01*
X055993Y010132D02*
X052611Y010132D01*
X052709Y010231D02*
X055993Y010231D01*
X055993Y010329D02*
X052780Y010329D01*
X052780Y010428D02*
X055993Y010428D01*
X055993Y010526D02*
X052780Y010526D01*
X052780Y010625D02*
X055993Y010625D01*
X055993Y010723D02*
X052780Y010723D01*
X052780Y010822D02*
X055993Y010822D01*
X055993Y010920D02*
X052780Y010920D01*
X052780Y011019D02*
X055993Y011019D01*
X055993Y011117D02*
X052780Y011117D01*
X052702Y011216D02*
X055993Y011216D01*
X055993Y011314D02*
X052604Y011314D01*
X052505Y011413D02*
X055993Y011413D01*
X055993Y011511D02*
X052407Y011511D01*
X052308Y011610D02*
X055993Y011610D01*
X055993Y011708D02*
X055015Y011708D01*
X055207Y011807D02*
X055993Y011807D01*
X055993Y011905D02*
X055305Y011905D01*
X055404Y012004D02*
X055993Y012004D01*
X055993Y012102D02*
X055451Y012102D01*
X055491Y012201D02*
X055993Y012201D01*
X055993Y012299D02*
X055532Y012299D01*
X055543Y012398D02*
X055993Y012398D01*
X055993Y012496D02*
X055543Y012496D01*
X055543Y012595D02*
X055993Y012595D01*
X055993Y012693D02*
X055531Y012693D01*
X055491Y012792D02*
X055993Y012792D01*
X055993Y012890D02*
X055450Y012890D01*
X055402Y012989D02*
X055993Y012989D01*
X055993Y013087D02*
X055303Y013087D01*
X055205Y013186D02*
X055993Y013186D01*
X055993Y013284D02*
X055010Y013284D01*
X054372Y011708D02*
X052210Y011708D01*
X051133Y011511D02*
X025521Y011511D01*
X025635Y011413D02*
X051034Y011413D01*
X050936Y011314D02*
X025733Y011314D01*
X025832Y011216D02*
X050837Y011216D01*
X050759Y011117D02*
X025930Y011117D01*
X026029Y011019D02*
X050759Y011019D01*
X049058Y012102D02*
X046878Y012102D01*
X046977Y012201D02*
X048960Y012201D01*
X048861Y012299D02*
X047075Y012299D01*
X047174Y012398D02*
X048763Y012398D01*
X048664Y012496D02*
X047272Y012496D01*
X047326Y012595D02*
X048610Y012595D01*
X048610Y012693D02*
X047326Y012693D01*
X047326Y012792D02*
X048610Y012792D01*
X048610Y012890D02*
X047326Y012890D01*
X047326Y012989D02*
X048610Y012989D01*
X048610Y013087D02*
X047326Y013087D01*
X047326Y013186D02*
X048610Y013186D01*
X048654Y013284D02*
X047282Y013284D01*
X047184Y013383D02*
X048753Y013383D01*
X048851Y013481D02*
X047085Y013481D01*
X046987Y013580D02*
X048950Y013580D01*
X049048Y013678D02*
X046888Y013678D01*
X046098Y013678D02*
X041167Y013678D01*
X041266Y013580D02*
X046000Y013580D01*
X045901Y013481D02*
X041364Y013481D01*
X041463Y013383D02*
X045803Y013383D01*
X045704Y013284D02*
X041541Y013284D01*
X041541Y013186D02*
X045660Y013186D01*
X045660Y013087D02*
X041541Y013087D01*
X041541Y012989D02*
X045660Y012989D01*
X045660Y012890D02*
X041541Y012890D01*
X041541Y012792D02*
X045660Y012792D01*
X045660Y012693D02*
X041541Y012693D01*
X041450Y012595D02*
X045660Y012595D01*
X045714Y012496D02*
X041351Y012496D01*
X041253Y012398D02*
X045813Y012398D01*
X045911Y012299D02*
X041154Y012299D01*
X044034Y009738D02*
X028393Y009738D01*
X028393Y009640D02*
X043987Y009640D01*
X043946Y009541D02*
X028393Y009541D01*
X028393Y009443D02*
X043905Y009443D01*
X043893Y009344D02*
X028393Y009344D01*
X028483Y009246D02*
X043893Y009246D01*
X044133Y009837D02*
X028393Y009837D01*
X028393Y009935D02*
X044231Y009935D01*
X044426Y010034D02*
X028393Y010034D01*
X028143Y010034D02*
X027343Y010034D01*
X027343Y010132D02*
X028143Y010132D01*
X028143Y010231D02*
X027343Y010231D01*
X027343Y010329D02*
X028143Y010329D01*
X028143Y010428D02*
X027343Y010428D01*
X027343Y010526D02*
X028143Y010526D01*
X028143Y010595D02*
X027343Y010595D01*
X027343Y008795D01*
X028143Y008795D01*
X028143Y010595D01*
X028143Y009935D02*
X027343Y009935D01*
X027343Y009837D02*
X028143Y009837D01*
X028143Y009738D02*
X027343Y009738D01*
X027343Y009640D02*
X028143Y009640D01*
X028143Y009541D02*
X027343Y009541D01*
X027343Y009443D02*
X028143Y009443D01*
X028143Y009344D02*
X027343Y009344D01*
X027343Y009246D02*
X028143Y009246D01*
X028143Y009147D02*
X027343Y009147D01*
X027343Y009049D02*
X028143Y009049D01*
X028143Y008950D02*
X027343Y008950D01*
X027343Y008852D02*
X028143Y008852D01*
X028310Y007768D02*
X039030Y007768D01*
X039129Y007670D02*
X033676Y007670D01*
X033774Y007571D02*
X039227Y007571D01*
X039326Y007473D02*
X033873Y007473D01*
X033971Y007374D02*
X039424Y007374D01*
X039523Y007276D02*
X034041Y007276D01*
X034041Y007177D02*
X039621Y007177D01*
X039720Y007079D02*
X034041Y007079D01*
X034041Y006980D02*
X039818Y006980D01*
X039917Y006882D02*
X034041Y006882D01*
X034041Y006783D02*
X040015Y006783D01*
X040047Y006685D02*
X034040Y006685D01*
X033941Y006586D02*
X040145Y006586D01*
X040244Y006488D02*
X033843Y006488D01*
X033744Y006389D02*
X040342Y006389D01*
X040441Y006291D02*
X033646Y006291D01*
X032941Y006291D02*
X025943Y006291D01*
X025943Y006389D02*
X027727Y006389D01*
X027611Y006488D02*
X025943Y006488D01*
X025943Y006586D02*
X027512Y006586D01*
X027414Y006685D02*
X025943Y006685D01*
X025943Y006783D02*
X027315Y006783D01*
X027217Y006882D02*
X025943Y006882D01*
X025943Y006980D02*
X027118Y006980D01*
X027020Y007079D02*
X025943Y007079D01*
X025943Y007177D02*
X026921Y007177D01*
X026823Y007276D02*
X025943Y007276D01*
X025943Y007374D02*
X026724Y007374D01*
X026626Y007473D02*
X025943Y007473D01*
X025943Y007571D02*
X026527Y007571D01*
X026429Y007670D02*
X025943Y007670D01*
X025943Y007768D02*
X026330Y007768D01*
X024351Y009738D02*
X024136Y009738D01*
X024234Y009837D02*
X024252Y009837D01*
X024326Y010428D02*
X024160Y010428D01*
X024062Y010526D02*
X024425Y010526D01*
X024523Y010625D02*
X023963Y010625D01*
X024963Y010625D02*
X025383Y010625D01*
X025383Y010526D02*
X025062Y010526D01*
X025160Y010428D02*
X025326Y010428D01*
X021516Y007768D02*
X015393Y007768D01*
X015393Y007670D02*
X021418Y007670D01*
X021319Y007571D02*
X015393Y007571D01*
X015393Y007473D02*
X021221Y007473D01*
X021122Y007374D02*
X015393Y007374D01*
X015393Y007276D02*
X021024Y007276D01*
X020925Y007177D02*
X015393Y007177D01*
X015393Y007079D02*
X020827Y007079D01*
X020728Y006980D02*
X015393Y006980D01*
X015393Y006882D02*
X020630Y006882D01*
X020531Y006783D02*
X015393Y006783D01*
X015393Y006685D02*
X020433Y006685D01*
X018113Y010428D02*
X015393Y010428D01*
X015393Y010526D02*
X016438Y010526D01*
X016477Y010510D02*
X016610Y010510D01*
X016733Y010561D01*
X016827Y010655D01*
X016878Y010778D01*
X016878Y010912D01*
X016827Y011035D01*
X016733Y011129D01*
X016610Y011180D01*
X016477Y011180D01*
X016354Y011129D01*
X016259Y011035D01*
X016208Y010912D01*
X016208Y010778D01*
X016259Y010655D01*
X016354Y010561D01*
X016477Y010510D01*
X016649Y010526D02*
X018014Y010526D01*
X017916Y010625D02*
X016797Y010625D01*
X016855Y010723D02*
X017893Y010723D01*
X017893Y010822D02*
X016878Y010822D01*
X016875Y010920D02*
X017893Y010920D01*
X017893Y011019D02*
X016834Y011019D01*
X016745Y011117D02*
X017908Y011117D01*
X018006Y011216D02*
X015393Y011216D01*
X015393Y011314D02*
X018105Y011314D01*
X018203Y011413D02*
X015393Y011413D01*
X015393Y011117D02*
X016342Y011117D01*
X016253Y011019D02*
X015393Y011019D01*
X015393Y010920D02*
X016212Y010920D01*
X016208Y010822D02*
X015393Y010822D01*
X015393Y010723D02*
X016231Y010723D01*
X016290Y010625D02*
X015393Y010625D01*
X029693Y022740D02*
X031554Y022740D01*
X031426Y022839D02*
X029693Y022839D01*
X029693Y022937D02*
X031375Y022937D01*
X031358Y023036D02*
X029693Y023036D01*
X029693Y023134D02*
X031368Y023134D01*
X031408Y023233D02*
X029693Y023233D01*
X029693Y023331D02*
X031508Y023331D01*
X032433Y025597D02*
X030573Y025597D01*
X030573Y025695D02*
X032433Y025695D01*
X032433Y025794D02*
X030573Y025794D01*
X030573Y025892D02*
X032433Y025892D01*
X032433Y025991D02*
X030573Y025991D01*
X030573Y026089D02*
X032433Y026089D01*
X032433Y026188D02*
X030573Y026188D01*
X030573Y026286D02*
X032433Y026286D01*
X032433Y026385D02*
X030573Y026385D01*
X030573Y026483D02*
X032433Y026483D01*
X032433Y026582D02*
X030573Y026582D01*
X030573Y026680D02*
X032433Y026680D01*
X032433Y026779D02*
X030573Y026779D01*
X030573Y026877D02*
X032433Y026877D01*
X032433Y026976D02*
X030573Y026976D01*
X030573Y027074D02*
X032433Y027074D01*
X032433Y027173D02*
X030573Y027173D01*
X030573Y027271D02*
X032433Y027271D01*
X032433Y027370D02*
X030573Y027370D01*
X030573Y027468D02*
X032433Y027468D01*
X032433Y027567D02*
X030573Y027567D01*
X030573Y027665D02*
X032433Y027665D01*
X032433Y027764D02*
X030573Y027764D01*
X030573Y027862D02*
X032433Y027862D01*
X032433Y027961D02*
X030573Y027961D01*
X030573Y028059D02*
X032433Y028059D01*
X032433Y028158D02*
X030573Y028158D01*
X030573Y028256D02*
X032433Y028256D01*
X032433Y028355D02*
X030573Y028355D01*
X030573Y028453D02*
X032433Y028453D01*
X032433Y028552D02*
X030573Y028552D01*
X030573Y028650D02*
X032433Y028650D01*
X032433Y028749D02*
X030573Y028749D01*
X030573Y028847D02*
X032433Y028847D01*
X032433Y028946D02*
X030573Y028946D01*
X030573Y029044D02*
X032433Y029044D01*
X032433Y029143D02*
X030573Y029143D01*
X030573Y029241D02*
X032433Y029241D01*
X032433Y029340D02*
X030573Y029340D01*
X030534Y029438D02*
X032433Y029438D01*
X032428Y029537D02*
X030436Y029537D01*
X030037Y029635D02*
X032376Y029635D01*
X032358Y029734D02*
X029939Y029734D01*
X029840Y029832D02*
X032367Y029832D01*
X032409Y029935D02*
X032504Y030029D01*
X031680Y031507D02*
X029723Y031507D01*
X030033Y035841D02*
X023434Y035841D01*
X023561Y035939D02*
X029982Y035939D01*
X029883Y036038D02*
X023611Y036038D01*
X023628Y036136D02*
X029785Y036136D01*
X029686Y036235D02*
X023619Y036235D01*
X019689Y036826D02*
X012700Y036826D01*
X012601Y036924D02*
X019540Y036924D01*
X019481Y037023D02*
X012503Y037023D01*
X012404Y037121D02*
X019458Y037121D01*
X019462Y037220D02*
X012306Y037220D01*
X011641Y037220D02*
X010306Y037220D01*
X010283Y037242D02*
X009664Y037242D01*
X009226Y036805D01*
X009226Y036185D01*
X009664Y035748D01*
X010283Y035748D01*
X010721Y036185D01*
X010721Y036805D01*
X010283Y037242D01*
X010404Y037121D02*
X011542Y037121D01*
X011444Y037023D02*
X010503Y037023D01*
X010601Y036924D02*
X011345Y036924D01*
X011247Y036826D02*
X010700Y036826D01*
X010721Y036727D02*
X011226Y036727D01*
X011226Y036629D02*
X010721Y036629D01*
X010721Y036530D02*
X011226Y036530D01*
X011226Y036432D02*
X010721Y036432D01*
X010721Y036333D02*
X011226Y036333D01*
X011226Y036235D02*
X010721Y036235D01*
X010672Y036136D02*
X011275Y036136D01*
X011374Y036038D02*
X010573Y036038D01*
X010475Y035939D02*
X011472Y035939D01*
X011571Y035841D02*
X010376Y035841D01*
X009571Y035841D02*
X007393Y035841D01*
X007393Y035939D02*
X009472Y035939D01*
X009374Y036038D02*
X007393Y036038D01*
X007393Y036136D02*
X009275Y036136D01*
X009226Y036235D02*
X007393Y036235D01*
X007393Y036333D02*
X009226Y036333D01*
X009226Y036432D02*
X007393Y036432D01*
X007393Y036530D02*
X009226Y036530D01*
X009226Y036629D02*
X007393Y036629D01*
X007393Y036727D02*
X009226Y036727D01*
X009247Y036826D02*
X007393Y036826D01*
X007455Y036924D02*
X009345Y036924D01*
X009444Y037023D02*
X007554Y037023D01*
X007652Y037121D02*
X009542Y037121D01*
X009641Y037220D02*
X007751Y037220D01*
X007393Y032393D02*
X016993Y032393D01*
X016993Y032295D02*
X007393Y032295D01*
X007393Y032196D02*
X008767Y032196D01*
X008669Y032098D02*
X007393Y032098D01*
X007393Y031999D02*
X008570Y031999D01*
X008472Y031901D02*
X007393Y031901D01*
X007393Y031802D02*
X008376Y031802D01*
X008376Y031704D02*
X007393Y031704D01*
X009479Y032196D02*
X010617Y032196D01*
X010519Y032098D02*
X009578Y032098D01*
X009676Y031999D02*
X010420Y031999D01*
X010322Y031901D02*
X009775Y031901D01*
X009871Y031802D02*
X010226Y031802D01*
X010226Y031704D02*
X009871Y031704D01*
X011329Y032196D02*
X012467Y032196D01*
X012369Y032098D02*
X011428Y032098D01*
X011526Y031999D02*
X012270Y031999D01*
X012172Y031901D02*
X011625Y031901D01*
X011721Y031802D02*
X012076Y031802D01*
X012076Y031704D02*
X011721Y031704D01*
X011721Y031605D02*
X012076Y031605D01*
X012076Y031507D02*
X011721Y031507D01*
X011721Y031408D02*
X012076Y031408D01*
X012076Y031310D02*
X011721Y031310D01*
X011721Y031211D02*
X012076Y031211D01*
X012149Y031113D02*
X011648Y031113D01*
X011549Y031014D02*
X012247Y031014D01*
X012346Y030916D02*
X011451Y030916D01*
X013301Y030916D02*
X016233Y030916D01*
X016331Y031014D02*
X013399Y031014D01*
X013498Y031113D02*
X016430Y031113D01*
X016528Y031211D02*
X013571Y031211D01*
X013571Y031310D02*
X016627Y031310D01*
X016725Y031408D02*
X013571Y031408D01*
X013571Y031507D02*
X016824Y031507D01*
X016922Y031605D02*
X013571Y031605D01*
X013571Y031704D02*
X016993Y031704D01*
X016993Y031802D02*
X013571Y031802D01*
X013475Y031901D02*
X016993Y031901D01*
X016993Y031999D02*
X013376Y031999D01*
X013278Y032098D02*
X016993Y032098D01*
X016993Y032196D02*
X013179Y032196D01*
X031046Y036924D02*
X055931Y036924D01*
X055833Y037023D02*
X031105Y037023D01*
X031128Y037121D02*
X055734Y037121D01*
X055636Y037220D02*
X031125Y037220D01*
X038970Y025892D02*
X039364Y025892D01*
X039462Y025794D02*
X039044Y025794D01*
X038641Y015550D02*
X038613Y015550D01*
X038691Y015451D02*
X038714Y015451D01*
X045982Y008950D02*
X046654Y008950D01*
X046526Y008852D02*
X046111Y008852D01*
X046161Y008753D02*
X046475Y008753D01*
X046458Y008655D02*
X046178Y008655D01*
X046169Y008556D02*
X046468Y008556D01*
X046462Y008458D02*
X046140Y008458D01*
X046239Y008359D02*
X046363Y008359D01*
X046357Y008261D02*
X046245Y008261D01*
X046245Y008162D02*
X046357Y008162D01*
X046357Y008064D02*
X046245Y008064D01*
X046245Y007965D02*
X046357Y007965D01*
X046357Y007867D02*
X046245Y007867D01*
X046245Y007768D02*
X046357Y007768D01*
X046357Y007670D02*
X046245Y007670D01*
X046245Y007571D02*
X046357Y007571D01*
X046357Y007473D02*
X046245Y007473D01*
X046245Y007374D02*
X046357Y007374D01*
X046357Y007276D02*
X046245Y007276D01*
X046220Y007177D02*
X046383Y007177D01*
X046932Y008950D02*
X055993Y008950D01*
X055993Y008852D02*
X053944Y008852D01*
X054043Y008753D02*
X055993Y008753D01*
X055993Y008655D02*
X054141Y008655D01*
X054240Y008556D02*
X055993Y008556D01*
X055993Y008458D02*
X054338Y008458D01*
X054437Y008359D02*
X055993Y008359D01*
X055993Y008261D02*
X054453Y008261D01*
X054453Y008162D02*
X055993Y008162D01*
X055993Y008064D02*
X054453Y008064D01*
X054453Y007965D02*
X055993Y007965D01*
X055993Y007867D02*
X054453Y007867D01*
X054453Y007768D02*
X055993Y007768D01*
X055993Y007670D02*
X054453Y007670D01*
X054437Y007571D02*
X055993Y007571D01*
X055993Y007473D02*
X054338Y007473D01*
X054240Y007374D02*
X055993Y007374D01*
X055993Y007276D02*
X054141Y007276D01*
X054043Y007177D02*
X055993Y007177D01*
X055993Y007079D02*
X053944Y007079D01*
X043601Y007571D02*
X041274Y007571D01*
X041373Y007473D02*
X043503Y007473D01*
X043404Y007374D02*
X041471Y007374D01*
X041541Y007276D02*
X043306Y007276D01*
X043207Y007177D02*
X041541Y007177D01*
X041541Y007079D02*
X043153Y007079D01*
X043153Y006980D02*
X041541Y006980D01*
X041541Y006882D02*
X043153Y006882D01*
X043153Y006783D02*
X041541Y006783D01*
X041540Y006685D02*
X043153Y006685D01*
X043153Y006586D02*
X041441Y006586D01*
X041343Y006488D02*
X043153Y006488D01*
X043231Y006389D02*
X041244Y006389D01*
X041146Y006291D02*
X043330Y006291D01*
D26*
X026893Y023295D03*
X026893Y023995D03*
D27*
X037043Y006795D03*
X043943Y006795D03*
X052843Y031395D03*
D28*
X050793Y031295D03*
X048393Y031295D03*
X048793Y025095D03*
D29*
X046093Y025995D02*
X046093Y030995D01*
X039593Y030995D01*
X039593Y025995D01*
X046093Y025995D01*
X046093Y025997D02*
X039593Y025997D01*
X039593Y026066D02*
X046093Y026066D01*
X046093Y026134D02*
X039593Y026134D01*
X039593Y026203D02*
X046093Y026203D01*
X046093Y026271D02*
X039593Y026271D01*
X039593Y026340D02*
X046093Y026340D01*
X046093Y026408D02*
X039593Y026408D01*
X039593Y026477D02*
X046093Y026477D01*
X046093Y026545D02*
X039593Y026545D01*
X039593Y026614D02*
X046093Y026614D01*
X046093Y026682D02*
X039593Y026682D01*
X039593Y026751D02*
X046093Y026751D01*
X046093Y026819D02*
X039593Y026819D01*
X039593Y026888D02*
X046093Y026888D01*
X046093Y026956D02*
X039593Y026956D01*
X039593Y027025D02*
X046093Y027025D01*
X046093Y027093D02*
X039593Y027093D01*
X039593Y027162D02*
X046093Y027162D01*
X046093Y027230D02*
X039593Y027230D01*
X039593Y027299D02*
X046093Y027299D01*
X046093Y027367D02*
X039593Y027367D01*
X039593Y027436D02*
X046093Y027436D01*
X046093Y027504D02*
X039593Y027504D01*
X039593Y027573D02*
X046093Y027573D01*
X046093Y027641D02*
X039593Y027641D01*
X039593Y027710D02*
X046093Y027710D01*
X046093Y027778D02*
X039593Y027778D01*
X039593Y027847D02*
X046093Y027847D01*
X046093Y027915D02*
X039593Y027915D01*
X039593Y027984D02*
X046093Y027984D01*
X046093Y028052D02*
X039593Y028052D01*
X039593Y028121D02*
X046093Y028121D01*
X046093Y028189D02*
X039593Y028189D01*
X039593Y028258D02*
X046093Y028258D01*
X046093Y028326D02*
X039593Y028326D01*
X039593Y028395D02*
X046093Y028395D01*
X046093Y028463D02*
X039593Y028463D01*
X039593Y028532D02*
X046093Y028532D01*
X046093Y028600D02*
X039593Y028600D01*
X039593Y028669D02*
X046093Y028669D01*
X046093Y028737D02*
X039593Y028737D01*
X039593Y028806D02*
X046093Y028806D01*
X046093Y028874D02*
X039593Y028874D01*
X039593Y028943D02*
X046093Y028943D01*
X046093Y029011D02*
X039593Y029011D01*
X039593Y029080D02*
X046093Y029080D01*
X046093Y029148D02*
X039593Y029148D01*
X039593Y029217D02*
X046093Y029217D01*
X046093Y029285D02*
X039593Y029285D01*
X039593Y029354D02*
X046093Y029354D01*
X046093Y029422D02*
X039593Y029422D01*
X039593Y029491D02*
X046093Y029491D01*
X046093Y029559D02*
X039593Y029559D01*
X039593Y029628D02*
X046093Y029628D01*
X046093Y029696D02*
X039593Y029696D01*
X039593Y029765D02*
X046093Y029765D01*
X046093Y029833D02*
X039593Y029833D01*
X039593Y029902D02*
X046093Y029902D01*
X046093Y029970D02*
X039593Y029970D01*
X039593Y030039D02*
X046093Y030039D01*
X046093Y030107D02*
X039593Y030107D01*
X039593Y030176D02*
X046093Y030176D01*
X046093Y030244D02*
X039593Y030244D01*
X039593Y030313D02*
X046093Y030313D01*
X046093Y030381D02*
X039593Y030381D01*
X039593Y030450D02*
X046093Y030450D01*
X046093Y030518D02*
X039593Y030518D01*
X039593Y030587D02*
X046093Y030587D01*
X046093Y030655D02*
X039593Y030655D01*
X039593Y030724D02*
X046093Y030724D01*
X046093Y030792D02*
X039593Y030792D01*
X039593Y030861D02*
X046093Y030861D01*
X046093Y030929D02*
X039593Y030929D01*
X023393Y007345D02*
X023393Y006545D01*
X009393Y009695D02*
X008743Y009695D01*
X008593Y009445D01*
D30*
X008593Y007995D03*
X008593Y009445D03*
X008593Y010895D03*
X021943Y006545D03*
X023393Y006545D03*
X024743Y006545D03*
D31*
X046493Y012895D03*
X049443Y012895D03*
D32*
X040793Y006995D02*
X039293Y008495D01*
X029993Y008495D01*
X028243Y008495D01*
X027843Y008895D01*
X026743Y008595D02*
X026743Y008345D01*
X028093Y006995D01*
X029993Y006995D01*
X033293Y006995D01*
D33*
X027843Y008895D02*
X027843Y008995D01*
X027743Y009095D01*
D34*
X029993Y008495D03*
X029993Y006995D03*
D35*
X028393Y022495D03*
D36*
X028393Y023348D01*
X029041Y023995D01*
D37*
X026743Y009095D02*
X026743Y008595D01*
D38*
X045443Y023545D03*
X046143Y023195D03*
M02*
