%
M48
M72
T01C0.0100
T02C0.0130
T03C0.0236
T04C0.0276
T05C0.0315
T06C0.0354
T07C0.0360
T08C0.0394
T09C0.0400
T10C0.0460
T11C0.0512
T12C0.0630
T13C0.0710
T14C0.0730
T15C0.0787
T16C0.0925
T17C0.1024
T18C0.1102
T19C0.1220
T20C0.1300
%
T01
X45443Y23545
X46143Y23195
T02
X45793Y24145
X45693Y25045
X44793Y25195
X44793Y26195
X44293Y26195
X43793Y26195
X43293Y26195
X42793Y26195
X42293Y26195
X41793Y26195
X41293Y26195
X40793Y26195
X40293Y26195
X39793Y26195
X39793Y26695
X39793Y27195
X39793Y27695
X39793Y28195
X39793Y28695
X39793Y29195
X39793Y29695
X39793Y30195
X39793Y30695
X40293Y30695
X40293Y30195
X40293Y29695
X40293Y29195
X40293Y28695
X40293Y28195
X40293Y27695
X40293Y27195
X40293Y26695
X40793Y26695
X40793Y27195
X40793Y27695
X40793Y28195
X40793Y28695
X40793Y29195
X40793Y29695
X40793Y30195
X40793Y30695
X41293Y30695
X41293Y30195
X41293Y29695
X41293Y29195
X41293Y28695
X41293Y28195
X41293Y27695
X41293Y27195
X41293Y26695
X38743Y25645
X38193Y24295
X37393Y24095
X38193Y23445
X38693Y23095
X38743Y21995
X39443Y21795
X40143Y21795
X39843Y20995
X38293Y19045
X38843Y18595
X38843Y17795
X38293Y17345
X38393Y16995
X38943Y16595
X38943Y15695
X38393Y15295
X37593Y15395
X37593Y16895
X37493Y17445
X37493Y18945
X39743Y18695
X40143Y18745
X40793Y18745
X43793Y18395
X43793Y17895
X43793Y17395
X43793Y16895
X43793Y16395
X43793Y15895
X43793Y15395
X43793Y14895
X44293Y14895
X44293Y15395
X44293Y15895
X44293Y16395
X44293Y16895
X44293Y17395
X44293Y17895
X44293Y18395
X44293Y18895
X44293Y19395
X44293Y19895
X44793Y20395
X45293Y20395
X45793Y20395
X46293Y20395
X46293Y20895
X46793Y20895
X46793Y20395
X47293Y20395
X47293Y20895
X47293Y21395
X46793Y21395
X47293Y21895
X47793Y21895
X47793Y21395
X47793Y20895
X47793Y20395
X48293Y20395
X48293Y20895
X48293Y21395
X48293Y21895
X48293Y22395
X47793Y22395
X48293Y22895
X48293Y23395
X48793Y23395
X48793Y22895
X48793Y22395
X48793Y21895
X48793Y21395
X48793Y20895
X48793Y20395
X49293Y20395
X49293Y20895
X49293Y21395
X49293Y21895
X49293Y22395
X49293Y22895
X49293Y23395
X49293Y23895
X48793Y23895
X49793Y23895
X49793Y23395
X49793Y22895
X49793Y22395
X49793Y21895
X49793Y21395
X49793Y20895
X49793Y20395
X50293Y20395
X50293Y20895
X50293Y21395
X50293Y21895
X50293Y22395
X50293Y22895
X50293Y23395
X50293Y23895
X50793Y23895
X50793Y23395
X50793Y22895
X50793Y22395
X50793Y21895
X50793Y21395
X50793Y20895
X50793Y20395
X51293Y20395
X51293Y20895
X51293Y21395
X51293Y21895
X51293Y22395
X51293Y22895
X51293Y23395
X51293Y23895
X47893Y25045
X47193Y24145
X45243Y21845
X44793Y21845
X44743Y21345
X44293Y22145
X43993Y22495
X42543Y22795
X42543Y23595
X43993Y23895
X44093Y24295
X45293Y26195
X45293Y26695
X45293Y27195
X45293Y27695
X45293Y28195
X45293Y28695
X45293Y29195
X45293Y29695
X45293Y30195
X45293Y30695
X45793Y30695
X45793Y30195
X45793Y29695
X45793Y29195
X45793Y28695
X45793Y28195
X45793Y27695
X45793Y27195
X45793Y26695
X45793Y26195
X42543Y21395
X43593Y20645
X39843Y23695
X35593Y24645
X33043Y24095
X32243Y24295
X31693Y23845
X31693Y23045
X32193Y22595
X33043Y22595
X33343Y21745
X32943Y21095
X34943Y20445
X35593Y21695
X34393Y17695
X34943Y17495
X44793Y15395
X44793Y14895
X45293Y14895
X45293Y15395
X45793Y15395
X45793Y14895
X46293Y14895
X46293Y15395
X46793Y15395
X46793Y14895
X47293Y14895
X47293Y15395
X47793Y15395
X47793Y14895
X48293Y14895
X48293Y15395
X48293Y15895
X48293Y16395
X48293Y16895
X48293Y17395
X48293Y17895
X48293Y18395
X48293Y18895
X48293Y19395
X48293Y19895
X48793Y19895
X48793Y19395
X48793Y18895
X48793Y18395
X48793Y17895
X48793Y17395
X48793Y16895
X48793Y16395
X48793Y15895
X48793Y15395
X48793Y14895
X49293Y14895
X49293Y15395
X49293Y15895
X49293Y16395
X49293Y16895
X49293Y17395
X49293Y17895
X49293Y18395
X49293Y18895
X49293Y19395
X49293Y19895
X49793Y19895
X49793Y19395
X49793Y18895
X49793Y18395
X49793Y17895
X49793Y17395
X49793Y16895
X49793Y16395
X49793Y15895
X49793Y15395
X49793Y14895
X50293Y14895
X50293Y15395
X50293Y15895
X50293Y16395
X50293Y16895
X50293Y17395
X50293Y17895
X50293Y18395
X50293Y18895
X50293Y19395
X50293Y19895
X50793Y19895
X50793Y19395
X50793Y18895
X50793Y18395
X50793Y17895
X50793Y17395
X50793Y16895
X50793Y16395
X50793Y15895
X50793Y15395
X50793Y14895
X51293Y14895
X51293Y15395
X51293Y15895
X51293Y16395
X51293Y16895
X51293Y17395
X51293Y17895
X51293Y18395
X51293Y18895
X51293Y19395
X51293Y19895
X38793Y29845
X37443Y29295
X37343Y31045
X38393Y32595
X35093Y31445
X33743Y30345
X33343Y30595
X32693Y29745
X34643Y29645
X35093Y28545
X31943Y26395
X27893Y30295
X25893Y28545
X23693Y28995
X21993Y29395
X19443Y29295
X18143Y28995
X18143Y28145
X18693Y27695
X19393Y27695
X16293Y31195
X15843Y32795
X15843Y33895
X16343Y36145
X13943Y36145
X13943Y36695
X19793Y37145
X23293Y36695
X23293Y36145
X22201Y33095
X21993Y31895
X23493Y31845
X30793Y37145
X44593Y31295
X23343Y17995
X22943Y17995
X22943Y17595
X22943Y17195
X23343Y17195
X23343Y17595
X15293Y16895
X15293Y18395
X13943Y19295
X13643Y16895
X10893Y11645
X10893Y10595
X9393Y9695
X16543Y10845
X23393Y7345
X45843Y8645
X46793Y8645
X14193Y27845
T03
X21643Y28045
X13643Y18595
X16493Y15395
X16393Y12095
X35893Y11295
X35893Y10845
X35893Y10395
X35893Y9945
X36343Y9945
X36793Y9945
X37243Y9945
X37693Y9945
X38143Y9945
X38143Y10395
X38143Y10845
X38143Y11295
T04
X28393Y22495
T05
X29943Y20045
X31143Y19195
X32643Y15645
X20143Y11695
X18443Y16245
T06
X26893Y23295
X26893Y23995
X21543Y35595
X20543Y35595
X19543Y35595
X45455Y6695
X48132Y6695
T07
X18443Y10875
X12243Y10875
X34093Y32565
X40293Y32565
X46493Y32565
X52693Y32565
T08
X29041Y30995
X29041Y29995
X29041Y28995
X29041Y27995
X29041Y26995
X29041Y25995
X29041Y23995
X29041Y22995
X29041Y21995
X29041Y20995
X29041Y19995
X29041Y18995
X29041Y17995
X29041Y16995
X20041Y31045
X20041Y32045
X19041Y32045
X19041Y31045
X18041Y31045
X18041Y32045
X10041Y30995
X10041Y29995
X10041Y28995
X10041Y27995
X10041Y26995
X10041Y25995
X10041Y24995
X10041Y23995
X10041Y22395
X10041Y21395
X10041Y20395
X10041Y19395
X10041Y18395
X10041Y17395
X10041Y16395
X10041Y15395
X10041Y14395
X10041Y13395
T09
X23743Y10095
X23743Y9095
X24743Y9095
X24743Y10095
X25743Y10095
X25743Y9095
X26743Y9095
X26743Y10095
X27743Y10095
X27743Y9095
X52282Y26918
X52282Y27918
X53282Y27918
X53282Y26918
X53282Y28918
X52282Y28918
X52282Y29918
X53282Y29918
T10
X24543Y35345
X23543Y35345
X17618Y35345
X16618Y35345
X15193Y35345
X14193Y35345
T11
X8593Y7995
X8593Y9445
X8593Y10895
X21943Y6545
X23393Y6545
X24743Y6545
X29993Y6995
X29993Y8495
T12
X48793Y25095
X48393Y31295
X50793Y31295
X51770Y7176
T13
X19943Y7805
X16943Y7805
X13743Y7805
X10743Y7805
X32593Y35635
X35593Y35635
X38793Y35635
X41793Y35635
X44993Y35635
X47993Y35635
X51193Y35635
X54193Y35635
T14
X40793Y12995
X40793Y6995
X33293Y6995
X33293Y12995
X12823Y31495
X10973Y31495
X9123Y31495
X9973Y36495
X11973Y36495
T15
X37043Y6795
X43943Y6795
X52843Y31395
T16
X51770Y8357
T17
X53541Y7965
X49998Y7965
T18
X49443Y13195
X45993Y13195
T19
X51770Y10719
T20
X44743Y9245
X32207Y32252
X15943Y29495
X13943Y12745
M30
