G75*
%MOIN*%
%OFA0B0*%
%FSLAX24Y24*%
%IPPOS*%
%LPD*%
%AMOC8*
5,1,8,0,0,1.08239X$1,22.5*
%
%ADD10C,0.0591*%
%ADD11C,0.1065*%
%ADD12C,0.0540*%
%ADD13C,0.0600*%
%ADD14C,0.0531*%
%ADD15C,0.1095*%
%ADD16C,0.1620*%
%ADD17C,0.1325*%
%ADD18C,0.1424*%
%ADD19C,0.0270*%
%ADD20C,0.0472*%
%ADD21C,0.0100*%
%ADD22C,0.0376*%
%ADD23C,0.1181*%
%ADD24C,0.0070*%
%ADD25C,0.0945*%
%ADD26C,0.0768*%
%ADD27C,0.0400*%
%ADD28C,0.1266*%
%ADD29C,0.0650*%
%ADD30C,0.0416*%
%ADD31C,0.0240*%
D10*
X010041Y013395D03*
X010041Y014395D03*
X010041Y015395D03*
X010041Y016395D03*
X010041Y017395D03*
X010041Y018395D03*
X010041Y019395D03*
X010041Y020395D03*
X010041Y021395D03*
X010041Y022395D03*
X010041Y023995D03*
X010041Y024995D03*
X010041Y025995D03*
X010041Y026995D03*
X010041Y027995D03*
X010041Y028995D03*
X010041Y029995D03*
X010041Y030995D03*
X018041Y031045D03*
X019041Y031045D03*
X020041Y031045D03*
X020041Y032045D03*
X019041Y032045D03*
X018041Y032045D03*
X029041Y030995D03*
X029041Y029995D03*
X029041Y028995D03*
X029041Y027995D03*
X029041Y026995D03*
X029041Y025995D03*
X029041Y023995D03*
X029041Y022995D03*
X029041Y021995D03*
X029041Y020995D03*
X029041Y019995D03*
X029041Y018995D03*
X029041Y017995D03*
X029041Y016995D03*
D11*
X019943Y007805D03*
X016943Y007805D03*
X013743Y007805D03*
X010743Y007805D03*
X032593Y035635D03*
X035593Y035635D03*
X038793Y035635D03*
X041793Y035635D03*
X044993Y035635D03*
X047993Y035635D03*
X051193Y035635D03*
X054193Y035635D03*
D12*
X052693Y032565D03*
X046493Y032565D03*
X040293Y032565D03*
X034093Y032565D03*
X018443Y010875D03*
X012243Y010875D03*
D13*
X023743Y010095D03*
X023743Y009095D03*
X024743Y009095D03*
X024743Y010095D03*
X025743Y010095D03*
X025743Y009095D03*
X026743Y009095D03*
X026743Y010095D03*
X027743Y010095D03*
X027743Y009095D03*
X052282Y026918D03*
X052282Y027918D03*
X053282Y027918D03*
X053282Y026918D03*
X053282Y028918D03*
X052282Y028918D03*
X052282Y029918D03*
X053282Y029918D03*
D14*
X026893Y023995D03*
X026893Y023295D03*
X021543Y035595D03*
X020543Y035595D03*
X019543Y035595D03*
D15*
X012823Y031495D03*
X010973Y031495D03*
X009123Y031495D03*
X009973Y036495D03*
X011973Y036495D03*
X033293Y012995D03*
X033293Y006995D03*
X040793Y006995D03*
X040793Y012995D03*
D16*
X051770Y010719D03*
D17*
X051770Y008357D03*
D18*
X053541Y007965D03*
X049998Y007965D03*
D19*
X046793Y008645D03*
X045843Y008645D03*
X045793Y014395D03*
X045793Y014895D03*
X045293Y014895D03*
X044793Y014895D03*
X044293Y014895D03*
X043793Y014895D03*
X043793Y014395D03*
X044293Y014395D03*
X044793Y014395D03*
X044793Y015395D03*
X044293Y015395D03*
X043793Y015395D03*
X043793Y015895D03*
X043793Y016395D03*
X043793Y016895D03*
X043793Y017395D03*
X043793Y017895D03*
X043793Y018395D03*
X044293Y018395D03*
X044293Y017895D03*
X044293Y017395D03*
X044293Y016895D03*
X044293Y016395D03*
X044293Y015895D03*
X045293Y015395D03*
X045793Y015395D03*
X046293Y015395D03*
X046293Y014895D03*
X046293Y014395D03*
X046793Y014395D03*
X046793Y014895D03*
X046793Y015395D03*
X047293Y015395D03*
X047293Y014895D03*
X047293Y014395D03*
X047793Y014395D03*
X047793Y014895D03*
X047793Y015395D03*
X048293Y015395D03*
X048293Y014895D03*
X048293Y014395D03*
X048793Y014395D03*
X048793Y014895D03*
X048793Y015395D03*
X048793Y015895D03*
X048293Y015895D03*
X048293Y016395D03*
X048293Y016895D03*
X048293Y017395D03*
X048293Y017895D03*
X048293Y018395D03*
X048293Y018895D03*
X048293Y019395D03*
X048293Y019895D03*
X048793Y019895D03*
X048793Y019395D03*
X048793Y018895D03*
X048793Y018395D03*
X048793Y017895D03*
X048793Y017395D03*
X048793Y016895D03*
X048793Y016395D03*
X049293Y016395D03*
X049293Y015895D03*
X049293Y015395D03*
X049293Y014895D03*
X049293Y014395D03*
X049793Y014395D03*
X049793Y014895D03*
X049793Y015395D03*
X049793Y015895D03*
X049793Y016395D03*
X049793Y016895D03*
X049293Y016895D03*
X049293Y017395D03*
X049293Y017895D03*
X049293Y018395D03*
X049293Y018895D03*
X049293Y019395D03*
X049293Y019895D03*
X049793Y019895D03*
X049793Y019395D03*
X049793Y018895D03*
X049793Y018395D03*
X049793Y017895D03*
X049793Y017395D03*
X050293Y017395D03*
X050293Y016895D03*
X050293Y016395D03*
X050293Y015895D03*
X050293Y015395D03*
X050293Y014895D03*
X050293Y014395D03*
X050793Y014395D03*
X050793Y014895D03*
X050793Y015395D03*
X050793Y015895D03*
X050793Y016395D03*
X050793Y016895D03*
X050793Y017395D03*
X050793Y017895D03*
X050293Y017895D03*
X050293Y018395D03*
X050293Y018895D03*
X050293Y019395D03*
X050293Y019895D03*
X050793Y019895D03*
X050793Y019395D03*
X050793Y018895D03*
X050793Y018395D03*
X051293Y018395D03*
X051293Y017895D03*
X051293Y017395D03*
X051293Y016895D03*
X051293Y016395D03*
X051293Y015895D03*
X051293Y015395D03*
X051293Y014895D03*
X051293Y018895D03*
X051293Y019395D03*
X051293Y019895D03*
X051293Y020395D03*
X050793Y020395D03*
X050293Y020395D03*
X049793Y020395D03*
X049293Y020395D03*
X048793Y020395D03*
X048293Y020395D03*
X047793Y020395D03*
X047293Y020395D03*
X046793Y020395D03*
X046293Y020395D03*
X045793Y020395D03*
X045293Y020395D03*
X044793Y020395D03*
X044293Y019895D03*
X044293Y019395D03*
X044293Y018895D03*
X043593Y020645D03*
X042543Y021395D03*
X043993Y022495D03*
X044293Y022145D03*
X044793Y021845D03*
X045243Y021845D03*
X044743Y021345D03*
X046293Y020895D03*
X046793Y020895D03*
X046793Y021395D03*
X047293Y021395D03*
X047293Y020895D03*
X047793Y020895D03*
X047793Y021395D03*
X047793Y021895D03*
X047293Y021895D03*
X047793Y022395D03*
X048293Y022395D03*
X048293Y021895D03*
X048293Y021395D03*
X048293Y020895D03*
X048793Y020895D03*
X048793Y021395D03*
X048793Y021895D03*
X048793Y022395D03*
X048793Y022895D03*
X048293Y022895D03*
X048293Y023395D03*
X048793Y023395D03*
X048793Y023895D03*
X049293Y023895D03*
X049293Y023395D03*
X049293Y022895D03*
X049293Y022395D03*
X049293Y021895D03*
X049293Y021395D03*
X049293Y020895D03*
X049793Y020895D03*
X049793Y021395D03*
X049793Y021895D03*
X049793Y022395D03*
X049793Y022895D03*
X049793Y023395D03*
X049793Y023895D03*
X050293Y023895D03*
X050293Y023395D03*
X050293Y022895D03*
X050293Y022395D03*
X050293Y021895D03*
X050293Y021395D03*
X050293Y020895D03*
X050793Y020895D03*
X050793Y021395D03*
X050793Y021895D03*
X050793Y022395D03*
X050793Y022895D03*
X050793Y023395D03*
X050793Y023895D03*
X051293Y023895D03*
X051293Y023395D03*
X051293Y022895D03*
X051293Y022395D03*
X051293Y021895D03*
X051293Y021395D03*
X051293Y020895D03*
X047193Y024145D03*
X047893Y025045D03*
X045693Y025045D03*
X044793Y025195D03*
X044793Y026195D03*
X044293Y026195D03*
X043793Y026195D03*
X043293Y026195D03*
X042793Y026195D03*
X042293Y026195D03*
X041793Y026195D03*
X041293Y026195D03*
X040793Y026195D03*
X040293Y026195D03*
X039793Y026195D03*
X039793Y026695D03*
X039793Y027195D03*
X039793Y027695D03*
X039793Y028195D03*
X039793Y028695D03*
X039793Y029195D03*
X039793Y029695D03*
X039793Y030195D03*
X039793Y030695D03*
X040293Y030695D03*
X040293Y030195D03*
X040293Y029695D03*
X040293Y029195D03*
X040293Y028695D03*
X040293Y028195D03*
X040293Y027695D03*
X040293Y027195D03*
X040293Y026695D03*
X040793Y026695D03*
X040793Y027195D03*
X040793Y027695D03*
X040793Y028195D03*
X040793Y028695D03*
X040793Y029195D03*
X040793Y029695D03*
X040793Y030195D03*
X040793Y030695D03*
X041293Y030695D03*
X041293Y030195D03*
X041293Y029695D03*
X041293Y029195D03*
X041293Y028695D03*
X041293Y028195D03*
X041293Y027695D03*
X041293Y027195D03*
X041293Y026695D03*
X038743Y025645D03*
X038193Y024295D03*
X037393Y024095D03*
X038193Y023445D03*
X038693Y023095D03*
X038743Y021995D03*
X039443Y021795D03*
X040143Y021795D03*
X039843Y020995D03*
X038293Y019045D03*
X038843Y018595D03*
X038843Y017795D03*
X038293Y017345D03*
X038393Y016995D03*
X038943Y016595D03*
X038943Y015695D03*
X038393Y015295D03*
X037593Y015395D03*
X037593Y016895D03*
X037493Y017445D03*
X037493Y018945D03*
X039743Y018695D03*
X040143Y018745D03*
X040793Y018745D03*
X042543Y022795D03*
X042543Y023595D03*
X043993Y023895D03*
X044093Y024295D03*
X045793Y024145D03*
X045793Y026195D03*
X045293Y026195D03*
X045293Y026695D03*
X045293Y027195D03*
X045293Y027695D03*
X045293Y028195D03*
X045293Y028695D03*
X045293Y029195D03*
X045293Y029695D03*
X045293Y030195D03*
X045293Y030695D03*
X045793Y030695D03*
X045793Y030195D03*
X045793Y029695D03*
X045793Y029195D03*
X045793Y028695D03*
X045793Y028195D03*
X045793Y027695D03*
X045793Y027195D03*
X045793Y026695D03*
X044593Y031295D03*
X038793Y029845D03*
X037443Y029295D03*
X037343Y031045D03*
X038393Y032595D03*
X035093Y031445D03*
X033743Y030345D03*
X033343Y030595D03*
X032693Y029745D03*
X034643Y029645D03*
X035093Y028545D03*
X031943Y026395D03*
X032243Y024295D03*
X031693Y023845D03*
X031693Y023045D03*
X032193Y022595D03*
X033043Y022595D03*
X033343Y021745D03*
X032943Y021095D03*
X034943Y020445D03*
X035593Y021695D03*
X033043Y024095D03*
X035593Y024645D03*
X039843Y023695D03*
X034393Y017695D03*
X034943Y017495D03*
X023343Y017595D03*
X022943Y017595D03*
X022943Y017995D03*
X023343Y017995D03*
X023343Y017195D03*
X022943Y017195D03*
X015293Y016895D03*
X015293Y018395D03*
X013943Y019295D03*
X013643Y016895D03*
X010893Y011645D03*
X010893Y010595D03*
X009393Y009695D03*
X016543Y010845D03*
X023393Y007345D03*
X019393Y027695D03*
X018693Y027695D03*
X018143Y028145D03*
X018143Y028995D03*
X019443Y029295D03*
X021993Y029395D03*
X023693Y028995D03*
X025893Y028545D03*
X027893Y030295D03*
X023493Y031845D03*
X022201Y033095D03*
X021993Y031895D03*
X023293Y036145D03*
X023293Y036695D03*
X019793Y037145D03*
X016343Y036145D03*
X013943Y036145D03*
X013943Y036695D03*
X015843Y033895D03*
X015843Y032795D03*
X016293Y031195D03*
X014193Y027845D03*
X030793Y037145D03*
D20*
X029943Y020045D03*
X031143Y019195D03*
X032643Y015645D03*
X020143Y011695D03*
X018443Y016245D03*
D21*
X007393Y006578D02*
X007393Y031495D01*
X008426Y031495D01*
X008426Y031356D01*
X008532Y031100D01*
X008728Y030904D01*
X008985Y030798D01*
X009262Y030798D01*
X009518Y030904D01*
X009595Y030981D01*
X009595Y030906D01*
X009663Y030743D01*
X009788Y030618D01*
X009952Y030550D01*
X010129Y030550D01*
X010293Y030618D01*
X010393Y030718D01*
X010393Y030695D01*
X016345Y030695D01*
X017193Y031544D01*
X017193Y032595D01*
X021693Y032595D01*
X021693Y028945D01*
X022593Y028945D01*
X022593Y026795D01*
X026593Y022895D01*
X028193Y022895D01*
X028193Y024495D01*
X029443Y024495D01*
X029493Y024445D01*
X029493Y016645D01*
X029320Y016645D01*
X029418Y016743D01*
X029486Y016906D01*
X029486Y017084D01*
X029418Y017247D01*
X029293Y017372D01*
X029129Y017440D01*
X028952Y017440D01*
X028788Y017372D01*
X028663Y017247D01*
X028595Y017084D01*
X028595Y016906D01*
X028663Y016743D01*
X028761Y016645D01*
X016013Y016645D01*
X015193Y015825D01*
X015193Y006195D01*
X007776Y006195D01*
X007393Y006578D01*
X007393Y006586D02*
X015193Y006586D01*
X015193Y006488D02*
X007484Y006488D01*
X007582Y006389D02*
X015193Y006389D01*
X015193Y006291D02*
X007681Y006291D01*
X007393Y006685D02*
X015193Y006685D01*
X015193Y006783D02*
X007393Y006783D01*
X007393Y006882D02*
X015193Y006882D01*
X015193Y006980D02*
X007393Y006980D01*
X007393Y007079D02*
X015193Y007079D01*
X015193Y007177D02*
X007393Y007177D01*
X007393Y007276D02*
X015193Y007276D01*
X015193Y007374D02*
X007393Y007374D01*
X007393Y007473D02*
X015193Y007473D01*
X015193Y007571D02*
X007393Y007571D01*
X007393Y007670D02*
X015193Y007670D01*
X015193Y007768D02*
X007393Y007768D01*
X007393Y007867D02*
X015193Y007867D01*
X015193Y007965D02*
X007393Y007965D01*
X007393Y008064D02*
X015193Y008064D01*
X015193Y008162D02*
X007393Y008162D01*
X007393Y008261D02*
X015193Y008261D01*
X015193Y008359D02*
X007393Y008359D01*
X007393Y008458D02*
X015193Y008458D01*
X015193Y008556D02*
X007393Y008556D01*
X007393Y008655D02*
X015193Y008655D01*
X015193Y008753D02*
X007393Y008753D01*
X007393Y008852D02*
X015193Y008852D01*
X015193Y008950D02*
X008793Y008950D01*
X008699Y008911D02*
X008896Y008992D01*
X009046Y009143D01*
X009127Y009339D01*
X009127Y009551D01*
X009046Y009747D01*
X008896Y009898D01*
X008699Y009979D01*
X008487Y009979D01*
X008291Y009898D01*
X008141Y009747D01*
X008059Y009551D01*
X008059Y009339D01*
X008141Y009143D01*
X008291Y008992D01*
X008487Y008911D01*
X008699Y008911D01*
X008952Y009049D02*
X015193Y009049D01*
X015193Y009147D02*
X009048Y009147D01*
X009089Y009246D02*
X015193Y009246D01*
X015193Y009344D02*
X009127Y009344D01*
X009127Y009443D02*
X009258Y009443D01*
X009232Y009453D02*
X009337Y009410D01*
X009450Y009410D01*
X009555Y009453D01*
X009635Y009534D01*
X009678Y009638D01*
X009678Y009752D01*
X009635Y009856D01*
X009555Y009937D01*
X009450Y009980D01*
X009337Y009980D01*
X009232Y009937D01*
X009152Y009856D01*
X009108Y009752D01*
X009108Y009638D01*
X009152Y009534D01*
X009232Y009453D01*
X009149Y009541D02*
X009127Y009541D01*
X009108Y009640D02*
X009091Y009640D01*
X009108Y009738D02*
X009050Y009738D01*
X008957Y009837D02*
X009143Y009837D01*
X009230Y009935D02*
X008805Y009935D01*
X008381Y009935D02*
X007393Y009935D01*
X007393Y009837D02*
X008230Y009837D01*
X008137Y009738D02*
X007393Y009738D01*
X007393Y009640D02*
X008096Y009640D01*
X008059Y009541D02*
X007393Y009541D01*
X007393Y009443D02*
X008059Y009443D01*
X008059Y009344D02*
X007393Y009344D01*
X007393Y009246D02*
X008098Y009246D01*
X008139Y009147D02*
X007393Y009147D01*
X007393Y009049D02*
X008235Y009049D01*
X008393Y008950D02*
X007393Y008950D01*
X007393Y010034D02*
X015193Y010034D01*
X015193Y010132D02*
X007393Y010132D01*
X007393Y010231D02*
X015193Y010231D01*
X015193Y010329D02*
X010996Y010329D01*
X010950Y010310D02*
X011055Y010353D01*
X011135Y010434D01*
X011178Y010538D01*
X011178Y010652D01*
X011135Y010756D01*
X011055Y010837D01*
X010950Y010880D01*
X010837Y010880D01*
X010732Y010837D01*
X010652Y010756D01*
X010608Y010652D01*
X010608Y010538D01*
X010652Y010434D01*
X010732Y010353D01*
X010837Y010310D01*
X010950Y010310D01*
X010791Y010329D02*
X007393Y010329D01*
X007393Y010428D02*
X008327Y010428D01*
X008291Y010442D02*
X008487Y010361D01*
X008699Y010361D01*
X008896Y010442D01*
X009046Y010593D01*
X009127Y010789D01*
X009127Y011001D01*
X009046Y011197D01*
X008896Y011348D01*
X008699Y011429D01*
X008487Y011429D01*
X008291Y011348D01*
X008141Y011197D01*
X008059Y011001D01*
X008059Y010789D01*
X008141Y010593D01*
X008291Y010442D01*
X008207Y010526D02*
X007393Y010526D01*
X007393Y010625D02*
X008128Y010625D01*
X008087Y010723D02*
X007393Y010723D01*
X007393Y010822D02*
X008059Y010822D01*
X008059Y010920D02*
X007393Y010920D01*
X007393Y011019D02*
X008067Y011019D01*
X008107Y011117D02*
X007393Y011117D01*
X007393Y011216D02*
X008159Y011216D01*
X008257Y011314D02*
X007393Y011314D01*
X007393Y011413D02*
X008448Y011413D01*
X008739Y011413D02*
X010723Y011413D01*
X010732Y011403D02*
X010837Y011360D01*
X010950Y011360D01*
X011055Y011403D01*
X011135Y011484D01*
X011178Y011588D01*
X011178Y011702D01*
X011135Y011806D01*
X011055Y011887D01*
X010950Y011930D01*
X010837Y011930D01*
X010732Y011887D01*
X010652Y011806D01*
X010608Y011702D01*
X010608Y011588D01*
X010652Y011484D01*
X010732Y011403D01*
X010640Y011511D02*
X007393Y011511D01*
X007393Y011610D02*
X010608Y011610D01*
X010611Y011708D02*
X007393Y011708D01*
X007393Y011807D02*
X010652Y011807D01*
X010776Y011905D02*
X007393Y011905D01*
X007393Y012004D02*
X013233Y012004D01*
X013223Y012014D02*
X013462Y011774D01*
X013774Y011645D01*
X014112Y011645D01*
X014425Y011774D01*
X014664Y012014D01*
X014793Y012326D01*
X014793Y012664D01*
X014664Y012976D01*
X014425Y013216D01*
X014112Y013345D01*
X013774Y013345D01*
X013462Y013216D01*
X013223Y012976D01*
X013093Y012664D01*
X013093Y012326D01*
X013223Y012014D01*
X013186Y012102D02*
X007393Y012102D01*
X007393Y012201D02*
X013145Y012201D01*
X013104Y012299D02*
X007393Y012299D01*
X007393Y012398D02*
X013093Y012398D01*
X013093Y012496D02*
X007393Y012496D01*
X007393Y012595D02*
X013093Y012595D01*
X013105Y012693D02*
X007393Y012693D01*
X007393Y012792D02*
X013146Y012792D01*
X013187Y012890D02*
X007393Y012890D01*
X007393Y012989D02*
X009858Y012989D01*
X009788Y013018D02*
X009952Y012950D01*
X010129Y012950D01*
X010293Y013018D01*
X010418Y013143D01*
X010486Y013306D01*
X010486Y013484D01*
X010418Y013647D01*
X010293Y013772D01*
X010129Y013840D01*
X009952Y013840D01*
X009788Y013772D01*
X009663Y013647D01*
X009595Y013484D01*
X009595Y013306D01*
X009663Y013143D01*
X009788Y013018D01*
X009719Y013087D02*
X007393Y013087D01*
X007393Y013186D02*
X009645Y013186D01*
X009605Y013284D02*
X007393Y013284D01*
X007393Y013383D02*
X009595Y013383D01*
X009595Y013481D02*
X007393Y013481D01*
X007393Y013580D02*
X009635Y013580D01*
X009694Y013678D02*
X007393Y013678D01*
X007393Y013777D02*
X009798Y013777D01*
X009895Y013974D02*
X007393Y013974D01*
X007393Y014072D02*
X009734Y014072D01*
X009788Y014018D02*
X009952Y013950D01*
X010129Y013950D01*
X010293Y014018D01*
X010418Y014143D01*
X010486Y014306D01*
X010486Y014484D01*
X010418Y014647D01*
X010293Y014772D01*
X010129Y014840D01*
X009952Y014840D01*
X009788Y014772D01*
X009663Y014647D01*
X009595Y014484D01*
X009595Y014306D01*
X009663Y014143D01*
X009788Y014018D01*
X009652Y014171D02*
X007393Y014171D01*
X007393Y014269D02*
X009611Y014269D01*
X009595Y014368D02*
X007393Y014368D01*
X007393Y014466D02*
X009595Y014466D01*
X009629Y014565D02*
X007393Y014565D01*
X007393Y014663D02*
X009679Y014663D01*
X009777Y014762D02*
X007393Y014762D01*
X007393Y014860D02*
X015193Y014860D01*
X015193Y014762D02*
X010304Y014762D01*
X010402Y014663D02*
X015193Y014663D01*
X015193Y014565D02*
X010452Y014565D01*
X010486Y014466D02*
X015193Y014466D01*
X015193Y014368D02*
X010486Y014368D01*
X010470Y014269D02*
X015193Y014269D01*
X015193Y014171D02*
X010430Y014171D01*
X010347Y014072D02*
X015193Y014072D01*
X015193Y013974D02*
X010187Y013974D01*
X010283Y013777D02*
X015193Y013777D01*
X015193Y013875D02*
X007393Y013875D01*
X007393Y014959D02*
X009931Y014959D01*
X009952Y014950D02*
X010129Y014950D01*
X010293Y015018D01*
X010418Y015143D01*
X010486Y015306D01*
X010486Y015484D01*
X010418Y015647D01*
X010293Y015772D01*
X010129Y015840D01*
X009952Y015840D01*
X009788Y015772D01*
X009663Y015647D01*
X009595Y015484D01*
X009595Y015306D01*
X009663Y015143D01*
X009788Y015018D01*
X009952Y014950D01*
X010150Y014959D02*
X015193Y014959D01*
X015193Y015057D02*
X010332Y015057D01*
X010423Y015156D02*
X015193Y015156D01*
X015193Y015254D02*
X010464Y015254D01*
X010486Y015353D02*
X015193Y015353D01*
X015193Y015451D02*
X010486Y015451D01*
X010459Y015550D02*
X015193Y015550D01*
X015193Y015648D02*
X010417Y015648D01*
X010319Y015747D02*
X015193Y015747D01*
X015213Y015845D02*
X007393Y015845D01*
X007393Y015747D02*
X009762Y015747D01*
X009664Y015648D02*
X007393Y015648D01*
X007393Y015550D02*
X009623Y015550D01*
X009595Y015451D02*
X007393Y015451D01*
X007393Y015353D02*
X009595Y015353D01*
X009617Y015254D02*
X007393Y015254D01*
X007393Y015156D02*
X009658Y015156D01*
X009749Y015057D02*
X007393Y015057D01*
X007393Y015944D02*
X015312Y015944D01*
X015410Y016042D02*
X010317Y016042D01*
X010293Y016018D02*
X010418Y016143D01*
X010486Y016306D01*
X010486Y016484D01*
X010418Y016647D01*
X010293Y016772D01*
X010129Y016840D01*
X009952Y016840D01*
X009788Y016772D01*
X009663Y016647D01*
X009595Y016484D01*
X009595Y016306D01*
X009663Y016143D01*
X009788Y016018D01*
X009952Y015950D01*
X010129Y015950D01*
X010293Y016018D01*
X010416Y016141D02*
X015509Y016141D01*
X015607Y016239D02*
X010458Y016239D01*
X010486Y016338D02*
X015706Y016338D01*
X015804Y016436D02*
X010486Y016436D01*
X010465Y016535D02*
X015903Y016535D01*
X016001Y016633D02*
X010424Y016633D01*
X010334Y016732D02*
X028674Y016732D01*
X028627Y016830D02*
X010154Y016830D01*
X010129Y016950D02*
X010293Y017018D01*
X010418Y017143D01*
X010486Y017306D01*
X010486Y017484D01*
X010418Y017647D01*
X010293Y017772D01*
X010129Y017840D01*
X009952Y017840D01*
X009788Y017772D01*
X009663Y017647D01*
X009595Y017484D01*
X009595Y017306D01*
X009663Y017143D01*
X009788Y017018D01*
X009952Y016950D01*
X010129Y016950D01*
X010302Y017027D02*
X028595Y017027D01*
X028595Y016929D02*
X007393Y016929D01*
X007393Y017027D02*
X009779Y017027D01*
X009680Y017126D02*
X007393Y017126D01*
X007393Y017224D02*
X009629Y017224D01*
X009595Y017323D02*
X007393Y017323D01*
X007393Y017421D02*
X009595Y017421D01*
X009610Y017520D02*
X007393Y017520D01*
X007393Y017618D02*
X009651Y017618D01*
X009732Y017717D02*
X007393Y017717D01*
X007393Y017815D02*
X009891Y017815D01*
X009952Y017950D02*
X010129Y017950D01*
X010293Y018018D01*
X010418Y018143D01*
X010486Y018306D01*
X010486Y018484D01*
X010418Y018647D01*
X010293Y018772D01*
X010129Y018840D01*
X009952Y018840D01*
X009788Y018772D01*
X009663Y018647D01*
X009595Y018484D01*
X009595Y018306D01*
X009663Y018143D01*
X009788Y018018D01*
X009952Y017950D01*
X009802Y018012D02*
X007393Y018012D01*
X007393Y017914D02*
X028595Y017914D01*
X028595Y017906D02*
X028663Y017743D01*
X028788Y017618D01*
X010430Y017618D01*
X010471Y017520D02*
X029493Y017520D01*
X029493Y017618D02*
X029293Y017618D01*
X029418Y017743D01*
X029486Y017906D01*
X029486Y018084D01*
X029418Y018247D01*
X029293Y018372D01*
X029129Y018440D01*
X028952Y018440D01*
X028788Y018372D01*
X028663Y018247D01*
X028595Y018084D01*
X028595Y017906D01*
X028633Y017815D02*
X010190Y017815D01*
X010349Y017717D02*
X028689Y017717D01*
X028788Y017618D02*
X028952Y017550D01*
X029129Y017550D01*
X029293Y017618D01*
X029392Y017717D02*
X029493Y017717D01*
X029493Y017815D02*
X029448Y017815D01*
X029486Y017914D02*
X029493Y017914D01*
X029486Y018012D02*
X029493Y018012D01*
X029493Y018111D02*
X029475Y018111D01*
X029493Y018209D02*
X029434Y018209D01*
X029493Y018308D02*
X029358Y018308D01*
X029493Y018406D02*
X029212Y018406D01*
X029129Y018550D02*
X029293Y018618D01*
X029418Y018743D01*
X029486Y018906D01*
X029486Y019084D01*
X029418Y019247D01*
X029293Y019372D01*
X029129Y019440D01*
X028952Y019440D01*
X028788Y019372D01*
X028663Y019247D01*
X028595Y019084D01*
X028595Y018906D01*
X028663Y018743D01*
X028788Y018618D01*
X028952Y018550D01*
X029129Y018550D01*
X029258Y018603D02*
X029493Y018603D01*
X029493Y018505D02*
X015556Y018505D01*
X015535Y018556D02*
X015455Y018637D01*
X015350Y018680D01*
X015237Y018680D01*
X015132Y018637D01*
X015052Y018556D01*
X015008Y018452D01*
X015008Y018338D01*
X015052Y018234D01*
X015132Y018153D01*
X015237Y018110D01*
X015350Y018110D01*
X015455Y018153D01*
X015535Y018234D01*
X015578Y018338D01*
X015578Y018452D01*
X015535Y018556D01*
X015488Y018603D02*
X028823Y018603D01*
X028704Y018702D02*
X013965Y018702D01*
X013981Y018662D02*
X013930Y018787D01*
X013835Y018882D01*
X013711Y018933D01*
X013576Y018933D01*
X013452Y018882D01*
X013357Y018787D01*
X013305Y018662D01*
X013305Y018528D01*
X013357Y018403D01*
X013452Y018308D01*
X013576Y018257D01*
X013711Y018257D01*
X013835Y018308D01*
X013930Y018403D01*
X013981Y018528D01*
X013981Y018662D01*
X013981Y018603D02*
X015098Y018603D01*
X015030Y018505D02*
X013972Y018505D01*
X013931Y018406D02*
X015008Y018406D01*
X015021Y018308D02*
X013833Y018308D01*
X013454Y018308D02*
X010486Y018308D01*
X010486Y018406D02*
X013356Y018406D01*
X013315Y018505D02*
X010477Y018505D01*
X010436Y018603D02*
X013305Y018603D01*
X013321Y018702D02*
X010364Y018702D01*
X010226Y018800D02*
X013370Y018800D01*
X013493Y018899D02*
X007393Y018899D01*
X007393Y018997D02*
X009838Y018997D01*
X009788Y019018D02*
X009952Y018950D01*
X010129Y018950D01*
X010293Y019018D01*
X010418Y019143D01*
X010486Y019306D01*
X010486Y019484D01*
X010418Y019647D01*
X010293Y019772D01*
X010129Y019840D01*
X009952Y019840D01*
X009788Y019772D01*
X009663Y019647D01*
X009595Y019484D01*
X009595Y019306D01*
X009663Y019143D01*
X009788Y019018D01*
X009710Y019096D02*
X007393Y019096D01*
X007393Y019194D02*
X009642Y019194D01*
X009601Y019293D02*
X007393Y019293D01*
X007393Y019391D02*
X009595Y019391D01*
X009598Y019490D02*
X007393Y019490D01*
X007393Y019588D02*
X009639Y019588D01*
X009702Y019687D02*
X007393Y019687D01*
X007393Y019785D02*
X009819Y019785D01*
X009874Y019982D02*
X007393Y019982D01*
X007393Y019884D02*
X028605Y019884D01*
X028595Y019906D02*
X028663Y019743D01*
X028788Y019618D01*
X028952Y019550D01*
X029129Y019550D01*
X029293Y019618D01*
X029418Y019743D01*
X029486Y019906D01*
X029486Y020084D01*
X029418Y020247D01*
X029293Y020372D01*
X029129Y020440D01*
X028952Y020440D01*
X028788Y020372D01*
X028663Y020247D01*
X028595Y020084D01*
X028595Y019906D01*
X028595Y019982D02*
X010207Y019982D01*
X010129Y019950D02*
X010293Y020018D01*
X010418Y020143D01*
X010486Y020306D01*
X010486Y020484D01*
X010418Y020647D01*
X010293Y020772D01*
X010129Y020840D01*
X009952Y020840D01*
X009788Y020772D01*
X009663Y020647D01*
X009595Y020484D01*
X009595Y020306D01*
X009663Y020143D01*
X009788Y020018D01*
X009952Y019950D01*
X010129Y019950D01*
X010262Y019785D02*
X028646Y019785D01*
X028719Y019687D02*
X010379Y019687D01*
X010443Y019588D02*
X028859Y019588D01*
X028833Y019391D02*
X010486Y019391D01*
X010483Y019490D02*
X029493Y019490D01*
X029493Y019588D02*
X029222Y019588D01*
X029362Y019687D02*
X029493Y019687D01*
X029493Y019785D02*
X029436Y019785D01*
X029476Y019884D02*
X029493Y019884D01*
X029486Y019982D02*
X029493Y019982D01*
X029486Y020081D02*
X029493Y020081D01*
X029493Y020179D02*
X029446Y020179D01*
X029493Y020278D02*
X029388Y020278D01*
X029284Y020376D02*
X029493Y020376D01*
X029493Y020475D02*
X010486Y020475D01*
X010486Y020376D02*
X028797Y020376D01*
X028693Y020278D02*
X010474Y020278D01*
X010433Y020179D02*
X028635Y020179D01*
X028595Y020081D02*
X010356Y020081D01*
X010449Y020573D02*
X028896Y020573D01*
X028952Y020550D02*
X029129Y020550D01*
X029293Y020618D01*
X029418Y020743D01*
X029486Y020906D01*
X029486Y021084D01*
X029418Y021247D01*
X029293Y021372D01*
X029129Y021440D01*
X028952Y021440D01*
X028788Y021372D01*
X028663Y021247D01*
X028595Y021084D01*
X028595Y020906D01*
X028663Y020743D01*
X028788Y020618D01*
X028952Y020550D01*
X029185Y020573D02*
X029493Y020573D01*
X029493Y020672D02*
X029347Y020672D01*
X029429Y020770D02*
X029493Y020770D01*
X029493Y020869D02*
X029470Y020869D01*
X029486Y020967D02*
X029493Y020967D01*
X029486Y021066D02*
X029493Y021066D01*
X029493Y021164D02*
X029452Y021164D01*
X029493Y021263D02*
X029403Y021263D01*
X029493Y021361D02*
X029304Y021361D01*
X029493Y021460D02*
X010486Y021460D01*
X010486Y021484D02*
X010418Y021647D01*
X010293Y021772D01*
X010129Y021840D01*
X009952Y021840D01*
X009788Y021772D01*
X009663Y021647D01*
X009595Y021484D01*
X009595Y021306D01*
X009663Y021143D01*
X009788Y021018D01*
X009952Y020950D01*
X010129Y020950D01*
X010293Y021018D01*
X010418Y021143D01*
X010486Y021306D01*
X010486Y021484D01*
X010455Y021558D02*
X028932Y021558D01*
X028952Y021550D02*
X029129Y021550D01*
X029293Y021618D01*
X029418Y021743D01*
X029486Y021906D01*
X029486Y022084D01*
X029418Y022247D01*
X029293Y022372D01*
X029129Y022440D01*
X028952Y022440D01*
X028788Y022372D01*
X028663Y022247D01*
X028595Y022084D01*
X028595Y021906D01*
X028663Y021743D01*
X028788Y021618D01*
X028952Y021550D01*
X029149Y021558D02*
X029493Y021558D01*
X029493Y021657D02*
X029332Y021657D01*
X029423Y021755D02*
X029493Y021755D01*
X029493Y021854D02*
X029464Y021854D01*
X029486Y021952D02*
X029493Y021952D01*
X029486Y022051D02*
X029493Y022051D01*
X029493Y022149D02*
X029459Y022149D01*
X029493Y022248D02*
X029418Y022248D01*
X029493Y022346D02*
X029319Y022346D01*
X029493Y022445D02*
X028751Y022445D01*
X028751Y022424D02*
X028697Y022292D01*
X028596Y022192D01*
X028464Y022137D01*
X028322Y022137D01*
X028191Y022192D01*
X028090Y022292D01*
X028036Y022424D01*
X028036Y022566D01*
X028090Y022698D01*
X028191Y022798D01*
X028322Y022853D01*
X028464Y022853D01*
X028596Y022798D01*
X028697Y022698D01*
X028751Y022566D01*
X028751Y022424D01*
X028762Y022346D02*
X028719Y022346D01*
X028663Y022248D02*
X028652Y022248D01*
X028622Y022149D02*
X028493Y022149D01*
X028595Y022051D02*
X010326Y022051D01*
X010293Y022018D02*
X010418Y022143D01*
X010486Y022306D01*
X010486Y022484D01*
X010418Y022647D01*
X010293Y022772D01*
X010129Y022840D01*
X009952Y022840D01*
X009788Y022772D01*
X009663Y022647D01*
X009595Y022484D01*
X009595Y022306D01*
X009663Y022143D01*
X009788Y022018D01*
X009952Y021950D01*
X010129Y021950D01*
X010293Y022018D01*
X010135Y021952D02*
X028595Y021952D01*
X028617Y021854D02*
X007393Y021854D01*
X007393Y021952D02*
X009946Y021952D01*
X009755Y022051D02*
X007393Y022051D01*
X007393Y022149D02*
X009660Y022149D01*
X009620Y022248D02*
X007393Y022248D01*
X007393Y022346D02*
X009595Y022346D01*
X009595Y022445D02*
X007393Y022445D01*
X007393Y022543D02*
X009620Y022543D01*
X009661Y022642D02*
X007393Y022642D01*
X007393Y022740D02*
X009756Y022740D01*
X009948Y022839D02*
X007393Y022839D01*
X007393Y022937D02*
X026550Y022937D01*
X026449Y023036D02*
X007393Y023036D01*
X007393Y023134D02*
X026348Y023134D01*
X026247Y023233D02*
X007393Y023233D01*
X007393Y023331D02*
X026146Y023331D01*
X026045Y023430D02*
X007393Y023430D01*
X007393Y023528D02*
X025944Y023528D01*
X025843Y023627D02*
X010302Y023627D01*
X010293Y023618D02*
X010418Y023743D01*
X010486Y023906D01*
X010486Y024084D01*
X010418Y024247D01*
X010293Y024372D01*
X010129Y024440D01*
X009952Y024440D01*
X009788Y024372D01*
X009663Y024247D01*
X009595Y024084D01*
X009595Y023906D01*
X009663Y023743D01*
X009788Y023618D01*
X009952Y023550D01*
X010129Y023550D01*
X010293Y023618D01*
X010400Y023725D02*
X025742Y023725D01*
X025641Y023824D02*
X010451Y023824D01*
X010486Y023922D02*
X025540Y023922D01*
X025439Y024021D02*
X010486Y024021D01*
X010471Y024119D02*
X025338Y024119D01*
X025237Y024218D02*
X010430Y024218D01*
X010349Y024316D02*
X025136Y024316D01*
X025035Y024415D02*
X010191Y024415D01*
X010129Y024550D02*
X010293Y024618D01*
X010418Y024743D01*
X010486Y024906D01*
X010486Y025084D01*
X010418Y025247D01*
X010293Y025372D01*
X010129Y025440D01*
X009952Y025440D01*
X009788Y025372D01*
X009663Y025247D01*
X009595Y025084D01*
X009595Y024906D01*
X009663Y024743D01*
X009788Y024618D01*
X009952Y024550D01*
X010129Y024550D01*
X010278Y024612D02*
X024833Y024612D01*
X024732Y024710D02*
X010385Y024710D01*
X010445Y024809D02*
X024631Y024809D01*
X024530Y024907D02*
X010486Y024907D01*
X010486Y025006D02*
X024429Y025006D01*
X024328Y025104D02*
X010477Y025104D01*
X010437Y025203D02*
X024227Y025203D01*
X024126Y025301D02*
X010364Y025301D01*
X010227Y025400D02*
X024025Y025400D01*
X023924Y025498D02*
X007393Y025498D01*
X007393Y025400D02*
X009854Y025400D01*
X009717Y025301D02*
X007393Y025301D01*
X007393Y025203D02*
X009645Y025203D01*
X009604Y025104D02*
X007393Y025104D01*
X007393Y025006D02*
X009595Y025006D01*
X009595Y024907D02*
X007393Y024907D01*
X007393Y024809D02*
X009636Y024809D01*
X009696Y024710D02*
X007393Y024710D01*
X007393Y024612D02*
X009803Y024612D01*
X009890Y024415D02*
X007393Y024415D01*
X007393Y024513D02*
X024934Y024513D01*
X025036Y024710D02*
X035312Y024710D01*
X035308Y024702D02*
X035308Y024588D01*
X035352Y024484D01*
X035432Y024403D01*
X035537Y024360D01*
X035650Y024360D01*
X035755Y024403D01*
X035835Y024484D01*
X035878Y024588D01*
X035878Y024702D01*
X035835Y024806D01*
X035755Y024887D01*
X035650Y024930D01*
X035537Y024930D01*
X035432Y024887D01*
X035352Y024806D01*
X035308Y024702D01*
X035308Y024612D02*
X029577Y024612D01*
X029493Y024695D02*
X029693Y024495D01*
X029693Y020341D01*
X029725Y020372D01*
X029866Y020431D01*
X030020Y020431D01*
X030162Y020372D01*
X030271Y020264D01*
X030330Y020122D01*
X030330Y019968D01*
X030271Y019826D01*
X030162Y019718D01*
X030020Y019659D01*
X029866Y019659D01*
X029725Y019718D01*
X029693Y019749D01*
X029693Y016445D01*
X018779Y016445D01*
X018830Y016322D01*
X018830Y016168D01*
X018771Y016026D01*
X018662Y015918D01*
X018520Y015859D01*
X018366Y015859D01*
X018225Y015918D01*
X018116Y016026D01*
X018057Y016168D01*
X018057Y016322D01*
X018108Y016445D01*
X016155Y016445D01*
X015393Y015683D01*
X015393Y006645D01*
X020393Y006645D01*
X021593Y007845D01*
X024543Y007845D01*
X024543Y008691D01*
X024488Y008714D01*
X024362Y008840D01*
X024293Y009005D01*
X024293Y009185D01*
X024362Y009350D01*
X024488Y009476D01*
X024543Y009499D01*
X024543Y009645D01*
X025943Y009645D01*
X025943Y009499D01*
X025998Y009476D01*
X026125Y009350D01*
X026193Y009185D01*
X026193Y009005D01*
X026125Y008840D01*
X025998Y008714D01*
X025943Y008691D01*
X025943Y006195D01*
X043496Y006195D01*
X043315Y006376D01*
X043203Y006648D01*
X043203Y006942D01*
X043315Y007214D01*
X043524Y007423D01*
X043796Y007536D01*
X044091Y007536D01*
X044363Y007423D01*
X044571Y007214D01*
X044684Y006942D01*
X044684Y006648D01*
X044571Y006376D01*
X044391Y006195D01*
X055610Y006195D01*
X055993Y006578D01*
X055993Y036862D01*
X055610Y037245D01*
X031060Y037245D01*
X031078Y037202D01*
X031078Y037088D01*
X031035Y036984D01*
X030955Y036903D01*
X030850Y036860D01*
X030737Y036860D01*
X030632Y036903D01*
X030552Y036984D01*
X030508Y037088D01*
X030508Y037202D01*
X030526Y037245D01*
X020060Y037245D01*
X020078Y037202D01*
X020078Y037088D01*
X020035Y036984D01*
X019955Y036903D01*
X019850Y036860D01*
X019737Y036860D01*
X019632Y036903D01*
X019552Y036984D01*
X019508Y037088D01*
X019508Y037202D01*
X019526Y037245D01*
X007776Y037245D01*
X007393Y036862D01*
X007393Y031695D01*
X008451Y031695D01*
X008532Y031890D01*
X008728Y032086D01*
X008985Y032192D01*
X009262Y032192D01*
X009518Y032086D01*
X009715Y031890D01*
X009795Y031695D01*
X010301Y031695D01*
X010382Y031890D01*
X010578Y032086D01*
X010835Y032192D01*
X011112Y032192D01*
X011368Y032086D01*
X011565Y031890D01*
X011671Y031634D01*
X011671Y031356D01*
X011565Y031100D01*
X011368Y030904D01*
X011347Y030895D01*
X012449Y030895D01*
X012428Y030904D01*
X012232Y031100D01*
X012126Y031356D01*
X012126Y031634D01*
X012232Y031890D01*
X012428Y032086D01*
X012685Y032192D01*
X012962Y032192D01*
X013218Y032086D01*
X013415Y031890D01*
X013521Y031634D01*
X013521Y031356D01*
X013415Y031100D01*
X013218Y030904D01*
X013197Y030895D01*
X016212Y030895D01*
X016993Y031676D01*
X016993Y032795D01*
X021893Y032795D01*
X021893Y029145D01*
X022793Y029145D01*
X022793Y026895D01*
X026693Y023095D01*
X027993Y023095D01*
X027993Y024695D01*
X029493Y024695D01*
X029675Y024513D02*
X035339Y024513D01*
X035421Y024415D02*
X029693Y024415D01*
X029693Y024316D02*
X043808Y024316D01*
X043808Y024352D02*
X043808Y024238D01*
X043848Y024143D01*
X043832Y024137D01*
X043752Y024056D01*
X043708Y023952D01*
X043708Y023838D01*
X043752Y023734D01*
X043832Y023653D01*
X043937Y023610D01*
X044050Y023610D01*
X044155Y023653D01*
X044235Y023734D01*
X044278Y023838D01*
X044278Y023952D01*
X044239Y024047D01*
X044255Y024053D01*
X044335Y024134D01*
X044378Y024238D01*
X044378Y024352D01*
X044335Y024456D01*
X044255Y024537D01*
X044150Y024580D01*
X044037Y024580D01*
X043932Y024537D01*
X043852Y024456D01*
X043808Y024352D01*
X043834Y024415D02*
X035766Y024415D01*
X035847Y024513D02*
X043908Y024513D01*
X043817Y024218D02*
X029693Y024218D01*
X029693Y024119D02*
X043814Y024119D01*
X043737Y024021D02*
X029693Y024021D01*
X029693Y023922D02*
X039667Y023922D01*
X039682Y023937D02*
X039602Y023856D01*
X039558Y023752D01*
X039558Y023638D01*
X039602Y023534D01*
X039682Y023453D01*
X039787Y023410D01*
X039900Y023410D01*
X040005Y023453D01*
X040085Y023534D01*
X040128Y023638D01*
X040128Y023752D01*
X040085Y023856D01*
X040005Y023937D01*
X039900Y023980D01*
X039787Y023980D01*
X039682Y023937D01*
X039588Y023824D02*
X029693Y023824D01*
X029693Y023725D02*
X038125Y023725D01*
X038137Y023730D02*
X038032Y023687D01*
X037952Y023606D01*
X037908Y023502D01*
X037908Y023388D01*
X037952Y023284D01*
X038032Y023203D01*
X038137Y023160D01*
X038250Y023160D01*
X038355Y023203D01*
X038435Y023284D01*
X038478Y023388D01*
X038478Y023502D01*
X038435Y023606D01*
X038355Y023687D01*
X038250Y023730D01*
X038137Y023730D01*
X038262Y023725D02*
X039558Y023725D01*
X039563Y023627D02*
X038415Y023627D01*
X038467Y023528D02*
X039607Y023528D01*
X039739Y023430D02*
X038478Y023430D01*
X038455Y023331D02*
X038526Y023331D01*
X038532Y023337D02*
X038452Y023256D01*
X038408Y023152D01*
X038408Y023038D01*
X038452Y022934D01*
X038532Y022853D01*
X038637Y022810D01*
X038750Y022810D01*
X038855Y022853D01*
X038935Y022934D01*
X038978Y023038D01*
X038978Y023152D01*
X038935Y023256D01*
X038855Y023337D01*
X038750Y023380D01*
X038637Y023380D01*
X038532Y023337D01*
X038442Y023233D02*
X038384Y023233D01*
X038408Y023134D02*
X031965Y023134D01*
X031978Y023102D02*
X031935Y023206D01*
X031855Y023287D01*
X031750Y023330D01*
X031637Y023330D01*
X031532Y023287D01*
X031452Y023206D01*
X031408Y023102D01*
X031408Y022988D01*
X031452Y022884D01*
X031532Y022803D01*
X031637Y022760D01*
X031750Y022760D01*
X031855Y022803D01*
X031935Y022884D01*
X031978Y022988D01*
X031978Y023102D01*
X031978Y023036D02*
X038409Y023036D01*
X038450Y022937D02*
X031957Y022937D01*
X031890Y022839D02*
X032037Y022839D01*
X032032Y022837D02*
X031952Y022756D01*
X031908Y022652D01*
X031908Y022538D01*
X031952Y022434D01*
X032032Y022353D01*
X032137Y022310D01*
X032250Y022310D01*
X032355Y022353D01*
X032435Y022434D01*
X032478Y022538D01*
X032478Y022652D01*
X032435Y022756D01*
X032355Y022837D01*
X032250Y022880D01*
X032137Y022880D01*
X032032Y022837D01*
X031945Y022740D02*
X029693Y022740D01*
X029693Y022642D02*
X031908Y022642D01*
X031908Y022543D02*
X029693Y022543D01*
X029693Y022445D02*
X031947Y022445D01*
X032050Y022346D02*
X029693Y022346D01*
X029693Y022248D02*
X043846Y022248D01*
X043832Y022253D02*
X043937Y022210D01*
X044012Y022210D01*
X044008Y022202D01*
X044008Y022088D01*
X044052Y021984D01*
X044132Y021903D01*
X044237Y021860D01*
X044350Y021860D01*
X044455Y021903D01*
X044535Y021984D01*
X044578Y022088D01*
X044578Y022202D01*
X044535Y022306D01*
X044455Y022387D01*
X044350Y022430D01*
X044275Y022430D01*
X044278Y022438D01*
X044278Y022552D01*
X044235Y022656D01*
X044155Y022737D01*
X044050Y022780D01*
X043937Y022780D01*
X043832Y022737D01*
X043752Y022656D01*
X043708Y022552D01*
X043708Y022438D01*
X043752Y022334D01*
X043832Y022253D01*
X043747Y022346D02*
X033187Y022346D01*
X033205Y022353D02*
X033285Y022434D01*
X033328Y022538D01*
X033328Y022652D01*
X033285Y022756D01*
X033205Y022837D01*
X033100Y022880D01*
X032987Y022880D01*
X032882Y022837D01*
X032802Y022756D01*
X032758Y022652D01*
X032758Y022538D01*
X032802Y022434D01*
X032882Y022353D01*
X032987Y022310D01*
X033100Y022310D01*
X033205Y022353D01*
X033289Y022445D02*
X043708Y022445D01*
X043708Y022543D02*
X042680Y022543D01*
X042705Y022553D02*
X042785Y022634D01*
X042828Y022738D01*
X042828Y022852D01*
X042785Y022956D01*
X042705Y023037D01*
X042600Y023080D01*
X042487Y023080D01*
X042382Y023037D01*
X042302Y022956D01*
X042258Y022852D01*
X042258Y022738D01*
X042302Y022634D01*
X042382Y022553D01*
X042487Y022510D01*
X042600Y022510D01*
X042705Y022553D01*
X042788Y022642D02*
X043746Y022642D01*
X043840Y022740D02*
X042828Y022740D01*
X042828Y022839D02*
X044693Y022839D01*
X044693Y022937D02*
X042793Y022937D01*
X042706Y023036D02*
X044693Y023036D01*
X044693Y023134D02*
X038978Y023134D01*
X038977Y023036D02*
X042381Y023036D01*
X042294Y022937D02*
X038936Y022937D01*
X038819Y022839D02*
X042258Y022839D01*
X042258Y022740D02*
X033292Y022740D01*
X033328Y022642D02*
X042298Y022642D01*
X042407Y022543D02*
X033328Y022543D01*
X033200Y022839D02*
X038568Y022839D01*
X038945Y023233D02*
X044693Y023233D01*
X044693Y023331D02*
X042651Y023331D01*
X042600Y023310D02*
X042705Y023353D01*
X042785Y023434D01*
X042828Y023538D01*
X042828Y023652D01*
X042785Y023756D01*
X042705Y023837D01*
X042600Y023880D01*
X042487Y023880D01*
X042382Y023837D01*
X042302Y023756D01*
X042258Y023652D01*
X042258Y023538D01*
X042302Y023434D01*
X042382Y023353D01*
X042487Y023310D01*
X042600Y023310D01*
X042436Y023331D02*
X038860Y023331D01*
X038003Y023233D02*
X031909Y023233D01*
X031478Y023233D02*
X029693Y023233D01*
X029693Y023331D02*
X037932Y023331D01*
X037908Y023430D02*
X029693Y023430D01*
X029693Y023528D02*
X037919Y023528D01*
X037972Y023627D02*
X029693Y023627D01*
X029493Y023627D02*
X029302Y023627D01*
X029293Y023618D02*
X029418Y023743D01*
X029486Y023906D01*
X029486Y024084D01*
X029418Y024247D01*
X029293Y024372D01*
X029129Y024440D01*
X028952Y024440D01*
X028788Y024372D01*
X028663Y024247D01*
X028595Y024084D01*
X028595Y023906D01*
X028663Y023743D01*
X028788Y023618D01*
X028952Y023550D01*
X029129Y023550D01*
X029293Y023618D01*
X029400Y023725D02*
X029493Y023725D01*
X029493Y023824D02*
X029451Y023824D01*
X029486Y023922D02*
X029493Y023922D01*
X029486Y024021D02*
X029493Y024021D01*
X029493Y024119D02*
X029471Y024119D01*
X029493Y024218D02*
X029430Y024218D01*
X029493Y024316D02*
X029349Y024316D01*
X029493Y024415D02*
X029191Y024415D01*
X028890Y024415D02*
X028193Y024415D01*
X028193Y024316D02*
X028732Y024316D01*
X028651Y024218D02*
X028193Y024218D01*
X028193Y024119D02*
X028610Y024119D01*
X028595Y024021D02*
X028193Y024021D01*
X028193Y023922D02*
X028595Y023922D01*
X028630Y023824D02*
X028193Y023824D01*
X028193Y023725D02*
X028681Y023725D01*
X028779Y023627D02*
X028193Y023627D01*
X028193Y023528D02*
X029493Y023528D01*
X029493Y023430D02*
X029155Y023430D01*
X029129Y023440D02*
X028952Y023440D01*
X028788Y023372D01*
X028663Y023247D01*
X028595Y023084D01*
X028595Y022906D01*
X028663Y022743D01*
X028788Y022618D01*
X028952Y022550D01*
X029129Y022550D01*
X029293Y022618D01*
X029418Y022743D01*
X029486Y022906D01*
X029486Y023084D01*
X029418Y023247D01*
X029293Y023372D01*
X029129Y023440D01*
X028926Y023430D02*
X028193Y023430D01*
X028193Y023331D02*
X028747Y023331D01*
X028657Y023233D02*
X028193Y023233D01*
X028193Y023134D02*
X028616Y023134D01*
X028595Y023036D02*
X028193Y023036D01*
X028193Y022937D02*
X028595Y022937D01*
X028623Y022839D02*
X028499Y022839D01*
X028654Y022740D02*
X028666Y022740D01*
X028720Y022642D02*
X028764Y022642D01*
X028751Y022543D02*
X029493Y022543D01*
X029493Y022642D02*
X029317Y022642D01*
X029415Y022740D02*
X029493Y022740D01*
X029493Y022839D02*
X029458Y022839D01*
X029486Y022937D02*
X029493Y022937D01*
X029486Y023036D02*
X029493Y023036D01*
X029493Y023134D02*
X029465Y023134D01*
X029493Y023233D02*
X029424Y023233D01*
X029493Y023331D02*
X029334Y023331D01*
X029693Y023134D02*
X031422Y023134D01*
X031408Y023036D02*
X029693Y023036D01*
X029693Y022937D02*
X031430Y022937D01*
X031497Y022839D02*
X029693Y022839D01*
X029693Y022149D02*
X044008Y022149D01*
X044024Y022051D02*
X040271Y022051D01*
X040305Y022037D02*
X040200Y022080D01*
X040087Y022080D01*
X039982Y022037D01*
X039902Y021956D01*
X039858Y021852D01*
X039858Y021738D01*
X039902Y021634D01*
X039982Y021553D01*
X040087Y021510D01*
X040200Y021510D01*
X040305Y021553D01*
X040385Y021634D01*
X040428Y021738D01*
X040428Y021852D01*
X040385Y021956D01*
X040305Y022037D01*
X040387Y021952D02*
X044083Y021952D01*
X044503Y021952D02*
X044529Y021952D01*
X044508Y021902D02*
X044508Y021788D01*
X044552Y021684D01*
X044629Y021606D01*
X044582Y021587D01*
X044502Y021506D01*
X044458Y021402D01*
X044458Y021288D01*
X044502Y021184D01*
X044582Y021103D01*
X044687Y021060D01*
X044800Y021060D01*
X044905Y021103D01*
X044985Y021184D01*
X045028Y021288D01*
X045028Y021402D01*
X044985Y021506D01*
X044908Y021584D01*
X044955Y021603D01*
X045035Y021684D01*
X045078Y021788D01*
X045078Y021902D01*
X045035Y022006D01*
X044955Y022087D01*
X044850Y022130D01*
X044737Y022130D01*
X044632Y022087D01*
X044552Y022006D01*
X044508Y021902D01*
X044508Y021854D02*
X040428Y021854D01*
X040428Y021755D02*
X044522Y021755D01*
X044579Y021657D02*
X040394Y021657D01*
X040309Y021558D02*
X044553Y021558D01*
X044482Y021460D02*
X035761Y021460D01*
X035755Y021453D02*
X035835Y021534D01*
X035878Y021638D01*
X035878Y021752D01*
X035835Y021856D01*
X035755Y021937D01*
X035650Y021980D01*
X035537Y021980D01*
X035432Y021937D01*
X035352Y021856D01*
X035308Y021752D01*
X035308Y021638D01*
X035352Y021534D01*
X035432Y021453D01*
X035537Y021410D01*
X035650Y021410D01*
X035755Y021453D01*
X035845Y021558D02*
X039977Y021558D01*
X039892Y021657D02*
X035878Y021657D01*
X035877Y021755D02*
X039858Y021755D01*
X039859Y021854D02*
X035836Y021854D01*
X035717Y021952D02*
X039900Y021952D01*
X040015Y022051D02*
X029693Y022051D01*
X029693Y021952D02*
X033147Y021952D01*
X033182Y021987D02*
X033102Y021906D01*
X033058Y021802D01*
X033058Y021688D01*
X033102Y021584D01*
X033182Y021503D01*
X033287Y021460D01*
X033400Y021460D01*
X033505Y021503D01*
X033585Y021584D01*
X033628Y021688D01*
X033628Y021802D01*
X033585Y021906D01*
X033505Y021987D01*
X033400Y022030D01*
X033287Y022030D01*
X033182Y021987D01*
X033080Y021854D02*
X029693Y021854D01*
X029693Y021755D02*
X033058Y021755D01*
X033071Y021657D02*
X029693Y021657D01*
X029693Y021558D02*
X033127Y021558D01*
X033046Y021361D02*
X044458Y021361D01*
X044469Y021263D02*
X039942Y021263D01*
X039900Y021280D02*
X039787Y021280D01*
X039682Y021237D01*
X039602Y021156D01*
X039558Y021052D01*
X039558Y020938D01*
X039602Y020834D01*
X039682Y020753D01*
X039787Y020710D01*
X039900Y020710D01*
X040005Y020753D01*
X040085Y020834D01*
X040128Y020938D01*
X040128Y021052D01*
X040085Y021156D01*
X040005Y021237D01*
X039900Y021280D01*
X039744Y021263D02*
X033179Y021263D01*
X033185Y021256D02*
X033105Y021337D01*
X033000Y021380D01*
X032887Y021380D01*
X032782Y021337D01*
X032702Y021256D01*
X032658Y021152D01*
X032658Y021038D01*
X032702Y020934D01*
X032782Y020853D01*
X032887Y020810D01*
X033000Y020810D01*
X033105Y020853D01*
X033185Y020934D01*
X033228Y021038D01*
X033228Y021152D01*
X033185Y021256D01*
X033223Y021164D02*
X039609Y021164D01*
X039564Y021066D02*
X033228Y021066D01*
X033199Y020967D02*
X039558Y020967D01*
X039587Y020869D02*
X033120Y020869D01*
X032767Y020869D02*
X029693Y020869D01*
X029693Y020967D02*
X032688Y020967D01*
X032658Y021066D02*
X029693Y021066D01*
X029693Y021164D02*
X032663Y021164D01*
X032708Y021263D02*
X029693Y021263D01*
X029693Y021361D02*
X032841Y021361D01*
X033559Y021558D02*
X035342Y021558D01*
X035308Y021657D02*
X033615Y021657D01*
X033628Y021755D02*
X035310Y021755D01*
X035350Y021854D02*
X033607Y021854D01*
X033539Y021952D02*
X035469Y021952D01*
X035426Y021460D02*
X029693Y021460D01*
X029693Y020770D02*
X039665Y020770D01*
X040021Y020770D02*
X046037Y020770D01*
X046052Y020734D02*
X046132Y020653D01*
X046152Y020645D01*
X046132Y020637D01*
X046052Y020556D01*
X046043Y020536D01*
X046035Y020556D01*
X045955Y020637D01*
X045850Y020680D01*
X045737Y020680D01*
X045632Y020637D01*
X045552Y020556D01*
X045543Y020536D01*
X045535Y020556D01*
X045455Y020637D01*
X045350Y020680D01*
X045237Y020680D01*
X045132Y020637D01*
X045052Y020556D01*
X045043Y020536D01*
X045035Y020556D01*
X044955Y020637D01*
X044850Y020680D01*
X044737Y020680D01*
X044632Y020637D01*
X044552Y020556D01*
X044508Y020452D01*
X044508Y020338D01*
X044552Y020234D01*
X044632Y020153D01*
X044737Y020110D01*
X044850Y020110D01*
X044955Y020153D01*
X045035Y020234D01*
X045043Y020254D01*
X045052Y020234D01*
X045132Y020153D01*
X045237Y020110D01*
X045350Y020110D01*
X045455Y020153D01*
X045535Y020234D01*
X045543Y020254D01*
X045552Y020234D01*
X045632Y020153D01*
X045737Y020110D01*
X045850Y020110D01*
X045955Y020153D01*
X046035Y020234D01*
X046043Y020254D01*
X046052Y020234D01*
X046132Y020153D01*
X046237Y020110D01*
X046350Y020110D01*
X046455Y020153D01*
X046535Y020234D01*
X046543Y020254D01*
X046552Y020234D01*
X046632Y020153D01*
X046737Y020110D01*
X046850Y020110D01*
X046955Y020153D01*
X047035Y020234D01*
X047043Y020254D01*
X047052Y020234D01*
X047132Y020153D01*
X047237Y020110D01*
X047350Y020110D01*
X047455Y020153D01*
X047535Y020234D01*
X047543Y020254D01*
X047552Y020234D01*
X047632Y020153D01*
X047737Y020110D01*
X047850Y020110D01*
X047955Y020153D01*
X048035Y020234D01*
X048043Y020254D01*
X048052Y020234D01*
X048132Y020153D01*
X048152Y020145D01*
X048132Y020137D01*
X048052Y020056D01*
X048008Y019952D01*
X048008Y019838D01*
X048052Y019734D01*
X048132Y019653D01*
X048152Y019645D01*
X048132Y019637D01*
X048052Y019556D01*
X048008Y019452D01*
X048008Y019338D01*
X048052Y019234D01*
X048132Y019153D01*
X048152Y019145D01*
X048132Y019137D01*
X048052Y019056D01*
X048008Y018952D01*
X048008Y018838D01*
X048052Y018734D01*
X048132Y018653D01*
X048152Y018645D01*
X048132Y018637D01*
X048052Y018556D01*
X048008Y018452D01*
X048008Y018338D01*
X048052Y018234D01*
X048132Y018153D01*
X048152Y018145D01*
X048132Y018137D01*
X048052Y018056D01*
X048008Y017952D01*
X048008Y017838D01*
X048052Y017734D01*
X048132Y017653D01*
X048152Y017645D01*
X048132Y017637D01*
X048052Y017556D01*
X048008Y017452D01*
X048008Y017338D01*
X048052Y017234D01*
X048132Y017153D01*
X048152Y017145D01*
X048132Y017137D01*
X048052Y017056D01*
X048008Y016952D01*
X048008Y016838D01*
X048052Y016734D01*
X048132Y016653D01*
X048152Y016645D01*
X048132Y016637D01*
X048052Y016556D01*
X048008Y016452D01*
X048008Y016338D01*
X048052Y016234D01*
X048132Y016153D01*
X048152Y016145D01*
X048132Y016137D01*
X048052Y016056D01*
X048008Y015952D01*
X048008Y015838D01*
X048052Y015734D01*
X048132Y015653D01*
X048152Y015645D01*
X048132Y015637D01*
X048052Y015556D01*
X048043Y015536D01*
X048035Y015556D01*
X047955Y015637D01*
X047850Y015680D01*
X047737Y015680D01*
X047632Y015637D01*
X047552Y015556D01*
X047543Y015536D01*
X047535Y015556D01*
X047455Y015637D01*
X047350Y015680D01*
X047237Y015680D01*
X047132Y015637D01*
X047052Y015556D01*
X047043Y015536D01*
X047035Y015556D01*
X046955Y015637D01*
X046850Y015680D01*
X046737Y015680D01*
X046632Y015637D01*
X046552Y015556D01*
X046543Y015536D01*
X046535Y015556D01*
X046455Y015637D01*
X046350Y015680D01*
X046237Y015680D01*
X046132Y015637D01*
X046052Y015556D01*
X046043Y015536D01*
X046035Y015556D01*
X045955Y015637D01*
X045850Y015680D01*
X045737Y015680D01*
X045632Y015637D01*
X045552Y015556D01*
X045543Y015536D01*
X045535Y015556D01*
X045455Y015637D01*
X045350Y015680D01*
X045237Y015680D01*
X045132Y015637D01*
X045052Y015556D01*
X045043Y015536D01*
X045035Y015556D01*
X044955Y015637D01*
X044850Y015680D01*
X044737Y015680D01*
X044632Y015637D01*
X044552Y015556D01*
X044543Y015536D01*
X044535Y015556D01*
X044455Y015637D01*
X044434Y015645D01*
X044455Y015653D01*
X044535Y015734D01*
X044578Y015838D01*
X044578Y015952D01*
X044535Y016056D01*
X044455Y016137D01*
X044434Y016145D01*
X044455Y016153D01*
X044535Y016234D01*
X044578Y016338D01*
X044578Y016452D01*
X044535Y016556D01*
X044455Y016637D01*
X044434Y016645D01*
X044455Y016653D01*
X044535Y016734D01*
X044578Y016838D01*
X044578Y016952D01*
X044535Y017056D01*
X044455Y017137D01*
X044434Y017145D01*
X044455Y017153D01*
X044535Y017234D01*
X044578Y017338D01*
X044578Y017452D01*
X044535Y017556D01*
X044455Y017637D01*
X044434Y017645D01*
X044455Y017653D01*
X044535Y017734D01*
X044578Y017838D01*
X044578Y017952D01*
X044535Y018056D01*
X044455Y018137D01*
X044434Y018145D01*
X044455Y018153D01*
X044535Y018234D01*
X044578Y018338D01*
X044578Y018452D01*
X044535Y018556D01*
X044455Y018637D01*
X044434Y018645D01*
X044455Y018653D01*
X044535Y018734D01*
X044578Y018838D01*
X044578Y018952D01*
X044535Y019056D01*
X044455Y019137D01*
X044434Y019145D01*
X044455Y019153D01*
X044535Y019234D01*
X044578Y019338D01*
X044578Y019452D01*
X044535Y019556D01*
X044455Y019637D01*
X044434Y019645D01*
X044455Y019653D01*
X044535Y019734D01*
X044578Y019838D01*
X044578Y019952D01*
X044535Y020056D01*
X044455Y020137D01*
X044350Y020180D01*
X044237Y020180D01*
X044132Y020137D01*
X044052Y020056D01*
X044008Y019952D01*
X044008Y019838D01*
X044052Y019734D01*
X044132Y019653D01*
X044152Y019645D01*
X044132Y019637D01*
X044052Y019556D01*
X044008Y019452D01*
X044008Y019338D01*
X044052Y019234D01*
X044132Y019153D01*
X044152Y019145D01*
X044132Y019137D01*
X044052Y019056D01*
X044008Y018952D01*
X044008Y018838D01*
X044052Y018734D01*
X044132Y018653D01*
X044152Y018645D01*
X044132Y018637D01*
X044052Y018556D01*
X044043Y018536D01*
X044035Y018556D01*
X043955Y018637D01*
X043850Y018680D01*
X043737Y018680D01*
X043632Y018637D01*
X043552Y018556D01*
X043508Y018452D01*
X043508Y018338D01*
X043552Y018234D01*
X043632Y018153D01*
X043652Y018145D01*
X043632Y018137D01*
X043552Y018056D01*
X043508Y017952D01*
X043508Y017838D01*
X043552Y017734D01*
X043632Y017653D01*
X043652Y017645D01*
X043632Y017637D01*
X043552Y017556D01*
X043508Y017452D01*
X043508Y017338D01*
X043552Y017234D01*
X043632Y017153D01*
X043652Y017145D01*
X043632Y017137D01*
X043552Y017056D01*
X043508Y016952D01*
X043508Y016838D01*
X043552Y016734D01*
X043632Y016653D01*
X043652Y016645D01*
X043632Y016637D01*
X043552Y016556D01*
X043508Y016452D01*
X043508Y016338D01*
X043552Y016234D01*
X043632Y016153D01*
X043652Y016145D01*
X043632Y016137D01*
X043552Y016056D01*
X043508Y015952D01*
X043508Y015838D01*
X043552Y015734D01*
X043632Y015653D01*
X043652Y015645D01*
X043632Y015637D01*
X043552Y015556D01*
X043508Y015452D01*
X043508Y015338D01*
X043552Y015234D01*
X043632Y015153D01*
X043652Y015145D01*
X043632Y015137D01*
X043552Y015056D01*
X043508Y014952D01*
X043508Y014838D01*
X043552Y014734D01*
X043632Y014653D01*
X043652Y014645D01*
X043632Y014637D01*
X043552Y014556D01*
X043508Y014452D01*
X043508Y014338D01*
X043552Y014234D01*
X043632Y014153D01*
X043737Y014110D01*
X043850Y014110D01*
X043955Y014153D01*
X044035Y014234D01*
X044043Y014254D01*
X044052Y014234D01*
X044132Y014153D01*
X044237Y014110D01*
X044350Y014110D01*
X044455Y014153D01*
X044535Y014234D01*
X044543Y014254D01*
X044552Y014234D01*
X044632Y014153D01*
X044737Y014110D01*
X044850Y014110D01*
X044955Y014153D01*
X045035Y014234D01*
X045078Y014338D01*
X045078Y014452D01*
X045035Y014556D01*
X044955Y014637D01*
X044934Y014645D01*
X044955Y014653D01*
X045035Y014734D01*
X045043Y014754D01*
X045052Y014734D01*
X045132Y014653D01*
X045237Y014610D01*
X045350Y014610D01*
X045455Y014653D01*
X045535Y014734D01*
X045543Y014754D01*
X045552Y014734D01*
X045632Y014653D01*
X045652Y014645D01*
X045632Y014637D01*
X045552Y014556D01*
X045508Y014452D01*
X045508Y014338D01*
X045552Y014234D01*
X045632Y014153D01*
X045737Y014110D01*
X045850Y014110D01*
X045955Y014153D01*
X046035Y014234D01*
X046043Y014254D01*
X046052Y014234D01*
X046132Y014153D01*
X046237Y014110D01*
X046350Y014110D01*
X046455Y014153D01*
X046535Y014234D01*
X046543Y014254D01*
X046552Y014234D01*
X046632Y014153D01*
X046737Y014110D01*
X046850Y014110D01*
X046955Y014153D01*
X047035Y014234D01*
X047043Y014254D01*
X047052Y014234D01*
X047132Y014153D01*
X047237Y014110D01*
X047350Y014110D01*
X047455Y014153D01*
X047535Y014234D01*
X047543Y014254D01*
X047552Y014234D01*
X047632Y014153D01*
X047737Y014110D01*
X047850Y014110D01*
X047955Y014153D01*
X048035Y014234D01*
X048043Y014254D01*
X048052Y014234D01*
X048132Y014153D01*
X048237Y014110D01*
X048350Y014110D01*
X048455Y014153D01*
X048535Y014234D01*
X048543Y014254D01*
X048552Y014234D01*
X048632Y014153D01*
X048737Y014110D01*
X048850Y014110D01*
X048955Y014153D01*
X049035Y014234D01*
X049043Y014254D01*
X049052Y014234D01*
X049132Y014153D01*
X049237Y014110D01*
X049350Y014110D01*
X049455Y014153D01*
X049535Y014234D01*
X049543Y014254D01*
X049552Y014234D01*
X049632Y014153D01*
X049737Y014110D01*
X049850Y014110D01*
X049955Y014153D01*
X050035Y014234D01*
X050043Y014254D01*
X050052Y014234D01*
X050132Y014153D01*
X050237Y014110D01*
X050350Y014110D01*
X050455Y014153D01*
X050535Y014234D01*
X050543Y014254D01*
X050552Y014234D01*
X050632Y014153D01*
X050737Y014110D01*
X050850Y014110D01*
X050955Y014153D01*
X051035Y014234D01*
X051078Y014338D01*
X051078Y014452D01*
X051035Y014556D01*
X050955Y014637D01*
X050934Y014645D01*
X050955Y014653D01*
X051035Y014734D01*
X051043Y014754D01*
X051052Y014734D01*
X051132Y014653D01*
X051237Y014610D01*
X051350Y014610D01*
X051455Y014653D01*
X051535Y014734D01*
X051578Y014838D01*
X051578Y014952D01*
X051535Y015056D01*
X051455Y015137D01*
X051434Y015145D01*
X051455Y015153D01*
X051535Y015234D01*
X051578Y015338D01*
X051578Y015452D01*
X051535Y015556D01*
X051455Y015637D01*
X051434Y015645D01*
X051455Y015653D01*
X051535Y015734D01*
X051578Y015838D01*
X051578Y015952D01*
X051535Y016056D01*
X051455Y016137D01*
X051434Y016145D01*
X051455Y016153D01*
X051535Y016234D01*
X051578Y016338D01*
X051578Y016452D01*
X051535Y016556D01*
X051455Y016637D01*
X051434Y016645D01*
X051455Y016653D01*
X051535Y016734D01*
X051578Y016838D01*
X051578Y016952D01*
X051535Y017056D01*
X051455Y017137D01*
X051434Y017145D01*
X051455Y017153D01*
X051535Y017234D01*
X051578Y017338D01*
X051578Y017452D01*
X051535Y017556D01*
X051455Y017637D01*
X051434Y017645D01*
X051455Y017653D01*
X051535Y017734D01*
X051578Y017838D01*
X051578Y017952D01*
X051535Y018056D01*
X051455Y018137D01*
X051434Y018145D01*
X051455Y018153D01*
X051535Y018234D01*
X051578Y018338D01*
X051578Y018452D01*
X051535Y018556D01*
X051455Y018637D01*
X051434Y018645D01*
X051455Y018653D01*
X051535Y018734D01*
X051578Y018838D01*
X051578Y018952D01*
X051535Y019056D01*
X051455Y019137D01*
X051434Y019145D01*
X051455Y019153D01*
X051535Y019234D01*
X051578Y019338D01*
X051578Y019452D01*
X051535Y019556D01*
X051455Y019637D01*
X051434Y019645D01*
X051455Y019653D01*
X051535Y019734D01*
X051578Y019838D01*
X051578Y019952D01*
X051535Y020056D01*
X051455Y020137D01*
X051434Y020145D01*
X051455Y020153D01*
X051535Y020234D01*
X051578Y020338D01*
X051578Y020452D01*
X051535Y020556D01*
X051455Y020637D01*
X051434Y020645D01*
X051455Y020653D01*
X051535Y020734D01*
X051578Y020838D01*
X051578Y020952D01*
X051535Y021056D01*
X051455Y021137D01*
X051434Y021145D01*
X051455Y021153D01*
X051535Y021234D01*
X051578Y021338D01*
X051578Y021452D01*
X051535Y021556D01*
X051455Y021637D01*
X051434Y021645D01*
X051455Y021653D01*
X051535Y021734D01*
X051578Y021838D01*
X051578Y021952D01*
X055993Y021952D01*
X055993Y021854D02*
X051578Y021854D01*
X051578Y021952D02*
X051535Y022056D01*
X051455Y022137D01*
X051434Y022145D01*
X051455Y022153D01*
X051535Y022234D01*
X051578Y022338D01*
X051578Y022452D01*
X051535Y022556D01*
X051455Y022637D01*
X051434Y022645D01*
X051455Y022653D01*
X051535Y022734D01*
X051578Y022838D01*
X051578Y022952D01*
X051535Y023056D01*
X051455Y023137D01*
X051434Y023145D01*
X051455Y023153D01*
X051535Y023234D01*
X051578Y023338D01*
X051578Y023452D01*
X051535Y023556D01*
X051455Y023637D01*
X051434Y023645D01*
X051455Y023653D01*
X051535Y023734D01*
X051578Y023838D01*
X051578Y023952D01*
X051535Y024056D01*
X051455Y024137D01*
X051350Y024180D01*
X051237Y024180D01*
X051132Y024137D01*
X051052Y024056D01*
X051043Y024036D01*
X051035Y024056D01*
X050955Y024137D01*
X050850Y024180D01*
X050737Y024180D01*
X050632Y024137D01*
X050552Y024056D01*
X050543Y024036D01*
X050535Y024056D01*
X050455Y024137D01*
X050350Y024180D01*
X050237Y024180D01*
X050132Y024137D01*
X050052Y024056D01*
X050043Y024036D01*
X050035Y024056D01*
X049955Y024137D01*
X049850Y024180D01*
X049737Y024180D01*
X049632Y024137D01*
X049552Y024056D01*
X049543Y024036D01*
X049535Y024056D01*
X049455Y024137D01*
X049350Y024180D01*
X049237Y024180D01*
X049132Y024137D01*
X049052Y024056D01*
X049043Y024036D01*
X049035Y024056D01*
X048955Y024137D01*
X048850Y024180D01*
X048737Y024180D01*
X048632Y024137D01*
X048552Y024056D01*
X048508Y023952D01*
X048508Y023838D01*
X048552Y023734D01*
X048632Y023653D01*
X048652Y023645D01*
X048632Y023637D01*
X048552Y023556D01*
X048543Y023536D01*
X048535Y023556D01*
X048455Y023637D01*
X048350Y023680D01*
X048237Y023680D01*
X048132Y023637D01*
X048052Y023556D01*
X048008Y023452D01*
X048008Y023338D01*
X048052Y023234D01*
X048132Y023153D01*
X048152Y023145D01*
X048132Y023137D01*
X048052Y023056D01*
X048008Y022952D01*
X048008Y022838D01*
X048052Y022734D01*
X048132Y022653D01*
X048152Y022645D01*
X048132Y022637D01*
X048052Y022556D01*
X048043Y022536D01*
X048035Y022556D01*
X047955Y022637D01*
X047850Y022680D01*
X047737Y022680D01*
X047632Y022637D01*
X047552Y022556D01*
X047508Y022452D01*
X047508Y022338D01*
X047552Y022234D01*
X047632Y022153D01*
X047652Y022145D01*
X047632Y022137D01*
X047552Y022056D01*
X047543Y022036D01*
X047535Y022056D01*
X047455Y022137D01*
X047350Y022180D01*
X047237Y022180D01*
X047132Y022137D01*
X047052Y022056D01*
X047008Y021952D01*
X047008Y021838D01*
X047052Y021734D01*
X047132Y021653D01*
X047152Y021645D01*
X047132Y021637D01*
X047052Y021556D01*
X047043Y021536D01*
X047035Y021556D01*
X046955Y021637D01*
X046850Y021680D01*
X046737Y021680D01*
X046632Y021637D01*
X046552Y021556D01*
X046508Y021452D01*
X046508Y021338D01*
X046552Y021234D01*
X046632Y021153D01*
X046652Y021145D01*
X046632Y021137D01*
X046552Y021056D01*
X046543Y021036D01*
X046535Y021056D01*
X046455Y021137D01*
X046350Y021180D01*
X046237Y021180D01*
X046132Y021137D01*
X046052Y021056D01*
X046008Y020952D01*
X046008Y020838D01*
X046052Y020734D01*
X046114Y020672D02*
X045870Y020672D01*
X045716Y020672D02*
X045370Y020672D01*
X045216Y020672D02*
X044870Y020672D01*
X044716Y020672D02*
X029693Y020672D01*
X029693Y020573D02*
X044568Y020573D01*
X044518Y020475D02*
X029693Y020475D01*
X029693Y020376D02*
X029733Y020376D01*
X030153Y020376D02*
X044508Y020376D01*
X044533Y020278D02*
X030257Y020278D01*
X030306Y020179D02*
X044234Y020179D01*
X044352Y020179D02*
X044606Y020179D01*
X044511Y020081D02*
X048076Y020081D01*
X048106Y020179D02*
X047980Y020179D01*
X048021Y019982D02*
X044566Y019982D01*
X044578Y019884D02*
X048008Y019884D01*
X048030Y019785D02*
X044556Y019785D01*
X044488Y019687D02*
X048099Y019687D01*
X048083Y019588D02*
X044503Y019588D01*
X044563Y019490D02*
X048024Y019490D01*
X048008Y019391D02*
X044578Y019391D01*
X044559Y019293D02*
X048027Y019293D01*
X048091Y019194D02*
X044495Y019194D01*
X044496Y019096D02*
X048091Y019096D01*
X048027Y018997D02*
X044560Y018997D01*
X044578Y018899D02*
X048008Y018899D01*
X048024Y018800D02*
X044562Y018800D01*
X044503Y018702D02*
X048084Y018702D01*
X048098Y018603D02*
X044488Y018603D01*
X044556Y018505D02*
X048030Y018505D01*
X048008Y018406D02*
X044578Y018406D01*
X044566Y018308D02*
X048021Y018308D01*
X048076Y018209D02*
X044510Y018209D01*
X044481Y018111D02*
X048106Y018111D01*
X048033Y018012D02*
X044553Y018012D01*
X044578Y017914D02*
X048008Y017914D01*
X048018Y017815D02*
X044569Y017815D01*
X044518Y017717D02*
X048069Y017717D01*
X048113Y017618D02*
X044473Y017618D01*
X044550Y017520D02*
X048036Y017520D01*
X048008Y017421D02*
X044578Y017421D01*
X044572Y017323D02*
X048015Y017323D01*
X048061Y017224D02*
X044525Y017224D01*
X044466Y017126D02*
X048121Y017126D01*
X048040Y017027D02*
X044547Y017027D01*
X044578Y016929D02*
X048008Y016929D01*
X048012Y016830D02*
X044575Y016830D01*
X044533Y016732D02*
X048054Y016732D01*
X048128Y016633D02*
X044458Y016633D01*
X044544Y016535D02*
X048043Y016535D01*
X048008Y016436D02*
X044578Y016436D01*
X044578Y016338D02*
X048009Y016338D01*
X048049Y016239D02*
X044537Y016239D01*
X044445Y016141D02*
X048141Y016141D01*
X048046Y016042D02*
X044541Y016042D01*
X044578Y015944D02*
X048008Y015944D01*
X048008Y015845D02*
X044578Y015845D01*
X044540Y015747D02*
X048046Y015747D01*
X048145Y015648D02*
X047927Y015648D01*
X048038Y015550D02*
X048049Y015550D01*
X047659Y015648D02*
X047427Y015648D01*
X047538Y015550D02*
X047549Y015550D01*
X047159Y015648D02*
X046927Y015648D01*
X047038Y015550D02*
X047049Y015550D01*
X046659Y015648D02*
X046427Y015648D01*
X046538Y015550D02*
X046549Y015550D01*
X046159Y015648D02*
X045927Y015648D01*
X046038Y015550D02*
X046049Y015550D01*
X045659Y015648D02*
X045427Y015648D01*
X045538Y015550D02*
X045549Y015550D01*
X045159Y015648D02*
X044927Y015648D01*
X045038Y015550D02*
X045049Y015550D01*
X044659Y015648D02*
X044442Y015648D01*
X044538Y015550D02*
X044549Y015550D01*
X043645Y015648D02*
X033030Y015648D01*
X033030Y015722D02*
X032971Y015864D01*
X032862Y015972D01*
X032720Y016031D01*
X032566Y016031D01*
X032425Y015972D01*
X032316Y015864D01*
X032257Y015722D01*
X032257Y015568D01*
X032316Y015426D01*
X032425Y015318D01*
X032566Y015259D01*
X032720Y015259D01*
X032862Y015318D01*
X032971Y015426D01*
X033030Y015568D01*
X033030Y015722D01*
X033019Y015747D02*
X043546Y015747D01*
X043508Y015845D02*
X032978Y015845D01*
X032891Y015944D02*
X043508Y015944D01*
X043546Y016042D02*
X018777Y016042D01*
X018818Y016141D02*
X043641Y016141D01*
X043549Y016239D02*
X018830Y016239D01*
X018823Y016338D02*
X038820Y016338D01*
X038782Y016353D02*
X038887Y016310D01*
X039000Y016310D01*
X039105Y016353D01*
X039185Y016434D01*
X039228Y016538D01*
X039228Y016652D01*
X039185Y016756D01*
X039105Y016837D01*
X039000Y016880D01*
X038887Y016880D01*
X038782Y016837D01*
X038702Y016756D01*
X038658Y016652D01*
X038658Y016538D01*
X038702Y016434D01*
X038782Y016353D01*
X038701Y016436D02*
X018782Y016436D01*
X018688Y015944D02*
X032396Y015944D01*
X032308Y015845D02*
X015555Y015845D01*
X015653Y015944D02*
X018199Y015944D01*
X018109Y016042D02*
X015752Y016042D01*
X015850Y016141D02*
X018069Y016141D01*
X018057Y016239D02*
X015949Y016239D01*
X016047Y016338D02*
X018064Y016338D01*
X018104Y016436D02*
X016146Y016436D01*
X015456Y015747D02*
X032267Y015747D01*
X032257Y015648D02*
X015393Y015648D01*
X015393Y015550D02*
X032265Y015550D01*
X032306Y015451D02*
X015393Y015451D01*
X015393Y015353D02*
X032390Y015353D01*
X032897Y015353D02*
X043508Y015353D01*
X043508Y015451D02*
X032981Y015451D01*
X033022Y015550D02*
X043549Y015550D01*
X043543Y015254D02*
X015393Y015254D01*
X015393Y015156D02*
X043630Y015156D01*
X043552Y015057D02*
X015393Y015057D01*
X015393Y014959D02*
X043511Y014959D01*
X043508Y014860D02*
X015393Y014860D01*
X015393Y014762D02*
X043540Y014762D01*
X043622Y014663D02*
X015393Y014663D01*
X015393Y014565D02*
X043560Y014565D01*
X043514Y014466D02*
X015393Y014466D01*
X015393Y014368D02*
X043508Y014368D01*
X043537Y014269D02*
X015393Y014269D01*
X015393Y014171D02*
X043615Y014171D01*
X043972Y014171D02*
X044115Y014171D01*
X044472Y014171D02*
X044615Y014171D01*
X044972Y014171D02*
X045615Y014171D01*
X045537Y014269D02*
X045050Y014269D01*
X045078Y014368D02*
X045508Y014368D01*
X045514Y014466D02*
X045072Y014466D01*
X045027Y014565D02*
X045560Y014565D01*
X045622Y014663D02*
X045464Y014663D01*
X045122Y014663D02*
X044964Y014663D01*
X045972Y014171D02*
X046115Y014171D01*
X046472Y014171D02*
X046615Y014171D01*
X046972Y014171D02*
X047115Y014171D01*
X047472Y014171D02*
X047615Y014171D01*
X047972Y014171D02*
X048115Y014171D01*
X048472Y014171D02*
X048615Y014171D01*
X048972Y014171D02*
X049115Y014171D01*
X049472Y014171D02*
X049615Y014171D01*
X049972Y014171D02*
X050115Y014171D01*
X050472Y014171D02*
X050615Y014171D01*
X050972Y014171D02*
X055993Y014171D01*
X055993Y014269D02*
X051050Y014269D01*
X051078Y014368D02*
X055993Y014368D01*
X055993Y014466D02*
X051072Y014466D01*
X051027Y014565D02*
X055993Y014565D01*
X055993Y014663D02*
X051464Y014663D01*
X051546Y014762D02*
X055993Y014762D01*
X055993Y014860D02*
X051578Y014860D01*
X051575Y014959D02*
X055993Y014959D01*
X055993Y015057D02*
X051534Y015057D01*
X051457Y015156D02*
X055993Y015156D01*
X055993Y015254D02*
X051543Y015254D01*
X051578Y015353D02*
X055993Y015353D01*
X055993Y015451D02*
X051578Y015451D01*
X051538Y015550D02*
X055993Y015550D01*
X055993Y015648D02*
X051442Y015648D01*
X051540Y015747D02*
X055993Y015747D01*
X055993Y015845D02*
X051578Y015845D01*
X051578Y015944D02*
X055993Y015944D01*
X055993Y016042D02*
X051541Y016042D01*
X051445Y016141D02*
X055993Y016141D01*
X055993Y016239D02*
X051537Y016239D01*
X051578Y016338D02*
X055993Y016338D01*
X055993Y016436D02*
X051578Y016436D01*
X051544Y016535D02*
X055993Y016535D01*
X055993Y016633D02*
X051458Y016633D01*
X051533Y016732D02*
X055993Y016732D01*
X055993Y016830D02*
X051575Y016830D01*
X051578Y016929D02*
X055993Y016929D01*
X055993Y017027D02*
X051547Y017027D01*
X051466Y017126D02*
X055993Y017126D01*
X055993Y017224D02*
X051525Y017224D01*
X051572Y017323D02*
X055993Y017323D01*
X055993Y017421D02*
X051578Y017421D01*
X051550Y017520D02*
X055993Y017520D01*
X055993Y017618D02*
X051473Y017618D01*
X051518Y017717D02*
X055993Y017717D01*
X055993Y017815D02*
X051569Y017815D01*
X051578Y017914D02*
X055993Y017914D01*
X055993Y018012D02*
X051553Y018012D01*
X051481Y018111D02*
X055993Y018111D01*
X055993Y018209D02*
X051510Y018209D01*
X051566Y018308D02*
X055993Y018308D01*
X055993Y018406D02*
X051578Y018406D01*
X051556Y018505D02*
X055993Y018505D01*
X055993Y018603D02*
X051488Y018603D01*
X051503Y018702D02*
X055993Y018702D01*
X055993Y018800D02*
X051562Y018800D01*
X051578Y018899D02*
X055993Y018899D01*
X055993Y018997D02*
X051560Y018997D01*
X051496Y019096D02*
X055993Y019096D01*
X055993Y019194D02*
X051495Y019194D01*
X051559Y019293D02*
X055993Y019293D01*
X055993Y019391D02*
X051578Y019391D01*
X051563Y019490D02*
X055993Y019490D01*
X055993Y019588D02*
X051503Y019588D01*
X051488Y019687D02*
X055993Y019687D01*
X055993Y019785D02*
X051556Y019785D01*
X051578Y019884D02*
X055993Y019884D01*
X055993Y019982D02*
X051566Y019982D01*
X051511Y020081D02*
X055993Y020081D01*
X055993Y020179D02*
X051480Y020179D01*
X051553Y020278D02*
X055993Y020278D01*
X055993Y020376D02*
X051578Y020376D01*
X051569Y020475D02*
X055993Y020475D01*
X055993Y020573D02*
X051518Y020573D01*
X051473Y020672D02*
X055993Y020672D01*
X055993Y020770D02*
X051550Y020770D01*
X051578Y020869D02*
X055993Y020869D01*
X055993Y020967D02*
X051572Y020967D01*
X051526Y021066D02*
X055993Y021066D01*
X055993Y021164D02*
X051465Y021164D01*
X051547Y021263D02*
X055993Y021263D01*
X055993Y021361D02*
X051578Y021361D01*
X051575Y021460D02*
X055993Y021460D01*
X055993Y021558D02*
X051533Y021558D01*
X051458Y021657D02*
X055993Y021657D01*
X055993Y021755D02*
X051544Y021755D01*
X051537Y022051D02*
X055993Y022051D01*
X055993Y022149D02*
X051444Y022149D01*
X051541Y022248D02*
X055993Y022248D01*
X055993Y022346D02*
X051578Y022346D01*
X051578Y022445D02*
X055993Y022445D01*
X055993Y022543D02*
X051540Y022543D01*
X051443Y022642D02*
X055993Y022642D01*
X055993Y022740D02*
X051538Y022740D01*
X051578Y022839D02*
X055993Y022839D01*
X055993Y022937D02*
X051578Y022937D01*
X051544Y023036D02*
X055993Y023036D01*
X055993Y023134D02*
X051457Y023134D01*
X051534Y023233D02*
X055993Y023233D01*
X055993Y023331D02*
X051575Y023331D01*
X051578Y023430D02*
X055993Y023430D01*
X055993Y023528D02*
X051547Y023528D01*
X051465Y023627D02*
X055993Y023627D01*
X055993Y023725D02*
X051526Y023725D01*
X051572Y023824D02*
X055993Y023824D01*
X055993Y023922D02*
X051578Y023922D01*
X051550Y024021D02*
X055993Y024021D01*
X055993Y024119D02*
X051472Y024119D01*
X051114Y024119D02*
X050972Y024119D01*
X050614Y024119D02*
X050472Y024119D01*
X050114Y024119D02*
X049972Y024119D01*
X049614Y024119D02*
X049472Y024119D01*
X049114Y024119D02*
X048972Y024119D01*
X048614Y024119D02*
X046078Y024119D01*
X046078Y024088D02*
X046035Y023984D01*
X045955Y023903D01*
X045850Y023860D01*
X045737Y023860D01*
X045632Y023903D01*
X045552Y023984D01*
X045508Y024088D01*
X045508Y024202D01*
X045552Y024306D01*
X045632Y024387D01*
X045737Y024430D01*
X045850Y024430D01*
X045955Y024387D01*
X046035Y024306D01*
X046078Y024202D01*
X046078Y024088D01*
X046050Y024021D02*
X048537Y024021D01*
X048508Y023922D02*
X045973Y023922D01*
X046072Y024218D02*
X055993Y024218D01*
X055993Y024316D02*
X046025Y024316D01*
X045887Y024415D02*
X055993Y024415D01*
X055993Y024513D02*
X044278Y024513D01*
X044352Y024415D02*
X045699Y024415D01*
X045561Y024316D02*
X044378Y024316D01*
X044370Y024218D02*
X045515Y024218D01*
X045508Y024119D02*
X044320Y024119D01*
X044250Y024021D02*
X045536Y024021D01*
X045613Y023922D02*
X044278Y023922D01*
X044272Y023824D02*
X044730Y023824D01*
X044752Y023845D02*
X044693Y023786D01*
X044693Y023704D01*
X044693Y022686D01*
X044693Y022604D01*
X044752Y022545D01*
X046435Y022545D01*
X046493Y022604D01*
X046493Y023786D01*
X046435Y023845D01*
X044752Y023845D01*
X044693Y023725D02*
X044226Y023725D01*
X044090Y023627D02*
X044693Y023627D01*
X044693Y023528D02*
X042824Y023528D01*
X042828Y023627D02*
X043897Y023627D01*
X043760Y023725D02*
X042798Y023725D01*
X042718Y023824D02*
X043714Y023824D01*
X043708Y023922D02*
X040019Y023922D01*
X040099Y023824D02*
X042369Y023824D01*
X042289Y023725D02*
X040128Y023725D01*
X040123Y023627D02*
X042258Y023627D01*
X042263Y023528D02*
X040079Y023528D01*
X039947Y023430D02*
X042306Y023430D01*
X042781Y023430D02*
X044693Y023430D01*
X044693Y022740D02*
X044146Y022740D01*
X044241Y022642D02*
X044693Y022642D01*
X044495Y022346D02*
X047508Y022346D01*
X047508Y022445D02*
X044278Y022445D01*
X044278Y022543D02*
X047546Y022543D01*
X047644Y022642D02*
X046493Y022642D01*
X046493Y022740D02*
X048049Y022740D01*
X048008Y022839D02*
X046493Y022839D01*
X046493Y022937D02*
X048008Y022937D01*
X048043Y023036D02*
X046493Y023036D01*
X046493Y023134D02*
X048129Y023134D01*
X048053Y023233D02*
X046493Y023233D01*
X046493Y023331D02*
X048011Y023331D01*
X048008Y023430D02*
X046493Y023430D01*
X046493Y023528D02*
X048040Y023528D01*
X048122Y023627D02*
X046493Y023627D01*
X046493Y023725D02*
X048560Y023725D01*
X048514Y023824D02*
X046456Y023824D01*
X045855Y024803D02*
X045750Y024760D01*
X045637Y024760D01*
X045532Y024803D01*
X045452Y024884D01*
X045408Y024988D01*
X045408Y025102D01*
X045452Y025206D01*
X045532Y025287D01*
X045637Y025330D01*
X045750Y025330D01*
X045855Y025287D01*
X045935Y025206D01*
X045978Y025102D01*
X045978Y024988D01*
X045935Y024884D01*
X045855Y024803D01*
X045860Y024809D02*
X055993Y024809D01*
X055993Y024907D02*
X045945Y024907D01*
X045978Y025006D02*
X055993Y025006D01*
X055993Y025104D02*
X045977Y025104D01*
X045937Y025203D02*
X055993Y025203D01*
X055993Y025301D02*
X045820Y025301D01*
X045567Y025301D02*
X024429Y025301D01*
X024328Y025400D02*
X055993Y025400D01*
X055993Y025498D02*
X024227Y025498D01*
X024126Y025597D02*
X028163Y025597D01*
X028163Y025591D02*
X028239Y025515D01*
X028347Y025515D01*
X030497Y025515D01*
X030573Y025591D01*
X030573Y029399D01*
X030497Y029475D01*
X030397Y029575D01*
X030047Y029575D01*
X029723Y029899D01*
X029723Y031549D01*
X029647Y031625D01*
X028239Y031625D01*
X028163Y031549D01*
X028163Y025591D01*
X028163Y025695D02*
X024025Y025695D01*
X023924Y025794D02*
X028163Y025794D01*
X028163Y025892D02*
X023823Y025892D01*
X023722Y025991D02*
X028163Y025991D01*
X028163Y026089D02*
X023620Y026089D01*
X023519Y026188D02*
X028163Y026188D01*
X028163Y026286D02*
X023418Y026286D01*
X023317Y026385D02*
X028163Y026385D01*
X028163Y026483D02*
X023216Y026483D01*
X023115Y026582D02*
X028163Y026582D01*
X028163Y026680D02*
X023014Y026680D01*
X022913Y026779D02*
X028163Y026779D01*
X028163Y026877D02*
X022812Y026877D01*
X022793Y026976D02*
X028163Y026976D01*
X028163Y027074D02*
X022793Y027074D01*
X022793Y027173D02*
X028163Y027173D01*
X028163Y027271D02*
X022793Y027271D01*
X022793Y027370D02*
X028163Y027370D01*
X028163Y027468D02*
X022793Y027468D01*
X022793Y027567D02*
X028163Y027567D01*
X028163Y027665D02*
X022793Y027665D01*
X022793Y027764D02*
X028163Y027764D01*
X028163Y027862D02*
X022793Y027862D01*
X022793Y027961D02*
X028163Y027961D01*
X028163Y028059D02*
X022793Y028059D01*
X022793Y028158D02*
X028163Y028158D01*
X028163Y028256D02*
X022793Y028256D01*
X022793Y028355D02*
X028163Y028355D01*
X028163Y028453D02*
X022793Y028453D01*
X022793Y028552D02*
X028163Y028552D01*
X028163Y028650D02*
X022793Y028650D01*
X022793Y028749D02*
X023544Y028749D01*
X023532Y028753D02*
X023637Y028710D01*
X023750Y028710D01*
X023855Y028753D01*
X023935Y028834D01*
X023978Y028938D01*
X023978Y029052D01*
X023935Y029156D01*
X023855Y029237D01*
X023750Y029280D01*
X023637Y029280D01*
X023532Y029237D01*
X023452Y029156D01*
X023408Y029052D01*
X023408Y028938D01*
X023452Y028834D01*
X023532Y028753D01*
X023446Y028847D02*
X022793Y028847D01*
X022793Y028946D02*
X023408Y028946D01*
X023408Y029044D02*
X022793Y029044D01*
X022793Y029143D02*
X023446Y029143D01*
X023543Y029241D02*
X021893Y029241D01*
X021893Y029340D02*
X028163Y029340D01*
X028163Y029438D02*
X021893Y029438D01*
X021893Y029537D02*
X028163Y029537D01*
X028163Y029635D02*
X021893Y029635D01*
X021893Y029734D02*
X028163Y029734D01*
X028163Y029832D02*
X021893Y029832D01*
X021893Y029931D02*
X028163Y029931D01*
X028163Y030029D02*
X021893Y030029D01*
X021893Y030128D02*
X028163Y030128D01*
X028163Y030226D02*
X021893Y030226D01*
X021893Y030325D02*
X028163Y030325D01*
X028163Y030423D02*
X021893Y030423D01*
X021893Y030522D02*
X028163Y030522D01*
X028163Y030620D02*
X021893Y030620D01*
X021893Y030719D02*
X028163Y030719D01*
X028163Y030817D02*
X021893Y030817D01*
X021893Y030916D02*
X028163Y030916D01*
X028163Y031014D02*
X021893Y031014D01*
X021893Y031113D02*
X028163Y031113D01*
X028163Y031211D02*
X021893Y031211D01*
X021893Y031310D02*
X028163Y031310D01*
X028163Y031408D02*
X021893Y031408D01*
X021893Y031507D02*
X028163Y031507D01*
X028220Y031605D02*
X023656Y031605D01*
X023655Y031603D02*
X023735Y031684D01*
X023778Y031788D01*
X023778Y031902D01*
X023735Y032006D01*
X023655Y032087D01*
X023550Y032130D01*
X023437Y032130D01*
X023332Y032087D01*
X023252Y032006D01*
X023208Y031902D01*
X023208Y031788D01*
X023252Y031684D01*
X023332Y031603D01*
X023437Y031560D01*
X023550Y031560D01*
X023655Y031603D01*
X023743Y031704D02*
X031483Y031704D01*
X031473Y031714D02*
X031712Y031474D01*
X032024Y031345D01*
X032362Y031345D01*
X032675Y031474D01*
X032914Y031714D01*
X033043Y032026D01*
X033043Y032364D01*
X032914Y032676D01*
X032675Y032916D01*
X032362Y033045D01*
X032024Y033045D01*
X031712Y032916D01*
X031473Y032676D01*
X031343Y032364D01*
X031343Y032026D01*
X031473Y031714D01*
X031436Y031802D02*
X023778Y031802D01*
X023778Y031901D02*
X031395Y031901D01*
X031354Y031999D02*
X023738Y031999D01*
X023628Y032098D02*
X031343Y032098D01*
X031343Y032196D02*
X021893Y032196D01*
X021893Y032098D02*
X023358Y032098D01*
X023249Y031999D02*
X021893Y031999D01*
X021893Y031901D02*
X023208Y031901D01*
X023208Y031802D02*
X021893Y031802D01*
X021893Y031704D02*
X023243Y031704D01*
X023330Y031605D02*
X021893Y031605D01*
X021693Y031605D02*
X019142Y031605D01*
X019129Y031600D02*
X019293Y031668D01*
X019418Y031793D01*
X019486Y031956D01*
X019486Y032134D01*
X019418Y032297D01*
X019293Y032422D01*
X019129Y032490D01*
X018952Y032490D01*
X018788Y032422D01*
X018663Y032297D01*
X018595Y032134D01*
X018595Y031956D01*
X018663Y031793D01*
X018788Y031668D01*
X018952Y031600D01*
X019129Y031600D01*
X019129Y031490D02*
X018952Y031490D01*
X018788Y031422D01*
X018663Y031297D01*
X018595Y031134D01*
X018595Y030956D01*
X018663Y030793D01*
X018788Y030668D01*
X018952Y030600D01*
X019129Y030600D01*
X019293Y030668D01*
X019418Y030793D01*
X019486Y030956D01*
X019486Y031134D01*
X019418Y031297D01*
X019293Y031422D01*
X019129Y031490D01*
X019307Y031408D02*
X019774Y031408D01*
X019788Y031422D02*
X019663Y031297D01*
X019595Y031134D01*
X019595Y030956D01*
X019663Y030793D01*
X019788Y030668D01*
X019952Y030600D01*
X020129Y030600D01*
X020293Y030668D01*
X020418Y030793D01*
X020486Y030956D01*
X020486Y031134D01*
X020418Y031297D01*
X020293Y031422D01*
X020129Y031490D01*
X019952Y031490D01*
X019788Y031422D01*
X019675Y031310D02*
X019406Y031310D01*
X019454Y031211D02*
X019627Y031211D01*
X019595Y031113D02*
X019486Y031113D01*
X019486Y031014D02*
X019595Y031014D01*
X019612Y030916D02*
X019469Y030916D01*
X019428Y030817D02*
X019653Y030817D01*
X019737Y030719D02*
X019344Y030719D01*
X019178Y030620D02*
X019903Y030620D01*
X020178Y030620D02*
X021693Y030620D01*
X021693Y030522D02*
X007393Y030522D01*
X007393Y030620D02*
X009786Y030620D01*
X009687Y030719D02*
X007393Y030719D01*
X007393Y030817D02*
X008937Y030817D01*
X008716Y030916D02*
X007393Y030916D01*
X007393Y031014D02*
X008618Y031014D01*
X008527Y031113D02*
X007393Y031113D01*
X007393Y031211D02*
X008486Y031211D01*
X008445Y031310D02*
X007393Y031310D01*
X007393Y031408D02*
X008426Y031408D01*
X008455Y031704D02*
X007393Y031704D01*
X007393Y031802D02*
X008496Y031802D01*
X008542Y031901D02*
X007393Y031901D01*
X007393Y031999D02*
X008641Y031999D01*
X008755Y032098D02*
X007393Y032098D01*
X007393Y032196D02*
X016993Y032196D01*
X016993Y032098D02*
X013191Y032098D01*
X013306Y031999D02*
X016993Y031999D01*
X016993Y031901D02*
X013404Y031901D01*
X013451Y031802D02*
X016993Y031802D01*
X016993Y031704D02*
X013492Y031704D01*
X013521Y031605D02*
X016922Y031605D01*
X016824Y031507D02*
X013521Y031507D01*
X013521Y031408D02*
X016725Y031408D01*
X016627Y031310D02*
X013501Y031310D01*
X013461Y031211D02*
X016528Y031211D01*
X016430Y031113D02*
X013420Y031113D01*
X013329Y031014D02*
X016331Y031014D01*
X016233Y030916D02*
X013230Y030916D01*
X012416Y030916D02*
X011380Y030916D01*
X011479Y031014D02*
X012318Y031014D01*
X012227Y031113D02*
X011570Y031113D01*
X011611Y031211D02*
X012186Y031211D01*
X012145Y031310D02*
X011651Y031310D01*
X011671Y031408D02*
X012126Y031408D01*
X012126Y031507D02*
X011671Y031507D01*
X011671Y031605D02*
X012126Y031605D01*
X012155Y031704D02*
X011642Y031704D01*
X011601Y031802D02*
X012196Y031802D01*
X012242Y031901D02*
X011554Y031901D01*
X011456Y031999D02*
X012341Y031999D01*
X012455Y032098D02*
X011341Y032098D01*
X010605Y032098D02*
X009491Y032098D01*
X009606Y031999D02*
X010491Y031999D01*
X010392Y031901D02*
X009704Y031901D01*
X009751Y031802D02*
X010346Y031802D01*
X010305Y031704D02*
X009792Y031704D01*
X009595Y030916D02*
X009530Y030916D01*
X009632Y030817D02*
X009309Y030817D01*
X009788Y030372D02*
X009663Y030247D01*
X009595Y030084D01*
X009595Y029906D01*
X009663Y029743D01*
X009788Y029618D01*
X009952Y029550D01*
X010129Y029550D01*
X010293Y029618D01*
X010418Y029743D01*
X010486Y029906D01*
X010486Y030084D01*
X010418Y030247D01*
X010293Y030372D01*
X010129Y030440D01*
X009952Y030440D01*
X009788Y030372D01*
X009740Y030325D02*
X007393Y030325D01*
X007393Y030423D02*
X009910Y030423D01*
X010171Y030423D02*
X021693Y030423D01*
X021693Y030325D02*
X016162Y030325D01*
X016112Y030345D02*
X015774Y030345D01*
X015462Y030216D01*
X015223Y029976D01*
X015093Y029664D01*
X015093Y029326D01*
X015223Y029014D01*
X015462Y028774D01*
X015774Y028645D01*
X016112Y028645D01*
X016425Y028774D01*
X016664Y029014D01*
X016793Y029326D01*
X016793Y029664D01*
X016664Y029976D01*
X016425Y030216D01*
X016112Y030345D01*
X016400Y030226D02*
X021693Y030226D01*
X021693Y030128D02*
X016513Y030128D01*
X016611Y030029D02*
X021693Y030029D01*
X021693Y029931D02*
X016683Y029931D01*
X016724Y029832D02*
X021693Y029832D01*
X021693Y029734D02*
X016765Y029734D01*
X016793Y029635D02*
X021693Y029635D01*
X021693Y029537D02*
X019605Y029537D01*
X019500Y029580D01*
X019387Y029580D01*
X019282Y029537D01*
X019202Y029456D01*
X019158Y029352D01*
X019158Y029238D01*
X019202Y029134D01*
X019282Y029053D01*
X019387Y029010D01*
X019500Y029010D01*
X019605Y029053D01*
X019685Y029134D01*
X019728Y029238D01*
X019728Y029352D01*
X019685Y029456D01*
X019605Y029537D01*
X019693Y029438D02*
X021693Y029438D01*
X021693Y029340D02*
X019728Y029340D01*
X019728Y029241D02*
X021693Y029241D01*
X021693Y029143D02*
X019689Y029143D01*
X019582Y029044D02*
X021693Y029044D01*
X021693Y028946D02*
X018428Y028946D01*
X018428Y028938D02*
X018385Y028834D01*
X018305Y028753D01*
X018200Y028710D01*
X018087Y028710D01*
X017982Y028753D01*
X017902Y028834D01*
X017858Y028938D01*
X017858Y029052D01*
X017902Y029156D01*
X017982Y029237D01*
X018087Y029280D01*
X018200Y029280D01*
X018305Y029237D01*
X018385Y029156D01*
X018428Y029052D01*
X018428Y028938D01*
X018391Y028847D02*
X022593Y028847D01*
X022593Y028749D02*
X018293Y028749D01*
X017994Y028749D02*
X016362Y028749D01*
X016497Y028847D02*
X017896Y028847D01*
X017858Y028946D02*
X016596Y028946D01*
X016677Y029044D02*
X017858Y029044D01*
X017896Y029143D02*
X016717Y029143D01*
X016758Y029241D02*
X017993Y029241D01*
X018294Y029241D02*
X019158Y029241D01*
X019158Y029340D02*
X016793Y029340D01*
X016793Y029438D02*
X019194Y029438D01*
X019282Y029537D02*
X016793Y029537D01*
X016125Y028650D02*
X022593Y028650D01*
X022593Y028552D02*
X010134Y028552D01*
X010129Y028550D02*
X010293Y028618D01*
X010418Y028743D01*
X010486Y028906D01*
X010486Y029084D01*
X010418Y029247D01*
X010293Y029372D01*
X010129Y029440D01*
X009952Y029440D01*
X009788Y029372D01*
X009663Y029247D01*
X009595Y029084D01*
X009595Y028906D01*
X009663Y028743D01*
X009788Y028618D01*
X009952Y028550D01*
X010129Y028550D01*
X010129Y028440D02*
X009952Y028440D01*
X009788Y028372D01*
X009663Y028247D01*
X009595Y028084D01*
X009595Y027906D01*
X009663Y027743D01*
X009788Y027618D01*
X009952Y027550D01*
X010129Y027550D01*
X010293Y027618D01*
X010418Y027743D01*
X010486Y027906D01*
X010486Y028084D01*
X010418Y028247D01*
X010293Y028372D01*
X010129Y028440D01*
X010311Y028355D02*
X022593Y028355D01*
X022593Y028453D02*
X007393Y028453D01*
X007393Y028355D02*
X009770Y028355D01*
X009672Y028256D02*
X007393Y028256D01*
X007393Y028158D02*
X009626Y028158D01*
X009595Y028059D02*
X007393Y028059D01*
X007393Y027961D02*
X009595Y027961D01*
X009614Y027862D02*
X007393Y027862D01*
X007393Y027764D02*
X009654Y027764D01*
X009741Y027665D02*
X007393Y027665D01*
X007393Y027567D02*
X009911Y027567D01*
X009952Y027440D02*
X009788Y027372D01*
X009663Y027247D01*
X009595Y027084D01*
X009595Y026906D01*
X009663Y026743D01*
X009788Y026618D01*
X009952Y026550D01*
X010129Y026550D01*
X010293Y026618D01*
X010418Y026743D01*
X010486Y026906D01*
X010486Y027084D01*
X010418Y027247D01*
X010293Y027372D01*
X010129Y027440D01*
X009952Y027440D01*
X009785Y027370D02*
X007393Y027370D01*
X007393Y027468D02*
X022593Y027468D01*
X022593Y027370D02*
X010296Y027370D01*
X010394Y027271D02*
X022593Y027271D01*
X022593Y027173D02*
X010449Y027173D01*
X010486Y027074D02*
X022593Y027074D01*
X022593Y026976D02*
X010486Y026976D01*
X010474Y026877D02*
X022593Y026877D01*
X022610Y026779D02*
X010433Y026779D01*
X010355Y026680D02*
X022711Y026680D01*
X022812Y026582D02*
X010206Y026582D01*
X010129Y026440D02*
X009952Y026440D01*
X009788Y026372D01*
X009663Y026247D01*
X009595Y026084D01*
X009595Y025906D01*
X009663Y025743D01*
X009788Y025618D01*
X009952Y025550D01*
X010129Y025550D01*
X010293Y025618D01*
X010418Y025743D01*
X010486Y025906D01*
X010486Y026084D01*
X010418Y026247D01*
X010293Y026372D01*
X010129Y026440D01*
X010264Y026385D02*
X023014Y026385D01*
X022913Y026483D02*
X007393Y026483D01*
X007393Y026385D02*
X009817Y026385D01*
X009702Y026286D02*
X007393Y026286D01*
X007393Y026188D02*
X009638Y026188D01*
X009598Y026089D02*
X007393Y026089D01*
X007393Y025991D02*
X009595Y025991D01*
X009601Y025892D02*
X007393Y025892D01*
X007393Y025794D02*
X009642Y025794D01*
X009711Y025695D02*
X007393Y025695D01*
X007393Y025597D02*
X009839Y025597D01*
X010242Y025597D02*
X023822Y025597D01*
X023721Y025695D02*
X010370Y025695D01*
X010439Y025794D02*
X023620Y025794D01*
X023519Y025892D02*
X010480Y025892D01*
X010486Y025991D02*
X023418Y025991D01*
X023317Y026089D02*
X010484Y026089D01*
X010443Y026188D02*
X023216Y026188D01*
X023115Y026286D02*
X010379Y026286D01*
X009875Y026582D02*
X007393Y026582D01*
X007393Y026680D02*
X009726Y026680D01*
X009648Y026779D02*
X007393Y026779D01*
X007393Y026877D02*
X009607Y026877D01*
X009595Y026976D02*
X007393Y026976D01*
X007393Y027074D02*
X009595Y027074D01*
X009632Y027173D02*
X007393Y027173D01*
X007393Y027271D02*
X009687Y027271D01*
X010170Y027567D02*
X022593Y027567D01*
X022593Y027665D02*
X010340Y027665D01*
X010427Y027764D02*
X022593Y027764D01*
X022593Y027862D02*
X010467Y027862D01*
X010486Y027961D02*
X022593Y027961D01*
X022593Y028059D02*
X010486Y028059D01*
X010455Y028158D02*
X022593Y028158D01*
X022593Y028256D02*
X010409Y028256D01*
X010325Y028650D02*
X015762Y028650D01*
X015524Y028749D02*
X010420Y028749D01*
X010461Y028847D02*
X015389Y028847D01*
X015291Y028946D02*
X010486Y028946D01*
X010486Y029044D02*
X015210Y029044D01*
X015169Y029143D02*
X010461Y029143D01*
X010421Y029241D02*
X015128Y029241D01*
X015093Y029340D02*
X010326Y029340D01*
X010134Y029438D02*
X015093Y029438D01*
X015093Y029537D02*
X007393Y029537D01*
X007393Y029635D02*
X009771Y029635D01*
X009672Y029734D02*
X007393Y029734D01*
X007393Y029832D02*
X009626Y029832D01*
X009595Y029931D02*
X007393Y029931D01*
X007393Y030029D02*
X009595Y030029D01*
X009613Y030128D02*
X007393Y030128D01*
X007393Y030226D02*
X009654Y030226D01*
X010341Y030325D02*
X015725Y030325D01*
X015487Y030226D02*
X010427Y030226D01*
X010468Y030128D02*
X015374Y030128D01*
X015275Y030029D02*
X010486Y030029D01*
X010486Y029931D02*
X015204Y029931D01*
X015163Y029832D02*
X010455Y029832D01*
X010409Y029734D02*
X015122Y029734D01*
X015093Y029635D02*
X010310Y029635D01*
X009947Y029438D02*
X007393Y029438D01*
X007393Y029340D02*
X009755Y029340D01*
X009661Y029241D02*
X007393Y029241D01*
X007393Y029143D02*
X009620Y029143D01*
X009595Y029044D02*
X007393Y029044D01*
X007393Y028946D02*
X009595Y028946D01*
X009620Y028847D02*
X007393Y028847D01*
X007393Y028749D02*
X009661Y028749D01*
X009756Y028650D02*
X007393Y028650D01*
X007393Y028552D02*
X009948Y028552D01*
X010295Y030620D02*
X017903Y030620D01*
X017952Y030600D02*
X018129Y030600D01*
X018293Y030668D01*
X018418Y030793D01*
X018486Y030956D01*
X018486Y031134D01*
X018418Y031297D01*
X018293Y031422D01*
X018129Y031490D01*
X017952Y031490D01*
X017788Y031422D01*
X017663Y031297D01*
X017595Y031134D01*
X017595Y030956D01*
X017663Y030793D01*
X017788Y030668D01*
X017952Y030600D01*
X018178Y030620D02*
X018903Y030620D01*
X018737Y030719D02*
X018344Y030719D01*
X018428Y030817D02*
X018653Y030817D01*
X018612Y030916D02*
X018469Y030916D01*
X018486Y031014D02*
X018595Y031014D01*
X018595Y031113D02*
X018486Y031113D01*
X018454Y031211D02*
X018627Y031211D01*
X018675Y031310D02*
X018406Y031310D01*
X018307Y031408D02*
X018774Y031408D01*
X018939Y031605D02*
X018142Y031605D01*
X018129Y031600D02*
X018293Y031668D01*
X018418Y031793D01*
X018486Y031956D01*
X018486Y032134D01*
X018418Y032297D01*
X018293Y032422D01*
X018129Y032490D01*
X017952Y032490D01*
X017788Y032422D01*
X017663Y032297D01*
X017595Y032134D01*
X017595Y031956D01*
X017663Y031793D01*
X017788Y031668D01*
X017952Y031600D01*
X018129Y031600D01*
X017939Y031605D02*
X017193Y031605D01*
X017193Y031704D02*
X017752Y031704D01*
X017659Y031802D02*
X017193Y031802D01*
X017193Y031901D02*
X017618Y031901D01*
X017595Y031999D02*
X017193Y031999D01*
X017193Y032098D02*
X017595Y032098D01*
X017621Y032196D02*
X017193Y032196D01*
X017193Y032295D02*
X017662Y032295D01*
X017759Y032393D02*
X017193Y032393D01*
X017193Y032492D02*
X021693Y032492D01*
X021693Y032590D02*
X017193Y032590D01*
X016993Y032590D02*
X016041Y032590D01*
X016005Y032553D02*
X016085Y032634D01*
X016128Y032738D01*
X016128Y032852D01*
X016085Y032956D01*
X016005Y033037D01*
X015900Y033080D01*
X015787Y033080D01*
X015682Y033037D01*
X015602Y032956D01*
X015558Y032852D01*
X015558Y032738D01*
X015602Y032634D01*
X015682Y032553D01*
X015787Y032510D01*
X015900Y032510D01*
X016005Y032553D01*
X016108Y032689D02*
X016993Y032689D01*
X016993Y032787D02*
X016128Y032787D01*
X016114Y032886D02*
X022007Y032886D01*
X022039Y032853D02*
X022144Y032810D01*
X022257Y032810D01*
X022362Y032853D01*
X022442Y032934D01*
X022486Y033038D01*
X022486Y033152D01*
X022442Y033256D01*
X022362Y033337D01*
X022257Y033380D01*
X022144Y033380D01*
X022039Y033337D01*
X021959Y033256D01*
X021916Y033152D01*
X021916Y033038D01*
X021959Y032934D01*
X022039Y032853D01*
X021893Y032787D02*
X031583Y032787D01*
X031485Y032689D02*
X021893Y032689D01*
X021893Y032590D02*
X031437Y032590D01*
X031396Y032492D02*
X021893Y032492D01*
X021893Y032393D02*
X031355Y032393D01*
X031343Y032295D02*
X021893Y032295D01*
X021693Y032295D02*
X019419Y032295D01*
X019460Y032196D02*
X021693Y032196D01*
X021693Y032098D02*
X019486Y032098D01*
X019486Y031999D02*
X021693Y031999D01*
X021693Y031901D02*
X019463Y031901D01*
X019422Y031802D02*
X021693Y031802D01*
X021693Y031704D02*
X019329Y031704D01*
X018752Y031704D02*
X018329Y031704D01*
X018422Y031802D02*
X018659Y031802D01*
X018618Y031901D02*
X018463Y031901D01*
X018486Y031999D02*
X018595Y031999D01*
X018595Y032098D02*
X018486Y032098D01*
X018460Y032196D02*
X018621Y032196D01*
X018662Y032295D02*
X018419Y032295D01*
X018322Y032393D02*
X018759Y032393D01*
X019322Y032393D02*
X021693Y032393D01*
X021938Y032984D02*
X016057Y032984D01*
X015629Y032984D02*
X007393Y032984D01*
X007393Y032886D02*
X015572Y032886D01*
X015558Y032787D02*
X007393Y032787D01*
X007393Y032689D02*
X015579Y032689D01*
X015645Y032590D02*
X007393Y032590D01*
X007393Y032492D02*
X016993Y032492D01*
X016993Y032393D02*
X007393Y032393D01*
X007393Y032295D02*
X016993Y032295D01*
X017156Y031507D02*
X021693Y031507D01*
X021693Y031408D02*
X020307Y031408D01*
X020406Y031310D02*
X021693Y031310D01*
X021693Y031211D02*
X020454Y031211D01*
X020486Y031113D02*
X021693Y031113D01*
X021693Y031014D02*
X020486Y031014D01*
X020469Y030916D02*
X021693Y030916D01*
X021693Y030817D02*
X020428Y030817D01*
X020344Y030719D02*
X021693Y030719D01*
X023844Y029241D02*
X028163Y029241D01*
X028163Y029143D02*
X023941Y029143D01*
X023978Y029044D02*
X028163Y029044D01*
X028163Y028946D02*
X023978Y028946D01*
X023941Y028847D02*
X028163Y028847D01*
X028163Y028749D02*
X023843Y028749D01*
X024530Y025203D02*
X045450Y025203D01*
X045409Y025104D02*
X024631Y025104D01*
X024732Y025006D02*
X045408Y025006D01*
X045442Y024907D02*
X035705Y024907D01*
X035833Y024809D02*
X045527Y024809D01*
X048465Y023627D02*
X048622Y023627D01*
X048144Y022642D02*
X047943Y022642D01*
X048040Y022543D02*
X048046Y022543D01*
X047642Y022149D02*
X047425Y022149D01*
X047537Y022051D02*
X047549Y022051D01*
X047546Y022248D02*
X044559Y022248D01*
X044578Y022149D02*
X047162Y022149D01*
X047049Y022051D02*
X044991Y022051D01*
X045057Y021952D02*
X047008Y021952D01*
X047008Y021854D02*
X045078Y021854D01*
X045065Y021755D02*
X047043Y021755D01*
X047129Y021657D02*
X046907Y021657D01*
X047033Y021558D02*
X047053Y021558D01*
X046680Y021657D02*
X045008Y021657D01*
X044933Y021558D02*
X046553Y021558D01*
X046512Y021460D02*
X045004Y021460D01*
X045028Y021361D02*
X046508Y021361D01*
X046540Y021263D02*
X045018Y021263D01*
X044965Y021164D02*
X046198Y021164D01*
X046061Y021066D02*
X044813Y021066D01*
X044673Y021066D02*
X040123Y021066D01*
X040128Y020967D02*
X046015Y020967D01*
X046008Y020869D02*
X040099Y020869D01*
X040077Y021164D02*
X044521Y021164D01*
X045018Y020573D02*
X045068Y020573D01*
X045106Y020179D02*
X044980Y020179D01*
X045480Y020179D02*
X045606Y020179D01*
X045980Y020179D02*
X046106Y020179D01*
X046480Y020179D02*
X046606Y020179D01*
X046980Y020179D02*
X047106Y020179D01*
X047480Y020179D02*
X047606Y020179D01*
X046561Y021066D02*
X046526Y021066D01*
X046621Y021164D02*
X046389Y021164D01*
X046068Y020573D02*
X046018Y020573D01*
X045568Y020573D02*
X045518Y020573D01*
X044076Y020081D02*
X030330Y020081D01*
X030330Y019982D02*
X044021Y019982D01*
X044008Y019884D02*
X030294Y019884D01*
X030230Y019785D02*
X044030Y019785D01*
X044099Y019687D02*
X030087Y019687D01*
X029799Y019687D02*
X029693Y019687D01*
X029693Y019588D02*
X044083Y019588D01*
X044024Y019490D02*
X031395Y019490D01*
X031362Y019522D02*
X031220Y019581D01*
X031066Y019581D01*
X030925Y019522D01*
X030816Y019414D01*
X030757Y019272D01*
X030757Y019118D01*
X030816Y018976D01*
X030925Y018868D01*
X031066Y018809D01*
X031220Y018809D01*
X031362Y018868D01*
X031471Y018976D01*
X031530Y019118D01*
X031530Y019272D01*
X031471Y019414D01*
X031362Y019522D01*
X031480Y019391D02*
X044008Y019391D01*
X044027Y019293D02*
X038440Y019293D01*
X038455Y019287D02*
X038350Y019330D01*
X038237Y019330D01*
X038132Y019287D01*
X038052Y019206D01*
X038008Y019102D01*
X038008Y018988D01*
X038052Y018884D01*
X038132Y018803D01*
X038237Y018760D01*
X038350Y018760D01*
X038455Y018803D01*
X038535Y018884D01*
X038578Y018988D01*
X038578Y019102D01*
X038535Y019206D01*
X038455Y019287D01*
X038540Y019194D02*
X044091Y019194D01*
X044091Y019096D02*
X038578Y019096D01*
X038578Y018997D02*
X040007Y018997D01*
X039982Y018987D02*
X039918Y018923D01*
X039905Y018937D01*
X039800Y018980D01*
X039687Y018980D01*
X039582Y018937D01*
X039502Y018856D01*
X039458Y018752D01*
X039458Y018638D01*
X039502Y018534D01*
X039582Y018453D01*
X039687Y018410D01*
X039800Y018410D01*
X039905Y018453D01*
X039968Y018517D01*
X039982Y018503D01*
X040087Y018460D01*
X040200Y018460D01*
X040305Y018503D01*
X040385Y018584D01*
X040428Y018688D01*
X040428Y018802D01*
X040385Y018906D01*
X040305Y018987D01*
X040200Y019030D01*
X040087Y019030D01*
X039982Y018987D01*
X040280Y018997D02*
X044027Y018997D01*
X044008Y018899D02*
X040388Y018899D01*
X040428Y018800D02*
X044024Y018800D01*
X044084Y018702D02*
X040428Y018702D01*
X040393Y018603D02*
X043598Y018603D01*
X043530Y018505D02*
X040306Y018505D01*
X039981Y018505D02*
X039956Y018505D01*
X039531Y018505D02*
X039114Y018505D01*
X039128Y018538D02*
X039085Y018434D01*
X039005Y018353D01*
X038900Y018310D01*
X038787Y018310D01*
X038682Y018353D01*
X038602Y018434D01*
X038558Y018538D01*
X038558Y018652D01*
X038602Y018756D01*
X038682Y018837D01*
X038787Y018880D01*
X038900Y018880D01*
X039005Y018837D01*
X039085Y018756D01*
X039128Y018652D01*
X039128Y018538D01*
X039128Y018603D02*
X039473Y018603D01*
X039458Y018702D02*
X039108Y018702D01*
X039041Y018800D02*
X039478Y018800D01*
X039544Y018899D02*
X038541Y018899D01*
X038447Y018800D02*
X038645Y018800D01*
X038579Y018702D02*
X037650Y018702D01*
X037655Y018703D02*
X037735Y018784D01*
X037778Y018888D01*
X037778Y019002D01*
X037735Y019106D01*
X037655Y019187D01*
X037550Y019230D01*
X037437Y019230D01*
X037332Y019187D01*
X037252Y019106D01*
X037208Y019002D01*
X037208Y018888D01*
X037252Y018784D01*
X037332Y018703D01*
X037437Y018660D01*
X037550Y018660D01*
X037655Y018703D01*
X037742Y018800D02*
X038140Y018800D01*
X038045Y018899D02*
X037778Y018899D01*
X037778Y018997D02*
X038008Y018997D01*
X038008Y019096D02*
X037739Y019096D01*
X037637Y019194D02*
X038047Y019194D01*
X038146Y019293D02*
X031521Y019293D01*
X031530Y019194D02*
X037350Y019194D01*
X037247Y019096D02*
X031520Y019096D01*
X031479Y018997D02*
X037208Y018997D01*
X037208Y018899D02*
X031393Y018899D01*
X030894Y018899D02*
X029693Y018899D01*
X029693Y018997D02*
X030807Y018997D01*
X030766Y019096D02*
X029693Y019096D01*
X029693Y019194D02*
X030757Y019194D01*
X030766Y019293D02*
X029693Y019293D01*
X029693Y019391D02*
X030806Y019391D01*
X030892Y019490D02*
X029693Y019490D01*
X029493Y019391D02*
X029248Y019391D01*
X029373Y019293D02*
X029493Y019293D01*
X029493Y019194D02*
X029440Y019194D01*
X029481Y019096D02*
X029493Y019096D01*
X029486Y018997D02*
X029493Y018997D01*
X029483Y018899D02*
X029493Y018899D01*
X029493Y018800D02*
X029442Y018800D01*
X029493Y018702D02*
X029377Y018702D01*
X029693Y018702D02*
X037336Y018702D01*
X037245Y018800D02*
X029693Y018800D01*
X029693Y018603D02*
X038558Y018603D01*
X038572Y018505D02*
X029693Y018505D01*
X029693Y018406D02*
X038629Y018406D01*
X039057Y018406D02*
X043508Y018406D01*
X043521Y018308D02*
X029693Y018308D01*
X029693Y018209D02*
X043576Y018209D01*
X043606Y018111D02*
X029693Y018111D01*
X029693Y018012D02*
X043533Y018012D01*
X043508Y017914D02*
X029693Y017914D01*
X029693Y017815D02*
X043518Y017815D01*
X043569Y017717D02*
X029693Y017717D01*
X029693Y017618D02*
X043613Y017618D01*
X043536Y017520D02*
X029693Y017520D01*
X029693Y017421D02*
X043508Y017421D01*
X043515Y017323D02*
X029693Y017323D01*
X029693Y017224D02*
X038219Y017224D01*
X038232Y017237D02*
X038152Y017156D01*
X038108Y017052D01*
X038108Y016938D01*
X038152Y016834D01*
X038232Y016753D01*
X038337Y016710D01*
X038450Y016710D01*
X038555Y016753D01*
X038635Y016834D01*
X038678Y016938D01*
X038678Y017052D01*
X038635Y017156D01*
X038555Y017237D01*
X038450Y017280D01*
X038337Y017280D01*
X038232Y017237D01*
X038139Y017126D02*
X037766Y017126D01*
X037755Y017137D02*
X037650Y017180D01*
X037537Y017180D01*
X037432Y017137D01*
X037352Y017056D01*
X037308Y016952D01*
X037308Y016838D01*
X037352Y016734D01*
X037432Y016653D01*
X037537Y016610D01*
X037650Y016610D01*
X037755Y016653D01*
X037835Y016734D01*
X037878Y016838D01*
X037878Y016952D01*
X037835Y017056D01*
X037755Y017137D01*
X037847Y017027D02*
X038108Y017027D01*
X038112Y016929D02*
X037878Y016929D01*
X037875Y016830D02*
X038155Y016830D01*
X038285Y016732D02*
X037833Y016732D01*
X037706Y016633D02*
X038658Y016633D01*
X038660Y016535D02*
X029693Y016535D01*
X029693Y016633D02*
X037481Y016633D01*
X037354Y016732D02*
X029693Y016732D01*
X029693Y016830D02*
X037312Y016830D01*
X037308Y016929D02*
X029693Y016929D01*
X029693Y017027D02*
X037340Y017027D01*
X037421Y017126D02*
X029693Y017126D01*
X029493Y017126D02*
X029468Y017126D01*
X029486Y017027D02*
X029493Y017027D01*
X029486Y016929D02*
X029493Y016929D01*
X029493Y016830D02*
X029454Y016830D01*
X029493Y016732D02*
X029407Y016732D01*
X029428Y017224D02*
X029493Y017224D01*
X029493Y017323D02*
X029343Y017323D01*
X029493Y017421D02*
X029176Y017421D01*
X028906Y017421D02*
X010486Y017421D01*
X010486Y017323D02*
X028738Y017323D01*
X028653Y017224D02*
X010452Y017224D01*
X010401Y017126D02*
X028613Y017126D01*
X028595Y018012D02*
X010280Y018012D01*
X010386Y018111D02*
X015235Y018111D01*
X015351Y018111D02*
X028606Y018111D01*
X028647Y018209D02*
X015510Y018209D01*
X015566Y018308D02*
X028723Y018308D01*
X028869Y018406D02*
X015578Y018406D01*
X015076Y018209D02*
X010445Y018209D01*
X009695Y018111D02*
X007393Y018111D01*
X007393Y018209D02*
X009636Y018209D01*
X009595Y018308D02*
X007393Y018308D01*
X007393Y018406D02*
X009595Y018406D01*
X009604Y018505D02*
X007393Y018505D01*
X007393Y018603D02*
X009645Y018603D01*
X009717Y018702D02*
X007393Y018702D01*
X007393Y018800D02*
X009855Y018800D01*
X010243Y018997D02*
X028595Y018997D01*
X028599Y018899D02*
X013794Y018899D01*
X013916Y018800D02*
X028639Y018800D01*
X028600Y019096D02*
X010371Y019096D01*
X010439Y019194D02*
X028641Y019194D01*
X028708Y019293D02*
X010480Y019293D01*
X009725Y020081D02*
X007393Y020081D01*
X007393Y020179D02*
X009648Y020179D01*
X009607Y020278D02*
X007393Y020278D01*
X007393Y020376D02*
X009595Y020376D01*
X009595Y020475D02*
X007393Y020475D01*
X007393Y020573D02*
X009632Y020573D01*
X009687Y020672D02*
X007393Y020672D01*
X007393Y020770D02*
X009786Y020770D01*
X009910Y020967D02*
X007393Y020967D01*
X007393Y020869D02*
X028611Y020869D01*
X028595Y020967D02*
X010171Y020967D01*
X010341Y021066D02*
X028595Y021066D01*
X028629Y021164D02*
X010427Y021164D01*
X010468Y021263D02*
X028678Y021263D01*
X028777Y021361D02*
X010486Y021361D01*
X010409Y021657D02*
X028749Y021657D01*
X028658Y021755D02*
X010310Y021755D01*
X010421Y022149D02*
X028294Y022149D01*
X028135Y022248D02*
X010461Y022248D01*
X010486Y022346D02*
X028068Y022346D01*
X028036Y022445D02*
X010486Y022445D01*
X010461Y022543D02*
X028036Y022543D01*
X028067Y022642D02*
X010420Y022642D01*
X010325Y022740D02*
X028132Y022740D01*
X028288Y022839D02*
X010133Y022839D01*
X009779Y023627D02*
X007393Y023627D01*
X007393Y023725D02*
X009681Y023725D01*
X009630Y023824D02*
X007393Y023824D01*
X007393Y023922D02*
X009595Y023922D01*
X009595Y024021D02*
X007393Y024021D01*
X007393Y024119D02*
X009610Y024119D01*
X009651Y024218D02*
X007393Y024218D01*
X007393Y024316D02*
X009732Y024316D01*
X009771Y021755D02*
X007393Y021755D01*
X007393Y021657D02*
X009672Y021657D01*
X009626Y021558D02*
X007393Y021558D01*
X007393Y021460D02*
X009595Y021460D01*
X009595Y021361D02*
X007393Y021361D01*
X007393Y021263D02*
X009613Y021263D01*
X009654Y021164D02*
X007393Y021164D01*
X007393Y021066D02*
X009740Y021066D01*
X010295Y020770D02*
X028652Y020770D01*
X028734Y020672D02*
X010394Y020672D01*
X009927Y016830D02*
X007393Y016830D01*
X007393Y016732D02*
X009747Y016732D01*
X009657Y016633D02*
X007393Y016633D01*
X007393Y016535D02*
X009616Y016535D01*
X009595Y016436D02*
X007393Y016436D01*
X007393Y016338D02*
X009595Y016338D01*
X009623Y016239D02*
X007393Y016239D01*
X007393Y016141D02*
X009665Y016141D01*
X009764Y016042D02*
X007393Y016042D01*
X010387Y013678D02*
X015193Y013678D01*
X015193Y013580D02*
X010446Y013580D01*
X010486Y013481D02*
X015193Y013481D01*
X015193Y013383D02*
X010486Y013383D01*
X010477Y013284D02*
X013627Y013284D01*
X013432Y013186D02*
X010436Y013186D01*
X010362Y013087D02*
X013333Y013087D01*
X013235Y012989D02*
X010223Y012989D01*
X011010Y011905D02*
X013331Y011905D01*
X013430Y011807D02*
X011135Y011807D01*
X011176Y011708D02*
X013622Y011708D01*
X014265Y011708D02*
X015193Y011708D01*
X015193Y011610D02*
X011178Y011610D01*
X011146Y011511D02*
X015193Y011511D01*
X015193Y011413D02*
X011064Y011413D01*
X011887Y011113D02*
X011823Y010959D01*
X011823Y010791D01*
X011887Y010637D01*
X012005Y010519D01*
X012160Y010455D01*
X012327Y010455D01*
X012481Y010519D01*
X012599Y010637D01*
X012663Y010791D01*
X012663Y010959D01*
X012599Y011113D01*
X012481Y011231D01*
X012327Y011295D01*
X012160Y011295D01*
X012005Y011231D01*
X011887Y011113D01*
X011891Y011117D02*
X009079Y011117D01*
X009120Y011019D02*
X011848Y011019D01*
X011823Y010920D02*
X009127Y010920D01*
X009127Y010822D02*
X010717Y010822D01*
X010638Y010723D02*
X009100Y010723D01*
X009059Y010625D02*
X010608Y010625D01*
X010613Y010526D02*
X008979Y010526D01*
X008860Y010428D02*
X010658Y010428D01*
X011129Y010428D02*
X015193Y010428D01*
X015193Y010526D02*
X012488Y010526D01*
X012587Y010625D02*
X015193Y010625D01*
X015193Y010723D02*
X012635Y010723D01*
X012663Y010822D02*
X015193Y010822D01*
X015193Y010920D02*
X012663Y010920D01*
X012638Y011019D02*
X015193Y011019D01*
X015193Y011117D02*
X012595Y011117D01*
X012497Y011216D02*
X015193Y011216D01*
X015193Y011314D02*
X008929Y011314D01*
X009028Y011216D02*
X011990Y011216D01*
X011823Y010822D02*
X011070Y010822D01*
X011149Y010723D02*
X011852Y010723D01*
X011900Y010625D02*
X011178Y010625D01*
X011173Y010526D02*
X011998Y010526D01*
X009678Y009738D02*
X015193Y009738D01*
X015193Y009640D02*
X009678Y009640D01*
X009638Y009541D02*
X015193Y009541D01*
X015193Y009443D02*
X009528Y009443D01*
X009643Y009837D02*
X015193Y009837D01*
X015193Y009935D02*
X009556Y009935D01*
X014457Y011807D02*
X015193Y011807D01*
X015193Y011905D02*
X014555Y011905D01*
X014654Y012004D02*
X015193Y012004D01*
X015193Y012102D02*
X014701Y012102D01*
X014741Y012201D02*
X015193Y012201D01*
X015193Y012299D02*
X014782Y012299D01*
X014793Y012398D02*
X015193Y012398D01*
X015193Y012496D02*
X014793Y012496D01*
X014793Y012595D02*
X015193Y012595D01*
X015193Y012693D02*
X014781Y012693D01*
X014741Y012792D02*
X015193Y012792D01*
X015193Y012890D02*
X014700Y012890D01*
X014652Y012989D02*
X015193Y012989D01*
X015193Y013087D02*
X014553Y013087D01*
X014455Y013186D02*
X015193Y013186D01*
X015193Y013284D02*
X014260Y013284D01*
X015393Y013284D02*
X032658Y013284D01*
X032617Y013186D02*
X015393Y013186D01*
X015393Y013087D02*
X032596Y013087D01*
X032596Y013134D02*
X032596Y012856D01*
X032702Y012600D01*
X032898Y012404D01*
X033155Y012298D01*
X033432Y012298D01*
X033688Y012404D01*
X033885Y012600D01*
X033991Y012856D01*
X033991Y013134D01*
X033885Y013390D01*
X033688Y013586D01*
X033432Y013692D01*
X033155Y013692D01*
X032898Y013586D01*
X032702Y013390D01*
X032596Y013134D01*
X032596Y012989D02*
X015393Y012989D01*
X015393Y012890D02*
X032596Y012890D01*
X032623Y012792D02*
X015393Y012792D01*
X015393Y012693D02*
X032663Y012693D01*
X032707Y012595D02*
X015393Y012595D01*
X015393Y012496D02*
X032806Y012496D01*
X032913Y012398D02*
X015393Y012398D01*
X015393Y012299D02*
X033151Y012299D01*
X033436Y012299D02*
X040651Y012299D01*
X040655Y012298D02*
X040932Y012298D01*
X041188Y012404D01*
X041385Y012600D01*
X041491Y012856D01*
X041491Y013134D01*
X041385Y013390D01*
X041188Y013586D01*
X040932Y013692D01*
X040655Y013692D01*
X040398Y013586D01*
X040202Y013390D01*
X040096Y013134D01*
X040096Y012856D01*
X040202Y012600D01*
X040398Y012404D01*
X040655Y012298D01*
X040413Y012398D02*
X033674Y012398D01*
X033781Y012496D02*
X040306Y012496D01*
X040207Y012595D02*
X033879Y012595D01*
X033923Y012693D02*
X040163Y012693D01*
X040123Y012792D02*
X033964Y012792D01*
X033991Y012890D02*
X040096Y012890D01*
X040096Y012989D02*
X033991Y012989D01*
X033991Y013087D02*
X040096Y013087D01*
X040117Y013186D02*
X033969Y013186D01*
X033929Y013284D02*
X040158Y013284D01*
X040199Y013383D02*
X033888Y013383D01*
X033794Y013481D02*
X040293Y013481D01*
X040391Y013580D02*
X033695Y013580D01*
X033467Y013678D02*
X040620Y013678D01*
X040967Y013678D02*
X046337Y013678D01*
X046338Y013678D02*
X046050Y013559D01*
X045829Y013339D01*
X045710Y013051D01*
X045710Y012739D01*
X045829Y012451D01*
X046050Y012231D01*
X046338Y012112D01*
X046649Y012112D01*
X046937Y012231D01*
X047157Y012451D01*
X047276Y012739D01*
X047276Y013051D01*
X047157Y013339D01*
X046937Y013559D01*
X046649Y013678D01*
X046338Y013678D01*
X046100Y013580D02*
X041195Y013580D01*
X041294Y013481D02*
X045972Y013481D01*
X045873Y013383D02*
X041388Y013383D01*
X041429Y013284D02*
X045807Y013284D01*
X045766Y013186D02*
X041469Y013186D01*
X041491Y013087D02*
X045725Y013087D01*
X045710Y012989D02*
X041491Y012989D01*
X041491Y012890D02*
X045710Y012890D01*
X045710Y012792D02*
X041464Y012792D01*
X041423Y012693D02*
X045729Y012693D01*
X045770Y012595D02*
X041379Y012595D01*
X041281Y012496D02*
X045811Y012496D01*
X045883Y012398D02*
X041174Y012398D01*
X040936Y012299D02*
X045982Y012299D01*
X046124Y012201D02*
X015393Y012201D01*
X015393Y012102D02*
X053936Y012102D01*
X053973Y012014D02*
X054212Y011774D01*
X054524Y011645D01*
X054862Y011645D01*
X055175Y011774D01*
X055414Y012014D01*
X055543Y012326D01*
X055543Y012664D01*
X055414Y012976D01*
X055175Y013216D01*
X054862Y013345D01*
X054524Y013345D01*
X054212Y013216D01*
X053973Y012976D01*
X053843Y012664D01*
X053843Y012326D01*
X053973Y012014D01*
X053983Y012004D02*
X020381Y012004D01*
X020362Y012022D02*
X020471Y011914D01*
X020530Y011772D01*
X020530Y011618D01*
X020471Y011476D01*
X020362Y011368D01*
X020220Y011309D01*
X020066Y011309D01*
X019925Y011368D01*
X019816Y011476D01*
X019757Y011618D01*
X019757Y011772D01*
X019816Y011914D01*
X019925Y012022D01*
X020066Y012081D01*
X020220Y012081D01*
X020362Y012022D01*
X020474Y011905D02*
X054081Y011905D01*
X054180Y011807D02*
X020515Y011807D01*
X020530Y011708D02*
X054372Y011708D01*
X055015Y011708D02*
X055993Y011708D01*
X055993Y011610D02*
X052130Y011610D01*
X051961Y011680D02*
X052314Y011533D01*
X052584Y011263D01*
X052730Y010910D01*
X052730Y010528D01*
X052584Y010175D01*
X052314Y009905D01*
X051961Y009759D01*
X051579Y009759D01*
X051226Y009905D01*
X050956Y010175D01*
X050809Y010528D01*
X050809Y010910D01*
X050956Y011263D01*
X051226Y011533D01*
X051579Y011680D01*
X051961Y011680D01*
X052336Y011511D02*
X055993Y011511D01*
X055993Y011413D02*
X052435Y011413D01*
X052533Y011314D02*
X055993Y011314D01*
X055993Y011216D02*
X052604Y011216D01*
X052644Y011117D02*
X055993Y011117D01*
X055993Y011019D02*
X052685Y011019D01*
X052726Y010920D02*
X055993Y010920D01*
X055993Y010822D02*
X052730Y010822D01*
X052730Y010723D02*
X055993Y010723D01*
X055993Y010625D02*
X052730Y010625D01*
X052729Y010526D02*
X055993Y010526D01*
X055993Y010428D02*
X052688Y010428D01*
X052647Y010329D02*
X055993Y010329D01*
X055993Y010231D02*
X052607Y010231D01*
X052540Y010132D02*
X055993Y010132D01*
X055993Y010034D02*
X052442Y010034D01*
X052343Y009935D02*
X055993Y009935D01*
X055993Y009837D02*
X052147Y009837D01*
X051392Y009837D02*
X045354Y009837D01*
X045255Y009935D02*
X051196Y009935D01*
X051098Y010034D02*
X045061Y010034D01*
X044912Y010095D02*
X044574Y010095D01*
X044262Y009966D01*
X044023Y009726D01*
X043893Y009414D01*
X043893Y009076D01*
X044023Y008764D01*
X044262Y008524D01*
X044574Y008395D01*
X044912Y008395D01*
X045225Y008524D01*
X045464Y008764D01*
X045593Y009076D01*
X045593Y009414D01*
X045464Y009726D01*
X045225Y009966D01*
X044912Y010095D01*
X044426Y010034D02*
X028193Y010034D01*
X028193Y010005D02*
X028125Y009840D01*
X027998Y009714D01*
X027833Y009645D01*
X027654Y009645D01*
X027488Y009714D01*
X027362Y009840D01*
X027293Y010005D01*
X027293Y010185D01*
X027362Y010350D01*
X027488Y010476D01*
X027654Y010545D01*
X027833Y010545D01*
X027998Y010476D01*
X028125Y010350D01*
X028193Y010185D01*
X028193Y010005D01*
X028164Y009935D02*
X044231Y009935D01*
X044133Y009837D02*
X028121Y009837D01*
X028023Y009738D02*
X044034Y009738D01*
X043987Y009640D02*
X025943Y009640D01*
X025998Y009714D02*
X026125Y009840D01*
X026193Y010005D01*
X026193Y010185D01*
X026125Y010350D01*
X025998Y010476D01*
X025833Y010545D01*
X025654Y010545D01*
X025488Y010476D01*
X025362Y010350D01*
X025293Y010185D01*
X025293Y010005D01*
X025362Y009840D01*
X025488Y009714D01*
X025654Y009645D01*
X025833Y009645D01*
X025998Y009714D01*
X026023Y009738D02*
X026464Y009738D01*
X026488Y009714D02*
X026654Y009645D01*
X026833Y009645D01*
X026998Y009714D01*
X027125Y009840D01*
X027193Y010005D01*
X027193Y010185D01*
X027125Y010350D01*
X026998Y010476D01*
X026833Y010545D01*
X026654Y010545D01*
X026488Y010476D01*
X026362Y010350D01*
X026293Y010185D01*
X026293Y010005D01*
X026362Y009840D01*
X026488Y009714D01*
X026365Y009837D02*
X026121Y009837D01*
X026164Y009935D02*
X026322Y009935D01*
X026293Y010034D02*
X026193Y010034D01*
X026193Y010132D02*
X026293Y010132D01*
X026312Y010231D02*
X026174Y010231D01*
X026133Y010329D02*
X026353Y010329D01*
X026439Y010428D02*
X026047Y010428D01*
X025879Y010526D02*
X026608Y010526D01*
X026879Y010526D02*
X027608Y010526D01*
X027439Y010428D02*
X027047Y010428D01*
X027133Y010329D02*
X027353Y010329D01*
X027312Y010231D02*
X027174Y010231D01*
X027193Y010132D02*
X027293Y010132D01*
X027293Y010034D02*
X027193Y010034D01*
X027164Y009935D02*
X027322Y009935D01*
X027365Y009837D02*
X027121Y009837D01*
X027023Y009738D02*
X027464Y009738D01*
X027488Y009476D02*
X027654Y009545D01*
X027833Y009545D01*
X027998Y009476D01*
X028125Y009350D01*
X028193Y009185D01*
X028193Y009005D01*
X028125Y008840D01*
X027998Y008714D01*
X027833Y008645D01*
X027654Y008645D01*
X027488Y008714D01*
X027362Y008840D01*
X027293Y009005D01*
X027293Y009185D01*
X027362Y009350D01*
X027488Y009476D01*
X027454Y009443D02*
X027032Y009443D01*
X026998Y009476D02*
X026833Y009545D01*
X026654Y009545D01*
X026488Y009476D01*
X026362Y009350D01*
X026293Y009185D01*
X026293Y009005D01*
X026362Y008840D01*
X026488Y008714D01*
X026654Y008645D01*
X026833Y008645D01*
X026998Y008714D01*
X027125Y008840D01*
X027193Y009005D01*
X027193Y009185D01*
X027125Y009350D01*
X026998Y009476D01*
X026842Y009541D02*
X027644Y009541D01*
X027842Y009541D02*
X043946Y009541D01*
X043905Y009443D02*
X028032Y009443D01*
X028127Y009344D02*
X043893Y009344D01*
X043893Y009246D02*
X028168Y009246D01*
X028193Y009147D02*
X043893Y009147D01*
X043905Y009049D02*
X028193Y009049D01*
X028170Y008950D02*
X029851Y008950D01*
X029899Y008970D02*
X029724Y008898D01*
X029591Y008764D01*
X029519Y008589D01*
X029519Y008401D01*
X029591Y008226D01*
X029724Y008092D01*
X029899Y008020D01*
X030088Y008020D01*
X030262Y008092D01*
X030396Y008226D01*
X030468Y008401D01*
X030468Y008589D01*
X030396Y008764D01*
X030262Y008898D01*
X030088Y008970D01*
X029899Y008970D01*
X030136Y008950D02*
X043945Y008950D01*
X043986Y008852D02*
X030308Y008852D01*
X030400Y008753D02*
X044033Y008753D01*
X044132Y008655D02*
X030441Y008655D01*
X030468Y008556D02*
X044230Y008556D01*
X044423Y008458D02*
X030468Y008458D01*
X030451Y008359D02*
X049228Y008359D01*
X049267Y008453D02*
X049136Y008136D01*
X049136Y007794D01*
X049267Y007477D01*
X049510Y007234D01*
X049827Y007103D01*
X050169Y007103D01*
X050486Y007234D01*
X050729Y007477D01*
X050860Y007794D01*
X050860Y008136D01*
X050729Y008453D01*
X050486Y008696D01*
X050169Y008827D01*
X049827Y008827D01*
X049510Y008696D01*
X049267Y008453D01*
X049272Y008458D02*
X047009Y008458D01*
X047035Y008484D02*
X047078Y008588D01*
X047078Y008702D01*
X047035Y008806D01*
X046955Y008887D01*
X046850Y008930D01*
X046737Y008930D01*
X046632Y008887D01*
X046552Y008806D01*
X046508Y008702D01*
X046508Y008588D01*
X046552Y008484D01*
X046632Y008403D01*
X046737Y008360D01*
X046850Y008360D01*
X046955Y008403D01*
X047035Y008484D01*
X047065Y008556D02*
X049370Y008556D01*
X049469Y008655D02*
X047078Y008655D01*
X047057Y008753D02*
X049648Y008753D01*
X049188Y008261D02*
X030410Y008261D01*
X030332Y008162D02*
X049147Y008162D01*
X049136Y008064D02*
X030192Y008064D01*
X029794Y008064D02*
X025943Y008064D01*
X025943Y008162D02*
X029655Y008162D01*
X029577Y008261D02*
X025943Y008261D01*
X025943Y008359D02*
X029536Y008359D01*
X029519Y008458D02*
X025943Y008458D01*
X025943Y008556D02*
X029519Y008556D01*
X029545Y008655D02*
X027856Y008655D01*
X028038Y008753D02*
X029586Y008753D01*
X029678Y008852D02*
X028130Y008852D01*
X027631Y008655D02*
X026856Y008655D01*
X027038Y008753D02*
X027449Y008753D01*
X027357Y008852D02*
X027130Y008852D01*
X027170Y008950D02*
X027316Y008950D01*
X027293Y009049D02*
X027193Y009049D01*
X027193Y009147D02*
X027293Y009147D01*
X027319Y009246D02*
X027168Y009246D01*
X027127Y009344D02*
X027359Y009344D01*
X026644Y009541D02*
X025943Y009541D01*
X026032Y009443D02*
X026454Y009443D01*
X026359Y009344D02*
X026127Y009344D01*
X026168Y009246D02*
X026319Y009246D01*
X026293Y009147D02*
X026193Y009147D01*
X026193Y009049D02*
X026293Y009049D01*
X026316Y008950D02*
X026170Y008950D01*
X026130Y008852D02*
X026357Y008852D01*
X026449Y008753D02*
X026038Y008753D01*
X025943Y008655D02*
X026631Y008655D01*
X025943Y007965D02*
X049136Y007965D01*
X049136Y007867D02*
X025943Y007867D01*
X025943Y007768D02*
X049147Y007768D01*
X049188Y007670D02*
X040988Y007670D01*
X040932Y007692D02*
X040655Y007692D01*
X040398Y007586D01*
X040202Y007390D01*
X040096Y007134D01*
X040096Y006856D01*
X040202Y006600D01*
X040398Y006404D01*
X040655Y006298D01*
X040932Y006298D01*
X041188Y006404D01*
X041385Y006600D01*
X041491Y006856D01*
X041491Y007134D01*
X041385Y007390D01*
X041188Y007586D01*
X040932Y007692D01*
X041204Y007571D02*
X049228Y007571D01*
X049272Y007473D02*
X044243Y007473D01*
X044412Y007374D02*
X049370Y007374D01*
X049469Y007276D02*
X044510Y007276D01*
X044587Y007177D02*
X049648Y007177D01*
X050348Y007177D02*
X051255Y007177D01*
X051255Y007079D02*
X044627Y007079D01*
X044668Y006980D02*
X045206Y006980D01*
X045241Y007015D02*
X045135Y006909D01*
X045078Y006770D01*
X045078Y006620D01*
X045135Y006481D01*
X045241Y006375D01*
X045380Y006318D01*
X045530Y006318D01*
X045668Y006375D01*
X045774Y006481D01*
X045832Y006620D01*
X045832Y006770D01*
X045774Y006909D01*
X045668Y007015D01*
X045530Y007072D01*
X045380Y007072D01*
X045241Y007015D01*
X045124Y006882D02*
X044684Y006882D01*
X044684Y006783D02*
X045083Y006783D01*
X045078Y006685D02*
X044684Y006685D01*
X044658Y006586D02*
X045092Y006586D01*
X045132Y006488D02*
X044618Y006488D01*
X044577Y006389D02*
X045227Y006389D01*
X045682Y006389D02*
X047904Y006389D01*
X047918Y006375D02*
X048057Y006318D01*
X048207Y006318D01*
X048346Y006375D01*
X048452Y006481D01*
X048509Y006620D01*
X048509Y006770D01*
X048452Y006909D01*
X048346Y007015D01*
X048207Y007072D01*
X048057Y007072D01*
X047918Y007015D01*
X047812Y006909D01*
X047755Y006770D01*
X047755Y006620D01*
X047812Y006481D01*
X047918Y006375D01*
X047810Y006488D02*
X045777Y006488D01*
X045818Y006586D02*
X047769Y006586D01*
X047755Y006685D02*
X045832Y006685D01*
X045827Y006783D02*
X047760Y006783D01*
X047801Y006882D02*
X045786Y006882D01*
X045703Y006980D02*
X047884Y006980D01*
X048380Y006980D02*
X051294Y006980D01*
X051255Y007074D02*
X051333Y006884D01*
X051478Y006740D01*
X051667Y006661D01*
X051872Y006661D01*
X052061Y006740D01*
X052206Y006884D01*
X052285Y007074D01*
X052285Y007279D01*
X052206Y007468D01*
X052061Y007613D01*
X051872Y007691D01*
X051667Y007691D01*
X051478Y007613D01*
X051333Y007468D01*
X051255Y007279D01*
X051255Y007074D01*
X051255Y007276D02*
X050527Y007276D01*
X050626Y007374D02*
X051294Y007374D01*
X051338Y007473D02*
X050724Y007473D01*
X050768Y007571D02*
X051436Y007571D01*
X051615Y007670D02*
X050808Y007670D01*
X050849Y007768D02*
X052690Y007768D01*
X052680Y007794D02*
X052811Y007477D01*
X053053Y007234D01*
X053370Y007103D01*
X053713Y007103D01*
X054030Y007234D01*
X054272Y007477D01*
X054403Y007794D01*
X054403Y008136D01*
X054272Y008453D01*
X054030Y008696D01*
X053713Y008827D01*
X053370Y008827D01*
X053053Y008696D01*
X052811Y008453D01*
X052680Y008136D01*
X052680Y007794D01*
X052680Y007867D02*
X050860Y007867D01*
X050860Y007965D02*
X052680Y007965D01*
X052680Y008064D02*
X050860Y008064D01*
X050849Y008162D02*
X052690Y008162D01*
X052731Y008261D02*
X050808Y008261D01*
X050768Y008359D02*
X052772Y008359D01*
X052815Y008458D02*
X050724Y008458D01*
X050626Y008556D02*
X052914Y008556D01*
X053012Y008655D02*
X050527Y008655D01*
X050348Y008753D02*
X053192Y008753D01*
X053891Y008753D02*
X055993Y008753D01*
X055993Y008655D02*
X054071Y008655D01*
X054169Y008556D02*
X055993Y008556D01*
X055993Y008458D02*
X054268Y008458D01*
X054311Y008359D02*
X055993Y008359D01*
X055993Y008261D02*
X054352Y008261D01*
X054393Y008162D02*
X055993Y008162D01*
X055993Y008064D02*
X054403Y008064D01*
X054403Y007965D02*
X055993Y007965D01*
X055993Y007867D02*
X054403Y007867D01*
X054393Y007768D02*
X055993Y007768D01*
X055993Y007670D02*
X054352Y007670D01*
X054311Y007571D02*
X055993Y007571D01*
X055993Y007473D02*
X054268Y007473D01*
X054169Y007374D02*
X055993Y007374D01*
X055993Y007276D02*
X054071Y007276D01*
X053891Y007177D02*
X055993Y007177D01*
X055993Y007079D02*
X052285Y007079D01*
X052285Y007177D02*
X053192Y007177D01*
X053012Y007276D02*
X052285Y007276D01*
X052245Y007374D02*
X052914Y007374D01*
X052815Y007473D02*
X052202Y007473D01*
X052103Y007571D02*
X052772Y007571D01*
X052731Y007670D02*
X051924Y007670D01*
X052246Y006980D02*
X055993Y006980D01*
X055993Y006882D02*
X052203Y006882D01*
X052105Y006783D02*
X055993Y006783D01*
X055993Y006685D02*
X051929Y006685D01*
X051611Y006685D02*
X048509Y006685D01*
X048504Y006783D02*
X051435Y006783D01*
X051336Y006882D02*
X048463Y006882D01*
X048495Y006586D02*
X055993Y006586D01*
X055903Y006488D02*
X048454Y006488D01*
X048359Y006389D02*
X055804Y006389D01*
X055706Y006291D02*
X044486Y006291D01*
X043401Y006291D02*
X025943Y006291D01*
X025943Y006389D02*
X032934Y006389D01*
X032898Y006404D02*
X033155Y006298D01*
X033432Y006298D01*
X033688Y006404D01*
X033885Y006600D01*
X033991Y006856D01*
X033991Y007134D01*
X033885Y007390D01*
X033688Y007586D01*
X033432Y007692D01*
X033155Y007692D01*
X032898Y007586D01*
X032702Y007390D01*
X032596Y007134D01*
X032596Y006856D01*
X032702Y006600D01*
X032898Y006404D01*
X032814Y006488D02*
X025943Y006488D01*
X025943Y006586D02*
X029740Y006586D01*
X029724Y006592D02*
X029899Y006520D01*
X030088Y006520D01*
X030262Y006592D01*
X030396Y006726D01*
X030468Y006901D01*
X030468Y007089D01*
X030396Y007264D01*
X030262Y007398D01*
X030088Y007470D01*
X029899Y007470D01*
X029724Y007398D01*
X029591Y007264D01*
X029519Y007089D01*
X029519Y006901D01*
X029591Y006726D01*
X029724Y006592D01*
X029632Y006685D02*
X025943Y006685D01*
X025943Y006783D02*
X029567Y006783D01*
X029526Y006882D02*
X025943Y006882D01*
X025943Y006980D02*
X029519Y006980D01*
X029519Y007079D02*
X025943Y007079D01*
X025943Y007177D02*
X029555Y007177D01*
X029602Y007276D02*
X025943Y007276D01*
X025943Y007374D02*
X029701Y007374D01*
X030286Y007374D02*
X032695Y007374D01*
X032655Y007276D02*
X030384Y007276D01*
X030432Y007177D02*
X032614Y007177D01*
X032596Y007079D02*
X030468Y007079D01*
X030468Y006980D02*
X032596Y006980D01*
X032596Y006882D02*
X030460Y006882D01*
X030419Y006783D02*
X032626Y006783D01*
X032667Y006685D02*
X030354Y006685D01*
X030247Y006586D02*
X032716Y006586D01*
X032784Y007473D02*
X025943Y007473D01*
X025943Y007571D02*
X032883Y007571D01*
X033099Y007670D02*
X025943Y007670D01*
X024543Y007867D02*
X015393Y007867D01*
X015393Y007965D02*
X024543Y007965D01*
X024543Y008064D02*
X015393Y008064D01*
X015393Y008162D02*
X024543Y008162D01*
X024543Y008261D02*
X015393Y008261D01*
X015393Y008359D02*
X024543Y008359D01*
X024543Y008458D02*
X015393Y008458D01*
X015393Y008556D02*
X024543Y008556D01*
X024543Y008655D02*
X015393Y008655D01*
X015393Y008753D02*
X024449Y008753D01*
X024357Y008852D02*
X015393Y008852D01*
X015393Y008950D02*
X024316Y008950D01*
X024293Y009049D02*
X015393Y009049D01*
X015393Y009147D02*
X024293Y009147D01*
X024319Y009246D02*
X015393Y009246D01*
X015393Y009344D02*
X024359Y009344D01*
X024454Y009443D02*
X015393Y009443D01*
X015393Y009541D02*
X024543Y009541D01*
X024543Y009640D02*
X015393Y009640D01*
X015393Y009738D02*
X023464Y009738D01*
X023488Y009714D02*
X023654Y009645D01*
X023833Y009645D01*
X023998Y009714D01*
X024125Y009840D01*
X024193Y010005D01*
X024193Y010185D01*
X024125Y010350D01*
X023998Y010476D01*
X023833Y010545D01*
X023654Y010545D01*
X023488Y010476D01*
X023362Y010350D01*
X023293Y010185D01*
X023293Y010005D01*
X023362Y009840D01*
X023488Y009714D01*
X023365Y009837D02*
X015393Y009837D01*
X015393Y009935D02*
X023322Y009935D01*
X023293Y010034D02*
X015393Y010034D01*
X015393Y010132D02*
X023293Y010132D01*
X023312Y010231D02*
X015393Y010231D01*
X015393Y010329D02*
X023353Y010329D01*
X023439Y010428D02*
X015393Y010428D01*
X015393Y010526D02*
X018198Y010526D01*
X018205Y010519D02*
X018360Y010455D01*
X018527Y010455D01*
X018681Y010519D01*
X018799Y010637D01*
X018863Y010791D01*
X018863Y010959D01*
X018799Y011113D01*
X018681Y011231D01*
X018527Y011295D01*
X018360Y011295D01*
X018205Y011231D01*
X018087Y011113D01*
X018023Y010959D01*
X018023Y010791D01*
X018087Y010637D01*
X018205Y010519D01*
X018100Y010625D02*
X016726Y010625D01*
X016705Y010603D02*
X016785Y010684D01*
X016828Y010788D01*
X016828Y010902D01*
X016785Y011006D01*
X016705Y011087D01*
X016600Y011130D01*
X016487Y011130D01*
X016382Y011087D01*
X016302Y011006D01*
X016258Y010902D01*
X016258Y010788D01*
X016302Y010684D01*
X016382Y010603D01*
X016487Y010560D01*
X016600Y010560D01*
X016705Y010603D01*
X016801Y010723D02*
X018052Y010723D01*
X018023Y010822D02*
X016828Y010822D01*
X016821Y010920D02*
X018023Y010920D01*
X018048Y011019D02*
X016773Y011019D01*
X016631Y011117D02*
X018091Y011117D01*
X018190Y011216D02*
X015393Y011216D01*
X015393Y011314D02*
X020054Y011314D01*
X020233Y011314D02*
X051006Y011314D01*
X050936Y011216D02*
X018697Y011216D01*
X018795Y011117D02*
X050895Y011117D01*
X050854Y011019D02*
X018838Y011019D01*
X018863Y010920D02*
X050813Y010920D01*
X050809Y010822D02*
X018863Y010822D01*
X018835Y010723D02*
X050809Y010723D01*
X050809Y010625D02*
X018787Y010625D01*
X018688Y010526D02*
X023608Y010526D01*
X023879Y010526D02*
X024608Y010526D01*
X024654Y010545D02*
X024488Y010476D01*
X024362Y010350D01*
X024293Y010185D01*
X024293Y010005D01*
X024362Y009840D01*
X024488Y009714D01*
X024654Y009645D01*
X024833Y009645D01*
X024998Y009714D01*
X025125Y009840D01*
X025193Y010005D01*
X025193Y010185D01*
X025125Y010350D01*
X024998Y010476D01*
X024833Y010545D01*
X024654Y010545D01*
X024879Y010526D02*
X025608Y010526D01*
X025439Y010428D02*
X025047Y010428D01*
X025133Y010329D02*
X025353Y010329D01*
X025312Y010231D02*
X025174Y010231D01*
X025193Y010132D02*
X025293Y010132D01*
X025293Y010034D02*
X025193Y010034D01*
X025164Y009935D02*
X025322Y009935D01*
X025365Y009837D02*
X025121Y009837D01*
X025023Y009738D02*
X025464Y009738D01*
X024464Y009738D02*
X024023Y009738D01*
X024121Y009837D02*
X024365Y009837D01*
X024322Y009935D02*
X024164Y009935D01*
X024193Y010034D02*
X024293Y010034D01*
X024293Y010132D02*
X024193Y010132D01*
X024174Y010231D02*
X024312Y010231D01*
X024353Y010329D02*
X024133Y010329D01*
X024047Y010428D02*
X024439Y010428D01*
X027879Y010526D02*
X050810Y010526D01*
X050851Y010428D02*
X028047Y010428D01*
X028133Y010329D02*
X050892Y010329D01*
X050933Y010231D02*
X028174Y010231D01*
X028193Y010132D02*
X050999Y010132D01*
X051105Y011413D02*
X020407Y011413D01*
X020485Y011511D02*
X051203Y011511D01*
X051409Y011610D02*
X020526Y011610D01*
X019880Y011413D02*
X015393Y011413D01*
X015393Y011511D02*
X019801Y011511D01*
X019761Y011610D02*
X015393Y011610D01*
X015393Y011708D02*
X019757Y011708D01*
X019771Y011807D02*
X015393Y011807D01*
X015393Y011905D02*
X019812Y011905D01*
X019906Y012004D02*
X015393Y012004D01*
X015393Y011117D02*
X016455Y011117D01*
X016314Y011019D02*
X015393Y011019D01*
X015393Y010920D02*
X016266Y010920D01*
X016258Y010822D02*
X015393Y010822D01*
X015393Y010723D02*
X016285Y010723D01*
X016361Y010625D02*
X015393Y010625D01*
X015393Y013383D02*
X032699Y013383D01*
X032793Y013481D02*
X015393Y013481D01*
X015393Y013580D02*
X032891Y013580D01*
X033120Y013678D02*
X015393Y013678D01*
X015393Y013777D02*
X055993Y013777D01*
X055993Y013875D02*
X015393Y013875D01*
X015393Y013974D02*
X055993Y013974D01*
X055993Y014072D02*
X015393Y014072D01*
X015393Y007768D02*
X021516Y007768D01*
X021418Y007670D02*
X015393Y007670D01*
X015393Y007571D02*
X021319Y007571D01*
X021221Y007473D02*
X015393Y007473D01*
X015393Y007374D02*
X021122Y007374D01*
X021024Y007276D02*
X015393Y007276D01*
X015393Y007177D02*
X020925Y007177D01*
X020827Y007079D02*
X015393Y007079D01*
X015393Y006980D02*
X020728Y006980D01*
X020630Y006882D02*
X015393Y006882D01*
X015393Y006783D02*
X020531Y006783D01*
X020433Y006685D02*
X015393Y006685D01*
X033488Y007670D02*
X040599Y007670D01*
X040383Y007571D02*
X033704Y007571D01*
X033802Y007473D02*
X040284Y007473D01*
X040195Y007374D02*
X033891Y007374D01*
X033932Y007276D02*
X040155Y007276D01*
X040114Y007177D02*
X033973Y007177D01*
X033991Y007079D02*
X040096Y007079D01*
X040096Y006980D02*
X033991Y006980D01*
X033991Y006882D02*
X040096Y006882D01*
X040126Y006783D02*
X033960Y006783D01*
X033920Y006685D02*
X040167Y006685D01*
X040216Y006586D02*
X033871Y006586D01*
X033772Y006488D02*
X040314Y006488D01*
X040434Y006389D02*
X033653Y006389D01*
X041153Y006389D02*
X043310Y006389D01*
X043269Y006488D02*
X041272Y006488D01*
X041371Y006586D02*
X043228Y006586D01*
X043203Y006685D02*
X041420Y006685D01*
X041460Y006783D02*
X043203Y006783D01*
X043203Y006882D02*
X041491Y006882D01*
X041491Y006980D02*
X043218Y006980D01*
X043259Y007079D02*
X041491Y007079D01*
X041473Y007177D02*
X043300Y007177D01*
X043377Y007276D02*
X041432Y007276D01*
X041391Y007374D02*
X043475Y007374D01*
X043644Y007473D02*
X041302Y007473D01*
X045063Y008458D02*
X045628Y008458D01*
X045602Y008484D02*
X045682Y008403D01*
X045787Y008360D01*
X045900Y008360D01*
X046005Y008403D01*
X046085Y008484D01*
X046128Y008588D01*
X046128Y008702D01*
X046085Y008806D01*
X046005Y008887D01*
X045900Y008930D01*
X045787Y008930D01*
X045682Y008887D01*
X045602Y008806D01*
X045558Y008702D01*
X045558Y008588D01*
X045602Y008484D01*
X045572Y008556D02*
X045256Y008556D01*
X045355Y008655D02*
X045558Y008655D01*
X045580Y008753D02*
X045453Y008753D01*
X045500Y008852D02*
X045647Y008852D01*
X045541Y008950D02*
X055993Y008950D01*
X055993Y008852D02*
X046990Y008852D01*
X046597Y008852D02*
X046040Y008852D01*
X046107Y008753D02*
X046530Y008753D01*
X046508Y008655D02*
X046128Y008655D01*
X046115Y008556D02*
X046522Y008556D01*
X046578Y008458D02*
X046059Y008458D01*
X045582Y009049D02*
X055993Y009049D01*
X055993Y009147D02*
X045593Y009147D01*
X045593Y009246D02*
X055993Y009246D01*
X055993Y009344D02*
X045593Y009344D01*
X045582Y009443D02*
X055993Y009443D01*
X055993Y009541D02*
X045541Y009541D01*
X045500Y009640D02*
X055993Y009640D01*
X055993Y009738D02*
X045452Y009738D01*
X046863Y012201D02*
X049074Y012201D01*
X049000Y012231D02*
X049288Y012112D01*
X049599Y012112D01*
X049887Y012231D01*
X050107Y012451D01*
X050226Y012739D01*
X050226Y013051D01*
X050107Y013339D01*
X049887Y013559D01*
X049599Y013678D01*
X049288Y013678D01*
X049000Y013559D01*
X048779Y013339D01*
X048660Y013051D01*
X048660Y012739D01*
X048779Y012451D01*
X049000Y012231D01*
X048932Y012299D02*
X047005Y012299D01*
X047103Y012398D02*
X048833Y012398D01*
X048761Y012496D02*
X047176Y012496D01*
X047216Y012595D02*
X048720Y012595D01*
X048679Y012693D02*
X047257Y012693D01*
X047276Y012792D02*
X048660Y012792D01*
X048660Y012890D02*
X047276Y012890D01*
X047276Y012989D02*
X048660Y012989D01*
X048675Y013087D02*
X047261Y013087D01*
X047221Y013186D02*
X048716Y013186D01*
X048757Y013284D02*
X047180Y013284D01*
X047113Y013383D02*
X048823Y013383D01*
X048922Y013481D02*
X047015Y013481D01*
X046887Y013580D02*
X049050Y013580D01*
X049287Y013678D02*
X046649Y013678D01*
X049599Y013678D02*
X055993Y013678D01*
X055993Y013580D02*
X049837Y013580D01*
X049965Y013481D02*
X055993Y013481D01*
X055993Y013383D02*
X050063Y013383D01*
X050130Y013284D02*
X054377Y013284D01*
X054182Y013186D02*
X050171Y013186D01*
X050211Y013087D02*
X054083Y013087D01*
X053985Y012989D02*
X050226Y012989D01*
X050226Y012890D02*
X053937Y012890D01*
X053896Y012792D02*
X050226Y012792D01*
X050207Y012693D02*
X053855Y012693D01*
X053843Y012595D02*
X050166Y012595D01*
X050126Y012496D02*
X053843Y012496D01*
X053843Y012398D02*
X050053Y012398D01*
X049955Y012299D02*
X053854Y012299D01*
X053895Y012201D02*
X049813Y012201D01*
X050964Y014663D02*
X051122Y014663D01*
X055010Y013284D02*
X055993Y013284D01*
X055993Y013186D02*
X055205Y013186D01*
X055303Y013087D02*
X055993Y013087D01*
X055993Y012989D02*
X055402Y012989D01*
X055450Y012890D02*
X055993Y012890D01*
X055993Y012792D02*
X055491Y012792D01*
X055531Y012693D02*
X055993Y012693D01*
X055993Y012595D02*
X055543Y012595D01*
X055543Y012496D02*
X055993Y012496D01*
X055993Y012398D02*
X055543Y012398D01*
X055532Y012299D02*
X055993Y012299D01*
X055993Y012201D02*
X055491Y012201D01*
X055451Y012102D02*
X055993Y012102D01*
X055993Y012004D02*
X055404Y012004D01*
X055305Y011905D02*
X055993Y011905D01*
X055993Y011807D02*
X055207Y011807D01*
X043628Y016633D02*
X039228Y016633D01*
X039227Y016535D02*
X043543Y016535D01*
X043508Y016436D02*
X039186Y016436D01*
X039066Y016338D02*
X043509Y016338D01*
X043554Y016732D02*
X039195Y016732D01*
X039111Y016830D02*
X043512Y016830D01*
X043508Y016929D02*
X038674Y016929D01*
X038678Y017027D02*
X043540Y017027D01*
X043621Y017126D02*
X038648Y017126D01*
X038567Y017224D02*
X043561Y017224D01*
X043988Y018603D02*
X044098Y018603D01*
X044563Y022051D02*
X044596Y022051D01*
X038775Y016830D02*
X038631Y016830D01*
X038691Y016732D02*
X038502Y016732D01*
X032900Y022346D02*
X032337Y022346D01*
X032439Y022445D02*
X032797Y022445D01*
X032758Y022543D02*
X032478Y022543D01*
X032478Y022642D02*
X032758Y022642D01*
X032795Y022740D02*
X032442Y022740D01*
X032350Y022839D02*
X032887Y022839D01*
X035354Y024809D02*
X024935Y024809D01*
X024834Y024907D02*
X035481Y024907D01*
X035875Y024710D02*
X055993Y024710D01*
X055993Y024612D02*
X035878Y024612D01*
X035150Y028260D02*
X035037Y028260D01*
X034932Y028303D01*
X034852Y028384D01*
X034808Y028488D01*
X034808Y028602D01*
X034852Y028706D01*
X034932Y028787D01*
X035037Y028830D01*
X035150Y028830D01*
X035255Y028787D01*
X035335Y028706D01*
X035378Y028602D01*
X035378Y028488D01*
X035335Y028384D01*
X035255Y028303D01*
X035150Y028260D01*
X035306Y028355D02*
X052161Y028355D01*
X052193Y028368D02*
X052027Y028299D01*
X051901Y028173D01*
X051832Y028007D01*
X051832Y027828D01*
X051901Y027663D01*
X052027Y027536D01*
X052193Y027468D01*
X052372Y027468D01*
X052537Y027536D01*
X052664Y027663D01*
X052732Y027828D01*
X052732Y028007D01*
X052664Y028173D01*
X052537Y028299D01*
X052372Y028368D01*
X052193Y028368D01*
X052404Y028355D02*
X053161Y028355D01*
X053193Y028368D02*
X053027Y028299D01*
X052901Y028173D01*
X052832Y028007D01*
X052832Y027828D01*
X052901Y027663D01*
X053027Y027536D01*
X053193Y027468D01*
X053372Y027468D01*
X053537Y027536D01*
X053664Y027663D01*
X053732Y027828D01*
X053732Y028007D01*
X053664Y028173D01*
X053537Y028299D01*
X053372Y028368D01*
X053193Y028368D01*
X053404Y028355D02*
X055993Y028355D01*
X055993Y028453D02*
X035364Y028453D01*
X035378Y028552D02*
X055993Y028552D01*
X055993Y028650D02*
X035358Y028650D01*
X035293Y028749D02*
X055993Y028749D01*
X055993Y028847D02*
X030573Y028847D01*
X030573Y028749D02*
X034894Y028749D01*
X034828Y028650D02*
X030573Y028650D01*
X030573Y028552D02*
X034808Y028552D01*
X034823Y028453D02*
X030573Y028453D01*
X030573Y028355D02*
X034881Y028355D01*
X032935Y029584D02*
X032978Y029688D01*
X032978Y029802D01*
X032935Y029906D01*
X032855Y029987D01*
X032750Y030030D01*
X032637Y030030D01*
X032532Y029987D01*
X032452Y029906D01*
X032408Y029802D01*
X032408Y029688D01*
X032452Y029584D01*
X032532Y029503D01*
X032637Y029460D01*
X032750Y029460D01*
X032855Y029503D01*
X032935Y029584D01*
X032956Y029635D02*
X055993Y029635D01*
X055993Y029537D02*
X032888Y029537D01*
X032978Y029734D02*
X055993Y029734D01*
X055993Y029832D02*
X032966Y029832D01*
X032911Y029931D02*
X055993Y029931D01*
X055993Y030029D02*
X032752Y030029D01*
X032634Y030029D02*
X029723Y030029D01*
X029723Y029931D02*
X032476Y029931D01*
X032421Y029832D02*
X029790Y029832D01*
X029889Y029734D02*
X032408Y029734D01*
X032430Y029635D02*
X029987Y029635D01*
X030436Y029537D02*
X032499Y029537D01*
X033182Y030353D02*
X033287Y030310D01*
X033400Y030310D01*
X033458Y030334D01*
X033458Y030288D01*
X033502Y030184D01*
X033582Y030103D01*
X033687Y030060D01*
X033800Y030060D01*
X033905Y030103D01*
X033985Y030184D01*
X034028Y030288D01*
X034028Y030402D01*
X033985Y030506D01*
X033905Y030587D01*
X033800Y030630D01*
X033687Y030630D01*
X033628Y030606D01*
X033628Y030652D01*
X033585Y030756D01*
X033505Y030837D01*
X033400Y030880D01*
X033287Y030880D01*
X033182Y030837D01*
X033102Y030756D01*
X033058Y030652D01*
X033058Y030538D01*
X033102Y030434D01*
X033182Y030353D01*
X033251Y030325D02*
X029723Y030325D01*
X029723Y030423D02*
X033112Y030423D01*
X033065Y030522D02*
X029723Y030522D01*
X029723Y030620D02*
X033058Y030620D01*
X033086Y030719D02*
X029723Y030719D01*
X029723Y030817D02*
X033162Y030817D01*
X033524Y030817D02*
X047991Y030817D01*
X048041Y030767D02*
X047866Y030942D01*
X047771Y031171D01*
X047771Y031419D01*
X047866Y031648D01*
X048041Y031823D01*
X048269Y031917D01*
X048517Y031917D01*
X048746Y031823D01*
X048921Y031648D01*
X049016Y031419D01*
X049016Y031171D01*
X048921Y030942D01*
X048746Y030767D01*
X048517Y030673D01*
X048269Y030673D01*
X048041Y030767D01*
X048158Y030719D02*
X033601Y030719D01*
X033628Y030620D02*
X033663Y030620D01*
X033824Y030620D02*
X055993Y030620D01*
X055993Y030522D02*
X033970Y030522D01*
X034019Y030423D02*
X055993Y030423D01*
X055993Y030325D02*
X034028Y030325D01*
X034003Y030226D02*
X055993Y030226D01*
X055993Y030128D02*
X033929Y030128D01*
X033558Y030128D02*
X029723Y030128D01*
X029723Y030226D02*
X033484Y030226D01*
X033458Y030325D02*
X033435Y030325D01*
X032707Y031507D02*
X047807Y031507D01*
X047771Y031408D02*
X032515Y031408D01*
X032805Y031605D02*
X047848Y031605D01*
X047922Y031704D02*
X032904Y031704D01*
X032951Y031802D02*
X048020Y031802D01*
X048229Y031901D02*
X032991Y031901D01*
X033032Y031999D02*
X053854Y031999D01*
X053843Y032026D02*
X053973Y031714D01*
X054212Y031474D01*
X054524Y031345D01*
X054862Y031345D01*
X055175Y031474D01*
X055414Y031714D01*
X055543Y032026D01*
X055543Y032364D01*
X055414Y032676D01*
X055175Y032916D01*
X054862Y033045D01*
X054524Y033045D01*
X054212Y032916D01*
X053973Y032676D01*
X053843Y032364D01*
X053843Y032026D01*
X053843Y032098D02*
X033043Y032098D01*
X033043Y032196D02*
X033886Y032196D01*
X033855Y032209D02*
X034010Y032145D01*
X034177Y032145D01*
X034331Y032209D01*
X034449Y032327D01*
X034513Y032481D01*
X034513Y032649D01*
X034449Y032803D01*
X034331Y032921D01*
X034177Y032985D01*
X034010Y032985D01*
X033855Y032921D01*
X033737Y032803D01*
X033673Y032649D01*
X033673Y032481D01*
X033737Y032327D01*
X033855Y032209D01*
X033770Y032295D02*
X033043Y032295D01*
X033031Y032393D02*
X033710Y032393D01*
X033673Y032492D02*
X032990Y032492D01*
X032950Y032590D02*
X033673Y032590D01*
X033690Y032689D02*
X032902Y032689D01*
X032803Y032787D02*
X033731Y032787D01*
X033820Y032886D02*
X032705Y032886D01*
X032509Y032984D02*
X034008Y032984D01*
X034179Y032984D02*
X040208Y032984D01*
X040210Y032985D02*
X040055Y032921D01*
X039937Y032803D01*
X039873Y032649D01*
X039873Y032481D01*
X039937Y032327D01*
X040055Y032209D01*
X040210Y032145D01*
X040377Y032145D01*
X040531Y032209D01*
X040649Y032327D01*
X040713Y032481D01*
X040713Y032649D01*
X040649Y032803D01*
X040531Y032921D01*
X040377Y032985D01*
X040210Y032985D01*
X040379Y032984D02*
X046408Y032984D01*
X046410Y032985D02*
X046255Y032921D01*
X046137Y032803D01*
X046073Y032649D01*
X046073Y032481D01*
X046137Y032327D01*
X046255Y032209D01*
X046410Y032145D01*
X046577Y032145D01*
X046731Y032209D01*
X046849Y032327D01*
X046913Y032481D01*
X046913Y032649D01*
X046849Y032803D01*
X046731Y032921D01*
X046577Y032985D01*
X046410Y032985D01*
X046579Y032984D02*
X052608Y032984D01*
X052610Y032985D02*
X052455Y032921D01*
X052337Y032803D01*
X052273Y032649D01*
X052273Y032481D01*
X052337Y032327D01*
X052455Y032209D01*
X052610Y032145D01*
X052777Y032145D01*
X052931Y032209D01*
X053049Y032327D01*
X053113Y032481D01*
X053113Y032649D01*
X053049Y032803D01*
X052931Y032921D01*
X052777Y032985D01*
X052610Y032985D01*
X052779Y032984D02*
X054377Y032984D01*
X054182Y032886D02*
X052967Y032886D01*
X053056Y032787D02*
X054083Y032787D01*
X053985Y032689D02*
X053097Y032689D01*
X053113Y032590D02*
X053937Y032590D01*
X053896Y032492D02*
X053113Y032492D01*
X053077Y032393D02*
X053855Y032393D01*
X053843Y032295D02*
X053017Y032295D01*
X052900Y032196D02*
X053843Y032196D01*
X053895Y031901D02*
X048558Y031901D01*
X048767Y031802D02*
X053936Y031802D01*
X053983Y031704D02*
X048865Y031704D01*
X048939Y031605D02*
X054081Y031605D01*
X054180Y031507D02*
X048979Y031507D01*
X049016Y031408D02*
X054372Y031408D01*
X055015Y031408D02*
X055993Y031408D01*
X055993Y031310D02*
X049016Y031310D01*
X049016Y031211D02*
X055993Y031211D01*
X055993Y031113D02*
X048991Y031113D01*
X048951Y031014D02*
X055993Y031014D01*
X055993Y030916D02*
X048894Y030916D01*
X048796Y030817D02*
X055993Y030817D01*
X055993Y030719D02*
X048628Y030719D01*
X047892Y030916D02*
X029723Y030916D01*
X029723Y031014D02*
X047836Y031014D01*
X047795Y031113D02*
X029723Y031113D01*
X029723Y031211D02*
X047771Y031211D01*
X047771Y031310D02*
X029723Y031310D01*
X029723Y031408D02*
X031872Y031408D01*
X031680Y031507D02*
X029723Y031507D01*
X029667Y031605D02*
X031581Y031605D01*
X031682Y032886D02*
X022394Y032886D01*
X022463Y032984D02*
X031877Y032984D01*
X034367Y032886D02*
X040020Y032886D01*
X039931Y032787D02*
X038604Y032787D01*
X038635Y032756D02*
X038555Y032837D01*
X038450Y032880D01*
X038337Y032880D01*
X038232Y032837D01*
X038152Y032756D01*
X038108Y032652D01*
X038108Y032538D01*
X038152Y032434D01*
X038232Y032353D01*
X038337Y032310D01*
X038450Y032310D01*
X038555Y032353D01*
X038635Y032434D01*
X038678Y032538D01*
X038678Y032652D01*
X038635Y032756D01*
X038663Y032689D02*
X039890Y032689D01*
X039873Y032590D02*
X038678Y032590D01*
X038659Y032492D02*
X039873Y032492D01*
X039910Y032393D02*
X038594Y032393D01*
X038192Y032393D02*
X034477Y032393D01*
X034513Y032492D02*
X038128Y032492D01*
X038108Y032590D02*
X034513Y032590D01*
X034497Y032689D02*
X038124Y032689D01*
X038182Y032787D02*
X034456Y032787D01*
X034417Y032295D02*
X039970Y032295D01*
X040086Y032196D02*
X034300Y032196D01*
X030573Y029340D02*
X055993Y029340D01*
X055993Y029438D02*
X030534Y029438D01*
X030573Y029241D02*
X055993Y029241D01*
X055993Y029143D02*
X030573Y029143D01*
X030573Y029044D02*
X055993Y029044D01*
X055993Y028946D02*
X030573Y028946D01*
X030573Y028256D02*
X051984Y028256D01*
X051895Y028158D02*
X030573Y028158D01*
X030573Y028059D02*
X051854Y028059D01*
X051832Y027961D02*
X030573Y027961D01*
X030573Y027862D02*
X051832Y027862D01*
X051859Y027764D02*
X030573Y027764D01*
X030573Y027665D02*
X051900Y027665D01*
X051997Y027567D02*
X030573Y027567D01*
X030573Y027468D02*
X052192Y027468D01*
X052193Y027368D02*
X052027Y027299D01*
X051901Y027173D01*
X051832Y027007D01*
X051832Y026828D01*
X051901Y026663D01*
X052027Y026536D01*
X052193Y026468D01*
X052372Y026468D01*
X052537Y026536D01*
X052664Y026663D01*
X052732Y026828D01*
X052732Y027007D01*
X052664Y027173D01*
X052537Y027299D01*
X052372Y027368D01*
X052193Y027368D01*
X052372Y027468D02*
X053192Y027468D01*
X053193Y027368D02*
X053027Y027299D01*
X052901Y027173D01*
X052832Y027007D01*
X052832Y026828D01*
X052901Y026663D01*
X053027Y026536D01*
X053193Y026468D01*
X053372Y026468D01*
X053537Y026536D01*
X053664Y026663D01*
X053732Y026828D01*
X053732Y027007D01*
X053664Y027173D01*
X053537Y027299D01*
X053372Y027368D01*
X053193Y027368D01*
X053372Y027468D02*
X055993Y027468D01*
X055993Y027370D02*
X030573Y027370D01*
X030573Y027271D02*
X051999Y027271D01*
X051901Y027173D02*
X030573Y027173D01*
X030573Y027074D02*
X051860Y027074D01*
X051832Y026976D02*
X030573Y026976D01*
X030573Y026877D02*
X051832Y026877D01*
X051853Y026779D02*
X030573Y026779D01*
X030573Y026680D02*
X051894Y026680D01*
X051982Y026582D02*
X030573Y026582D01*
X030573Y026483D02*
X052156Y026483D01*
X052409Y026483D02*
X053156Y026483D01*
X052982Y026582D02*
X052582Y026582D01*
X052671Y026680D02*
X052894Y026680D01*
X052853Y026779D02*
X052712Y026779D01*
X052732Y026877D02*
X052832Y026877D01*
X052832Y026976D02*
X052732Y026976D01*
X052705Y027074D02*
X052860Y027074D01*
X052901Y027173D02*
X052664Y027173D01*
X052565Y027271D02*
X052999Y027271D01*
X052997Y027567D02*
X052567Y027567D01*
X052665Y027665D02*
X052900Y027665D01*
X052859Y027764D02*
X052705Y027764D01*
X052732Y027862D02*
X052832Y027862D01*
X052832Y027961D02*
X052732Y027961D01*
X052711Y028059D02*
X052854Y028059D01*
X052895Y028158D02*
X052670Y028158D01*
X052580Y028256D02*
X052984Y028256D01*
X053580Y028256D02*
X055993Y028256D01*
X055993Y028158D02*
X053670Y028158D01*
X053711Y028059D02*
X055993Y028059D01*
X055993Y027961D02*
X053732Y027961D01*
X053732Y027862D02*
X055993Y027862D01*
X055993Y027764D02*
X053705Y027764D01*
X053665Y027665D02*
X055993Y027665D01*
X055993Y027567D02*
X053567Y027567D01*
X053565Y027271D02*
X055993Y027271D01*
X055993Y027173D02*
X053664Y027173D01*
X053705Y027074D02*
X055993Y027074D01*
X055993Y026976D02*
X053732Y026976D01*
X053732Y026877D02*
X055993Y026877D01*
X055993Y026779D02*
X053712Y026779D01*
X053671Y026680D02*
X055993Y026680D01*
X055993Y026582D02*
X053582Y026582D01*
X053409Y026483D02*
X055993Y026483D01*
X055993Y026385D02*
X030573Y026385D01*
X030573Y026286D02*
X055993Y026286D01*
X055993Y026188D02*
X030573Y026188D01*
X030573Y026089D02*
X055993Y026089D01*
X055993Y025991D02*
X030573Y025991D01*
X030573Y025892D02*
X055993Y025892D01*
X055993Y025794D02*
X030573Y025794D01*
X030573Y025695D02*
X055993Y025695D01*
X055993Y025597D02*
X030573Y025597D01*
X027993Y024612D02*
X025137Y024612D01*
X025238Y024513D02*
X027993Y024513D01*
X027993Y024415D02*
X025339Y024415D01*
X025440Y024316D02*
X026626Y024316D01*
X026658Y024347D02*
X026541Y024231D01*
X026478Y024078D01*
X026478Y023912D01*
X026541Y023759D01*
X026658Y023643D01*
X026811Y023579D01*
X026976Y023579D01*
X027129Y023643D01*
X027246Y023759D01*
X027309Y023912D01*
X027309Y024078D01*
X027246Y024231D01*
X027129Y024347D01*
X026976Y024411D01*
X026811Y024411D01*
X026658Y024347D01*
X026535Y024218D02*
X025541Y024218D01*
X025642Y024119D02*
X026495Y024119D01*
X026478Y024021D02*
X025743Y024021D01*
X025844Y023922D02*
X026478Y023922D01*
X026514Y023824D02*
X025946Y023824D01*
X026047Y023725D02*
X026575Y023725D01*
X026696Y023627D02*
X026148Y023627D01*
X026249Y023528D02*
X027993Y023528D01*
X027993Y023430D02*
X026350Y023430D01*
X026451Y023331D02*
X027993Y023331D01*
X027993Y023233D02*
X026552Y023233D01*
X026653Y023134D02*
X027993Y023134D01*
X027993Y023627D02*
X027090Y023627D01*
X027211Y023725D02*
X027993Y023725D01*
X027993Y023824D02*
X027272Y023824D01*
X027309Y023922D02*
X027993Y023922D01*
X027993Y024021D02*
X027309Y024021D01*
X027292Y024119D02*
X027993Y024119D01*
X027993Y024218D02*
X027251Y024218D01*
X027160Y024316D02*
X027993Y024316D01*
X019304Y029044D02*
X018428Y029044D01*
X018391Y029143D02*
X019198Y029143D01*
X017737Y030719D02*
X016368Y030719D01*
X016467Y030817D02*
X017653Y030817D01*
X017612Y030916D02*
X016565Y030916D01*
X016664Y031014D02*
X017595Y031014D01*
X017595Y031113D02*
X016762Y031113D01*
X016861Y031211D02*
X017627Y031211D01*
X017675Y031310D02*
X016959Y031310D01*
X017058Y031408D02*
X017774Y031408D01*
X016005Y033653D02*
X015900Y033610D01*
X015787Y033610D01*
X015682Y033653D01*
X015602Y033734D01*
X015558Y033838D01*
X015558Y033952D01*
X015602Y034056D01*
X015682Y034137D01*
X015787Y034180D01*
X015900Y034180D01*
X016005Y034137D01*
X016085Y034056D01*
X016128Y033952D01*
X016128Y033838D01*
X016085Y033734D01*
X016005Y033653D01*
X016025Y033674D02*
X055993Y033674D01*
X055993Y033772D02*
X016101Y033772D01*
X016128Y033871D02*
X055993Y033871D01*
X055993Y033969D02*
X016121Y033969D01*
X016074Y034068D02*
X055993Y034068D01*
X055993Y034166D02*
X015934Y034166D01*
X015753Y034166D02*
X007393Y034166D01*
X007393Y034068D02*
X015613Y034068D01*
X015566Y033969D02*
X007393Y033969D01*
X007393Y033871D02*
X015558Y033871D01*
X015586Y033772D02*
X007393Y033772D01*
X007393Y033674D02*
X015662Y033674D01*
X015279Y034915D02*
X015108Y034915D01*
X014950Y034980D01*
X014829Y035101D01*
X014763Y035259D01*
X014763Y035431D01*
X014829Y035589D01*
X014950Y035710D01*
X015108Y035775D01*
X015279Y035775D01*
X015437Y035710D01*
X015558Y035589D01*
X015623Y035431D01*
X015623Y035259D01*
X015558Y035101D01*
X015437Y034980D01*
X015279Y034915D01*
X015373Y034954D02*
X016438Y034954D01*
X016375Y034980D02*
X016533Y034915D01*
X016704Y034915D01*
X016862Y034980D01*
X016983Y035101D01*
X017048Y035259D01*
X017048Y035431D01*
X016983Y035589D01*
X016862Y035710D01*
X016704Y035775D01*
X016533Y035775D01*
X016375Y035710D01*
X016254Y035589D01*
X016188Y035431D01*
X016188Y035259D01*
X016254Y035101D01*
X016375Y034980D01*
X016303Y035053D02*
X015509Y035053D01*
X015578Y035151D02*
X016233Y035151D01*
X016192Y035250D02*
X015619Y035250D01*
X015623Y035348D02*
X016188Y035348D01*
X016195Y035447D02*
X015617Y035447D01*
X015576Y035545D02*
X016236Y035545D01*
X016309Y035644D02*
X015503Y035644D01*
X015358Y035742D02*
X016453Y035742D01*
X016400Y035860D02*
X016505Y035903D01*
X016585Y035984D01*
X016628Y036088D01*
X016628Y036202D01*
X016585Y036306D01*
X016505Y036387D01*
X016400Y036430D01*
X016287Y036430D01*
X016182Y036387D01*
X016102Y036306D01*
X016058Y036202D01*
X016058Y036088D01*
X016102Y035984D01*
X016182Y035903D01*
X016287Y035860D01*
X016400Y035860D01*
X016540Y035939D02*
X019299Y035939D01*
X019308Y035947D02*
X019191Y035831D01*
X019128Y035678D01*
X019128Y035512D01*
X019191Y035359D01*
X019308Y035243D01*
X019461Y035179D01*
X019626Y035179D01*
X019779Y035243D01*
X019896Y035359D01*
X019959Y035512D01*
X019959Y035678D01*
X019896Y035831D01*
X019779Y035947D01*
X019626Y036011D01*
X019461Y036011D01*
X019308Y035947D01*
X019201Y035841D02*
X012216Y035841D01*
X012112Y035798D02*
X012368Y035904D01*
X012565Y036100D01*
X012671Y036356D01*
X012671Y036634D01*
X012565Y036890D01*
X012368Y037086D01*
X012112Y037192D01*
X011835Y037192D01*
X011578Y037086D01*
X011382Y036890D01*
X011276Y036634D01*
X011276Y036356D01*
X011382Y036100D01*
X011578Y035904D01*
X011835Y035798D01*
X012112Y035798D01*
X012404Y035939D02*
X013746Y035939D01*
X013782Y035903D02*
X013887Y035860D01*
X014000Y035860D01*
X014105Y035903D01*
X014185Y035984D01*
X014228Y036088D01*
X014228Y036202D01*
X014185Y036306D01*
X014105Y036387D01*
X014000Y036430D01*
X013887Y036430D01*
X013782Y036387D01*
X013702Y036306D01*
X013658Y036202D01*
X013658Y036088D01*
X013702Y035984D01*
X013782Y035903D01*
X013679Y036038D02*
X012502Y036038D01*
X012580Y036136D02*
X013658Y036136D01*
X013672Y036235D02*
X012620Y036235D01*
X012661Y036333D02*
X013728Y036333D01*
X014158Y036333D02*
X016128Y036333D01*
X016072Y036235D02*
X014215Y036235D01*
X014228Y036136D02*
X016058Y036136D01*
X016079Y036038D02*
X014207Y036038D01*
X014140Y035939D02*
X016146Y035939D01*
X016607Y036038D02*
X023029Y036038D01*
X023008Y036088D02*
X023052Y035984D01*
X023132Y035903D01*
X023237Y035860D01*
X023350Y035860D01*
X023455Y035903D01*
X023535Y035984D01*
X023578Y036088D01*
X023578Y036202D01*
X023535Y036306D01*
X023455Y036387D01*
X023374Y036420D01*
X023455Y036453D01*
X023535Y036534D01*
X023578Y036638D01*
X023578Y036752D01*
X023535Y036856D01*
X023455Y036937D01*
X023350Y036980D01*
X023237Y036980D01*
X023132Y036937D01*
X023052Y036856D01*
X023008Y036752D01*
X023008Y036638D01*
X023052Y036534D01*
X023132Y036453D01*
X023212Y036420D01*
X023132Y036387D01*
X023052Y036306D01*
X023008Y036202D01*
X023008Y036088D01*
X023008Y036136D02*
X016628Y036136D01*
X016615Y036235D02*
X023022Y036235D01*
X023078Y036333D02*
X016558Y036333D01*
X016783Y035742D02*
X017453Y035742D01*
X017375Y035710D02*
X017254Y035589D01*
X017188Y035431D01*
X017188Y035259D01*
X017254Y035101D01*
X017375Y034980D01*
X017533Y034915D01*
X017704Y034915D01*
X017862Y034980D01*
X017983Y035101D01*
X018048Y035259D01*
X018048Y035431D01*
X017983Y035589D01*
X017862Y035710D01*
X017704Y035775D01*
X017533Y035775D01*
X017375Y035710D01*
X017309Y035644D02*
X016928Y035644D01*
X017001Y035545D02*
X017236Y035545D01*
X017195Y035447D02*
X017042Y035447D01*
X017048Y035348D02*
X017188Y035348D01*
X017192Y035250D02*
X017044Y035250D01*
X017003Y035151D02*
X017233Y035151D01*
X017303Y035053D02*
X016934Y035053D01*
X016798Y034954D02*
X017438Y034954D01*
X017798Y034954D02*
X023363Y034954D01*
X023300Y034980D02*
X023458Y034915D01*
X023629Y034915D01*
X023787Y034980D01*
X023908Y035101D01*
X023973Y035259D01*
X023973Y035431D01*
X023908Y035589D01*
X023787Y035710D01*
X023629Y035775D01*
X023458Y035775D01*
X023300Y035710D01*
X023179Y035589D01*
X023113Y035431D01*
X023113Y035259D01*
X023179Y035101D01*
X023300Y034980D01*
X023228Y035053D02*
X017934Y035053D01*
X018003Y035151D02*
X023158Y035151D01*
X023117Y035250D02*
X020786Y035250D01*
X020779Y035243D02*
X020896Y035359D01*
X020959Y035512D01*
X020959Y035678D01*
X020896Y035831D01*
X020779Y035947D01*
X020626Y036011D01*
X020461Y036011D01*
X020308Y035947D01*
X020191Y035831D01*
X020128Y035678D01*
X020128Y035512D01*
X020191Y035359D01*
X020308Y035243D01*
X020461Y035179D01*
X020626Y035179D01*
X020779Y035243D01*
X020884Y035348D02*
X023113Y035348D01*
X023120Y035447D02*
X020932Y035447D01*
X020959Y035545D02*
X023161Y035545D01*
X023234Y035644D02*
X020959Y035644D01*
X020932Y035742D02*
X023378Y035742D01*
X023490Y035939D02*
X055993Y035939D01*
X055993Y035841D02*
X020886Y035841D01*
X020787Y035939D02*
X023096Y035939D01*
X023557Y036038D02*
X055993Y036038D01*
X055993Y036136D02*
X023578Y036136D01*
X023565Y036235D02*
X055993Y036235D01*
X055993Y036333D02*
X023508Y036333D01*
X023402Y036432D02*
X055993Y036432D01*
X055993Y036530D02*
X023531Y036530D01*
X023574Y036629D02*
X055993Y036629D01*
X055993Y036727D02*
X023578Y036727D01*
X023548Y036826D02*
X055993Y036826D01*
X055931Y036924D02*
X030975Y036924D01*
X031051Y037023D02*
X055833Y037023D01*
X055734Y037121D02*
X031078Y037121D01*
X031071Y037220D02*
X055636Y037220D01*
X055993Y035742D02*
X024708Y035742D01*
X024787Y035710D02*
X024629Y035775D01*
X024458Y035775D01*
X024300Y035710D01*
X024179Y035589D01*
X024113Y035431D01*
X024113Y035259D01*
X024179Y035101D01*
X024300Y034980D01*
X024458Y034915D01*
X024629Y034915D01*
X024787Y034980D01*
X024908Y035101D01*
X024973Y035259D01*
X024973Y035431D01*
X024908Y035589D01*
X024787Y035710D01*
X024853Y035644D02*
X055993Y035644D01*
X055993Y035545D02*
X024926Y035545D01*
X024967Y035447D02*
X055993Y035447D01*
X055993Y035348D02*
X024973Y035348D01*
X024969Y035250D02*
X055993Y035250D01*
X055993Y035151D02*
X024928Y035151D01*
X024859Y035053D02*
X055993Y035053D01*
X055993Y034954D02*
X024723Y034954D01*
X024363Y034954D02*
X023723Y034954D01*
X023859Y035053D02*
X024228Y035053D01*
X024158Y035151D02*
X023928Y035151D01*
X023969Y035250D02*
X024117Y035250D01*
X024113Y035348D02*
X023973Y035348D01*
X023967Y035447D02*
X024120Y035447D01*
X024161Y035545D02*
X023926Y035545D01*
X023853Y035644D02*
X024234Y035644D01*
X024378Y035742D02*
X023708Y035742D01*
X023185Y036432D02*
X012671Y036432D01*
X012671Y036530D02*
X023055Y036530D01*
X023012Y036629D02*
X012671Y036629D01*
X012632Y036727D02*
X023008Y036727D01*
X023039Y036826D02*
X012591Y036826D01*
X012531Y036924D02*
X019611Y036924D01*
X019536Y037023D02*
X012432Y037023D01*
X012284Y037121D02*
X019508Y037121D01*
X019516Y037220D02*
X007751Y037220D01*
X007652Y037121D02*
X009662Y037121D01*
X009578Y037086D02*
X009835Y037192D01*
X010112Y037192D01*
X010368Y037086D01*
X010565Y036890D01*
X010671Y036634D01*
X010671Y036356D01*
X010565Y036100D01*
X010368Y035904D01*
X010112Y035798D01*
X009835Y035798D01*
X009578Y035904D01*
X009382Y036100D01*
X009276Y036356D01*
X009276Y036634D01*
X009382Y036890D01*
X009578Y037086D01*
X009514Y037023D02*
X007554Y037023D01*
X007455Y036924D02*
X009416Y036924D01*
X009355Y036826D02*
X007393Y036826D01*
X007393Y036727D02*
X009314Y036727D01*
X009276Y036629D02*
X007393Y036629D01*
X007393Y036530D02*
X009276Y036530D01*
X009276Y036432D02*
X007393Y036432D01*
X007393Y036333D02*
X009285Y036333D01*
X009326Y036235D02*
X007393Y036235D01*
X007393Y036136D02*
X009367Y036136D01*
X009444Y036038D02*
X007393Y036038D01*
X007393Y035939D02*
X009543Y035939D01*
X009731Y035841D02*
X007393Y035841D01*
X007393Y035742D02*
X014028Y035742D01*
X013950Y035710D02*
X013829Y035589D01*
X013763Y035431D01*
X013763Y035259D01*
X013829Y035101D01*
X013950Y034980D01*
X014108Y034915D01*
X014279Y034915D01*
X014437Y034980D01*
X014558Y035101D01*
X014623Y035259D01*
X014623Y035431D01*
X014558Y035589D01*
X014437Y035710D01*
X014279Y035775D01*
X014108Y035775D01*
X013950Y035710D01*
X013884Y035644D02*
X007393Y035644D01*
X007393Y035545D02*
X013811Y035545D01*
X013770Y035447D02*
X007393Y035447D01*
X007393Y035348D02*
X013763Y035348D01*
X013767Y035250D02*
X007393Y035250D01*
X007393Y035151D02*
X013808Y035151D01*
X013878Y035053D02*
X007393Y035053D01*
X007393Y034954D02*
X014013Y034954D01*
X014373Y034954D02*
X015013Y034954D01*
X014878Y035053D02*
X014509Y035053D01*
X014578Y035151D02*
X014808Y035151D01*
X014767Y035250D02*
X014619Y035250D01*
X014623Y035348D02*
X014763Y035348D01*
X014770Y035447D02*
X014617Y035447D01*
X014576Y035545D02*
X014811Y035545D01*
X014884Y035644D02*
X014503Y035644D01*
X014358Y035742D02*
X015028Y035742D01*
X017783Y035742D02*
X019154Y035742D01*
X019128Y035644D02*
X017928Y035644D01*
X018001Y035545D02*
X019128Y035545D01*
X019155Y035447D02*
X018042Y035447D01*
X018048Y035348D02*
X019202Y035348D01*
X019301Y035250D02*
X018044Y035250D01*
X019786Y035250D02*
X020301Y035250D01*
X020202Y035348D02*
X019884Y035348D01*
X019932Y035447D02*
X020155Y035447D01*
X020128Y035545D02*
X019959Y035545D01*
X019959Y035644D02*
X020128Y035644D01*
X020154Y035742D02*
X019932Y035742D01*
X019886Y035841D02*
X020201Y035841D01*
X020299Y035939D02*
X019787Y035939D01*
X019975Y036924D02*
X023119Y036924D01*
X023467Y036924D02*
X030611Y036924D01*
X030536Y037023D02*
X020051Y037023D01*
X020078Y037121D02*
X030508Y037121D01*
X030516Y037220D02*
X020071Y037220D01*
X022139Y033378D02*
X007393Y033378D01*
X007393Y033280D02*
X021982Y033280D01*
X021928Y033181D02*
X007393Y033181D01*
X007393Y033083D02*
X021916Y033083D01*
X022262Y033378D02*
X055993Y033378D01*
X055993Y033280D02*
X022419Y033280D01*
X022473Y033181D02*
X055993Y033181D01*
X055993Y033083D02*
X022486Y033083D01*
X011731Y035841D02*
X010216Y035841D01*
X010404Y035939D02*
X011543Y035939D01*
X011444Y036038D02*
X010502Y036038D01*
X010580Y036136D02*
X011367Y036136D01*
X011326Y036235D02*
X010620Y036235D01*
X010661Y036333D02*
X011285Y036333D01*
X011276Y036432D02*
X010671Y036432D01*
X010671Y036530D02*
X011276Y036530D01*
X011276Y036629D02*
X010671Y036629D01*
X010632Y036727D02*
X011314Y036727D01*
X011355Y036826D02*
X010591Y036826D01*
X010531Y036924D02*
X011416Y036924D01*
X011514Y037023D02*
X010432Y037023D01*
X010284Y037121D02*
X011662Y037121D01*
X007393Y034856D02*
X055993Y034856D01*
X055993Y034757D02*
X007393Y034757D01*
X007393Y034659D02*
X055993Y034659D01*
X055993Y034560D02*
X007393Y034560D01*
X007393Y034462D02*
X055993Y034462D01*
X055993Y034363D02*
X007393Y034363D01*
X007393Y034265D02*
X055993Y034265D01*
X055993Y033575D02*
X007393Y033575D01*
X007393Y033477D02*
X055993Y033477D01*
X055993Y032984D02*
X055009Y032984D01*
X055205Y032886D02*
X055993Y032886D01*
X055993Y032787D02*
X055303Y032787D01*
X055402Y032689D02*
X055993Y032689D01*
X055993Y032590D02*
X055450Y032590D01*
X055490Y032492D02*
X055993Y032492D01*
X055993Y032393D02*
X055531Y032393D01*
X055543Y032295D02*
X055993Y032295D01*
X055993Y032196D02*
X055543Y032196D01*
X055543Y032098D02*
X055993Y032098D01*
X055993Y031999D02*
X055532Y031999D01*
X055491Y031901D02*
X055993Y031901D01*
X055993Y031802D02*
X055451Y031802D01*
X055404Y031704D02*
X055993Y031704D01*
X055993Y031605D02*
X055305Y031605D01*
X055207Y031507D02*
X055993Y031507D01*
X052486Y032196D02*
X046700Y032196D01*
X046817Y032295D02*
X052370Y032295D01*
X052310Y032393D02*
X046877Y032393D01*
X046913Y032492D02*
X052273Y032492D01*
X052273Y032590D02*
X046913Y032590D01*
X046897Y032689D02*
X052290Y032689D01*
X052331Y032787D02*
X046856Y032787D01*
X046767Y032886D02*
X052420Y032886D01*
X046286Y032196D02*
X040500Y032196D01*
X040617Y032295D02*
X046170Y032295D01*
X046110Y032393D02*
X040677Y032393D01*
X040713Y032492D02*
X046073Y032492D01*
X046073Y032590D02*
X040713Y032590D01*
X040697Y032689D02*
X046090Y032689D01*
X046131Y032787D02*
X040656Y032787D01*
X040567Y032886D02*
X046220Y032886D01*
D22*
X021643Y028045D03*
X013643Y018595D03*
X016493Y015395D03*
X016393Y012095D03*
X035893Y011295D03*
X035893Y010845D03*
X035893Y010395D03*
X035893Y009945D03*
X036343Y009945D03*
X036793Y009945D03*
X037243Y009945D03*
X037693Y009945D03*
X038143Y009945D03*
X038143Y010395D03*
X038143Y010845D03*
X038143Y011295D03*
D23*
X037043Y006795D03*
X043943Y006795D03*
X052843Y031395D03*
D24*
X022893Y028945D02*
X022893Y027195D01*
X022393Y027195D01*
X022393Y028945D01*
X022893Y028945D01*
X022893Y028943D02*
X022393Y028943D01*
X022393Y028874D02*
X022893Y028874D01*
X022893Y028806D02*
X022393Y028806D01*
X022393Y028737D02*
X022893Y028737D01*
X022893Y028669D02*
X022393Y028669D01*
X022393Y028600D02*
X022893Y028600D01*
X022893Y028532D02*
X022393Y028532D01*
X022393Y028463D02*
X022893Y028463D01*
X022893Y028395D02*
X022393Y028395D01*
X022393Y028326D02*
X022893Y028326D01*
X022893Y028258D02*
X022393Y028258D01*
X022393Y028189D02*
X022893Y028189D01*
X022893Y028121D02*
X022393Y028121D01*
X022393Y028052D02*
X022893Y028052D01*
X022893Y027984D02*
X022393Y027984D01*
X022393Y027915D02*
X022893Y027915D01*
X022893Y027847D02*
X022393Y027847D01*
X022393Y027778D02*
X022893Y027778D01*
X022893Y027710D02*
X022393Y027710D01*
X022393Y027641D02*
X022893Y027641D01*
X022893Y027573D02*
X022393Y027573D01*
X022393Y027504D02*
X022893Y027504D01*
X022893Y027436D02*
X022393Y027436D01*
X022393Y027367D02*
X022893Y027367D01*
X022893Y027299D02*
X022393Y027299D01*
X022393Y027230D02*
X022893Y027230D01*
D25*
X048393Y031295D03*
X050793Y031295D03*
X048793Y025095D03*
D26*
X024743Y006545D03*
X023393Y006545D03*
X021943Y006545D03*
X008593Y007995D03*
X008593Y009445D03*
X008593Y010895D03*
D27*
X014256Y006345D02*
X021743Y006345D01*
X021943Y006545D01*
D28*
X046493Y012895D03*
X049443Y012895D03*
D29*
X029993Y008495D03*
X029993Y006995D03*
D30*
X028393Y022495D03*
D31*
X045443Y023545D03*
X046143Y023195D03*
M02*
