G75*
%MOIN*%
%OFA0B0*%
%FSLAX24Y24*%
%IPPOS*%
%LPD*%
%AMOC8*
5,1,8,0,0,1.08239X$1,22.5*
%
%ADD10R,0.0866X0.0236*%
%ADD11R,0.0512X0.0630*%
%ADD12R,0.0787X0.0630*%
%ADD13OC8,0.0660*%
%ADD14OC8,0.0700*%
%ADD15R,0.0700X0.0700*%
%ADD16R,0.0740X0.0480*%
%ADD17R,0.0420X0.0350*%
%ADD18R,0.0600X0.0380*%
%ADD19R,0.0350X0.0420*%
%ADD20R,0.1457X0.0965*%
%ADD21R,0.0460X0.0140*%
%ADD22R,0.0590X0.0170*%
%ADD23R,0.0276X0.0669*%
%ADD24R,0.0610X0.0433*%
%ADD25R,0.1350X0.0500*%
%ADD26R,0.3550X0.4200*%
%ADD27OC8,0.1065*%
%ADD28OC8,0.0540*%
%ADD29C,0.0630*%
%ADD30R,0.0500X0.0220*%
%ADD31R,0.0780X0.0210*%
%ADD32R,0.0480X0.0740*%
%ADD33R,0.0394X0.0551*%
%ADD34OC8,0.0531*%
%ADD35OC8,0.1095*%
%ADD36R,0.0140X0.0400*%
%ADD37R,0.0394X0.0217*%
%ADD38R,0.0217X0.0394*%
%ADD39R,0.0650X0.1100*%
%ADD40R,0.0360X0.0480*%
%ADD41R,0.0512X0.0472*%
%ADD42OC8,0.1620*%
%ADD43OC8,0.1325*%
%ADD44OC8,0.1424*%
%ADD45R,0.3500X0.4200*%
%ADD46R,0.0900X0.0420*%
%ADD47R,0.1575X0.0630*%
%ADD48R,0.0417X0.0256*%
%ADD49R,0.0300X0.0400*%
%ADD50C,0.0120*%
%ADD51C,0.0270*%
%ADD52C,0.0240*%
%ADD53C,0.0160*%
%ADD54C,0.0070*%
%ADD55C,0.0100*%
%ADD56C,0.0050*%
%ADD57C,0.0472*%
%ADD58C,0.0320*%
%ADD59C,0.0376*%
%ADD60C,0.0531*%
%ADD61C,0.0400*%
%ADD62OC8,0.1181*%
%ADD63C,0.0945*%
%ADD64OC8,0.0768*%
%ADD65C,0.0500*%
%ADD66OC8,0.1502*%
%ADD67C,0.2000*%
%ADD68C,0.1000*%
%ADD69C,0.1200*%
%ADD70C,0.1500*%
%ADD71C,0.0416*%
%ADD72C,0.0240*%
D10*
X020470Y027045D03*
X020470Y027545D03*
X020470Y028045D03*
X020470Y028545D03*
X022517Y028545D03*
X022517Y028045D03*
X022517Y027545D03*
X022517Y027045D03*
X034217Y024495D03*
X034217Y023995D03*
X034217Y023495D03*
X034217Y022995D03*
X034217Y022495D03*
X034217Y021995D03*
X034217Y021495D03*
X036264Y021495D03*
X036264Y021995D03*
X036264Y022495D03*
X036264Y022995D03*
X036264Y023495D03*
X036264Y023995D03*
X036264Y024495D03*
D11*
X034891Y016216D03*
X033891Y016216D03*
D12*
X034391Y015074D03*
D13*
X029041Y016995D03*
X029041Y017995D03*
X029041Y018995D03*
X029041Y019995D03*
X029041Y020995D03*
X029041Y021995D03*
X029041Y022995D03*
X029041Y023995D03*
X029041Y025995D03*
X029041Y026995D03*
X029041Y027995D03*
X029041Y028995D03*
X029041Y029995D03*
X029041Y030995D03*
X010041Y030995D03*
X010041Y029995D03*
X010041Y028995D03*
X010041Y027995D03*
X010041Y026995D03*
X010041Y025995D03*
X010041Y024995D03*
X010041Y023995D03*
X010041Y022395D03*
X010041Y021395D03*
X010041Y020395D03*
X010041Y019395D03*
X010041Y018395D03*
X010041Y017395D03*
X010041Y016395D03*
X010041Y015395D03*
X010041Y014395D03*
X010041Y013395D03*
X023743Y010095D03*
X023743Y009095D03*
X024743Y009095D03*
X024743Y010095D03*
X025743Y010095D03*
X025743Y009095D03*
X026743Y009095D03*
X026743Y010095D03*
X027743Y010095D03*
X027743Y009095D03*
X052282Y026918D03*
X052282Y027918D03*
X053282Y027918D03*
X053282Y026918D03*
X053282Y028918D03*
X052282Y028918D03*
X052282Y029918D03*
X053282Y029918D03*
D14*
X020041Y031045D03*
X020041Y032045D03*
X019041Y032045D03*
X019041Y031045D03*
X018041Y032045D03*
D15*
X018041Y031045D03*
D16*
X023996Y027645D03*
X023996Y026345D03*
X020393Y024045D03*
X020393Y022745D03*
X021193Y021145D03*
X021193Y019845D03*
D17*
X023893Y021255D03*
X023893Y021935D03*
X019593Y016835D03*
X019593Y016155D03*
X015293Y017305D03*
X015293Y017985D03*
X013643Y017985D03*
X013643Y017305D03*
X014193Y028305D03*
X014193Y028985D03*
X014193Y030455D03*
X014193Y031135D03*
X019541Y028835D03*
X019541Y028155D03*
X023543Y030355D03*
X023543Y031035D03*
X023143Y033005D03*
X023143Y033685D03*
X025793Y030985D03*
X025793Y030305D03*
X033043Y023685D03*
X033043Y023005D03*
X034743Y026055D03*
X034743Y026735D03*
X035093Y028955D03*
X035093Y029635D03*
X035093Y030355D03*
X035093Y031035D03*
X035993Y031035D03*
X035993Y030355D03*
X036893Y030355D03*
X036893Y031035D03*
X038046Y029635D03*
X038046Y028955D03*
X034193Y030355D03*
X034193Y031035D03*
X039843Y024735D03*
X039843Y024055D03*
X037393Y023685D03*
X037393Y023005D03*
X034843Y019885D03*
X034843Y019205D03*
X033891Y017685D03*
X033891Y017005D03*
X037491Y017855D03*
X037491Y018535D03*
X037591Y016485D03*
X037591Y015805D03*
X041593Y019955D03*
X041593Y020635D03*
X042393Y020635D03*
X042393Y019955D03*
X043193Y019955D03*
X043193Y020635D03*
X046943Y022855D03*
X046943Y023535D03*
X044793Y024155D03*
X044793Y024835D03*
D18*
X038193Y023855D03*
X038193Y023035D03*
X038291Y018605D03*
X038291Y017785D03*
X038391Y016555D03*
X038391Y015735D03*
X032243Y023032D03*
X032243Y023852D03*
X031943Y026835D03*
X031943Y027655D03*
X018741Y028185D03*
X018741Y029005D03*
D19*
X022353Y029495D03*
X023033Y029495D03*
X023401Y028545D03*
X024081Y028545D03*
X024751Y028545D03*
X025431Y028545D03*
X023033Y031845D03*
X022353Y031845D03*
X023703Y036145D03*
X023703Y036695D03*
X024383Y036695D03*
X024383Y036145D03*
X017433Y036145D03*
X017433Y036695D03*
X016753Y036695D03*
X016753Y036145D03*
X015033Y036145D03*
X015033Y036695D03*
X014353Y036695D03*
X014353Y036145D03*
X011583Y028995D03*
X010903Y028995D03*
X010903Y027995D03*
X011583Y027995D03*
X011583Y026995D03*
X010903Y026995D03*
X010903Y025995D03*
X011583Y025995D03*
X011583Y024995D03*
X010903Y024995D03*
X010903Y023995D03*
X011583Y023995D03*
X011583Y022395D03*
X010903Y022395D03*
X010903Y021395D03*
X011583Y021395D03*
X011583Y019395D03*
X010903Y019395D03*
X010903Y018395D03*
X011583Y018395D03*
X011583Y014395D03*
X010903Y014395D03*
X010903Y013395D03*
X011583Y013395D03*
X010483Y011645D03*
X009803Y011645D03*
X009803Y010595D03*
X010483Y010595D03*
X016953Y010845D03*
X017633Y010845D03*
X024453Y021995D03*
X024453Y022595D03*
X025133Y022595D03*
X025133Y021995D03*
X027603Y023295D03*
X028283Y023295D03*
X028283Y023995D03*
X027603Y023995D03*
X030253Y025995D03*
X030933Y025995D03*
X030933Y026995D03*
X030253Y026995D03*
X030253Y027995D03*
X030933Y027995D03*
X030933Y028995D03*
X030253Y028995D03*
X034403Y027645D03*
X035083Y027645D03*
X037653Y026395D03*
X038333Y026395D03*
X038333Y025645D03*
X037653Y025645D03*
X037651Y021995D03*
X038331Y021995D03*
X038331Y021245D03*
X037651Y021245D03*
X036083Y020445D03*
X035403Y020445D03*
X035403Y019245D03*
X036083Y019245D03*
X039453Y021395D03*
X040133Y021395D03*
X040103Y019145D03*
X040783Y019145D03*
X042953Y022195D03*
X043633Y022195D03*
X044753Y022245D03*
X045433Y022245D03*
X046153Y024145D03*
X046833Y024145D03*
X043633Y024195D03*
X042953Y024195D03*
X045053Y031295D03*
X045733Y031295D03*
X046553Y031295D03*
X047233Y031295D03*
X036631Y015095D03*
X035951Y015095D03*
D20*
X037043Y012962D03*
X037043Y010934D03*
D21*
X036901Y015885D03*
X036901Y016145D03*
X036901Y016405D03*
X036081Y016405D03*
X036081Y015885D03*
D22*
X036651Y017815D03*
X036651Y018065D03*
X036651Y018325D03*
X036651Y018575D03*
X034931Y018575D03*
X034931Y018325D03*
X034931Y018065D03*
X034931Y017815D03*
D23*
X027944Y034529D03*
X026944Y034529D03*
X025944Y034529D03*
D24*
X025277Y035295D03*
X025277Y036795D03*
X029115Y036795D03*
X029115Y035295D03*
D25*
X042488Y018995D03*
X042488Y016995D03*
D26*
X046368Y017995D03*
D27*
X044993Y035635D03*
X047993Y035635D03*
X051193Y035635D03*
X054193Y035635D03*
X041793Y035635D03*
X038793Y035635D03*
X035593Y035635D03*
X032593Y035635D03*
X019943Y007805D03*
X016943Y007805D03*
X013743Y007805D03*
X010743Y007805D03*
D28*
X012243Y010875D03*
X018443Y010875D03*
X034093Y032565D03*
X040293Y032565D03*
X046493Y032565D03*
X052693Y032565D03*
D29*
X032941Y020495D03*
X032641Y016495D03*
X020993Y013545D03*
X017743Y016195D03*
X024693Y030295D03*
D30*
X035936Y029665D03*
X035936Y028925D03*
X036956Y028925D03*
X036956Y029295D03*
X036956Y029665D03*
D31*
X019213Y014492D03*
X019213Y013992D03*
X019213Y013492D03*
X019213Y012992D03*
X017273Y012992D03*
X017273Y013492D03*
X017273Y013992D03*
X017273Y014492D03*
D32*
X017043Y015395D03*
X018343Y015395D03*
X018246Y012095D03*
X016946Y012095D03*
X042993Y021395D03*
X044293Y021395D03*
X046143Y025045D03*
X047443Y025045D03*
D33*
X038767Y030365D03*
X038019Y030365D03*
X038393Y031231D03*
X015867Y031212D03*
X015119Y031212D03*
X015493Y032078D03*
D34*
X019543Y035595D03*
X020543Y035595D03*
X021543Y035595D03*
D35*
X012823Y031495D03*
X010973Y031495D03*
X009123Y031495D03*
X009973Y036495D03*
X011973Y036495D03*
X033293Y012995D03*
X033293Y006995D03*
X040793Y006995D03*
X040793Y012995D03*
D36*
X040853Y019805D03*
X040593Y019805D03*
X040333Y019805D03*
X040077Y019805D03*
X040077Y020685D03*
X040333Y020685D03*
X040593Y020685D03*
X040853Y020685D03*
X022803Y030255D03*
X022543Y030255D03*
X022283Y030255D03*
X022027Y030255D03*
X022027Y031135D03*
X022283Y031135D03*
X022543Y031135D03*
X022803Y031135D03*
X014753Y019085D03*
X014493Y019085D03*
X014233Y019085D03*
X014233Y018205D03*
X014493Y018205D03*
X014753Y018205D03*
D37*
X045062Y022821D03*
X045062Y023195D03*
X045062Y023569D03*
X046125Y023569D03*
X046125Y022821D03*
D38*
X022367Y022926D03*
X021619Y022926D03*
X021619Y021864D03*
X021993Y021864D03*
X022367Y021864D03*
D39*
X022343Y017595D03*
X021243Y017595D03*
D40*
X021085Y018995D03*
X022502Y018995D03*
D41*
X020374Y019806D03*
X020374Y021184D03*
X018012Y021184D03*
X018012Y019806D03*
D42*
X051770Y010719D03*
D43*
X051770Y008357D03*
D44*
X053541Y007965D03*
X049998Y007965D03*
D45*
X043293Y028495D03*
D46*
X046943Y028495D03*
X046943Y029165D03*
X046943Y029835D03*
X046943Y027825D03*
X046943Y027155D03*
D47*
X048393Y025995D03*
X050794Y025995D03*
X050794Y030395D03*
X048393Y030395D03*
D48*
X044026Y023569D03*
X044026Y023195D03*
X044026Y022821D03*
X043160Y022821D03*
X043160Y023195D03*
X043160Y023569D03*
X042126Y023569D03*
X042126Y023195D03*
X042126Y022821D03*
X041260Y022821D03*
X041260Y023195D03*
X041260Y023569D03*
D49*
X027433Y030295D03*
X026553Y030295D03*
D50*
X025803Y030295D01*
X025793Y030305D01*
X024703Y030305D01*
X024693Y030295D01*
X024633Y030355D01*
X023543Y030355D01*
X023533Y030345D01*
X023093Y030345D01*
X022993Y030245D01*
X022983Y030255D01*
X022803Y030255D01*
X023093Y031045D02*
X023533Y031045D01*
X023543Y031035D01*
X023543Y031045D01*
X023993Y031495D01*
X023993Y032645D01*
X023643Y032995D01*
X023153Y032995D01*
X023143Y033005D01*
X022201Y033095D02*
X014423Y033095D01*
X012823Y031495D01*
X010973Y031495D02*
X012823Y033345D01*
X024760Y033345D01*
X025944Y034529D01*
X025393Y034695D02*
X025893Y035195D01*
X028293Y035195D01*
X029393Y034095D01*
X029393Y033595D01*
X034743Y028245D01*
X034743Y026735D01*
X034743Y026055D02*
X034749Y026049D01*
X034749Y025239D01*
X035193Y024795D01*
X035193Y023895D01*
X035593Y023495D01*
X036264Y023495D01*
X036843Y023495D01*
X037043Y023695D01*
X037043Y024345D01*
X037493Y024795D01*
X039843Y024795D01*
X039843Y024735D01*
X039843Y024795D02*
X040593Y025545D01*
X045043Y025545D01*
X045393Y025195D01*
X045393Y024095D01*
X045743Y023745D01*
X045743Y023295D01*
X045269Y022821D01*
X045062Y022821D01*
X045086Y023545D02*
X045443Y023545D01*
X045086Y023545D02*
X045062Y023569D01*
X044793Y023569D01*
X044793Y024155D01*
X044793Y023569D02*
X044567Y023569D01*
X044193Y023195D01*
X044026Y023195D01*
X043160Y023195D01*
X043160Y022821D02*
X043093Y022754D01*
X043093Y022595D01*
X042993Y022495D01*
X042993Y022235D01*
X042953Y022195D01*
X041893Y022195D01*
X041693Y022395D01*
X041693Y022912D01*
X041410Y023195D01*
X041260Y023195D01*
X041260Y022821D02*
X041260Y022228D01*
X042393Y021095D01*
X042393Y020635D01*
X042393Y019955D02*
X041593Y019955D01*
X041593Y020635D02*
X041593Y021295D01*
X040793Y022095D01*
X040793Y023395D01*
X040993Y023595D01*
X041234Y023595D01*
X041260Y023569D01*
X041693Y023478D02*
X041693Y023995D01*
X041893Y024195D01*
X042953Y024195D01*
X042993Y024155D01*
X042993Y023895D01*
X043093Y023795D01*
X043093Y023636D01*
X043160Y023569D01*
X042543Y023595D02*
X042152Y023595D01*
X042126Y023569D01*
X042126Y023195D02*
X041976Y023195D01*
X041693Y023478D01*
X042126Y022821D02*
X042152Y022795D01*
X042543Y022795D01*
X043633Y022195D02*
X043683Y022145D01*
X044293Y022145D01*
X043993Y022495D02*
X043993Y022788D01*
X044026Y022821D01*
X044026Y023569D02*
X043993Y023602D01*
X043993Y023895D01*
X044093Y024295D02*
X043733Y024295D01*
X043633Y024195D01*
X043033Y024195D02*
X042953Y024195D01*
X042993Y024195D01*
X044793Y024835D02*
X044793Y025195D01*
X046603Y023195D02*
X046943Y023535D01*
X046603Y023195D02*
X046143Y023195D01*
X046125Y022821D02*
X046909Y022821D01*
X046943Y022855D01*
X046125Y022821D02*
X046125Y021926D01*
X045993Y021795D01*
X045593Y021795D01*
X043793Y019995D01*
X043793Y018927D01*
X043161Y018295D01*
X041793Y018295D01*
X041493Y018595D01*
X041493Y019195D01*
X040883Y019805D01*
X040853Y019805D01*
X040593Y019805D02*
X040593Y019595D01*
X040643Y019545D01*
X040343Y019545D02*
X040333Y019555D01*
X040333Y019805D01*
X040768Y020345D02*
X040843Y020420D01*
X040843Y020675D01*
X040853Y020685D01*
X040843Y020695D01*
X040843Y020995D01*
X040593Y021045D02*
X040593Y020685D01*
X040333Y020685D02*
X040333Y020905D01*
X040243Y020995D01*
X039843Y020995D01*
X040543Y021095D02*
X040593Y021045D01*
X042393Y019955D02*
X042488Y019860D01*
X042488Y018995D01*
X042393Y019955D02*
X043193Y019955D01*
X043193Y020635D02*
X043583Y020635D01*
X043593Y020645D01*
X042893Y017895D02*
X040543Y017895D01*
X039743Y018695D01*
X038293Y017795D02*
X038291Y017792D01*
X038291Y017785D01*
X037491Y018535D02*
X037493Y018538D01*
X037493Y018545D01*
X036651Y018065D02*
X036183Y018065D01*
X036083Y018165D01*
X036083Y019245D01*
X036083Y020445D01*
X036083Y020455D01*
X035743Y020795D01*
X035193Y020795D01*
X034893Y021095D01*
X032943Y021095D01*
X032941Y021095D01*
X032941Y020495D01*
X032941Y021092D02*
X032943Y021095D01*
X033593Y021495D02*
X033343Y021745D01*
X033593Y021495D02*
X034217Y021495D01*
X034217Y021995D01*
X035593Y021695D02*
X035793Y021495D01*
X036264Y021495D01*
X036514Y021245D01*
X037651Y021245D01*
X038331Y021245D02*
X037651Y021925D01*
X037651Y021995D01*
X036264Y021995D01*
X036264Y021495D02*
X036243Y021474D01*
X035403Y020445D02*
X034943Y020445D01*
X034843Y020345D01*
X034843Y019885D01*
X034843Y019205D02*
X035363Y019205D01*
X035403Y019245D01*
X035403Y018455D01*
X035393Y018445D01*
X035393Y018425D01*
X035293Y018325D01*
X034931Y018325D01*
X034931Y018065D02*
X034911Y018045D01*
X035393Y018045D01*
X035493Y017945D01*
X035493Y016505D01*
X035593Y016405D01*
X036043Y016405D02*
X036081Y016405D01*
X036081Y015885D02*
X036081Y015645D01*
X036631Y015095D01*
X035951Y015095D02*
X035930Y015074D01*
X034391Y015074D01*
X034891Y016216D02*
X035080Y016405D01*
X033891Y016216D02*
X033891Y017005D01*
X033891Y017685D02*
X034383Y017685D01*
X034393Y017695D01*
X034931Y017765D02*
X034931Y017815D01*
X034931Y017765D02*
X034943Y017752D01*
X036003Y019245D02*
X036083Y019245D01*
X037651Y021995D02*
X037601Y022045D01*
X036743Y023995D02*
X036843Y024095D01*
X036843Y024595D01*
X037243Y024995D01*
X037243Y025395D01*
X037493Y025645D01*
X037653Y025645D01*
X038333Y026325D01*
X038333Y026395D01*
X037653Y026395D02*
X036843Y026395D01*
X036843Y027655D01*
X037634Y028445D01*
X038743Y028445D01*
X039243Y028945D01*
X039243Y031095D01*
X039943Y031795D01*
X046943Y031795D01*
X047713Y032565D01*
X052693Y032565D01*
X048393Y031295D02*
X047233Y031295D01*
X046553Y031295D02*
X046193Y031295D01*
X046193Y030195D01*
X046553Y029835D01*
X046943Y029835D01*
X046193Y031295D02*
X045733Y031295D01*
X045053Y031295D02*
X044593Y031295D01*
X046023Y032095D02*
X046493Y032565D01*
X046023Y032095D02*
X039793Y032095D01*
X038843Y033045D01*
X036843Y033045D01*
X035993Y032195D01*
X035993Y031035D01*
X035953Y030995D01*
X035693Y030995D01*
X035543Y030845D01*
X035543Y030157D01*
X035755Y029945D01*
X036343Y029945D01*
X036443Y029845D01*
X036443Y027645D01*
X035083Y027645D01*
X034403Y027645D02*
X033043Y027645D01*
X031943Y027655D01*
X030933Y027655D01*
X030933Y026995D01*
X030933Y025995D01*
X030253Y025995D02*
X029041Y025995D01*
X029041Y026995D02*
X030253Y026995D01*
X030933Y027655D02*
X030933Y027995D01*
X030933Y028995D01*
X030253Y028995D02*
X029041Y028995D01*
X029041Y027995D02*
X030253Y027995D01*
X031943Y026835D02*
X031943Y026395D01*
X034743Y025239D02*
X034749Y025239D01*
X035593Y024645D02*
X036443Y025495D01*
X036443Y027645D01*
X036843Y026395D02*
X036843Y025445D01*
X036293Y024895D01*
X036293Y024524D01*
X036264Y024495D01*
X036264Y023995D02*
X036743Y023995D01*
X038333Y025645D02*
X038743Y025645D01*
X039843Y024055D02*
X039843Y023695D01*
X038016Y028925D02*
X036956Y028925D01*
X038016Y028925D02*
X038046Y028955D01*
X038046Y029635D02*
X038046Y030338D01*
X038019Y030365D01*
X038767Y030365D02*
X038767Y029919D01*
X038793Y029845D01*
X038393Y031231D02*
X038393Y032595D01*
X039463Y033395D02*
X040293Y032565D01*
X039463Y033395D02*
X035793Y033395D01*
X033343Y030945D01*
X033343Y030595D01*
X032693Y029745D02*
X027944Y034494D01*
X027944Y034529D01*
X026944Y034529D02*
X026943Y034528D01*
X026943Y033745D01*
X025793Y032595D01*
X025793Y030985D01*
X027433Y030295D02*
X027893Y030295D01*
X023693Y028995D02*
X023401Y028702D01*
X023401Y028545D01*
X022517Y028545D01*
X023093Y031045D02*
X023003Y031135D01*
X022803Y031135D01*
X021993Y031895D02*
X021943Y031845D01*
X023143Y033685D02*
X020653Y033685D01*
X019543Y034795D01*
X019543Y035595D01*
X018943Y036295D02*
X019793Y037145D01*
X018943Y036295D02*
X018943Y034545D01*
X017993Y033595D01*
X011223Y033595D01*
X009123Y031495D01*
X013943Y036695D02*
X014353Y036695D01*
X017433Y036695D02*
X017433Y036145D01*
X020543Y035595D02*
X020543Y035545D01*
X021393Y034695D01*
X025393Y034695D01*
X026943Y034629D02*
X026944Y034529D01*
X024383Y036145D02*
X024383Y036695D01*
X023703Y036695D02*
X023293Y036695D01*
X023293Y036145D02*
X023496Y036142D01*
X023703Y036145D01*
X030793Y037145D02*
X032693Y037145D01*
X034093Y035745D01*
X034093Y032565D01*
X035093Y030355D02*
X035093Y030324D01*
X035753Y029665D01*
X035936Y029665D01*
X035993Y030355D02*
X036893Y030355D01*
X035246Y030355D02*
X035093Y030355D01*
X042893Y017895D02*
X043393Y017395D01*
X043393Y013695D01*
X046793Y010295D01*
X046793Y008645D01*
X038393Y016545D02*
X038393Y016552D01*
X038391Y016555D01*
X037591Y015805D02*
X037591Y015798D01*
X037593Y015795D01*
X032643Y015645D02*
X032641Y015648D01*
X032641Y016495D01*
X020993Y013545D02*
X019943Y013545D01*
X019893Y013495D01*
X019216Y013495D01*
X019213Y013492D01*
X019216Y013495D02*
X019193Y013495D01*
X018443Y016245D02*
X017793Y016245D01*
X017743Y016195D01*
X017633Y010845D02*
X017633Y010835D01*
X016953Y010845D02*
X016543Y010845D01*
X016293Y031195D02*
X016276Y031212D01*
X015867Y031212D01*
X053000Y027201D02*
X053000Y027201D01*
D51*
X051293Y023895D03*
X050793Y023895D03*
X050293Y023895D03*
X049793Y023895D03*
X049293Y023895D03*
X048793Y023895D03*
X048793Y023395D03*
X048293Y023395D03*
X048293Y022895D03*
X048293Y022395D03*
X047793Y022395D03*
X047793Y021895D03*
X047293Y021895D03*
X047293Y021395D03*
X046793Y021395D03*
X046793Y020895D03*
X046293Y020895D03*
X046293Y020395D03*
X045793Y020395D03*
X045293Y020395D03*
X044793Y020395D03*
X044293Y019895D03*
X044293Y019395D03*
X044293Y018895D03*
X044293Y018395D03*
X043793Y018395D03*
X043793Y017895D03*
X043793Y017395D03*
X043793Y016895D03*
X043793Y016395D03*
X043793Y015895D03*
X043793Y015395D03*
X043793Y014895D03*
X044293Y014895D03*
X044293Y015395D03*
X044293Y015895D03*
X044293Y016395D03*
X044293Y016895D03*
X044293Y017395D03*
X044293Y017895D03*
X044793Y015395D03*
X044793Y014895D03*
X045293Y014895D03*
X045293Y015395D03*
X045793Y015395D03*
X045793Y014895D03*
X046293Y014895D03*
X046293Y015395D03*
X046793Y015395D03*
X046793Y014895D03*
X047293Y014895D03*
X047293Y015395D03*
X047793Y015395D03*
X047793Y014895D03*
X048293Y014895D03*
X048293Y015395D03*
X048293Y015895D03*
X048293Y016395D03*
X048293Y016895D03*
X048293Y017395D03*
X048293Y017895D03*
X048293Y018395D03*
X048293Y018895D03*
X048293Y019395D03*
X048293Y019895D03*
X048793Y019895D03*
X048793Y019395D03*
X048793Y018895D03*
X048793Y018395D03*
X048793Y017895D03*
X048793Y017395D03*
X048793Y016895D03*
X048793Y016395D03*
X048793Y015895D03*
X048793Y015395D03*
X048793Y014895D03*
X049293Y014895D03*
X049293Y015395D03*
X049293Y015895D03*
X049293Y016395D03*
X049293Y016895D03*
X049293Y017395D03*
X049293Y017895D03*
X049293Y018395D03*
X049293Y018895D03*
X049293Y019395D03*
X049293Y019895D03*
X049793Y019895D03*
X049793Y019395D03*
X049793Y018895D03*
X049793Y018395D03*
X049793Y017895D03*
X049793Y017395D03*
X049793Y016895D03*
X049793Y016395D03*
X049793Y015895D03*
X049793Y015395D03*
X049793Y014895D03*
X050293Y014895D03*
X050293Y015395D03*
X050293Y015895D03*
X050293Y016395D03*
X050293Y016895D03*
X050293Y017395D03*
X050293Y017895D03*
X050293Y018395D03*
X050293Y018895D03*
X050293Y019395D03*
X050293Y019895D03*
X050793Y019895D03*
X050793Y019395D03*
X050793Y018895D03*
X050793Y018395D03*
X050793Y017895D03*
X050793Y017395D03*
X050793Y016895D03*
X050793Y016395D03*
X050793Y015895D03*
X050793Y015395D03*
X050793Y014895D03*
X051293Y014895D03*
X051293Y015395D03*
X051293Y015895D03*
X051293Y016395D03*
X051293Y016895D03*
X051293Y017395D03*
X051293Y017895D03*
X051293Y018395D03*
X051293Y018895D03*
X051293Y019395D03*
X051293Y019895D03*
X051293Y020395D03*
X050793Y020395D03*
X050293Y020395D03*
X049793Y020395D03*
X049293Y020395D03*
X048793Y020395D03*
X048293Y020395D03*
X047793Y020395D03*
X047293Y020395D03*
X046793Y020395D03*
X047293Y020895D03*
X047793Y020895D03*
X047793Y021395D03*
X048293Y021395D03*
X048293Y020895D03*
X048793Y020895D03*
X048793Y021395D03*
X048793Y021895D03*
X048293Y021895D03*
X048793Y022395D03*
X048793Y022895D03*
X049293Y022895D03*
X049293Y022395D03*
X049293Y021895D03*
X049293Y021395D03*
X049293Y020895D03*
X049793Y020895D03*
X049793Y021395D03*
X049793Y021895D03*
X049793Y022395D03*
X049793Y022895D03*
X049793Y023395D03*
X049293Y023395D03*
X050293Y023395D03*
X050293Y022895D03*
X050293Y022395D03*
X050293Y021895D03*
X050293Y021395D03*
X050293Y020895D03*
X050793Y020895D03*
X050793Y021395D03*
X050793Y021895D03*
X050793Y022395D03*
X050793Y022895D03*
X050793Y023395D03*
X051293Y023395D03*
X051293Y022895D03*
X051293Y022395D03*
X051293Y021895D03*
X051293Y021395D03*
X051293Y020895D03*
X047193Y024145D03*
X047893Y025045D03*
X045693Y025045D03*
X044793Y025195D03*
X044793Y026195D03*
X044293Y026195D03*
X043793Y026195D03*
X043293Y026195D03*
X042793Y026195D03*
X042293Y026195D03*
X041793Y026195D03*
X041293Y026195D03*
X040793Y026195D03*
X040293Y026195D03*
X039793Y026195D03*
X039793Y026695D03*
X039793Y027195D03*
X039793Y027695D03*
X039793Y028195D03*
X039793Y028695D03*
X039793Y029195D03*
X039793Y029695D03*
X039793Y030195D03*
X039793Y030695D03*
X040293Y030695D03*
X040293Y030195D03*
X040293Y029695D03*
X040293Y029195D03*
X040293Y028695D03*
X040293Y028195D03*
X040293Y027695D03*
X040293Y027195D03*
X040293Y026695D03*
X040793Y026695D03*
X040793Y027195D03*
X040793Y027695D03*
X040793Y028195D03*
X040793Y028695D03*
X040793Y029195D03*
X040793Y029695D03*
X040793Y030195D03*
X040793Y030695D03*
X041293Y030695D03*
X041293Y030195D03*
X041293Y029695D03*
X041293Y029195D03*
X041293Y028695D03*
X041293Y028195D03*
X041293Y027695D03*
X041293Y027195D03*
X041293Y026695D03*
X038743Y025645D03*
X038193Y024295D03*
X037393Y024095D03*
X038193Y023445D03*
X038693Y023095D03*
X038743Y021995D03*
X039443Y021795D03*
X040143Y021795D03*
X039843Y020995D03*
X038293Y019045D03*
X038843Y018595D03*
X038843Y017795D03*
X038293Y017345D03*
X038393Y016995D03*
X038943Y016595D03*
X038943Y015695D03*
X038393Y015295D03*
X037593Y015395D03*
X037593Y016895D03*
X037493Y017445D03*
X037493Y018945D03*
X039743Y018695D03*
X040143Y018745D03*
X040793Y018745D03*
X043593Y020645D03*
X042543Y021395D03*
X043993Y022495D03*
X044293Y022145D03*
X044793Y021845D03*
X045243Y021845D03*
X044743Y021345D03*
X042543Y022795D03*
X042543Y023595D03*
X043993Y023895D03*
X044093Y024295D03*
X045793Y024145D03*
X045793Y026195D03*
X045293Y026195D03*
X045293Y026695D03*
X045293Y027195D03*
X045293Y027695D03*
X045293Y028195D03*
X045293Y028695D03*
X045293Y029195D03*
X045293Y029695D03*
X045293Y030195D03*
X045293Y030695D03*
X045793Y030695D03*
X045793Y030195D03*
X045793Y029695D03*
X045793Y029195D03*
X045793Y028695D03*
X045793Y028195D03*
X045793Y027695D03*
X045793Y027195D03*
X045793Y026695D03*
X044593Y031295D03*
X038793Y029845D03*
X037443Y029295D03*
X037343Y031045D03*
X038393Y032595D03*
X035093Y031445D03*
X033743Y030345D03*
X033343Y030595D03*
X032693Y029745D03*
X034643Y029645D03*
X035093Y028545D03*
X031943Y026395D03*
X032243Y024295D03*
X031693Y023845D03*
X031693Y023045D03*
X032193Y022595D03*
X033043Y022595D03*
X033343Y021745D03*
X032943Y021095D03*
X034943Y020445D03*
X035593Y021695D03*
X033043Y024095D03*
X035593Y024645D03*
X039843Y023695D03*
X034393Y017695D03*
X034943Y017495D03*
X023343Y017595D03*
X022943Y017595D03*
X022943Y017995D03*
X023343Y017995D03*
X023343Y017195D03*
X022943Y017195D03*
X015293Y016895D03*
X015293Y018395D03*
X013943Y019295D03*
X013643Y016895D03*
X010893Y011645D03*
X010893Y010595D03*
X009393Y009695D03*
X016543Y010845D03*
X023393Y007345D03*
X045843Y008645D03*
X046793Y008645D03*
X025893Y028545D03*
X023693Y028995D03*
X021993Y029395D03*
X019443Y029295D03*
X018143Y028995D03*
X018143Y028145D03*
X018693Y027695D03*
X019393Y027695D03*
X016293Y031195D03*
X015843Y032795D03*
X015843Y033895D03*
X016343Y036145D03*
X013943Y036145D03*
X013943Y036695D03*
X019793Y037145D03*
X023293Y036695D03*
X023293Y036145D03*
X022201Y033095D03*
X021993Y031895D03*
X023493Y031845D03*
X027893Y030295D03*
X030793Y037145D03*
X014193Y027845D03*
D52*
X018143Y028145D02*
X018693Y028145D01*
X018693Y028138D02*
X018693Y027695D01*
X018693Y028138D02*
X018741Y028185D01*
X019541Y028155D02*
X019541Y027842D01*
X019393Y027695D01*
X019541Y028835D02*
X019551Y028845D01*
X019541Y028835D02*
X019443Y028932D01*
X019443Y029295D01*
X018741Y029005D02*
X018731Y028995D01*
X018143Y028995D01*
X031693Y023845D02*
X032243Y023845D01*
X032393Y023695D01*
X033043Y023695D01*
X033043Y023685D01*
X033043Y023695D02*
X033043Y024095D01*
X032243Y024295D02*
X032243Y023852D01*
X032193Y023045D02*
X031693Y023045D01*
X032193Y023032D02*
X032193Y022595D01*
X032271Y023005D02*
X032243Y023032D01*
X032271Y023005D02*
X033043Y023005D01*
X033643Y022995D01*
X034217Y022995D01*
X033043Y023005D02*
X033043Y022595D01*
X036264Y022495D02*
X039943Y022495D01*
X040843Y021595D01*
X040843Y020995D01*
X040543Y021095D02*
X040293Y021395D01*
X040133Y021395D01*
X040143Y021405D01*
X040143Y021795D01*
X039443Y021795D02*
X039443Y021405D01*
X039453Y021395D01*
X038693Y023095D02*
X038193Y023095D01*
X038193Y023035D01*
X037343Y023035D01*
X037393Y023005D01*
X037393Y023685D02*
X037393Y024095D01*
X038193Y024295D02*
X038193Y023855D01*
X038193Y023445D02*
X038193Y023095D01*
X040343Y019545D02*
X040343Y019385D01*
X040103Y019145D01*
X040143Y019105D01*
X040143Y018745D01*
X040783Y018755D02*
X040793Y018745D01*
X040783Y018755D02*
X040783Y019145D01*
X040783Y019355D01*
X040693Y019445D01*
X038843Y018595D02*
X038293Y018595D01*
X038293Y019045D01*
X038291Y018605D02*
X037561Y018605D01*
X037491Y018535D01*
X037281Y018325D01*
X037043Y018325D01*
X037493Y018545D02*
X037493Y018945D01*
X037491Y017855D02*
X037561Y017785D01*
X038291Y017785D01*
X038293Y017795D02*
X038193Y017795D01*
X038293Y017795D02*
X038293Y017845D01*
X038293Y017795D02*
X038293Y017345D01*
X038393Y016995D02*
X038393Y016545D01*
X038391Y016555D02*
X037661Y016555D01*
X037591Y016485D01*
X037551Y016445D01*
X037593Y016495D02*
X037593Y016895D01*
X037493Y017445D02*
X037493Y017795D01*
X038293Y017795D02*
X038843Y017795D01*
X038943Y016595D02*
X038443Y016595D01*
X038391Y015735D02*
X037661Y015735D01*
X037591Y015805D01*
X037593Y015795D02*
X037593Y015395D01*
X038393Y015295D02*
X038393Y015695D01*
X038943Y015695D01*
X036081Y016405D02*
X035593Y016405D01*
X035080Y016405D01*
X034891Y016216D02*
X034891Y016142D01*
X034393Y015645D01*
X032643Y015645D01*
X034943Y017495D02*
X034943Y017752D01*
X042543Y021395D02*
X042993Y021395D01*
X044293Y021395D02*
X044693Y021395D01*
X044743Y021345D01*
X044793Y021845D02*
X044793Y022195D01*
X044743Y022245D01*
X044753Y022245D01*
X044743Y022245D02*
X044693Y022245D01*
X044593Y022145D01*
X044293Y022145D01*
X044593Y022195D02*
X044643Y022145D01*
X044593Y022195D02*
X044593Y022245D01*
X044693Y022245D01*
X044593Y022245D02*
X044593Y023045D01*
X044743Y023195D01*
X045062Y023195D01*
X045433Y022245D02*
X045243Y022055D01*
X045243Y021845D01*
X046125Y023569D02*
X046153Y023598D01*
X046153Y024145D01*
X045793Y024145D01*
X046143Y024155D02*
X046143Y025045D01*
X046093Y025045D02*
X045693Y025045D01*
X046143Y024155D02*
X046153Y024145D01*
X046833Y024145D02*
X047193Y024145D01*
X047443Y025045D02*
X047893Y025045D01*
X035936Y028925D02*
X035123Y028925D01*
X035093Y028955D01*
X035093Y028545D01*
X035093Y029635D02*
X034643Y029645D01*
X018343Y015395D02*
X018343Y015145D01*
X017693Y014495D01*
X017276Y014495D01*
X017273Y014492D01*
X017043Y015395D02*
X016493Y015395D01*
X017273Y012992D02*
X017273Y012422D01*
X016946Y012095D01*
X016393Y012095D01*
D53*
X017633Y010845D02*
X018443Y010845D01*
X018443Y010875D01*
X019223Y010095D01*
X023743Y010095D01*
X025343Y011695D01*
X029543Y011695D01*
X031893Y014046D01*
X031893Y021695D01*
X032293Y022095D01*
X033293Y022095D01*
X033693Y022495D01*
X034217Y022495D01*
X034693Y022495D01*
X034793Y022395D01*
X034793Y021695D01*
X035493Y020995D01*
X036393Y020995D01*
X036703Y020685D01*
X040077Y020685D01*
X039818Y020345D02*
X039818Y020320D01*
X039768Y020270D01*
X039743Y020270D02*
X039818Y020345D01*
X040768Y020345D01*
X040643Y019545D02*
X040693Y019495D01*
X040693Y019445D01*
X038743Y021995D02*
X038331Y021995D01*
X037393Y023005D02*
X037343Y022995D01*
X036264Y022995D01*
X036651Y018325D02*
X037043Y018325D01*
X037591Y016485D02*
X037511Y016405D01*
X036901Y016405D01*
X036901Y016145D02*
X037291Y016145D01*
X037591Y015845D01*
X037591Y015805D01*
X023996Y026345D02*
X023996Y026692D01*
X023143Y027545D01*
X022517Y027545D01*
X022517Y028045D02*
X021643Y028045D01*
X022517Y028045D02*
X023356Y028045D01*
X023996Y027645D01*
X023033Y029495D02*
X023043Y029505D01*
X023043Y029695D01*
X022843Y029895D01*
X022393Y029895D01*
X022283Y030005D01*
X022283Y030255D01*
X022027Y030255D02*
X022027Y029821D01*
X022353Y029495D01*
X022253Y029395D01*
X021993Y029395D01*
X020470Y028545D02*
X019831Y028545D01*
X019541Y028835D01*
X019493Y028795D02*
X018993Y028795D01*
X018783Y029005D01*
X018741Y029005D01*
X018693Y028195D02*
X018703Y028185D01*
X018741Y028185D01*
X018693Y028195D02*
X019593Y028195D01*
X022543Y031135D02*
X022543Y031345D01*
X022693Y031495D01*
X022943Y031495D01*
X022993Y031545D01*
X022993Y031805D01*
X023033Y031845D01*
X023493Y031845D01*
X022353Y031845D02*
X022043Y031845D01*
X021993Y031895D01*
X014023Y019295D02*
X013943Y019295D01*
X014023Y019295D02*
X014233Y019085D01*
X014233Y018205D02*
X014243Y018195D01*
X014043Y017995D01*
X013643Y017995D01*
X013643Y017305D02*
X013643Y016895D01*
X014783Y018205D02*
X014993Y017995D01*
X015283Y017995D01*
X015293Y017985D01*
X015293Y018395D01*
X014783Y018205D02*
X014753Y018205D01*
X015293Y017305D02*
X015293Y016895D01*
D54*
X009093Y006745D02*
X009543Y006295D01*
X020693Y006295D01*
X021493Y007095D01*
X024743Y007095D01*
X024743Y006545D01*
X024743Y007095D02*
X025243Y007095D01*
X025743Y007595D01*
X025743Y009095D01*
X024743Y009095D02*
X024743Y007345D01*
X023393Y007345D01*
X021443Y007345D01*
X020593Y006495D01*
X009643Y006495D01*
X009293Y006845D01*
X009293Y009695D01*
X009393Y009695D01*
X009293Y009695D02*
X009293Y010595D01*
X009803Y010595D01*
X009293Y010595D02*
X009293Y012795D01*
X009893Y013395D01*
X010041Y013395D01*
X010903Y013395D01*
X011243Y012995D02*
X011243Y014055D01*
X010903Y014395D01*
X010041Y014395D01*
X009793Y014395D01*
X009093Y013695D01*
X009093Y010895D01*
X008593Y010895D01*
X009093Y010895D02*
X009093Y006745D01*
X010483Y010595D02*
X010893Y010595D01*
X010893Y011645D02*
X010483Y011645D01*
X009803Y011645D02*
X009803Y012355D01*
X010143Y012695D01*
X010943Y012695D01*
X011243Y012995D01*
X011583Y013395D02*
X011583Y014395D01*
X011583Y018395D01*
X011583Y019395D01*
X012033Y019845D01*
X014293Y019845D01*
X014493Y019645D01*
X014493Y019085D01*
X014493Y019245D01*
X014753Y019085D02*
X014753Y018705D01*
X014693Y018645D01*
X014343Y018645D01*
X014233Y018535D01*
X014233Y018205D01*
X014493Y018205D02*
X014493Y016595D01*
X012243Y014345D01*
X012243Y010875D01*
X010903Y018395D02*
X010041Y018395D01*
X010041Y019395D02*
X010903Y019395D01*
X011693Y020395D02*
X010041Y020395D01*
X010041Y021395D02*
X010903Y021395D01*
X011583Y021395D02*
X011583Y022395D01*
X011583Y023995D01*
X011583Y024995D01*
X011943Y024995D01*
X013643Y026695D01*
X020893Y026695D01*
X021043Y026845D01*
X021043Y027845D01*
X020843Y028045D01*
X020843Y028095D01*
X020793Y028095D01*
X020470Y027545D02*
X020420Y027495D01*
X019993Y027495D01*
X019693Y027195D01*
X017793Y027195D01*
X017343Y027645D01*
X017343Y029195D01*
X019041Y030892D01*
X019041Y031045D01*
X018543Y030645D02*
X018543Y031595D01*
X018993Y032045D01*
X019041Y032045D01*
X017743Y032545D02*
X020643Y032545D01*
X021593Y031595D01*
X021593Y030845D01*
X021693Y030745D01*
X022193Y030745D01*
X022293Y030845D01*
X022293Y031125D01*
X022283Y031135D01*
X022293Y031145D01*
X022493Y030545D02*
X022543Y030495D01*
X022543Y030255D01*
X022493Y030545D02*
X022080Y030545D01*
X022027Y030493D01*
X022027Y030255D01*
X022027Y031861D02*
X021993Y031895D01*
X018543Y030645D02*
X017193Y029295D01*
X017193Y027495D01*
X017693Y026995D01*
X020420Y026995D01*
X020470Y027045D01*
X021867Y026395D02*
X013806Y026395D01*
X012193Y024783D01*
X012193Y020895D01*
X011693Y020395D01*
X010903Y022395D02*
X010041Y022395D01*
X010041Y023995D02*
X010903Y023995D01*
X010903Y024995D02*
X010041Y024995D01*
X010041Y025995D02*
X010903Y025995D01*
X011583Y025995D02*
X011583Y026995D01*
X011583Y027995D01*
X011583Y028995D01*
X011593Y029005D01*
X014193Y028985D01*
X014193Y030455D01*
X014233Y030495D02*
X016393Y030495D01*
X017393Y031495D01*
X017393Y032195D01*
X017743Y032545D01*
X015042Y031135D02*
X014193Y031135D01*
X014193Y028995D02*
X014203Y028995D01*
X014193Y028985D01*
X010903Y028995D02*
X010041Y028995D01*
X010041Y027995D02*
X010903Y027995D01*
X010903Y026995D02*
X010041Y026995D01*
X021867Y026395D02*
X022517Y027045D01*
X039593Y027025D02*
X046093Y027025D01*
X046093Y027093D02*
X039593Y027093D01*
X039593Y027162D02*
X046093Y027162D01*
X046093Y027230D02*
X039593Y027230D01*
X039593Y027299D02*
X046093Y027299D01*
X046093Y027367D02*
X039593Y027367D01*
X039593Y027436D02*
X046093Y027436D01*
X046093Y027504D02*
X039593Y027504D01*
X039593Y027573D02*
X046093Y027573D01*
X046093Y027641D02*
X039593Y027641D01*
X039593Y027710D02*
X046093Y027710D01*
X046093Y027778D02*
X039593Y027778D01*
X039593Y027847D02*
X046093Y027847D01*
X046093Y027915D02*
X039593Y027915D01*
X039593Y027984D02*
X046093Y027984D01*
X046093Y028052D02*
X039593Y028052D01*
X039593Y028121D02*
X046093Y028121D01*
X046093Y028189D02*
X039593Y028189D01*
X039593Y028258D02*
X046093Y028258D01*
X046093Y028326D02*
X039593Y028326D01*
X039593Y028395D02*
X046093Y028395D01*
X046093Y028463D02*
X039593Y028463D01*
X039593Y028532D02*
X046093Y028532D01*
X046093Y028600D02*
X039593Y028600D01*
X039593Y028669D02*
X046093Y028669D01*
X046093Y028737D02*
X039593Y028737D01*
X039593Y028806D02*
X046093Y028806D01*
X046093Y028874D02*
X039593Y028874D01*
X039593Y028943D02*
X046093Y028943D01*
X046093Y029011D02*
X039593Y029011D01*
X039593Y029080D02*
X046093Y029080D01*
X046093Y029148D02*
X039593Y029148D01*
X039593Y029217D02*
X046093Y029217D01*
X046093Y029285D02*
X039593Y029285D01*
X039593Y029354D02*
X046093Y029354D01*
X046093Y029422D02*
X039593Y029422D01*
X039593Y029491D02*
X046093Y029491D01*
X046093Y029559D02*
X039593Y029559D01*
X039593Y029628D02*
X046093Y029628D01*
X046093Y029696D02*
X039593Y029696D01*
X039593Y029765D02*
X046093Y029765D01*
X046093Y029833D02*
X039593Y029833D01*
X039593Y029902D02*
X046093Y029902D01*
X046093Y029970D02*
X039593Y029970D01*
X039593Y030039D02*
X046093Y030039D01*
X046093Y030090D02*
X046093Y025995D01*
X039593Y025995D01*
X039593Y030995D01*
X046048Y030995D01*
X046048Y030135D01*
X046093Y030090D01*
X046076Y030107D02*
X039593Y030107D01*
X039593Y030176D02*
X046048Y030176D01*
X046048Y030244D02*
X039593Y030244D01*
X039593Y030313D02*
X046048Y030313D01*
X046048Y030381D02*
X039593Y030381D01*
X039593Y030450D02*
X046048Y030450D01*
X046048Y030518D02*
X039593Y030518D01*
X039593Y030587D02*
X046048Y030587D01*
X046048Y030655D02*
X039593Y030655D01*
X039593Y030724D02*
X046048Y030724D01*
X046048Y030792D02*
X039593Y030792D01*
X039593Y030861D02*
X046048Y030861D01*
X046048Y030929D02*
X039593Y030929D01*
X039593Y026956D02*
X046093Y026956D01*
X046093Y026888D02*
X039593Y026888D01*
X039593Y026819D02*
X046093Y026819D01*
X046093Y026751D02*
X039593Y026751D01*
X039593Y026682D02*
X046093Y026682D01*
X046093Y026614D02*
X039593Y026614D01*
X039593Y026545D02*
X046093Y026545D01*
X046093Y026477D02*
X039593Y026477D01*
X039593Y026408D02*
X046093Y026408D01*
X046093Y026340D02*
X039593Y026340D01*
X039593Y026271D02*
X046093Y026271D01*
X046093Y026203D02*
X039593Y026203D01*
X039593Y026134D02*
X046093Y026134D01*
X046093Y026066D02*
X039593Y026066D01*
X039593Y025997D02*
X046093Y025997D01*
X046493Y026895D02*
X047493Y026895D01*
X047993Y026595D01*
X050193Y026595D01*
X050193Y025795D01*
X051393Y025795D01*
X051393Y026595D01*
X053993Y026595D01*
X053993Y028095D01*
X053693Y028395D01*
X051993Y028395D01*
X051593Y027995D01*
X046493Y027995D01*
X046493Y026895D01*
X046493Y026956D02*
X053993Y026956D01*
X053993Y026888D02*
X047506Y026888D01*
X047620Y026819D02*
X053993Y026819D01*
X053993Y026751D02*
X047734Y026751D01*
X047848Y026682D02*
X053993Y026682D01*
X053993Y026614D02*
X047962Y026614D01*
X048193Y026195D02*
X049033Y026195D01*
X049393Y025834D01*
X049393Y024595D01*
X048193Y024595D01*
X048193Y026195D01*
X048193Y026134D02*
X049094Y026134D01*
X049162Y026066D02*
X048193Y026066D01*
X048193Y025997D02*
X049231Y025997D01*
X049299Y025929D02*
X048193Y025929D01*
X048193Y025860D02*
X049368Y025860D01*
X049393Y025792D02*
X048193Y025792D01*
X048193Y025723D02*
X049393Y025723D01*
X049393Y025655D02*
X048193Y025655D01*
X048193Y025586D02*
X049393Y025586D01*
X049393Y025518D02*
X048193Y025518D01*
X048193Y025449D02*
X049393Y025449D01*
X049393Y025381D02*
X048193Y025381D01*
X048193Y025312D02*
X049393Y025312D01*
X049393Y025244D02*
X048193Y025244D01*
X048193Y025175D02*
X049393Y025175D01*
X049393Y025107D02*
X048193Y025107D01*
X048193Y025038D02*
X049393Y025038D01*
X049393Y024970D02*
X048193Y024970D01*
X048193Y024901D02*
X049393Y024901D01*
X049393Y024833D02*
X048193Y024833D01*
X048193Y024764D02*
X049393Y024764D01*
X049393Y024696D02*
X048193Y024696D01*
X048193Y024627D02*
X049393Y024627D01*
X050193Y025860D02*
X051393Y025860D01*
X051393Y025929D02*
X050193Y025929D01*
X050193Y025997D02*
X051393Y025997D01*
X051393Y026066D02*
X050193Y026066D01*
X050193Y026134D02*
X051393Y026134D01*
X051393Y026203D02*
X050193Y026203D01*
X050193Y026271D02*
X051393Y026271D01*
X051393Y026340D02*
X050193Y026340D01*
X050193Y026408D02*
X051393Y026408D01*
X051393Y026477D02*
X050193Y026477D01*
X050193Y026545D02*
X051393Y026545D01*
X051650Y028052D02*
X053993Y028052D01*
X053993Y027984D02*
X046493Y027984D01*
X046493Y027915D02*
X053993Y027915D01*
X053993Y027847D02*
X046493Y027847D01*
X046493Y027778D02*
X053993Y027778D01*
X053993Y027710D02*
X046493Y027710D01*
X046493Y027641D02*
X053993Y027641D01*
X053993Y027573D02*
X046493Y027573D01*
X046493Y027504D02*
X053993Y027504D01*
X053993Y027436D02*
X046493Y027436D01*
X046493Y027367D02*
X053993Y027367D01*
X053993Y027299D02*
X046493Y027299D01*
X046493Y027230D02*
X053993Y027230D01*
X053993Y027162D02*
X046493Y027162D01*
X046493Y027093D02*
X053993Y027093D01*
X053993Y027025D02*
X046493Y027025D01*
X047793Y030295D02*
X048993Y030295D01*
X048993Y031795D01*
X047793Y031795D01*
X047793Y030295D01*
X047793Y030313D02*
X048993Y030313D01*
X048993Y030381D02*
X047793Y030381D01*
X047793Y030450D02*
X048993Y030450D01*
X048993Y030518D02*
X047793Y030518D01*
X047793Y030587D02*
X048993Y030587D01*
X048993Y030655D02*
X047793Y030655D01*
X047793Y030724D02*
X048993Y030724D01*
X048993Y030792D02*
X047793Y030792D01*
X047793Y030861D02*
X048993Y030861D01*
X048993Y030929D02*
X047793Y030929D01*
X047793Y030998D02*
X048993Y030998D01*
X048993Y031066D02*
X047793Y031066D01*
X047793Y031135D02*
X048993Y031135D01*
X048993Y031203D02*
X047793Y031203D01*
X047793Y031272D02*
X048993Y031272D01*
X048993Y031340D02*
X047793Y031340D01*
X047793Y031409D02*
X048993Y031409D01*
X048993Y031477D02*
X047793Y031477D01*
X047793Y031546D02*
X048993Y031546D01*
X048993Y031614D02*
X047793Y031614D01*
X047793Y031683D02*
X048993Y031683D01*
X048993Y031751D02*
X047793Y031751D01*
X050193Y031751D02*
X051393Y031751D01*
X051393Y031795D02*
X051393Y030295D01*
X050193Y030295D01*
X050193Y031795D01*
X051393Y031795D01*
X051393Y031683D02*
X050193Y031683D01*
X050193Y031614D02*
X051393Y031614D01*
X051393Y031546D02*
X050193Y031546D01*
X050193Y031477D02*
X051393Y031477D01*
X051393Y031409D02*
X050193Y031409D01*
X050193Y031340D02*
X051393Y031340D01*
X051393Y031272D02*
X050193Y031272D01*
X050193Y031203D02*
X051393Y031203D01*
X051393Y031135D02*
X050193Y031135D01*
X050193Y031066D02*
X051393Y031066D01*
X051393Y030998D02*
X050193Y030998D01*
X050193Y030929D02*
X051393Y030929D01*
X051393Y030861D02*
X050193Y030861D01*
X050193Y030792D02*
X051393Y030792D01*
X051393Y030724D02*
X050193Y030724D01*
X050193Y030655D02*
X051393Y030655D01*
X051393Y030587D02*
X050193Y030587D01*
X050193Y030518D02*
X051393Y030518D01*
X051393Y030450D02*
X050193Y030450D01*
X050193Y030381D02*
X051393Y030381D01*
X051393Y030313D02*
X050193Y030313D01*
X051993Y028395D02*
X053694Y028395D01*
X053762Y028326D02*
X051924Y028326D01*
X051856Y028258D02*
X053831Y028258D01*
X053899Y028189D02*
X051787Y028189D01*
X051719Y028121D02*
X053968Y028121D01*
X040593Y020045D02*
X040593Y019805D01*
X040593Y020045D02*
X040493Y020145D01*
X040193Y020145D01*
X040077Y020029D01*
X040077Y019805D01*
D55*
X038393Y016545D02*
X038443Y016495D01*
X038343Y011695D02*
X035743Y011695D01*
X035743Y009695D01*
X038343Y009695D01*
X038343Y011695D01*
X038343Y011610D02*
X035743Y011610D01*
X035743Y011511D02*
X038343Y011511D01*
X038343Y011413D02*
X035743Y011413D01*
X035743Y011314D02*
X038343Y011314D01*
X038343Y011216D02*
X035743Y011216D01*
X035743Y011117D02*
X038343Y011117D01*
X038343Y011019D02*
X035743Y011019D01*
X035743Y010920D02*
X038343Y010920D01*
X038343Y010822D02*
X035743Y010822D01*
X035743Y010723D02*
X038343Y010723D01*
X038343Y010625D02*
X035743Y010625D01*
X035743Y010526D02*
X038343Y010526D01*
X038343Y010428D02*
X035743Y010428D01*
X035743Y010329D02*
X038343Y010329D01*
X038343Y010231D02*
X035743Y010231D01*
X035743Y010132D02*
X038343Y010132D01*
X038343Y010034D02*
X035743Y010034D01*
X035743Y009935D02*
X038343Y009935D01*
X038343Y009837D02*
X035743Y009837D01*
X035743Y009738D02*
X038343Y009738D01*
X043693Y014695D02*
X051493Y014695D01*
X051493Y024095D01*
X048793Y024095D01*
X045743Y020545D01*
X044793Y020545D01*
X044243Y019995D01*
X044243Y018995D01*
X043693Y018445D01*
X043693Y014695D01*
X043693Y014762D02*
X051493Y014762D01*
X051493Y014860D02*
X043693Y014860D01*
X043693Y014959D02*
X051493Y014959D01*
X051493Y015057D02*
X043693Y015057D01*
X043693Y015156D02*
X051493Y015156D01*
X051493Y015254D02*
X043693Y015254D01*
X043693Y015353D02*
X051493Y015353D01*
X051493Y015451D02*
X043693Y015451D01*
X043693Y015550D02*
X051493Y015550D01*
X051493Y015648D02*
X043693Y015648D01*
X043693Y015747D02*
X051493Y015747D01*
X051493Y015845D02*
X043693Y015845D01*
X043693Y015944D02*
X051493Y015944D01*
X051493Y016042D02*
X043693Y016042D01*
X043693Y016141D02*
X051493Y016141D01*
X051493Y016239D02*
X043693Y016239D01*
X043693Y016338D02*
X051493Y016338D01*
X051493Y016436D02*
X043693Y016436D01*
X043693Y016535D02*
X051493Y016535D01*
X051493Y016633D02*
X043693Y016633D01*
X043693Y016732D02*
X051493Y016732D01*
X051493Y016830D02*
X043693Y016830D01*
X043693Y016929D02*
X051493Y016929D01*
X051493Y017027D02*
X043693Y017027D01*
X043693Y017126D02*
X051493Y017126D01*
X051493Y017224D02*
X043693Y017224D01*
X043693Y017323D02*
X051493Y017323D01*
X051493Y017421D02*
X043693Y017421D01*
X043693Y017520D02*
X051493Y017520D01*
X051493Y017618D02*
X043693Y017618D01*
X043693Y017717D02*
X051493Y017717D01*
X051493Y017815D02*
X043693Y017815D01*
X043693Y017914D02*
X051493Y017914D01*
X051493Y018012D02*
X043693Y018012D01*
X043693Y018111D02*
X051493Y018111D01*
X051493Y018209D02*
X043693Y018209D01*
X043693Y018308D02*
X051493Y018308D01*
X051493Y018406D02*
X043693Y018406D01*
X043753Y018505D02*
X051493Y018505D01*
X051493Y018603D02*
X043851Y018603D01*
X043950Y018702D02*
X051493Y018702D01*
X051493Y018800D02*
X044048Y018800D01*
X044147Y018899D02*
X051493Y018899D01*
X051493Y018997D02*
X044243Y018997D01*
X044243Y019096D02*
X051493Y019096D01*
X051493Y019194D02*
X044243Y019194D01*
X044243Y019293D02*
X051493Y019293D01*
X051493Y019391D02*
X044243Y019391D01*
X044243Y019490D02*
X051493Y019490D01*
X051493Y019588D02*
X044243Y019588D01*
X044243Y019687D02*
X051493Y019687D01*
X051493Y019785D02*
X044243Y019785D01*
X044243Y019884D02*
X051493Y019884D01*
X051493Y019982D02*
X044243Y019982D01*
X044329Y020081D02*
X051493Y020081D01*
X051493Y020179D02*
X044427Y020179D01*
X044526Y020278D02*
X051493Y020278D01*
X051493Y020376D02*
X044624Y020376D01*
X044723Y020475D02*
X051493Y020475D01*
X051493Y020573D02*
X045767Y020573D01*
X045852Y020672D02*
X051493Y020672D01*
X051493Y020770D02*
X045937Y020770D01*
X046021Y020869D02*
X051493Y020869D01*
X051493Y020967D02*
X046106Y020967D01*
X046191Y021066D02*
X051493Y021066D01*
X051493Y021164D02*
X046275Y021164D01*
X046360Y021263D02*
X051493Y021263D01*
X051493Y021361D02*
X046444Y021361D01*
X046529Y021460D02*
X051493Y021460D01*
X051493Y021558D02*
X046614Y021558D01*
X046698Y021657D02*
X051493Y021657D01*
X051493Y021755D02*
X046783Y021755D01*
X046868Y021854D02*
X051493Y021854D01*
X051493Y021952D02*
X046952Y021952D01*
X047037Y022051D02*
X051493Y022051D01*
X051493Y022149D02*
X047121Y022149D01*
X047206Y022248D02*
X051493Y022248D01*
X051493Y022346D02*
X047291Y022346D01*
X047375Y022445D02*
X051493Y022445D01*
X051493Y022543D02*
X047460Y022543D01*
X047545Y022642D02*
X051493Y022642D01*
X051493Y022740D02*
X047629Y022740D01*
X047714Y022839D02*
X051493Y022839D01*
X051493Y022937D02*
X047798Y022937D01*
X047883Y023036D02*
X051493Y023036D01*
X051493Y023134D02*
X047968Y023134D01*
X048052Y023233D02*
X051493Y023233D01*
X051493Y023331D02*
X048137Y023331D01*
X048222Y023430D02*
X051493Y023430D01*
X051493Y023528D02*
X048306Y023528D01*
X048391Y023627D02*
X051493Y023627D01*
X051493Y023725D02*
X048475Y023725D01*
X048560Y023824D02*
X051493Y023824D01*
X051493Y023922D02*
X048645Y023922D01*
X048729Y024021D02*
X051493Y024021D01*
X037443Y029295D02*
X036956Y029295D01*
X036956Y029665D02*
X036893Y029728D01*
X036893Y030355D01*
X036893Y031035D02*
X037333Y031035D01*
X037343Y031045D01*
X036123Y029665D02*
X035936Y029665D01*
X035093Y030355D02*
X034873Y030355D01*
X034193Y031035D01*
X034193Y030355D02*
X034183Y030345D01*
X033743Y030345D01*
X035093Y031035D02*
X035093Y031445D01*
X025893Y028545D02*
X025431Y028545D01*
X024751Y028545D02*
X024081Y028545D01*
X020472Y028095D02*
X020470Y028045D01*
X020491Y027092D02*
X020470Y027045D01*
X020470Y026971D01*
X015119Y031212D02*
X015042Y031135D01*
X014233Y030495D02*
X014193Y030455D01*
X014193Y028995D02*
X014193Y028985D01*
X014193Y028305D02*
X014193Y027845D01*
X015493Y032078D02*
X015493Y032345D01*
X015843Y032695D01*
X015843Y032795D01*
X015843Y033895D02*
X015843Y036495D01*
X016043Y036695D01*
X016753Y036695D01*
X016753Y036145D02*
X016343Y036145D01*
X015033Y036145D02*
X015033Y036695D01*
X014353Y036145D02*
X013943Y036145D01*
X016193Y015895D02*
X017456Y015895D01*
X017508Y015843D01*
X017661Y015780D01*
X017826Y015780D01*
X017978Y015843D01*
X018030Y015895D01*
X018083Y015895D01*
X018083Y015865D01*
X018062Y015865D01*
X018003Y015806D01*
X018003Y015116D01*
X017602Y014715D01*
X017185Y014715D01*
X017167Y014697D01*
X016842Y014697D01*
X016783Y014639D01*
X016783Y014346D01*
X016842Y014287D01*
X017167Y014287D01*
X017182Y014272D01*
X017364Y014272D01*
X017367Y014275D01*
X017784Y014275D01*
X017913Y014404D01*
X018434Y014925D01*
X018625Y014925D01*
X018683Y014984D01*
X018683Y015806D01*
X018625Y015865D01*
X018603Y015865D01*
X018603Y015895D01*
X019793Y015895D01*
X020393Y015295D01*
X020393Y011495D01*
X015593Y011495D01*
X015593Y015295D01*
X016193Y015895D01*
X016143Y015845D02*
X016742Y015845D01*
X016762Y015865D02*
X016703Y015806D01*
X016703Y015615D01*
X016681Y015615D01*
X016657Y015639D01*
X016551Y015683D01*
X016436Y015683D01*
X016330Y015639D01*
X016249Y015558D01*
X016205Y015452D01*
X016205Y015338D01*
X016249Y015232D01*
X016330Y015151D01*
X016436Y015107D01*
X016551Y015107D01*
X016657Y015151D01*
X016681Y015175D01*
X016703Y015175D01*
X016703Y014984D01*
X016762Y014925D01*
X017325Y014925D01*
X017383Y014984D01*
X017383Y015806D01*
X017325Y015865D01*
X016762Y015865D01*
X016703Y015747D02*
X016045Y015747D01*
X015946Y015648D02*
X016351Y015648D01*
X016245Y015550D02*
X015848Y015550D01*
X015749Y015451D02*
X016205Y015451D01*
X016205Y015353D02*
X015651Y015353D01*
X015593Y015254D02*
X016240Y015254D01*
X016325Y015156D02*
X015593Y015156D01*
X015593Y015057D02*
X016703Y015057D01*
X016703Y015156D02*
X016661Y015156D01*
X016728Y014959D02*
X015593Y014959D01*
X015593Y014860D02*
X017747Y014860D01*
X017649Y014762D02*
X015593Y014762D01*
X015593Y014663D02*
X016808Y014663D01*
X016783Y014565D02*
X015593Y014565D01*
X015593Y014466D02*
X016783Y014466D01*
X016783Y014368D02*
X015593Y014368D01*
X015593Y014269D02*
X020393Y014269D01*
X020393Y014171D02*
X015593Y014171D01*
X015593Y014072D02*
X020393Y014072D01*
X020393Y013974D02*
X015593Y013974D01*
X015593Y013875D02*
X020393Y013875D01*
X020393Y013777D02*
X015593Y013777D01*
X015593Y013678D02*
X020393Y013678D01*
X020393Y013580D02*
X015593Y013580D01*
X015593Y013481D02*
X020393Y013481D01*
X020393Y013383D02*
X015593Y013383D01*
X015593Y013284D02*
X020393Y013284D01*
X020393Y013186D02*
X019656Y013186D01*
X019645Y013197D02*
X018782Y013197D01*
X018723Y013139D01*
X018723Y012846D01*
X018782Y012787D01*
X019645Y012787D01*
X019703Y012846D01*
X019703Y013139D01*
X019645Y013197D01*
X019703Y013087D02*
X020393Y013087D01*
X020393Y012989D02*
X019703Y012989D01*
X019703Y012890D02*
X020393Y012890D01*
X020393Y012792D02*
X019649Y012792D01*
X018778Y012792D02*
X017709Y012792D01*
X017705Y012787D02*
X017763Y012846D01*
X017763Y013139D01*
X017705Y013197D01*
X017379Y013197D01*
X017364Y013212D01*
X017182Y013212D01*
X017167Y013197D01*
X016842Y013197D01*
X016783Y013139D01*
X016783Y012846D01*
X016842Y012787D01*
X017053Y012787D01*
X017053Y012565D01*
X016665Y012565D01*
X016606Y012506D01*
X016606Y012315D01*
X016581Y012315D01*
X016557Y012339D01*
X016451Y012383D01*
X016336Y012383D01*
X016230Y012339D01*
X016149Y012258D01*
X016105Y012152D01*
X016105Y012038D01*
X016149Y011932D01*
X016230Y011851D01*
X016336Y011807D01*
X016451Y011807D01*
X016557Y011851D01*
X016581Y011875D01*
X016606Y011875D01*
X016606Y011684D01*
X016665Y011625D01*
X017227Y011625D01*
X017286Y011684D01*
X017286Y012124D01*
X017493Y012331D01*
X017493Y012787D01*
X017705Y012787D01*
X017763Y012890D02*
X018723Y012890D01*
X018723Y012989D02*
X017763Y012989D01*
X017763Y013087D02*
X018723Y013087D01*
X018770Y013186D02*
X017716Y013186D01*
X017493Y012693D02*
X020393Y012693D01*
X020393Y012595D02*
X017493Y012595D01*
X017493Y012496D02*
X020393Y012496D01*
X020393Y012398D02*
X017493Y012398D01*
X017461Y012299D02*
X020393Y012299D01*
X020393Y012201D02*
X017363Y012201D01*
X017286Y012102D02*
X020393Y012102D01*
X020393Y012004D02*
X017286Y012004D01*
X017286Y011905D02*
X020393Y011905D01*
X020393Y011807D02*
X017286Y011807D01*
X017286Y011708D02*
X020393Y011708D01*
X020393Y011610D02*
X015593Y011610D01*
X015593Y011708D02*
X016606Y011708D01*
X016606Y011807D02*
X015593Y011807D01*
X015593Y011905D02*
X016176Y011905D01*
X016119Y012004D02*
X015593Y012004D01*
X015593Y012102D02*
X016105Y012102D01*
X016125Y012201D02*
X015593Y012201D01*
X015593Y012299D02*
X016190Y012299D01*
X016606Y012398D02*
X015593Y012398D01*
X015593Y012496D02*
X016606Y012496D01*
X016838Y012792D02*
X015593Y012792D01*
X015593Y012890D02*
X016783Y012890D01*
X016783Y012989D02*
X015593Y012989D01*
X015593Y013087D02*
X016783Y013087D01*
X016830Y013186D02*
X015593Y013186D01*
X015593Y012693D02*
X017053Y012693D01*
X017053Y012595D02*
X015593Y012595D01*
X015593Y011511D02*
X020393Y011511D01*
X020393Y014368D02*
X019703Y014368D01*
X019703Y014346D02*
X019645Y014287D01*
X018782Y014287D01*
X018723Y014346D01*
X018723Y014639D01*
X018782Y014697D01*
X019645Y014697D01*
X019703Y014639D01*
X019703Y014346D01*
X019703Y014466D02*
X020393Y014466D01*
X020393Y014565D02*
X019703Y014565D01*
X019679Y014663D02*
X020393Y014663D01*
X020393Y014762D02*
X018271Y014762D01*
X018369Y014860D02*
X020393Y014860D01*
X020393Y014959D02*
X018658Y014959D01*
X018683Y015057D02*
X020393Y015057D01*
X020393Y015156D02*
X018683Y015156D01*
X018683Y015254D02*
X020393Y015254D01*
X020336Y015353D02*
X018683Y015353D01*
X018683Y015451D02*
X020237Y015451D01*
X020139Y015550D02*
X018683Y015550D01*
X018683Y015648D02*
X020040Y015648D01*
X019942Y015747D02*
X018683Y015747D01*
X018645Y015845D02*
X019843Y015845D01*
X018748Y014663D02*
X018172Y014663D01*
X018074Y014565D02*
X018723Y014565D01*
X018723Y014466D02*
X017975Y014466D01*
X017877Y014368D02*
X018723Y014368D01*
X017944Y015057D02*
X017383Y015057D01*
X017383Y015156D02*
X018003Y015156D01*
X018003Y015254D02*
X017383Y015254D01*
X017383Y015353D02*
X018003Y015353D01*
X018003Y015451D02*
X017383Y015451D01*
X017383Y015550D02*
X018003Y015550D01*
X018003Y015648D02*
X017383Y015648D01*
X017383Y015747D02*
X018003Y015747D01*
X017980Y015845D02*
X018042Y015845D01*
X017506Y015845D02*
X017345Y015845D01*
X016703Y015648D02*
X016635Y015648D01*
X017358Y014959D02*
X017846Y014959D01*
D56*
X017593Y016595D02*
X017593Y020395D01*
X019093Y020395D01*
X019093Y018195D01*
X021693Y018195D01*
X021693Y016595D01*
X017593Y016595D01*
X017593Y016617D02*
X021693Y016617D01*
X021693Y016665D02*
X017593Y016665D01*
X017593Y016714D02*
X021693Y016714D01*
X021693Y016762D02*
X017593Y016762D01*
X017593Y016811D02*
X021693Y016811D01*
X021693Y016859D02*
X017593Y016859D01*
X017593Y016908D02*
X021693Y016908D01*
X021693Y016956D02*
X017593Y016956D01*
X017593Y017005D02*
X021693Y017005D01*
X021693Y017053D02*
X017593Y017053D01*
X017593Y017102D02*
X021693Y017102D01*
X021693Y017150D02*
X017593Y017150D01*
X017593Y017199D02*
X021693Y017199D01*
X021693Y017247D02*
X017593Y017247D01*
X017593Y017296D02*
X021693Y017296D01*
X021693Y017344D02*
X017593Y017344D01*
X017593Y017393D02*
X021693Y017393D01*
X021693Y017441D02*
X017593Y017441D01*
X017593Y017490D02*
X021693Y017490D01*
X021693Y017538D02*
X017593Y017538D01*
X017593Y017587D02*
X021693Y017587D01*
X021693Y017635D02*
X017593Y017635D01*
X017593Y017684D02*
X021693Y017684D01*
X021693Y017732D02*
X017593Y017732D01*
X017593Y017781D02*
X021693Y017781D01*
X021693Y017829D02*
X017593Y017829D01*
X017593Y017878D02*
X021693Y017878D01*
X021693Y017926D02*
X017593Y017926D01*
X017593Y017975D02*
X021693Y017975D01*
X021693Y018023D02*
X017593Y018023D01*
X017593Y018072D02*
X021693Y018072D01*
X021693Y018120D02*
X017593Y018120D01*
X017593Y018169D02*
X021693Y018169D01*
X021893Y018169D02*
X024898Y018169D01*
X024898Y018217D02*
X023193Y018217D01*
X023193Y018195D02*
X023193Y020595D01*
X022993Y020595D01*
X022993Y018395D01*
X021893Y018395D01*
X021893Y022195D01*
X019293Y022195D01*
X019293Y023295D01*
X021193Y023295D01*
X021193Y022595D01*
X022193Y022595D01*
X022193Y022101D01*
X022184Y022091D01*
X022184Y021636D01*
X022193Y021626D01*
X022193Y021395D01*
X023193Y021395D01*
X023493Y021495D01*
X024898Y021495D01*
X024898Y017132D01*
X024796Y017030D01*
X021893Y017030D01*
X021893Y018195D01*
X023193Y018195D01*
X023193Y018266D02*
X024898Y018266D01*
X024898Y018314D02*
X023193Y018314D01*
X023193Y018363D02*
X024898Y018363D01*
X024898Y018411D02*
X023193Y018411D01*
X023193Y018460D02*
X024898Y018460D01*
X024898Y018508D02*
X023193Y018508D01*
X023193Y018557D02*
X024898Y018557D01*
X024898Y018605D02*
X023193Y018605D01*
X023193Y018654D02*
X024898Y018654D01*
X024898Y018702D02*
X023193Y018702D01*
X023193Y018751D02*
X024898Y018751D01*
X024898Y018799D02*
X023193Y018799D01*
X023193Y018848D02*
X024898Y018848D01*
X024898Y018896D02*
X023193Y018896D01*
X023193Y018945D02*
X024898Y018945D01*
X024898Y018993D02*
X023193Y018993D01*
X023193Y019042D02*
X024898Y019042D01*
X024898Y019090D02*
X023193Y019090D01*
X023193Y019139D02*
X024898Y019139D01*
X024898Y019187D02*
X023193Y019187D01*
X023193Y019236D02*
X024898Y019236D01*
X024898Y019284D02*
X023193Y019284D01*
X023193Y019333D02*
X024898Y019333D01*
X024898Y019381D02*
X023193Y019381D01*
X023193Y019430D02*
X024898Y019430D01*
X024898Y019478D02*
X023193Y019478D01*
X023193Y019527D02*
X024898Y019527D01*
X024898Y019575D02*
X023193Y019575D01*
X023193Y019624D02*
X024898Y019624D01*
X024898Y019672D02*
X023193Y019672D01*
X023193Y019721D02*
X024898Y019721D01*
X024898Y019769D02*
X023193Y019769D01*
X023193Y019818D02*
X024898Y019818D01*
X024898Y019866D02*
X023193Y019866D01*
X023193Y019915D02*
X024898Y019915D01*
X024898Y019963D02*
X023193Y019963D01*
X023193Y020012D02*
X024898Y020012D01*
X024898Y020060D02*
X023193Y020060D01*
X023193Y020109D02*
X024898Y020109D01*
X024898Y020157D02*
X023193Y020157D01*
X023193Y020206D02*
X024898Y020206D01*
X024898Y020254D02*
X023193Y020254D01*
X023193Y020303D02*
X024898Y020303D01*
X024898Y020351D02*
X023193Y020351D01*
X023193Y020400D02*
X024898Y020400D01*
X024898Y020448D02*
X023193Y020448D01*
X023193Y020497D02*
X024898Y020497D01*
X024898Y020545D02*
X023193Y020545D01*
X023193Y020594D02*
X024898Y020594D01*
X024898Y020642D02*
X021893Y020642D01*
X021893Y020594D02*
X022993Y020594D01*
X022993Y020545D02*
X021893Y020545D01*
X021893Y020497D02*
X022993Y020497D01*
X022993Y020448D02*
X021893Y020448D01*
X021893Y020400D02*
X022993Y020400D01*
X022993Y020351D02*
X021893Y020351D01*
X021893Y020303D02*
X022993Y020303D01*
X022993Y020254D02*
X021893Y020254D01*
X021893Y020206D02*
X022993Y020206D01*
X022993Y020157D02*
X021893Y020157D01*
X021893Y020109D02*
X022993Y020109D01*
X022993Y020060D02*
X021893Y020060D01*
X021893Y020012D02*
X022993Y020012D01*
X022993Y019963D02*
X021893Y019963D01*
X021893Y019915D02*
X022993Y019915D01*
X022993Y019866D02*
X021893Y019866D01*
X021893Y019818D02*
X022993Y019818D01*
X022993Y019769D02*
X021893Y019769D01*
X021893Y019721D02*
X022993Y019721D01*
X022993Y019672D02*
X021893Y019672D01*
X021893Y019624D02*
X022993Y019624D01*
X022993Y019575D02*
X021893Y019575D01*
X021893Y019527D02*
X022993Y019527D01*
X022993Y019478D02*
X021893Y019478D01*
X021893Y019430D02*
X022993Y019430D01*
X022993Y019381D02*
X021893Y019381D01*
X021893Y019333D02*
X022993Y019333D01*
X022993Y019284D02*
X021893Y019284D01*
X021893Y019236D02*
X022993Y019236D01*
X022993Y019187D02*
X021893Y019187D01*
X021893Y019139D02*
X022993Y019139D01*
X022993Y019090D02*
X021893Y019090D01*
X021893Y019042D02*
X022993Y019042D01*
X022993Y018993D02*
X021893Y018993D01*
X021893Y018945D02*
X022993Y018945D01*
X022993Y018896D02*
X021893Y018896D01*
X021893Y018848D02*
X022993Y018848D01*
X022993Y018799D02*
X021893Y018799D01*
X021893Y018751D02*
X022993Y018751D01*
X022993Y018702D02*
X021893Y018702D01*
X021893Y018654D02*
X022993Y018654D01*
X022993Y018605D02*
X021893Y018605D01*
X021893Y018557D02*
X022993Y018557D01*
X022993Y018508D02*
X021893Y018508D01*
X021893Y018460D02*
X022993Y018460D01*
X022993Y018411D02*
X021893Y018411D01*
X021693Y018411D02*
X019293Y018411D01*
X019293Y018395D02*
X019293Y020395D01*
X021693Y020395D01*
X021693Y018395D01*
X019293Y018395D01*
X019293Y018460D02*
X021693Y018460D01*
X021693Y018508D02*
X019293Y018508D01*
X019293Y018557D02*
X021693Y018557D01*
X021693Y018605D02*
X019293Y018605D01*
X019293Y018654D02*
X021693Y018654D01*
X021693Y018702D02*
X019293Y018702D01*
X019293Y018751D02*
X021693Y018751D01*
X021693Y018799D02*
X019293Y018799D01*
X019293Y018848D02*
X021693Y018848D01*
X021693Y018896D02*
X019293Y018896D01*
X019293Y018945D02*
X021693Y018945D01*
X021693Y018993D02*
X019293Y018993D01*
X019293Y019042D02*
X021693Y019042D01*
X021693Y019090D02*
X019293Y019090D01*
X019293Y019139D02*
X021693Y019139D01*
X021693Y019187D02*
X019293Y019187D01*
X019293Y019236D02*
X021693Y019236D01*
X021693Y019284D02*
X019293Y019284D01*
X019293Y019333D02*
X021693Y019333D01*
X021693Y019381D02*
X019293Y019381D01*
X019293Y019430D02*
X021693Y019430D01*
X021693Y019478D02*
X019293Y019478D01*
X019293Y019527D02*
X021693Y019527D01*
X021693Y019575D02*
X019293Y019575D01*
X019293Y019624D02*
X021693Y019624D01*
X021693Y019672D02*
X019293Y019672D01*
X019293Y019721D02*
X021693Y019721D01*
X021693Y019769D02*
X019293Y019769D01*
X019293Y019818D02*
X021693Y019818D01*
X021693Y019866D02*
X019293Y019866D01*
X019293Y019915D02*
X021693Y019915D01*
X021693Y019963D02*
X019293Y019963D01*
X019293Y020012D02*
X021693Y020012D01*
X021693Y020060D02*
X019293Y020060D01*
X019293Y020109D02*
X021693Y020109D01*
X021693Y020157D02*
X019293Y020157D01*
X019293Y020206D02*
X021693Y020206D01*
X021693Y020254D02*
X019293Y020254D01*
X019293Y020303D02*
X021693Y020303D01*
X021693Y020351D02*
X019293Y020351D01*
X019093Y020351D02*
X017593Y020351D01*
X017593Y020303D02*
X019093Y020303D01*
X019093Y020254D02*
X017593Y020254D01*
X017593Y020206D02*
X019093Y020206D01*
X019093Y020157D02*
X017593Y020157D01*
X017593Y020109D02*
X019093Y020109D01*
X019093Y020060D02*
X017593Y020060D01*
X017593Y020012D02*
X019093Y020012D01*
X019093Y019963D02*
X017593Y019963D01*
X017593Y019915D02*
X019093Y019915D01*
X019093Y019866D02*
X017593Y019866D01*
X017593Y019818D02*
X019093Y019818D01*
X019093Y019769D02*
X017593Y019769D01*
X017593Y019721D02*
X019093Y019721D01*
X019093Y019672D02*
X017593Y019672D01*
X017593Y019624D02*
X019093Y019624D01*
X019093Y019575D02*
X017593Y019575D01*
X017593Y019527D02*
X019093Y019527D01*
X019093Y019478D02*
X017593Y019478D01*
X017593Y019430D02*
X019093Y019430D01*
X019093Y019381D02*
X017593Y019381D01*
X017593Y019333D02*
X019093Y019333D01*
X019093Y019284D02*
X017593Y019284D01*
X017593Y019236D02*
X019093Y019236D01*
X019093Y019187D02*
X017593Y019187D01*
X017593Y019139D02*
X019093Y019139D01*
X019093Y019090D02*
X017593Y019090D01*
X017593Y019042D02*
X019093Y019042D01*
X019093Y018993D02*
X017593Y018993D01*
X017593Y018945D02*
X019093Y018945D01*
X019093Y018896D02*
X017593Y018896D01*
X017593Y018848D02*
X019093Y018848D01*
X019093Y018799D02*
X017593Y018799D01*
X017593Y018751D02*
X019093Y018751D01*
X019093Y018702D02*
X017593Y018702D01*
X017593Y018654D02*
X019093Y018654D01*
X019093Y018605D02*
X017593Y018605D01*
X017593Y018557D02*
X019093Y018557D01*
X019093Y018508D02*
X017593Y018508D01*
X017593Y018460D02*
X019093Y018460D01*
X019093Y018411D02*
X017593Y018411D01*
X017593Y018363D02*
X019093Y018363D01*
X019093Y018314D02*
X017593Y018314D01*
X017593Y018266D02*
X019093Y018266D01*
X019093Y018217D02*
X017593Y018217D01*
X017593Y020595D02*
X019093Y020595D01*
X019093Y023495D01*
X021393Y023495D01*
X021393Y022695D01*
X022493Y022695D01*
X022493Y024895D01*
X017593Y024895D01*
X017593Y020595D01*
X017593Y020642D02*
X019093Y020642D01*
X019093Y020691D02*
X017593Y020691D01*
X017593Y020739D02*
X019093Y020739D01*
X019093Y020788D02*
X017593Y020788D01*
X017593Y020836D02*
X019093Y020836D01*
X019093Y020885D02*
X017593Y020885D01*
X017593Y020933D02*
X019093Y020933D01*
X019093Y020982D02*
X017593Y020982D01*
X017593Y021030D02*
X019093Y021030D01*
X019093Y021079D02*
X017593Y021079D01*
X017593Y021127D02*
X019093Y021127D01*
X019093Y021176D02*
X017593Y021176D01*
X017593Y021224D02*
X019093Y021224D01*
X019093Y021273D02*
X017593Y021273D01*
X017593Y021321D02*
X019093Y021321D01*
X019093Y021370D02*
X017593Y021370D01*
X017593Y021418D02*
X019093Y021418D01*
X019093Y021467D02*
X017593Y021467D01*
X017593Y021515D02*
X019093Y021515D01*
X019093Y021564D02*
X017593Y021564D01*
X017593Y021612D02*
X019093Y021612D01*
X019093Y021661D02*
X017593Y021661D01*
X017593Y021709D02*
X019093Y021709D01*
X019093Y021758D02*
X017593Y021758D01*
X017593Y021806D02*
X019093Y021806D01*
X019093Y021855D02*
X017593Y021855D01*
X017593Y021903D02*
X019093Y021903D01*
X019093Y021952D02*
X017593Y021952D01*
X017593Y022000D02*
X019093Y022000D01*
X019093Y022049D02*
X017593Y022049D01*
X017593Y022097D02*
X019093Y022097D01*
X019093Y022146D02*
X017593Y022146D01*
X017593Y022194D02*
X019093Y022194D01*
X019093Y022243D02*
X017593Y022243D01*
X017593Y022291D02*
X019093Y022291D01*
X019093Y022340D02*
X017593Y022340D01*
X017593Y022388D02*
X019093Y022388D01*
X019093Y022437D02*
X017593Y022437D01*
X017593Y022485D02*
X019093Y022485D01*
X019093Y022534D02*
X017593Y022534D01*
X017593Y022582D02*
X019093Y022582D01*
X019093Y022631D02*
X017593Y022631D01*
X017593Y022679D02*
X019093Y022679D01*
X019093Y022728D02*
X017593Y022728D01*
X017593Y022776D02*
X019093Y022776D01*
X019093Y022825D02*
X017593Y022825D01*
X017593Y022873D02*
X019093Y022873D01*
X019093Y022922D02*
X017593Y022922D01*
X017593Y022970D02*
X019093Y022970D01*
X019093Y023019D02*
X017593Y023019D01*
X017593Y023067D02*
X019093Y023067D01*
X019093Y023116D02*
X017593Y023116D01*
X017593Y023164D02*
X019093Y023164D01*
X019093Y023213D02*
X017593Y023213D01*
X017593Y023261D02*
X019093Y023261D01*
X019093Y023310D02*
X017593Y023310D01*
X017593Y023358D02*
X019093Y023358D01*
X019093Y023407D02*
X017593Y023407D01*
X017593Y023455D02*
X019093Y023455D01*
X019293Y023261D02*
X021193Y023261D01*
X021193Y023213D02*
X019293Y023213D01*
X019293Y023164D02*
X021193Y023164D01*
X021193Y023116D02*
X019293Y023116D01*
X019293Y023067D02*
X021193Y023067D01*
X021193Y023019D02*
X019293Y023019D01*
X019293Y022970D02*
X021193Y022970D01*
X021193Y022922D02*
X019293Y022922D01*
X019293Y022873D02*
X021193Y022873D01*
X021193Y022825D02*
X019293Y022825D01*
X019293Y022776D02*
X021193Y022776D01*
X021193Y022728D02*
X019293Y022728D01*
X019293Y022679D02*
X021193Y022679D01*
X021193Y022631D02*
X019293Y022631D01*
X019293Y022582D02*
X022193Y022582D01*
X022193Y022534D02*
X019293Y022534D01*
X019293Y022485D02*
X022193Y022485D01*
X022193Y022437D02*
X019293Y022437D01*
X019293Y022388D02*
X022193Y022388D01*
X022193Y022340D02*
X019293Y022340D01*
X019293Y022291D02*
X022193Y022291D01*
X022193Y022243D02*
X019293Y022243D01*
X019293Y021995D02*
X021693Y021995D01*
X021693Y020595D01*
X019293Y020595D01*
X019293Y021995D01*
X019293Y021952D02*
X021693Y021952D01*
X021693Y021903D02*
X019293Y021903D01*
X019293Y021855D02*
X021693Y021855D01*
X021693Y021806D02*
X019293Y021806D01*
X019293Y021758D02*
X021693Y021758D01*
X021693Y021709D02*
X019293Y021709D01*
X019293Y021661D02*
X021693Y021661D01*
X021693Y021612D02*
X019293Y021612D01*
X019293Y021564D02*
X021693Y021564D01*
X021693Y021515D02*
X019293Y021515D01*
X019293Y021467D02*
X021693Y021467D01*
X021693Y021418D02*
X019293Y021418D01*
X019293Y021370D02*
X021693Y021370D01*
X021693Y021321D02*
X019293Y021321D01*
X019293Y021273D02*
X021693Y021273D01*
X021693Y021224D02*
X019293Y021224D01*
X019293Y021176D02*
X021693Y021176D01*
X021693Y021127D02*
X019293Y021127D01*
X019293Y021079D02*
X021693Y021079D01*
X021693Y021030D02*
X019293Y021030D01*
X019293Y020982D02*
X021693Y020982D01*
X021693Y020933D02*
X019293Y020933D01*
X019293Y020885D02*
X021693Y020885D01*
X021693Y020836D02*
X019293Y020836D01*
X019293Y020788D02*
X021693Y020788D01*
X021693Y020739D02*
X019293Y020739D01*
X019293Y020691D02*
X021693Y020691D01*
X021693Y020642D02*
X019293Y020642D01*
X021893Y020691D02*
X024898Y020691D01*
X024898Y020739D02*
X021893Y020739D01*
X021893Y020788D02*
X024898Y020788D01*
X024898Y020836D02*
X021893Y020836D01*
X021893Y020885D02*
X024898Y020885D01*
X024898Y020933D02*
X021893Y020933D01*
X021893Y020982D02*
X024898Y020982D01*
X024898Y021030D02*
X021893Y021030D01*
X021893Y021079D02*
X024898Y021079D01*
X024898Y021127D02*
X021893Y021127D01*
X021893Y021176D02*
X024898Y021176D01*
X024898Y021224D02*
X021893Y021224D01*
X021893Y021273D02*
X024898Y021273D01*
X024898Y021321D02*
X021893Y021321D01*
X021893Y021370D02*
X024898Y021370D01*
X024898Y021418D02*
X023263Y021418D01*
X023408Y021467D02*
X024898Y021467D01*
X024793Y021695D02*
X023493Y021695D01*
X023193Y021595D01*
X022293Y021595D01*
X022293Y022195D01*
X023193Y022195D01*
X024193Y022895D01*
X024793Y022895D01*
X024793Y021695D01*
X024793Y021709D02*
X022293Y021709D01*
X022293Y021661D02*
X023390Y021661D01*
X023245Y021612D02*
X022293Y021612D01*
X022193Y021612D02*
X021893Y021612D01*
X021893Y021564D02*
X022193Y021564D01*
X022193Y021515D02*
X021893Y021515D01*
X021893Y021467D02*
X022193Y021467D01*
X022193Y021418D02*
X021893Y021418D01*
X021893Y021661D02*
X022184Y021661D01*
X022184Y021709D02*
X021893Y021709D01*
X021893Y021758D02*
X022184Y021758D01*
X022184Y021806D02*
X021893Y021806D01*
X021893Y021855D02*
X022184Y021855D01*
X022184Y021903D02*
X021893Y021903D01*
X021893Y021952D02*
X022184Y021952D01*
X022184Y022000D02*
X021893Y022000D01*
X021893Y022049D02*
X022184Y022049D01*
X022190Y022097D02*
X021893Y022097D01*
X021893Y022146D02*
X022193Y022146D01*
X022193Y022194D02*
X021893Y022194D01*
X022293Y022194D02*
X024793Y022194D01*
X024793Y022146D02*
X022293Y022146D01*
X022293Y022097D02*
X024793Y022097D01*
X024793Y022049D02*
X022293Y022049D01*
X022293Y022000D02*
X024793Y022000D01*
X024793Y021952D02*
X022293Y021952D01*
X022293Y021903D02*
X024793Y021903D01*
X024793Y021855D02*
X022293Y021855D01*
X022293Y021806D02*
X024793Y021806D01*
X024793Y021758D02*
X022293Y021758D01*
X022493Y022728D02*
X021393Y022728D01*
X021393Y022776D02*
X022493Y022776D01*
X022493Y022825D02*
X021393Y022825D01*
X021393Y022873D02*
X022493Y022873D01*
X022493Y022922D02*
X021393Y022922D01*
X021393Y022970D02*
X022493Y022970D01*
X022493Y023019D02*
X021393Y023019D01*
X021393Y023067D02*
X022493Y023067D01*
X022493Y023116D02*
X021393Y023116D01*
X021393Y023164D02*
X022493Y023164D01*
X022493Y023213D02*
X021393Y023213D01*
X021393Y023261D02*
X022493Y023261D01*
X022493Y023310D02*
X021393Y023310D01*
X021393Y023358D02*
X022493Y023358D01*
X022493Y023407D02*
X021393Y023407D01*
X021393Y023455D02*
X022493Y023455D01*
X022493Y023504D02*
X017593Y023504D01*
X017593Y023552D02*
X022493Y023552D01*
X022493Y023601D02*
X017593Y023601D01*
X017593Y023649D02*
X022493Y023649D01*
X022493Y023698D02*
X017593Y023698D01*
X017593Y023746D02*
X022493Y023746D01*
X022493Y023795D02*
X017593Y023795D01*
X017593Y023843D02*
X022493Y023843D01*
X022493Y023892D02*
X017593Y023892D01*
X017593Y023940D02*
X022493Y023940D01*
X022493Y023989D02*
X017593Y023989D01*
X017593Y024037D02*
X022493Y024037D01*
X022493Y024086D02*
X017593Y024086D01*
X017593Y024134D02*
X022493Y024134D01*
X022493Y024183D02*
X017593Y024183D01*
X017593Y024231D02*
X022493Y024231D01*
X022493Y024280D02*
X017593Y024280D01*
X017593Y024328D02*
X022493Y024328D01*
X022493Y024377D02*
X017593Y024377D01*
X017593Y024425D02*
X022493Y024425D01*
X022493Y024474D02*
X017593Y024474D01*
X017593Y024522D02*
X022493Y024522D01*
X022493Y024571D02*
X017593Y024571D01*
X017593Y024619D02*
X022493Y024619D01*
X022493Y024668D02*
X017593Y024668D01*
X017593Y024716D02*
X022493Y024716D01*
X022493Y024765D02*
X017593Y024765D01*
X017593Y024813D02*
X022493Y024813D01*
X022493Y024862D02*
X017593Y024862D01*
X020472Y028095D02*
X020793Y028095D01*
X024162Y022873D02*
X024793Y022873D01*
X024793Y022825D02*
X024093Y022825D01*
X024023Y022776D02*
X024793Y022776D01*
X024793Y022728D02*
X023954Y022728D01*
X023885Y022679D02*
X024793Y022679D01*
X024793Y022631D02*
X023816Y022631D01*
X023746Y022582D02*
X024793Y022582D01*
X024793Y022534D02*
X023677Y022534D01*
X023608Y022485D02*
X024793Y022485D01*
X024793Y022437D02*
X023538Y022437D01*
X023469Y022388D02*
X024793Y022388D01*
X024793Y022340D02*
X023400Y022340D01*
X023331Y022291D02*
X024793Y022291D01*
X024793Y022243D02*
X023261Y022243D01*
X021893Y018120D02*
X024898Y018120D01*
X024898Y018072D02*
X021893Y018072D01*
X021893Y018023D02*
X024898Y018023D01*
X024898Y017975D02*
X021893Y017975D01*
X021893Y017926D02*
X024898Y017926D01*
X024898Y017878D02*
X021893Y017878D01*
X021893Y017829D02*
X024898Y017829D01*
X024898Y017781D02*
X021893Y017781D01*
X021893Y017732D02*
X024898Y017732D01*
X024898Y017684D02*
X021893Y017684D01*
X021893Y017635D02*
X024898Y017635D01*
X024898Y017587D02*
X021893Y017587D01*
X021893Y017538D02*
X024898Y017538D01*
X024898Y017490D02*
X021893Y017490D01*
X021893Y017441D02*
X024898Y017441D01*
X024898Y017393D02*
X021893Y017393D01*
X021893Y017344D02*
X024898Y017344D01*
X024898Y017296D02*
X021893Y017296D01*
X021893Y017247D02*
X024898Y017247D01*
X024898Y017199D02*
X021893Y017199D01*
X021893Y017150D02*
X024898Y017150D01*
X024868Y017102D02*
X021893Y017102D01*
X021893Y017053D02*
X024819Y017053D01*
D57*
X029943Y020045D03*
X031143Y019195D03*
X032643Y015645D03*
X020143Y011695D03*
X018443Y016245D03*
D58*
X018343Y016145D01*
X018343Y015395D01*
X021193Y016895D02*
X021193Y017545D01*
X021243Y017595D01*
X021193Y016895D02*
X021293Y016795D01*
X024893Y016795D01*
X025133Y017035D01*
X025133Y021995D01*
X025133Y022595D01*
X027043Y024895D02*
X025593Y026345D01*
X023996Y026345D01*
X027093Y025795D02*
X027093Y028795D01*
X026393Y029495D01*
X023033Y029495D01*
X027093Y025795D02*
X027493Y025395D01*
X029693Y025395D01*
X031143Y023945D01*
X031143Y019195D01*
X029943Y020045D02*
X029943Y024495D01*
X029543Y024895D01*
X027043Y024895D01*
X039393Y019895D02*
X039393Y014795D01*
X037560Y012962D01*
X037043Y012962D01*
X039393Y019895D02*
X039768Y020270D01*
X039793Y020295D01*
X020143Y011695D02*
X019393Y011695D01*
X019343Y011745D01*
X013643Y017985D02*
X013643Y017995D01*
X013643Y018595D01*
D59*
X013643Y018595D03*
X016493Y015395D03*
X016393Y012095D03*
X021643Y028045D03*
X035893Y011295D03*
X035893Y010845D03*
X035893Y010395D03*
X035893Y009945D03*
X036343Y009945D03*
X036793Y009945D03*
X037243Y009945D03*
X037693Y009945D03*
X038143Y009945D03*
X038143Y010395D03*
X038143Y010845D03*
X038143Y011295D03*
D60*
X026893Y023295D03*
X026893Y023995D03*
D61*
X027603Y023995D01*
X028283Y023995D02*
X029041Y023995D01*
X028693Y023295D02*
X028283Y023295D01*
X028693Y023295D02*
X029041Y022995D01*
X028393Y022495D02*
X028193Y022295D01*
X026493Y022295D01*
X025393Y023395D01*
X022088Y023395D01*
X021619Y022926D01*
X026893Y023295D02*
X027603Y023295D01*
D62*
X037043Y006795D03*
X043943Y006795D03*
X052843Y031395D03*
D63*
X050793Y031295D03*
X048393Y031295D03*
X048793Y025095D03*
D64*
X029993Y008495D03*
X029993Y006995D03*
X024743Y006545D03*
X023393Y006545D03*
X021943Y006545D03*
X008593Y007995D03*
X008593Y009445D03*
X008593Y010895D03*
D65*
X019593Y015445D02*
X019593Y016155D01*
X046943Y029165D02*
X047763Y029165D01*
X047793Y029195D01*
D66*
X049443Y013195D03*
X045993Y013195D03*
D67*
X048469Y010719D01*
X051770Y010719D01*
X051956Y013200D02*
X049443Y013195D01*
X051956Y013200D02*
X053053Y014295D01*
X053053Y026786D01*
D68*
X048393Y029594D02*
X048393Y030395D01*
X048393Y029594D02*
X047993Y029195D01*
X047793Y029195D01*
X042488Y016995D02*
X041493Y016995D01*
X033327Y012962D02*
X033293Y012995D01*
D69*
X040793Y016295D02*
X041493Y016995D01*
D70*
X040793Y016295D02*
X040793Y012995D01*
X040793Y006995D01*
X037043Y012962D02*
X033327Y012962D01*
X033293Y012995D02*
X033293Y006995D01*
D71*
X028393Y022495D03*
D72*
X045443Y023545D03*
X046143Y023195D03*
M02*
