G75*
G70*
%OFA0B0*%
%FSLAX24Y24*%
%IPPOS*%
%LPD*%
%AMOC8*
5,1,8,0,0,1.08239X$1,22.5*
%
%ADD10C,0.0120*%
%ADD11C,0.0000*%
D10*
X000573Y003074D02*
X000523Y003000D01*
X000477Y002924D01*
X000435Y002847D01*
X000396Y002767D01*
X000362Y002685D01*
X000331Y002602D01*
X000304Y002517D01*
X000282Y002431D01*
X000264Y002345D01*
X000250Y002257D01*
X000240Y002169D01*
X000234Y002080D01*
X000233Y001992D01*
X000236Y001903D01*
X000244Y001815D01*
X000255Y001727D01*
X000271Y001640D01*
X000291Y001553D01*
X000315Y001468D01*
X000344Y001384D01*
X000376Y001301D01*
X000412Y001220D01*
X000453Y001141D01*
X000497Y001064D01*
X000544Y000990D01*
X000596Y000917D01*
X000650Y000847D01*
X000708Y000780D01*
X000770Y000716D01*
X000834Y000655D01*
X000901Y000597D01*
X000971Y000542D01*
X001043Y000491D01*
X001118Y000443D01*
X001195Y000399D01*
X001274Y000359D01*
X001355Y000323D01*
X001437Y000291D01*
X001521Y000262D01*
X001607Y000238D01*
X001693Y000218D01*
X001780Y000202D01*
X001868Y000190D01*
X001957Y000183D01*
X002045Y000180D01*
X002134Y000181D01*
X002222Y000187D01*
X002311Y000197D01*
X002398Y000211D01*
X002485Y000229D01*
X002571Y000252D01*
X002655Y000278D01*
X002739Y000309D01*
X002820Y000343D01*
X002900Y000382D01*
X002978Y000424D01*
X003054Y000471D01*
X003127Y000520D01*
X003198Y000573D01*
X005323Y002698D01*
X030698Y002698D01*
X031198Y002198D01*
X031198Y001198D01*
X031698Y000698D01*
X041948Y000698D01*
X042448Y001198D01*
X042448Y002198D01*
X042948Y002698D01*
X047198Y002698D01*
X049323Y000573D01*
X049323Y000574D02*
X049397Y000524D01*
X049473Y000478D01*
X049551Y000436D01*
X049630Y000397D01*
X049712Y000363D01*
X049795Y000332D01*
X049880Y000305D01*
X049966Y000283D01*
X050052Y000265D01*
X050140Y000251D01*
X050228Y000241D01*
X050317Y000235D01*
X050405Y000234D01*
X050494Y000237D01*
X050582Y000245D01*
X050670Y000256D01*
X050757Y000272D01*
X050844Y000292D01*
X050929Y000316D01*
X051013Y000345D01*
X051096Y000377D01*
X051177Y000414D01*
X051256Y000454D01*
X051333Y000498D01*
X051407Y000545D01*
X051480Y000597D01*
X051550Y000651D01*
X051617Y000709D01*
X051681Y000771D01*
X051742Y000835D01*
X051800Y000902D01*
X051855Y000972D01*
X051906Y001044D01*
X051954Y001119D01*
X051998Y001196D01*
X052038Y001275D01*
X052074Y001356D01*
X052106Y001438D01*
X052135Y001522D01*
X052159Y001608D01*
X052179Y001694D01*
X052195Y001781D01*
X052207Y001869D01*
X052214Y001958D01*
X052217Y002046D01*
X052216Y002135D01*
X052210Y002223D01*
X052200Y002312D01*
X052186Y002399D01*
X052168Y002486D01*
X052145Y002572D01*
X052119Y002656D01*
X052088Y002740D01*
X052054Y002821D01*
X052015Y002901D01*
X051973Y002979D01*
X051927Y003055D01*
X051877Y003128D01*
X051824Y003199D01*
X051823Y003198D02*
X049698Y005323D01*
X049698Y027198D01*
X051823Y029323D01*
X051873Y029397D01*
X051919Y029473D01*
X051961Y029551D01*
X052000Y029630D01*
X052034Y029712D01*
X052065Y029795D01*
X052092Y029880D01*
X052114Y029966D01*
X052132Y030052D01*
X052146Y030140D01*
X052156Y030228D01*
X052162Y030317D01*
X052163Y030405D01*
X052160Y030494D01*
X052152Y030582D01*
X052141Y030670D01*
X052125Y030757D01*
X052105Y030844D01*
X052081Y030929D01*
X052052Y031013D01*
X052020Y031096D01*
X051983Y031177D01*
X051943Y031256D01*
X051899Y031333D01*
X051852Y031407D01*
X051800Y031480D01*
X051746Y031550D01*
X051688Y031617D01*
X051626Y031681D01*
X051562Y031742D01*
X051495Y031800D01*
X051425Y031855D01*
X051353Y031906D01*
X051278Y031954D01*
X051201Y031998D01*
X051122Y032038D01*
X051041Y032074D01*
X050959Y032106D01*
X050875Y032135D01*
X050789Y032159D01*
X050703Y032179D01*
X050616Y032195D01*
X050528Y032207D01*
X050439Y032214D01*
X050351Y032217D01*
X050262Y032216D01*
X050174Y032210D01*
X050085Y032200D01*
X049998Y032186D01*
X049911Y032168D01*
X049825Y032145D01*
X049741Y032119D01*
X049657Y032088D01*
X049576Y032054D01*
X049496Y032015D01*
X049418Y031973D01*
X049342Y031927D01*
X049269Y031877D01*
X049198Y031824D01*
X049198Y031823D02*
X047073Y029698D01*
X005198Y029698D01*
X003073Y031823D01*
X003074Y031823D02*
X003000Y031873D01*
X002924Y031919D01*
X002846Y031961D01*
X002767Y032000D01*
X002685Y032034D01*
X002602Y032065D01*
X002517Y032092D01*
X002431Y032114D01*
X002345Y032132D01*
X002257Y032146D01*
X002169Y032156D01*
X002080Y032162D01*
X001992Y032163D01*
X001903Y032160D01*
X001815Y032152D01*
X001727Y032141D01*
X001640Y032125D01*
X001553Y032105D01*
X001468Y032081D01*
X001384Y032052D01*
X001301Y032020D01*
X001220Y031983D01*
X001141Y031943D01*
X001064Y031899D01*
X000990Y031852D01*
X000917Y031800D01*
X000847Y031746D01*
X000780Y031688D01*
X000716Y031626D01*
X000655Y031562D01*
X000597Y031495D01*
X000542Y031425D01*
X000491Y031353D01*
X000443Y031278D01*
X000399Y031201D01*
X000359Y031122D01*
X000323Y031041D01*
X000291Y030959D01*
X000262Y030875D01*
X000238Y030789D01*
X000218Y030703D01*
X000202Y030616D01*
X000190Y030528D01*
X000183Y030439D01*
X000180Y030351D01*
X000181Y030262D01*
X000187Y030174D01*
X000197Y030085D01*
X000211Y029998D01*
X000229Y029911D01*
X000252Y029825D01*
X000278Y029741D01*
X000309Y029657D01*
X000343Y029576D01*
X000382Y029496D01*
X000424Y029418D01*
X000470Y029342D01*
X000520Y029269D01*
X000573Y029198D01*
X002698Y027073D01*
X002698Y005198D01*
X000573Y003073D01*
D11*
X001443Y002073D02*
X001445Y002123D01*
X001451Y002173D01*
X001461Y002222D01*
X001475Y002270D01*
X001492Y002317D01*
X001513Y002362D01*
X001538Y002406D01*
X001566Y002447D01*
X001598Y002486D01*
X001632Y002523D01*
X001669Y002557D01*
X001709Y002587D01*
X001751Y002614D01*
X001795Y002638D01*
X001841Y002659D01*
X001888Y002675D01*
X001936Y002688D01*
X001986Y002697D01*
X002035Y002702D01*
X002086Y002703D01*
X002136Y002700D01*
X002185Y002693D01*
X002234Y002682D01*
X002282Y002667D01*
X002328Y002649D01*
X002373Y002627D01*
X002416Y002601D01*
X002457Y002572D01*
X002496Y002540D01*
X002532Y002505D01*
X002564Y002467D01*
X002594Y002427D01*
X002621Y002384D01*
X002644Y002340D01*
X002663Y002294D01*
X002679Y002246D01*
X002691Y002197D01*
X002699Y002148D01*
X002703Y002098D01*
X002703Y002048D01*
X002699Y001998D01*
X002691Y001949D01*
X002679Y001900D01*
X002663Y001852D01*
X002644Y001806D01*
X002621Y001762D01*
X002594Y001719D01*
X002564Y001679D01*
X002532Y001641D01*
X002496Y001606D01*
X002457Y001574D01*
X002416Y001545D01*
X002373Y001519D01*
X002328Y001497D01*
X002282Y001479D01*
X002234Y001464D01*
X002185Y001453D01*
X002136Y001446D01*
X002086Y001443D01*
X002035Y001444D01*
X001986Y001449D01*
X001936Y001458D01*
X001888Y001471D01*
X001841Y001487D01*
X001795Y001508D01*
X001751Y001532D01*
X001709Y001559D01*
X001669Y001589D01*
X001632Y001623D01*
X001598Y001660D01*
X001566Y001699D01*
X001538Y001740D01*
X001513Y001784D01*
X001492Y001829D01*
X001475Y001876D01*
X001461Y001924D01*
X001451Y001973D01*
X001445Y002023D01*
X001443Y002073D01*
X007804Y005698D02*
X007806Y005737D01*
X007812Y005776D01*
X007822Y005814D01*
X007835Y005851D01*
X007852Y005886D01*
X007872Y005920D01*
X007896Y005951D01*
X007923Y005980D01*
X007952Y006006D01*
X007984Y006029D01*
X008018Y006049D01*
X008054Y006065D01*
X008091Y006077D01*
X008130Y006086D01*
X008169Y006091D01*
X008208Y006092D01*
X008247Y006089D01*
X008286Y006082D01*
X008323Y006071D01*
X008360Y006057D01*
X008395Y006039D01*
X008428Y006018D01*
X008459Y005993D01*
X008487Y005966D01*
X008512Y005936D01*
X008534Y005903D01*
X008553Y005869D01*
X008568Y005833D01*
X008580Y005795D01*
X008588Y005757D01*
X008592Y005718D01*
X008592Y005678D01*
X008588Y005639D01*
X008580Y005601D01*
X008568Y005563D01*
X008553Y005527D01*
X008534Y005493D01*
X008512Y005460D01*
X008487Y005430D01*
X008459Y005403D01*
X008428Y005378D01*
X008395Y005357D01*
X008360Y005339D01*
X008323Y005325D01*
X008286Y005314D01*
X008247Y005307D01*
X008208Y005304D01*
X008169Y005305D01*
X008130Y005310D01*
X008091Y005319D01*
X008054Y005331D01*
X008018Y005347D01*
X007984Y005367D01*
X007952Y005390D01*
X007923Y005416D01*
X007896Y005445D01*
X007872Y005476D01*
X007852Y005510D01*
X007835Y005545D01*
X007822Y005582D01*
X007812Y005620D01*
X007806Y005659D01*
X007804Y005698D01*
X011804Y005698D02*
X011806Y005737D01*
X011812Y005776D01*
X011822Y005814D01*
X011835Y005851D01*
X011852Y005886D01*
X011872Y005920D01*
X011896Y005951D01*
X011923Y005980D01*
X011952Y006006D01*
X011984Y006029D01*
X012018Y006049D01*
X012054Y006065D01*
X012091Y006077D01*
X012130Y006086D01*
X012169Y006091D01*
X012208Y006092D01*
X012247Y006089D01*
X012286Y006082D01*
X012323Y006071D01*
X012360Y006057D01*
X012395Y006039D01*
X012428Y006018D01*
X012459Y005993D01*
X012487Y005966D01*
X012512Y005936D01*
X012534Y005903D01*
X012553Y005869D01*
X012568Y005833D01*
X012580Y005795D01*
X012588Y005757D01*
X012592Y005718D01*
X012592Y005678D01*
X012588Y005639D01*
X012580Y005601D01*
X012568Y005563D01*
X012553Y005527D01*
X012534Y005493D01*
X012512Y005460D01*
X012487Y005430D01*
X012459Y005403D01*
X012428Y005378D01*
X012395Y005357D01*
X012360Y005339D01*
X012323Y005325D01*
X012286Y005314D01*
X012247Y005307D01*
X012208Y005304D01*
X012169Y005305D01*
X012130Y005310D01*
X012091Y005319D01*
X012054Y005331D01*
X012018Y005347D01*
X011984Y005367D01*
X011952Y005390D01*
X011923Y005416D01*
X011896Y005445D01*
X011872Y005476D01*
X011852Y005510D01*
X011835Y005545D01*
X011822Y005582D01*
X011812Y005620D01*
X011806Y005659D01*
X011804Y005698D01*
X014804Y005698D02*
X014806Y005737D01*
X014812Y005776D01*
X014822Y005814D01*
X014835Y005851D01*
X014852Y005886D01*
X014872Y005920D01*
X014896Y005951D01*
X014923Y005980D01*
X014952Y006006D01*
X014984Y006029D01*
X015018Y006049D01*
X015054Y006065D01*
X015091Y006077D01*
X015130Y006086D01*
X015169Y006091D01*
X015208Y006092D01*
X015247Y006089D01*
X015286Y006082D01*
X015323Y006071D01*
X015360Y006057D01*
X015395Y006039D01*
X015428Y006018D01*
X015459Y005993D01*
X015487Y005966D01*
X015512Y005936D01*
X015534Y005903D01*
X015553Y005869D01*
X015568Y005833D01*
X015580Y005795D01*
X015588Y005757D01*
X015592Y005718D01*
X015592Y005678D01*
X015588Y005639D01*
X015580Y005601D01*
X015568Y005563D01*
X015553Y005527D01*
X015534Y005493D01*
X015512Y005460D01*
X015487Y005430D01*
X015459Y005403D01*
X015428Y005378D01*
X015395Y005357D01*
X015360Y005339D01*
X015323Y005325D01*
X015286Y005314D01*
X015247Y005307D01*
X015208Y005304D01*
X015169Y005305D01*
X015130Y005310D01*
X015091Y005319D01*
X015054Y005331D01*
X015018Y005347D01*
X014984Y005367D01*
X014952Y005390D01*
X014923Y005416D01*
X014896Y005445D01*
X014872Y005476D01*
X014852Y005510D01*
X014835Y005545D01*
X014822Y005582D01*
X014812Y005620D01*
X014806Y005659D01*
X014804Y005698D01*
X018804Y005698D02*
X018806Y005737D01*
X018812Y005776D01*
X018822Y005814D01*
X018835Y005851D01*
X018852Y005886D01*
X018872Y005920D01*
X018896Y005951D01*
X018923Y005980D01*
X018952Y006006D01*
X018984Y006029D01*
X019018Y006049D01*
X019054Y006065D01*
X019091Y006077D01*
X019130Y006086D01*
X019169Y006091D01*
X019208Y006092D01*
X019247Y006089D01*
X019286Y006082D01*
X019323Y006071D01*
X019360Y006057D01*
X019395Y006039D01*
X019428Y006018D01*
X019459Y005993D01*
X019487Y005966D01*
X019512Y005936D01*
X019534Y005903D01*
X019553Y005869D01*
X019568Y005833D01*
X019580Y005795D01*
X019588Y005757D01*
X019592Y005718D01*
X019592Y005678D01*
X019588Y005639D01*
X019580Y005601D01*
X019568Y005563D01*
X019553Y005527D01*
X019534Y005493D01*
X019512Y005460D01*
X019487Y005430D01*
X019459Y005403D01*
X019428Y005378D01*
X019395Y005357D01*
X019360Y005339D01*
X019323Y005325D01*
X019286Y005314D01*
X019247Y005307D01*
X019208Y005304D01*
X019169Y005305D01*
X019130Y005310D01*
X019091Y005319D01*
X019054Y005331D01*
X019018Y005347D01*
X018984Y005367D01*
X018952Y005390D01*
X018923Y005416D01*
X018896Y005445D01*
X018872Y005476D01*
X018852Y005510D01*
X018835Y005545D01*
X018822Y005582D01*
X018812Y005620D01*
X018806Y005659D01*
X018804Y005698D01*
X021804Y005698D02*
X021806Y005737D01*
X021812Y005776D01*
X021822Y005814D01*
X021835Y005851D01*
X021852Y005886D01*
X021872Y005920D01*
X021896Y005951D01*
X021923Y005980D01*
X021952Y006006D01*
X021984Y006029D01*
X022018Y006049D01*
X022054Y006065D01*
X022091Y006077D01*
X022130Y006086D01*
X022169Y006091D01*
X022208Y006092D01*
X022247Y006089D01*
X022286Y006082D01*
X022323Y006071D01*
X022360Y006057D01*
X022395Y006039D01*
X022428Y006018D01*
X022459Y005993D01*
X022487Y005966D01*
X022512Y005936D01*
X022534Y005903D01*
X022553Y005869D01*
X022568Y005833D01*
X022580Y005795D01*
X022588Y005757D01*
X022592Y005718D01*
X022592Y005678D01*
X022588Y005639D01*
X022580Y005601D01*
X022568Y005563D01*
X022553Y005527D01*
X022534Y005493D01*
X022512Y005460D01*
X022487Y005430D01*
X022459Y005403D01*
X022428Y005378D01*
X022395Y005357D01*
X022360Y005339D01*
X022323Y005325D01*
X022286Y005314D01*
X022247Y005307D01*
X022208Y005304D01*
X022169Y005305D01*
X022130Y005310D01*
X022091Y005319D01*
X022054Y005331D01*
X022018Y005347D01*
X021984Y005367D01*
X021952Y005390D01*
X021923Y005416D01*
X021896Y005445D01*
X021872Y005476D01*
X021852Y005510D01*
X021835Y005545D01*
X021822Y005582D01*
X021812Y005620D01*
X021806Y005659D01*
X021804Y005698D01*
X025804Y005698D02*
X025806Y005737D01*
X025812Y005776D01*
X025822Y005814D01*
X025835Y005851D01*
X025852Y005886D01*
X025872Y005920D01*
X025896Y005951D01*
X025923Y005980D01*
X025952Y006006D01*
X025984Y006029D01*
X026018Y006049D01*
X026054Y006065D01*
X026091Y006077D01*
X026130Y006086D01*
X026169Y006091D01*
X026208Y006092D01*
X026247Y006089D01*
X026286Y006082D01*
X026323Y006071D01*
X026360Y006057D01*
X026395Y006039D01*
X026428Y006018D01*
X026459Y005993D01*
X026487Y005966D01*
X026512Y005936D01*
X026534Y005903D01*
X026553Y005869D01*
X026568Y005833D01*
X026580Y005795D01*
X026588Y005757D01*
X026592Y005718D01*
X026592Y005678D01*
X026588Y005639D01*
X026580Y005601D01*
X026568Y005563D01*
X026553Y005527D01*
X026534Y005493D01*
X026512Y005460D01*
X026487Y005430D01*
X026459Y005403D01*
X026428Y005378D01*
X026395Y005357D01*
X026360Y005339D01*
X026323Y005325D01*
X026286Y005314D01*
X026247Y005307D01*
X026208Y005304D01*
X026169Y005305D01*
X026130Y005310D01*
X026091Y005319D01*
X026054Y005331D01*
X026018Y005347D01*
X025984Y005367D01*
X025952Y005390D01*
X025923Y005416D01*
X025896Y005445D01*
X025872Y005476D01*
X025852Y005510D01*
X025835Y005545D01*
X025822Y005582D01*
X025812Y005620D01*
X025806Y005659D01*
X025804Y005698D01*
X041548Y009798D02*
X041550Y009848D01*
X041556Y009898D01*
X041566Y009948D01*
X041579Y009996D01*
X041596Y010044D01*
X041617Y010090D01*
X041641Y010134D01*
X041669Y010176D01*
X041700Y010216D01*
X041734Y010253D01*
X041771Y010288D01*
X041810Y010319D01*
X041851Y010348D01*
X041895Y010373D01*
X041941Y010395D01*
X041988Y010413D01*
X042036Y010427D01*
X042085Y010438D01*
X042135Y010445D01*
X042185Y010448D01*
X042236Y010447D01*
X042286Y010442D01*
X042336Y010433D01*
X042384Y010421D01*
X042432Y010404D01*
X042478Y010384D01*
X042523Y010361D01*
X042566Y010334D01*
X042606Y010304D01*
X042644Y010271D01*
X042679Y010235D01*
X042712Y010196D01*
X042741Y010155D01*
X042767Y010112D01*
X042790Y010067D01*
X042809Y010020D01*
X042824Y009972D01*
X042836Y009923D01*
X042844Y009873D01*
X042848Y009823D01*
X042848Y009773D01*
X042844Y009723D01*
X042836Y009673D01*
X042824Y009624D01*
X042809Y009576D01*
X042790Y009529D01*
X042767Y009484D01*
X042741Y009441D01*
X042712Y009400D01*
X042679Y009361D01*
X042644Y009325D01*
X042606Y009292D01*
X042566Y009262D01*
X042523Y009235D01*
X042478Y009212D01*
X042432Y009192D01*
X042384Y009175D01*
X042336Y009163D01*
X042286Y009154D01*
X042236Y009149D01*
X042185Y009148D01*
X042135Y009151D01*
X042085Y009158D01*
X042036Y009169D01*
X041988Y009183D01*
X041941Y009201D01*
X041895Y009223D01*
X041851Y009248D01*
X041810Y009277D01*
X041771Y009308D01*
X041734Y009343D01*
X041700Y009380D01*
X041669Y009420D01*
X041641Y009462D01*
X041617Y009506D01*
X041596Y009552D01*
X041579Y009600D01*
X041566Y009648D01*
X041556Y009698D01*
X041550Y009748D01*
X041548Y009798D01*
X049693Y002073D02*
X049695Y002123D01*
X049701Y002173D01*
X049711Y002222D01*
X049725Y002270D01*
X049742Y002317D01*
X049763Y002362D01*
X049788Y002406D01*
X049816Y002447D01*
X049848Y002486D01*
X049882Y002523D01*
X049919Y002557D01*
X049959Y002587D01*
X050001Y002614D01*
X050045Y002638D01*
X050091Y002659D01*
X050138Y002675D01*
X050186Y002688D01*
X050236Y002697D01*
X050285Y002702D01*
X050336Y002703D01*
X050386Y002700D01*
X050435Y002693D01*
X050484Y002682D01*
X050532Y002667D01*
X050578Y002649D01*
X050623Y002627D01*
X050666Y002601D01*
X050707Y002572D01*
X050746Y002540D01*
X050782Y002505D01*
X050814Y002467D01*
X050844Y002427D01*
X050871Y002384D01*
X050894Y002340D01*
X050913Y002294D01*
X050929Y002246D01*
X050941Y002197D01*
X050949Y002148D01*
X050953Y002098D01*
X050953Y002048D01*
X050949Y001998D01*
X050941Y001949D01*
X050929Y001900D01*
X050913Y001852D01*
X050894Y001806D01*
X050871Y001762D01*
X050844Y001719D01*
X050814Y001679D01*
X050782Y001641D01*
X050746Y001606D01*
X050707Y001574D01*
X050666Y001545D01*
X050623Y001519D01*
X050578Y001497D01*
X050532Y001479D01*
X050484Y001464D01*
X050435Y001453D01*
X050386Y001446D01*
X050336Y001443D01*
X050285Y001444D01*
X050236Y001449D01*
X050186Y001458D01*
X050138Y001471D01*
X050091Y001487D01*
X050045Y001508D01*
X050001Y001532D01*
X049959Y001559D01*
X049919Y001589D01*
X049882Y001623D01*
X049848Y001660D01*
X049816Y001699D01*
X049788Y001740D01*
X049763Y001784D01*
X049742Y001829D01*
X049725Y001876D01*
X049711Y001924D01*
X049701Y001973D01*
X049695Y002023D01*
X049693Y002073D01*
X033923Y021598D02*
X033925Y021648D01*
X033931Y021698D01*
X033941Y021748D01*
X033954Y021796D01*
X033971Y021844D01*
X033992Y021890D01*
X034016Y021934D01*
X034044Y021976D01*
X034075Y022016D01*
X034109Y022053D01*
X034146Y022088D01*
X034185Y022119D01*
X034226Y022148D01*
X034270Y022173D01*
X034316Y022195D01*
X034363Y022213D01*
X034411Y022227D01*
X034460Y022238D01*
X034510Y022245D01*
X034560Y022248D01*
X034611Y022247D01*
X034661Y022242D01*
X034711Y022233D01*
X034759Y022221D01*
X034807Y022204D01*
X034853Y022184D01*
X034898Y022161D01*
X034941Y022134D01*
X034981Y022104D01*
X035019Y022071D01*
X035054Y022035D01*
X035087Y021996D01*
X035116Y021955D01*
X035142Y021912D01*
X035165Y021867D01*
X035184Y021820D01*
X035199Y021772D01*
X035211Y021723D01*
X035219Y021673D01*
X035223Y021623D01*
X035223Y021573D01*
X035219Y021523D01*
X035211Y021473D01*
X035199Y021424D01*
X035184Y021376D01*
X035165Y021329D01*
X035142Y021284D01*
X035116Y021241D01*
X035087Y021200D01*
X035054Y021161D01*
X035019Y021125D01*
X034981Y021092D01*
X034941Y021062D01*
X034898Y021035D01*
X034853Y021012D01*
X034807Y020992D01*
X034759Y020975D01*
X034711Y020963D01*
X034661Y020954D01*
X034611Y020949D01*
X034560Y020948D01*
X034510Y020951D01*
X034460Y020958D01*
X034411Y020969D01*
X034363Y020983D01*
X034316Y021001D01*
X034270Y021023D01*
X034226Y021048D01*
X034185Y021077D01*
X034146Y021108D01*
X034109Y021143D01*
X034075Y021180D01*
X034044Y021220D01*
X034016Y021262D01*
X033992Y021306D01*
X033971Y021352D01*
X033954Y021400D01*
X033941Y021448D01*
X033931Y021498D01*
X033925Y021548D01*
X033923Y021598D01*
X039554Y026773D02*
X039556Y026812D01*
X039562Y026851D01*
X039572Y026889D01*
X039585Y026926D01*
X039602Y026961D01*
X039622Y026995D01*
X039646Y027026D01*
X039673Y027055D01*
X039702Y027081D01*
X039734Y027104D01*
X039768Y027124D01*
X039804Y027140D01*
X039841Y027152D01*
X039880Y027161D01*
X039919Y027166D01*
X039958Y027167D01*
X039997Y027164D01*
X040036Y027157D01*
X040073Y027146D01*
X040110Y027132D01*
X040145Y027114D01*
X040178Y027093D01*
X040209Y027068D01*
X040237Y027041D01*
X040262Y027011D01*
X040284Y026978D01*
X040303Y026944D01*
X040318Y026908D01*
X040330Y026870D01*
X040338Y026832D01*
X040342Y026793D01*
X040342Y026753D01*
X040338Y026714D01*
X040330Y026676D01*
X040318Y026638D01*
X040303Y026602D01*
X040284Y026568D01*
X040262Y026535D01*
X040237Y026505D01*
X040209Y026478D01*
X040178Y026453D01*
X040145Y026432D01*
X040110Y026414D01*
X040073Y026400D01*
X040036Y026389D01*
X039997Y026382D01*
X039958Y026379D01*
X039919Y026380D01*
X039880Y026385D01*
X039841Y026394D01*
X039804Y026406D01*
X039768Y026422D01*
X039734Y026442D01*
X039702Y026465D01*
X039673Y026491D01*
X039646Y026520D01*
X039622Y026551D01*
X039602Y026585D01*
X039585Y026620D01*
X039572Y026657D01*
X039562Y026695D01*
X039556Y026734D01*
X039554Y026773D01*
X043554Y026773D02*
X043556Y026812D01*
X043562Y026851D01*
X043572Y026889D01*
X043585Y026926D01*
X043602Y026961D01*
X043622Y026995D01*
X043646Y027026D01*
X043673Y027055D01*
X043702Y027081D01*
X043734Y027104D01*
X043768Y027124D01*
X043804Y027140D01*
X043841Y027152D01*
X043880Y027161D01*
X043919Y027166D01*
X043958Y027167D01*
X043997Y027164D01*
X044036Y027157D01*
X044073Y027146D01*
X044110Y027132D01*
X044145Y027114D01*
X044178Y027093D01*
X044209Y027068D01*
X044237Y027041D01*
X044262Y027011D01*
X044284Y026978D01*
X044303Y026944D01*
X044318Y026908D01*
X044330Y026870D01*
X044338Y026832D01*
X044342Y026793D01*
X044342Y026753D01*
X044338Y026714D01*
X044330Y026676D01*
X044318Y026638D01*
X044303Y026602D01*
X044284Y026568D01*
X044262Y026535D01*
X044237Y026505D01*
X044209Y026478D01*
X044178Y026453D01*
X044145Y026432D01*
X044110Y026414D01*
X044073Y026400D01*
X044036Y026389D01*
X043997Y026382D01*
X043958Y026379D01*
X043919Y026380D01*
X043880Y026385D01*
X043841Y026394D01*
X043804Y026406D01*
X043768Y026422D01*
X043734Y026442D01*
X043702Y026465D01*
X043673Y026491D01*
X043646Y026520D01*
X043622Y026551D01*
X043602Y026585D01*
X043585Y026620D01*
X043572Y026657D01*
X043562Y026695D01*
X043556Y026734D01*
X043554Y026773D01*
X049693Y030323D02*
X049695Y030373D01*
X049701Y030423D01*
X049711Y030472D01*
X049725Y030520D01*
X049742Y030567D01*
X049763Y030612D01*
X049788Y030656D01*
X049816Y030697D01*
X049848Y030736D01*
X049882Y030773D01*
X049919Y030807D01*
X049959Y030837D01*
X050001Y030864D01*
X050045Y030888D01*
X050091Y030909D01*
X050138Y030925D01*
X050186Y030938D01*
X050236Y030947D01*
X050285Y030952D01*
X050336Y030953D01*
X050386Y030950D01*
X050435Y030943D01*
X050484Y030932D01*
X050532Y030917D01*
X050578Y030899D01*
X050623Y030877D01*
X050666Y030851D01*
X050707Y030822D01*
X050746Y030790D01*
X050782Y030755D01*
X050814Y030717D01*
X050844Y030677D01*
X050871Y030634D01*
X050894Y030590D01*
X050913Y030544D01*
X050929Y030496D01*
X050941Y030447D01*
X050949Y030398D01*
X050953Y030348D01*
X050953Y030298D01*
X050949Y030248D01*
X050941Y030199D01*
X050929Y030150D01*
X050913Y030102D01*
X050894Y030056D01*
X050871Y030012D01*
X050844Y029969D01*
X050814Y029929D01*
X050782Y029891D01*
X050746Y029856D01*
X050707Y029824D01*
X050666Y029795D01*
X050623Y029769D01*
X050578Y029747D01*
X050532Y029729D01*
X050484Y029714D01*
X050435Y029703D01*
X050386Y029696D01*
X050336Y029693D01*
X050285Y029694D01*
X050236Y029699D01*
X050186Y029708D01*
X050138Y029721D01*
X050091Y029737D01*
X050045Y029758D01*
X050001Y029782D01*
X049959Y029809D01*
X049919Y029839D01*
X049882Y029873D01*
X049848Y029910D01*
X049816Y029949D01*
X049788Y029990D01*
X049763Y030034D01*
X049742Y030079D01*
X049725Y030126D01*
X049711Y030174D01*
X049701Y030223D01*
X049695Y030273D01*
X049693Y030323D01*
X001443Y030323D02*
X001445Y030373D01*
X001451Y030423D01*
X001461Y030472D01*
X001475Y030520D01*
X001492Y030567D01*
X001513Y030612D01*
X001538Y030656D01*
X001566Y030697D01*
X001598Y030736D01*
X001632Y030773D01*
X001669Y030807D01*
X001709Y030837D01*
X001751Y030864D01*
X001795Y030888D01*
X001841Y030909D01*
X001888Y030925D01*
X001936Y030938D01*
X001986Y030947D01*
X002035Y030952D01*
X002086Y030953D01*
X002136Y030950D01*
X002185Y030943D01*
X002234Y030932D01*
X002282Y030917D01*
X002328Y030899D01*
X002373Y030877D01*
X002416Y030851D01*
X002457Y030822D01*
X002496Y030790D01*
X002532Y030755D01*
X002564Y030717D01*
X002594Y030677D01*
X002621Y030634D01*
X002644Y030590D01*
X002663Y030544D01*
X002679Y030496D01*
X002691Y030447D01*
X002699Y030398D01*
X002703Y030348D01*
X002703Y030298D01*
X002699Y030248D01*
X002691Y030199D01*
X002679Y030150D01*
X002663Y030102D01*
X002644Y030056D01*
X002621Y030012D01*
X002594Y029969D01*
X002564Y029929D01*
X002532Y029891D01*
X002496Y029856D01*
X002457Y029824D01*
X002416Y029795D01*
X002373Y029769D01*
X002328Y029747D01*
X002282Y029729D01*
X002234Y029714D01*
X002185Y029703D01*
X002136Y029696D01*
X002086Y029693D01*
X002035Y029694D01*
X001986Y029699D01*
X001936Y029708D01*
X001888Y029721D01*
X001841Y029737D01*
X001795Y029758D01*
X001751Y029782D01*
X001709Y029809D01*
X001669Y029839D01*
X001632Y029873D01*
X001598Y029910D01*
X001566Y029949D01*
X001538Y029990D01*
X001513Y030034D01*
X001492Y030079D01*
X001475Y030126D01*
X001461Y030174D01*
X001451Y030223D01*
X001445Y030273D01*
X001443Y030323D01*
M02*
