G04 EAGLE Gerber RS-274X export*
G75*
%MOMM*%
%FSLAX34Y34*%
%LPD*%
%INTop Copper*%
%IPPOS*%
%AMOC8*
5,1,8,0,0,1.08239X$1,22.5*%
G01*
%ADD10C,0.550000*%
%ADD11C,0.360000*%
%ADD12C,4.316000*%

G36*
X1300022Y2543D02*
X1300022Y2543D01*
X1300100Y2545D01*
X1304197Y2867D01*
X1304264Y2881D01*
X1304333Y2885D01*
X1304489Y2925D01*
X1312282Y5457D01*
X1312390Y5508D01*
X1312500Y5551D01*
X1312551Y5584D01*
X1312570Y5593D01*
X1312586Y5606D01*
X1312636Y5638D01*
X1319265Y10454D01*
X1319352Y10535D01*
X1319443Y10611D01*
X1319482Y10658D01*
X1319497Y10672D01*
X1319508Y10689D01*
X1319546Y10735D01*
X1324362Y17364D01*
X1324420Y17468D01*
X1324483Y17568D01*
X1324506Y17625D01*
X1324516Y17643D01*
X1324521Y17662D01*
X1324543Y17718D01*
X1327075Y25511D01*
X1327088Y25579D01*
X1327110Y25644D01*
X1327133Y25803D01*
X1327455Y29900D01*
X1327454Y29922D01*
X1327459Y30000D01*
X1327459Y53835D01*
X1327447Y53929D01*
X1327445Y54024D01*
X1327428Y54086D01*
X1327419Y54151D01*
X1327385Y54239D01*
X1327359Y54330D01*
X1327326Y54386D01*
X1327302Y54447D01*
X1327247Y54523D01*
X1327199Y54605D01*
X1327154Y54651D01*
X1327116Y54704D01*
X1327043Y54764D01*
X1326976Y54832D01*
X1326921Y54865D01*
X1326871Y54907D01*
X1326785Y54947D01*
X1326704Y54996D01*
X1326642Y55015D01*
X1326583Y55042D01*
X1326490Y55060D01*
X1326399Y55087D01*
X1326334Y55090D01*
X1326271Y55102D01*
X1326176Y55096D01*
X1326082Y55100D01*
X1326018Y55086D01*
X1325953Y55082D01*
X1325863Y55053D01*
X1325771Y55033D01*
X1325668Y54990D01*
X1325651Y54984D01*
X1325642Y54979D01*
X1325622Y54971D01*
X1311689Y48004D01*
X1311587Y47935D01*
X1311480Y47873D01*
X1311441Y47838D01*
X1311425Y47827D01*
X1311411Y47811D01*
X1311359Y47766D01*
X1311052Y47459D01*
X1310899Y47459D01*
X1310845Y47452D01*
X1310791Y47455D01*
X1310688Y47433D01*
X1310584Y47419D01*
X1310533Y47399D01*
X1310480Y47388D01*
X1310332Y47325D01*
X1310195Y47257D01*
X1309783Y47394D01*
X1309662Y47418D01*
X1309542Y47449D01*
X1309490Y47452D01*
X1309471Y47456D01*
X1309450Y47455D01*
X1309382Y47459D01*
X1308948Y47459D01*
X1308839Y47567D01*
X1308796Y47601D01*
X1308759Y47641D01*
X1308671Y47698D01*
X1308588Y47762D01*
X1308538Y47784D01*
X1308492Y47814D01*
X1308343Y47874D01*
X1308198Y47922D01*
X1308004Y48311D01*
X1307935Y48413D01*
X1307873Y48520D01*
X1307838Y48559D01*
X1307827Y48575D01*
X1307811Y48589D01*
X1307766Y48641D01*
X1307459Y48948D01*
X1307459Y49101D01*
X1307452Y49155D01*
X1307455Y49209D01*
X1307433Y49312D01*
X1307419Y49416D01*
X1307399Y49467D01*
X1307388Y49520D01*
X1307325Y49668D01*
X1307257Y49805D01*
X1307394Y50217D01*
X1307418Y50338D01*
X1307449Y50458D01*
X1307452Y50510D01*
X1307456Y50529D01*
X1307455Y50550D01*
X1307459Y50618D01*
X1307459Y144382D01*
X1307444Y144504D01*
X1307435Y144627D01*
X1307422Y144678D01*
X1307419Y144697D01*
X1307412Y144717D01*
X1307394Y144783D01*
X1307257Y145195D01*
X1307325Y145332D01*
X1307343Y145383D01*
X1307370Y145431D01*
X1307396Y145533D01*
X1307431Y145632D01*
X1307435Y145686D01*
X1307449Y145739D01*
X1307459Y145899D01*
X1307459Y146052D01*
X1307766Y146359D01*
X1307842Y146457D01*
X1307923Y146550D01*
X1307949Y146596D01*
X1307961Y146611D01*
X1307970Y146630D01*
X1308004Y146689D01*
X1308198Y147078D01*
X1308343Y147126D01*
X1308392Y147150D01*
X1308445Y147165D01*
X1308535Y147218D01*
X1308630Y147264D01*
X1308672Y147298D01*
X1308719Y147326D01*
X1308839Y147433D01*
X1308948Y147541D01*
X1309382Y147541D01*
X1309504Y147556D01*
X1309627Y147565D01*
X1309678Y147578D01*
X1309697Y147581D01*
X1309717Y147588D01*
X1309783Y147606D01*
X1310195Y147743D01*
X1310332Y147675D01*
X1310383Y147657D01*
X1310431Y147630D01*
X1310533Y147604D01*
X1310632Y147569D01*
X1310686Y147565D01*
X1310739Y147551D01*
X1310899Y147541D01*
X1311052Y147541D01*
X1311359Y147234D01*
X1311457Y147158D01*
X1311550Y147077D01*
X1311596Y147051D01*
X1311611Y147039D01*
X1311630Y147030D01*
X1311689Y146996D01*
X1325622Y140029D01*
X1325712Y139998D01*
X1325797Y139958D01*
X1325861Y139946D01*
X1325922Y139924D01*
X1326017Y139916D01*
X1326110Y139898D01*
X1326174Y139902D01*
X1326239Y139896D01*
X1326333Y139912D01*
X1326427Y139918D01*
X1326489Y139938D01*
X1326553Y139948D01*
X1326640Y139987D01*
X1326729Y140016D01*
X1326784Y140051D01*
X1326844Y140077D01*
X1326918Y140135D01*
X1326998Y140186D01*
X1327043Y140233D01*
X1327094Y140274D01*
X1327151Y140349D01*
X1327216Y140418D01*
X1327247Y140474D01*
X1327287Y140526D01*
X1327324Y140613D01*
X1327370Y140696D01*
X1327386Y140759D01*
X1327411Y140819D01*
X1327425Y140913D01*
X1327449Y141004D01*
X1327456Y141115D01*
X1327459Y141133D01*
X1327458Y141143D01*
X1327459Y141165D01*
X1327459Y211335D01*
X1327447Y211429D01*
X1327445Y211524D01*
X1327428Y211586D01*
X1327419Y211651D01*
X1327385Y211739D01*
X1327359Y211830D01*
X1327326Y211886D01*
X1327302Y211947D01*
X1327247Y212023D01*
X1327199Y212105D01*
X1327154Y212151D01*
X1327116Y212204D01*
X1327043Y212264D01*
X1326976Y212332D01*
X1326921Y212365D01*
X1326871Y212407D01*
X1326785Y212447D01*
X1326704Y212496D01*
X1326642Y212515D01*
X1326583Y212542D01*
X1326490Y212560D01*
X1326399Y212587D01*
X1326334Y212590D01*
X1326271Y212602D01*
X1326176Y212596D01*
X1326082Y212600D01*
X1326018Y212586D01*
X1325953Y212582D01*
X1325863Y212553D01*
X1325771Y212533D01*
X1325668Y212490D01*
X1325651Y212484D01*
X1325642Y212479D01*
X1325622Y212471D01*
X1311689Y205504D01*
X1311630Y205465D01*
X1311628Y205464D01*
X1311619Y205457D01*
X1311587Y205435D01*
X1311480Y205373D01*
X1311441Y205338D01*
X1311425Y205327D01*
X1311411Y205311D01*
X1311374Y205279D01*
X1311371Y205277D01*
X1311370Y205275D01*
X1311359Y205266D01*
X1311052Y204959D01*
X1310899Y204959D01*
X1310845Y204952D01*
X1310791Y204955D01*
X1310688Y204933D01*
X1310584Y204919D01*
X1310533Y204899D01*
X1310480Y204888D01*
X1310332Y204825D01*
X1310195Y204757D01*
X1309783Y204894D01*
X1309662Y204918D01*
X1309542Y204949D01*
X1309490Y204952D01*
X1309471Y204956D01*
X1309450Y204955D01*
X1309382Y204959D01*
X1308948Y204959D01*
X1308839Y205067D01*
X1308796Y205101D01*
X1308759Y205141D01*
X1308671Y205198D01*
X1308588Y205262D01*
X1308538Y205284D01*
X1308492Y205314D01*
X1308343Y205374D01*
X1308198Y205422D01*
X1308004Y205811D01*
X1307935Y205913D01*
X1307873Y206020D01*
X1307838Y206059D01*
X1307827Y206075D01*
X1307811Y206089D01*
X1307766Y206141D01*
X1307459Y206448D01*
X1307459Y206601D01*
X1307452Y206655D01*
X1307455Y206709D01*
X1307433Y206812D01*
X1307419Y206916D01*
X1307399Y206967D01*
X1307388Y207020D01*
X1307325Y207168D01*
X1307257Y207305D01*
X1307394Y207717D01*
X1307418Y207838D01*
X1307449Y207958D01*
X1307452Y208010D01*
X1307456Y208029D01*
X1307455Y208050D01*
X1307459Y208118D01*
X1307459Y301882D01*
X1307444Y302004D01*
X1307435Y302127D01*
X1307422Y302178D01*
X1307419Y302197D01*
X1307412Y302217D01*
X1307394Y302283D01*
X1307257Y302695D01*
X1307325Y302832D01*
X1307343Y302883D01*
X1307370Y302931D01*
X1307396Y303033D01*
X1307431Y303132D01*
X1307435Y303186D01*
X1307449Y303239D01*
X1307459Y303399D01*
X1307459Y303552D01*
X1307766Y303859D01*
X1307842Y303957D01*
X1307923Y304050D01*
X1307949Y304096D01*
X1307961Y304111D01*
X1307970Y304130D01*
X1308004Y304189D01*
X1308198Y304578D01*
X1308343Y304626D01*
X1308392Y304649D01*
X1308445Y304665D01*
X1308535Y304718D01*
X1308630Y304763D01*
X1308672Y304798D01*
X1308719Y304826D01*
X1308839Y304933D01*
X1308948Y305041D01*
X1309382Y305041D01*
X1309504Y305056D01*
X1309627Y305065D01*
X1309678Y305078D01*
X1309697Y305081D01*
X1309717Y305088D01*
X1309783Y305106D01*
X1310195Y305243D01*
X1310332Y305175D01*
X1310383Y305157D01*
X1310431Y305130D01*
X1310533Y305104D01*
X1310632Y305069D01*
X1310686Y305065D01*
X1310739Y305051D01*
X1310899Y305041D01*
X1311052Y305041D01*
X1311359Y304734D01*
X1311457Y304658D01*
X1311550Y304577D01*
X1311596Y304551D01*
X1311611Y304539D01*
X1311630Y304530D01*
X1311689Y304496D01*
X1325622Y297529D01*
X1325712Y297498D01*
X1325797Y297458D01*
X1325861Y297446D01*
X1325922Y297424D01*
X1326017Y297416D01*
X1326110Y297398D01*
X1326174Y297402D01*
X1326239Y297396D01*
X1326333Y297412D01*
X1326427Y297418D01*
X1326489Y297438D01*
X1326553Y297448D01*
X1326640Y297487D01*
X1326729Y297516D01*
X1326784Y297551D01*
X1326844Y297577D01*
X1326918Y297635D01*
X1326998Y297686D01*
X1327043Y297733D01*
X1327094Y297774D01*
X1327151Y297849D01*
X1327216Y297918D01*
X1327247Y297974D01*
X1327287Y298026D01*
X1327324Y298113D01*
X1327370Y298196D01*
X1327386Y298259D01*
X1327411Y298319D01*
X1327425Y298413D01*
X1327449Y298504D01*
X1327456Y298615D01*
X1327459Y298633D01*
X1327458Y298643D01*
X1327459Y298665D01*
X1327459Y320000D01*
X1327457Y320022D01*
X1327455Y320100D01*
X1327133Y324197D01*
X1327119Y324264D01*
X1327115Y324333D01*
X1327075Y324489D01*
X1324543Y332282D01*
X1324492Y332390D01*
X1324449Y332500D01*
X1324416Y332551D01*
X1324407Y332570D01*
X1324394Y332586D01*
X1324362Y332636D01*
X1319546Y339265D01*
X1319465Y339352D01*
X1319389Y339443D01*
X1319342Y339482D01*
X1319328Y339497D01*
X1319311Y339508D01*
X1319265Y339546D01*
X1312636Y344362D01*
X1312532Y344420D01*
X1312432Y344483D01*
X1312375Y344506D01*
X1312357Y344516D01*
X1312338Y344521D01*
X1312282Y344543D01*
X1304489Y347075D01*
X1304421Y347088D01*
X1304356Y347110D01*
X1304197Y347133D01*
X1300100Y347455D01*
X1300078Y347454D01*
X1300000Y347459D01*
X30000Y347459D01*
X29978Y347457D01*
X29900Y347455D01*
X25803Y347133D01*
X25736Y347119D01*
X25667Y347115D01*
X25511Y347075D01*
X17718Y344543D01*
X17610Y344492D01*
X17500Y344449D01*
X17449Y344416D01*
X17430Y344407D01*
X17414Y344394D01*
X17364Y344362D01*
X10735Y339546D01*
X10648Y339465D01*
X10557Y339389D01*
X10518Y339342D01*
X10503Y339328D01*
X10492Y339311D01*
X10454Y339265D01*
X5638Y332636D01*
X5580Y332532D01*
X5517Y332432D01*
X5494Y332375D01*
X5484Y332357D01*
X5479Y332338D01*
X5457Y332282D01*
X2925Y324489D01*
X2912Y324421D01*
X2890Y324356D01*
X2867Y324197D01*
X2545Y320100D01*
X2546Y320078D01*
X2541Y320000D01*
X2541Y298665D01*
X2553Y298571D01*
X2555Y298476D01*
X2572Y298414D01*
X2581Y298349D01*
X2615Y298261D01*
X2641Y298170D01*
X2674Y298114D01*
X2698Y298053D01*
X2753Y297977D01*
X2801Y297895D01*
X2846Y297849D01*
X2884Y297796D01*
X2957Y297736D01*
X3024Y297668D01*
X3079Y297635D01*
X3129Y297593D01*
X3215Y297553D01*
X3296Y297504D01*
X3358Y297485D01*
X3417Y297458D01*
X3510Y297440D01*
X3601Y297413D01*
X3666Y297410D01*
X3729Y297398D01*
X3824Y297404D01*
X3918Y297400D01*
X3982Y297414D01*
X4047Y297418D01*
X4137Y297447D01*
X4229Y297467D01*
X4332Y297510D01*
X4349Y297516D01*
X4358Y297521D01*
X4378Y297529D01*
X18311Y304496D01*
X18413Y304565D01*
X18520Y304627D01*
X18559Y304662D01*
X18575Y304673D01*
X18589Y304689D01*
X18641Y304734D01*
X18948Y305041D01*
X19101Y305041D01*
X19155Y305048D01*
X19209Y305045D01*
X19312Y305067D01*
X19416Y305081D01*
X19467Y305101D01*
X19520Y305112D01*
X19668Y305175D01*
X19805Y305243D01*
X20217Y305106D01*
X20338Y305082D01*
X20458Y305051D01*
X20510Y305048D01*
X20529Y305044D01*
X20550Y305045D01*
X20618Y305041D01*
X21052Y305041D01*
X21161Y304933D01*
X21204Y304899D01*
X21241Y304859D01*
X21329Y304802D01*
X21412Y304738D01*
X21462Y304716D01*
X21508Y304686D01*
X21657Y304626D01*
X21802Y304578D01*
X21996Y304189D01*
X22065Y304087D01*
X22127Y303980D01*
X22162Y303941D01*
X22173Y303925D01*
X22189Y303911D01*
X22234Y303859D01*
X22541Y303552D01*
X22541Y303399D01*
X22548Y303345D01*
X22545Y303291D01*
X22567Y303188D01*
X22581Y303084D01*
X22601Y303033D01*
X22612Y302980D01*
X22675Y302832D01*
X22743Y302695D01*
X22606Y302283D01*
X22582Y302162D01*
X22551Y302042D01*
X22548Y301990D01*
X22544Y301971D01*
X22545Y301950D01*
X22541Y301882D01*
X22541Y208118D01*
X22556Y207996D01*
X22565Y207873D01*
X22578Y207822D01*
X22581Y207803D01*
X22588Y207783D01*
X22606Y207717D01*
X22743Y207305D01*
X22675Y207168D01*
X22657Y207117D01*
X22630Y207069D01*
X22604Y206967D01*
X22569Y206868D01*
X22565Y206814D01*
X22551Y206761D01*
X22541Y206601D01*
X22541Y206448D01*
X22234Y206141D01*
X22158Y206043D01*
X22077Y205950D01*
X22051Y205904D01*
X22039Y205889D01*
X22030Y205870D01*
X21996Y205811D01*
X21802Y205422D01*
X21657Y205374D01*
X21608Y205351D01*
X21555Y205335D01*
X21465Y205282D01*
X21370Y205237D01*
X21328Y205202D01*
X21281Y205174D01*
X21161Y205067D01*
X21052Y204959D01*
X20618Y204959D01*
X20496Y204944D01*
X20373Y204935D01*
X20322Y204922D01*
X20303Y204919D01*
X20283Y204912D01*
X20217Y204894D01*
X19805Y204757D01*
X19668Y204825D01*
X19617Y204843D01*
X19569Y204870D01*
X19467Y204896D01*
X19368Y204931D01*
X19314Y204935D01*
X19261Y204949D01*
X19101Y204959D01*
X18948Y204959D01*
X18641Y205266D01*
X18556Y205332D01*
X18507Y205378D01*
X18493Y205386D01*
X18450Y205423D01*
X18404Y205449D01*
X18389Y205461D01*
X18370Y205470D01*
X18311Y205504D01*
X4378Y212471D01*
X4288Y212502D01*
X4203Y212542D01*
X4139Y212554D01*
X4078Y212576D01*
X3983Y212584D01*
X3890Y212602D01*
X3826Y212598D01*
X3761Y212604D01*
X3667Y212588D01*
X3573Y212582D01*
X3511Y212562D01*
X3447Y212552D01*
X3360Y212513D01*
X3271Y212484D01*
X3216Y212449D01*
X3156Y212423D01*
X3082Y212365D01*
X3002Y212314D01*
X2957Y212267D01*
X2906Y212226D01*
X2849Y212151D01*
X2784Y212082D01*
X2753Y212026D01*
X2713Y211974D01*
X2676Y211886D01*
X2630Y211804D01*
X2614Y211741D01*
X2589Y211681D01*
X2575Y211587D01*
X2551Y211496D01*
X2544Y211385D01*
X2541Y211367D01*
X2542Y211357D01*
X2541Y211335D01*
X2541Y141165D01*
X2553Y141071D01*
X2555Y140976D01*
X2572Y140914D01*
X2581Y140849D01*
X2615Y140761D01*
X2641Y140670D01*
X2674Y140614D01*
X2698Y140553D01*
X2753Y140477D01*
X2801Y140395D01*
X2846Y140349D01*
X2884Y140296D01*
X2957Y140236D01*
X3024Y140168D01*
X3079Y140135D01*
X3129Y140093D01*
X3215Y140053D01*
X3296Y140004D01*
X3358Y139985D01*
X3417Y139958D01*
X3510Y139940D01*
X3601Y139913D01*
X3666Y139910D01*
X3729Y139898D01*
X3824Y139904D01*
X3918Y139900D01*
X3982Y139914D01*
X4047Y139918D01*
X4137Y139947D01*
X4229Y139967D01*
X4332Y140010D01*
X4349Y140016D01*
X4358Y140021D01*
X4378Y140029D01*
X18311Y146996D01*
X18413Y147065D01*
X18520Y147127D01*
X18559Y147162D01*
X18575Y147173D01*
X18589Y147189D01*
X18641Y147234D01*
X18948Y147541D01*
X19101Y147541D01*
X19155Y147548D01*
X19209Y147545D01*
X19312Y147567D01*
X19416Y147581D01*
X19467Y147601D01*
X19520Y147612D01*
X19668Y147675D01*
X19805Y147743D01*
X20217Y147606D01*
X20338Y147582D01*
X20458Y147551D01*
X20510Y147548D01*
X20529Y147544D01*
X20550Y147545D01*
X20618Y147541D01*
X21052Y147541D01*
X21161Y147433D01*
X21204Y147399D01*
X21241Y147359D01*
X21329Y147302D01*
X21412Y147238D01*
X21462Y147216D01*
X21508Y147186D01*
X21657Y147126D01*
X21802Y147078D01*
X21996Y146689D01*
X22065Y146587D01*
X22127Y146480D01*
X22162Y146441D01*
X22173Y146425D01*
X22189Y146411D01*
X22234Y146359D01*
X22541Y146052D01*
X22541Y145899D01*
X22548Y145845D01*
X22545Y145791D01*
X22567Y145688D01*
X22581Y145584D01*
X22601Y145533D01*
X22612Y145480D01*
X22675Y145332D01*
X22743Y145195D01*
X22606Y144783D01*
X22582Y144662D01*
X22551Y144542D01*
X22548Y144490D01*
X22544Y144471D01*
X22545Y144450D01*
X22541Y144382D01*
X22541Y50618D01*
X22556Y50496D01*
X22565Y50373D01*
X22578Y50322D01*
X22581Y50303D01*
X22588Y50283D01*
X22606Y50217D01*
X22743Y49805D01*
X22675Y49668D01*
X22657Y49617D01*
X22630Y49569D01*
X22604Y49468D01*
X22569Y49368D01*
X22565Y49314D01*
X22551Y49261D01*
X22541Y49101D01*
X22541Y48948D01*
X22234Y48641D01*
X22158Y48543D01*
X22077Y48450D01*
X22050Y48404D01*
X22039Y48389D01*
X22030Y48370D01*
X21996Y48311D01*
X21802Y47922D01*
X21657Y47874D01*
X21608Y47851D01*
X21555Y47835D01*
X21465Y47782D01*
X21370Y47737D01*
X21328Y47702D01*
X21281Y47674D01*
X21161Y47567D01*
X21052Y47459D01*
X20618Y47459D01*
X20496Y47444D01*
X20373Y47435D01*
X20322Y47422D01*
X20303Y47419D01*
X20283Y47412D01*
X20217Y47394D01*
X19805Y47257D01*
X19668Y47325D01*
X19617Y47343D01*
X19569Y47370D01*
X19468Y47396D01*
X19368Y47431D01*
X19314Y47435D01*
X19261Y47449D01*
X19101Y47459D01*
X18948Y47459D01*
X18641Y47766D01*
X18543Y47842D01*
X18450Y47923D01*
X18404Y47949D01*
X18389Y47961D01*
X18370Y47970D01*
X18311Y48004D01*
X4378Y54971D01*
X4288Y55002D01*
X4203Y55042D01*
X4139Y55054D01*
X4078Y55076D01*
X3983Y55084D01*
X3890Y55102D01*
X3826Y55098D01*
X3761Y55104D01*
X3667Y55088D01*
X3573Y55082D01*
X3511Y55062D01*
X3447Y55052D01*
X3360Y55013D01*
X3271Y54984D01*
X3216Y54949D01*
X3156Y54923D01*
X3082Y54865D01*
X3002Y54814D01*
X2957Y54767D01*
X2906Y54726D01*
X2849Y54651D01*
X2784Y54582D01*
X2753Y54526D01*
X2713Y54474D01*
X2676Y54387D01*
X2630Y54304D01*
X2614Y54241D01*
X2589Y54181D01*
X2575Y54087D01*
X2551Y53996D01*
X2544Y53885D01*
X2541Y53867D01*
X2542Y53857D01*
X2541Y53835D01*
X2541Y30000D01*
X2543Y29978D01*
X2545Y29900D01*
X2867Y25803D01*
X2881Y25736D01*
X2885Y25667D01*
X2925Y25511D01*
X5457Y17718D01*
X5508Y17610D01*
X5551Y17500D01*
X5584Y17449D01*
X5593Y17430D01*
X5606Y17414D01*
X5638Y17364D01*
X10454Y10735D01*
X10535Y10648D01*
X10611Y10557D01*
X10658Y10518D01*
X10672Y10503D01*
X10689Y10492D01*
X10735Y10454D01*
X10810Y10399D01*
X17364Y5638D01*
X17468Y5580D01*
X17568Y5517D01*
X17625Y5494D01*
X17643Y5484D01*
X17662Y5479D01*
X17718Y5457D01*
X25511Y2925D01*
X25579Y2912D01*
X25644Y2890D01*
X25803Y2867D01*
X29900Y2545D01*
X29922Y2546D01*
X30000Y2541D01*
X1300000Y2541D01*
X1300022Y2543D01*
G37*
%LPC*%
G36*
X1215995Y191705D02*
X1215995Y191705D01*
X1215810Y191952D01*
X1215790Y191973D01*
X1215774Y191998D01*
X1215679Y192087D01*
X1215589Y192180D01*
X1215564Y192196D01*
X1215542Y192216D01*
X1215429Y192279D01*
X1215318Y192346D01*
X1215290Y192355D01*
X1215264Y192370D01*
X1215138Y192402D01*
X1215014Y192440D01*
X1214985Y192442D01*
X1214956Y192449D01*
X1214795Y192459D01*
X1039605Y192459D01*
X1039576Y192456D01*
X1039546Y192458D01*
X1039418Y192436D01*
X1039289Y192419D01*
X1039262Y192408D01*
X1039232Y192403D01*
X1039114Y192350D01*
X1038994Y192302D01*
X1038970Y192285D01*
X1038943Y192273D01*
X1038841Y192192D01*
X1038736Y192116D01*
X1038717Y192093D01*
X1038694Y192074D01*
X1038590Y191952D01*
X1038405Y191705D01*
X1034257Y190161D01*
X1029933Y191103D01*
X1026803Y194233D01*
X1025861Y198557D01*
X1027405Y202705D01*
X1027652Y202890D01*
X1027673Y202910D01*
X1027698Y202926D01*
X1027787Y203021D01*
X1027880Y203111D01*
X1027896Y203136D01*
X1027916Y203158D01*
X1027979Y203271D01*
X1028046Y203382D01*
X1028055Y203410D01*
X1028070Y203436D01*
X1028102Y203562D01*
X1028140Y203686D01*
X1028142Y203715D01*
X1028149Y203744D01*
X1028159Y203905D01*
X1028159Y315095D01*
X1028156Y315125D01*
X1028158Y315154D01*
X1028136Y315282D01*
X1028119Y315411D01*
X1028108Y315438D01*
X1028103Y315468D01*
X1028050Y315586D01*
X1028002Y315706D01*
X1027985Y315730D01*
X1027973Y315758D01*
X1027892Y315859D01*
X1027816Y315964D01*
X1027793Y315983D01*
X1027774Y316006D01*
X1027652Y316110D01*
X1027405Y316295D01*
X1025861Y320443D01*
X1026803Y324767D01*
X1029933Y327897D01*
X1034257Y328839D01*
X1038405Y327295D01*
X1038590Y327048D01*
X1038610Y327027D01*
X1038626Y327002D01*
X1038721Y326913D01*
X1038811Y326820D01*
X1038836Y326804D01*
X1038858Y326784D01*
X1038971Y326721D01*
X1039082Y326654D01*
X1039110Y326645D01*
X1039136Y326630D01*
X1039262Y326598D01*
X1039386Y326560D01*
X1039415Y326558D01*
X1039444Y326551D01*
X1039605Y326541D01*
X1214795Y326541D01*
X1214825Y326544D01*
X1214854Y326542D01*
X1214982Y326564D01*
X1215111Y326581D01*
X1215138Y326592D01*
X1215168Y326597D01*
X1215286Y326650D01*
X1215406Y326698D01*
X1215430Y326715D01*
X1215458Y326727D01*
X1215559Y326808D01*
X1215664Y326884D01*
X1215683Y326907D01*
X1215706Y326926D01*
X1215810Y327048D01*
X1215995Y327295D01*
X1220143Y328839D01*
X1224467Y327897D01*
X1227597Y324767D01*
X1228539Y320443D01*
X1226995Y316295D01*
X1226748Y316110D01*
X1226727Y316090D01*
X1226702Y316074D01*
X1226613Y315979D01*
X1226520Y315889D01*
X1226504Y315864D01*
X1226484Y315842D01*
X1226421Y315729D01*
X1226354Y315618D01*
X1226345Y315590D01*
X1226330Y315564D01*
X1226298Y315438D01*
X1226260Y315314D01*
X1226258Y315285D01*
X1226251Y315256D01*
X1226241Y315095D01*
X1226241Y203905D01*
X1226244Y203876D01*
X1226242Y203846D01*
X1226264Y203718D01*
X1226281Y203589D01*
X1226292Y203562D01*
X1226297Y203532D01*
X1226350Y203414D01*
X1226398Y203294D01*
X1226415Y203270D01*
X1226427Y203243D01*
X1226508Y203141D01*
X1226584Y203036D01*
X1226607Y203017D01*
X1226626Y202994D01*
X1226748Y202890D01*
X1226995Y202705D01*
X1228539Y198557D01*
X1227597Y194233D01*
X1224467Y191103D01*
X1220143Y190161D01*
X1215995Y191705D01*
G37*
%LPD*%
%LPC*%
G36*
X420779Y180659D02*
X420779Y180659D01*
X417280Y182680D01*
X415259Y186180D01*
X415259Y280221D01*
X417280Y283720D01*
X420779Y285741D01*
X634821Y285741D01*
X638320Y283720D01*
X640341Y280221D01*
X640341Y186179D01*
X638320Y182680D01*
X634821Y180659D01*
X420779Y180659D01*
G37*
%LPD*%
%LPC*%
G36*
X345298Y161759D02*
X345298Y161759D01*
X333505Y164105D01*
X322396Y168706D01*
X312399Y175387D01*
X303897Y183889D01*
X297216Y193886D01*
X292615Y204995D01*
X290269Y216788D01*
X290269Y228812D01*
X292615Y240605D01*
X297216Y251714D01*
X303897Y261711D01*
X312399Y270213D01*
X322396Y276894D01*
X333505Y281495D01*
X345298Y283841D01*
X357322Y283841D01*
X369115Y281495D01*
X380224Y276894D01*
X390221Y270213D01*
X398723Y261711D01*
X405404Y251714D01*
X410005Y240605D01*
X412351Y228812D01*
X412351Y216788D01*
X410005Y204995D01*
X405404Y193886D01*
X398723Y183889D01*
X390221Y175387D01*
X380224Y168706D01*
X369115Y164105D01*
X357322Y161759D01*
X345298Y161759D01*
G37*
%LPD*%
%LPC*%
G36*
X176388Y161759D02*
X176388Y161759D01*
X164595Y164105D01*
X153486Y168706D01*
X143489Y175387D01*
X134987Y183889D01*
X128306Y193886D01*
X123705Y204995D01*
X121359Y216788D01*
X121359Y228812D01*
X123705Y240605D01*
X128306Y251714D01*
X134987Y261711D01*
X143489Y270213D01*
X153486Y276894D01*
X164595Y281495D01*
X176388Y283841D01*
X188412Y283841D01*
X200205Y281495D01*
X211314Y276894D01*
X221311Y270213D01*
X229813Y261711D01*
X236494Y251714D01*
X241095Y240605D01*
X243441Y228812D01*
X243441Y216788D01*
X241095Y204995D01*
X236494Y193886D01*
X229813Y183889D01*
X221311Y175387D01*
X211314Y168706D01*
X200205Y164105D01*
X188412Y161759D01*
X176388Y161759D01*
G37*
%LPD*%
%LPC*%
G36*
X711094Y208959D02*
X711094Y208959D01*
X697095Y212710D01*
X684544Y219956D01*
X674296Y230204D01*
X667050Y242755D01*
X663299Y256754D01*
X663299Y271246D01*
X667050Y285245D01*
X674296Y297796D01*
X684544Y308044D01*
X697095Y315290D01*
X711094Y319041D01*
X725586Y319041D01*
X739585Y315290D01*
X752136Y308044D01*
X762384Y297796D01*
X769630Y285245D01*
X773381Y271246D01*
X773381Y256754D01*
X769630Y242755D01*
X762384Y230204D01*
X752136Y219956D01*
X739585Y212710D01*
X725586Y208959D01*
X711094Y208959D01*
G37*
%LPD*%
%LPC*%
G36*
X901594Y208959D02*
X901594Y208959D01*
X887595Y212710D01*
X875044Y219956D01*
X864796Y230204D01*
X857550Y242755D01*
X853799Y256754D01*
X853799Y271246D01*
X857550Y285245D01*
X864796Y297796D01*
X875044Y308044D01*
X887595Y315290D01*
X901594Y319041D01*
X916086Y319041D01*
X930085Y315290D01*
X942636Y308044D01*
X952884Y297796D01*
X960130Y285245D01*
X963881Y271246D01*
X963881Y256754D01*
X960130Y242755D01*
X952884Y230204D01*
X942636Y219956D01*
X930085Y212710D01*
X916086Y208959D01*
X901594Y208959D01*
G37*
%LPD*%
%LPC*%
G36*
X139179Y6459D02*
X139179Y6459D01*
X135680Y8480D01*
X133659Y11979D01*
X133659Y63021D01*
X135680Y66520D01*
X139179Y68541D01*
X233221Y68541D01*
X236720Y66520D01*
X238741Y63021D01*
X238741Y11979D01*
X236720Y8480D01*
X233221Y6459D01*
X139179Y6459D01*
G37*
%LPD*%
%LPC*%
G36*
X1169010Y73959D02*
X1169010Y73959D01*
X1157555Y77029D01*
X1147284Y82958D01*
X1138898Y91344D01*
X1132969Y101615D01*
X1129899Y113070D01*
X1129899Y124930D01*
X1132969Y136385D01*
X1138898Y146656D01*
X1147284Y155042D01*
X1157555Y160971D01*
X1169010Y164041D01*
X1180870Y164041D01*
X1192325Y160971D01*
X1202596Y155042D01*
X1210982Y146656D01*
X1216911Y136385D01*
X1219981Y124930D01*
X1219981Y113070D01*
X1216911Y101615D01*
X1210982Y91344D01*
X1202596Y82958D01*
X1192325Y77029D01*
X1180870Y73959D01*
X1169010Y73959D01*
G37*
%LPD*%
%LPC*%
G36*
X692660Y31075D02*
X692660Y31075D01*
X682596Y35359D01*
X674028Y42158D01*
X667569Y50985D01*
X665915Y55334D01*
X665902Y55359D01*
X665894Y55386D01*
X665828Y55499D01*
X665766Y55615D01*
X665747Y55636D01*
X665733Y55660D01*
X665626Y55780D01*
X665459Y55948D01*
X665459Y56300D01*
X665441Y56448D01*
X665424Y56597D01*
X665420Y56610D01*
X665419Y56616D01*
X665414Y56628D01*
X665376Y56751D01*
X665251Y57081D01*
X665348Y57296D01*
X665356Y57323D01*
X665370Y57347D01*
X665402Y57475D01*
X665441Y57600D01*
X665442Y57628D01*
X665449Y57655D01*
X665459Y57816D01*
X665459Y93184D01*
X665456Y93212D01*
X665458Y93240D01*
X665436Y93369D01*
X665419Y93499D01*
X665409Y93526D01*
X665404Y93553D01*
X665348Y93704D01*
X665251Y93919D01*
X665376Y94249D01*
X665412Y94396D01*
X665449Y94539D01*
X665450Y94552D01*
X665451Y94558D01*
X665451Y94572D01*
X665459Y94700D01*
X665459Y95052D01*
X665626Y95220D01*
X665644Y95242D01*
X665665Y95260D01*
X665741Y95367D01*
X665821Y95471D01*
X665832Y95496D01*
X665849Y95519D01*
X665915Y95666D01*
X667569Y100015D01*
X674028Y108842D01*
X682596Y115641D01*
X692660Y119925D01*
X703500Y121388D01*
X714340Y119925D01*
X724404Y115641D01*
X732972Y108842D01*
X739431Y100015D01*
X741085Y95666D01*
X741098Y95641D01*
X741106Y95614D01*
X741172Y95501D01*
X741234Y95385D01*
X741253Y95364D01*
X741267Y95340D01*
X741374Y95220D01*
X741541Y95052D01*
X741541Y94700D01*
X741559Y94552D01*
X741576Y94403D01*
X741580Y94390D01*
X741581Y94384D01*
X741586Y94372D01*
X741624Y94249D01*
X741749Y93919D01*
X741652Y93704D01*
X741644Y93677D01*
X741630Y93653D01*
X741598Y93525D01*
X741559Y93400D01*
X741558Y93372D01*
X741551Y93345D01*
X741541Y93184D01*
X741541Y57816D01*
X741544Y57788D01*
X741542Y57760D01*
X741564Y57631D01*
X741581Y57501D01*
X741591Y57474D01*
X741596Y57447D01*
X741652Y57296D01*
X741749Y57081D01*
X741624Y56751D01*
X741588Y56604D01*
X741551Y56461D01*
X741550Y56448D01*
X741549Y56442D01*
X741549Y56428D01*
X741541Y56300D01*
X741541Y55948D01*
X741374Y55780D01*
X741356Y55758D01*
X741335Y55740D01*
X741259Y55633D01*
X741179Y55529D01*
X741168Y55504D01*
X741151Y55481D01*
X741085Y55334D01*
X739431Y50985D01*
X732972Y42158D01*
X724404Y35359D01*
X714340Y31075D01*
X703500Y29612D01*
X692660Y31075D01*
G37*
%LPD*%
%LPC*%
G36*
X342879Y64415D02*
X342879Y64415D01*
X342754Y64450D01*
X342632Y64490D01*
X342602Y64492D01*
X342573Y64501D01*
X342443Y64503D01*
X342314Y64512D01*
X342272Y64507D01*
X342255Y64507D01*
X342234Y64502D01*
X342155Y64492D01*
X342047Y64472D01*
X341606Y64774D01*
X341572Y64792D01*
X341541Y64816D01*
X341431Y64864D01*
X341323Y64919D01*
X341286Y64928D01*
X341250Y64944D01*
X341093Y64979D01*
X340544Y65069D01*
X340512Y65101D01*
X340415Y65206D01*
X340401Y65215D01*
X340390Y65227D01*
X340267Y65300D01*
X340148Y65377D01*
X340132Y65383D01*
X340118Y65391D01*
X340043Y65419D01*
X339981Y65506D01*
X339956Y65527D01*
X339936Y65552D01*
X339835Y65629D01*
X339738Y65711D01*
X339709Y65725D01*
X339683Y65744D01*
X339539Y65816D01*
X280270Y90671D01*
X280129Y90710D01*
X279990Y90752D01*
X279971Y90754D01*
X279963Y90756D01*
X279946Y90757D01*
X279829Y90769D01*
X278938Y90804D01*
X278588Y91223D01*
X278542Y91266D01*
X278503Y91314D01*
X278426Y91373D01*
X278355Y91439D01*
X278300Y91469D01*
X278250Y91507D01*
X278106Y91578D01*
X277714Y91743D01*
X277422Y92455D01*
X277350Y92583D01*
X277282Y92711D01*
X277270Y92725D01*
X277266Y92732D01*
X277254Y92745D01*
X277180Y92836D01*
X276576Y93491D01*
X276624Y94035D01*
X276621Y94097D01*
X276628Y94159D01*
X276615Y94256D01*
X276612Y94353D01*
X276594Y94413D01*
X276585Y94475D01*
X276534Y94627D01*
X276373Y95020D01*
X276671Y95730D01*
X276710Y95871D01*
X276752Y96010D01*
X276754Y96029D01*
X276756Y96037D01*
X276757Y96054D01*
X276769Y96171D01*
X276804Y97062D01*
X277223Y97412D01*
X277266Y97458D01*
X277314Y97497D01*
X277373Y97574D01*
X277439Y97645D01*
X277469Y97700D01*
X277507Y97750D01*
X277578Y97894D01*
X277743Y98286D01*
X278455Y98578D01*
X278582Y98649D01*
X278711Y98718D01*
X278725Y98730D01*
X278732Y98734D01*
X278745Y98746D01*
X278836Y98820D01*
X302696Y120845D01*
X302710Y120862D01*
X302728Y120875D01*
X302812Y120983D01*
X302901Y121088D01*
X302910Y121108D01*
X302924Y121125D01*
X302979Y121250D01*
X303039Y121375D01*
X303043Y121396D01*
X303052Y121416D01*
X303054Y121427D01*
X303761Y121935D01*
X303854Y122022D01*
X303951Y122103D01*
X303981Y122140D01*
X303994Y122152D01*
X304006Y122170D01*
X304052Y122228D01*
X304551Y122925D01*
X304665Y122944D01*
X304787Y122981D01*
X304912Y123012D01*
X304939Y123027D01*
X304969Y123036D01*
X305079Y123102D01*
X305192Y123162D01*
X305227Y123191D01*
X305242Y123200D01*
X305257Y123215D01*
X305317Y123264D01*
X305422Y123361D01*
X305441Y123363D01*
X305578Y123375D01*
X305599Y123382D01*
X305621Y123385D01*
X305748Y123435D01*
X305878Y123480D01*
X305896Y123492D01*
X305917Y123500D01*
X305926Y123506D01*
X306785Y123366D01*
X306912Y123361D01*
X307038Y123350D01*
X307085Y123355D01*
X307103Y123355D01*
X307125Y123359D01*
X307198Y123367D01*
X308044Y123508D01*
X308138Y123441D01*
X308251Y123380D01*
X308360Y123313D01*
X308390Y123304D01*
X308418Y123290D01*
X308542Y123259D01*
X308665Y123222D01*
X308710Y123217D01*
X308726Y123213D01*
X308748Y123213D01*
X308825Y123205D01*
X308968Y123199D01*
X308983Y123187D01*
X309088Y123099D01*
X309108Y123090D01*
X309125Y123076D01*
X309251Y123021D01*
X309374Y122961D01*
X309396Y122957D01*
X309416Y122948D01*
X309427Y122946D01*
X309936Y122239D01*
X310022Y122146D01*
X310103Y122049D01*
X310140Y122019D01*
X310152Y122006D01*
X310170Y121994D01*
X310228Y121948D01*
X329017Y108527D01*
X329152Y108454D01*
X329283Y108381D01*
X329290Y108380D01*
X329297Y108376D01*
X329444Y108339D01*
X329591Y108301D01*
X329598Y108301D01*
X329605Y108299D01*
X329755Y108301D01*
X329909Y108300D01*
X329916Y108302D01*
X329923Y108302D01*
X330069Y108340D01*
X330217Y108378D01*
X330224Y108381D01*
X330231Y108383D01*
X330363Y108457D01*
X330496Y108530D01*
X330502Y108535D01*
X330508Y108539D01*
X330618Y108643D01*
X330729Y108747D01*
X330733Y108753D01*
X330738Y108758D01*
X330819Y108887D01*
X330901Y109015D01*
X330903Y109022D01*
X330907Y109028D01*
X330953Y109174D01*
X331000Y109317D01*
X331001Y109324D01*
X331003Y109331D01*
X331011Y109484D01*
X331022Y109634D01*
X331020Y109644D01*
X331021Y109649D01*
X331018Y109660D01*
X331002Y109794D01*
X326903Y131657D01*
X326888Y131703D01*
X326881Y131751D01*
X326830Y131904D01*
X326373Y133020D01*
X326415Y133121D01*
X326450Y133246D01*
X326490Y133368D01*
X326492Y133398D01*
X326501Y133427D01*
X326503Y133557D01*
X326512Y133686D01*
X326507Y133728D01*
X326507Y133745D01*
X326502Y133766D01*
X326492Y133845D01*
X326472Y133953D01*
X327153Y134948D01*
X327175Y134991D01*
X327205Y135030D01*
X327276Y135174D01*
X327743Y136286D01*
X327843Y136327D01*
X327956Y136391D01*
X328072Y136449D01*
X328094Y136469D01*
X328120Y136484D01*
X328214Y136573D01*
X328311Y136658D01*
X328338Y136692D01*
X328350Y136704D01*
X328361Y136723D01*
X328410Y136785D01*
X328472Y136875D01*
X329657Y137097D01*
X329703Y137112D01*
X329751Y137119D01*
X329904Y137170D01*
X331020Y137627D01*
X331121Y137585D01*
X331246Y137550D01*
X331368Y137510D01*
X331398Y137508D01*
X331427Y137499D01*
X331557Y137497D01*
X331686Y137488D01*
X331728Y137493D01*
X331745Y137493D01*
X331766Y137498D01*
X331845Y137508D01*
X331953Y137528D01*
X332948Y136847D01*
X332991Y136825D01*
X333030Y136795D01*
X333174Y136724D01*
X334286Y136257D01*
X334327Y136157D01*
X334391Y136044D01*
X334449Y135928D01*
X334469Y135906D01*
X334484Y135880D01*
X334573Y135786D01*
X334658Y135689D01*
X334692Y135662D01*
X334704Y135650D01*
X334723Y135639D01*
X334785Y135590D01*
X334875Y135528D01*
X335097Y134343D01*
X335112Y134297D01*
X335119Y134249D01*
X335170Y134096D01*
X352350Y92100D01*
X352408Y91999D01*
X352458Y91893D01*
X352486Y91861D01*
X352507Y91823D01*
X352587Y91739D01*
X352663Y91650D01*
X352712Y91609D01*
X352727Y91594D01*
X352744Y91584D01*
X352787Y91548D01*
X352925Y91449D01*
X352968Y91193D01*
X352996Y91100D01*
X353015Y91004D01*
X353042Y90948D01*
X353059Y90889D01*
X353082Y90851D01*
X353083Y90849D01*
X353094Y90832D01*
X353110Y90805D01*
X353152Y90717D01*
X353213Y90633D01*
X353223Y90616D01*
X353232Y90608D01*
X353247Y90587D01*
X353414Y90388D01*
X353404Y90278D01*
X353409Y90149D01*
X353408Y90020D01*
X353415Y89991D01*
X353416Y89960D01*
X353453Y89836D01*
X353484Y89711D01*
X353502Y89672D01*
X353507Y89656D01*
X353518Y89637D01*
X353551Y89565D01*
X353622Y89434D01*
X353605Y89336D01*
X353608Y89304D01*
X353604Y89272D01*
X353622Y89146D01*
X353632Y89019D01*
X353637Y89005D01*
X353561Y88823D01*
X353530Y88711D01*
X353491Y88601D01*
X353487Y88558D01*
X353476Y88517D01*
X353474Y88400D01*
X353463Y88284D01*
X353470Y88220D01*
X353470Y88199D01*
X353474Y88180D01*
X353480Y88124D01*
X353508Y87956D01*
X353357Y87745D01*
X353311Y87659D01*
X353256Y87578D01*
X353235Y87519D01*
X353206Y87465D01*
X353182Y87371D01*
X353150Y87278D01*
X353134Y87176D01*
X353129Y87157D01*
X353129Y87145D01*
X353125Y87119D01*
X353103Y86860D01*
X353018Y86790D01*
X352930Y86695D01*
X352838Y86605D01*
X352822Y86579D01*
X352802Y86556D01*
X352740Y86443D01*
X352673Y86332D01*
X352658Y86292D01*
X352650Y86277D01*
X352645Y86256D01*
X352617Y86181D01*
X347658Y69649D01*
X347652Y69618D01*
X347641Y69588D01*
X347626Y69461D01*
X347605Y69336D01*
X347608Y69304D01*
X347604Y69272D01*
X347622Y69145D01*
X347632Y69019D01*
X347637Y69005D01*
X347585Y68879D01*
X347550Y68754D01*
X347510Y68632D01*
X347508Y68602D01*
X347499Y68573D01*
X347497Y68443D01*
X347488Y68314D01*
X347493Y68272D01*
X347493Y68255D01*
X347498Y68234D01*
X347508Y68155D01*
X347528Y68047D01*
X347226Y67606D01*
X347208Y67572D01*
X347184Y67541D01*
X347136Y67431D01*
X347081Y67323D01*
X347072Y67286D01*
X347056Y67250D01*
X347021Y67093D01*
X346931Y66544D01*
X346899Y66512D01*
X346794Y66415D01*
X346785Y66401D01*
X346773Y66390D01*
X346700Y66267D01*
X346623Y66148D01*
X346617Y66132D01*
X346609Y66118D01*
X346581Y66043D01*
X346494Y65981D01*
X346473Y65956D01*
X346448Y65936D01*
X346371Y65835D01*
X346289Y65738D01*
X346282Y65724D01*
X346157Y65673D01*
X346044Y65609D01*
X345928Y65551D01*
X345906Y65531D01*
X345880Y65516D01*
X345786Y65427D01*
X345689Y65342D01*
X345662Y65308D01*
X345650Y65296D01*
X345639Y65277D01*
X345590Y65215D01*
X345528Y65125D01*
X345003Y65026D01*
X344966Y65014D01*
X344927Y65010D01*
X344815Y64966D01*
X344700Y64929D01*
X344667Y64908D01*
X344631Y64894D01*
X344495Y64809D01*
X344044Y64484D01*
X343998Y64484D01*
X343855Y64489D01*
X343839Y64486D01*
X343823Y64486D01*
X343683Y64452D01*
X343545Y64421D01*
X343530Y64414D01*
X343514Y64410D01*
X343442Y64377D01*
X343336Y64395D01*
X343304Y64392D01*
X343272Y64396D01*
X343146Y64378D01*
X343019Y64368D01*
X343005Y64363D01*
X342879Y64415D01*
G37*
%LPD*%
%LPC*%
G36*
X785229Y123059D02*
X785229Y123059D01*
X781730Y125080D01*
X779709Y128579D01*
X779709Y152621D01*
X781730Y156120D01*
X785229Y158141D01*
X843271Y158141D01*
X846770Y156120D01*
X848791Y152621D01*
X848791Y128579D01*
X846770Y125080D01*
X843271Y123059D01*
X785229Y123059D01*
G37*
%LPD*%
%LPC*%
G36*
X1020179Y123059D02*
X1020179Y123059D01*
X1016680Y125080D01*
X1014659Y128579D01*
X1014659Y152621D01*
X1016680Y156120D01*
X1020179Y158141D01*
X1078221Y158141D01*
X1081720Y156120D01*
X1083741Y152621D01*
X1083741Y128579D01*
X1081720Y125080D01*
X1078221Y123059D01*
X1020179Y123059D01*
G37*
%LPD*%
%LPC*%
G36*
X379144Y24277D02*
X379144Y24277D01*
X379036Y24328D01*
X378931Y24386D01*
X378892Y24396D01*
X378856Y24413D01*
X378739Y24435D01*
X378623Y24465D01*
X378564Y24469D01*
X378544Y24473D01*
X378523Y24471D01*
X378462Y24475D01*
X377423Y24475D01*
X375475Y26423D01*
X375475Y29177D01*
X377423Y31125D01*
X378928Y31125D01*
X378978Y31131D01*
X379029Y31129D01*
X379135Y31151D01*
X379244Y31165D01*
X379291Y31183D01*
X379340Y31193D01*
X379438Y31242D01*
X379539Y31282D01*
X379580Y31311D01*
X379626Y31334D01*
X379709Y31404D01*
X379797Y31468D01*
X379829Y31507D01*
X379867Y31540D01*
X379968Y31666D01*
X380002Y31714D01*
X380056Y31817D01*
X380116Y31915D01*
X380140Y31977D01*
X380150Y31996D01*
X380155Y32015D01*
X380174Y32065D01*
X381898Y37606D01*
X381898Y37608D01*
X381899Y37610D01*
X381926Y37766D01*
X381953Y37919D01*
X381953Y37921D01*
X381953Y37923D01*
X381941Y38078D01*
X381929Y38236D01*
X381929Y38238D01*
X381929Y38240D01*
X381886Y38395D01*
X380125Y43519D01*
X380073Y43625D01*
X380028Y43733D01*
X380003Y43767D01*
X379984Y43804D01*
X379908Y43894D01*
X379837Y43988D01*
X379805Y44014D01*
X379778Y44046D01*
X379681Y44114D01*
X379590Y44187D01*
X379551Y44205D01*
X379517Y44229D01*
X379407Y44270D01*
X379300Y44319D01*
X379259Y44326D01*
X379220Y44341D01*
X379103Y44354D01*
X378987Y44374D01*
X378945Y44371D01*
X378904Y44376D01*
X378787Y44359D01*
X378670Y44350D01*
X378630Y44336D01*
X378589Y44330D01*
X378480Y44285D01*
X378369Y44248D01*
X378334Y44225D01*
X378295Y44209D01*
X378201Y44138D01*
X378102Y44074D01*
X378074Y44043D01*
X378041Y44018D01*
X377967Y43926D01*
X377888Y43839D01*
X377868Y43802D01*
X377842Y43769D01*
X377794Y43662D01*
X377738Y43558D01*
X377728Y43517D01*
X377711Y43479D01*
X377691Y43364D01*
X377663Y43249D01*
X377660Y43186D01*
X377657Y43166D01*
X377658Y43146D01*
X377655Y43088D01*
X377744Y36870D01*
X375825Y34895D01*
X373070Y34856D01*
X371095Y36775D01*
X370902Y50288D01*
X370890Y50378D01*
X370887Y50468D01*
X370875Y50508D01*
X370875Y51206D01*
X370860Y51324D01*
X370853Y51443D01*
X370840Y51481D01*
X370835Y51522D01*
X370792Y51632D01*
X370755Y51745D01*
X370733Y51780D01*
X370718Y51817D01*
X370649Y51913D01*
X370585Y52014D01*
X370555Y52042D01*
X370532Y52075D01*
X370440Y52151D01*
X370353Y52232D01*
X370318Y52252D01*
X370287Y52277D01*
X370179Y52328D01*
X370075Y52386D01*
X370035Y52396D01*
X369999Y52413D01*
X369882Y52435D01*
X369767Y52465D01*
X369707Y52469D01*
X369687Y52473D01*
X369666Y52471D01*
X369606Y52475D01*
X369194Y52475D01*
X369076Y52460D01*
X368957Y52453D01*
X368919Y52440D01*
X368878Y52435D01*
X368768Y52392D01*
X368655Y52355D01*
X368620Y52333D01*
X368583Y52318D01*
X368487Y52249D01*
X368386Y52185D01*
X368358Y52155D01*
X368325Y52132D01*
X368249Y52040D01*
X368168Y51953D01*
X368148Y51918D01*
X368123Y51887D01*
X368072Y51779D01*
X368014Y51675D01*
X368004Y51635D01*
X367987Y51599D01*
X367965Y51482D01*
X367935Y51367D01*
X367931Y51307D01*
X367927Y51287D01*
X367929Y51266D01*
X367925Y51206D01*
X367925Y37023D01*
X365977Y35075D01*
X363223Y35075D01*
X361026Y37272D01*
X360927Y37349D01*
X360832Y37431D01*
X360802Y37446D01*
X360775Y37467D01*
X360659Y37517D01*
X360547Y37573D01*
X360514Y37580D01*
X360483Y37593D01*
X360359Y37613D01*
X360236Y37639D01*
X360203Y37638D01*
X360169Y37643D01*
X360044Y37631D01*
X359918Y37626D01*
X359886Y37616D01*
X359853Y37613D01*
X359734Y37570D01*
X359614Y37534D01*
X359585Y37517D01*
X359553Y37505D01*
X359449Y37435D01*
X359342Y37370D01*
X359318Y37346D01*
X359290Y37327D01*
X359207Y37232D01*
X359119Y37143D01*
X359092Y37102D01*
X359080Y37088D01*
X359070Y37069D01*
X359030Y37009D01*
X358869Y36731D01*
X355655Y34875D01*
X352394Y34875D01*
X352276Y34860D01*
X352157Y34853D01*
X352119Y34840D01*
X352078Y34835D01*
X351968Y34792D01*
X351855Y34755D01*
X351820Y34733D01*
X351783Y34718D01*
X351687Y34649D01*
X351586Y34585D01*
X351558Y34555D01*
X351525Y34532D01*
X351449Y34440D01*
X351368Y34353D01*
X351348Y34318D01*
X351323Y34287D01*
X351272Y34179D01*
X351214Y34075D01*
X351204Y34035D01*
X351187Y33999D01*
X351165Y33882D01*
X351135Y33767D01*
X351131Y33707D01*
X351127Y33687D01*
X351129Y33666D01*
X351125Y33606D01*
X351125Y26223D01*
X349177Y24275D01*
X346423Y24275D01*
X344475Y26223D01*
X344475Y35107D01*
X344459Y35238D01*
X344448Y35370D01*
X344439Y35396D01*
X344435Y35423D01*
X344387Y35546D01*
X344343Y35671D01*
X344328Y35693D01*
X344318Y35718D01*
X344241Y35826D01*
X344167Y35936D01*
X344147Y35954D01*
X344132Y35976D01*
X344030Y36060D01*
X343931Y36149D01*
X343907Y36161D01*
X343887Y36179D01*
X343767Y36235D01*
X343650Y36296D01*
X343623Y36303D01*
X343599Y36314D01*
X343469Y36339D01*
X343340Y36369D01*
X343313Y36369D01*
X343287Y36374D01*
X343155Y36366D01*
X343022Y36363D01*
X342996Y36356D01*
X342969Y36354D01*
X342843Y36313D01*
X342716Y36278D01*
X342681Y36261D01*
X342667Y36256D01*
X342648Y36244D01*
X342571Y36206D01*
X340674Y35111D01*
X340605Y35059D01*
X340532Y35015D01*
X340429Y34925D01*
X340420Y34918D01*
X340418Y34915D01*
X340411Y34909D01*
X340377Y34875D01*
X333545Y34875D01*
X330331Y36731D01*
X328475Y39944D01*
X328475Y54056D01*
X330331Y57269D01*
X333544Y59125D01*
X339656Y59125D01*
X343102Y57135D01*
X343206Y57091D01*
X343306Y57040D01*
X343352Y57030D01*
X343396Y57011D01*
X343507Y56995D01*
X343616Y56970D01*
X343663Y56972D01*
X343710Y56965D01*
X343822Y56977D01*
X343934Y56980D01*
X343980Y56993D01*
X344026Y56998D01*
X344132Y57037D01*
X344240Y57068D01*
X344280Y57092D01*
X344325Y57109D01*
X344417Y57173D01*
X344514Y57230D01*
X344568Y57278D01*
X344586Y57290D01*
X344598Y57304D01*
X344635Y57336D01*
X346423Y59125D01*
X355656Y59125D01*
X358869Y57269D01*
X358907Y57204D01*
X358995Y57088D01*
X359080Y56970D01*
X359091Y56962D01*
X359099Y56951D01*
X359213Y56861D01*
X359325Y56767D01*
X359338Y56762D01*
X359348Y56753D01*
X359481Y56694D01*
X359613Y56632D01*
X359626Y56629D01*
X359639Y56624D01*
X359783Y56599D01*
X359926Y56572D01*
X359939Y56573D01*
X359952Y56571D01*
X360098Y56583D01*
X360243Y56592D01*
X360256Y56596D01*
X360269Y56597D01*
X360407Y56645D01*
X360545Y56690D01*
X360557Y56697D01*
X360570Y56702D01*
X360691Y56782D01*
X360814Y56860D01*
X360823Y56870D01*
X360835Y56877D01*
X360932Y56985D01*
X361032Y57092D01*
X361039Y57103D01*
X361048Y57113D01*
X361115Y57243D01*
X361186Y57370D01*
X361189Y57383D01*
X361195Y57395D01*
X361229Y57538D01*
X361265Y57678D01*
X361266Y57696D01*
X361268Y57705D01*
X361268Y57722D01*
X361275Y57839D01*
X361275Y68177D01*
X363223Y70125D01*
X365977Y70125D01*
X367925Y68177D01*
X367925Y60394D01*
X367940Y60276D01*
X367947Y60157D01*
X367960Y60119D01*
X367965Y60078D01*
X368008Y59968D01*
X368045Y59855D01*
X368067Y59820D01*
X368082Y59783D01*
X368151Y59687D01*
X368215Y59586D01*
X368245Y59558D01*
X368268Y59525D01*
X368360Y59449D01*
X368447Y59368D01*
X368482Y59348D01*
X368513Y59323D01*
X368621Y59272D01*
X368725Y59214D01*
X368765Y59204D01*
X368801Y59187D01*
X368918Y59165D01*
X369033Y59135D01*
X369093Y59131D01*
X369113Y59127D01*
X369134Y59129D01*
X369194Y59125D01*
X372456Y59125D01*
X373921Y58279D01*
X373924Y58277D01*
X373927Y58275D01*
X374072Y58215D01*
X374214Y58155D01*
X374218Y58155D01*
X374221Y58153D01*
X374374Y58132D01*
X374529Y58109D01*
X374533Y58109D01*
X374536Y58109D01*
X374689Y58126D01*
X374845Y58142D01*
X374849Y58143D01*
X374852Y58144D01*
X374998Y58199D01*
X375143Y58253D01*
X375146Y58255D01*
X375150Y58256D01*
X375278Y58346D01*
X375404Y58434D01*
X375407Y58437D01*
X375410Y58439D01*
X375513Y58559D01*
X375612Y58675D01*
X375614Y58678D01*
X375617Y58681D01*
X375696Y58821D01*
X376417Y60296D01*
X379022Y61192D01*
X381496Y59983D01*
X384101Y52406D01*
X384135Y52337D01*
X384160Y52264D01*
X384205Y52195D01*
X384241Y52121D01*
X384291Y52062D01*
X384333Y51998D01*
X384394Y51942D01*
X384448Y51879D01*
X384511Y51835D01*
X384568Y51783D01*
X384641Y51744D01*
X384708Y51697D01*
X384780Y51669D01*
X384848Y51633D01*
X384929Y51614D01*
X385006Y51584D01*
X385082Y51576D01*
X385157Y51558D01*
X385240Y51559D01*
X385322Y51550D01*
X385398Y51561D01*
X385475Y51562D01*
X385555Y51583D01*
X385637Y51595D01*
X385708Y51624D01*
X385782Y51644D01*
X385854Y51685D01*
X385931Y51717D01*
X385992Y51763D01*
X386059Y51801D01*
X386119Y51858D01*
X386185Y51908D01*
X386233Y51968D01*
X386288Y52021D01*
X386332Y52091D01*
X386384Y52156D01*
X386415Y52226D01*
X386456Y52291D01*
X386513Y52442D01*
X388834Y59903D01*
X391273Y61184D01*
X393903Y60366D01*
X394314Y59583D01*
X394396Y59465D01*
X394476Y59345D01*
X394487Y59335D01*
X394496Y59323D01*
X394605Y59229D01*
X394712Y59132D01*
X394725Y59125D01*
X394737Y59115D01*
X394866Y59051D01*
X394994Y58984D01*
X395008Y58981D01*
X395022Y58974D01*
X395163Y58945D01*
X395303Y58912D01*
X395318Y58912D01*
X395333Y58909D01*
X395477Y58915D01*
X395621Y58918D01*
X395636Y58922D01*
X395651Y58923D01*
X395789Y58965D01*
X395928Y59003D01*
X395946Y59012D01*
X395955Y59015D01*
X395971Y59024D01*
X396072Y59074D01*
X397544Y59925D01*
X401255Y59925D01*
X401377Y59940D01*
X401500Y59949D01*
X401551Y59962D01*
X401570Y59965D01*
X401590Y59972D01*
X401656Y59990D01*
X402255Y60190D01*
X402517Y60059D01*
X402568Y60041D01*
X402616Y60014D01*
X402718Y59988D01*
X402817Y59953D01*
X402871Y59949D01*
X402924Y59935D01*
X403084Y59925D01*
X403177Y59925D01*
X403251Y59851D01*
X403310Y59805D01*
X403363Y59751D01*
X403495Y59660D01*
X404359Y59142D01*
X404379Y59133D01*
X404445Y59095D01*
X405070Y58782D01*
X405153Y58753D01*
X405233Y58714D01*
X405357Y58681D01*
X405370Y58677D01*
X405376Y58676D01*
X405389Y58673D01*
X405802Y58590D01*
X405993Y58304D01*
X406020Y58273D01*
X406041Y58237D01*
X406124Y58153D01*
X406201Y58063D01*
X406235Y58040D01*
X406264Y58011D01*
X406396Y57919D01*
X406691Y57742D01*
X406784Y57374D01*
X406821Y57278D01*
X406849Y57179D01*
X406878Y57130D01*
X406899Y57078D01*
X406959Y56994D01*
X407011Y56905D01*
X407071Y56837D01*
X407084Y56819D01*
X407095Y56810D01*
X407117Y56784D01*
X407527Y56375D01*
X407541Y56259D01*
X407553Y56127D01*
X407561Y56102D01*
X407565Y56075D01*
X407614Y55952D01*
X407657Y55826D01*
X407676Y55794D01*
X407682Y55780D01*
X407694Y55762D01*
X407731Y55700D01*
X407549Y54794D01*
X407546Y54749D01*
X407535Y54706D01*
X407525Y54545D01*
X407525Y53223D01*
X407434Y53133D01*
X407433Y53131D01*
X407429Y53127D01*
X405577Y51275D01*
X403915Y51275D01*
X403846Y51266D01*
X403776Y51268D01*
X403689Y51247D01*
X403600Y51235D01*
X403535Y51210D01*
X403466Y51193D01*
X403387Y51151D01*
X403304Y51118D01*
X403247Y51077D01*
X403185Y51044D01*
X403119Y50984D01*
X403047Y50932D01*
X403002Y50878D01*
X402950Y50830D01*
X402901Y50756D01*
X402844Y50687D01*
X402814Y50623D01*
X402776Y50565D01*
X402746Y50480D01*
X402708Y50399D01*
X402695Y50330D01*
X402672Y50264D01*
X402665Y50174D01*
X402649Y50087D01*
X402653Y50017D01*
X402647Y49947D01*
X402663Y49858D01*
X402668Y49769D01*
X402690Y49703D01*
X402702Y49633D01*
X402739Y49552D01*
X402766Y49467D01*
X402804Y49407D01*
X402833Y49344D01*
X402889Y49274D01*
X402937Y49198D01*
X402988Y49150D01*
X403031Y49095D01*
X403154Y48991D01*
X403436Y48779D01*
X403444Y48774D01*
X403451Y48768D01*
X403582Y48695D01*
X403713Y48621D01*
X403721Y48619D01*
X403729Y48614D01*
X403874Y48577D01*
X403944Y48558D01*
X404720Y47782D01*
X404728Y47776D01*
X404734Y47768D01*
X404856Y47664D01*
X405722Y47015D01*
X405759Y46879D01*
X405763Y46872D01*
X405766Y46863D01*
X405842Y46734D01*
X405916Y46603D01*
X405923Y46597D01*
X405927Y46589D01*
X406034Y46468D01*
X406429Y46073D01*
X406465Y46045D01*
X406495Y46012D01*
X406577Y45949D01*
X406588Y45938D01*
X406597Y45933D01*
X406623Y45914D01*
X407392Y45401D01*
X407430Y45290D01*
X407467Y45162D01*
X407480Y45139D01*
X407488Y45114D01*
X407561Y45003D01*
X407628Y44888D01*
X407653Y44860D01*
X407661Y44847D01*
X407677Y44833D01*
X407725Y44778D01*
X407725Y44503D01*
X407737Y44405D01*
X407740Y44306D01*
X407757Y44247D01*
X407765Y44187D01*
X407801Y44095D01*
X407829Y44000D01*
X407859Y43948D01*
X407882Y43892D01*
X407925Y43832D01*
X407925Y42855D01*
X407930Y42810D01*
X407928Y42765D01*
X407949Y42606D01*
X408131Y41699D01*
X408079Y41594D01*
X408014Y41478D01*
X408008Y41452D01*
X407996Y41429D01*
X407968Y41298D01*
X407935Y41170D01*
X407933Y41132D01*
X407929Y41118D01*
X407930Y41096D01*
X407925Y41009D01*
X407925Y39344D01*
X406069Y36131D01*
X402856Y34275D01*
X399146Y34275D01*
X399023Y34260D01*
X398900Y34251D01*
X398849Y34238D01*
X398830Y34235D01*
X398822Y34232D01*
X398820Y34232D01*
X398805Y34226D01*
X398744Y34210D01*
X398145Y34010D01*
X397883Y34141D01*
X397833Y34159D01*
X397791Y34182D01*
X397790Y34183D01*
X397784Y34186D01*
X397682Y34212D01*
X397583Y34247D01*
X397529Y34251D01*
X397476Y34265D01*
X397315Y34275D01*
X397223Y34275D01*
X397149Y34349D01*
X397090Y34395D01*
X397037Y34449D01*
X396905Y34540D01*
X396041Y35058D01*
X396021Y35067D01*
X395955Y35105D01*
X395330Y35418D01*
X395284Y35434D01*
X395252Y35452D01*
X395221Y35460D01*
X395167Y35486D01*
X395043Y35519D01*
X395030Y35523D01*
X395024Y35524D01*
X395011Y35527D01*
X394598Y35610D01*
X394407Y35896D01*
X394380Y35927D01*
X394359Y35963D01*
X394276Y36047D01*
X394199Y36137D01*
X394165Y36160D01*
X394136Y36189D01*
X394004Y36281D01*
X393709Y36458D01*
X393616Y36826D01*
X393579Y36922D01*
X393551Y37021D01*
X393522Y37070D01*
X393501Y37122D01*
X393441Y37206D01*
X393389Y37295D01*
X393329Y37363D01*
X393316Y37381D01*
X393305Y37390D01*
X393283Y37416D01*
X392873Y37825D01*
X392859Y37941D01*
X392847Y38073D01*
X392839Y38098D01*
X392835Y38125D01*
X392786Y38248D01*
X392743Y38374D01*
X392724Y38406D01*
X392718Y38420D01*
X392706Y38438D01*
X392669Y38500D01*
X392851Y39406D01*
X392854Y39451D01*
X392865Y39494D01*
X392875Y39655D01*
X392875Y40977D01*
X392966Y41067D01*
X392967Y41069D01*
X392971Y41073D01*
X394823Y42925D01*
X396285Y42925D01*
X396354Y42934D01*
X396424Y42932D01*
X396511Y42953D01*
X396600Y42965D01*
X396665Y42990D01*
X396734Y43007D01*
X396813Y43049D01*
X396896Y43082D01*
X396953Y43123D01*
X397015Y43156D01*
X397081Y43216D01*
X397153Y43268D01*
X397198Y43322D01*
X397250Y43370D01*
X397299Y43444D01*
X397356Y43513D01*
X397386Y43577D01*
X397424Y43635D01*
X397454Y43720D01*
X397492Y43801D01*
X397505Y43870D01*
X397528Y43936D01*
X397535Y44026D01*
X397551Y44113D01*
X397547Y44183D01*
X397553Y44253D01*
X397537Y44342D01*
X397532Y44431D01*
X397510Y44497D01*
X397498Y44567D01*
X397461Y44648D01*
X397434Y44733D01*
X397396Y44793D01*
X397367Y44856D01*
X397311Y44926D01*
X397264Y45002D01*
X397212Y45050D01*
X397169Y45105D01*
X397046Y45209D01*
X396082Y45933D01*
X396059Y45956D01*
X395997Y46033D01*
X395921Y46099D01*
X395907Y46113D01*
X395896Y46120D01*
X395875Y46138D01*
X395639Y46315D01*
X395601Y46336D01*
X395568Y46364D01*
X395463Y46415D01*
X395362Y46472D01*
X395321Y46484D01*
X395282Y46503D01*
X395126Y46544D01*
X394798Y46610D01*
X394470Y47101D01*
X394382Y47203D01*
X394298Y47308D01*
X394272Y47330D01*
X394262Y47341D01*
X394244Y47354D01*
X394176Y47412D01*
X393780Y47709D01*
X393765Y47718D01*
X393752Y47730D01*
X393627Y47797D01*
X393503Y47867D01*
X393487Y47871D01*
X393471Y47880D01*
X393333Y47913D01*
X393197Y47951D01*
X393179Y47951D01*
X393162Y47955D01*
X393021Y47953D01*
X392879Y47955D01*
X392862Y47951D01*
X392844Y47951D01*
X392708Y47914D01*
X392569Y47881D01*
X392554Y47873D01*
X392537Y47869D01*
X392414Y47799D01*
X392288Y47732D01*
X392276Y47721D01*
X392260Y47712D01*
X392158Y47614D01*
X392053Y47518D01*
X392044Y47504D01*
X392031Y47492D01*
X391956Y47371D01*
X391878Y47253D01*
X391873Y47236D01*
X391864Y47221D01*
X391806Y47071D01*
X389140Y38502D01*
X389140Y38500D01*
X389139Y38497D01*
X389130Y38449D01*
X389095Y38356D01*
X386533Y30122D01*
X386522Y30061D01*
X386502Y30002D01*
X386495Y29905D01*
X386478Y29809D01*
X386482Y29747D01*
X386477Y29685D01*
X386495Y29525D01*
X386513Y29422D01*
X386270Y29074D01*
X386216Y28972D01*
X386156Y28874D01*
X386132Y28811D01*
X386122Y28793D01*
X386117Y28774D01*
X386098Y28723D01*
X385966Y28297D01*
X385860Y28242D01*
X385809Y28206D01*
X385753Y28179D01*
X385679Y28116D01*
X385599Y28060D01*
X385559Y28013D01*
X385511Y27972D01*
X385411Y27846D01*
X384382Y26377D01*
X384374Y26362D01*
X384351Y26330D01*
X383619Y25180D01*
X382278Y24943D01*
X382262Y24939D01*
X382223Y24933D01*
X381827Y24845D01*
X381715Y24804D01*
X381600Y24771D01*
X381565Y24751D01*
X381528Y24737D01*
X381429Y24670D01*
X381326Y24609D01*
X381281Y24570D01*
X381264Y24559D01*
X381251Y24543D01*
X381205Y24503D01*
X381177Y24475D01*
X380304Y24475D01*
X380246Y24468D01*
X380188Y24470D01*
X380029Y24445D01*
X379177Y24256D01*
X379144Y24277D01*
G37*
%LPD*%
%LPC*%
G36*
X273823Y24275D02*
X273823Y24275D01*
X271875Y26223D01*
X271875Y35633D01*
X271859Y35764D01*
X271848Y35896D01*
X271839Y35922D01*
X271835Y35948D01*
X271787Y36071D01*
X271743Y36196D01*
X271728Y36219D01*
X271718Y36244D01*
X271641Y36351D01*
X271567Y36461D01*
X271547Y36480D01*
X271532Y36501D01*
X271429Y36586D01*
X271331Y36674D01*
X271307Y36687D01*
X271287Y36704D01*
X271167Y36761D01*
X271050Y36822D01*
X271023Y36828D01*
X270999Y36840D01*
X270869Y36865D01*
X270740Y36895D01*
X270713Y36894D01*
X270687Y36899D01*
X270555Y36891D01*
X270422Y36889D01*
X270396Y36881D01*
X270369Y36880D01*
X270243Y36839D01*
X270116Y36803D01*
X270081Y36786D01*
X270067Y36782D01*
X270048Y36770D01*
X269971Y36732D01*
X266756Y34875D01*
X260745Y34875D01*
X257531Y36731D01*
X255675Y39945D01*
X255675Y54056D01*
X257531Y57269D01*
X260744Y59125D01*
X266756Y59125D01*
X270010Y57246D01*
X270020Y57231D01*
X270045Y57209D01*
X270066Y57182D01*
X270164Y57104D01*
X270259Y57020D01*
X270289Y57005D01*
X270315Y56984D01*
X270430Y56933D01*
X270542Y56876D01*
X270575Y56868D01*
X270605Y56855D01*
X270730Y56834D01*
X270852Y56806D01*
X270886Y56807D01*
X270919Y56801D01*
X271044Y56812D01*
X271170Y56816D01*
X271202Y56825D01*
X271236Y56828D01*
X271355Y56869D01*
X271475Y56904D01*
X271504Y56921D01*
X271536Y56932D01*
X271641Y57002D01*
X271749Y57066D01*
X271786Y57098D01*
X271801Y57108D01*
X271816Y57124D01*
X271870Y57172D01*
X273823Y59125D01*
X283056Y59125D01*
X286269Y57269D01*
X287001Y56002D01*
X287081Y55897D01*
X287156Y55788D01*
X287177Y55770D01*
X287193Y55749D01*
X287297Y55667D01*
X287397Y55580D01*
X287421Y55568D01*
X287442Y55551D01*
X287563Y55497D01*
X287682Y55438D01*
X287708Y55433D01*
X287733Y55422D01*
X287863Y55400D01*
X287993Y55372D01*
X288020Y55373D01*
X288046Y55369D01*
X288178Y55380D01*
X288311Y55385D01*
X288336Y55393D01*
X288363Y55395D01*
X288488Y55439D01*
X288615Y55477D01*
X288638Y55491D01*
X288664Y55500D01*
X288774Y55573D01*
X288887Y55641D01*
X288906Y55660D01*
X288929Y55675D01*
X289017Y55774D01*
X289110Y55868D01*
X289131Y55900D01*
X289142Y55912D01*
X289152Y55931D01*
X289199Y56002D01*
X289931Y57269D01*
X293144Y59125D01*
X299256Y59125D01*
X302499Y57252D01*
X302557Y57167D01*
X302582Y57145D01*
X302602Y57118D01*
X302701Y57040D01*
X302795Y56957D01*
X302825Y56942D01*
X302852Y56921D01*
X302967Y56869D01*
X303078Y56812D01*
X303111Y56805D01*
X303142Y56791D01*
X303266Y56770D01*
X303389Y56743D01*
X303422Y56744D01*
X303456Y56738D01*
X303581Y56749D01*
X303707Y56752D01*
X303739Y56762D01*
X303773Y56765D01*
X303891Y56806D01*
X304012Y56841D01*
X304041Y56858D01*
X304073Y56869D01*
X304178Y56938D01*
X304286Y57002D01*
X304323Y57035D01*
X304338Y57045D01*
X304352Y57061D01*
X304407Y57109D01*
X306423Y59125D01*
X315656Y59125D01*
X318869Y57269D01*
X320725Y54056D01*
X320725Y36823D01*
X318777Y34875D01*
X316023Y34875D01*
X314075Y36823D01*
X314075Y51206D01*
X314060Y51324D01*
X314053Y51443D01*
X314040Y51481D01*
X314035Y51522D01*
X313992Y51632D01*
X313955Y51745D01*
X313933Y51780D01*
X313918Y51817D01*
X313849Y51913D01*
X313785Y52014D01*
X313755Y52042D01*
X313732Y52075D01*
X313640Y52151D01*
X313553Y52232D01*
X313518Y52252D01*
X313487Y52277D01*
X313379Y52328D01*
X313275Y52386D01*
X313235Y52396D01*
X313199Y52413D01*
X313082Y52435D01*
X312967Y52465D01*
X312907Y52469D01*
X312887Y52473D01*
X312866Y52471D01*
X312806Y52475D01*
X312394Y52475D01*
X312276Y52460D01*
X312157Y52453D01*
X312119Y52440D01*
X312078Y52435D01*
X311968Y52392D01*
X311855Y52355D01*
X311820Y52333D01*
X311783Y52318D01*
X311687Y52249D01*
X311586Y52185D01*
X311558Y52155D01*
X311525Y52132D01*
X311449Y52040D01*
X311368Y51953D01*
X311348Y51918D01*
X311323Y51887D01*
X311272Y51779D01*
X311214Y51675D01*
X311204Y51635D01*
X311187Y51599D01*
X311165Y51482D01*
X311135Y51367D01*
X311131Y51307D01*
X311127Y51287D01*
X311129Y51266D01*
X311125Y51206D01*
X311125Y36823D01*
X309177Y34875D01*
X306423Y34875D01*
X304362Y36936D01*
X304263Y37013D01*
X304168Y37095D01*
X304138Y37110D01*
X304111Y37131D01*
X303996Y37181D01*
X303883Y37237D01*
X303850Y37244D01*
X303819Y37257D01*
X303695Y37277D01*
X303572Y37303D01*
X303538Y37302D01*
X303505Y37307D01*
X303380Y37295D01*
X303254Y37290D01*
X303222Y37280D01*
X303189Y37277D01*
X303070Y37235D01*
X302950Y37198D01*
X302921Y37181D01*
X302889Y37169D01*
X302785Y37099D01*
X302678Y37034D01*
X302654Y37010D01*
X302626Y36991D01*
X302543Y36897D01*
X302455Y36807D01*
X302428Y36766D01*
X302416Y36752D01*
X302406Y36733D01*
X302366Y36673D01*
X302059Y36141D01*
X300274Y35111D01*
X300206Y35059D01*
X300132Y35015D01*
X300029Y34925D01*
X300020Y34918D01*
X300018Y34915D01*
X300011Y34909D01*
X299977Y34875D01*
X293144Y34875D01*
X289931Y36731D01*
X289199Y37998D01*
X289119Y38103D01*
X289044Y38212D01*
X289023Y38230D01*
X289007Y38251D01*
X288903Y38333D01*
X288803Y38420D01*
X288779Y38432D01*
X288758Y38449D01*
X288637Y38503D01*
X288518Y38562D01*
X288492Y38567D01*
X288467Y38578D01*
X288337Y38600D01*
X288207Y38628D01*
X288180Y38627D01*
X288154Y38631D01*
X288022Y38620D01*
X287889Y38615D01*
X287864Y38607D01*
X287837Y38605D01*
X287712Y38561D01*
X287585Y38523D01*
X287562Y38509D01*
X287536Y38500D01*
X287426Y38427D01*
X287313Y38359D01*
X287294Y38340D01*
X287271Y38325D01*
X287183Y38226D01*
X287090Y38132D01*
X287069Y38100D01*
X287058Y38088D01*
X287048Y38069D01*
X287001Y37998D01*
X286269Y36731D01*
X283056Y34875D01*
X279794Y34875D01*
X279676Y34860D01*
X279557Y34853D01*
X279519Y34840D01*
X279478Y34835D01*
X279368Y34792D01*
X279255Y34755D01*
X279220Y34733D01*
X279183Y34718D01*
X279087Y34649D01*
X278986Y34585D01*
X278958Y34555D01*
X278925Y34532D01*
X278849Y34440D01*
X278768Y34353D01*
X278748Y34318D01*
X278723Y34287D01*
X278672Y34179D01*
X278614Y34075D01*
X278604Y34035D01*
X278587Y33999D01*
X278565Y33882D01*
X278535Y33767D01*
X278531Y33707D01*
X278527Y33687D01*
X278529Y33666D01*
X278525Y33606D01*
X278525Y26223D01*
X276577Y24275D01*
X273823Y24275D01*
G37*
%LPD*%
D10*
X343000Y69000D02*
X281000Y95000D01*
X349000Y89000D01*
X343000Y69000D01*
X331000Y133000D01*
X349000Y89000D01*
X307000Y119000D01*
X281000Y95000D01*
X307000Y119000D02*
X343000Y69000D01*
D11*
X262600Y55800D02*
X262482Y55798D01*
X262365Y55792D01*
X262247Y55783D01*
X262130Y55769D01*
X262014Y55752D01*
X261898Y55731D01*
X261783Y55706D01*
X261668Y55677D01*
X261555Y55645D01*
X261443Y55609D01*
X261332Y55569D01*
X261222Y55526D01*
X261114Y55479D01*
X261008Y55429D01*
X260903Y55375D01*
X260800Y55318D01*
X260699Y55257D01*
X260600Y55193D01*
X260503Y55126D01*
X260408Y55056D01*
X260316Y54983D01*
X260226Y54907D01*
X260139Y54828D01*
X260054Y54746D01*
X259972Y54661D01*
X259893Y54574D01*
X259817Y54484D01*
X259744Y54392D01*
X259674Y54297D01*
X259607Y54200D01*
X259543Y54101D01*
X259482Y54000D01*
X259425Y53897D01*
X259371Y53792D01*
X259321Y53686D01*
X259274Y53578D01*
X259231Y53468D01*
X259191Y53357D01*
X259155Y53245D01*
X259123Y53132D01*
X259094Y53017D01*
X259069Y52902D01*
X259048Y52786D01*
X259031Y52670D01*
X259017Y52553D01*
X259008Y52435D01*
X259002Y52318D01*
X259000Y52200D01*
X259000Y41800D01*
X259002Y41682D01*
X259008Y41565D01*
X259017Y41447D01*
X259031Y41330D01*
X259048Y41214D01*
X259069Y41098D01*
X259094Y40983D01*
X259123Y40868D01*
X259155Y40755D01*
X259191Y40643D01*
X259231Y40532D01*
X259274Y40422D01*
X259321Y40314D01*
X259371Y40208D01*
X259425Y40103D01*
X259482Y40000D01*
X259543Y39899D01*
X259607Y39800D01*
X259674Y39703D01*
X259744Y39608D01*
X259817Y39516D01*
X259893Y39426D01*
X259972Y39339D01*
X260054Y39254D01*
X260139Y39172D01*
X260226Y39093D01*
X260316Y39017D01*
X260408Y38944D01*
X260503Y38874D01*
X260600Y38807D01*
X260699Y38743D01*
X260800Y38682D01*
X260903Y38625D01*
X261008Y38571D01*
X261114Y38521D01*
X261222Y38474D01*
X261332Y38431D01*
X261443Y38391D01*
X261555Y38355D01*
X261668Y38323D01*
X261783Y38294D01*
X261898Y38269D01*
X262014Y38248D01*
X262130Y38231D01*
X262247Y38217D01*
X262365Y38208D01*
X262482Y38202D01*
X262600Y38200D01*
X297400Y55800D02*
X297518Y55798D01*
X297635Y55792D01*
X297753Y55783D01*
X297870Y55769D01*
X297986Y55752D01*
X298102Y55731D01*
X298217Y55706D01*
X298332Y55677D01*
X298445Y55645D01*
X298557Y55609D01*
X298668Y55569D01*
X298778Y55526D01*
X298886Y55479D01*
X298992Y55429D01*
X299097Y55375D01*
X299200Y55318D01*
X299301Y55257D01*
X299400Y55193D01*
X299497Y55126D01*
X299592Y55056D01*
X299684Y54983D01*
X299774Y54907D01*
X299861Y54828D01*
X299946Y54746D01*
X300028Y54661D01*
X300107Y54574D01*
X300183Y54484D01*
X300256Y54392D01*
X300326Y54297D01*
X300393Y54200D01*
X300457Y54101D01*
X300518Y54000D01*
X300575Y53897D01*
X300629Y53792D01*
X300679Y53686D01*
X300726Y53578D01*
X300769Y53468D01*
X300809Y53357D01*
X300845Y53245D01*
X300877Y53132D01*
X300906Y53017D01*
X300931Y52902D01*
X300952Y52786D01*
X300969Y52670D01*
X300983Y52553D01*
X300992Y52435D01*
X300998Y52318D01*
X301000Y52200D01*
X297400Y55800D02*
X295000Y55800D01*
X294882Y55798D01*
X294765Y55792D01*
X294647Y55783D01*
X294530Y55769D01*
X294414Y55752D01*
X294298Y55731D01*
X294183Y55706D01*
X294068Y55677D01*
X293955Y55645D01*
X293843Y55609D01*
X293732Y55569D01*
X293622Y55526D01*
X293514Y55479D01*
X293408Y55429D01*
X293303Y55375D01*
X293200Y55318D01*
X293099Y55257D01*
X293000Y55193D01*
X292903Y55126D01*
X292808Y55056D01*
X292716Y54983D01*
X292626Y54907D01*
X292539Y54828D01*
X292454Y54746D01*
X292372Y54661D01*
X292293Y54574D01*
X292217Y54484D01*
X292144Y54392D01*
X292074Y54297D01*
X292007Y54200D01*
X291943Y54101D01*
X291882Y54000D01*
X291825Y53897D01*
X291771Y53792D01*
X291721Y53686D01*
X291674Y53578D01*
X291631Y53468D01*
X291591Y53357D01*
X291555Y53245D01*
X291523Y53132D01*
X291494Y53017D01*
X291469Y52902D01*
X291448Y52786D01*
X291431Y52670D01*
X291417Y52553D01*
X291408Y52435D01*
X291402Y52318D01*
X291400Y52200D01*
X291400Y41800D01*
X291402Y41682D01*
X291408Y41565D01*
X291417Y41447D01*
X291431Y41330D01*
X291448Y41214D01*
X291469Y41098D01*
X291494Y40983D01*
X291523Y40868D01*
X291555Y40755D01*
X291591Y40643D01*
X291631Y40532D01*
X291674Y40422D01*
X291721Y40314D01*
X291771Y40208D01*
X291825Y40103D01*
X291882Y40000D01*
X291943Y39899D01*
X292007Y39800D01*
X292074Y39703D01*
X292144Y39608D01*
X292217Y39516D01*
X292293Y39426D01*
X292372Y39339D01*
X292454Y39254D01*
X292539Y39172D01*
X292626Y39093D01*
X292716Y39017D01*
X292808Y38944D01*
X292903Y38874D01*
X293000Y38807D01*
X293099Y38743D01*
X293200Y38682D01*
X293303Y38625D01*
X293408Y38571D01*
X293514Y38521D01*
X293622Y38474D01*
X293732Y38431D01*
X293843Y38391D01*
X293955Y38355D01*
X294068Y38323D01*
X294183Y38294D01*
X294298Y38269D01*
X294414Y38248D01*
X294530Y38231D01*
X294647Y38217D01*
X294765Y38208D01*
X294882Y38202D01*
X295000Y38200D01*
X317400Y38200D02*
X317400Y52200D01*
X317398Y52318D01*
X317392Y52435D01*
X317383Y52553D01*
X317369Y52670D01*
X317352Y52786D01*
X317331Y52902D01*
X317306Y53017D01*
X317277Y53132D01*
X317245Y53245D01*
X317209Y53357D01*
X317169Y53468D01*
X317126Y53578D01*
X317079Y53686D01*
X317029Y53792D01*
X316975Y53897D01*
X316918Y54000D01*
X316857Y54101D01*
X316793Y54200D01*
X316726Y54297D01*
X316656Y54392D01*
X316583Y54484D01*
X316507Y54574D01*
X316428Y54661D01*
X316346Y54746D01*
X316261Y54828D01*
X316174Y54907D01*
X316084Y54983D01*
X315992Y55056D01*
X315897Y55126D01*
X315800Y55193D01*
X315701Y55257D01*
X315600Y55318D01*
X315497Y55375D01*
X315392Y55429D01*
X315286Y55479D01*
X315178Y55526D01*
X315068Y55569D01*
X314957Y55609D01*
X314845Y55645D01*
X314732Y55677D01*
X314617Y55706D01*
X314502Y55731D01*
X314386Y55752D01*
X314270Y55769D01*
X314153Y55783D01*
X314035Y55792D01*
X313918Y55798D01*
X313800Y55800D01*
X307800Y55800D01*
X307800Y38200D01*
X347800Y38200D02*
X347800Y55800D01*
X347800Y38200D02*
X353800Y38200D01*
X353918Y38202D01*
X354035Y38208D01*
X354153Y38217D01*
X354270Y38231D01*
X354386Y38248D01*
X354502Y38269D01*
X354617Y38294D01*
X354732Y38323D01*
X354845Y38355D01*
X354957Y38391D01*
X355068Y38431D01*
X355178Y38474D01*
X355286Y38521D01*
X355392Y38571D01*
X355497Y38625D01*
X355600Y38682D01*
X355701Y38743D01*
X355800Y38807D01*
X355897Y38874D01*
X355992Y38944D01*
X356084Y39017D01*
X356174Y39093D01*
X356261Y39172D01*
X356346Y39254D01*
X356428Y39339D01*
X356507Y39426D01*
X356583Y39516D01*
X356656Y39608D01*
X356726Y39703D01*
X356793Y39800D01*
X356857Y39899D01*
X356918Y40000D01*
X356975Y40103D01*
X357029Y40208D01*
X357079Y40314D01*
X357126Y40422D01*
X357169Y40532D01*
X357209Y40643D01*
X357245Y40755D01*
X357277Y40868D01*
X357306Y40983D01*
X357331Y41098D01*
X357352Y41214D01*
X357369Y41330D01*
X357383Y41447D01*
X357392Y41565D01*
X357398Y41682D01*
X357400Y41800D01*
X357400Y52200D01*
X357398Y52318D01*
X357392Y52435D01*
X357383Y52553D01*
X357369Y52670D01*
X357352Y52786D01*
X357331Y52902D01*
X357306Y53017D01*
X357277Y53132D01*
X357245Y53245D01*
X357209Y53357D01*
X357169Y53468D01*
X357126Y53578D01*
X357079Y53686D01*
X357029Y53792D01*
X356975Y53897D01*
X356918Y54000D01*
X356857Y54101D01*
X356793Y54200D01*
X356726Y54297D01*
X356656Y54392D01*
X356583Y54484D01*
X356507Y54574D01*
X356428Y54661D01*
X356346Y54746D01*
X356261Y54828D01*
X356174Y54907D01*
X356084Y54983D01*
X355992Y55056D01*
X355897Y55126D01*
X355800Y55193D01*
X355701Y55257D01*
X355600Y55318D01*
X355497Y55375D01*
X355392Y55429D01*
X355286Y55479D01*
X355178Y55526D01*
X355068Y55569D01*
X354957Y55609D01*
X354845Y55645D01*
X354732Y55677D01*
X354617Y55706D01*
X354502Y55731D01*
X354386Y55752D01*
X354270Y55769D01*
X354153Y55783D01*
X354035Y55792D01*
X353918Y55798D01*
X353800Y55800D01*
X347800Y55800D01*
X374200Y52200D02*
X374400Y38200D01*
X374200Y52200D02*
X374198Y52318D01*
X374192Y52435D01*
X374183Y52553D01*
X374169Y52670D01*
X374152Y52786D01*
X374131Y52902D01*
X374106Y53017D01*
X374077Y53132D01*
X374045Y53245D01*
X374009Y53357D01*
X373969Y53468D01*
X373926Y53578D01*
X373879Y53686D01*
X373829Y53792D01*
X373775Y53897D01*
X373718Y54000D01*
X373657Y54101D01*
X373593Y54200D01*
X373526Y54297D01*
X373456Y54392D01*
X373383Y54484D01*
X373307Y54574D01*
X373228Y54661D01*
X373146Y54746D01*
X373061Y54828D01*
X372974Y54907D01*
X372884Y54983D01*
X372792Y55056D01*
X372697Y55126D01*
X372600Y55193D01*
X372501Y55257D01*
X372400Y55318D01*
X372297Y55375D01*
X372192Y55429D01*
X372086Y55479D01*
X371978Y55526D01*
X371868Y55569D01*
X371757Y55609D01*
X371645Y55645D01*
X371532Y55677D01*
X371417Y55706D01*
X371302Y55731D01*
X371186Y55752D01*
X371070Y55769D01*
X370953Y55783D01*
X370835Y55792D01*
X370718Y55798D01*
X370600Y55800D01*
X366000Y55800D01*
X399400Y56600D02*
X401800Y56600D01*
X399400Y56600D02*
X399282Y56598D01*
X399165Y56592D01*
X399047Y56583D01*
X398930Y56569D01*
X398814Y56552D01*
X398698Y56531D01*
X398583Y56506D01*
X398468Y56477D01*
X398355Y56445D01*
X398243Y56409D01*
X398132Y56369D01*
X398022Y56326D01*
X397914Y56279D01*
X397808Y56229D01*
X397703Y56175D01*
X397600Y56118D01*
X397499Y56057D01*
X397400Y55993D01*
X397303Y55926D01*
X397208Y55856D01*
X397116Y55783D01*
X397026Y55707D01*
X396939Y55628D01*
X396854Y55546D01*
X396772Y55461D01*
X396693Y55374D01*
X396617Y55284D01*
X396544Y55192D01*
X396474Y55097D01*
X396407Y55000D01*
X396343Y54901D01*
X396282Y54800D01*
X396225Y54697D01*
X396171Y54592D01*
X396121Y54486D01*
X396074Y54378D01*
X396031Y54268D01*
X395991Y54157D01*
X395955Y54045D01*
X395923Y53932D01*
X395894Y53817D01*
X395869Y53702D01*
X395848Y53586D01*
X395831Y53470D01*
X395817Y53353D01*
X395808Y53235D01*
X395802Y53118D01*
X395800Y53000D01*
X301000Y47000D02*
X292600Y47000D01*
X295000Y38200D02*
X298600Y38200D01*
X298673Y38202D01*
X298746Y38208D01*
X298819Y38217D01*
X298891Y38231D01*
X298962Y38248D01*
X299033Y38269D01*
X299102Y38293D01*
X299169Y38321D01*
X299236Y38353D01*
X299300Y38388D01*
X299362Y38426D01*
X299423Y38467D01*
X299481Y38512D01*
X299537Y38560D01*
X299590Y38610D01*
X299640Y38663D01*
X299688Y38719D01*
X299733Y38777D01*
X299774Y38838D01*
X299812Y38900D01*
X299847Y38964D01*
X299879Y39031D01*
X299907Y39098D01*
X299931Y39167D01*
X299952Y39238D01*
X299969Y39309D01*
X299983Y39381D01*
X299992Y39454D01*
X299998Y39527D01*
X300000Y39600D01*
X301000Y47000D02*
X301000Y51800D01*
X347800Y38000D02*
X347800Y27600D01*
X385400Y38400D02*
X378800Y57600D01*
X391600Y57600D02*
X383200Y30600D01*
X383000Y30200D02*
X381600Y28200D01*
X379800Y27800D01*
X378800Y27800D01*
X275200Y38200D02*
X275200Y55800D01*
X275200Y38200D02*
X281200Y38200D01*
X281318Y38202D01*
X281435Y38208D01*
X281553Y38217D01*
X281670Y38231D01*
X281786Y38248D01*
X281902Y38269D01*
X282017Y38294D01*
X282132Y38323D01*
X282245Y38355D01*
X282357Y38391D01*
X282468Y38431D01*
X282578Y38474D01*
X282686Y38521D01*
X282792Y38571D01*
X282897Y38625D01*
X283000Y38682D01*
X283101Y38743D01*
X283200Y38807D01*
X283297Y38874D01*
X283392Y38944D01*
X283484Y39017D01*
X283574Y39093D01*
X283661Y39172D01*
X283746Y39254D01*
X283828Y39339D01*
X283907Y39426D01*
X283983Y39516D01*
X284056Y39608D01*
X284126Y39703D01*
X284193Y39800D01*
X284257Y39899D01*
X284318Y40000D01*
X284375Y40103D01*
X284429Y40208D01*
X284479Y40314D01*
X284526Y40422D01*
X284569Y40532D01*
X284609Y40643D01*
X284645Y40755D01*
X284677Y40868D01*
X284706Y40983D01*
X284731Y41098D01*
X284752Y41214D01*
X284769Y41330D01*
X284783Y41447D01*
X284792Y41565D01*
X284798Y41682D01*
X284800Y41800D01*
X284800Y52200D01*
X284798Y52318D01*
X284792Y52435D01*
X284783Y52553D01*
X284769Y52670D01*
X284752Y52786D01*
X284731Y52902D01*
X284706Y53017D01*
X284677Y53132D01*
X284645Y53245D01*
X284609Y53357D01*
X284569Y53468D01*
X284526Y53578D01*
X284479Y53686D01*
X284429Y53792D01*
X284375Y53897D01*
X284318Y54000D01*
X284257Y54101D01*
X284193Y54200D01*
X284126Y54297D01*
X284056Y54392D01*
X283983Y54484D01*
X283907Y54574D01*
X283828Y54661D01*
X283746Y54746D01*
X283661Y54828D01*
X283574Y54907D01*
X283484Y54983D01*
X283392Y55056D01*
X283297Y55126D01*
X283200Y55193D01*
X283101Y55257D01*
X283000Y55318D01*
X282897Y55375D01*
X282792Y55429D01*
X282686Y55479D01*
X282578Y55526D01*
X282468Y55569D01*
X282357Y55609D01*
X282245Y55645D01*
X282132Y55677D01*
X282017Y55706D01*
X281902Y55731D01*
X281786Y55752D01*
X281670Y55769D01*
X281553Y55783D01*
X281435Y55792D01*
X281318Y55798D01*
X281200Y55800D01*
X275200Y55800D01*
X275200Y38000D02*
X275200Y27600D01*
X337800Y55800D02*
X337918Y55798D01*
X338035Y55792D01*
X338153Y55783D01*
X338270Y55769D01*
X338386Y55752D01*
X338502Y55731D01*
X338617Y55706D01*
X338732Y55677D01*
X338845Y55645D01*
X338957Y55609D01*
X339068Y55569D01*
X339178Y55526D01*
X339286Y55479D01*
X339392Y55429D01*
X339497Y55375D01*
X339600Y55318D01*
X339701Y55257D01*
X339800Y55193D01*
X339897Y55126D01*
X339992Y55056D01*
X340084Y54983D01*
X340174Y54907D01*
X340261Y54828D01*
X340346Y54746D01*
X340428Y54661D01*
X340507Y54574D01*
X340583Y54484D01*
X340656Y54392D01*
X340726Y54297D01*
X340793Y54200D01*
X340857Y54101D01*
X340918Y54000D01*
X340975Y53897D01*
X341029Y53792D01*
X341079Y53686D01*
X341126Y53578D01*
X341169Y53468D01*
X341209Y53357D01*
X341245Y53245D01*
X341277Y53132D01*
X341306Y53017D01*
X341331Y52902D01*
X341352Y52786D01*
X341369Y52670D01*
X341383Y52553D01*
X341392Y52435D01*
X341398Y52318D01*
X341400Y52200D01*
X337800Y55800D02*
X335400Y55800D01*
X335282Y55798D01*
X335165Y55792D01*
X335047Y55783D01*
X334930Y55769D01*
X334814Y55752D01*
X334698Y55731D01*
X334583Y55706D01*
X334468Y55677D01*
X334355Y55645D01*
X334243Y55609D01*
X334132Y55569D01*
X334022Y55526D01*
X333914Y55479D01*
X333808Y55429D01*
X333703Y55375D01*
X333600Y55318D01*
X333499Y55257D01*
X333400Y55193D01*
X333303Y55126D01*
X333208Y55056D01*
X333116Y54983D01*
X333026Y54907D01*
X332939Y54828D01*
X332854Y54746D01*
X332772Y54661D01*
X332693Y54574D01*
X332617Y54484D01*
X332544Y54392D01*
X332474Y54297D01*
X332407Y54200D01*
X332343Y54101D01*
X332282Y54000D01*
X332225Y53897D01*
X332171Y53792D01*
X332121Y53686D01*
X332074Y53578D01*
X332031Y53468D01*
X331991Y53357D01*
X331955Y53245D01*
X331923Y53132D01*
X331894Y53017D01*
X331869Y52902D01*
X331848Y52786D01*
X331831Y52670D01*
X331817Y52553D01*
X331808Y52435D01*
X331802Y52318D01*
X331800Y52200D01*
X331800Y41800D01*
X331802Y41682D01*
X331808Y41565D01*
X331817Y41447D01*
X331831Y41330D01*
X331848Y41214D01*
X331869Y41098D01*
X331894Y40983D01*
X331923Y40868D01*
X331955Y40755D01*
X331991Y40643D01*
X332031Y40532D01*
X332074Y40422D01*
X332121Y40314D01*
X332171Y40208D01*
X332225Y40103D01*
X332282Y40000D01*
X332343Y39899D01*
X332407Y39800D01*
X332474Y39703D01*
X332544Y39608D01*
X332617Y39516D01*
X332693Y39426D01*
X332772Y39339D01*
X332854Y39254D01*
X332939Y39172D01*
X333026Y39093D01*
X333116Y39017D01*
X333208Y38944D01*
X333303Y38874D01*
X333400Y38807D01*
X333499Y38743D01*
X333600Y38682D01*
X333703Y38625D01*
X333808Y38571D01*
X333914Y38521D01*
X334022Y38474D01*
X334132Y38431D01*
X334243Y38391D01*
X334355Y38355D01*
X334468Y38323D01*
X334583Y38294D01*
X334698Y38269D01*
X334814Y38248D01*
X334930Y38231D01*
X335047Y38217D01*
X335165Y38208D01*
X335282Y38202D01*
X335400Y38200D01*
X333000Y47000D02*
X341400Y47000D01*
X339000Y38200D02*
X335400Y38200D01*
X339000Y38200D02*
X339073Y38202D01*
X339146Y38208D01*
X339219Y38217D01*
X339291Y38231D01*
X339362Y38248D01*
X339433Y38269D01*
X339502Y38293D01*
X339569Y38321D01*
X339636Y38353D01*
X339700Y38388D01*
X339762Y38426D01*
X339823Y38467D01*
X339881Y38512D01*
X339937Y38560D01*
X339990Y38610D01*
X340040Y38663D01*
X340088Y38719D01*
X340133Y38777D01*
X340174Y38838D01*
X340212Y38900D01*
X340247Y38964D01*
X340279Y39031D01*
X340307Y39098D01*
X340331Y39167D01*
X340352Y39238D01*
X340369Y39309D01*
X340383Y39381D01*
X340392Y39454D01*
X340398Y39527D01*
X340400Y39600D01*
X341400Y47000D02*
X341400Y51800D01*
X395800Y51800D02*
X395800Y52800D01*
X395800Y51800D02*
X396000Y50800D01*
X396800Y49600D01*
X400000Y47200D01*
X402800Y56200D02*
X402000Y56600D01*
X402800Y56200D02*
X403800Y55600D01*
X404200Y55000D01*
X404200Y54600D01*
X401000Y37600D02*
X398600Y37600D01*
X401000Y37600D02*
X401118Y37602D01*
X401235Y37608D01*
X401353Y37617D01*
X401470Y37631D01*
X401586Y37648D01*
X401702Y37669D01*
X401817Y37694D01*
X401932Y37723D01*
X402045Y37755D01*
X402157Y37791D01*
X402268Y37831D01*
X402378Y37874D01*
X402486Y37921D01*
X402592Y37971D01*
X402697Y38025D01*
X402800Y38082D01*
X402901Y38143D01*
X403000Y38207D01*
X403097Y38274D01*
X403192Y38344D01*
X403284Y38417D01*
X403374Y38493D01*
X403461Y38572D01*
X403546Y38654D01*
X403628Y38739D01*
X403707Y38826D01*
X403783Y38916D01*
X403856Y39008D01*
X403926Y39103D01*
X403993Y39200D01*
X404057Y39299D01*
X404118Y39400D01*
X404175Y39503D01*
X404229Y39608D01*
X404279Y39714D01*
X404326Y39822D01*
X404369Y39932D01*
X404409Y40043D01*
X404445Y40155D01*
X404477Y40268D01*
X404506Y40383D01*
X404531Y40498D01*
X404552Y40614D01*
X404569Y40730D01*
X404583Y40847D01*
X404592Y40965D01*
X404598Y41082D01*
X404600Y41200D01*
X404600Y41400D02*
X404600Y42400D01*
X404400Y43400D01*
X402600Y45200D01*
X399400Y47600D01*
X397600Y38000D02*
X398400Y37600D01*
X397600Y38000D02*
X396600Y38600D01*
X396200Y39200D01*
X396200Y39600D01*
X364600Y38400D02*
X364600Y66800D01*
X268500Y41800D02*
X268498Y41682D01*
X268492Y41565D01*
X268483Y41447D01*
X268469Y41330D01*
X268452Y41214D01*
X268431Y41098D01*
X268406Y40983D01*
X268377Y40868D01*
X268345Y40755D01*
X268309Y40643D01*
X268269Y40532D01*
X268226Y40422D01*
X268179Y40314D01*
X268129Y40208D01*
X268075Y40103D01*
X268018Y40000D01*
X267957Y39899D01*
X267893Y39800D01*
X267826Y39703D01*
X267756Y39608D01*
X267683Y39516D01*
X267607Y39426D01*
X267528Y39339D01*
X267446Y39254D01*
X267361Y39172D01*
X267274Y39093D01*
X267184Y39017D01*
X267092Y38944D01*
X266997Y38874D01*
X266900Y38807D01*
X266801Y38743D01*
X266700Y38682D01*
X266597Y38625D01*
X266492Y38571D01*
X266386Y38521D01*
X266278Y38474D01*
X266168Y38431D01*
X266057Y38391D01*
X265945Y38355D01*
X265832Y38323D01*
X265717Y38294D01*
X265602Y38269D01*
X265486Y38248D01*
X265370Y38231D01*
X265253Y38217D01*
X265135Y38208D01*
X265018Y38202D01*
X264900Y38200D01*
X268500Y41800D02*
X268500Y52200D01*
X268498Y52318D01*
X268492Y52435D01*
X268483Y52553D01*
X268469Y52670D01*
X268452Y52786D01*
X268431Y52902D01*
X268406Y53017D01*
X268377Y53132D01*
X268345Y53245D01*
X268309Y53357D01*
X268269Y53468D01*
X268226Y53578D01*
X268179Y53686D01*
X268129Y53792D01*
X268075Y53897D01*
X268018Y54000D01*
X267957Y54101D01*
X267893Y54200D01*
X267826Y54297D01*
X267756Y54392D01*
X267683Y54484D01*
X267607Y54574D01*
X267528Y54661D01*
X267446Y54746D01*
X267361Y54828D01*
X267274Y54907D01*
X267184Y54983D01*
X267092Y55056D01*
X266997Y55126D01*
X266900Y55193D01*
X266801Y55257D01*
X266700Y55318D01*
X266597Y55375D01*
X266492Y55429D01*
X266386Y55479D01*
X266278Y55526D01*
X266168Y55569D01*
X266057Y55609D01*
X265945Y55645D01*
X265832Y55677D01*
X265717Y55706D01*
X265602Y55731D01*
X265486Y55752D01*
X265370Y55769D01*
X265253Y55783D01*
X265135Y55792D01*
X265018Y55798D01*
X264900Y55800D01*
X265000Y55800D02*
X262900Y55800D01*
X263200Y38200D02*
X264400Y38200D01*
D12*
X59210Y306600D03*
X59210Y56700D03*
X1269210Y56700D03*
X1269210Y306600D03*
M02*
