G04 EAGLE Gerber RS-274X export*
G75*
%MOMM*%
%FSLAX34Y34*%
%LPD*%
%INSoldermask Top*%
%IPPOS*%
%AMOC8*
5,1,8,0,0,1.08239X$1,22.5*%
G01*
%ADD10C,11.801600*%
%ADD11C,10.601600*%
%ADD12C,8.601600*%
%ADD13C,0.550000*%
%ADD14C,0.360000*%
%ADD15C,4.417600*%


D10*
X182400Y222800D03*
X351310Y222800D03*
D11*
X718340Y264000D03*
X908840Y264000D03*
D12*
X1174940Y119000D03*
D13*
X343000Y69000D02*
X281000Y95000D01*
X349000Y89000D01*
X343000Y69000D01*
X331000Y133000D01*
X349000Y89000D01*
X307000Y119000D01*
X281000Y95000D01*
X307000Y119000D02*
X343000Y69000D01*
D14*
X262600Y55800D02*
X262482Y55798D01*
X262365Y55792D01*
X262247Y55783D01*
X262130Y55769D01*
X262014Y55752D01*
X261898Y55731D01*
X261783Y55706D01*
X261668Y55677D01*
X261555Y55645D01*
X261443Y55609D01*
X261332Y55569D01*
X261222Y55526D01*
X261114Y55479D01*
X261008Y55429D01*
X260903Y55375D01*
X260800Y55318D01*
X260699Y55257D01*
X260600Y55193D01*
X260503Y55126D01*
X260408Y55056D01*
X260316Y54983D01*
X260226Y54907D01*
X260139Y54828D01*
X260054Y54746D01*
X259972Y54661D01*
X259893Y54574D01*
X259817Y54484D01*
X259744Y54392D01*
X259674Y54297D01*
X259607Y54200D01*
X259543Y54101D01*
X259482Y54000D01*
X259425Y53897D01*
X259371Y53792D01*
X259321Y53686D01*
X259274Y53578D01*
X259231Y53468D01*
X259191Y53357D01*
X259155Y53245D01*
X259123Y53132D01*
X259094Y53017D01*
X259069Y52902D01*
X259048Y52786D01*
X259031Y52670D01*
X259017Y52553D01*
X259008Y52435D01*
X259002Y52318D01*
X259000Y52200D01*
X259000Y41800D01*
X259002Y41682D01*
X259008Y41565D01*
X259017Y41447D01*
X259031Y41330D01*
X259048Y41214D01*
X259069Y41098D01*
X259094Y40983D01*
X259123Y40868D01*
X259155Y40755D01*
X259191Y40643D01*
X259231Y40532D01*
X259274Y40422D01*
X259321Y40314D01*
X259371Y40208D01*
X259425Y40103D01*
X259482Y40000D01*
X259543Y39899D01*
X259607Y39800D01*
X259674Y39703D01*
X259744Y39608D01*
X259817Y39516D01*
X259893Y39426D01*
X259972Y39339D01*
X260054Y39254D01*
X260139Y39172D01*
X260226Y39093D01*
X260316Y39017D01*
X260408Y38944D01*
X260503Y38874D01*
X260600Y38807D01*
X260699Y38743D01*
X260800Y38682D01*
X260903Y38625D01*
X261008Y38571D01*
X261114Y38521D01*
X261222Y38474D01*
X261332Y38431D01*
X261443Y38391D01*
X261555Y38355D01*
X261668Y38323D01*
X261783Y38294D01*
X261898Y38269D01*
X262014Y38248D01*
X262130Y38231D01*
X262247Y38217D01*
X262365Y38208D01*
X262482Y38202D01*
X262600Y38200D01*
X297400Y55800D02*
X297518Y55798D01*
X297635Y55792D01*
X297753Y55783D01*
X297870Y55769D01*
X297986Y55752D01*
X298102Y55731D01*
X298217Y55706D01*
X298332Y55677D01*
X298445Y55645D01*
X298557Y55609D01*
X298668Y55569D01*
X298778Y55526D01*
X298886Y55479D01*
X298992Y55429D01*
X299097Y55375D01*
X299200Y55318D01*
X299301Y55257D01*
X299400Y55193D01*
X299497Y55126D01*
X299592Y55056D01*
X299684Y54983D01*
X299774Y54907D01*
X299861Y54828D01*
X299946Y54746D01*
X300028Y54661D01*
X300107Y54574D01*
X300183Y54484D01*
X300256Y54392D01*
X300326Y54297D01*
X300393Y54200D01*
X300457Y54101D01*
X300518Y54000D01*
X300575Y53897D01*
X300629Y53792D01*
X300679Y53686D01*
X300726Y53578D01*
X300769Y53468D01*
X300809Y53357D01*
X300845Y53245D01*
X300877Y53132D01*
X300906Y53017D01*
X300931Y52902D01*
X300952Y52786D01*
X300969Y52670D01*
X300983Y52553D01*
X300992Y52435D01*
X300998Y52318D01*
X301000Y52200D01*
X297400Y55800D02*
X295000Y55800D01*
X294882Y55798D01*
X294765Y55792D01*
X294647Y55783D01*
X294530Y55769D01*
X294414Y55752D01*
X294298Y55731D01*
X294183Y55706D01*
X294068Y55677D01*
X293955Y55645D01*
X293843Y55609D01*
X293732Y55569D01*
X293622Y55526D01*
X293514Y55479D01*
X293408Y55429D01*
X293303Y55375D01*
X293200Y55318D01*
X293099Y55257D01*
X293000Y55193D01*
X292903Y55126D01*
X292808Y55056D01*
X292716Y54983D01*
X292626Y54907D01*
X292539Y54828D01*
X292454Y54746D01*
X292372Y54661D01*
X292293Y54574D01*
X292217Y54484D01*
X292144Y54392D01*
X292074Y54297D01*
X292007Y54200D01*
X291943Y54101D01*
X291882Y54000D01*
X291825Y53897D01*
X291771Y53792D01*
X291721Y53686D01*
X291674Y53578D01*
X291631Y53468D01*
X291591Y53357D01*
X291555Y53245D01*
X291523Y53132D01*
X291494Y53017D01*
X291469Y52902D01*
X291448Y52786D01*
X291431Y52670D01*
X291417Y52553D01*
X291408Y52435D01*
X291402Y52318D01*
X291400Y52200D01*
X291400Y41800D01*
X291402Y41682D01*
X291408Y41565D01*
X291417Y41447D01*
X291431Y41330D01*
X291448Y41214D01*
X291469Y41098D01*
X291494Y40983D01*
X291523Y40868D01*
X291555Y40755D01*
X291591Y40643D01*
X291631Y40532D01*
X291674Y40422D01*
X291721Y40314D01*
X291771Y40208D01*
X291825Y40103D01*
X291882Y40000D01*
X291943Y39899D01*
X292007Y39800D01*
X292074Y39703D01*
X292144Y39608D01*
X292217Y39516D01*
X292293Y39426D01*
X292372Y39339D01*
X292454Y39254D01*
X292539Y39172D01*
X292626Y39093D01*
X292716Y39017D01*
X292808Y38944D01*
X292903Y38874D01*
X293000Y38807D01*
X293099Y38743D01*
X293200Y38682D01*
X293303Y38625D01*
X293408Y38571D01*
X293514Y38521D01*
X293622Y38474D01*
X293732Y38431D01*
X293843Y38391D01*
X293955Y38355D01*
X294068Y38323D01*
X294183Y38294D01*
X294298Y38269D01*
X294414Y38248D01*
X294530Y38231D01*
X294647Y38217D01*
X294765Y38208D01*
X294882Y38202D01*
X295000Y38200D01*
X317400Y38200D02*
X317400Y52200D01*
X317398Y52318D01*
X317392Y52435D01*
X317383Y52553D01*
X317369Y52670D01*
X317352Y52786D01*
X317331Y52902D01*
X317306Y53017D01*
X317277Y53132D01*
X317245Y53245D01*
X317209Y53357D01*
X317169Y53468D01*
X317126Y53578D01*
X317079Y53686D01*
X317029Y53792D01*
X316975Y53897D01*
X316918Y54000D01*
X316857Y54101D01*
X316793Y54200D01*
X316726Y54297D01*
X316656Y54392D01*
X316583Y54484D01*
X316507Y54574D01*
X316428Y54661D01*
X316346Y54746D01*
X316261Y54828D01*
X316174Y54907D01*
X316084Y54983D01*
X315992Y55056D01*
X315897Y55126D01*
X315800Y55193D01*
X315701Y55257D01*
X315600Y55318D01*
X315497Y55375D01*
X315392Y55429D01*
X315286Y55479D01*
X315178Y55526D01*
X315068Y55569D01*
X314957Y55609D01*
X314845Y55645D01*
X314732Y55677D01*
X314617Y55706D01*
X314502Y55731D01*
X314386Y55752D01*
X314270Y55769D01*
X314153Y55783D01*
X314035Y55792D01*
X313918Y55798D01*
X313800Y55800D01*
X307800Y55800D01*
X307800Y38200D01*
X347800Y38200D02*
X347800Y55800D01*
X347800Y38200D02*
X353800Y38200D01*
X353918Y38202D01*
X354035Y38208D01*
X354153Y38217D01*
X354270Y38231D01*
X354386Y38248D01*
X354502Y38269D01*
X354617Y38294D01*
X354732Y38323D01*
X354845Y38355D01*
X354957Y38391D01*
X355068Y38431D01*
X355178Y38474D01*
X355286Y38521D01*
X355392Y38571D01*
X355497Y38625D01*
X355600Y38682D01*
X355701Y38743D01*
X355800Y38807D01*
X355897Y38874D01*
X355992Y38944D01*
X356084Y39017D01*
X356174Y39093D01*
X356261Y39172D01*
X356346Y39254D01*
X356428Y39339D01*
X356507Y39426D01*
X356583Y39516D01*
X356656Y39608D01*
X356726Y39703D01*
X356793Y39800D01*
X356857Y39899D01*
X356918Y40000D01*
X356975Y40103D01*
X357029Y40208D01*
X357079Y40314D01*
X357126Y40422D01*
X357169Y40532D01*
X357209Y40643D01*
X357245Y40755D01*
X357277Y40868D01*
X357306Y40983D01*
X357331Y41098D01*
X357352Y41214D01*
X357369Y41330D01*
X357383Y41447D01*
X357392Y41565D01*
X357398Y41682D01*
X357400Y41800D01*
X357400Y52200D01*
X357398Y52318D01*
X357392Y52435D01*
X357383Y52553D01*
X357369Y52670D01*
X357352Y52786D01*
X357331Y52902D01*
X357306Y53017D01*
X357277Y53132D01*
X357245Y53245D01*
X357209Y53357D01*
X357169Y53468D01*
X357126Y53578D01*
X357079Y53686D01*
X357029Y53792D01*
X356975Y53897D01*
X356918Y54000D01*
X356857Y54101D01*
X356793Y54200D01*
X356726Y54297D01*
X356656Y54392D01*
X356583Y54484D01*
X356507Y54574D01*
X356428Y54661D01*
X356346Y54746D01*
X356261Y54828D01*
X356174Y54907D01*
X356084Y54983D01*
X355992Y55056D01*
X355897Y55126D01*
X355800Y55193D01*
X355701Y55257D01*
X355600Y55318D01*
X355497Y55375D01*
X355392Y55429D01*
X355286Y55479D01*
X355178Y55526D01*
X355068Y55569D01*
X354957Y55609D01*
X354845Y55645D01*
X354732Y55677D01*
X354617Y55706D01*
X354502Y55731D01*
X354386Y55752D01*
X354270Y55769D01*
X354153Y55783D01*
X354035Y55792D01*
X353918Y55798D01*
X353800Y55800D01*
X347800Y55800D01*
X275200Y55800D02*
X275200Y38200D01*
X281200Y38200D01*
X281318Y38202D01*
X281435Y38208D01*
X281553Y38217D01*
X281670Y38231D01*
X281786Y38248D01*
X281902Y38269D01*
X282017Y38294D01*
X282132Y38323D01*
X282245Y38355D01*
X282357Y38391D01*
X282468Y38431D01*
X282578Y38474D01*
X282686Y38521D01*
X282792Y38571D01*
X282897Y38625D01*
X283000Y38682D01*
X283101Y38743D01*
X283200Y38807D01*
X283297Y38874D01*
X283392Y38944D01*
X283484Y39017D01*
X283574Y39093D01*
X283661Y39172D01*
X283746Y39254D01*
X283828Y39339D01*
X283907Y39426D01*
X283983Y39516D01*
X284056Y39608D01*
X284126Y39703D01*
X284193Y39800D01*
X284257Y39899D01*
X284318Y40000D01*
X284375Y40103D01*
X284429Y40208D01*
X284479Y40314D01*
X284526Y40422D01*
X284569Y40532D01*
X284609Y40643D01*
X284645Y40755D01*
X284677Y40868D01*
X284706Y40983D01*
X284731Y41098D01*
X284752Y41214D01*
X284769Y41330D01*
X284783Y41447D01*
X284792Y41565D01*
X284798Y41682D01*
X284800Y41800D01*
X284800Y52200D01*
X284798Y52318D01*
X284792Y52435D01*
X284783Y52553D01*
X284769Y52670D01*
X284752Y52786D01*
X284731Y52902D01*
X284706Y53017D01*
X284677Y53132D01*
X284645Y53245D01*
X284609Y53357D01*
X284569Y53468D01*
X284526Y53578D01*
X284479Y53686D01*
X284429Y53792D01*
X284375Y53897D01*
X284318Y54000D01*
X284257Y54101D01*
X284193Y54200D01*
X284126Y54297D01*
X284056Y54392D01*
X283983Y54484D01*
X283907Y54574D01*
X283828Y54661D01*
X283746Y54746D01*
X283661Y54828D01*
X283574Y54907D01*
X283484Y54983D01*
X283392Y55056D01*
X283297Y55126D01*
X283200Y55193D01*
X283101Y55257D01*
X283000Y55318D01*
X282897Y55375D01*
X282792Y55429D01*
X282686Y55479D01*
X282578Y55526D01*
X282468Y55569D01*
X282357Y55609D01*
X282245Y55645D01*
X282132Y55677D01*
X282017Y55706D01*
X281902Y55731D01*
X281786Y55752D01*
X281670Y55769D01*
X281553Y55783D01*
X281435Y55792D01*
X281318Y55798D01*
X281200Y55800D01*
X275200Y55800D01*
X275200Y38000D02*
X275200Y27600D01*
X337800Y55800D02*
X337918Y55798D01*
X338035Y55792D01*
X338153Y55783D01*
X338270Y55769D01*
X338386Y55752D01*
X338502Y55731D01*
X338617Y55706D01*
X338732Y55677D01*
X338845Y55645D01*
X338957Y55609D01*
X339068Y55569D01*
X339178Y55526D01*
X339286Y55479D01*
X339392Y55429D01*
X339497Y55375D01*
X339600Y55318D01*
X339701Y55257D01*
X339800Y55193D01*
X339897Y55126D01*
X339992Y55056D01*
X340084Y54983D01*
X340174Y54907D01*
X340261Y54828D01*
X340346Y54746D01*
X340428Y54661D01*
X340507Y54574D01*
X340583Y54484D01*
X340656Y54392D01*
X340726Y54297D01*
X340793Y54200D01*
X340857Y54101D01*
X340918Y54000D01*
X340975Y53897D01*
X341029Y53792D01*
X341079Y53686D01*
X341126Y53578D01*
X341169Y53468D01*
X341209Y53357D01*
X341245Y53245D01*
X341277Y53132D01*
X341306Y53017D01*
X341331Y52902D01*
X341352Y52786D01*
X341369Y52670D01*
X341383Y52553D01*
X341392Y52435D01*
X341398Y52318D01*
X341400Y52200D01*
X337800Y55800D02*
X335400Y55800D01*
X335282Y55798D01*
X335165Y55792D01*
X335047Y55783D01*
X334930Y55769D01*
X334814Y55752D01*
X334698Y55731D01*
X334583Y55706D01*
X334468Y55677D01*
X334355Y55645D01*
X334243Y55609D01*
X334132Y55569D01*
X334022Y55526D01*
X333914Y55479D01*
X333808Y55429D01*
X333703Y55375D01*
X333600Y55318D01*
X333499Y55257D01*
X333400Y55193D01*
X333303Y55126D01*
X333208Y55056D01*
X333116Y54983D01*
X333026Y54907D01*
X332939Y54828D01*
X332854Y54746D01*
X332772Y54661D01*
X332693Y54574D01*
X332617Y54484D01*
X332544Y54392D01*
X332474Y54297D01*
X332407Y54200D01*
X332343Y54101D01*
X332282Y54000D01*
X332225Y53897D01*
X332171Y53792D01*
X332121Y53686D01*
X332074Y53578D01*
X332031Y53468D01*
X331991Y53357D01*
X331955Y53245D01*
X331923Y53132D01*
X331894Y53017D01*
X331869Y52902D01*
X331848Y52786D01*
X331831Y52670D01*
X331817Y52553D01*
X331808Y52435D01*
X331802Y52318D01*
X331800Y52200D01*
X331800Y41800D01*
X331802Y41682D01*
X331808Y41565D01*
X331817Y41447D01*
X331831Y41330D01*
X331848Y41214D01*
X331869Y41098D01*
X331894Y40983D01*
X331923Y40868D01*
X331955Y40755D01*
X331991Y40643D01*
X332031Y40532D01*
X332074Y40422D01*
X332121Y40314D01*
X332171Y40208D01*
X332225Y40103D01*
X332282Y40000D01*
X332343Y39899D01*
X332407Y39800D01*
X332474Y39703D01*
X332544Y39608D01*
X332617Y39516D01*
X332693Y39426D01*
X332772Y39339D01*
X332854Y39254D01*
X332939Y39172D01*
X333026Y39093D01*
X333116Y39017D01*
X333208Y38944D01*
X333303Y38874D01*
X333400Y38807D01*
X333499Y38743D01*
X333600Y38682D01*
X333703Y38625D01*
X333808Y38571D01*
X333914Y38521D01*
X334022Y38474D01*
X334132Y38431D01*
X334243Y38391D01*
X334355Y38355D01*
X334468Y38323D01*
X334583Y38294D01*
X334698Y38269D01*
X334814Y38248D01*
X334930Y38231D01*
X335047Y38217D01*
X335165Y38208D01*
X335282Y38202D01*
X335400Y38200D01*
X333000Y47000D02*
X341400Y47000D01*
X339000Y38200D02*
X335400Y38200D01*
X339000Y38200D02*
X339073Y38202D01*
X339146Y38208D01*
X339219Y38217D01*
X339291Y38231D01*
X339362Y38248D01*
X339433Y38269D01*
X339502Y38293D01*
X339569Y38321D01*
X339636Y38353D01*
X339700Y38388D01*
X339762Y38426D01*
X339823Y38467D01*
X339881Y38512D01*
X339937Y38560D01*
X339990Y38610D01*
X340040Y38663D01*
X340088Y38719D01*
X340133Y38777D01*
X340174Y38838D01*
X340212Y38900D01*
X340247Y38964D01*
X340279Y39031D01*
X340307Y39098D01*
X340331Y39167D01*
X340352Y39238D01*
X340369Y39309D01*
X340383Y39381D01*
X340392Y39454D01*
X340398Y39527D01*
X340400Y39600D01*
X341400Y47000D02*
X341400Y51800D01*
X395800Y51800D02*
X395800Y52800D01*
X395800Y51800D02*
X396000Y50800D01*
X396800Y49600D01*
X400000Y47200D01*
X402800Y56200D02*
X402000Y56600D01*
X402800Y56200D02*
X403800Y55600D01*
X404200Y55000D01*
X404200Y54600D01*
X401000Y37600D02*
X398600Y37600D01*
X401000Y37600D02*
X401118Y37602D01*
X401235Y37608D01*
X401353Y37617D01*
X401470Y37631D01*
X401586Y37648D01*
X401702Y37669D01*
X401817Y37694D01*
X401932Y37723D01*
X402045Y37755D01*
X402157Y37791D01*
X402268Y37831D01*
X402378Y37874D01*
X402486Y37921D01*
X402592Y37971D01*
X402697Y38025D01*
X402800Y38082D01*
X402901Y38143D01*
X403000Y38207D01*
X403097Y38274D01*
X403192Y38344D01*
X403284Y38417D01*
X403374Y38493D01*
X403461Y38572D01*
X403546Y38654D01*
X403628Y38739D01*
X403707Y38826D01*
X403783Y38916D01*
X403856Y39008D01*
X403926Y39103D01*
X403993Y39200D01*
X404057Y39299D01*
X404118Y39400D01*
X404175Y39503D01*
X404229Y39608D01*
X404279Y39714D01*
X404326Y39822D01*
X404369Y39932D01*
X404409Y40043D01*
X404445Y40155D01*
X404477Y40268D01*
X404506Y40383D01*
X404531Y40498D01*
X404552Y40614D01*
X404569Y40730D01*
X404583Y40847D01*
X404592Y40965D01*
X404598Y41082D01*
X404600Y41200D01*
X404600Y41400D02*
X404600Y42400D01*
X404400Y43400D01*
X402600Y45200D01*
X399400Y47600D01*
X397600Y38000D02*
X398400Y37600D01*
X397600Y38000D02*
X396600Y38600D01*
X396200Y39200D01*
X396200Y39600D01*
X364600Y38400D02*
X364600Y66800D01*
X374200Y52200D02*
X374400Y38200D01*
X374200Y52200D02*
X374198Y52318D01*
X374192Y52435D01*
X374183Y52553D01*
X374169Y52670D01*
X374152Y52786D01*
X374131Y52902D01*
X374106Y53017D01*
X374077Y53132D01*
X374045Y53245D01*
X374009Y53357D01*
X373969Y53468D01*
X373926Y53578D01*
X373879Y53686D01*
X373829Y53792D01*
X373775Y53897D01*
X373718Y54000D01*
X373657Y54101D01*
X373593Y54200D01*
X373526Y54297D01*
X373456Y54392D01*
X373383Y54484D01*
X373307Y54574D01*
X373228Y54661D01*
X373146Y54746D01*
X373061Y54828D01*
X372974Y54907D01*
X372884Y54983D01*
X372792Y55056D01*
X372697Y55126D01*
X372600Y55193D01*
X372501Y55257D01*
X372400Y55318D01*
X372297Y55375D01*
X372192Y55429D01*
X372086Y55479D01*
X371978Y55526D01*
X371868Y55569D01*
X371757Y55609D01*
X371645Y55645D01*
X371532Y55677D01*
X371417Y55706D01*
X371302Y55731D01*
X371186Y55752D01*
X371070Y55769D01*
X370953Y55783D01*
X370835Y55792D01*
X370718Y55798D01*
X370600Y55800D01*
X366000Y55800D01*
X399400Y56600D02*
X401800Y56600D01*
X399400Y56600D02*
X399282Y56598D01*
X399165Y56592D01*
X399047Y56583D01*
X398930Y56569D01*
X398814Y56552D01*
X398698Y56531D01*
X398583Y56506D01*
X398468Y56477D01*
X398355Y56445D01*
X398243Y56409D01*
X398132Y56369D01*
X398022Y56326D01*
X397914Y56279D01*
X397808Y56229D01*
X397703Y56175D01*
X397600Y56118D01*
X397499Y56057D01*
X397400Y55993D01*
X397303Y55926D01*
X397208Y55856D01*
X397116Y55783D01*
X397026Y55707D01*
X396939Y55628D01*
X396854Y55546D01*
X396772Y55461D01*
X396693Y55374D01*
X396617Y55284D01*
X396544Y55192D01*
X396474Y55097D01*
X396407Y55000D01*
X396343Y54901D01*
X396282Y54800D01*
X396225Y54697D01*
X396171Y54592D01*
X396121Y54486D01*
X396074Y54378D01*
X396031Y54268D01*
X395991Y54157D01*
X395955Y54045D01*
X395923Y53932D01*
X395894Y53817D01*
X395869Y53702D01*
X395848Y53586D01*
X395831Y53470D01*
X395817Y53353D01*
X395808Y53235D01*
X395802Y53118D01*
X395800Y53000D01*
X301000Y47000D02*
X292600Y47000D01*
X295000Y38200D02*
X298600Y38200D01*
X298673Y38202D01*
X298746Y38208D01*
X298819Y38217D01*
X298891Y38231D01*
X298962Y38248D01*
X299033Y38269D01*
X299102Y38293D01*
X299169Y38321D01*
X299236Y38353D01*
X299300Y38388D01*
X299362Y38426D01*
X299423Y38467D01*
X299481Y38512D01*
X299537Y38560D01*
X299590Y38610D01*
X299640Y38663D01*
X299688Y38719D01*
X299733Y38777D01*
X299774Y38838D01*
X299812Y38900D01*
X299847Y38964D01*
X299879Y39031D01*
X299907Y39098D01*
X299931Y39167D01*
X299952Y39238D01*
X299969Y39309D01*
X299983Y39381D01*
X299992Y39454D01*
X299998Y39527D01*
X300000Y39600D01*
X301000Y47000D02*
X301000Y51800D01*
X347800Y38000D02*
X347800Y27600D01*
X385400Y38400D02*
X378800Y57600D01*
X391600Y57600D02*
X383200Y30600D01*
X383000Y30200D02*
X381600Y28200D01*
X379800Y27800D01*
X378800Y27800D01*
X268500Y41800D02*
X268498Y41682D01*
X268492Y41565D01*
X268483Y41447D01*
X268469Y41330D01*
X268452Y41214D01*
X268431Y41098D01*
X268406Y40983D01*
X268377Y40868D01*
X268345Y40755D01*
X268309Y40643D01*
X268269Y40532D01*
X268226Y40422D01*
X268179Y40314D01*
X268129Y40208D01*
X268075Y40103D01*
X268018Y40000D01*
X267957Y39899D01*
X267893Y39800D01*
X267826Y39703D01*
X267756Y39608D01*
X267683Y39516D01*
X267607Y39426D01*
X267528Y39339D01*
X267446Y39254D01*
X267361Y39172D01*
X267274Y39093D01*
X267184Y39017D01*
X267092Y38944D01*
X266997Y38874D01*
X266900Y38807D01*
X266801Y38743D01*
X266700Y38682D01*
X266597Y38625D01*
X266492Y38571D01*
X266386Y38521D01*
X266278Y38474D01*
X266168Y38431D01*
X266057Y38391D01*
X265945Y38355D01*
X265832Y38323D01*
X265717Y38294D01*
X265602Y38269D01*
X265486Y38248D01*
X265370Y38231D01*
X265253Y38217D01*
X265135Y38208D01*
X265018Y38202D01*
X264900Y38200D01*
X268500Y41800D02*
X268500Y52200D01*
X268498Y52318D01*
X268492Y52435D01*
X268483Y52553D01*
X268469Y52670D01*
X268452Y52786D01*
X268431Y52902D01*
X268406Y53017D01*
X268377Y53132D01*
X268345Y53245D01*
X268309Y53357D01*
X268269Y53468D01*
X268226Y53578D01*
X268179Y53686D01*
X268129Y53792D01*
X268075Y53897D01*
X268018Y54000D01*
X267957Y54101D01*
X267893Y54200D01*
X267826Y54297D01*
X267756Y54392D01*
X267683Y54484D01*
X267607Y54574D01*
X267528Y54661D01*
X267446Y54746D01*
X267361Y54828D01*
X267274Y54907D01*
X267184Y54983D01*
X267092Y55056D01*
X266997Y55126D01*
X266900Y55193D01*
X266801Y55257D01*
X266700Y55318D01*
X266597Y55375D01*
X266492Y55429D01*
X266386Y55479D01*
X266278Y55526D01*
X266168Y55569D01*
X266057Y55609D01*
X265945Y55645D01*
X265832Y55677D01*
X265717Y55706D01*
X265602Y55731D01*
X265486Y55752D01*
X265370Y55769D01*
X265253Y55783D01*
X265135Y55792D01*
X265018Y55798D01*
X264900Y55800D01*
X262900Y55800D01*
X262700Y38200D02*
X264600Y38200D01*
D15*
X59210Y306600D03*
X59210Y56700D03*
X1269210Y56700D03*
X1269210Y306600D03*
M02*
