G75*
%MOIN*%
%OFA0B0*%
%FSLAX24Y24*%
%IPPOS*%
%LPD*%
%AMOC8*
5,1,8,0,0,1.08239X$1,22.5*
%
%ADD10C,0.0591*%
%ADD11C,0.1210*%
%ADD12C,0.0600*%
%ADD13C,0.1065*%
%ADD14C,0.0472*%
%ADD15C,0.1230*%
%ADD16C,0.0886*%
%ADD17C,0.0100*%
%ADD18C,0.0376*%
%ADD19C,0.0270*%
%ADD20C,0.0120*%
%ADD21C,0.0531*%
%ADD22C,0.0945*%
%ADD23C,0.0160*%
%ADD24C,0.0827*%
D10*
X007541Y008400D03*
X007541Y009400D03*
X007541Y010400D03*
X007541Y011400D03*
X007541Y012400D03*
X007541Y013400D03*
X007541Y014400D03*
X007541Y015400D03*
X007541Y016400D03*
X007541Y017400D03*
X007541Y019000D03*
X007541Y020000D03*
X007541Y021000D03*
X007541Y022000D03*
X007541Y023000D03*
X007541Y024000D03*
X007541Y025000D03*
X007541Y026000D03*
X015541Y026050D03*
X016541Y026050D03*
X017541Y026050D03*
X017541Y027050D03*
X016541Y027050D03*
X015541Y027050D03*
X026541Y026000D03*
X026541Y025000D03*
X026541Y024000D03*
X026541Y023000D03*
X026541Y022000D03*
X026541Y021000D03*
X026541Y019000D03*
X026541Y018000D03*
X026541Y017000D03*
X026541Y016000D03*
X026541Y015000D03*
X026541Y014000D03*
X026541Y013000D03*
X026541Y012000D03*
X046043Y008650D03*
D11*
X033006Y002960D03*
X028981Y002960D03*
X030381Y029640D03*
X034406Y029640D03*
X036581Y029640D03*
X040606Y029640D03*
X042781Y029640D03*
X046806Y029640D03*
X048981Y029640D03*
X053006Y029640D03*
D12*
X035243Y008050D03*
X034243Y008050D03*
X033243Y008050D03*
X032243Y008050D03*
X031243Y008050D03*
X030243Y008050D03*
X030243Y007050D03*
X031243Y007050D03*
X032243Y007050D03*
X033243Y007050D03*
X034243Y007050D03*
X035243Y007050D03*
X035793Y005850D03*
X035793Y004850D03*
X036793Y004850D03*
X037793Y004850D03*
X037793Y005850D03*
X036793Y005850D03*
X038793Y005850D03*
X038793Y004850D03*
X039793Y004850D03*
X039793Y005850D03*
D13*
X023893Y006070D03*
X022243Y006070D03*
X020593Y006070D03*
D14*
X020443Y030050D03*
X021923Y030050D03*
X018963Y030050D03*
D15*
X017928Y031230D03*
X022958Y031230D03*
D16*
X044293Y008420D03*
X051793Y008420D03*
X051793Y002200D03*
X044293Y002200D03*
D17*
X005693Y001083D02*
X005693Y019200D01*
X006513Y019200D01*
X006513Y007844D01*
X006556Y007741D01*
X006635Y007663D01*
X006738Y007620D01*
X006849Y007620D01*
X008349Y007620D01*
X008452Y007663D01*
X008531Y007741D01*
X008573Y007844D01*
X008573Y019200D01*
X017643Y019200D01*
X017643Y020300D01*
X019593Y020300D01*
X019593Y027750D01*
X007404Y027750D01*
X007475Y027779D01*
X007714Y028019D01*
X007843Y028331D01*
X007843Y028669D01*
X007714Y028981D01*
X007475Y029221D01*
X007162Y029350D01*
X006824Y029350D01*
X006512Y029221D01*
X006273Y028981D01*
X006143Y028669D01*
X006143Y028331D01*
X006273Y028019D01*
X006512Y027779D01*
X006583Y027750D01*
X005693Y027750D01*
X005693Y031413D01*
X006076Y031796D01*
X006793Y031796D01*
X006736Y031739D01*
X006698Y031649D01*
X006698Y031551D01*
X006736Y031461D01*
X006805Y031392D01*
X006895Y031355D01*
X006992Y031355D01*
X007082Y031392D01*
X007151Y031461D01*
X007188Y031551D01*
X007188Y031649D01*
X007151Y031739D01*
X007094Y031796D01*
X017469Y031796D01*
X017314Y031641D01*
X017203Y031374D01*
X017203Y031086D01*
X017314Y030819D01*
X017518Y030615D01*
X017784Y030505D01*
X018073Y030505D01*
X018339Y030615D01*
X018543Y030819D01*
X018653Y031086D01*
X018653Y031374D01*
X018543Y031641D01*
X018388Y031796D01*
X022499Y031796D01*
X022344Y031641D01*
X022233Y031374D01*
X022233Y031086D01*
X022344Y030819D01*
X022548Y030615D01*
X022814Y030505D01*
X023103Y030505D01*
X023369Y030615D01*
X023573Y030819D01*
X023683Y031086D01*
X023683Y031374D01*
X023573Y031641D01*
X023418Y031796D01*
X054123Y031796D01*
X054506Y031413D01*
X054506Y001083D01*
X054123Y000700D01*
X006076Y000700D01*
X005693Y001083D01*
X005693Y001091D02*
X054506Y001091D01*
X054506Y001190D02*
X048508Y001190D01*
X048412Y001150D02*
X048725Y001279D01*
X048964Y001519D01*
X049093Y001831D01*
X049093Y002169D01*
X048964Y002481D01*
X048725Y002721D01*
X048412Y002850D01*
X048074Y002850D01*
X047762Y002721D01*
X047523Y002481D01*
X047393Y002169D01*
X047393Y001831D01*
X047523Y001519D01*
X047762Y001279D01*
X048074Y001150D01*
X048412Y001150D01*
X048733Y001288D02*
X054506Y001288D01*
X054506Y001387D02*
X048832Y001387D01*
X048930Y001485D02*
X054506Y001485D01*
X054506Y001584D02*
X048991Y001584D01*
X049032Y001682D02*
X051599Y001682D01*
X051683Y001647D02*
X051903Y001647D01*
X052107Y001731D01*
X052262Y001887D01*
X052346Y002090D01*
X052346Y002310D01*
X052262Y002513D01*
X052107Y002669D01*
X051903Y002753D01*
X051683Y002753D01*
X051480Y002669D01*
X051325Y002513D01*
X051240Y002310D01*
X051240Y002090D01*
X051325Y001887D01*
X051480Y001731D01*
X051683Y001647D01*
X051431Y001781D02*
X049072Y001781D01*
X049093Y001879D02*
X051332Y001879D01*
X051287Y001978D02*
X049093Y001978D01*
X049093Y002076D02*
X051246Y002076D01*
X051240Y002175D02*
X049091Y002175D01*
X049050Y002273D02*
X051240Y002273D01*
X051266Y002372D02*
X049009Y002372D01*
X048969Y002470D02*
X051307Y002470D01*
X051380Y002569D02*
X048877Y002569D01*
X048778Y002667D02*
X051478Y002667D01*
X052108Y002667D02*
X054506Y002667D01*
X054506Y002569D02*
X052207Y002569D01*
X052280Y002470D02*
X054506Y002470D01*
X054506Y002372D02*
X052321Y002372D01*
X052346Y002273D02*
X054506Y002273D01*
X054506Y002175D02*
X052346Y002175D01*
X052340Y002076D02*
X054506Y002076D01*
X054506Y001978D02*
X052300Y001978D01*
X052254Y001879D02*
X054506Y001879D01*
X054506Y001781D02*
X052156Y001781D01*
X051988Y001682D02*
X054506Y001682D01*
X054416Y000993D02*
X005784Y000993D01*
X005882Y000894D02*
X054317Y000894D01*
X054219Y000796D02*
X005981Y000796D01*
X005693Y001190D02*
X006729Y001190D01*
X006824Y001150D02*
X007162Y001150D01*
X007475Y001279D01*
X007714Y001519D01*
X007843Y001831D01*
X007843Y002169D01*
X007714Y002481D01*
X007475Y002721D01*
X007162Y002850D01*
X006824Y002850D01*
X006512Y002721D01*
X006273Y002481D01*
X006143Y002169D01*
X006143Y001831D01*
X006273Y001519D01*
X006512Y001279D01*
X006824Y001150D01*
X006503Y001288D02*
X005693Y001288D01*
X005693Y001387D02*
X006405Y001387D01*
X006306Y001485D02*
X005693Y001485D01*
X005693Y001584D02*
X006246Y001584D01*
X006205Y001682D02*
X005693Y001682D01*
X005693Y001781D02*
X006164Y001781D01*
X006143Y001879D02*
X005693Y001879D01*
X005693Y001978D02*
X006143Y001978D01*
X006143Y002076D02*
X005693Y002076D01*
X005693Y002175D02*
X006146Y002175D01*
X006186Y002273D02*
X005693Y002273D01*
X005693Y002372D02*
X006227Y002372D01*
X006268Y002470D02*
X005693Y002470D01*
X005693Y002569D02*
X006360Y002569D01*
X006458Y002667D02*
X005693Y002667D01*
X005693Y002766D02*
X006620Y002766D01*
X007366Y002766D02*
X019918Y002766D01*
X019924Y002753D02*
X020146Y002530D01*
X020436Y002410D01*
X020750Y002410D01*
X021041Y002530D01*
X021263Y002753D01*
X021383Y003043D01*
X021383Y003357D01*
X021263Y003647D01*
X021041Y003870D01*
X020750Y003990D01*
X020436Y003990D01*
X020146Y003870D01*
X019924Y003647D01*
X019803Y003357D01*
X019803Y003043D01*
X019924Y002753D01*
X019877Y002864D02*
X018364Y002864D01*
X018406Y002881D02*
X018512Y002987D01*
X018569Y003125D01*
X018569Y003275D01*
X018512Y003413D01*
X018406Y003519D01*
X018268Y003576D01*
X018119Y003576D01*
X017980Y003519D01*
X017875Y003413D01*
X017818Y003275D01*
X017818Y003125D01*
X017875Y002987D01*
X017980Y002881D01*
X018119Y002824D01*
X018268Y002824D01*
X018406Y002881D01*
X018487Y002963D02*
X019837Y002963D01*
X019803Y003061D02*
X018542Y003061D01*
X018569Y003160D02*
X019803Y003160D01*
X019803Y003258D02*
X018569Y003258D01*
X018535Y003357D02*
X019803Y003357D01*
X019844Y003455D02*
X018470Y003455D01*
X018322Y003554D02*
X019885Y003554D01*
X019928Y003652D02*
X005693Y003652D01*
X005693Y003554D02*
X018065Y003554D01*
X017917Y003455D02*
X005693Y003455D01*
X005693Y003357D02*
X017851Y003357D01*
X017818Y003258D02*
X005693Y003258D01*
X005693Y003160D02*
X017818Y003160D01*
X017844Y003061D02*
X005693Y003061D01*
X005693Y002963D02*
X017899Y002963D01*
X018023Y002864D02*
X005693Y002864D01*
X005693Y003751D02*
X020027Y003751D01*
X020125Y003849D02*
X005693Y003849D01*
X005693Y003948D02*
X020334Y003948D01*
X020853Y003948D02*
X023634Y003948D01*
X023736Y003990D02*
X023446Y003870D01*
X023224Y003647D01*
X023103Y003357D01*
X023103Y003043D01*
X023224Y002753D01*
X023446Y002530D01*
X023736Y002410D01*
X024050Y002410D01*
X024341Y002530D01*
X024563Y002753D01*
X024683Y003043D01*
X024683Y003357D01*
X024563Y003647D01*
X024341Y003870D01*
X024050Y003990D01*
X023736Y003990D01*
X023425Y003849D02*
X021062Y003849D01*
X021160Y003751D02*
X023327Y003751D01*
X023228Y003652D02*
X021259Y003652D01*
X021302Y003554D02*
X023185Y003554D01*
X023144Y003455D02*
X021343Y003455D01*
X021383Y003357D02*
X023103Y003357D01*
X023103Y003258D02*
X021383Y003258D01*
X021383Y003160D02*
X023103Y003160D01*
X023103Y003061D02*
X021383Y003061D01*
X021350Y002963D02*
X023137Y002963D01*
X023177Y002864D02*
X021309Y002864D01*
X021268Y002766D02*
X023218Y002766D01*
X023309Y002667D02*
X021178Y002667D01*
X021079Y002569D02*
X023408Y002569D01*
X023591Y002470D02*
X020895Y002470D01*
X020291Y002470D02*
X007719Y002470D01*
X007759Y002372D02*
X028558Y002372D01*
X028576Y002354D02*
X028839Y002245D01*
X029123Y002245D01*
X029386Y002354D01*
X029587Y002555D01*
X029696Y002818D01*
X029696Y003102D01*
X029587Y003365D01*
X029386Y003566D01*
X029123Y003675D01*
X028839Y003675D01*
X028576Y003566D01*
X028375Y003365D01*
X028266Y003102D01*
X028266Y002818D01*
X028375Y002555D01*
X028576Y002354D01*
X028460Y002470D02*
X024195Y002470D01*
X024379Y002569D02*
X028369Y002569D01*
X028328Y002667D02*
X024478Y002667D01*
X024568Y002766D02*
X028287Y002766D01*
X028266Y002864D02*
X024609Y002864D01*
X024650Y002963D02*
X028266Y002963D01*
X028266Y003061D02*
X024683Y003061D01*
X024683Y003160D02*
X028290Y003160D01*
X028330Y003258D02*
X024683Y003258D01*
X024683Y003357D02*
X028371Y003357D01*
X028465Y003455D02*
X024643Y003455D01*
X024602Y003554D02*
X028563Y003554D01*
X028783Y003652D02*
X024559Y003652D01*
X024460Y003751D02*
X054506Y003751D01*
X054506Y003849D02*
X024362Y003849D01*
X024153Y003948D02*
X054506Y003948D01*
X054506Y004046D02*
X005693Y004046D01*
X005693Y004145D02*
X054506Y004145D01*
X054506Y004243D02*
X005693Y004243D01*
X005693Y004342D02*
X054506Y004342D01*
X054506Y004440D02*
X039875Y004440D01*
X040026Y004502D01*
X040141Y004618D01*
X040203Y004768D01*
X040203Y004932D01*
X040203Y004933D02*
X043720Y004933D01*
X043720Y004896D02*
X043800Y004704D01*
X043947Y004556D01*
X044139Y004477D01*
X044347Y004477D01*
X044540Y004556D01*
X044687Y004704D01*
X044767Y004896D01*
X044767Y005104D01*
X044687Y005296D01*
X044540Y005444D01*
X044347Y005523D01*
X044139Y005523D01*
X043947Y005444D01*
X043800Y005296D01*
X043720Y005104D01*
X043720Y004896D01*
X043746Y004834D02*
X040203Y004834D01*
X040203Y004932D02*
X040141Y005082D01*
X040026Y005198D01*
X039875Y005260D01*
X039712Y005260D01*
X039561Y005198D01*
X039446Y005082D01*
X039383Y004932D01*
X039383Y004768D01*
X039446Y004618D01*
X039561Y004502D01*
X039712Y004440D01*
X039875Y004440D01*
X039712Y004440D02*
X038875Y004440D01*
X039026Y004502D01*
X039141Y004618D01*
X039203Y004768D01*
X039203Y004932D01*
X039203Y004933D02*
X039384Y004933D01*
X039383Y004834D02*
X039203Y004834D01*
X039203Y004932D02*
X039141Y005082D01*
X039026Y005198D01*
X038875Y005260D01*
X038712Y005260D01*
X038561Y005198D01*
X038446Y005082D01*
X038383Y004932D01*
X038383Y004768D01*
X038446Y004618D01*
X038561Y004502D01*
X038712Y004440D01*
X038875Y004440D01*
X038712Y004440D02*
X037875Y004440D01*
X038026Y004502D01*
X038141Y004618D01*
X038203Y004768D01*
X038203Y004932D01*
X038203Y004933D02*
X038384Y004933D01*
X038383Y004834D02*
X038203Y004834D01*
X038203Y004932D02*
X038141Y005082D01*
X038026Y005198D01*
X037875Y005260D01*
X037712Y005260D01*
X037561Y005198D01*
X037446Y005082D01*
X037383Y004932D01*
X037383Y004768D01*
X037446Y004618D01*
X037561Y004502D01*
X037712Y004440D01*
X037875Y004440D01*
X037712Y004440D02*
X035875Y004440D01*
X036026Y004502D01*
X036141Y004618D01*
X036203Y004768D01*
X036203Y004932D01*
X036203Y004933D02*
X037384Y004933D01*
X037383Y004834D02*
X036203Y004834D01*
X036203Y004932D02*
X036141Y005082D01*
X036026Y005198D01*
X035875Y005260D01*
X035712Y005260D01*
X035561Y005198D01*
X035446Y005082D01*
X035383Y004932D01*
X035383Y004768D01*
X035446Y004618D01*
X035561Y004502D01*
X035712Y004440D01*
X035875Y004440D01*
X035712Y004440D02*
X005693Y004440D01*
X005693Y004539D02*
X035525Y004539D01*
X035438Y004637D02*
X005693Y004637D01*
X005693Y004736D02*
X035397Y004736D01*
X035383Y004834D02*
X005693Y004834D01*
X005693Y004933D02*
X035384Y004933D01*
X035425Y005031D02*
X005693Y005031D01*
X005693Y005130D02*
X035493Y005130D01*
X035635Y005228D02*
X005693Y005228D01*
X005693Y005327D02*
X043830Y005327D01*
X043771Y005228D02*
X039952Y005228D01*
X040094Y005130D02*
X043730Y005130D01*
X043720Y005031D02*
X040162Y005031D01*
X040190Y004736D02*
X043786Y004736D01*
X043866Y004637D02*
X040149Y004637D01*
X040062Y004539D02*
X043990Y004539D01*
X044497Y004539D02*
X054506Y004539D01*
X054506Y004637D02*
X044620Y004637D01*
X044700Y004736D02*
X054506Y004736D01*
X054506Y004834D02*
X044741Y004834D01*
X044767Y004933D02*
X054506Y004933D01*
X054506Y005031D02*
X044767Y005031D01*
X044756Y005130D02*
X054506Y005130D01*
X054506Y005228D02*
X044715Y005228D01*
X044657Y005327D02*
X054506Y005327D01*
X054506Y005425D02*
X044558Y005425D01*
X043928Y005425D02*
X005693Y005425D01*
X005693Y005524D02*
X020234Y005524D01*
X020229Y005525D02*
X020466Y005428D01*
X020721Y005428D01*
X020957Y005525D01*
X021138Y005706D01*
X021236Y005942D01*
X021236Y006198D01*
X021138Y006434D01*
X020957Y006615D01*
X020721Y006712D01*
X020466Y006712D01*
X020229Y006615D01*
X020049Y006434D01*
X019951Y006198D01*
X019951Y005942D01*
X020049Y005706D01*
X020229Y005525D01*
X020133Y005622D02*
X005693Y005622D01*
X005693Y005721D02*
X020043Y005721D01*
X020002Y005819D02*
X005693Y005819D01*
X005693Y005918D02*
X019961Y005918D01*
X019951Y006016D02*
X005693Y006016D01*
X005693Y006115D02*
X019951Y006115D01*
X019957Y006213D02*
X005693Y006213D01*
X005693Y006312D02*
X019998Y006312D01*
X020039Y006410D02*
X018354Y006410D01*
X018406Y006431D02*
X018512Y006537D01*
X018569Y006675D01*
X018569Y006825D01*
X018512Y006963D01*
X018406Y007069D01*
X018268Y007126D01*
X018119Y007126D01*
X017980Y007069D01*
X017875Y006963D01*
X017818Y006825D01*
X017818Y006675D01*
X017875Y006537D01*
X017980Y006431D01*
X018119Y006374D01*
X018268Y006374D01*
X018406Y006431D01*
X018483Y006509D02*
X020123Y006509D01*
X020222Y006607D02*
X018541Y006607D01*
X018569Y006706D02*
X020449Y006706D01*
X020738Y006706D02*
X022099Y006706D01*
X022116Y006712D02*
X021879Y006615D01*
X021699Y006434D01*
X021601Y006198D01*
X021601Y005942D01*
X021699Y005706D01*
X021879Y005525D01*
X022116Y005428D01*
X022371Y005428D01*
X022607Y005525D01*
X022788Y005706D01*
X022886Y005942D01*
X022886Y006198D01*
X022788Y006434D01*
X022607Y006615D01*
X022371Y006712D01*
X022116Y006712D01*
X021872Y006607D02*
X020965Y006607D01*
X021063Y006509D02*
X021773Y006509D01*
X021689Y006410D02*
X021148Y006410D01*
X021189Y006312D02*
X021648Y006312D01*
X021607Y006213D02*
X021230Y006213D01*
X021236Y006115D02*
X021601Y006115D01*
X021601Y006016D02*
X021236Y006016D01*
X021226Y005918D02*
X021611Y005918D01*
X021652Y005819D02*
X021185Y005819D01*
X021144Y005721D02*
X021693Y005721D01*
X021783Y005622D02*
X021054Y005622D01*
X020953Y005524D02*
X021884Y005524D01*
X022603Y005524D02*
X023534Y005524D01*
X023529Y005525D02*
X023766Y005428D01*
X024021Y005428D01*
X024257Y005525D01*
X024438Y005706D01*
X024536Y005942D01*
X024536Y006198D01*
X024438Y006434D01*
X024257Y006615D01*
X024021Y006712D01*
X023766Y006712D01*
X023529Y006615D01*
X023349Y006434D01*
X023251Y006198D01*
X023251Y005942D01*
X023349Y005706D01*
X023529Y005525D01*
X023433Y005622D02*
X022704Y005622D01*
X022794Y005721D02*
X023343Y005721D01*
X023302Y005819D02*
X022835Y005819D01*
X022876Y005918D02*
X023261Y005918D01*
X023251Y006016D02*
X022886Y006016D01*
X022886Y006115D02*
X023251Y006115D01*
X023257Y006213D02*
X022880Y006213D01*
X022839Y006312D02*
X023298Y006312D01*
X023339Y006410D02*
X022798Y006410D01*
X022713Y006509D02*
X023423Y006509D01*
X023522Y006607D02*
X022615Y006607D01*
X022388Y006706D02*
X023749Y006706D01*
X024038Y006706D02*
X030008Y006706D01*
X030011Y006702D02*
X030162Y006640D01*
X030325Y006640D01*
X030476Y006702D01*
X030591Y006818D01*
X030653Y006968D01*
X030653Y007132D01*
X030591Y007282D01*
X030476Y007398D01*
X030325Y007460D01*
X030162Y007460D01*
X030011Y007398D01*
X029896Y007282D01*
X029833Y007132D01*
X029833Y006968D01*
X029896Y006818D01*
X030011Y006702D01*
X029909Y006804D02*
X018569Y006804D01*
X018537Y006903D02*
X029861Y006903D01*
X029833Y007001D02*
X018474Y007001D01*
X018331Y007100D02*
X029833Y007100D01*
X029861Y007198D02*
X005693Y007198D01*
X005693Y007100D02*
X018055Y007100D01*
X017913Y007001D02*
X005693Y007001D01*
X005693Y006903D02*
X017850Y006903D01*
X017818Y006804D02*
X005693Y006804D01*
X005693Y006706D02*
X017818Y006706D01*
X017846Y006607D02*
X005693Y006607D01*
X005693Y006509D02*
X017903Y006509D01*
X018032Y006410D02*
X005693Y006410D01*
X005693Y007297D02*
X029910Y007297D01*
X030008Y007395D02*
X005693Y007395D01*
X005693Y007494D02*
X054506Y007494D01*
X054506Y007592D02*
X005693Y007592D01*
X005693Y007691D02*
X006607Y007691D01*
X006536Y007789D02*
X005693Y007789D01*
X005693Y007888D02*
X006513Y007888D01*
X006513Y007986D02*
X005693Y007986D01*
X005693Y008085D02*
X006513Y008085D01*
X006513Y008183D02*
X005693Y008183D01*
X005693Y008282D02*
X006513Y008282D01*
X006513Y008380D02*
X005693Y008380D01*
X005693Y008479D02*
X006513Y008479D01*
X006513Y008577D02*
X005693Y008577D01*
X005693Y008676D02*
X006513Y008676D01*
X006513Y008774D02*
X005693Y008774D01*
X005693Y008873D02*
X006513Y008873D01*
X006513Y008971D02*
X005693Y008971D01*
X005693Y009070D02*
X006513Y009070D01*
X006513Y009168D02*
X005693Y009168D01*
X005693Y009267D02*
X006513Y009267D01*
X006513Y009365D02*
X005693Y009365D01*
X005693Y009464D02*
X006513Y009464D01*
X006513Y009562D02*
X005693Y009562D01*
X005693Y009661D02*
X006513Y009661D01*
X006513Y009759D02*
X005693Y009759D01*
X005693Y009858D02*
X006513Y009858D01*
X006513Y009956D02*
X005693Y009956D01*
X005693Y010055D02*
X006513Y010055D01*
X006513Y010153D02*
X005693Y010153D01*
X005693Y010252D02*
X006513Y010252D01*
X006513Y010350D02*
X005693Y010350D01*
X005693Y010449D02*
X006513Y010449D01*
X006513Y010547D02*
X005693Y010547D01*
X005693Y010646D02*
X006513Y010646D01*
X006513Y010744D02*
X005693Y010744D01*
X005693Y010843D02*
X006513Y010843D01*
X006513Y010941D02*
X005693Y010941D01*
X005693Y011040D02*
X006513Y011040D01*
X006513Y011138D02*
X005693Y011138D01*
X005693Y011237D02*
X006513Y011237D01*
X006513Y011335D02*
X005693Y011335D01*
X005693Y011434D02*
X006513Y011434D01*
X006513Y011532D02*
X005693Y011532D01*
X005693Y011631D02*
X006513Y011631D01*
X006513Y011729D02*
X005693Y011729D01*
X005693Y011828D02*
X006513Y011828D01*
X006513Y011926D02*
X005693Y011926D01*
X005693Y012025D02*
X006513Y012025D01*
X006513Y012123D02*
X005693Y012123D01*
X005693Y012222D02*
X006513Y012222D01*
X006513Y012320D02*
X005693Y012320D01*
X005693Y012419D02*
X006513Y012419D01*
X006513Y012517D02*
X005693Y012517D01*
X005693Y012616D02*
X006513Y012616D01*
X006513Y012714D02*
X005693Y012714D01*
X005693Y012813D02*
X006513Y012813D01*
X006513Y012911D02*
X005693Y012911D01*
X005693Y013010D02*
X006513Y013010D01*
X006513Y013108D02*
X005693Y013108D01*
X005693Y013207D02*
X006513Y013207D01*
X006513Y013305D02*
X005693Y013305D01*
X005693Y013404D02*
X006513Y013404D01*
X006513Y013502D02*
X005693Y013502D01*
X005693Y013601D02*
X006513Y013601D01*
X006513Y013699D02*
X005693Y013699D01*
X005693Y013798D02*
X006513Y013798D01*
X006513Y013896D02*
X005693Y013896D01*
X005693Y013995D02*
X006513Y013995D01*
X006513Y014093D02*
X005693Y014093D01*
X005693Y014192D02*
X006513Y014192D01*
X006513Y014290D02*
X005693Y014290D01*
X005693Y014389D02*
X006513Y014389D01*
X006513Y014487D02*
X005693Y014487D01*
X005693Y014586D02*
X006513Y014586D01*
X006513Y014684D02*
X005693Y014684D01*
X005693Y014783D02*
X006513Y014783D01*
X006513Y014881D02*
X005693Y014881D01*
X005693Y014980D02*
X006513Y014980D01*
X006513Y015078D02*
X005693Y015078D01*
X005693Y015177D02*
X006513Y015177D01*
X006513Y015275D02*
X005693Y015275D01*
X005693Y015374D02*
X006513Y015374D01*
X006513Y015472D02*
X005693Y015472D01*
X005693Y015571D02*
X006513Y015571D01*
X006513Y015669D02*
X005693Y015669D01*
X005693Y015768D02*
X006513Y015768D01*
X006513Y015866D02*
X005693Y015866D01*
X005693Y015965D02*
X006513Y015965D01*
X006513Y016063D02*
X005693Y016063D01*
X005693Y016162D02*
X006513Y016162D01*
X006513Y016260D02*
X005693Y016260D01*
X005693Y016359D02*
X006513Y016359D01*
X006513Y016457D02*
X005693Y016457D01*
X005693Y016556D02*
X006513Y016556D01*
X006513Y016654D02*
X005693Y016654D01*
X005693Y016753D02*
X006513Y016753D01*
X006513Y016851D02*
X005693Y016851D01*
X005693Y016950D02*
X006513Y016950D01*
X006513Y017048D02*
X005693Y017048D01*
X005693Y017147D02*
X006513Y017147D01*
X006513Y017245D02*
X005693Y017245D01*
X005693Y017344D02*
X006513Y017344D01*
X006513Y017442D02*
X005693Y017442D01*
X005693Y017541D02*
X006513Y017541D01*
X006513Y017639D02*
X005693Y017639D01*
X005693Y017738D02*
X006513Y017738D01*
X006513Y017836D02*
X005693Y017836D01*
X005693Y017935D02*
X006513Y017935D01*
X006513Y018033D02*
X005693Y018033D01*
X005693Y018132D02*
X006513Y018132D01*
X006513Y018230D02*
X005693Y018230D01*
X005693Y018329D02*
X006513Y018329D01*
X006513Y018427D02*
X005693Y018427D01*
X005693Y018526D02*
X006513Y018526D01*
X006513Y018624D02*
X005693Y018624D01*
X005693Y018723D02*
X006513Y018723D01*
X006513Y018821D02*
X005693Y018821D01*
X005693Y018920D02*
X006513Y018920D01*
X006513Y019018D02*
X005693Y019018D01*
X005693Y019117D02*
X006513Y019117D01*
X005693Y019400D02*
X005693Y027550D01*
X019393Y027550D01*
X019393Y020500D01*
X017443Y020500D01*
X017443Y019400D01*
X007738Y019400D01*
X007629Y019445D01*
X007452Y019445D01*
X007343Y019400D01*
X005693Y019400D01*
X005693Y019412D02*
X007372Y019412D01*
X007452Y019555D02*
X007629Y019555D01*
X007793Y019623D01*
X007918Y019748D01*
X007986Y019911D01*
X007986Y020089D01*
X007918Y020252D01*
X007793Y020377D01*
X007629Y020445D01*
X007452Y020445D01*
X007288Y020377D01*
X007163Y020252D01*
X007095Y020089D01*
X007095Y019911D01*
X007163Y019748D01*
X007288Y019623D01*
X007452Y019555D01*
X007321Y019609D02*
X005693Y019609D01*
X005693Y019511D02*
X017443Y019511D01*
X017443Y019609D02*
X007760Y019609D01*
X007878Y019708D02*
X017443Y019708D01*
X017443Y019806D02*
X007942Y019806D01*
X007983Y019905D02*
X017443Y019905D01*
X017443Y020003D02*
X007986Y020003D01*
X007980Y020102D02*
X017443Y020102D01*
X017443Y020200D02*
X007940Y020200D01*
X007872Y020299D02*
X017443Y020299D01*
X017443Y020397D02*
X007746Y020397D01*
X007629Y020555D02*
X007793Y020623D01*
X007918Y020748D01*
X007986Y020911D01*
X007986Y021089D01*
X007918Y021252D01*
X007793Y021377D01*
X007629Y021445D01*
X007452Y021445D01*
X007288Y021377D01*
X007163Y021252D01*
X007095Y021089D01*
X007095Y020911D01*
X007163Y020748D01*
X007288Y020623D01*
X007452Y020555D01*
X007629Y020555D01*
X007724Y020594D02*
X018021Y020594D01*
X018052Y020563D02*
X018176Y020512D01*
X018311Y020512D01*
X018435Y020563D01*
X018530Y020658D01*
X018581Y020783D01*
X018581Y020917D01*
X018530Y021042D01*
X018435Y021137D01*
X018311Y021188D01*
X018176Y021188D01*
X018052Y021137D01*
X017957Y021042D01*
X017905Y020917D01*
X017905Y020783D01*
X017957Y020658D01*
X018052Y020563D01*
X017943Y020693D02*
X007863Y020693D01*
X007936Y020791D02*
X017905Y020791D01*
X017905Y020890D02*
X007977Y020890D01*
X007986Y020988D02*
X017935Y020988D01*
X018002Y021087D02*
X007986Y021087D01*
X007946Y021185D02*
X018169Y021185D01*
X018318Y021185D02*
X019393Y021185D01*
X019393Y021087D02*
X018485Y021087D01*
X018552Y020988D02*
X019393Y020988D01*
X019393Y020890D02*
X018581Y020890D01*
X018581Y020791D02*
X019393Y020791D01*
X019393Y020693D02*
X018544Y020693D01*
X018466Y020594D02*
X019393Y020594D01*
X019593Y020594D02*
X025513Y020594D01*
X025513Y020496D02*
X019593Y020496D01*
X019593Y020397D02*
X025513Y020397D01*
X025513Y020299D02*
X017643Y020299D01*
X017643Y020200D02*
X025513Y020200D01*
X025513Y020102D02*
X017643Y020102D01*
X017643Y020003D02*
X025513Y020003D01*
X025513Y019905D02*
X017643Y019905D01*
X017643Y019806D02*
X025513Y019806D01*
X025513Y019708D02*
X017643Y019708D01*
X017643Y019609D02*
X025513Y019609D01*
X025513Y019511D02*
X017643Y019511D01*
X017643Y019412D02*
X025513Y019412D01*
X025513Y019314D02*
X017643Y019314D01*
X017643Y019215D02*
X025513Y019215D01*
X025513Y019117D02*
X008573Y019117D01*
X008573Y019018D02*
X025513Y019018D01*
X025513Y018920D02*
X008573Y018920D01*
X008573Y018821D02*
X025513Y018821D01*
X025513Y018723D02*
X008573Y018723D01*
X008573Y018624D02*
X025513Y018624D01*
X025513Y018526D02*
X008573Y018526D01*
X008573Y018427D02*
X025513Y018427D01*
X025513Y018329D02*
X024482Y018329D01*
X024506Y018319D02*
X024368Y018376D01*
X024219Y018376D01*
X024080Y018319D01*
X023975Y018213D01*
X023918Y018075D01*
X023918Y017925D01*
X023975Y017787D01*
X024080Y017681D01*
X024219Y017624D01*
X024368Y017624D01*
X024506Y017681D01*
X024612Y017787D01*
X024669Y017925D01*
X024669Y018075D01*
X024612Y018213D01*
X024506Y018319D01*
X024595Y018230D02*
X025513Y018230D01*
X025513Y018132D02*
X024646Y018132D01*
X024669Y018033D02*
X025513Y018033D01*
X025513Y017935D02*
X024669Y017935D01*
X024632Y017836D02*
X025513Y017836D01*
X025513Y017738D02*
X024562Y017738D01*
X024404Y017639D02*
X025513Y017639D01*
X025513Y017541D02*
X008573Y017541D01*
X008573Y017639D02*
X024183Y017639D01*
X024024Y017738D02*
X008573Y017738D01*
X008573Y017836D02*
X023955Y017836D01*
X023918Y017935D02*
X008573Y017935D01*
X008573Y018033D02*
X023918Y018033D01*
X023941Y018132D02*
X008573Y018132D01*
X008573Y018230D02*
X023992Y018230D01*
X024105Y018329D02*
X008573Y018329D01*
X008573Y017442D02*
X025513Y017442D01*
X025513Y017344D02*
X008573Y017344D01*
X008573Y017245D02*
X025513Y017245D01*
X025513Y017147D02*
X008573Y017147D01*
X008573Y017048D02*
X025513Y017048D01*
X025513Y016950D02*
X008573Y016950D01*
X008573Y016851D02*
X025513Y016851D01*
X025513Y016753D02*
X008573Y016753D01*
X008573Y016654D02*
X025513Y016654D01*
X025513Y016556D02*
X008573Y016556D01*
X008573Y016457D02*
X025513Y016457D01*
X025513Y016359D02*
X008573Y016359D01*
X008573Y016260D02*
X025513Y016260D01*
X025513Y016162D02*
X008573Y016162D01*
X008573Y016063D02*
X025513Y016063D01*
X025513Y015965D02*
X008573Y015965D01*
X008573Y015866D02*
X025513Y015866D01*
X025513Y015768D02*
X008573Y015768D01*
X008573Y015669D02*
X025513Y015669D01*
X025513Y015571D02*
X008573Y015571D01*
X008573Y015472D02*
X025513Y015472D01*
X025513Y015374D02*
X008573Y015374D01*
X008573Y015275D02*
X025513Y015275D01*
X025513Y015177D02*
X008573Y015177D01*
X008573Y015078D02*
X025513Y015078D01*
X025513Y014980D02*
X008573Y014980D01*
X008573Y014881D02*
X025513Y014881D01*
X025513Y014783D02*
X008573Y014783D01*
X008573Y014684D02*
X025513Y014684D01*
X025513Y014586D02*
X008573Y014586D01*
X008573Y014487D02*
X025513Y014487D01*
X025513Y014389D02*
X008573Y014389D01*
X008573Y014290D02*
X025513Y014290D01*
X025513Y014192D02*
X008573Y014192D01*
X008573Y014093D02*
X025513Y014093D01*
X025513Y013995D02*
X008573Y013995D01*
X008573Y013896D02*
X025513Y013896D01*
X025513Y013798D02*
X008573Y013798D01*
X008573Y013699D02*
X025513Y013699D01*
X025513Y013601D02*
X008573Y013601D01*
X008573Y013502D02*
X025513Y013502D01*
X025513Y013404D02*
X008573Y013404D01*
X008573Y013305D02*
X025513Y013305D01*
X025513Y013207D02*
X008573Y013207D01*
X008573Y013108D02*
X025513Y013108D01*
X025513Y013010D02*
X008573Y013010D01*
X008573Y012911D02*
X025513Y012911D01*
X025513Y012813D02*
X008573Y012813D01*
X008573Y012714D02*
X025513Y012714D01*
X025513Y012616D02*
X008573Y012616D01*
X008573Y012517D02*
X025513Y012517D01*
X025513Y012419D02*
X008573Y012419D01*
X008573Y012320D02*
X025513Y012320D01*
X025513Y012222D02*
X008573Y012222D01*
X008573Y012123D02*
X025513Y012123D01*
X025513Y012025D02*
X008573Y012025D01*
X008573Y011926D02*
X025513Y011926D01*
X025513Y011828D02*
X008573Y011828D01*
X008573Y011729D02*
X025513Y011729D01*
X025513Y011631D02*
X008573Y011631D01*
X008573Y011532D02*
X025513Y011532D01*
X025513Y011434D02*
X008573Y011434D01*
X008573Y011335D02*
X025517Y011335D01*
X025513Y011344D02*
X025556Y011241D01*
X025635Y011163D01*
X025738Y011120D01*
X025849Y011120D01*
X027349Y011120D01*
X027452Y011163D01*
X027531Y011241D01*
X027573Y011344D01*
X027573Y026506D01*
X027531Y026609D01*
X027452Y026687D01*
X027349Y026730D01*
X025738Y026730D01*
X025635Y026687D01*
X025556Y026609D01*
X025513Y026506D01*
X025513Y011344D01*
X025561Y011237D02*
X008573Y011237D01*
X008573Y011138D02*
X025694Y011138D01*
X027393Y011138D02*
X027909Y011138D01*
X027886Y011161D02*
X027955Y011092D01*
X028045Y011055D01*
X028142Y011055D01*
X028232Y011092D01*
X028301Y011161D01*
X028338Y011251D01*
X028338Y011349D01*
X028301Y011439D01*
X028232Y011508D01*
X028142Y011545D01*
X028045Y011545D01*
X027955Y011508D01*
X027886Y011439D01*
X027848Y011349D01*
X027848Y011251D01*
X027886Y011161D01*
X027854Y011237D02*
X027526Y011237D01*
X027569Y011335D02*
X027848Y011335D01*
X027883Y011434D02*
X027573Y011434D01*
X027573Y011532D02*
X028013Y011532D01*
X028173Y011532D02*
X045783Y011532D01*
X045786Y011539D02*
X045748Y011449D01*
X045748Y011351D01*
X045786Y011261D01*
X045855Y011192D01*
X045945Y011155D01*
X046042Y011155D01*
X046132Y011192D01*
X046201Y011261D01*
X046238Y011351D01*
X046238Y011449D01*
X046201Y011539D01*
X046132Y011608D01*
X046042Y011645D01*
X045945Y011645D01*
X045855Y011608D01*
X045786Y011539D01*
X045748Y011434D02*
X028303Y011434D01*
X028338Y011335D02*
X045755Y011335D01*
X045810Y011237D02*
X028332Y011237D01*
X028278Y011138D02*
X036950Y011138D01*
X036980Y011169D02*
X036875Y011063D01*
X036818Y010925D01*
X036818Y010775D01*
X036875Y010637D01*
X036980Y010531D01*
X037119Y010474D01*
X037268Y010474D01*
X037406Y010531D01*
X037512Y010637D01*
X037569Y010775D01*
X037569Y010925D01*
X037512Y011063D01*
X037406Y011169D01*
X037268Y011226D01*
X037119Y011226D01*
X036980Y011169D01*
X036865Y011040D02*
X008573Y011040D01*
X008573Y010941D02*
X036824Y010941D01*
X036818Y010843D02*
X008573Y010843D01*
X008573Y010744D02*
X036830Y010744D01*
X036871Y010646D02*
X008573Y010646D01*
X008573Y010547D02*
X036965Y010547D01*
X037422Y010547D02*
X040498Y010547D01*
X040498Y010549D02*
X040498Y010451D01*
X040536Y010361D01*
X040605Y010292D01*
X040695Y010255D01*
X040792Y010255D01*
X040882Y010292D01*
X040951Y010361D01*
X040988Y010451D01*
X040988Y010549D01*
X040951Y010639D01*
X040882Y010708D01*
X040792Y010745D01*
X040695Y010745D01*
X040605Y010708D01*
X040536Y010639D01*
X040498Y010549D01*
X040499Y010449D02*
X008573Y010449D01*
X008573Y010350D02*
X029322Y010350D01*
X029291Y010319D02*
X029245Y010209D01*
X029245Y010091D01*
X029291Y009981D01*
X029374Y009897D01*
X029484Y009852D01*
X029603Y009852D01*
X029712Y009897D01*
X029796Y009981D01*
X029841Y010091D01*
X029841Y010209D01*
X029796Y010319D01*
X029712Y010403D01*
X029603Y010448D01*
X029484Y010448D01*
X029374Y010403D01*
X029291Y010319D01*
X029263Y010252D02*
X008573Y010252D01*
X008573Y010153D02*
X018075Y010153D01*
X018074Y010153D02*
X017991Y010069D01*
X017945Y009959D01*
X017945Y009841D01*
X017991Y009731D01*
X018074Y009647D01*
X018184Y009602D01*
X018303Y009602D01*
X018412Y009647D01*
X018496Y009731D01*
X018541Y009841D01*
X018541Y009959D01*
X018496Y010069D01*
X018412Y010153D01*
X018303Y010198D01*
X018184Y010198D01*
X018074Y010153D01*
X017985Y010055D02*
X008573Y010055D01*
X008573Y009956D02*
X017945Y009956D01*
X017945Y009858D02*
X008573Y009858D01*
X008573Y009759D02*
X017979Y009759D01*
X018061Y009661D02*
X008573Y009661D01*
X008573Y009562D02*
X035228Y009562D01*
X035245Y009555D02*
X035342Y009555D01*
X035432Y009592D01*
X035501Y009661D01*
X035538Y009751D01*
X035538Y009849D01*
X035501Y009939D01*
X035432Y010008D01*
X035342Y010045D01*
X035245Y010045D01*
X035155Y010008D01*
X035086Y009939D01*
X035048Y009849D01*
X035048Y009751D01*
X035086Y009661D01*
X035155Y009592D01*
X035245Y009555D01*
X035359Y009562D02*
X054506Y009562D01*
X054506Y009464D02*
X016561Y009464D01*
X016556Y009469D02*
X016418Y009526D01*
X016269Y009526D01*
X016130Y009469D01*
X016025Y009363D01*
X015968Y009225D01*
X015968Y009075D01*
X016025Y008937D01*
X016130Y008831D01*
X016269Y008774D01*
X016418Y008774D01*
X016556Y008831D01*
X016662Y008937D01*
X016719Y009075D01*
X016719Y009225D01*
X016662Y009363D01*
X016556Y009469D01*
X016660Y009365D02*
X054506Y009365D01*
X054506Y009267D02*
X016702Y009267D01*
X016719Y009168D02*
X038780Y009168D01*
X038780Y009169D02*
X038675Y009063D01*
X038618Y008925D01*
X038618Y008775D01*
X038675Y008637D01*
X038780Y008531D01*
X038919Y008474D01*
X039068Y008474D01*
X039206Y008531D01*
X039312Y008637D01*
X039369Y008775D01*
X039369Y008925D01*
X039312Y009063D01*
X039206Y009169D01*
X039068Y009226D01*
X038919Y009226D01*
X038780Y009169D01*
X038681Y009070D02*
X016717Y009070D01*
X016676Y008971D02*
X038637Y008971D01*
X038618Y008873D02*
X016597Y008873D01*
X016089Y008873D02*
X008573Y008873D01*
X008573Y008971D02*
X016011Y008971D01*
X015970Y009070D02*
X008573Y009070D01*
X008573Y009168D02*
X015968Y009168D01*
X015985Y009267D02*
X008573Y009267D01*
X008573Y009365D02*
X016027Y009365D01*
X016125Y009464D02*
X008573Y009464D01*
X008573Y008774D02*
X038618Y008774D01*
X038659Y008676D02*
X008573Y008676D01*
X008573Y008577D02*
X038735Y008577D01*
X038908Y008479D02*
X008573Y008479D01*
X008573Y008380D02*
X029994Y008380D01*
X030011Y008398D02*
X029896Y008282D01*
X029833Y008132D01*
X029833Y007968D01*
X029896Y007818D01*
X030011Y007702D01*
X030162Y007640D01*
X030325Y007640D01*
X030476Y007702D01*
X030591Y007818D01*
X030653Y007968D01*
X030653Y008132D01*
X030591Y008282D01*
X030476Y008398D01*
X030325Y008460D01*
X030162Y008460D01*
X030011Y008398D01*
X029895Y008282D02*
X008573Y008282D01*
X008573Y008183D02*
X029855Y008183D01*
X029833Y008085D02*
X008573Y008085D01*
X008573Y007986D02*
X029833Y007986D01*
X029867Y007888D02*
X008573Y007888D01*
X008550Y007789D02*
X029924Y007789D01*
X030040Y007691D02*
X008480Y007691D01*
X007528Y002667D02*
X020009Y002667D01*
X020108Y002569D02*
X007627Y002569D01*
X007800Y002273D02*
X028771Y002273D01*
X029191Y002273D02*
X032796Y002273D01*
X032864Y002245D02*
X033148Y002245D01*
X033411Y002354D01*
X033612Y002555D01*
X033721Y002818D01*
X033721Y003102D01*
X033612Y003365D01*
X033411Y003566D01*
X033148Y003675D01*
X032864Y003675D01*
X032601Y003566D01*
X032400Y003365D01*
X032291Y003102D01*
X032291Y002818D01*
X032400Y002555D01*
X032601Y002354D01*
X032864Y002245D01*
X032583Y002372D02*
X029403Y002372D01*
X029502Y002470D02*
X032485Y002470D01*
X032394Y002569D02*
X029593Y002569D01*
X029633Y002667D02*
X032353Y002667D01*
X032312Y002766D02*
X029674Y002766D01*
X029696Y002864D02*
X032291Y002864D01*
X032291Y002963D02*
X029696Y002963D01*
X029696Y003061D02*
X032291Y003061D01*
X032315Y003160D02*
X029672Y003160D01*
X029631Y003258D02*
X032355Y003258D01*
X032396Y003357D02*
X029590Y003357D01*
X029497Y003455D02*
X032490Y003455D01*
X032588Y003554D02*
X029398Y003554D01*
X029179Y003652D02*
X032808Y003652D01*
X033204Y003652D02*
X054506Y003652D01*
X054506Y003554D02*
X033423Y003554D01*
X033522Y003455D02*
X054506Y003455D01*
X054506Y003357D02*
X033615Y003357D01*
X033656Y003258D02*
X054506Y003258D01*
X054506Y003160D02*
X033697Y003160D01*
X033721Y003061D02*
X054506Y003061D01*
X054506Y002963D02*
X033721Y002963D01*
X033721Y002864D02*
X054506Y002864D01*
X054506Y002766D02*
X048616Y002766D01*
X047870Y002766D02*
X033699Y002766D01*
X033658Y002667D02*
X043978Y002667D01*
X043980Y002669D02*
X043825Y002513D01*
X043740Y002310D01*
X043740Y002090D01*
X043825Y001887D01*
X043980Y001731D01*
X044183Y001647D01*
X044403Y001647D01*
X044607Y001731D01*
X044762Y001887D01*
X044846Y002090D01*
X044846Y002310D01*
X044762Y002513D01*
X044607Y002669D01*
X044403Y002753D01*
X044183Y002753D01*
X043980Y002669D01*
X043880Y002569D02*
X033618Y002569D01*
X033527Y002470D02*
X043807Y002470D01*
X043766Y002372D02*
X033428Y002372D01*
X033216Y002273D02*
X043740Y002273D01*
X043740Y002175D02*
X007841Y002175D01*
X007843Y002076D02*
X043746Y002076D01*
X043787Y001978D02*
X007843Y001978D01*
X007843Y001879D02*
X043832Y001879D01*
X043931Y001781D02*
X007822Y001781D01*
X007782Y001682D02*
X044099Y001682D01*
X044488Y001682D02*
X047455Y001682D01*
X047496Y001584D02*
X007741Y001584D01*
X007680Y001485D02*
X047556Y001485D01*
X047655Y001387D02*
X007582Y001387D01*
X007483Y001288D02*
X047753Y001288D01*
X047979Y001190D02*
X007258Y001190D01*
X018425Y009661D02*
X034431Y009661D01*
X034445Y009655D02*
X034542Y009655D01*
X034632Y009692D01*
X034701Y009761D01*
X034738Y009851D01*
X034738Y009949D01*
X034701Y010039D01*
X034632Y010108D01*
X034542Y010145D01*
X034445Y010145D01*
X034355Y010108D01*
X034286Y010039D01*
X034248Y009949D01*
X034248Y009851D01*
X034286Y009761D01*
X034355Y009692D01*
X034445Y009655D01*
X034555Y009661D02*
X035086Y009661D01*
X035048Y009759D02*
X034699Y009759D01*
X034738Y009858D02*
X035052Y009858D01*
X035103Y009956D02*
X034735Y009956D01*
X034685Y010055D02*
X035642Y010055D01*
X035636Y010061D02*
X035705Y009992D01*
X035795Y009955D01*
X035892Y009955D01*
X035982Y009992D01*
X036051Y010061D01*
X036088Y010151D01*
X036088Y010249D01*
X036051Y010339D01*
X035982Y010408D01*
X035892Y010445D01*
X035795Y010445D01*
X035705Y010408D01*
X035636Y010339D01*
X035598Y010249D01*
X035598Y010151D01*
X035636Y010061D01*
X035598Y010153D02*
X029841Y010153D01*
X029826Y010055D02*
X034301Y010055D01*
X034251Y009956D02*
X029771Y009956D01*
X029616Y009858D02*
X034248Y009858D01*
X034288Y009759D02*
X018508Y009759D01*
X018541Y009858D02*
X029470Y009858D01*
X029316Y009956D02*
X018541Y009956D01*
X018502Y010055D02*
X029260Y010055D01*
X029245Y010153D02*
X018411Y010153D01*
X024265Y006607D02*
X054506Y006607D01*
X054506Y006509D02*
X024363Y006509D01*
X024448Y006410D02*
X054506Y006410D01*
X054506Y006312D02*
X024489Y006312D01*
X024530Y006213D02*
X035598Y006213D01*
X035561Y006198D02*
X035446Y006082D01*
X035383Y005932D01*
X035383Y005768D01*
X035446Y005618D01*
X035561Y005502D01*
X035712Y005440D01*
X035875Y005440D01*
X036026Y005502D01*
X036141Y005618D01*
X036203Y005768D01*
X036203Y005932D01*
X036141Y006082D01*
X036026Y006198D01*
X035875Y006260D01*
X035712Y006260D01*
X035561Y006198D01*
X035478Y006115D02*
X024536Y006115D01*
X024536Y006016D02*
X035418Y006016D01*
X035383Y005918D02*
X024526Y005918D01*
X024485Y005819D02*
X035383Y005819D01*
X035403Y005721D02*
X024444Y005721D01*
X024354Y005622D02*
X035444Y005622D01*
X035540Y005524D02*
X024253Y005524D01*
X030479Y006706D02*
X031008Y006706D01*
X031011Y006702D02*
X031162Y006640D01*
X031325Y006640D01*
X031476Y006702D01*
X031591Y006818D01*
X031653Y006968D01*
X031653Y007132D01*
X031591Y007282D01*
X031476Y007398D01*
X031325Y007460D01*
X031162Y007460D01*
X031011Y007398D01*
X030896Y007282D01*
X030833Y007132D01*
X030833Y006968D01*
X030896Y006818D01*
X031011Y006702D01*
X030909Y006804D02*
X030577Y006804D01*
X030626Y006903D02*
X030861Y006903D01*
X030833Y007001D02*
X030653Y007001D01*
X030653Y007100D02*
X030833Y007100D01*
X030861Y007198D02*
X030626Y007198D01*
X030577Y007297D02*
X030910Y007297D01*
X031008Y007395D02*
X030478Y007395D01*
X030447Y007691D02*
X031040Y007691D01*
X031011Y007702D02*
X031162Y007640D01*
X031325Y007640D01*
X031476Y007702D01*
X031591Y007818D01*
X031653Y007968D01*
X031653Y008132D01*
X031591Y008282D01*
X031476Y008398D01*
X031325Y008460D01*
X031162Y008460D01*
X031011Y008398D01*
X030896Y008282D01*
X030833Y008132D01*
X030833Y007968D01*
X030896Y007818D01*
X031011Y007702D01*
X030924Y007789D02*
X030562Y007789D01*
X030620Y007888D02*
X030867Y007888D01*
X030833Y007986D02*
X030653Y007986D01*
X030653Y008085D02*
X030833Y008085D01*
X030855Y008183D02*
X030632Y008183D01*
X030591Y008282D02*
X030895Y008282D01*
X030994Y008380D02*
X030493Y008380D01*
X031493Y008380D02*
X031994Y008380D01*
X032011Y008398D02*
X031896Y008282D01*
X031833Y008132D01*
X031833Y007968D01*
X031896Y007818D01*
X032011Y007702D01*
X032162Y007640D01*
X032325Y007640D01*
X032476Y007702D01*
X032591Y007818D01*
X032653Y007968D01*
X032653Y008132D01*
X032591Y008282D01*
X032476Y008398D01*
X032325Y008460D01*
X032162Y008460D01*
X032011Y008398D01*
X031895Y008282D02*
X031591Y008282D01*
X031632Y008183D02*
X031855Y008183D01*
X031833Y008085D02*
X031653Y008085D01*
X031653Y007986D02*
X031833Y007986D01*
X031867Y007888D02*
X031620Y007888D01*
X031562Y007789D02*
X031924Y007789D01*
X032040Y007691D02*
X031447Y007691D01*
X031478Y007395D02*
X032008Y007395D01*
X032011Y007398D02*
X031896Y007282D01*
X031833Y007132D01*
X031833Y006968D01*
X031896Y006818D01*
X032011Y006702D01*
X032162Y006640D01*
X032325Y006640D01*
X032476Y006702D01*
X032591Y006818D01*
X032653Y006968D01*
X032653Y007132D01*
X032591Y007282D01*
X032476Y007398D01*
X032325Y007460D01*
X032162Y007460D01*
X032011Y007398D01*
X031910Y007297D02*
X031577Y007297D01*
X031626Y007198D02*
X031861Y007198D01*
X031833Y007100D02*
X031653Y007100D01*
X031653Y007001D02*
X031833Y007001D01*
X031861Y006903D02*
X031626Y006903D01*
X031577Y006804D02*
X031909Y006804D01*
X032008Y006706D02*
X031479Y006706D01*
X032479Y006706D02*
X033008Y006706D01*
X033011Y006702D02*
X033162Y006640D01*
X033325Y006640D01*
X033476Y006702D01*
X033591Y006818D01*
X033653Y006968D01*
X033653Y007132D01*
X033591Y007282D01*
X033476Y007398D01*
X033325Y007460D01*
X033162Y007460D01*
X033011Y007398D01*
X032896Y007282D01*
X032833Y007132D01*
X032833Y006968D01*
X032896Y006818D01*
X033011Y006702D01*
X032909Y006804D02*
X032577Y006804D01*
X032626Y006903D02*
X032861Y006903D01*
X032833Y007001D02*
X032653Y007001D01*
X032653Y007100D02*
X032833Y007100D01*
X032861Y007198D02*
X032626Y007198D01*
X032577Y007297D02*
X032910Y007297D01*
X033008Y007395D02*
X032478Y007395D01*
X032447Y007691D02*
X033040Y007691D01*
X033011Y007702D02*
X033162Y007640D01*
X033325Y007640D01*
X033476Y007702D01*
X033591Y007818D01*
X033653Y007968D01*
X033653Y008132D01*
X033591Y008282D01*
X033476Y008398D01*
X033325Y008460D01*
X033162Y008460D01*
X033011Y008398D01*
X032896Y008282D01*
X032833Y008132D01*
X032833Y007968D01*
X032896Y007818D01*
X033011Y007702D01*
X032924Y007789D02*
X032562Y007789D01*
X032620Y007888D02*
X032867Y007888D01*
X032833Y007986D02*
X032653Y007986D01*
X032653Y008085D02*
X032833Y008085D01*
X032855Y008183D02*
X032632Y008183D01*
X032591Y008282D02*
X032895Y008282D01*
X032994Y008380D02*
X032493Y008380D01*
X033493Y008380D02*
X033994Y008380D01*
X034011Y008398D02*
X033896Y008282D01*
X033833Y008132D01*
X033833Y007968D01*
X033896Y007818D01*
X034011Y007702D01*
X034162Y007640D01*
X034325Y007640D01*
X034476Y007702D01*
X034591Y007818D01*
X034653Y007968D01*
X034653Y008132D01*
X034591Y008282D01*
X034476Y008398D01*
X034325Y008460D01*
X034162Y008460D01*
X034011Y008398D01*
X033895Y008282D02*
X033591Y008282D01*
X033632Y008183D02*
X033855Y008183D01*
X033833Y008085D02*
X033653Y008085D01*
X033653Y007986D02*
X033833Y007986D01*
X033867Y007888D02*
X033620Y007888D01*
X033562Y007789D02*
X033924Y007789D01*
X034040Y007691D02*
X033447Y007691D01*
X033478Y007395D02*
X034008Y007395D01*
X034011Y007398D02*
X033896Y007282D01*
X033833Y007132D01*
X033833Y006968D01*
X033896Y006818D01*
X034011Y006702D01*
X034162Y006640D01*
X034325Y006640D01*
X034476Y006702D01*
X034591Y006818D01*
X034653Y006968D01*
X034653Y007132D01*
X034591Y007282D01*
X034476Y007398D01*
X034325Y007460D01*
X034162Y007460D01*
X034011Y007398D01*
X033910Y007297D02*
X033577Y007297D01*
X033626Y007198D02*
X033861Y007198D01*
X033833Y007100D02*
X033653Y007100D01*
X033653Y007001D02*
X033833Y007001D01*
X033861Y006903D02*
X033626Y006903D01*
X033577Y006804D02*
X033909Y006804D01*
X034008Y006706D02*
X033479Y006706D01*
X034479Y006706D02*
X035008Y006706D01*
X035011Y006702D02*
X035162Y006640D01*
X035325Y006640D01*
X035476Y006702D01*
X035591Y006818D01*
X035653Y006968D01*
X035653Y007132D01*
X035591Y007282D01*
X035476Y007398D01*
X035325Y007460D01*
X035162Y007460D01*
X035011Y007398D01*
X034896Y007282D01*
X034833Y007132D01*
X034833Y006968D01*
X034896Y006818D01*
X035011Y006702D01*
X034909Y006804D02*
X034577Y006804D01*
X034626Y006903D02*
X034861Y006903D01*
X034833Y007001D02*
X034653Y007001D01*
X034653Y007100D02*
X034833Y007100D01*
X034861Y007198D02*
X034626Y007198D01*
X034577Y007297D02*
X034910Y007297D01*
X035008Y007395D02*
X034478Y007395D01*
X034447Y007691D02*
X035040Y007691D01*
X035011Y007702D02*
X035162Y007640D01*
X035325Y007640D01*
X035476Y007702D01*
X035591Y007818D01*
X035653Y007968D01*
X035653Y008132D01*
X035591Y008282D01*
X035476Y008398D01*
X035325Y008460D01*
X035162Y008460D01*
X035011Y008398D01*
X034896Y008282D01*
X034833Y008132D01*
X034833Y007968D01*
X034896Y007818D01*
X035011Y007702D01*
X034924Y007789D02*
X034562Y007789D01*
X034620Y007888D02*
X034867Y007888D01*
X034833Y007986D02*
X034653Y007986D01*
X034653Y008085D02*
X034833Y008085D01*
X034855Y008183D02*
X034632Y008183D01*
X034591Y008282D02*
X034895Y008282D01*
X034994Y008380D02*
X034493Y008380D01*
X035493Y008380D02*
X043740Y008380D01*
X043740Y008310D02*
X043825Y008107D01*
X043980Y007952D01*
X044183Y007868D01*
X044403Y007868D01*
X044607Y007952D01*
X044762Y008107D01*
X044846Y008310D01*
X044846Y008530D01*
X044762Y008734D01*
X044607Y008889D01*
X044403Y008973D01*
X044183Y008973D01*
X043980Y008889D01*
X043825Y008734D01*
X043740Y008530D01*
X043740Y008310D01*
X043752Y008282D02*
X035591Y008282D01*
X035632Y008183D02*
X043793Y008183D01*
X043847Y008085D02*
X035653Y008085D01*
X035653Y007986D02*
X043946Y007986D01*
X044135Y007888D02*
X035620Y007888D01*
X035562Y007789D02*
X054506Y007789D01*
X054506Y007691D02*
X035447Y007691D01*
X035478Y007395D02*
X054506Y007395D01*
X054506Y007297D02*
X035577Y007297D01*
X035626Y007198D02*
X054506Y007198D01*
X054506Y007100D02*
X035653Y007100D01*
X035653Y007001D02*
X054506Y007001D01*
X054506Y006903D02*
X035626Y006903D01*
X035577Y006804D02*
X054506Y006804D01*
X054506Y006706D02*
X035479Y006706D01*
X035988Y006213D02*
X036598Y006213D01*
X036561Y006198D02*
X036446Y006082D01*
X036383Y005932D01*
X036383Y005768D01*
X036446Y005618D01*
X036561Y005502D01*
X036712Y005440D01*
X036875Y005440D01*
X037026Y005502D01*
X037141Y005618D01*
X037203Y005768D01*
X037203Y005932D01*
X037141Y006082D01*
X037026Y006198D01*
X036875Y006260D01*
X036712Y006260D01*
X036561Y006198D01*
X036478Y006115D02*
X036109Y006115D01*
X036168Y006016D02*
X036418Y006016D01*
X036383Y005918D02*
X036203Y005918D01*
X036203Y005819D02*
X036383Y005819D01*
X036403Y005721D02*
X036183Y005721D01*
X036143Y005622D02*
X036444Y005622D01*
X036540Y005524D02*
X036047Y005524D01*
X035952Y005228D02*
X037635Y005228D01*
X037493Y005130D02*
X036094Y005130D01*
X036162Y005031D02*
X037425Y005031D01*
X037397Y004736D02*
X036190Y004736D01*
X036149Y004637D02*
X037438Y004637D01*
X037525Y004539D02*
X036062Y004539D01*
X037047Y005524D02*
X037540Y005524D01*
X037561Y005502D02*
X037712Y005440D01*
X037875Y005440D01*
X038026Y005502D01*
X038141Y005618D01*
X038203Y005768D01*
X038203Y005932D01*
X038141Y006082D01*
X038026Y006198D01*
X037875Y006260D01*
X037712Y006260D01*
X037561Y006198D01*
X037446Y006082D01*
X037383Y005932D01*
X037383Y005768D01*
X037446Y005618D01*
X037561Y005502D01*
X037444Y005622D02*
X037143Y005622D01*
X037183Y005721D02*
X037403Y005721D01*
X037383Y005819D02*
X037203Y005819D01*
X037203Y005918D02*
X037383Y005918D01*
X037418Y006016D02*
X037168Y006016D01*
X037109Y006115D02*
X037478Y006115D01*
X037598Y006213D02*
X036988Y006213D01*
X037988Y006213D02*
X038598Y006213D01*
X038561Y006198D02*
X038446Y006082D01*
X038383Y005932D01*
X038383Y005768D01*
X038446Y005618D01*
X038561Y005502D01*
X038712Y005440D01*
X038875Y005440D01*
X039026Y005502D01*
X039141Y005618D01*
X039203Y005768D01*
X039203Y005932D01*
X039141Y006082D01*
X039026Y006198D01*
X038875Y006260D01*
X038712Y006260D01*
X038561Y006198D01*
X038478Y006115D02*
X038109Y006115D01*
X038168Y006016D02*
X038418Y006016D01*
X038383Y005918D02*
X038203Y005918D01*
X038203Y005819D02*
X038383Y005819D01*
X038403Y005721D02*
X038183Y005721D01*
X038143Y005622D02*
X038444Y005622D01*
X038540Y005524D02*
X038047Y005524D01*
X037952Y005228D02*
X038635Y005228D01*
X038493Y005130D02*
X038094Y005130D01*
X038162Y005031D02*
X038425Y005031D01*
X038397Y004736D02*
X038190Y004736D01*
X038149Y004637D02*
X038438Y004637D01*
X038525Y004539D02*
X038062Y004539D01*
X039062Y004539D02*
X039525Y004539D01*
X039438Y004637D02*
X039149Y004637D01*
X039190Y004736D02*
X039397Y004736D01*
X039425Y005031D02*
X039162Y005031D01*
X039094Y005130D02*
X039493Y005130D01*
X039635Y005228D02*
X038952Y005228D01*
X039047Y005524D02*
X039540Y005524D01*
X039561Y005502D02*
X039712Y005440D01*
X039875Y005440D01*
X040026Y005502D01*
X040141Y005618D01*
X040203Y005768D01*
X040203Y005932D01*
X040141Y006082D01*
X040026Y006198D01*
X039875Y006260D01*
X039712Y006260D01*
X039561Y006198D01*
X039446Y006082D01*
X039383Y005932D01*
X039383Y005768D01*
X039446Y005618D01*
X039561Y005502D01*
X039444Y005622D02*
X039143Y005622D01*
X039183Y005721D02*
X039403Y005721D01*
X039383Y005819D02*
X039203Y005819D01*
X039203Y005918D02*
X039383Y005918D01*
X039418Y006016D02*
X039168Y006016D01*
X039109Y006115D02*
X039478Y006115D01*
X039598Y006213D02*
X038988Y006213D01*
X039988Y006213D02*
X054506Y006213D01*
X054506Y006115D02*
X040109Y006115D01*
X040168Y006016D02*
X054506Y006016D01*
X054506Y005918D02*
X040203Y005918D01*
X040203Y005819D02*
X054506Y005819D01*
X054506Y005721D02*
X040183Y005721D01*
X040143Y005622D02*
X054506Y005622D01*
X054506Y005524D02*
X040047Y005524D01*
X039078Y008479D02*
X043740Y008479D01*
X043760Y008577D02*
X039252Y008577D01*
X039328Y008676D02*
X043800Y008676D01*
X043865Y008774D02*
X039369Y008774D01*
X039369Y008873D02*
X043963Y008873D01*
X044178Y008971D02*
X039350Y008971D01*
X039305Y009070D02*
X054506Y009070D01*
X054506Y009168D02*
X039207Y009168D01*
X040547Y010350D02*
X036040Y010350D01*
X036087Y010252D02*
X054506Y010252D01*
X054506Y010350D02*
X040940Y010350D01*
X040987Y010449D02*
X054506Y010449D01*
X054506Y010547D02*
X040988Y010547D01*
X040944Y010646D02*
X047229Y010646D01*
X047224Y010647D02*
X047334Y010602D01*
X047453Y010602D01*
X047562Y010647D01*
X047646Y010731D01*
X047691Y010841D01*
X047691Y010959D01*
X047646Y011069D01*
X047562Y011153D01*
X047453Y011198D01*
X047334Y011198D01*
X047224Y011153D01*
X047141Y011069D01*
X047095Y010959D01*
X047095Y010841D01*
X047141Y010731D01*
X047224Y010647D01*
X047135Y010744D02*
X040794Y010744D01*
X040692Y010744D02*
X037556Y010744D01*
X037569Y010843D02*
X047095Y010843D01*
X047095Y010941D02*
X037562Y010941D01*
X037522Y011040D02*
X047128Y011040D01*
X047210Y011138D02*
X037437Y011138D01*
X037515Y010646D02*
X040542Y010646D01*
X044409Y008971D02*
X045791Y008971D01*
X045814Y008994D02*
X045700Y008880D01*
X045638Y008731D01*
X045638Y008569D01*
X045700Y008420D01*
X045814Y008306D01*
X045963Y008245D01*
X046124Y008245D01*
X046273Y008306D01*
X046387Y008420D01*
X046449Y008569D01*
X046449Y008731D01*
X046387Y008880D01*
X046273Y008994D01*
X046124Y009055D01*
X045963Y009055D01*
X045814Y008994D01*
X045697Y008873D02*
X044623Y008873D01*
X044722Y008774D02*
X045656Y008774D01*
X045638Y008676D02*
X044786Y008676D01*
X044827Y008577D02*
X045638Y008577D01*
X045676Y008479D02*
X044846Y008479D01*
X044846Y008380D02*
X045740Y008380D01*
X045874Y008282D02*
X044834Y008282D01*
X044793Y008183D02*
X051293Y008183D01*
X051325Y008107D02*
X051240Y008310D01*
X051240Y008530D01*
X051325Y008734D01*
X051480Y008889D01*
X051683Y008973D01*
X051903Y008973D01*
X052107Y008889D01*
X052262Y008734D01*
X052346Y008530D01*
X052346Y008310D01*
X052262Y008107D01*
X052107Y007952D01*
X051903Y007868D01*
X051683Y007868D01*
X051480Y007952D01*
X051325Y008107D01*
X051347Y008085D02*
X044739Y008085D01*
X044641Y007986D02*
X051446Y007986D01*
X051635Y007888D02*
X044451Y007888D01*
X046213Y008282D02*
X051252Y008282D01*
X051240Y008380D02*
X046346Y008380D01*
X046411Y008479D02*
X051240Y008479D01*
X051260Y008577D02*
X046449Y008577D01*
X046449Y008676D02*
X051300Y008676D01*
X051365Y008774D02*
X046431Y008774D01*
X046390Y008873D02*
X051463Y008873D01*
X051678Y008971D02*
X046295Y008971D01*
X047558Y010646D02*
X054506Y010646D01*
X054506Y010744D02*
X048184Y010744D01*
X048201Y010761D02*
X048238Y010851D01*
X048238Y010949D01*
X048201Y011039D01*
X048132Y011108D01*
X048042Y011145D01*
X047945Y011145D01*
X047855Y011108D01*
X047786Y011039D01*
X047748Y010949D01*
X047748Y010851D01*
X047786Y010761D01*
X047855Y010692D01*
X047945Y010655D01*
X048042Y010655D01*
X048132Y010692D01*
X048201Y010761D01*
X048235Y010843D02*
X054506Y010843D01*
X054506Y010941D02*
X048238Y010941D01*
X048200Y011040D02*
X054506Y011040D01*
X054506Y011138D02*
X048059Y011138D01*
X048042Y011155D02*
X048132Y011192D01*
X048201Y011261D01*
X048238Y011351D01*
X048238Y011449D01*
X048201Y011539D01*
X048132Y011608D01*
X048042Y011645D01*
X047945Y011645D01*
X047855Y011608D01*
X047786Y011539D01*
X047748Y011449D01*
X047748Y011351D01*
X047786Y011261D01*
X047855Y011192D01*
X047945Y011155D01*
X048042Y011155D01*
X047928Y011138D02*
X047577Y011138D01*
X047658Y011040D02*
X047786Y011040D01*
X047748Y010941D02*
X047691Y010941D01*
X047691Y010843D02*
X047752Y010843D01*
X047803Y010744D02*
X047651Y010744D01*
X047810Y011237D02*
X046676Y011237D01*
X046701Y011261D02*
X046738Y011351D01*
X046738Y011449D01*
X046701Y011539D01*
X046632Y011608D01*
X046542Y011645D01*
X046445Y011645D01*
X046355Y011608D01*
X046286Y011539D01*
X046248Y011449D01*
X046248Y011351D01*
X046286Y011261D01*
X046355Y011192D01*
X046445Y011155D01*
X046542Y011155D01*
X046632Y011192D01*
X046701Y011261D01*
X046732Y011335D02*
X047755Y011335D01*
X047748Y011434D02*
X046738Y011434D01*
X046704Y011532D02*
X047783Y011532D01*
X047910Y011631D02*
X046577Y011631D01*
X046542Y011655D02*
X046632Y011692D01*
X046701Y011761D01*
X046738Y011851D01*
X046738Y011949D01*
X046701Y012039D01*
X046632Y012108D01*
X046542Y012145D01*
X046445Y012145D01*
X046355Y012108D01*
X046286Y012039D01*
X046248Y011949D01*
X046248Y011851D01*
X046286Y011761D01*
X046355Y011692D01*
X046445Y011655D01*
X046542Y011655D01*
X046410Y011631D02*
X046077Y011631D01*
X046042Y011655D02*
X046132Y011692D01*
X046201Y011761D01*
X046238Y011851D01*
X046238Y011949D01*
X046201Y012039D01*
X046132Y012108D01*
X046042Y012145D01*
X045945Y012145D01*
X045855Y012108D01*
X045786Y012039D01*
X045748Y011949D01*
X045748Y011851D01*
X045786Y011761D01*
X045855Y011692D01*
X045945Y011655D01*
X046042Y011655D01*
X045910Y011631D02*
X035304Y011631D01*
X035332Y011642D02*
X035401Y011711D01*
X035438Y011801D01*
X035438Y011899D01*
X035401Y011989D01*
X035332Y012058D01*
X035242Y012095D01*
X035145Y012095D01*
X035055Y012058D01*
X034986Y011989D01*
X034948Y011899D01*
X034948Y011801D01*
X034986Y011711D01*
X035055Y011642D01*
X035145Y011605D01*
X035242Y011605D01*
X035332Y011642D01*
X035408Y011729D02*
X045818Y011729D01*
X045758Y011828D02*
X035438Y011828D01*
X035427Y011926D02*
X045748Y011926D01*
X045780Y012025D02*
X035365Y012025D01*
X035536Y012161D02*
X035605Y012092D01*
X035695Y012055D01*
X035792Y012055D01*
X035882Y012092D01*
X035951Y012161D01*
X035988Y012251D01*
X035988Y012349D01*
X035951Y012439D01*
X035882Y012508D01*
X035792Y012545D01*
X035695Y012545D01*
X035605Y012508D01*
X035536Y012439D01*
X035498Y012349D01*
X035498Y012251D01*
X035536Y012161D01*
X035574Y012123D02*
X034567Y012123D01*
X034601Y012089D02*
X034532Y012158D01*
X034442Y012195D01*
X034345Y012195D01*
X034255Y012158D01*
X034186Y012089D01*
X034148Y011999D01*
X034148Y011901D01*
X034186Y011811D01*
X034255Y011742D01*
X034345Y011705D01*
X034442Y011705D01*
X034532Y011742D01*
X034601Y011811D01*
X034638Y011901D01*
X034638Y011999D01*
X034601Y012089D01*
X034628Y012025D02*
X035021Y012025D01*
X034960Y011926D02*
X034638Y011926D01*
X034608Y011828D02*
X034948Y011828D01*
X034978Y011729D02*
X034500Y011729D01*
X034287Y011729D02*
X027573Y011729D01*
X027573Y011631D02*
X035083Y011631D01*
X035511Y012222D02*
X031949Y012222D01*
X031982Y012208D02*
X031892Y012245D01*
X031795Y012245D01*
X031705Y012208D01*
X031636Y012139D01*
X031598Y012049D01*
X031598Y011951D01*
X031636Y011861D01*
X031705Y011792D01*
X031795Y011755D01*
X031892Y011755D01*
X031982Y011792D01*
X032051Y011861D01*
X032088Y011951D01*
X032088Y012049D01*
X032051Y012139D01*
X031982Y012208D01*
X032058Y012123D02*
X034220Y012123D01*
X034159Y012025D02*
X032088Y012025D01*
X032078Y011926D02*
X034148Y011926D01*
X034179Y011828D02*
X032017Y011828D01*
X031669Y011828D02*
X027573Y011828D01*
X027573Y011926D02*
X031609Y011926D01*
X031598Y012025D02*
X031464Y012025D01*
X031432Y011992D02*
X031501Y012061D01*
X031538Y012151D01*
X031538Y012249D01*
X031501Y012339D01*
X031432Y012408D01*
X031342Y012445D01*
X031245Y012445D01*
X031155Y012408D01*
X031086Y012339D01*
X031048Y012249D01*
X031048Y012151D01*
X031086Y012061D01*
X031155Y011992D01*
X031245Y011955D01*
X031342Y011955D01*
X031432Y011992D01*
X031527Y012123D02*
X031629Y012123D01*
X031538Y012222D02*
X031738Y012222D01*
X031509Y012320D02*
X035498Y012320D01*
X035527Y012419D02*
X031406Y012419D01*
X031181Y012419D02*
X027573Y012419D01*
X027573Y012517D02*
X035627Y012517D01*
X035860Y012517D02*
X045777Y012517D01*
X045786Y012539D02*
X045748Y012449D01*
X045748Y012351D01*
X045786Y012261D01*
X045855Y012192D01*
X045945Y012155D01*
X046042Y012155D01*
X046132Y012192D01*
X046201Y012261D01*
X046238Y012351D01*
X046238Y012449D01*
X046201Y012539D01*
X046132Y012608D01*
X046042Y012645D01*
X045945Y012645D01*
X045855Y012608D01*
X045786Y012539D01*
X045873Y012616D02*
X027573Y012616D01*
X027573Y012714D02*
X047833Y012714D01*
X047855Y012692D02*
X047945Y012655D01*
X048042Y012655D01*
X048132Y012692D01*
X048201Y012761D01*
X048238Y012851D01*
X048238Y012949D01*
X048201Y013039D01*
X048132Y013108D01*
X048042Y013145D01*
X047945Y013145D01*
X047855Y013108D01*
X027573Y013108D01*
X027573Y013010D02*
X047773Y013010D01*
X047786Y013039D02*
X047748Y012949D01*
X047748Y012851D01*
X047786Y012761D01*
X047855Y012692D01*
X047873Y012616D02*
X046113Y012616D01*
X046210Y012517D02*
X047777Y012517D01*
X047786Y012539D02*
X047748Y012449D01*
X047748Y012351D01*
X047786Y012261D01*
X047855Y012192D01*
X047945Y012155D01*
X048042Y012155D01*
X048132Y012192D01*
X048201Y012261D01*
X048238Y012351D01*
X048238Y012449D01*
X048201Y012539D01*
X048132Y012608D01*
X048042Y012645D01*
X047945Y012645D01*
X047855Y012608D01*
X047786Y012539D01*
X047748Y012419D02*
X046238Y012419D01*
X046225Y012320D02*
X047761Y012320D01*
X047825Y012222D02*
X046161Y012222D01*
X046095Y012123D02*
X046392Y012123D01*
X046280Y012025D02*
X046207Y012025D01*
X046238Y011926D02*
X046248Y011926D01*
X046258Y011828D02*
X046228Y011828D01*
X046169Y011729D02*
X046318Y011729D01*
X046283Y011532D02*
X046204Y011532D01*
X046238Y011434D02*
X046248Y011434D01*
X046255Y011335D02*
X046232Y011335D01*
X046176Y011237D02*
X046310Y011237D01*
X046669Y011729D02*
X047818Y011729D01*
X047786Y011761D02*
X047855Y011692D01*
X047945Y011655D01*
X048042Y011655D01*
X048132Y011692D01*
X048201Y011761D01*
X048238Y011851D01*
X048238Y011949D01*
X048201Y012039D01*
X048132Y012108D01*
X048042Y012145D01*
X047945Y012145D01*
X047855Y012108D01*
X047786Y012039D01*
X047748Y011949D01*
X047748Y011851D01*
X047786Y011761D01*
X047758Y011828D02*
X046728Y011828D01*
X046738Y011926D02*
X047748Y011926D01*
X047780Y012025D02*
X046707Y012025D01*
X046595Y012123D02*
X047892Y012123D01*
X048095Y012123D02*
X054506Y012123D01*
X054506Y012025D02*
X048207Y012025D01*
X048238Y011926D02*
X054506Y011926D01*
X054506Y011828D02*
X049452Y011828D01*
X049403Y011848D02*
X049284Y011848D01*
X049174Y011803D01*
X049091Y011719D01*
X049045Y011609D01*
X049045Y011491D01*
X049091Y011381D01*
X049174Y011297D01*
X049284Y011252D01*
X049403Y011252D01*
X049512Y011297D01*
X049596Y011381D01*
X049641Y011491D01*
X049641Y011609D01*
X049596Y011719D01*
X049512Y011803D01*
X049403Y011848D01*
X049234Y011828D02*
X048228Y011828D01*
X048169Y011729D02*
X049101Y011729D01*
X049054Y011631D02*
X048077Y011631D01*
X048204Y011532D02*
X049045Y011532D01*
X049069Y011434D02*
X048238Y011434D01*
X048232Y011335D02*
X049137Y011335D01*
X049550Y011335D02*
X054506Y011335D01*
X054506Y011237D02*
X048176Y011237D01*
X048161Y012222D02*
X054506Y012222D01*
X054506Y012320D02*
X048225Y012320D01*
X048238Y012419D02*
X054506Y012419D01*
X054506Y012517D02*
X048210Y012517D01*
X048113Y012616D02*
X054506Y012616D01*
X054506Y012714D02*
X048154Y012714D01*
X048222Y012813D02*
X054506Y012813D01*
X054506Y012911D02*
X048238Y012911D01*
X048213Y013010D02*
X054506Y013010D01*
X054506Y013108D02*
X048131Y013108D01*
X048132Y013192D02*
X048201Y013261D01*
X048238Y013351D01*
X048238Y013449D01*
X048201Y013539D01*
X048132Y013608D01*
X048042Y013645D01*
X047945Y013645D01*
X047855Y013608D01*
X047786Y013539D01*
X047748Y013449D01*
X047748Y013351D01*
X047786Y013261D01*
X047855Y013192D01*
X047945Y013155D01*
X048042Y013155D01*
X048132Y013192D01*
X048146Y013207D02*
X054506Y013207D01*
X054506Y013305D02*
X048219Y013305D01*
X048238Y013404D02*
X054506Y013404D01*
X054506Y013502D02*
X048216Y013502D01*
X048139Y013601D02*
X054506Y013601D01*
X054506Y013699D02*
X048139Y013699D01*
X048132Y013692D02*
X048201Y013761D01*
X048238Y013851D01*
X048238Y013949D01*
X048201Y014039D01*
X048132Y014108D01*
X048042Y014145D01*
X047945Y014145D01*
X047855Y014108D01*
X047786Y014039D01*
X047748Y013949D01*
X047748Y013851D01*
X047786Y013761D01*
X047855Y013692D01*
X047945Y013655D01*
X048042Y013655D01*
X048132Y013692D01*
X048216Y013798D02*
X054506Y013798D01*
X054506Y013896D02*
X048238Y013896D01*
X048219Y013995D02*
X054506Y013995D01*
X054506Y014093D02*
X048147Y014093D01*
X048130Y014192D02*
X054506Y014192D01*
X054506Y014290D02*
X048213Y014290D01*
X048201Y014261D02*
X048238Y014351D01*
X048238Y014449D01*
X048201Y014539D01*
X048132Y014608D01*
X048042Y014645D01*
X047945Y014645D01*
X047855Y014608D01*
X047786Y014539D01*
X047748Y014449D01*
X047748Y014351D01*
X047786Y014261D01*
X047855Y014192D01*
X047945Y014155D01*
X048042Y014155D01*
X048132Y014192D01*
X048201Y014261D01*
X048238Y014389D02*
X054506Y014389D01*
X054506Y014487D02*
X048222Y014487D01*
X048154Y014586D02*
X054506Y014586D01*
X054506Y014684D02*
X027573Y014684D01*
X027573Y014586D02*
X047832Y014586D01*
X047764Y014487D02*
X027573Y014487D01*
X027573Y014389D02*
X047748Y014389D01*
X047774Y014290D02*
X027573Y014290D01*
X027573Y014192D02*
X047856Y014192D01*
X047840Y014093D02*
X027573Y014093D01*
X027573Y013995D02*
X047767Y013995D01*
X047748Y013896D02*
X027573Y013896D01*
X027573Y013798D02*
X047771Y013798D01*
X047848Y013699D02*
X027573Y013699D01*
X027573Y013601D02*
X047847Y013601D01*
X047770Y013502D02*
X027573Y013502D01*
X027573Y013404D02*
X047748Y013404D01*
X047767Y013305D02*
X027573Y013305D01*
X027573Y013207D02*
X047840Y013207D01*
X047855Y013108D02*
X047786Y013039D01*
X047748Y012911D02*
X027573Y012911D01*
X027573Y012813D02*
X047764Y012813D01*
X049586Y011729D02*
X054506Y011729D01*
X054506Y011631D02*
X049633Y011631D01*
X049641Y011532D02*
X054506Y011532D01*
X054506Y011434D02*
X049618Y011434D01*
X051909Y008971D02*
X054506Y008971D01*
X054506Y008873D02*
X052123Y008873D01*
X052222Y008774D02*
X054506Y008774D01*
X054506Y008676D02*
X052286Y008676D01*
X052327Y008577D02*
X054506Y008577D01*
X054506Y008479D02*
X052346Y008479D01*
X052346Y008380D02*
X054506Y008380D01*
X054506Y008282D02*
X052334Y008282D01*
X052293Y008183D02*
X054506Y008183D01*
X054506Y008085D02*
X052239Y008085D01*
X052141Y007986D02*
X054506Y007986D01*
X054506Y007888D02*
X051951Y007888D01*
X054506Y009661D02*
X035500Y009661D01*
X035538Y009759D02*
X054506Y009759D01*
X054506Y009858D02*
X035535Y009858D01*
X035484Y009956D02*
X035792Y009956D01*
X035895Y009956D02*
X054506Y009956D01*
X054506Y010055D02*
X036044Y010055D01*
X036088Y010153D02*
X054506Y010153D01*
X054506Y014783D02*
X032022Y014783D01*
X032051Y014811D02*
X032088Y014901D01*
X032088Y014999D01*
X032051Y015089D01*
X031982Y015158D01*
X031892Y015195D01*
X031795Y015195D01*
X031705Y015158D01*
X031636Y015089D01*
X031598Y014999D01*
X031598Y014901D01*
X031636Y014811D01*
X031705Y014742D01*
X031795Y014705D01*
X031892Y014705D01*
X031982Y014742D01*
X032051Y014811D01*
X032080Y014881D02*
X054506Y014881D01*
X054506Y014980D02*
X032088Y014980D01*
X032055Y015078D02*
X054506Y015078D01*
X054506Y015177D02*
X047291Y015177D01*
X047262Y015147D02*
X047346Y015231D01*
X047391Y015341D01*
X047391Y015459D01*
X047346Y015569D01*
X047262Y015653D01*
X047153Y015698D01*
X047034Y015698D01*
X046924Y015653D01*
X046841Y015569D01*
X046795Y015459D01*
X046795Y015341D01*
X046841Y015231D01*
X046924Y015147D01*
X047034Y015102D01*
X047153Y015102D01*
X047262Y015147D01*
X047364Y015275D02*
X054506Y015275D01*
X054506Y015374D02*
X047391Y015374D01*
X047386Y015472D02*
X054506Y015472D01*
X054506Y015571D02*
X047344Y015571D01*
X047223Y015669D02*
X054506Y015669D01*
X054506Y015768D02*
X046447Y015768D01*
X046446Y015769D02*
X046362Y015853D01*
X046253Y015898D01*
X046134Y015898D01*
X046024Y015853D01*
X045941Y015769D01*
X045895Y015659D01*
X045895Y015541D01*
X045941Y015431D01*
X046024Y015347D01*
X046134Y015302D01*
X046253Y015302D01*
X046362Y015347D01*
X046446Y015431D01*
X046491Y015541D01*
X046491Y015659D01*
X046446Y015769D01*
X046487Y015669D02*
X046964Y015669D01*
X046842Y015571D02*
X046491Y015571D01*
X046463Y015472D02*
X046800Y015472D01*
X046795Y015374D02*
X046388Y015374D01*
X045998Y015374D02*
X029937Y015374D01*
X029982Y015392D02*
X030051Y015461D01*
X030088Y015551D01*
X030088Y015649D01*
X030051Y015739D01*
X029982Y015808D01*
X029892Y015845D01*
X029795Y015845D01*
X029705Y015808D01*
X029636Y015739D01*
X029598Y015649D01*
X029598Y015551D01*
X029636Y015461D01*
X029705Y015392D01*
X029795Y015355D01*
X029892Y015355D01*
X029982Y015392D01*
X030055Y015472D02*
X045924Y015472D01*
X045895Y015571D02*
X030088Y015571D01*
X030080Y015669D02*
X045899Y015669D01*
X045940Y015768D02*
X030022Y015768D01*
X029664Y015768D02*
X027573Y015768D01*
X027573Y015866D02*
X046057Y015866D01*
X046330Y015866D02*
X054506Y015866D01*
X054506Y015965D02*
X032565Y015965D01*
X032542Y015955D02*
X032632Y015992D01*
X032701Y016061D01*
X032738Y016151D01*
X032738Y016249D01*
X032701Y016339D01*
X032663Y016376D01*
X032663Y018974D01*
X032701Y019011D01*
X032738Y019101D01*
X032738Y019199D01*
X032701Y019289D01*
X032632Y019358D01*
X032542Y019395D01*
X032445Y019395D01*
X032355Y019358D01*
X032286Y019289D01*
X032248Y019199D01*
X032248Y019101D01*
X032286Y019011D01*
X032323Y018974D01*
X032323Y016376D01*
X032286Y016339D01*
X032248Y016249D01*
X032248Y016151D01*
X032286Y016061D01*
X032355Y015992D01*
X032445Y015955D01*
X032542Y015955D01*
X032422Y015965D02*
X027573Y015965D01*
X027573Y016063D02*
X032285Y016063D01*
X032248Y016162D02*
X027573Y016162D01*
X027573Y016260D02*
X032253Y016260D01*
X032305Y016359D02*
X027573Y016359D01*
X027573Y016457D02*
X032323Y016457D01*
X032323Y016556D02*
X027573Y016556D01*
X027573Y016654D02*
X032323Y016654D01*
X032323Y016753D02*
X027573Y016753D01*
X027573Y016851D02*
X032323Y016851D01*
X032323Y016950D02*
X027573Y016950D01*
X027573Y017048D02*
X032323Y017048D01*
X032323Y017147D02*
X027573Y017147D01*
X027573Y017245D02*
X032323Y017245D01*
X032323Y017344D02*
X027573Y017344D01*
X027573Y017442D02*
X032323Y017442D01*
X032323Y017541D02*
X027573Y017541D01*
X027573Y017639D02*
X028262Y017639D01*
X028255Y017642D02*
X028345Y017605D01*
X028442Y017605D01*
X028532Y017642D01*
X028601Y017711D01*
X028638Y017801D01*
X028638Y017899D01*
X028601Y017989D01*
X028532Y018058D01*
X028442Y018095D01*
X028345Y018095D01*
X028255Y018058D01*
X028186Y017989D01*
X028148Y017899D01*
X028148Y017801D01*
X028186Y017711D01*
X028255Y017642D01*
X028175Y017738D02*
X027573Y017738D01*
X027573Y017836D02*
X028148Y017836D01*
X028163Y017935D02*
X027573Y017935D01*
X027573Y018033D02*
X028230Y018033D01*
X028386Y018211D02*
X028455Y018142D01*
X028545Y018105D01*
X028642Y018105D01*
X028732Y018142D01*
X028801Y018211D01*
X028838Y018301D01*
X028838Y018399D01*
X028801Y018489D01*
X028732Y018558D01*
X028642Y018595D01*
X028545Y018595D01*
X028455Y018558D01*
X028386Y018489D01*
X028348Y018399D01*
X028348Y018301D01*
X028386Y018211D01*
X028378Y018230D02*
X027573Y018230D01*
X027573Y018132D02*
X028480Y018132D01*
X028557Y018033D02*
X032323Y018033D01*
X032323Y017935D02*
X028623Y017935D01*
X028638Y017836D02*
X032323Y017836D01*
X032323Y017738D02*
X028612Y017738D01*
X028524Y017639D02*
X032323Y017639D01*
X032663Y017639D02*
X035565Y017639D01*
X035548Y017599D02*
X035548Y017501D01*
X035586Y017411D01*
X035655Y017342D01*
X035745Y017305D01*
X035842Y017305D01*
X035932Y017342D01*
X036001Y017411D01*
X036038Y017501D01*
X036038Y017599D01*
X036001Y017689D01*
X035932Y017758D01*
X035842Y017795D01*
X035745Y017795D01*
X035655Y017758D01*
X035586Y017689D01*
X035548Y017599D01*
X035548Y017541D02*
X032663Y017541D01*
X032663Y017442D02*
X035573Y017442D01*
X035653Y017344D02*
X032663Y017344D01*
X032663Y017245D02*
X054506Y017245D01*
X054506Y017147D02*
X032663Y017147D01*
X032663Y017048D02*
X054506Y017048D01*
X054506Y016950D02*
X032663Y016950D01*
X032663Y016851D02*
X054506Y016851D01*
X054506Y016753D02*
X032663Y016753D01*
X032663Y016654D02*
X035001Y016654D01*
X034986Y016639D02*
X034948Y016549D01*
X034948Y016451D01*
X034986Y016361D01*
X035055Y016292D01*
X035145Y016255D01*
X035242Y016255D01*
X035332Y016292D01*
X035401Y016361D01*
X035438Y016451D01*
X035438Y016549D01*
X035401Y016639D01*
X035332Y016708D01*
X035242Y016745D01*
X035145Y016745D01*
X035055Y016708D01*
X034986Y016639D01*
X034951Y016556D02*
X032663Y016556D01*
X032663Y016457D02*
X034948Y016457D01*
X034988Y016359D02*
X032681Y016359D01*
X032734Y016260D02*
X035132Y016260D01*
X035254Y016260D02*
X054506Y016260D01*
X054506Y016162D02*
X032738Y016162D01*
X032702Y016063D02*
X054506Y016063D01*
X054506Y016359D02*
X035398Y016359D01*
X035438Y016457D02*
X054506Y016457D01*
X054506Y016556D02*
X035435Y016556D01*
X035386Y016654D02*
X054506Y016654D01*
X054506Y017344D02*
X035933Y017344D01*
X036014Y017442D02*
X044248Y017442D01*
X044213Y017456D02*
X044427Y017368D01*
X044659Y017368D01*
X044873Y017456D01*
X045037Y017620D01*
X045126Y017834D01*
X045126Y018066D01*
X045037Y018280D01*
X044873Y018444D01*
X044659Y018532D01*
X044427Y018532D01*
X044213Y018444D01*
X044050Y018280D01*
X043961Y018066D01*
X043961Y017834D01*
X044050Y017620D01*
X044213Y017456D01*
X044129Y017541D02*
X036038Y017541D01*
X036022Y017639D02*
X044042Y017639D01*
X044001Y017738D02*
X038621Y017738D01*
X038632Y017742D02*
X038701Y017811D01*
X038738Y017901D01*
X038738Y017999D01*
X038701Y018089D01*
X038632Y018158D01*
X038542Y018195D01*
X038445Y018195D01*
X038355Y018158D01*
X038286Y018089D01*
X038248Y017999D01*
X038248Y017901D01*
X038286Y017811D01*
X038355Y017742D01*
X038445Y017705D01*
X038542Y017705D01*
X038632Y017742D01*
X038711Y017836D02*
X043961Y017836D01*
X043961Y017935D02*
X038738Y017935D01*
X038724Y018033D02*
X043961Y018033D01*
X043988Y018132D02*
X038658Y018132D01*
X038328Y018132D02*
X032663Y018132D01*
X032663Y018230D02*
X044029Y018230D01*
X044098Y018329D02*
X032663Y018329D01*
X032663Y018427D02*
X033970Y018427D01*
X033936Y018461D02*
X034005Y018392D01*
X034095Y018355D01*
X034192Y018355D01*
X034282Y018392D01*
X034351Y018461D01*
X034388Y018551D01*
X034388Y018649D01*
X034351Y018739D01*
X034282Y018808D01*
X034192Y018845D01*
X034095Y018845D01*
X034005Y018808D01*
X033936Y018739D01*
X033898Y018649D01*
X033898Y018551D01*
X033936Y018461D01*
X033909Y018526D02*
X032663Y018526D01*
X032663Y018624D02*
X033898Y018624D01*
X033929Y018723D02*
X032663Y018723D01*
X032663Y018821D02*
X034037Y018821D01*
X034250Y018821D02*
X034848Y018821D01*
X034848Y018849D02*
X034848Y018751D01*
X034886Y018661D01*
X034955Y018592D01*
X035045Y018555D01*
X035142Y018555D01*
X035232Y018592D01*
X035301Y018661D01*
X035338Y018751D01*
X035338Y018849D01*
X035301Y018939D01*
X035232Y019008D01*
X035142Y019045D01*
X035045Y019045D01*
X034955Y019008D01*
X034886Y018939D01*
X034848Y018849D01*
X034878Y018920D02*
X032663Y018920D01*
X032704Y019018D02*
X034980Y019018D01*
X035207Y019018D02*
X054506Y019018D01*
X054506Y018920D02*
X035309Y018920D01*
X035338Y018821D02*
X054506Y018821D01*
X054506Y018723D02*
X035326Y018723D01*
X035264Y018624D02*
X054506Y018624D01*
X054506Y018526D02*
X044676Y018526D01*
X044890Y018427D02*
X054506Y018427D01*
X054506Y018329D02*
X044988Y018329D01*
X045058Y018230D02*
X054506Y018230D01*
X054506Y018132D02*
X045099Y018132D01*
X045126Y018033D02*
X054506Y018033D01*
X054506Y017935D02*
X045126Y017935D01*
X045126Y017836D02*
X054506Y017836D01*
X054506Y017738D02*
X045086Y017738D01*
X045045Y017639D02*
X054506Y017639D01*
X054506Y017541D02*
X044958Y017541D01*
X044839Y017442D02*
X054506Y017442D01*
X054506Y019117D02*
X032738Y019117D01*
X032732Y019215D02*
X054506Y019215D01*
X054506Y019314D02*
X051628Y019314D01*
X051612Y019297D02*
X051696Y019381D01*
X051741Y019491D01*
X051741Y019609D01*
X054506Y019609D01*
X054506Y019511D02*
X051741Y019511D01*
X051741Y019609D02*
X051696Y019719D01*
X051612Y019803D01*
X051503Y019848D01*
X051384Y019848D01*
X051291Y019810D01*
X051246Y019919D01*
X051165Y020000D01*
X051246Y020081D01*
X051291Y020191D01*
X051291Y020309D01*
X051246Y020419D01*
X051165Y020500D01*
X051246Y020581D01*
X051291Y020691D01*
X051291Y020809D01*
X051246Y020919D01*
X051165Y021000D01*
X051246Y021081D01*
X051291Y021191D01*
X051291Y021309D01*
X051246Y021419D01*
X051165Y021500D01*
X051246Y021581D01*
X051291Y021691D01*
X051291Y021809D01*
X051246Y021919D01*
X051165Y022000D01*
X051246Y022081D01*
X051291Y022191D01*
X051291Y022309D01*
X051246Y022419D01*
X051165Y022500D01*
X051246Y022581D01*
X051274Y022648D01*
X051324Y022597D01*
X051434Y022552D01*
X051553Y022552D01*
X051662Y022597D01*
X051746Y022681D01*
X051791Y022791D01*
X051791Y022909D01*
X051746Y023019D01*
X051662Y023103D01*
X051553Y023148D01*
X051434Y023148D01*
X051324Y023103D01*
X051241Y023019D01*
X051213Y022952D01*
X051162Y023003D01*
X051053Y023048D01*
X050934Y023048D01*
X050824Y023003D01*
X050768Y022947D01*
X050712Y023003D01*
X050603Y023048D01*
X050484Y023048D01*
X050374Y023003D01*
X050291Y022919D01*
X050245Y022809D01*
X050245Y022691D01*
X050291Y022581D01*
X050372Y022500D01*
X050291Y022419D01*
X050245Y022309D01*
X050245Y022191D01*
X050291Y022081D01*
X050372Y022000D01*
X050291Y021919D01*
X050245Y021809D01*
X050245Y021691D01*
X050291Y021581D01*
X050372Y021500D01*
X050291Y021419D01*
X050245Y021309D01*
X050245Y021191D01*
X050291Y021081D01*
X050372Y021000D01*
X050291Y020919D01*
X050245Y020809D01*
X050245Y020691D01*
X050291Y020581D01*
X050372Y020500D01*
X050291Y020419D01*
X050245Y020309D01*
X050245Y020191D01*
X050291Y020081D01*
X050372Y020000D01*
X050291Y019919D01*
X050245Y019809D01*
X050245Y019691D01*
X050291Y019581D01*
X050374Y019497D01*
X050484Y019452D01*
X050603Y019452D01*
X050712Y019497D01*
X050768Y019553D01*
X050824Y019497D01*
X050934Y019452D01*
X051053Y019452D01*
X051145Y019490D01*
X051191Y019381D01*
X051274Y019297D01*
X051384Y019252D01*
X051503Y019252D01*
X051612Y019297D01*
X051709Y019412D02*
X054506Y019412D01*
X054506Y019708D02*
X051701Y019708D01*
X051604Y019806D02*
X054506Y019806D01*
X054506Y019905D02*
X051252Y019905D01*
X051168Y020003D02*
X054506Y020003D01*
X054506Y020102D02*
X051254Y020102D01*
X051291Y020200D02*
X054506Y020200D01*
X054506Y020299D02*
X051291Y020299D01*
X051255Y020397D02*
X054506Y020397D01*
X054506Y020496D02*
X051169Y020496D01*
X051251Y020594D02*
X054506Y020594D01*
X054506Y020693D02*
X051291Y020693D01*
X051291Y020791D02*
X054506Y020791D01*
X054506Y020890D02*
X051258Y020890D01*
X051177Y020988D02*
X054506Y020988D01*
X054506Y021087D02*
X051248Y021087D01*
X051289Y021185D02*
X054506Y021185D01*
X054506Y021284D02*
X051291Y021284D01*
X051261Y021382D02*
X054506Y021382D01*
X054506Y021481D02*
X051184Y021481D01*
X051244Y021579D02*
X054506Y021579D01*
X054506Y021678D02*
X051286Y021678D01*
X051291Y021776D02*
X054506Y021776D01*
X054506Y021875D02*
X051264Y021875D01*
X051192Y021973D02*
X054506Y021973D01*
X054506Y022072D02*
X051236Y022072D01*
X051283Y022170D02*
X054506Y022170D01*
X054506Y022269D02*
X051291Y022269D01*
X051267Y022367D02*
X054506Y022367D01*
X054506Y022466D02*
X051199Y022466D01*
X051229Y022564D02*
X051405Y022564D01*
X051582Y022564D02*
X054506Y022564D01*
X054506Y022663D02*
X051727Y022663D01*
X051779Y022761D02*
X054506Y022761D01*
X054506Y022860D02*
X051791Y022860D01*
X051771Y022958D02*
X054506Y022958D01*
X054506Y023057D02*
X051708Y023057D01*
X051278Y023057D02*
X027573Y023057D01*
X027573Y023155D02*
X054506Y023155D01*
X054506Y023254D02*
X027573Y023254D01*
X027573Y023352D02*
X054506Y023352D01*
X054506Y023451D02*
X027573Y023451D01*
X027573Y023549D02*
X054506Y023549D01*
X054506Y023648D02*
X034537Y023648D01*
X034551Y023661D02*
X034588Y023751D01*
X034588Y023849D01*
X034551Y023939D01*
X034482Y024008D01*
X034392Y024045D01*
X034295Y024045D01*
X034205Y024008D01*
X034136Y023939D01*
X034098Y023849D01*
X034098Y023751D01*
X034136Y023661D01*
X034205Y023592D01*
X034295Y023555D01*
X034392Y023555D01*
X034482Y023592D01*
X034551Y023661D01*
X034586Y023746D02*
X054506Y023746D01*
X054506Y023845D02*
X034588Y023845D01*
X034547Y023943D02*
X054506Y023943D01*
X054506Y024042D02*
X034400Y024042D01*
X034286Y024042D02*
X031764Y024042D01*
X031751Y024011D02*
X031788Y024101D01*
X031788Y024199D01*
X031751Y024289D01*
X031682Y024358D01*
X031592Y024395D01*
X031495Y024395D01*
X031405Y024358D01*
X031336Y024289D01*
X031298Y024199D01*
X031298Y024101D01*
X031336Y024011D01*
X031405Y023942D01*
X031495Y023905D01*
X031592Y023905D01*
X031682Y023942D01*
X031751Y024011D01*
X031683Y023943D02*
X034140Y023943D01*
X034098Y023845D02*
X027573Y023845D01*
X027573Y023943D02*
X031404Y023943D01*
X031323Y024042D02*
X027573Y024042D01*
X027573Y024140D02*
X031298Y024140D01*
X031315Y024239D02*
X027573Y024239D01*
X027573Y024337D02*
X031384Y024337D01*
X031703Y024337D02*
X035448Y024337D01*
X035448Y024301D02*
X035486Y024211D01*
X035555Y024142D01*
X035645Y024105D01*
X035742Y024105D01*
X035832Y024142D01*
X035901Y024211D01*
X035938Y024301D01*
X035938Y024399D01*
X035901Y024489D01*
X035832Y024558D01*
X035742Y024595D01*
X035645Y024595D01*
X035555Y024558D01*
X035486Y024489D01*
X035448Y024399D01*
X035448Y024301D01*
X035474Y024239D02*
X031772Y024239D01*
X031788Y024140D02*
X035560Y024140D01*
X035827Y024140D02*
X054506Y024140D01*
X054506Y024239D02*
X035912Y024239D01*
X035938Y024337D02*
X054506Y024337D01*
X054506Y024436D02*
X035923Y024436D01*
X035856Y024534D02*
X054506Y024534D01*
X054506Y024633D02*
X029659Y024633D01*
X029682Y024642D02*
X029751Y024711D01*
X029788Y024801D01*
X029788Y024899D01*
X029751Y024989D01*
X029682Y025058D01*
X029592Y025095D01*
X029495Y025095D01*
X029405Y025058D01*
X029336Y024989D01*
X029298Y024899D01*
X029298Y024801D01*
X029336Y024711D01*
X029405Y024642D01*
X029495Y024605D01*
X029592Y024605D01*
X029682Y024642D01*
X029759Y024731D02*
X054506Y024731D01*
X054506Y024830D02*
X029788Y024830D01*
X029776Y024928D02*
X054506Y024928D01*
X054506Y025027D02*
X029713Y025027D01*
X029373Y025027D02*
X027573Y025027D01*
X027573Y025125D02*
X054506Y025125D01*
X054506Y025224D02*
X027573Y025224D01*
X027573Y025322D02*
X034153Y025322D01*
X034195Y025305D02*
X034292Y025305D01*
X034382Y025342D01*
X034451Y025411D01*
X034488Y025501D01*
X034488Y025599D01*
X034451Y025689D01*
X034382Y025758D01*
X034292Y025795D01*
X034195Y025795D01*
X034105Y025758D01*
X034036Y025689D01*
X033998Y025599D01*
X033998Y025501D01*
X034036Y025411D01*
X034105Y025342D01*
X034195Y025305D01*
X034333Y025322D02*
X054506Y025322D01*
X054506Y025421D02*
X034455Y025421D01*
X034488Y025519D02*
X054506Y025519D01*
X054506Y025618D02*
X034481Y025618D01*
X034424Y025716D02*
X054506Y025716D01*
X054506Y025815D02*
X032202Y025815D01*
X032201Y025811D02*
X032238Y025901D01*
X032238Y025999D01*
X032201Y026089D01*
X032132Y026158D01*
X032042Y026195D01*
X031945Y026195D01*
X031855Y026158D01*
X031786Y026089D01*
X031748Y025999D01*
X031748Y025901D01*
X031786Y025811D01*
X031855Y025742D01*
X031945Y025705D01*
X032042Y025705D01*
X032132Y025742D01*
X032201Y025811D01*
X032238Y025913D02*
X054506Y025913D01*
X054506Y026012D02*
X032233Y026012D01*
X032180Y026110D02*
X054506Y026110D01*
X054506Y026209D02*
X027573Y026209D01*
X027573Y026307D02*
X054506Y026307D01*
X054506Y026406D02*
X027573Y026406D01*
X027573Y026504D02*
X054506Y026504D01*
X054506Y026603D02*
X027533Y026603D01*
X027419Y026701D02*
X052701Y026701D01*
X052824Y026650D02*
X053162Y026650D01*
X053475Y026779D01*
X053714Y027019D01*
X053843Y027331D01*
X053843Y027669D01*
X053714Y027981D01*
X053475Y028221D01*
X053162Y028350D01*
X052824Y028350D01*
X052512Y028221D01*
X052273Y027981D01*
X052143Y027669D01*
X052143Y027331D01*
X052273Y027019D01*
X052512Y026779D01*
X052824Y026650D01*
X052492Y026800D02*
X019593Y026800D01*
X019593Y026898D02*
X052393Y026898D01*
X052295Y026997D02*
X019593Y026997D01*
X019593Y027095D02*
X052241Y027095D01*
X052200Y027194D02*
X019593Y027194D01*
X019593Y027292D02*
X052159Y027292D01*
X052143Y027391D02*
X019593Y027391D01*
X019593Y027489D02*
X052143Y027489D01*
X052143Y027588D02*
X019593Y027588D01*
X019593Y027686D02*
X052150Y027686D01*
X052191Y027785D02*
X007480Y027785D01*
X007578Y027883D02*
X052232Y027883D01*
X052273Y027982D02*
X007677Y027982D01*
X007739Y028080D02*
X052371Y028080D01*
X052470Y028179D02*
X007780Y028179D01*
X007821Y028277D02*
X052648Y028277D01*
X052864Y028925D02*
X053148Y028925D01*
X053411Y029034D01*
X053612Y029235D01*
X053721Y029498D01*
X053721Y029782D01*
X053612Y030045D01*
X053411Y030246D01*
X053148Y030355D01*
X052864Y030355D01*
X052601Y030246D01*
X052400Y030045D01*
X052291Y029782D01*
X052291Y029498D01*
X052400Y029235D01*
X052601Y029034D01*
X052864Y028925D01*
X052763Y028967D02*
X049223Y028967D01*
X049123Y028925D02*
X049386Y029034D01*
X049587Y029235D01*
X049696Y029498D01*
X049696Y029782D01*
X049587Y030045D01*
X049386Y030246D01*
X049123Y030355D01*
X048839Y030355D01*
X048576Y030246D01*
X048375Y030045D01*
X048266Y029782D01*
X048266Y029498D01*
X048375Y029235D01*
X048576Y029034D01*
X048839Y028925D01*
X049123Y028925D01*
X049417Y029065D02*
X052570Y029065D01*
X052471Y029164D02*
X049516Y029164D01*
X049598Y029262D02*
X052388Y029262D01*
X052348Y029361D02*
X049639Y029361D01*
X049680Y029459D02*
X052307Y029459D01*
X052291Y029558D02*
X049696Y029558D01*
X049696Y029656D02*
X052291Y029656D01*
X052291Y029755D02*
X049696Y029755D01*
X049666Y029853D02*
X052320Y029853D01*
X052361Y029952D02*
X049626Y029952D01*
X049582Y030050D02*
X052405Y030050D01*
X052503Y030149D02*
X049483Y030149D01*
X049384Y030247D02*
X052603Y030247D01*
X052841Y030346D02*
X049146Y030346D01*
X048816Y030346D02*
X046971Y030346D01*
X046948Y030355D02*
X046664Y030355D01*
X046401Y030246D01*
X046200Y030045D01*
X046091Y029782D01*
X046091Y029498D01*
X046200Y029235D01*
X046401Y029034D01*
X046664Y028925D01*
X046948Y028925D01*
X047211Y029034D01*
X047412Y029235D01*
X047521Y029498D01*
X047521Y029782D01*
X047412Y030045D01*
X047211Y030246D01*
X046948Y030355D01*
X047209Y030247D02*
X048578Y030247D01*
X048478Y030149D02*
X047308Y030149D01*
X047407Y030050D02*
X048380Y030050D01*
X048336Y029952D02*
X047451Y029952D01*
X047491Y029853D02*
X048295Y029853D01*
X048266Y029755D02*
X047521Y029755D01*
X047521Y029656D02*
X048266Y029656D01*
X048266Y029558D02*
X047521Y029558D01*
X047505Y029459D02*
X048282Y029459D01*
X048323Y029361D02*
X047464Y029361D01*
X047423Y029262D02*
X048363Y029262D01*
X048446Y029164D02*
X047341Y029164D01*
X047242Y029065D02*
X048545Y029065D01*
X048738Y028967D02*
X047048Y028967D01*
X046563Y028967D02*
X043023Y028967D01*
X042923Y028925D02*
X043186Y029034D01*
X043387Y029235D01*
X043496Y029498D01*
X043496Y029782D01*
X043387Y030045D01*
X043186Y030246D01*
X042923Y030355D01*
X042639Y030355D01*
X042376Y030246D01*
X042175Y030045D01*
X042066Y029782D01*
X042066Y029498D01*
X042175Y029235D01*
X042376Y029034D01*
X042639Y028925D01*
X042923Y028925D01*
X043217Y029065D02*
X046370Y029065D01*
X046271Y029164D02*
X043316Y029164D01*
X043398Y029262D02*
X046188Y029262D01*
X046148Y029361D02*
X043439Y029361D01*
X043480Y029459D02*
X046107Y029459D01*
X046091Y029558D02*
X043496Y029558D01*
X043496Y029656D02*
X046091Y029656D01*
X046091Y029755D02*
X043496Y029755D01*
X043466Y029853D02*
X046120Y029853D01*
X046161Y029952D02*
X043426Y029952D01*
X043382Y030050D02*
X046205Y030050D01*
X046303Y030149D02*
X043283Y030149D01*
X043184Y030247D02*
X046403Y030247D01*
X046641Y030346D02*
X042946Y030346D01*
X042616Y030346D02*
X040771Y030346D01*
X040748Y030355D02*
X040464Y030355D01*
X040201Y030246D01*
X040000Y030045D01*
X039891Y029782D01*
X039891Y029498D01*
X040000Y029235D01*
X040201Y029034D01*
X040464Y028925D01*
X040748Y028925D01*
X041011Y029034D01*
X041212Y029235D01*
X041321Y029498D01*
X041321Y029782D01*
X041212Y030045D01*
X041011Y030246D01*
X040748Y030355D01*
X041009Y030247D02*
X042378Y030247D01*
X042278Y030149D02*
X041108Y030149D01*
X041207Y030050D02*
X042180Y030050D01*
X042136Y029952D02*
X041251Y029952D01*
X041291Y029853D02*
X042095Y029853D01*
X042066Y029755D02*
X041321Y029755D01*
X041321Y029656D02*
X042066Y029656D01*
X042066Y029558D02*
X041321Y029558D01*
X041305Y029459D02*
X042082Y029459D01*
X042123Y029361D02*
X041264Y029361D01*
X041223Y029262D02*
X042163Y029262D01*
X042246Y029164D02*
X041141Y029164D01*
X041042Y029065D02*
X042345Y029065D01*
X042538Y028967D02*
X040848Y028967D01*
X040363Y028967D02*
X038711Y028967D01*
X038732Y028958D02*
X038642Y028995D01*
X038545Y028995D01*
X038455Y028958D01*
X038386Y028889D01*
X038348Y028799D01*
X038348Y028701D01*
X038386Y028611D01*
X038455Y028542D01*
X038545Y028505D01*
X038642Y028505D01*
X038732Y028542D01*
X038801Y028611D01*
X038838Y028701D01*
X038838Y028799D01*
X038801Y028889D01*
X038732Y028958D01*
X038810Y028868D02*
X054506Y028868D01*
X054506Y028770D02*
X038838Y028770D01*
X038826Y028671D02*
X054506Y028671D01*
X054506Y028573D02*
X038762Y028573D01*
X038424Y028573D02*
X007843Y028573D01*
X007842Y028671D02*
X028006Y028671D01*
X028045Y028655D02*
X028142Y028655D01*
X028232Y028692D01*
X028301Y028761D01*
X028338Y028851D01*
X028338Y028949D01*
X028301Y029039D01*
X028232Y029108D01*
X028142Y029145D01*
X028045Y029145D01*
X027955Y029108D01*
X027886Y029039D01*
X027848Y028949D01*
X027848Y028851D01*
X027886Y028761D01*
X027955Y028692D01*
X028045Y028655D01*
X028181Y028671D02*
X028506Y028671D01*
X028545Y028655D02*
X028455Y028692D01*
X028386Y028761D01*
X028348Y028851D01*
X028348Y028949D01*
X028386Y029039D01*
X028455Y029108D01*
X028545Y029145D01*
X028642Y029145D01*
X028732Y029108D01*
X028801Y029039D01*
X028838Y028949D01*
X028838Y028851D01*
X028801Y028761D01*
X028732Y028692D01*
X028642Y028655D01*
X028545Y028655D01*
X028681Y028671D02*
X038361Y028671D01*
X038348Y028770D02*
X028804Y028770D01*
X028838Y028868D02*
X038377Y028868D01*
X038476Y028967D02*
X036823Y028967D01*
X036723Y028925D02*
X036986Y029034D01*
X037187Y029235D01*
X037296Y029498D01*
X037296Y029782D01*
X037187Y030045D01*
X036986Y030246D01*
X036723Y030355D01*
X036439Y030355D01*
X036176Y030246D01*
X035975Y030045D01*
X035866Y029782D01*
X035866Y029498D01*
X035975Y029235D01*
X036176Y029034D01*
X036439Y028925D01*
X036723Y028925D01*
X037017Y029065D02*
X040170Y029065D01*
X040071Y029164D02*
X037116Y029164D01*
X037198Y029262D02*
X039988Y029262D01*
X039948Y029361D02*
X037239Y029361D01*
X037280Y029459D02*
X039907Y029459D01*
X039891Y029558D02*
X037296Y029558D01*
X037296Y029656D02*
X039891Y029656D01*
X039891Y029755D02*
X037296Y029755D01*
X037266Y029853D02*
X039920Y029853D01*
X039961Y029952D02*
X037226Y029952D01*
X037182Y030050D02*
X040005Y030050D01*
X040103Y030149D02*
X037083Y030149D01*
X036984Y030247D02*
X040203Y030247D01*
X040441Y030346D02*
X036746Y030346D01*
X036416Y030346D02*
X034571Y030346D01*
X034548Y030355D02*
X034811Y030246D01*
X035012Y030045D01*
X035121Y029782D01*
X035121Y029498D01*
X035012Y029235D01*
X034811Y029034D01*
X034548Y028925D01*
X034264Y028925D01*
X034001Y029034D01*
X033800Y029235D01*
X033691Y029498D01*
X033691Y029782D01*
X033800Y030045D01*
X034001Y030246D01*
X034264Y030355D01*
X034548Y030355D01*
X034809Y030247D02*
X036178Y030247D01*
X036078Y030149D02*
X034908Y030149D01*
X035007Y030050D02*
X035980Y030050D01*
X035936Y029952D02*
X035051Y029952D01*
X035091Y029853D02*
X035895Y029853D01*
X035866Y029755D02*
X035121Y029755D01*
X035121Y029656D02*
X035866Y029656D01*
X035866Y029558D02*
X035121Y029558D01*
X035105Y029459D02*
X035882Y029459D01*
X035923Y029361D02*
X035064Y029361D01*
X035023Y029262D02*
X035963Y029262D01*
X036046Y029164D02*
X034941Y029164D01*
X034842Y029065D02*
X036145Y029065D01*
X036338Y028967D02*
X034648Y028967D01*
X034163Y028967D02*
X030623Y028967D01*
X030523Y028925D02*
X030786Y029034D01*
X030987Y029235D01*
X031096Y029498D01*
X031096Y029782D01*
X030987Y030045D01*
X030786Y030246D01*
X030523Y030355D01*
X030239Y030355D01*
X029976Y030246D01*
X029775Y030045D01*
X029666Y029782D01*
X029666Y029498D01*
X029775Y029235D01*
X029976Y029034D01*
X030239Y028925D01*
X030523Y028925D01*
X030817Y029065D02*
X033970Y029065D01*
X033871Y029164D02*
X030916Y029164D01*
X030998Y029262D02*
X033788Y029262D01*
X033748Y029361D02*
X031039Y029361D01*
X031080Y029459D02*
X033707Y029459D01*
X033691Y029558D02*
X031096Y029558D01*
X031096Y029656D02*
X033691Y029656D01*
X033691Y029755D02*
X031096Y029755D01*
X031066Y029853D02*
X033720Y029853D01*
X033761Y029952D02*
X031026Y029952D01*
X030982Y030050D02*
X033805Y030050D01*
X033903Y030149D02*
X030883Y030149D01*
X030784Y030247D02*
X034003Y030247D01*
X034241Y030346D02*
X030546Y030346D01*
X030216Y030346D02*
X022114Y030346D01*
X022119Y030344D02*
X021992Y030396D01*
X021854Y030396D01*
X021727Y030344D01*
X021630Y030246D01*
X021577Y030119D01*
X021577Y029981D01*
X021630Y029854D01*
X021727Y029756D01*
X021854Y029704D01*
X021992Y029704D01*
X022119Y029756D01*
X022217Y029854D01*
X022270Y029981D01*
X022270Y030119D01*
X022217Y030246D01*
X022119Y030344D01*
X022216Y030247D02*
X029978Y030247D01*
X029878Y030149D02*
X022257Y030149D01*
X022270Y030050D02*
X029780Y030050D01*
X029736Y029952D02*
X022257Y029952D01*
X022216Y029853D02*
X029695Y029853D01*
X029666Y029755D02*
X022115Y029755D01*
X021732Y029755D02*
X020635Y029755D01*
X020639Y029756D02*
X020737Y029854D01*
X020790Y029981D01*
X020790Y030119D01*
X020737Y030246D01*
X020639Y030344D01*
X020512Y030396D01*
X020374Y030396D01*
X020247Y030344D01*
X020150Y030246D01*
X020097Y030119D01*
X020097Y029981D01*
X020150Y029854D01*
X020247Y029756D01*
X020374Y029704D01*
X020512Y029704D01*
X020639Y029756D01*
X020736Y029853D02*
X021631Y029853D01*
X021589Y029952D02*
X020777Y029952D01*
X020790Y030050D02*
X021577Y030050D01*
X021589Y030149D02*
X020777Y030149D01*
X020736Y030247D02*
X021631Y030247D01*
X021732Y030346D02*
X020634Y030346D01*
X020252Y030346D02*
X019154Y030346D01*
X019159Y030344D02*
X019032Y030396D01*
X018894Y030396D01*
X018767Y030344D01*
X018670Y030246D01*
X018617Y030119D01*
X018617Y029981D01*
X018670Y029854D01*
X018767Y029756D01*
X018894Y029704D01*
X019032Y029704D01*
X019159Y029756D01*
X019257Y029854D01*
X019310Y029981D01*
X019310Y030119D01*
X019257Y030246D01*
X019159Y030344D01*
X019256Y030247D02*
X020151Y030247D01*
X020109Y030149D02*
X019297Y030149D01*
X019310Y030050D02*
X020097Y030050D01*
X020109Y029952D02*
X019297Y029952D01*
X019256Y029853D02*
X020151Y029853D01*
X020252Y029755D02*
X019155Y029755D01*
X018772Y029755D02*
X005693Y029755D01*
X005693Y029853D02*
X018671Y029853D01*
X018629Y029952D02*
X005693Y029952D01*
X005693Y030050D02*
X018617Y030050D01*
X018629Y030149D02*
X005693Y030149D01*
X005693Y030247D02*
X018671Y030247D01*
X018772Y030346D02*
X005693Y030346D01*
X005693Y030444D02*
X054506Y030444D01*
X054506Y030346D02*
X053171Y030346D01*
X053409Y030247D02*
X054506Y030247D01*
X054506Y030149D02*
X053508Y030149D01*
X053607Y030050D02*
X054506Y030050D01*
X054506Y029952D02*
X053651Y029952D01*
X053691Y029853D02*
X054506Y029853D01*
X054506Y029755D02*
X053721Y029755D01*
X053721Y029656D02*
X054506Y029656D01*
X054506Y029558D02*
X053721Y029558D01*
X053705Y029459D02*
X054506Y029459D01*
X054506Y029361D02*
X053664Y029361D01*
X053623Y029262D02*
X054506Y029262D01*
X054506Y029164D02*
X053541Y029164D01*
X053442Y029065D02*
X054506Y029065D01*
X054506Y028967D02*
X053248Y028967D01*
X053338Y028277D02*
X054506Y028277D01*
X054506Y028179D02*
X053517Y028179D01*
X053615Y028080D02*
X054506Y028080D01*
X054506Y027982D02*
X053714Y027982D01*
X053755Y027883D02*
X054506Y027883D01*
X054506Y027785D02*
X053795Y027785D01*
X053836Y027686D02*
X054506Y027686D01*
X054506Y027588D02*
X053843Y027588D01*
X053843Y027489D02*
X054506Y027489D01*
X054506Y027391D02*
X053843Y027391D01*
X053827Y027292D02*
X054506Y027292D01*
X054506Y027194D02*
X053786Y027194D01*
X053746Y027095D02*
X054506Y027095D01*
X054506Y026997D02*
X053692Y026997D01*
X053593Y026898D02*
X054506Y026898D01*
X054506Y026800D02*
X053495Y026800D01*
X053286Y026701D02*
X054506Y026701D01*
X054506Y028376D02*
X007843Y028376D01*
X007843Y028474D02*
X054506Y028474D01*
X054506Y030543D02*
X023193Y030543D01*
X023395Y030641D02*
X054506Y030641D01*
X054506Y030740D02*
X023493Y030740D01*
X023581Y030838D02*
X054506Y030838D01*
X054506Y030937D02*
X023621Y030937D01*
X023662Y031035D02*
X054506Y031035D01*
X054506Y031134D02*
X023683Y031134D01*
X023683Y031232D02*
X054506Y031232D01*
X054506Y031331D02*
X023683Y031331D01*
X023661Y031429D02*
X054490Y031429D01*
X054392Y031528D02*
X023620Y031528D01*
X023579Y031626D02*
X054293Y031626D01*
X054195Y031725D02*
X023489Y031725D01*
X022428Y031725D02*
X018459Y031725D01*
X018549Y031626D02*
X022338Y031626D01*
X022297Y031528D02*
X018590Y031528D01*
X018631Y031429D02*
X022256Y031429D01*
X022233Y031331D02*
X018653Y031331D01*
X018653Y031232D02*
X022233Y031232D01*
X022233Y031134D02*
X018653Y031134D01*
X018632Y031035D02*
X022254Y031035D01*
X022295Y030937D02*
X018591Y030937D01*
X018551Y030838D02*
X022336Y030838D01*
X022423Y030740D02*
X018463Y030740D01*
X018365Y030641D02*
X022522Y030641D01*
X022723Y030543D02*
X018163Y030543D01*
X017693Y030543D02*
X005693Y030543D01*
X005693Y030641D02*
X017492Y030641D01*
X017393Y030740D02*
X005693Y030740D01*
X005693Y030838D02*
X017306Y030838D01*
X017265Y030937D02*
X015990Y030937D01*
X015957Y030923D02*
X016096Y030980D01*
X016202Y031086D01*
X016259Y031225D01*
X016259Y031375D01*
X016202Y031514D01*
X016096Y031620D01*
X015957Y031677D01*
X015807Y031677D01*
X015668Y031620D01*
X015562Y031514D01*
X015505Y031375D01*
X015505Y031225D01*
X015562Y031086D01*
X015668Y030980D01*
X015807Y030923D01*
X015957Y030923D01*
X015774Y030937D02*
X013313Y030937D01*
X013280Y030923D02*
X013418Y030980D01*
X013524Y031086D01*
X013582Y031225D01*
X013582Y031375D01*
X013524Y031514D01*
X013418Y031620D01*
X013280Y031677D01*
X013130Y031677D01*
X012991Y031620D01*
X012885Y031514D01*
X012828Y031375D01*
X012828Y031225D01*
X012885Y031086D01*
X012991Y030980D01*
X013130Y030923D01*
X013280Y030923D01*
X013097Y030937D02*
X011693Y030937D01*
X011660Y030923D02*
X011798Y030980D01*
X011904Y031086D01*
X011962Y031225D01*
X011962Y031375D01*
X011904Y031514D01*
X011798Y031620D01*
X011660Y031677D01*
X011510Y031677D01*
X011371Y031620D01*
X011265Y031514D01*
X011207Y031375D01*
X011207Y031225D01*
X011265Y031086D01*
X011371Y030980D01*
X011510Y030923D01*
X011660Y030923D01*
X011476Y030937D02*
X009016Y030937D01*
X008983Y030923D02*
X009121Y030980D01*
X009227Y031086D01*
X009285Y031225D01*
X009285Y031375D01*
X009227Y031514D01*
X009121Y031620D01*
X008983Y031677D01*
X008832Y031677D01*
X008694Y031620D01*
X008588Y031514D01*
X008530Y031375D01*
X008530Y031225D01*
X008588Y031086D01*
X008694Y030980D01*
X008832Y030923D01*
X008983Y030923D01*
X008799Y030937D02*
X005693Y030937D01*
X005693Y031035D02*
X008639Y031035D01*
X008568Y031134D02*
X005693Y031134D01*
X005693Y031232D02*
X008530Y031232D01*
X008530Y031331D02*
X005693Y031331D01*
X005709Y031429D02*
X006768Y031429D01*
X006708Y031528D02*
X005808Y031528D01*
X005906Y031626D02*
X006698Y031626D01*
X006730Y031725D02*
X006005Y031725D01*
X007119Y031429D02*
X008553Y031429D01*
X008602Y031528D02*
X007178Y031528D01*
X007188Y031626D02*
X008709Y031626D01*
X009106Y031626D02*
X011386Y031626D01*
X011279Y031528D02*
X009213Y031528D01*
X009262Y031429D02*
X011230Y031429D01*
X011207Y031331D02*
X009285Y031331D01*
X009285Y031232D02*
X011207Y031232D01*
X011245Y031134D02*
X009247Y031134D01*
X009176Y031035D02*
X011316Y031035D01*
X011853Y031035D02*
X012936Y031035D01*
X012865Y031134D02*
X011924Y031134D01*
X011962Y031232D02*
X012828Y031232D01*
X012828Y031331D02*
X011962Y031331D01*
X011939Y031429D02*
X012850Y031429D01*
X012899Y031528D02*
X011890Y031528D01*
X011783Y031626D02*
X013006Y031626D01*
X013403Y031626D02*
X015684Y031626D01*
X015576Y031528D02*
X013511Y031528D01*
X013559Y031429D02*
X015527Y031429D01*
X015505Y031331D02*
X013582Y031331D01*
X013582Y031232D02*
X015505Y031232D01*
X015543Y031134D02*
X013544Y031134D01*
X013473Y031035D02*
X015613Y031035D01*
X016150Y031035D02*
X017224Y031035D01*
X017203Y031134D02*
X016221Y031134D01*
X016259Y031232D02*
X017203Y031232D01*
X017203Y031331D02*
X016259Y031331D01*
X016237Y031429D02*
X017226Y031429D01*
X017267Y031528D02*
X016188Y031528D01*
X016080Y031626D02*
X017308Y031626D01*
X017398Y031725D02*
X007157Y031725D01*
X005693Y029656D02*
X016153Y029656D01*
X016155Y029658D02*
X016086Y029589D01*
X016048Y029499D01*
X016048Y029401D01*
X016086Y029311D01*
X016155Y029242D01*
X016245Y029205D01*
X016342Y029205D01*
X016432Y029242D01*
X016501Y029311D01*
X016538Y029401D01*
X016538Y029499D01*
X016501Y029589D01*
X016432Y029658D01*
X016342Y029695D01*
X016245Y029695D01*
X016155Y029658D01*
X016073Y029558D02*
X005693Y029558D01*
X005693Y029459D02*
X016048Y029459D01*
X016065Y029361D02*
X005693Y029361D01*
X005693Y029262D02*
X006612Y029262D01*
X006455Y029164D02*
X005693Y029164D01*
X005693Y029065D02*
X006356Y029065D01*
X006267Y028967D02*
X005693Y028967D01*
X005693Y028868D02*
X006226Y028868D01*
X006185Y028770D02*
X005693Y028770D01*
X005693Y028671D02*
X006144Y028671D01*
X006143Y028573D02*
X005693Y028573D01*
X005693Y028474D02*
X006143Y028474D01*
X006143Y028376D02*
X005693Y028376D01*
X005693Y028277D02*
X006166Y028277D01*
X006206Y028179D02*
X005693Y028179D01*
X005693Y028080D02*
X006247Y028080D01*
X006310Y027982D02*
X005693Y027982D01*
X005693Y027883D02*
X006408Y027883D01*
X006507Y027785D02*
X005693Y027785D01*
X005693Y027489D02*
X016437Y027489D01*
X016452Y027495D02*
X016288Y027427D01*
X016163Y027302D01*
X016095Y027139D01*
X016095Y026961D01*
X016163Y026798D01*
X016288Y026673D01*
X016452Y026605D01*
X016629Y026605D01*
X016793Y026673D01*
X016918Y026798D01*
X016986Y026961D01*
X016986Y027139D01*
X016918Y027302D01*
X016793Y027427D01*
X016629Y027495D01*
X016452Y027495D01*
X016644Y027489D02*
X017437Y027489D01*
X017452Y027495D02*
X017288Y027427D01*
X017163Y027302D01*
X017095Y027139D01*
X017095Y026961D01*
X017163Y026798D01*
X017288Y026673D01*
X017452Y026605D01*
X017629Y026605D01*
X017793Y026673D01*
X017918Y026798D01*
X017986Y026961D01*
X017986Y027139D01*
X017918Y027302D01*
X017793Y027427D01*
X017629Y027495D01*
X017452Y027495D01*
X017644Y027489D02*
X019393Y027489D01*
X019393Y027391D02*
X017830Y027391D01*
X017922Y027292D02*
X019393Y027292D01*
X019393Y027194D02*
X017963Y027194D01*
X017986Y027095D02*
X019393Y027095D01*
X019393Y026997D02*
X017986Y026997D01*
X017960Y026898D02*
X019393Y026898D01*
X019393Y026800D02*
X017919Y026800D01*
X017821Y026701D02*
X019393Y026701D01*
X019393Y026603D02*
X005693Y026603D01*
X005693Y026701D02*
X016260Y026701D01*
X016162Y026800D02*
X005693Y026800D01*
X005693Y026898D02*
X016122Y026898D01*
X016095Y026997D02*
X005693Y026997D01*
X005693Y027095D02*
X016095Y027095D01*
X016118Y027194D02*
X005693Y027194D01*
X005693Y027292D02*
X016159Y027292D01*
X016251Y027391D02*
X005693Y027391D01*
X005693Y026504D02*
X019393Y026504D01*
X019393Y026406D02*
X017815Y026406D01*
X017793Y026427D02*
X017918Y026302D01*
X017986Y026139D01*
X017986Y025961D01*
X017918Y025798D01*
X017793Y025673D01*
X017629Y025605D01*
X017452Y025605D01*
X017288Y025673D01*
X017163Y025798D01*
X017095Y025961D01*
X017095Y026139D01*
X017163Y026302D01*
X017288Y026427D01*
X017452Y026495D01*
X017629Y026495D01*
X017793Y026427D01*
X017913Y026307D02*
X019393Y026307D01*
X019393Y026209D02*
X017957Y026209D01*
X017986Y026110D02*
X019393Y026110D01*
X019393Y026012D02*
X017986Y026012D01*
X017966Y025913D02*
X019393Y025913D01*
X019393Y025815D02*
X017925Y025815D01*
X017836Y025716D02*
X019393Y025716D01*
X019393Y025618D02*
X017660Y025618D01*
X017421Y025618D02*
X016660Y025618D01*
X016629Y025605D02*
X016793Y025673D01*
X016918Y025798D01*
X016986Y025961D01*
X016986Y026139D01*
X016918Y026302D01*
X016793Y026427D01*
X016629Y026495D01*
X016452Y026495D01*
X016288Y026427D01*
X016163Y026302D01*
X016095Y026139D01*
X016095Y025961D01*
X016163Y025798D01*
X016288Y025673D01*
X016452Y025605D01*
X016629Y025605D01*
X016421Y025618D02*
X015660Y025618D01*
X015629Y025605D02*
X015793Y025673D01*
X015918Y025798D01*
X015986Y025961D01*
X015986Y026139D01*
X015918Y026302D01*
X015793Y026427D01*
X015629Y026495D01*
X015452Y026495D01*
X015288Y026427D01*
X015163Y026302D01*
X015095Y026139D01*
X015095Y025961D01*
X015163Y025798D01*
X015288Y025673D01*
X015452Y025605D01*
X015629Y025605D01*
X015421Y025618D02*
X007781Y025618D01*
X007793Y025623D02*
X007918Y025748D01*
X007986Y025911D01*
X007986Y026089D01*
X007918Y026252D01*
X007793Y026377D01*
X007629Y026445D01*
X007452Y026445D01*
X007288Y026377D01*
X007163Y026252D01*
X007095Y026089D01*
X007095Y025911D01*
X007163Y025748D01*
X007288Y025623D01*
X007452Y025555D01*
X007629Y025555D01*
X007793Y025623D01*
X007886Y025716D02*
X015245Y025716D01*
X015156Y025815D02*
X007946Y025815D01*
X007986Y025913D02*
X015115Y025913D01*
X015095Y026012D02*
X007986Y026012D01*
X007977Y026110D02*
X015095Y026110D01*
X015124Y026209D02*
X007936Y026209D01*
X007863Y026307D02*
X015168Y026307D01*
X015266Y026406D02*
X007725Y026406D01*
X007356Y026406D02*
X005693Y026406D01*
X005693Y026307D02*
X007218Y026307D01*
X007145Y026209D02*
X005693Y026209D01*
X005693Y026110D02*
X007104Y026110D01*
X007095Y026012D02*
X005693Y026012D01*
X005693Y025913D02*
X007095Y025913D01*
X007135Y025815D02*
X005693Y025815D01*
X005693Y025716D02*
X007195Y025716D01*
X007300Y025618D02*
X005693Y025618D01*
X005693Y025519D02*
X019393Y025519D01*
X019393Y025421D02*
X007689Y025421D01*
X007629Y025445D02*
X007793Y025377D01*
X007918Y025252D01*
X007986Y025089D01*
X007986Y024911D01*
X007918Y024748D01*
X007793Y024623D01*
X007629Y024555D01*
X007452Y024555D01*
X007288Y024623D01*
X007163Y024748D01*
X007095Y024911D01*
X007095Y025089D01*
X007163Y025252D01*
X007288Y025377D01*
X007452Y025445D01*
X007629Y025445D01*
X007392Y025421D02*
X005693Y025421D01*
X005693Y025322D02*
X007233Y025322D01*
X007151Y025224D02*
X005693Y025224D01*
X005693Y025125D02*
X007110Y025125D01*
X007095Y025027D02*
X005693Y025027D01*
X005693Y024928D02*
X007095Y024928D01*
X007129Y024830D02*
X005693Y024830D01*
X005693Y024731D02*
X007180Y024731D01*
X007278Y024633D02*
X005693Y024633D01*
X005693Y024534D02*
X017705Y024534D01*
X017705Y024483D02*
X017757Y024358D01*
X017852Y024263D01*
X017976Y024212D01*
X018111Y024212D01*
X018235Y024263D01*
X018330Y024358D01*
X018381Y024483D01*
X018381Y024617D01*
X018330Y024742D01*
X018235Y024837D01*
X018111Y024888D01*
X017976Y024888D01*
X017852Y024837D01*
X017757Y024742D01*
X017705Y024617D01*
X017705Y024483D01*
X017725Y024436D02*
X007653Y024436D01*
X007629Y024445D02*
X007452Y024445D01*
X007288Y024377D01*
X007163Y024252D01*
X007095Y024089D01*
X007095Y023911D01*
X007163Y023748D01*
X007288Y023623D01*
X007452Y023555D01*
X007629Y023555D01*
X007793Y023623D01*
X007918Y023748D01*
X007986Y023911D01*
X007986Y024089D01*
X007918Y024252D01*
X007793Y024377D01*
X007629Y024445D01*
X007429Y024436D02*
X005693Y024436D01*
X005693Y024337D02*
X007248Y024337D01*
X007157Y024239D02*
X005693Y024239D01*
X005693Y024140D02*
X007117Y024140D01*
X007095Y024042D02*
X005693Y024042D01*
X005693Y023943D02*
X007095Y023943D01*
X007123Y023845D02*
X005693Y023845D01*
X005693Y023746D02*
X007165Y023746D01*
X007263Y023648D02*
X005693Y023648D01*
X005693Y023549D02*
X017364Y023549D01*
X017402Y023587D02*
X017307Y023492D01*
X017255Y023367D01*
X017255Y023233D01*
X017307Y023108D01*
X017402Y023013D01*
X017526Y022962D01*
X017661Y022962D01*
X017785Y023013D01*
X017880Y023108D01*
X017931Y023233D01*
X017931Y023367D01*
X017880Y023492D01*
X017785Y023587D01*
X017661Y023638D01*
X017526Y023638D01*
X017402Y023587D01*
X017402Y023713D02*
X017526Y023662D01*
X017661Y023662D01*
X017785Y023713D01*
X017880Y023808D01*
X017931Y023933D01*
X017931Y024067D01*
X017880Y024192D01*
X017785Y024287D01*
X017661Y024338D01*
X017526Y024338D01*
X017402Y024287D01*
X017307Y024192D01*
X017255Y024067D01*
X017255Y023933D01*
X017307Y023808D01*
X017402Y023713D01*
X017369Y023746D02*
X007916Y023746D01*
X007958Y023845D02*
X017292Y023845D01*
X017255Y023943D02*
X007986Y023943D01*
X007986Y024042D02*
X017255Y024042D01*
X017285Y024140D02*
X007964Y024140D01*
X007924Y024239D02*
X017354Y024239D01*
X017524Y024337D02*
X007833Y024337D01*
X007803Y024633D02*
X017712Y024633D01*
X017752Y024731D02*
X007901Y024731D01*
X007952Y024830D02*
X017845Y024830D01*
X018242Y024830D02*
X019393Y024830D01*
X019393Y024928D02*
X007986Y024928D01*
X007986Y025027D02*
X019393Y025027D01*
X019393Y025125D02*
X007971Y025125D01*
X007930Y025224D02*
X019393Y025224D01*
X019393Y025322D02*
X007848Y025322D01*
X007818Y023648D02*
X019393Y023648D01*
X019393Y023746D02*
X017818Y023746D01*
X017895Y023845D02*
X019393Y023845D01*
X019393Y023943D02*
X017931Y023943D01*
X017931Y024042D02*
X019393Y024042D01*
X019393Y024140D02*
X017901Y024140D01*
X017912Y024239D02*
X017833Y024239D01*
X017778Y024337D02*
X017663Y024337D01*
X018175Y024239D02*
X019393Y024239D01*
X019393Y024337D02*
X018309Y024337D01*
X018362Y024436D02*
X019393Y024436D01*
X019393Y024534D02*
X018381Y024534D01*
X018375Y024633D02*
X019393Y024633D01*
X019393Y024731D02*
X018334Y024731D01*
X019593Y024731D02*
X025513Y024731D01*
X025513Y024633D02*
X019593Y024633D01*
X019593Y024534D02*
X025513Y024534D01*
X025513Y024436D02*
X019593Y024436D01*
X019593Y024337D02*
X025513Y024337D01*
X025513Y024239D02*
X019593Y024239D01*
X019593Y024140D02*
X025513Y024140D01*
X025513Y024042D02*
X019593Y024042D01*
X019593Y023943D02*
X025513Y023943D01*
X025513Y023845D02*
X019593Y023845D01*
X019593Y023746D02*
X025513Y023746D01*
X025513Y023648D02*
X019593Y023648D01*
X019593Y023549D02*
X025513Y023549D01*
X025513Y023451D02*
X019593Y023451D01*
X019593Y023352D02*
X025513Y023352D01*
X025513Y023254D02*
X019593Y023254D01*
X019593Y023155D02*
X025513Y023155D01*
X025513Y023057D02*
X020533Y023057D01*
X020532Y023058D02*
X020442Y023095D01*
X020345Y023095D01*
X020255Y023058D01*
X020186Y022989D01*
X020148Y022899D01*
X020148Y022801D01*
X020186Y022711D01*
X020255Y022642D01*
X020345Y022605D01*
X020442Y022605D01*
X020532Y022642D01*
X020601Y022711D01*
X020638Y022801D01*
X020638Y022899D01*
X020601Y022989D01*
X020532Y023058D01*
X020614Y022958D02*
X025513Y022958D01*
X025513Y022860D02*
X020638Y022860D01*
X020622Y022761D02*
X025513Y022761D01*
X025513Y022663D02*
X020552Y022663D01*
X020234Y022663D02*
X019593Y022663D01*
X019593Y022761D02*
X020165Y022761D01*
X020148Y022860D02*
X019593Y022860D01*
X019593Y022958D02*
X020173Y022958D01*
X020253Y023057D02*
X019593Y023057D01*
X019393Y023057D02*
X017828Y023057D01*
X017899Y023155D02*
X019393Y023155D01*
X019393Y023254D02*
X017931Y023254D01*
X017931Y023352D02*
X019393Y023352D01*
X019393Y023451D02*
X017897Y023451D01*
X017822Y023549D02*
X019393Y023549D01*
X019393Y022958D02*
X018165Y022958D01*
X018205Y022942D02*
X018100Y022985D01*
X017987Y022985D01*
X017882Y022942D01*
X017802Y022861D01*
X017758Y022757D01*
X017758Y022643D01*
X017802Y022539D01*
X017882Y022458D01*
X017987Y022415D01*
X018100Y022415D01*
X018205Y022458D01*
X018285Y022539D01*
X018328Y022643D01*
X018328Y022757D01*
X018285Y022861D01*
X018205Y022942D01*
X018286Y022860D02*
X019393Y022860D01*
X019393Y022761D02*
X018326Y022761D01*
X018328Y022663D02*
X019393Y022663D01*
X019393Y022564D02*
X018295Y022564D01*
X018212Y022466D02*
X019393Y022466D01*
X019393Y022367D02*
X007803Y022367D01*
X007793Y022377D02*
X007629Y022445D01*
X007452Y022445D01*
X007288Y022377D01*
X007163Y022252D01*
X007095Y022089D01*
X007095Y021911D01*
X007163Y021748D01*
X007288Y021623D01*
X007452Y021555D01*
X007629Y021555D01*
X007793Y021623D01*
X007918Y021748D01*
X007986Y021911D01*
X007986Y022089D01*
X007918Y022252D01*
X007793Y022377D01*
X007902Y022269D02*
X016197Y022269D01*
X016237Y022285D02*
X016132Y022242D01*
X016052Y022161D01*
X016008Y022057D01*
X016008Y021943D01*
X016052Y021839D01*
X016132Y021758D01*
X016237Y021715D01*
X016350Y021715D01*
X016455Y021758D01*
X016535Y021839D01*
X016578Y021943D01*
X016578Y022057D01*
X016535Y022161D01*
X016455Y022242D01*
X016350Y022285D01*
X016237Y022285D01*
X016390Y022269D02*
X019393Y022269D01*
X019393Y022170D02*
X016526Y022170D01*
X016572Y022072D02*
X019393Y022072D01*
X019393Y021973D02*
X016578Y021973D01*
X016550Y021875D02*
X019393Y021875D01*
X019393Y021776D02*
X016472Y021776D01*
X016114Y021776D02*
X007930Y021776D01*
X007971Y021875D02*
X016037Y021875D01*
X016008Y021973D02*
X007986Y021973D01*
X007986Y022072D02*
X016014Y022072D01*
X016060Y022170D02*
X007952Y022170D01*
X007793Y022623D02*
X007629Y022555D01*
X007452Y022555D01*
X007288Y022623D01*
X007163Y022748D01*
X007095Y022911D01*
X007095Y023089D01*
X007163Y023252D01*
X007288Y023377D01*
X007452Y023445D01*
X007629Y023445D01*
X007793Y023377D01*
X007918Y023252D01*
X007986Y023089D01*
X007986Y022911D01*
X007918Y022748D01*
X007793Y022623D01*
X007833Y022663D02*
X017758Y022663D01*
X017760Y022761D02*
X007924Y022761D01*
X007964Y022860D02*
X017801Y022860D01*
X017922Y022958D02*
X007986Y022958D01*
X007986Y023057D02*
X017359Y023057D01*
X017287Y023155D02*
X007958Y023155D01*
X007917Y023254D02*
X017255Y023254D01*
X017255Y023352D02*
X007818Y023352D01*
X007263Y023352D02*
X005693Y023352D01*
X005693Y023254D02*
X007164Y023254D01*
X007123Y023155D02*
X005693Y023155D01*
X005693Y023057D02*
X007095Y023057D01*
X007095Y022958D02*
X005693Y022958D01*
X005693Y022860D02*
X007117Y022860D01*
X007158Y022761D02*
X005693Y022761D01*
X005693Y022663D02*
X007248Y022663D01*
X007429Y022564D02*
X005693Y022564D01*
X005693Y022466D02*
X017875Y022466D01*
X017791Y022564D02*
X007652Y022564D01*
X007278Y022367D02*
X005693Y022367D01*
X005693Y022269D02*
X007179Y022269D01*
X007129Y022170D02*
X005693Y022170D01*
X005693Y022072D02*
X007095Y022072D01*
X007095Y021973D02*
X005693Y021973D01*
X005693Y021875D02*
X007111Y021875D01*
X007151Y021776D02*
X005693Y021776D01*
X005693Y021678D02*
X007233Y021678D01*
X007393Y021579D02*
X005693Y021579D01*
X005693Y021481D02*
X019393Y021481D01*
X019393Y021579D02*
X007688Y021579D01*
X007848Y021678D02*
X019393Y021678D01*
X019593Y021678D02*
X025513Y021678D01*
X025513Y021776D02*
X019593Y021776D01*
X019593Y021875D02*
X025513Y021875D01*
X025513Y021973D02*
X019593Y021973D01*
X019593Y022072D02*
X022725Y022072D01*
X022755Y022042D02*
X022845Y022005D01*
X022942Y022005D01*
X023032Y022042D01*
X023101Y022111D01*
X023138Y022201D01*
X023138Y022299D01*
X023101Y022389D01*
X023032Y022458D01*
X022942Y022495D01*
X022845Y022495D01*
X022755Y022458D01*
X022686Y022389D01*
X022648Y022299D01*
X022648Y022201D01*
X022686Y022111D01*
X022755Y022042D01*
X022661Y022170D02*
X019593Y022170D01*
X019593Y022269D02*
X022648Y022269D01*
X022677Y022367D02*
X019593Y022367D01*
X019593Y022466D02*
X022773Y022466D01*
X023013Y022466D02*
X025513Y022466D01*
X025513Y022564D02*
X019593Y022564D01*
X019593Y021579D02*
X025513Y021579D01*
X025513Y021481D02*
X019593Y021481D01*
X019593Y021382D02*
X025513Y021382D01*
X025513Y021284D02*
X019593Y021284D01*
X019593Y021185D02*
X025513Y021185D01*
X025513Y021087D02*
X019593Y021087D01*
X019593Y020988D02*
X025513Y020988D01*
X025513Y020890D02*
X019593Y020890D01*
X019593Y020791D02*
X025513Y020791D01*
X025513Y020693D02*
X019593Y020693D01*
X019393Y021284D02*
X007887Y021284D01*
X007782Y021382D02*
X019393Y021382D01*
X017443Y020496D02*
X005693Y020496D01*
X005693Y020594D02*
X007357Y020594D01*
X007218Y020693D02*
X005693Y020693D01*
X005693Y020791D02*
X007145Y020791D01*
X007104Y020890D02*
X005693Y020890D01*
X005693Y020988D02*
X007095Y020988D01*
X007095Y021087D02*
X005693Y021087D01*
X005693Y021185D02*
X007135Y021185D01*
X007194Y021284D02*
X005693Y021284D01*
X005693Y021382D02*
X007299Y021382D01*
X007336Y020397D02*
X005693Y020397D01*
X005693Y020299D02*
X007209Y020299D01*
X007141Y020200D02*
X005693Y020200D01*
X005693Y020102D02*
X007101Y020102D01*
X007095Y020003D02*
X005693Y020003D01*
X005693Y019905D02*
X007098Y019905D01*
X007139Y019806D02*
X005693Y019806D01*
X005693Y019708D02*
X007203Y019708D01*
X007709Y019412D02*
X017443Y019412D01*
X017290Y023451D02*
X005693Y023451D01*
X007802Y028770D02*
X027882Y028770D01*
X027848Y028868D02*
X007761Y028868D01*
X007720Y028967D02*
X027856Y028967D01*
X027912Y029065D02*
X007630Y029065D01*
X007532Y029164D02*
X029846Y029164D01*
X029763Y029262D02*
X016452Y029262D01*
X016521Y029361D02*
X029723Y029361D01*
X029682Y029459D02*
X016538Y029459D01*
X016514Y029558D02*
X029666Y029558D01*
X029666Y029656D02*
X016434Y029656D01*
X016135Y029262D02*
X007375Y029262D01*
X015815Y026406D02*
X016266Y026406D01*
X016168Y026307D02*
X015913Y026307D01*
X015957Y026209D02*
X016124Y026209D01*
X016095Y026110D02*
X015986Y026110D01*
X015986Y026012D02*
X016095Y026012D01*
X016115Y025913D02*
X015966Y025913D01*
X015925Y025815D02*
X016156Y025815D01*
X016245Y025716D02*
X015836Y025716D01*
X016836Y025716D02*
X017245Y025716D01*
X017156Y025815D02*
X016925Y025815D01*
X016966Y025913D02*
X017115Y025913D01*
X017095Y026012D02*
X016986Y026012D01*
X016986Y026110D02*
X017095Y026110D01*
X017124Y026209D02*
X016957Y026209D01*
X016913Y026307D02*
X017168Y026307D01*
X017266Y026406D02*
X016815Y026406D01*
X016821Y026701D02*
X017260Y026701D01*
X017162Y026800D02*
X016919Y026800D01*
X016960Y026898D02*
X017122Y026898D01*
X017095Y026997D02*
X016986Y026997D01*
X016986Y027095D02*
X017095Y027095D01*
X017118Y027194D02*
X016963Y027194D01*
X016922Y027292D02*
X017159Y027292D01*
X017251Y027391D02*
X016830Y027391D01*
X019593Y026701D02*
X025668Y026701D01*
X025553Y026603D02*
X019593Y026603D01*
X019593Y026504D02*
X025513Y026504D01*
X025513Y026406D02*
X019593Y026406D01*
X019593Y026307D02*
X025513Y026307D01*
X025513Y026209D02*
X019593Y026209D01*
X019593Y026110D02*
X025513Y026110D01*
X025513Y026012D02*
X019593Y026012D01*
X019593Y025913D02*
X025513Y025913D01*
X025513Y025815D02*
X019593Y025815D01*
X019593Y025716D02*
X025513Y025716D01*
X025513Y025618D02*
X019593Y025618D01*
X019593Y025519D02*
X025513Y025519D01*
X025513Y025421D02*
X019593Y025421D01*
X019593Y025322D02*
X025513Y025322D01*
X025513Y025224D02*
X019593Y025224D01*
X019593Y025125D02*
X025513Y025125D01*
X025513Y025027D02*
X019593Y025027D01*
X019593Y024928D02*
X025513Y024928D01*
X025513Y024830D02*
X019593Y024830D01*
X023110Y022367D02*
X025513Y022367D01*
X025513Y022269D02*
X023138Y022269D01*
X023125Y022170D02*
X025513Y022170D01*
X025513Y022072D02*
X023061Y022072D01*
X027573Y022072D02*
X050300Y022072D01*
X050254Y022170D02*
X027573Y022170D01*
X027573Y022269D02*
X050245Y022269D01*
X050269Y022367D02*
X027573Y022367D01*
X027573Y022466D02*
X050337Y022466D01*
X050308Y022564D02*
X027573Y022564D01*
X027573Y022663D02*
X050257Y022663D01*
X050245Y022761D02*
X027573Y022761D01*
X027573Y022860D02*
X050266Y022860D01*
X050330Y022958D02*
X027573Y022958D01*
X027573Y023648D02*
X034149Y023648D01*
X034100Y023746D02*
X027573Y023746D01*
X027573Y024436D02*
X035464Y024436D01*
X035531Y024534D02*
X027573Y024534D01*
X027573Y024633D02*
X029428Y024633D01*
X029327Y024731D02*
X027573Y024731D01*
X027573Y024830D02*
X029298Y024830D01*
X029310Y024928D02*
X027573Y024928D01*
X027573Y025421D02*
X034032Y025421D01*
X033998Y025519D02*
X027573Y025519D01*
X027573Y025618D02*
X034006Y025618D01*
X034063Y025716D02*
X032069Y025716D01*
X031918Y025716D02*
X027573Y025716D01*
X027573Y025815D02*
X031784Y025815D01*
X031748Y025913D02*
X027573Y025913D01*
X027573Y026012D02*
X031754Y026012D01*
X031807Y026110D02*
X027573Y026110D01*
X028304Y028770D02*
X028382Y028770D01*
X028348Y028868D02*
X028338Y028868D01*
X028331Y028967D02*
X028356Y028967D01*
X028412Y029065D02*
X028275Y029065D01*
X028775Y029065D02*
X029945Y029065D01*
X030138Y028967D02*
X028831Y028967D01*
X027573Y021973D02*
X050345Y021973D01*
X050272Y021875D02*
X027573Y021875D01*
X027573Y021776D02*
X031923Y021776D01*
X031955Y021808D02*
X031886Y021739D01*
X031848Y021649D01*
X031848Y021551D01*
X031886Y021461D01*
X031955Y021392D01*
X032045Y021355D01*
X032142Y021355D01*
X032232Y021392D01*
X032301Y021461D01*
X032338Y021551D01*
X032338Y021649D01*
X032301Y021739D01*
X032232Y021808D01*
X032142Y021845D01*
X032045Y021845D01*
X031955Y021808D01*
X031860Y021678D02*
X027573Y021678D01*
X027573Y021579D02*
X031848Y021579D01*
X031878Y021481D02*
X027573Y021481D01*
X027573Y021382D02*
X031979Y021382D01*
X032207Y021382D02*
X050275Y021382D01*
X050245Y021284D02*
X027573Y021284D01*
X027573Y021185D02*
X050248Y021185D01*
X050288Y021087D02*
X027573Y021087D01*
X027573Y020988D02*
X050360Y020988D01*
X050278Y020890D02*
X027573Y020890D01*
X027573Y020791D02*
X050245Y020791D01*
X050245Y020693D02*
X027573Y020693D01*
X027573Y020594D02*
X050285Y020594D01*
X050367Y020496D02*
X027573Y020496D01*
X027573Y020397D02*
X050282Y020397D01*
X050245Y020299D02*
X027573Y020299D01*
X027573Y020200D02*
X050245Y020200D01*
X050282Y020102D02*
X027573Y020102D01*
X027573Y020003D02*
X050369Y020003D01*
X050285Y019905D02*
X027573Y019905D01*
X027573Y019806D02*
X030053Y019806D01*
X030036Y019789D02*
X029998Y019699D01*
X029998Y019601D01*
X030036Y019511D01*
X030105Y019442D01*
X030195Y019405D01*
X030292Y019405D01*
X030382Y019442D01*
X030451Y019511D01*
X030488Y019601D01*
X030488Y019699D01*
X030451Y019789D01*
X030382Y019858D01*
X030292Y019895D01*
X030195Y019895D01*
X030105Y019858D01*
X030036Y019789D01*
X030002Y019708D02*
X027573Y019708D01*
X027573Y019609D02*
X029998Y019609D01*
X030036Y019511D02*
X027573Y019511D01*
X027573Y019412D02*
X030178Y019412D01*
X030309Y019412D02*
X051178Y019412D01*
X051258Y019314D02*
X032676Y019314D01*
X032310Y019314D02*
X027573Y019314D01*
X027573Y019215D02*
X032255Y019215D01*
X032248Y019117D02*
X027573Y019117D01*
X027573Y019018D02*
X029030Y019018D01*
X029005Y019008D02*
X028936Y018939D01*
X028898Y018849D01*
X028898Y018751D01*
X028936Y018661D01*
X029005Y018592D01*
X029095Y018555D01*
X029192Y018555D01*
X029282Y018592D01*
X029351Y018661D01*
X029388Y018751D01*
X029388Y018849D01*
X029351Y018939D01*
X029282Y019008D01*
X029192Y019045D01*
X029095Y019045D01*
X029005Y019008D01*
X028928Y018920D02*
X027573Y018920D01*
X027573Y018821D02*
X028898Y018821D01*
X028910Y018723D02*
X027573Y018723D01*
X027573Y018624D02*
X028973Y018624D01*
X028764Y018526D02*
X029859Y018526D01*
X029848Y018551D02*
X029886Y018461D01*
X029955Y018392D01*
X030045Y018355D01*
X030142Y018355D01*
X030232Y018392D01*
X030301Y018461D01*
X030338Y018551D01*
X030338Y018649D01*
X030301Y018739D01*
X030232Y018808D01*
X030142Y018845D01*
X030045Y018845D01*
X029955Y018808D01*
X029886Y018739D01*
X029848Y018649D01*
X029848Y018551D01*
X029848Y018624D02*
X029314Y018624D01*
X029376Y018723D02*
X029879Y018723D01*
X029987Y018821D02*
X029388Y018821D01*
X029359Y018920D02*
X032323Y018920D01*
X032323Y018821D02*
X030200Y018821D01*
X030308Y018723D02*
X032323Y018723D01*
X032323Y018624D02*
X030338Y018624D01*
X030328Y018526D02*
X032323Y018526D01*
X032323Y018427D02*
X030267Y018427D01*
X029920Y018427D02*
X028827Y018427D01*
X028838Y018329D02*
X032323Y018329D01*
X032323Y018230D02*
X028809Y018230D01*
X028706Y018132D02*
X032323Y018132D01*
X032663Y018033D02*
X038263Y018033D01*
X038248Y017935D02*
X032663Y017935D01*
X032663Y017836D02*
X038275Y017836D01*
X038366Y017738D02*
X035952Y017738D01*
X035634Y017738D02*
X032663Y017738D01*
X034317Y018427D02*
X044197Y018427D01*
X044411Y018526D02*
X034378Y018526D01*
X034388Y018624D02*
X034923Y018624D01*
X034860Y018723D02*
X034358Y018723D01*
X032283Y019018D02*
X029257Y019018D01*
X028422Y018526D02*
X027573Y018526D01*
X027573Y018427D02*
X028360Y018427D01*
X028348Y018329D02*
X027573Y018329D01*
X030450Y019511D02*
X050361Y019511D01*
X050279Y019609D02*
X030488Y019609D01*
X030485Y019708D02*
X050245Y019708D01*
X050245Y019806D02*
X030434Y019806D01*
X032309Y021481D02*
X050352Y021481D01*
X050293Y021579D02*
X032338Y021579D01*
X032326Y021678D02*
X050251Y021678D01*
X050245Y021776D02*
X032264Y021776D01*
X029607Y015669D02*
X027573Y015669D01*
X027573Y015571D02*
X029598Y015571D01*
X029631Y015472D02*
X027573Y015472D01*
X027573Y015374D02*
X029750Y015374D01*
X031598Y014980D02*
X027573Y014980D01*
X027573Y015078D02*
X031631Y015078D01*
X031750Y015177D02*
X027573Y015177D01*
X027573Y015275D02*
X046822Y015275D01*
X046895Y015177D02*
X031937Y015177D01*
X031607Y014881D02*
X027573Y014881D01*
X027573Y014783D02*
X031664Y014783D01*
X031078Y012320D02*
X027573Y012320D01*
X027573Y012222D02*
X031048Y012222D01*
X031060Y012123D02*
X027573Y012123D01*
X027573Y012025D02*
X031122Y012025D01*
X029765Y010350D02*
X035647Y010350D01*
X035599Y010252D02*
X029824Y010252D01*
X035913Y012123D02*
X045892Y012123D01*
X045825Y012222D02*
X035976Y012222D01*
X035988Y012320D02*
X045761Y012320D01*
X045748Y012419D02*
X035959Y012419D01*
X044608Y002667D02*
X047708Y002667D01*
X047610Y002569D02*
X044707Y002569D01*
X044780Y002470D02*
X047518Y002470D01*
X047477Y002372D02*
X044821Y002372D01*
X044846Y002273D02*
X047436Y002273D01*
X047396Y002175D02*
X044846Y002175D01*
X044840Y002076D02*
X047393Y002076D01*
X047393Y001978D02*
X044800Y001978D01*
X044754Y001879D02*
X047393Y001879D01*
X047414Y001781D02*
X044656Y001781D01*
X050725Y019511D02*
X050811Y019511D01*
X050757Y022958D02*
X050780Y022958D01*
X051207Y022958D02*
X051215Y022958D01*
D18*
X051493Y022850D03*
X050993Y022750D03*
X050543Y022750D03*
X050543Y022250D03*
X050993Y022250D03*
X050993Y021750D03*
X050543Y021750D03*
X050543Y021250D03*
X050993Y021250D03*
X050993Y020750D03*
X050543Y020750D03*
X050543Y020250D03*
X050993Y020250D03*
X050993Y019750D03*
X050543Y019750D03*
X051443Y019550D03*
X047093Y015400D03*
X046193Y015600D03*
X049343Y011550D03*
X047393Y010900D03*
X029543Y010150D03*
X018243Y009900D03*
X018243Y020850D03*
X017593Y023300D03*
X017593Y024000D03*
X018043Y024550D03*
X018893Y024550D03*
X019193Y023250D03*
D19*
X018043Y022700D03*
X016293Y022000D03*
X020393Y022850D03*
X022893Y022250D03*
X028593Y018350D03*
X029143Y018800D03*
X030093Y018600D03*
X030243Y019650D03*
X032493Y019150D03*
X034143Y018600D03*
X035093Y018800D03*
X035793Y017550D03*
X035193Y016500D03*
X032493Y016200D03*
X031843Y014950D03*
X029843Y015600D03*
X030093Y017100D03*
X029093Y017100D03*
X028593Y017550D03*
X028393Y017850D03*
X031193Y021600D03*
X032093Y021600D03*
X031993Y023050D03*
X031543Y024150D03*
X030643Y024850D03*
X029543Y024850D03*
X031993Y025950D03*
X034243Y025550D03*
X035693Y024350D03*
X034343Y023800D03*
X038343Y023600D03*
X038343Y023100D03*
X038843Y023100D03*
X038843Y023600D03*
X038843Y024100D03*
X038343Y024100D03*
X038343Y024600D03*
X038343Y025100D03*
X038343Y025600D03*
X038843Y025600D03*
X038843Y025100D03*
X038843Y024600D03*
X039343Y024600D03*
X039343Y025100D03*
X039343Y025600D03*
X039843Y025600D03*
X039843Y025100D03*
X039843Y024600D03*
X040343Y024600D03*
X040343Y025100D03*
X040343Y025600D03*
X040843Y025600D03*
X040843Y025100D03*
X040843Y024600D03*
X041343Y024600D03*
X041343Y025100D03*
X041343Y025600D03*
X041843Y025600D03*
X041843Y025100D03*
X041843Y024600D03*
X042343Y024600D03*
X042343Y025100D03*
X042343Y025600D03*
X042843Y025600D03*
X042843Y025100D03*
X042843Y024600D03*
X043343Y024600D03*
X043343Y025100D03*
X043343Y025600D03*
X043843Y025600D03*
X043843Y025100D03*
X043843Y024600D03*
X044343Y024600D03*
X044343Y025100D03*
X044343Y025600D03*
X044843Y025600D03*
X044843Y025100D03*
X044843Y024600D03*
X045343Y024600D03*
X045343Y025100D03*
X045343Y025600D03*
X045843Y025600D03*
X045843Y025100D03*
X045843Y024600D03*
X046343Y024600D03*
X046343Y025100D03*
X046343Y025600D03*
X046843Y025600D03*
X046843Y025100D03*
X046843Y024600D03*
X047343Y024600D03*
X047343Y025100D03*
X047343Y025600D03*
X047343Y026100D03*
X046843Y026100D03*
X046343Y026100D03*
X045843Y026100D03*
X045343Y026100D03*
X044843Y026100D03*
X044343Y026100D03*
X043843Y026100D03*
X043343Y026100D03*
X042843Y026100D03*
X042343Y026100D03*
X041843Y026100D03*
X041343Y026100D03*
X040843Y026100D03*
X040343Y026100D03*
X039843Y026100D03*
X039343Y026100D03*
X038843Y026100D03*
X038343Y026100D03*
X039343Y024100D03*
X039343Y023600D03*
X039343Y023100D03*
X039843Y023100D03*
X039843Y023600D03*
X039843Y024100D03*
X040343Y024100D03*
X040343Y023600D03*
X040343Y023100D03*
X040843Y023100D03*
X040843Y023600D03*
X040843Y024100D03*
X041343Y024100D03*
X041343Y023600D03*
X041343Y023100D03*
X041843Y023100D03*
X041843Y023600D03*
X041843Y024100D03*
X042343Y024100D03*
X042343Y023600D03*
X042343Y023100D03*
X042843Y023100D03*
X042843Y023600D03*
X042843Y024100D03*
X043343Y024100D03*
X043343Y023600D03*
X043343Y023100D03*
X043843Y023100D03*
X043843Y023600D03*
X043843Y024100D03*
X044343Y024100D03*
X044343Y023600D03*
X044343Y023100D03*
X044843Y023100D03*
X044843Y023600D03*
X044843Y024100D03*
X045343Y024100D03*
X045343Y023600D03*
X045343Y023100D03*
X045843Y023100D03*
X045843Y023600D03*
X045843Y024100D03*
X046343Y024100D03*
X046343Y023600D03*
X046343Y023100D03*
X046843Y023100D03*
X046843Y023600D03*
X046843Y024100D03*
X047343Y024100D03*
X047343Y023600D03*
X047343Y023100D03*
X047343Y022600D03*
X046843Y022600D03*
X046343Y022600D03*
X045843Y022600D03*
X045343Y022600D03*
X044843Y022600D03*
X044343Y022600D03*
X043843Y022600D03*
X043343Y022600D03*
X042843Y022600D03*
X042343Y022600D03*
X041843Y022600D03*
X041343Y022600D03*
X040843Y022600D03*
X040343Y022600D03*
X039843Y022600D03*
X039343Y022600D03*
X038843Y022600D03*
X038343Y022600D03*
X038343Y022100D03*
X038343Y021600D03*
X038843Y021600D03*
X038843Y022100D03*
X039343Y022100D03*
X039343Y021600D03*
X039843Y021600D03*
X039843Y022100D03*
X040343Y022100D03*
X040343Y021600D03*
X040843Y021600D03*
X040843Y022100D03*
X041343Y022100D03*
X041343Y021600D03*
X041843Y021600D03*
X041843Y022100D03*
X042343Y022100D03*
X042343Y021600D03*
X042843Y021600D03*
X042843Y022100D03*
X043343Y022100D03*
X043343Y021600D03*
X043843Y021600D03*
X043843Y022100D03*
X044343Y022100D03*
X044343Y021600D03*
X044843Y021600D03*
X044843Y022100D03*
X045343Y022100D03*
X045343Y021600D03*
X045843Y021600D03*
X045843Y022100D03*
X046343Y022100D03*
X046343Y021600D03*
X046843Y021600D03*
X046843Y022100D03*
X047343Y022100D03*
X047343Y021600D03*
X047343Y021100D03*
X046843Y021100D03*
X046343Y021100D03*
X045843Y021100D03*
X045343Y021100D03*
X044843Y021100D03*
X044343Y021100D03*
X043843Y021100D03*
X043343Y021100D03*
X042843Y021100D03*
X042343Y021100D03*
X041843Y021100D03*
X041343Y021100D03*
X040843Y021100D03*
X040343Y021100D03*
X039843Y021100D03*
X039343Y021100D03*
X038843Y021100D03*
X038343Y021100D03*
X038343Y020600D03*
X038343Y020100D03*
X038843Y020100D03*
X038843Y020600D03*
X039343Y020600D03*
X039343Y020100D03*
X039843Y020100D03*
X039843Y020600D03*
X040343Y020600D03*
X040343Y020100D03*
X040843Y020100D03*
X040843Y020600D03*
X041343Y020600D03*
X041343Y020100D03*
X041843Y020100D03*
X041843Y020600D03*
X042343Y020600D03*
X042343Y020100D03*
X042843Y020100D03*
X042843Y020600D03*
X043343Y020600D03*
X043343Y020100D03*
X043843Y020100D03*
X043843Y020600D03*
X044343Y020600D03*
X044343Y020100D03*
X044843Y020100D03*
X044843Y020600D03*
X045343Y020600D03*
X045343Y020100D03*
X045843Y020100D03*
X045843Y020600D03*
X046343Y020600D03*
X046343Y020100D03*
X046843Y020100D03*
X046843Y020600D03*
X047343Y020600D03*
X047343Y020100D03*
X047343Y019600D03*
X046843Y019600D03*
X046343Y019600D03*
X045843Y019600D03*
X045343Y019600D03*
X044843Y019600D03*
X044343Y019600D03*
X043843Y019600D03*
X043343Y019600D03*
X042843Y019600D03*
X042343Y019600D03*
X041843Y019600D03*
X041343Y019600D03*
X040843Y019600D03*
X040343Y019600D03*
X039843Y019600D03*
X039343Y019600D03*
X038843Y019600D03*
X038343Y019600D03*
X039093Y018750D03*
X038493Y017950D03*
X040543Y016450D03*
X041043Y016450D03*
X041543Y016450D03*
X042043Y016450D03*
X042543Y016450D03*
X043043Y016450D03*
X043543Y016450D03*
X044043Y016450D03*
X044043Y015950D03*
X043543Y015950D03*
X043043Y015950D03*
X042543Y015950D03*
X042043Y015950D03*
X041543Y015950D03*
X041043Y015950D03*
X040543Y015950D03*
X040543Y015450D03*
X040543Y014950D03*
X041043Y014950D03*
X041043Y015450D03*
X041543Y015450D03*
X041543Y014950D03*
X042043Y014950D03*
X042043Y015450D03*
X042543Y015450D03*
X042543Y014950D03*
X043043Y014950D03*
X043043Y015450D03*
X043543Y015450D03*
X043543Y014950D03*
X044043Y014950D03*
X044043Y015450D03*
X044043Y014450D03*
X043543Y014450D03*
X043043Y014450D03*
X042543Y014450D03*
X042043Y014450D03*
X041543Y014450D03*
X041043Y014450D03*
X040543Y014450D03*
X040543Y013950D03*
X041043Y013950D03*
X041043Y013450D03*
X041543Y013450D03*
X041543Y013950D03*
X042043Y013950D03*
X042043Y013450D03*
X042543Y013450D03*
X042543Y013950D03*
X043043Y013950D03*
X043043Y013450D03*
X043543Y013450D03*
X043543Y013950D03*
X044043Y013950D03*
X044043Y013450D03*
X045993Y012400D03*
X045993Y011900D03*
X045993Y011400D03*
X046493Y011400D03*
X046493Y011900D03*
X047993Y011900D03*
X047993Y011400D03*
X047993Y010900D03*
X047993Y012400D03*
X047993Y012900D03*
X047993Y013400D03*
X047993Y013900D03*
X047993Y014400D03*
X042343Y011450D03*
X040743Y010500D03*
X040443Y013350D03*
X035743Y013100D03*
X035193Y013550D03*
X034393Y013450D03*
X035743Y012300D03*
X035193Y011850D03*
X035293Y011500D03*
X035843Y011100D03*
X035843Y010200D03*
X035293Y009800D03*
X034493Y009900D03*
X034493Y011400D03*
X034393Y011950D03*
X031843Y012000D03*
X031293Y012200D03*
X028093Y011300D03*
X028093Y028900D03*
X028593Y028900D03*
X038593Y028750D03*
X042493Y030800D03*
X016293Y029450D03*
X006943Y030700D03*
X006943Y031600D03*
D20*
X032493Y019150D02*
X032493Y016200D01*
D21*
X037193Y010850D03*
X038993Y008850D03*
X024293Y018000D03*
X024293Y019000D03*
X017643Y009150D03*
X016343Y009150D03*
X015793Y006750D03*
X018193Y006750D03*
X018193Y003200D03*
X015793Y003150D03*
D22*
X044543Y017950D03*
D23*
X027293Y017935D02*
X027066Y017935D01*
X027066Y017896D02*
X027066Y018104D01*
X026986Y018298D01*
X026838Y018445D01*
X026706Y018500D01*
X026838Y018555D01*
X026986Y018702D01*
X027066Y018896D01*
X027066Y019104D01*
X026986Y019298D01*
X026838Y019445D01*
X026645Y019525D01*
X026436Y019525D01*
X026243Y019445D01*
X026095Y019298D01*
X026015Y019104D01*
X026015Y018896D01*
X026095Y018702D01*
X026243Y018555D01*
X026375Y018500D01*
X026243Y018445D01*
X026095Y018298D01*
X026015Y018104D01*
X026015Y017896D01*
X026095Y017702D01*
X026243Y017555D01*
X026375Y017500D01*
X026243Y017445D01*
X026095Y017298D01*
X026015Y017104D01*
X026015Y016896D01*
X026095Y016702D01*
X026243Y016555D01*
X026375Y016500D01*
X026243Y016445D01*
X026095Y016298D01*
X026015Y016104D01*
X026015Y015896D01*
X026095Y015702D01*
X026243Y015555D01*
X026375Y015500D01*
X026243Y015445D01*
X026095Y015298D01*
X026015Y015104D01*
X026015Y014896D01*
X026095Y014702D01*
X026243Y014555D01*
X026375Y014500D01*
X026243Y014445D01*
X026095Y014298D01*
X026015Y014104D01*
X026015Y013896D01*
X026095Y013702D01*
X026243Y013555D01*
X026375Y013500D01*
X026243Y013445D01*
X026095Y013298D01*
X026015Y013104D01*
X026015Y012896D01*
X026095Y012702D01*
X026243Y012555D01*
X026375Y012500D01*
X026243Y012445D01*
X026095Y012298D01*
X026015Y012104D01*
X026015Y011896D01*
X026095Y011702D01*
X026243Y011555D01*
X026436Y011475D01*
X026645Y011475D01*
X026838Y011555D01*
X026986Y011702D01*
X027066Y011896D01*
X027066Y012104D01*
X026986Y012298D01*
X026838Y012445D01*
X026706Y012500D01*
X026838Y012555D01*
X026986Y012702D01*
X027066Y012896D01*
X027066Y013104D01*
X026986Y013298D01*
X026838Y013445D01*
X026706Y013500D01*
X026838Y013555D01*
X026986Y013702D01*
X027066Y013896D01*
X027066Y014104D01*
X026986Y014298D01*
X026838Y014445D01*
X026706Y014500D01*
X026838Y014555D01*
X026986Y014702D01*
X027066Y014896D01*
X027066Y015104D01*
X026986Y015298D01*
X026838Y015445D01*
X026706Y015500D01*
X026838Y015555D01*
X026986Y015702D01*
X027066Y015896D01*
X027066Y016104D01*
X026986Y016298D01*
X026838Y016445D01*
X026706Y016500D01*
X026838Y016555D01*
X026986Y016702D01*
X027066Y016896D01*
X027066Y017104D01*
X026986Y017298D01*
X026838Y017445D01*
X026706Y017500D01*
X026838Y017555D01*
X026986Y017702D01*
X027066Y017896D01*
X027017Y017777D02*
X027293Y017777D01*
X027293Y017618D02*
X026901Y017618D01*
X026804Y017460D02*
X027293Y017460D01*
X027293Y017301D02*
X026982Y017301D01*
X027050Y017143D02*
X027293Y017143D01*
X027293Y016984D02*
X027066Y016984D01*
X027037Y016826D02*
X027293Y016826D01*
X027293Y016667D02*
X026950Y016667D01*
X026727Y016509D02*
X027293Y016509D01*
X027293Y016350D02*
X026933Y016350D01*
X027030Y016192D02*
X027293Y016192D01*
X027293Y016033D02*
X027066Y016033D01*
X027057Y015875D02*
X027293Y015875D01*
X027293Y015716D02*
X026991Y015716D01*
X026841Y015558D02*
X027293Y015558D01*
X027293Y015399D02*
X026884Y015399D01*
X027009Y015241D02*
X027293Y015241D01*
X027293Y015082D02*
X027066Y015082D01*
X027066Y014924D02*
X027293Y014924D01*
X027293Y014765D02*
X027012Y014765D01*
X026890Y014607D02*
X027293Y014607D01*
X027293Y014448D02*
X026832Y014448D01*
X026989Y014290D02*
X027293Y014290D01*
X027293Y014131D02*
X027055Y014131D01*
X027066Y013973D02*
X027293Y013973D01*
X027293Y013814D02*
X027032Y013814D01*
X026939Y013656D02*
X027293Y013656D01*
X027293Y013497D02*
X026713Y013497D01*
X026945Y013339D02*
X027293Y013339D01*
X027293Y013180D02*
X027035Y013180D01*
X027066Y013022D02*
X027293Y013022D01*
X027293Y012863D02*
X027052Y012863D01*
X026987Y012705D02*
X027293Y012705D01*
X027293Y012546D02*
X026817Y012546D01*
X026896Y012388D02*
X027293Y012388D01*
X027293Y012229D02*
X027014Y012229D01*
X027066Y012071D02*
X027293Y012071D01*
X027293Y011912D02*
X027066Y011912D01*
X027007Y011754D02*
X027293Y011754D01*
X027293Y011595D02*
X026878Y011595D01*
X027293Y011437D02*
X025793Y011437D01*
X025793Y011400D02*
X025793Y026450D01*
X026254Y026450D01*
X026243Y026445D01*
X026095Y026298D01*
X026015Y026104D01*
X026015Y025896D01*
X026095Y025702D01*
X026243Y025555D01*
X026375Y025500D01*
X026243Y025445D01*
X026095Y025298D01*
X026015Y025104D01*
X026015Y024896D01*
X026095Y024702D01*
X026243Y024555D01*
X026375Y024500D01*
X026243Y024445D01*
X026095Y024298D01*
X026015Y024104D01*
X026015Y023896D01*
X026095Y023702D01*
X026243Y023555D01*
X026375Y023500D01*
X026243Y023445D01*
X026095Y023298D01*
X026015Y023104D01*
X026015Y022896D01*
X026095Y022702D01*
X026243Y022555D01*
X026375Y022500D01*
X026243Y022445D01*
X026095Y022298D01*
X026015Y022104D01*
X026015Y021896D01*
X026095Y021702D01*
X026243Y021555D01*
X026375Y021500D01*
X026243Y021445D01*
X026095Y021298D01*
X026015Y021104D01*
X026015Y020896D01*
X026095Y020702D01*
X026243Y020555D01*
X026436Y020475D01*
X026645Y020475D01*
X026838Y020555D01*
X026986Y020702D01*
X027066Y020896D01*
X027066Y021104D01*
X026986Y021298D01*
X026838Y021445D01*
X026706Y021500D01*
X026838Y021555D01*
X026986Y021702D01*
X027066Y021896D01*
X027066Y022104D01*
X026986Y022298D01*
X026838Y022445D01*
X026706Y022500D01*
X026838Y022555D01*
X026986Y022702D01*
X027066Y022896D01*
X027066Y023104D01*
X026986Y023298D01*
X026838Y023445D01*
X026706Y023500D01*
X026838Y023555D01*
X026986Y023702D01*
X027066Y023896D01*
X027066Y024104D01*
X026986Y024298D01*
X026838Y024445D01*
X026706Y024500D01*
X026838Y024555D01*
X026986Y024702D01*
X027066Y024896D01*
X027066Y025104D01*
X026986Y025298D01*
X026838Y025445D01*
X026706Y025500D01*
X026838Y025555D01*
X026986Y025702D01*
X027066Y025896D01*
X027066Y026104D01*
X026986Y026298D01*
X026838Y026445D01*
X026827Y026450D01*
X027293Y026450D01*
X027293Y011400D01*
X025793Y011400D01*
X025793Y011595D02*
X026203Y011595D01*
X026074Y011754D02*
X025793Y011754D01*
X025793Y011912D02*
X026015Y011912D01*
X026015Y012071D02*
X025793Y012071D01*
X025793Y012229D02*
X026067Y012229D01*
X026185Y012388D02*
X025793Y012388D01*
X025793Y012546D02*
X026264Y012546D01*
X026094Y012705D02*
X025793Y012705D01*
X025793Y012863D02*
X026029Y012863D01*
X026015Y013022D02*
X025793Y013022D01*
X025793Y013180D02*
X026047Y013180D01*
X026136Y013339D02*
X025793Y013339D01*
X025793Y013497D02*
X026368Y013497D01*
X026142Y013656D02*
X025793Y013656D01*
X025793Y013814D02*
X026049Y013814D01*
X026015Y013973D02*
X025793Y013973D01*
X025793Y014131D02*
X026026Y014131D01*
X026092Y014290D02*
X025793Y014290D01*
X025793Y014448D02*
X026250Y014448D01*
X026191Y014607D02*
X025793Y014607D01*
X025793Y014765D02*
X026069Y014765D01*
X026015Y014924D02*
X025793Y014924D01*
X025793Y015082D02*
X026015Y015082D01*
X026072Y015241D02*
X025793Y015241D01*
X025793Y015399D02*
X026197Y015399D01*
X026240Y015558D02*
X025793Y015558D01*
X025793Y015716D02*
X026090Y015716D01*
X026024Y015875D02*
X025793Y015875D01*
X025793Y016033D02*
X026015Y016033D01*
X026051Y016192D02*
X025793Y016192D01*
X025793Y016350D02*
X026148Y016350D01*
X026354Y016509D02*
X025793Y016509D01*
X025793Y016667D02*
X026131Y016667D01*
X026044Y016826D02*
X025793Y016826D01*
X025793Y016984D02*
X026015Y016984D01*
X026031Y017143D02*
X025793Y017143D01*
X025793Y017301D02*
X026099Y017301D01*
X026277Y017460D02*
X025793Y017460D01*
X025793Y017618D02*
X026180Y017618D01*
X026065Y017777D02*
X025793Y017777D01*
X025793Y017935D02*
X026015Y017935D01*
X026015Y018094D02*
X025793Y018094D01*
X025793Y018252D02*
X026076Y018252D01*
X026208Y018411D02*
X025793Y018411D01*
X025793Y018569D02*
X026229Y018569D01*
X026085Y018728D02*
X025793Y018728D01*
X025793Y018886D02*
X026019Y018886D01*
X026015Y019045D02*
X025793Y019045D01*
X025793Y019203D02*
X026056Y019203D01*
X026159Y019362D02*
X025793Y019362D01*
X025793Y019520D02*
X026423Y019520D01*
X026658Y019520D02*
X027293Y019520D01*
X027293Y019362D02*
X026922Y019362D01*
X027025Y019203D02*
X027293Y019203D01*
X027293Y019045D02*
X027066Y019045D01*
X027062Y018886D02*
X027293Y018886D01*
X027293Y018728D02*
X026996Y018728D01*
X026852Y018569D02*
X027293Y018569D01*
X027293Y018411D02*
X026873Y018411D01*
X027005Y018252D02*
X027293Y018252D01*
X027293Y018094D02*
X027066Y018094D01*
X027293Y019679D02*
X025793Y019679D01*
X025793Y019837D02*
X027293Y019837D01*
X027293Y019996D02*
X025793Y019996D01*
X025793Y020154D02*
X027293Y020154D01*
X027293Y020313D02*
X025793Y020313D01*
X025793Y020471D02*
X027293Y020471D01*
X027293Y020630D02*
X026913Y020630D01*
X027021Y020788D02*
X027293Y020788D01*
X027293Y020947D02*
X027066Y020947D01*
X027066Y021105D02*
X027293Y021105D01*
X027293Y021264D02*
X027000Y021264D01*
X026861Y021422D02*
X027293Y021422D01*
X027293Y021581D02*
X026864Y021581D01*
X027001Y021739D02*
X027293Y021739D01*
X027293Y021898D02*
X027066Y021898D01*
X027066Y022056D02*
X027293Y022056D01*
X027293Y022215D02*
X027020Y022215D01*
X026910Y022373D02*
X027293Y022373D01*
X027293Y022532D02*
X026782Y022532D01*
X026973Y022690D02*
X027293Y022690D01*
X027293Y022849D02*
X027046Y022849D01*
X027066Y023007D02*
X027293Y023007D01*
X027293Y023166D02*
X027041Y023166D01*
X026959Y023324D02*
X027293Y023324D01*
X027293Y023483D02*
X026748Y023483D01*
X026924Y023641D02*
X027293Y023641D01*
X027293Y023800D02*
X027026Y023800D01*
X027066Y023958D02*
X027293Y023958D01*
X027293Y024117D02*
X027061Y024117D01*
X026995Y024275D02*
X027293Y024275D01*
X027293Y024434D02*
X026850Y024434D01*
X026875Y024592D02*
X027293Y024592D01*
X027293Y024751D02*
X027006Y024751D01*
X027066Y024909D02*
X027293Y024909D01*
X027293Y025068D02*
X027066Y025068D01*
X027015Y025226D02*
X027293Y025226D01*
X027293Y025385D02*
X026899Y025385D01*
X026810Y025543D02*
X027293Y025543D01*
X027293Y025702D02*
X026985Y025702D01*
X027051Y025860D02*
X027293Y025860D01*
X027293Y026019D02*
X027066Y026019D01*
X027036Y026177D02*
X027293Y026177D01*
X027293Y026336D02*
X026948Y026336D01*
X026133Y026336D02*
X025793Y026336D01*
X025793Y026177D02*
X026045Y026177D01*
X026015Y026019D02*
X025793Y026019D01*
X025793Y025860D02*
X026030Y025860D01*
X026096Y025702D02*
X025793Y025702D01*
X025793Y025543D02*
X026271Y025543D01*
X026182Y025385D02*
X025793Y025385D01*
X025793Y025226D02*
X026066Y025226D01*
X026015Y025068D02*
X025793Y025068D01*
X025793Y024909D02*
X026015Y024909D01*
X026075Y024751D02*
X025793Y024751D01*
X025793Y024592D02*
X026206Y024592D01*
X026231Y024434D02*
X025793Y024434D01*
X025793Y024275D02*
X026086Y024275D01*
X026020Y024117D02*
X025793Y024117D01*
X025793Y023958D02*
X026015Y023958D01*
X026055Y023800D02*
X025793Y023800D01*
X025793Y023641D02*
X026157Y023641D01*
X026333Y023483D02*
X025793Y023483D01*
X025793Y023324D02*
X026122Y023324D01*
X026041Y023166D02*
X025793Y023166D01*
X025793Y023007D02*
X026015Y023007D01*
X026035Y022849D02*
X025793Y022849D01*
X025793Y022690D02*
X026108Y022690D01*
X026299Y022532D02*
X025793Y022532D01*
X025793Y022373D02*
X026171Y022373D01*
X026061Y022215D02*
X025793Y022215D01*
X025793Y022056D02*
X026015Y022056D01*
X026015Y021898D02*
X025793Y021898D01*
X025793Y021739D02*
X026080Y021739D01*
X026217Y021581D02*
X025793Y021581D01*
X025793Y021422D02*
X026220Y021422D01*
X026081Y021264D02*
X025793Y021264D01*
X025793Y021105D02*
X026016Y021105D01*
X026015Y020947D02*
X025793Y020947D01*
X025793Y020788D02*
X026060Y020788D01*
X026168Y020630D02*
X025793Y020630D01*
X008293Y019120D02*
X008293Y007900D01*
X007706Y007900D01*
X007838Y007955D01*
X007986Y008102D01*
X008066Y008296D01*
X008066Y008504D01*
X007986Y008698D01*
X007838Y008845D01*
X007706Y008900D01*
X007838Y008955D01*
X007986Y009102D01*
X008066Y009296D01*
X008066Y009504D01*
X007986Y009698D01*
X007838Y009845D01*
X007706Y009900D01*
X007838Y009955D01*
X007986Y010102D01*
X008066Y010296D01*
X008066Y010504D01*
X007986Y010698D01*
X007838Y010845D01*
X007706Y010900D01*
X007838Y010955D01*
X007986Y011102D01*
X008066Y011296D01*
X008066Y011504D01*
X007986Y011698D01*
X007838Y011845D01*
X007706Y011900D01*
X007838Y011955D01*
X007986Y012102D01*
X008066Y012296D01*
X008066Y012504D01*
X007986Y012698D01*
X007838Y012845D01*
X007706Y012900D01*
X007838Y012955D01*
X007986Y013102D01*
X008066Y013296D01*
X008066Y013504D01*
X007986Y013698D01*
X007838Y013845D01*
X007706Y013900D01*
X007838Y013955D01*
X007986Y014102D01*
X008066Y014296D01*
X008066Y014504D01*
X007986Y014698D01*
X007838Y014845D01*
X007706Y014900D01*
X007838Y014955D01*
X007986Y015102D01*
X008066Y015296D01*
X008066Y015504D01*
X007986Y015698D01*
X007838Y015845D01*
X007706Y015900D01*
X007838Y015955D01*
X007986Y016102D01*
X008066Y016296D01*
X008066Y016504D01*
X007986Y016698D01*
X007838Y016845D01*
X007706Y016900D01*
X007838Y016955D01*
X007986Y017102D01*
X008066Y017296D01*
X008066Y017504D01*
X007986Y017698D01*
X007838Y017845D01*
X007645Y017925D01*
X007436Y017925D01*
X007243Y017845D01*
X007095Y017698D01*
X007015Y017504D01*
X007015Y017296D01*
X007095Y017102D01*
X007243Y016955D01*
X007375Y016900D01*
X007243Y016845D01*
X007095Y016698D01*
X007015Y016504D01*
X007015Y016296D01*
X007095Y016102D01*
X007243Y015955D01*
X007375Y015900D01*
X007243Y015845D01*
X007095Y015698D01*
X007015Y015504D01*
X007015Y015296D01*
X007095Y015102D01*
X007243Y014955D01*
X007375Y014900D01*
X007243Y014845D01*
X007095Y014698D01*
X007015Y014504D01*
X007015Y014296D01*
X007095Y014102D01*
X007243Y013955D01*
X007375Y013900D01*
X007243Y013845D01*
X007095Y013698D01*
X007015Y013504D01*
X007015Y013296D01*
X007095Y013102D01*
X007243Y012955D01*
X007375Y012900D01*
X007243Y012845D01*
X007095Y012698D01*
X007015Y012504D01*
X007015Y012296D01*
X007095Y012102D01*
X007243Y011955D01*
X007375Y011900D01*
X007243Y011845D01*
X007095Y011698D01*
X007015Y011504D01*
X007015Y011296D01*
X007095Y011102D01*
X007243Y010955D01*
X007375Y010900D01*
X007243Y010845D01*
X007095Y010698D01*
X007015Y010504D01*
X007015Y010296D01*
X007095Y010102D01*
X007243Y009955D01*
X007375Y009900D01*
X007243Y009845D01*
X007095Y009698D01*
X007015Y009504D01*
X007015Y009296D01*
X007095Y009102D01*
X007243Y008955D01*
X007375Y008900D01*
X007243Y008845D01*
X007095Y008698D01*
X007015Y008504D01*
X007015Y008296D01*
X007095Y008102D01*
X007243Y007955D01*
X007375Y007900D01*
X006793Y007900D01*
X006793Y019120D01*
X007022Y019120D01*
X007015Y019104D01*
X007015Y018896D01*
X007095Y018702D01*
X007243Y018555D01*
X007436Y018475D01*
X007645Y018475D01*
X007838Y018555D01*
X007986Y018702D01*
X008066Y018896D01*
X008066Y019104D01*
X008059Y019120D01*
X008293Y019120D01*
X008293Y019045D02*
X008066Y019045D01*
X008062Y018886D02*
X008293Y018886D01*
X008293Y018728D02*
X007996Y018728D01*
X007852Y018569D02*
X008293Y018569D01*
X008293Y018411D02*
X006793Y018411D01*
X006793Y018569D02*
X007229Y018569D01*
X007085Y018728D02*
X006793Y018728D01*
X006793Y018886D02*
X007019Y018886D01*
X007015Y019045D02*
X006793Y019045D01*
X006793Y018252D02*
X008293Y018252D01*
X008293Y018094D02*
X006793Y018094D01*
X006793Y017935D02*
X008293Y017935D01*
X008293Y017777D02*
X007907Y017777D01*
X008019Y017618D02*
X008293Y017618D01*
X008293Y017460D02*
X008066Y017460D01*
X008066Y017301D02*
X008293Y017301D01*
X008293Y017143D02*
X008002Y017143D01*
X007867Y016984D02*
X008293Y016984D01*
X008293Y016826D02*
X007858Y016826D01*
X007998Y016667D02*
X008293Y016667D01*
X008293Y016509D02*
X008064Y016509D01*
X008066Y016350D02*
X008293Y016350D01*
X008293Y016192D02*
X008023Y016192D01*
X007916Y016033D02*
X008293Y016033D01*
X008293Y015875D02*
X007768Y015875D01*
X007967Y015716D02*
X008293Y015716D01*
X008293Y015558D02*
X008044Y015558D01*
X008066Y015399D02*
X008293Y015399D01*
X008293Y015241D02*
X008043Y015241D01*
X007965Y015082D02*
X008293Y015082D01*
X008293Y014924D02*
X007763Y014924D01*
X007918Y014765D02*
X008293Y014765D01*
X008293Y014607D02*
X008024Y014607D01*
X008066Y014448D02*
X008293Y014448D01*
X008293Y014290D02*
X008063Y014290D01*
X007998Y014131D02*
X008293Y014131D01*
X008293Y013973D02*
X007856Y013973D01*
X007869Y013814D02*
X008293Y013814D01*
X008293Y013656D02*
X008003Y013656D01*
X008066Y013497D02*
X008293Y013497D01*
X008293Y013339D02*
X008066Y013339D01*
X008018Y013180D02*
X008293Y013180D01*
X008293Y013022D02*
X007905Y013022D01*
X007795Y012863D02*
X008293Y012863D01*
X008293Y012705D02*
X007979Y012705D01*
X008049Y012546D02*
X008293Y012546D01*
X008293Y012388D02*
X008066Y012388D01*
X008038Y012229D02*
X008293Y012229D01*
X008293Y012071D02*
X007954Y012071D01*
X007735Y011912D02*
X008293Y011912D01*
X008293Y011754D02*
X007930Y011754D01*
X008028Y011595D02*
X008293Y011595D01*
X008293Y011437D02*
X008066Y011437D01*
X008059Y011278D02*
X008293Y011278D01*
X008293Y011120D02*
X007993Y011120D01*
X007844Y010961D02*
X008293Y010961D01*
X008293Y010803D02*
X007881Y010803D01*
X008008Y010644D02*
X008293Y010644D01*
X008293Y010486D02*
X008066Y010486D01*
X008066Y010327D02*
X008293Y010327D01*
X008293Y010169D02*
X008013Y010169D01*
X007893Y010010D02*
X008293Y010010D01*
X008293Y009852D02*
X007823Y009852D01*
X007988Y009693D02*
X008293Y009693D01*
X008293Y009535D02*
X008053Y009535D01*
X008066Y009376D02*
X008293Y009376D01*
X008293Y009218D02*
X008034Y009218D01*
X007942Y009059D02*
X008293Y009059D01*
X008293Y008901D02*
X007707Y008901D01*
X007941Y008742D02*
X008293Y008742D01*
X008293Y008584D02*
X008033Y008584D01*
X008066Y008425D02*
X008293Y008425D01*
X008293Y008267D02*
X008054Y008267D01*
X007988Y008108D02*
X008293Y008108D01*
X008293Y007950D02*
X007826Y007950D01*
X007256Y007950D02*
X006793Y007950D01*
X006793Y008108D02*
X007093Y008108D01*
X007027Y008267D02*
X006793Y008267D01*
X006793Y008425D02*
X007015Y008425D01*
X007048Y008584D02*
X006793Y008584D01*
X006793Y008742D02*
X007140Y008742D01*
X007374Y008901D02*
X006793Y008901D01*
X006793Y009059D02*
X007139Y009059D01*
X007048Y009218D02*
X006793Y009218D01*
X006793Y009376D02*
X007015Y009376D01*
X007028Y009535D02*
X006793Y009535D01*
X006793Y009693D02*
X007093Y009693D01*
X007258Y009852D02*
X006793Y009852D01*
X006793Y010010D02*
X007188Y010010D01*
X007068Y010169D02*
X006793Y010169D01*
X006793Y010327D02*
X007015Y010327D01*
X007015Y010486D02*
X006793Y010486D01*
X006793Y010644D02*
X007073Y010644D01*
X007200Y010803D02*
X006793Y010803D01*
X006793Y010961D02*
X007237Y010961D01*
X007088Y011120D02*
X006793Y011120D01*
X006793Y011278D02*
X007023Y011278D01*
X007015Y011437D02*
X006793Y011437D01*
X006793Y011595D02*
X007053Y011595D01*
X007151Y011754D02*
X006793Y011754D01*
X006793Y011912D02*
X007346Y011912D01*
X007127Y012071D02*
X006793Y012071D01*
X006793Y012229D02*
X007043Y012229D01*
X007015Y012388D02*
X006793Y012388D01*
X006793Y012546D02*
X007032Y012546D01*
X007102Y012705D02*
X006793Y012705D01*
X006793Y012863D02*
X007286Y012863D01*
X007176Y013022D02*
X006793Y013022D01*
X006793Y013180D02*
X007063Y013180D01*
X007015Y013339D02*
X006793Y013339D01*
X006793Y013497D02*
X007015Y013497D01*
X007078Y013656D02*
X006793Y013656D01*
X006793Y013814D02*
X007212Y013814D01*
X007225Y013973D02*
X006793Y013973D01*
X006793Y014131D02*
X007083Y014131D01*
X007018Y014290D02*
X006793Y014290D01*
X006793Y014448D02*
X007015Y014448D01*
X007058Y014607D02*
X006793Y014607D01*
X006793Y014765D02*
X007163Y014765D01*
X007318Y014924D02*
X006793Y014924D01*
X006793Y015082D02*
X007116Y015082D01*
X007038Y015241D02*
X006793Y015241D01*
X006793Y015399D02*
X007015Y015399D01*
X007037Y015558D02*
X006793Y015558D01*
X006793Y015716D02*
X007114Y015716D01*
X007314Y015875D02*
X006793Y015875D01*
X006793Y016033D02*
X007165Y016033D01*
X007058Y016192D02*
X006793Y016192D01*
X006793Y016350D02*
X007015Y016350D01*
X007017Y016509D02*
X006793Y016509D01*
X006793Y016667D02*
X007083Y016667D01*
X007223Y016826D02*
X006793Y016826D01*
X006793Y016984D02*
X007214Y016984D01*
X007079Y017143D02*
X006793Y017143D01*
X006793Y017301D02*
X007015Y017301D01*
X007015Y017460D02*
X006793Y017460D01*
X006793Y017618D02*
X007062Y017618D01*
X007174Y017777D02*
X006793Y017777D01*
D24*
X044243Y005000D03*
M02*
