G75*
%MOIN*%
%OFA0B0*%
%FSLAX24Y24*%
%IPPOS*%
%LPD*%
%AMOC8*
5,1,8,0,0,1.08239X$1,22.5*
%
%ADD10OC8,0.0660*%
%ADD11OC8,0.0700*%
%ADD12R,0.0700X0.0700*%
%ADD13OC8,0.1210*%
%ADD14OC8,0.1065*%
%ADD15OC8,0.0472*%
%ADD16OC8,0.1230*%
%ADD17OC8,0.0886*%
%ADD18C,0.0376*%
%ADD19C,0.0270*%
%ADD20C,0.0070*%
%ADD21C,0.0120*%
%ADD22C,0.0320*%
%ADD23C,0.0240*%
%ADD24C,0.0531*%
%ADD25C,0.0100*%
%ADD26C,0.0500*%
%ADD27C,0.0591*%
%ADD28C,0.1200*%
%ADD29OC8,0.0945*%
%ADD30C,0.0160*%
%ADD31OC8,0.0827*%
D10*
X007541Y008400D03*
X007541Y009400D03*
X007541Y010400D03*
X007541Y011400D03*
X007541Y012400D03*
X007541Y013400D03*
X007541Y014400D03*
X007541Y015400D03*
X007541Y016400D03*
X007541Y017400D03*
X007541Y019000D03*
X007541Y020000D03*
X007541Y021000D03*
X007541Y022000D03*
X007541Y023000D03*
X007541Y024000D03*
X007541Y025000D03*
X007541Y026000D03*
X026541Y026000D03*
X026541Y025000D03*
X026541Y024000D03*
X026541Y023000D03*
X026541Y022000D03*
X026541Y021000D03*
X026541Y019000D03*
X026541Y018000D03*
X026541Y017000D03*
X026541Y016000D03*
X026541Y015000D03*
X026541Y014000D03*
X026541Y013000D03*
X026541Y012000D03*
X030243Y008050D03*
X031243Y008050D03*
X032243Y008050D03*
X033243Y008050D03*
X034243Y008050D03*
X035243Y008050D03*
X035243Y007050D03*
X034243Y007050D03*
X033243Y007050D03*
X032243Y007050D03*
X031243Y007050D03*
X030243Y007050D03*
X035793Y005850D03*
X035793Y004850D03*
X036793Y004850D03*
X037793Y004850D03*
X037793Y005850D03*
X036793Y005850D03*
X038793Y005850D03*
X038793Y004850D03*
X039793Y004850D03*
X039793Y005850D03*
D11*
X017541Y026050D03*
X016541Y026050D03*
X016541Y027050D03*
X017541Y027050D03*
X015541Y027050D03*
D12*
X015541Y026050D03*
D13*
X030381Y029640D03*
X034406Y029640D03*
X036581Y029640D03*
X040606Y029640D03*
X042781Y029640D03*
X046806Y029640D03*
X048981Y029640D03*
X053006Y029640D03*
X033006Y002960D03*
X028981Y002960D03*
D14*
X023893Y006070D03*
X022243Y006070D03*
X020593Y006070D03*
D15*
X020443Y030050D03*
X021923Y030050D03*
X018963Y030050D03*
D16*
X017928Y031230D03*
X022958Y031230D03*
D17*
X044293Y008420D03*
X051793Y008420D03*
X051793Y002200D03*
X044293Y002200D03*
D18*
X047393Y010900D03*
X049343Y011550D03*
X047093Y015400D03*
X046193Y015600D03*
X051443Y019550D03*
X050993Y019750D03*
X050543Y019750D03*
X050543Y020250D03*
X050993Y020250D03*
X050993Y020750D03*
X050543Y020750D03*
X050543Y021250D03*
X050993Y021250D03*
X050993Y021750D03*
X050543Y021750D03*
X050543Y022250D03*
X050993Y022250D03*
X050993Y022750D03*
X050543Y022750D03*
X051493Y022850D03*
X029543Y010150D03*
X018243Y009900D03*
X018243Y020850D03*
X017593Y023300D03*
X017593Y024000D03*
X018043Y024550D03*
X018893Y024550D03*
X019193Y023250D03*
D19*
X018043Y022700D03*
X016293Y022000D03*
X020393Y022850D03*
X022893Y022250D03*
X028593Y018350D03*
X029143Y018800D03*
X030093Y018600D03*
X030243Y019650D03*
X032493Y019150D03*
X034143Y018600D03*
X035093Y018800D03*
X035793Y017550D03*
X035193Y016500D03*
X032493Y016200D03*
X031843Y014950D03*
X029843Y015600D03*
X030093Y017100D03*
X029093Y017100D03*
X028593Y017550D03*
X028393Y017850D03*
X031193Y021600D03*
X032093Y021600D03*
X031993Y023050D03*
X031543Y024150D03*
X030643Y024850D03*
X029543Y024850D03*
X031993Y025950D03*
X034243Y025550D03*
X035693Y024350D03*
X034343Y023800D03*
X038343Y023600D03*
X038343Y023100D03*
X038843Y023100D03*
X038843Y023600D03*
X038843Y024100D03*
X038343Y024100D03*
X038343Y024600D03*
X038343Y025100D03*
X038343Y025600D03*
X038843Y025600D03*
X038843Y025100D03*
X038843Y024600D03*
X039343Y024600D03*
X039343Y025100D03*
X039343Y025600D03*
X039843Y025600D03*
X039843Y025100D03*
X039843Y024600D03*
X040343Y024600D03*
X040343Y025100D03*
X040343Y025600D03*
X040843Y025600D03*
X040843Y025100D03*
X040843Y024600D03*
X041343Y024600D03*
X041343Y025100D03*
X041343Y025600D03*
X041843Y025600D03*
X041843Y025100D03*
X041843Y024600D03*
X042343Y024600D03*
X042343Y025100D03*
X042343Y025600D03*
X042843Y025600D03*
X042843Y025100D03*
X042843Y024600D03*
X043343Y024600D03*
X043343Y025100D03*
X043343Y025600D03*
X043843Y025600D03*
X043843Y025100D03*
X043843Y024600D03*
X044343Y024600D03*
X044343Y025100D03*
X044343Y025600D03*
X044843Y025600D03*
X044843Y025100D03*
X044843Y024600D03*
X045343Y024600D03*
X045343Y025100D03*
X045343Y025600D03*
X045843Y025600D03*
X045843Y025100D03*
X045843Y024600D03*
X046343Y024600D03*
X046343Y025100D03*
X046343Y025600D03*
X046843Y025600D03*
X046843Y025100D03*
X046843Y024600D03*
X047343Y024600D03*
X047343Y025100D03*
X047343Y025600D03*
X047343Y026100D03*
X046843Y026100D03*
X046343Y026100D03*
X045843Y026100D03*
X045343Y026100D03*
X044843Y026100D03*
X044343Y026100D03*
X043843Y026100D03*
X043343Y026100D03*
X042843Y026100D03*
X042343Y026100D03*
X041843Y026100D03*
X041343Y026100D03*
X040843Y026100D03*
X040343Y026100D03*
X039843Y026100D03*
X039343Y026100D03*
X038843Y026100D03*
X038343Y026100D03*
X039343Y024100D03*
X039343Y023600D03*
X039343Y023100D03*
X039843Y023100D03*
X039843Y023600D03*
X039843Y024100D03*
X040343Y024100D03*
X040343Y023600D03*
X040343Y023100D03*
X040843Y023100D03*
X040843Y023600D03*
X040843Y024100D03*
X041343Y024100D03*
X041343Y023600D03*
X041343Y023100D03*
X041843Y023100D03*
X041843Y023600D03*
X041843Y024100D03*
X042343Y024100D03*
X042343Y023600D03*
X042343Y023100D03*
X042843Y023100D03*
X042843Y023600D03*
X042843Y024100D03*
X043343Y024100D03*
X043343Y023600D03*
X043343Y023100D03*
X043843Y023100D03*
X043843Y023600D03*
X043843Y024100D03*
X044343Y024100D03*
X044343Y023600D03*
X044343Y023100D03*
X044843Y023100D03*
X044843Y023600D03*
X044843Y024100D03*
X045343Y024100D03*
X045343Y023600D03*
X045343Y023100D03*
X045843Y023100D03*
X045843Y023600D03*
X045843Y024100D03*
X046343Y024100D03*
X046343Y023600D03*
X046343Y023100D03*
X046843Y023100D03*
X046843Y023600D03*
X046843Y024100D03*
X047343Y024100D03*
X047343Y023600D03*
X047343Y023100D03*
X047343Y022600D03*
X046843Y022600D03*
X046343Y022600D03*
X045843Y022600D03*
X045343Y022600D03*
X044843Y022600D03*
X044343Y022600D03*
X043843Y022600D03*
X043343Y022600D03*
X042843Y022600D03*
X042343Y022600D03*
X041843Y022600D03*
X041343Y022600D03*
X040843Y022600D03*
X040343Y022600D03*
X039843Y022600D03*
X039343Y022600D03*
X038843Y022600D03*
X038343Y022600D03*
X038343Y022100D03*
X038343Y021600D03*
X038843Y021600D03*
X038843Y022100D03*
X039343Y022100D03*
X039343Y021600D03*
X039843Y021600D03*
X039843Y022100D03*
X040343Y022100D03*
X040343Y021600D03*
X040843Y021600D03*
X040843Y022100D03*
X041343Y022100D03*
X041343Y021600D03*
X041843Y021600D03*
X041843Y022100D03*
X042343Y022100D03*
X042343Y021600D03*
X042843Y021600D03*
X042843Y022100D03*
X043343Y022100D03*
X043343Y021600D03*
X043843Y021600D03*
X043843Y022100D03*
X044343Y022100D03*
X044343Y021600D03*
X044843Y021600D03*
X044843Y022100D03*
X045343Y022100D03*
X045343Y021600D03*
X045843Y021600D03*
X045843Y022100D03*
X046343Y022100D03*
X046343Y021600D03*
X046843Y021600D03*
X046843Y022100D03*
X047343Y022100D03*
X047343Y021600D03*
X047343Y021100D03*
X046843Y021100D03*
X046343Y021100D03*
X045843Y021100D03*
X045343Y021100D03*
X044843Y021100D03*
X044343Y021100D03*
X043843Y021100D03*
X043343Y021100D03*
X042843Y021100D03*
X042343Y021100D03*
X041843Y021100D03*
X041343Y021100D03*
X040843Y021100D03*
X040343Y021100D03*
X039843Y021100D03*
X039343Y021100D03*
X038843Y021100D03*
X038343Y021100D03*
X038343Y020600D03*
X038343Y020100D03*
X038843Y020100D03*
X038843Y020600D03*
X039343Y020600D03*
X039343Y020100D03*
X039843Y020100D03*
X039843Y020600D03*
X040343Y020600D03*
X040343Y020100D03*
X040843Y020100D03*
X040843Y020600D03*
X041343Y020600D03*
X041343Y020100D03*
X041843Y020100D03*
X041843Y020600D03*
X042343Y020600D03*
X042343Y020100D03*
X042843Y020100D03*
X042843Y020600D03*
X043343Y020600D03*
X043343Y020100D03*
X043843Y020100D03*
X043843Y020600D03*
X044343Y020600D03*
X044343Y020100D03*
X044843Y020100D03*
X044843Y020600D03*
X045343Y020600D03*
X045343Y020100D03*
X045843Y020100D03*
X045843Y020600D03*
X046343Y020600D03*
X046343Y020100D03*
X046843Y020100D03*
X046843Y020600D03*
X047343Y020600D03*
X047343Y020100D03*
X047343Y019600D03*
X046843Y019600D03*
X046343Y019600D03*
X045843Y019600D03*
X045343Y019600D03*
X044843Y019600D03*
X044343Y019600D03*
X043843Y019600D03*
X043343Y019600D03*
X042843Y019600D03*
X042343Y019600D03*
X041843Y019600D03*
X041343Y019600D03*
X040843Y019600D03*
X040343Y019600D03*
X039843Y019600D03*
X039343Y019600D03*
X038843Y019600D03*
X038343Y019600D03*
X039093Y018750D03*
X038493Y017950D03*
X040543Y016450D03*
X041043Y016450D03*
X041543Y016450D03*
X042043Y016450D03*
X042543Y016450D03*
X043043Y016450D03*
X043543Y016450D03*
X044043Y016450D03*
X044043Y015950D03*
X043543Y015950D03*
X043043Y015950D03*
X042543Y015950D03*
X042043Y015950D03*
X041543Y015950D03*
X041043Y015950D03*
X040543Y015950D03*
X040543Y015450D03*
X040543Y014950D03*
X041043Y014950D03*
X041043Y015450D03*
X041543Y015450D03*
X041543Y014950D03*
X042043Y014950D03*
X042043Y015450D03*
X042543Y015450D03*
X042543Y014950D03*
X043043Y014950D03*
X043043Y015450D03*
X043543Y015450D03*
X043543Y014950D03*
X044043Y014950D03*
X044043Y015450D03*
X044043Y014450D03*
X043543Y014450D03*
X043043Y014450D03*
X042543Y014450D03*
X042043Y014450D03*
X041543Y014450D03*
X041043Y014450D03*
X040543Y014450D03*
X040543Y013950D03*
X041043Y013950D03*
X041043Y013450D03*
X041543Y013450D03*
X041543Y013950D03*
X042043Y013950D03*
X042043Y013450D03*
X042543Y013450D03*
X042543Y013950D03*
X043043Y013950D03*
X043043Y013450D03*
X043543Y013450D03*
X043543Y013950D03*
X044043Y013950D03*
X044043Y013450D03*
X045993Y012400D03*
X045993Y011900D03*
X045993Y011400D03*
X046493Y011400D03*
X046493Y011900D03*
X047993Y011900D03*
X047993Y011400D03*
X047993Y010900D03*
X047993Y012400D03*
X047993Y012900D03*
X047993Y013400D03*
X047993Y013900D03*
X047993Y014400D03*
X042343Y011450D03*
X040743Y010500D03*
X040443Y013350D03*
X035743Y013100D03*
X035193Y013550D03*
X034393Y013450D03*
X035743Y012300D03*
X035193Y011850D03*
X035293Y011500D03*
X035843Y011100D03*
X035843Y010200D03*
X035293Y009800D03*
X034493Y009900D03*
X034493Y011400D03*
X034393Y011950D03*
X031843Y012000D03*
X031293Y012200D03*
X028093Y011300D03*
X028093Y028900D03*
X028593Y028900D03*
X038593Y028750D03*
X042493Y030800D03*
X016293Y029450D03*
X006943Y030700D03*
X006943Y031600D03*
D20*
X016293Y022000D02*
X016993Y022700D01*
X018043Y022700D01*
D21*
X020393Y022850D02*
X020401Y022857D01*
X020401Y029193D01*
X020143Y029450D01*
X016293Y029450D01*
X028093Y028900D02*
X028093Y025750D01*
X029593Y024250D01*
X029593Y015850D01*
X029843Y015600D01*
X028093Y017550D02*
X028393Y017850D01*
X028093Y017550D02*
X028093Y011300D01*
X030243Y019650D02*
X030243Y027350D01*
X030593Y027700D01*
X034443Y027700D01*
X035493Y028750D01*
X038593Y028750D01*
X029543Y024850D02*
X028593Y025800D01*
X028593Y028900D01*
D22*
X029418Y010025D02*
X029293Y009900D01*
X018243Y009900D01*
D23*
X029418Y010025D02*
X029543Y010150D01*
X036643Y009580D02*
X036873Y009350D01*
X046843Y009350D01*
X047393Y009900D01*
X047393Y010900D01*
X036643Y009580D02*
X036643Y017320D01*
X036413Y017550D01*
X035793Y017550D01*
D24*
X037193Y010850D03*
X038993Y008850D03*
X024293Y018000D03*
X024293Y019000D03*
X017643Y009150D03*
X016343Y009150D03*
X015793Y006750D03*
X018193Y006750D03*
X018193Y003200D03*
X015793Y003150D03*
D25*
X005693Y001083D02*
X005693Y019200D01*
X006513Y019200D01*
X006513Y007844D01*
X006556Y007741D01*
X006635Y007663D01*
X006738Y007620D01*
X008349Y007620D01*
X008452Y007663D01*
X008531Y007741D01*
X008573Y007844D01*
X008573Y019200D01*
X017643Y019200D01*
X017643Y020300D01*
X019593Y020300D01*
X019593Y027750D01*
X007404Y027750D01*
X007475Y027779D01*
X007714Y028019D01*
X007843Y028331D01*
X007843Y028669D01*
X007714Y028981D01*
X007475Y029221D01*
X007162Y029350D01*
X006824Y029350D01*
X006512Y029221D01*
X006273Y028981D01*
X006143Y028669D01*
X006143Y028331D01*
X006273Y028019D01*
X006512Y027779D01*
X006583Y027750D01*
X005693Y027750D01*
X005693Y031413D01*
X006076Y031796D01*
X017469Y031796D01*
X017203Y031530D01*
X017203Y030930D01*
X017628Y030505D01*
X018229Y030505D01*
X018653Y030930D01*
X018653Y031530D01*
X018388Y031796D01*
X022499Y031796D01*
X022233Y031530D01*
X022233Y030930D01*
X022658Y030505D01*
X023259Y030505D01*
X023683Y030930D01*
X023683Y031530D01*
X023418Y031796D01*
X054123Y031796D01*
X054506Y031413D01*
X054506Y001083D01*
X054123Y000700D01*
X006076Y000700D01*
X005693Y001083D01*
X005693Y001091D02*
X054506Y001091D01*
X054506Y001190D02*
X048508Y001190D01*
X048412Y001150D02*
X048725Y001279D01*
X048964Y001519D01*
X049093Y001831D01*
X049093Y002169D01*
X048964Y002481D01*
X048725Y002721D01*
X048412Y002850D01*
X048074Y002850D01*
X047762Y002721D01*
X047523Y002481D01*
X047393Y002169D01*
X047393Y001831D01*
X047523Y001519D01*
X047762Y001279D01*
X048074Y001150D01*
X048412Y001150D01*
X048733Y001288D02*
X054506Y001288D01*
X054506Y001387D02*
X048832Y001387D01*
X048930Y001485D02*
X054506Y001485D01*
X054506Y001584D02*
X052160Y001584D01*
X052195Y001598D02*
X052395Y001798D01*
X052503Y002059D01*
X052503Y017191D01*
X052395Y017452D01*
X052195Y017652D01*
X051295Y018552D01*
X051035Y018660D01*
X048453Y018660D01*
X048453Y027366D01*
X048360Y027460D01*
X030594Y027460D01*
X030664Y027530D01*
X034514Y027530D01*
X034613Y027630D01*
X035564Y028580D01*
X038417Y028580D01*
X038455Y028542D01*
X038545Y028505D01*
X038642Y028505D01*
X038732Y028542D01*
X038801Y028611D01*
X038838Y028701D01*
X038838Y028799D01*
X038801Y028889D01*
X038732Y028958D01*
X038642Y028995D01*
X038545Y028995D01*
X038455Y028958D01*
X038417Y028920D01*
X035423Y028920D01*
X034373Y027870D01*
X030523Y027870D01*
X030073Y027420D01*
X030073Y019826D01*
X030036Y019789D01*
X029998Y019699D01*
X029998Y019601D01*
X030036Y019511D01*
X030105Y019442D01*
X030133Y019430D01*
X030133Y017345D01*
X030045Y017345D01*
X029955Y017308D01*
X029886Y017239D01*
X029848Y017149D01*
X029848Y017051D01*
X029886Y016961D01*
X029955Y016892D01*
X030045Y016855D01*
X030133Y016855D01*
X030133Y009234D01*
X030227Y009140D01*
X030360Y009140D01*
X036758Y009140D01*
X036778Y009120D01*
X046939Y009120D01*
X046959Y009140D01*
X048360Y009140D01*
X048453Y009234D01*
X048453Y017240D01*
X050599Y017240D01*
X051083Y016756D01*
X051083Y002059D01*
X051191Y001798D01*
X051391Y001598D01*
X051652Y001490D01*
X051935Y001490D01*
X052195Y001598D01*
X052279Y001682D02*
X054506Y001682D01*
X054506Y001781D02*
X052378Y001781D01*
X052429Y001879D02*
X054506Y001879D01*
X054506Y001978D02*
X052470Y001978D01*
X052503Y002076D02*
X054506Y002076D01*
X054506Y002175D02*
X052503Y002175D01*
X052503Y002273D02*
X054506Y002273D01*
X054506Y002372D02*
X052503Y002372D01*
X052503Y002470D02*
X054506Y002470D01*
X054506Y002569D02*
X052503Y002569D01*
X052503Y002667D02*
X054506Y002667D01*
X054506Y002766D02*
X052503Y002766D01*
X052503Y002864D02*
X054506Y002864D01*
X054506Y002963D02*
X052503Y002963D01*
X052503Y003061D02*
X054506Y003061D01*
X054506Y003160D02*
X052503Y003160D01*
X052503Y003258D02*
X054506Y003258D01*
X054506Y003357D02*
X052503Y003357D01*
X052503Y003455D02*
X054506Y003455D01*
X054506Y003554D02*
X052503Y003554D01*
X052503Y003652D02*
X054506Y003652D01*
X054506Y003751D02*
X052503Y003751D01*
X052503Y003849D02*
X054506Y003849D01*
X054506Y003948D02*
X052503Y003948D01*
X052503Y004046D02*
X054506Y004046D01*
X054506Y004145D02*
X052503Y004145D01*
X052503Y004243D02*
X054506Y004243D01*
X054506Y004342D02*
X052503Y004342D01*
X052503Y004440D02*
X054506Y004440D01*
X054506Y004539D02*
X052503Y004539D01*
X052503Y004637D02*
X054506Y004637D01*
X054506Y004736D02*
X052503Y004736D01*
X052503Y004834D02*
X054506Y004834D01*
X054506Y004933D02*
X052503Y004933D01*
X052503Y005031D02*
X054506Y005031D01*
X054506Y005130D02*
X052503Y005130D01*
X052503Y005228D02*
X054506Y005228D01*
X054506Y005327D02*
X052503Y005327D01*
X052503Y005425D02*
X054506Y005425D01*
X054506Y005524D02*
X052503Y005524D01*
X052503Y005622D02*
X054506Y005622D01*
X054506Y005721D02*
X052503Y005721D01*
X052503Y005819D02*
X054506Y005819D01*
X054506Y005918D02*
X052503Y005918D01*
X052503Y006016D02*
X054506Y006016D01*
X054506Y006115D02*
X052503Y006115D01*
X052503Y006213D02*
X054506Y006213D01*
X054506Y006312D02*
X052503Y006312D01*
X052503Y006410D02*
X054506Y006410D01*
X054506Y006509D02*
X052503Y006509D01*
X052503Y006607D02*
X054506Y006607D01*
X054506Y006706D02*
X052503Y006706D01*
X052503Y006804D02*
X054506Y006804D01*
X054506Y006903D02*
X052503Y006903D01*
X052503Y007001D02*
X054506Y007001D01*
X054506Y007100D02*
X052503Y007100D01*
X052503Y007198D02*
X054506Y007198D01*
X054506Y007297D02*
X052503Y007297D01*
X052503Y007395D02*
X054506Y007395D01*
X054506Y007494D02*
X052503Y007494D01*
X052503Y007592D02*
X054506Y007592D01*
X054506Y007691D02*
X052503Y007691D01*
X052503Y007789D02*
X054506Y007789D01*
X054506Y007888D02*
X052503Y007888D01*
X052503Y007986D02*
X054506Y007986D01*
X054506Y008085D02*
X052503Y008085D01*
X052503Y008183D02*
X054506Y008183D01*
X054506Y008282D02*
X052503Y008282D01*
X052503Y008380D02*
X054506Y008380D01*
X054506Y008479D02*
X052503Y008479D01*
X052503Y008577D02*
X054506Y008577D01*
X054506Y008676D02*
X052503Y008676D01*
X052503Y008774D02*
X054506Y008774D01*
X054506Y008873D02*
X052503Y008873D01*
X052503Y008971D02*
X054506Y008971D01*
X054506Y009070D02*
X052503Y009070D01*
X052503Y009168D02*
X054506Y009168D01*
X054506Y009267D02*
X052503Y009267D01*
X052503Y009365D02*
X054506Y009365D01*
X054506Y009464D02*
X052503Y009464D01*
X052503Y009562D02*
X054506Y009562D01*
X054506Y009661D02*
X052503Y009661D01*
X052503Y009759D02*
X054506Y009759D01*
X054506Y009858D02*
X052503Y009858D01*
X052503Y009956D02*
X054506Y009956D01*
X054506Y010055D02*
X052503Y010055D01*
X052503Y010153D02*
X054506Y010153D01*
X054506Y010252D02*
X052503Y010252D01*
X052503Y010350D02*
X054506Y010350D01*
X054506Y010449D02*
X052503Y010449D01*
X052503Y010547D02*
X054506Y010547D01*
X054506Y010646D02*
X052503Y010646D01*
X052503Y010744D02*
X054506Y010744D01*
X054506Y010843D02*
X052503Y010843D01*
X052503Y010941D02*
X054506Y010941D01*
X054506Y011040D02*
X052503Y011040D01*
X052503Y011138D02*
X054506Y011138D01*
X054506Y011237D02*
X052503Y011237D01*
X052503Y011335D02*
X054506Y011335D01*
X054506Y011434D02*
X052503Y011434D01*
X052503Y011532D02*
X054506Y011532D01*
X054506Y011631D02*
X052503Y011631D01*
X052503Y011729D02*
X054506Y011729D01*
X054506Y011828D02*
X052503Y011828D01*
X052503Y011926D02*
X054506Y011926D01*
X054506Y012025D02*
X052503Y012025D01*
X052503Y012123D02*
X054506Y012123D01*
X054506Y012222D02*
X052503Y012222D01*
X052503Y012320D02*
X054506Y012320D01*
X054506Y012419D02*
X052503Y012419D01*
X052503Y012517D02*
X054506Y012517D01*
X054506Y012616D02*
X052503Y012616D01*
X052503Y012714D02*
X054506Y012714D01*
X054506Y012813D02*
X052503Y012813D01*
X052503Y012911D02*
X054506Y012911D01*
X054506Y013010D02*
X052503Y013010D01*
X052503Y013108D02*
X054506Y013108D01*
X054506Y013207D02*
X052503Y013207D01*
X052503Y013305D02*
X054506Y013305D01*
X054506Y013404D02*
X052503Y013404D01*
X052503Y013502D02*
X054506Y013502D01*
X054506Y013601D02*
X052503Y013601D01*
X052503Y013699D02*
X054506Y013699D01*
X054506Y013798D02*
X052503Y013798D01*
X052503Y013896D02*
X054506Y013896D01*
X054506Y013995D02*
X052503Y013995D01*
X052503Y014093D02*
X054506Y014093D01*
X054506Y014192D02*
X052503Y014192D01*
X052503Y014290D02*
X054506Y014290D01*
X054506Y014389D02*
X052503Y014389D01*
X052503Y014487D02*
X054506Y014487D01*
X054506Y014586D02*
X052503Y014586D01*
X052503Y014684D02*
X054506Y014684D01*
X054506Y014783D02*
X052503Y014783D01*
X052503Y014881D02*
X054506Y014881D01*
X054506Y014980D02*
X052503Y014980D01*
X052503Y015078D02*
X054506Y015078D01*
X054506Y015177D02*
X052503Y015177D01*
X052503Y015275D02*
X054506Y015275D01*
X054506Y015374D02*
X052503Y015374D01*
X052503Y015472D02*
X054506Y015472D01*
X054506Y015571D02*
X052503Y015571D01*
X052503Y015669D02*
X054506Y015669D01*
X054506Y015768D02*
X052503Y015768D01*
X052503Y015866D02*
X054506Y015866D01*
X054506Y015965D02*
X052503Y015965D01*
X052503Y016063D02*
X054506Y016063D01*
X054506Y016162D02*
X052503Y016162D01*
X052503Y016260D02*
X054506Y016260D01*
X054506Y016359D02*
X052503Y016359D01*
X052503Y016457D02*
X054506Y016457D01*
X054506Y016556D02*
X052503Y016556D01*
X052503Y016654D02*
X054506Y016654D01*
X054506Y016753D02*
X052503Y016753D01*
X052503Y016851D02*
X054506Y016851D01*
X054506Y016950D02*
X052503Y016950D01*
X052503Y017048D02*
X054506Y017048D01*
X054506Y017147D02*
X052503Y017147D01*
X052481Y017245D02*
X054506Y017245D01*
X054506Y017344D02*
X052440Y017344D01*
X052399Y017442D02*
X054506Y017442D01*
X054506Y017541D02*
X052307Y017541D01*
X052208Y017639D02*
X054506Y017639D01*
X054506Y017738D02*
X052110Y017738D01*
X052011Y017836D02*
X054506Y017836D01*
X054506Y017935D02*
X051913Y017935D01*
X051814Y018033D02*
X054506Y018033D01*
X054506Y018132D02*
X051716Y018132D01*
X051617Y018230D02*
X054506Y018230D01*
X054506Y018329D02*
X051519Y018329D01*
X051420Y018427D02*
X054506Y018427D01*
X054506Y018526D02*
X051322Y018526D01*
X051121Y018624D02*
X054506Y018624D01*
X054506Y018723D02*
X048453Y018723D01*
X048453Y018821D02*
X054506Y018821D01*
X054506Y018920D02*
X048453Y018920D01*
X048453Y019018D02*
X054506Y019018D01*
X054506Y019117D02*
X048453Y019117D01*
X048453Y019215D02*
X054506Y019215D01*
X054506Y019314D02*
X048453Y019314D01*
X048453Y019412D02*
X054506Y019412D01*
X054506Y019511D02*
X048453Y019511D01*
X048453Y019609D02*
X054506Y019609D01*
X054506Y019708D02*
X048453Y019708D01*
X048453Y019806D02*
X054506Y019806D01*
X054506Y019905D02*
X048453Y019905D01*
X048453Y020003D02*
X054506Y020003D01*
X054506Y020102D02*
X048453Y020102D01*
X048453Y020200D02*
X054506Y020200D01*
X054506Y020299D02*
X048453Y020299D01*
X048453Y020397D02*
X054506Y020397D01*
X054506Y020496D02*
X048453Y020496D01*
X048453Y020594D02*
X054506Y020594D01*
X054506Y020693D02*
X048453Y020693D01*
X048453Y020791D02*
X054506Y020791D01*
X054506Y020890D02*
X048453Y020890D01*
X048453Y020988D02*
X054506Y020988D01*
X054506Y021087D02*
X048453Y021087D01*
X048453Y021185D02*
X054506Y021185D01*
X054506Y021284D02*
X048453Y021284D01*
X048453Y021382D02*
X054506Y021382D01*
X054506Y021481D02*
X048453Y021481D01*
X048453Y021579D02*
X054506Y021579D01*
X054506Y021678D02*
X048453Y021678D01*
X048453Y021776D02*
X054506Y021776D01*
X054506Y021875D02*
X048453Y021875D01*
X048453Y021973D02*
X054506Y021973D01*
X054506Y022072D02*
X048453Y022072D01*
X048453Y022170D02*
X054506Y022170D01*
X054506Y022269D02*
X048453Y022269D01*
X048453Y022367D02*
X054506Y022367D01*
X054506Y022466D02*
X048453Y022466D01*
X048453Y022564D02*
X054506Y022564D01*
X054506Y022663D02*
X048453Y022663D01*
X048453Y022761D02*
X054506Y022761D01*
X054506Y022860D02*
X048453Y022860D01*
X048453Y022958D02*
X054506Y022958D01*
X054506Y023057D02*
X048453Y023057D01*
X048453Y023155D02*
X054506Y023155D01*
X054506Y023254D02*
X048453Y023254D01*
X048453Y023352D02*
X054506Y023352D01*
X054506Y023451D02*
X048453Y023451D01*
X048453Y023549D02*
X054506Y023549D01*
X054506Y023648D02*
X048453Y023648D01*
X048453Y023746D02*
X054506Y023746D01*
X054506Y023845D02*
X048453Y023845D01*
X048453Y023943D02*
X054506Y023943D01*
X054506Y024042D02*
X048453Y024042D01*
X048453Y024140D02*
X054506Y024140D01*
X054506Y024239D02*
X048453Y024239D01*
X048453Y024337D02*
X054506Y024337D01*
X054506Y024436D02*
X048453Y024436D01*
X048453Y024534D02*
X054506Y024534D01*
X054506Y024633D02*
X048453Y024633D01*
X048453Y024731D02*
X054506Y024731D01*
X054506Y024830D02*
X048453Y024830D01*
X048453Y024928D02*
X054506Y024928D01*
X054506Y025027D02*
X048453Y025027D01*
X048453Y025125D02*
X054506Y025125D01*
X054506Y025224D02*
X048453Y025224D01*
X048453Y025322D02*
X054506Y025322D01*
X054506Y025421D02*
X048453Y025421D01*
X048453Y025519D02*
X054506Y025519D01*
X054506Y025618D02*
X048453Y025618D01*
X048453Y025716D02*
X054506Y025716D01*
X054506Y025815D02*
X048453Y025815D01*
X048453Y025913D02*
X054506Y025913D01*
X054506Y026012D02*
X048453Y026012D01*
X048453Y026110D02*
X054506Y026110D01*
X054506Y026209D02*
X048453Y026209D01*
X048453Y026307D02*
X054506Y026307D01*
X054506Y026406D02*
X048453Y026406D01*
X048453Y026504D02*
X054506Y026504D01*
X054506Y026603D02*
X048453Y026603D01*
X048453Y026701D02*
X052701Y026701D01*
X052824Y026650D02*
X053162Y026650D01*
X053475Y026779D01*
X053714Y027019D01*
X053843Y027331D01*
X053843Y027669D01*
X053714Y027981D01*
X053475Y028221D01*
X053162Y028350D01*
X052824Y028350D01*
X052512Y028221D01*
X052273Y027981D01*
X052143Y027669D01*
X052143Y027331D01*
X052273Y027019D01*
X052512Y026779D01*
X052824Y026650D01*
X052492Y026800D02*
X048453Y026800D01*
X048453Y026898D02*
X052393Y026898D01*
X052295Y026997D02*
X048453Y026997D01*
X048453Y027095D02*
X052241Y027095D01*
X052200Y027194D02*
X048453Y027194D01*
X048453Y027292D02*
X052159Y027292D01*
X052143Y027391D02*
X048429Y027391D01*
X048293Y027300D02*
X030434Y027300D01*
X030413Y027280D01*
X030413Y019826D01*
X030451Y019789D01*
X030488Y019699D01*
X030488Y019601D01*
X030451Y019511D01*
X030382Y019442D01*
X030293Y019406D01*
X030293Y018746D01*
X030301Y018739D01*
X030338Y018649D01*
X030338Y018551D01*
X030301Y018461D01*
X030293Y018454D01*
X030293Y009300D01*
X036598Y009300D01*
X036413Y009485D01*
X036413Y017225D01*
X036318Y017320D01*
X035878Y017320D01*
X035842Y017305D01*
X035745Y017305D01*
X035708Y017320D01*
X035698Y017320D01*
X035691Y017327D01*
X035655Y017342D01*
X035586Y017411D01*
X035571Y017447D01*
X035563Y017455D01*
X035563Y017465D01*
X035548Y017501D01*
X035548Y017599D01*
X035563Y017635D01*
X035563Y017645D01*
X035571Y017653D01*
X035586Y017689D01*
X035655Y017758D01*
X035691Y017773D01*
X035698Y017780D01*
X035708Y017780D01*
X035745Y017795D01*
X035842Y017795D01*
X035878Y017780D01*
X036509Y017780D01*
X036739Y017550D01*
X036873Y017415D01*
X036873Y011059D01*
X036875Y011063D01*
X036980Y011169D01*
X037119Y011226D01*
X037268Y011226D01*
X037406Y011169D01*
X037512Y011063D01*
X037569Y010925D01*
X037569Y010775D01*
X037512Y010637D01*
X037406Y010531D01*
X037268Y010474D01*
X037119Y010474D01*
X036980Y010531D01*
X036875Y010637D01*
X036873Y010641D01*
X036873Y009675D01*
X036969Y009580D01*
X046748Y009580D01*
X047163Y009995D01*
X047163Y010708D01*
X047141Y010731D01*
X047095Y010841D01*
X047095Y010959D01*
X047141Y011069D01*
X047224Y011153D01*
X047334Y011198D01*
X047453Y011198D01*
X047562Y011153D01*
X047646Y011069D01*
X047691Y010959D01*
X047691Y010841D01*
X047646Y010731D01*
X047623Y010708D01*
X047623Y009805D01*
X047489Y009670D01*
X047119Y009300D01*
X048293Y009300D01*
X048293Y017240D01*
X044402Y017240D01*
X044141Y017348D01*
X043941Y017548D01*
X043833Y017809D01*
X043833Y018091D01*
X043941Y018352D01*
X044141Y018552D01*
X044402Y018660D01*
X048293Y018660D01*
X048293Y027300D01*
X048293Y027292D02*
X030426Y027292D01*
X030413Y027194D02*
X048293Y027194D01*
X048293Y027095D02*
X030413Y027095D01*
X030413Y026997D02*
X048293Y026997D01*
X048293Y026898D02*
X030413Y026898D01*
X030413Y026800D02*
X048293Y026800D01*
X048293Y026701D02*
X030413Y026701D01*
X030413Y026603D02*
X048293Y026603D01*
X048293Y026504D02*
X030413Y026504D01*
X030413Y026406D02*
X048293Y026406D01*
X048293Y026307D02*
X030413Y026307D01*
X030413Y026209D02*
X048293Y026209D01*
X048293Y026110D02*
X032180Y026110D01*
X032201Y026089D02*
X032132Y026158D01*
X032042Y026195D01*
X031945Y026195D01*
X031855Y026158D01*
X031786Y026089D01*
X031748Y025999D01*
X031748Y025901D01*
X031786Y025811D01*
X031855Y025742D01*
X031945Y025705D01*
X032042Y025705D01*
X032132Y025742D01*
X032201Y025811D01*
X032238Y025901D01*
X032238Y025999D01*
X032201Y026089D01*
X032233Y026012D02*
X048293Y026012D01*
X048293Y025913D02*
X032238Y025913D01*
X032202Y025815D02*
X048293Y025815D01*
X048293Y025716D02*
X034424Y025716D01*
X034451Y025689D02*
X034382Y025758D01*
X034292Y025795D01*
X034195Y025795D01*
X034105Y025758D01*
X034036Y025689D01*
X033998Y025599D01*
X033998Y025501D01*
X034036Y025411D01*
X034105Y025342D01*
X034195Y025305D01*
X034292Y025305D01*
X034382Y025342D01*
X034451Y025411D01*
X034488Y025501D01*
X034488Y025599D01*
X034451Y025689D01*
X034481Y025618D02*
X048293Y025618D01*
X048293Y025519D02*
X034488Y025519D01*
X034455Y025421D02*
X048293Y025421D01*
X048293Y025322D02*
X034333Y025322D01*
X034153Y025322D02*
X030413Y025322D01*
X030413Y025224D02*
X048293Y025224D01*
X048293Y025125D02*
X030413Y025125D01*
X030413Y025027D02*
X048293Y025027D01*
X048293Y024928D02*
X030413Y024928D01*
X030413Y024830D02*
X048293Y024830D01*
X048293Y024731D02*
X030413Y024731D01*
X030413Y024633D02*
X048293Y024633D01*
X048293Y024534D02*
X035856Y024534D01*
X035832Y024558D02*
X035901Y024489D01*
X035938Y024399D01*
X035938Y024301D01*
X035901Y024211D01*
X035832Y024142D01*
X035742Y024105D01*
X035645Y024105D01*
X035555Y024142D01*
X035486Y024211D01*
X035448Y024301D01*
X035448Y024399D01*
X035486Y024489D01*
X035555Y024558D01*
X035645Y024595D01*
X035742Y024595D01*
X035832Y024558D01*
X035923Y024436D02*
X048293Y024436D01*
X048293Y024337D02*
X035938Y024337D01*
X035912Y024239D02*
X048293Y024239D01*
X048293Y024140D02*
X035827Y024140D01*
X035560Y024140D02*
X031788Y024140D01*
X031788Y024101D02*
X031751Y024011D01*
X031682Y023942D01*
X031592Y023905D01*
X031495Y023905D01*
X031405Y023942D01*
X031336Y024011D01*
X031298Y024101D01*
X031298Y024199D01*
X031336Y024289D01*
X031405Y024358D01*
X031495Y024395D01*
X031592Y024395D01*
X031682Y024358D01*
X031751Y024289D01*
X031788Y024199D01*
X031788Y024101D01*
X031764Y024042D02*
X034286Y024042D01*
X034295Y024045D02*
X034205Y024008D01*
X034136Y023939D01*
X034098Y023849D01*
X034098Y023751D01*
X034136Y023661D01*
X034205Y023592D01*
X034295Y023555D01*
X034392Y023555D01*
X034482Y023592D01*
X034551Y023661D01*
X034588Y023751D01*
X034588Y023849D01*
X034551Y023939D01*
X034482Y024008D01*
X034392Y024045D01*
X034295Y024045D01*
X034400Y024042D02*
X048293Y024042D01*
X048293Y023943D02*
X034547Y023943D01*
X034588Y023845D02*
X048293Y023845D01*
X048293Y023746D02*
X034586Y023746D01*
X034537Y023648D02*
X048293Y023648D01*
X048293Y023549D02*
X030413Y023549D01*
X030413Y023451D02*
X048293Y023451D01*
X048293Y023352D02*
X030413Y023352D01*
X030413Y023254D02*
X048293Y023254D01*
X048293Y023155D02*
X030413Y023155D01*
X030413Y023057D02*
X048293Y023057D01*
X048293Y022958D02*
X030413Y022958D01*
X030413Y022860D02*
X048293Y022860D01*
X048293Y022761D02*
X030413Y022761D01*
X030413Y022663D02*
X048293Y022663D01*
X048293Y022564D02*
X030413Y022564D01*
X030413Y022466D02*
X048293Y022466D01*
X048293Y022367D02*
X030413Y022367D01*
X030413Y022269D02*
X048293Y022269D01*
X048293Y022170D02*
X030413Y022170D01*
X030413Y022072D02*
X048293Y022072D01*
X048293Y021973D02*
X030413Y021973D01*
X030413Y021875D02*
X048293Y021875D01*
X048293Y021776D02*
X032264Y021776D01*
X032232Y021808D02*
X032142Y021845D01*
X032045Y021845D01*
X031955Y021808D01*
X031886Y021739D01*
X031848Y021649D01*
X031848Y021551D01*
X031886Y021461D01*
X031955Y021392D01*
X032045Y021355D01*
X032142Y021355D01*
X032232Y021392D01*
X032301Y021461D01*
X032338Y021551D01*
X032338Y021649D01*
X032301Y021739D01*
X032232Y021808D01*
X032326Y021678D02*
X048293Y021678D01*
X048293Y021579D02*
X032338Y021579D01*
X032309Y021481D02*
X048293Y021481D01*
X048293Y021382D02*
X032207Y021382D01*
X031979Y021382D02*
X030413Y021382D01*
X030413Y021284D02*
X048293Y021284D01*
X048293Y021185D02*
X030413Y021185D01*
X030413Y021087D02*
X048293Y021087D01*
X048293Y020988D02*
X030413Y020988D01*
X030413Y020890D02*
X048293Y020890D01*
X048293Y020791D02*
X030413Y020791D01*
X030413Y020693D02*
X048293Y020693D01*
X048293Y020594D02*
X030413Y020594D01*
X030413Y020496D02*
X048293Y020496D01*
X048293Y020397D02*
X030413Y020397D01*
X030413Y020299D02*
X048293Y020299D01*
X048293Y020200D02*
X030413Y020200D01*
X030413Y020102D02*
X048293Y020102D01*
X048293Y020003D02*
X030413Y020003D01*
X030413Y019905D02*
X048293Y019905D01*
X048293Y019806D02*
X030434Y019806D01*
X030485Y019708D02*
X048293Y019708D01*
X048293Y019609D02*
X030488Y019609D01*
X030450Y019511D02*
X048293Y019511D01*
X048293Y019412D02*
X030309Y019412D01*
X030293Y019314D02*
X032310Y019314D01*
X032286Y019289D02*
X032248Y019199D01*
X032248Y019101D01*
X032286Y019011D01*
X032355Y018942D01*
X032445Y018905D01*
X032542Y018905D01*
X032632Y018942D01*
X032701Y019011D01*
X032738Y019101D01*
X032738Y019199D01*
X032701Y019289D01*
X032632Y019358D01*
X032542Y019395D01*
X032445Y019395D01*
X032355Y019358D01*
X032286Y019289D01*
X032255Y019215D02*
X030293Y019215D01*
X030293Y019117D02*
X032248Y019117D01*
X032283Y019018D02*
X030293Y019018D01*
X030293Y018920D02*
X032409Y018920D01*
X032577Y018920D02*
X034878Y018920D01*
X034886Y018939D02*
X034848Y018849D01*
X034848Y018751D01*
X034886Y018661D01*
X034955Y018592D01*
X035045Y018555D01*
X035142Y018555D01*
X035232Y018592D01*
X035301Y018661D01*
X035338Y018751D01*
X035338Y018849D01*
X035301Y018939D01*
X035232Y019008D01*
X035142Y019045D01*
X035045Y019045D01*
X034955Y019008D01*
X034886Y018939D01*
X034980Y019018D02*
X032704Y019018D01*
X032738Y019117D02*
X048293Y019117D01*
X048293Y019215D02*
X032732Y019215D01*
X032676Y019314D02*
X048293Y019314D01*
X048293Y019018D02*
X035207Y019018D01*
X035309Y018920D02*
X048293Y018920D01*
X048293Y018821D02*
X035338Y018821D01*
X035326Y018723D02*
X048293Y018723D01*
X048293Y017147D02*
X036873Y017147D01*
X036873Y017245D02*
X044390Y017245D01*
X044152Y017344D02*
X036873Y017344D01*
X036847Y017442D02*
X044047Y017442D01*
X043949Y017541D02*
X036748Y017541D01*
X036650Y017639D02*
X043904Y017639D01*
X043863Y017738D02*
X038621Y017738D01*
X038632Y017742D02*
X038701Y017811D01*
X038738Y017901D01*
X038738Y017999D01*
X038701Y018089D01*
X038632Y018158D01*
X038542Y018195D01*
X038445Y018195D01*
X038355Y018158D01*
X038286Y018089D01*
X038248Y017999D01*
X038248Y017901D01*
X038286Y017811D01*
X038355Y017742D01*
X038445Y017705D01*
X038542Y017705D01*
X038632Y017742D01*
X038711Y017836D02*
X043833Y017836D01*
X043833Y017935D02*
X038738Y017935D01*
X038724Y018033D02*
X043833Y018033D01*
X043850Y018132D02*
X038658Y018132D01*
X038328Y018132D02*
X030293Y018132D01*
X030293Y018230D02*
X043891Y018230D01*
X043932Y018329D02*
X030293Y018329D01*
X030293Y018427D02*
X033970Y018427D01*
X033936Y018461D02*
X034005Y018392D01*
X034095Y018355D01*
X034192Y018355D01*
X034282Y018392D01*
X034351Y018461D01*
X034388Y018551D01*
X034388Y018649D01*
X034351Y018739D01*
X034282Y018808D01*
X034192Y018845D01*
X034095Y018845D01*
X034005Y018808D01*
X033936Y018739D01*
X033898Y018649D01*
X033898Y018551D01*
X033936Y018461D01*
X033909Y018526D02*
X030328Y018526D01*
X030338Y018624D02*
X033898Y018624D01*
X033929Y018723D02*
X030308Y018723D01*
X030293Y018821D02*
X034037Y018821D01*
X034250Y018821D02*
X034848Y018821D01*
X034860Y018723D02*
X034358Y018723D01*
X034388Y018624D02*
X034923Y018624D01*
X035264Y018624D02*
X044315Y018624D01*
X044115Y018526D02*
X034378Y018526D01*
X034317Y018427D02*
X044016Y018427D01*
X046024Y015853D02*
X045941Y015769D01*
X045895Y015659D01*
X045895Y015541D01*
X045941Y015431D01*
X046024Y015347D01*
X046134Y015302D01*
X046253Y015302D01*
X046362Y015347D01*
X046446Y015431D01*
X046491Y015541D01*
X046491Y015659D01*
X046446Y015769D01*
X046362Y015853D01*
X046253Y015898D01*
X046134Y015898D01*
X046024Y015853D01*
X046057Y015866D02*
X036873Y015866D01*
X036873Y015768D02*
X045940Y015768D01*
X045899Y015669D02*
X036873Y015669D01*
X036873Y015571D02*
X045895Y015571D01*
X045924Y015472D02*
X036873Y015472D01*
X036873Y015374D02*
X045998Y015374D01*
X046388Y015374D02*
X046795Y015374D01*
X046795Y015341D02*
X046841Y015231D01*
X046924Y015147D01*
X047034Y015102D01*
X047153Y015102D01*
X047262Y015147D01*
X047346Y015231D01*
X047391Y015341D01*
X047391Y015459D01*
X047346Y015569D01*
X047262Y015653D01*
X047153Y015698D01*
X047034Y015698D01*
X046924Y015653D01*
X046841Y015569D01*
X046795Y015459D01*
X046795Y015341D01*
X046822Y015275D02*
X036873Y015275D01*
X036873Y015177D02*
X046895Y015177D01*
X046800Y015472D02*
X046463Y015472D01*
X046491Y015571D02*
X046842Y015571D01*
X046964Y015669D02*
X046487Y015669D01*
X046447Y015768D02*
X048293Y015768D01*
X048293Y015866D02*
X046330Y015866D01*
X047223Y015669D02*
X048293Y015669D01*
X048293Y015571D02*
X047344Y015571D01*
X047386Y015472D02*
X048293Y015472D01*
X048293Y015374D02*
X047391Y015374D01*
X047364Y015275D02*
X048293Y015275D01*
X048293Y015177D02*
X047291Y015177D01*
X047855Y014608D02*
X047786Y014539D01*
X047748Y014449D01*
X047748Y014351D01*
X047786Y014261D01*
X047855Y014192D01*
X047945Y014155D01*
X048042Y014155D01*
X048132Y014192D01*
X048201Y014261D01*
X048238Y014351D01*
X048238Y014449D01*
X048201Y014539D01*
X048132Y014608D01*
X048042Y014645D01*
X047945Y014645D01*
X047855Y014608D01*
X047832Y014586D02*
X036873Y014586D01*
X036873Y014684D02*
X048293Y014684D01*
X048293Y014586D02*
X048154Y014586D01*
X048222Y014487D02*
X048293Y014487D01*
X048293Y014389D02*
X048238Y014389D01*
X048213Y014290D02*
X048293Y014290D01*
X048293Y014192D02*
X048130Y014192D01*
X048132Y014108D02*
X048042Y014145D01*
X047945Y014145D01*
X047855Y014108D01*
X047786Y014039D01*
X047748Y013949D01*
X047748Y013851D01*
X047786Y013761D01*
X047855Y013692D01*
X047945Y013655D01*
X048042Y013655D01*
X048132Y013692D01*
X048201Y013761D01*
X048238Y013851D01*
X048238Y013949D01*
X048201Y014039D01*
X048132Y014108D01*
X048147Y014093D02*
X048293Y014093D01*
X048293Y013995D02*
X048219Y013995D01*
X048238Y013896D02*
X048293Y013896D01*
X048293Y013798D02*
X048216Y013798D01*
X048139Y013699D02*
X048293Y013699D01*
X048293Y013601D02*
X048139Y013601D01*
X048132Y013608D02*
X048042Y013645D01*
X047945Y013645D01*
X047855Y013608D01*
X047786Y013539D01*
X047748Y013449D01*
X047748Y013351D01*
X047786Y013261D01*
X047855Y013192D01*
X047945Y013155D01*
X048042Y013155D01*
X048132Y013192D01*
X048201Y013261D01*
X048238Y013351D01*
X048238Y013449D01*
X048201Y013539D01*
X048132Y013608D01*
X048216Y013502D02*
X048293Y013502D01*
X048293Y013404D02*
X048238Y013404D01*
X048219Y013305D02*
X048293Y013305D01*
X048293Y013207D02*
X048146Y013207D01*
X048131Y013108D02*
X048293Y013108D01*
X048293Y013010D02*
X048213Y013010D01*
X048201Y013039D02*
X048238Y012949D01*
X048238Y012851D01*
X048201Y012761D01*
X048132Y012692D01*
X048042Y012655D01*
X047945Y012655D01*
X047855Y012692D01*
X047786Y012761D01*
X047748Y012851D01*
X047748Y012949D01*
X047786Y013039D01*
X047855Y013108D01*
X036873Y013108D01*
X036873Y013010D02*
X047773Y013010D01*
X047748Y012911D02*
X036873Y012911D01*
X036873Y012813D02*
X047764Y012813D01*
X047833Y012714D02*
X036873Y012714D01*
X036873Y012616D02*
X045873Y012616D01*
X045855Y012608D02*
X045786Y012539D01*
X045748Y012449D01*
X045748Y012351D01*
X045786Y012261D01*
X045855Y012192D01*
X045945Y012155D01*
X046042Y012155D01*
X046132Y012192D01*
X046201Y012261D01*
X046238Y012351D01*
X046238Y012449D01*
X046201Y012539D01*
X046132Y012608D01*
X046042Y012645D01*
X045945Y012645D01*
X045855Y012608D01*
X045777Y012517D02*
X036873Y012517D01*
X036873Y012419D02*
X045748Y012419D01*
X045761Y012320D02*
X036873Y012320D01*
X036873Y012222D02*
X045825Y012222D01*
X045855Y012108D02*
X045786Y012039D01*
X045748Y011949D01*
X045748Y011851D01*
X045786Y011761D01*
X045855Y011692D01*
X045945Y011655D01*
X046042Y011655D01*
X046132Y011692D01*
X046201Y011761D01*
X046238Y011851D01*
X046238Y011949D01*
X046201Y012039D01*
X046132Y012108D01*
X046042Y012145D01*
X045945Y012145D01*
X045855Y012108D01*
X045892Y012123D02*
X036873Y012123D01*
X036873Y012025D02*
X045780Y012025D01*
X045748Y011926D02*
X036873Y011926D01*
X036873Y011828D02*
X045758Y011828D01*
X045818Y011729D02*
X036873Y011729D01*
X036873Y011631D02*
X045910Y011631D01*
X045945Y011645D02*
X045855Y011608D01*
X045786Y011539D01*
X045748Y011449D01*
X045748Y011351D01*
X045786Y011261D01*
X045855Y011192D01*
X045945Y011155D01*
X046042Y011155D01*
X046132Y011192D01*
X046201Y011261D01*
X046238Y011351D01*
X046238Y011449D01*
X046201Y011539D01*
X046132Y011608D01*
X046042Y011645D01*
X045945Y011645D01*
X046077Y011631D02*
X046410Y011631D01*
X046445Y011645D02*
X046355Y011608D01*
X046286Y011539D01*
X046248Y011449D01*
X046248Y011351D01*
X046286Y011261D01*
X046355Y011192D01*
X046445Y011155D01*
X046542Y011155D01*
X046632Y011192D01*
X046701Y011261D01*
X046738Y011351D01*
X046738Y011449D01*
X046701Y011539D01*
X046632Y011608D01*
X046542Y011645D01*
X046445Y011645D01*
X046445Y011655D02*
X046542Y011655D01*
X046632Y011692D01*
X046701Y011761D01*
X046738Y011851D01*
X046738Y011949D01*
X046701Y012039D01*
X046632Y012108D01*
X046542Y012145D01*
X046445Y012145D01*
X046355Y012108D01*
X046286Y012039D01*
X046248Y011949D01*
X046248Y011851D01*
X046286Y011761D01*
X046355Y011692D01*
X046445Y011655D01*
X046577Y011631D02*
X047910Y011631D01*
X047945Y011645D02*
X047855Y011608D01*
X047786Y011539D01*
X047748Y011449D01*
X047748Y011351D01*
X047786Y011261D01*
X047855Y011192D01*
X047945Y011155D01*
X048042Y011155D01*
X048132Y011192D01*
X048201Y011261D01*
X048238Y011351D01*
X048238Y011449D01*
X048201Y011539D01*
X048132Y011608D01*
X048042Y011645D01*
X047945Y011645D01*
X047945Y011655D02*
X048042Y011655D01*
X048132Y011692D01*
X048201Y011761D01*
X048238Y011851D01*
X048238Y011949D01*
X048201Y012039D01*
X048132Y012108D01*
X048042Y012145D01*
X047945Y012145D01*
X047855Y012108D01*
X047786Y012039D01*
X047748Y011949D01*
X047748Y011851D01*
X047786Y011761D01*
X047855Y011692D01*
X047945Y011655D01*
X048077Y011631D02*
X048293Y011631D01*
X048293Y011729D02*
X048169Y011729D01*
X048228Y011828D02*
X048293Y011828D01*
X048293Y011926D02*
X048238Y011926D01*
X048207Y012025D02*
X048293Y012025D01*
X048293Y012123D02*
X048095Y012123D01*
X048042Y012155D02*
X048132Y012192D01*
X048201Y012261D01*
X048238Y012351D01*
X048238Y012449D01*
X048201Y012539D01*
X048132Y012608D01*
X048042Y012645D01*
X047945Y012645D01*
X047855Y012608D01*
X047786Y012539D01*
X047748Y012449D01*
X047748Y012351D01*
X047786Y012261D01*
X047855Y012192D01*
X047945Y012155D01*
X048042Y012155D01*
X048161Y012222D02*
X048293Y012222D01*
X048293Y012320D02*
X048225Y012320D01*
X048238Y012419D02*
X048293Y012419D01*
X048293Y012517D02*
X048210Y012517D01*
X048293Y012616D02*
X048113Y012616D01*
X048154Y012714D02*
X048293Y012714D01*
X048293Y012813D02*
X048222Y012813D01*
X048238Y012911D02*
X048293Y012911D01*
X048201Y013039D02*
X048132Y013108D01*
X048042Y013145D01*
X047945Y013145D01*
X047855Y013108D01*
X047840Y013207D02*
X036873Y013207D01*
X036873Y013305D02*
X047767Y013305D01*
X047748Y013404D02*
X036873Y013404D01*
X036873Y013502D02*
X047770Y013502D01*
X047847Y013601D02*
X036873Y013601D01*
X036873Y013699D02*
X047848Y013699D01*
X047771Y013798D02*
X036873Y013798D01*
X036873Y013896D02*
X047748Y013896D01*
X047767Y013995D02*
X036873Y013995D01*
X036873Y014093D02*
X047840Y014093D01*
X047856Y014192D02*
X036873Y014192D01*
X036873Y014290D02*
X047774Y014290D01*
X047748Y014389D02*
X036873Y014389D01*
X036873Y014487D02*
X047764Y014487D01*
X048293Y014783D02*
X036873Y014783D01*
X036873Y014881D02*
X048293Y014881D01*
X048293Y014980D02*
X036873Y014980D01*
X036873Y015078D02*
X048293Y015078D01*
X048453Y015078D02*
X051083Y015078D01*
X051083Y014980D02*
X048453Y014980D01*
X048453Y014881D02*
X051083Y014881D01*
X051083Y014783D02*
X048453Y014783D01*
X048453Y014684D02*
X051083Y014684D01*
X051083Y014586D02*
X048453Y014586D01*
X048453Y014487D02*
X051083Y014487D01*
X051083Y014389D02*
X048453Y014389D01*
X048453Y014290D02*
X051083Y014290D01*
X051083Y014192D02*
X048453Y014192D01*
X048453Y014093D02*
X051083Y014093D01*
X051083Y013995D02*
X048453Y013995D01*
X048453Y013896D02*
X051083Y013896D01*
X051083Y013798D02*
X048453Y013798D01*
X048453Y013699D02*
X051083Y013699D01*
X051083Y013601D02*
X048453Y013601D01*
X048453Y013502D02*
X051083Y013502D01*
X051083Y013404D02*
X048453Y013404D01*
X048453Y013305D02*
X051083Y013305D01*
X051083Y013207D02*
X048453Y013207D01*
X048453Y013108D02*
X051083Y013108D01*
X051083Y013010D02*
X048453Y013010D01*
X048453Y012911D02*
X051083Y012911D01*
X051083Y012813D02*
X048453Y012813D01*
X048453Y012714D02*
X051083Y012714D01*
X051083Y012616D02*
X048453Y012616D01*
X048453Y012517D02*
X051083Y012517D01*
X051083Y012419D02*
X048453Y012419D01*
X048453Y012320D02*
X051083Y012320D01*
X051083Y012222D02*
X048453Y012222D01*
X048453Y012123D02*
X051083Y012123D01*
X051083Y012025D02*
X048453Y012025D01*
X048453Y011926D02*
X051083Y011926D01*
X051083Y011828D02*
X048453Y011828D01*
X048453Y011729D02*
X051083Y011729D01*
X051083Y011631D02*
X048453Y011631D01*
X048453Y011532D02*
X051083Y011532D01*
X051083Y011434D02*
X048453Y011434D01*
X048453Y011335D02*
X051083Y011335D01*
X051083Y011237D02*
X048453Y011237D01*
X048453Y011138D02*
X051083Y011138D01*
X051083Y011040D02*
X048453Y011040D01*
X048453Y010941D02*
X051083Y010941D01*
X051083Y010843D02*
X048453Y010843D01*
X048453Y010744D02*
X051083Y010744D01*
X051083Y010646D02*
X048453Y010646D01*
X048453Y010547D02*
X051083Y010547D01*
X051083Y010449D02*
X048453Y010449D01*
X048453Y010350D02*
X051083Y010350D01*
X051083Y010252D02*
X048453Y010252D01*
X048453Y010153D02*
X051083Y010153D01*
X051083Y010055D02*
X048453Y010055D01*
X048453Y009956D02*
X051083Y009956D01*
X051083Y009858D02*
X048453Y009858D01*
X048453Y009759D02*
X051083Y009759D01*
X051083Y009661D02*
X048453Y009661D01*
X048453Y009562D02*
X051083Y009562D01*
X051083Y009464D02*
X048453Y009464D01*
X048453Y009365D02*
X051083Y009365D01*
X051083Y009267D02*
X048453Y009267D01*
X048388Y009168D02*
X051083Y009168D01*
X051083Y009070D02*
X018017Y009070D01*
X018019Y009075D02*
X017962Y008937D01*
X017856Y008831D01*
X017718Y008774D01*
X017569Y008774D01*
X017430Y008831D01*
X017325Y008937D01*
X017268Y009075D01*
X017268Y009225D01*
X017325Y009363D01*
X017430Y009469D01*
X017569Y009526D01*
X017718Y009526D01*
X017856Y009469D01*
X017962Y009363D01*
X018019Y009225D01*
X018019Y009075D01*
X018019Y009168D02*
X030199Y009168D01*
X030133Y009267D02*
X018002Y009267D01*
X017960Y009365D02*
X030133Y009365D01*
X030133Y009464D02*
X017861Y009464D01*
X018061Y009661D02*
X008573Y009661D01*
X008573Y009759D02*
X017979Y009759D01*
X017991Y009731D02*
X018074Y009647D01*
X018184Y009602D01*
X018303Y009602D01*
X018370Y009630D01*
X029347Y009630D01*
X029446Y009671D01*
X029644Y009869D01*
X029712Y009897D01*
X029796Y009981D01*
X029841Y010091D01*
X029841Y010209D01*
X029796Y010319D01*
X029712Y010403D01*
X029603Y010448D01*
X029484Y010448D01*
X029374Y010403D01*
X029291Y010319D01*
X029262Y010251D01*
X029181Y010170D01*
X018370Y010170D01*
X018303Y010198D01*
X018184Y010198D01*
X018074Y010153D01*
X017991Y010069D01*
X017945Y009959D01*
X017945Y009841D01*
X017991Y009731D01*
X017945Y009858D02*
X008573Y009858D01*
X008573Y009956D02*
X017945Y009956D01*
X017985Y010055D02*
X008573Y010055D01*
X008573Y010153D02*
X018075Y010153D01*
X017425Y009464D02*
X008573Y009464D01*
X008573Y009562D02*
X030133Y009562D01*
X030133Y009661D02*
X029421Y009661D01*
X029534Y009759D02*
X030133Y009759D01*
X030133Y009858D02*
X029633Y009858D01*
X029771Y009956D02*
X030133Y009956D01*
X030133Y010055D02*
X029826Y010055D01*
X029841Y010153D02*
X030133Y010153D01*
X030133Y010252D02*
X029824Y010252D01*
X029765Y010350D02*
X030133Y010350D01*
X030133Y010449D02*
X008573Y010449D01*
X008573Y010547D02*
X030133Y010547D01*
X030133Y010646D02*
X008573Y010646D01*
X008573Y010744D02*
X030133Y010744D01*
X030133Y010843D02*
X008573Y010843D01*
X008573Y010941D02*
X030133Y010941D01*
X030133Y011040D02*
X008573Y011040D01*
X008573Y011138D02*
X025694Y011138D01*
X025738Y011120D02*
X025849Y011120D01*
X027349Y011120D01*
X027452Y011163D01*
X027531Y011241D01*
X027573Y011344D01*
X027573Y026506D01*
X027531Y026609D01*
X027452Y026687D01*
X027349Y026730D01*
X025738Y026730D01*
X025635Y026687D01*
X025556Y026609D01*
X025513Y026506D01*
X025513Y011344D01*
X025556Y011241D01*
X025635Y011163D01*
X025738Y011120D01*
X025561Y011237D02*
X008573Y011237D01*
X008573Y011335D02*
X025517Y011335D01*
X025513Y011434D02*
X008573Y011434D01*
X008573Y011532D02*
X025513Y011532D01*
X025513Y011631D02*
X008573Y011631D01*
X008573Y011729D02*
X025513Y011729D01*
X025513Y011828D02*
X008573Y011828D01*
X008573Y011926D02*
X025513Y011926D01*
X025513Y012025D02*
X008573Y012025D01*
X008573Y012123D02*
X025513Y012123D01*
X025513Y012222D02*
X008573Y012222D01*
X008573Y012320D02*
X025513Y012320D01*
X025513Y012419D02*
X008573Y012419D01*
X008573Y012517D02*
X025513Y012517D01*
X025513Y012616D02*
X008573Y012616D01*
X008573Y012714D02*
X025513Y012714D01*
X025513Y012813D02*
X008573Y012813D01*
X008573Y012911D02*
X025513Y012911D01*
X025513Y013010D02*
X008573Y013010D01*
X008573Y013108D02*
X025513Y013108D01*
X025513Y013207D02*
X008573Y013207D01*
X008573Y013305D02*
X025513Y013305D01*
X025513Y013404D02*
X008573Y013404D01*
X008573Y013502D02*
X025513Y013502D01*
X025513Y013601D02*
X008573Y013601D01*
X008573Y013699D02*
X025513Y013699D01*
X025513Y013798D02*
X008573Y013798D01*
X008573Y013896D02*
X025513Y013896D01*
X025513Y013995D02*
X008573Y013995D01*
X008573Y014093D02*
X025513Y014093D01*
X025513Y014192D02*
X008573Y014192D01*
X008573Y014290D02*
X025513Y014290D01*
X025513Y014389D02*
X008573Y014389D01*
X008573Y014487D02*
X025513Y014487D01*
X025513Y014586D02*
X008573Y014586D01*
X008573Y014684D02*
X025513Y014684D01*
X025513Y014783D02*
X008573Y014783D01*
X008573Y014881D02*
X025513Y014881D01*
X025513Y014980D02*
X008573Y014980D01*
X008573Y015078D02*
X025513Y015078D01*
X025513Y015177D02*
X008573Y015177D01*
X008573Y015275D02*
X025513Y015275D01*
X025513Y015374D02*
X008573Y015374D01*
X008573Y015472D02*
X025513Y015472D01*
X025513Y015571D02*
X008573Y015571D01*
X008573Y015669D02*
X025513Y015669D01*
X025513Y015768D02*
X008573Y015768D01*
X008573Y015866D02*
X025513Y015866D01*
X025513Y015965D02*
X008573Y015965D01*
X008573Y016063D02*
X025513Y016063D01*
X025513Y016162D02*
X008573Y016162D01*
X008573Y016260D02*
X025513Y016260D01*
X025513Y016359D02*
X008573Y016359D01*
X008573Y016457D02*
X025513Y016457D01*
X025513Y016556D02*
X008573Y016556D01*
X008573Y016654D02*
X025513Y016654D01*
X025513Y016753D02*
X008573Y016753D01*
X008573Y016851D02*
X025513Y016851D01*
X025513Y016950D02*
X008573Y016950D01*
X008573Y017048D02*
X025513Y017048D01*
X025513Y017147D02*
X008573Y017147D01*
X008573Y017245D02*
X025513Y017245D01*
X025513Y017344D02*
X008573Y017344D01*
X008573Y017442D02*
X025513Y017442D01*
X025513Y017541D02*
X008573Y017541D01*
X008573Y017639D02*
X025513Y017639D01*
X025513Y017738D02*
X008573Y017738D01*
X008573Y017836D02*
X025513Y017836D01*
X025513Y017935D02*
X008573Y017935D01*
X008573Y018033D02*
X025513Y018033D01*
X025513Y018132D02*
X008573Y018132D01*
X008573Y018230D02*
X025513Y018230D01*
X025513Y018329D02*
X008573Y018329D01*
X008573Y018427D02*
X025513Y018427D01*
X025513Y018526D02*
X008573Y018526D01*
X008573Y018624D02*
X025513Y018624D01*
X025513Y018723D02*
X024547Y018723D01*
X024506Y018681D02*
X024612Y018787D01*
X024669Y018925D01*
X024669Y019075D01*
X024612Y019213D01*
X024506Y019319D01*
X024368Y019376D01*
X024219Y019376D01*
X024080Y019319D01*
X023975Y019213D01*
X023918Y019075D01*
X023918Y018925D01*
X023975Y018787D01*
X024080Y018681D01*
X024219Y018624D01*
X024368Y018624D01*
X024506Y018681D01*
X024626Y018821D02*
X025513Y018821D01*
X025513Y018920D02*
X024667Y018920D01*
X024669Y019018D02*
X025513Y019018D01*
X025513Y019117D02*
X024652Y019117D01*
X024610Y019215D02*
X025513Y019215D01*
X025513Y019314D02*
X024511Y019314D01*
X024075Y019314D02*
X017643Y019314D01*
X017643Y019412D02*
X025513Y019412D01*
X025513Y019511D02*
X017643Y019511D01*
X017643Y019609D02*
X025513Y019609D01*
X025513Y019708D02*
X017643Y019708D01*
X017643Y019806D02*
X025513Y019806D01*
X025513Y019905D02*
X017643Y019905D01*
X017643Y020003D02*
X025513Y020003D01*
X025513Y020102D02*
X017643Y020102D01*
X017643Y020200D02*
X025513Y020200D01*
X025513Y020299D02*
X017643Y020299D01*
X017643Y019215D02*
X023977Y019215D01*
X023935Y019117D02*
X008573Y019117D01*
X008573Y019018D02*
X023918Y019018D01*
X023920Y018920D02*
X008573Y018920D01*
X008573Y018821D02*
X023961Y018821D01*
X024039Y018723D02*
X008573Y018723D01*
X006513Y018723D02*
X005693Y018723D01*
X005693Y018821D02*
X006513Y018821D01*
X006513Y018920D02*
X005693Y018920D01*
X005693Y019018D02*
X006513Y019018D01*
X006513Y019117D02*
X005693Y019117D01*
X005693Y018624D02*
X006513Y018624D01*
X006513Y018526D02*
X005693Y018526D01*
X005693Y018427D02*
X006513Y018427D01*
X006513Y018329D02*
X005693Y018329D01*
X005693Y018230D02*
X006513Y018230D01*
X006513Y018132D02*
X005693Y018132D01*
X005693Y018033D02*
X006513Y018033D01*
X006513Y017935D02*
X005693Y017935D01*
X005693Y017836D02*
X006513Y017836D01*
X006513Y017738D02*
X005693Y017738D01*
X005693Y017639D02*
X006513Y017639D01*
X006513Y017541D02*
X005693Y017541D01*
X005693Y017442D02*
X006513Y017442D01*
X006513Y017344D02*
X005693Y017344D01*
X005693Y017245D02*
X006513Y017245D01*
X006513Y017147D02*
X005693Y017147D01*
X005693Y017048D02*
X006513Y017048D01*
X006513Y016950D02*
X005693Y016950D01*
X005693Y016851D02*
X006513Y016851D01*
X006513Y016753D02*
X005693Y016753D01*
X005693Y016654D02*
X006513Y016654D01*
X006513Y016556D02*
X005693Y016556D01*
X005693Y016457D02*
X006513Y016457D01*
X006513Y016359D02*
X005693Y016359D01*
X005693Y016260D02*
X006513Y016260D01*
X006513Y016162D02*
X005693Y016162D01*
X005693Y016063D02*
X006513Y016063D01*
X006513Y015965D02*
X005693Y015965D01*
X005693Y015866D02*
X006513Y015866D01*
X006513Y015768D02*
X005693Y015768D01*
X005693Y015669D02*
X006513Y015669D01*
X006513Y015571D02*
X005693Y015571D01*
X005693Y015472D02*
X006513Y015472D01*
X006513Y015374D02*
X005693Y015374D01*
X005693Y015275D02*
X006513Y015275D01*
X006513Y015177D02*
X005693Y015177D01*
X005693Y015078D02*
X006513Y015078D01*
X006513Y014980D02*
X005693Y014980D01*
X005693Y014881D02*
X006513Y014881D01*
X006513Y014783D02*
X005693Y014783D01*
X005693Y014684D02*
X006513Y014684D01*
X006513Y014586D02*
X005693Y014586D01*
X005693Y014487D02*
X006513Y014487D01*
X006513Y014389D02*
X005693Y014389D01*
X005693Y014290D02*
X006513Y014290D01*
X006513Y014192D02*
X005693Y014192D01*
X005693Y014093D02*
X006513Y014093D01*
X006513Y013995D02*
X005693Y013995D01*
X005693Y013896D02*
X006513Y013896D01*
X006513Y013798D02*
X005693Y013798D01*
X005693Y013699D02*
X006513Y013699D01*
X006513Y013601D02*
X005693Y013601D01*
X005693Y013502D02*
X006513Y013502D01*
X006513Y013404D02*
X005693Y013404D01*
X005693Y013305D02*
X006513Y013305D01*
X006513Y013207D02*
X005693Y013207D01*
X005693Y013108D02*
X006513Y013108D01*
X006513Y013010D02*
X005693Y013010D01*
X005693Y012911D02*
X006513Y012911D01*
X006513Y012813D02*
X005693Y012813D01*
X005693Y012714D02*
X006513Y012714D01*
X006513Y012616D02*
X005693Y012616D01*
X005693Y012517D02*
X006513Y012517D01*
X006513Y012419D02*
X005693Y012419D01*
X005693Y012320D02*
X006513Y012320D01*
X006513Y012222D02*
X005693Y012222D01*
X005693Y012123D02*
X006513Y012123D01*
X006513Y012025D02*
X005693Y012025D01*
X005693Y011926D02*
X006513Y011926D01*
X006513Y011828D02*
X005693Y011828D01*
X005693Y011729D02*
X006513Y011729D01*
X006513Y011631D02*
X005693Y011631D01*
X005693Y011532D02*
X006513Y011532D01*
X006513Y011434D02*
X005693Y011434D01*
X005693Y011335D02*
X006513Y011335D01*
X006513Y011237D02*
X005693Y011237D01*
X005693Y011138D02*
X006513Y011138D01*
X006513Y011040D02*
X005693Y011040D01*
X005693Y010941D02*
X006513Y010941D01*
X006513Y010843D02*
X005693Y010843D01*
X005693Y010744D02*
X006513Y010744D01*
X006513Y010646D02*
X005693Y010646D01*
X005693Y010547D02*
X006513Y010547D01*
X006513Y010449D02*
X005693Y010449D01*
X005693Y010350D02*
X006513Y010350D01*
X006513Y010252D02*
X005693Y010252D01*
X005693Y010153D02*
X006513Y010153D01*
X006513Y010055D02*
X005693Y010055D01*
X005693Y009956D02*
X006513Y009956D01*
X006513Y009858D02*
X005693Y009858D01*
X005693Y009759D02*
X006513Y009759D01*
X006513Y009661D02*
X005693Y009661D01*
X005693Y009562D02*
X006513Y009562D01*
X006513Y009464D02*
X005693Y009464D01*
X005693Y009365D02*
X006513Y009365D01*
X006513Y009267D02*
X005693Y009267D01*
X005693Y009168D02*
X006513Y009168D01*
X006513Y009070D02*
X005693Y009070D01*
X005693Y008971D02*
X006513Y008971D01*
X006513Y008873D02*
X005693Y008873D01*
X005693Y008774D02*
X006513Y008774D01*
X006513Y008676D02*
X005693Y008676D01*
X005693Y008577D02*
X006513Y008577D01*
X006513Y008479D02*
X005693Y008479D01*
X005693Y008380D02*
X006513Y008380D01*
X006513Y008282D02*
X005693Y008282D01*
X005693Y008183D02*
X006513Y008183D01*
X006513Y008085D02*
X005693Y008085D01*
X005693Y007986D02*
X006513Y007986D01*
X006513Y007888D02*
X005693Y007888D01*
X005693Y007789D02*
X006536Y007789D01*
X006607Y007691D02*
X005693Y007691D01*
X005693Y007592D02*
X044476Y007592D01*
X044378Y007494D02*
X005693Y007494D01*
X005693Y007395D02*
X029966Y007395D01*
X030061Y007490D02*
X029803Y007232D01*
X029803Y006868D01*
X030061Y006610D01*
X030426Y006610D01*
X030683Y006868D01*
X030683Y007232D01*
X030426Y007490D01*
X030061Y007490D01*
X030061Y007610D02*
X030426Y007610D01*
X030683Y007868D01*
X030683Y008232D01*
X030426Y008490D01*
X030061Y008490D01*
X029803Y008232D01*
X029803Y007868D01*
X030061Y007610D01*
X029981Y007691D02*
X008480Y007691D01*
X008550Y007789D02*
X029882Y007789D01*
X029803Y007888D02*
X008573Y007888D01*
X008573Y007986D02*
X029803Y007986D01*
X029803Y008085D02*
X008573Y008085D01*
X008573Y008183D02*
X029803Y008183D01*
X029853Y008282D02*
X008573Y008282D01*
X008573Y008380D02*
X029951Y008380D01*
X030050Y008479D02*
X008573Y008479D01*
X008573Y008577D02*
X043740Y008577D01*
X043740Y008649D02*
X043740Y008191D01*
X044064Y007868D01*
X044522Y007868D01*
X044846Y008191D01*
X044846Y008649D01*
X044522Y008973D01*
X044064Y008973D01*
X043740Y008649D01*
X043766Y008676D02*
X008573Y008676D01*
X008573Y008774D02*
X043865Y008774D01*
X043963Y008873D02*
X017897Y008873D01*
X017976Y008971D02*
X044062Y008971D01*
X044525Y008971D02*
X045791Y008971D01*
X045814Y008994D02*
X045700Y008880D01*
X045654Y008770D01*
X042688Y005804D01*
X042633Y005672D01*
X042633Y004549D01*
X041944Y003860D01*
X038153Y003860D01*
X038153Y004588D01*
X038233Y004668D01*
X038233Y005032D01*
X037976Y005290D01*
X037611Y005290D01*
X037353Y005032D01*
X037353Y004668D01*
X037433Y004588D01*
X037433Y003860D01*
X035842Y003860D01*
X035148Y004554D01*
X035047Y004655D01*
X034915Y004710D01*
X025762Y004710D01*
X024536Y005937D01*
X024536Y006336D01*
X024159Y006712D01*
X023627Y006712D01*
X023251Y006336D01*
X023251Y005804D01*
X023627Y005428D01*
X024027Y005428D01*
X025409Y004045D01*
X025542Y003990D01*
X034694Y003990D01*
X035489Y003195D01*
X035622Y003140D01*
X042165Y003140D01*
X042297Y003195D01*
X043197Y004095D01*
X043298Y004196D01*
X043353Y004328D01*
X043353Y005451D01*
X046164Y008261D01*
X046273Y008306D01*
X046387Y008420D01*
X046449Y008569D01*
X046449Y008731D01*
X046387Y008880D01*
X046273Y008994D01*
X046124Y009055D01*
X045963Y009055D01*
X045814Y008994D01*
X045697Y008873D02*
X044623Y008873D01*
X044722Y008774D02*
X045656Y008774D01*
X045560Y008676D02*
X044820Y008676D01*
X044846Y008577D02*
X045461Y008577D01*
X045363Y008479D02*
X044846Y008479D01*
X044846Y008380D02*
X045264Y008380D01*
X045166Y008282D02*
X044846Y008282D01*
X044838Y008183D02*
X045067Y008183D01*
X044969Y008085D02*
X044739Y008085D01*
X044641Y007986D02*
X044870Y007986D01*
X044772Y007888D02*
X044542Y007888D01*
X044673Y007789D02*
X035605Y007789D01*
X035683Y007868D02*
X035426Y007610D01*
X035061Y007610D01*
X034803Y007868D01*
X034803Y008232D01*
X035061Y008490D01*
X035426Y008490D01*
X035683Y008232D01*
X035683Y007868D01*
X035683Y007888D02*
X044044Y007888D01*
X043946Y007986D02*
X035683Y007986D01*
X035683Y008085D02*
X043847Y008085D01*
X043749Y008183D02*
X035683Y008183D01*
X035634Y008282D02*
X043740Y008282D01*
X043740Y008380D02*
X035536Y008380D01*
X035437Y008479D02*
X043740Y008479D01*
X044575Y007691D02*
X035506Y007691D01*
X035426Y007490D02*
X035061Y007490D01*
X034803Y007232D01*
X034803Y006868D01*
X035061Y006610D01*
X035426Y006610D01*
X035683Y006868D01*
X035683Y007232D01*
X035426Y007490D01*
X035521Y007395D02*
X044279Y007395D01*
X044181Y007297D02*
X035619Y007297D01*
X035683Y007198D02*
X044082Y007198D01*
X043984Y007100D02*
X035683Y007100D01*
X035683Y007001D02*
X043885Y007001D01*
X043787Y006903D02*
X035683Y006903D01*
X035620Y006804D02*
X043688Y006804D01*
X043590Y006706D02*
X035521Y006706D01*
X034966Y006706D02*
X034521Y006706D01*
X034426Y006610D02*
X034683Y006868D01*
X034683Y007232D01*
X034426Y007490D01*
X034061Y007490D01*
X033803Y007232D01*
X033803Y006868D01*
X034061Y006610D01*
X034426Y006610D01*
X034620Y006804D02*
X034867Y006804D01*
X034803Y006903D02*
X034683Y006903D01*
X034683Y007001D02*
X034803Y007001D01*
X034803Y007100D02*
X034683Y007100D01*
X034683Y007198D02*
X034803Y007198D01*
X034868Y007297D02*
X034619Y007297D01*
X034521Y007395D02*
X034966Y007395D01*
X034981Y007691D02*
X034506Y007691D01*
X034426Y007610D02*
X034683Y007868D01*
X034683Y008232D01*
X034426Y008490D01*
X034061Y008490D01*
X033803Y008232D01*
X033803Y007868D01*
X034061Y007610D01*
X034426Y007610D01*
X034605Y007789D02*
X034882Y007789D01*
X034803Y007888D02*
X034683Y007888D01*
X034683Y007986D02*
X034803Y007986D01*
X034803Y008085D02*
X034683Y008085D01*
X034683Y008183D02*
X034803Y008183D01*
X034853Y008282D02*
X034634Y008282D01*
X034536Y008380D02*
X034951Y008380D01*
X035050Y008479D02*
X034437Y008479D01*
X034050Y008479D02*
X031437Y008479D01*
X031426Y008490D02*
X031061Y008490D01*
X030803Y008232D01*
X030803Y007868D01*
X031061Y007610D01*
X031426Y007610D01*
X031683Y007868D01*
X031683Y008232D01*
X031426Y008490D01*
X031536Y008380D02*
X033951Y008380D01*
X033853Y008282D02*
X031634Y008282D01*
X031683Y008183D02*
X033803Y008183D01*
X033803Y008085D02*
X031683Y008085D01*
X031683Y007986D02*
X033803Y007986D01*
X033803Y007888D02*
X031683Y007888D01*
X031605Y007789D02*
X033882Y007789D01*
X033981Y007691D02*
X031506Y007691D01*
X031426Y007490D02*
X031061Y007490D01*
X030803Y007232D01*
X030803Y006868D01*
X031061Y006610D01*
X031426Y006610D01*
X031683Y006868D01*
X031683Y007232D01*
X031426Y007490D01*
X031521Y007395D02*
X033966Y007395D01*
X033868Y007297D02*
X031619Y007297D01*
X031683Y007198D02*
X033803Y007198D01*
X033803Y007100D02*
X031683Y007100D01*
X031683Y007001D02*
X033803Y007001D01*
X033803Y006903D02*
X031683Y006903D01*
X031620Y006804D02*
X033867Y006804D01*
X033966Y006706D02*
X031521Y006706D01*
X030966Y006706D02*
X030521Y006706D01*
X030620Y006804D02*
X030867Y006804D01*
X030803Y006903D02*
X030683Y006903D01*
X030683Y007001D02*
X030803Y007001D01*
X030803Y007100D02*
X030683Y007100D01*
X030683Y007198D02*
X030803Y007198D01*
X030868Y007297D02*
X030619Y007297D01*
X030521Y007395D02*
X030966Y007395D01*
X030981Y007691D02*
X030506Y007691D01*
X030605Y007789D02*
X030882Y007789D01*
X030803Y007888D02*
X030683Y007888D01*
X030683Y007986D02*
X030803Y007986D01*
X030803Y008085D02*
X030683Y008085D01*
X030683Y008183D02*
X030803Y008183D01*
X030853Y008282D02*
X030634Y008282D01*
X030536Y008380D02*
X030951Y008380D01*
X031050Y008479D02*
X030437Y008479D01*
X030293Y009365D02*
X036533Y009365D01*
X036435Y009464D02*
X030293Y009464D01*
X030293Y009562D02*
X035228Y009562D01*
X035245Y009555D02*
X035342Y009555D01*
X035432Y009592D01*
X035501Y009661D01*
X035538Y009751D01*
X035538Y009849D01*
X035501Y009939D01*
X035432Y010008D01*
X035342Y010045D01*
X035245Y010045D01*
X035155Y010008D01*
X035086Y009939D01*
X035048Y009849D01*
X035048Y009751D01*
X035086Y009661D01*
X035155Y009592D01*
X035245Y009555D01*
X035359Y009562D02*
X036413Y009562D01*
X036413Y009661D02*
X035500Y009661D01*
X035538Y009759D02*
X036413Y009759D01*
X036413Y009858D02*
X035535Y009858D01*
X035484Y009956D02*
X035792Y009956D01*
X035795Y009955D02*
X035892Y009955D01*
X035982Y009992D01*
X036051Y010061D01*
X036088Y010151D01*
X036088Y010249D01*
X036051Y010339D01*
X035982Y010408D01*
X035892Y010445D01*
X035795Y010445D01*
X035705Y010408D01*
X035636Y010339D01*
X035598Y010249D01*
X035598Y010151D01*
X035636Y010061D01*
X035705Y009992D01*
X035795Y009955D01*
X035895Y009956D02*
X036413Y009956D01*
X036413Y010055D02*
X036044Y010055D01*
X036088Y010153D02*
X036413Y010153D01*
X036413Y010252D02*
X036087Y010252D01*
X036040Y010350D02*
X036413Y010350D01*
X036413Y010449D02*
X030293Y010449D01*
X030293Y010547D02*
X036413Y010547D01*
X036413Y010646D02*
X030293Y010646D01*
X030293Y010744D02*
X036413Y010744D01*
X036413Y010843D02*
X030293Y010843D01*
X030293Y010941D02*
X036413Y010941D01*
X036413Y011040D02*
X030293Y011040D01*
X030293Y011138D02*
X036413Y011138D01*
X036413Y011237D02*
X030293Y011237D01*
X030293Y011335D02*
X036413Y011335D01*
X036413Y011434D02*
X030293Y011434D01*
X030293Y011532D02*
X036413Y011532D01*
X036413Y011631D02*
X035304Y011631D01*
X035332Y011642D02*
X035401Y011711D01*
X035438Y011801D01*
X035438Y011899D01*
X035401Y011989D01*
X035332Y012058D01*
X035242Y012095D01*
X035145Y012095D01*
X035055Y012058D01*
X034986Y011989D01*
X034948Y011899D01*
X034948Y011801D01*
X034986Y011711D01*
X035055Y011642D01*
X035145Y011605D01*
X035242Y011605D01*
X035332Y011642D01*
X035408Y011729D02*
X036413Y011729D01*
X036413Y011828D02*
X035438Y011828D01*
X035427Y011926D02*
X036413Y011926D01*
X036413Y012025D02*
X035365Y012025D01*
X035536Y012161D02*
X035605Y012092D01*
X035695Y012055D01*
X035792Y012055D01*
X035882Y012092D01*
X035951Y012161D01*
X035988Y012251D01*
X035988Y012349D01*
X035951Y012439D01*
X035882Y012508D01*
X035792Y012545D01*
X035695Y012545D01*
X035605Y012508D01*
X035536Y012439D01*
X035498Y012349D01*
X035498Y012251D01*
X035536Y012161D01*
X035574Y012123D02*
X034567Y012123D01*
X034601Y012089D02*
X034532Y012158D01*
X034442Y012195D01*
X034345Y012195D01*
X034255Y012158D01*
X034186Y012089D01*
X034148Y011999D01*
X034148Y011901D01*
X034186Y011811D01*
X034255Y011742D01*
X034345Y011705D01*
X034442Y011705D01*
X034532Y011742D01*
X034601Y011811D01*
X034638Y011901D01*
X034638Y011999D01*
X034601Y012089D01*
X034628Y012025D02*
X035021Y012025D01*
X034960Y011926D02*
X034638Y011926D01*
X034608Y011828D02*
X034948Y011828D01*
X034978Y011729D02*
X034500Y011729D01*
X034287Y011729D02*
X030293Y011729D01*
X030293Y011631D02*
X035083Y011631D01*
X035511Y012222D02*
X031949Y012222D01*
X031982Y012208D02*
X031892Y012245D01*
X031795Y012245D01*
X031705Y012208D01*
X031636Y012139D01*
X031598Y012049D01*
X031598Y011951D01*
X031636Y011861D01*
X031705Y011792D01*
X031795Y011755D01*
X031892Y011755D01*
X031982Y011792D01*
X032051Y011861D01*
X032088Y011951D01*
X032088Y012049D01*
X032051Y012139D01*
X031982Y012208D01*
X032058Y012123D02*
X034220Y012123D01*
X034159Y012025D02*
X032088Y012025D01*
X032078Y011926D02*
X034148Y011926D01*
X034179Y011828D02*
X032017Y011828D01*
X031669Y011828D02*
X030293Y011828D01*
X030293Y011926D02*
X031609Y011926D01*
X031598Y012025D02*
X031464Y012025D01*
X031432Y011992D02*
X031501Y012061D01*
X031538Y012151D01*
X031538Y012249D01*
X031501Y012339D01*
X031432Y012408D01*
X031342Y012445D01*
X031245Y012445D01*
X031155Y012408D01*
X031086Y012339D01*
X031048Y012249D01*
X031048Y012151D01*
X031086Y012061D01*
X031155Y011992D01*
X031245Y011955D01*
X031342Y011955D01*
X031432Y011992D01*
X031527Y012123D02*
X031629Y012123D01*
X031538Y012222D02*
X031738Y012222D01*
X031509Y012320D02*
X035498Y012320D01*
X035527Y012419D02*
X031406Y012419D01*
X031181Y012419D02*
X030293Y012419D01*
X030293Y012517D02*
X035627Y012517D01*
X035860Y012517D02*
X036413Y012517D01*
X036413Y012419D02*
X035959Y012419D01*
X035988Y012320D02*
X036413Y012320D01*
X036413Y012222D02*
X035976Y012222D01*
X035913Y012123D02*
X036413Y012123D01*
X036413Y012616D02*
X030293Y012616D01*
X030293Y012714D02*
X036413Y012714D01*
X036413Y012813D02*
X030293Y012813D01*
X030293Y012911D02*
X036413Y012911D01*
X036413Y013010D02*
X030293Y013010D01*
X030293Y013108D02*
X036413Y013108D01*
X036413Y013207D02*
X030293Y013207D01*
X030293Y013305D02*
X036413Y013305D01*
X036413Y013404D02*
X030293Y013404D01*
X030293Y013502D02*
X036413Y013502D01*
X036413Y013601D02*
X030293Y013601D01*
X030293Y013699D02*
X036413Y013699D01*
X036413Y013798D02*
X030293Y013798D01*
X030293Y013896D02*
X036413Y013896D01*
X036413Y013995D02*
X030293Y013995D01*
X030293Y014093D02*
X036413Y014093D01*
X036413Y014192D02*
X030293Y014192D01*
X030293Y014290D02*
X036413Y014290D01*
X036413Y014389D02*
X030293Y014389D01*
X030293Y014487D02*
X036413Y014487D01*
X036413Y014586D02*
X030293Y014586D01*
X030293Y014684D02*
X036413Y014684D01*
X036413Y014783D02*
X032022Y014783D01*
X032051Y014811D02*
X032088Y014901D01*
X032088Y014999D01*
X032051Y015089D01*
X031982Y015158D01*
X031892Y015195D01*
X031795Y015195D01*
X031705Y015158D01*
X031636Y015089D01*
X031598Y014999D01*
X031598Y014901D01*
X031636Y014811D01*
X031705Y014742D01*
X031795Y014705D01*
X031892Y014705D01*
X031982Y014742D01*
X032051Y014811D01*
X032080Y014881D02*
X036413Y014881D01*
X036413Y014980D02*
X032088Y014980D01*
X032055Y015078D02*
X036413Y015078D01*
X036413Y015177D02*
X031937Y015177D01*
X031750Y015177D02*
X030293Y015177D01*
X030293Y015275D02*
X036413Y015275D01*
X036413Y015374D02*
X030293Y015374D01*
X030293Y015472D02*
X036413Y015472D01*
X036413Y015571D02*
X030293Y015571D01*
X030293Y015669D02*
X036413Y015669D01*
X036413Y015768D02*
X030293Y015768D01*
X030293Y015866D02*
X036413Y015866D01*
X036413Y015965D02*
X032565Y015965D01*
X032542Y015955D02*
X032632Y015992D01*
X032701Y016061D01*
X032738Y016151D01*
X032738Y016249D01*
X032701Y016339D01*
X032632Y016408D01*
X032542Y016445D01*
X032445Y016445D01*
X032355Y016408D01*
X032286Y016339D01*
X032248Y016249D01*
X032248Y016151D01*
X032286Y016061D01*
X032355Y015992D01*
X032445Y015955D01*
X032542Y015955D01*
X032422Y015965D02*
X030293Y015965D01*
X030293Y016063D02*
X032285Y016063D01*
X032248Y016162D02*
X030293Y016162D01*
X030293Y016260D02*
X032253Y016260D01*
X032305Y016359D02*
X030293Y016359D01*
X030293Y016457D02*
X034948Y016457D01*
X034948Y016451D02*
X034986Y016361D01*
X035055Y016292D01*
X035145Y016255D01*
X035242Y016255D01*
X035332Y016292D01*
X035401Y016361D01*
X035438Y016451D01*
X035438Y016549D01*
X035401Y016639D01*
X035332Y016708D01*
X035242Y016745D01*
X035145Y016745D01*
X035055Y016708D01*
X034986Y016639D01*
X034948Y016549D01*
X034948Y016451D01*
X034988Y016359D02*
X032681Y016359D01*
X032734Y016260D02*
X035132Y016260D01*
X035254Y016260D02*
X036413Y016260D01*
X036413Y016162D02*
X032738Y016162D01*
X032702Y016063D02*
X036413Y016063D01*
X036413Y016359D02*
X035398Y016359D01*
X035438Y016457D02*
X036413Y016457D01*
X036413Y016556D02*
X035435Y016556D01*
X035386Y016654D02*
X036413Y016654D01*
X036413Y016753D02*
X030293Y016753D01*
X030293Y016851D02*
X036413Y016851D01*
X036413Y016950D02*
X030293Y016950D01*
X030293Y017048D02*
X036413Y017048D01*
X036413Y017147D02*
X030293Y017147D01*
X030293Y017245D02*
X036393Y017245D01*
X036551Y017738D02*
X038366Y017738D01*
X038275Y017836D02*
X030293Y017836D01*
X030293Y017738D02*
X035634Y017738D01*
X035563Y017639D02*
X030293Y017639D01*
X030293Y017541D02*
X035548Y017541D01*
X035573Y017442D02*
X030293Y017442D01*
X030293Y017344D02*
X035653Y017344D01*
X035001Y016654D02*
X030293Y016654D01*
X030293Y016556D02*
X034951Y016556D01*
X036873Y016556D02*
X048293Y016556D01*
X048293Y016654D02*
X036873Y016654D01*
X036873Y016753D02*
X048293Y016753D01*
X048293Y016851D02*
X036873Y016851D01*
X036873Y016950D02*
X048293Y016950D01*
X048293Y017048D02*
X036873Y017048D01*
X036873Y016457D02*
X048293Y016457D01*
X048293Y016359D02*
X036873Y016359D01*
X036873Y016260D02*
X048293Y016260D01*
X048293Y016162D02*
X036873Y016162D01*
X036873Y016063D02*
X048293Y016063D01*
X048293Y015965D02*
X036873Y015965D01*
X038248Y017935D02*
X030293Y017935D01*
X030293Y018033D02*
X038263Y018033D01*
X031878Y021481D02*
X030413Y021481D01*
X030413Y021579D02*
X031848Y021579D01*
X031860Y021678D02*
X030413Y021678D01*
X030413Y021776D02*
X031923Y021776D01*
X030073Y021776D02*
X029763Y021776D01*
X029763Y021678D02*
X030073Y021678D01*
X030073Y021579D02*
X029763Y021579D01*
X029763Y021481D02*
X030073Y021481D01*
X030073Y021382D02*
X029763Y021382D01*
X029763Y021284D02*
X030073Y021284D01*
X030073Y021185D02*
X029763Y021185D01*
X029763Y021087D02*
X030073Y021087D01*
X030073Y020988D02*
X029763Y020988D01*
X029763Y020890D02*
X030073Y020890D01*
X030073Y020791D02*
X029763Y020791D01*
X029763Y020693D02*
X030073Y020693D01*
X030073Y020594D02*
X029763Y020594D01*
X029763Y020496D02*
X030073Y020496D01*
X030073Y020397D02*
X029763Y020397D01*
X029763Y020299D02*
X030073Y020299D01*
X030073Y020200D02*
X029763Y020200D01*
X029763Y020102D02*
X030073Y020102D01*
X030073Y020003D02*
X029763Y020003D01*
X029763Y019905D02*
X030073Y019905D01*
X030053Y019806D02*
X029763Y019806D01*
X029763Y019708D02*
X030002Y019708D01*
X029998Y019609D02*
X029763Y019609D01*
X029763Y019511D02*
X030036Y019511D01*
X030133Y019412D02*
X029763Y019412D01*
X029763Y019314D02*
X030133Y019314D01*
X030133Y019215D02*
X029763Y019215D01*
X029763Y019117D02*
X030133Y019117D01*
X030133Y019018D02*
X029763Y019018D01*
X029763Y018920D02*
X030133Y018920D01*
X030133Y018821D02*
X029763Y018821D01*
X029763Y018723D02*
X030133Y018723D01*
X030133Y018624D02*
X029763Y018624D01*
X029763Y018526D02*
X030133Y018526D01*
X030133Y018427D02*
X029763Y018427D01*
X029763Y018329D02*
X030133Y018329D01*
X030133Y018230D02*
X029763Y018230D01*
X029763Y018132D02*
X030133Y018132D01*
X030133Y018033D02*
X029763Y018033D01*
X029763Y017935D02*
X030133Y017935D01*
X030133Y017836D02*
X029763Y017836D01*
X029763Y017738D02*
X030133Y017738D01*
X030133Y017639D02*
X029763Y017639D01*
X029763Y017541D02*
X030133Y017541D01*
X030133Y017442D02*
X029763Y017442D01*
X029763Y017344D02*
X030041Y017344D01*
X029892Y017245D02*
X029763Y017245D01*
X029763Y017147D02*
X029848Y017147D01*
X029850Y017048D02*
X029763Y017048D01*
X029763Y016950D02*
X029897Y016950D01*
X029763Y016851D02*
X030133Y016851D01*
X030133Y016753D02*
X029763Y016753D01*
X029763Y016654D02*
X030133Y016654D01*
X030133Y016556D02*
X029763Y016556D01*
X029763Y016457D02*
X030133Y016457D01*
X030133Y016359D02*
X029763Y016359D01*
X029763Y016260D02*
X030133Y016260D01*
X030133Y016162D02*
X029763Y016162D01*
X029763Y016063D02*
X030133Y016063D01*
X030133Y015965D02*
X029763Y015965D01*
X029763Y015920D02*
X029763Y024320D01*
X029664Y024420D01*
X029664Y024420D01*
X029468Y024616D01*
X029495Y024605D01*
X029592Y024605D01*
X029682Y024642D01*
X029751Y024711D01*
X029788Y024801D01*
X029788Y024899D01*
X029751Y024989D01*
X029682Y025058D01*
X029592Y025095D01*
X029539Y025095D01*
X028763Y025870D01*
X028763Y028724D01*
X028801Y028761D01*
X028838Y028851D01*
X028838Y028949D01*
X028801Y029039D01*
X028732Y029108D01*
X028642Y029145D01*
X028545Y029145D01*
X028455Y029108D01*
X028386Y029039D01*
X028348Y028949D01*
X028348Y028851D01*
X028386Y028761D01*
X028423Y028724D01*
X028423Y025730D01*
X029298Y024855D01*
X029298Y024801D01*
X029310Y024774D01*
X028263Y025820D01*
X028263Y028724D01*
X028301Y028761D01*
X028338Y028851D01*
X028338Y028949D01*
X028301Y029039D01*
X028232Y029108D01*
X028142Y029145D01*
X028045Y029145D01*
X027955Y029108D01*
X027886Y029039D01*
X027848Y028949D01*
X027848Y028851D01*
X027886Y028761D01*
X027923Y028724D01*
X027923Y025680D01*
X028023Y025580D01*
X029423Y024180D01*
X029423Y015780D01*
X029598Y015605D01*
X029598Y015551D01*
X029636Y015461D01*
X029705Y015392D01*
X029795Y015355D01*
X029892Y015355D01*
X029982Y015392D01*
X030051Y015461D01*
X030088Y015551D01*
X030088Y015649D01*
X030051Y015739D01*
X029982Y015808D01*
X029892Y015845D01*
X029839Y015845D01*
X029763Y015920D01*
X029818Y015866D02*
X030133Y015866D01*
X030133Y015768D02*
X030022Y015768D01*
X030080Y015669D02*
X030133Y015669D01*
X030133Y015571D02*
X030088Y015571D01*
X030055Y015472D02*
X030133Y015472D01*
X030133Y015374D02*
X029937Y015374D01*
X029750Y015374D02*
X028263Y015374D01*
X028263Y015472D02*
X029631Y015472D01*
X029598Y015571D02*
X028263Y015571D01*
X028263Y015669D02*
X029534Y015669D01*
X029435Y015768D02*
X028263Y015768D01*
X028263Y015866D02*
X029423Y015866D01*
X029423Y015965D02*
X028263Y015965D01*
X028263Y016063D02*
X029423Y016063D01*
X029423Y016162D02*
X028263Y016162D01*
X028263Y016260D02*
X029423Y016260D01*
X029423Y016359D02*
X028263Y016359D01*
X028263Y016457D02*
X029423Y016457D01*
X029423Y016556D02*
X028263Y016556D01*
X028263Y016654D02*
X029423Y016654D01*
X029423Y016753D02*
X028263Y016753D01*
X028263Y016851D02*
X029423Y016851D01*
X029423Y016950D02*
X029289Y016950D01*
X029301Y016961D02*
X029338Y017051D01*
X029338Y017149D01*
X029301Y017239D01*
X029232Y017308D01*
X029142Y017345D01*
X029045Y017345D01*
X028955Y017308D01*
X028886Y017239D01*
X028848Y017149D01*
X028848Y017051D01*
X028886Y016961D01*
X028955Y016892D01*
X029045Y016855D01*
X029142Y016855D01*
X029232Y016892D01*
X029301Y016961D01*
X029337Y017048D02*
X029423Y017048D01*
X029423Y017147D02*
X029338Y017147D01*
X029295Y017245D02*
X029423Y017245D01*
X029423Y017344D02*
X029146Y017344D01*
X029041Y017344D02*
X028733Y017344D01*
X028732Y017342D02*
X028801Y017411D01*
X028838Y017501D01*
X028838Y017599D01*
X028801Y017689D01*
X028732Y017758D01*
X028642Y017795D01*
X028636Y017795D01*
X028638Y017801D01*
X028638Y017899D01*
X028601Y017989D01*
X028532Y018058D01*
X028442Y018095D01*
X028345Y018095D01*
X028255Y018058D01*
X028186Y017989D01*
X028148Y017899D01*
X028148Y017845D01*
X027923Y017620D01*
X027923Y011476D01*
X027886Y011439D01*
X027848Y011349D01*
X027848Y011251D01*
X027886Y011161D01*
X027955Y011092D01*
X028045Y011055D01*
X028142Y011055D01*
X028232Y011092D01*
X028301Y011161D01*
X028338Y011251D01*
X028338Y011349D01*
X028301Y011439D01*
X028263Y011476D01*
X028263Y017480D01*
X028348Y017565D01*
X028348Y017501D01*
X028386Y017411D01*
X028455Y017342D01*
X028545Y017305D01*
X028642Y017305D01*
X028732Y017342D01*
X028814Y017442D02*
X029423Y017442D01*
X029423Y017541D02*
X028838Y017541D01*
X028822Y017639D02*
X029423Y017639D01*
X029423Y017738D02*
X028752Y017738D01*
X028638Y017836D02*
X029423Y017836D01*
X029423Y017935D02*
X028623Y017935D01*
X028557Y018033D02*
X029423Y018033D01*
X029423Y018132D02*
X027573Y018132D01*
X027573Y018230D02*
X029423Y018230D01*
X029423Y018329D02*
X027573Y018329D01*
X027573Y018427D02*
X029423Y018427D01*
X029423Y018526D02*
X027573Y018526D01*
X027573Y018624D02*
X029423Y018624D01*
X029423Y018723D02*
X027573Y018723D01*
X027573Y018821D02*
X029423Y018821D01*
X029423Y018920D02*
X027573Y018920D01*
X027573Y019018D02*
X029423Y019018D01*
X029423Y019117D02*
X027573Y019117D01*
X027573Y019215D02*
X029423Y019215D01*
X029423Y019314D02*
X027573Y019314D01*
X027573Y019412D02*
X029423Y019412D01*
X029423Y019511D02*
X027573Y019511D01*
X027573Y019609D02*
X029423Y019609D01*
X029423Y019708D02*
X027573Y019708D01*
X027573Y019806D02*
X029423Y019806D01*
X029423Y019905D02*
X027573Y019905D01*
X027573Y020003D02*
X029423Y020003D01*
X029423Y020102D02*
X027573Y020102D01*
X027573Y020200D02*
X029423Y020200D01*
X029423Y020299D02*
X027573Y020299D01*
X027573Y020397D02*
X029423Y020397D01*
X029423Y020496D02*
X027573Y020496D01*
X027573Y020594D02*
X029423Y020594D01*
X029423Y020693D02*
X027573Y020693D01*
X027573Y020791D02*
X029423Y020791D01*
X029423Y020890D02*
X027573Y020890D01*
X027573Y020988D02*
X029423Y020988D01*
X029423Y021087D02*
X027573Y021087D01*
X027573Y021185D02*
X029423Y021185D01*
X029423Y021284D02*
X027573Y021284D01*
X027573Y021382D02*
X029423Y021382D01*
X029423Y021481D02*
X027573Y021481D01*
X027573Y021579D02*
X029423Y021579D01*
X029423Y021678D02*
X027573Y021678D01*
X027573Y021776D02*
X029423Y021776D01*
X029423Y021875D02*
X027573Y021875D01*
X027573Y021973D02*
X029423Y021973D01*
X029423Y022072D02*
X027573Y022072D01*
X027573Y022170D02*
X029423Y022170D01*
X029423Y022269D02*
X027573Y022269D01*
X027573Y022367D02*
X029423Y022367D01*
X029423Y022466D02*
X027573Y022466D01*
X027573Y022564D02*
X029423Y022564D01*
X029423Y022663D02*
X027573Y022663D01*
X027573Y022761D02*
X029423Y022761D01*
X029423Y022860D02*
X027573Y022860D01*
X027573Y022958D02*
X029423Y022958D01*
X029423Y023057D02*
X027573Y023057D01*
X027573Y023155D02*
X029423Y023155D01*
X029423Y023254D02*
X027573Y023254D01*
X027573Y023352D02*
X029423Y023352D01*
X029423Y023451D02*
X027573Y023451D01*
X027573Y023549D02*
X029423Y023549D01*
X029423Y023648D02*
X027573Y023648D01*
X027573Y023746D02*
X029423Y023746D01*
X029423Y023845D02*
X027573Y023845D01*
X027573Y023943D02*
X029423Y023943D01*
X029423Y024042D02*
X027573Y024042D01*
X027573Y024140D02*
X029423Y024140D01*
X029364Y024239D02*
X027573Y024239D01*
X027573Y024337D02*
X029266Y024337D01*
X029167Y024436D02*
X027573Y024436D01*
X027573Y024534D02*
X029069Y024534D01*
X028970Y024633D02*
X027573Y024633D01*
X027573Y024731D02*
X028872Y024731D01*
X028773Y024830D02*
X027573Y024830D01*
X027573Y024928D02*
X028675Y024928D01*
X028576Y025027D02*
X027573Y025027D01*
X027573Y025125D02*
X028478Y025125D01*
X028379Y025224D02*
X027573Y025224D01*
X027573Y025322D02*
X028281Y025322D01*
X028182Y025421D02*
X027573Y025421D01*
X027573Y025519D02*
X028084Y025519D01*
X028023Y025580D02*
X028023Y025580D01*
X027985Y025618D02*
X027573Y025618D01*
X027573Y025716D02*
X027923Y025716D01*
X027923Y025815D02*
X027573Y025815D01*
X027573Y025913D02*
X027923Y025913D01*
X027923Y026012D02*
X027573Y026012D01*
X027573Y026110D02*
X027923Y026110D01*
X027923Y026209D02*
X027573Y026209D01*
X027573Y026307D02*
X027923Y026307D01*
X027923Y026406D02*
X027573Y026406D01*
X027573Y026504D02*
X027923Y026504D01*
X027923Y026603D02*
X027533Y026603D01*
X027419Y026701D02*
X027923Y026701D01*
X027923Y026800D02*
X020571Y026800D01*
X020571Y026898D02*
X027923Y026898D01*
X027923Y026997D02*
X020571Y026997D01*
X020571Y027095D02*
X027923Y027095D01*
X027923Y027194D02*
X020571Y027194D01*
X020571Y027292D02*
X027923Y027292D01*
X027923Y027391D02*
X020571Y027391D01*
X020571Y027489D02*
X027923Y027489D01*
X027923Y027588D02*
X020571Y027588D01*
X020571Y027686D02*
X027923Y027686D01*
X027923Y027785D02*
X020571Y027785D01*
X020571Y027883D02*
X027923Y027883D01*
X027923Y027982D02*
X020571Y027982D01*
X020571Y028080D02*
X027923Y028080D01*
X027923Y028179D02*
X020571Y028179D01*
X020571Y028277D02*
X027923Y028277D01*
X027923Y028376D02*
X020571Y028376D01*
X020571Y028474D02*
X027923Y028474D01*
X027923Y028573D02*
X020571Y028573D01*
X020571Y028671D02*
X027923Y028671D01*
X027882Y028770D02*
X020571Y028770D01*
X020571Y028868D02*
X027848Y028868D01*
X027856Y028967D02*
X020571Y028967D01*
X020571Y029065D02*
X027912Y029065D01*
X028275Y029065D02*
X028412Y029065D01*
X028356Y028967D02*
X028331Y028967D01*
X028338Y028868D02*
X028348Y028868D01*
X028382Y028770D02*
X028304Y028770D01*
X028263Y028671D02*
X028423Y028671D01*
X028423Y028573D02*
X028263Y028573D01*
X028263Y028474D02*
X028423Y028474D01*
X028423Y028376D02*
X028263Y028376D01*
X028263Y028277D02*
X028423Y028277D01*
X028423Y028179D02*
X028263Y028179D01*
X028263Y028080D02*
X028423Y028080D01*
X028423Y027982D02*
X028263Y027982D01*
X028263Y027883D02*
X028423Y027883D01*
X028423Y027785D02*
X028263Y027785D01*
X028263Y027686D02*
X028423Y027686D01*
X028423Y027588D02*
X028263Y027588D01*
X028263Y027489D02*
X028423Y027489D01*
X028423Y027391D02*
X028263Y027391D01*
X028263Y027292D02*
X028423Y027292D01*
X028423Y027194D02*
X028263Y027194D01*
X028263Y027095D02*
X028423Y027095D01*
X028423Y026997D02*
X028263Y026997D01*
X028263Y026898D02*
X028423Y026898D01*
X028423Y026800D02*
X028263Y026800D01*
X028263Y026701D02*
X028423Y026701D01*
X028423Y026603D02*
X028263Y026603D01*
X028263Y026504D02*
X028423Y026504D01*
X028423Y026406D02*
X028263Y026406D01*
X028263Y026307D02*
X028423Y026307D01*
X028423Y026209D02*
X028263Y026209D01*
X028263Y026110D02*
X028423Y026110D01*
X028423Y026012D02*
X028263Y026012D01*
X028263Y025913D02*
X028423Y025913D01*
X028423Y025815D02*
X028269Y025815D01*
X028368Y025716D02*
X028437Y025716D01*
X028466Y025618D02*
X028535Y025618D01*
X028565Y025519D02*
X028634Y025519D01*
X028663Y025421D02*
X028732Y025421D01*
X028762Y025322D02*
X028831Y025322D01*
X028860Y025224D02*
X028929Y025224D01*
X028959Y025125D02*
X029028Y025125D01*
X029057Y025027D02*
X029126Y025027D01*
X029156Y024928D02*
X029225Y024928D01*
X029254Y024830D02*
X029298Y024830D01*
X029509Y025125D02*
X030073Y025125D01*
X030073Y025027D02*
X029713Y025027D01*
X029776Y024928D02*
X030073Y024928D01*
X030073Y024830D02*
X029788Y024830D01*
X029759Y024731D02*
X030073Y024731D01*
X030073Y024633D02*
X029659Y024633D01*
X029550Y024534D02*
X030073Y024534D01*
X030073Y024436D02*
X029648Y024436D01*
X029747Y024337D02*
X030073Y024337D01*
X030073Y024239D02*
X029763Y024239D01*
X029763Y024140D02*
X030073Y024140D01*
X030073Y024042D02*
X029763Y024042D01*
X029763Y023943D02*
X030073Y023943D01*
X030073Y023845D02*
X029763Y023845D01*
X029763Y023746D02*
X030073Y023746D01*
X030073Y023648D02*
X029763Y023648D01*
X029763Y023549D02*
X030073Y023549D01*
X030073Y023451D02*
X029763Y023451D01*
X029763Y023352D02*
X030073Y023352D01*
X030073Y023254D02*
X029763Y023254D01*
X029763Y023155D02*
X030073Y023155D01*
X030073Y023057D02*
X029763Y023057D01*
X029763Y022958D02*
X030073Y022958D01*
X030073Y022860D02*
X029763Y022860D01*
X029763Y022761D02*
X030073Y022761D01*
X030073Y022663D02*
X029763Y022663D01*
X029763Y022564D02*
X030073Y022564D01*
X030073Y022466D02*
X029763Y022466D01*
X029763Y022367D02*
X030073Y022367D01*
X030073Y022269D02*
X029763Y022269D01*
X029763Y022170D02*
X030073Y022170D01*
X030073Y022072D02*
X029763Y022072D01*
X029763Y021973D02*
X030073Y021973D01*
X030073Y021875D02*
X029763Y021875D01*
X030413Y023648D02*
X034149Y023648D01*
X034100Y023746D02*
X030413Y023746D01*
X030413Y023845D02*
X034098Y023845D01*
X034140Y023943D02*
X031683Y023943D01*
X031404Y023943D02*
X030413Y023943D01*
X030413Y024042D02*
X031323Y024042D01*
X031298Y024140D02*
X030413Y024140D01*
X030413Y024239D02*
X031315Y024239D01*
X031384Y024337D02*
X030413Y024337D01*
X030413Y024436D02*
X035464Y024436D01*
X035448Y024337D02*
X031703Y024337D01*
X031772Y024239D02*
X035474Y024239D01*
X035531Y024534D02*
X030413Y024534D01*
X030073Y025224D02*
X029410Y025224D01*
X029312Y025322D02*
X030073Y025322D01*
X030073Y025421D02*
X029213Y025421D01*
X029115Y025519D02*
X030073Y025519D01*
X030073Y025618D02*
X029016Y025618D01*
X028918Y025716D02*
X030073Y025716D01*
X030073Y025815D02*
X028819Y025815D01*
X028763Y025913D02*
X030073Y025913D01*
X030073Y026012D02*
X028763Y026012D01*
X028763Y026110D02*
X030073Y026110D01*
X030073Y026209D02*
X028763Y026209D01*
X028763Y026307D02*
X030073Y026307D01*
X030073Y026406D02*
X028763Y026406D01*
X028763Y026504D02*
X030073Y026504D01*
X030073Y026603D02*
X028763Y026603D01*
X028763Y026701D02*
X030073Y026701D01*
X030073Y026800D02*
X028763Y026800D01*
X028763Y026898D02*
X030073Y026898D01*
X030073Y026997D02*
X028763Y026997D01*
X028763Y027095D02*
X030073Y027095D01*
X030073Y027194D02*
X028763Y027194D01*
X028763Y027292D02*
X030073Y027292D01*
X030073Y027391D02*
X028763Y027391D01*
X028763Y027489D02*
X030142Y027489D01*
X030240Y027588D02*
X028763Y027588D01*
X028763Y027686D02*
X030339Y027686D01*
X030437Y027785D02*
X028763Y027785D01*
X028763Y027883D02*
X034386Y027883D01*
X034484Y027982D02*
X028763Y027982D01*
X028763Y028080D02*
X034583Y028080D01*
X034681Y028179D02*
X028763Y028179D01*
X028763Y028277D02*
X034780Y028277D01*
X034878Y028376D02*
X028763Y028376D01*
X028763Y028474D02*
X034977Y028474D01*
X035075Y028573D02*
X028763Y028573D01*
X028763Y028671D02*
X035174Y028671D01*
X035272Y028770D02*
X028804Y028770D01*
X028838Y028868D02*
X035371Y028868D01*
X035556Y028573D02*
X038424Y028573D01*
X038762Y028573D02*
X054506Y028573D01*
X054506Y028671D02*
X038826Y028671D01*
X038838Y028770D02*
X054506Y028770D01*
X054506Y028868D02*
X038810Y028868D01*
X038711Y028967D02*
X054506Y028967D01*
X054506Y029065D02*
X028775Y029065D01*
X028831Y028967D02*
X038476Y028967D01*
X035458Y028474D02*
X054506Y028474D01*
X054506Y028376D02*
X035359Y028376D01*
X035261Y028277D02*
X052648Y028277D01*
X052470Y028179D02*
X035162Y028179D01*
X035064Y028080D02*
X052371Y028080D01*
X052273Y027982D02*
X034965Y027982D01*
X034867Y027883D02*
X052232Y027883D01*
X052191Y027785D02*
X034768Y027785D01*
X034670Y027686D02*
X052150Y027686D01*
X052143Y027588D02*
X034571Y027588D01*
X034063Y025716D02*
X032069Y025716D01*
X031918Y025716D02*
X030413Y025716D01*
X030413Y025618D02*
X034006Y025618D01*
X033998Y025519D02*
X030413Y025519D01*
X030413Y025421D02*
X034032Y025421D01*
X031784Y025815D02*
X030413Y025815D01*
X030413Y025913D02*
X031748Y025913D01*
X031754Y026012D02*
X030413Y026012D01*
X030413Y026110D02*
X031807Y026110D01*
X030623Y027489D02*
X052143Y027489D01*
X053286Y026701D02*
X054506Y026701D01*
X054506Y026800D02*
X053495Y026800D01*
X053593Y026898D02*
X054506Y026898D01*
X054506Y026997D02*
X053692Y026997D01*
X053746Y027095D02*
X054506Y027095D01*
X054506Y027194D02*
X053786Y027194D01*
X053827Y027292D02*
X054506Y027292D01*
X054506Y027391D02*
X053843Y027391D01*
X053843Y027489D02*
X054506Y027489D01*
X054506Y027588D02*
X053843Y027588D01*
X053836Y027686D02*
X054506Y027686D01*
X054506Y027785D02*
X053795Y027785D01*
X053755Y027883D02*
X054506Y027883D01*
X054506Y027982D02*
X053714Y027982D01*
X053615Y028080D02*
X054506Y028080D01*
X054506Y028179D02*
X053517Y028179D01*
X053338Y028277D02*
X054506Y028277D01*
X054506Y029164D02*
X020571Y029164D01*
X020571Y029262D02*
X054506Y029262D01*
X054506Y029361D02*
X020473Y029361D01*
X020571Y029263D02*
X020214Y029620D01*
X016470Y029620D01*
X016432Y029658D01*
X016342Y029695D01*
X016245Y029695D01*
X016155Y029658D01*
X016086Y029589D01*
X016048Y029499D01*
X016048Y029401D01*
X016086Y029311D01*
X016155Y029242D01*
X016245Y029205D01*
X016342Y029205D01*
X016432Y029242D01*
X016470Y029280D01*
X020073Y029280D01*
X020231Y029122D01*
X020231Y023034D01*
X020186Y022989D01*
X020148Y022899D01*
X020148Y022801D01*
X020186Y022711D01*
X020255Y022642D01*
X020345Y022605D01*
X020442Y022605D01*
X020532Y022642D01*
X020601Y022711D01*
X020638Y022801D01*
X020638Y022899D01*
X020601Y022989D01*
X020571Y023019D01*
X020571Y029263D01*
X020375Y029459D02*
X054506Y029459D01*
X054506Y029558D02*
X020276Y029558D01*
X020300Y029704D02*
X020587Y029704D01*
X020790Y029907D01*
X020790Y030193D01*
X020587Y030396D01*
X020300Y030396D01*
X020097Y030193D01*
X020097Y029907D01*
X020300Y029704D01*
X020249Y029755D02*
X019158Y029755D01*
X019107Y029704D02*
X019310Y029907D01*
X019310Y030193D01*
X019107Y030396D01*
X018820Y030396D01*
X018617Y030193D01*
X018617Y029907D01*
X018820Y029704D01*
X019107Y029704D01*
X019256Y029853D02*
X020151Y029853D01*
X020097Y029952D02*
X019310Y029952D01*
X019310Y030050D02*
X020097Y030050D01*
X020097Y030149D02*
X019310Y030149D01*
X019256Y030247D02*
X020151Y030247D01*
X020249Y030346D02*
X019157Y030346D01*
X018769Y030346D02*
X005693Y030346D01*
X005693Y030444D02*
X054506Y030444D01*
X054506Y030346D02*
X020637Y030346D01*
X020736Y030247D02*
X054506Y030247D01*
X054506Y030149D02*
X020790Y030149D01*
X020790Y030050D02*
X054506Y030050D01*
X054506Y029952D02*
X020790Y029952D01*
X020736Y029853D02*
X054506Y029853D01*
X054506Y029755D02*
X020638Y029755D01*
X020091Y029262D02*
X016452Y029262D01*
X016135Y029262D02*
X007375Y029262D01*
X007532Y029164D02*
X020189Y029164D01*
X020231Y029065D02*
X007630Y029065D01*
X007720Y028967D02*
X020231Y028967D01*
X020231Y028868D02*
X007761Y028868D01*
X007802Y028770D02*
X020231Y028770D01*
X020231Y028671D02*
X007842Y028671D01*
X007843Y028573D02*
X020231Y028573D01*
X020231Y028474D02*
X007843Y028474D01*
X007843Y028376D02*
X020231Y028376D01*
X020231Y028277D02*
X007821Y028277D01*
X007780Y028179D02*
X020231Y028179D01*
X020231Y028080D02*
X007739Y028080D01*
X007677Y027982D02*
X020231Y027982D01*
X020231Y027883D02*
X007578Y027883D01*
X007480Y027785D02*
X020231Y027785D01*
X020231Y027686D02*
X019593Y027686D01*
X019593Y027588D02*
X020231Y027588D01*
X020231Y027489D02*
X019593Y027489D01*
X019593Y027391D02*
X020231Y027391D01*
X020231Y027292D02*
X019593Y027292D01*
X019593Y027194D02*
X020231Y027194D01*
X020231Y027095D02*
X019593Y027095D01*
X019593Y026997D02*
X020231Y026997D01*
X020231Y026898D02*
X019593Y026898D01*
X019593Y026800D02*
X020231Y026800D01*
X020231Y026701D02*
X019593Y026701D01*
X019593Y026603D02*
X020231Y026603D01*
X020231Y026504D02*
X019593Y026504D01*
X019593Y026406D02*
X020231Y026406D01*
X020231Y026307D02*
X019593Y026307D01*
X019593Y026209D02*
X020231Y026209D01*
X020231Y026110D02*
X019593Y026110D01*
X019593Y026012D02*
X020231Y026012D01*
X020231Y025913D02*
X019593Y025913D01*
X019593Y025815D02*
X020231Y025815D01*
X020231Y025716D02*
X019593Y025716D01*
X019593Y025618D02*
X020231Y025618D01*
X020231Y025519D02*
X019593Y025519D01*
X019593Y025421D02*
X020231Y025421D01*
X020231Y025322D02*
X019593Y025322D01*
X019593Y025224D02*
X020231Y025224D01*
X020231Y025125D02*
X019593Y025125D01*
X019593Y025027D02*
X020231Y025027D01*
X020231Y024928D02*
X019593Y024928D01*
X019593Y024830D02*
X020231Y024830D01*
X020231Y024731D02*
X019593Y024731D01*
X019593Y024633D02*
X020231Y024633D01*
X020231Y024534D02*
X019593Y024534D01*
X019593Y024436D02*
X020231Y024436D01*
X020231Y024337D02*
X019593Y024337D01*
X019593Y024239D02*
X020231Y024239D01*
X020231Y024140D02*
X019593Y024140D01*
X019593Y024042D02*
X020231Y024042D01*
X020231Y023943D02*
X019593Y023943D01*
X019593Y023845D02*
X020231Y023845D01*
X020231Y023746D02*
X019593Y023746D01*
X019593Y023648D02*
X020231Y023648D01*
X020231Y023549D02*
X019593Y023549D01*
X019593Y023451D02*
X020231Y023451D01*
X020231Y023352D02*
X019593Y023352D01*
X019593Y023254D02*
X020231Y023254D01*
X020231Y023155D02*
X019593Y023155D01*
X019593Y023057D02*
X020231Y023057D01*
X020173Y022958D02*
X019593Y022958D01*
X019593Y022860D02*
X020148Y022860D01*
X020165Y022761D02*
X019593Y022761D01*
X019593Y022663D02*
X020234Y022663D01*
X020552Y022663D02*
X025513Y022663D01*
X025513Y022761D02*
X020622Y022761D01*
X020638Y022860D02*
X025513Y022860D01*
X025513Y022958D02*
X020614Y022958D01*
X020571Y023057D02*
X025513Y023057D01*
X025513Y023155D02*
X020571Y023155D01*
X020571Y023254D02*
X025513Y023254D01*
X025513Y023352D02*
X020571Y023352D01*
X020571Y023451D02*
X025513Y023451D01*
X025513Y023549D02*
X020571Y023549D01*
X020571Y023648D02*
X025513Y023648D01*
X025513Y023746D02*
X020571Y023746D01*
X020571Y023845D02*
X025513Y023845D01*
X025513Y023943D02*
X020571Y023943D01*
X020571Y024042D02*
X025513Y024042D01*
X025513Y024140D02*
X020571Y024140D01*
X020571Y024239D02*
X025513Y024239D01*
X025513Y024337D02*
X020571Y024337D01*
X020571Y024436D02*
X025513Y024436D01*
X025513Y024534D02*
X020571Y024534D01*
X020571Y024633D02*
X025513Y024633D01*
X025513Y024731D02*
X020571Y024731D01*
X020571Y024830D02*
X025513Y024830D01*
X025513Y024928D02*
X020571Y024928D01*
X020571Y025027D02*
X025513Y025027D01*
X025513Y025125D02*
X020571Y025125D01*
X020571Y025224D02*
X025513Y025224D01*
X025513Y025322D02*
X020571Y025322D01*
X020571Y025421D02*
X025513Y025421D01*
X025513Y025519D02*
X020571Y025519D01*
X020571Y025618D02*
X025513Y025618D01*
X025513Y025716D02*
X020571Y025716D01*
X020571Y025815D02*
X025513Y025815D01*
X025513Y025913D02*
X020571Y025913D01*
X020571Y026012D02*
X025513Y026012D01*
X025513Y026110D02*
X020571Y026110D01*
X020571Y026209D02*
X025513Y026209D01*
X025513Y026307D02*
X020571Y026307D01*
X020571Y026406D02*
X025513Y026406D01*
X025513Y026504D02*
X020571Y026504D01*
X020571Y026603D02*
X025553Y026603D01*
X025668Y026701D02*
X020571Y026701D01*
X018769Y029755D02*
X005693Y029755D01*
X005693Y029853D02*
X018671Y029853D01*
X018617Y029952D02*
X005693Y029952D01*
X005693Y030050D02*
X018617Y030050D01*
X018617Y030149D02*
X005693Y030149D01*
X005693Y030247D02*
X018671Y030247D01*
X018365Y030641D02*
X022522Y030641D01*
X022620Y030543D02*
X018266Y030543D01*
X018463Y030740D02*
X022423Y030740D01*
X022325Y030838D02*
X018562Y030838D01*
X018653Y030937D02*
X022233Y030937D01*
X022233Y031035D02*
X018653Y031035D01*
X018653Y031134D02*
X022233Y031134D01*
X022233Y031232D02*
X018653Y031232D01*
X018653Y031331D02*
X022233Y031331D01*
X022233Y031429D02*
X018653Y031429D01*
X018653Y031528D02*
X022233Y031528D01*
X022329Y031626D02*
X018558Y031626D01*
X018459Y031725D02*
X022428Y031725D01*
X023489Y031725D02*
X054195Y031725D01*
X054293Y031626D02*
X023588Y031626D01*
X023683Y031528D02*
X054392Y031528D01*
X054490Y031429D02*
X023683Y031429D01*
X023683Y031331D02*
X054506Y031331D01*
X054506Y031232D02*
X023683Y031232D01*
X023683Y031134D02*
X054506Y031134D01*
X054506Y031035D02*
X042566Y031035D01*
X042542Y031045D02*
X042445Y031045D01*
X042355Y031008D01*
X042286Y030939D01*
X042248Y030849D01*
X042248Y030751D01*
X042286Y030661D01*
X042355Y030592D01*
X042445Y030555D01*
X042542Y030555D01*
X042632Y030592D01*
X042701Y030661D01*
X042738Y030751D01*
X042738Y030849D01*
X042701Y030939D01*
X042632Y031008D01*
X042542Y031045D01*
X042421Y031035D02*
X023683Y031035D01*
X023683Y030937D02*
X042285Y030937D01*
X042248Y030838D02*
X023592Y030838D01*
X023493Y030740D02*
X042253Y030740D01*
X042306Y030641D02*
X023395Y030641D01*
X023296Y030543D02*
X054506Y030543D01*
X054506Y030641D02*
X042681Y030641D01*
X042733Y030740D02*
X054506Y030740D01*
X054506Y030838D02*
X042738Y030838D01*
X042702Y030937D02*
X054506Y030937D01*
X054506Y029656D02*
X016434Y029656D01*
X016153Y029656D02*
X005693Y029656D01*
X005693Y029558D02*
X016073Y029558D01*
X016048Y029459D02*
X005693Y029459D01*
X005693Y029361D02*
X016065Y029361D01*
X017393Y030740D02*
X007188Y030740D01*
X007188Y030749D02*
X007151Y030839D01*
X007082Y030908D01*
X006992Y030945D01*
X006895Y030945D01*
X006805Y030908D01*
X006736Y030839D01*
X006698Y030749D01*
X006698Y030651D01*
X006736Y030561D01*
X006805Y030492D01*
X006895Y030455D01*
X006992Y030455D01*
X007082Y030492D01*
X007151Y030561D01*
X007188Y030651D01*
X007188Y030749D01*
X007151Y030838D02*
X017295Y030838D01*
X017203Y030937D02*
X015990Y030937D01*
X015957Y030923D02*
X016096Y030980D01*
X016202Y031086D01*
X016259Y031225D01*
X016259Y031375D01*
X016202Y031514D01*
X016096Y031620D01*
X015957Y031677D01*
X015807Y031677D01*
X015668Y031620D01*
X015562Y031514D01*
X015505Y031375D01*
X015505Y031225D01*
X015562Y031086D01*
X015668Y030980D01*
X015807Y030923D01*
X015957Y030923D01*
X015774Y030937D02*
X013313Y030937D01*
X013280Y030923D02*
X013418Y030980D01*
X013524Y031086D01*
X013582Y031225D01*
X013582Y031375D01*
X013524Y031514D01*
X013418Y031620D01*
X013280Y031677D01*
X013130Y031677D01*
X012991Y031620D01*
X012885Y031514D01*
X012828Y031375D01*
X012828Y031225D01*
X012885Y031086D01*
X012991Y030980D01*
X013130Y030923D01*
X013280Y030923D01*
X013097Y030937D02*
X011693Y030937D01*
X011660Y030923D02*
X011798Y030980D01*
X011904Y031086D01*
X011962Y031225D01*
X011962Y031375D01*
X011904Y031514D01*
X011798Y031620D01*
X011660Y031677D01*
X011510Y031677D01*
X011371Y031620D01*
X011265Y031514D01*
X011207Y031375D01*
X011207Y031225D01*
X011265Y031086D01*
X011371Y030980D01*
X011510Y030923D01*
X011660Y030923D01*
X011476Y030937D02*
X009016Y030937D01*
X008983Y030923D02*
X009121Y030980D01*
X009227Y031086D01*
X009285Y031225D01*
X009285Y031375D01*
X009227Y031514D01*
X009121Y031620D01*
X008983Y031677D01*
X008832Y031677D01*
X008694Y031620D01*
X008588Y031514D01*
X008530Y031375D01*
X008530Y031225D01*
X008588Y031086D01*
X008694Y030980D01*
X008832Y030923D01*
X008983Y030923D01*
X008799Y030937D02*
X007012Y030937D01*
X006874Y030937D02*
X005693Y030937D01*
X005693Y031035D02*
X008639Y031035D01*
X008568Y031134D02*
X005693Y031134D01*
X005693Y031232D02*
X008530Y031232D01*
X008530Y031331D02*
X005693Y031331D01*
X005709Y031429D02*
X008553Y031429D01*
X008602Y031528D02*
X005808Y031528D01*
X005906Y031626D02*
X008709Y031626D01*
X009106Y031626D02*
X011386Y031626D01*
X011279Y031528D02*
X009213Y031528D01*
X009262Y031429D02*
X011230Y031429D01*
X011207Y031331D02*
X009285Y031331D01*
X009285Y031232D02*
X011207Y031232D01*
X011245Y031134D02*
X009247Y031134D01*
X009176Y031035D02*
X011316Y031035D01*
X011853Y031035D02*
X012936Y031035D01*
X012865Y031134D02*
X011924Y031134D01*
X011962Y031232D02*
X012828Y031232D01*
X012828Y031331D02*
X011962Y031331D01*
X011939Y031429D02*
X012850Y031429D01*
X012899Y031528D02*
X011890Y031528D01*
X011783Y031626D02*
X013006Y031626D01*
X013403Y031626D02*
X015684Y031626D01*
X015576Y031528D02*
X013511Y031528D01*
X013559Y031429D02*
X015527Y031429D01*
X015505Y031331D02*
X013582Y031331D01*
X013582Y031232D02*
X015505Y031232D01*
X015543Y031134D02*
X013544Y031134D01*
X013473Y031035D02*
X015613Y031035D01*
X016150Y031035D02*
X017203Y031035D01*
X017203Y031134D02*
X016221Y031134D01*
X016259Y031232D02*
X017203Y031232D01*
X017203Y031331D02*
X016259Y031331D01*
X016237Y031429D02*
X017203Y031429D01*
X017203Y031528D02*
X016188Y031528D01*
X016080Y031626D02*
X017299Y031626D01*
X017398Y031725D02*
X006005Y031725D01*
X005693Y030838D02*
X006735Y030838D01*
X006698Y030740D02*
X005693Y030740D01*
X005693Y030641D02*
X006703Y030641D01*
X006754Y030543D02*
X005693Y030543D01*
X007132Y030543D02*
X017590Y030543D01*
X017492Y030641D02*
X007184Y030641D01*
X006612Y029262D02*
X005693Y029262D01*
X005693Y029164D02*
X006455Y029164D01*
X006356Y029065D02*
X005693Y029065D01*
X005693Y028967D02*
X006267Y028967D01*
X006226Y028868D02*
X005693Y028868D01*
X005693Y028770D02*
X006185Y028770D01*
X006144Y028671D02*
X005693Y028671D01*
X005693Y028573D02*
X006143Y028573D01*
X006143Y028474D02*
X005693Y028474D01*
X005693Y028376D02*
X006143Y028376D01*
X006166Y028277D02*
X005693Y028277D01*
X005693Y028179D02*
X006206Y028179D01*
X006247Y028080D02*
X005693Y028080D01*
X005693Y027982D02*
X006310Y027982D01*
X006408Y027883D02*
X005693Y027883D01*
X005693Y027785D02*
X006507Y027785D01*
X019593Y022564D02*
X025513Y022564D01*
X025513Y022466D02*
X019593Y022466D01*
X019593Y022367D02*
X025513Y022367D01*
X025513Y022269D02*
X019593Y022269D01*
X019593Y022170D02*
X025513Y022170D01*
X025513Y022072D02*
X019593Y022072D01*
X019593Y021973D02*
X025513Y021973D01*
X025513Y021875D02*
X019593Y021875D01*
X019593Y021776D02*
X025513Y021776D01*
X025513Y021678D02*
X019593Y021678D01*
X019593Y021579D02*
X025513Y021579D01*
X025513Y021481D02*
X019593Y021481D01*
X019593Y021382D02*
X025513Y021382D01*
X025513Y021284D02*
X019593Y021284D01*
X019593Y021185D02*
X025513Y021185D01*
X025513Y021087D02*
X019593Y021087D01*
X019593Y020988D02*
X025513Y020988D01*
X025513Y020890D02*
X019593Y020890D01*
X019593Y020791D02*
X025513Y020791D01*
X025513Y020693D02*
X019593Y020693D01*
X019593Y020594D02*
X025513Y020594D01*
X025513Y020496D02*
X019593Y020496D01*
X019593Y020397D02*
X025513Y020397D01*
X027573Y018033D02*
X028230Y018033D01*
X028163Y017935D02*
X027573Y017935D01*
X027573Y017836D02*
X028139Y017836D01*
X028040Y017738D02*
X027573Y017738D01*
X027573Y017639D02*
X027942Y017639D01*
X027923Y017541D02*
X027573Y017541D01*
X027573Y017442D02*
X027923Y017442D01*
X027923Y017344D02*
X027573Y017344D01*
X027573Y017245D02*
X027923Y017245D01*
X027923Y017147D02*
X027573Y017147D01*
X027573Y017048D02*
X027923Y017048D01*
X027923Y016950D02*
X027573Y016950D01*
X027573Y016851D02*
X027923Y016851D01*
X027923Y016753D02*
X027573Y016753D01*
X027573Y016654D02*
X027923Y016654D01*
X027923Y016556D02*
X027573Y016556D01*
X027573Y016457D02*
X027923Y016457D01*
X027923Y016359D02*
X027573Y016359D01*
X027573Y016260D02*
X027923Y016260D01*
X027923Y016162D02*
X027573Y016162D01*
X027573Y016063D02*
X027923Y016063D01*
X027923Y015965D02*
X027573Y015965D01*
X027573Y015866D02*
X027923Y015866D01*
X027923Y015768D02*
X027573Y015768D01*
X027573Y015669D02*
X027923Y015669D01*
X027923Y015571D02*
X027573Y015571D01*
X027573Y015472D02*
X027923Y015472D01*
X027923Y015374D02*
X027573Y015374D01*
X027573Y015275D02*
X027923Y015275D01*
X027923Y015177D02*
X027573Y015177D01*
X027573Y015078D02*
X027923Y015078D01*
X027923Y014980D02*
X027573Y014980D01*
X027573Y014881D02*
X027923Y014881D01*
X027923Y014783D02*
X027573Y014783D01*
X027573Y014684D02*
X027923Y014684D01*
X027923Y014586D02*
X027573Y014586D01*
X027573Y014487D02*
X027923Y014487D01*
X027923Y014389D02*
X027573Y014389D01*
X027573Y014290D02*
X027923Y014290D01*
X027923Y014192D02*
X027573Y014192D01*
X027573Y014093D02*
X027923Y014093D01*
X027923Y013995D02*
X027573Y013995D01*
X027573Y013896D02*
X027923Y013896D01*
X027923Y013798D02*
X027573Y013798D01*
X027573Y013699D02*
X027923Y013699D01*
X027923Y013601D02*
X027573Y013601D01*
X027573Y013502D02*
X027923Y013502D01*
X027923Y013404D02*
X027573Y013404D01*
X027573Y013305D02*
X027923Y013305D01*
X027923Y013207D02*
X027573Y013207D01*
X027573Y013108D02*
X027923Y013108D01*
X027923Y013010D02*
X027573Y013010D01*
X027573Y012911D02*
X027923Y012911D01*
X027923Y012813D02*
X027573Y012813D01*
X027573Y012714D02*
X027923Y012714D01*
X027923Y012616D02*
X027573Y012616D01*
X027573Y012517D02*
X027923Y012517D01*
X027923Y012419D02*
X027573Y012419D01*
X027573Y012320D02*
X027923Y012320D01*
X027923Y012222D02*
X027573Y012222D01*
X027573Y012123D02*
X027923Y012123D01*
X027923Y012025D02*
X027573Y012025D01*
X027573Y011926D02*
X027923Y011926D01*
X027923Y011828D02*
X027573Y011828D01*
X027573Y011729D02*
X027923Y011729D01*
X027923Y011631D02*
X027573Y011631D01*
X027573Y011532D02*
X027923Y011532D01*
X027883Y011434D02*
X027573Y011434D01*
X027569Y011335D02*
X027848Y011335D01*
X027854Y011237D02*
X027526Y011237D01*
X027393Y011138D02*
X027909Y011138D01*
X028278Y011138D02*
X030133Y011138D01*
X030133Y011237D02*
X028332Y011237D01*
X028338Y011335D02*
X030133Y011335D01*
X030133Y011434D02*
X028303Y011434D01*
X028263Y011532D02*
X030133Y011532D01*
X030133Y011631D02*
X028263Y011631D01*
X028263Y011729D02*
X030133Y011729D01*
X030133Y011828D02*
X028263Y011828D01*
X028263Y011926D02*
X030133Y011926D01*
X030133Y012025D02*
X028263Y012025D01*
X028263Y012123D02*
X030133Y012123D01*
X030133Y012222D02*
X028263Y012222D01*
X028263Y012320D02*
X030133Y012320D01*
X030133Y012419D02*
X028263Y012419D01*
X028263Y012517D02*
X030133Y012517D01*
X030133Y012616D02*
X028263Y012616D01*
X028263Y012714D02*
X030133Y012714D01*
X030133Y012813D02*
X028263Y012813D01*
X028263Y012911D02*
X030133Y012911D01*
X030133Y013010D02*
X028263Y013010D01*
X028263Y013108D02*
X030133Y013108D01*
X030133Y013207D02*
X028263Y013207D01*
X028263Y013305D02*
X030133Y013305D01*
X030133Y013404D02*
X028263Y013404D01*
X028263Y013502D02*
X030133Y013502D01*
X030133Y013601D02*
X028263Y013601D01*
X028263Y013699D02*
X030133Y013699D01*
X030133Y013798D02*
X028263Y013798D01*
X028263Y013896D02*
X030133Y013896D01*
X030133Y013995D02*
X028263Y013995D01*
X028263Y014093D02*
X030133Y014093D01*
X030133Y014192D02*
X028263Y014192D01*
X028263Y014290D02*
X030133Y014290D01*
X030133Y014389D02*
X028263Y014389D01*
X028263Y014487D02*
X030133Y014487D01*
X030133Y014586D02*
X028263Y014586D01*
X028263Y014684D02*
X030133Y014684D01*
X030133Y014783D02*
X028263Y014783D01*
X028263Y014881D02*
X030133Y014881D01*
X030133Y014980D02*
X028263Y014980D01*
X028263Y015078D02*
X030133Y015078D01*
X030133Y015177D02*
X028263Y015177D01*
X028263Y015275D02*
X030133Y015275D01*
X030293Y015078D02*
X031631Y015078D01*
X031598Y014980D02*
X030293Y014980D01*
X030293Y014881D02*
X031607Y014881D01*
X031664Y014783D02*
X030293Y014783D01*
X030293Y012320D02*
X031078Y012320D01*
X031048Y012222D02*
X030293Y012222D01*
X030293Y012123D02*
X031060Y012123D01*
X031122Y012025D02*
X030293Y012025D01*
X030293Y010350D02*
X035647Y010350D01*
X035599Y010252D02*
X030293Y010252D01*
X030293Y010153D02*
X035598Y010153D01*
X035642Y010055D02*
X034685Y010055D01*
X034701Y010039D02*
X034632Y010108D01*
X034542Y010145D01*
X034445Y010145D01*
X034355Y010108D01*
X034286Y010039D01*
X034248Y009949D01*
X034248Y009851D01*
X034286Y009761D01*
X034355Y009692D01*
X034445Y009655D01*
X034542Y009655D01*
X034632Y009692D01*
X034701Y009761D01*
X034738Y009851D01*
X034738Y009949D01*
X034701Y010039D01*
X034735Y009956D02*
X035103Y009956D01*
X035052Y009858D02*
X034738Y009858D01*
X034699Y009759D02*
X035048Y009759D01*
X035086Y009661D02*
X034555Y009661D01*
X034431Y009661D02*
X030293Y009661D01*
X030293Y009759D02*
X034288Y009759D01*
X034248Y009858D02*
X030293Y009858D01*
X030293Y009956D02*
X034251Y009956D01*
X034301Y010055D02*
X030293Y010055D01*
X029322Y010350D02*
X008573Y010350D01*
X008573Y010252D02*
X029263Y010252D01*
X029868Y007297D02*
X005693Y007297D01*
X005693Y007198D02*
X029803Y007198D01*
X029803Y007100D02*
X015931Y007100D01*
X015868Y007126D02*
X016006Y007069D01*
X016112Y006963D01*
X016169Y006825D01*
X016169Y006675D01*
X016112Y006537D01*
X016006Y006431D01*
X015868Y006374D01*
X015719Y006374D01*
X015580Y006431D01*
X015475Y006537D01*
X015418Y006675D01*
X015418Y006825D01*
X015475Y006963D01*
X015580Y007069D01*
X015719Y007126D01*
X015868Y007126D01*
X015655Y007100D02*
X005693Y007100D01*
X005693Y007001D02*
X015513Y007001D01*
X015450Y006903D02*
X005693Y006903D01*
X005693Y006804D02*
X015418Y006804D01*
X015418Y006706D02*
X005693Y006706D01*
X005693Y006607D02*
X015446Y006607D01*
X015503Y006509D02*
X005693Y006509D01*
X005693Y006410D02*
X015632Y006410D01*
X015954Y006410D02*
X020025Y006410D01*
X019951Y006336D02*
X019951Y005804D01*
X020327Y005428D01*
X020859Y005428D01*
X021236Y005804D01*
X021236Y006336D01*
X020859Y006712D01*
X020327Y006712D01*
X019951Y006336D01*
X019951Y006312D02*
X005693Y006312D01*
X005693Y006213D02*
X019951Y006213D01*
X019951Y006115D02*
X005693Y006115D01*
X005693Y006016D02*
X019951Y006016D01*
X019951Y005918D02*
X005693Y005918D01*
X005693Y005819D02*
X019951Y005819D01*
X020034Y005721D02*
X005693Y005721D01*
X005693Y005622D02*
X020133Y005622D01*
X020231Y005524D02*
X005693Y005524D01*
X005693Y005425D02*
X024029Y005425D01*
X024128Y005327D02*
X005693Y005327D01*
X005693Y005228D02*
X024226Y005228D01*
X024325Y005130D02*
X005693Y005130D01*
X005693Y005031D02*
X024423Y005031D01*
X024522Y004933D02*
X005693Y004933D01*
X005693Y004834D02*
X024620Y004834D01*
X024719Y004736D02*
X005693Y004736D01*
X005693Y004637D02*
X024817Y004637D01*
X024916Y004539D02*
X005693Y004539D01*
X005693Y004440D02*
X025014Y004440D01*
X025113Y004342D02*
X005693Y004342D01*
X005693Y004243D02*
X025211Y004243D01*
X025310Y004145D02*
X005693Y004145D01*
X005693Y004046D02*
X025408Y004046D01*
X025737Y004736D02*
X036353Y004736D01*
X036353Y004668D02*
X036611Y004410D01*
X036976Y004410D01*
X037233Y004668D01*
X037233Y005032D01*
X036976Y005290D01*
X036611Y005290D01*
X036353Y005032D01*
X036353Y004668D01*
X036384Y004637D02*
X035065Y004637D01*
X035164Y004539D02*
X036483Y004539D01*
X036581Y004440D02*
X035262Y004440D01*
X035361Y004342D02*
X037433Y004342D01*
X037433Y004440D02*
X037006Y004440D01*
X037104Y004539D02*
X037433Y004539D01*
X037384Y004637D02*
X037203Y004637D01*
X037233Y004736D02*
X037353Y004736D01*
X037353Y004834D02*
X037233Y004834D01*
X037233Y004933D02*
X037353Y004933D01*
X037353Y005031D02*
X037233Y005031D01*
X037136Y005130D02*
X037451Y005130D01*
X037549Y005228D02*
X037038Y005228D01*
X036549Y005228D02*
X025244Y005228D01*
X025146Y005327D02*
X042633Y005327D01*
X042633Y005425D02*
X039991Y005425D01*
X039976Y005410D02*
X040233Y005668D01*
X040233Y006032D01*
X039976Y006290D01*
X039611Y006290D01*
X039353Y006032D01*
X039353Y005668D01*
X039611Y005410D01*
X039976Y005410D01*
X039976Y005290D02*
X039611Y005290D01*
X039353Y005032D01*
X039353Y004668D01*
X039611Y004410D01*
X039976Y004410D01*
X040233Y004668D01*
X040233Y005032D01*
X039976Y005290D01*
X040038Y005228D02*
X042633Y005228D01*
X042633Y005130D02*
X040136Y005130D01*
X040233Y005031D02*
X042633Y005031D01*
X042633Y004933D02*
X040233Y004933D01*
X040233Y004834D02*
X042633Y004834D01*
X042633Y004736D02*
X040233Y004736D01*
X040203Y004637D02*
X042633Y004637D01*
X042623Y004539D02*
X040104Y004539D01*
X040006Y004440D02*
X042524Y004440D01*
X042426Y004342D02*
X038153Y004342D01*
X038153Y004440D02*
X038581Y004440D01*
X038611Y004410D02*
X038976Y004410D01*
X039233Y004668D01*
X039233Y005032D01*
X038976Y005290D01*
X038611Y005290D01*
X038353Y005032D01*
X038353Y004668D01*
X038611Y004410D01*
X038483Y004539D02*
X038153Y004539D01*
X038203Y004637D02*
X038384Y004637D01*
X038353Y004736D02*
X038233Y004736D01*
X038233Y004834D02*
X038353Y004834D01*
X038353Y004933D02*
X038233Y004933D01*
X038233Y005031D02*
X038353Y005031D01*
X038451Y005130D02*
X038136Y005130D01*
X038038Y005228D02*
X038549Y005228D01*
X038611Y005410D02*
X038976Y005410D01*
X039233Y005668D01*
X039233Y006032D01*
X038976Y006290D01*
X038611Y006290D01*
X038353Y006032D01*
X038353Y005668D01*
X038611Y005410D01*
X038596Y005425D02*
X035991Y005425D01*
X035976Y005410D02*
X036233Y005668D01*
X036233Y006032D01*
X035976Y006290D01*
X035611Y006290D01*
X035353Y006032D01*
X035353Y005668D01*
X035611Y005410D01*
X035976Y005410D01*
X036089Y005524D02*
X038498Y005524D01*
X038399Y005622D02*
X036188Y005622D01*
X036233Y005721D02*
X038353Y005721D01*
X038353Y005819D02*
X036233Y005819D01*
X036233Y005918D02*
X038353Y005918D01*
X038353Y006016D02*
X036233Y006016D01*
X036151Y006115D02*
X038436Y006115D01*
X038534Y006213D02*
X036053Y006213D01*
X035534Y006213D02*
X024536Y006213D01*
X024536Y006115D02*
X035436Y006115D01*
X035353Y006016D02*
X024536Y006016D01*
X024555Y005918D02*
X035353Y005918D01*
X035353Y005819D02*
X024653Y005819D01*
X024752Y005721D02*
X035353Y005721D01*
X035399Y005622D02*
X024850Y005622D01*
X024949Y005524D02*
X035498Y005524D01*
X035596Y005425D02*
X025047Y005425D01*
X025343Y005130D02*
X036451Y005130D01*
X036353Y005031D02*
X025441Y005031D01*
X025540Y004933D02*
X036353Y004933D01*
X036353Y004834D02*
X025638Y004834D01*
X024460Y003751D02*
X034934Y003751D01*
X034835Y003849D02*
X024362Y003849D01*
X024341Y003870D02*
X024050Y003990D01*
X023736Y003990D01*
X023446Y003870D01*
X023224Y003647D01*
X023103Y003357D01*
X023103Y003043D01*
X023224Y002753D01*
X023446Y002530D01*
X023736Y002410D01*
X024050Y002410D01*
X024341Y002530D01*
X024563Y002753D01*
X024683Y003043D01*
X024683Y003357D01*
X024563Y003647D01*
X024341Y003870D01*
X024153Y003948D02*
X034737Y003948D01*
X035032Y003652D02*
X024559Y003652D01*
X024602Y003554D02*
X035131Y003554D01*
X035229Y003455D02*
X024643Y003455D01*
X024683Y003357D02*
X035328Y003357D01*
X035426Y003258D02*
X024683Y003258D01*
X024683Y003160D02*
X035575Y003160D01*
X035755Y003948D02*
X037433Y003948D01*
X037433Y004046D02*
X035656Y004046D01*
X035558Y004145D02*
X037433Y004145D01*
X037433Y004243D02*
X035459Y004243D01*
X038153Y004243D02*
X042327Y004243D01*
X042229Y004145D02*
X038153Y004145D01*
X038153Y004046D02*
X042130Y004046D01*
X042032Y003948D02*
X038153Y003948D01*
X039006Y004440D02*
X039581Y004440D01*
X039483Y004539D02*
X039104Y004539D01*
X039203Y004637D02*
X039384Y004637D01*
X039353Y004736D02*
X039233Y004736D01*
X039233Y004834D02*
X039353Y004834D01*
X039353Y004933D02*
X039233Y004933D01*
X039233Y005031D02*
X039353Y005031D01*
X039451Y005130D02*
X039136Y005130D01*
X039038Y005228D02*
X039549Y005228D01*
X039596Y005425D02*
X038991Y005425D01*
X039089Y005524D02*
X039498Y005524D01*
X039399Y005622D02*
X039188Y005622D01*
X039233Y005721D02*
X039353Y005721D01*
X039353Y005819D02*
X039233Y005819D01*
X039233Y005918D02*
X039353Y005918D01*
X039353Y006016D02*
X039233Y006016D01*
X039151Y006115D02*
X039436Y006115D01*
X039534Y006213D02*
X039053Y006213D01*
X040053Y006213D02*
X043097Y006213D01*
X042999Y006115D02*
X040151Y006115D01*
X040233Y006016D02*
X042900Y006016D01*
X042802Y005918D02*
X040233Y005918D01*
X040233Y005819D02*
X042703Y005819D01*
X042654Y005721D02*
X040233Y005721D01*
X040188Y005622D02*
X042633Y005622D01*
X042633Y005524D02*
X040089Y005524D01*
X043196Y006312D02*
X024536Y006312D01*
X024462Y006410D02*
X043294Y006410D01*
X043393Y006509D02*
X024363Y006509D01*
X024265Y006607D02*
X043491Y006607D01*
X044017Y006115D02*
X051083Y006115D01*
X051083Y006213D02*
X044115Y006213D01*
X044214Y006312D02*
X051083Y006312D01*
X051083Y006410D02*
X044312Y006410D01*
X044411Y006509D02*
X051083Y006509D01*
X051083Y006607D02*
X044509Y006607D01*
X044608Y006706D02*
X051083Y006706D01*
X051083Y006804D02*
X044706Y006804D01*
X044805Y006903D02*
X051083Y006903D01*
X051083Y007001D02*
X044903Y007001D01*
X045002Y007100D02*
X051083Y007100D01*
X051083Y007198D02*
X045100Y007198D01*
X045199Y007297D02*
X051083Y007297D01*
X051083Y007395D02*
X045297Y007395D01*
X045396Y007494D02*
X051083Y007494D01*
X051083Y007592D02*
X045494Y007592D01*
X045593Y007691D02*
X051083Y007691D01*
X051083Y007789D02*
X045691Y007789D01*
X045790Y007888D02*
X051083Y007888D01*
X051083Y007986D02*
X045888Y007986D01*
X045987Y008085D02*
X051083Y008085D01*
X051083Y008183D02*
X046085Y008183D01*
X046213Y008282D02*
X051083Y008282D01*
X051083Y008380D02*
X046346Y008380D01*
X046411Y008479D02*
X051083Y008479D01*
X051083Y008577D02*
X046449Y008577D01*
X046449Y008676D02*
X051083Y008676D01*
X051083Y008774D02*
X046431Y008774D01*
X046390Y008873D02*
X051083Y008873D01*
X051083Y008971D02*
X046295Y008971D01*
X046829Y009661D02*
X036888Y009661D01*
X036873Y009759D02*
X046927Y009759D01*
X047026Y009858D02*
X036873Y009858D01*
X036873Y009956D02*
X047124Y009956D01*
X047163Y010055D02*
X036873Y010055D01*
X036873Y010153D02*
X047163Y010153D01*
X047163Y010252D02*
X036873Y010252D01*
X036873Y010350D02*
X040547Y010350D01*
X040536Y010361D02*
X040605Y010292D01*
X040695Y010255D01*
X040792Y010255D01*
X040882Y010292D01*
X040951Y010361D01*
X040988Y010451D01*
X040988Y010549D01*
X040951Y010639D01*
X040882Y010708D01*
X040792Y010745D01*
X040695Y010745D01*
X040605Y010708D01*
X040536Y010639D01*
X040498Y010549D01*
X040498Y010451D01*
X040536Y010361D01*
X040499Y010449D02*
X036873Y010449D01*
X036873Y010547D02*
X036965Y010547D01*
X037422Y010547D02*
X040498Y010547D01*
X040542Y010646D02*
X037515Y010646D01*
X037556Y010744D02*
X040692Y010744D01*
X040794Y010744D02*
X047135Y010744D01*
X047163Y010646D02*
X040944Y010646D01*
X040988Y010547D02*
X047163Y010547D01*
X047163Y010449D02*
X040987Y010449D01*
X040940Y010350D02*
X047163Y010350D01*
X047623Y010350D02*
X048293Y010350D01*
X048293Y010252D02*
X047623Y010252D01*
X047623Y010153D02*
X048293Y010153D01*
X048293Y010055D02*
X047623Y010055D01*
X047623Y009956D02*
X048293Y009956D01*
X048293Y009858D02*
X047623Y009858D01*
X047578Y009759D02*
X048293Y009759D01*
X048293Y009661D02*
X047479Y009661D01*
X047381Y009562D02*
X048293Y009562D01*
X048293Y009464D02*
X047282Y009464D01*
X047184Y009365D02*
X048293Y009365D01*
X048293Y010449D02*
X047623Y010449D01*
X047623Y010547D02*
X048293Y010547D01*
X048293Y010646D02*
X047623Y010646D01*
X047651Y010744D02*
X047803Y010744D01*
X047786Y010761D02*
X047855Y010692D01*
X047945Y010655D01*
X048042Y010655D01*
X048132Y010692D01*
X048201Y010761D01*
X048238Y010851D01*
X048238Y010949D01*
X048201Y011039D01*
X048132Y011108D01*
X048042Y011145D01*
X047945Y011145D01*
X047855Y011108D01*
X047786Y011039D01*
X047748Y010949D01*
X047748Y010851D01*
X047786Y010761D01*
X047752Y010843D02*
X047691Y010843D01*
X047691Y010941D02*
X047748Y010941D01*
X047786Y011040D02*
X047658Y011040D01*
X047577Y011138D02*
X047928Y011138D01*
X048059Y011138D02*
X048293Y011138D01*
X048293Y011040D02*
X048200Y011040D01*
X048238Y010941D02*
X048293Y010941D01*
X048293Y010843D02*
X048235Y010843D01*
X048184Y010744D02*
X048293Y010744D01*
X048293Y011237D02*
X048176Y011237D01*
X048232Y011335D02*
X048293Y011335D01*
X048293Y011434D02*
X048238Y011434D01*
X048204Y011532D02*
X048293Y011532D01*
X047783Y011532D02*
X046704Y011532D01*
X046738Y011434D02*
X047748Y011434D01*
X047755Y011335D02*
X046732Y011335D01*
X046676Y011237D02*
X047810Y011237D01*
X047818Y011729D02*
X046669Y011729D01*
X046728Y011828D02*
X047758Y011828D01*
X047748Y011926D02*
X046738Y011926D01*
X046707Y012025D02*
X047780Y012025D01*
X047892Y012123D02*
X046595Y012123D01*
X046392Y012123D02*
X046095Y012123D01*
X046161Y012222D02*
X047825Y012222D01*
X047761Y012320D02*
X046225Y012320D01*
X046238Y012419D02*
X047748Y012419D01*
X047777Y012517D02*
X046210Y012517D01*
X046113Y012616D02*
X047873Y012616D01*
X046280Y012025D02*
X046207Y012025D01*
X046238Y011926D02*
X046248Y011926D01*
X046258Y011828D02*
X046228Y011828D01*
X046169Y011729D02*
X046318Y011729D01*
X046283Y011532D02*
X046204Y011532D01*
X046238Y011434D02*
X046248Y011434D01*
X046255Y011335D02*
X046232Y011335D01*
X046176Y011237D02*
X046310Y011237D01*
X045810Y011237D02*
X036873Y011237D01*
X036873Y011335D02*
X045755Y011335D01*
X045748Y011434D02*
X036873Y011434D01*
X036873Y011532D02*
X045783Y011532D01*
X047128Y011040D02*
X037522Y011040D01*
X037562Y010941D02*
X047095Y010941D01*
X047095Y010843D02*
X037569Y010843D01*
X037437Y011138D02*
X047210Y011138D01*
X048453Y015177D02*
X051083Y015177D01*
X051083Y015275D02*
X048453Y015275D01*
X048453Y015374D02*
X051083Y015374D01*
X051083Y015472D02*
X048453Y015472D01*
X048453Y015571D02*
X051083Y015571D01*
X051083Y015669D02*
X048453Y015669D01*
X048453Y015768D02*
X051083Y015768D01*
X051083Y015866D02*
X048453Y015866D01*
X048453Y015965D02*
X051083Y015965D01*
X051083Y016063D02*
X048453Y016063D01*
X048453Y016162D02*
X051083Y016162D01*
X051083Y016260D02*
X048453Y016260D01*
X048453Y016359D02*
X051083Y016359D01*
X051083Y016457D02*
X048453Y016457D01*
X048453Y016556D02*
X051083Y016556D01*
X051083Y016654D02*
X048453Y016654D01*
X048453Y016753D02*
X051083Y016753D01*
X050988Y016851D02*
X048453Y016851D01*
X048453Y016950D02*
X050890Y016950D01*
X050791Y017048D02*
X048453Y017048D01*
X048453Y017147D02*
X050693Y017147D01*
X036950Y011138D02*
X036873Y011138D01*
X029803Y007001D02*
X016074Y007001D01*
X016137Y006903D02*
X029803Y006903D01*
X029867Y006804D02*
X016169Y006804D01*
X016169Y006706D02*
X020320Y006706D01*
X020222Y006607D02*
X016141Y006607D01*
X016083Y006509D02*
X020123Y006509D01*
X020866Y006706D02*
X023620Y006706D01*
X023522Y006607D02*
X020965Y006607D01*
X021063Y006509D02*
X023423Y006509D01*
X023325Y006410D02*
X021162Y006410D01*
X021236Y006312D02*
X023251Y006312D01*
X023251Y006213D02*
X021236Y006213D01*
X021236Y006115D02*
X023251Y006115D01*
X023251Y006016D02*
X021236Y006016D01*
X021236Y005918D02*
X023251Y005918D01*
X023251Y005819D02*
X021236Y005819D01*
X021152Y005721D02*
X023334Y005721D01*
X023433Y005622D02*
X021054Y005622D01*
X020955Y005524D02*
X023531Y005524D01*
X024166Y006706D02*
X029966Y006706D01*
X024683Y003061D02*
X043583Y003061D01*
X043583Y002963D02*
X024650Y002963D01*
X024609Y002864D02*
X043583Y002864D01*
X043583Y002766D02*
X024568Y002766D01*
X024478Y002667D02*
X043583Y002667D01*
X043583Y002569D02*
X024379Y002569D01*
X024195Y002470D02*
X043583Y002470D01*
X043583Y002372D02*
X007759Y002372D01*
X007719Y002470D02*
X020291Y002470D01*
X020146Y002530D02*
X020436Y002410D01*
X020750Y002410D01*
X021041Y002530D01*
X021263Y002753D01*
X021383Y003043D01*
X021383Y003357D01*
X021263Y003647D01*
X021041Y003870D01*
X020750Y003990D01*
X020436Y003990D01*
X020146Y003870D01*
X019924Y003647D01*
X019803Y003357D01*
X019803Y003043D01*
X019924Y002753D01*
X020146Y002530D01*
X020108Y002569D02*
X007627Y002569D01*
X007714Y002481D02*
X007475Y002721D01*
X007162Y002850D01*
X006824Y002850D01*
X006512Y002721D01*
X006273Y002481D01*
X006143Y002169D01*
X006143Y001831D01*
X006273Y001519D01*
X006512Y001279D01*
X006824Y001150D01*
X007162Y001150D01*
X007475Y001279D01*
X007714Y001519D01*
X007843Y001831D01*
X007843Y002169D01*
X007714Y002481D01*
X007800Y002273D02*
X043583Y002273D01*
X043583Y002175D02*
X007841Y002175D01*
X007843Y002076D02*
X043583Y002076D01*
X043583Y002059D02*
X043583Y004738D01*
X043533Y004859D01*
X043533Y005141D01*
X043641Y005402D01*
X043841Y005602D01*
X044102Y005710D01*
X044385Y005710D01*
X044645Y005602D01*
X044895Y005352D01*
X045003Y005091D01*
X045003Y002059D01*
X044895Y001798D01*
X044695Y001598D01*
X044435Y001490D01*
X044152Y001490D01*
X043891Y001598D01*
X043691Y001798D01*
X043583Y002059D01*
X043617Y001978D02*
X007843Y001978D01*
X007843Y001879D02*
X043658Y001879D01*
X043709Y001781D02*
X007822Y001781D01*
X007782Y001682D02*
X043807Y001682D01*
X043926Y001584D02*
X007741Y001584D01*
X007680Y001485D02*
X047556Y001485D01*
X047496Y001584D02*
X044660Y001584D01*
X044779Y001682D02*
X047455Y001682D01*
X047414Y001781D02*
X044878Y001781D01*
X044929Y001879D02*
X047393Y001879D01*
X047393Y001978D02*
X044970Y001978D01*
X045003Y002076D02*
X047393Y002076D01*
X047396Y002175D02*
X045003Y002175D01*
X045003Y002273D02*
X047436Y002273D01*
X047477Y002372D02*
X045003Y002372D01*
X045003Y002470D02*
X047518Y002470D01*
X047610Y002569D02*
X045003Y002569D01*
X045003Y002667D02*
X047708Y002667D01*
X047870Y002766D02*
X045003Y002766D01*
X045003Y002864D02*
X051083Y002864D01*
X051083Y002766D02*
X048616Y002766D01*
X048778Y002667D02*
X051083Y002667D01*
X051083Y002569D02*
X048877Y002569D01*
X048969Y002470D02*
X051083Y002470D01*
X051083Y002372D02*
X049009Y002372D01*
X049050Y002273D02*
X051083Y002273D01*
X051083Y002175D02*
X049091Y002175D01*
X049093Y002076D02*
X051083Y002076D01*
X051117Y001978D02*
X049093Y001978D01*
X049093Y001879D02*
X051158Y001879D01*
X051209Y001781D02*
X049072Y001781D01*
X049032Y001682D02*
X051307Y001682D01*
X051426Y001584D02*
X048991Y001584D01*
X047979Y001190D02*
X007258Y001190D01*
X007483Y001288D02*
X047753Y001288D01*
X047655Y001387D02*
X007582Y001387D01*
X006729Y001190D02*
X005693Y001190D01*
X005693Y001288D02*
X006503Y001288D01*
X006405Y001387D02*
X005693Y001387D01*
X005693Y001485D02*
X006306Y001485D01*
X006246Y001584D02*
X005693Y001584D01*
X005693Y001682D02*
X006205Y001682D01*
X006164Y001781D02*
X005693Y001781D01*
X005693Y001879D02*
X006143Y001879D01*
X006143Y001978D02*
X005693Y001978D01*
X005693Y002076D02*
X006143Y002076D01*
X006146Y002175D02*
X005693Y002175D01*
X005693Y002273D02*
X006186Y002273D01*
X006227Y002372D02*
X005693Y002372D01*
X005693Y002470D02*
X006268Y002470D01*
X006360Y002569D02*
X005693Y002569D01*
X005693Y002667D02*
X006458Y002667D01*
X006620Y002766D02*
X005693Y002766D01*
X005693Y002864D02*
X015548Y002864D01*
X015580Y002831D02*
X015719Y002774D01*
X015868Y002774D01*
X016006Y002831D01*
X016112Y002937D01*
X016169Y003075D01*
X016169Y003225D01*
X016112Y003363D01*
X016006Y003469D01*
X015868Y003526D01*
X015719Y003526D01*
X015580Y003469D01*
X015475Y003363D01*
X015418Y003225D01*
X015418Y003075D01*
X015475Y002937D01*
X015580Y002831D01*
X015464Y002963D02*
X005693Y002963D01*
X005693Y003061D02*
X015423Y003061D01*
X015418Y003160D02*
X005693Y003160D01*
X005693Y003258D02*
X015431Y003258D01*
X015472Y003357D02*
X005693Y003357D01*
X005693Y003455D02*
X015567Y003455D01*
X016020Y003455D02*
X019844Y003455D01*
X019885Y003554D02*
X005693Y003554D01*
X005693Y003652D02*
X019928Y003652D01*
X020027Y003751D02*
X005693Y003751D01*
X005693Y003849D02*
X020125Y003849D01*
X020334Y003948D02*
X005693Y003948D01*
X007366Y002766D02*
X019918Y002766D01*
X019877Y002864D02*
X016039Y002864D01*
X016122Y002963D02*
X019837Y002963D01*
X019803Y003061D02*
X016163Y003061D01*
X016169Y003160D02*
X019803Y003160D01*
X019803Y003258D02*
X016155Y003258D01*
X016114Y003357D02*
X019803Y003357D01*
X020009Y002667D02*
X007528Y002667D01*
X005784Y000993D02*
X054416Y000993D01*
X054317Y000894D02*
X005882Y000894D01*
X005981Y000796D02*
X054219Y000796D01*
X051083Y002963D02*
X045003Y002963D01*
X045003Y003061D02*
X051083Y003061D01*
X051083Y003160D02*
X045003Y003160D01*
X045003Y003258D02*
X051083Y003258D01*
X051083Y003357D02*
X045003Y003357D01*
X045003Y003455D02*
X051083Y003455D01*
X051083Y003554D02*
X045003Y003554D01*
X045003Y003652D02*
X051083Y003652D01*
X051083Y003751D02*
X045003Y003751D01*
X045003Y003849D02*
X051083Y003849D01*
X051083Y003948D02*
X045003Y003948D01*
X045003Y004046D02*
X051083Y004046D01*
X051083Y004145D02*
X045003Y004145D01*
X045003Y004243D02*
X051083Y004243D01*
X051083Y004342D02*
X045003Y004342D01*
X045003Y004440D02*
X051083Y004440D01*
X051083Y004539D02*
X045003Y004539D01*
X045003Y004637D02*
X051083Y004637D01*
X051083Y004736D02*
X045003Y004736D01*
X045003Y004834D02*
X051083Y004834D01*
X051083Y004933D02*
X045003Y004933D01*
X045003Y005031D02*
X051083Y005031D01*
X051083Y005130D02*
X044987Y005130D01*
X044947Y005228D02*
X051083Y005228D01*
X051083Y005327D02*
X044906Y005327D01*
X044822Y005425D02*
X051083Y005425D01*
X051083Y005524D02*
X044724Y005524D01*
X044597Y005622D02*
X051083Y005622D01*
X051083Y005721D02*
X043623Y005721D01*
X043721Y005819D02*
X051083Y005819D01*
X051083Y005918D02*
X043820Y005918D01*
X043918Y006016D02*
X051083Y006016D01*
X043890Y005622D02*
X043524Y005622D01*
X043426Y005524D02*
X043763Y005524D01*
X043664Y005425D02*
X043353Y005425D01*
X043353Y005327D02*
X043610Y005327D01*
X043569Y005228D02*
X043353Y005228D01*
X043353Y005130D02*
X043533Y005130D01*
X043533Y005031D02*
X043353Y005031D01*
X043353Y004933D02*
X043533Y004933D01*
X043544Y004834D02*
X043353Y004834D01*
X043353Y004736D02*
X043583Y004736D01*
X043583Y004637D02*
X043353Y004637D01*
X043353Y004539D02*
X043583Y004539D01*
X043583Y004440D02*
X043353Y004440D01*
X043353Y004342D02*
X043583Y004342D01*
X043583Y004243D02*
X043318Y004243D01*
X043247Y004145D02*
X043583Y004145D01*
X043583Y004046D02*
X043148Y004046D01*
X043050Y003948D02*
X043583Y003948D01*
X043583Y003849D02*
X042951Y003849D01*
X042853Y003751D02*
X043583Y003751D01*
X043583Y003652D02*
X042754Y003652D01*
X042656Y003554D02*
X043583Y003554D01*
X043583Y003455D02*
X042557Y003455D01*
X042459Y003357D02*
X043583Y003357D01*
X043583Y003258D02*
X042360Y003258D01*
X042212Y003160D02*
X043583Y003160D01*
X023634Y003948D02*
X020853Y003948D01*
X021062Y003849D02*
X023425Y003849D01*
X023327Y003751D02*
X021160Y003751D01*
X021259Y003652D02*
X023228Y003652D01*
X023185Y003554D02*
X021302Y003554D01*
X021343Y003455D02*
X023144Y003455D01*
X023103Y003357D02*
X021383Y003357D01*
X021383Y003258D02*
X023103Y003258D01*
X023103Y003160D02*
X021383Y003160D01*
X021383Y003061D02*
X023103Y003061D01*
X023137Y002963D02*
X021350Y002963D01*
X021309Y002864D02*
X023177Y002864D01*
X023218Y002766D02*
X021268Y002766D01*
X021178Y002667D02*
X023309Y002667D01*
X023408Y002569D02*
X021079Y002569D01*
X020895Y002470D02*
X023591Y002470D01*
X017389Y008873D02*
X008573Y008873D01*
X008573Y008971D02*
X017311Y008971D01*
X017270Y009070D02*
X008573Y009070D01*
X008573Y009168D02*
X017268Y009168D01*
X017285Y009267D02*
X008573Y009267D01*
X008573Y009365D02*
X017327Y009365D01*
X028263Y016950D02*
X028897Y016950D01*
X028850Y017048D02*
X028263Y017048D01*
X028263Y017147D02*
X028848Y017147D01*
X028892Y017245D02*
X028263Y017245D01*
X028263Y017344D02*
X028453Y017344D01*
X028373Y017442D02*
X028263Y017442D01*
X028324Y017541D02*
X028348Y017541D01*
D26*
X023893Y006070D02*
X025613Y004350D01*
X034843Y004350D01*
X035693Y003500D01*
X037793Y003500D01*
X037793Y004850D01*
X037793Y003500D02*
X042093Y003500D01*
X042993Y004400D01*
X042993Y005600D01*
X046043Y008650D01*
D27*
X046043Y008650D03*
D28*
X044243Y005000D02*
X044293Y004950D01*
X044293Y002200D01*
X051793Y002200D02*
X051793Y008420D01*
X051793Y017050D01*
X050893Y017950D01*
X044543Y017950D01*
D29*
X044543Y017950D03*
D30*
X027293Y017935D02*
X027101Y017935D01*
X027101Y017777D02*
X027293Y017777D01*
X027293Y017618D02*
X026951Y017618D01*
X026833Y017500D02*
X027101Y017768D01*
X027101Y018232D01*
X026833Y018500D01*
X027101Y018768D01*
X027101Y019232D01*
X026773Y019560D01*
X026309Y019560D01*
X025981Y019232D01*
X025981Y018768D01*
X026249Y018500D01*
X025981Y018232D01*
X025981Y017768D01*
X026249Y017500D01*
X025981Y017232D01*
X025981Y016768D01*
X026249Y016500D01*
X025981Y016232D01*
X025981Y015768D01*
X026249Y015500D01*
X025981Y015232D01*
X025981Y014768D01*
X026249Y014500D01*
X025981Y014232D01*
X025981Y013768D01*
X026249Y013500D01*
X025981Y013232D01*
X025981Y012768D01*
X026249Y012500D01*
X025981Y012232D01*
X025981Y011768D01*
X026309Y011440D01*
X026773Y011440D01*
X027101Y011768D01*
X027101Y012232D01*
X026833Y012500D01*
X027101Y012768D01*
X027101Y013232D01*
X026833Y013500D01*
X027101Y013768D01*
X027101Y014232D01*
X026833Y014500D01*
X027101Y014768D01*
X027101Y015232D01*
X026833Y015500D01*
X027101Y015768D01*
X027101Y016232D01*
X026833Y016500D01*
X027101Y016768D01*
X027101Y017232D01*
X026833Y017500D01*
X026873Y017460D02*
X027293Y017460D01*
X027293Y017301D02*
X027031Y017301D01*
X027101Y017143D02*
X027293Y017143D01*
X027293Y016984D02*
X027101Y016984D01*
X027101Y016826D02*
X027293Y016826D01*
X027293Y016667D02*
X027000Y016667D01*
X026841Y016509D02*
X027293Y016509D01*
X027293Y016350D02*
X026982Y016350D01*
X027101Y016192D02*
X027293Y016192D01*
X027293Y016033D02*
X027101Y016033D01*
X027101Y015875D02*
X027293Y015875D01*
X027293Y015716D02*
X027049Y015716D01*
X026890Y015558D02*
X027293Y015558D01*
X027293Y015399D02*
X026933Y015399D01*
X027092Y015241D02*
X027293Y015241D01*
X027293Y015082D02*
X027101Y015082D01*
X027101Y014924D02*
X027293Y014924D01*
X027293Y014765D02*
X027098Y014765D01*
X026939Y014607D02*
X027293Y014607D01*
X027293Y014448D02*
X026884Y014448D01*
X027043Y014290D02*
X027293Y014290D01*
X027293Y014131D02*
X027101Y014131D01*
X027101Y013973D02*
X027293Y013973D01*
X027293Y013814D02*
X027101Y013814D01*
X026988Y013656D02*
X027293Y013656D01*
X027293Y013497D02*
X026835Y013497D01*
X026994Y013339D02*
X027293Y013339D01*
X027293Y013180D02*
X027101Y013180D01*
X027101Y013022D02*
X027293Y013022D01*
X027293Y012863D02*
X027101Y012863D01*
X027037Y012705D02*
X027293Y012705D01*
X027293Y012546D02*
X026879Y012546D01*
X026945Y012388D02*
X027293Y012388D01*
X027293Y012229D02*
X027101Y012229D01*
X027101Y012071D02*
X027293Y012071D01*
X027293Y011912D02*
X027101Y011912D01*
X027086Y011754D02*
X027293Y011754D01*
X027293Y011595D02*
X026928Y011595D01*
X027293Y011437D02*
X025793Y011437D01*
X025793Y011400D02*
X025793Y026450D01*
X026199Y026450D01*
X025981Y026232D01*
X025981Y025768D01*
X026249Y025500D01*
X025981Y025232D01*
X025981Y024768D01*
X026249Y024500D01*
X025981Y024232D01*
X025981Y023768D01*
X026249Y023500D01*
X025981Y023232D01*
X025981Y022768D01*
X026249Y022500D01*
X025981Y022232D01*
X025981Y021768D01*
X026249Y021500D01*
X025981Y021232D01*
X025981Y020768D01*
X026309Y020440D01*
X026773Y020440D01*
X027101Y020768D01*
X027101Y021232D01*
X026833Y021500D01*
X027101Y021768D01*
X027101Y022232D01*
X026833Y022500D01*
X027101Y022768D01*
X027101Y023232D01*
X026833Y023500D01*
X027101Y023768D01*
X027101Y024232D01*
X026833Y024500D01*
X027101Y024768D01*
X027101Y025232D01*
X026833Y025500D01*
X027101Y025768D01*
X027101Y026232D01*
X026883Y026450D01*
X027293Y026450D01*
X027293Y011400D01*
X025793Y011400D01*
X025793Y011595D02*
X026154Y011595D01*
X025995Y011754D02*
X025793Y011754D01*
X025793Y011912D02*
X025981Y011912D01*
X025981Y012071D02*
X025793Y012071D01*
X025793Y012229D02*
X025981Y012229D01*
X026136Y012388D02*
X025793Y012388D01*
X025793Y012546D02*
X026203Y012546D01*
X026044Y012705D02*
X025793Y012705D01*
X025793Y012863D02*
X025981Y012863D01*
X025981Y013022D02*
X025793Y013022D01*
X025793Y013180D02*
X025981Y013180D01*
X026087Y013339D02*
X025793Y013339D01*
X025793Y013497D02*
X026246Y013497D01*
X026093Y013656D02*
X025793Y013656D01*
X025793Y013814D02*
X025981Y013814D01*
X025981Y013973D02*
X025793Y013973D01*
X025793Y014131D02*
X025981Y014131D01*
X026038Y014290D02*
X025793Y014290D01*
X025793Y014448D02*
X026197Y014448D01*
X026142Y014607D02*
X025793Y014607D01*
X025793Y014765D02*
X025984Y014765D01*
X025981Y014924D02*
X025793Y014924D01*
X025793Y015082D02*
X025981Y015082D01*
X025989Y015241D02*
X025793Y015241D01*
X025793Y015399D02*
X026148Y015399D01*
X026191Y015558D02*
X025793Y015558D01*
X025793Y015716D02*
X026033Y015716D01*
X025981Y015875D02*
X025793Y015875D01*
X025793Y016033D02*
X025981Y016033D01*
X025981Y016192D02*
X025793Y016192D01*
X025793Y016350D02*
X026099Y016350D01*
X026240Y016509D02*
X025793Y016509D01*
X025793Y016667D02*
X026082Y016667D01*
X025981Y016826D02*
X025793Y016826D01*
X025793Y016984D02*
X025981Y016984D01*
X025981Y017143D02*
X025793Y017143D01*
X025793Y017301D02*
X026050Y017301D01*
X026208Y017460D02*
X025793Y017460D01*
X025793Y017618D02*
X026131Y017618D01*
X025981Y017777D02*
X025793Y017777D01*
X025793Y017935D02*
X025981Y017935D01*
X025981Y018094D02*
X025793Y018094D01*
X025793Y018252D02*
X026001Y018252D01*
X026159Y018411D02*
X025793Y018411D01*
X025793Y018569D02*
X026180Y018569D01*
X026021Y018728D02*
X025793Y018728D01*
X025793Y018886D02*
X025981Y018886D01*
X025981Y019045D02*
X025793Y019045D01*
X025793Y019203D02*
X025981Y019203D01*
X026110Y019362D02*
X025793Y019362D01*
X025793Y019520D02*
X026269Y019520D01*
X025793Y019679D02*
X027293Y019679D01*
X027293Y019837D02*
X025793Y019837D01*
X025793Y019996D02*
X027293Y019996D01*
X027293Y020154D02*
X025793Y020154D01*
X025793Y020313D02*
X027293Y020313D01*
X027293Y020471D02*
X026804Y020471D01*
X026962Y020630D02*
X027293Y020630D01*
X027293Y020788D02*
X027101Y020788D01*
X027101Y020947D02*
X027293Y020947D01*
X027293Y021105D02*
X027101Y021105D01*
X027069Y021264D02*
X027293Y021264D01*
X027293Y021422D02*
X026910Y021422D01*
X026913Y021581D02*
X027293Y021581D01*
X027293Y021739D02*
X027072Y021739D01*
X027101Y021898D02*
X027293Y021898D01*
X027293Y022056D02*
X027101Y022056D01*
X027101Y022215D02*
X027293Y022215D01*
X027293Y022373D02*
X026959Y022373D01*
X026864Y022532D02*
X027293Y022532D01*
X027293Y022690D02*
X027023Y022690D01*
X027101Y022849D02*
X027293Y022849D01*
X027293Y023007D02*
X027101Y023007D01*
X027101Y023166D02*
X027293Y023166D01*
X027293Y023324D02*
X027008Y023324D01*
X026850Y023483D02*
X027293Y023483D01*
X027293Y023641D02*
X026974Y023641D01*
X027101Y023800D02*
X027293Y023800D01*
X027293Y023958D02*
X027101Y023958D01*
X027101Y024117D02*
X027293Y024117D01*
X027293Y024275D02*
X027057Y024275D01*
X026899Y024434D02*
X027293Y024434D01*
X027293Y024592D02*
X026925Y024592D01*
X027083Y024751D02*
X027293Y024751D01*
X027293Y024909D02*
X027101Y024909D01*
X027101Y025068D02*
X027293Y025068D01*
X027293Y025226D02*
X027101Y025226D01*
X026948Y025385D02*
X027293Y025385D01*
X027293Y025543D02*
X026876Y025543D01*
X027034Y025702D02*
X027293Y025702D01*
X027293Y025860D02*
X027101Y025860D01*
X027101Y026019D02*
X027293Y026019D01*
X027293Y026177D02*
X027101Y026177D01*
X026997Y026336D02*
X027293Y026336D01*
X026084Y026336D02*
X025793Y026336D01*
X025793Y026177D02*
X025981Y026177D01*
X025981Y026019D02*
X025793Y026019D01*
X025793Y025860D02*
X025981Y025860D01*
X026047Y025702D02*
X025793Y025702D01*
X025793Y025543D02*
X026206Y025543D01*
X026133Y025385D02*
X025793Y025385D01*
X025793Y025226D02*
X025981Y025226D01*
X025981Y025068D02*
X025793Y025068D01*
X025793Y024909D02*
X025981Y024909D01*
X025998Y024751D02*
X025793Y024751D01*
X025793Y024592D02*
X026157Y024592D01*
X026182Y024434D02*
X025793Y024434D01*
X025793Y024275D02*
X026024Y024275D01*
X025981Y024117D02*
X025793Y024117D01*
X025793Y023958D02*
X025981Y023958D01*
X025981Y023800D02*
X025793Y023800D01*
X025793Y023641D02*
X026108Y023641D01*
X026231Y023483D02*
X025793Y023483D01*
X025793Y023324D02*
X026073Y023324D01*
X025981Y023166D02*
X025793Y023166D01*
X025793Y023007D02*
X025981Y023007D01*
X025981Y022849D02*
X025793Y022849D01*
X025793Y022690D02*
X026059Y022690D01*
X026217Y022532D02*
X025793Y022532D01*
X025793Y022373D02*
X026122Y022373D01*
X025981Y022215D02*
X025793Y022215D01*
X025793Y022056D02*
X025981Y022056D01*
X025981Y021898D02*
X025793Y021898D01*
X025793Y021739D02*
X026010Y021739D01*
X026168Y021581D02*
X025793Y021581D01*
X025793Y021422D02*
X026171Y021422D01*
X026012Y021264D02*
X025793Y021264D01*
X025793Y021105D02*
X025981Y021105D01*
X025981Y020947D02*
X025793Y020947D01*
X025793Y020788D02*
X025981Y020788D01*
X026119Y020630D02*
X025793Y020630D01*
X025793Y020471D02*
X026278Y020471D01*
X026812Y019520D02*
X027293Y019520D01*
X027293Y019362D02*
X026971Y019362D01*
X027101Y019203D02*
X027293Y019203D01*
X027293Y019045D02*
X027101Y019045D01*
X027101Y018886D02*
X027293Y018886D01*
X027293Y018728D02*
X027060Y018728D01*
X026902Y018569D02*
X027293Y018569D01*
X027293Y018411D02*
X026922Y018411D01*
X027080Y018252D02*
X027293Y018252D01*
X027293Y018094D02*
X027101Y018094D01*
X008293Y018094D02*
X006793Y018094D01*
X006793Y018252D02*
X008293Y018252D01*
X008293Y018411D02*
X006793Y018411D01*
X006793Y018569D02*
X007180Y018569D01*
X007309Y018440D02*
X007773Y018440D01*
X008101Y018768D01*
X008101Y019150D01*
X008293Y019150D01*
X008293Y007900D01*
X007833Y007900D01*
X008101Y008168D01*
X008101Y008632D01*
X007833Y008900D01*
X008101Y009168D01*
X008101Y009632D01*
X007833Y009900D01*
X008101Y010168D01*
X008101Y010632D01*
X007833Y010900D01*
X008101Y011168D01*
X008101Y011632D01*
X007833Y011900D01*
X008101Y012168D01*
X008101Y012632D01*
X007833Y012900D01*
X008101Y013168D01*
X008101Y013632D01*
X007833Y013900D01*
X008101Y014168D01*
X008101Y014632D01*
X007833Y014900D01*
X008101Y015168D01*
X008101Y015632D01*
X007833Y015900D01*
X008101Y016168D01*
X008101Y016632D01*
X007833Y016900D01*
X008101Y017168D01*
X008101Y017632D01*
X007773Y017960D01*
X007309Y017960D01*
X006981Y017632D01*
X006981Y017168D01*
X007249Y016900D01*
X006981Y016632D01*
X006981Y016168D01*
X007249Y015900D01*
X006981Y015632D01*
X006981Y015168D01*
X007249Y014900D01*
X006981Y014632D01*
X006981Y014168D01*
X007249Y013900D01*
X006981Y013632D01*
X006981Y013168D01*
X007249Y012900D01*
X006981Y012632D01*
X006981Y012168D01*
X007249Y011900D01*
X006981Y011632D01*
X006981Y011168D01*
X007249Y010900D01*
X006981Y010632D01*
X006981Y010168D01*
X007249Y009900D01*
X006981Y009632D01*
X006981Y009168D01*
X007249Y008900D01*
X006981Y008632D01*
X006981Y008168D01*
X007249Y007900D01*
X006793Y007900D01*
X006793Y019150D01*
X006981Y019150D01*
X006981Y018768D01*
X007309Y018440D01*
X007021Y018728D02*
X006793Y018728D01*
X006793Y018886D02*
X006981Y018886D01*
X006981Y019045D02*
X006793Y019045D01*
X007902Y018569D02*
X008293Y018569D01*
X008293Y018728D02*
X008060Y018728D01*
X008101Y018886D02*
X008293Y018886D01*
X008293Y019045D02*
X008101Y019045D01*
X008293Y017935D02*
X007797Y017935D01*
X007956Y017777D02*
X008293Y017777D01*
X008293Y017618D02*
X008101Y017618D01*
X008101Y017460D02*
X008293Y017460D01*
X008293Y017301D02*
X008101Y017301D01*
X008075Y017143D02*
X008293Y017143D01*
X008293Y016984D02*
X007917Y016984D01*
X007907Y016826D02*
X008293Y016826D01*
X008293Y016667D02*
X008065Y016667D01*
X008101Y016509D02*
X008293Y016509D01*
X008293Y016350D02*
X008101Y016350D01*
X008101Y016192D02*
X008293Y016192D01*
X008293Y016033D02*
X007966Y016033D01*
X007858Y015875D02*
X008293Y015875D01*
X008293Y015716D02*
X008016Y015716D01*
X008101Y015558D02*
X008293Y015558D01*
X008293Y015399D02*
X008101Y015399D01*
X008101Y015241D02*
X008293Y015241D01*
X008293Y015082D02*
X008015Y015082D01*
X007856Y014924D02*
X008293Y014924D01*
X008293Y014765D02*
X007967Y014765D01*
X008101Y014607D02*
X008293Y014607D01*
X008293Y014448D02*
X008101Y014448D01*
X008101Y014290D02*
X008293Y014290D01*
X008293Y014131D02*
X008064Y014131D01*
X007905Y013973D02*
X008293Y013973D01*
X008293Y013814D02*
X007918Y013814D01*
X008077Y013656D02*
X008293Y013656D01*
X008293Y013497D02*
X008101Y013497D01*
X008101Y013339D02*
X008293Y013339D01*
X008293Y013180D02*
X008101Y013180D01*
X007954Y013022D02*
X008293Y013022D01*
X008293Y012863D02*
X007869Y012863D01*
X008028Y012705D02*
X008293Y012705D01*
X008293Y012546D02*
X008101Y012546D01*
X008101Y012388D02*
X008293Y012388D01*
X008293Y012229D02*
X008101Y012229D01*
X008003Y012071D02*
X008293Y012071D01*
X008293Y011912D02*
X007845Y011912D01*
X007979Y011754D02*
X008293Y011754D01*
X008293Y011595D02*
X008101Y011595D01*
X008101Y011437D02*
X008293Y011437D01*
X008293Y011278D02*
X008101Y011278D01*
X008052Y011120D02*
X008293Y011120D01*
X008293Y010961D02*
X007894Y010961D01*
X007930Y010803D02*
X008293Y010803D01*
X008293Y010644D02*
X008088Y010644D01*
X008101Y010486D02*
X008293Y010486D01*
X008293Y010327D02*
X008101Y010327D01*
X008101Y010169D02*
X008293Y010169D01*
X008293Y010010D02*
X007943Y010010D01*
X007881Y009852D02*
X008293Y009852D01*
X008293Y009693D02*
X008039Y009693D01*
X008101Y009535D02*
X008293Y009535D01*
X008293Y009376D02*
X008101Y009376D01*
X008101Y009218D02*
X008293Y009218D01*
X008293Y009059D02*
X007992Y009059D01*
X007833Y008901D02*
X008293Y008901D01*
X008293Y008742D02*
X007990Y008742D01*
X008101Y008584D02*
X008293Y008584D01*
X008293Y008425D02*
X008101Y008425D01*
X008101Y008267D02*
X008293Y008267D01*
X008293Y008108D02*
X008041Y008108D01*
X007882Y007950D02*
X008293Y007950D01*
X007199Y007950D02*
X006793Y007950D01*
X006793Y008108D02*
X007041Y008108D01*
X006981Y008267D02*
X006793Y008267D01*
X006793Y008425D02*
X006981Y008425D01*
X006981Y008584D02*
X006793Y008584D01*
X006793Y008742D02*
X007091Y008742D01*
X007248Y008901D02*
X006793Y008901D01*
X006793Y009059D02*
X007090Y009059D01*
X006981Y009218D02*
X006793Y009218D01*
X006793Y009376D02*
X006981Y009376D01*
X006981Y009535D02*
X006793Y009535D01*
X006793Y009693D02*
X007042Y009693D01*
X007200Y009852D02*
X006793Y009852D01*
X006793Y010010D02*
X007139Y010010D01*
X006981Y010169D02*
X006793Y010169D01*
X006793Y010327D02*
X006981Y010327D01*
X006981Y010486D02*
X006793Y010486D01*
X006793Y010644D02*
X006993Y010644D01*
X007151Y010803D02*
X006793Y010803D01*
X006793Y010961D02*
X007188Y010961D01*
X007029Y011120D02*
X006793Y011120D01*
X006793Y011278D02*
X006981Y011278D01*
X006981Y011437D02*
X006793Y011437D01*
X006793Y011595D02*
X006981Y011595D01*
X007102Y011754D02*
X006793Y011754D01*
X006793Y011912D02*
X007237Y011912D01*
X007078Y012071D02*
X006793Y012071D01*
X006793Y012229D02*
X006981Y012229D01*
X006981Y012388D02*
X006793Y012388D01*
X006793Y012546D02*
X006981Y012546D01*
X007053Y012705D02*
X006793Y012705D01*
X006793Y012863D02*
X007212Y012863D01*
X007127Y013022D02*
X006793Y013022D01*
X006793Y013180D02*
X006981Y013180D01*
X006981Y013339D02*
X006793Y013339D01*
X006793Y013497D02*
X006981Y013497D01*
X007004Y013656D02*
X006793Y013656D01*
X006793Y013814D02*
X007163Y013814D01*
X007176Y013973D02*
X006793Y013973D01*
X006793Y014131D02*
X007018Y014131D01*
X006981Y014290D02*
X006793Y014290D01*
X006793Y014448D02*
X006981Y014448D01*
X006981Y014607D02*
X006793Y014607D01*
X006793Y014765D02*
X007114Y014765D01*
X007225Y014924D02*
X006793Y014924D01*
X006793Y015082D02*
X007067Y015082D01*
X006981Y015241D02*
X006793Y015241D01*
X006793Y015399D02*
X006981Y015399D01*
X006981Y015558D02*
X006793Y015558D01*
X006793Y015716D02*
X007065Y015716D01*
X007223Y015875D02*
X006793Y015875D01*
X006793Y016033D02*
X007116Y016033D01*
X006981Y016192D02*
X006793Y016192D01*
X006793Y016350D02*
X006981Y016350D01*
X006981Y016509D02*
X006793Y016509D01*
X006793Y016667D02*
X007016Y016667D01*
X007174Y016826D02*
X006793Y016826D01*
X006793Y016984D02*
X007165Y016984D01*
X007006Y017143D02*
X006793Y017143D01*
X006793Y017301D02*
X006981Y017301D01*
X006981Y017460D02*
X006793Y017460D01*
X006793Y017618D02*
X006981Y017618D01*
X007125Y017777D02*
X006793Y017777D01*
X006793Y017935D02*
X007284Y017935D01*
D31*
X044243Y005000D03*
M02*
