G75*
%MOIN*%
%OFA0B0*%
%FSLAX24Y24*%
%IPPOS*%
%LPD*%
%AMOC8*
5,1,8,0,0,1.08239X$1,22.5*
%
%ADD10C,0.0100*%
%ADD11C,0.1380*%
%ADD12OC8,0.0740*%
%ADD13OC8,0.0780*%
%ADD14R,0.0780X0.0780*%
%ADD15C,0.0434*%
%ADD16OC8,0.1290*%
%ADD17C,0.1260*%
%ADD18OC8,0.1145*%
%ADD19OC8,0.0611*%
%ADD20OC8,0.0552*%
%ADD21OC8,0.1025*%
D10*
X030443Y014525D02*
X036443Y014525D01*
X036443Y022425D01*
X036293Y022575D01*
X035593Y022575D01*
X035593Y022975D01*
X036543Y022975D01*
X036893Y022625D01*
X036893Y014875D01*
X036993Y014775D01*
X047543Y014775D01*
X047643Y014675D01*
X047643Y014525D01*
X048343Y014525D01*
X048343Y023825D01*
X048343Y032425D01*
X030443Y032425D01*
X030443Y014525D01*
X030443Y014590D02*
X036443Y014590D01*
X036443Y014689D02*
X030443Y014689D01*
X030443Y014787D02*
X036443Y014787D01*
X036443Y014886D02*
X030443Y014886D01*
X030443Y014984D02*
X036443Y014984D01*
X036443Y015083D02*
X030443Y015083D01*
X030443Y015181D02*
X036443Y015181D01*
X036443Y015280D02*
X030443Y015280D01*
X030443Y015378D02*
X036443Y015378D01*
X036443Y015477D02*
X030443Y015477D01*
X030443Y015575D02*
X036443Y015575D01*
X036443Y015674D02*
X030443Y015674D01*
X030443Y015772D02*
X036443Y015772D01*
X036443Y015871D02*
X030443Y015871D01*
X030443Y015969D02*
X036443Y015969D01*
X036443Y016068D02*
X030443Y016068D01*
X030443Y016166D02*
X036443Y016166D01*
X036443Y016265D02*
X030443Y016265D01*
X030443Y016363D02*
X036443Y016363D01*
X036443Y016462D02*
X030443Y016462D01*
X030443Y016560D02*
X036443Y016560D01*
X036443Y016659D02*
X030443Y016659D01*
X030443Y016757D02*
X036443Y016757D01*
X036443Y016856D02*
X030443Y016856D01*
X030443Y016954D02*
X036443Y016954D01*
X036443Y017053D02*
X030443Y017053D01*
X030443Y017151D02*
X036443Y017151D01*
X036443Y017250D02*
X030443Y017250D01*
X030443Y017348D02*
X036443Y017348D01*
X036443Y017447D02*
X030443Y017447D01*
X030443Y017545D02*
X036443Y017545D01*
X036443Y017644D02*
X030443Y017644D01*
X030443Y017742D02*
X036443Y017742D01*
X036443Y017841D02*
X030443Y017841D01*
X030443Y017939D02*
X036443Y017939D01*
X036443Y018038D02*
X030443Y018038D01*
X030443Y018136D02*
X036443Y018136D01*
X036443Y018235D02*
X030443Y018235D01*
X030443Y018333D02*
X036443Y018333D01*
X036443Y018432D02*
X030443Y018432D01*
X030443Y018530D02*
X036443Y018530D01*
X036443Y018629D02*
X030443Y018629D01*
X030443Y018727D02*
X036443Y018727D01*
X036443Y018826D02*
X030443Y018826D01*
X030443Y018924D02*
X036443Y018924D01*
X036443Y019023D02*
X030443Y019023D01*
X030443Y019121D02*
X036443Y019121D01*
X036443Y019220D02*
X030443Y019220D01*
X030443Y019318D02*
X036443Y019318D01*
X036443Y019417D02*
X030443Y019417D01*
X030443Y019515D02*
X036443Y019515D01*
X036443Y019614D02*
X030443Y019614D01*
X030443Y019712D02*
X036443Y019712D01*
X036443Y019811D02*
X030443Y019811D01*
X030443Y019909D02*
X036443Y019909D01*
X036443Y020008D02*
X030443Y020008D01*
X030443Y020106D02*
X036443Y020106D01*
X036443Y020205D02*
X030443Y020205D01*
X030443Y020303D02*
X036443Y020303D01*
X036443Y020402D02*
X030443Y020402D01*
X030443Y020500D02*
X036443Y020500D01*
X036443Y020599D02*
X030443Y020599D01*
X030443Y020697D02*
X036443Y020697D01*
X036443Y020796D02*
X030443Y020796D01*
X030443Y020894D02*
X036443Y020894D01*
X036443Y020993D02*
X030443Y020993D01*
X030443Y021091D02*
X036443Y021091D01*
X036443Y021190D02*
X030443Y021190D01*
X030443Y021288D02*
X036443Y021288D01*
X036443Y021387D02*
X030443Y021387D01*
X030443Y021485D02*
X036443Y021485D01*
X036443Y021584D02*
X030443Y021584D01*
X030443Y021682D02*
X036443Y021682D01*
X036443Y021781D02*
X030443Y021781D01*
X030443Y021879D02*
X036443Y021879D01*
X036443Y021978D02*
X030443Y021978D01*
X030443Y022076D02*
X036443Y022076D01*
X036443Y022175D02*
X030443Y022175D01*
X030443Y022273D02*
X036443Y022273D01*
X036443Y022372D02*
X030443Y022372D01*
X030443Y022470D02*
X036398Y022470D01*
X036300Y022569D02*
X030443Y022569D01*
X030443Y022667D02*
X035593Y022667D01*
X035593Y022766D02*
X030443Y022766D01*
X030443Y022864D02*
X035593Y022864D01*
X035593Y022963D02*
X030443Y022963D01*
X030443Y023061D02*
X048343Y023061D01*
X048343Y022963D02*
X036556Y022963D01*
X036654Y022864D02*
X048343Y022864D01*
X048343Y022766D02*
X036753Y022766D01*
X036851Y022667D02*
X048343Y022667D01*
X048343Y022569D02*
X036893Y022569D01*
X036893Y022470D02*
X048343Y022470D01*
X048343Y022372D02*
X036893Y022372D01*
X036893Y022273D02*
X048343Y022273D01*
X048343Y022175D02*
X036893Y022175D01*
X036893Y022076D02*
X048343Y022076D01*
X048343Y021978D02*
X036893Y021978D01*
X036893Y021879D02*
X048343Y021879D01*
X048343Y021781D02*
X036893Y021781D01*
X036893Y021682D02*
X048343Y021682D01*
X048343Y021584D02*
X036893Y021584D01*
X036893Y021485D02*
X048343Y021485D01*
X048343Y021387D02*
X036893Y021387D01*
X036893Y021288D02*
X048343Y021288D01*
X048343Y021190D02*
X036893Y021190D01*
X036893Y021091D02*
X048343Y021091D01*
X048343Y020993D02*
X036893Y020993D01*
X036893Y020894D02*
X048343Y020894D01*
X048343Y020796D02*
X036893Y020796D01*
X036893Y020697D02*
X048343Y020697D01*
X048343Y020599D02*
X036893Y020599D01*
X036893Y020500D02*
X048343Y020500D01*
X048343Y020402D02*
X036893Y020402D01*
X036893Y020303D02*
X048343Y020303D01*
X048343Y020205D02*
X036893Y020205D01*
X036893Y020106D02*
X048343Y020106D01*
X048343Y020008D02*
X036893Y020008D01*
X036893Y019909D02*
X048343Y019909D01*
X048343Y019811D02*
X036893Y019811D01*
X036893Y019712D02*
X048343Y019712D01*
X048343Y019614D02*
X036893Y019614D01*
X036893Y019515D02*
X048343Y019515D01*
X048343Y019417D02*
X036893Y019417D01*
X036893Y019318D02*
X048343Y019318D01*
X048343Y019220D02*
X036893Y019220D01*
X036893Y019121D02*
X048343Y019121D01*
X048343Y019023D02*
X036893Y019023D01*
X036893Y018924D02*
X048343Y018924D01*
X048343Y018826D02*
X036893Y018826D01*
X036893Y018727D02*
X048343Y018727D01*
X048343Y018629D02*
X036893Y018629D01*
X036893Y018530D02*
X048343Y018530D01*
X048343Y018432D02*
X036893Y018432D01*
X036893Y018333D02*
X048343Y018333D01*
X048343Y018235D02*
X036893Y018235D01*
X036893Y018136D02*
X048343Y018136D01*
X048343Y018038D02*
X036893Y018038D01*
X036893Y017939D02*
X048343Y017939D01*
X048343Y017841D02*
X036893Y017841D01*
X036893Y017742D02*
X048343Y017742D01*
X048343Y017644D02*
X036893Y017644D01*
X036893Y017545D02*
X048343Y017545D01*
X048343Y017447D02*
X036893Y017447D01*
X036893Y017348D02*
X048343Y017348D01*
X048343Y017250D02*
X036893Y017250D01*
X036893Y017151D02*
X048343Y017151D01*
X048343Y017053D02*
X036893Y017053D01*
X036893Y016954D02*
X048343Y016954D01*
X048343Y016856D02*
X036893Y016856D01*
X036893Y016757D02*
X048343Y016757D01*
X048343Y016659D02*
X036893Y016659D01*
X036893Y016560D02*
X048343Y016560D01*
X048343Y016462D02*
X036893Y016462D01*
X036893Y016363D02*
X048343Y016363D01*
X048343Y016265D02*
X036893Y016265D01*
X036893Y016166D02*
X048343Y016166D01*
X048343Y016068D02*
X036893Y016068D01*
X036893Y015969D02*
X048343Y015969D01*
X048343Y015871D02*
X036893Y015871D01*
X036893Y015772D02*
X048343Y015772D01*
X048343Y015674D02*
X036893Y015674D01*
X036893Y015575D02*
X048343Y015575D01*
X048343Y015477D02*
X036893Y015477D01*
X036893Y015378D02*
X048343Y015378D01*
X048343Y015280D02*
X036893Y015280D01*
X036893Y015181D02*
X048343Y015181D01*
X048343Y015083D02*
X036893Y015083D01*
X036893Y014984D02*
X048343Y014984D01*
X048343Y014886D02*
X036893Y014886D01*
X036981Y014787D02*
X048343Y014787D01*
X048343Y014689D02*
X047630Y014689D01*
X047643Y014590D02*
X048343Y014590D01*
X048343Y023160D02*
X030443Y023160D01*
X030443Y023258D02*
X048343Y023258D01*
X048343Y023357D02*
X030443Y023357D01*
X030443Y023455D02*
X048343Y023455D01*
X048343Y023554D02*
X030443Y023554D01*
X030443Y023652D02*
X048343Y023652D01*
X048343Y023751D02*
X030443Y023751D01*
X030443Y023849D02*
X048343Y023849D01*
X048343Y023948D02*
X030443Y023948D01*
X030443Y024046D02*
X048343Y024046D01*
X048343Y024145D02*
X030443Y024145D01*
X030443Y024243D02*
X048343Y024243D01*
X048343Y024342D02*
X030443Y024342D01*
X030443Y024440D02*
X048343Y024440D01*
X048343Y024539D02*
X030443Y024539D01*
X030443Y024637D02*
X048343Y024637D01*
X048343Y024736D02*
X030443Y024736D01*
X030443Y024834D02*
X048343Y024834D01*
X048343Y024933D02*
X030443Y024933D01*
X030443Y025031D02*
X048343Y025031D01*
X048343Y025130D02*
X030443Y025130D01*
X030443Y025228D02*
X048343Y025228D01*
X048343Y025327D02*
X030443Y025327D01*
X030443Y025425D02*
X048343Y025425D01*
X048343Y025524D02*
X030443Y025524D01*
X030443Y025622D02*
X048343Y025622D01*
X048343Y025721D02*
X030443Y025721D01*
X030443Y025819D02*
X048343Y025819D01*
X048343Y025918D02*
X030443Y025918D01*
X030443Y026016D02*
X048343Y026016D01*
X048343Y026115D02*
X030443Y026115D01*
X030443Y026213D02*
X048343Y026213D01*
X048343Y026312D02*
X030443Y026312D01*
X030443Y026410D02*
X048343Y026410D01*
X048343Y026509D02*
X030443Y026509D01*
X030443Y026607D02*
X048343Y026607D01*
X048343Y026706D02*
X030443Y026706D01*
X030443Y026804D02*
X048343Y026804D01*
X048343Y026903D02*
X030443Y026903D01*
X030443Y027001D02*
X048343Y027001D01*
X048343Y027100D02*
X030443Y027100D01*
X030443Y027198D02*
X048343Y027198D01*
X048343Y027297D02*
X030443Y027297D01*
X030443Y027395D02*
X048343Y027395D01*
X048343Y027494D02*
X030443Y027494D01*
X030443Y027592D02*
X048343Y027592D01*
X048343Y027691D02*
X030443Y027691D01*
X030443Y027789D02*
X048343Y027789D01*
X048343Y027888D02*
X030443Y027888D01*
X030443Y027986D02*
X048343Y027986D01*
X048343Y028085D02*
X030443Y028085D01*
X030443Y028183D02*
X048343Y028183D01*
X048343Y028282D02*
X030443Y028282D01*
X030443Y028380D02*
X048343Y028380D01*
X048343Y028479D02*
X030443Y028479D01*
X030443Y028577D02*
X048343Y028577D01*
X048343Y028676D02*
X030443Y028676D01*
X030443Y028774D02*
X048343Y028774D01*
X048343Y028873D02*
X030443Y028873D01*
X030443Y028971D02*
X048343Y028971D01*
X048343Y029070D02*
X030443Y029070D01*
X030443Y029168D02*
X048343Y029168D01*
X048343Y029267D02*
X030443Y029267D01*
X030443Y029365D02*
X048343Y029365D01*
X048343Y029464D02*
X030443Y029464D01*
X030443Y029562D02*
X048343Y029562D01*
X048343Y029661D02*
X030443Y029661D01*
X030443Y029759D02*
X048343Y029759D01*
X048343Y029858D02*
X030443Y029858D01*
X030443Y029956D02*
X048343Y029956D01*
X048343Y030055D02*
X030443Y030055D01*
X030443Y030153D02*
X048343Y030153D01*
X048343Y030252D02*
X030443Y030252D01*
X030443Y030350D02*
X048343Y030350D01*
X048343Y030449D02*
X030443Y030449D01*
X030443Y030547D02*
X048343Y030547D01*
X048343Y030646D02*
X030443Y030646D01*
X030443Y030744D02*
X048343Y030744D01*
X048343Y030843D02*
X030443Y030843D01*
X030443Y030941D02*
X048343Y030941D01*
X048343Y031040D02*
X030443Y031040D01*
X030443Y031138D02*
X048343Y031138D01*
X048343Y031237D02*
X030443Y031237D01*
X030443Y031335D02*
X048343Y031335D01*
X048343Y031434D02*
X030443Y031434D01*
X030443Y031532D02*
X048343Y031532D01*
X048343Y031631D02*
X030443Y031631D01*
X030443Y031729D02*
X048343Y031729D01*
X048343Y031828D02*
X030443Y031828D01*
X030443Y031926D02*
X048343Y031926D01*
X048343Y032025D02*
X030443Y032025D01*
X030443Y032123D02*
X048343Y032123D01*
X048343Y032222D02*
X030443Y032222D01*
X030443Y032320D02*
X048343Y032320D01*
X048343Y032419D02*
X030443Y032419D01*
D11*
X050993Y031825D03*
X047393Y007925D03*
X011593Y012775D03*
X008193Y033725D03*
D12*
X008141Y030725D03*
X008141Y029725D03*
X008141Y028725D03*
X008141Y027725D03*
X008141Y026725D03*
X008141Y025725D03*
X008141Y024725D03*
X008141Y023725D03*
X008141Y022125D03*
X008141Y021125D03*
X008141Y020125D03*
X008141Y019125D03*
X008141Y018125D03*
X008141Y017125D03*
X008141Y016125D03*
X008141Y015125D03*
X008141Y014125D03*
X008141Y013125D03*
X027141Y016725D03*
X027141Y017725D03*
X027141Y018725D03*
X027141Y019725D03*
X027141Y020725D03*
X027141Y021725D03*
X027141Y022725D03*
X027141Y023725D03*
X027141Y025725D03*
X027141Y026725D03*
X027141Y027725D03*
X027141Y028725D03*
X027141Y029725D03*
X027141Y030725D03*
X030243Y013275D03*
X031243Y013275D03*
X031243Y012275D03*
X030243Y012275D03*
X032243Y012275D03*
X032243Y013275D03*
X033243Y013275D03*
X033243Y012275D03*
X034243Y012275D03*
X034243Y013275D03*
X035243Y013275D03*
X035243Y012275D03*
X035343Y010175D03*
X035343Y009175D03*
X036343Y009175D03*
X036343Y010175D03*
X037343Y010175D03*
X038343Y010175D03*
X038343Y009175D03*
X037343Y009175D03*
X039343Y009175D03*
X039343Y010175D03*
D13*
X018141Y030775D03*
X017141Y030775D03*
X017141Y031775D03*
X018141Y031775D03*
X016141Y031775D03*
D14*
X016141Y030775D03*
D15*
X020555Y006425D03*
X023232Y006425D03*
D16*
X008531Y008735D03*
X012556Y008735D03*
X014731Y008735D03*
X018756Y008735D03*
X030381Y034165D03*
X034406Y034165D03*
X036581Y034165D03*
X040606Y034165D03*
X042781Y034165D03*
X046806Y034165D03*
X048981Y034165D03*
X053006Y034165D03*
D17*
X031393Y007505D03*
X028093Y007505D03*
D18*
X028093Y010375D03*
X029743Y010375D03*
X031393Y010375D03*
D19*
X019843Y035325D03*
X018843Y035325D03*
X017843Y035325D03*
D20*
X013493Y035925D03*
X011493Y035925D03*
X010643Y030925D03*
X012493Y030925D03*
X014343Y030925D03*
D21*
X043643Y012725D03*
X043643Y006725D03*
X051143Y006725D03*
X051143Y012725D03*
M02*
