G75*
G70*
%OFA0B0*%
%FSLAX24Y24*%
%IPPOS*%
%LPD*%
%AMOC8*
5,1,8,0,0,1.08239X$1,22.5*
%
%ADD10R,0.0866X0.0236*%
%ADD11R,0.0512X0.0630*%
%ADD12R,0.0787X0.0630*%
%ADD13OC8,0.0660*%
%ADD14OC8,0.0700*%
%ADD15R,0.0700X0.0700*%
%ADD16R,0.0420X0.0850*%
%ADD17C,0.0100*%
%ADD18R,0.1280X0.2540*%
%ADD19R,0.0984X0.0906*%
%ADD20R,0.0420X0.0350*%
%ADD21R,0.0480X0.0740*%
%ADD22R,0.1575X0.0630*%
%ADD23R,0.0236X0.0866*%
%ADD24R,0.0380X0.0600*%
%ADD25R,0.0350X0.0420*%
%ADD26R,0.0512X0.2638*%
%ADD27R,0.0460X0.0140*%
%ADD28R,0.0600X0.0380*%
%ADD29R,0.0590X0.0170*%
%ADD30R,0.0480X0.0360*%
%ADD31R,0.0472X0.0984*%
%ADD32R,0.0276X0.0669*%
%ADD33R,0.0610X0.0433*%
%ADD34R,0.0417X0.0256*%
%ADD35R,0.0500X0.1350*%
%ADD36R,0.4200X0.3550*%
%ADD37R,0.1000X0.2300*%
%ADD38OC8,0.1210*%
%ADD39C,0.0315*%
%ADD40R,0.0500X0.0220*%
%ADD41R,0.0880X0.0480*%
%ADD42R,0.0866X0.1417*%
%ADD43R,0.0460X0.0630*%
%ADD44R,0.0394X0.0551*%
%ADD45OC8,0.1065*%
%ADD46OC8,0.0472*%
%ADD47OC8,0.1230*%
%ADD48OC8,0.0886*%
%ADD49C,0.0120*%
%ADD50C,0.0376*%
%ADD51C,0.0240*%
%ADD52C,0.0070*%
%ADD53C,0.0270*%
%ADD54C,0.0320*%
%ADD55C,0.0160*%
%ADD56C,0.0531*%
%ADD57C,0.0400*%
%ADD58OC8,0.1502*%
%ADD59C,0.0500*%
%ADD60C,0.0591*%
%ADD61C,0.0660*%
%ADD62C,0.1200*%
%ADD63C,0.0060*%
%ADD64OC8,0.0945*%
%ADD65OC8,0.0827*%
D10*
X031117Y016000D03*
X031117Y016500D03*
X031117Y017000D03*
X031117Y017500D03*
X031117Y018000D03*
X031117Y018500D03*
X031117Y019000D03*
X033164Y019000D03*
X033164Y018500D03*
X033164Y018000D03*
X033164Y017500D03*
X033164Y017000D03*
X033164Y016500D03*
X033164Y016000D03*
D11*
X031791Y010721D03*
X030791Y010721D03*
D12*
X031291Y009579D03*
D13*
X031243Y008050D03*
X030243Y008050D03*
X030243Y007050D03*
X031243Y007050D03*
X032243Y007050D03*
X033243Y007050D03*
X034243Y007050D03*
X035243Y007050D03*
X035243Y008050D03*
X034243Y008050D03*
X033243Y008050D03*
X032243Y008050D03*
X035793Y005850D03*
X035793Y004850D03*
X036793Y004850D03*
X037793Y004850D03*
X037793Y005850D03*
X036793Y005850D03*
X038793Y005850D03*
X038793Y004850D03*
X039793Y004850D03*
X039793Y005850D03*
X026541Y012000D03*
X026541Y013000D03*
X026541Y014000D03*
X026541Y015000D03*
X026541Y016000D03*
X026541Y017000D03*
X026541Y018000D03*
X026541Y019000D03*
X026541Y021000D03*
X026541Y022000D03*
X026541Y023000D03*
X026541Y024000D03*
X026541Y025000D03*
X026541Y026000D03*
X007541Y026000D03*
X007541Y025000D03*
X007541Y024000D03*
X007541Y023000D03*
X007541Y022000D03*
X007541Y021000D03*
X007541Y020000D03*
X007541Y019000D03*
X007541Y017400D03*
X007541Y016400D03*
X007541Y015400D03*
X007541Y014400D03*
X007541Y013400D03*
X007541Y012400D03*
X007541Y011400D03*
X007541Y010400D03*
X007541Y009400D03*
X007541Y008400D03*
D14*
X016541Y026050D03*
X017541Y026050D03*
X017541Y027050D03*
X016541Y027050D03*
X015541Y027050D03*
D15*
X015541Y026050D03*
D16*
X041366Y010820D03*
X042366Y010820D03*
X043366Y010820D03*
D17*
X045743Y010843D02*
X047105Y010843D01*
X047149Y010737D01*
X047186Y010700D01*
X045743Y010700D01*
X045743Y016150D01*
X050343Y016150D01*
X050343Y011590D01*
X049453Y010700D01*
X047601Y010700D01*
X047638Y010737D01*
X047681Y010843D01*
X047681Y010957D01*
X047638Y011063D01*
X047621Y011080D01*
X047677Y011080D01*
X047736Y011139D01*
X047736Y011961D01*
X047677Y012020D01*
X047541Y012020D01*
X047541Y012200D01*
X047802Y012200D01*
X047861Y012259D01*
X047861Y012821D01*
X047802Y012880D01*
X046839Y012880D01*
X046781Y012821D01*
X046781Y012770D01*
X046584Y012770D01*
X046481Y012874D01*
X046503Y012896D01*
X046503Y013329D01*
X046445Y013388D01*
X045942Y013388D01*
X045883Y013329D01*
X045883Y012896D01*
X045942Y012838D01*
X045973Y012838D01*
X045973Y012759D01*
X046273Y012459D01*
X046402Y012330D01*
X046781Y012330D01*
X046781Y012259D01*
X046839Y012200D01*
X047101Y012200D01*
X047101Y012006D01*
X047056Y011961D01*
X047056Y011139D01*
X047115Y011080D01*
X047166Y011080D01*
X047149Y011063D01*
X047105Y010957D01*
X047105Y010843D01*
X047105Y010941D02*
X045743Y010941D01*
X045743Y011040D02*
X047139Y011040D01*
X047057Y011138D02*
X045743Y011138D01*
X045743Y011237D02*
X047056Y011237D01*
X047056Y011335D02*
X045743Y011335D01*
X045743Y011434D02*
X047056Y011434D01*
X047056Y011532D02*
X045743Y011532D01*
X045743Y011631D02*
X047056Y011631D01*
X047056Y011729D02*
X045743Y011729D01*
X045743Y011828D02*
X047056Y011828D01*
X047056Y011926D02*
X045743Y011926D01*
X045743Y012025D02*
X047101Y012025D01*
X047101Y012123D02*
X045743Y012123D01*
X045743Y012222D02*
X046818Y012222D01*
X046781Y012320D02*
X045743Y012320D01*
X045743Y012419D02*
X046314Y012419D01*
X046215Y012517D02*
X045743Y012517D01*
X045743Y012616D02*
X046117Y012616D01*
X046018Y012714D02*
X045743Y012714D01*
X045743Y012813D02*
X045973Y012813D01*
X045883Y012911D02*
X045743Y012911D01*
X045743Y013010D02*
X045883Y013010D01*
X045883Y013108D02*
X045743Y013108D01*
X045743Y013207D02*
X045883Y013207D01*
X045883Y013305D02*
X045743Y013305D01*
X045743Y013404D02*
X046781Y013404D01*
X046781Y013502D02*
X045743Y013502D01*
X045743Y013601D02*
X045883Y013601D01*
X045883Y013576D02*
X045942Y013518D01*
X046445Y013518D01*
X046503Y013576D01*
X046503Y014009D01*
X046445Y014068D01*
X046413Y014068D01*
X046413Y014185D01*
X046445Y014185D01*
X046500Y014240D01*
X046781Y014240D01*
X046781Y014079D01*
X046839Y014020D01*
X047802Y014020D01*
X047861Y014079D01*
X047861Y014641D01*
X047802Y014700D01*
X046839Y014700D01*
X046819Y014680D01*
X046500Y014680D01*
X046445Y014735D01*
X045942Y014735D01*
X045883Y014676D01*
X045883Y014244D01*
X045942Y014185D01*
X045973Y014185D01*
X045973Y014068D01*
X045942Y014068D01*
X045883Y014009D01*
X045883Y013576D01*
X045883Y013699D02*
X045743Y013699D01*
X045743Y013798D02*
X045883Y013798D01*
X045883Y013896D02*
X045743Y013896D01*
X045743Y013995D02*
X045883Y013995D01*
X045973Y014093D02*
X045743Y014093D01*
X045743Y014192D02*
X045935Y014192D01*
X045883Y014290D02*
X045743Y014290D01*
X045743Y014389D02*
X045883Y014389D01*
X045883Y014487D02*
X045743Y014487D01*
X045743Y014586D02*
X045883Y014586D01*
X045891Y014684D02*
X045743Y014684D01*
X045743Y014783D02*
X050343Y014783D01*
X050343Y014881D02*
X046461Y014881D01*
X046445Y014865D02*
X046503Y014924D01*
X046503Y015356D01*
X046445Y015415D01*
X046416Y015415D01*
X046438Y015437D01*
X046481Y015543D01*
X046481Y015657D01*
X046438Y015763D01*
X046357Y015844D01*
X046251Y015888D01*
X046136Y015888D01*
X046030Y015844D01*
X045949Y015763D01*
X045905Y015657D01*
X045905Y015543D01*
X045949Y015437D01*
X045971Y015415D01*
X045942Y015415D01*
X045883Y015356D01*
X045883Y014924D01*
X045942Y014865D01*
X046445Y014865D01*
X046503Y014980D02*
X047315Y014980D01*
X047306Y014989D02*
X047365Y014930D01*
X047927Y014930D01*
X047986Y014989D01*
X047986Y015811D01*
X047927Y015870D01*
X047365Y015870D01*
X047306Y015811D01*
X047306Y015620D01*
X047281Y015620D01*
X047257Y015644D01*
X047151Y015688D01*
X047036Y015688D01*
X046930Y015644D01*
X046849Y015563D01*
X046805Y015457D01*
X046805Y015343D01*
X046849Y015237D01*
X046930Y015156D01*
X047036Y015112D01*
X047151Y015112D01*
X047257Y015156D01*
X047281Y015180D01*
X047306Y015180D01*
X047306Y014989D01*
X047306Y015078D02*
X046503Y015078D01*
X046503Y015177D02*
X046909Y015177D01*
X046833Y015275D02*
X046503Y015275D01*
X046486Y015374D02*
X046805Y015374D01*
X046811Y015472D02*
X046452Y015472D01*
X046481Y015571D02*
X046856Y015571D01*
X046990Y015669D02*
X046477Y015669D01*
X046433Y015768D02*
X047306Y015768D01*
X047306Y015669D02*
X047197Y015669D01*
X047361Y015866D02*
X046304Y015866D01*
X046083Y015866D02*
X045743Y015866D01*
X045743Y015768D02*
X045953Y015768D01*
X045910Y015669D02*
X045743Y015669D01*
X045743Y015571D02*
X045905Y015571D01*
X045934Y015472D02*
X045743Y015472D01*
X045743Y015374D02*
X045900Y015374D01*
X045883Y015275D02*
X045743Y015275D01*
X045743Y015177D02*
X045883Y015177D01*
X045883Y015078D02*
X045743Y015078D01*
X045743Y014980D02*
X045883Y014980D01*
X045926Y014881D02*
X045743Y014881D01*
X046496Y014684D02*
X046823Y014684D01*
X046781Y014192D02*
X046451Y014192D01*
X046413Y014093D02*
X046781Y014093D01*
X046503Y013995D02*
X050343Y013995D01*
X050343Y014093D02*
X047861Y014093D01*
X047861Y014192D02*
X050343Y014192D01*
X050343Y014290D02*
X047861Y014290D01*
X047861Y014389D02*
X050343Y014389D01*
X050343Y014487D02*
X047861Y014487D01*
X047861Y014586D02*
X050343Y014586D01*
X050343Y014684D02*
X047818Y014684D01*
X047977Y014980D02*
X050343Y014980D01*
X050343Y015078D02*
X047986Y015078D01*
X047986Y015177D02*
X050343Y015177D01*
X050343Y015275D02*
X047986Y015275D01*
X047986Y015374D02*
X050343Y015374D01*
X050343Y015472D02*
X047986Y015472D01*
X047986Y015571D02*
X050343Y015571D01*
X050343Y015669D02*
X047986Y015669D01*
X047986Y015768D02*
X050343Y015768D01*
X050343Y015866D02*
X047931Y015866D01*
X047306Y015177D02*
X047277Y015177D01*
X046839Y013790D02*
X046781Y013731D01*
X046781Y013169D01*
X046839Y013110D01*
X047802Y013110D01*
X047861Y013169D01*
X047861Y013731D01*
X047802Y013790D01*
X046839Y013790D01*
X046781Y013699D02*
X046503Y013699D01*
X046503Y013601D02*
X046781Y013601D01*
X046781Y013305D02*
X046503Y013305D01*
X046503Y013207D02*
X046781Y013207D01*
X046503Y013108D02*
X050343Y013108D01*
X050343Y013010D02*
X046503Y013010D01*
X046503Y012911D02*
X050343Y012911D01*
X050343Y012813D02*
X047861Y012813D01*
X047861Y012714D02*
X050343Y012714D01*
X050343Y012616D02*
X047861Y012616D01*
X047861Y012517D02*
X050343Y012517D01*
X050343Y012419D02*
X047861Y012419D01*
X047861Y012320D02*
X050343Y012320D01*
X050343Y012222D02*
X047824Y012222D01*
X047541Y012123D02*
X050343Y012123D01*
X050343Y012025D02*
X047541Y012025D01*
X047736Y011926D02*
X048356Y011926D01*
X048356Y011961D02*
X048356Y011139D01*
X048415Y011080D01*
X048977Y011080D01*
X049036Y011139D01*
X049036Y011330D01*
X049156Y011330D01*
X049180Y011306D01*
X049286Y011262D01*
X049401Y011262D01*
X049507Y011306D01*
X049588Y011387D01*
X049631Y011493D01*
X049631Y011607D01*
X049588Y011713D01*
X049507Y011794D01*
X049401Y011838D01*
X049286Y011838D01*
X049180Y011794D01*
X049156Y011770D01*
X049036Y011770D01*
X049036Y011961D01*
X048977Y012020D01*
X048415Y012020D01*
X048356Y011961D01*
X048356Y011828D02*
X047736Y011828D01*
X047736Y011729D02*
X048356Y011729D01*
X048356Y011631D02*
X047736Y011631D01*
X047736Y011532D02*
X048356Y011532D01*
X048356Y011434D02*
X047736Y011434D01*
X047736Y011335D02*
X048356Y011335D01*
X048356Y011237D02*
X047736Y011237D01*
X047736Y011138D02*
X048357Y011138D01*
X049036Y011138D02*
X049891Y011138D01*
X049793Y011040D02*
X047647Y011040D01*
X047681Y010941D02*
X049694Y010941D01*
X049596Y010843D02*
X047681Y010843D01*
X047641Y010744D02*
X049497Y010744D01*
X049536Y011335D02*
X050088Y011335D01*
X049990Y011237D02*
X049036Y011237D01*
X049036Y011828D02*
X049260Y011828D01*
X049426Y011828D02*
X050343Y011828D01*
X050343Y011926D02*
X049036Y011926D01*
X049572Y011729D02*
X050343Y011729D01*
X050343Y011631D02*
X049622Y011631D01*
X049631Y011532D02*
X050285Y011532D01*
X050187Y011434D02*
X049607Y011434D01*
X050343Y013207D02*
X047861Y013207D01*
X047861Y013305D02*
X050343Y013305D01*
X050343Y013404D02*
X047861Y013404D01*
X047861Y013502D02*
X050343Y013502D01*
X050343Y013601D02*
X047861Y013601D01*
X047861Y013699D02*
X050343Y013699D01*
X050343Y013798D02*
X046503Y013798D01*
X046503Y013896D02*
X050343Y013896D01*
X050343Y015965D02*
X045743Y015965D01*
X045743Y016063D02*
X050343Y016063D01*
X050243Y019250D02*
X050243Y023150D01*
X051743Y023150D01*
X051743Y019250D01*
X050243Y019250D01*
X050243Y019314D02*
X051743Y019314D01*
X051743Y019412D02*
X050243Y019412D01*
X050243Y019511D02*
X051743Y019511D01*
X051743Y019609D02*
X050243Y019609D01*
X050243Y019708D02*
X051743Y019708D01*
X051743Y019806D02*
X050243Y019806D01*
X050243Y019905D02*
X051743Y019905D01*
X051743Y020003D02*
X050243Y020003D01*
X050243Y020102D02*
X051743Y020102D01*
X051743Y020200D02*
X050243Y020200D01*
X050243Y020299D02*
X051743Y020299D01*
X051743Y020397D02*
X050243Y020397D01*
X050243Y020496D02*
X051743Y020496D01*
X051743Y020594D02*
X050243Y020594D01*
X050243Y020693D02*
X051743Y020693D01*
X051743Y020791D02*
X050243Y020791D01*
X050243Y020890D02*
X051743Y020890D01*
X051743Y020988D02*
X050243Y020988D01*
X050243Y021087D02*
X051743Y021087D01*
X051743Y021185D02*
X050243Y021185D01*
X050243Y021284D02*
X051743Y021284D01*
X051743Y021382D02*
X050243Y021382D01*
X050243Y021481D02*
X051743Y021481D01*
X051743Y021579D02*
X050243Y021579D01*
X050243Y021678D02*
X051743Y021678D01*
X051743Y021776D02*
X050243Y021776D01*
X050243Y021875D02*
X051743Y021875D01*
X051743Y021973D02*
X050243Y021973D01*
X050243Y022072D02*
X051743Y022072D01*
X051743Y022170D02*
X050243Y022170D01*
X050243Y022269D02*
X051743Y022269D01*
X051743Y022367D02*
X050243Y022367D01*
X050243Y022466D02*
X051743Y022466D01*
X051743Y022564D02*
X050243Y022564D01*
X050243Y022663D02*
X051743Y022663D01*
X051743Y022761D02*
X050243Y022761D01*
X050243Y022860D02*
X051743Y022860D01*
X051743Y022958D02*
X050243Y022958D01*
X050243Y023057D02*
X051743Y023057D01*
X047843Y023057D02*
X037843Y023057D01*
X037843Y023155D02*
X047843Y023155D01*
X047843Y023254D02*
X037843Y023254D01*
X037843Y023352D02*
X047843Y023352D01*
X047843Y023451D02*
X037843Y023451D01*
X037843Y023549D02*
X047843Y023549D01*
X047843Y023648D02*
X037843Y023648D01*
X037843Y023746D02*
X047843Y023746D01*
X047843Y023845D02*
X037843Y023845D01*
X037843Y023943D02*
X047843Y023943D01*
X047843Y024042D02*
X037843Y024042D01*
X037843Y024140D02*
X047843Y024140D01*
X047843Y024239D02*
X037843Y024239D01*
X037843Y024337D02*
X047843Y024337D01*
X047843Y024436D02*
X037843Y024436D01*
X037843Y024534D02*
X047843Y024534D01*
X047843Y024633D02*
X037843Y024633D01*
X037843Y024731D02*
X047843Y024731D01*
X047843Y024830D02*
X037843Y024830D01*
X037843Y024928D02*
X047843Y024928D01*
X047843Y025027D02*
X037843Y025027D01*
X037843Y025125D02*
X047843Y025125D01*
X047843Y025224D02*
X037843Y025224D01*
X037843Y025322D02*
X047843Y025322D01*
X047843Y025421D02*
X037843Y025421D01*
X037843Y025519D02*
X047843Y025519D01*
X047843Y025618D02*
X037843Y025618D01*
X037843Y025716D02*
X047843Y025716D01*
X047843Y025815D02*
X037843Y025815D01*
X037843Y025913D02*
X047843Y025913D01*
X047843Y026012D02*
X037843Y026012D01*
X037843Y026110D02*
X047843Y026110D01*
X047843Y026209D02*
X037843Y026209D01*
X037843Y026307D02*
X047843Y026307D01*
X047843Y026406D02*
X037843Y026406D01*
X037843Y026504D02*
X047843Y026504D01*
X047843Y026600D02*
X047843Y019100D01*
X037843Y019100D01*
X037843Y026600D01*
X047843Y026600D01*
X047843Y022958D02*
X037843Y022958D01*
X037843Y022860D02*
X047843Y022860D01*
X047843Y022761D02*
X037843Y022761D01*
X037843Y022663D02*
X047843Y022663D01*
X047843Y022564D02*
X037843Y022564D01*
X037843Y022466D02*
X047843Y022466D01*
X047843Y022367D02*
X037843Y022367D01*
X037843Y022269D02*
X047843Y022269D01*
X047843Y022170D02*
X037843Y022170D01*
X037843Y022072D02*
X047843Y022072D01*
X047843Y021973D02*
X037843Y021973D01*
X037843Y021875D02*
X047843Y021875D01*
X047843Y021776D02*
X037843Y021776D01*
X037843Y021678D02*
X047843Y021678D01*
X047843Y021579D02*
X037843Y021579D01*
X037843Y021481D02*
X047843Y021481D01*
X047843Y021382D02*
X037843Y021382D01*
X037843Y021284D02*
X047843Y021284D01*
X047843Y021185D02*
X037843Y021185D01*
X037843Y021087D02*
X047843Y021087D01*
X047843Y020988D02*
X037843Y020988D01*
X037843Y020890D02*
X047843Y020890D01*
X047843Y020791D02*
X037843Y020791D01*
X037843Y020693D02*
X047843Y020693D01*
X047843Y020594D02*
X037843Y020594D01*
X037843Y020496D02*
X047843Y020496D01*
X047843Y020397D02*
X037843Y020397D01*
X037843Y020299D02*
X047843Y020299D01*
X047843Y020200D02*
X037843Y020200D01*
X037843Y020102D02*
X047843Y020102D01*
X047843Y020003D02*
X037843Y020003D01*
X037843Y019905D02*
X047843Y019905D01*
X047843Y019806D02*
X037843Y019806D01*
X037843Y019708D02*
X047843Y019708D01*
X047843Y019609D02*
X037843Y019609D01*
X037843Y019511D02*
X047843Y019511D01*
X047843Y019412D02*
X037843Y019412D01*
X037843Y019314D02*
X047843Y019314D01*
X047843Y019215D02*
X037843Y019215D01*
X037843Y019117D02*
X047843Y019117D01*
X044491Y016400D02*
X044491Y015650D01*
X043991Y015650D01*
X043991Y013275D01*
X040741Y013275D01*
X040741Y015650D01*
X040241Y015650D01*
X040241Y016400D01*
X044491Y016400D01*
X044491Y016359D02*
X040241Y016359D01*
X040241Y016260D02*
X044491Y016260D01*
X044491Y016162D02*
X040241Y016162D01*
X040241Y016063D02*
X044491Y016063D01*
X044491Y015965D02*
X040241Y015965D01*
X040241Y015866D02*
X044491Y015866D01*
X044491Y015768D02*
X040241Y015768D01*
X040241Y015669D02*
X044491Y015669D01*
X043991Y015571D02*
X040741Y015571D01*
X040741Y015472D02*
X043991Y015472D01*
X043991Y015374D02*
X040741Y015374D01*
X040741Y015275D02*
X043991Y015275D01*
X043991Y015177D02*
X040741Y015177D01*
X040741Y015078D02*
X043991Y015078D01*
X043991Y014980D02*
X040741Y014980D01*
X040741Y014881D02*
X043991Y014881D01*
X043991Y014783D02*
X040741Y014783D01*
X040741Y014684D02*
X043991Y014684D01*
X043991Y014586D02*
X040741Y014586D01*
X040741Y014487D02*
X043991Y014487D01*
X043991Y014389D02*
X040741Y014389D01*
X040741Y014290D02*
X043991Y014290D01*
X043991Y014192D02*
X040741Y014192D01*
X040741Y014093D02*
X043991Y014093D01*
X043991Y013995D02*
X040741Y013995D01*
X040741Y013896D02*
X043991Y013896D01*
X043991Y013798D02*
X040741Y013798D01*
X040741Y013699D02*
X043991Y013699D01*
X043991Y013601D02*
X040741Y013601D01*
X040741Y013502D02*
X043991Y013502D01*
X043991Y013404D02*
X040741Y013404D01*
X040741Y013305D02*
X043991Y013305D01*
X046542Y012813D02*
X046781Y012813D01*
X047146Y010744D02*
X045743Y010744D01*
X035343Y011000D02*
X035293Y011050D01*
X022893Y022250D02*
X022431Y022250D01*
X021751Y022250D02*
X021081Y022250D01*
X020401Y022250D02*
X020393Y022243D01*
X018293Y022021D02*
X018243Y022024D01*
X017291Y022003D02*
X017243Y022024D01*
X017170Y022024D01*
X017220Y020000D02*
X017243Y019976D01*
X009393Y022000D02*
X009293Y022000D01*
X008693Y022000D02*
X007541Y022000D01*
X007541Y023000D02*
X008693Y023000D01*
X008693Y024000D02*
X007541Y024000D01*
X007541Y021000D02*
X008693Y021000D01*
X019933Y029230D02*
X019933Y029400D01*
X015528Y030217D02*
X015493Y030183D01*
X008033Y030697D02*
X008033Y031597D01*
X007353Y031600D02*
X007353Y031597D01*
X007353Y031600D02*
X006943Y031600D01*
X006943Y030700D02*
X007353Y030700D01*
X007353Y030697D01*
X030643Y024850D02*
X031083Y024850D01*
X031093Y024860D01*
X031093Y025540D02*
X031773Y024860D01*
X031993Y024860D01*
X031993Y025540D02*
X031993Y025950D01*
X033793Y025540D02*
X034233Y025540D01*
X034243Y025550D01*
X033793Y024860D02*
X033793Y024233D01*
X033856Y024170D01*
X033856Y023800D02*
X034343Y023800D01*
X033023Y024170D02*
X032836Y024170D01*
X038593Y029350D02*
X038593Y030100D01*
D18*
X042366Y014650D03*
D19*
X044741Y012287D03*
X044741Y010713D03*
D20*
X046193Y013113D03*
X046193Y013793D03*
X046193Y014460D03*
X046193Y015140D03*
X040293Y012587D03*
X040293Y011907D03*
X040293Y011193D03*
X040293Y010513D03*
X034491Y010310D03*
X034491Y010990D03*
X034391Y012360D03*
X034391Y013040D03*
X030791Y012190D03*
X030791Y011510D03*
X038943Y017213D03*
X038943Y017893D03*
X034143Y018190D03*
X034143Y017510D03*
X032993Y020513D03*
X032993Y021193D03*
X031993Y023460D03*
X031993Y024140D03*
X031993Y024860D03*
X032893Y024860D03*
X032893Y025540D03*
X031993Y025540D03*
X031093Y025540D03*
X031093Y024860D03*
X033793Y024860D03*
X033793Y025540D03*
X034946Y024140D03*
X034946Y023460D03*
X030093Y018190D03*
X030093Y017510D03*
D21*
X037896Y010850D03*
X039196Y010850D03*
X039641Y008950D03*
X040941Y008950D03*
X047396Y011550D03*
X048696Y011550D03*
X048946Y015400D03*
X047646Y015400D03*
X017643Y008397D03*
X016343Y008397D03*
D22*
X015793Y006003D03*
X018194Y006003D03*
X018194Y002453D03*
X015793Y002453D03*
D23*
X017243Y019976D03*
X017743Y019976D03*
X018243Y019976D03*
X018743Y019976D03*
X018743Y022024D03*
X018243Y022024D03*
X017743Y022024D03*
X017243Y022024D03*
D24*
X018083Y023953D03*
X018903Y023953D03*
X024933Y019000D03*
X025753Y019000D03*
X025753Y018000D03*
X024933Y018000D03*
X018703Y018897D03*
X017883Y018897D03*
D25*
X020401Y022250D03*
X021081Y022250D03*
X021751Y022250D03*
X022431Y022250D03*
X018733Y023153D03*
X018053Y023153D03*
X019253Y029400D03*
X019933Y029400D03*
X008033Y030697D03*
X007353Y030697D03*
X007353Y031597D03*
X008033Y031597D03*
X032303Y014750D03*
X032983Y014750D03*
X034101Y014650D03*
X034781Y014650D03*
X034781Y015600D03*
X034101Y015600D03*
X034101Y016500D03*
X034781Y016500D03*
X032983Y013750D03*
X032303Y013750D03*
X031633Y013750D03*
X030953Y013750D03*
X032851Y009600D03*
X033531Y009600D03*
X039606Y017250D03*
X040286Y017250D03*
X041353Y030803D03*
X042033Y030803D03*
X042033Y031553D03*
X041353Y031553D03*
D26*
X051501Y021197D03*
X052485Y021197D03*
D27*
X033801Y010910D03*
X033801Y010650D03*
X033801Y010390D03*
X032981Y010390D03*
X032981Y010910D03*
D28*
X035291Y011060D03*
X035291Y010240D03*
X035191Y012290D03*
X035191Y013110D03*
X035093Y017540D03*
X035093Y018360D03*
X029143Y018357D03*
X029143Y017537D03*
D29*
X031831Y013080D03*
X031831Y012830D03*
X031831Y012570D03*
X031831Y012320D03*
X033551Y012320D03*
X033551Y012570D03*
X033551Y012830D03*
X033551Y013080D03*
D30*
X032093Y019744D03*
X031193Y019744D03*
X031193Y021161D03*
X032093Y021161D03*
D31*
X015528Y030217D03*
X014543Y030217D03*
X013559Y030217D03*
X011230Y030217D03*
X010246Y030217D03*
X009262Y030217D03*
D32*
X025494Y029084D03*
X026494Y029084D03*
X027494Y029084D03*
D33*
X028665Y029850D03*
X028665Y031350D03*
X024827Y031350D03*
X024827Y029850D03*
D34*
X039560Y018721D03*
X039560Y018347D03*
X039560Y017973D03*
X040426Y017973D03*
X040426Y018347D03*
X040426Y018721D03*
D35*
X041343Y017995D03*
X043343Y017995D03*
D36*
X042343Y021875D03*
D37*
X044793Y030100D03*
X038593Y030100D03*
X032393Y030100D03*
X050993Y030100D03*
X030993Y002500D03*
D38*
X028981Y002960D03*
X033006Y002960D03*
X034406Y029640D03*
X036581Y029640D03*
X040606Y029640D03*
X042781Y029640D03*
X046806Y029640D03*
X048981Y029640D03*
X053006Y029640D03*
X030381Y029640D03*
D39*
X042096Y017950D03*
X037693Y014647D03*
X029841Y015000D03*
X029541Y011000D03*
D40*
X032836Y023430D03*
X032836Y024170D03*
X033856Y024170D03*
X033856Y023800D03*
X033856Y023430D03*
D41*
X047321Y014360D03*
X047321Y013450D03*
X047321Y012540D03*
D42*
X049761Y013450D03*
D43*
X009293Y021000D03*
X008693Y021000D03*
X008693Y022000D03*
X009293Y022000D03*
X009293Y023000D03*
X008693Y023000D03*
X008693Y024000D03*
X009293Y024000D03*
D44*
X034919Y024870D03*
X035667Y024870D03*
X035293Y025736D03*
D45*
X023893Y006070D03*
X022243Y006070D03*
X020593Y006070D03*
D46*
X020443Y030050D03*
X021923Y030050D03*
X018963Y030050D03*
D47*
X017928Y031230D03*
X022958Y031230D03*
D48*
X044293Y008420D03*
X051793Y008420D03*
X051793Y002200D03*
X044293Y002200D03*
D49*
X035793Y005850D02*
X034343Y004400D01*
X031593Y004400D01*
X030993Y003800D01*
X030993Y002500D01*
X031093Y001750D02*
X030993Y001650D01*
X020043Y001650D01*
X019693Y002000D01*
X019693Y006900D01*
X023493Y010700D01*
X027493Y010700D01*
X028093Y011300D01*
X029541Y011000D02*
X029541Y010153D01*
X029543Y010150D01*
X030791Y010721D02*
X030791Y011510D01*
X030791Y012190D02*
X031283Y012190D01*
X031293Y012200D01*
X031831Y012270D02*
X031831Y012320D01*
X031831Y012270D02*
X031843Y012257D01*
X031811Y012550D02*
X032293Y012550D01*
X032393Y012450D01*
X032393Y011010D01*
X032493Y010910D01*
X032943Y010910D02*
X032981Y010910D01*
X032981Y010390D02*
X032981Y010150D01*
X033531Y009600D01*
X032851Y009600D02*
X032830Y009579D01*
X031291Y009579D01*
X031791Y010721D02*
X031980Y010910D01*
X031811Y012550D02*
X031831Y012570D01*
X031831Y012830D02*
X032193Y012830D01*
X032293Y012930D01*
X032293Y012950D01*
X032303Y012960D01*
X032303Y013750D01*
X031633Y013750D01*
X032263Y013710D02*
X032303Y013750D01*
X032903Y013750D02*
X032983Y013750D01*
X032983Y014750D01*
X032983Y014960D01*
X032643Y015300D01*
X032093Y015300D01*
X031793Y015600D01*
X029843Y015600D01*
X029841Y015597D01*
X029841Y015000D01*
X031117Y016000D02*
X031993Y016000D01*
X032443Y015550D01*
X032943Y015550D01*
X033543Y014950D01*
X033543Y014450D01*
X034043Y013950D01*
X037343Y013950D01*
X037693Y014300D01*
X037693Y014647D01*
X037693Y017797D01*
X038243Y018347D01*
X039560Y018347D01*
X039606Y017250D02*
X040106Y016750D01*
X040943Y016750D01*
X041343Y017150D01*
X041343Y017800D01*
X041493Y017950D01*
X042096Y017950D01*
X041343Y017995D02*
X041343Y017800D01*
X036143Y019600D02*
X035743Y019200D01*
X033364Y019200D01*
X033164Y019000D01*
X033164Y018500D01*
X033164Y018000D02*
X032193Y018000D01*
X032143Y017950D01*
X032143Y019694D01*
X032093Y019744D01*
X032669Y019744D01*
X032993Y020068D01*
X032993Y020513D01*
X032993Y021193D02*
X032993Y021750D01*
X032643Y022100D01*
X031484Y022100D01*
X031093Y022491D01*
X031093Y023300D01*
X029543Y024850D01*
X031993Y024829D02*
X031993Y024860D01*
X032146Y024860D01*
X031993Y024829D02*
X032653Y024170D01*
X032836Y024170D01*
X032655Y024450D02*
X032443Y024662D01*
X032443Y025350D01*
X032593Y025500D01*
X032853Y025500D01*
X032893Y025540D01*
X032893Y028250D01*
X032893Y028300D01*
X044223Y028300D01*
X044793Y028870D01*
X044793Y030100D01*
X045793Y031250D02*
X045443Y031600D01*
X042081Y031600D01*
X042033Y031553D01*
X041353Y031553D02*
X041353Y030803D01*
X042033Y030803D02*
X042491Y030803D01*
X042493Y030800D01*
X045793Y031250D02*
X045793Y028200D01*
X045393Y027800D01*
X035693Y027800D01*
X035293Y027400D01*
X035293Y025736D01*
X034919Y024870D02*
X034946Y024843D01*
X034946Y024140D01*
X034946Y023460D02*
X034916Y023430D01*
X033856Y023430D01*
X033343Y023100D02*
X033643Y022800D01*
X033643Y020300D01*
X032493Y019150D01*
X032093Y019744D02*
X031193Y019744D01*
X030793Y019000D02*
X030243Y019550D01*
X030243Y019650D01*
X030793Y019000D02*
X031117Y019000D01*
X031117Y018500D01*
X031117Y018000D02*
X030967Y017850D01*
X028393Y017850D01*
X027893Y017050D02*
X028443Y016500D01*
X031117Y016500D01*
X031117Y017000D02*
X031843Y017000D01*
X032143Y017300D01*
X032143Y017950D01*
X033164Y016500D02*
X034101Y016500D01*
X034101Y016280D01*
X034781Y015600D01*
X034781Y014650D01*
X034101Y014650D02*
X034093Y014643D01*
X034093Y014550D01*
X034101Y014650D02*
X034101Y015600D01*
X034093Y015607D01*
X034093Y015900D01*
X034014Y015979D01*
X033143Y015979D01*
X033164Y016000D01*
X032693Y016000D01*
X032493Y016200D01*
X034051Y016550D02*
X034101Y016500D01*
X032303Y014750D02*
X031893Y014750D01*
X030953Y013750D02*
X030543Y013750D01*
X032983Y013750D02*
X032983Y012670D01*
X033083Y012570D01*
X033551Y012570D01*
X034391Y013040D02*
X034393Y013043D01*
X034393Y013050D01*
X035193Y012300D02*
X035191Y012297D01*
X035191Y012290D01*
X035291Y011060D02*
X035293Y011057D01*
X035293Y011050D01*
X034491Y010310D02*
X034491Y010303D01*
X034493Y010300D01*
X027893Y017050D02*
X027893Y027300D01*
X027093Y028100D01*
X010946Y028100D01*
X010246Y028800D01*
X010246Y030217D01*
X009262Y030217D02*
X009262Y028550D01*
X009962Y027850D01*
X022993Y027850D01*
X023493Y027350D01*
X023493Y010700D01*
X036143Y019600D02*
X036143Y027000D01*
X036543Y027400D01*
X049572Y027400D01*
X050993Y028821D01*
X050993Y030100D01*
X038593Y029350D02*
X038593Y028750D01*
X035667Y024870D02*
X035667Y024424D01*
X035693Y024350D01*
X033793Y024860D02*
X032893Y024860D01*
X032655Y024450D02*
X033243Y024450D01*
X033343Y024350D01*
X033343Y023100D01*
X032093Y021600D02*
X032093Y021161D01*
X031193Y021161D02*
X031193Y021600D01*
X032893Y028300D02*
X011930Y028300D01*
X011230Y029000D01*
X011230Y030217D01*
X013559Y030217D02*
X013559Y029200D01*
X014259Y028500D01*
X032193Y028500D01*
X032393Y028700D01*
X032393Y030100D01*
X028593Y028900D02*
X026893Y030600D01*
X024643Y030600D01*
X023193Y029150D01*
X021143Y029150D01*
X020443Y029850D01*
X020443Y030050D01*
X019933Y029230D02*
X020263Y028900D01*
X024643Y028900D01*
X025393Y029650D01*
X026243Y029650D01*
X026493Y029400D01*
X026493Y029085D01*
X026494Y029084D01*
X025494Y029084D02*
X025110Y028700D01*
X015243Y028700D01*
X014543Y029400D01*
X014543Y030217D01*
X015493Y030183D02*
X015493Y030100D01*
X016143Y029450D01*
X016293Y029450D01*
X018963Y029690D02*
X018963Y030050D01*
X018963Y029690D02*
X019253Y029400D01*
X027494Y029084D02*
X027909Y029084D01*
X028093Y028900D01*
X020393Y022850D02*
X020393Y022257D01*
X020401Y022250D01*
X020393Y022243D02*
X020393Y020450D01*
X019920Y019976D01*
X018743Y019976D01*
D50*
X018243Y020850D03*
X017593Y023300D03*
X017593Y024000D03*
X018043Y024550D03*
X018893Y024550D03*
X019193Y023250D03*
X029543Y010150D03*
X018243Y009900D03*
X046193Y015600D03*
X047093Y015400D03*
X049343Y011550D03*
X047393Y010900D03*
X051443Y019550D03*
X050993Y019750D03*
X050543Y019750D03*
X050543Y020250D03*
X050993Y020250D03*
X050993Y020750D03*
X050543Y020750D03*
X050543Y021250D03*
X050993Y021250D03*
X050993Y021750D03*
X050543Y021750D03*
X050543Y022250D03*
X050993Y022250D03*
X050993Y022750D03*
X050543Y022750D03*
X051493Y022850D03*
D51*
X052485Y021742D02*
X052485Y021197D01*
X051501Y021197D02*
X051448Y021250D01*
X047646Y015400D02*
X047093Y015400D01*
X046193Y015600D02*
X046193Y015140D01*
X046193Y014460D02*
X047221Y014460D01*
X047321Y014360D01*
X046193Y014460D02*
X046193Y013793D01*
X046193Y013113D02*
X046193Y012850D01*
X046493Y012550D01*
X047331Y012550D01*
X047321Y012540D01*
X047321Y011550D01*
X047396Y011550D01*
X047396Y010900D01*
X047393Y010900D01*
X048696Y011550D02*
X049343Y011550D01*
X047593Y012550D02*
X047331Y012550D01*
X042366Y011428D02*
X042366Y010820D01*
X042366Y011428D02*
X042343Y011450D01*
X041393Y010792D02*
X041366Y010820D01*
X041073Y010820D01*
X040693Y011200D01*
X040301Y011200D01*
X040293Y011193D01*
X040286Y011200D01*
X039843Y011200D01*
X039493Y010850D01*
X039196Y010850D01*
X040293Y010513D02*
X040743Y010500D01*
X040293Y011193D02*
X040293Y011907D01*
X040293Y012587D02*
X040293Y013200D01*
X040443Y013350D01*
X042366Y014650D02*
X042543Y014472D01*
X042543Y014450D01*
X039606Y017250D02*
X038981Y017250D01*
X038943Y017213D01*
X038943Y017893D02*
X038993Y017943D01*
X039530Y017943D01*
X039560Y017973D01*
X038993Y017943D02*
X038493Y017950D01*
X039093Y018750D02*
X039531Y018750D01*
X039560Y018721D01*
X035793Y017550D02*
X035793Y017540D01*
X035093Y017540D01*
X034243Y017540D01*
X034143Y017510D01*
X034143Y018190D02*
X034143Y018600D01*
X035093Y018800D02*
X035093Y018360D01*
X031117Y017500D02*
X030543Y017500D01*
X030093Y017510D01*
X029171Y017510D01*
X029143Y017537D01*
X029093Y017537D02*
X029093Y017100D01*
X030093Y017100D02*
X030093Y017510D01*
X030093Y018190D02*
X030093Y018200D01*
X029293Y018200D01*
X029143Y018350D01*
X028593Y018350D01*
X029143Y018357D02*
X029143Y018800D01*
X030093Y018600D02*
X030093Y018200D01*
X029093Y017550D02*
X028593Y017550D01*
X034393Y013450D02*
X034393Y013050D01*
X034391Y013040D02*
X034181Y012830D01*
X033943Y012830D01*
X034391Y013040D02*
X034461Y013110D01*
X035191Y013110D01*
X035193Y013100D02*
X035743Y013100D01*
X035193Y013100D02*
X035193Y013550D01*
X035193Y012350D02*
X035193Y012300D01*
X035093Y012300D01*
X035191Y012290D02*
X034461Y012290D01*
X034391Y012360D01*
X034393Y012300D02*
X034393Y011950D01*
X034493Y011400D02*
X034493Y011000D01*
X034491Y010990D02*
X034451Y010950D01*
X034491Y010990D02*
X034561Y011060D01*
X035291Y011060D01*
X035293Y011050D02*
X035293Y011500D01*
X035193Y011850D02*
X035193Y012300D01*
X035743Y012300D01*
X035843Y011100D02*
X035343Y011100D01*
X035291Y010240D02*
X034561Y010240D01*
X034491Y010310D01*
X034493Y010300D02*
X034493Y009900D01*
X035293Y009800D02*
X035293Y010200D01*
X035843Y010200D01*
X037193Y010850D02*
X037896Y010850D01*
X032981Y010910D02*
X032493Y010910D01*
X031980Y010910D01*
X031791Y010721D02*
X031791Y010647D01*
X031293Y010150D01*
X029543Y010150D01*
X031843Y012000D02*
X031843Y012257D01*
X018703Y018897D02*
X018243Y019357D01*
X018243Y019976D01*
X018243Y020850D01*
X017743Y019976D02*
X017883Y019836D01*
X017883Y018897D01*
X018743Y022024D02*
X018743Y023143D01*
X018733Y023153D01*
X018831Y023250D01*
X019193Y023250D01*
X018903Y023953D02*
X018893Y023963D01*
X018893Y024550D01*
X018043Y024550D02*
X018043Y024000D01*
X018036Y024000D02*
X017593Y024000D01*
X018036Y024000D02*
X018083Y023953D01*
X018053Y023153D02*
X017741Y023153D01*
X017593Y023300D01*
X031543Y024150D02*
X031993Y024140D01*
X031993Y023460D02*
X032023Y023430D01*
X032836Y023430D01*
X031993Y023460D02*
X031993Y023050D01*
D52*
X018243Y022500D02*
X018243Y022024D01*
X018243Y022500D02*
X018043Y022700D01*
X017743Y022550D02*
X016493Y023800D01*
X016493Y026003D01*
X016541Y026050D01*
X016043Y026700D02*
X016043Y023900D01*
X017243Y022700D01*
X017243Y022024D01*
X017743Y022024D02*
X017743Y022550D01*
X016293Y022000D02*
X009293Y022000D01*
X009293Y021000D01*
X009293Y022000D02*
X009293Y023000D01*
X009293Y024000D01*
X007541Y020000D02*
X017220Y020000D01*
X016043Y026700D02*
X016393Y027050D01*
X016541Y027050D01*
D53*
X016293Y029450D03*
X006943Y030700D03*
X006943Y031600D03*
X018043Y022700D03*
X016293Y022000D03*
X020393Y022850D03*
X022893Y022250D03*
X028593Y018350D03*
X029143Y018800D03*
X030093Y018600D03*
X030243Y019650D03*
X032493Y019150D03*
X034143Y018600D03*
X035093Y018800D03*
X035793Y017550D03*
X035193Y016500D03*
X032493Y016200D03*
X031893Y014750D03*
X030543Y013750D03*
X031293Y012200D03*
X031843Y012000D03*
X034393Y011950D03*
X034493Y011400D03*
X035293Y011500D03*
X035193Y011850D03*
X035743Y012300D03*
X035743Y013100D03*
X035193Y013550D03*
X034393Y013450D03*
X035843Y011100D03*
X035843Y010200D03*
X035293Y009800D03*
X034493Y009900D03*
X028093Y011300D03*
X029843Y015600D03*
X030093Y017100D03*
X029093Y017100D03*
X028593Y017550D03*
X028393Y017850D03*
X031193Y021600D03*
X032093Y021600D03*
X031993Y023050D03*
X031543Y024150D03*
X030643Y024850D03*
X029543Y024850D03*
X031993Y025950D03*
X034243Y025550D03*
X035693Y024350D03*
X034343Y023800D03*
X038343Y023600D03*
X038343Y023100D03*
X038843Y023100D03*
X038843Y023600D03*
X038843Y024100D03*
X038343Y024100D03*
X038343Y024600D03*
X038343Y025100D03*
X038343Y025600D03*
X038843Y025600D03*
X038843Y025100D03*
X038843Y024600D03*
X039343Y024600D03*
X039343Y025100D03*
X039343Y025600D03*
X039843Y025600D03*
X039843Y025100D03*
X039843Y024600D03*
X040343Y024600D03*
X040343Y025100D03*
X040343Y025600D03*
X040843Y025600D03*
X040843Y025100D03*
X040843Y024600D03*
X041343Y024600D03*
X041343Y025100D03*
X041343Y025600D03*
X041843Y025600D03*
X041843Y025100D03*
X041843Y024600D03*
X042343Y024600D03*
X042343Y025100D03*
X042343Y025600D03*
X042843Y025600D03*
X042843Y025100D03*
X042843Y024600D03*
X043343Y024600D03*
X043343Y025100D03*
X043343Y025600D03*
X043843Y025600D03*
X043843Y025100D03*
X043843Y024600D03*
X044343Y024600D03*
X044343Y025100D03*
X044343Y025600D03*
X044843Y025600D03*
X044843Y025100D03*
X044843Y024600D03*
X045343Y024600D03*
X045343Y025100D03*
X045343Y025600D03*
X045843Y025600D03*
X045843Y025100D03*
X045843Y024600D03*
X046343Y024600D03*
X046343Y025100D03*
X046343Y025600D03*
X046843Y025600D03*
X046843Y025100D03*
X046843Y024600D03*
X047343Y024600D03*
X047343Y025100D03*
X047343Y025600D03*
X047343Y026100D03*
X046843Y026100D03*
X046343Y026100D03*
X045843Y026100D03*
X045343Y026100D03*
X044843Y026100D03*
X044343Y026100D03*
X043843Y026100D03*
X043343Y026100D03*
X042843Y026100D03*
X042343Y026100D03*
X041843Y026100D03*
X041343Y026100D03*
X040843Y026100D03*
X040343Y026100D03*
X039843Y026100D03*
X039343Y026100D03*
X038843Y026100D03*
X038343Y026100D03*
X039343Y024100D03*
X039343Y023600D03*
X039343Y023100D03*
X039843Y023100D03*
X039843Y023600D03*
X039843Y024100D03*
X040343Y024100D03*
X040343Y023600D03*
X040343Y023100D03*
X040843Y023100D03*
X040843Y023600D03*
X040843Y024100D03*
X041343Y024100D03*
X041343Y023600D03*
X041343Y023100D03*
X041843Y023100D03*
X041843Y023600D03*
X041843Y024100D03*
X042343Y024100D03*
X042343Y023600D03*
X042343Y023100D03*
X042843Y023100D03*
X042843Y023600D03*
X042843Y024100D03*
X043343Y024100D03*
X043343Y023600D03*
X043343Y023100D03*
X043843Y023100D03*
X043843Y023600D03*
X043843Y024100D03*
X044343Y024100D03*
X044343Y023600D03*
X044343Y023100D03*
X044843Y023100D03*
X044843Y023600D03*
X044843Y024100D03*
X045343Y024100D03*
X045343Y023600D03*
X045343Y023100D03*
X045843Y023100D03*
X045843Y023600D03*
X045843Y024100D03*
X046343Y024100D03*
X046343Y023600D03*
X046343Y023100D03*
X046843Y023100D03*
X046843Y023600D03*
X046843Y024100D03*
X047343Y024100D03*
X047343Y023600D03*
X047343Y023100D03*
X047343Y022600D03*
X046843Y022600D03*
X046343Y022600D03*
X045843Y022600D03*
X045343Y022600D03*
X044843Y022600D03*
X044343Y022600D03*
X043843Y022600D03*
X043343Y022600D03*
X042843Y022600D03*
X042343Y022600D03*
X041843Y022600D03*
X041343Y022600D03*
X040843Y022600D03*
X040343Y022600D03*
X039843Y022600D03*
X039343Y022600D03*
X038843Y022600D03*
X038343Y022600D03*
X038343Y022100D03*
X038343Y021600D03*
X038843Y021600D03*
X038843Y022100D03*
X039343Y022100D03*
X039343Y021600D03*
X039843Y021600D03*
X039843Y022100D03*
X040343Y022100D03*
X040343Y021600D03*
X040843Y021600D03*
X040843Y022100D03*
X041343Y022100D03*
X041343Y021600D03*
X041843Y021600D03*
X041843Y022100D03*
X042343Y022100D03*
X042343Y021600D03*
X042843Y021600D03*
X042843Y022100D03*
X043343Y022100D03*
X043343Y021600D03*
X043843Y021600D03*
X043843Y022100D03*
X044343Y022100D03*
X044343Y021600D03*
X044843Y021600D03*
X044843Y022100D03*
X045343Y022100D03*
X045343Y021600D03*
X045843Y021600D03*
X045843Y022100D03*
X046343Y022100D03*
X046343Y021600D03*
X046843Y021600D03*
X046843Y022100D03*
X047343Y022100D03*
X047343Y021600D03*
X047343Y021100D03*
X046843Y021100D03*
X046343Y021100D03*
X045843Y021100D03*
X045343Y021100D03*
X044843Y021100D03*
X044343Y021100D03*
X043843Y021100D03*
X043343Y021100D03*
X042843Y021100D03*
X042343Y021100D03*
X041843Y021100D03*
X041343Y021100D03*
X040843Y021100D03*
X040343Y021100D03*
X039843Y021100D03*
X039343Y021100D03*
X038843Y021100D03*
X038343Y021100D03*
X038343Y020600D03*
X038343Y020100D03*
X038843Y020100D03*
X038843Y020600D03*
X039343Y020600D03*
X039343Y020100D03*
X039843Y020100D03*
X039843Y020600D03*
X040343Y020600D03*
X040343Y020100D03*
X040843Y020100D03*
X040843Y020600D03*
X041343Y020600D03*
X041343Y020100D03*
X041843Y020100D03*
X041843Y020600D03*
X042343Y020600D03*
X042343Y020100D03*
X042843Y020100D03*
X042843Y020600D03*
X043343Y020600D03*
X043343Y020100D03*
X043843Y020100D03*
X043843Y020600D03*
X044343Y020600D03*
X044343Y020100D03*
X044843Y020100D03*
X044843Y020600D03*
X045343Y020600D03*
X045343Y020100D03*
X045843Y020100D03*
X045843Y020600D03*
X046343Y020600D03*
X046343Y020100D03*
X046843Y020100D03*
X046843Y020600D03*
X047343Y020600D03*
X047343Y020100D03*
X047343Y019600D03*
X046843Y019600D03*
X046343Y019600D03*
X045843Y019600D03*
X045343Y019600D03*
X044843Y019600D03*
X044343Y019600D03*
X043843Y019600D03*
X043343Y019600D03*
X042843Y019600D03*
X042343Y019600D03*
X041843Y019600D03*
X041343Y019600D03*
X040843Y019600D03*
X040343Y019600D03*
X039843Y019600D03*
X039343Y019600D03*
X038843Y019600D03*
X038343Y019600D03*
X039093Y018750D03*
X038493Y017950D03*
X040543Y016450D03*
X041043Y016450D03*
X041543Y016450D03*
X042043Y016450D03*
X042543Y016450D03*
X043043Y016450D03*
X043543Y016450D03*
X044043Y016450D03*
X044043Y015950D03*
X043543Y015950D03*
X043043Y015950D03*
X042543Y015950D03*
X042043Y015950D03*
X041543Y015950D03*
X041043Y015950D03*
X040543Y015950D03*
X040543Y015450D03*
X040543Y014950D03*
X041043Y014950D03*
X041043Y015450D03*
X041543Y015450D03*
X041543Y014950D03*
X042043Y014950D03*
X042043Y015450D03*
X042543Y015450D03*
X042543Y014950D03*
X043043Y014950D03*
X043043Y015450D03*
X043543Y015450D03*
X043543Y014950D03*
X044043Y014950D03*
X044043Y015450D03*
X044043Y014450D03*
X043543Y014450D03*
X043043Y014450D03*
X042543Y014450D03*
X042043Y014450D03*
X041543Y014450D03*
X041043Y014450D03*
X040543Y014450D03*
X040543Y013950D03*
X041043Y013950D03*
X041043Y013450D03*
X041543Y013450D03*
X041543Y013950D03*
X042043Y013950D03*
X042043Y013450D03*
X042543Y013450D03*
X042543Y013950D03*
X043043Y013950D03*
X043043Y013450D03*
X043543Y013450D03*
X043543Y013950D03*
X044043Y013950D03*
X044043Y013450D03*
X045993Y012400D03*
X045993Y011900D03*
X045993Y011400D03*
X046493Y011400D03*
X046493Y011900D03*
X047993Y011900D03*
X047993Y011400D03*
X047993Y010900D03*
X047993Y012400D03*
X047993Y012900D03*
X047993Y013400D03*
X047993Y013900D03*
X047993Y014400D03*
X042343Y011450D03*
X040743Y010500D03*
X040443Y013350D03*
X038593Y028750D03*
X042493Y030800D03*
X028593Y028900D03*
X028093Y028900D03*
D54*
X036643Y026550D02*
X036643Y017400D01*
X036243Y017000D01*
X033164Y017000D01*
X039641Y008950D02*
X039641Y008947D01*
X039543Y008850D01*
X038993Y008850D01*
X052443Y021239D02*
X052443Y021900D01*
X052443Y026350D01*
X051843Y026950D01*
X037043Y026950D01*
X036643Y026550D01*
X017883Y018897D02*
X017883Y010300D01*
X018283Y009900D01*
X018243Y009900D01*
X017643Y009150D02*
X017643Y008397D01*
X016343Y008397D02*
X016343Y009150D01*
X016343Y008397D02*
X016293Y008347D01*
D55*
X030993Y002500D02*
X031093Y002400D01*
X031093Y001750D01*
X031093Y001700D01*
X030993Y001600D01*
X034491Y010310D02*
X034491Y010350D01*
X034191Y010650D01*
X033801Y010650D01*
X033801Y010910D02*
X034411Y010910D01*
X034491Y010990D01*
X033943Y012830D02*
X033551Y012830D01*
X034781Y016500D02*
X035193Y016500D01*
X034243Y017500D02*
X034143Y017510D01*
X034243Y017500D02*
X033164Y017500D01*
X039560Y018347D02*
X039991Y018347D01*
X039993Y018350D01*
X039560Y018347D02*
X040426Y018347D01*
X040453Y018000D02*
X040426Y017973D01*
X040286Y017833D01*
X040286Y017250D01*
X040453Y018000D02*
X040743Y018000D01*
X040793Y018050D01*
X040793Y018650D01*
X040722Y018721D01*
X040426Y018721D01*
X052443Y021239D02*
X052485Y021197D01*
D56*
X037193Y010850D03*
X038993Y008850D03*
X024293Y018000D03*
X024293Y019000D03*
X017643Y009150D03*
X016343Y009150D03*
X015793Y006750D03*
X018193Y006750D03*
X018193Y003200D03*
X015793Y003150D03*
D57*
X015793Y003149D01*
X015793Y002453D01*
X018194Y002453D02*
X018194Y003199D01*
X018193Y003200D01*
X015793Y005950D02*
X015793Y006002D01*
X015793Y006003D01*
X015793Y006002D02*
X015793Y006750D01*
X018193Y006750D02*
X018194Y006749D01*
X018194Y006003D01*
X024293Y018000D02*
X024933Y018000D01*
X025753Y018000D02*
X026541Y018000D01*
X026541Y019000D02*
X025753Y019000D01*
X024933Y019000D02*
X024293Y019000D01*
X043393Y013800D02*
X043393Y013750D01*
X043443Y013700D01*
X044493Y013700D01*
X044741Y013453D01*
X044741Y012287D01*
X043366Y010820D02*
X043393Y010792D01*
X043393Y013800D02*
X043543Y013950D01*
D58*
X009493Y001500D03*
X012243Y001500D03*
X053743Y025250D03*
D59*
X052793Y022700D02*
X052443Y021900D01*
X046393Y011650D02*
X046343Y011600D01*
X046343Y011050D01*
X046643Y011250D02*
X046493Y011400D01*
X046643Y011250D02*
X046743Y011250D01*
X046793Y011250D01*
X046743Y011250D02*
X046743Y009350D01*
X046043Y008650D01*
X042243Y009000D02*
X042193Y008950D01*
X040941Y008950D01*
X035243Y008050D02*
X034943Y007750D01*
X034593Y007750D01*
X034293Y008050D01*
X034243Y008050D01*
X031243Y008050D02*
X031243Y007050D01*
X031093Y007150D02*
X030293Y007150D01*
X030993Y007850D01*
X031093Y007850D01*
X030993Y007950D01*
X030743Y007950D01*
X030243Y007450D01*
X030243Y007050D01*
X030243Y008050D01*
X031243Y008050D01*
X030943Y007400D02*
X031143Y007200D01*
X031093Y007150D01*
X030943Y007400D02*
X025043Y007400D01*
X023893Y006250D01*
X023893Y006070D01*
X020593Y006070D02*
X020593Y006050D01*
X038793Y004850D02*
X038793Y003300D01*
D60*
X046043Y008650D03*
D61*
X044743Y010250D02*
X044741Y010253D01*
X044741Y010713D01*
X043493Y010250D02*
X043366Y010378D01*
X043366Y010820D01*
X035243Y008050D02*
X035243Y007050D01*
X034243Y007050D02*
X034243Y008050D01*
D62*
X034593Y007750D02*
X041684Y007750D01*
X042243Y008309D01*
X042243Y009000D01*
X043493Y010250D01*
X044743Y010250D01*
X044293Y008420D02*
X044293Y008400D01*
X046368Y006325D01*
X046418Y006325D01*
X045093Y005000D01*
X044243Y005000D01*
X040993Y005000D01*
X039293Y002800D02*
X038793Y003300D01*
X039293Y002800D02*
X042893Y002800D01*
X043643Y003550D01*
X050443Y003550D01*
X051793Y002200D01*
X046418Y006325D02*
X052793Y012700D01*
X052793Y022700D01*
X044543Y017950D02*
X044093Y017950D01*
X034593Y007750D02*
X034593Y006100D01*
X033993Y005500D01*
X028743Y005500D01*
X027793Y004550D01*
X021393Y004550D01*
X020593Y005350D01*
X020593Y006050D01*
X044243Y005000D02*
X044343Y005000D01*
D63*
X043893Y005005D02*
X039393Y005005D01*
X039393Y005063D02*
X043893Y005063D01*
X043893Y005122D02*
X039393Y005122D01*
X039393Y005180D02*
X043893Y005180D01*
X043893Y005239D02*
X039393Y005239D01*
X039393Y005297D02*
X043893Y005297D01*
X043893Y005356D02*
X039393Y005356D01*
X039393Y005414D02*
X043893Y005414D01*
X043893Y005450D02*
X043893Y004500D01*
X040993Y004500D01*
X040593Y004100D01*
X039393Y004100D01*
X039393Y006200D01*
X040293Y006200D01*
X040993Y005500D01*
X043843Y005500D01*
X043893Y005450D01*
X043871Y005473D02*
X039393Y005473D01*
X039393Y005531D02*
X040962Y005531D01*
X040904Y005590D02*
X039393Y005590D01*
X039393Y005648D02*
X040845Y005648D01*
X040787Y005707D02*
X039393Y005707D01*
X039393Y005765D02*
X040728Y005765D01*
X040670Y005824D02*
X039393Y005824D01*
X039393Y005882D02*
X040611Y005882D01*
X040553Y005941D02*
X039393Y005941D01*
X039393Y005999D02*
X040494Y005999D01*
X040436Y006058D02*
X039393Y006058D01*
X039393Y006116D02*
X040377Y006116D01*
X040319Y006175D02*
X039393Y006175D01*
X039243Y006175D02*
X038343Y006175D01*
X038343Y006200D02*
X039243Y006200D01*
X039243Y003550D01*
X038343Y003550D01*
X038343Y006200D01*
X038343Y006116D02*
X039243Y006116D01*
X039243Y006058D02*
X038343Y006058D01*
X038343Y005999D02*
X039243Y005999D01*
X039243Y005941D02*
X038343Y005941D01*
X038343Y005882D02*
X039243Y005882D01*
X039243Y005824D02*
X038343Y005824D01*
X038343Y005765D02*
X039243Y005765D01*
X039243Y005707D02*
X038343Y005707D01*
X038343Y005648D02*
X039243Y005648D01*
X039243Y005590D02*
X038343Y005590D01*
X038343Y005531D02*
X039243Y005531D01*
X039243Y005473D02*
X038343Y005473D01*
X038343Y005414D02*
X039243Y005414D01*
X039243Y005356D02*
X038343Y005356D01*
X038343Y005297D02*
X039243Y005297D01*
X039243Y005239D02*
X038343Y005239D01*
X038343Y005180D02*
X039243Y005180D01*
X039243Y005122D02*
X038343Y005122D01*
X038343Y005063D02*
X039243Y005063D01*
X039243Y005005D02*
X038343Y005005D01*
X038343Y004946D02*
X039243Y004946D01*
X039243Y004888D02*
X038343Y004888D01*
X038343Y004829D02*
X039243Y004829D01*
X039243Y004771D02*
X038343Y004771D01*
X038343Y004712D02*
X039243Y004712D01*
X039243Y004654D02*
X038343Y004654D01*
X038343Y004595D02*
X039243Y004595D01*
X039243Y004537D02*
X038343Y004537D01*
X038343Y004478D02*
X039243Y004478D01*
X039243Y004420D02*
X038343Y004420D01*
X038343Y004361D02*
X039243Y004361D01*
X039243Y004303D02*
X038343Y004303D01*
X038343Y004244D02*
X039243Y004244D01*
X039243Y004186D02*
X038343Y004186D01*
X038343Y004127D02*
X039243Y004127D01*
X039243Y004069D02*
X038343Y004069D01*
X038343Y004010D02*
X039243Y004010D01*
X039243Y003952D02*
X038343Y003952D01*
X038343Y003893D02*
X039243Y003893D01*
X039243Y003835D02*
X038343Y003835D01*
X038343Y003776D02*
X039243Y003776D01*
X039243Y003718D02*
X038343Y003718D01*
X038343Y003659D02*
X039243Y003659D01*
X039243Y003601D02*
X038343Y003601D01*
X039393Y004127D02*
X040620Y004127D01*
X040679Y004186D02*
X039393Y004186D01*
X039393Y004244D02*
X040737Y004244D01*
X040796Y004303D02*
X039393Y004303D01*
X039393Y004361D02*
X040854Y004361D01*
X040913Y004420D02*
X039393Y004420D01*
X039393Y004478D02*
X040971Y004478D01*
X039393Y004537D02*
X043893Y004537D01*
X043893Y004595D02*
X039393Y004595D01*
X039393Y004654D02*
X043893Y004654D01*
X043893Y004712D02*
X039393Y004712D01*
X039393Y004771D02*
X043893Y004771D01*
X043893Y004829D02*
X039393Y004829D01*
X039393Y004888D02*
X043893Y004888D01*
X043893Y004946D02*
X039393Y004946D01*
X043093Y017300D02*
X044843Y017300D01*
X044843Y018650D01*
X043093Y018650D01*
X043093Y017300D01*
X043093Y017348D02*
X044843Y017348D01*
X044843Y017407D02*
X043093Y017407D01*
X043093Y017465D02*
X044843Y017465D01*
X044843Y017524D02*
X043093Y017524D01*
X043093Y017582D02*
X044843Y017582D01*
X044843Y017641D02*
X043093Y017641D01*
X043093Y017699D02*
X044843Y017699D01*
X044843Y017758D02*
X043093Y017758D01*
X043093Y017816D02*
X044843Y017816D01*
X044843Y017875D02*
X043093Y017875D01*
X043093Y017933D02*
X044843Y017933D01*
X044843Y017992D02*
X043093Y017992D01*
X043093Y018050D02*
X044843Y018050D01*
X044843Y018109D02*
X043093Y018109D01*
X043093Y018167D02*
X044843Y018167D01*
X044843Y018226D02*
X043093Y018226D01*
X043093Y018284D02*
X044843Y018284D01*
X044843Y018343D02*
X043093Y018343D01*
X043093Y018401D02*
X044843Y018401D01*
X044843Y018460D02*
X043093Y018460D01*
X043093Y018518D02*
X044843Y018518D01*
X044843Y018577D02*
X043093Y018577D01*
X043093Y018635D02*
X044843Y018635D01*
D64*
X044543Y017950D03*
D65*
X044243Y005000D03*
M02*
