G75*
%MOIN*%
%OFA0B0*%
%FSLAX24Y24*%
%IPPOS*%
%LPD*%
%AMOC8*
5,1,8,0,0,1.08239X$1,22.5*
%
%ADD10R,0.0866X0.0236*%
%ADD11R,0.0512X0.0630*%
%ADD12R,0.0787X0.0630*%
%ADD13OC8,0.0660*%
%ADD14OC8,0.0700*%
%ADD15R,0.0700X0.0700*%
%ADD16R,0.0420X0.0850*%
%ADD17C,0.0100*%
%ADD18R,0.1280X0.2540*%
%ADD19R,0.0984X0.0906*%
%ADD20R,0.0420X0.0350*%
%ADD21R,0.0480X0.0740*%
%ADD22R,0.0740X0.0480*%
%ADD23R,0.0630X0.1575*%
%ADD24R,0.0600X0.0380*%
%ADD25R,0.0350X0.0420*%
%ADD26R,0.1654X0.1457*%
%ADD27R,0.0460X0.0140*%
%ADD28R,0.0590X0.0170*%
%ADD29R,0.0480X0.0360*%
%ADD30R,0.0472X0.0984*%
%ADD31R,0.0276X0.0669*%
%ADD32R,0.0610X0.0433*%
%ADD33R,0.0417X0.0256*%
%ADD34R,0.0500X0.1350*%
%ADD35R,0.4200X0.3550*%
%ADD36R,0.1000X0.2300*%
%ADD37OC8,0.1210*%
%ADD38C,0.0630*%
%ADD39R,0.0500X0.0220*%
%ADD40R,0.0880X0.0480*%
%ADD41R,0.0866X0.1417*%
%ADD42R,0.0460X0.0630*%
%ADD43R,0.0394X0.0551*%
%ADD44OC8,0.1065*%
%ADD45OC8,0.0531*%
%ADD46OC8,0.0472*%
%ADD47OC8,0.0945*%
%ADD48C,0.0120*%
%ADD49C,0.0270*%
%ADD50C,0.0240*%
%ADD51C,0.0160*%
%ADD52C,0.0070*%
%ADD53C,0.0050*%
%ADD54C,0.0320*%
%ADD55C,0.0376*%
%ADD56C,0.0531*%
%ADD57C,0.0400*%
%ADD58OC8,0.0886*%
%ADD59C,0.0500*%
%ADD60C,0.1200*%
%ADD61C,0.0650*%
%ADD62C,0.0660*%
%ADD63C,0.0060*%
%ADD64C,0.1000*%
%ADD65C,0.0560*%
%ADD66C,0.0240*%
D10*
X031117Y021225D03*
X031117Y021725D03*
X031117Y022225D03*
X031117Y022725D03*
X031117Y023225D03*
X031117Y023725D03*
X031117Y024225D03*
X033164Y024225D03*
X033164Y023725D03*
X033164Y023225D03*
X033164Y022725D03*
X033164Y022225D03*
X033164Y021725D03*
X033164Y021225D03*
X020817Y026775D03*
X020817Y027275D03*
X020817Y027775D03*
X020817Y028275D03*
X018770Y028275D03*
X018770Y027775D03*
X018770Y027275D03*
X018770Y026775D03*
D11*
X030791Y015946D03*
X031791Y015946D03*
D12*
X031291Y014804D03*
D13*
X031243Y013275D03*
X030243Y013275D03*
X030243Y012275D03*
X031243Y012275D03*
X032243Y012275D03*
X032243Y013275D03*
X033243Y013275D03*
X033243Y012275D03*
X034243Y012275D03*
X034243Y013275D03*
X035243Y013275D03*
X035243Y012275D03*
X035343Y010175D03*
X035343Y009175D03*
X036343Y009175D03*
X036343Y010175D03*
X037343Y010175D03*
X038343Y010175D03*
X038343Y009175D03*
X037343Y009175D03*
X039343Y009175D03*
X039343Y010175D03*
X027141Y016725D03*
X027141Y017725D03*
X027141Y018725D03*
X027141Y019725D03*
X027141Y020725D03*
X027141Y021725D03*
X027141Y022725D03*
X027141Y023725D03*
X027141Y025725D03*
X027141Y026725D03*
X027141Y027725D03*
X027141Y028725D03*
X027141Y029725D03*
X027141Y030725D03*
X008141Y030725D03*
X008141Y029725D03*
X008141Y028725D03*
X008141Y027725D03*
X008141Y026725D03*
X008141Y025725D03*
X008141Y024725D03*
X008141Y023725D03*
X008141Y022125D03*
X008141Y021125D03*
X008141Y020125D03*
X008141Y019125D03*
X008141Y018125D03*
X008141Y017125D03*
X008141Y016125D03*
X008141Y015125D03*
X008141Y014125D03*
X008141Y013125D03*
D14*
X017141Y030775D03*
X018141Y030775D03*
X018141Y031775D03*
X017141Y031775D03*
X016141Y031775D03*
D15*
X016141Y030775D03*
D16*
X041366Y016045D03*
X042366Y016045D03*
X043366Y016045D03*
D17*
X045743Y016068D02*
X047105Y016068D01*
X047149Y015962D01*
X047186Y015925D01*
X045743Y015925D01*
X045743Y021375D01*
X050343Y021375D01*
X050343Y016815D01*
X049453Y015925D01*
X047601Y015925D01*
X047638Y015962D01*
X047681Y016068D01*
X047681Y016182D01*
X047638Y016288D01*
X047621Y016305D01*
X047677Y016305D01*
X047736Y016364D01*
X047736Y017186D01*
X047677Y017245D01*
X047541Y017245D01*
X047541Y017425D01*
X047802Y017425D01*
X047861Y017484D01*
X047861Y018046D01*
X047802Y018105D01*
X046839Y018105D01*
X046781Y018046D01*
X046781Y017484D01*
X046839Y017425D01*
X047101Y017425D01*
X047101Y017231D01*
X047056Y017186D01*
X047056Y016364D01*
X047115Y016305D01*
X047166Y016305D01*
X047149Y016288D01*
X047105Y016182D01*
X047105Y016068D01*
X047105Y016166D02*
X045743Y016166D01*
X045743Y016265D02*
X047139Y016265D01*
X047057Y016363D02*
X045743Y016363D01*
X045743Y016462D02*
X047056Y016462D01*
X047056Y016560D02*
X045743Y016560D01*
X045743Y016659D02*
X047056Y016659D01*
X047056Y016757D02*
X045743Y016757D01*
X045743Y016856D02*
X047056Y016856D01*
X047056Y016954D02*
X045743Y016954D01*
X045743Y017053D02*
X047056Y017053D01*
X047056Y017151D02*
X045743Y017151D01*
X045743Y017250D02*
X047101Y017250D01*
X047101Y017348D02*
X045743Y017348D01*
X045743Y017447D02*
X046818Y017447D01*
X046781Y017545D02*
X045743Y017545D01*
X045743Y017644D02*
X046781Y017644D01*
X046781Y017742D02*
X045743Y017742D01*
X045743Y017841D02*
X046781Y017841D01*
X046781Y017939D02*
X045743Y017939D01*
X045743Y018038D02*
X046781Y018038D01*
X046839Y018335D02*
X046781Y018394D01*
X046781Y018956D01*
X046839Y019015D01*
X047802Y019015D01*
X047861Y018956D01*
X047861Y018394D01*
X047802Y018335D01*
X046839Y018335D01*
X046781Y018432D02*
X045743Y018432D01*
X045743Y018530D02*
X046781Y018530D01*
X046781Y018629D02*
X045743Y018629D01*
X045743Y018727D02*
X046781Y018727D01*
X046781Y018826D02*
X045743Y018826D01*
X045743Y018924D02*
X046781Y018924D01*
X046839Y019245D02*
X047802Y019245D01*
X047861Y019304D01*
X047861Y019866D01*
X047802Y019925D01*
X046839Y019925D01*
X046819Y019905D01*
X046500Y019905D01*
X046445Y019960D01*
X045942Y019960D01*
X045883Y019901D01*
X045883Y019469D01*
X045942Y019410D01*
X046445Y019410D01*
X046500Y019465D01*
X046781Y019465D01*
X046781Y019304D01*
X046839Y019245D01*
X046781Y019318D02*
X045743Y019318D01*
X045743Y019220D02*
X050343Y019220D01*
X050343Y019318D02*
X047861Y019318D01*
X047861Y019417D02*
X050343Y019417D01*
X050343Y019515D02*
X047861Y019515D01*
X047861Y019614D02*
X050343Y019614D01*
X050343Y019712D02*
X047861Y019712D01*
X047861Y019811D02*
X050343Y019811D01*
X050343Y019909D02*
X047818Y019909D01*
X047927Y020155D02*
X047986Y020214D01*
X047986Y021036D01*
X047927Y021095D01*
X047365Y021095D01*
X047306Y021036D01*
X047306Y020845D01*
X047281Y020845D01*
X047257Y020869D01*
X047151Y020913D01*
X047036Y020913D01*
X046930Y020869D01*
X046849Y020788D01*
X046805Y020682D01*
X046805Y020568D01*
X046849Y020462D01*
X046930Y020381D01*
X047036Y020337D01*
X047151Y020337D01*
X047257Y020381D01*
X047281Y020405D01*
X047306Y020405D01*
X047306Y020214D01*
X047365Y020155D01*
X047927Y020155D01*
X047977Y020205D02*
X050343Y020205D01*
X050343Y020303D02*
X047986Y020303D01*
X047986Y020402D02*
X050343Y020402D01*
X050343Y020500D02*
X047986Y020500D01*
X047986Y020599D02*
X050343Y020599D01*
X050343Y020697D02*
X047986Y020697D01*
X047986Y020796D02*
X050343Y020796D01*
X050343Y020894D02*
X047986Y020894D01*
X047986Y020993D02*
X050343Y020993D01*
X050343Y021091D02*
X047931Y021091D01*
X047361Y021091D02*
X046304Y021091D01*
X046357Y021069D02*
X046251Y021113D01*
X046136Y021113D01*
X046030Y021069D01*
X045949Y020988D01*
X045905Y020882D01*
X045905Y020768D01*
X045949Y020662D01*
X045971Y020640D01*
X045942Y020640D01*
X045883Y020581D01*
X045883Y020149D01*
X045942Y020090D01*
X046445Y020090D01*
X046503Y020149D01*
X046503Y020581D01*
X046445Y020640D01*
X046416Y020640D01*
X046438Y020662D01*
X046481Y020768D01*
X046481Y020882D01*
X046438Y020988D01*
X046357Y021069D01*
X046433Y020993D02*
X047306Y020993D01*
X047306Y020894D02*
X047197Y020894D01*
X046990Y020894D02*
X046477Y020894D01*
X046481Y020796D02*
X046856Y020796D01*
X046811Y020697D02*
X046452Y020697D01*
X046486Y020599D02*
X046805Y020599D01*
X046833Y020500D02*
X046503Y020500D01*
X046503Y020402D02*
X046909Y020402D01*
X047277Y020402D02*
X047306Y020402D01*
X047306Y020303D02*
X046503Y020303D01*
X046503Y020205D02*
X047315Y020205D01*
X046823Y019909D02*
X046496Y019909D01*
X046461Y020106D02*
X050343Y020106D01*
X050343Y020008D02*
X045743Y020008D01*
X045743Y020106D02*
X045926Y020106D01*
X045883Y020205D02*
X045743Y020205D01*
X045743Y020303D02*
X045883Y020303D01*
X045883Y020402D02*
X045743Y020402D01*
X045743Y020500D02*
X045883Y020500D01*
X045900Y020599D02*
X045743Y020599D01*
X045743Y020697D02*
X045934Y020697D01*
X045905Y020796D02*
X045743Y020796D01*
X045743Y020894D02*
X045910Y020894D01*
X045953Y020993D02*
X045743Y020993D01*
X045743Y021091D02*
X046083Y021091D01*
X045743Y021190D02*
X050343Y021190D01*
X050343Y021288D02*
X045743Y021288D01*
X044491Y021288D02*
X040241Y021288D01*
X040241Y021190D02*
X044491Y021190D01*
X044491Y021091D02*
X040241Y021091D01*
X040241Y020993D02*
X044491Y020993D01*
X044491Y020894D02*
X040241Y020894D01*
X040241Y020875D02*
X040241Y021625D01*
X044491Y021625D01*
X044491Y020875D01*
X043991Y020875D01*
X043991Y018500D01*
X040741Y018500D01*
X040741Y020875D01*
X040241Y020875D01*
X040741Y020796D02*
X043991Y020796D01*
X043991Y020697D02*
X040741Y020697D01*
X040741Y020599D02*
X043991Y020599D01*
X043991Y020500D02*
X040741Y020500D01*
X040741Y020402D02*
X043991Y020402D01*
X043991Y020303D02*
X040741Y020303D01*
X040741Y020205D02*
X043991Y020205D01*
X043991Y020106D02*
X040741Y020106D01*
X040741Y020008D02*
X043991Y020008D01*
X043991Y019909D02*
X040741Y019909D01*
X040741Y019811D02*
X043991Y019811D01*
X043991Y019712D02*
X040741Y019712D01*
X040741Y019614D02*
X043991Y019614D01*
X043991Y019515D02*
X040741Y019515D01*
X040741Y019417D02*
X043991Y019417D01*
X043991Y019318D02*
X040741Y019318D01*
X040741Y019220D02*
X043991Y019220D01*
X043991Y019121D02*
X040741Y019121D01*
X040741Y019023D02*
X043991Y019023D01*
X043991Y018924D02*
X040741Y018924D01*
X040741Y018826D02*
X043991Y018826D01*
X043991Y018727D02*
X040741Y018727D01*
X040741Y018629D02*
X043991Y018629D01*
X043991Y018530D02*
X040741Y018530D01*
X040241Y021387D02*
X044491Y021387D01*
X044491Y021485D02*
X040241Y021485D01*
X040241Y021584D02*
X044491Y021584D01*
X045743Y019909D02*
X045891Y019909D01*
X045883Y019811D02*
X045743Y019811D01*
X045743Y019712D02*
X045883Y019712D01*
X045883Y019614D02*
X045743Y019614D01*
X045743Y019515D02*
X045883Y019515D01*
X045935Y019417D02*
X045743Y019417D01*
X045743Y019121D02*
X050343Y019121D01*
X050343Y019023D02*
X045743Y019023D01*
X046451Y019417D02*
X046781Y019417D01*
X047861Y018924D02*
X050343Y018924D01*
X050343Y018826D02*
X047861Y018826D01*
X047861Y018727D02*
X050343Y018727D01*
X050343Y018629D02*
X047861Y018629D01*
X047861Y018530D02*
X050343Y018530D01*
X050343Y018432D02*
X047861Y018432D01*
X047861Y018038D02*
X050343Y018038D01*
X050343Y018136D02*
X045743Y018136D01*
X045743Y018235D02*
X050343Y018235D01*
X050343Y018333D02*
X045743Y018333D01*
X047541Y017348D02*
X050343Y017348D01*
X050343Y017250D02*
X047541Y017250D01*
X047736Y017151D02*
X048356Y017151D01*
X048356Y017186D02*
X048356Y016364D01*
X048415Y016305D01*
X048977Y016305D01*
X049036Y016364D01*
X049036Y016555D01*
X049156Y016555D01*
X049180Y016531D01*
X049286Y016487D01*
X049401Y016487D01*
X049507Y016531D01*
X049588Y016612D01*
X049631Y016718D01*
X049631Y016832D01*
X049588Y016938D01*
X049507Y017019D01*
X049401Y017063D01*
X049286Y017063D01*
X049180Y017019D01*
X049156Y016995D01*
X049036Y016995D01*
X049036Y017186D01*
X048977Y017245D01*
X048415Y017245D01*
X048356Y017186D01*
X048356Y017053D02*
X047736Y017053D01*
X047736Y016954D02*
X048356Y016954D01*
X048356Y016856D02*
X047736Y016856D01*
X047736Y016757D02*
X048356Y016757D01*
X048356Y016659D02*
X047736Y016659D01*
X047736Y016560D02*
X048356Y016560D01*
X048356Y016462D02*
X047736Y016462D01*
X047736Y016363D02*
X048357Y016363D01*
X049036Y016363D02*
X049891Y016363D01*
X049793Y016265D02*
X047647Y016265D01*
X047681Y016166D02*
X049694Y016166D01*
X049596Y016068D02*
X047681Y016068D01*
X047641Y015969D02*
X049497Y015969D01*
X049536Y016560D02*
X050088Y016560D01*
X049990Y016462D02*
X049036Y016462D01*
X049036Y017053D02*
X049260Y017053D01*
X049426Y017053D02*
X050343Y017053D01*
X050343Y017151D02*
X049036Y017151D01*
X049572Y016954D02*
X050343Y016954D01*
X050343Y016856D02*
X049622Y016856D01*
X049631Y016757D02*
X050285Y016757D01*
X050187Y016659D02*
X049607Y016659D01*
X050343Y017447D02*
X047824Y017447D01*
X047861Y017545D02*
X050343Y017545D01*
X050343Y017644D02*
X047861Y017644D01*
X047861Y017742D02*
X050343Y017742D01*
X050343Y017841D02*
X047861Y017841D01*
X047861Y017939D02*
X050343Y017939D01*
X047146Y015969D02*
X045743Y015969D01*
X047843Y024325D02*
X037843Y024325D01*
X037843Y031825D01*
X047843Y031825D01*
X047843Y024325D01*
X047843Y024342D02*
X037843Y024342D01*
X037843Y024440D02*
X047843Y024440D01*
X047843Y024539D02*
X037843Y024539D01*
X037843Y024637D02*
X047843Y024637D01*
X047843Y024736D02*
X037843Y024736D01*
X037843Y024834D02*
X047843Y024834D01*
X047843Y024933D02*
X037843Y024933D01*
X037843Y025031D02*
X047843Y025031D01*
X047843Y025130D02*
X037843Y025130D01*
X037843Y025228D02*
X047843Y025228D01*
X047843Y025327D02*
X037843Y025327D01*
X037843Y025425D02*
X047843Y025425D01*
X047843Y025524D02*
X037843Y025524D01*
X037843Y025622D02*
X047843Y025622D01*
X047843Y025721D02*
X037843Y025721D01*
X037843Y025819D02*
X047843Y025819D01*
X047843Y025918D02*
X037843Y025918D01*
X037843Y026016D02*
X047843Y026016D01*
X047843Y026115D02*
X037843Y026115D01*
X037843Y026213D02*
X047843Y026213D01*
X047843Y026312D02*
X037843Y026312D01*
X037843Y026410D02*
X047843Y026410D01*
X047843Y026509D02*
X037843Y026509D01*
X037843Y026607D02*
X047843Y026607D01*
X047843Y026706D02*
X037843Y026706D01*
X037843Y026804D02*
X047843Y026804D01*
X047843Y026903D02*
X037843Y026903D01*
X037843Y027001D02*
X047843Y027001D01*
X047843Y027100D02*
X037843Y027100D01*
X037843Y027198D02*
X047843Y027198D01*
X047843Y027297D02*
X037843Y027297D01*
X037843Y027395D02*
X047843Y027395D01*
X047843Y027494D02*
X037843Y027494D01*
X037843Y027592D02*
X047843Y027592D01*
X047843Y027691D02*
X037843Y027691D01*
X037843Y027789D02*
X047843Y027789D01*
X047843Y027888D02*
X037843Y027888D01*
X037843Y027986D02*
X047843Y027986D01*
X047843Y028085D02*
X037843Y028085D01*
X037843Y028183D02*
X047843Y028183D01*
X047843Y028282D02*
X037843Y028282D01*
X037843Y028380D02*
X047843Y028380D01*
X047843Y028479D02*
X037843Y028479D01*
X037843Y028577D02*
X047843Y028577D01*
X047843Y028676D02*
X037843Y028676D01*
X037843Y028774D02*
X047843Y028774D01*
X047843Y028873D02*
X037843Y028873D01*
X037843Y028971D02*
X047843Y028971D01*
X047843Y029070D02*
X037843Y029070D01*
X037843Y029168D02*
X047843Y029168D01*
X047843Y029267D02*
X037843Y029267D01*
X037843Y029365D02*
X047843Y029365D01*
X047843Y029464D02*
X037843Y029464D01*
X037843Y029562D02*
X047843Y029562D01*
X047843Y029661D02*
X037843Y029661D01*
X037843Y029759D02*
X047843Y029759D01*
X047843Y029858D02*
X037843Y029858D01*
X037843Y029956D02*
X047843Y029956D01*
X047843Y030055D02*
X037843Y030055D01*
X037843Y030153D02*
X047843Y030153D01*
X047843Y030252D02*
X037843Y030252D01*
X037843Y030350D02*
X047843Y030350D01*
X047843Y030449D02*
X037843Y030449D01*
X037843Y030547D02*
X047843Y030547D01*
X047843Y030646D02*
X037843Y030646D01*
X037843Y030744D02*
X047843Y030744D01*
X047843Y030843D02*
X037843Y030843D01*
X037843Y030941D02*
X047843Y030941D01*
X047843Y031040D02*
X037843Y031040D01*
X037843Y031138D02*
X047843Y031138D01*
X047843Y031237D02*
X037843Y031237D01*
X037843Y031335D02*
X047843Y031335D01*
X047843Y031434D02*
X037843Y031434D01*
X037843Y031532D02*
X047843Y031532D01*
X047843Y031631D02*
X037843Y031631D01*
X037843Y031729D02*
X047843Y031729D01*
X049343Y030475D02*
X051943Y030475D01*
X051943Y028475D01*
X049343Y028475D01*
X049343Y030475D01*
X049343Y030449D02*
X051943Y030449D01*
X051943Y030350D02*
X049343Y030350D01*
X049343Y030252D02*
X051943Y030252D01*
X051943Y030153D02*
X049343Y030153D01*
X049343Y030055D02*
X051943Y030055D01*
X051943Y029956D02*
X049343Y029956D01*
X049343Y029858D02*
X051943Y029858D01*
X051943Y029759D02*
X049343Y029759D01*
X049343Y029661D02*
X051943Y029661D01*
X051943Y029562D02*
X049343Y029562D01*
X049343Y029464D02*
X051943Y029464D01*
X051943Y029365D02*
X049343Y029365D01*
X049343Y029267D02*
X051943Y029267D01*
X051943Y029168D02*
X049343Y029168D01*
X049343Y029070D02*
X051943Y029070D01*
X051943Y028971D02*
X049343Y028971D01*
X049343Y028873D02*
X051943Y028873D01*
X051943Y028774D02*
X049343Y028774D01*
X049343Y028676D02*
X051943Y028676D01*
X051943Y028577D02*
X049343Y028577D01*
X049343Y028479D02*
X051943Y028479D01*
X035343Y016225D02*
X035293Y016275D01*
X024193Y028275D02*
X023731Y028275D01*
X023051Y028275D02*
X022381Y028275D01*
X018772Y027825D02*
X018770Y027775D01*
X018791Y026822D02*
X018770Y026775D01*
X018770Y026701D01*
X030643Y030075D02*
X031083Y030075D01*
X031093Y030085D01*
X031093Y030765D02*
X031773Y030085D01*
X031993Y030085D01*
X031993Y030765D02*
X031993Y031175D01*
X033793Y030765D02*
X034233Y030765D01*
X034243Y030775D01*
X033793Y030085D02*
X033793Y029458D01*
X033856Y029395D01*
X033856Y029025D02*
X034343Y029025D01*
X033023Y029395D02*
X032836Y029395D01*
X009033Y036225D02*
X009033Y036775D01*
X008353Y036225D02*
X007943Y036225D01*
D18*
X042366Y019875D03*
D19*
X045091Y017512D03*
X045091Y015938D03*
D20*
X046193Y019685D03*
X046193Y020365D03*
X040143Y017812D03*
X040143Y017132D03*
X040143Y016418D03*
X040143Y015738D03*
X034491Y015535D03*
X034491Y016215D03*
X034391Y017585D03*
X034391Y018265D03*
X031743Y018935D03*
X031743Y019615D03*
X030791Y017415D03*
X030791Y016735D03*
X029943Y022735D03*
X029943Y023415D03*
X029943Y026735D03*
X029943Y027415D03*
X031993Y028685D03*
X031993Y029365D03*
X031993Y030085D03*
X031993Y030765D03*
X032893Y030765D03*
X032893Y030085D03*
X033793Y030085D03*
X033793Y030765D03*
X034946Y029365D03*
X034946Y028685D03*
X031093Y030085D03*
X031093Y030765D03*
X034293Y023415D03*
X034293Y022735D03*
X021593Y029285D03*
X021593Y029965D03*
X019193Y030065D03*
X019193Y029385D03*
X017841Y028565D03*
X017841Y027885D03*
X016743Y010715D03*
X016743Y010035D03*
D21*
X037796Y016075D03*
X039096Y016075D03*
X039641Y014175D03*
X040941Y014175D03*
X047396Y016775D03*
X048696Y016775D03*
X048946Y020625D03*
X047646Y020625D03*
D22*
X020396Y013325D03*
X020396Y012025D03*
D23*
X022791Y011474D03*
X022791Y013876D03*
X026341Y013876D03*
X026341Y011474D03*
D24*
X035291Y015465D03*
X035291Y016285D03*
X035191Y017515D03*
X035191Y018335D03*
X035093Y022765D03*
X035093Y023585D03*
X029143Y023582D03*
X029143Y022762D03*
X021796Y026815D03*
X021796Y027635D03*
X017041Y027915D03*
X017041Y028735D03*
D25*
X021701Y028275D03*
X022381Y028275D03*
X023051Y028275D03*
X023731Y028275D03*
X028403Y028725D03*
X029083Y028725D03*
X029083Y027725D03*
X028403Y027725D03*
X028403Y026725D03*
X029083Y026725D03*
X029083Y025725D03*
X028403Y025725D03*
X026183Y023725D03*
X025503Y023725D03*
X025503Y022725D03*
X026183Y022725D03*
X032303Y020175D03*
X032303Y019575D03*
X032303Y018975D03*
X032983Y018975D03*
X032983Y019575D03*
X032983Y020175D03*
X034551Y020975D03*
X035231Y020975D03*
X035231Y021725D03*
X034551Y021725D03*
X034553Y024625D03*
X035233Y024625D03*
X035233Y025375D03*
X035233Y026125D03*
X034553Y026125D03*
X034553Y025375D03*
X031983Y027375D03*
X031303Y027375D03*
X039606Y022475D03*
X040286Y022475D03*
X033531Y014825D03*
X032851Y014825D03*
X009583Y014125D03*
X008903Y014125D03*
X008903Y013075D03*
X009583Y013075D03*
X009033Y036225D03*
X009033Y036775D03*
X008353Y036775D03*
X008353Y036225D03*
X015353Y036225D03*
X015353Y036775D03*
X016033Y036775D03*
X016033Y036225D03*
X022053Y036225D03*
X022053Y036775D03*
X022733Y036775D03*
X022733Y036225D03*
D26*
X050643Y029222D03*
X050643Y024813D03*
D27*
X033801Y016135D03*
X033801Y015875D03*
X033801Y015615D03*
X032981Y015615D03*
X032981Y016135D03*
D28*
X033551Y017545D03*
X033551Y017795D03*
X033551Y018055D03*
X033551Y018305D03*
X031831Y018305D03*
X031831Y018055D03*
X031831Y017795D03*
X031831Y017545D03*
D29*
X032093Y024969D03*
X031193Y024969D03*
X031193Y026386D03*
X032093Y026386D03*
D30*
X022878Y007508D03*
X021893Y007508D03*
X020909Y007508D03*
D31*
X024244Y034359D03*
X025244Y034359D03*
X026244Y034359D03*
D32*
X027415Y035125D03*
X027415Y036625D03*
X023577Y036625D03*
X023577Y035125D03*
D33*
X020626Y029599D03*
X020626Y029225D03*
X020626Y028851D03*
X019760Y028851D03*
X019760Y029225D03*
X019760Y029599D03*
X039560Y023946D03*
X039560Y023572D03*
X039560Y023198D03*
X040426Y023198D03*
X040426Y023572D03*
X040426Y023946D03*
D34*
X041343Y023220D03*
X043343Y023220D03*
D35*
X042343Y027100D03*
D36*
X044793Y034625D03*
X038593Y034625D03*
X032393Y034625D03*
X050993Y034625D03*
X016743Y008275D03*
X010543Y008275D03*
D37*
X012556Y008735D03*
X014731Y008735D03*
X018756Y008735D03*
X008531Y008735D03*
X030381Y034165D03*
X034406Y034165D03*
X036581Y034165D03*
X040606Y034165D03*
X042781Y034165D03*
X046806Y034165D03*
X048981Y034165D03*
X053006Y034165D03*
D38*
X042096Y023175D03*
X037693Y019872D03*
X029841Y020225D03*
X029541Y016225D03*
D39*
X032836Y028655D03*
X032836Y029395D03*
X033856Y029395D03*
X033856Y029025D03*
X033856Y028655D03*
D40*
X047321Y019585D03*
X047321Y018675D03*
X047321Y017765D03*
D41*
X049761Y018675D03*
D42*
X009593Y019125D03*
X008993Y019125D03*
X008993Y020125D03*
X009593Y020125D03*
X009593Y021125D03*
X008993Y021125D03*
X008993Y022125D03*
X009593Y022125D03*
X009593Y024725D03*
X008993Y024725D03*
X008993Y025725D03*
X009593Y025725D03*
X009593Y026725D03*
X008993Y026725D03*
X008993Y027725D03*
X009593Y027725D03*
D43*
X034919Y030095D03*
X035667Y030095D03*
X035293Y030961D03*
D44*
X031393Y010375D03*
X029743Y010375D03*
X028093Y010375D03*
D45*
X019843Y035325D03*
X018843Y035325D03*
X017843Y035325D03*
D46*
X013493Y035925D03*
X011493Y035925D03*
X010643Y030925D03*
X012493Y030925D03*
X014343Y030925D03*
D47*
X043643Y012725D03*
X043643Y006725D03*
X051143Y006725D03*
X051143Y012725D03*
D48*
X041343Y022375D02*
X040943Y021975D01*
X040106Y021975D01*
X039606Y022475D01*
X039560Y023572D02*
X038243Y023572D01*
X037693Y023022D01*
X037693Y019872D01*
X037693Y019525D01*
X037343Y019175D01*
X034043Y019175D01*
X033543Y019675D01*
X033543Y020175D01*
X032943Y020775D01*
X032443Y020775D01*
X031993Y021225D01*
X031117Y021225D01*
X031117Y021725D02*
X029243Y021725D01*
X028643Y021125D01*
X028643Y015925D01*
X028143Y015425D01*
X025134Y015425D01*
X024493Y014785D01*
X024493Y009491D01*
X023928Y008925D01*
X022193Y008925D01*
X021893Y008625D01*
X021893Y007508D01*
X021393Y006825D02*
X020909Y007309D01*
X020909Y007508D02*
X020909Y008441D01*
X021893Y009425D01*
X023743Y009425D01*
X024043Y009725D01*
X024043Y015011D01*
X024857Y015825D01*
X027793Y015825D01*
X028143Y016175D01*
X029541Y016225D02*
X029541Y015378D01*
X029543Y015375D01*
X030791Y015946D02*
X030791Y016735D01*
X030791Y017415D02*
X031283Y017415D01*
X031293Y017425D01*
X031831Y017495D02*
X031831Y017545D01*
X031831Y017495D02*
X031843Y017482D01*
X031811Y017775D02*
X032293Y017775D01*
X032393Y017675D01*
X032393Y016235D01*
X032493Y016135D01*
X032943Y016135D02*
X032981Y016135D01*
X032981Y015615D02*
X032981Y015375D01*
X033531Y014825D01*
X032851Y014825D02*
X032830Y014804D01*
X031291Y014804D01*
X031791Y015946D02*
X031980Y016135D01*
X031811Y017775D02*
X031831Y017795D01*
X031831Y018055D02*
X032193Y018055D01*
X032293Y018155D01*
X032293Y018175D01*
X032303Y018185D01*
X032303Y018975D01*
X032263Y018935D01*
X031743Y018935D01*
X031743Y019615D02*
X031743Y020075D01*
X031843Y020175D01*
X032303Y020175D01*
X032093Y020525D02*
X032643Y020525D01*
X032983Y020185D01*
X032983Y020175D01*
X032983Y019575D01*
X032983Y018975D02*
X032903Y018975D01*
X032303Y019575D01*
X032983Y018975D02*
X032983Y017895D01*
X033083Y017795D01*
X033551Y017795D01*
X034391Y018265D02*
X034393Y018268D01*
X034393Y018275D01*
X035193Y017525D02*
X035191Y017522D01*
X035191Y017515D01*
X035291Y016285D02*
X035293Y016282D01*
X035293Y016275D01*
X034491Y015535D02*
X034491Y015528D01*
X034493Y015525D01*
X032093Y020525D02*
X031793Y020825D01*
X029843Y020825D01*
X029841Y020822D01*
X029841Y020225D01*
X031117Y022225D02*
X031843Y022225D01*
X032143Y022525D01*
X032143Y023175D01*
X032193Y023225D01*
X033164Y023225D01*
X033743Y023225D01*
X033943Y023425D01*
X033943Y024015D01*
X034553Y024625D01*
X034143Y024725D02*
X034143Y025125D01*
X034393Y025375D01*
X034553Y025375D01*
X035233Y026055D01*
X035233Y026125D01*
X035233Y025375D02*
X035643Y025375D01*
X035493Y024625D02*
X035793Y024325D01*
X035793Y022775D01*
X034551Y021725D02*
X034551Y021655D01*
X035231Y020975D01*
X034551Y020975D02*
X033414Y020975D01*
X033164Y021225D01*
X032693Y021225D01*
X032493Y021425D01*
X033143Y021204D02*
X033164Y021225D01*
X033164Y021725D02*
X034551Y021725D01*
X034501Y021775D01*
X032143Y023175D02*
X032143Y024919D01*
X032093Y024969D01*
X031643Y024969D01*
X031643Y027975D01*
X029243Y030375D01*
X029243Y031825D01*
X026693Y034375D01*
X026693Y035025D01*
X026243Y035475D01*
X021993Y035475D01*
X021293Y034775D01*
X019343Y034775D01*
X018843Y035275D01*
X018843Y035325D01*
X021593Y036225D02*
X021696Y036222D01*
X022053Y036225D01*
X022053Y036775D02*
X021593Y036775D01*
X022733Y036775D02*
X022733Y036225D01*
X024244Y034359D02*
X022960Y033075D01*
X014643Y033075D01*
X012493Y030925D01*
X010643Y030925D02*
X015493Y035775D01*
X031243Y035775D01*
X032393Y034625D01*
X030993Y033325D02*
X030243Y032575D01*
X030243Y030325D01*
X029593Y029475D02*
X028943Y030125D01*
X028943Y031660D01*
X026244Y034359D01*
X025244Y034359D02*
X025244Y033616D01*
X021593Y029965D01*
X021227Y029599D01*
X020626Y029599D01*
X020686Y029285D02*
X021593Y029285D01*
X022293Y029025D02*
X021701Y028432D01*
X021701Y028275D01*
X020817Y028275D01*
X020626Y029225D02*
X020686Y029285D01*
X020626Y029225D02*
X020393Y029225D01*
X020193Y029425D01*
X020193Y029925D01*
X020493Y030225D01*
X020501Y032825D02*
X014843Y032825D01*
X014343Y032325D01*
X014343Y030925D01*
X014893Y036225D02*
X015353Y036225D01*
X015353Y036775D02*
X015303Y036825D01*
X014893Y036825D01*
X016033Y036775D02*
X016033Y036225D01*
X008353Y036775D02*
X007843Y036775D01*
X007593Y036525D01*
X007593Y036225D01*
X025244Y034574D02*
X025244Y034359D01*
X030993Y033325D02*
X037093Y033325D01*
X037743Y033975D01*
X038593Y033975D01*
X038593Y034625D01*
X036643Y032525D02*
X049472Y032525D01*
X050777Y033829D01*
X050885Y033992D01*
X050993Y034253D01*
X050993Y034625D01*
X044793Y034625D02*
X044793Y033325D01*
X044493Y033025D01*
X033593Y033025D01*
X032893Y032325D01*
X032893Y030765D01*
X032853Y030725D01*
X032593Y030725D01*
X032443Y030575D01*
X032443Y029887D01*
X032655Y029675D01*
X033243Y029675D01*
X033343Y029575D01*
X033343Y028325D01*
X033643Y028025D01*
X033643Y027375D01*
X033643Y027325D01*
X033643Y025525D01*
X032493Y024375D01*
X033164Y024225D02*
X033193Y024254D01*
X033193Y024625D01*
X033893Y025325D01*
X033893Y026125D01*
X034553Y026125D01*
X033893Y026125D02*
X033893Y027775D01*
X034293Y028175D01*
X035643Y028175D01*
X036143Y028675D01*
X036143Y032025D01*
X036643Y032525D01*
X035293Y032725D02*
X035293Y030961D01*
X034919Y030095D02*
X034946Y030068D01*
X034946Y029365D01*
X034946Y028685D02*
X034916Y028655D01*
X033856Y028655D01*
X032836Y029395D02*
X032653Y029395D01*
X031993Y030054D01*
X031993Y030085D01*
X032146Y030085D01*
X032893Y030085D02*
X033793Y030085D01*
X035667Y030095D02*
X035667Y029649D01*
X035693Y029575D01*
X033643Y027375D02*
X031983Y027375D01*
X032093Y026825D02*
X032093Y026386D01*
X031193Y026386D02*
X031193Y026825D01*
X031303Y027375D02*
X029943Y027375D01*
X029943Y027415D01*
X029093Y027415D01*
X029093Y027425D01*
X029083Y027425D01*
X029083Y027725D01*
X029083Y026775D01*
X029083Y026725D01*
X029083Y025725D01*
X028403Y025725D02*
X027141Y025725D01*
X027141Y026725D02*
X028403Y026725D01*
X028403Y027725D02*
X027141Y027725D01*
X027141Y028725D02*
X028403Y028725D01*
X029083Y028725D02*
X029083Y027725D01*
X029943Y026735D02*
X029943Y026325D01*
X031193Y024969D02*
X031643Y024969D01*
X031117Y024225D02*
X030793Y024225D01*
X030243Y024775D01*
X030243Y024875D01*
X031117Y024225D02*
X031117Y023725D01*
X031117Y023225D02*
X030967Y023075D01*
X029393Y023075D01*
X029293Y023175D01*
X028593Y023175D01*
X033164Y023725D02*
X033643Y023725D01*
X033743Y023825D01*
X033743Y024325D01*
X034143Y024725D01*
X035233Y024625D02*
X035493Y024625D01*
X041343Y023220D02*
X041343Y023025D01*
X041493Y023175D01*
X042096Y023175D01*
X041343Y023025D02*
X041343Y022375D01*
X035343Y009175D02*
X035343Y009075D01*
X032893Y006625D01*
X023993Y006625D01*
X023793Y006825D01*
X021393Y006825D01*
X020909Y007508D02*
X017511Y007508D01*
X016743Y008275D01*
X016743Y010035D01*
X016743Y010715D02*
X016743Y011125D01*
X022878Y007508D02*
X023576Y007508D01*
X024493Y008425D01*
D49*
X024493Y008425D03*
X016743Y011125D03*
X009993Y013075D03*
X009993Y014125D03*
X016993Y027425D03*
X016443Y027875D03*
X016443Y028725D03*
X017743Y029025D03*
X018693Y029325D03*
X018693Y030025D03*
X020493Y030225D03*
X022293Y029025D03*
X024193Y028275D03*
X029593Y029475D03*
X030243Y030325D03*
X030643Y030075D03*
X031543Y029375D03*
X031993Y028275D03*
X032093Y026825D03*
X031193Y026825D03*
X029943Y026325D03*
X030243Y024875D03*
X029943Y023825D03*
X029143Y024025D03*
X028593Y023575D03*
X028593Y023175D03*
X028593Y022775D03*
X029093Y022325D03*
X029943Y022325D03*
X029843Y020825D03*
X031843Y020175D03*
X032493Y021425D03*
X035643Y021725D03*
X035793Y022775D03*
X035093Y024025D03*
X034293Y023825D03*
X032493Y024375D03*
X035643Y025375D03*
X038343Y025325D03*
X038343Y025825D03*
X038343Y026325D03*
X038343Y026825D03*
X038343Y027325D03*
X038343Y027825D03*
X038843Y027825D03*
X038843Y027325D03*
X038843Y026825D03*
X038843Y026325D03*
X038843Y025825D03*
X038843Y025325D03*
X039343Y025325D03*
X039343Y025825D03*
X039343Y026325D03*
X039343Y026825D03*
X039343Y027325D03*
X039343Y027825D03*
X039843Y027825D03*
X039843Y027325D03*
X039843Y026825D03*
X039843Y026325D03*
X039843Y025825D03*
X039843Y025325D03*
X040343Y025325D03*
X040343Y025825D03*
X040343Y026325D03*
X040343Y026825D03*
X040343Y027325D03*
X040343Y027825D03*
X040843Y027825D03*
X040843Y027325D03*
X040843Y026825D03*
X040843Y026325D03*
X040843Y025825D03*
X040843Y025325D03*
X041343Y025325D03*
X041343Y025825D03*
X041343Y026325D03*
X041343Y026825D03*
X041343Y027325D03*
X041343Y027825D03*
X041843Y027825D03*
X041843Y027325D03*
X041843Y026825D03*
X041843Y026325D03*
X041843Y025825D03*
X041843Y025325D03*
X042343Y025325D03*
X042343Y025825D03*
X042343Y026325D03*
X042343Y026825D03*
X042343Y027325D03*
X042343Y027825D03*
X042843Y027825D03*
X042843Y027325D03*
X042843Y026825D03*
X042843Y026325D03*
X042843Y025825D03*
X042843Y025325D03*
X043343Y025325D03*
X043343Y025825D03*
X043343Y026325D03*
X043343Y026825D03*
X043343Y027325D03*
X043343Y027825D03*
X043843Y027825D03*
X043843Y027325D03*
X043843Y026825D03*
X043843Y026325D03*
X043843Y025825D03*
X043843Y025325D03*
X044343Y025325D03*
X044343Y025825D03*
X044343Y026325D03*
X044343Y026825D03*
X044343Y027325D03*
X044343Y027825D03*
X044843Y027825D03*
X044843Y027325D03*
X044843Y026825D03*
X044843Y026325D03*
X044843Y025825D03*
X044843Y025325D03*
X045343Y025325D03*
X045343Y025825D03*
X045343Y026325D03*
X045343Y026825D03*
X045343Y027325D03*
X045343Y027825D03*
X045843Y027825D03*
X045843Y027325D03*
X045843Y026825D03*
X045843Y026325D03*
X045843Y025825D03*
X045843Y025325D03*
X046343Y025325D03*
X046343Y025825D03*
X046343Y026325D03*
X046343Y026825D03*
X046343Y027325D03*
X046343Y027825D03*
X046843Y027825D03*
X046843Y027325D03*
X046843Y026825D03*
X046843Y026325D03*
X046843Y025825D03*
X046843Y025325D03*
X047343Y025325D03*
X047343Y025825D03*
X047343Y026325D03*
X047343Y026825D03*
X047343Y027325D03*
X047343Y027825D03*
X047343Y028325D03*
X046843Y028325D03*
X046343Y028325D03*
X045843Y028325D03*
X045343Y028325D03*
X044843Y028325D03*
X044343Y028325D03*
X043843Y028325D03*
X043343Y028325D03*
X042843Y028325D03*
X042343Y028325D03*
X041843Y028325D03*
X041343Y028325D03*
X040843Y028325D03*
X040343Y028325D03*
X039843Y028325D03*
X039343Y028325D03*
X038843Y028325D03*
X038343Y028325D03*
X038343Y028825D03*
X038343Y029325D03*
X038343Y029825D03*
X038343Y030325D03*
X038343Y030825D03*
X038843Y030825D03*
X038843Y030325D03*
X038843Y029825D03*
X038843Y029325D03*
X038843Y028825D03*
X039343Y028825D03*
X039343Y029325D03*
X039343Y029825D03*
X039343Y030325D03*
X039343Y030825D03*
X039843Y030825D03*
X039843Y030325D03*
X039843Y029825D03*
X039843Y029325D03*
X039843Y028825D03*
X040343Y028825D03*
X040343Y029325D03*
X040343Y029825D03*
X040343Y030325D03*
X040343Y030825D03*
X040843Y030825D03*
X040843Y030325D03*
X040843Y029825D03*
X040843Y029325D03*
X040843Y028825D03*
X041343Y028825D03*
X041343Y029325D03*
X041343Y029825D03*
X041343Y030325D03*
X041343Y030825D03*
X041843Y030825D03*
X041843Y030325D03*
X041843Y029825D03*
X041843Y029325D03*
X041843Y028825D03*
X042343Y028825D03*
X042343Y029325D03*
X042343Y029825D03*
X042343Y030325D03*
X042343Y030825D03*
X042843Y030825D03*
X042843Y030325D03*
X042843Y029825D03*
X042843Y029325D03*
X042843Y028825D03*
X043343Y028825D03*
X043343Y029325D03*
X043343Y029825D03*
X043343Y030325D03*
X043343Y030825D03*
X043843Y030825D03*
X043843Y030325D03*
X043843Y029825D03*
X043843Y029325D03*
X043843Y028825D03*
X044343Y028825D03*
X044343Y029325D03*
X044343Y029825D03*
X044343Y030325D03*
X044343Y030825D03*
X044843Y030825D03*
X044843Y030325D03*
X044843Y029825D03*
X044843Y029325D03*
X044843Y028825D03*
X045343Y028825D03*
X045343Y029325D03*
X045343Y029825D03*
X045343Y030325D03*
X045343Y030825D03*
X045843Y030825D03*
X045843Y030325D03*
X045843Y029825D03*
X045843Y029325D03*
X045843Y028825D03*
X046343Y028825D03*
X046343Y029325D03*
X046343Y029825D03*
X046343Y030325D03*
X046343Y030825D03*
X046843Y030825D03*
X046843Y030325D03*
X046843Y029825D03*
X046843Y029325D03*
X046843Y028825D03*
X047343Y028825D03*
X047343Y029325D03*
X047343Y029825D03*
X047343Y030325D03*
X047343Y030825D03*
X047343Y031325D03*
X046843Y031325D03*
X046343Y031325D03*
X045843Y031325D03*
X045343Y031325D03*
X044843Y031325D03*
X044343Y031325D03*
X043843Y031325D03*
X043343Y031325D03*
X042843Y031325D03*
X042343Y031325D03*
X041843Y031325D03*
X041343Y031325D03*
X040843Y031325D03*
X040343Y031325D03*
X039843Y031325D03*
X039343Y031325D03*
X038843Y031325D03*
X038343Y031325D03*
X035693Y029575D03*
X034343Y029025D03*
X034243Y030775D03*
X031993Y031175D03*
X035293Y032725D03*
X038343Y024825D03*
X038843Y024825D03*
X039343Y024825D03*
X039843Y024825D03*
X040343Y024825D03*
X040843Y024825D03*
X041343Y024825D03*
X041843Y024825D03*
X042343Y024825D03*
X042843Y024825D03*
X043343Y024825D03*
X043843Y024825D03*
X044343Y024825D03*
X044843Y024825D03*
X045343Y024825D03*
X045843Y024825D03*
X046343Y024825D03*
X046843Y024825D03*
X047343Y024825D03*
X044043Y021675D03*
X043543Y021675D03*
X043043Y021675D03*
X042543Y021675D03*
X042043Y021675D03*
X041543Y021675D03*
X041043Y021675D03*
X040543Y021675D03*
X040543Y021175D03*
X040543Y020675D03*
X040543Y020175D03*
X041043Y020175D03*
X041043Y020675D03*
X041043Y021175D03*
X041543Y021175D03*
X041543Y020675D03*
X041543Y020175D03*
X042043Y020175D03*
X042043Y020675D03*
X042043Y021175D03*
X042543Y021175D03*
X042543Y020675D03*
X042543Y020175D03*
X043043Y020175D03*
X043043Y020675D03*
X043043Y021175D03*
X043543Y021175D03*
X043543Y020675D03*
X043543Y020175D03*
X044043Y020175D03*
X044043Y020675D03*
X044043Y021175D03*
X044043Y019675D03*
X043543Y019675D03*
X043043Y019675D03*
X042543Y019675D03*
X042043Y019675D03*
X041543Y019675D03*
X041043Y019675D03*
X040543Y019675D03*
X040543Y019175D03*
X041043Y019175D03*
X041043Y018675D03*
X041543Y018675D03*
X041543Y019175D03*
X042043Y019175D03*
X042043Y018675D03*
X042543Y018675D03*
X042543Y019175D03*
X043043Y019175D03*
X043043Y018675D03*
X043543Y018675D03*
X043543Y019175D03*
X044043Y019175D03*
X044043Y018675D03*
X045993Y017625D03*
X045993Y017125D03*
X045993Y016625D03*
X046493Y016625D03*
X046493Y017125D03*
X047993Y017125D03*
X047993Y016625D03*
X047993Y016125D03*
X047993Y017625D03*
X047993Y018125D03*
X047993Y018625D03*
X047993Y019125D03*
X047993Y019625D03*
X042343Y016675D03*
X040593Y015725D03*
X040443Y018575D03*
X035743Y018325D03*
X035193Y018775D03*
X034393Y018675D03*
X034393Y017175D03*
X034493Y016625D03*
X035293Y016725D03*
X035193Y017075D03*
X035743Y017525D03*
X035843Y016325D03*
X035843Y015425D03*
X035293Y015025D03*
X034493Y015125D03*
X031843Y017225D03*
X031293Y017425D03*
X028143Y016175D03*
X038493Y023175D03*
X039093Y023975D03*
X021593Y036225D03*
X021593Y036775D03*
X020501Y032825D03*
X014893Y036225D03*
X014893Y036825D03*
X007943Y036225D03*
X007593Y036225D03*
X017693Y027425D03*
D50*
X017841Y027572D01*
X017841Y027885D01*
X017841Y028565D02*
X017851Y028575D01*
X017841Y028565D02*
X017743Y028662D01*
X017743Y029025D01*
X017041Y028735D02*
X017031Y028725D01*
X016443Y028725D01*
X016443Y027875D02*
X016993Y027875D01*
X016993Y027868D02*
X016993Y027425D01*
X016993Y027868D02*
X017041Y027915D01*
X028593Y023575D02*
X029143Y023575D01*
X029293Y023425D01*
X029943Y023425D01*
X029943Y023415D01*
X029943Y023425D02*
X029943Y023825D01*
X029143Y024025D02*
X029143Y023582D01*
X029093Y022775D02*
X028593Y022775D01*
X029093Y022762D02*
X029093Y022325D01*
X029171Y022735D02*
X029943Y022735D01*
X030543Y022725D01*
X031117Y022725D01*
X029943Y022735D02*
X029943Y022325D01*
X029171Y022735D02*
X029143Y022762D01*
X034243Y022765D02*
X034293Y022735D01*
X034243Y022765D02*
X035093Y022765D01*
X035793Y022765D01*
X035793Y022775D01*
X035093Y023585D02*
X035093Y024025D01*
X034293Y023825D02*
X034293Y023415D01*
X038493Y023175D02*
X038993Y023168D01*
X039530Y023168D01*
X039560Y023198D01*
X039560Y023946D02*
X039531Y023975D01*
X039093Y023975D01*
X038981Y022475D02*
X039606Y022475D01*
X042366Y019875D02*
X042543Y019697D01*
X042543Y019675D01*
X040443Y018575D02*
X040143Y018275D01*
X040143Y017812D01*
X040143Y017132D02*
X040143Y016418D01*
X040136Y016425D01*
X039743Y016425D01*
X039393Y016075D01*
X039096Y016075D01*
X040143Y015738D02*
X040593Y015725D01*
X041073Y016045D02*
X040693Y016425D01*
X040151Y016425D01*
X040143Y016418D01*
X041073Y016045D02*
X041366Y016045D01*
X041393Y016017D01*
X042366Y016045D02*
X042366Y016653D01*
X042343Y016675D01*
X046193Y019685D02*
X047221Y019685D01*
X047321Y019585D01*
X046193Y020365D02*
X046193Y020825D01*
X047093Y020625D02*
X047646Y020625D01*
X047593Y017775D02*
X047331Y017775D01*
X047321Y017765D01*
X047321Y016775D01*
X047396Y016775D01*
X047396Y016125D01*
X047393Y016125D01*
X048696Y016775D02*
X049343Y016775D01*
X037796Y016075D02*
X037193Y016075D01*
X035843Y016325D02*
X035343Y016325D01*
X035291Y016285D02*
X034561Y016285D01*
X034491Y016215D01*
X034451Y016175D01*
X034493Y016225D02*
X034493Y016625D01*
X034393Y017175D02*
X034393Y017525D01*
X034391Y017585D02*
X034461Y017515D01*
X035191Y017515D01*
X035193Y017525D02*
X035093Y017525D01*
X035193Y017525D02*
X035193Y017075D01*
X035293Y016725D02*
X035293Y016275D01*
X035291Y015465D02*
X034561Y015465D01*
X034491Y015535D01*
X034493Y015525D02*
X034493Y015125D01*
X035293Y015025D02*
X035293Y015425D01*
X035843Y015425D01*
X035743Y017525D02*
X035193Y017525D01*
X035193Y017575D01*
X035193Y018325D02*
X035743Y018325D01*
X035193Y018325D02*
X035193Y018775D01*
X035191Y018335D02*
X034461Y018335D01*
X034391Y018265D01*
X034181Y018055D01*
X033943Y018055D01*
X034393Y018275D02*
X034393Y018675D01*
X031843Y017482D02*
X031843Y017225D01*
X031980Y016135D02*
X032493Y016135D01*
X032981Y016135D01*
X031791Y015946D02*
X031791Y015872D01*
X031293Y015375D01*
X029543Y015375D01*
X020909Y007508D02*
X020909Y007309D01*
X031993Y028275D02*
X031993Y028685D01*
X032023Y028655D01*
X032836Y028655D01*
X031993Y029365D02*
X031543Y029375D01*
D51*
X039560Y023572D02*
X039991Y023572D01*
X039993Y023575D01*
X039560Y023572D02*
X040426Y023572D01*
X040453Y023225D02*
X040426Y023198D01*
X040286Y023058D01*
X040286Y022475D01*
X040453Y023225D02*
X040743Y023225D01*
X040793Y023275D01*
X040793Y023875D01*
X040722Y023946D01*
X040426Y023946D01*
X035643Y021725D02*
X035231Y021725D01*
X034293Y022735D02*
X034243Y022725D01*
X033164Y022725D01*
X033551Y018055D02*
X033943Y018055D01*
X034491Y016215D02*
X034411Y016135D01*
X033801Y016135D01*
X033801Y015875D02*
X034191Y015875D01*
X034491Y015575D01*
X034491Y015535D01*
X021796Y026815D02*
X021336Y027275D01*
X020817Y027275D01*
X020817Y027775D02*
X019943Y027775D01*
X020817Y027775D02*
X021656Y027775D01*
X021796Y027635D01*
X019760Y029225D02*
X019413Y029225D01*
X019253Y029385D01*
X019193Y029385D01*
X019133Y029325D01*
X018693Y029325D01*
X018693Y030025D02*
X019133Y030025D01*
X019193Y030065D01*
X019294Y030065D01*
X019760Y029599D01*
X018770Y028275D02*
X018131Y028275D01*
X017841Y028565D01*
X017793Y028525D02*
X017293Y028525D01*
X017083Y028735D01*
X017041Y028735D01*
X016993Y027925D02*
X017003Y027915D01*
X017041Y027915D01*
X016993Y027925D02*
X017893Y027925D01*
D52*
X007393Y007125D02*
X007843Y006675D01*
X019393Y006675D01*
X020143Y005925D01*
X035693Y005925D01*
X037343Y007575D01*
X037343Y009175D01*
X036343Y009175D02*
X036343Y006775D01*
X035623Y006055D01*
X020213Y006055D01*
X019443Y006825D01*
X007993Y006825D01*
X007593Y007225D01*
X007593Y012525D01*
X008141Y013072D01*
X008141Y013125D01*
X008141Y013075D01*
X008903Y013075D01*
X009583Y013075D02*
X009993Y013075D01*
X009993Y014125D02*
X009583Y014125D01*
X008903Y014125D02*
X008141Y014125D01*
X008093Y014125D01*
X007393Y013425D01*
X007393Y007125D01*
X010543Y008275D02*
X010593Y008325D01*
X010593Y014275D01*
X009593Y015275D01*
X009593Y019125D01*
X009593Y020125D01*
X009593Y021125D01*
X009593Y022125D01*
X008993Y022125D02*
X008141Y022125D01*
X008141Y021125D02*
X008993Y021125D01*
X009593Y021125D02*
X009593Y019125D01*
X008993Y019125D02*
X008141Y019125D01*
X008141Y020125D02*
X008993Y020125D01*
X009793Y023725D02*
X008141Y023725D01*
X008141Y024725D02*
X008993Y024725D01*
X009593Y024725D02*
X009593Y025725D01*
X009593Y026725D01*
X009593Y026525D01*
X009693Y026425D01*
X019193Y026425D01*
X019293Y026525D01*
X019293Y027625D01*
X019143Y027775D01*
X019143Y027875D01*
X019393Y028125D01*
X019393Y028425D01*
X019593Y028625D01*
X020400Y028625D01*
X020626Y028851D01*
X019734Y028825D02*
X018493Y028825D01*
X019143Y027875D02*
X019093Y027825D01*
X018770Y027275D02*
X018720Y027225D01*
X018293Y027225D01*
X017993Y026925D01*
X016093Y026925D01*
X015493Y027525D01*
X015493Y028925D01*
X017141Y030572D01*
X017141Y030775D01*
X016643Y030375D02*
X015293Y029025D01*
X015293Y027425D01*
X015993Y026725D01*
X018720Y026725D01*
X018770Y026775D01*
X020167Y026125D02*
X010776Y026125D01*
X010193Y025542D01*
X010193Y024125D01*
X009793Y023725D01*
X008993Y025725D02*
X008141Y025725D01*
X008141Y026725D02*
X008993Y026725D01*
X009593Y026725D02*
X009593Y027725D01*
X008993Y027725D02*
X008141Y027725D01*
X016643Y030375D02*
X016643Y031275D01*
X017141Y031772D01*
X017141Y031775D01*
X020817Y026775D02*
X020167Y026125D01*
X010543Y009325D02*
X010543Y008275D01*
D53*
X018772Y027825D02*
X019093Y027825D01*
X019734Y028825D02*
X019760Y028851D01*
D54*
X021796Y026815D02*
X021783Y015525D01*
X022183Y015125D01*
X022143Y015125D01*
X020396Y013325D02*
X019643Y013325D01*
X019643Y012025D02*
X020396Y012025D01*
X022945Y007575D02*
X022930Y007573D01*
X022916Y007568D01*
X022903Y007560D01*
X022893Y007550D01*
X022885Y007537D01*
X022880Y007523D01*
X022878Y007508D01*
X038993Y014075D02*
X039543Y014075D01*
X039641Y014172D01*
X039641Y014175D01*
X036243Y022225D02*
X033164Y022225D01*
X036243Y022225D02*
X036643Y022625D01*
X036643Y031775D01*
X037043Y032175D01*
X047993Y032175D01*
X048693Y031475D01*
X048693Y025775D01*
X049743Y024725D01*
X051293Y024725D01*
D55*
X047093Y020625D03*
X046193Y020825D03*
X049343Y016775D03*
X047393Y016125D03*
X049543Y028875D03*
X049543Y029325D03*
X049543Y029775D03*
X049543Y030225D03*
X049993Y030225D03*
X050443Y030225D03*
X050893Y030225D03*
X051343Y030225D03*
X051793Y030225D03*
X051793Y029775D03*
X051793Y029325D03*
X051793Y028875D03*
X029543Y015375D03*
X022143Y015125D03*
X019943Y027775D03*
D56*
X024793Y023725D03*
X024793Y022725D03*
X025593Y013875D03*
X025643Y011475D03*
X022043Y011475D03*
X019643Y012025D03*
X019643Y013325D03*
X022043Y013875D03*
X037193Y016075D03*
X038993Y014075D03*
D57*
X043366Y016045D02*
X043393Y016017D01*
X045091Y017512D02*
X045091Y018328D01*
X044493Y018925D01*
X043443Y018925D01*
X043393Y018975D01*
X043393Y019025D01*
X043543Y019175D01*
X027141Y022725D02*
X026183Y022725D01*
X025503Y022725D02*
X024793Y022725D01*
X024793Y023725D02*
X025503Y023725D01*
X026183Y023725D02*
X027141Y023725D01*
D58*
X053193Y029025D03*
X053193Y031175D03*
D59*
X046493Y017125D02*
X046493Y014325D01*
X046043Y013875D01*
X042243Y014225D02*
X042193Y014175D01*
X040941Y014175D01*
X035243Y013275D02*
X034943Y012975D01*
X034593Y012975D01*
X034293Y013275D01*
X034243Y013275D01*
X031243Y013275D02*
X031243Y012275D01*
X031093Y012375D02*
X031143Y012425D01*
X030943Y012625D01*
X030693Y012775D02*
X030293Y012375D01*
X031093Y012375D01*
X030693Y012775D02*
X030993Y013075D01*
X031093Y013075D01*
X030993Y013175D01*
X030743Y013175D01*
X030243Y012675D01*
X030243Y012275D01*
X030243Y013275D01*
X031243Y013275D01*
X026341Y013876D02*
X026340Y013875D01*
X025593Y013875D01*
X022791Y013876D02*
X022790Y013875D01*
X022043Y013875D01*
X022043Y011475D02*
X022790Y011475D01*
X022791Y011474D01*
X025643Y011475D02*
X026340Y011475D01*
X026341Y011474D01*
D60*
X028093Y010375D02*
X028093Y009625D01*
X028693Y009025D01*
X032443Y009025D01*
X034593Y011175D01*
X034593Y012975D01*
X041684Y012975D01*
X042243Y013534D01*
X042243Y014225D01*
X043493Y015475D01*
X044743Y015475D01*
X043643Y012725D02*
X048712Y012725D01*
X051293Y015306D01*
X051293Y022565D01*
X050683Y023175D01*
X044093Y023175D01*
X050643Y024813D02*
X050731Y024725D01*
X051293Y024725D01*
X052843Y023175D01*
X052843Y014525D01*
X051143Y012825D01*
X051143Y012725D01*
X051143Y010225D01*
X039843Y010225D01*
X039793Y010175D01*
X039843Y010125D01*
X039843Y009475D01*
X039843Y009375D01*
X038343Y008275D02*
X038343Y007225D01*
X038843Y006725D01*
X043643Y006725D01*
X051143Y006725D02*
X051143Y010225D01*
X031393Y010375D02*
X031393Y010875D01*
X030743Y011525D01*
X030743Y012725D01*
X030693Y012775D01*
D61*
X046043Y013875D03*
D62*
X044743Y015475D02*
X044741Y015478D01*
X045091Y015938D01*
X043493Y015475D02*
X043366Y015603D01*
X043366Y016045D01*
X035243Y013275D02*
X035243Y012275D01*
X034243Y012275D02*
X034243Y013275D01*
D63*
X037843Y010625D02*
X038843Y010625D01*
X038843Y008775D01*
X037843Y008775D01*
X037843Y010625D01*
X037843Y010581D02*
X038843Y010581D01*
X038843Y010522D02*
X037843Y010522D01*
X037843Y010464D02*
X038843Y010464D01*
X038843Y010405D02*
X037843Y010405D01*
X037843Y010347D02*
X038843Y010347D01*
X038843Y010288D02*
X037843Y010288D01*
X037843Y010230D02*
X038843Y010230D01*
X038843Y010171D02*
X037843Y010171D01*
X037843Y010113D02*
X038843Y010113D01*
X038843Y010054D02*
X037843Y010054D01*
X037843Y009996D02*
X038843Y009996D01*
X038843Y009937D02*
X037843Y009937D01*
X037843Y009879D02*
X038843Y009879D01*
X038843Y009820D02*
X037843Y009820D01*
X037843Y009762D02*
X038843Y009762D01*
X038843Y009703D02*
X037843Y009703D01*
X037843Y009645D02*
X038843Y009645D01*
X038843Y009586D02*
X037843Y009586D01*
X037843Y009528D02*
X038843Y009528D01*
X038843Y009469D02*
X037843Y009469D01*
X037843Y009411D02*
X038843Y009411D01*
X038843Y009352D02*
X037843Y009352D01*
X037843Y009294D02*
X038843Y009294D01*
X038843Y009235D02*
X037843Y009235D01*
X037843Y009177D02*
X038843Y009177D01*
X038843Y009118D02*
X037843Y009118D01*
X037843Y009060D02*
X038843Y009060D01*
X038843Y009001D02*
X037843Y009001D01*
X037843Y008943D02*
X038843Y008943D01*
X038843Y008884D02*
X037843Y008884D01*
X037843Y008826D02*
X038843Y008826D01*
X039043Y008826D02*
X039843Y008826D01*
X039843Y008775D02*
X039843Y010725D01*
X039043Y010725D01*
X039043Y008775D01*
X039843Y008775D01*
X039843Y008884D02*
X039043Y008884D01*
X039043Y008943D02*
X039843Y008943D01*
X039843Y009001D02*
X039043Y009001D01*
X039043Y009060D02*
X039843Y009060D01*
X039843Y009118D02*
X039043Y009118D01*
X039043Y009177D02*
X039843Y009177D01*
X039843Y009235D02*
X039043Y009235D01*
X039043Y009294D02*
X039843Y009294D01*
X039843Y009352D02*
X039043Y009352D01*
X039043Y009411D02*
X039843Y009411D01*
X039843Y009469D02*
X039043Y009469D01*
X039043Y009528D02*
X039843Y009528D01*
X039843Y009586D02*
X039043Y009586D01*
X039043Y009645D02*
X039843Y009645D01*
X039843Y009703D02*
X039043Y009703D01*
X039043Y009762D02*
X039843Y009762D01*
X039843Y009820D02*
X039043Y009820D01*
X039043Y009879D02*
X039843Y009879D01*
X039843Y009937D02*
X039043Y009937D01*
X039043Y009996D02*
X039843Y009996D01*
X039843Y010054D02*
X039043Y010054D01*
X039043Y010113D02*
X039843Y010113D01*
X039843Y010171D02*
X039043Y010171D01*
X039043Y010230D02*
X039843Y010230D01*
X039843Y010288D02*
X039043Y010288D01*
X039043Y010347D02*
X039843Y010347D01*
X039843Y010405D02*
X039043Y010405D01*
X039043Y010464D02*
X039843Y010464D01*
X039843Y010522D02*
X039043Y010522D01*
X039043Y010581D02*
X039843Y010581D01*
X039843Y010639D02*
X039043Y010639D01*
X039043Y010698D02*
X039843Y010698D01*
X043093Y022525D02*
X044343Y022525D01*
X044843Y023025D01*
X044843Y023375D01*
X044343Y023875D01*
X043093Y023875D01*
X043093Y022525D01*
X043093Y022573D02*
X044391Y022573D01*
X044450Y022632D02*
X043093Y022632D01*
X043093Y022690D02*
X044508Y022690D01*
X044567Y022749D02*
X043093Y022749D01*
X043093Y022807D02*
X044625Y022807D01*
X044684Y022866D02*
X043093Y022866D01*
X043093Y022924D02*
X044742Y022924D01*
X044801Y022983D02*
X043093Y022983D01*
X043093Y023041D02*
X044843Y023041D01*
X044843Y023100D02*
X043093Y023100D01*
X043093Y023158D02*
X044843Y023158D01*
X044843Y023217D02*
X043093Y023217D01*
X043093Y023275D02*
X044843Y023275D01*
X044843Y023334D02*
X043093Y023334D01*
X043093Y023392D02*
X044826Y023392D01*
X044768Y023451D02*
X043093Y023451D01*
X043093Y023509D02*
X044709Y023509D01*
X044651Y023568D02*
X043093Y023568D01*
X043093Y023626D02*
X044592Y023626D01*
X044534Y023685D02*
X043093Y023685D01*
X043093Y023743D02*
X044475Y023743D01*
X044417Y023802D02*
X043093Y023802D01*
X043093Y023860D02*
X044358Y023860D01*
D64*
X038343Y009175D02*
X038343Y008275D01*
D65*
X039343Y009175D02*
X039543Y009175D01*
X039843Y009475D01*
D66*
X018493Y028825D03*
M02*
