G75*
%MOIN*%
%OFA0B0*%
%FSLAX24Y24*%
%IPPOS*%
%LPD*%
%AMOC8*
5,1,8,0,0,1.08239X$1,22.5*
%
%ADD10C,0.0000*%
D10*
X005993Y006375D02*
X019343Y006375D01*
X019993Y005725D01*
X053993Y005725D01*
X054493Y006225D01*
X054493Y036025D01*
X053993Y036525D01*
X029893Y036525D01*
X029243Y037175D01*
X005993Y037175D01*
X005493Y036675D01*
X005493Y006875D01*
X005993Y006375D01*
X010943Y012775D02*
X010945Y012825D01*
X010951Y012875D01*
X010961Y012925D01*
X010974Y012973D01*
X010991Y013021D01*
X011012Y013067D01*
X011036Y013111D01*
X011064Y013153D01*
X011095Y013193D01*
X011129Y013230D01*
X011166Y013265D01*
X011205Y013296D01*
X011246Y013325D01*
X011290Y013350D01*
X011336Y013372D01*
X011383Y013390D01*
X011431Y013404D01*
X011480Y013415D01*
X011530Y013422D01*
X011580Y013425D01*
X011631Y013424D01*
X011681Y013419D01*
X011731Y013410D01*
X011779Y013398D01*
X011827Y013381D01*
X011873Y013361D01*
X011918Y013338D01*
X011961Y013311D01*
X012001Y013281D01*
X012039Y013248D01*
X012074Y013212D01*
X012107Y013173D01*
X012136Y013132D01*
X012162Y013089D01*
X012185Y013044D01*
X012204Y012997D01*
X012219Y012949D01*
X012231Y012900D01*
X012239Y012850D01*
X012243Y012800D01*
X012243Y012750D01*
X012239Y012700D01*
X012231Y012650D01*
X012219Y012601D01*
X012204Y012553D01*
X012185Y012506D01*
X012162Y012461D01*
X012136Y012418D01*
X012107Y012377D01*
X012074Y012338D01*
X012039Y012302D01*
X012001Y012269D01*
X011961Y012239D01*
X011918Y012212D01*
X011873Y012189D01*
X011827Y012169D01*
X011779Y012152D01*
X011731Y012140D01*
X011681Y012131D01*
X011631Y012126D01*
X011580Y012125D01*
X011530Y012128D01*
X011480Y012135D01*
X011431Y012146D01*
X011383Y012160D01*
X011336Y012178D01*
X011290Y012200D01*
X011246Y012225D01*
X011205Y012254D01*
X011166Y012285D01*
X011129Y012320D01*
X011095Y012357D01*
X011064Y012397D01*
X011036Y012439D01*
X011012Y012483D01*
X010991Y012529D01*
X010974Y012577D01*
X010961Y012625D01*
X010951Y012675D01*
X010945Y012725D01*
X010943Y012775D01*
X020378Y006425D02*
X020380Y006451D01*
X020386Y006477D01*
X020396Y006502D01*
X020409Y006525D01*
X020425Y006545D01*
X020445Y006563D01*
X020467Y006578D01*
X020490Y006590D01*
X020516Y006598D01*
X020542Y006602D01*
X020568Y006602D01*
X020594Y006598D01*
X020620Y006590D01*
X020644Y006578D01*
X020665Y006563D01*
X020685Y006545D01*
X020701Y006525D01*
X020714Y006502D01*
X020724Y006477D01*
X020730Y006451D01*
X020732Y006425D01*
X020730Y006399D01*
X020724Y006373D01*
X020714Y006348D01*
X020701Y006325D01*
X020685Y006305D01*
X020665Y006287D01*
X020643Y006272D01*
X020620Y006260D01*
X020594Y006252D01*
X020568Y006248D01*
X020542Y006248D01*
X020516Y006252D01*
X020490Y006260D01*
X020466Y006272D01*
X020445Y006287D01*
X020425Y006305D01*
X020409Y006325D01*
X020396Y006348D01*
X020386Y006373D01*
X020380Y006399D01*
X020378Y006425D01*
X023055Y006425D02*
X023057Y006451D01*
X023063Y006477D01*
X023073Y006502D01*
X023086Y006525D01*
X023102Y006545D01*
X023122Y006563D01*
X023144Y006578D01*
X023167Y006590D01*
X023193Y006598D01*
X023219Y006602D01*
X023245Y006602D01*
X023271Y006598D01*
X023297Y006590D01*
X023321Y006578D01*
X023342Y006563D01*
X023362Y006545D01*
X023378Y006525D01*
X023391Y006502D01*
X023401Y006477D01*
X023407Y006451D01*
X023409Y006425D01*
X023407Y006399D01*
X023401Y006373D01*
X023391Y006348D01*
X023378Y006325D01*
X023362Y006305D01*
X023342Y006287D01*
X023320Y006272D01*
X023297Y006260D01*
X023271Y006252D01*
X023245Y006248D01*
X023219Y006248D01*
X023193Y006252D01*
X023167Y006260D01*
X023143Y006272D01*
X023122Y006287D01*
X023102Y006305D01*
X023086Y006325D01*
X023073Y006348D01*
X023063Y006373D01*
X023057Y006399D01*
X023055Y006425D01*
X027503Y007505D02*
X027505Y007553D01*
X027511Y007601D01*
X027521Y007648D01*
X027534Y007694D01*
X027551Y007739D01*
X027572Y007782D01*
X027597Y007824D01*
X027624Y007863D01*
X027655Y007900D01*
X027689Y007935D01*
X027725Y007966D01*
X027764Y007995D01*
X027805Y008020D01*
X027848Y008042D01*
X027892Y008060D01*
X027938Y008074D01*
X027985Y008085D01*
X028033Y008092D01*
X028081Y008095D01*
X028129Y008094D01*
X028177Y008089D01*
X028224Y008080D01*
X028271Y008068D01*
X028316Y008051D01*
X028360Y008031D01*
X028402Y008008D01*
X028442Y007981D01*
X028479Y007951D01*
X028514Y007918D01*
X028547Y007882D01*
X028576Y007844D01*
X028602Y007803D01*
X028625Y007761D01*
X028644Y007717D01*
X028659Y007671D01*
X028671Y007625D01*
X028679Y007577D01*
X028683Y007529D01*
X028683Y007481D01*
X028679Y007433D01*
X028671Y007385D01*
X028659Y007339D01*
X028644Y007293D01*
X028625Y007249D01*
X028602Y007207D01*
X028576Y007166D01*
X028547Y007128D01*
X028514Y007092D01*
X028479Y007059D01*
X028442Y007029D01*
X028402Y007002D01*
X028360Y006979D01*
X028316Y006959D01*
X028271Y006942D01*
X028224Y006930D01*
X028177Y006921D01*
X028129Y006916D01*
X028081Y006915D01*
X028033Y006918D01*
X027985Y006925D01*
X027938Y006936D01*
X027892Y006950D01*
X027848Y006968D01*
X027805Y006990D01*
X027764Y007015D01*
X027725Y007044D01*
X027689Y007075D01*
X027655Y007110D01*
X027624Y007147D01*
X027597Y007186D01*
X027572Y007228D01*
X027551Y007271D01*
X027534Y007316D01*
X027521Y007362D01*
X027511Y007409D01*
X027505Y007457D01*
X027503Y007505D01*
X030803Y007505D02*
X030805Y007553D01*
X030811Y007601D01*
X030821Y007648D01*
X030834Y007694D01*
X030851Y007739D01*
X030872Y007782D01*
X030897Y007824D01*
X030924Y007863D01*
X030955Y007900D01*
X030989Y007935D01*
X031025Y007966D01*
X031064Y007995D01*
X031105Y008020D01*
X031148Y008042D01*
X031192Y008060D01*
X031238Y008074D01*
X031285Y008085D01*
X031333Y008092D01*
X031381Y008095D01*
X031429Y008094D01*
X031477Y008089D01*
X031524Y008080D01*
X031571Y008068D01*
X031616Y008051D01*
X031660Y008031D01*
X031702Y008008D01*
X031742Y007981D01*
X031779Y007951D01*
X031814Y007918D01*
X031847Y007882D01*
X031876Y007844D01*
X031902Y007803D01*
X031925Y007761D01*
X031944Y007717D01*
X031959Y007671D01*
X031971Y007625D01*
X031979Y007577D01*
X031983Y007529D01*
X031983Y007481D01*
X031979Y007433D01*
X031971Y007385D01*
X031959Y007339D01*
X031944Y007293D01*
X031925Y007249D01*
X031902Y007207D01*
X031876Y007166D01*
X031847Y007128D01*
X031814Y007092D01*
X031779Y007059D01*
X031742Y007029D01*
X031702Y007002D01*
X031660Y006979D01*
X031616Y006959D01*
X031571Y006942D01*
X031524Y006930D01*
X031477Y006921D01*
X031429Y006916D01*
X031381Y006915D01*
X031333Y006918D01*
X031285Y006925D01*
X031238Y006936D01*
X031192Y006950D01*
X031148Y006968D01*
X031105Y006990D01*
X031064Y007015D01*
X031025Y007044D01*
X030989Y007075D01*
X030955Y007110D01*
X030924Y007147D01*
X030897Y007186D01*
X030872Y007228D01*
X030851Y007271D01*
X030834Y007316D01*
X030821Y007362D01*
X030811Y007409D01*
X030805Y007457D01*
X030803Y007505D01*
X046743Y007925D02*
X046745Y007975D01*
X046751Y008025D01*
X046761Y008075D01*
X046774Y008123D01*
X046791Y008171D01*
X046812Y008217D01*
X046836Y008261D01*
X046864Y008303D01*
X046895Y008343D01*
X046929Y008380D01*
X046966Y008415D01*
X047005Y008446D01*
X047046Y008475D01*
X047090Y008500D01*
X047136Y008522D01*
X047183Y008540D01*
X047231Y008554D01*
X047280Y008565D01*
X047330Y008572D01*
X047380Y008575D01*
X047431Y008574D01*
X047481Y008569D01*
X047531Y008560D01*
X047579Y008548D01*
X047627Y008531D01*
X047673Y008511D01*
X047718Y008488D01*
X047761Y008461D01*
X047801Y008431D01*
X047839Y008398D01*
X047874Y008362D01*
X047907Y008323D01*
X047936Y008282D01*
X047962Y008239D01*
X047985Y008194D01*
X048004Y008147D01*
X048019Y008099D01*
X048031Y008050D01*
X048039Y008000D01*
X048043Y007950D01*
X048043Y007900D01*
X048039Y007850D01*
X048031Y007800D01*
X048019Y007751D01*
X048004Y007703D01*
X047985Y007656D01*
X047962Y007611D01*
X047936Y007568D01*
X047907Y007527D01*
X047874Y007488D01*
X047839Y007452D01*
X047801Y007419D01*
X047761Y007389D01*
X047718Y007362D01*
X047673Y007339D01*
X047627Y007319D01*
X047579Y007302D01*
X047531Y007290D01*
X047481Y007281D01*
X047431Y007276D01*
X047380Y007275D01*
X047330Y007278D01*
X047280Y007285D01*
X047231Y007296D01*
X047183Y007310D01*
X047136Y007328D01*
X047090Y007350D01*
X047046Y007375D01*
X047005Y007404D01*
X046966Y007435D01*
X046929Y007470D01*
X046895Y007507D01*
X046864Y007547D01*
X046836Y007589D01*
X046812Y007633D01*
X046791Y007679D01*
X046774Y007727D01*
X046761Y007775D01*
X046751Y007825D01*
X046745Y007875D01*
X046743Y007925D01*
X050343Y031825D02*
X050345Y031875D01*
X050351Y031925D01*
X050361Y031975D01*
X050374Y032023D01*
X050391Y032071D01*
X050412Y032117D01*
X050436Y032161D01*
X050464Y032203D01*
X050495Y032243D01*
X050529Y032280D01*
X050566Y032315D01*
X050605Y032346D01*
X050646Y032375D01*
X050690Y032400D01*
X050736Y032422D01*
X050783Y032440D01*
X050831Y032454D01*
X050880Y032465D01*
X050930Y032472D01*
X050980Y032475D01*
X051031Y032474D01*
X051081Y032469D01*
X051131Y032460D01*
X051179Y032448D01*
X051227Y032431D01*
X051273Y032411D01*
X051318Y032388D01*
X051361Y032361D01*
X051401Y032331D01*
X051439Y032298D01*
X051474Y032262D01*
X051507Y032223D01*
X051536Y032182D01*
X051562Y032139D01*
X051585Y032094D01*
X051604Y032047D01*
X051619Y031999D01*
X051631Y031950D01*
X051639Y031900D01*
X051643Y031850D01*
X051643Y031800D01*
X051639Y031750D01*
X051631Y031700D01*
X051619Y031651D01*
X051604Y031603D01*
X051585Y031556D01*
X051562Y031511D01*
X051536Y031468D01*
X051507Y031427D01*
X051474Y031388D01*
X051439Y031352D01*
X051401Y031319D01*
X051361Y031289D01*
X051318Y031262D01*
X051273Y031239D01*
X051227Y031219D01*
X051179Y031202D01*
X051131Y031190D01*
X051081Y031181D01*
X051031Y031176D01*
X050980Y031175D01*
X050930Y031178D01*
X050880Y031185D01*
X050831Y031196D01*
X050783Y031210D01*
X050736Y031228D01*
X050690Y031250D01*
X050646Y031275D01*
X050605Y031304D01*
X050566Y031335D01*
X050529Y031370D01*
X050495Y031407D01*
X050464Y031447D01*
X050436Y031489D01*
X050412Y031533D01*
X050391Y031579D01*
X050374Y031627D01*
X050361Y031675D01*
X050351Y031725D01*
X050345Y031775D01*
X050343Y031825D01*
X007543Y033725D02*
X007545Y033775D01*
X007551Y033825D01*
X007561Y033875D01*
X007574Y033923D01*
X007591Y033971D01*
X007612Y034017D01*
X007636Y034061D01*
X007664Y034103D01*
X007695Y034143D01*
X007729Y034180D01*
X007766Y034215D01*
X007805Y034246D01*
X007846Y034275D01*
X007890Y034300D01*
X007936Y034322D01*
X007983Y034340D01*
X008031Y034354D01*
X008080Y034365D01*
X008130Y034372D01*
X008180Y034375D01*
X008231Y034374D01*
X008281Y034369D01*
X008331Y034360D01*
X008379Y034348D01*
X008427Y034331D01*
X008473Y034311D01*
X008518Y034288D01*
X008561Y034261D01*
X008601Y034231D01*
X008639Y034198D01*
X008674Y034162D01*
X008707Y034123D01*
X008736Y034082D01*
X008762Y034039D01*
X008785Y033994D01*
X008804Y033947D01*
X008819Y033899D01*
X008831Y033850D01*
X008839Y033800D01*
X008843Y033750D01*
X008843Y033700D01*
X008839Y033650D01*
X008831Y033600D01*
X008819Y033551D01*
X008804Y033503D01*
X008785Y033456D01*
X008762Y033411D01*
X008736Y033368D01*
X008707Y033327D01*
X008674Y033288D01*
X008639Y033252D01*
X008601Y033219D01*
X008561Y033189D01*
X008518Y033162D01*
X008473Y033139D01*
X008427Y033119D01*
X008379Y033102D01*
X008331Y033090D01*
X008281Y033081D01*
X008231Y033076D01*
X008180Y033075D01*
X008130Y033078D01*
X008080Y033085D01*
X008031Y033096D01*
X007983Y033110D01*
X007936Y033128D01*
X007890Y033150D01*
X007846Y033175D01*
X007805Y033204D01*
X007766Y033235D01*
X007729Y033270D01*
X007695Y033307D01*
X007664Y033347D01*
X007636Y033389D01*
X007612Y033433D01*
X007591Y033479D01*
X007574Y033527D01*
X007561Y033575D01*
X007551Y033625D01*
X007545Y033675D01*
X007543Y033725D01*
M02*
