G75*
%MOIN*%
%OFA0B0*%
%FSLAX24Y24*%
%IPPOS*%
%LPD*%
%AMOC8*
5,1,8,0,0,1.08239X$1,22.5*
%
%ADD10C,0.0591*%
%ADD11C,0.1210*%
%ADD12C,0.0600*%
%ADD13C,0.1065*%
%ADD14C,0.0531*%
%ADD15C,0.0472*%
%ADD16C,0.0945*%
%ADD17C,0.0100*%
%ADD18C,0.0270*%
%ADD19C,0.0376*%
%ADD20C,0.0120*%
%ADD21C,0.0886*%
%ADD22C,0.0650*%
%ADD23C,0.0160*%
%ADD24C,0.0240*%
D10*
X008141Y013125D03*
X008141Y014125D03*
X008141Y015125D03*
X008141Y016125D03*
X008141Y017125D03*
X008141Y018125D03*
X008141Y019125D03*
X008141Y020125D03*
X008141Y021125D03*
X008141Y022125D03*
X008141Y023725D03*
X008141Y024725D03*
X008141Y025725D03*
X008141Y026725D03*
X008141Y027725D03*
X008141Y028725D03*
X008141Y029725D03*
X008141Y030725D03*
X016141Y030775D03*
X017141Y030775D03*
X018141Y030775D03*
X018141Y031775D03*
X017141Y031775D03*
X016141Y031775D03*
X027141Y030725D03*
X027141Y029725D03*
X027141Y028725D03*
X027141Y027725D03*
X027141Y026725D03*
X027141Y025725D03*
X027141Y023725D03*
X027141Y022725D03*
X027141Y021725D03*
X027141Y020725D03*
X027141Y019725D03*
X027141Y018725D03*
X027141Y017725D03*
X027141Y016725D03*
D11*
X018756Y008735D03*
X014731Y008735D03*
X012556Y008735D03*
X008531Y008735D03*
X030381Y034165D03*
X034406Y034165D03*
X036581Y034165D03*
X040606Y034165D03*
X042781Y034165D03*
X046806Y034165D03*
X048981Y034165D03*
X053006Y034165D03*
D12*
X035243Y013275D03*
X034243Y013275D03*
X033243Y013275D03*
X032243Y013275D03*
X031243Y013275D03*
X030243Y013275D03*
X030243Y012275D03*
X031243Y012275D03*
X032243Y012275D03*
X033243Y012275D03*
X034243Y012275D03*
X035243Y012275D03*
X035343Y010175D03*
X035343Y009175D03*
X036343Y009175D03*
X036343Y010175D03*
X037343Y010175D03*
X038343Y010175D03*
X038343Y009175D03*
X037343Y009175D03*
X039343Y009175D03*
X039343Y010175D03*
D13*
X031393Y010375D03*
X029743Y010375D03*
X028093Y010375D03*
D14*
X025643Y011475D03*
X025593Y013875D03*
X022043Y013875D03*
X019643Y013325D03*
X019643Y012025D03*
X022043Y011475D03*
X024793Y022725D03*
X024793Y023725D03*
X037193Y016075D03*
X038993Y014075D03*
X019843Y035325D03*
X018843Y035325D03*
X017843Y035325D03*
D15*
X013493Y035925D03*
X011493Y035925D03*
X010643Y030925D03*
X012493Y030925D03*
X014343Y030925D03*
D16*
X043643Y012725D03*
X043643Y006725D03*
X051143Y006725D03*
X051143Y012725D03*
D17*
X006076Y006575D02*
X005693Y006958D01*
X005693Y031225D01*
X008693Y031225D01*
X008693Y030425D01*
X015493Y030425D01*
X015493Y032325D01*
X019993Y032325D01*
X019993Y029025D01*
X020793Y029025D01*
X020793Y024625D01*
X013493Y024625D01*
X013493Y006575D01*
X006076Y006575D01*
X006040Y006612D02*
X013493Y006612D01*
X013493Y006710D02*
X005941Y006710D01*
X005843Y006809D02*
X013493Y006809D01*
X013493Y006907D02*
X005744Y006907D01*
X005693Y007006D02*
X013493Y007006D01*
X013493Y007104D02*
X005693Y007104D01*
X005693Y007203D02*
X013493Y007203D01*
X013493Y007301D02*
X005693Y007301D01*
X005693Y007400D02*
X013493Y007400D01*
X013493Y007498D02*
X005693Y007498D01*
X005693Y007597D02*
X013493Y007597D01*
X013493Y007695D02*
X005693Y007695D01*
X005693Y007794D02*
X013493Y007794D01*
X013493Y007892D02*
X005693Y007892D01*
X005693Y007991D02*
X008355Y007991D01*
X008381Y007980D02*
X008681Y007980D01*
X008958Y008095D01*
X009171Y008307D01*
X009286Y008585D01*
X009286Y008885D01*
X009171Y009163D01*
X008958Y009375D01*
X008681Y009490D01*
X008381Y009490D01*
X008103Y009375D01*
X007891Y009163D01*
X007776Y008885D01*
X007776Y008585D01*
X007891Y008307D01*
X008103Y008095D01*
X008381Y007980D01*
X008117Y008089D02*
X005693Y008089D01*
X005693Y008188D02*
X008011Y008188D01*
X007912Y008286D02*
X005693Y008286D01*
X005693Y008385D02*
X007859Y008385D01*
X007818Y008483D02*
X005693Y008483D01*
X005693Y008582D02*
X007777Y008582D01*
X007776Y008680D02*
X005693Y008680D01*
X005693Y008779D02*
X007776Y008779D01*
X007776Y008877D02*
X005693Y008877D01*
X005693Y008976D02*
X007813Y008976D01*
X007854Y009074D02*
X005693Y009074D01*
X005693Y009173D02*
X007901Y009173D01*
X007999Y009271D02*
X005693Y009271D01*
X005693Y009370D02*
X008098Y009370D01*
X008328Y009468D02*
X005693Y009468D01*
X005693Y009567D02*
X013493Y009567D01*
X013493Y009665D02*
X005693Y009665D01*
X005693Y009764D02*
X013493Y009764D01*
X013493Y009862D02*
X005693Y009862D01*
X005693Y009961D02*
X013493Y009961D01*
X013493Y010059D02*
X005693Y010059D01*
X005693Y010158D02*
X013493Y010158D01*
X013493Y010256D02*
X005693Y010256D01*
X005693Y010355D02*
X013493Y010355D01*
X013493Y010453D02*
X005693Y010453D01*
X005693Y010552D02*
X013493Y010552D01*
X013493Y010650D02*
X005693Y010650D01*
X005693Y010749D02*
X013493Y010749D01*
X013493Y010847D02*
X005693Y010847D01*
X005693Y010946D02*
X013493Y010946D01*
X013493Y011044D02*
X005693Y011044D01*
X005693Y011143D02*
X013493Y011143D01*
X013493Y011241D02*
X005693Y011241D01*
X005693Y011340D02*
X013493Y011340D01*
X013493Y011438D02*
X005693Y011438D01*
X005693Y011537D02*
X013493Y011537D01*
X013493Y011635D02*
X005693Y011635D01*
X005693Y011734D02*
X013493Y011734D01*
X013493Y011832D02*
X005693Y011832D01*
X005693Y011931D02*
X011411Y011931D01*
X011424Y011925D02*
X011762Y011925D01*
X012075Y012054D01*
X012314Y012294D01*
X012443Y012606D01*
X012443Y012944D01*
X012314Y013256D01*
X012075Y013496D01*
X011762Y013625D01*
X011424Y013625D01*
X011112Y013496D01*
X010873Y013256D01*
X010743Y012944D01*
X010743Y012606D01*
X010873Y012294D01*
X011112Y012054D01*
X011424Y011925D01*
X011173Y012029D02*
X005693Y012029D01*
X005693Y012128D02*
X011039Y012128D01*
X010940Y012226D02*
X005693Y012226D01*
X005693Y012325D02*
X010860Y012325D01*
X010819Y012423D02*
X005693Y012423D01*
X005693Y012522D02*
X010778Y012522D01*
X010743Y012620D02*
X005693Y012620D01*
X005693Y012719D02*
X007958Y012719D01*
X007888Y012748D02*
X008052Y012680D01*
X008229Y012680D01*
X008393Y012748D01*
X008518Y012873D01*
X008586Y013036D01*
X008586Y013214D01*
X008518Y013377D01*
X008393Y013502D01*
X008229Y013570D01*
X008052Y013570D01*
X007888Y013502D01*
X007763Y013377D01*
X007695Y013214D01*
X007695Y013036D01*
X007763Y012873D01*
X007888Y012748D01*
X007819Y012817D02*
X005693Y012817D01*
X005693Y012916D02*
X007745Y012916D01*
X007705Y013014D02*
X005693Y013014D01*
X005693Y013113D02*
X007695Y013113D01*
X007695Y013211D02*
X005693Y013211D01*
X005693Y013310D02*
X007735Y013310D01*
X007794Y013408D02*
X005693Y013408D01*
X005693Y013507D02*
X007898Y013507D01*
X007995Y013704D02*
X005693Y013704D01*
X005693Y013802D02*
X007834Y013802D01*
X007888Y013748D02*
X008052Y013680D01*
X008229Y013680D01*
X008393Y013748D01*
X008518Y013873D01*
X008586Y014036D01*
X008586Y014214D01*
X008518Y014377D01*
X008393Y014502D01*
X008229Y014570D01*
X008052Y014570D01*
X007888Y014502D01*
X007763Y014377D01*
X007695Y014214D01*
X007695Y014036D01*
X007763Y013873D01*
X007888Y013748D01*
X007752Y013901D02*
X005693Y013901D01*
X005693Y013999D02*
X007711Y013999D01*
X007695Y014098D02*
X005693Y014098D01*
X005693Y014196D02*
X007695Y014196D01*
X007729Y014295D02*
X005693Y014295D01*
X005693Y014393D02*
X007779Y014393D01*
X007877Y014492D02*
X005693Y014492D01*
X005693Y014590D02*
X013493Y014590D01*
X013493Y014492D02*
X008404Y014492D01*
X008502Y014393D02*
X013493Y014393D01*
X013493Y014295D02*
X008552Y014295D01*
X008586Y014196D02*
X013493Y014196D01*
X013493Y014098D02*
X008586Y014098D01*
X008570Y013999D02*
X013493Y013999D01*
X013493Y013901D02*
X008530Y013901D01*
X008447Y013802D02*
X013493Y013802D01*
X013493Y013704D02*
X008287Y013704D01*
X008383Y013507D02*
X011138Y013507D01*
X011024Y013408D02*
X008487Y013408D01*
X008546Y013310D02*
X010926Y013310D01*
X010854Y013211D02*
X008586Y013211D01*
X008586Y013113D02*
X010813Y013113D01*
X010772Y013014D02*
X008577Y013014D01*
X008536Y012916D02*
X010743Y012916D01*
X010743Y012817D02*
X008462Y012817D01*
X008323Y012719D02*
X010743Y012719D01*
X011376Y013605D02*
X005693Y013605D01*
X005693Y014689D02*
X008031Y014689D01*
X008052Y014680D02*
X008229Y014680D01*
X008393Y014748D01*
X008518Y014873D01*
X008586Y015036D01*
X008586Y015214D01*
X008518Y015377D01*
X008393Y015502D01*
X008229Y015570D01*
X008052Y015570D01*
X007888Y015502D01*
X007763Y015377D01*
X007695Y015214D01*
X007695Y015036D01*
X007763Y014873D01*
X007888Y014748D01*
X008052Y014680D01*
X008250Y014689D02*
X013493Y014689D01*
X013493Y014787D02*
X008432Y014787D01*
X008523Y014886D02*
X013493Y014886D01*
X013493Y014984D02*
X008564Y014984D01*
X008586Y015083D02*
X013493Y015083D01*
X013493Y015181D02*
X008586Y015181D01*
X008559Y015280D02*
X013493Y015280D01*
X013493Y015378D02*
X008517Y015378D01*
X008419Y015477D02*
X013493Y015477D01*
X013493Y015575D02*
X005693Y015575D01*
X005693Y015477D02*
X007862Y015477D01*
X007764Y015378D02*
X005693Y015378D01*
X005693Y015280D02*
X007723Y015280D01*
X007695Y015181D02*
X005693Y015181D01*
X005693Y015083D02*
X007695Y015083D01*
X007717Y014984D02*
X005693Y014984D01*
X005693Y014886D02*
X007758Y014886D01*
X007849Y014787D02*
X005693Y014787D01*
X005693Y015674D02*
X013493Y015674D01*
X013493Y015772D02*
X008417Y015772D01*
X008393Y015748D02*
X008518Y015873D01*
X008586Y016036D01*
X008586Y016214D01*
X008518Y016377D01*
X008393Y016502D01*
X008229Y016570D01*
X008052Y016570D01*
X007888Y016502D01*
X007763Y016377D01*
X007695Y016214D01*
X007695Y016036D01*
X007763Y015873D01*
X007888Y015748D01*
X008052Y015680D01*
X008229Y015680D01*
X008393Y015748D01*
X008516Y015871D02*
X013493Y015871D01*
X013493Y015969D02*
X008558Y015969D01*
X008586Y016068D02*
X013493Y016068D01*
X013493Y016166D02*
X008586Y016166D01*
X008565Y016265D02*
X013493Y016265D01*
X013493Y016363D02*
X008524Y016363D01*
X008434Y016462D02*
X013493Y016462D01*
X013493Y016560D02*
X008254Y016560D01*
X008229Y016680D02*
X008393Y016748D01*
X008518Y016873D01*
X008586Y017036D01*
X008586Y017214D01*
X008518Y017377D01*
X008393Y017502D01*
X008229Y017570D01*
X008052Y017570D01*
X007888Y017502D01*
X007763Y017377D01*
X007695Y017214D01*
X007695Y017036D01*
X007763Y016873D01*
X007888Y016748D01*
X008052Y016680D01*
X008229Y016680D01*
X008402Y016757D02*
X013493Y016757D01*
X013493Y016659D02*
X005693Y016659D01*
X005693Y016757D02*
X007879Y016757D01*
X007780Y016856D02*
X005693Y016856D01*
X005693Y016954D02*
X007729Y016954D01*
X007695Y017053D02*
X005693Y017053D01*
X005693Y017151D02*
X007695Y017151D01*
X007710Y017250D02*
X005693Y017250D01*
X005693Y017348D02*
X007751Y017348D01*
X007832Y017447D02*
X005693Y017447D01*
X005693Y017545D02*
X007991Y017545D01*
X008052Y017680D02*
X008229Y017680D01*
X008393Y017748D01*
X008518Y017873D01*
X008586Y018036D01*
X008586Y018214D01*
X008518Y018377D01*
X008393Y018502D01*
X008229Y018570D01*
X008052Y018570D01*
X007888Y018502D01*
X007763Y018377D01*
X007695Y018214D01*
X007695Y018036D01*
X007763Y017873D01*
X007888Y017748D01*
X008052Y017680D01*
X007902Y017742D02*
X005693Y017742D01*
X005693Y017644D02*
X013493Y017644D01*
X013493Y017742D02*
X008380Y017742D01*
X008486Y017841D02*
X013493Y017841D01*
X013493Y017939D02*
X008545Y017939D01*
X008586Y018038D02*
X013493Y018038D01*
X013493Y018136D02*
X008586Y018136D01*
X008577Y018235D02*
X013493Y018235D01*
X013493Y018333D02*
X008536Y018333D01*
X008464Y018432D02*
X013493Y018432D01*
X013493Y018530D02*
X008326Y018530D01*
X008229Y018680D02*
X008393Y018748D01*
X008518Y018873D01*
X008586Y019036D01*
X008586Y019214D01*
X008518Y019377D01*
X008393Y019502D01*
X008229Y019570D01*
X008052Y019570D01*
X007888Y019502D01*
X007763Y019377D01*
X007695Y019214D01*
X007695Y019036D01*
X007763Y018873D01*
X007888Y018748D01*
X008052Y018680D01*
X008229Y018680D01*
X008343Y018727D02*
X013493Y018727D01*
X013493Y018629D02*
X005693Y018629D01*
X005693Y018727D02*
X007938Y018727D01*
X007810Y018826D02*
X005693Y018826D01*
X005693Y018924D02*
X007742Y018924D01*
X007701Y019023D02*
X005693Y019023D01*
X005693Y019121D02*
X007695Y019121D01*
X007698Y019220D02*
X005693Y019220D01*
X005693Y019318D02*
X007739Y019318D01*
X007802Y019417D02*
X005693Y019417D01*
X005693Y019515D02*
X007919Y019515D01*
X007974Y019712D02*
X005693Y019712D01*
X005693Y019614D02*
X013493Y019614D01*
X013493Y019712D02*
X008307Y019712D01*
X008229Y019680D02*
X008393Y019748D01*
X008518Y019873D01*
X008586Y020036D01*
X008586Y020214D01*
X008518Y020377D01*
X008393Y020502D01*
X008229Y020570D01*
X008052Y020570D01*
X007888Y020502D01*
X007763Y020377D01*
X007695Y020214D01*
X007695Y020036D01*
X007763Y019873D01*
X007888Y019748D01*
X008052Y019680D01*
X008229Y019680D01*
X008362Y019515D02*
X013493Y019515D01*
X013493Y019417D02*
X008479Y019417D01*
X008543Y019318D02*
X013493Y019318D01*
X013493Y019220D02*
X008583Y019220D01*
X008586Y019121D02*
X013493Y019121D01*
X013493Y019023D02*
X008580Y019023D01*
X008539Y018924D02*
X013493Y018924D01*
X013493Y018826D02*
X008471Y018826D01*
X007955Y018530D02*
X005693Y018530D01*
X005693Y018432D02*
X007817Y018432D01*
X007745Y018333D02*
X005693Y018333D01*
X005693Y018235D02*
X007704Y018235D01*
X007695Y018136D02*
X005693Y018136D01*
X005693Y018038D02*
X007695Y018038D01*
X007736Y017939D02*
X005693Y017939D01*
X005693Y017841D02*
X007795Y017841D01*
X008290Y017545D02*
X013493Y017545D01*
X013493Y017447D02*
X008449Y017447D01*
X008530Y017348D02*
X013493Y017348D01*
X013493Y017250D02*
X008571Y017250D01*
X008586Y017151D02*
X013493Y017151D01*
X013493Y017053D02*
X008586Y017053D01*
X008552Y016954D02*
X013493Y016954D01*
X013493Y016856D02*
X008501Y016856D01*
X008027Y016560D02*
X005693Y016560D01*
X005693Y016462D02*
X007847Y016462D01*
X007757Y016363D02*
X005693Y016363D01*
X005693Y016265D02*
X007716Y016265D01*
X007695Y016166D02*
X005693Y016166D01*
X005693Y016068D02*
X007695Y016068D01*
X007723Y015969D02*
X005693Y015969D01*
X005693Y015871D02*
X007765Y015871D01*
X007864Y015772D02*
X005693Y015772D01*
X005693Y019811D02*
X007825Y019811D01*
X007748Y019909D02*
X005693Y019909D01*
X005693Y020008D02*
X007707Y020008D01*
X007695Y020106D02*
X005693Y020106D01*
X005693Y020205D02*
X007695Y020205D01*
X007732Y020303D02*
X005693Y020303D01*
X005693Y020402D02*
X007787Y020402D01*
X007886Y020500D02*
X005693Y020500D01*
X005693Y020599D02*
X013493Y020599D01*
X013493Y020697D02*
X008271Y020697D01*
X008229Y020680D02*
X008393Y020748D01*
X008518Y020873D01*
X008586Y021036D01*
X008586Y021214D01*
X008518Y021377D01*
X008393Y021502D01*
X008229Y021570D01*
X008052Y021570D01*
X007888Y021502D01*
X007763Y021377D01*
X007695Y021214D01*
X007695Y021036D01*
X007763Y020873D01*
X007888Y020748D01*
X008052Y020680D01*
X008229Y020680D01*
X008010Y020697D02*
X005693Y020697D01*
X005693Y020796D02*
X007840Y020796D01*
X007754Y020894D02*
X005693Y020894D01*
X005693Y020993D02*
X007713Y020993D01*
X007695Y021091D02*
X005693Y021091D01*
X005693Y021190D02*
X007695Y021190D01*
X007726Y021288D02*
X005693Y021288D01*
X005693Y021387D02*
X007772Y021387D01*
X007871Y021485D02*
X005693Y021485D01*
X005693Y021584D02*
X013493Y021584D01*
X013493Y021682D02*
X008235Y021682D01*
X008229Y021680D02*
X008393Y021748D01*
X008518Y021873D01*
X008586Y022036D01*
X008586Y022214D01*
X008518Y022377D01*
X008393Y022502D01*
X008229Y022570D01*
X008052Y022570D01*
X007888Y022502D01*
X007763Y022377D01*
X007695Y022214D01*
X007695Y022036D01*
X007763Y021873D01*
X007888Y021748D01*
X008052Y021680D01*
X008229Y021680D01*
X008046Y021682D02*
X005693Y021682D01*
X005693Y021781D02*
X007855Y021781D01*
X007760Y021879D02*
X005693Y021879D01*
X005693Y021978D02*
X007720Y021978D01*
X007695Y022076D02*
X005693Y022076D01*
X005693Y022175D02*
X007695Y022175D01*
X007720Y022273D02*
X005693Y022273D01*
X005693Y022372D02*
X007761Y022372D01*
X007856Y022470D02*
X005693Y022470D01*
X005693Y022569D02*
X008048Y022569D01*
X008233Y022569D02*
X013493Y022569D01*
X013493Y022667D02*
X005693Y022667D01*
X005693Y022766D02*
X013493Y022766D01*
X013493Y022864D02*
X005693Y022864D01*
X005693Y022963D02*
X013493Y022963D01*
X013493Y023061D02*
X005693Y023061D01*
X005693Y023160D02*
X013493Y023160D01*
X013493Y023258D02*
X005693Y023258D01*
X005693Y023357D02*
X007879Y023357D01*
X007888Y023348D02*
X008052Y023280D01*
X008229Y023280D01*
X008393Y023348D01*
X008518Y023473D01*
X008586Y023636D01*
X008586Y023814D01*
X008518Y023977D01*
X008393Y024102D01*
X008229Y024170D01*
X008052Y024170D01*
X007888Y024102D01*
X007763Y023977D01*
X007695Y023814D01*
X007695Y023636D01*
X007763Y023473D01*
X007888Y023348D01*
X007781Y023455D02*
X005693Y023455D01*
X005693Y023554D02*
X007730Y023554D01*
X007695Y023652D02*
X005693Y023652D01*
X005693Y023751D02*
X007695Y023751D01*
X007710Y023849D02*
X005693Y023849D01*
X005693Y023948D02*
X007751Y023948D01*
X007832Y024046D02*
X005693Y024046D01*
X005693Y024145D02*
X007990Y024145D01*
X008052Y024280D02*
X008229Y024280D01*
X008393Y024348D01*
X008518Y024473D01*
X008586Y024636D01*
X008586Y024814D01*
X008518Y024977D01*
X008393Y025102D01*
X008229Y025170D01*
X008052Y025170D01*
X007888Y025102D01*
X007763Y024977D01*
X007695Y024814D01*
X007695Y024636D01*
X007763Y024473D01*
X007888Y024348D01*
X008052Y024280D01*
X007903Y024342D02*
X005693Y024342D01*
X005693Y024440D02*
X007796Y024440D01*
X007736Y024539D02*
X005693Y024539D01*
X005693Y024637D02*
X007695Y024637D01*
X007695Y024736D02*
X005693Y024736D01*
X005693Y024834D02*
X007704Y024834D01*
X007745Y024933D02*
X005693Y024933D01*
X005693Y025031D02*
X007817Y025031D01*
X007954Y025130D02*
X005693Y025130D01*
X005693Y025228D02*
X020793Y025228D01*
X020793Y025130D02*
X008327Y025130D01*
X008464Y025031D02*
X020793Y025031D01*
X020793Y024933D02*
X008537Y024933D01*
X008577Y024834D02*
X020793Y024834D01*
X020793Y024736D02*
X008586Y024736D01*
X008586Y024637D02*
X020793Y024637D01*
X020993Y024637D02*
X026113Y024637D01*
X026113Y024539D02*
X020993Y024539D01*
X020993Y024440D02*
X026113Y024440D01*
X026113Y024342D02*
X013693Y024342D01*
X013693Y024425D02*
X020993Y024425D01*
X020993Y029225D01*
X020193Y029225D01*
X020193Y032525D01*
X015293Y032525D01*
X015293Y030625D01*
X014498Y030625D01*
X014534Y030640D01*
X014628Y030735D01*
X014680Y030858D01*
X014680Y030992D01*
X014628Y031115D01*
X014534Y031210D01*
X014410Y031261D01*
X014276Y031261D01*
X014153Y031210D01*
X014058Y031115D01*
X014007Y030992D01*
X014007Y030858D01*
X014058Y030735D01*
X014153Y030640D01*
X014189Y030625D01*
X012648Y030625D01*
X012684Y030640D01*
X012778Y030735D01*
X012830Y030858D01*
X012830Y030992D01*
X012778Y031115D01*
X012684Y031210D01*
X012560Y031261D01*
X012426Y031261D01*
X012303Y031210D01*
X012208Y031115D01*
X012157Y030992D01*
X012157Y030858D01*
X012208Y030735D01*
X012303Y030640D01*
X012339Y030625D01*
X010798Y030625D01*
X010834Y030640D01*
X010928Y030735D01*
X010980Y030858D01*
X010980Y030992D01*
X010928Y031115D01*
X010834Y031210D01*
X010710Y031261D01*
X010576Y031261D01*
X010453Y031210D01*
X010358Y031115D01*
X010307Y030992D01*
X010307Y030858D01*
X010358Y030735D01*
X010453Y030640D01*
X010489Y030625D01*
X008893Y030625D01*
X008893Y031425D01*
X005993Y031425D01*
X005993Y036442D01*
X006276Y036725D01*
X014093Y036725D01*
X014593Y036225D01*
X014593Y035925D01*
X016493Y035925D01*
X016493Y036975D01*
X021461Y036975D01*
X021358Y036872D01*
X021358Y036678D01*
X021496Y036540D01*
X021691Y036540D01*
X021828Y036678D01*
X021828Y036872D01*
X021726Y036975D01*
X029160Y036975D01*
X029810Y036325D01*
X053910Y036325D01*
X054293Y035942D01*
X054293Y006308D01*
X053910Y005925D01*
X035938Y005925D01*
X037543Y007575D01*
X037543Y008825D01*
X037570Y008836D01*
X037682Y008948D01*
X037743Y009095D01*
X037743Y009255D01*
X037682Y009402D01*
X037570Y009514D01*
X037423Y009575D01*
X037264Y009575D01*
X037117Y009514D01*
X037004Y009402D01*
X036993Y009375D01*
X036693Y009375D01*
X036682Y009402D01*
X036570Y009514D01*
X036423Y009575D01*
X036264Y009575D01*
X036117Y009514D01*
X036004Y009402D01*
X035943Y009255D01*
X035943Y009095D01*
X036004Y008948D01*
X036117Y008836D01*
X036143Y008825D01*
X036143Y006825D01*
X035543Y006225D01*
X023557Y006225D01*
X023609Y006350D01*
X023609Y006500D01*
X023552Y006639D01*
X023446Y006745D01*
X023307Y006802D01*
X023157Y006802D01*
X023018Y006745D01*
X022912Y006639D01*
X022855Y006500D01*
X022855Y006350D01*
X022906Y006225D01*
X020880Y006225D01*
X020932Y006350D01*
X020932Y006500D01*
X020874Y006639D01*
X020768Y006745D01*
X020630Y006802D01*
X020480Y006802D01*
X020341Y006745D01*
X020235Y006639D01*
X020178Y006500D01*
X020178Y006441D01*
X019593Y007025D01*
X013693Y007025D01*
X013693Y024425D01*
X013693Y024243D02*
X026113Y024243D01*
X026113Y024145D02*
X013693Y024145D01*
X013693Y024046D02*
X026113Y024046D01*
X026113Y023948D02*
X013693Y023948D01*
X013693Y023849D02*
X026113Y023849D01*
X026113Y023751D02*
X013693Y023751D01*
X013693Y023652D02*
X026113Y023652D01*
X026113Y023554D02*
X013693Y023554D01*
X013693Y023455D02*
X026113Y023455D01*
X026113Y023357D02*
X013693Y023357D01*
X013693Y023258D02*
X026113Y023258D01*
X026113Y023160D02*
X013693Y023160D01*
X013693Y023061D02*
X024649Y023061D01*
X024586Y023035D02*
X024483Y022932D01*
X024428Y022798D01*
X024428Y022652D01*
X024483Y022518D01*
X024586Y022415D01*
X024721Y022359D01*
X024866Y022359D01*
X025000Y022415D01*
X025103Y022518D01*
X025159Y022652D01*
X025159Y022798D01*
X025103Y022932D01*
X025000Y023035D01*
X024866Y023091D01*
X024721Y023091D01*
X024586Y023035D01*
X024514Y022963D02*
X013693Y022963D01*
X013693Y022864D02*
X024455Y022864D01*
X024428Y022766D02*
X013693Y022766D01*
X013693Y022667D02*
X024428Y022667D01*
X024462Y022569D02*
X013693Y022569D01*
X013693Y022470D02*
X024531Y022470D01*
X024691Y022372D02*
X013693Y022372D01*
X013693Y022273D02*
X026113Y022273D01*
X026113Y022175D02*
X013693Y022175D01*
X013693Y022076D02*
X026113Y022076D01*
X026113Y021978D02*
X013693Y021978D01*
X013693Y021879D02*
X026113Y021879D01*
X026113Y021781D02*
X013693Y021781D01*
X013693Y021682D02*
X026113Y021682D01*
X026113Y021584D02*
X013693Y021584D01*
X013693Y021485D02*
X026113Y021485D01*
X026113Y021387D02*
X013693Y021387D01*
X013693Y021288D02*
X026113Y021288D01*
X026113Y021190D02*
X013693Y021190D01*
X013693Y021091D02*
X026113Y021091D01*
X026113Y020993D02*
X013693Y020993D01*
X013693Y020894D02*
X026113Y020894D01*
X026113Y020796D02*
X013693Y020796D01*
X013693Y020697D02*
X026113Y020697D01*
X026113Y020599D02*
X013693Y020599D01*
X013693Y020500D02*
X026113Y020500D01*
X026113Y020402D02*
X013693Y020402D01*
X013693Y020303D02*
X026113Y020303D01*
X026113Y020205D02*
X013693Y020205D01*
X013693Y020106D02*
X026113Y020106D01*
X026113Y020008D02*
X013693Y020008D01*
X013693Y019909D02*
X026113Y019909D01*
X026113Y019811D02*
X013693Y019811D01*
X013693Y019712D02*
X026113Y019712D01*
X026113Y019614D02*
X013693Y019614D01*
X013693Y019515D02*
X026113Y019515D01*
X026113Y019417D02*
X013693Y019417D01*
X013693Y019318D02*
X026113Y019318D01*
X026113Y019220D02*
X013693Y019220D01*
X013693Y019121D02*
X026113Y019121D01*
X026113Y019023D02*
X013693Y019023D01*
X013693Y018924D02*
X026113Y018924D01*
X026113Y018826D02*
X013693Y018826D01*
X013693Y018727D02*
X026113Y018727D01*
X026113Y018629D02*
X013693Y018629D01*
X013693Y018530D02*
X026113Y018530D01*
X026113Y018432D02*
X013693Y018432D01*
X013693Y018333D02*
X026113Y018333D01*
X026113Y018235D02*
X013693Y018235D01*
X013693Y018136D02*
X026113Y018136D01*
X026113Y018038D02*
X013693Y018038D01*
X013693Y017939D02*
X026113Y017939D01*
X026113Y017841D02*
X013693Y017841D01*
X013693Y017742D02*
X026113Y017742D01*
X026113Y017644D02*
X013693Y017644D01*
X013693Y017545D02*
X026113Y017545D01*
X026113Y017447D02*
X013693Y017447D01*
X013693Y017348D02*
X026113Y017348D01*
X026113Y017250D02*
X013693Y017250D01*
X013693Y017151D02*
X026113Y017151D01*
X026113Y017053D02*
X013693Y017053D01*
X013693Y016954D02*
X026113Y016954D01*
X026113Y016856D02*
X013693Y016856D01*
X013693Y016757D02*
X026113Y016757D01*
X026113Y016659D02*
X013693Y016659D01*
X013693Y016560D02*
X026113Y016560D01*
X026113Y016462D02*
X013693Y016462D01*
X013693Y016363D02*
X026113Y016363D01*
X026113Y016265D02*
X013693Y016265D01*
X013693Y016166D02*
X026115Y016166D01*
X026113Y016169D02*
X026156Y016066D01*
X026235Y015988D01*
X026338Y015945D01*
X026449Y015945D01*
X027838Y015945D01*
X027949Y015945D01*
X028014Y015972D01*
X028046Y015940D01*
X028241Y015940D01*
X028378Y016078D01*
X028378Y016272D01*
X028241Y016410D01*
X028173Y016410D01*
X028173Y024609D01*
X028509Y024945D01*
X028649Y024945D01*
X028752Y024988D01*
X028831Y025066D01*
X028981Y025216D01*
X029023Y025319D01*
X029023Y029131D01*
X028981Y029234D01*
X028902Y029312D01*
X028802Y029412D01*
X028699Y029455D01*
X028459Y029455D01*
X028173Y029741D01*
X028173Y031331D01*
X028131Y031434D01*
X028052Y031512D01*
X027949Y031555D01*
X026338Y031555D01*
X026235Y031512D01*
X026156Y031434D01*
X026113Y031331D01*
X026113Y016169D01*
X026155Y016068D02*
X013693Y016068D01*
X013693Y015969D02*
X026280Y015969D01*
X028007Y015969D02*
X028017Y015969D01*
X028270Y015969D02*
X036841Y015969D01*
X036828Y016002D02*
X036883Y015868D01*
X036986Y015765D01*
X037121Y015709D01*
X037266Y015709D01*
X037400Y015765D01*
X037503Y015868D01*
X037559Y016002D01*
X037559Y016148D01*
X037503Y016282D01*
X037400Y016385D01*
X037266Y016441D01*
X037121Y016441D01*
X036986Y016385D01*
X036883Y016282D01*
X036828Y016148D01*
X036828Y016002D01*
X036828Y016068D02*
X028368Y016068D01*
X028378Y016166D02*
X036835Y016166D01*
X036876Y016265D02*
X028378Y016265D01*
X028288Y016363D02*
X036964Y016363D01*
X037423Y016363D02*
X047224Y016363D01*
X047230Y016369D02*
X047149Y016288D01*
X047105Y016182D01*
X047105Y016068D01*
X047149Y015962D01*
X047230Y015881D01*
X047336Y015837D01*
X047451Y015837D01*
X047557Y015881D01*
X047638Y015962D01*
X047681Y016068D01*
X047681Y016182D01*
X047638Y016288D01*
X047557Y016369D01*
X047451Y016413D01*
X047336Y016413D01*
X047230Y016369D01*
X047139Y016265D02*
X037511Y016265D01*
X037551Y016166D02*
X047105Y016166D01*
X047105Y016068D02*
X037559Y016068D01*
X037545Y015969D02*
X047146Y015969D01*
X047255Y015871D02*
X040780Y015871D01*
X040828Y015822D02*
X040691Y015960D01*
X040496Y015960D01*
X040358Y015822D01*
X040358Y015628D01*
X040496Y015490D01*
X040691Y015490D01*
X040828Y015628D01*
X040828Y015822D01*
X040828Y015772D02*
X054293Y015772D01*
X054293Y015674D02*
X040828Y015674D01*
X040776Y015575D02*
X054293Y015575D01*
X054293Y015477D02*
X036078Y015477D01*
X036078Y015522D02*
X035941Y015660D01*
X035746Y015660D01*
X035608Y015522D01*
X035608Y015328D01*
X035746Y015190D01*
X035941Y015190D01*
X036078Y015328D01*
X036078Y015522D01*
X036026Y015575D02*
X040411Y015575D01*
X040358Y015674D02*
X013693Y015674D01*
X013693Y015772D02*
X036979Y015772D01*
X036882Y015871D02*
X013693Y015871D01*
X013693Y015575D02*
X029336Y015575D01*
X029299Y015538D02*
X029255Y015432D01*
X029255Y015318D01*
X029299Y015212D01*
X029380Y015131D01*
X029486Y015087D01*
X029601Y015087D01*
X029707Y015131D01*
X029788Y015212D01*
X029831Y015318D01*
X029831Y015432D01*
X029788Y015538D01*
X029707Y015619D01*
X029601Y015663D01*
X029486Y015663D01*
X029380Y015619D01*
X029299Y015538D01*
X029274Y015477D02*
X013693Y015477D01*
X013693Y015378D02*
X022001Y015378D01*
X021980Y015369D02*
X021899Y015288D01*
X021855Y015182D01*
X021855Y015068D01*
X021899Y014962D01*
X021980Y014881D01*
X022086Y014837D01*
X022201Y014837D01*
X022307Y014881D01*
X022388Y014962D01*
X022431Y015068D01*
X022431Y015182D01*
X022388Y015288D01*
X022307Y015369D01*
X022201Y015413D01*
X022086Y015413D01*
X021980Y015369D01*
X021895Y015280D02*
X013693Y015280D01*
X013693Y015181D02*
X021855Y015181D01*
X021855Y015083D02*
X013693Y015083D01*
X013693Y014984D02*
X021890Y014984D01*
X021975Y014886D02*
X013693Y014886D01*
X013693Y014787D02*
X054293Y014787D01*
X054293Y014689D02*
X013693Y014689D01*
X013693Y014590D02*
X054293Y014590D01*
X054293Y014492D02*
X013693Y014492D01*
X013693Y014393D02*
X038805Y014393D01*
X038786Y014385D02*
X038683Y014282D01*
X038628Y014148D01*
X038628Y014002D01*
X038683Y013868D01*
X038786Y013765D01*
X038921Y013709D01*
X039066Y013709D01*
X039200Y013765D01*
X039303Y013868D01*
X039359Y014002D01*
X039359Y014148D01*
X039303Y014282D01*
X039200Y014385D01*
X039066Y014441D01*
X038921Y014441D01*
X038786Y014385D01*
X038696Y014295D02*
X013693Y014295D01*
X013693Y014196D02*
X021863Y014196D01*
X021836Y014185D02*
X021733Y014082D01*
X021678Y013948D01*
X021678Y013802D01*
X013693Y013802D01*
X013693Y013704D02*
X021718Y013704D01*
X021733Y013668D02*
X021836Y013565D01*
X021971Y013509D01*
X022116Y013509D01*
X022250Y013565D01*
X022353Y013668D01*
X022409Y013802D01*
X025228Y013802D01*
X025283Y013668D01*
X025386Y013565D01*
X025521Y013509D01*
X025666Y013509D01*
X025800Y013565D01*
X025903Y013668D01*
X025959Y013802D01*
X038749Y013802D01*
X038670Y013901D02*
X025959Y013901D01*
X025959Y013948D02*
X025903Y014082D01*
X025800Y014185D01*
X025666Y014241D01*
X025521Y014241D01*
X025386Y014185D01*
X025283Y014082D01*
X025228Y013948D01*
X025228Y013802D01*
X025228Y013901D02*
X022409Y013901D01*
X022409Y013948D02*
X022353Y014082D01*
X022250Y014185D01*
X022116Y014241D01*
X021971Y014241D01*
X021836Y014185D01*
X021749Y014098D02*
X013693Y014098D01*
X013693Y013999D02*
X021699Y013999D01*
X021678Y013901D02*
X013693Y013901D01*
X013693Y013605D02*
X021796Y013605D01*
X021733Y013668D02*
X021678Y013802D01*
X022291Y013605D02*
X025346Y013605D01*
X025268Y013704D02*
X022368Y013704D01*
X022409Y013802D02*
X022409Y013948D01*
X022388Y013999D02*
X025249Y013999D01*
X025299Y014098D02*
X022338Y014098D01*
X022224Y014196D02*
X025413Y014196D01*
X025774Y014196D02*
X038648Y014196D01*
X038628Y014098D02*
X025888Y014098D01*
X025938Y013999D02*
X038629Y013999D01*
X039238Y013802D02*
X045619Y013802D01*
X045619Y013791D02*
X045683Y013634D01*
X045803Y013515D01*
X045959Y013450D01*
X046128Y013450D01*
X046284Y013515D01*
X046403Y013634D01*
X046468Y013791D01*
X046468Y013959D01*
X046403Y014116D01*
X046284Y014235D01*
X046128Y014300D01*
X045959Y014300D01*
X045803Y014235D01*
X045683Y014116D01*
X045619Y013959D01*
X045619Y013791D01*
X045655Y013704D02*
X025918Y013704D01*
X025959Y013802D02*
X025959Y013948D01*
X025841Y013605D02*
X030008Y013605D01*
X030017Y013614D02*
X029904Y013502D01*
X029843Y013355D01*
X029843Y013195D01*
X029904Y013048D01*
X030017Y012936D01*
X030164Y012875D01*
X030323Y012875D01*
X030470Y012936D01*
X030582Y013048D01*
X030643Y013195D01*
X030643Y013355D01*
X030582Y013502D01*
X030470Y013614D01*
X030323Y013675D01*
X030164Y013675D01*
X030017Y013614D01*
X029909Y013507D02*
X013693Y013507D01*
X013693Y013408D02*
X029865Y013408D01*
X029843Y013310D02*
X013693Y013310D01*
X013693Y013211D02*
X029843Y013211D01*
X029878Y013113D02*
X013693Y013113D01*
X013693Y013014D02*
X029939Y013014D01*
X030066Y012916D02*
X013693Y012916D01*
X013693Y012817D02*
X043071Y012817D01*
X043071Y012839D02*
X043071Y012611D01*
X043158Y012401D01*
X043319Y012240D01*
X043529Y012153D01*
X043757Y012153D01*
X043968Y012240D01*
X044129Y012401D01*
X044216Y012611D01*
X044216Y012839D01*
X044129Y013049D01*
X043968Y013210D01*
X043757Y013297D01*
X043529Y013297D01*
X043319Y013210D01*
X043158Y013049D01*
X043071Y012839D01*
X043103Y012916D02*
X035421Y012916D01*
X035470Y012936D02*
X035582Y013048D01*
X035643Y013195D01*
X035643Y013355D01*
X035582Y013502D01*
X035470Y013614D01*
X035323Y013675D01*
X035164Y013675D01*
X035017Y013614D01*
X034904Y013502D01*
X034843Y013355D01*
X034843Y013195D01*
X034904Y013048D01*
X035017Y012936D01*
X035164Y012875D01*
X035323Y012875D01*
X035470Y012936D01*
X035548Y013014D02*
X043143Y013014D01*
X043221Y013113D02*
X035609Y013113D01*
X035643Y013211D02*
X043321Y013211D01*
X043071Y012719D02*
X013693Y012719D01*
X013693Y012620D02*
X030031Y012620D01*
X030017Y012614D02*
X029904Y012502D01*
X029843Y012355D01*
X029843Y012195D01*
X029904Y012048D01*
X030017Y011936D01*
X030164Y011875D01*
X030323Y011875D01*
X030470Y011936D01*
X030582Y012048D01*
X030643Y012195D01*
X030643Y012355D01*
X030582Y012502D01*
X030470Y012614D01*
X030323Y012675D01*
X030164Y012675D01*
X030017Y012614D01*
X029924Y012522D02*
X013693Y012522D01*
X013693Y012423D02*
X029872Y012423D01*
X029843Y012325D02*
X019861Y012325D01*
X019850Y012335D02*
X019716Y012391D01*
X019571Y012391D01*
X019436Y012335D01*
X019333Y012232D01*
X019278Y012098D01*
X019278Y011952D01*
X019333Y011818D01*
X019436Y011715D01*
X019571Y011659D01*
X019716Y011659D01*
X019850Y011715D01*
X019953Y011818D01*
X020009Y011952D01*
X020009Y012098D01*
X019953Y012232D01*
X019850Y012335D01*
X019956Y012226D02*
X029843Y012226D01*
X029871Y012128D02*
X019997Y012128D01*
X020009Y012029D02*
X029924Y012029D01*
X030030Y011931D02*
X020000Y011931D01*
X019959Y011832D02*
X054293Y011832D01*
X054293Y011734D02*
X019869Y011734D01*
X019418Y011734D02*
X013693Y011734D01*
X013693Y011832D02*
X019327Y011832D01*
X019287Y011931D02*
X013693Y011931D01*
X013693Y012029D02*
X019278Y012029D01*
X019290Y012128D02*
X013693Y012128D01*
X013693Y012226D02*
X019331Y012226D01*
X019426Y012325D02*
X013693Y012325D01*
X013493Y012325D02*
X012327Y012325D01*
X012368Y012423D02*
X013493Y012423D01*
X013493Y012522D02*
X012408Y012522D01*
X012443Y012620D02*
X013493Y012620D01*
X013493Y012719D02*
X012443Y012719D01*
X012443Y012817D02*
X013493Y012817D01*
X013493Y012916D02*
X012443Y012916D01*
X012414Y013014D02*
X013493Y013014D01*
X013493Y013113D02*
X012374Y013113D01*
X012333Y013211D02*
X013493Y013211D01*
X013493Y013310D02*
X012261Y013310D01*
X012162Y013408D02*
X013493Y013408D01*
X013493Y013507D02*
X012048Y013507D01*
X011811Y013605D02*
X013493Y013605D01*
X013493Y012226D02*
X012246Y012226D01*
X012148Y012128D02*
X013493Y012128D01*
X013493Y012029D02*
X012013Y012029D01*
X011776Y011931D02*
X013493Y011931D01*
X013693Y011635D02*
X054293Y011635D01*
X054293Y011537D02*
X013693Y011537D01*
X013693Y011438D02*
X054293Y011438D01*
X054293Y011340D02*
X013693Y011340D01*
X013693Y011241D02*
X054293Y011241D01*
X054293Y011143D02*
X013693Y011143D01*
X013693Y011044D02*
X054293Y011044D01*
X054293Y010946D02*
X031669Y010946D01*
X031752Y010911D02*
X031519Y011007D01*
X031267Y011007D01*
X031035Y010911D01*
X030857Y010733D01*
X030761Y010501D01*
X030761Y010249D01*
X030857Y010017D01*
X031035Y009839D01*
X031267Y009743D01*
X031519Y009743D01*
X031752Y009839D01*
X031930Y010017D01*
X032026Y010249D01*
X032026Y010501D01*
X031930Y010733D01*
X031752Y010911D01*
X031816Y010847D02*
X054293Y010847D01*
X054293Y010749D02*
X031914Y010749D01*
X031964Y010650D02*
X054293Y010650D01*
X054293Y010552D02*
X039480Y010552D01*
X039423Y010575D02*
X039264Y010575D01*
X039117Y010514D01*
X039004Y010402D01*
X038943Y010255D01*
X038943Y010095D01*
X039004Y009948D01*
X039117Y009836D01*
X039264Y009775D01*
X039423Y009775D01*
X039570Y009836D01*
X039682Y009948D01*
X039743Y010095D01*
X039743Y010255D01*
X039682Y010402D01*
X039570Y010514D01*
X039423Y010575D01*
X039207Y010552D02*
X038480Y010552D01*
X038423Y010575D02*
X038264Y010575D01*
X038117Y010514D01*
X038004Y010402D01*
X037943Y010255D01*
X037943Y010095D01*
X038004Y009948D01*
X038117Y009836D01*
X038264Y009775D01*
X038423Y009775D01*
X038570Y009836D01*
X038682Y009948D01*
X038743Y010095D01*
X038743Y010255D01*
X038682Y010402D01*
X038570Y010514D01*
X038423Y010575D01*
X038207Y010552D02*
X037480Y010552D01*
X037423Y010575D02*
X037264Y010575D01*
X037117Y010514D01*
X037004Y010402D01*
X036943Y010255D01*
X036943Y010095D01*
X037004Y009948D01*
X037117Y009836D01*
X037264Y009775D01*
X037423Y009775D01*
X037570Y009836D01*
X037682Y009948D01*
X037743Y010095D01*
X037743Y010255D01*
X037682Y010402D01*
X037570Y010514D01*
X037423Y010575D01*
X037207Y010552D02*
X035480Y010552D01*
X035423Y010575D02*
X035264Y010575D01*
X035117Y010514D01*
X035004Y010402D01*
X034943Y010255D01*
X034943Y010095D01*
X035004Y009948D01*
X035117Y009836D01*
X035264Y009775D01*
X035423Y009775D01*
X035570Y009836D01*
X035682Y009948D01*
X035743Y010095D01*
X035743Y010255D01*
X035682Y010402D01*
X035570Y010514D01*
X035423Y010575D01*
X035207Y010552D02*
X032005Y010552D01*
X032026Y010453D02*
X035056Y010453D01*
X034985Y010355D02*
X032026Y010355D01*
X032026Y010256D02*
X034944Y010256D01*
X034943Y010158D02*
X031988Y010158D01*
X031947Y010059D02*
X034958Y010059D01*
X034999Y009961D02*
X031873Y009961D01*
X031775Y009862D02*
X035091Y009862D01*
X035243Y009567D02*
X013693Y009567D01*
X013693Y009665D02*
X054293Y009665D01*
X054293Y009567D02*
X039443Y009567D01*
X039423Y009575D02*
X039264Y009575D01*
X039117Y009514D01*
X039004Y009402D01*
X038943Y009255D01*
X038943Y009095D01*
X039004Y008948D01*
X039117Y008836D01*
X039264Y008775D01*
X039423Y008775D01*
X039570Y008836D01*
X039682Y008948D01*
X039743Y009095D01*
X039743Y009255D01*
X039682Y009402D01*
X039570Y009514D01*
X039423Y009575D01*
X039243Y009567D02*
X038443Y009567D01*
X038423Y009575D02*
X038264Y009575D01*
X038117Y009514D01*
X038004Y009402D01*
X037943Y009255D01*
X037943Y009095D01*
X038004Y008948D01*
X038117Y008836D01*
X038264Y008775D01*
X038423Y008775D01*
X038570Y008836D01*
X038682Y008948D01*
X038743Y009095D01*
X038743Y009255D01*
X038682Y009402D01*
X038570Y009514D01*
X038423Y009575D01*
X038243Y009567D02*
X037443Y009567D01*
X037616Y009468D02*
X038071Y009468D01*
X037991Y009370D02*
X037696Y009370D01*
X037736Y009271D02*
X037950Y009271D01*
X037943Y009173D02*
X037743Y009173D01*
X037734Y009074D02*
X037952Y009074D01*
X037993Y008976D02*
X037694Y008976D01*
X037611Y008877D02*
X038076Y008877D01*
X038255Y008779D02*
X037543Y008779D01*
X037543Y008680D02*
X046995Y008680D01*
X046912Y008646D02*
X046673Y008406D01*
X046543Y008094D01*
X046543Y007756D01*
X046673Y007444D01*
X046912Y007204D01*
X047224Y007075D01*
X047562Y007075D01*
X047875Y007204D01*
X048114Y007444D01*
X048243Y007756D01*
X048243Y008094D01*
X048114Y008406D01*
X047875Y008646D01*
X047562Y008775D01*
X047224Y008775D01*
X046912Y008646D01*
X046848Y008582D02*
X037543Y008582D01*
X037543Y008483D02*
X046749Y008483D01*
X046664Y008385D02*
X037543Y008385D01*
X037543Y008286D02*
X046623Y008286D01*
X046582Y008188D02*
X037543Y008188D01*
X037543Y008089D02*
X046543Y008089D01*
X046543Y007991D02*
X037543Y007991D01*
X037543Y007892D02*
X046543Y007892D01*
X046543Y007794D02*
X037543Y007794D01*
X037543Y007695D02*
X046569Y007695D01*
X046609Y007597D02*
X037543Y007597D01*
X037468Y007498D02*
X046650Y007498D01*
X046717Y007400D02*
X037373Y007400D01*
X037277Y007301D02*
X046815Y007301D01*
X046916Y007203D02*
X043975Y007203D01*
X043968Y007210D02*
X043757Y007297D01*
X043529Y007297D01*
X043319Y007210D01*
X043158Y007049D01*
X043071Y006839D01*
X043071Y006611D01*
X043158Y006401D01*
X043319Y006240D01*
X043529Y006153D01*
X043757Y006153D01*
X043968Y006240D01*
X044129Y006401D01*
X044216Y006611D01*
X044216Y006839D01*
X044129Y007049D01*
X043968Y007210D01*
X044074Y007104D02*
X047154Y007104D01*
X047632Y007104D02*
X050713Y007104D01*
X050658Y007049D02*
X050571Y006839D01*
X050571Y006611D01*
X050658Y006401D01*
X050819Y006240D01*
X051029Y006153D01*
X051257Y006153D01*
X051468Y006240D01*
X051629Y006401D01*
X051716Y006611D01*
X051716Y006839D01*
X051629Y007049D01*
X051468Y007210D01*
X051257Y007297D01*
X051029Y007297D01*
X050819Y007210D01*
X050658Y007049D01*
X050640Y007006D02*
X044147Y007006D01*
X044188Y006907D02*
X050599Y006907D01*
X050571Y006809D02*
X044216Y006809D01*
X044216Y006710D02*
X050571Y006710D01*
X050571Y006612D02*
X044216Y006612D01*
X044175Y006513D02*
X050612Y006513D01*
X050652Y006415D02*
X044134Y006415D01*
X044044Y006316D02*
X050743Y006316D01*
X050873Y006218D02*
X043914Y006218D01*
X043373Y006218D02*
X036222Y006218D01*
X036318Y006316D02*
X043243Y006316D01*
X043152Y006415D02*
X036414Y006415D01*
X036510Y006513D02*
X043112Y006513D01*
X043071Y006612D02*
X036606Y006612D01*
X036702Y006710D02*
X043071Y006710D01*
X043071Y006809D02*
X036798Y006809D01*
X036893Y006907D02*
X043099Y006907D01*
X043140Y007006D02*
X036989Y007006D01*
X037085Y007104D02*
X043213Y007104D01*
X043311Y007203D02*
X037181Y007203D01*
X036143Y007203D02*
X032123Y007203D01*
X032164Y007301D02*
X036143Y007301D01*
X036143Y007400D02*
X032183Y007400D01*
X032183Y007348D02*
X032063Y007058D01*
X031841Y006835D01*
X031550Y006715D01*
X031236Y006715D01*
X030946Y006835D01*
X030724Y007058D01*
X030603Y007348D01*
X030603Y007662D01*
X030724Y007952D01*
X030946Y008175D01*
X031236Y008295D01*
X031550Y008295D01*
X031841Y008175D01*
X032063Y007952D01*
X032183Y007662D01*
X032183Y007348D01*
X032183Y007498D02*
X036143Y007498D01*
X036143Y007597D02*
X032183Y007597D01*
X032170Y007695D02*
X036143Y007695D01*
X036143Y007794D02*
X032129Y007794D01*
X032088Y007892D02*
X036143Y007892D01*
X036143Y007991D02*
X032025Y007991D01*
X031927Y008089D02*
X036143Y008089D01*
X036143Y008188D02*
X031810Y008188D01*
X031572Y008286D02*
X036143Y008286D01*
X036143Y008385D02*
X024728Y008385D01*
X024728Y008328D02*
X024591Y008190D01*
X024396Y008190D01*
X024258Y008328D01*
X024258Y008522D01*
X024396Y008660D01*
X024591Y008660D01*
X024728Y008522D01*
X024728Y008328D01*
X024687Y008286D02*
X027914Y008286D01*
X027936Y008295D02*
X027646Y008175D01*
X027424Y007952D01*
X027303Y007662D01*
X027303Y007348D01*
X027424Y007058D01*
X027646Y006835D01*
X027936Y006715D01*
X028250Y006715D01*
X028541Y006835D01*
X028763Y007058D01*
X028883Y007348D01*
X028883Y007662D01*
X028763Y007952D01*
X028541Y008175D01*
X028250Y008295D01*
X027936Y008295D01*
X027677Y008188D02*
X019205Y008188D01*
X019155Y008137D02*
X019353Y008336D01*
X019461Y008595D01*
X019461Y008875D01*
X019353Y009134D01*
X019155Y009333D01*
X018896Y009440D01*
X018616Y009440D01*
X018356Y009333D01*
X018158Y009134D01*
X018051Y008875D01*
X018051Y008595D01*
X018158Y008336D01*
X018356Y008137D01*
X018616Y008030D01*
X018896Y008030D01*
X019155Y008137D01*
X019038Y008089D02*
X027560Y008089D01*
X027462Y007991D02*
X013693Y007991D01*
X013693Y008089D02*
X014448Y008089D01*
X014331Y008137D02*
X014591Y008030D01*
X014871Y008030D01*
X015130Y008137D01*
X015328Y008336D01*
X015436Y008595D01*
X015436Y008875D01*
X015328Y009134D01*
X015130Y009333D01*
X014871Y009440D01*
X014591Y009440D01*
X014331Y009333D01*
X014133Y009134D01*
X014026Y008875D01*
X014026Y008595D01*
X014133Y008336D01*
X014331Y008137D01*
X014281Y008188D02*
X013693Y008188D01*
X013693Y008286D02*
X014183Y008286D01*
X014113Y008385D02*
X013693Y008385D01*
X013693Y008483D02*
X014072Y008483D01*
X014031Y008582D02*
X013693Y008582D01*
X013693Y008680D02*
X014026Y008680D01*
X014026Y008779D02*
X013693Y008779D01*
X013693Y008877D02*
X014027Y008877D01*
X014067Y008976D02*
X013693Y008976D01*
X013693Y009074D02*
X014108Y009074D01*
X014171Y009173D02*
X013693Y009173D01*
X013693Y009271D02*
X014270Y009271D01*
X014420Y009370D02*
X013693Y009370D01*
X013693Y009468D02*
X035071Y009468D01*
X035117Y009514D02*
X035004Y009402D01*
X034943Y009255D01*
X034943Y009095D01*
X035004Y008948D01*
X035117Y008836D01*
X035264Y008775D01*
X035423Y008775D01*
X035570Y008836D01*
X035682Y008948D01*
X035743Y009095D01*
X035743Y009255D01*
X035682Y009402D01*
X035570Y009514D01*
X035423Y009575D01*
X035264Y009575D01*
X035117Y009514D01*
X034991Y009370D02*
X019066Y009370D01*
X019217Y009271D02*
X034950Y009271D01*
X034943Y009173D02*
X019315Y009173D01*
X019378Y009074D02*
X034952Y009074D01*
X034993Y008976D02*
X019419Y008976D01*
X019460Y008877D02*
X035076Y008877D01*
X035255Y008779D02*
X019461Y008779D01*
X019461Y008680D02*
X036143Y008680D01*
X036143Y008582D02*
X024669Y008582D01*
X024728Y008483D02*
X036143Y008483D01*
X036143Y008779D02*
X035431Y008779D01*
X035611Y008877D02*
X036076Y008877D01*
X035993Y008976D02*
X035694Y008976D01*
X035734Y009074D02*
X035952Y009074D01*
X035943Y009173D02*
X035743Y009173D01*
X035736Y009271D02*
X035950Y009271D01*
X035991Y009370D02*
X035696Y009370D01*
X035616Y009468D02*
X036071Y009468D01*
X036243Y009567D02*
X035443Y009567D01*
X035596Y009862D02*
X037091Y009862D01*
X036999Y009961D02*
X035687Y009961D01*
X035728Y010059D02*
X036958Y010059D01*
X036943Y010158D02*
X035743Y010158D01*
X035743Y010256D02*
X036944Y010256D01*
X036985Y010355D02*
X035702Y010355D01*
X035631Y010453D02*
X037056Y010453D01*
X037631Y010453D02*
X038056Y010453D01*
X037985Y010355D02*
X037702Y010355D01*
X037743Y010256D02*
X037944Y010256D01*
X037943Y010158D02*
X037743Y010158D01*
X037728Y010059D02*
X037958Y010059D01*
X037999Y009961D02*
X037687Y009961D01*
X037596Y009862D02*
X038091Y009862D01*
X038596Y009862D02*
X039091Y009862D01*
X038999Y009961D02*
X038687Y009961D01*
X038728Y010059D02*
X038958Y010059D01*
X038943Y010158D02*
X038743Y010158D01*
X038743Y010256D02*
X038944Y010256D01*
X038985Y010355D02*
X038702Y010355D01*
X038631Y010453D02*
X039056Y010453D01*
X039631Y010453D02*
X054293Y010453D01*
X054293Y010355D02*
X039702Y010355D01*
X039743Y010256D02*
X054293Y010256D01*
X054293Y010158D02*
X039743Y010158D01*
X039728Y010059D02*
X054293Y010059D01*
X054293Y009961D02*
X039687Y009961D01*
X039596Y009862D02*
X054293Y009862D01*
X054293Y009764D02*
X031570Y009764D01*
X031217Y009764D02*
X029920Y009764D01*
X029869Y009743D02*
X030102Y009839D01*
X030280Y010017D01*
X030376Y010249D01*
X030376Y010501D01*
X030280Y010733D01*
X030102Y010911D01*
X029869Y011007D01*
X029617Y011007D01*
X029385Y010911D01*
X029207Y010733D01*
X029111Y010501D01*
X029111Y010249D01*
X029207Y010017D01*
X029385Y009839D01*
X029617Y009743D01*
X029869Y009743D01*
X030125Y009862D02*
X031012Y009862D01*
X030913Y009961D02*
X030223Y009961D01*
X030297Y010059D02*
X030840Y010059D01*
X030799Y010158D02*
X030338Y010158D01*
X030376Y010256D02*
X030761Y010256D01*
X030761Y010355D02*
X030376Y010355D01*
X030376Y010453D02*
X030761Y010453D01*
X030782Y010552D02*
X030355Y010552D01*
X030314Y010650D02*
X030823Y010650D01*
X030872Y010749D02*
X030264Y010749D01*
X030166Y010847D02*
X030971Y010847D01*
X031118Y010946D02*
X030019Y010946D01*
X029468Y010946D02*
X028369Y010946D01*
X028452Y010911D02*
X028219Y011007D01*
X027967Y011007D01*
X027735Y010911D01*
X027557Y010733D01*
X027461Y010501D01*
X027461Y010249D01*
X027557Y010017D01*
X027735Y009839D01*
X027967Y009743D01*
X028219Y009743D01*
X028452Y009839D01*
X028630Y010017D01*
X028726Y010249D01*
X028726Y010501D01*
X028630Y010733D01*
X028452Y010911D01*
X028516Y010847D02*
X029321Y010847D01*
X029222Y010749D02*
X028614Y010749D01*
X028664Y010650D02*
X029173Y010650D01*
X029132Y010552D02*
X028705Y010552D01*
X028726Y010453D02*
X029111Y010453D01*
X029111Y010355D02*
X028726Y010355D01*
X028726Y010256D02*
X029111Y010256D01*
X029149Y010158D02*
X028688Y010158D01*
X028647Y010059D02*
X029190Y010059D01*
X029263Y009961D02*
X028573Y009961D01*
X028475Y009862D02*
X029362Y009862D01*
X029567Y009764D02*
X028270Y009764D01*
X027917Y009764D02*
X013693Y009764D01*
X013693Y009862D02*
X027712Y009862D01*
X027613Y009961D02*
X013693Y009961D01*
X013693Y010059D02*
X027540Y010059D01*
X027499Y010158D02*
X013693Y010158D01*
X013693Y010256D02*
X027461Y010256D01*
X027461Y010355D02*
X013693Y010355D01*
X013693Y010453D02*
X027461Y010453D01*
X027482Y010552D02*
X013693Y010552D01*
X013693Y010650D02*
X027523Y010650D01*
X027572Y010749D02*
X013693Y010749D01*
X013693Y010847D02*
X027671Y010847D01*
X027818Y010946D02*
X013693Y010946D01*
X013493Y009468D02*
X012759Y009468D01*
X012706Y009490D02*
X012406Y009490D01*
X012128Y009375D01*
X011916Y009163D01*
X011801Y008885D01*
X011801Y008585D01*
X011916Y008307D01*
X012128Y008095D01*
X012406Y007980D01*
X012706Y007980D01*
X012983Y008095D01*
X013196Y008307D01*
X013311Y008585D01*
X013311Y008885D01*
X013196Y009163D01*
X012983Y009375D01*
X012706Y009490D01*
X012989Y009370D02*
X013493Y009370D01*
X013493Y009271D02*
X013088Y009271D01*
X013186Y009173D02*
X013493Y009173D01*
X013493Y009074D02*
X013233Y009074D01*
X013273Y008976D02*
X013493Y008976D01*
X013493Y008877D02*
X013311Y008877D01*
X013311Y008779D02*
X013493Y008779D01*
X013493Y008680D02*
X013311Y008680D01*
X013309Y008582D02*
X013493Y008582D01*
X013493Y008483D02*
X013269Y008483D01*
X013228Y008385D02*
X013493Y008385D01*
X013493Y008286D02*
X013175Y008286D01*
X013076Y008188D02*
X013493Y008188D01*
X013493Y008089D02*
X012969Y008089D01*
X012731Y007991D02*
X013493Y007991D01*
X013693Y007892D02*
X027399Y007892D01*
X027358Y007794D02*
X013693Y007794D01*
X013693Y007695D02*
X027317Y007695D01*
X027303Y007597D02*
X013693Y007597D01*
X013693Y007498D02*
X027303Y007498D01*
X027303Y007400D02*
X013693Y007400D01*
X013693Y007301D02*
X027323Y007301D01*
X027364Y007203D02*
X013693Y007203D01*
X013693Y007104D02*
X027404Y007104D01*
X027476Y007006D02*
X019613Y007006D01*
X019711Y006907D02*
X027574Y006907D01*
X027710Y006809D02*
X019810Y006809D01*
X019908Y006710D02*
X020306Y006710D01*
X020224Y006612D02*
X020007Y006612D01*
X020105Y006513D02*
X020183Y006513D01*
X020803Y006710D02*
X022984Y006710D01*
X022901Y006612D02*
X020886Y006612D01*
X020927Y006513D02*
X022860Y006513D01*
X022855Y006415D02*
X020932Y006415D01*
X020918Y006316D02*
X022869Y006316D01*
X023480Y006710D02*
X036028Y006710D01*
X035930Y006612D02*
X023563Y006612D01*
X023604Y006513D02*
X035831Y006513D01*
X035733Y006415D02*
X023609Y006415D01*
X023595Y006316D02*
X035634Y006316D01*
X036031Y006021D02*
X054006Y006021D01*
X054104Y006119D02*
X036127Y006119D01*
X036127Y006809D02*
X031776Y006809D01*
X031913Y006907D02*
X036143Y006907D01*
X036143Y007006D02*
X032011Y007006D01*
X032082Y007104D02*
X036143Y007104D01*
X038431Y008779D02*
X039255Y008779D01*
X039431Y008779D02*
X054293Y008779D01*
X054293Y008877D02*
X039611Y008877D01*
X039694Y008976D02*
X054293Y008976D01*
X054293Y009074D02*
X039734Y009074D01*
X039743Y009173D02*
X054293Y009173D01*
X054293Y009271D02*
X039736Y009271D01*
X039696Y009370D02*
X054293Y009370D01*
X054293Y009468D02*
X039616Y009468D01*
X039071Y009468D02*
X038616Y009468D01*
X038696Y009370D02*
X038991Y009370D01*
X038950Y009271D02*
X038736Y009271D01*
X038743Y009173D02*
X038943Y009173D01*
X038952Y009074D02*
X038734Y009074D01*
X038694Y008976D02*
X038993Y008976D01*
X039076Y008877D02*
X038611Y008877D01*
X037243Y009567D02*
X036443Y009567D01*
X036616Y009468D02*
X037071Y009468D01*
X035470Y011936D02*
X035582Y012048D01*
X035643Y012195D01*
X035643Y012355D01*
X035582Y012502D01*
X035470Y012614D01*
X035323Y012675D01*
X035164Y012675D01*
X035017Y012614D01*
X034904Y012502D01*
X034843Y012355D01*
X034843Y012195D01*
X034904Y012048D01*
X035017Y011936D01*
X035164Y011875D01*
X035323Y011875D01*
X035470Y011936D01*
X035457Y011931D02*
X054293Y011931D01*
X054293Y012029D02*
X035563Y012029D01*
X035615Y012128D02*
X054293Y012128D01*
X054293Y012226D02*
X051435Y012226D01*
X051468Y012240D02*
X051629Y012401D01*
X051716Y012611D01*
X051716Y012839D01*
X051629Y013049D01*
X051468Y013210D01*
X051257Y013297D01*
X051029Y013297D01*
X050819Y013210D01*
X050658Y013049D01*
X050571Y012839D01*
X050571Y012611D01*
X050658Y012401D01*
X050819Y012240D01*
X051029Y012153D01*
X051257Y012153D01*
X051468Y012240D01*
X051552Y012325D02*
X054293Y012325D01*
X054293Y012423D02*
X051638Y012423D01*
X051679Y012522D02*
X054293Y012522D01*
X054293Y012620D02*
X051716Y012620D01*
X051716Y012719D02*
X054293Y012719D01*
X054293Y012817D02*
X051716Y012817D01*
X051684Y012916D02*
X054293Y012916D01*
X054293Y013014D02*
X051643Y013014D01*
X051565Y013113D02*
X054293Y013113D01*
X054293Y013211D02*
X051466Y013211D01*
X050821Y013211D02*
X043966Y013211D01*
X044065Y013113D02*
X050721Y013113D01*
X050643Y013014D02*
X044143Y013014D01*
X044184Y012916D02*
X050603Y012916D01*
X050571Y012817D02*
X044216Y012817D01*
X044216Y012719D02*
X050571Y012719D01*
X050571Y012620D02*
X044216Y012620D01*
X044179Y012522D02*
X050608Y012522D01*
X050649Y012423D02*
X044138Y012423D01*
X044052Y012325D02*
X050734Y012325D01*
X050852Y012226D02*
X043935Y012226D01*
X043352Y012226D02*
X035643Y012226D01*
X035643Y012325D02*
X043234Y012325D01*
X043149Y012423D02*
X035615Y012423D01*
X035562Y012522D02*
X043108Y012522D01*
X043071Y012620D02*
X035456Y012620D01*
X035031Y012620D02*
X034456Y012620D01*
X034470Y012614D02*
X034323Y012675D01*
X034164Y012675D01*
X034017Y012614D01*
X033904Y012502D01*
X033843Y012355D01*
X033843Y012195D01*
X033904Y012048D01*
X034017Y011936D01*
X034164Y011875D01*
X034323Y011875D01*
X034470Y011936D01*
X034582Y012048D01*
X034643Y012195D01*
X034643Y012355D01*
X034582Y012502D01*
X034470Y012614D01*
X034562Y012522D02*
X034924Y012522D01*
X034872Y012423D02*
X034615Y012423D01*
X034643Y012325D02*
X034843Y012325D01*
X034843Y012226D02*
X034643Y012226D01*
X034615Y012128D02*
X034871Y012128D01*
X034924Y012029D02*
X034563Y012029D01*
X034457Y011931D02*
X035030Y011931D01*
X034030Y011931D02*
X033457Y011931D01*
X033470Y011936D02*
X033582Y012048D01*
X033643Y012195D01*
X033643Y012355D01*
X033582Y012502D01*
X033470Y012614D01*
X033323Y012675D01*
X033164Y012675D01*
X033017Y012614D01*
X032904Y012502D01*
X032843Y012355D01*
X032843Y012195D01*
X032904Y012048D01*
X033017Y011936D01*
X033164Y011875D01*
X033323Y011875D01*
X033470Y011936D01*
X033563Y012029D02*
X033924Y012029D01*
X033871Y012128D02*
X033615Y012128D01*
X033643Y012226D02*
X033843Y012226D01*
X033843Y012325D02*
X033643Y012325D01*
X033615Y012423D02*
X033872Y012423D01*
X033924Y012522D02*
X033562Y012522D01*
X033456Y012620D02*
X034031Y012620D01*
X034164Y012875D02*
X034017Y012936D01*
X033904Y013048D01*
X033843Y013195D01*
X033843Y013355D01*
X033904Y013502D01*
X034017Y013614D01*
X034164Y013675D01*
X034323Y013675D01*
X034470Y013614D01*
X034582Y013502D01*
X034643Y013355D01*
X034643Y013195D01*
X034582Y013048D01*
X034470Y012936D01*
X034323Y012875D01*
X034164Y012875D01*
X034066Y012916D02*
X033421Y012916D01*
X033470Y012936D02*
X033582Y013048D01*
X033643Y013195D01*
X033643Y013355D01*
X033582Y013502D01*
X033470Y013614D01*
X033323Y013675D01*
X033164Y013675D01*
X033017Y013614D01*
X032904Y013502D01*
X032843Y013355D01*
X032843Y013195D01*
X032904Y013048D01*
X033017Y012936D01*
X033164Y012875D01*
X033323Y012875D01*
X033470Y012936D01*
X033548Y013014D02*
X033939Y013014D01*
X033878Y013113D02*
X033609Y013113D01*
X033643Y013211D02*
X033843Y013211D01*
X033843Y013310D02*
X033643Y013310D01*
X033621Y013408D02*
X033865Y013408D01*
X033909Y013507D02*
X033577Y013507D01*
X033479Y013605D02*
X034008Y013605D01*
X034479Y013605D02*
X035008Y013605D01*
X034909Y013507D02*
X034577Y013507D01*
X034621Y013408D02*
X034865Y013408D01*
X034843Y013310D02*
X034643Y013310D01*
X034643Y013211D02*
X034843Y013211D01*
X034878Y013113D02*
X034609Y013113D01*
X034548Y013014D02*
X034939Y013014D01*
X035066Y012916D02*
X034421Y012916D01*
X035479Y013605D02*
X045713Y013605D01*
X045823Y013507D02*
X035577Y013507D01*
X035621Y013408D02*
X054293Y013408D01*
X054293Y013310D02*
X035643Y013310D01*
X035391Y014790D02*
X035528Y014928D01*
X035528Y015122D01*
X035391Y015260D01*
X035196Y015260D01*
X035058Y015122D01*
X035058Y014928D01*
X035196Y014790D01*
X035391Y014790D01*
X035486Y014886D02*
X054293Y014886D01*
X054293Y014984D02*
X035528Y014984D01*
X035528Y015083D02*
X054293Y015083D01*
X054293Y015181D02*
X035470Y015181D01*
X035656Y015280D02*
X034671Y015280D01*
X034728Y015222D02*
X034591Y015360D01*
X034396Y015360D01*
X034258Y015222D01*
X034258Y015028D01*
X034396Y014890D01*
X034591Y014890D01*
X034728Y015028D01*
X034728Y015222D01*
X034728Y015181D02*
X035117Y015181D01*
X035058Y015083D02*
X034728Y015083D01*
X034685Y014984D02*
X035058Y014984D01*
X035100Y014886D02*
X022311Y014886D01*
X022397Y014984D02*
X034302Y014984D01*
X034258Y015083D02*
X022431Y015083D01*
X022431Y015181D02*
X029330Y015181D01*
X029271Y015280D02*
X022391Y015280D01*
X022285Y015378D02*
X029255Y015378D01*
X029751Y015575D02*
X035661Y015575D01*
X035608Y015477D02*
X029813Y015477D01*
X029831Y015378D02*
X035608Y015378D01*
X036030Y015280D02*
X054293Y015280D01*
X054293Y015378D02*
X036078Y015378D01*
X037408Y015772D02*
X040358Y015772D01*
X040406Y015871D02*
X037504Y015871D01*
X039181Y014393D02*
X054293Y014393D01*
X054293Y014295D02*
X046141Y014295D01*
X045946Y014295D02*
X039291Y014295D01*
X039339Y014196D02*
X045764Y014196D01*
X045676Y014098D02*
X039359Y014098D01*
X039358Y013999D02*
X045635Y013999D01*
X045619Y013901D02*
X039317Y013901D01*
X035428Y016978D02*
X035291Y016840D01*
X035096Y016840D01*
X034958Y016978D01*
X034958Y017172D01*
X035096Y017310D01*
X035291Y017310D01*
X035428Y017172D01*
X035428Y016978D01*
X035405Y016954D02*
X045832Y016954D01*
X045896Y016890D02*
X046091Y016890D01*
X046228Y017028D01*
X046228Y017222D01*
X046091Y017360D01*
X045896Y017360D01*
X045758Y017222D01*
X045758Y017028D01*
X045896Y016890D01*
X045896Y016860D02*
X045758Y016722D01*
X045758Y016528D01*
X045896Y016390D01*
X046091Y016390D01*
X046228Y016528D01*
X046228Y016722D01*
X046091Y016860D01*
X045896Y016860D01*
X045891Y016856D02*
X035306Y016856D01*
X035080Y016856D02*
X028173Y016856D01*
X028173Y016954D02*
X034282Y016954D01*
X034296Y016940D02*
X034491Y016940D01*
X034628Y017078D01*
X034628Y017272D01*
X034491Y017410D01*
X034296Y017410D01*
X034158Y017272D01*
X034158Y017078D01*
X034296Y016940D01*
X034183Y017053D02*
X032003Y017053D01*
X031941Y016990D02*
X032078Y017128D01*
X032078Y017322D01*
X031941Y017460D01*
X031746Y017460D01*
X031608Y017322D01*
X031608Y017128D01*
X031746Y016990D01*
X031941Y016990D01*
X032078Y017151D02*
X034158Y017151D01*
X034158Y017250D02*
X032078Y017250D01*
X032053Y017348D02*
X034234Y017348D01*
X034553Y017348D02*
X035588Y017348D01*
X035646Y017290D02*
X035841Y017290D01*
X035978Y017428D01*
X035978Y017622D01*
X035841Y017760D01*
X035646Y017760D01*
X035508Y017622D01*
X035508Y017428D01*
X035646Y017290D01*
X035508Y017447D02*
X031954Y017447D01*
X031732Y017447D02*
X031528Y017447D01*
X031528Y017522D02*
X031391Y017660D01*
X031196Y017660D01*
X031058Y017522D01*
X031058Y017328D01*
X031196Y017190D01*
X031391Y017190D01*
X031528Y017328D01*
X031528Y017522D01*
X031506Y017545D02*
X035508Y017545D01*
X035529Y017644D02*
X031407Y017644D01*
X031179Y017644D02*
X028173Y017644D01*
X028173Y017742D02*
X035628Y017742D01*
X035859Y017742D02*
X045778Y017742D01*
X045758Y017722D02*
X045758Y017528D01*
X045896Y017390D01*
X046091Y017390D01*
X046228Y017528D01*
X046228Y017722D01*
X046091Y017860D01*
X045896Y017860D01*
X045758Y017722D01*
X045758Y017644D02*
X035957Y017644D01*
X035978Y017545D02*
X045758Y017545D01*
X045839Y017447D02*
X035978Y017447D01*
X035899Y017348D02*
X045884Y017348D01*
X045785Y017250D02*
X035351Y017250D01*
X035428Y017151D02*
X045758Y017151D01*
X045758Y017053D02*
X035428Y017053D01*
X035035Y017250D02*
X034628Y017250D01*
X034628Y017151D02*
X034958Y017151D01*
X034958Y017053D02*
X034603Y017053D01*
X034505Y016954D02*
X034982Y016954D01*
X034315Y015280D02*
X029816Y015280D01*
X029757Y015181D02*
X034258Y015181D01*
X033008Y013605D02*
X032479Y013605D01*
X032470Y013614D02*
X032323Y013675D01*
X032164Y013675D01*
X032017Y013614D01*
X031904Y013502D01*
X031843Y013355D01*
X031843Y013195D01*
X031904Y013048D01*
X032017Y012936D01*
X032164Y012875D01*
X032323Y012875D01*
X032470Y012936D01*
X032582Y013048D01*
X032643Y013195D01*
X032643Y013355D01*
X032582Y013502D01*
X032470Y013614D01*
X032577Y013507D02*
X032909Y013507D01*
X032865Y013408D02*
X032621Y013408D01*
X032643Y013310D02*
X032843Y013310D01*
X032843Y013211D02*
X032643Y013211D01*
X032609Y013113D02*
X032878Y013113D01*
X032939Y013014D02*
X032548Y013014D01*
X032421Y012916D02*
X033066Y012916D01*
X033031Y012620D02*
X032456Y012620D01*
X032470Y012614D02*
X032323Y012675D01*
X032164Y012675D01*
X032017Y012614D01*
X031904Y012502D01*
X031843Y012355D01*
X031843Y012195D01*
X031904Y012048D01*
X032017Y011936D01*
X032164Y011875D01*
X032323Y011875D01*
X032470Y011936D01*
X032582Y012048D01*
X032643Y012195D01*
X032643Y012355D01*
X032582Y012502D01*
X032470Y012614D01*
X032562Y012522D02*
X032924Y012522D01*
X032872Y012423D02*
X032615Y012423D01*
X032643Y012325D02*
X032843Y012325D01*
X032843Y012226D02*
X032643Y012226D01*
X032615Y012128D02*
X032871Y012128D01*
X032924Y012029D02*
X032563Y012029D01*
X032457Y011931D02*
X033030Y011931D01*
X032030Y011931D02*
X031457Y011931D01*
X031470Y011936D02*
X031582Y012048D01*
X031643Y012195D01*
X031643Y012355D01*
X031582Y012502D01*
X031470Y012614D01*
X031323Y012675D01*
X031164Y012675D01*
X031017Y012614D01*
X030904Y012502D01*
X030843Y012355D01*
X030843Y012195D01*
X030904Y012048D01*
X031017Y011936D01*
X031164Y011875D01*
X031323Y011875D01*
X031470Y011936D01*
X031563Y012029D02*
X031924Y012029D01*
X031871Y012128D02*
X031615Y012128D01*
X031643Y012226D02*
X031843Y012226D01*
X031843Y012325D02*
X031643Y012325D01*
X031615Y012423D02*
X031872Y012423D01*
X031924Y012522D02*
X031562Y012522D01*
X031456Y012620D02*
X032031Y012620D01*
X032066Y012916D02*
X031421Y012916D01*
X031470Y012936D02*
X031582Y013048D01*
X031643Y013195D01*
X031643Y013355D01*
X031582Y013502D01*
X031470Y013614D01*
X031323Y013675D01*
X031164Y013675D01*
X031017Y013614D01*
X030904Y013502D01*
X030843Y013355D01*
X030843Y013195D01*
X030904Y013048D01*
X031017Y012936D01*
X031164Y012875D01*
X031323Y012875D01*
X031470Y012936D01*
X031548Y013014D02*
X031939Y013014D01*
X031878Y013113D02*
X031609Y013113D01*
X031643Y013211D02*
X031843Y013211D01*
X031843Y013310D02*
X031643Y013310D01*
X031621Y013408D02*
X031865Y013408D01*
X031909Y013507D02*
X031577Y013507D01*
X031479Y013605D02*
X032008Y013605D01*
X031008Y013605D02*
X030479Y013605D01*
X030577Y013507D02*
X030909Y013507D01*
X030865Y013408D02*
X030621Y013408D01*
X030643Y013310D02*
X030843Y013310D01*
X030843Y013211D02*
X030643Y013211D01*
X030609Y013113D02*
X030878Y013113D01*
X030939Y013014D02*
X030548Y013014D01*
X030421Y012916D02*
X031066Y012916D01*
X031031Y012620D02*
X030456Y012620D01*
X030562Y012522D02*
X030924Y012522D01*
X030872Y012423D02*
X030615Y012423D01*
X030643Y012325D02*
X030843Y012325D01*
X030843Y012226D02*
X030643Y012226D01*
X030615Y012128D02*
X030871Y012128D01*
X030924Y012029D02*
X030563Y012029D01*
X030457Y011931D02*
X031030Y011931D01*
X031214Y008286D02*
X028272Y008286D01*
X028510Y008188D02*
X030977Y008188D01*
X030860Y008089D02*
X028627Y008089D01*
X028725Y007991D02*
X030762Y007991D01*
X030699Y007892D02*
X028788Y007892D01*
X028829Y007794D02*
X030658Y007794D01*
X030617Y007695D02*
X028870Y007695D01*
X028883Y007597D02*
X030603Y007597D01*
X030603Y007498D02*
X028883Y007498D01*
X028883Y007400D02*
X030603Y007400D01*
X030623Y007301D02*
X028864Y007301D01*
X028823Y007203D02*
X030664Y007203D01*
X030704Y007104D02*
X028782Y007104D01*
X028711Y007006D02*
X030776Y007006D01*
X030874Y006907D02*
X028613Y006907D01*
X028476Y006809D02*
X031010Y006809D01*
X024300Y008286D02*
X019304Y008286D01*
X019374Y008385D02*
X024258Y008385D01*
X024258Y008483D02*
X019415Y008483D01*
X019455Y008582D02*
X024317Y008582D01*
X018473Y008089D02*
X015013Y008089D01*
X015180Y008188D02*
X018306Y008188D01*
X018208Y008286D02*
X015279Y008286D01*
X015349Y008385D02*
X018138Y008385D01*
X018097Y008483D02*
X015390Y008483D01*
X015430Y008582D02*
X018056Y008582D01*
X018051Y008680D02*
X015436Y008680D01*
X015436Y008779D02*
X018051Y008779D01*
X018052Y008877D02*
X015435Y008877D01*
X015394Y008976D02*
X018092Y008976D01*
X018133Y009074D02*
X015353Y009074D01*
X015290Y009173D02*
X018196Y009173D01*
X018295Y009271D02*
X015192Y009271D01*
X015041Y009370D02*
X018445Y009370D01*
X012353Y009468D02*
X008734Y009468D01*
X008964Y009370D02*
X012123Y009370D01*
X012024Y009271D02*
X009063Y009271D01*
X009161Y009173D02*
X011926Y009173D01*
X011879Y009074D02*
X009208Y009074D01*
X009248Y008976D02*
X011838Y008976D01*
X011801Y008877D02*
X009286Y008877D01*
X009286Y008779D02*
X011801Y008779D01*
X011801Y008680D02*
X009286Y008680D01*
X009284Y008582D02*
X011802Y008582D01*
X011843Y008483D02*
X009244Y008483D01*
X009203Y008385D02*
X011884Y008385D01*
X011937Y008286D02*
X009150Y008286D01*
X009051Y008188D02*
X012036Y008188D01*
X012142Y008089D02*
X008944Y008089D01*
X008706Y007991D02*
X012380Y007991D01*
X013493Y019811D02*
X008456Y019811D01*
X008533Y019909D02*
X013493Y019909D01*
X013493Y020008D02*
X008574Y020008D01*
X008586Y020106D02*
X013493Y020106D01*
X013493Y020205D02*
X008586Y020205D01*
X008549Y020303D02*
X013493Y020303D01*
X013493Y020402D02*
X008494Y020402D01*
X008395Y020500D02*
X013493Y020500D01*
X013493Y020796D02*
X008441Y020796D01*
X008527Y020894D02*
X013493Y020894D01*
X013493Y020993D02*
X008568Y020993D01*
X008586Y021091D02*
X013493Y021091D01*
X013493Y021190D02*
X008586Y021190D01*
X008555Y021288D02*
X013493Y021288D01*
X013493Y021387D02*
X008509Y021387D01*
X008410Y021485D02*
X013493Y021485D01*
X013493Y021781D02*
X008426Y021781D01*
X008521Y021879D02*
X013493Y021879D01*
X013493Y021978D02*
X008561Y021978D01*
X008586Y022076D02*
X013493Y022076D01*
X013493Y022175D02*
X008586Y022175D01*
X008561Y022273D02*
X013493Y022273D01*
X013493Y022372D02*
X008520Y022372D01*
X008425Y022470D02*
X013493Y022470D01*
X013493Y023357D02*
X008402Y023357D01*
X008500Y023455D02*
X013493Y023455D01*
X013493Y023554D02*
X008551Y023554D01*
X008586Y023652D02*
X013493Y023652D01*
X013493Y023751D02*
X008586Y023751D01*
X008571Y023849D02*
X013493Y023849D01*
X013493Y023948D02*
X008530Y023948D01*
X008449Y024046D02*
X013493Y024046D01*
X013493Y024145D02*
X008291Y024145D01*
X008378Y024342D02*
X013493Y024342D01*
X013493Y024440D02*
X008485Y024440D01*
X008545Y024539D02*
X013493Y024539D01*
X013493Y024243D02*
X005693Y024243D01*
X005693Y025327D02*
X007939Y025327D01*
X007888Y025348D02*
X008052Y025280D01*
X008229Y025280D01*
X008393Y025348D01*
X008518Y025473D01*
X008586Y025636D01*
X008586Y025814D01*
X008518Y025977D01*
X008393Y026102D01*
X008229Y026170D01*
X008052Y026170D01*
X007888Y026102D01*
X007763Y025977D01*
X007695Y025814D01*
X007695Y025636D01*
X007763Y025473D01*
X007888Y025348D01*
X007811Y025425D02*
X005693Y025425D01*
X005693Y025524D02*
X007742Y025524D01*
X007701Y025622D02*
X005693Y025622D01*
X005693Y025721D02*
X007695Y025721D01*
X007698Y025819D02*
X005693Y025819D01*
X005693Y025918D02*
X007738Y025918D01*
X007802Y026016D02*
X005693Y026016D01*
X005693Y026115D02*
X007917Y026115D01*
X007975Y026312D02*
X005693Y026312D01*
X005693Y026410D02*
X007826Y026410D01*
X007888Y026348D02*
X008052Y026280D01*
X008229Y026280D01*
X008393Y026348D01*
X008518Y026473D01*
X008586Y026636D01*
X008586Y026814D01*
X008518Y026977D01*
X008393Y027102D01*
X008229Y027170D01*
X008052Y027170D01*
X007888Y027102D01*
X007763Y026977D01*
X007695Y026814D01*
X007695Y026636D01*
X007763Y026473D01*
X007888Y026348D01*
X007748Y026509D02*
X005693Y026509D01*
X005693Y026607D02*
X007707Y026607D01*
X007695Y026706D02*
X005693Y026706D01*
X005693Y026804D02*
X007695Y026804D01*
X007732Y026903D02*
X005693Y026903D01*
X005693Y027001D02*
X007787Y027001D01*
X007885Y027100D02*
X005693Y027100D01*
X005693Y027198D02*
X016817Y027198D01*
X016832Y027183D02*
X016937Y027140D01*
X017050Y027140D01*
X017155Y027183D01*
X017235Y027264D01*
X017278Y027368D01*
X017278Y027482D01*
X017235Y027586D01*
X017155Y027667D01*
X017050Y027710D01*
X016937Y027710D01*
X016832Y027667D01*
X016752Y027586D01*
X016708Y027482D01*
X016708Y027368D01*
X016752Y027264D01*
X016832Y027183D01*
X016738Y027297D02*
X008270Y027297D01*
X008229Y027280D02*
X008393Y027348D01*
X008518Y027473D01*
X008586Y027636D01*
X008586Y027814D01*
X008518Y027977D01*
X008393Y028102D01*
X008229Y028170D01*
X008052Y028170D01*
X007888Y028102D01*
X007763Y027977D01*
X007695Y027814D01*
X007695Y027636D01*
X007763Y027473D01*
X007888Y027348D01*
X008052Y027280D01*
X008229Y027280D01*
X008011Y027297D02*
X005693Y027297D01*
X005693Y027395D02*
X007841Y027395D01*
X007754Y027494D02*
X005693Y027494D01*
X005693Y027592D02*
X007714Y027592D01*
X007695Y027691D02*
X005693Y027691D01*
X005693Y027789D02*
X007695Y027789D01*
X007726Y027888D02*
X005693Y027888D01*
X005693Y027986D02*
X007772Y027986D01*
X007870Y028085D02*
X005693Y028085D01*
X005693Y028183D02*
X020793Y028183D01*
X020793Y028085D02*
X020079Y028085D01*
X020135Y028062D02*
X020011Y028113D01*
X019876Y028113D01*
X019752Y028062D01*
X019657Y027967D01*
X019605Y027842D01*
X019605Y027708D01*
X019657Y027583D01*
X019752Y027488D01*
X019876Y027437D01*
X020011Y027437D01*
X020135Y027488D01*
X020230Y027583D01*
X020281Y027708D01*
X020281Y027842D01*
X020230Y027967D01*
X020135Y028062D01*
X020210Y027986D02*
X020793Y027986D01*
X020793Y027888D02*
X020263Y027888D01*
X020281Y027789D02*
X020793Y027789D01*
X020793Y027691D02*
X020274Y027691D01*
X020233Y027592D02*
X020793Y027592D01*
X020793Y027494D02*
X020140Y027494D01*
X019747Y027494D02*
X017973Y027494D01*
X017978Y027482D02*
X017935Y027586D01*
X017855Y027667D01*
X017750Y027710D01*
X017637Y027710D01*
X017532Y027667D01*
X017452Y027586D01*
X017408Y027482D01*
X017408Y027368D01*
X017452Y027264D01*
X017532Y027183D01*
X017637Y027140D01*
X017750Y027140D01*
X017855Y027183D01*
X017935Y027264D01*
X017978Y027368D01*
X017978Y027482D01*
X017978Y027395D02*
X020793Y027395D01*
X020793Y027297D02*
X017949Y027297D01*
X017869Y027198D02*
X020793Y027198D01*
X020793Y027100D02*
X008396Y027100D01*
X008494Y027001D02*
X020793Y027001D01*
X020793Y026903D02*
X008549Y026903D01*
X008586Y026804D02*
X020793Y026804D01*
X020793Y026706D02*
X008586Y026706D01*
X008574Y026607D02*
X020793Y026607D01*
X020793Y026509D02*
X008533Y026509D01*
X008455Y026410D02*
X020793Y026410D01*
X020793Y026312D02*
X008306Y026312D01*
X008364Y026115D02*
X020793Y026115D01*
X020793Y026213D02*
X005693Y026213D01*
X005693Y028282D02*
X008048Y028282D01*
X008052Y028280D02*
X008229Y028280D01*
X008393Y028348D01*
X008518Y028473D01*
X008586Y028636D01*
X008586Y028814D01*
X008518Y028977D01*
X008393Y029102D01*
X008229Y029170D01*
X008052Y029170D01*
X007888Y029102D01*
X007763Y028977D01*
X007695Y028814D01*
X007695Y028636D01*
X007763Y028473D01*
X007888Y028348D01*
X008052Y028280D01*
X008234Y028282D02*
X020793Y028282D01*
X020793Y028380D02*
X008425Y028380D01*
X008520Y028479D02*
X020793Y028479D01*
X020793Y028577D02*
X018600Y028577D01*
X018646Y028596D02*
X018722Y028672D01*
X018763Y028771D01*
X018763Y028879D01*
X018722Y028978D01*
X018660Y029040D01*
X018750Y029040D01*
X018855Y029083D01*
X018935Y029164D01*
X018978Y029268D01*
X018978Y029382D01*
X018935Y029486D01*
X018855Y029567D01*
X018750Y029610D01*
X018637Y029610D01*
X018532Y029567D01*
X018452Y029486D01*
X018408Y029382D01*
X018408Y029268D01*
X018452Y029164D01*
X018520Y029095D01*
X018440Y029095D01*
X018340Y029054D01*
X018264Y028978D01*
X018223Y028879D01*
X018223Y028771D01*
X018264Y028672D01*
X018340Y028596D01*
X018440Y028555D01*
X018547Y028555D01*
X018646Y028596D01*
X018724Y028676D02*
X020793Y028676D01*
X020793Y028774D02*
X018763Y028774D01*
X018763Y028873D02*
X020793Y028873D01*
X020793Y028971D02*
X018725Y028971D01*
X018821Y029070D02*
X019993Y029070D01*
X019993Y029168D02*
X018937Y029168D01*
X018978Y029267D02*
X019993Y029267D01*
X019993Y029365D02*
X018978Y029365D01*
X018944Y029464D02*
X019993Y029464D01*
X019993Y029562D02*
X018859Y029562D01*
X018527Y029562D02*
X008555Y029562D01*
X008586Y029636D02*
X008518Y029473D01*
X008393Y029348D01*
X008229Y029280D01*
X008052Y029280D01*
X007888Y029348D01*
X007763Y029473D01*
X007695Y029636D01*
X007695Y029814D01*
X007763Y029977D01*
X007888Y030102D01*
X008052Y030170D01*
X008229Y030170D01*
X008393Y030102D01*
X008518Y029977D01*
X008586Y029814D01*
X008586Y029636D01*
X008586Y029661D02*
X019993Y029661D01*
X019993Y029759D02*
X008586Y029759D01*
X008568Y029858D02*
X019993Y029858D01*
X019993Y029956D02*
X008527Y029956D01*
X008441Y030055D02*
X019993Y030055D01*
X019993Y030153D02*
X008271Y030153D01*
X008229Y030280D02*
X008393Y030348D01*
X008518Y030473D01*
X008586Y030636D01*
X008586Y030814D01*
X008518Y030977D01*
X008393Y031102D01*
X008229Y031170D01*
X008052Y031170D01*
X007888Y031102D01*
X007763Y030977D01*
X007695Y030814D01*
X007695Y030636D01*
X007763Y030473D01*
X007888Y030348D01*
X008052Y030280D01*
X008229Y030280D01*
X008395Y030350D02*
X016003Y030350D01*
X016052Y030330D02*
X016229Y030330D01*
X016393Y030398D01*
X016518Y030523D01*
X016586Y030686D01*
X016586Y030864D01*
X016518Y031027D01*
X016393Y031152D01*
X016229Y031220D01*
X016052Y031220D01*
X015888Y031152D01*
X015763Y031027D01*
X015695Y030864D01*
X015695Y030686D01*
X015763Y030523D01*
X015888Y030398D01*
X016052Y030330D01*
X016278Y030350D02*
X017003Y030350D01*
X017052Y030330D02*
X016888Y030398D01*
X016763Y030523D01*
X016695Y030686D01*
X016695Y030864D01*
X016763Y031027D01*
X016888Y031152D01*
X017052Y031220D01*
X017229Y031220D01*
X017393Y031152D01*
X017518Y031027D01*
X017586Y030864D01*
X017586Y030686D01*
X017518Y030523D01*
X017393Y030398D01*
X017229Y030330D01*
X017052Y030330D01*
X017278Y030350D02*
X018003Y030350D01*
X018052Y030330D02*
X018229Y030330D01*
X018393Y030398D01*
X018518Y030523D01*
X018586Y030686D01*
X018586Y030864D01*
X018518Y031027D01*
X018393Y031152D01*
X018229Y031220D01*
X018052Y031220D01*
X017888Y031152D01*
X017763Y031027D01*
X017695Y030864D01*
X017695Y030686D01*
X017763Y030523D01*
X017888Y030398D01*
X018052Y030330D01*
X018278Y030350D02*
X019993Y030350D01*
X019993Y030252D02*
X005693Y030252D01*
X005693Y030350D02*
X007886Y030350D01*
X007787Y030449D02*
X005693Y030449D01*
X005693Y030547D02*
X007732Y030547D01*
X007695Y030646D02*
X005693Y030646D01*
X005693Y030744D02*
X007695Y030744D01*
X007707Y030843D02*
X005693Y030843D01*
X005693Y030941D02*
X007748Y030941D01*
X007825Y031040D02*
X005693Y031040D01*
X005693Y031138D02*
X007974Y031138D01*
X008307Y031138D02*
X008693Y031138D01*
X008693Y031040D02*
X008456Y031040D01*
X008533Y030941D02*
X008693Y030941D01*
X008693Y030843D02*
X008574Y030843D01*
X008586Y030744D02*
X008693Y030744D01*
X008693Y030646D02*
X008586Y030646D01*
X008549Y030547D02*
X008693Y030547D01*
X008693Y030449D02*
X008494Y030449D01*
X008893Y030646D02*
X010447Y030646D01*
X010354Y030744D02*
X008893Y030744D01*
X008893Y030843D02*
X010314Y030843D01*
X010307Y030941D02*
X008893Y030941D01*
X008893Y031040D02*
X010327Y031040D01*
X010381Y031138D02*
X008893Y031138D01*
X008893Y031237D02*
X010517Y031237D01*
X010770Y031237D02*
X012367Y031237D01*
X012231Y031138D02*
X010906Y031138D01*
X010960Y031040D02*
X012177Y031040D01*
X012157Y030941D02*
X010980Y030941D01*
X010973Y030843D02*
X012164Y030843D01*
X012204Y030744D02*
X010932Y030744D01*
X010839Y030646D02*
X012297Y030646D01*
X012689Y030646D02*
X014147Y030646D01*
X014054Y030744D02*
X012782Y030744D01*
X012823Y030843D02*
X014014Y030843D01*
X014007Y030941D02*
X012830Y030941D01*
X012810Y031040D02*
X014027Y031040D01*
X014081Y031138D02*
X012756Y031138D01*
X012620Y031237D02*
X014217Y031237D01*
X014470Y031237D02*
X015293Y031237D01*
X015293Y031335D02*
X008893Y031335D01*
X008010Y030153D02*
X005693Y030153D01*
X005693Y030055D02*
X007840Y030055D01*
X007754Y029956D02*
X005693Y029956D01*
X005693Y029858D02*
X007713Y029858D01*
X007695Y029759D02*
X005693Y029759D01*
X005693Y029661D02*
X007695Y029661D01*
X007726Y029562D02*
X005693Y029562D01*
X005693Y029464D02*
X007772Y029464D01*
X007871Y029365D02*
X005693Y029365D01*
X005693Y029267D02*
X018409Y029267D01*
X018408Y029365D02*
X008410Y029365D01*
X008509Y029464D02*
X018442Y029464D01*
X018450Y029168D02*
X008234Y029168D01*
X008047Y029168D02*
X005693Y029168D01*
X005693Y029070D02*
X007855Y029070D01*
X007761Y028971D02*
X005693Y028971D01*
X005693Y028873D02*
X007720Y028873D01*
X007695Y028774D02*
X005693Y028774D01*
X005693Y028676D02*
X007695Y028676D01*
X007720Y028577D02*
X005693Y028577D01*
X005693Y028479D02*
X007761Y028479D01*
X007856Y028380D02*
X005693Y028380D01*
X008411Y028085D02*
X016250Y028085D01*
X016282Y028117D02*
X016202Y028036D01*
X016158Y027932D01*
X016158Y027818D01*
X016202Y027714D01*
X016282Y027633D01*
X016387Y027590D01*
X016500Y027590D01*
X016605Y027633D01*
X016685Y027714D01*
X016728Y027818D01*
X016728Y027932D01*
X016685Y028036D01*
X016605Y028117D01*
X016500Y028160D01*
X016387Y028160D01*
X016282Y028117D01*
X016181Y027986D02*
X008509Y027986D01*
X008555Y027888D02*
X016158Y027888D01*
X016170Y027789D02*
X008586Y027789D01*
X008586Y027691D02*
X016225Y027691D01*
X016382Y027592D02*
X008567Y027592D01*
X008527Y027494D02*
X016713Y027494D01*
X016708Y027395D02*
X008440Y027395D01*
X008561Y028577D02*
X018386Y028577D01*
X018263Y028676D02*
X008586Y028676D01*
X008586Y028774D02*
X018223Y028774D01*
X018223Y028873D02*
X008561Y028873D01*
X008521Y028971D02*
X018262Y028971D01*
X018378Y029070D02*
X008426Y029070D01*
X005993Y031434D02*
X015293Y031434D01*
X015293Y031532D02*
X005993Y031532D01*
X005993Y031631D02*
X015293Y031631D01*
X015293Y031729D02*
X005993Y031729D01*
X005993Y031828D02*
X015293Y031828D01*
X015293Y031926D02*
X005993Y031926D01*
X005993Y032025D02*
X015293Y032025D01*
X015293Y032123D02*
X005993Y032123D01*
X005993Y032222D02*
X015293Y032222D01*
X015293Y032320D02*
X005993Y032320D01*
X005993Y032419D02*
X015293Y032419D01*
X015293Y032517D02*
X005993Y032517D01*
X005993Y032616D02*
X020378Y032616D01*
X020403Y032590D02*
X020598Y032590D01*
X020736Y032728D01*
X020736Y032922D01*
X020598Y033060D01*
X020403Y033060D01*
X020266Y032922D01*
X020266Y032728D01*
X020403Y032590D01*
X020279Y032714D02*
X005993Y032714D01*
X005993Y032813D02*
X020266Y032813D01*
X020266Y032911D02*
X008449Y032911D01*
X008362Y032875D02*
X008675Y033004D01*
X008914Y033244D01*
X009043Y033556D01*
X009043Y033894D01*
X008914Y034206D01*
X008675Y034446D01*
X008362Y034575D01*
X008024Y034575D01*
X007712Y034446D01*
X007473Y034206D01*
X007343Y033894D01*
X007343Y033556D01*
X007473Y033244D01*
X007712Y033004D01*
X008024Y032875D01*
X008362Y032875D01*
X008680Y033010D02*
X020353Y033010D01*
X020648Y033010D02*
X054293Y033010D01*
X054293Y033108D02*
X008778Y033108D01*
X008877Y033207D02*
X054293Y033207D01*
X054293Y033305D02*
X008939Y033305D01*
X008980Y033404D02*
X054293Y033404D01*
X054293Y033502D02*
X053248Y033502D01*
X053146Y033460D02*
X053405Y033567D01*
X053603Y033766D01*
X053711Y034025D01*
X053711Y034305D01*
X053603Y034564D01*
X053405Y034763D01*
X053146Y034870D01*
X052866Y034870D01*
X052606Y034763D01*
X052408Y034564D01*
X052301Y034305D01*
X052301Y034025D01*
X052408Y033766D01*
X052606Y033567D01*
X052866Y033460D01*
X053146Y033460D01*
X053438Y033601D02*
X054293Y033601D01*
X054293Y033699D02*
X053537Y033699D01*
X053617Y033798D02*
X054293Y033798D01*
X054293Y033896D02*
X053657Y033896D01*
X053698Y033995D02*
X054293Y033995D01*
X054293Y034093D02*
X053711Y034093D01*
X053711Y034192D02*
X054293Y034192D01*
X054293Y034290D02*
X053711Y034290D01*
X053676Y034389D02*
X054293Y034389D01*
X054293Y034487D02*
X053635Y034487D01*
X053582Y034586D02*
X054293Y034586D01*
X054293Y034684D02*
X053484Y034684D01*
X053357Y034783D02*
X054293Y034783D01*
X054293Y034881D02*
X005993Y034881D01*
X005993Y034783D02*
X030030Y034783D01*
X029981Y034763D02*
X029783Y034564D01*
X029676Y034305D01*
X029676Y034025D01*
X029783Y033766D01*
X029981Y033567D01*
X030241Y033460D01*
X030521Y033460D01*
X030780Y033567D01*
X030978Y033766D01*
X031086Y034025D01*
X031086Y034305D01*
X030978Y034564D01*
X030780Y034763D01*
X030521Y034870D01*
X030241Y034870D01*
X029981Y034763D01*
X029903Y034684D02*
X005993Y034684D01*
X005993Y034586D02*
X029804Y034586D01*
X029751Y034487D02*
X008575Y034487D01*
X008732Y034389D02*
X029710Y034389D01*
X029676Y034290D02*
X008830Y034290D01*
X008920Y034192D02*
X029676Y034192D01*
X029676Y034093D02*
X008961Y034093D01*
X009002Y033995D02*
X029688Y033995D01*
X029729Y033896D02*
X009042Y033896D01*
X009043Y033798D02*
X029770Y033798D01*
X029850Y033699D02*
X009043Y033699D01*
X009043Y033601D02*
X029948Y033601D01*
X030139Y033502D02*
X009021Y033502D01*
X007937Y032911D02*
X005993Y032911D01*
X005993Y033010D02*
X007707Y033010D01*
X007608Y033108D02*
X005993Y033108D01*
X005993Y033207D02*
X007510Y033207D01*
X007447Y033305D02*
X005993Y033305D01*
X005993Y033404D02*
X007406Y033404D01*
X007366Y033502D02*
X005993Y033502D01*
X005993Y033601D02*
X007343Y033601D01*
X007343Y033699D02*
X005993Y033699D01*
X005993Y033798D02*
X007343Y033798D01*
X007344Y033896D02*
X005993Y033896D01*
X005993Y033995D02*
X007385Y033995D01*
X007426Y034093D02*
X005993Y034093D01*
X005993Y034192D02*
X007467Y034192D01*
X007556Y034290D02*
X005993Y034290D01*
X005993Y034389D02*
X007655Y034389D01*
X007812Y034487D02*
X005993Y034487D01*
X005993Y034980D02*
X017721Y034980D01*
X017771Y034959D02*
X017916Y034959D01*
X018050Y035015D01*
X018153Y035118D01*
X018209Y035252D01*
X018209Y035398D01*
X018153Y035532D01*
X018050Y035635D01*
X017916Y035691D01*
X017771Y035691D01*
X017636Y035635D01*
X017533Y035532D01*
X017478Y035398D01*
X017478Y035252D01*
X017533Y035118D01*
X017636Y035015D01*
X017771Y034959D01*
X017965Y034980D02*
X018721Y034980D01*
X018771Y034959D02*
X018916Y034959D01*
X019050Y035015D01*
X019153Y035118D01*
X019209Y035252D01*
X019209Y035398D01*
X019153Y035532D01*
X019050Y035635D01*
X018916Y035691D01*
X018771Y035691D01*
X018636Y035635D01*
X018533Y035532D01*
X018478Y035398D01*
X018478Y035252D01*
X018533Y035118D01*
X018636Y035015D01*
X018771Y034959D01*
X018965Y034980D02*
X019721Y034980D01*
X019771Y034959D02*
X019636Y035015D01*
X019533Y035118D01*
X019478Y035252D01*
X019478Y035398D01*
X019533Y035532D01*
X019636Y035635D01*
X019771Y035691D01*
X019916Y035691D01*
X020050Y035635D01*
X020153Y035532D01*
X020209Y035398D01*
X020209Y035252D01*
X020153Y035118D01*
X020050Y035015D01*
X019916Y034959D01*
X019771Y034959D01*
X019965Y034980D02*
X054293Y034980D01*
X054293Y035078D02*
X020114Y035078D01*
X020178Y035177D02*
X054293Y035177D01*
X054293Y035275D02*
X020209Y035275D01*
X020209Y035374D02*
X054293Y035374D01*
X054293Y035472D02*
X020178Y035472D01*
X020115Y035571D02*
X054293Y035571D01*
X054293Y035669D02*
X019968Y035669D01*
X019718Y035669D02*
X018968Y035669D01*
X019115Y035571D02*
X019572Y035571D01*
X019508Y035472D02*
X019178Y035472D01*
X019209Y035374D02*
X019478Y035374D01*
X019478Y035275D02*
X019209Y035275D01*
X019178Y035177D02*
X019509Y035177D01*
X019573Y035078D02*
X019114Y035078D01*
X018573Y035078D02*
X018114Y035078D01*
X018178Y035177D02*
X018509Y035177D01*
X018478Y035275D02*
X018209Y035275D01*
X018209Y035374D02*
X018478Y035374D01*
X018508Y035472D02*
X018178Y035472D01*
X018115Y035571D02*
X018572Y035571D01*
X018718Y035669D02*
X017968Y035669D01*
X017718Y035669D02*
X013713Y035669D01*
X013684Y035640D02*
X013778Y035735D01*
X013830Y035858D01*
X013830Y035992D01*
X013778Y036115D01*
X013684Y036210D01*
X013560Y036261D01*
X013426Y036261D01*
X013303Y036210D01*
X013208Y036115D01*
X013157Y035992D01*
X013157Y035858D01*
X013208Y035735D01*
X013303Y035640D01*
X013426Y035589D01*
X013560Y035589D01*
X013684Y035640D01*
X013792Y035768D02*
X054293Y035768D01*
X054293Y035866D02*
X013830Y035866D01*
X013830Y035965D02*
X014593Y035965D01*
X014593Y036063D02*
X013800Y036063D01*
X013732Y036162D02*
X014593Y036162D01*
X014558Y036260D02*
X013563Y036260D01*
X013424Y036260D02*
X011563Y036260D01*
X011560Y036261D02*
X011426Y036261D01*
X011303Y036210D01*
X011208Y036115D01*
X011157Y035992D01*
X011157Y035858D01*
X011208Y035735D01*
X011303Y035640D01*
X011426Y035589D01*
X011560Y035589D01*
X011684Y035640D01*
X011778Y035735D01*
X011830Y035858D01*
X011830Y035992D01*
X011778Y036115D01*
X011684Y036210D01*
X011560Y036261D01*
X011424Y036260D02*
X007828Y036260D01*
X007828Y036322D02*
X007691Y036460D01*
X007496Y036460D01*
X007358Y036322D01*
X007358Y036128D01*
X007496Y035990D01*
X007691Y035990D01*
X007828Y036128D01*
X007828Y036322D01*
X007792Y036359D02*
X014460Y036359D01*
X014361Y036457D02*
X007694Y036457D01*
X007493Y036457D02*
X006008Y036457D01*
X005993Y036359D02*
X007395Y036359D01*
X007358Y036260D02*
X005993Y036260D01*
X005993Y036162D02*
X007358Y036162D01*
X007423Y036063D02*
X005993Y036063D01*
X005993Y035965D02*
X011157Y035965D01*
X011157Y035866D02*
X005993Y035866D01*
X005993Y035768D02*
X011195Y035768D01*
X011274Y035669D02*
X005993Y035669D01*
X005993Y035571D02*
X017572Y035571D01*
X017508Y035472D02*
X005993Y035472D01*
X005993Y035374D02*
X017478Y035374D01*
X017478Y035275D02*
X005993Y035275D01*
X005993Y035177D02*
X017509Y035177D01*
X017573Y035078D02*
X005993Y035078D01*
X006107Y036556D02*
X014263Y036556D01*
X014164Y036654D02*
X006205Y036654D01*
X007764Y036063D02*
X011187Y036063D01*
X011254Y036162D02*
X007828Y036162D01*
X011732Y036162D02*
X013254Y036162D01*
X013187Y036063D02*
X011800Y036063D01*
X011830Y035965D02*
X013157Y035965D01*
X013157Y035866D02*
X011830Y035866D01*
X011792Y035768D02*
X013195Y035768D01*
X013274Y035669D02*
X011713Y035669D01*
X015493Y032320D02*
X019993Y032320D01*
X019993Y032222D02*
X015493Y032222D01*
X015493Y032123D02*
X016859Y032123D01*
X016888Y032152D02*
X016763Y032027D01*
X016695Y031864D01*
X016695Y031686D01*
X016763Y031523D01*
X016888Y031398D01*
X017052Y031330D01*
X017229Y031330D01*
X017393Y031398D01*
X017518Y031523D01*
X017586Y031686D01*
X017586Y031864D01*
X017518Y032027D01*
X017393Y032152D01*
X017229Y032220D01*
X017052Y032220D01*
X016888Y032152D01*
X016762Y032025D02*
X015493Y032025D01*
X015493Y031926D02*
X016721Y031926D01*
X016695Y031828D02*
X015493Y031828D01*
X015493Y031729D02*
X016695Y031729D01*
X016718Y031631D02*
X015493Y031631D01*
X015493Y031532D02*
X016759Y031532D01*
X016852Y031434D02*
X015493Y031434D01*
X015493Y031335D02*
X017039Y031335D01*
X017242Y031335D02*
X018039Y031335D01*
X018052Y031330D02*
X018229Y031330D01*
X018393Y031398D01*
X018518Y031523D01*
X018586Y031686D01*
X018586Y031864D01*
X018518Y032027D01*
X018393Y032152D01*
X018229Y032220D01*
X018052Y032220D01*
X017888Y032152D01*
X017763Y032027D01*
X017695Y031864D01*
X017695Y031686D01*
X017763Y031523D01*
X017888Y031398D01*
X018052Y031330D01*
X018242Y031335D02*
X019993Y031335D01*
X019993Y031237D02*
X015493Y031237D01*
X015493Y031138D02*
X015874Y031138D01*
X015775Y031040D02*
X015493Y031040D01*
X015493Y030941D02*
X015727Y030941D01*
X015695Y030843D02*
X015493Y030843D01*
X015493Y030744D02*
X015695Y030744D01*
X015712Y030646D02*
X015493Y030646D01*
X015493Y030547D02*
X015753Y030547D01*
X015837Y030449D02*
X015493Y030449D01*
X015293Y030646D02*
X014539Y030646D01*
X014632Y030744D02*
X015293Y030744D01*
X015293Y030843D02*
X014673Y030843D01*
X014680Y030941D02*
X015293Y030941D01*
X015293Y031040D02*
X014660Y031040D01*
X014606Y031138D02*
X015293Y031138D01*
X016407Y031138D02*
X016874Y031138D01*
X016775Y031040D02*
X016506Y031040D01*
X016554Y030941D02*
X016727Y030941D01*
X016695Y030843D02*
X016586Y030843D01*
X016586Y030744D02*
X016695Y030744D01*
X016712Y030646D02*
X016569Y030646D01*
X016528Y030547D02*
X016753Y030547D01*
X016837Y030449D02*
X016444Y030449D01*
X017444Y030449D02*
X017837Y030449D01*
X017753Y030547D02*
X017528Y030547D01*
X017569Y030646D02*
X017712Y030646D01*
X017695Y030744D02*
X017586Y030744D01*
X017586Y030843D02*
X017695Y030843D01*
X017727Y030941D02*
X017554Y030941D01*
X017506Y031040D02*
X017775Y031040D01*
X017874Y031138D02*
X017407Y031138D01*
X017429Y031434D02*
X017852Y031434D01*
X017759Y031532D02*
X017522Y031532D01*
X017563Y031631D02*
X017718Y031631D01*
X017695Y031729D02*
X017586Y031729D01*
X017586Y031828D02*
X017695Y031828D01*
X017721Y031926D02*
X017560Y031926D01*
X017519Y032025D02*
X017762Y032025D01*
X017859Y032123D02*
X017422Y032123D01*
X018422Y032123D02*
X019993Y032123D01*
X019993Y032025D02*
X018519Y032025D01*
X018560Y031926D02*
X019993Y031926D01*
X019993Y031828D02*
X018586Y031828D01*
X018586Y031729D02*
X019993Y031729D01*
X019993Y031631D02*
X018563Y031631D01*
X018522Y031532D02*
X019993Y031532D01*
X019993Y031434D02*
X018429Y031434D01*
X018407Y031138D02*
X019993Y031138D01*
X019993Y031040D02*
X018506Y031040D01*
X018554Y030941D02*
X019993Y030941D01*
X019993Y030843D02*
X018586Y030843D01*
X018586Y030744D02*
X019993Y030744D01*
X019993Y030646D02*
X018569Y030646D01*
X018528Y030547D02*
X019993Y030547D01*
X019993Y030449D02*
X018444Y030449D01*
X020193Y030449D02*
X020385Y030449D01*
X020396Y030460D02*
X020258Y030322D01*
X020258Y030128D01*
X020396Y029990D01*
X020591Y029990D01*
X020728Y030128D01*
X020728Y030322D01*
X020591Y030460D01*
X020396Y030460D01*
X020286Y030350D02*
X020193Y030350D01*
X020193Y030252D02*
X020258Y030252D01*
X020258Y030153D02*
X020193Y030153D01*
X020193Y030055D02*
X020331Y030055D01*
X020193Y029956D02*
X026113Y029956D01*
X026113Y029858D02*
X020193Y029858D01*
X020193Y029759D02*
X026113Y029759D01*
X026113Y029661D02*
X020193Y029661D01*
X020193Y029562D02*
X026113Y029562D01*
X026113Y029464D02*
X020193Y029464D01*
X020193Y029365D02*
X026113Y029365D01*
X026113Y029267D02*
X020193Y029267D01*
X020993Y029168D02*
X022104Y029168D01*
X022058Y029122D02*
X022058Y028928D01*
X022196Y028790D01*
X022391Y028790D01*
X022528Y028928D01*
X022528Y029122D01*
X022391Y029260D01*
X022196Y029260D01*
X022058Y029122D01*
X022058Y029070D02*
X020993Y029070D01*
X020993Y028971D02*
X022058Y028971D01*
X022113Y028873D02*
X020993Y028873D01*
X020993Y028774D02*
X026113Y028774D01*
X026113Y028676D02*
X020993Y028676D01*
X020993Y028577D02*
X026113Y028577D01*
X026113Y028479D02*
X024322Y028479D01*
X024291Y028510D02*
X024096Y028510D01*
X023958Y028372D01*
X023958Y028178D01*
X024096Y028040D01*
X024291Y028040D01*
X024428Y028178D01*
X024428Y028372D01*
X024291Y028510D01*
X024421Y028380D02*
X026113Y028380D01*
X026113Y028282D02*
X024428Y028282D01*
X024428Y028183D02*
X026113Y028183D01*
X026113Y028085D02*
X024335Y028085D01*
X024051Y028085D02*
X020993Y028085D01*
X020993Y028183D02*
X023958Y028183D01*
X023958Y028282D02*
X020993Y028282D01*
X020993Y028380D02*
X023966Y028380D01*
X024065Y028479D02*
X020993Y028479D01*
X020993Y027986D02*
X026113Y027986D01*
X026113Y027888D02*
X020993Y027888D01*
X020993Y027789D02*
X026113Y027789D01*
X026113Y027691D02*
X020993Y027691D01*
X020993Y027592D02*
X026113Y027592D01*
X026113Y027494D02*
X020993Y027494D01*
X020993Y027395D02*
X026113Y027395D01*
X026113Y027297D02*
X020993Y027297D01*
X020993Y027198D02*
X026113Y027198D01*
X026113Y027100D02*
X020993Y027100D01*
X020993Y027001D02*
X026113Y027001D01*
X026113Y026903D02*
X020993Y026903D01*
X020993Y026804D02*
X026113Y026804D01*
X026113Y026706D02*
X020993Y026706D01*
X020993Y026607D02*
X026113Y026607D01*
X026113Y026509D02*
X020993Y026509D01*
X020993Y026410D02*
X026113Y026410D01*
X026113Y026312D02*
X020993Y026312D01*
X020993Y026213D02*
X026113Y026213D01*
X026113Y026115D02*
X020993Y026115D01*
X020993Y026016D02*
X026113Y026016D01*
X026113Y025918D02*
X020993Y025918D01*
X020993Y025819D02*
X026113Y025819D01*
X026113Y025721D02*
X020993Y025721D01*
X020993Y025622D02*
X026113Y025622D01*
X026113Y025524D02*
X020993Y025524D01*
X020993Y025425D02*
X026113Y025425D01*
X026113Y025327D02*
X020993Y025327D01*
X020993Y025228D02*
X026113Y025228D01*
X026113Y025130D02*
X020993Y025130D01*
X020993Y025031D02*
X026113Y025031D01*
X026113Y024933D02*
X020993Y024933D01*
X020993Y024834D02*
X026113Y024834D01*
X026113Y024736D02*
X020993Y024736D01*
X020793Y025327D02*
X008342Y025327D01*
X008470Y025425D02*
X020793Y025425D01*
X020793Y025524D02*
X008539Y025524D01*
X008580Y025622D02*
X020793Y025622D01*
X020793Y025721D02*
X008586Y025721D01*
X008584Y025819D02*
X020793Y025819D01*
X020793Y025918D02*
X008543Y025918D01*
X008479Y026016D02*
X020793Y026016D01*
X019653Y027592D02*
X017929Y027592D01*
X017797Y027691D02*
X019612Y027691D01*
X019605Y027789D02*
X016716Y027789D01*
X016728Y027888D02*
X019624Y027888D01*
X019676Y027986D02*
X016706Y027986D01*
X016637Y028085D02*
X019807Y028085D01*
X017590Y027691D02*
X017097Y027691D01*
X017229Y027592D02*
X017457Y027592D01*
X017413Y027494D02*
X017273Y027494D01*
X017278Y027395D02*
X017408Y027395D01*
X017438Y027297D02*
X017249Y027297D01*
X017169Y027198D02*
X017517Y027198D01*
X016890Y027691D02*
X016662Y027691D01*
X016757Y027592D02*
X016505Y027592D01*
X020193Y030547D02*
X026113Y030547D01*
X026113Y030449D02*
X020602Y030449D01*
X020701Y030350D02*
X026113Y030350D01*
X026113Y030252D02*
X020728Y030252D01*
X020728Y030153D02*
X026113Y030153D01*
X026113Y030055D02*
X020655Y030055D01*
X020193Y030646D02*
X026113Y030646D01*
X026113Y030744D02*
X020193Y030744D01*
X020193Y030843D02*
X026113Y030843D01*
X026113Y030941D02*
X020193Y030941D01*
X020193Y031040D02*
X026113Y031040D01*
X026113Y031138D02*
X020193Y031138D01*
X020193Y031237D02*
X026113Y031237D01*
X026115Y031335D02*
X020193Y031335D01*
X020193Y031434D02*
X026156Y031434D01*
X026282Y031532D02*
X020193Y031532D01*
X020193Y031631D02*
X050154Y031631D01*
X050143Y031656D02*
X050273Y031344D01*
X050512Y031104D01*
X050824Y030975D01*
X051162Y030975D01*
X051475Y031104D01*
X051714Y031344D01*
X051843Y031656D01*
X051843Y031994D01*
X051714Y032306D01*
X051475Y032546D01*
X051162Y032675D01*
X050824Y032675D01*
X050512Y032546D01*
X050273Y032306D01*
X050143Y031994D01*
X050143Y031656D01*
X050143Y031729D02*
X020193Y031729D01*
X020193Y031828D02*
X050143Y031828D01*
X050143Y031926D02*
X020193Y031926D01*
X020193Y032025D02*
X050156Y032025D01*
X050197Y032123D02*
X020193Y032123D01*
X020193Y032222D02*
X050238Y032222D01*
X050286Y032320D02*
X020193Y032320D01*
X020193Y032419D02*
X050385Y032419D01*
X050483Y032517D02*
X035418Y032517D01*
X035391Y032490D02*
X035528Y032628D01*
X035528Y032822D01*
X035391Y032960D01*
X035196Y032960D01*
X035058Y032822D01*
X035058Y032628D01*
X035196Y032490D01*
X035391Y032490D01*
X035516Y032616D02*
X050681Y032616D01*
X051306Y032616D02*
X054293Y032616D01*
X054293Y032714D02*
X035528Y032714D01*
X035528Y032813D02*
X054293Y032813D01*
X054293Y032911D02*
X035440Y032911D01*
X035147Y032911D02*
X020736Y032911D01*
X020736Y032813D02*
X035058Y032813D01*
X035058Y032714D02*
X020722Y032714D01*
X020623Y032616D02*
X035070Y032616D01*
X035169Y032517D02*
X020193Y032517D01*
X022483Y029168D02*
X026113Y029168D01*
X026113Y029070D02*
X022528Y029070D01*
X022528Y028971D02*
X026113Y028971D01*
X026113Y028873D02*
X022473Y028873D01*
X028173Y029759D02*
X035545Y029759D01*
X035596Y029810D02*
X035458Y029672D01*
X035458Y029478D01*
X035596Y029340D01*
X035791Y029340D01*
X035928Y029478D01*
X035928Y029672D01*
X035791Y029810D01*
X035596Y029810D01*
X035458Y029661D02*
X029740Y029661D01*
X029691Y029710D02*
X029496Y029710D01*
X029358Y029572D01*
X029358Y029378D01*
X029496Y029240D01*
X029691Y029240D01*
X029828Y029378D01*
X029828Y029572D01*
X029691Y029710D01*
X029828Y029562D02*
X031398Y029562D01*
X031446Y029610D02*
X031308Y029472D01*
X031308Y029278D01*
X031446Y029140D01*
X031641Y029140D01*
X031778Y029278D01*
X031778Y029472D01*
X031641Y029610D01*
X031446Y029610D01*
X031308Y029464D02*
X029828Y029464D01*
X029816Y029365D02*
X031308Y029365D01*
X031319Y029267D02*
X029717Y029267D01*
X029469Y029267D02*
X028948Y029267D01*
X029008Y029168D02*
X031418Y029168D01*
X031669Y029168D02*
X034154Y029168D01*
X034108Y029122D02*
X034108Y028928D01*
X034246Y028790D01*
X034441Y028790D01*
X034578Y028928D01*
X034578Y029122D01*
X034441Y029260D01*
X034246Y029260D01*
X034108Y029122D01*
X034108Y029070D02*
X029023Y029070D01*
X029023Y028971D02*
X034108Y028971D01*
X034163Y028873D02*
X029023Y028873D01*
X029023Y028774D02*
X049273Y028774D01*
X049255Y028818D02*
X049299Y028712D01*
X049380Y028631D01*
X049486Y028587D01*
X049601Y028587D01*
X049707Y028631D01*
X049788Y028712D01*
X049831Y028818D01*
X049831Y028932D01*
X049788Y029038D01*
X049726Y029100D01*
X049788Y029162D01*
X049831Y029268D01*
X049831Y029382D01*
X049788Y029488D01*
X049726Y029550D01*
X049788Y029612D01*
X049831Y029718D01*
X049831Y029832D01*
X049788Y029938D01*
X049726Y030000D01*
X049768Y030043D01*
X049830Y029981D01*
X049936Y029937D01*
X050051Y029937D01*
X050157Y029981D01*
X050218Y030043D01*
X050280Y029981D01*
X050386Y029937D01*
X050501Y029937D01*
X050607Y029981D01*
X050668Y030043D01*
X050730Y029981D01*
X050836Y029937D01*
X050951Y029937D01*
X051057Y029981D01*
X051118Y030043D01*
X051180Y029981D01*
X051286Y029937D01*
X051401Y029937D01*
X051507Y029981D01*
X051568Y030043D01*
X051611Y030000D01*
X051549Y029938D01*
X051505Y029832D01*
X051505Y029718D01*
X051549Y029612D01*
X051611Y029550D01*
X051549Y029488D01*
X051505Y029382D01*
X051505Y029268D01*
X051549Y029162D01*
X051611Y029100D01*
X051549Y029038D01*
X051505Y028932D01*
X051505Y028818D01*
X051549Y028712D01*
X051630Y028631D01*
X051736Y028587D01*
X051851Y028587D01*
X051957Y028631D01*
X052038Y028712D01*
X052081Y028818D01*
X052081Y028932D01*
X052038Y029038D01*
X051976Y029100D01*
X052038Y029162D01*
X052081Y029268D01*
X052081Y029382D01*
X052038Y029488D01*
X051976Y029550D01*
X052038Y029612D01*
X052081Y029718D01*
X052081Y029832D01*
X052038Y029938D01*
X051976Y030000D01*
X052038Y030062D01*
X052081Y030168D01*
X052081Y030282D01*
X052038Y030388D01*
X051957Y030469D01*
X051851Y030513D01*
X051736Y030513D01*
X051630Y030469D01*
X051568Y030407D01*
X051507Y030469D01*
X051401Y030513D01*
X051286Y030513D01*
X051180Y030469D01*
X051118Y030407D01*
X051057Y030469D01*
X050951Y030513D01*
X050836Y030513D01*
X050730Y030469D01*
X050668Y030407D01*
X050607Y030469D01*
X050501Y030513D01*
X050386Y030513D01*
X050280Y030469D01*
X050218Y030407D01*
X050157Y030469D01*
X050051Y030513D01*
X049936Y030513D01*
X049830Y030469D01*
X049768Y030407D01*
X049707Y030469D01*
X049601Y030513D01*
X049486Y030513D01*
X049380Y030469D01*
X049299Y030388D01*
X049255Y030282D01*
X049255Y030168D01*
X049299Y030062D01*
X049361Y030000D01*
X049299Y029938D01*
X049255Y029832D01*
X049255Y029718D01*
X049299Y029612D01*
X049361Y029550D01*
X049299Y029488D01*
X049255Y029382D01*
X049255Y029268D01*
X049299Y029162D01*
X049361Y029100D01*
X049299Y029038D01*
X049255Y028932D01*
X049255Y028818D01*
X049255Y028873D02*
X034523Y028873D01*
X034578Y028971D02*
X049271Y028971D01*
X049330Y029070D02*
X034578Y029070D01*
X034533Y029168D02*
X049296Y029168D01*
X049256Y029267D02*
X031767Y029267D01*
X031778Y029365D02*
X035571Y029365D01*
X035472Y029464D02*
X031778Y029464D01*
X031689Y029562D02*
X035458Y029562D01*
X035816Y029365D02*
X049255Y029365D01*
X049289Y029464D02*
X035914Y029464D01*
X035928Y029562D02*
X049349Y029562D01*
X049279Y029661D02*
X035928Y029661D01*
X035842Y029759D02*
X049255Y029759D01*
X049266Y029858D02*
X028173Y029858D01*
X028173Y029956D02*
X049317Y029956D01*
X049306Y030055D02*
X028173Y030055D01*
X028173Y030153D02*
X030083Y030153D01*
X030146Y030090D02*
X030341Y030090D01*
X030478Y030228D01*
X030478Y030422D01*
X030341Y030560D01*
X030146Y030560D01*
X030008Y030422D01*
X030008Y030228D01*
X030146Y030090D01*
X030008Y030252D02*
X028173Y030252D01*
X028173Y030350D02*
X030008Y030350D01*
X030035Y030449D02*
X028173Y030449D01*
X028173Y030547D02*
X030133Y030547D01*
X030354Y030547D02*
X034139Y030547D01*
X034146Y030540D02*
X034341Y030540D01*
X034478Y030678D01*
X034478Y030872D01*
X034341Y031010D01*
X034146Y031010D01*
X034008Y030872D01*
X034008Y030678D01*
X034146Y030540D01*
X034040Y030646D02*
X028173Y030646D01*
X028173Y030744D02*
X034008Y030744D01*
X034008Y030843D02*
X028173Y030843D01*
X028173Y030941D02*
X031895Y030941D01*
X031896Y030940D02*
X032091Y030940D01*
X032228Y031078D01*
X032228Y031272D01*
X032091Y031410D01*
X031896Y031410D01*
X031758Y031272D01*
X031758Y031078D01*
X031896Y030940D01*
X031796Y031040D02*
X028173Y031040D01*
X028173Y031138D02*
X031758Y031138D01*
X031758Y031237D02*
X028173Y031237D01*
X028171Y031335D02*
X031821Y031335D01*
X032166Y031335D02*
X050281Y031335D01*
X050235Y031434D02*
X028131Y031434D01*
X028004Y031532D02*
X050195Y031532D01*
X050380Y031237D02*
X032228Y031237D01*
X032228Y031138D02*
X050478Y031138D01*
X050668Y031040D02*
X032190Y031040D01*
X032092Y030941D02*
X034077Y030941D01*
X034410Y030941D02*
X054293Y030941D01*
X054293Y030843D02*
X034478Y030843D01*
X034478Y030744D02*
X054293Y030744D01*
X054293Y030646D02*
X034446Y030646D01*
X034348Y030547D02*
X054293Y030547D01*
X054293Y030449D02*
X051977Y030449D01*
X052053Y030350D02*
X054293Y030350D01*
X054293Y030252D02*
X052081Y030252D01*
X052075Y030153D02*
X054293Y030153D01*
X054293Y030055D02*
X052030Y030055D01*
X052020Y029956D02*
X054293Y029956D01*
X054293Y029858D02*
X052071Y029858D01*
X052081Y029759D02*
X054293Y029759D01*
X054293Y029661D02*
X052058Y029661D01*
X051988Y029562D02*
X053071Y029562D01*
X053085Y029568D02*
X052886Y029485D01*
X052733Y029333D01*
X052650Y029133D01*
X052650Y028917D01*
X052733Y028717D01*
X052886Y028565D01*
X053085Y028482D01*
X053301Y028482D01*
X053501Y028565D01*
X053654Y028717D01*
X053736Y028917D01*
X053736Y029133D01*
X053654Y029333D01*
X053501Y029485D01*
X053301Y029568D01*
X053085Y029568D01*
X053315Y029562D02*
X054293Y029562D01*
X054293Y029464D02*
X053523Y029464D01*
X053621Y029365D02*
X054293Y029365D01*
X054293Y029267D02*
X053681Y029267D01*
X053722Y029168D02*
X054293Y029168D01*
X054293Y029070D02*
X053736Y029070D01*
X053736Y028971D02*
X054293Y028971D01*
X054293Y028873D02*
X053718Y028873D01*
X053677Y028774D02*
X054293Y028774D01*
X054293Y028676D02*
X053612Y028676D01*
X053513Y028577D02*
X054293Y028577D01*
X054293Y028479D02*
X029023Y028479D01*
X029023Y028577D02*
X052873Y028577D01*
X052775Y028676D02*
X052001Y028676D01*
X052063Y028774D02*
X052710Y028774D01*
X052669Y028873D02*
X052081Y028873D01*
X052065Y028971D02*
X052650Y028971D01*
X052650Y029070D02*
X052006Y029070D01*
X052040Y029168D02*
X052665Y029168D01*
X052706Y029267D02*
X052081Y029267D01*
X052081Y029365D02*
X052766Y029365D01*
X052864Y029464D02*
X052048Y029464D01*
X051599Y029562D02*
X049738Y029562D01*
X049798Y029464D02*
X051539Y029464D01*
X051505Y029365D02*
X049831Y029365D01*
X049831Y029267D02*
X051506Y029267D01*
X051546Y029168D02*
X049790Y029168D01*
X049756Y029070D02*
X051580Y029070D01*
X051521Y028971D02*
X049815Y028971D01*
X049831Y028873D02*
X051505Y028873D01*
X051523Y028774D02*
X049813Y028774D01*
X049751Y028676D02*
X051585Y028676D01*
X051529Y029661D02*
X049808Y029661D01*
X049831Y029759D02*
X051505Y029759D01*
X051516Y029858D02*
X049821Y029858D01*
X049770Y029956D02*
X049890Y029956D01*
X050097Y029956D02*
X050340Y029956D01*
X050547Y029956D02*
X050790Y029956D01*
X050997Y029956D02*
X051240Y029956D01*
X051447Y029956D02*
X051567Y029956D01*
X051527Y030449D02*
X051609Y030449D01*
X051159Y030449D02*
X051077Y030449D01*
X050709Y030449D02*
X050627Y030449D01*
X050259Y030449D02*
X050177Y030449D01*
X049809Y030449D02*
X049727Y030449D01*
X049359Y030449D02*
X030452Y030449D01*
X030478Y030350D02*
X049283Y030350D01*
X049255Y030252D02*
X030478Y030252D01*
X030404Y030153D02*
X049261Y030153D01*
X049335Y028676D02*
X029023Y028676D01*
X029023Y028380D02*
X054293Y028380D01*
X054293Y028282D02*
X029023Y028282D01*
X029023Y028183D02*
X054293Y028183D01*
X054293Y028085D02*
X029023Y028085D01*
X029023Y027986D02*
X054293Y027986D01*
X054293Y027888D02*
X029023Y027888D01*
X029023Y027789D02*
X054293Y027789D01*
X054293Y027691D02*
X029023Y027691D01*
X029023Y027592D02*
X054293Y027592D01*
X054293Y027494D02*
X029023Y027494D01*
X029023Y027395D02*
X054293Y027395D01*
X054293Y027297D02*
X029023Y027297D01*
X029023Y027198D02*
X054293Y027198D01*
X054293Y027100D02*
X029023Y027100D01*
X029023Y027001D02*
X031937Y027001D01*
X031996Y027060D02*
X031858Y026922D01*
X031858Y026728D01*
X031996Y026590D01*
X032191Y026590D01*
X032328Y026728D01*
X032328Y026922D01*
X032191Y027060D01*
X031996Y027060D01*
X031858Y026903D02*
X029023Y026903D01*
X029023Y026804D02*
X031858Y026804D01*
X031880Y026706D02*
X029023Y026706D01*
X029023Y026607D02*
X031979Y026607D01*
X032208Y026607D02*
X054293Y026607D01*
X054293Y026509D02*
X030092Y026509D01*
X030041Y026560D02*
X029846Y026560D01*
X029708Y026422D01*
X029708Y026228D01*
X029846Y026090D01*
X030041Y026090D01*
X030178Y026228D01*
X030178Y026422D01*
X030041Y026560D01*
X030178Y026410D02*
X054293Y026410D01*
X054293Y026312D02*
X030178Y026312D01*
X030164Y026213D02*
X054293Y026213D01*
X054293Y026115D02*
X030065Y026115D01*
X029821Y026115D02*
X029023Y026115D01*
X029023Y026213D02*
X029723Y026213D01*
X029708Y026312D02*
X029023Y026312D01*
X029023Y026410D02*
X029708Y026410D01*
X029795Y026509D02*
X029023Y026509D01*
X029023Y026016D02*
X054293Y026016D01*
X054293Y025918D02*
X029023Y025918D01*
X029023Y025819D02*
X054293Y025819D01*
X054293Y025721D02*
X029023Y025721D01*
X029023Y025622D02*
X054293Y025622D01*
X054293Y025524D02*
X035827Y025524D01*
X035878Y025472D02*
X035741Y025610D01*
X035546Y025610D01*
X035408Y025472D01*
X035408Y025278D01*
X035546Y025140D01*
X035741Y025140D01*
X035878Y025278D01*
X035878Y025472D01*
X035878Y025425D02*
X054293Y025425D01*
X054293Y025327D02*
X035878Y025327D01*
X035829Y025228D02*
X054293Y025228D01*
X054293Y025130D02*
X028894Y025130D01*
X028986Y025228D02*
X035458Y025228D01*
X035408Y025327D02*
X029023Y025327D01*
X029023Y025425D02*
X035408Y025425D01*
X035460Y025524D02*
X029023Y025524D01*
X028795Y025031D02*
X030067Y025031D01*
X030008Y024972D02*
X030008Y024778D01*
X030146Y024640D01*
X030341Y024640D01*
X030478Y024778D01*
X030478Y024972D01*
X030341Y025110D01*
X030146Y025110D01*
X030008Y024972D01*
X030008Y024933D02*
X028497Y024933D01*
X028398Y024834D02*
X030008Y024834D01*
X030050Y024736D02*
X028300Y024736D01*
X028201Y024637D02*
X054293Y024637D01*
X054293Y024539D02*
X032662Y024539D01*
X032728Y024472D02*
X032591Y024610D01*
X032396Y024610D01*
X032258Y024472D01*
X032258Y024278D01*
X032333Y024203D01*
X032333Y021597D01*
X032258Y021522D01*
X032258Y021328D01*
X032396Y021190D01*
X032591Y021190D01*
X032728Y021328D01*
X032728Y021522D01*
X032653Y021597D01*
X032653Y024203D01*
X032728Y024278D01*
X032728Y024472D01*
X032728Y024440D02*
X054293Y024440D01*
X054293Y024342D02*
X032728Y024342D01*
X032694Y024243D02*
X034979Y024243D01*
X034996Y024260D02*
X034858Y024122D01*
X034858Y023928D01*
X034996Y023790D01*
X035191Y023790D01*
X035328Y023928D01*
X035328Y024122D01*
X035191Y024260D01*
X034996Y024260D01*
X034881Y024145D02*
X032653Y024145D01*
X032653Y024046D02*
X034182Y024046D01*
X034196Y024060D02*
X034058Y023922D01*
X034058Y023728D01*
X034196Y023590D01*
X034391Y023590D01*
X034528Y023728D01*
X034528Y023922D01*
X034391Y024060D01*
X034196Y024060D01*
X034084Y023948D02*
X032653Y023948D01*
X032653Y023849D02*
X034058Y023849D01*
X034058Y023751D02*
X032653Y023751D01*
X032653Y023652D02*
X034134Y023652D01*
X034453Y023652D02*
X054293Y023652D01*
X054293Y023554D02*
X032653Y023554D01*
X032653Y023455D02*
X054293Y023455D01*
X054293Y023357D02*
X038644Y023357D01*
X038591Y023410D02*
X038396Y023410D01*
X038258Y023272D01*
X038258Y023078D01*
X038396Y022940D01*
X038591Y022940D01*
X038728Y023078D01*
X038728Y023272D01*
X038591Y023410D01*
X038728Y023258D02*
X054293Y023258D01*
X054293Y023160D02*
X038728Y023160D01*
X038712Y023061D02*
X054293Y023061D01*
X054293Y022963D02*
X038613Y022963D01*
X038373Y022963D02*
X035938Y022963D01*
X035891Y023010D02*
X035696Y023010D01*
X035558Y022872D01*
X035558Y022678D01*
X035696Y022540D01*
X035891Y022540D01*
X036028Y022678D01*
X036028Y022872D01*
X035891Y023010D01*
X036028Y022864D02*
X054293Y022864D01*
X054293Y022766D02*
X036028Y022766D01*
X036018Y022667D02*
X054293Y022667D01*
X054293Y022569D02*
X035919Y022569D01*
X035667Y022569D02*
X032653Y022569D01*
X032653Y022667D02*
X035569Y022667D01*
X035558Y022766D02*
X032653Y022766D01*
X032653Y022864D02*
X035558Y022864D01*
X035649Y022963D02*
X032653Y022963D01*
X032653Y023061D02*
X038275Y023061D01*
X038258Y023160D02*
X032653Y023160D01*
X032653Y023258D02*
X038258Y023258D01*
X038343Y023357D02*
X032653Y023357D01*
X032333Y023357D02*
X028744Y023357D01*
X028726Y023375D02*
X028828Y023478D01*
X028828Y023672D01*
X028691Y023810D01*
X028496Y023810D01*
X028358Y023672D01*
X028358Y023478D01*
X028461Y023375D01*
X028358Y023272D01*
X028358Y023078D01*
X028496Y022940D01*
X028691Y022940D01*
X028828Y023078D01*
X028828Y023272D01*
X028726Y023375D01*
X028806Y023455D02*
X032333Y023455D01*
X032333Y023554D02*
X028828Y023554D01*
X028828Y023652D02*
X029784Y023652D01*
X029846Y023590D02*
X029708Y023728D01*
X029708Y023922D01*
X029846Y024060D01*
X030041Y024060D01*
X030178Y023922D01*
X030178Y023728D01*
X030041Y023590D01*
X029846Y023590D01*
X029708Y023751D02*
X028750Y023751D01*
X028908Y023928D02*
X029046Y023790D01*
X029241Y023790D01*
X029378Y023928D01*
X029378Y024122D01*
X029241Y024260D01*
X029046Y024260D01*
X028908Y024122D01*
X028908Y023928D01*
X028908Y023948D02*
X028173Y023948D01*
X028173Y024046D02*
X028908Y024046D01*
X028931Y024145D02*
X028173Y024145D01*
X028173Y024243D02*
X029029Y024243D01*
X029258Y024243D02*
X032293Y024243D01*
X032258Y024342D02*
X028173Y024342D01*
X028173Y024440D02*
X032258Y024440D01*
X032325Y024539D02*
X028173Y024539D01*
X028173Y023849D02*
X028987Y023849D01*
X029300Y023849D02*
X029708Y023849D01*
X029734Y023948D02*
X029378Y023948D01*
X029378Y024046D02*
X029832Y024046D01*
X030055Y024046D02*
X032333Y024046D01*
X032333Y023948D02*
X030153Y023948D01*
X030178Y023849D02*
X032333Y023849D01*
X032333Y023751D02*
X030178Y023751D01*
X030103Y023652D02*
X032333Y023652D01*
X032333Y023258D02*
X028828Y023258D01*
X028828Y023160D02*
X032333Y023160D01*
X032333Y023061D02*
X028812Y023061D01*
X028713Y022963D02*
X032333Y022963D01*
X032333Y022864D02*
X028173Y022864D01*
X028173Y022766D02*
X032333Y022766D01*
X032333Y022667D02*
X028173Y022667D01*
X028173Y022569D02*
X032333Y022569D01*
X032333Y022470D02*
X028173Y022470D01*
X028173Y022372D02*
X032333Y022372D01*
X032333Y022273D02*
X028173Y022273D01*
X028173Y022175D02*
X032333Y022175D01*
X032333Y022076D02*
X028173Y022076D01*
X028173Y021978D02*
X032333Y021978D01*
X032333Y021879D02*
X028173Y021879D01*
X028173Y021781D02*
X032333Y021781D01*
X032333Y021682D02*
X028173Y021682D01*
X028173Y021584D02*
X032320Y021584D01*
X032258Y021485D02*
X028173Y021485D01*
X028173Y021387D02*
X032258Y021387D01*
X032298Y021288D02*
X028173Y021288D01*
X028173Y021190D02*
X054293Y021190D01*
X054293Y021288D02*
X032689Y021288D01*
X032728Y021387D02*
X054293Y021387D01*
X054293Y021485D02*
X032728Y021485D01*
X032667Y021584D02*
X035452Y021584D01*
X035408Y021628D02*
X035546Y021490D01*
X035741Y021490D01*
X035878Y021628D01*
X035878Y021822D01*
X035741Y021960D01*
X035546Y021960D01*
X035408Y021822D01*
X035408Y021628D01*
X035408Y021682D02*
X032653Y021682D01*
X032653Y021781D02*
X035408Y021781D01*
X035465Y021879D02*
X032653Y021879D01*
X032653Y021978D02*
X054293Y021978D01*
X054293Y022076D02*
X032653Y022076D01*
X032653Y022175D02*
X054293Y022175D01*
X054293Y022273D02*
X032653Y022273D01*
X032653Y022372D02*
X054293Y022372D01*
X054293Y022470D02*
X032653Y022470D01*
X034528Y023751D02*
X054293Y023751D01*
X054293Y023849D02*
X035250Y023849D01*
X035328Y023948D02*
X054293Y023948D01*
X054293Y024046D02*
X035328Y024046D01*
X035306Y024145D02*
X054293Y024145D01*
X054293Y024243D02*
X035208Y024243D01*
X034858Y024046D02*
X034405Y024046D01*
X034503Y023948D02*
X034858Y023948D01*
X034937Y023849D02*
X034528Y023849D01*
X032333Y024145D02*
X029356Y024145D01*
X028437Y023751D02*
X028173Y023751D01*
X028173Y023652D02*
X028358Y023652D01*
X028358Y023554D02*
X028173Y023554D01*
X028173Y023455D02*
X028381Y023455D01*
X028443Y023357D02*
X028173Y023357D01*
X028173Y023258D02*
X028358Y023258D01*
X028358Y023160D02*
X028173Y023160D01*
X028173Y023061D02*
X028375Y023061D01*
X028473Y022963D02*
X028173Y022963D01*
X028173Y021091D02*
X046083Y021091D01*
X046030Y021069D02*
X045949Y020988D01*
X045905Y020882D01*
X045905Y020768D01*
X045949Y020662D01*
X046030Y020581D01*
X046136Y020537D01*
X046251Y020537D01*
X046357Y020581D01*
X046438Y020662D01*
X046481Y020768D01*
X046481Y020882D01*
X046438Y020988D01*
X046357Y021069D01*
X046251Y021113D01*
X046136Y021113D01*
X046030Y021069D01*
X045953Y020993D02*
X030008Y020993D01*
X029941Y021060D02*
X030078Y020922D01*
X030078Y020728D01*
X029941Y020590D01*
X029746Y020590D01*
X029608Y020728D01*
X029608Y020922D01*
X029746Y021060D01*
X029941Y021060D01*
X030078Y020894D02*
X045910Y020894D01*
X045905Y020796D02*
X030078Y020796D01*
X030048Y020697D02*
X045934Y020697D01*
X046012Y020599D02*
X029949Y020599D01*
X029737Y020599D02*
X028173Y020599D01*
X028173Y020697D02*
X029639Y020697D01*
X029608Y020796D02*
X028173Y020796D01*
X028173Y020894D02*
X029608Y020894D01*
X029679Y020993D02*
X028173Y020993D01*
X028173Y020500D02*
X046833Y020500D01*
X046849Y020462D02*
X046930Y020381D01*
X047036Y020337D01*
X047151Y020337D01*
X047257Y020381D01*
X047338Y020462D01*
X047381Y020568D01*
X047381Y020682D01*
X047338Y020788D01*
X047257Y020869D01*
X047151Y020913D01*
X047036Y020913D01*
X046930Y020869D01*
X046849Y020788D01*
X046805Y020682D01*
X046805Y020568D01*
X046849Y020462D01*
X046909Y020402D02*
X031949Y020402D01*
X031941Y020410D02*
X031746Y020410D01*
X031608Y020272D01*
X031608Y020078D01*
X031746Y019940D01*
X031941Y019940D01*
X032078Y020078D01*
X032078Y020272D01*
X031941Y020410D01*
X032048Y020303D02*
X054293Y020303D01*
X054293Y020205D02*
X032078Y020205D01*
X032078Y020106D02*
X054293Y020106D01*
X054293Y020008D02*
X032008Y020008D01*
X031678Y020008D02*
X028173Y020008D01*
X028173Y020106D02*
X031608Y020106D01*
X031608Y020205D02*
X028173Y020205D01*
X028173Y020303D02*
X031639Y020303D01*
X031738Y020402D02*
X028173Y020402D01*
X028173Y019909D02*
X054293Y019909D01*
X054293Y019811D02*
X048140Y019811D01*
X048091Y019860D02*
X047896Y019860D01*
X047758Y019722D01*
X047758Y019528D01*
X047896Y019390D01*
X048091Y019390D01*
X048228Y019528D01*
X048228Y019722D01*
X048091Y019860D01*
X048228Y019712D02*
X054293Y019712D01*
X054293Y019614D02*
X048228Y019614D01*
X048216Y019515D02*
X054293Y019515D01*
X054293Y019417D02*
X048117Y019417D01*
X048091Y019360D02*
X047896Y019360D01*
X047758Y019222D01*
X047758Y019028D01*
X047896Y018890D01*
X048091Y018890D01*
X048228Y019028D01*
X048228Y019222D01*
X048091Y019360D01*
X048133Y019318D02*
X054293Y019318D01*
X054293Y019220D02*
X048228Y019220D01*
X048228Y019121D02*
X054293Y019121D01*
X054293Y019023D02*
X048223Y019023D01*
X048125Y018924D02*
X054293Y018924D01*
X054293Y018826D02*
X048125Y018826D01*
X048091Y018860D02*
X047896Y018860D01*
X047758Y018722D01*
X047758Y018528D01*
X047896Y018390D01*
X048091Y018390D01*
X048228Y018528D01*
X048228Y018722D01*
X048091Y018860D01*
X048224Y018727D02*
X054293Y018727D01*
X054293Y018629D02*
X048228Y018629D01*
X048228Y018530D02*
X054293Y018530D01*
X054293Y018432D02*
X048132Y018432D01*
X048091Y018360D02*
X047896Y018360D01*
X047758Y018222D01*
X047758Y018028D01*
X047896Y017890D01*
X048091Y017890D01*
X048228Y018028D01*
X048228Y018222D01*
X048091Y018360D01*
X048118Y018333D02*
X054293Y018333D01*
X054293Y018235D02*
X048216Y018235D01*
X048228Y018136D02*
X054293Y018136D01*
X054293Y018038D02*
X048228Y018038D01*
X048140Y017939D02*
X054293Y017939D01*
X054293Y017841D02*
X048110Y017841D01*
X048091Y017860D02*
X047896Y017860D01*
X047758Y017722D01*
X047758Y017528D01*
X047896Y017390D01*
X048091Y017390D01*
X048228Y017528D01*
X048228Y017722D01*
X048091Y017860D01*
X048209Y017742D02*
X054293Y017742D01*
X054293Y017644D02*
X048228Y017644D01*
X048228Y017545D02*
X054293Y017545D01*
X054293Y017447D02*
X048147Y017447D01*
X048091Y017360D02*
X047896Y017360D01*
X047758Y017222D01*
X047758Y017028D01*
X047896Y016890D01*
X048091Y016890D01*
X048228Y017028D01*
X048228Y017222D01*
X048091Y017360D01*
X048103Y017348D02*
X054293Y017348D01*
X054293Y017250D02*
X048201Y017250D01*
X048228Y017151D02*
X054293Y017151D01*
X054293Y017053D02*
X049426Y017053D01*
X049401Y017063D02*
X049286Y017063D01*
X049180Y017019D01*
X049099Y016938D01*
X049055Y016832D01*
X049055Y016718D01*
X049099Y016612D01*
X049180Y016531D01*
X049286Y016487D01*
X049401Y016487D01*
X049507Y016531D01*
X049588Y016612D01*
X049631Y016718D01*
X049631Y016832D01*
X049588Y016938D01*
X049507Y017019D01*
X049401Y017063D01*
X049260Y017053D02*
X048228Y017053D01*
X048155Y016954D02*
X049115Y016954D01*
X049065Y016856D02*
X048095Y016856D01*
X048091Y016860D02*
X047896Y016860D01*
X047758Y016722D01*
X047758Y016528D01*
X047896Y016390D01*
X048091Y016390D01*
X048228Y016528D01*
X048228Y016722D01*
X048091Y016860D01*
X048194Y016757D02*
X049055Y016757D01*
X049080Y016659D02*
X048228Y016659D01*
X048228Y016560D02*
X049151Y016560D01*
X049536Y016560D02*
X054293Y016560D01*
X054293Y016462D02*
X048162Y016462D01*
X048091Y016360D02*
X047896Y016360D01*
X047758Y016222D01*
X047758Y016028D01*
X047896Y015890D01*
X048091Y015890D01*
X048228Y016028D01*
X048228Y016222D01*
X048091Y016360D01*
X048186Y016265D02*
X054293Y016265D01*
X054293Y016363D02*
X047563Y016363D01*
X047647Y016265D02*
X047800Y016265D01*
X047758Y016166D02*
X047681Y016166D01*
X047681Y016068D02*
X047758Y016068D01*
X047817Y015969D02*
X047641Y015969D01*
X047532Y015871D02*
X054293Y015871D01*
X054293Y015969D02*
X048170Y015969D01*
X048228Y016068D02*
X054293Y016068D01*
X054293Y016166D02*
X048228Y016166D01*
X047824Y016462D02*
X046662Y016462D01*
X046728Y016528D02*
X046591Y016390D01*
X046396Y016390D01*
X046258Y016528D01*
X046258Y016722D01*
X046396Y016860D01*
X046591Y016860D01*
X046728Y016722D01*
X046728Y016528D01*
X046728Y016560D02*
X047758Y016560D01*
X047758Y016659D02*
X046728Y016659D01*
X046694Y016757D02*
X047793Y016757D01*
X047891Y016856D02*
X046595Y016856D01*
X046591Y016890D02*
X046728Y017028D01*
X046728Y017222D01*
X046591Y017360D01*
X046396Y017360D01*
X046258Y017222D01*
X046258Y017028D01*
X046396Y016890D01*
X046591Y016890D01*
X046655Y016954D02*
X047832Y016954D01*
X047758Y017053D02*
X046728Y017053D01*
X046728Y017151D02*
X047758Y017151D01*
X047785Y017250D02*
X046701Y017250D01*
X046603Y017348D02*
X047884Y017348D01*
X047839Y017447D02*
X046147Y017447D01*
X046103Y017348D02*
X046384Y017348D01*
X046285Y017250D02*
X046201Y017250D01*
X046228Y017151D02*
X046258Y017151D01*
X046258Y017053D02*
X046228Y017053D01*
X046155Y016954D02*
X046332Y016954D01*
X046391Y016856D02*
X046095Y016856D01*
X046194Y016757D02*
X046293Y016757D01*
X046258Y016659D02*
X046228Y016659D01*
X046228Y016560D02*
X046258Y016560D01*
X046324Y016462D02*
X046162Y016462D01*
X045824Y016462D02*
X028173Y016462D01*
X028173Y016560D02*
X045758Y016560D01*
X045758Y016659D02*
X028173Y016659D01*
X028173Y016757D02*
X045793Y016757D01*
X046228Y017545D02*
X047758Y017545D01*
X047758Y017644D02*
X046228Y017644D01*
X046209Y017742D02*
X047778Y017742D01*
X047876Y017841D02*
X046110Y017841D01*
X045876Y017841D02*
X028173Y017841D01*
X028173Y017939D02*
X047847Y017939D01*
X047758Y018038D02*
X028173Y018038D01*
X028173Y018136D02*
X047758Y018136D01*
X047770Y018235D02*
X028173Y018235D01*
X028173Y018333D02*
X047869Y018333D01*
X047854Y018432D02*
X028173Y018432D01*
X028173Y018530D02*
X047758Y018530D01*
X047758Y018629D02*
X028173Y018629D01*
X028173Y018727D02*
X047763Y018727D01*
X047861Y018826D02*
X028173Y018826D01*
X028173Y018924D02*
X047862Y018924D01*
X047763Y019023D02*
X028173Y019023D01*
X028173Y019121D02*
X047758Y019121D01*
X047758Y019220D02*
X028173Y019220D01*
X028173Y019318D02*
X047854Y019318D01*
X047869Y019417D02*
X028173Y019417D01*
X028173Y019515D02*
X047771Y019515D01*
X047758Y019614D02*
X028173Y019614D01*
X028173Y019712D02*
X047758Y019712D01*
X047847Y019811D02*
X028173Y019811D01*
X028173Y017545D02*
X031081Y017545D01*
X031058Y017447D02*
X028173Y017447D01*
X028173Y017348D02*
X031058Y017348D01*
X031136Y017250D02*
X028173Y017250D01*
X028173Y017151D02*
X031608Y017151D01*
X031608Y017250D02*
X031450Y017250D01*
X031528Y017348D02*
X031634Y017348D01*
X031683Y017053D02*
X028173Y017053D01*
X026113Y022372D02*
X024896Y022372D01*
X025056Y022470D02*
X026113Y022470D01*
X026113Y022569D02*
X025124Y022569D01*
X025159Y022667D02*
X026113Y022667D01*
X026113Y022766D02*
X025159Y022766D01*
X025132Y022864D02*
X026113Y022864D01*
X026113Y022963D02*
X025073Y022963D01*
X024938Y023061D02*
X026113Y023061D01*
X030436Y024736D02*
X054293Y024736D01*
X054293Y024834D02*
X030478Y024834D01*
X030478Y024933D02*
X054293Y024933D01*
X054293Y025031D02*
X030420Y025031D01*
X032306Y026706D02*
X054293Y026706D01*
X054293Y026804D02*
X032328Y026804D01*
X032328Y026903D02*
X054293Y026903D01*
X054293Y027001D02*
X032250Y027001D01*
X029371Y029365D02*
X028849Y029365D01*
X028451Y029464D02*
X029358Y029464D01*
X029358Y029562D02*
X028352Y029562D01*
X028254Y029661D02*
X029447Y029661D01*
X030623Y033502D02*
X034164Y033502D01*
X034266Y033460D02*
X034546Y033460D01*
X034805Y033567D01*
X035003Y033766D01*
X035111Y034025D01*
X035111Y034305D01*
X035003Y034564D01*
X034805Y034763D01*
X034546Y034870D01*
X034266Y034870D01*
X034006Y034763D01*
X033808Y034564D01*
X033701Y034305D01*
X033701Y034025D01*
X033808Y033766D01*
X034006Y033567D01*
X034266Y033460D01*
X033973Y033601D02*
X030813Y033601D01*
X030912Y033699D02*
X033875Y033699D01*
X033795Y033798D02*
X030992Y033798D01*
X031032Y033896D02*
X033754Y033896D01*
X033713Y033995D02*
X031073Y033995D01*
X031086Y034093D02*
X033701Y034093D01*
X033701Y034192D02*
X031086Y034192D01*
X031086Y034290D02*
X033701Y034290D01*
X033735Y034389D02*
X031051Y034389D01*
X031010Y034487D02*
X033776Y034487D01*
X033829Y034586D02*
X030957Y034586D01*
X030859Y034684D02*
X033928Y034684D01*
X034055Y034783D02*
X030732Y034783D01*
X029777Y036359D02*
X016493Y036359D01*
X016493Y036457D02*
X029678Y036457D01*
X029580Y036556D02*
X021706Y036556D01*
X021805Y036654D02*
X029481Y036654D01*
X029383Y036753D02*
X021828Y036753D01*
X021828Y036851D02*
X029284Y036851D01*
X029186Y036950D02*
X021751Y036950D01*
X021436Y036950D02*
X016493Y036950D01*
X016493Y036851D02*
X021358Y036851D01*
X021358Y036753D02*
X016493Y036753D01*
X016493Y036654D02*
X021382Y036654D01*
X021480Y036556D02*
X016493Y036556D01*
X016493Y036260D02*
X053975Y036260D01*
X054074Y036162D02*
X016493Y036162D01*
X016493Y036063D02*
X054172Y036063D01*
X054271Y035965D02*
X016493Y035965D01*
X034757Y034783D02*
X036230Y034783D01*
X036181Y034763D02*
X036441Y034870D01*
X036721Y034870D01*
X036980Y034763D01*
X037178Y034564D01*
X037286Y034305D01*
X037286Y034025D01*
X037178Y033766D01*
X036980Y033567D01*
X036721Y033460D01*
X036441Y033460D01*
X036181Y033567D01*
X035983Y033766D01*
X035876Y034025D01*
X035876Y034305D01*
X035983Y034564D01*
X036181Y034763D01*
X036103Y034684D02*
X034884Y034684D01*
X034982Y034586D02*
X036004Y034586D01*
X035951Y034487D02*
X035035Y034487D01*
X035076Y034389D02*
X035910Y034389D01*
X035876Y034290D02*
X035111Y034290D01*
X035111Y034192D02*
X035876Y034192D01*
X035876Y034093D02*
X035111Y034093D01*
X035098Y033995D02*
X035888Y033995D01*
X035929Y033896D02*
X035057Y033896D01*
X035017Y033798D02*
X035970Y033798D01*
X036050Y033699D02*
X034937Y033699D01*
X034838Y033601D02*
X036148Y033601D01*
X036339Y033502D02*
X034648Y033502D01*
X036823Y033502D02*
X040364Y033502D01*
X040466Y033460D02*
X040206Y033567D01*
X040008Y033766D01*
X039901Y034025D01*
X039901Y034305D01*
X040008Y034564D01*
X040206Y034763D01*
X040466Y034870D01*
X040746Y034870D01*
X041005Y034763D01*
X041203Y034564D01*
X041311Y034305D01*
X041311Y034025D01*
X041203Y033766D01*
X041005Y033567D01*
X040746Y033460D01*
X040466Y033460D01*
X040173Y033601D02*
X037013Y033601D01*
X037112Y033699D02*
X040075Y033699D01*
X039995Y033798D02*
X037192Y033798D01*
X037232Y033896D02*
X039954Y033896D01*
X039913Y033995D02*
X037273Y033995D01*
X037286Y034093D02*
X039901Y034093D01*
X039901Y034192D02*
X037286Y034192D01*
X037286Y034290D02*
X039901Y034290D01*
X039935Y034389D02*
X037251Y034389D01*
X037210Y034487D02*
X039976Y034487D01*
X040029Y034586D02*
X037157Y034586D01*
X037059Y034684D02*
X040128Y034684D01*
X040255Y034783D02*
X036932Y034783D01*
X040957Y034783D02*
X042430Y034783D01*
X042381Y034763D02*
X042183Y034564D01*
X042076Y034305D01*
X042076Y034025D01*
X042183Y033766D01*
X042381Y033567D01*
X042641Y033460D01*
X042921Y033460D01*
X043180Y033567D01*
X043378Y033766D01*
X043486Y034025D01*
X043486Y034305D01*
X043378Y034564D01*
X043180Y034763D01*
X042921Y034870D01*
X042641Y034870D01*
X042381Y034763D01*
X042303Y034684D02*
X041084Y034684D01*
X041182Y034586D02*
X042204Y034586D01*
X042151Y034487D02*
X041235Y034487D01*
X041276Y034389D02*
X042110Y034389D01*
X042076Y034290D02*
X041311Y034290D01*
X041311Y034192D02*
X042076Y034192D01*
X042076Y034093D02*
X041311Y034093D01*
X041298Y033995D02*
X042088Y033995D01*
X042129Y033896D02*
X041257Y033896D01*
X041217Y033798D02*
X042170Y033798D01*
X042250Y033699D02*
X041137Y033699D01*
X041038Y033601D02*
X042348Y033601D01*
X042539Y033502D02*
X040848Y033502D01*
X043023Y033502D02*
X046564Y033502D01*
X046666Y033460D02*
X046406Y033567D01*
X046208Y033766D01*
X046101Y034025D01*
X046101Y034305D01*
X046208Y034564D01*
X046406Y034763D01*
X046666Y034870D01*
X046946Y034870D01*
X047205Y034763D01*
X047403Y034564D01*
X047511Y034305D01*
X047511Y034025D01*
X047403Y033766D01*
X047205Y033567D01*
X046946Y033460D01*
X046666Y033460D01*
X046373Y033601D02*
X043213Y033601D01*
X043312Y033699D02*
X046275Y033699D01*
X046195Y033798D02*
X043392Y033798D01*
X043432Y033896D02*
X046154Y033896D01*
X046113Y033995D02*
X043473Y033995D01*
X043486Y034093D02*
X046101Y034093D01*
X046101Y034192D02*
X043486Y034192D01*
X043486Y034290D02*
X046101Y034290D01*
X046135Y034389D02*
X043451Y034389D01*
X043410Y034487D02*
X046176Y034487D01*
X046229Y034586D02*
X043357Y034586D01*
X043259Y034684D02*
X046328Y034684D01*
X046455Y034783D02*
X043132Y034783D01*
X047157Y034783D02*
X048630Y034783D01*
X048581Y034763D02*
X048383Y034564D01*
X048276Y034305D01*
X048276Y034025D01*
X048383Y033766D01*
X048581Y033567D01*
X048841Y033460D01*
X049121Y033460D01*
X049380Y033567D01*
X049578Y033766D01*
X049686Y034025D01*
X049686Y034305D01*
X049578Y034564D01*
X049380Y034763D01*
X049121Y034870D01*
X048841Y034870D01*
X048581Y034763D01*
X048503Y034684D02*
X047284Y034684D01*
X047382Y034586D02*
X048404Y034586D01*
X048351Y034487D02*
X047435Y034487D01*
X047476Y034389D02*
X048310Y034389D01*
X048276Y034290D02*
X047511Y034290D01*
X047511Y034192D02*
X048276Y034192D01*
X048276Y034093D02*
X047511Y034093D01*
X047498Y033995D02*
X048288Y033995D01*
X048329Y033896D02*
X047457Y033896D01*
X047417Y033798D02*
X048370Y033798D01*
X048450Y033699D02*
X047337Y033699D01*
X047238Y033601D02*
X048548Y033601D01*
X048739Y033502D02*
X047048Y033502D01*
X049223Y033502D02*
X052764Y033502D01*
X052573Y033601D02*
X049413Y033601D01*
X049512Y033699D02*
X052475Y033699D01*
X052395Y033798D02*
X049592Y033798D01*
X049632Y033896D02*
X052354Y033896D01*
X052313Y033995D02*
X049673Y033995D01*
X049686Y034093D02*
X052301Y034093D01*
X052301Y034192D02*
X049686Y034192D01*
X049686Y034290D02*
X052301Y034290D01*
X052335Y034389D02*
X049651Y034389D01*
X049610Y034487D02*
X052376Y034487D01*
X052429Y034586D02*
X049557Y034586D01*
X049459Y034684D02*
X052528Y034684D01*
X052655Y034783D02*
X049332Y034783D01*
X051503Y032517D02*
X054293Y032517D01*
X054293Y032419D02*
X051602Y032419D01*
X051700Y032320D02*
X054293Y032320D01*
X054293Y032222D02*
X051749Y032222D01*
X051790Y032123D02*
X054293Y032123D01*
X054293Y032025D02*
X051831Y032025D01*
X051843Y031926D02*
X054293Y031926D01*
X054293Y031828D02*
X051843Y031828D01*
X051843Y031729D02*
X054293Y031729D01*
X054293Y031631D02*
X051833Y031631D01*
X051792Y031532D02*
X054293Y031532D01*
X054293Y031434D02*
X051751Y031434D01*
X051705Y031335D02*
X054293Y031335D01*
X054293Y031237D02*
X051607Y031237D01*
X051508Y031138D02*
X054293Y031138D01*
X054293Y031040D02*
X051318Y031040D01*
X054293Y021879D02*
X035822Y021879D01*
X035878Y021781D02*
X054293Y021781D01*
X054293Y021682D02*
X035878Y021682D01*
X035834Y021584D02*
X054293Y021584D01*
X054293Y021091D02*
X046304Y021091D01*
X046433Y020993D02*
X054293Y020993D01*
X054293Y020894D02*
X047197Y020894D01*
X047330Y020796D02*
X054293Y020796D01*
X054293Y020697D02*
X047375Y020697D01*
X047381Y020599D02*
X054293Y020599D01*
X054293Y020500D02*
X047353Y020500D01*
X047277Y020402D02*
X054293Y020402D01*
X054293Y016954D02*
X049572Y016954D01*
X049622Y016856D02*
X054293Y016856D01*
X054293Y016757D02*
X049631Y016757D01*
X049607Y016659D02*
X054293Y016659D01*
X054293Y014196D02*
X046323Y014196D01*
X046411Y014098D02*
X054293Y014098D01*
X054293Y013999D02*
X046452Y013999D01*
X046468Y013901D02*
X054293Y013901D01*
X054293Y013802D02*
X046468Y013802D01*
X046432Y013704D02*
X054293Y013704D01*
X054293Y013605D02*
X046374Y013605D01*
X046264Y013507D02*
X054293Y013507D01*
X054293Y008680D02*
X047792Y008680D01*
X047939Y008582D02*
X054293Y008582D01*
X054293Y008483D02*
X048037Y008483D01*
X048123Y008385D02*
X054293Y008385D01*
X054293Y008286D02*
X048164Y008286D01*
X048205Y008188D02*
X054293Y008188D01*
X054293Y008089D02*
X048243Y008089D01*
X048243Y007991D02*
X054293Y007991D01*
X054293Y007892D02*
X048243Y007892D01*
X048243Y007794D02*
X054293Y007794D01*
X054293Y007695D02*
X048218Y007695D01*
X048177Y007597D02*
X054293Y007597D01*
X054293Y007498D02*
X048136Y007498D01*
X048070Y007400D02*
X054293Y007400D01*
X054293Y007301D02*
X047971Y007301D01*
X047870Y007203D02*
X050811Y007203D01*
X051475Y007203D02*
X054293Y007203D01*
X054293Y007104D02*
X051574Y007104D01*
X051647Y007006D02*
X054293Y007006D01*
X054293Y006907D02*
X051688Y006907D01*
X051716Y006809D02*
X054293Y006809D01*
X054293Y006710D02*
X051716Y006710D01*
X051716Y006612D02*
X054293Y006612D01*
X054293Y006513D02*
X051675Y006513D01*
X051634Y006415D02*
X054293Y006415D01*
X054293Y006316D02*
X051544Y006316D01*
X051414Y006218D02*
X054203Y006218D01*
X046805Y020599D02*
X046374Y020599D01*
X046452Y020697D02*
X046811Y020697D01*
X046856Y020796D02*
X046481Y020796D01*
X046477Y020894D02*
X046990Y020894D01*
D18*
X047993Y019625D03*
X047993Y019125D03*
X047993Y018625D03*
X047993Y018125D03*
X047993Y017625D03*
X047993Y017125D03*
X047993Y016625D03*
X047993Y016125D03*
X046493Y016625D03*
X045993Y016625D03*
X045993Y017125D03*
X046493Y017125D03*
X045993Y017625D03*
X044043Y018675D03*
X043543Y018675D03*
X043043Y018675D03*
X042543Y018675D03*
X042043Y018675D03*
X041543Y018675D03*
X041043Y018675D03*
X041043Y019175D03*
X040543Y019175D03*
X040543Y019675D03*
X041043Y019675D03*
X041543Y019675D03*
X041543Y019175D03*
X042043Y019175D03*
X042043Y019675D03*
X042543Y019675D03*
X042543Y019175D03*
X043043Y019175D03*
X043043Y019675D03*
X043543Y019675D03*
X043543Y019175D03*
X044043Y019175D03*
X044043Y019675D03*
X044043Y020175D03*
X043543Y020175D03*
X043043Y020175D03*
X042543Y020175D03*
X042043Y020175D03*
X041543Y020175D03*
X041043Y020175D03*
X040543Y020175D03*
X040543Y020675D03*
X040543Y021175D03*
X040543Y021675D03*
X041043Y021675D03*
X041043Y021175D03*
X041043Y020675D03*
X041543Y020675D03*
X041543Y021175D03*
X041543Y021675D03*
X042043Y021675D03*
X042043Y021175D03*
X042043Y020675D03*
X042543Y020675D03*
X042543Y021175D03*
X042543Y021675D03*
X043043Y021675D03*
X043043Y021175D03*
X043043Y020675D03*
X043543Y020675D03*
X043543Y021175D03*
X043543Y021675D03*
X044043Y021675D03*
X044043Y021175D03*
X044043Y020675D03*
X040443Y018575D03*
X042343Y016675D03*
X040593Y015725D03*
X035843Y015425D03*
X035293Y015025D03*
X034493Y015125D03*
X034493Y016625D03*
X034393Y017175D03*
X035193Y017075D03*
X035293Y016725D03*
X035843Y016325D03*
X035743Y017525D03*
X035743Y018325D03*
X035193Y018775D03*
X034393Y018675D03*
X031843Y017225D03*
X031293Y017425D03*
X028143Y016175D03*
X031843Y020175D03*
X032493Y021425D03*
X029943Y022325D03*
X029093Y022325D03*
X028593Y022775D03*
X028593Y023175D03*
X028593Y023575D03*
X029143Y024025D03*
X029943Y023825D03*
X030243Y024875D03*
X029943Y026325D03*
X031193Y026825D03*
X032093Y026825D03*
X031993Y028275D03*
X031543Y029375D03*
X030643Y030075D03*
X030243Y030325D03*
X029593Y029475D03*
X031993Y031175D03*
X034243Y030775D03*
X035693Y029575D03*
X034343Y029025D03*
X038343Y028825D03*
X038343Y028325D03*
X038843Y028325D03*
X038843Y028825D03*
X038843Y029325D03*
X038343Y029325D03*
X038343Y029825D03*
X038343Y030325D03*
X038343Y030825D03*
X038843Y030825D03*
X038843Y030325D03*
X038843Y029825D03*
X039343Y029825D03*
X039343Y029325D03*
X039343Y028825D03*
X039343Y028325D03*
X039843Y028325D03*
X039843Y028825D03*
X039843Y029325D03*
X039843Y029825D03*
X039843Y030325D03*
X039343Y030325D03*
X039343Y030825D03*
X039843Y030825D03*
X040343Y030825D03*
X040343Y030325D03*
X040343Y029825D03*
X040343Y029325D03*
X040343Y028825D03*
X040343Y028325D03*
X040843Y028325D03*
X040843Y028825D03*
X040843Y029325D03*
X040843Y029825D03*
X040843Y030325D03*
X040843Y030825D03*
X041343Y030825D03*
X041343Y030325D03*
X041343Y029825D03*
X041343Y029325D03*
X041343Y028825D03*
X041343Y028325D03*
X041843Y028325D03*
X041843Y028825D03*
X041843Y029325D03*
X041843Y029825D03*
X041843Y030325D03*
X041843Y030825D03*
X042343Y030825D03*
X042343Y030325D03*
X042343Y029825D03*
X042343Y029325D03*
X042343Y028825D03*
X042343Y028325D03*
X042843Y028325D03*
X042843Y028825D03*
X042843Y029325D03*
X042843Y029825D03*
X042843Y030325D03*
X042843Y030825D03*
X043343Y030825D03*
X043343Y030325D03*
X043343Y029825D03*
X043343Y029325D03*
X043343Y028825D03*
X043343Y028325D03*
X043843Y028325D03*
X043843Y028825D03*
X043843Y029325D03*
X043843Y029825D03*
X043843Y030325D03*
X043843Y030825D03*
X044343Y030825D03*
X044343Y030325D03*
X044343Y029825D03*
X044343Y029325D03*
X044343Y028825D03*
X044343Y028325D03*
X044843Y028325D03*
X044843Y028825D03*
X044843Y029325D03*
X044843Y029825D03*
X044843Y030325D03*
X044843Y030825D03*
X045343Y030825D03*
X045343Y030325D03*
X045343Y029825D03*
X045343Y029325D03*
X045343Y028825D03*
X045343Y028325D03*
X045843Y028325D03*
X045843Y028825D03*
X045843Y029325D03*
X045843Y029825D03*
X045843Y030325D03*
X045843Y030825D03*
X046343Y030825D03*
X046343Y030325D03*
X046343Y029825D03*
X046343Y029325D03*
X046343Y028825D03*
X046343Y028325D03*
X046843Y028325D03*
X046843Y028825D03*
X046843Y029325D03*
X046843Y029825D03*
X046843Y030325D03*
X046843Y030825D03*
X047343Y030825D03*
X047343Y030325D03*
X047343Y029825D03*
X047343Y029325D03*
X047343Y028825D03*
X047343Y028325D03*
X047343Y027825D03*
X046843Y027825D03*
X046343Y027825D03*
X045843Y027825D03*
X045343Y027825D03*
X044843Y027825D03*
X044343Y027825D03*
X043843Y027825D03*
X043343Y027825D03*
X042843Y027825D03*
X042343Y027825D03*
X041843Y027825D03*
X041343Y027825D03*
X040843Y027825D03*
X040343Y027825D03*
X039843Y027825D03*
X039343Y027825D03*
X038843Y027825D03*
X038343Y027825D03*
X038343Y027325D03*
X038343Y026825D03*
X038343Y026325D03*
X038343Y025825D03*
X038343Y025325D03*
X038843Y025325D03*
X038843Y025825D03*
X038843Y026325D03*
X038843Y026825D03*
X038843Y027325D03*
X039343Y027325D03*
X039343Y026825D03*
X039343Y026325D03*
X039343Y025825D03*
X039343Y025325D03*
X039843Y025325D03*
X039843Y025825D03*
X039843Y026325D03*
X039843Y026825D03*
X039843Y027325D03*
X040343Y027325D03*
X040343Y026825D03*
X040343Y026325D03*
X040343Y025825D03*
X040343Y025325D03*
X040843Y025325D03*
X040843Y025825D03*
X040843Y026325D03*
X040843Y026825D03*
X040843Y027325D03*
X041343Y027325D03*
X041343Y026825D03*
X041343Y026325D03*
X041343Y025825D03*
X041343Y025325D03*
X041843Y025325D03*
X041843Y025825D03*
X041843Y026325D03*
X041843Y026825D03*
X041843Y027325D03*
X042343Y027325D03*
X042343Y026825D03*
X042343Y026325D03*
X042343Y025825D03*
X042343Y025325D03*
X042843Y025325D03*
X042843Y025825D03*
X042843Y026325D03*
X042843Y026825D03*
X042843Y027325D03*
X043343Y027325D03*
X043343Y026825D03*
X043343Y026325D03*
X043343Y025825D03*
X043343Y025325D03*
X043843Y025325D03*
X043843Y025825D03*
X043843Y026325D03*
X043843Y026825D03*
X043843Y027325D03*
X044343Y027325D03*
X044343Y026825D03*
X044343Y026325D03*
X044343Y025825D03*
X044343Y025325D03*
X044843Y025325D03*
X044843Y025825D03*
X044843Y026325D03*
X044843Y026825D03*
X044843Y027325D03*
X045343Y027325D03*
X045343Y026825D03*
X045343Y026325D03*
X045343Y025825D03*
X045343Y025325D03*
X045843Y025325D03*
X045843Y025825D03*
X045843Y026325D03*
X045843Y026825D03*
X045843Y027325D03*
X046343Y027325D03*
X046343Y026825D03*
X046343Y026325D03*
X046343Y025825D03*
X046343Y025325D03*
X046843Y025325D03*
X046843Y025825D03*
X046843Y026325D03*
X046843Y026825D03*
X046843Y027325D03*
X047343Y027325D03*
X047343Y026825D03*
X047343Y026325D03*
X047343Y025825D03*
X047343Y025325D03*
X047343Y024825D03*
X046843Y024825D03*
X046343Y024825D03*
X045843Y024825D03*
X045343Y024825D03*
X044843Y024825D03*
X044343Y024825D03*
X043843Y024825D03*
X043343Y024825D03*
X042843Y024825D03*
X042343Y024825D03*
X041843Y024825D03*
X041343Y024825D03*
X040843Y024825D03*
X040343Y024825D03*
X039843Y024825D03*
X039343Y024825D03*
X038843Y024825D03*
X038343Y024825D03*
X039093Y023975D03*
X038493Y023175D03*
X035793Y022775D03*
X035643Y021725D03*
X034293Y023825D03*
X035093Y024025D03*
X035643Y025375D03*
X032493Y024375D03*
X029843Y020825D03*
X024193Y028275D03*
X022293Y029025D03*
X020493Y030225D03*
X018693Y030025D03*
X018693Y029325D03*
X017743Y029025D03*
X016443Y028725D03*
X016443Y027875D03*
X016993Y027425D03*
X017693Y027425D03*
X020501Y032825D03*
X021593Y036225D03*
X021593Y036775D03*
X014893Y036825D03*
X014893Y036225D03*
X007943Y036225D03*
X007593Y036225D03*
X035293Y032725D03*
X038343Y031325D03*
X038843Y031325D03*
X039343Y031325D03*
X039843Y031325D03*
X040343Y031325D03*
X040843Y031325D03*
X041343Y031325D03*
X041843Y031325D03*
X042343Y031325D03*
X042843Y031325D03*
X043343Y031325D03*
X043843Y031325D03*
X044343Y031325D03*
X044843Y031325D03*
X045343Y031325D03*
X045843Y031325D03*
X046343Y031325D03*
X046843Y031325D03*
X047343Y031325D03*
X024493Y008425D03*
X016743Y011125D03*
X009993Y013075D03*
X009993Y014125D03*
D19*
X022143Y015125D03*
X029543Y015375D03*
X019943Y027775D03*
X046193Y020825D03*
X047093Y020625D03*
X049343Y016775D03*
X047393Y016125D03*
X049543Y028875D03*
X049543Y029325D03*
X049543Y029775D03*
X049543Y030225D03*
X049993Y030225D03*
X050443Y030225D03*
X050893Y030225D03*
X051343Y030225D03*
X051793Y030225D03*
X051793Y029775D03*
X051793Y029325D03*
X051793Y028875D03*
D20*
X032493Y024375D02*
X032493Y021425D01*
D21*
X053193Y029025D03*
X053193Y031175D03*
D22*
X046043Y013875D03*
D23*
X028743Y025375D02*
X028593Y025225D01*
X028393Y025225D01*
X027893Y024725D01*
X027893Y016441D01*
X027834Y016382D01*
X027778Y016248D01*
X027778Y016225D01*
X027306Y016225D01*
X027438Y016280D01*
X027586Y016427D01*
X027666Y016621D01*
X027666Y016829D01*
X027586Y017023D01*
X027438Y017170D01*
X027306Y017225D01*
X027438Y017280D01*
X027586Y017427D01*
X027666Y017621D01*
X027666Y017829D01*
X027586Y018023D01*
X027438Y018170D01*
X027306Y018225D01*
X027438Y018280D01*
X027586Y018427D01*
X027666Y018621D01*
X027666Y018829D01*
X027586Y019023D01*
X027438Y019170D01*
X027306Y019225D01*
X027438Y019280D01*
X027586Y019427D01*
X027666Y019621D01*
X027666Y019829D01*
X027586Y020023D01*
X027438Y020170D01*
X027306Y020225D01*
X027438Y020280D01*
X027586Y020427D01*
X027666Y020621D01*
X027666Y020829D01*
X027586Y021023D01*
X027438Y021170D01*
X027306Y021225D01*
X027438Y021280D01*
X027586Y021427D01*
X027666Y021621D01*
X027666Y021829D01*
X027586Y022023D01*
X027438Y022170D01*
X027306Y022225D01*
X027438Y022280D01*
X027586Y022427D01*
X027666Y022621D01*
X027666Y022829D01*
X027586Y023023D01*
X027438Y023170D01*
X027306Y023225D01*
X027438Y023280D01*
X027586Y023427D01*
X027666Y023621D01*
X027666Y023829D01*
X027586Y024023D01*
X027438Y024170D01*
X027245Y024250D01*
X027036Y024250D01*
X026843Y024170D01*
X026695Y024023D01*
X026615Y023829D01*
X026615Y023621D01*
X026695Y023427D01*
X026843Y023280D01*
X026975Y023225D01*
X026843Y023170D01*
X026695Y023023D01*
X026615Y022829D01*
X026615Y022621D01*
X026695Y022427D01*
X026843Y022280D01*
X026975Y022225D01*
X026843Y022170D01*
X026695Y022023D01*
X026615Y021829D01*
X026615Y021621D01*
X026695Y021427D01*
X026843Y021280D01*
X026975Y021225D01*
X026843Y021170D01*
X026695Y021023D01*
X026615Y020829D01*
X026615Y020621D01*
X026695Y020427D01*
X026843Y020280D01*
X026975Y020225D01*
X026843Y020170D01*
X026695Y020023D01*
X026615Y019829D01*
X026615Y019621D01*
X026695Y019427D01*
X026843Y019280D01*
X026975Y019225D01*
X026843Y019170D01*
X026695Y019023D01*
X026615Y018829D01*
X026615Y018621D01*
X026695Y018427D01*
X026843Y018280D01*
X026975Y018225D01*
X026843Y018170D01*
X026695Y018023D01*
X026615Y017829D01*
X026615Y017621D01*
X026695Y017427D01*
X026843Y017280D01*
X026975Y017225D01*
X026843Y017170D01*
X026695Y017023D01*
X026615Y016829D01*
X026615Y016621D01*
X026695Y016427D01*
X026843Y016280D01*
X026975Y016225D01*
X026393Y016225D01*
X026393Y031275D01*
X027893Y031275D01*
X027893Y029625D01*
X028343Y029175D01*
X028643Y029175D01*
X028743Y029075D01*
X028743Y025375D01*
X028743Y025379D02*
X027537Y025379D01*
X027586Y025427D02*
X027666Y025621D01*
X027666Y025829D01*
X027586Y026023D01*
X027438Y026170D01*
X027306Y026225D01*
X027438Y026280D01*
X027586Y026427D01*
X027666Y026621D01*
X027666Y026829D01*
X027586Y027023D01*
X027438Y027170D01*
X027306Y027225D01*
X027438Y027280D01*
X027586Y027427D01*
X027666Y027621D01*
X027666Y027829D01*
X027586Y028023D01*
X027438Y028170D01*
X027306Y028225D01*
X027438Y028280D01*
X027586Y028427D01*
X027666Y028621D01*
X027666Y028829D01*
X027586Y029023D01*
X027438Y029170D01*
X027306Y029225D01*
X027438Y029280D01*
X027586Y029427D01*
X027666Y029621D01*
X027666Y029829D01*
X027586Y030023D01*
X027438Y030170D01*
X027306Y030225D01*
X027438Y030280D01*
X027586Y030427D01*
X027666Y030621D01*
X027666Y030829D01*
X027586Y031023D01*
X027438Y031170D01*
X027245Y031250D01*
X027036Y031250D01*
X026843Y031170D01*
X026695Y031023D01*
X026615Y030829D01*
X026615Y030621D01*
X026695Y030427D01*
X026843Y030280D01*
X026975Y030225D01*
X026843Y030170D01*
X026695Y030023D01*
X026615Y029829D01*
X026615Y029621D01*
X026695Y029427D01*
X026843Y029280D01*
X026975Y029225D01*
X026843Y029170D01*
X026695Y029023D01*
X026615Y028829D01*
X026615Y028621D01*
X026695Y028427D01*
X026843Y028280D01*
X026975Y028225D01*
X026843Y028170D01*
X026695Y028023D01*
X026615Y027829D01*
X026615Y027621D01*
X026695Y027427D01*
X026843Y027280D01*
X026975Y027225D01*
X026843Y027170D01*
X026695Y027023D01*
X026615Y026829D01*
X026615Y026621D01*
X026695Y026427D01*
X026843Y026280D01*
X026975Y026225D01*
X026843Y026170D01*
X026695Y026023D01*
X026615Y025829D01*
X026615Y025621D01*
X026695Y025427D01*
X026843Y025280D01*
X027036Y025200D01*
X027245Y025200D01*
X027438Y025280D01*
X027586Y025427D01*
X027631Y025538D02*
X028743Y025538D01*
X028743Y025696D02*
X027666Y025696D01*
X027655Y025855D02*
X028743Y025855D01*
X028743Y026013D02*
X027590Y026013D01*
X027435Y026172D02*
X028743Y026172D01*
X028743Y026330D02*
X027488Y026330D01*
X027611Y026489D02*
X028743Y026489D01*
X028743Y026647D02*
X027666Y026647D01*
X027666Y026806D02*
X028743Y026806D01*
X028743Y026964D02*
X027610Y026964D01*
X027486Y027123D02*
X028743Y027123D01*
X028743Y027281D02*
X027439Y027281D01*
X027591Y027440D02*
X028743Y027440D01*
X028743Y027598D02*
X027657Y027598D01*
X027666Y027757D02*
X028743Y027757D01*
X028743Y027915D02*
X027630Y027915D01*
X027535Y028074D02*
X028743Y028074D01*
X028743Y028232D02*
X027323Y028232D01*
X027549Y028391D02*
X028743Y028391D01*
X028743Y028549D02*
X027636Y028549D01*
X027666Y028708D02*
X028743Y028708D01*
X028743Y028866D02*
X027651Y028866D01*
X027584Y029025D02*
X028743Y029025D01*
X028335Y029183D02*
X027407Y029183D01*
X027500Y029342D02*
X028177Y029342D01*
X028018Y029500D02*
X027616Y029500D01*
X027666Y029659D02*
X027893Y029659D01*
X027893Y029817D02*
X027666Y029817D01*
X027605Y029976D02*
X027893Y029976D01*
X027893Y030134D02*
X027474Y030134D01*
X027451Y030293D02*
X027893Y030293D01*
X027893Y030451D02*
X027596Y030451D01*
X027661Y030610D02*
X027893Y030610D01*
X027893Y030768D02*
X027666Y030768D01*
X027626Y030927D02*
X027893Y030927D01*
X027893Y031085D02*
X027523Y031085D01*
X027261Y031244D02*
X027893Y031244D01*
X027020Y031244D02*
X026393Y031244D01*
X026393Y031085D02*
X026758Y031085D01*
X026655Y030927D02*
X026393Y030927D01*
X026393Y030768D02*
X026615Y030768D01*
X026620Y030610D02*
X026393Y030610D01*
X026393Y030451D02*
X026685Y030451D01*
X026830Y030293D02*
X026393Y030293D01*
X026393Y030134D02*
X026807Y030134D01*
X026676Y029976D02*
X026393Y029976D01*
X026393Y029817D02*
X026615Y029817D01*
X026615Y029659D02*
X026393Y029659D01*
X026393Y029500D02*
X026665Y029500D01*
X026781Y029342D02*
X026393Y029342D01*
X026393Y029183D02*
X026874Y029183D01*
X026697Y029025D02*
X026393Y029025D01*
X026393Y028866D02*
X026630Y028866D01*
X026615Y028708D02*
X026393Y028708D01*
X026393Y028549D02*
X026645Y028549D01*
X026732Y028391D02*
X026393Y028391D01*
X026393Y028232D02*
X026958Y028232D01*
X026746Y028074D02*
X026393Y028074D01*
X026393Y027915D02*
X026651Y027915D01*
X026615Y027757D02*
X026393Y027757D01*
X026393Y027598D02*
X026625Y027598D01*
X026690Y027440D02*
X026393Y027440D01*
X026393Y027281D02*
X026842Y027281D01*
X026795Y027123D02*
X026393Y027123D01*
X026393Y026964D02*
X026671Y026964D01*
X026615Y026806D02*
X026393Y026806D01*
X026393Y026647D02*
X026615Y026647D01*
X026670Y026489D02*
X026393Y026489D01*
X026393Y026330D02*
X026793Y026330D01*
X026846Y026172D02*
X026393Y026172D01*
X026393Y026013D02*
X026691Y026013D01*
X026626Y025855D02*
X026393Y025855D01*
X026393Y025696D02*
X026615Y025696D01*
X026650Y025538D02*
X026393Y025538D01*
X026393Y025379D02*
X026744Y025379D01*
X026986Y025221D02*
X026393Y025221D01*
X026393Y025062D02*
X028230Y025062D01*
X028072Y024904D02*
X026393Y024904D01*
X026393Y024745D02*
X027913Y024745D01*
X027893Y024587D02*
X026393Y024587D01*
X026393Y024428D02*
X027893Y024428D01*
X027893Y024270D02*
X026393Y024270D01*
X026393Y024111D02*
X026784Y024111D01*
X026666Y023953D02*
X026393Y023953D01*
X026393Y023794D02*
X026615Y023794D01*
X026615Y023636D02*
X026393Y023636D01*
X026393Y023477D02*
X026675Y023477D01*
X026804Y023319D02*
X026393Y023319D01*
X026393Y023160D02*
X026833Y023160D01*
X026687Y023002D02*
X026393Y023002D01*
X026393Y022843D02*
X026621Y022843D01*
X026615Y022685D02*
X026393Y022685D01*
X026393Y022526D02*
X026654Y022526D01*
X026755Y022368D02*
X026393Y022368D01*
X026393Y022209D02*
X026936Y022209D01*
X026723Y022051D02*
X026393Y022051D01*
X026393Y021892D02*
X026641Y021892D01*
X026615Y021734D02*
X026393Y021734D01*
X026393Y021575D02*
X026634Y021575D01*
X026706Y021417D02*
X026393Y021417D01*
X026393Y021258D02*
X026895Y021258D01*
X026772Y021100D02*
X026393Y021100D01*
X026393Y020941D02*
X026661Y020941D01*
X026615Y020783D02*
X026393Y020783D01*
X026393Y020624D02*
X026615Y020624D01*
X026679Y020466D02*
X026393Y020466D01*
X026393Y020307D02*
X026816Y020307D01*
X026821Y020149D02*
X026393Y020149D01*
X026393Y019990D02*
X026682Y019990D01*
X026616Y019832D02*
X026393Y019832D01*
X026393Y019673D02*
X026615Y019673D01*
X026659Y019515D02*
X026393Y019515D01*
X026393Y019356D02*
X026767Y019356D01*
X026909Y019198D02*
X026393Y019198D01*
X026393Y019039D02*
X026712Y019039D01*
X026636Y018881D02*
X026393Y018881D01*
X026393Y018722D02*
X026615Y018722D01*
X026639Y018564D02*
X026393Y018564D01*
X026393Y018405D02*
X026718Y018405D01*
X026923Y018247D02*
X026393Y018247D01*
X026393Y018088D02*
X026761Y018088D01*
X026657Y017930D02*
X026393Y017930D01*
X026393Y017771D02*
X026615Y017771D01*
X026619Y017613D02*
X026393Y017613D01*
X026393Y017454D02*
X026684Y017454D01*
X026827Y017296D02*
X026393Y017296D01*
X026393Y017137D02*
X026810Y017137D01*
X026677Y016979D02*
X026393Y016979D01*
X026393Y016820D02*
X026615Y016820D01*
X026615Y016662D02*
X026393Y016662D01*
X026393Y016503D02*
X026664Y016503D01*
X026778Y016345D02*
X026393Y016345D01*
X027503Y016345D02*
X027818Y016345D01*
X027893Y016503D02*
X027617Y016503D01*
X027666Y016662D02*
X027893Y016662D01*
X027893Y016820D02*
X027666Y016820D01*
X027604Y016979D02*
X027893Y016979D01*
X027893Y017137D02*
X027471Y017137D01*
X027454Y017296D02*
X027893Y017296D01*
X027893Y017454D02*
X027597Y017454D01*
X027663Y017613D02*
X027893Y017613D01*
X027893Y017771D02*
X027666Y017771D01*
X027624Y017930D02*
X027893Y017930D01*
X027893Y018088D02*
X027520Y018088D01*
X027358Y018247D02*
X027893Y018247D01*
X027893Y018405D02*
X027563Y018405D01*
X027642Y018564D02*
X027893Y018564D01*
X027893Y018722D02*
X027666Y018722D01*
X027645Y018881D02*
X027893Y018881D01*
X027893Y019039D02*
X027569Y019039D01*
X027372Y019198D02*
X027893Y019198D01*
X027893Y019356D02*
X027514Y019356D01*
X027622Y019515D02*
X027893Y019515D01*
X027893Y019673D02*
X027666Y019673D01*
X027665Y019832D02*
X027893Y019832D01*
X027893Y019990D02*
X027599Y019990D01*
X027460Y020149D02*
X027893Y020149D01*
X027893Y020307D02*
X027465Y020307D01*
X027602Y020466D02*
X027893Y020466D01*
X027893Y020624D02*
X027666Y020624D01*
X027666Y020783D02*
X027893Y020783D01*
X027893Y020941D02*
X027620Y020941D01*
X027509Y021100D02*
X027893Y021100D01*
X027893Y021258D02*
X027386Y021258D01*
X027575Y021417D02*
X027893Y021417D01*
X027893Y021575D02*
X027647Y021575D01*
X027666Y021734D02*
X027893Y021734D01*
X027893Y021892D02*
X027640Y021892D01*
X027558Y022051D02*
X027893Y022051D01*
X027893Y022209D02*
X027345Y022209D01*
X027526Y022368D02*
X027893Y022368D01*
X027893Y022526D02*
X027627Y022526D01*
X027666Y022685D02*
X027893Y022685D01*
X027893Y022843D02*
X027660Y022843D01*
X027595Y023002D02*
X027893Y023002D01*
X027893Y023160D02*
X027448Y023160D01*
X027477Y023319D02*
X027893Y023319D01*
X027893Y023477D02*
X027606Y023477D01*
X027666Y023636D02*
X027893Y023636D01*
X027893Y023794D02*
X027666Y023794D01*
X027615Y023953D02*
X027893Y023953D01*
X027893Y024111D02*
X027497Y024111D01*
X027295Y025221D02*
X028389Y025221D01*
D24*
X018493Y028825D03*
M02*
