%
M48
M72
T01C0.0130
T02C0.0236
T03C0.0315
T04C0.0354
T05C0.0394
T06C0.0400
T07C0.0551
T08C0.0591
T09C0.0630
T10C0.0710
T11C0.0810
T12C0.0830
T13C0.1180
T14C0.1300
%
T01
X28093Y11300
X31293Y12200
X31843Y12000
X34393Y11950
X34493Y11400
X35293Y11500
X35193Y11850
X35743Y12300
X35743Y13100
X35193Y13550
X34393Y13450
X31843Y14950
X32493Y16200
X30093Y17100
X29093Y17100
X28593Y17550
X28393Y17850
X28593Y18350
X29143Y18800
X30093Y18600
X30243Y19650
X32493Y19150
X34143Y18600
X35093Y18800
X35793Y17550
X35193Y16500
X38493Y17950
X39093Y18750
X38843Y19600
X38343Y19600
X38343Y20100
X38343Y20600
X38343Y21100
X38843Y21100
X38843Y20600
X38843Y20100
X39343Y20100
X39343Y20600
X39343Y21100
X39843Y21100
X39843Y20600
X39843Y20100
X40343Y20100
X40343Y20600
X40343Y21100
X40843Y21100
X40843Y20600
X40843Y20100
X41343Y20100
X41343Y20600
X41343Y21100
X41843Y21100
X41843Y20600
X41843Y20100
X42343Y20100
X42343Y20600
X42343Y21100
X42843Y21100
X42843Y20600
X42843Y20100
X43343Y20100
X43343Y20600
X43343Y21100
X43843Y21100
X43843Y20600
X43843Y20100
X44343Y20100
X44343Y20600
X44343Y21100
X44843Y21100
X44843Y20600
X44843Y20100
X45343Y20100
X45343Y20600
X45343Y21100
X45843Y21100
X45843Y20600
X45843Y20100
X46343Y20100
X46343Y20600
X46343Y21100
X46843Y21100
X46843Y20600
X46843Y20100
X47343Y20100
X47343Y20600
X47343Y21100
X47343Y21600
X46843Y21600
X46343Y21600
X45843Y21600
X45343Y21600
X44843Y21600
X44343Y21600
X43843Y21600
X43343Y21600
X42843Y21600
X42343Y21600
X41843Y21600
X41343Y21600
X40843Y21600
X40343Y21600
X39843Y21600
X39343Y21600
X38843Y21600
X38343Y21600
X38343Y22100
X38343Y22600
X38843Y22600
X38843Y22100
X39343Y22100
X39343Y22600
X39843Y22600
X39843Y22100
X40343Y22100
X40343Y22600
X40843Y22600
X40843Y22100
X41343Y22100
X41343Y22600
X41843Y22600
X41843Y22100
X42343Y22100
X42343Y22600
X42843Y22600
X42843Y22100
X43343Y22100
X43343Y22600
X43843Y22600
X43843Y22100
X44343Y22100
X44343Y22600
X44843Y22600
X44843Y22100
X45343Y22100
X45343Y22600
X45843Y22600
X45843Y22100
X46343Y22100
X46343Y22600
X46843Y22600
X46843Y22100
X47343Y22100
X47343Y22600
X47343Y23100
X46843Y23100
X46343Y23100
X45843Y23100
X45343Y23100
X44843Y23100
X44343Y23100
X43843Y23100
X43343Y23100
X42843Y23100
X42343Y23100
X41843Y23100
X41343Y23100
X40843Y23100
X40343Y23100
X39843Y23100
X39343Y23100
X38843Y23100
X38343Y23100
X38343Y23600
X38343Y24100
X38843Y24100
X38843Y23600
X39343Y23600
X39343Y24100
X39843Y24100
X39843Y23600
X40343Y23600
X40343Y24100
X40843Y24100
X40843Y23600
X41343Y23600
X41343Y24100
X41843Y24100
X41843Y23600
X42343Y23600
X42343Y24100
X42843Y24100
X42843Y23600
X43343Y23600
X43343Y24100
X43843Y24100
X43843Y23600
X44343Y23600
X44343Y24100
X44843Y24100
X44843Y23600
X45343Y23600
X45343Y24100
X45843Y24100
X45843Y23600
X46343Y23600
X46343Y24100
X46843Y24100
X46843Y23600
X47343Y23600
X47343Y24100
X47343Y24600
X46843Y24600
X46343Y24600
X45843Y24600
X45343Y24600
X44843Y24600
X44343Y24600
X43843Y24600
X43343Y24600
X42843Y24600
X42343Y24600
X41843Y24600
X41343Y24600
X40843Y24600
X40343Y24600
X39843Y24600
X39343Y24600
X38843Y24600
X38343Y24600
X38343Y25100
X38343Y25600
X38843Y25600
X38843Y25100
X39343Y25100
X39343Y25600
X39843Y25600
X39843Y25100
X40343Y25100
X40343Y25600
X40843Y25600
X40843Y25100
X41343Y25100
X41343Y25600
X41843Y25600
X41843Y25100
X42343Y25100
X42343Y25600
X42843Y25600
X42843Y25100
X43343Y25100
X43343Y25600
X43843Y25600
X43843Y25100
X44343Y25100
X44343Y25600
X44843Y25600
X44843Y25100
X45343Y25100
X45343Y25600
X45843Y25600
X45843Y25100
X46343Y25100
X46343Y25600
X46843Y25600
X46843Y25100
X47343Y25100
X47343Y25600
X47343Y26100
X46843Y26100
X46343Y26100
X45843Y26100
X45343Y26100
X44843Y26100
X44343Y26100
X43843Y26100
X43343Y26100
X42843Y26100
X42343Y26100
X41843Y26100
X41343Y26100
X40843Y26100
X40343Y26100
X39843Y26100
X39343Y26100
X38843Y26100
X38343Y26100
X35693Y24350
X34343Y23800
X31993Y23050
X31543Y24150
X30643Y24850
X29543Y24850
X31993Y25950
X34243Y25550
X38593Y28750
X42493Y30800
X32093Y21600
X31193Y21600
X22893Y22250
X20393Y22850
X18043Y22700
X16293Y22000
X16293Y29450
X6943Y30700
X6943Y31600
X28093Y28900
X28593Y28900
X39343Y19600
X39843Y19600
X40343Y19600
X40843Y19600
X41343Y19600
X41843Y19600
X42343Y19600
X42843Y19600
X43343Y19600
X43843Y19600
X44343Y19600
X44843Y19600
X45343Y19600
X45843Y19600
X46343Y19600
X46843Y19600
X47343Y19600
X44043Y16450
X43543Y16450
X43043Y16450
X42543Y16450
X42043Y16450
X41543Y16450
X41043Y16450
X40543Y16450
X40543Y15950
X40543Y15450
X40543Y14950
X41043Y14950
X41043Y15450
X41043Y15950
X41543Y15950
X41543Y15450
X41543Y14950
X42043Y14950
X42043Y15450
X42043Y15950
X42543Y15950
X42543Y15450
X42543Y14950
X43043Y14950
X43043Y15450
X43043Y15950
X43543Y15950
X43543Y15450
X43543Y14950
X44043Y14950
X44043Y15450
X44043Y15950
X44043Y14450
X43543Y14450
X43043Y14450
X42543Y14450
X42043Y14450
X41543Y14450
X41043Y14450
X40543Y14450
X40543Y13950
X41043Y13950
X41043Y13450
X41543Y13450
X41543Y13950
X42043Y13950
X42043Y13450
X42543Y13450
X42543Y13950
X43043Y13950
X43043Y13450
X43543Y13450
X43543Y13950
X44043Y13950
X44043Y13450
X45993Y12400
X45993Y11900
X45993Y11400
X46493Y11400
X46493Y11900
X47993Y11900
X47993Y11400
X47993Y10900
X47993Y12400
X47993Y12900
X47993Y13400
X47993Y13900
X47993Y14400
X42343Y11450
X40743Y10500
X40443Y13350
X35843Y11100
X35843Y10200
X35293Y9800
X34493Y9900
X29843Y15600
T02
X29543Y10150
X18243Y9900
X18243Y20850
X17593Y23300
X17593Y24000
X18043Y24550
X18893Y24550
X19193Y23250
X46193Y15600
X47093Y15400
X49343Y11550
X47393Y10900
X51443Y19550
X50993Y19750
X50543Y19750
X50543Y20250
X50993Y20250
X50993Y20750
X50543Y20750
X50543Y21250
X50993Y21250
X50993Y21750
X50543Y21750
X50543Y22250
X50993Y22250
X50993Y22750
X50543Y22750
X51493Y22850
T03
X21923Y30050
X20443Y30050
X18963Y30050
T04
X15882Y31300
X13205Y31300
X11585Y31300
X8907Y31300
X24293Y19000
X24293Y18000
X37193Y10850
X38993Y8850
X18193Y6750
X15793Y6750
X16343Y9150
X17643Y9150
X18193Y3200
X15793Y3150
T05
X7541Y8400
X7541Y9400
X7541Y10400
X7541Y11400
X7541Y12400
X7541Y13400
X7541Y14400
X7541Y15400
X7541Y16400
X7541Y17400
X7541Y19000
X7541Y20000
X7541Y21000
X7541Y22000
X7541Y23000
X7541Y24000
X7541Y25000
X7541Y26000
X15541Y26050
X16541Y26050
X17541Y26050
X17541Y27050
X16541Y27050
X15541Y27050
X26541Y26000
X26541Y25000
X26541Y24000
X26541Y23000
X26541Y22000
X26541Y21000
X26541Y19000
X26541Y18000
X26541Y17000
X26541Y16000
X26541Y15000
X26541Y14000
X26541Y13000
X26541Y12000
X46043Y8650
T06
X39793Y5850
X38793Y5850
X37793Y5850
X36793Y5850
X35793Y5850
X35793Y4850
X36793Y4850
X37793Y4850
X38793Y4850
X39793Y4850
X35243Y7050
X34243Y7050
X33243Y7050
X32243Y7050
X31243Y7050
X30243Y7050
X30243Y8050
X31243Y8050
X32243Y8050
X33243Y8050
X34243Y8050
X35243Y8050
T07
X44243Y5000
T08
X44293Y2200
X51793Y2200
X51793Y8420
X44293Y8420
T09
X44543Y17950
T10
X23893Y6070
X22243Y6070
X20593Y6070
T11
X28981Y2960
X33006Y2960
X34406Y29640
X36581Y29640
X40606Y29640
X42781Y29640
X46806Y29640
X48981Y29640
X53006Y29640
X30381Y29640
T12
X22958Y31230
X17928Y31230
T13
X20593Y3200
X23893Y3200
T14
X6993Y2000
X6993Y28500
X48243Y2000
X52993Y27500
M30
