G75*
G70*
%OFA0B0*%
%FSLAX24Y24*%
%IPPOS*%
%LPD*%
%AMOC8*
5,1,8,0,0,1.08239X$1,22.5*
%
%ADD10C,0.0000*%
D10*
X001471Y000500D02*
X001471Y021500D01*
X027371Y021500D01*
X027971Y020900D01*
X027971Y016400D01*
X028971Y015400D01*
X028971Y002500D01*
X027971Y001500D01*
X027971Y000500D01*
X001471Y000500D01*
X002594Y014409D02*
X002596Y014435D01*
X002602Y014461D01*
X002612Y014486D01*
X002625Y014509D01*
X002641Y014529D01*
X002661Y014547D01*
X002683Y014562D01*
X002706Y014574D01*
X002732Y014582D01*
X002758Y014586D01*
X002784Y014586D01*
X002810Y014582D01*
X002836Y014574D01*
X002860Y014562D01*
X002881Y014547D01*
X002901Y014529D01*
X002917Y014509D01*
X002930Y014486D01*
X002940Y014461D01*
X002946Y014435D01*
X002948Y014409D01*
X002946Y014383D01*
X002940Y014357D01*
X002930Y014332D01*
X002917Y014309D01*
X002901Y014289D01*
X002881Y014271D01*
X002859Y014256D01*
X002836Y014244D01*
X002810Y014236D01*
X002784Y014232D01*
X002758Y014232D01*
X002732Y014236D01*
X002706Y014244D01*
X002682Y014256D01*
X002661Y014271D01*
X002641Y014289D01*
X002625Y014309D01*
X002612Y014332D01*
X002602Y014357D01*
X002596Y014383D01*
X002594Y014409D01*
X002594Y015591D02*
X002596Y015617D01*
X002602Y015643D01*
X002612Y015668D01*
X002625Y015691D01*
X002641Y015711D01*
X002661Y015729D01*
X002683Y015744D01*
X002706Y015756D01*
X002732Y015764D01*
X002758Y015768D01*
X002784Y015768D01*
X002810Y015764D01*
X002836Y015756D01*
X002860Y015744D01*
X002881Y015729D01*
X002901Y015711D01*
X002917Y015691D01*
X002930Y015668D01*
X002940Y015643D01*
X002946Y015617D01*
X002948Y015591D01*
X002946Y015565D01*
X002940Y015539D01*
X002930Y015514D01*
X002917Y015491D01*
X002901Y015471D01*
X002881Y015453D01*
X002859Y015438D01*
X002836Y015426D01*
X002810Y015418D01*
X002784Y015414D01*
X002758Y015414D01*
X002732Y015418D01*
X002706Y015426D01*
X002682Y015438D01*
X002661Y015453D01*
X002641Y015471D01*
X002625Y015491D01*
X002612Y015514D01*
X002602Y015539D01*
X002596Y015565D01*
X002594Y015591D01*
X002594Y019109D02*
X002596Y019135D01*
X002602Y019161D01*
X002612Y019186D01*
X002625Y019209D01*
X002641Y019229D01*
X002661Y019247D01*
X002683Y019262D01*
X002706Y019274D01*
X002732Y019282D01*
X002758Y019286D01*
X002784Y019286D01*
X002810Y019282D01*
X002836Y019274D01*
X002860Y019262D01*
X002881Y019247D01*
X002901Y019229D01*
X002917Y019209D01*
X002930Y019186D01*
X002940Y019161D01*
X002946Y019135D01*
X002948Y019109D01*
X002946Y019083D01*
X002940Y019057D01*
X002930Y019032D01*
X002917Y019009D01*
X002901Y018989D01*
X002881Y018971D01*
X002859Y018956D01*
X002836Y018944D01*
X002810Y018936D01*
X002784Y018932D01*
X002758Y018932D01*
X002732Y018936D01*
X002706Y018944D01*
X002682Y018956D01*
X002661Y018971D01*
X002641Y018989D01*
X002625Y019009D01*
X002612Y019032D01*
X002602Y019057D01*
X002596Y019083D01*
X002594Y019109D01*
X002594Y020291D02*
X002596Y020317D01*
X002602Y020343D01*
X002612Y020368D01*
X002625Y020391D01*
X002641Y020411D01*
X002661Y020429D01*
X002683Y020444D01*
X002706Y020456D01*
X002732Y020464D01*
X002758Y020468D01*
X002784Y020468D01*
X002810Y020464D01*
X002836Y020456D01*
X002860Y020444D01*
X002881Y020429D01*
X002901Y020411D01*
X002917Y020391D01*
X002930Y020368D01*
X002940Y020343D01*
X002946Y020317D01*
X002948Y020291D01*
X002946Y020265D01*
X002940Y020239D01*
X002930Y020214D01*
X002917Y020191D01*
X002901Y020171D01*
X002881Y020153D01*
X002859Y020138D01*
X002836Y020126D01*
X002810Y020118D01*
X002784Y020114D01*
X002758Y020114D01*
X002732Y020118D01*
X002706Y020126D01*
X002682Y020138D01*
X002661Y020153D01*
X002641Y020171D01*
X002625Y020191D01*
X002612Y020214D01*
X002602Y020239D01*
X002596Y020265D01*
X002594Y020291D01*
X007341Y020500D02*
X007343Y020550D01*
X007349Y020600D01*
X007359Y020649D01*
X007373Y020697D01*
X007390Y020744D01*
X007411Y020789D01*
X007436Y020833D01*
X007464Y020874D01*
X007496Y020913D01*
X007530Y020950D01*
X007567Y020984D01*
X007607Y021014D01*
X007649Y021041D01*
X007693Y021065D01*
X007739Y021086D01*
X007786Y021102D01*
X007834Y021115D01*
X007884Y021124D01*
X007933Y021129D01*
X007984Y021130D01*
X008034Y021127D01*
X008083Y021120D01*
X008132Y021109D01*
X008180Y021094D01*
X008226Y021076D01*
X008271Y021054D01*
X008314Y021028D01*
X008355Y020999D01*
X008394Y020967D01*
X008430Y020932D01*
X008462Y020894D01*
X008492Y020854D01*
X008519Y020811D01*
X008542Y020767D01*
X008561Y020721D01*
X008577Y020673D01*
X008589Y020624D01*
X008597Y020575D01*
X008601Y020525D01*
X008601Y020475D01*
X008597Y020425D01*
X008589Y020376D01*
X008577Y020327D01*
X008561Y020279D01*
X008542Y020233D01*
X008519Y020189D01*
X008492Y020146D01*
X008462Y020106D01*
X008430Y020068D01*
X008394Y020033D01*
X008355Y020001D01*
X008314Y019972D01*
X008271Y019946D01*
X008226Y019924D01*
X008180Y019906D01*
X008132Y019891D01*
X008083Y019880D01*
X008034Y019873D01*
X007984Y019870D01*
X007933Y019871D01*
X007884Y019876D01*
X007834Y019885D01*
X007786Y019898D01*
X007739Y019914D01*
X007693Y019935D01*
X007649Y019959D01*
X007607Y019986D01*
X007567Y020016D01*
X007530Y020050D01*
X007496Y020087D01*
X007464Y020126D01*
X007436Y020167D01*
X007411Y020211D01*
X007390Y020256D01*
X007373Y020303D01*
X007359Y020351D01*
X007349Y020400D01*
X007343Y020450D01*
X007341Y020500D01*
X027341Y014500D02*
X027343Y014550D01*
X027349Y014600D01*
X027359Y014649D01*
X027373Y014697D01*
X027390Y014744D01*
X027411Y014789D01*
X027436Y014833D01*
X027464Y014874D01*
X027496Y014913D01*
X027530Y014950D01*
X027567Y014984D01*
X027607Y015014D01*
X027649Y015041D01*
X027693Y015065D01*
X027739Y015086D01*
X027786Y015102D01*
X027834Y015115D01*
X027884Y015124D01*
X027933Y015129D01*
X027984Y015130D01*
X028034Y015127D01*
X028083Y015120D01*
X028132Y015109D01*
X028180Y015094D01*
X028226Y015076D01*
X028271Y015054D01*
X028314Y015028D01*
X028355Y014999D01*
X028394Y014967D01*
X028430Y014932D01*
X028462Y014894D01*
X028492Y014854D01*
X028519Y014811D01*
X028542Y014767D01*
X028561Y014721D01*
X028577Y014673D01*
X028589Y014624D01*
X028597Y014575D01*
X028601Y014525D01*
X028601Y014475D01*
X028597Y014425D01*
X028589Y014376D01*
X028577Y014327D01*
X028561Y014279D01*
X028542Y014233D01*
X028519Y014189D01*
X028492Y014146D01*
X028462Y014106D01*
X028430Y014068D01*
X028394Y014033D01*
X028355Y014001D01*
X028314Y013972D01*
X028271Y013946D01*
X028226Y013924D01*
X028180Y013906D01*
X028132Y013891D01*
X028083Y013880D01*
X028034Y013873D01*
X027984Y013870D01*
X027933Y013871D01*
X027884Y013876D01*
X027834Y013885D01*
X027786Y013898D01*
X027739Y013914D01*
X027693Y013935D01*
X027649Y013959D01*
X027607Y013986D01*
X027567Y014016D01*
X027530Y014050D01*
X027496Y014087D01*
X027464Y014126D01*
X027436Y014167D01*
X027411Y014211D01*
X027390Y014256D01*
X027373Y014303D01*
X027359Y014351D01*
X027349Y014400D01*
X027343Y014450D01*
X027341Y014500D01*
X027341Y003500D02*
X027343Y003550D01*
X027349Y003600D01*
X027359Y003649D01*
X027373Y003697D01*
X027390Y003744D01*
X027411Y003789D01*
X027436Y003833D01*
X027464Y003874D01*
X027496Y003913D01*
X027530Y003950D01*
X027567Y003984D01*
X027607Y004014D01*
X027649Y004041D01*
X027693Y004065D01*
X027739Y004086D01*
X027786Y004102D01*
X027834Y004115D01*
X027884Y004124D01*
X027933Y004129D01*
X027984Y004130D01*
X028034Y004127D01*
X028083Y004120D01*
X028132Y004109D01*
X028180Y004094D01*
X028226Y004076D01*
X028271Y004054D01*
X028314Y004028D01*
X028355Y003999D01*
X028394Y003967D01*
X028430Y003932D01*
X028462Y003894D01*
X028492Y003854D01*
X028519Y003811D01*
X028542Y003767D01*
X028561Y003721D01*
X028577Y003673D01*
X028589Y003624D01*
X028597Y003575D01*
X028601Y003525D01*
X028601Y003475D01*
X028597Y003425D01*
X028589Y003376D01*
X028577Y003327D01*
X028561Y003279D01*
X028542Y003233D01*
X028519Y003189D01*
X028492Y003146D01*
X028462Y003106D01*
X028430Y003068D01*
X028394Y003033D01*
X028355Y003001D01*
X028314Y002972D01*
X028271Y002946D01*
X028226Y002924D01*
X028180Y002906D01*
X028132Y002891D01*
X028083Y002880D01*
X028034Y002873D01*
X027984Y002870D01*
X027933Y002871D01*
X027884Y002876D01*
X027834Y002885D01*
X027786Y002898D01*
X027739Y002914D01*
X027693Y002935D01*
X027649Y002959D01*
X027607Y002986D01*
X027567Y003016D01*
X027530Y003050D01*
X027496Y003087D01*
X027464Y003126D01*
X027436Y003167D01*
X027411Y003211D01*
X027390Y003256D01*
X027373Y003303D01*
X027359Y003351D01*
X027349Y003400D01*
X027343Y003450D01*
X027341Y003500D01*
M02*
