G75*
G70*
%OFA0B0*%
%FSLAX24Y24*%
%IPPOS*%
%LPD*%
%AMOC8*
5,1,8,0,0,1.08239X$1,22.5*
%
%ADD10C,0.0591*%
%ADD11C,0.0650*%
%ADD12C,0.1210*%
%ADD13C,0.0337*%
%ADD14C,0.0376*%
%ADD15C,0.0160*%
%ADD16C,0.0270*%
%ADD17C,0.0531*%
%ADD18C,0.0945*%
D10*
X012971Y001500D03*
X013971Y001500D03*
X014971Y001500D03*
X015971Y001500D03*
X016971Y001500D03*
X017971Y001500D03*
X018971Y001500D03*
X019971Y001500D03*
X021971Y001500D03*
X022971Y001500D03*
X023971Y001500D03*
X024971Y001500D03*
X025971Y001500D03*
X026971Y001500D03*
X027021Y010500D03*
X028021Y010500D03*
X028021Y011500D03*
X027021Y011500D03*
X027021Y012500D03*
X028021Y012500D03*
X026971Y020500D03*
X025971Y020500D03*
X024971Y020500D03*
X023971Y020500D03*
X022971Y020500D03*
X021971Y020500D03*
X020971Y020500D03*
X019971Y020500D03*
X018371Y020500D03*
X017371Y020500D03*
X016371Y020500D03*
X015371Y020500D03*
X014371Y020500D03*
X013371Y020500D03*
X012371Y020500D03*
X011371Y020500D03*
X010371Y020500D03*
X009371Y020500D03*
D11*
X003371Y010400D03*
X003371Y009400D03*
X003371Y008400D03*
X003371Y007400D03*
X003371Y006400D03*
X003371Y005400D03*
X003371Y004400D03*
X003371Y003400D03*
X003371Y002400D03*
X003371Y001400D03*
D12*
X008059Y002860D03*
X012084Y002860D03*
D13*
X014221Y002650D03*
X015971Y002850D03*
X016421Y002250D03*
X016471Y003600D03*
X018171Y003100D03*
X018871Y008100D03*
X019071Y008600D03*
X018771Y009200D03*
X019171Y009500D03*
X020771Y009500D03*
X020871Y008600D03*
X023771Y009000D03*
X025371Y008650D03*
X025571Y009150D03*
X025321Y009700D03*
X023432Y013450D03*
X022171Y013500D03*
X022171Y014700D03*
X020571Y014000D03*
X019171Y012400D03*
X018021Y012300D03*
X016621Y012850D03*
X017271Y014250D03*
X016471Y016200D03*
X018021Y016450D03*
X019021Y017550D03*
X017021Y017650D03*
X016071Y017650D03*
X015271Y017800D03*
X012671Y017000D03*
X012321Y017450D03*
X011421Y017000D03*
X009771Y016150D03*
X008821Y016050D03*
X007671Y015950D03*
X006671Y016000D03*
X005571Y015500D03*
X005071Y014400D03*
X004471Y014400D03*
X004071Y013700D03*
X002771Y012900D03*
X004721Y011300D03*
X004171Y011100D03*
X004671Y010600D03*
X006371Y011700D03*
X006771Y017750D03*
X005771Y018400D03*
X007021Y019500D03*
X008671Y017800D03*
X012671Y019000D03*
X004371Y019500D03*
X002221Y019600D03*
X017171Y009400D03*
X017071Y008500D03*
X020071Y011100D03*
X024971Y005200D03*
X022171Y017900D03*
X002471Y002500D03*
D14*
X016571Y006550D03*
X016621Y007450D03*
X016671Y012000D03*
X024871Y013900D03*
X024971Y011300D03*
X025871Y011300D03*
D15*
X001701Y021270D02*
X001701Y000730D01*
X012211Y000730D01*
X012211Y001735D01*
X012251Y001831D01*
X012324Y001904D01*
X012324Y001904D01*
X012567Y002147D01*
X012567Y002147D01*
X012640Y002220D01*
X012736Y002260D01*
X016073Y002260D01*
X016073Y002319D01*
X016126Y002447D01*
X016224Y002545D01*
X016352Y002598D01*
X016491Y002598D01*
X016619Y002545D01*
X016717Y002447D01*
X016770Y002319D01*
X016770Y002260D01*
X021481Y002260D01*
X021394Y002348D01*
X021326Y002511D01*
X021326Y002689D01*
X021394Y002852D01*
X021519Y002978D01*
X021683Y003046D01*
X021860Y003046D01*
X022024Y002978D01*
X022149Y002852D01*
X022217Y002689D01*
X022217Y002511D01*
X022149Y002348D01*
X022062Y002260D01*
X025343Y002260D01*
X025911Y002829D01*
X025911Y009060D01*
X025867Y008953D01*
X025769Y008855D01*
X025679Y008818D01*
X025720Y008719D01*
X025720Y008581D01*
X025667Y008453D01*
X025569Y008355D01*
X025441Y008302D01*
X025302Y008302D01*
X025174Y008355D01*
X025076Y008453D01*
X025023Y008581D01*
X025023Y008719D01*
X025076Y008847D01*
X025174Y008945D01*
X025264Y008982D01*
X025223Y009081D01*
X025223Y009219D01*
X025276Y009347D01*
X025280Y009352D01*
X025252Y009352D01*
X025124Y009405D01*
X025026Y009503D01*
X024973Y009631D01*
X024973Y009769D01*
X025026Y009897D01*
X025124Y009995D01*
X025232Y010040D01*
X024780Y010040D01*
X024685Y010080D01*
X024324Y010440D01*
X024251Y010513D01*
X024211Y010609D01*
X024211Y014526D01*
X023170Y014540D01*
X023120Y014540D01*
X023118Y014541D01*
X023116Y014541D01*
X023070Y014560D01*
X023024Y014580D01*
X023023Y014581D01*
X023021Y014582D01*
X022986Y014617D01*
X022951Y014653D01*
X022950Y014654D01*
X022949Y014656D01*
X022931Y014702D01*
X022911Y014748D01*
X022911Y014750D01*
X022911Y014752D01*
X022911Y014802D01*
X022911Y019286D01*
X022258Y019940D01*
X009206Y019940D01*
X009103Y019940D01*
X009007Y019980D01*
X008780Y020206D01*
X008700Y020013D01*
X008459Y019771D01*
X008143Y019640D01*
X007800Y019640D01*
X007484Y019771D01*
X007242Y020013D01*
X007112Y020329D01*
X007112Y020671D01*
X007242Y020987D01*
X007484Y021229D01*
X007583Y021270D01*
X001701Y021270D01*
X001701Y021264D02*
X007568Y021264D01*
X007360Y021105D02*
X001701Y021105D01*
X001701Y020947D02*
X007226Y020947D01*
X007160Y020788D02*
X001701Y020788D01*
X001701Y020630D02*
X002535Y020630D01*
X002541Y020636D02*
X002426Y020521D01*
X002364Y020372D01*
X002364Y020210D01*
X002426Y020060D01*
X002541Y019945D01*
X002690Y019883D01*
X002852Y019883D01*
X003002Y019945D01*
X003117Y020060D01*
X003179Y020210D01*
X003179Y020372D01*
X003117Y020521D01*
X003002Y020636D01*
X002852Y020698D01*
X002690Y020698D01*
X002541Y020636D01*
X002406Y020471D02*
X001701Y020471D01*
X001701Y020313D02*
X002364Y020313D01*
X002387Y020154D02*
X001701Y020154D01*
X001701Y019996D02*
X002491Y019996D01*
X002419Y019895D02*
X002291Y019948D01*
X002152Y019948D01*
X002024Y019895D01*
X001926Y019797D01*
X001873Y019669D01*
X001873Y019531D01*
X001926Y019403D01*
X002024Y019305D01*
X002152Y019252D01*
X002291Y019252D01*
X002410Y019301D01*
X002364Y019190D01*
X002364Y019028D01*
X002426Y018879D01*
X002541Y018764D01*
X002690Y018702D01*
X002852Y018702D01*
X003002Y018764D01*
X003117Y018879D01*
X003179Y019028D01*
X003179Y019190D01*
X003117Y019340D01*
X003002Y019455D01*
X002852Y019517D01*
X002690Y019517D01*
X002541Y019455D01*
X002537Y019450D01*
X002570Y019531D01*
X002570Y019669D01*
X002517Y019797D01*
X002419Y019895D01*
X002477Y019837D02*
X004275Y019837D01*
X004302Y019848D02*
X004174Y019795D01*
X004076Y019697D01*
X004023Y019569D01*
X004023Y019431D01*
X004076Y019303D01*
X004174Y019205D01*
X004302Y019152D01*
X004441Y019152D01*
X004569Y019205D01*
X004667Y019303D01*
X004720Y019431D01*
X004720Y019569D01*
X004667Y019697D01*
X004569Y019795D01*
X004441Y019848D01*
X004302Y019848D01*
X004468Y019837D02*
X006925Y019837D01*
X006952Y019848D02*
X006824Y019795D01*
X006726Y019697D01*
X006673Y019569D01*
X006673Y019431D01*
X006726Y019303D01*
X006824Y019205D01*
X006952Y019152D01*
X007091Y019152D01*
X007219Y019205D01*
X007317Y019303D01*
X007370Y019431D01*
X007370Y019569D01*
X007317Y019697D01*
X007219Y019795D01*
X007091Y019848D01*
X006952Y019848D01*
X007118Y019837D02*
X007418Y019837D01*
X007325Y019679D02*
X007708Y019679D01*
X007370Y019520D02*
X022678Y019520D01*
X022836Y019362D02*
X007341Y019362D01*
X007215Y019203D02*
X022911Y019203D01*
X022911Y019045D02*
X003179Y019045D01*
X003173Y019203D02*
X004178Y019203D01*
X004052Y019362D02*
X003095Y019362D01*
X003120Y018886D02*
X022911Y018886D01*
X022911Y018728D02*
X005891Y018728D01*
X005841Y018748D02*
X005702Y018748D01*
X005574Y018695D01*
X005476Y018597D01*
X005423Y018469D01*
X005423Y018331D01*
X005476Y018203D01*
X005574Y018105D01*
X005702Y018052D01*
X005841Y018052D01*
X005969Y018105D01*
X006067Y018203D01*
X006120Y018331D01*
X006120Y018469D01*
X006067Y018597D01*
X005969Y018695D01*
X005841Y018748D01*
X005652Y018728D02*
X002913Y018728D01*
X002630Y018728D02*
X001701Y018728D01*
X001701Y018886D02*
X002423Y018886D01*
X002364Y019045D02*
X001701Y019045D01*
X001701Y019203D02*
X002370Y019203D01*
X002565Y019520D02*
X004023Y019520D01*
X004068Y019679D02*
X002566Y019679D01*
X003052Y019996D02*
X007260Y019996D01*
X007184Y020154D02*
X003156Y020154D01*
X003179Y020313D02*
X007118Y020313D01*
X007112Y020471D02*
X003137Y020471D01*
X003008Y020630D02*
X007112Y020630D01*
X006718Y019679D02*
X004675Y019679D01*
X004720Y019520D02*
X006673Y019520D01*
X006702Y019362D02*
X004691Y019362D01*
X004565Y019203D02*
X006828Y019203D01*
X006079Y018569D02*
X022911Y018569D01*
X022911Y018411D02*
X006120Y018411D01*
X006087Y018252D02*
X022911Y018252D01*
X022911Y018094D02*
X022468Y018094D01*
X022467Y018097D02*
X022369Y018195D01*
X022241Y018248D01*
X022102Y018248D01*
X021974Y018195D01*
X021876Y018097D01*
X021823Y017969D01*
X021823Y017831D01*
X021876Y017703D01*
X021974Y017605D01*
X022102Y017552D01*
X022241Y017552D01*
X022369Y017605D01*
X022467Y017703D01*
X022520Y017831D01*
X022520Y017969D01*
X022467Y018097D01*
X022520Y017935D02*
X022911Y017935D01*
X022911Y017777D02*
X022497Y017777D01*
X022382Y017618D02*
X022911Y017618D01*
X022911Y017460D02*
X019361Y017460D01*
X019370Y017481D02*
X019317Y017353D01*
X019219Y017255D01*
X019091Y017202D01*
X018952Y017202D01*
X018824Y017255D01*
X018726Y017353D01*
X018673Y017481D01*
X018673Y017619D01*
X018726Y017747D01*
X018824Y017845D01*
X018952Y017898D01*
X019091Y017898D01*
X019219Y017845D01*
X019317Y017747D01*
X019370Y017619D01*
X019370Y017481D01*
X019370Y017618D02*
X021961Y017618D01*
X021845Y017777D02*
X019288Y017777D01*
X019265Y017301D02*
X022911Y017301D01*
X022911Y017143D02*
X012990Y017143D01*
X012967Y017197D02*
X012869Y017295D01*
X012741Y017348D01*
X012657Y017348D01*
X012670Y017381D01*
X012670Y017519D01*
X012617Y017647D01*
X012519Y017745D01*
X012391Y017798D01*
X012252Y017798D01*
X012124Y017745D01*
X012026Y017647D01*
X011973Y017519D01*
X011973Y017381D01*
X012026Y017253D01*
X012124Y017155D01*
X012252Y017102D01*
X012336Y017102D01*
X012323Y017069D01*
X012323Y016931D01*
X012376Y016803D01*
X012474Y016705D01*
X012602Y016652D01*
X012741Y016652D01*
X012869Y016705D01*
X012967Y016803D01*
X013020Y016931D01*
X013020Y017069D01*
X012967Y017197D01*
X012855Y017301D02*
X017770Y017301D01*
X017719Y017322D02*
X017883Y017254D01*
X018060Y017254D01*
X018224Y017322D01*
X018349Y017448D01*
X018417Y017611D01*
X018417Y017789D01*
X018349Y017952D01*
X018224Y018078D01*
X018060Y018146D01*
X017883Y018146D01*
X017719Y018078D01*
X017594Y017952D01*
X017526Y017789D01*
X017526Y017611D01*
X017594Y017448D01*
X017719Y017322D01*
X017589Y017460D02*
X016370Y017460D01*
X016367Y017453D02*
X016420Y017581D01*
X016420Y017719D01*
X016367Y017847D01*
X016269Y017945D01*
X016141Y017998D01*
X016002Y017998D01*
X015874Y017945D01*
X015776Y017847D01*
X015723Y017719D01*
X015723Y017581D01*
X015776Y017453D01*
X015874Y017355D01*
X016002Y017302D01*
X016141Y017302D01*
X016269Y017355D01*
X016367Y017453D01*
X016420Y017618D02*
X017526Y017618D01*
X017526Y017777D02*
X016396Y017777D01*
X016279Y017935D02*
X017586Y017935D01*
X017757Y018094D02*
X015471Y018094D01*
X015469Y018095D02*
X015341Y018148D01*
X015202Y018148D01*
X015074Y018095D01*
X014976Y017997D01*
X014923Y017869D01*
X014923Y017731D01*
X014976Y017603D01*
X015074Y017505D01*
X015202Y017452D01*
X015341Y017452D01*
X015469Y017505D01*
X015567Y017603D01*
X015620Y017731D01*
X015620Y017869D01*
X015567Y017997D01*
X015469Y018095D01*
X015593Y017935D02*
X015864Y017935D01*
X015747Y017777D02*
X015620Y017777D01*
X015573Y017618D02*
X015723Y017618D01*
X015773Y017460D02*
X015360Y017460D01*
X015183Y017460D02*
X012670Y017460D01*
X012629Y017618D02*
X014970Y017618D01*
X014923Y017777D02*
X012444Y017777D01*
X012199Y017777D02*
X009020Y017777D01*
X009020Y017731D02*
X008967Y017603D01*
X008869Y017505D01*
X008741Y017452D01*
X008602Y017452D01*
X008474Y017505D01*
X008376Y017603D01*
X008323Y017731D01*
X008323Y017869D01*
X008376Y017997D01*
X008474Y018095D01*
X008602Y018148D01*
X008741Y018148D01*
X008869Y018095D01*
X008967Y017997D01*
X009020Y017869D01*
X009020Y017731D01*
X008973Y017618D02*
X012014Y017618D01*
X011973Y017460D02*
X008760Y017460D01*
X008583Y017460D02*
X006974Y017460D01*
X006969Y017455D02*
X007067Y017553D01*
X007120Y017681D01*
X007120Y017819D01*
X007067Y017947D01*
X006969Y018045D01*
X006841Y018098D01*
X006702Y018098D01*
X006574Y018045D01*
X006476Y017947D01*
X006423Y017819D01*
X006423Y017681D01*
X006476Y017553D01*
X006574Y017455D01*
X006702Y017402D01*
X006841Y017402D01*
X006969Y017455D01*
X007094Y017618D02*
X008370Y017618D01*
X008323Y017777D02*
X007120Y017777D01*
X007072Y017935D02*
X008350Y017935D01*
X008472Y018094D02*
X006853Y018094D01*
X006690Y018094D02*
X005942Y018094D01*
X006471Y017935D02*
X001701Y017935D01*
X001701Y017777D02*
X006423Y017777D01*
X006449Y017618D02*
X001701Y017618D01*
X001701Y017460D02*
X006569Y017460D01*
X005601Y018094D02*
X001701Y018094D01*
X001701Y018252D02*
X005456Y018252D01*
X005423Y018411D02*
X001701Y018411D01*
X001701Y018569D02*
X005464Y018569D01*
X008235Y019679D02*
X022519Y019679D01*
X022361Y019837D02*
X008525Y019837D01*
X008683Y019996D02*
X008991Y019996D01*
X008833Y020154D02*
X008759Y020154D01*
X008896Y020458D02*
X008871Y020483D01*
X008871Y021270D01*
X027276Y021270D01*
X027741Y020805D01*
X027741Y016305D01*
X027876Y016170D01*
X028741Y015305D01*
X028741Y014888D01*
X028700Y014987D01*
X028459Y015229D01*
X028143Y015360D01*
X027800Y015360D01*
X027484Y015229D01*
X027242Y014987D01*
X027112Y014671D01*
X027112Y014329D01*
X027242Y014013D01*
X027484Y013771D01*
X027800Y013640D01*
X028143Y013640D01*
X028459Y013771D01*
X028700Y014013D01*
X028741Y014112D01*
X028741Y003888D01*
X028700Y003987D01*
X028459Y004229D01*
X028143Y004360D01*
X027800Y004360D01*
X027484Y004229D01*
X027242Y003987D01*
X026171Y003987D01*
X026171Y003829D02*
X027177Y003829D01*
X027112Y003671D02*
X027112Y003329D01*
X027242Y003013D01*
X027484Y002771D01*
X027800Y002640D01*
X028143Y002640D01*
X028459Y002771D01*
X028700Y003013D01*
X028741Y003112D01*
X028741Y002595D01*
X027741Y001595D01*
X027741Y000730D01*
X012471Y000730D01*
X012471Y001684D01*
X012788Y002000D01*
X016179Y002000D01*
X016224Y001955D01*
X016352Y001902D01*
X016491Y001902D01*
X016619Y001955D01*
X016664Y002000D01*
X025450Y002000D01*
X026171Y002721D01*
X026171Y009629D01*
X025501Y010300D01*
X024832Y010300D01*
X024471Y010661D01*
X024471Y014783D01*
X023171Y014800D01*
X023171Y019394D01*
X022365Y020200D01*
X022344Y020200D01*
X022374Y020231D01*
X022447Y020405D01*
X022447Y020595D01*
X022374Y020769D01*
X022241Y020903D01*
X022066Y020975D01*
X021877Y020975D01*
X021702Y020903D01*
X021569Y020769D01*
X021496Y020595D01*
X021496Y020405D01*
X021569Y020231D01*
X021599Y020200D01*
X021344Y020200D01*
X021374Y020231D01*
X021447Y020405D01*
X021447Y020595D01*
X021374Y020769D01*
X021241Y020903D01*
X021066Y020975D01*
X020877Y020975D01*
X020702Y020903D01*
X020569Y020769D01*
X020496Y020595D01*
X020496Y020405D01*
X020569Y020231D01*
X020599Y020200D01*
X020344Y020200D01*
X020374Y020231D01*
X020447Y020405D01*
X020447Y020595D01*
X020374Y020769D01*
X020241Y020903D01*
X020066Y020975D01*
X019877Y020975D01*
X019702Y020903D01*
X019569Y020769D01*
X019496Y020595D01*
X019496Y020405D01*
X019569Y020231D01*
X019599Y020200D01*
X018744Y020200D01*
X018774Y020231D01*
X018847Y020405D01*
X018847Y020595D01*
X018774Y020769D01*
X018641Y020903D01*
X018466Y020975D01*
X018277Y020975D01*
X018102Y020903D01*
X017969Y020769D01*
X017896Y020595D01*
X017896Y020405D01*
X017969Y020231D01*
X017999Y020200D01*
X017744Y020200D01*
X017774Y020231D01*
X017847Y020405D01*
X017847Y020595D01*
X017774Y020769D01*
X017641Y020903D01*
X017466Y020975D01*
X017277Y020975D01*
X017102Y020903D01*
X016969Y020769D01*
X016896Y020595D01*
X016896Y020405D01*
X016969Y020231D01*
X016999Y020200D01*
X016744Y020200D01*
X016774Y020231D01*
X016847Y020405D01*
X016847Y020595D01*
X016774Y020769D01*
X016641Y020903D01*
X016466Y020975D01*
X016277Y020975D01*
X016102Y020903D01*
X015969Y020769D01*
X015896Y020595D01*
X015896Y020405D01*
X015969Y020231D01*
X015999Y020200D01*
X015744Y020200D01*
X015774Y020231D01*
X015847Y020405D01*
X015847Y020595D01*
X015774Y020769D01*
X015641Y020903D01*
X015466Y020975D01*
X015277Y020975D01*
X015102Y020903D01*
X014969Y020769D01*
X014896Y020595D01*
X014896Y020405D01*
X014969Y020231D01*
X014999Y020200D01*
X014744Y020200D01*
X014774Y020231D01*
X014847Y020405D01*
X014847Y020595D01*
X014774Y020769D01*
X014641Y020903D01*
X014466Y020975D01*
X014277Y020975D01*
X014102Y020903D01*
X013969Y020769D01*
X013896Y020595D01*
X013896Y020405D01*
X013969Y020231D01*
X013999Y020200D01*
X013744Y020200D01*
X013774Y020231D01*
X013847Y020405D01*
X013847Y020595D01*
X013774Y020769D01*
X013641Y020903D01*
X013466Y020975D01*
X013277Y020975D01*
X013102Y020903D01*
X012969Y020769D01*
X012896Y020595D01*
X012896Y020405D01*
X012969Y020231D01*
X012999Y020200D01*
X012744Y020200D01*
X012774Y020231D01*
X012847Y020405D01*
X012847Y020595D01*
X012774Y020769D01*
X012641Y020903D01*
X012466Y020975D01*
X012277Y020975D01*
X012102Y020903D01*
X011969Y020769D01*
X011896Y020595D01*
X011896Y020405D01*
X011969Y020231D01*
X011999Y020200D01*
X011744Y020200D01*
X011774Y020231D01*
X011847Y020405D01*
X011847Y020595D01*
X011774Y020769D01*
X011641Y020903D01*
X011466Y020975D01*
X011277Y020975D01*
X011102Y020903D01*
X010969Y020769D01*
X010896Y020595D01*
X010896Y020405D01*
X010969Y020231D01*
X010999Y020200D01*
X010744Y020200D01*
X010774Y020231D01*
X010847Y020405D01*
X010847Y020595D01*
X010774Y020769D01*
X010641Y020903D01*
X010466Y020975D01*
X010277Y020975D01*
X010102Y020903D01*
X009969Y020769D01*
X009896Y020595D01*
X009896Y020405D01*
X009969Y020231D01*
X009999Y020200D01*
X009744Y020200D01*
X009774Y020231D01*
X009847Y020405D01*
X009847Y020595D01*
X009774Y020769D01*
X009641Y020903D01*
X009466Y020975D01*
X009277Y020975D01*
X009102Y020903D01*
X008969Y020769D01*
X008896Y020595D01*
X008896Y020458D01*
X008896Y020471D02*
X008883Y020471D01*
X008871Y020630D02*
X008911Y020630D01*
X008871Y020788D02*
X008987Y020788D01*
X008871Y020947D02*
X009208Y020947D01*
X009535Y020947D02*
X010208Y020947D01*
X009987Y020788D02*
X009756Y020788D01*
X009832Y020630D02*
X009911Y020630D01*
X009896Y020471D02*
X009847Y020471D01*
X009808Y020313D02*
X009935Y020313D01*
X010535Y020947D02*
X011208Y020947D01*
X010987Y020788D02*
X010756Y020788D01*
X010832Y020630D02*
X010911Y020630D01*
X010896Y020471D02*
X010847Y020471D01*
X010808Y020313D02*
X010935Y020313D01*
X011535Y020947D02*
X012208Y020947D01*
X011987Y020788D02*
X011756Y020788D01*
X011832Y020630D02*
X011911Y020630D01*
X011896Y020471D02*
X011847Y020471D01*
X011808Y020313D02*
X011935Y020313D01*
X012535Y020947D02*
X013208Y020947D01*
X012987Y020788D02*
X012756Y020788D01*
X012832Y020630D02*
X012911Y020630D01*
X012896Y020471D02*
X012847Y020471D01*
X012808Y020313D02*
X012935Y020313D01*
X013535Y020947D02*
X014208Y020947D01*
X013987Y020788D02*
X013756Y020788D01*
X013832Y020630D02*
X013911Y020630D01*
X013896Y020471D02*
X013847Y020471D01*
X013808Y020313D02*
X013935Y020313D01*
X014535Y020947D02*
X015208Y020947D01*
X014987Y020788D02*
X014756Y020788D01*
X014832Y020630D02*
X014911Y020630D01*
X014896Y020471D02*
X014847Y020471D01*
X014808Y020313D02*
X014935Y020313D01*
X015535Y020947D02*
X016208Y020947D01*
X015987Y020788D02*
X015756Y020788D01*
X015832Y020630D02*
X015911Y020630D01*
X015896Y020471D02*
X015847Y020471D01*
X015808Y020313D02*
X015935Y020313D01*
X016535Y020947D02*
X017208Y020947D01*
X016987Y020788D02*
X016756Y020788D01*
X016832Y020630D02*
X016911Y020630D01*
X016896Y020471D02*
X016847Y020471D01*
X016808Y020313D02*
X016935Y020313D01*
X017756Y020788D02*
X017987Y020788D01*
X017911Y020630D02*
X017832Y020630D01*
X017847Y020471D02*
X017896Y020471D01*
X017935Y020313D02*
X017808Y020313D01*
X017535Y020947D02*
X018208Y020947D01*
X018535Y020947D02*
X019808Y020947D01*
X019587Y020788D02*
X018756Y020788D01*
X018832Y020630D02*
X019511Y020630D01*
X019496Y020471D02*
X018847Y020471D01*
X018808Y020313D02*
X019535Y020313D01*
X020135Y020947D02*
X020808Y020947D01*
X020587Y020788D02*
X020356Y020788D01*
X020432Y020630D02*
X020511Y020630D01*
X020496Y020471D02*
X020447Y020471D01*
X020408Y020313D02*
X020535Y020313D01*
X021135Y020947D02*
X021808Y020947D01*
X021587Y020788D02*
X021356Y020788D01*
X021432Y020630D02*
X021511Y020630D01*
X021496Y020471D02*
X021447Y020471D01*
X021408Y020313D02*
X021535Y020313D01*
X022135Y020947D02*
X022808Y020947D01*
X022877Y020975D02*
X022702Y020903D01*
X022569Y020769D01*
X022496Y020595D01*
X022496Y020405D01*
X022569Y020231D01*
X022702Y020097D01*
X022877Y020025D01*
X023066Y020025D01*
X023241Y020097D01*
X023374Y020231D01*
X023447Y020405D01*
X023447Y020595D01*
X023374Y020769D01*
X023241Y020903D01*
X023066Y020975D01*
X022877Y020975D01*
X023135Y020947D02*
X023808Y020947D01*
X023877Y020975D02*
X023702Y020903D01*
X023569Y020769D01*
X023496Y020595D01*
X023496Y020405D01*
X023569Y020231D01*
X023702Y020097D01*
X023877Y020025D01*
X024066Y020025D01*
X024241Y020097D01*
X024374Y020231D01*
X024447Y020405D01*
X024447Y020595D01*
X024374Y020769D01*
X024241Y020903D01*
X024066Y020975D01*
X023877Y020975D01*
X024135Y020947D02*
X024808Y020947D01*
X024877Y020975D02*
X024702Y020903D01*
X024569Y020769D01*
X024496Y020595D01*
X024496Y020405D01*
X024569Y020231D01*
X024702Y020097D01*
X024877Y020025D01*
X025066Y020025D01*
X025241Y020097D01*
X025374Y020231D01*
X025447Y020405D01*
X025447Y020595D01*
X025374Y020769D01*
X025241Y020903D01*
X025066Y020975D01*
X024877Y020975D01*
X025135Y020947D02*
X025808Y020947D01*
X025877Y020975D02*
X025702Y020903D01*
X025569Y020769D01*
X025496Y020595D01*
X025496Y020405D01*
X025569Y020231D01*
X025702Y020097D01*
X025877Y020025D01*
X026066Y020025D01*
X026241Y020097D01*
X026374Y020231D01*
X026447Y020405D01*
X026447Y020595D01*
X026374Y020769D01*
X026241Y020903D01*
X026066Y020975D01*
X025877Y020975D01*
X026135Y020947D02*
X026808Y020947D01*
X026877Y020975D02*
X026702Y020903D01*
X026569Y020769D01*
X026496Y020595D01*
X026496Y020405D01*
X026569Y020231D01*
X026702Y020097D01*
X026877Y020025D01*
X027066Y020025D01*
X027241Y020097D01*
X027374Y020231D01*
X027447Y020405D01*
X027447Y020595D01*
X027374Y020769D01*
X027241Y020903D01*
X027066Y020975D01*
X026877Y020975D01*
X027135Y020947D02*
X027600Y020947D01*
X027741Y020788D02*
X027356Y020788D01*
X027432Y020630D02*
X027741Y020630D01*
X027741Y020471D02*
X027447Y020471D01*
X027408Y020313D02*
X027741Y020313D01*
X027741Y020154D02*
X027298Y020154D01*
X027741Y019996D02*
X022570Y019996D01*
X022645Y020154D02*
X022411Y020154D01*
X022408Y020313D02*
X022535Y020313D01*
X022496Y020471D02*
X022447Y020471D01*
X022432Y020630D02*
X022511Y020630D01*
X022587Y020788D02*
X022356Y020788D01*
X023356Y020788D02*
X023587Y020788D01*
X023511Y020630D02*
X023432Y020630D01*
X023447Y020471D02*
X023496Y020471D01*
X023535Y020313D02*
X023408Y020313D01*
X023298Y020154D02*
X023645Y020154D01*
X024298Y020154D02*
X024645Y020154D01*
X024535Y020313D02*
X024408Y020313D01*
X024447Y020471D02*
X024496Y020471D01*
X024511Y020630D02*
X024432Y020630D01*
X024356Y020788D02*
X024587Y020788D01*
X025356Y020788D02*
X025587Y020788D01*
X025511Y020630D02*
X025432Y020630D01*
X025447Y020471D02*
X025496Y020471D01*
X025535Y020313D02*
X025408Y020313D01*
X025298Y020154D02*
X025645Y020154D01*
X026298Y020154D02*
X026645Y020154D01*
X026535Y020313D02*
X026408Y020313D01*
X026447Y020471D02*
X026496Y020471D01*
X026511Y020630D02*
X026432Y020630D01*
X026356Y020788D02*
X026587Y020788D01*
X027283Y021264D02*
X008871Y021264D01*
X008871Y021105D02*
X027441Y021105D01*
X027741Y019837D02*
X022728Y019837D01*
X022887Y019679D02*
X027741Y019679D01*
X027741Y019520D02*
X023045Y019520D01*
X023171Y019362D02*
X027741Y019362D01*
X027741Y019203D02*
X023171Y019203D01*
X023171Y019045D02*
X027741Y019045D01*
X027741Y018886D02*
X023171Y018886D01*
X023171Y018728D02*
X027741Y018728D01*
X027741Y018569D02*
X023171Y018569D01*
X023171Y018411D02*
X027741Y018411D01*
X027741Y018252D02*
X023171Y018252D01*
X023171Y018094D02*
X027741Y018094D01*
X027741Y017935D02*
X023171Y017935D01*
X023171Y017777D02*
X027741Y017777D01*
X027741Y017618D02*
X023171Y017618D01*
X023171Y017460D02*
X027741Y017460D01*
X027741Y017301D02*
X023171Y017301D01*
X023171Y017143D02*
X027741Y017143D01*
X027741Y016984D02*
X023171Y016984D01*
X023171Y016826D02*
X027741Y016826D01*
X027741Y016667D02*
X023171Y016667D01*
X023171Y016509D02*
X027741Y016509D01*
X027741Y016350D02*
X023171Y016350D01*
X023171Y016192D02*
X027855Y016192D01*
X028013Y016033D02*
X023171Y016033D01*
X023171Y015875D02*
X028172Y015875D01*
X028330Y015716D02*
X023171Y015716D01*
X023171Y015558D02*
X028489Y015558D01*
X028647Y015399D02*
X023171Y015399D01*
X023171Y015241D02*
X027512Y015241D01*
X027337Y015082D02*
X023171Y015082D01*
X023171Y014924D02*
X027216Y014924D01*
X027150Y014765D02*
X024471Y014765D01*
X024471Y014607D02*
X027112Y014607D01*
X027112Y014448D02*
X024471Y014448D01*
X024471Y014290D02*
X027128Y014290D01*
X027194Y014131D02*
X025161Y014131D01*
X025184Y014109D02*
X025080Y014212D01*
X024945Y014268D01*
X024798Y014268D01*
X024663Y014212D01*
X024559Y014109D01*
X024503Y013973D01*
X024503Y013827D01*
X024559Y013691D01*
X024663Y013588D01*
X024798Y013532D01*
X024945Y013532D01*
X025080Y013588D01*
X025184Y013691D01*
X025240Y013827D01*
X025240Y013973D01*
X025184Y014109D01*
X025240Y013973D02*
X027283Y013973D01*
X027441Y013814D02*
X025234Y013814D01*
X025148Y013656D02*
X027763Y013656D01*
X028180Y013656D02*
X028741Y013656D01*
X028741Y013814D02*
X028502Y013814D01*
X028660Y013973D02*
X028741Y013973D01*
X028741Y013497D02*
X024471Y013497D01*
X024471Y013339D02*
X028741Y013339D01*
X028741Y013180D02*
X024471Y013180D01*
X024471Y013022D02*
X028741Y013022D01*
X028741Y012863D02*
X027331Y012863D01*
X027291Y012903D02*
X027116Y012975D01*
X026927Y012975D01*
X026752Y012903D01*
X026619Y012769D01*
X026546Y012595D01*
X026546Y012405D01*
X026619Y012231D01*
X026752Y012097D01*
X026927Y012025D01*
X027116Y012025D01*
X027291Y012097D01*
X027424Y012231D01*
X027497Y012405D01*
X027497Y012595D01*
X027424Y012769D01*
X027291Y012903D01*
X027451Y012705D02*
X028741Y012705D01*
X028741Y012546D02*
X027497Y012546D01*
X027489Y012388D02*
X028741Y012388D01*
X028741Y012229D02*
X027423Y012229D01*
X027227Y012071D02*
X028741Y012071D01*
X028741Y011912D02*
X028269Y011912D01*
X028291Y011903D02*
X028116Y011975D01*
X027927Y011975D01*
X027752Y011903D01*
X027619Y011769D01*
X027546Y011595D01*
X027497Y011595D01*
X027424Y011769D01*
X027291Y011903D01*
X027116Y011975D01*
X026927Y011975D01*
X026752Y011903D01*
X026619Y011769D01*
X026546Y011595D01*
X025197Y011595D01*
X025180Y011612D02*
X025045Y011668D01*
X024898Y011668D01*
X024763Y011612D01*
X024659Y011509D01*
X024603Y011373D01*
X024603Y011227D01*
X024659Y011091D01*
X024763Y010988D01*
X024898Y010932D01*
X025045Y010932D01*
X025180Y010988D01*
X025284Y011091D01*
X025340Y011227D01*
X025340Y011373D01*
X025284Y011509D01*
X025180Y011612D01*
X025313Y011437D02*
X026546Y011437D01*
X026546Y011405D02*
X026619Y011231D01*
X026752Y011097D01*
X026927Y011025D01*
X027116Y011025D01*
X027291Y011097D01*
X027424Y011231D01*
X027497Y011405D01*
X027497Y011595D01*
X027546Y011595D02*
X027546Y011405D01*
X027619Y011231D01*
X027752Y011097D01*
X027927Y011025D01*
X028116Y011025D01*
X028291Y011097D01*
X028424Y011231D01*
X028497Y011405D01*
X028497Y011595D01*
X028741Y011595D01*
X028741Y011437D02*
X028497Y011437D01*
X028497Y011595D02*
X028424Y011769D01*
X028291Y011903D01*
X028431Y011754D02*
X028741Y011754D01*
X028741Y011278D02*
X028444Y011278D01*
X028313Y011120D02*
X028741Y011120D01*
X028741Y010961D02*
X028150Y010961D01*
X028116Y010975D02*
X027927Y010975D01*
X027752Y010903D01*
X027619Y010769D01*
X027546Y010595D01*
X027546Y010405D01*
X027619Y010231D01*
X027752Y010097D01*
X027927Y010025D01*
X028116Y010025D01*
X028291Y010097D01*
X028424Y010231D01*
X028497Y010405D01*
X028497Y010595D01*
X028424Y010769D01*
X028291Y010903D01*
X028116Y010975D01*
X027892Y010961D02*
X027150Y010961D01*
X027116Y010975D02*
X026927Y010975D01*
X026752Y010903D01*
X026619Y010769D01*
X026546Y010595D01*
X026546Y010405D01*
X026619Y010231D01*
X026752Y010097D01*
X026927Y010025D01*
X027116Y010025D01*
X027291Y010097D01*
X027424Y010231D01*
X027497Y010405D01*
X027497Y010595D01*
X027424Y010769D01*
X027291Y010903D01*
X027116Y010975D01*
X026892Y010961D02*
X025115Y010961D01*
X025295Y011120D02*
X026730Y011120D01*
X026599Y011278D02*
X025340Y011278D01*
X024828Y010961D02*
X024471Y010961D01*
X024471Y010803D02*
X026652Y010803D01*
X026567Y010644D02*
X024488Y010644D01*
X024646Y010486D02*
X026546Y010486D01*
X026579Y010327D02*
X024805Y010327D01*
X024596Y010169D02*
X024433Y010169D01*
X024449Y010152D02*
X024324Y010278D01*
X024160Y010346D01*
X023983Y010346D01*
X023819Y010278D01*
X023694Y010152D01*
X023626Y009989D01*
X023626Y009811D01*
X023694Y009648D01*
X023819Y009522D01*
X023983Y009454D01*
X024160Y009454D01*
X024324Y009522D01*
X024449Y009648D01*
X024517Y009811D01*
X024517Y009989D01*
X024449Y010152D01*
X024508Y010010D02*
X025159Y010010D01*
X025007Y009852D02*
X024517Y009852D01*
X024468Y009693D02*
X024973Y009693D01*
X025013Y009535D02*
X024336Y009535D01*
X023807Y009535D02*
X019520Y009535D01*
X019520Y009569D02*
X019520Y009431D01*
X019467Y009303D01*
X019369Y009205D01*
X019241Y009152D01*
X019102Y009152D01*
X018974Y009205D01*
X018876Y009303D01*
X018823Y009431D01*
X018823Y009569D01*
X018876Y009697D01*
X018974Y009795D01*
X019102Y009848D01*
X019241Y009848D01*
X019369Y009795D01*
X019467Y009697D01*
X019520Y009569D01*
X019469Y009693D02*
X023675Y009693D01*
X023626Y009852D02*
X003601Y009852D01*
X003657Y009828D02*
X003483Y009900D01*
X003657Y009972D01*
X003799Y010114D01*
X003876Y010300D01*
X003876Y010500D01*
X003799Y010686D01*
X003657Y010828D01*
X003472Y010905D01*
X003271Y010905D01*
X003086Y010828D01*
X002944Y010686D01*
X002867Y010500D01*
X002867Y010300D01*
X002944Y010114D01*
X003086Y009972D01*
X003259Y009900D01*
X003086Y009828D01*
X002944Y009686D01*
X002867Y009500D01*
X002867Y009300D01*
X002944Y009114D01*
X003086Y008972D01*
X003259Y008900D01*
X003086Y008828D01*
X002944Y008686D01*
X002867Y008500D01*
X002867Y008300D01*
X002944Y008114D01*
X003086Y007972D01*
X003259Y007900D01*
X003086Y007828D01*
X002944Y007686D01*
X002867Y007500D01*
X002867Y007300D01*
X002944Y007114D01*
X003086Y006972D01*
X003259Y006900D01*
X003086Y006828D01*
X002944Y006686D01*
X002867Y006500D01*
X002867Y006300D01*
X002944Y006114D01*
X003086Y005972D01*
X003259Y005900D01*
X003086Y005828D01*
X002944Y005686D01*
X002867Y005500D01*
X002867Y005300D01*
X002944Y005114D01*
X003086Y004972D01*
X003271Y004895D01*
X003472Y004895D01*
X003657Y004972D01*
X003799Y005114D01*
X003876Y005300D01*
X003876Y005500D01*
X003799Y005686D01*
X003657Y005828D01*
X003483Y005900D01*
X003657Y005972D01*
X003799Y006114D01*
X003876Y006300D01*
X003876Y006500D01*
X003799Y006686D01*
X003657Y006828D01*
X003483Y006900D01*
X003657Y006972D01*
X003799Y007114D01*
X003876Y007300D01*
X003876Y007500D01*
X003799Y007686D01*
X003657Y007828D01*
X003483Y007900D01*
X003657Y007972D01*
X003799Y008114D01*
X003876Y008300D01*
X003876Y008500D01*
X003799Y008686D01*
X003657Y008828D01*
X003483Y008900D01*
X003657Y008972D01*
X003799Y009114D01*
X003876Y009300D01*
X003876Y009500D01*
X003799Y009686D01*
X003657Y009828D01*
X003695Y010010D02*
X023635Y010010D01*
X023710Y010169D02*
X003822Y010169D01*
X003876Y010327D02*
X004452Y010327D01*
X004474Y010305D02*
X004602Y010252D01*
X004741Y010252D01*
X004869Y010305D01*
X004967Y010403D01*
X005020Y010531D01*
X005020Y010669D01*
X004967Y010797D01*
X004869Y010895D01*
X004741Y010948D01*
X004602Y010948D01*
X004474Y010895D01*
X004376Y010797D01*
X004323Y010669D01*
X004323Y010531D01*
X004376Y010403D01*
X004474Y010305D01*
X004342Y010486D02*
X003876Y010486D01*
X003817Y010644D02*
X004323Y010644D01*
X004241Y010752D02*
X004369Y010805D01*
X004467Y010903D01*
X004520Y011031D01*
X004520Y011169D01*
X004467Y011297D01*
X004369Y011395D01*
X004241Y011448D01*
X004102Y011448D01*
X003974Y011395D01*
X003876Y011297D01*
X003823Y011169D01*
X003823Y011031D01*
X003876Y010903D01*
X003974Y010805D01*
X004102Y010752D01*
X004241Y010752D01*
X004364Y010803D02*
X004381Y010803D01*
X004491Y010961D02*
X016876Y010961D01*
X016944Y010798D01*
X017069Y010672D01*
X017233Y010604D01*
X017410Y010604D01*
X017574Y010672D01*
X017699Y010798D01*
X017767Y010961D01*
X019752Y010961D01*
X019776Y010903D02*
X019874Y010805D01*
X020002Y010752D01*
X020141Y010752D01*
X020269Y010805D01*
X020367Y010903D01*
X020420Y011031D01*
X020420Y011169D01*
X020367Y011297D01*
X020269Y011395D01*
X020141Y011448D01*
X020002Y011448D01*
X019874Y011395D01*
X019776Y011297D01*
X019723Y011169D01*
X019723Y011031D01*
X019776Y010903D01*
X019879Y010803D02*
X017701Y010803D01*
X017767Y010961D02*
X017767Y011139D01*
X017699Y011302D01*
X017574Y011428D01*
X017410Y011496D01*
X017233Y011496D01*
X017069Y011428D01*
X016944Y011302D01*
X016876Y011139D01*
X016876Y010961D01*
X016876Y011120D02*
X004520Y011120D01*
X004475Y011278D02*
X016933Y011278D01*
X017090Y011437D02*
X006601Y011437D01*
X006569Y011405D02*
X006667Y011503D01*
X006720Y011631D01*
X006720Y011769D01*
X006667Y011897D01*
X006569Y011995D01*
X006441Y012048D01*
X006302Y012048D01*
X006174Y011995D01*
X006076Y011897D01*
X006023Y011769D01*
X006023Y011631D01*
X006076Y011503D01*
X006174Y011405D01*
X006302Y011352D01*
X006441Y011352D01*
X006569Y011405D01*
X006705Y011595D02*
X024211Y011595D01*
X024211Y011437D02*
X020170Y011437D01*
X019973Y011437D02*
X017553Y011437D01*
X017709Y011278D02*
X019768Y011278D01*
X019723Y011120D02*
X017767Y011120D01*
X017506Y010644D02*
X024211Y010644D01*
X024211Y010803D02*
X020264Y010803D01*
X020391Y010961D02*
X024211Y010961D01*
X024211Y011120D02*
X020420Y011120D01*
X020375Y011278D02*
X024211Y011278D01*
X024471Y011278D02*
X024603Y011278D01*
X024630Y011437D02*
X024471Y011437D01*
X024471Y011595D02*
X024746Y011595D01*
X024471Y011754D02*
X026612Y011754D01*
X026546Y011595D02*
X026546Y011405D01*
X026774Y011912D02*
X024471Y011912D01*
X024471Y012071D02*
X026816Y012071D01*
X026620Y012229D02*
X024471Y012229D01*
X024471Y012388D02*
X026554Y012388D01*
X026546Y012546D02*
X024471Y012546D01*
X024471Y012705D02*
X026592Y012705D01*
X026712Y012863D02*
X024471Y012863D01*
X024211Y012863D02*
X016970Y012863D01*
X016970Y012919D02*
X016917Y013047D01*
X016819Y013145D01*
X016691Y013198D01*
X016552Y013198D01*
X016424Y013145D01*
X016326Y013047D01*
X016273Y012919D01*
X016273Y012781D01*
X016326Y012653D01*
X016424Y012555D01*
X016552Y012502D01*
X016691Y012502D01*
X016819Y012555D01*
X016917Y012653D01*
X016970Y012781D01*
X016970Y012919D01*
X016928Y013022D02*
X024211Y013022D01*
X024211Y013180D02*
X023655Y013180D01*
X023629Y013155D02*
X023727Y013253D01*
X023780Y013381D01*
X023780Y013519D01*
X023727Y013647D01*
X023629Y013745D01*
X023501Y013798D01*
X023363Y013798D01*
X023235Y013745D01*
X023137Y013647D01*
X023084Y013519D01*
X023084Y013381D01*
X023137Y013253D01*
X023235Y013155D01*
X023363Y013102D01*
X023501Y013102D01*
X023629Y013155D01*
X023763Y013339D02*
X024211Y013339D01*
X024211Y013497D02*
X023780Y013497D01*
X023719Y013656D02*
X024211Y013656D01*
X024211Y013814D02*
X022324Y013814D01*
X022369Y013795D02*
X022241Y013848D01*
X022102Y013848D01*
X021974Y013795D01*
X021876Y013697D01*
X021823Y013569D01*
X021823Y013431D01*
X021876Y013303D01*
X021974Y013205D01*
X022102Y013152D01*
X022241Y013152D01*
X022369Y013205D01*
X022467Y013303D01*
X022520Y013431D01*
X022520Y013569D01*
X022467Y013697D01*
X022369Y013795D01*
X022484Y013656D02*
X023145Y013656D01*
X023084Y013497D02*
X022520Y013497D01*
X022482Y013339D02*
X023101Y013339D01*
X023209Y013180D02*
X022309Y013180D01*
X022033Y013180D02*
X016735Y013180D01*
X016508Y013180D02*
X002984Y013180D01*
X002969Y013195D02*
X002841Y013248D01*
X002702Y013248D01*
X002574Y013195D01*
X002476Y013097D01*
X002423Y012969D01*
X002423Y012831D01*
X002476Y012703D01*
X002574Y012605D01*
X002702Y012552D01*
X002841Y012552D01*
X002969Y012605D01*
X003067Y012703D01*
X003120Y012831D01*
X003120Y012969D01*
X003067Y013097D01*
X002969Y013195D01*
X003098Y013022D02*
X016315Y013022D01*
X016273Y012863D02*
X003120Y012863D01*
X003068Y012705D02*
X016305Y012705D01*
X016445Y012546D02*
X001701Y012546D01*
X001701Y012388D02*
X016876Y012388D01*
X016876Y012314D02*
X016876Y012489D01*
X016944Y012652D01*
X017069Y012778D01*
X017233Y012846D01*
X017410Y012846D01*
X017574Y012778D01*
X017699Y012652D01*
X017753Y012524D01*
X017824Y012595D01*
X017952Y012648D01*
X018091Y012648D01*
X018219Y012595D01*
X018317Y012497D01*
X018370Y012369D01*
X018370Y012231D01*
X018317Y012103D01*
X018219Y012005D01*
X018091Y011952D01*
X017952Y011952D01*
X017824Y012005D01*
X017726Y012103D01*
X017703Y012157D01*
X017699Y012148D01*
X017574Y012022D01*
X017410Y011954D01*
X017233Y011954D01*
X017069Y012022D01*
X017040Y012052D01*
X017040Y011927D01*
X016984Y011791D01*
X016880Y011688D01*
X016745Y011632D01*
X016598Y011632D01*
X016463Y011688D01*
X016359Y011791D01*
X016303Y011927D01*
X016303Y012073D01*
X016359Y012209D01*
X016463Y012312D01*
X016598Y012368D01*
X016745Y012368D01*
X016876Y012314D01*
X016899Y012546D02*
X016798Y012546D01*
X016938Y012705D02*
X016996Y012705D01*
X017647Y012705D02*
X018996Y012705D01*
X018974Y012695D02*
X019102Y012748D01*
X019241Y012748D01*
X019369Y012695D01*
X019467Y012597D01*
X019520Y012469D01*
X019520Y012331D01*
X019467Y012203D01*
X019369Y012105D01*
X019241Y012052D01*
X019102Y012052D01*
X018974Y012105D01*
X018876Y012203D01*
X018823Y012331D01*
X018823Y012469D01*
X018876Y012597D01*
X018974Y012695D01*
X018855Y012546D02*
X018268Y012546D01*
X018362Y012388D02*
X018823Y012388D01*
X018865Y012229D02*
X018369Y012229D01*
X018285Y012071D02*
X019056Y012071D01*
X019286Y012071D02*
X024211Y012071D01*
X024211Y012229D02*
X019478Y012229D01*
X019520Y012388D02*
X024211Y012388D01*
X024211Y012546D02*
X019488Y012546D01*
X019347Y012705D02*
X024211Y012705D01*
X024211Y011912D02*
X017033Y011912D01*
X016946Y011754D02*
X024211Y011754D01*
X024471Y011120D02*
X024648Y011120D01*
X024279Y010486D02*
X005001Y010486D01*
X005020Y010644D02*
X017137Y010644D01*
X016941Y010803D02*
X004962Y010803D01*
X004891Y010327D02*
X023938Y010327D01*
X024205Y010327D02*
X024437Y010327D01*
X025632Y010169D02*
X026681Y010169D01*
X026108Y009693D02*
X028741Y009693D01*
X028741Y009535D02*
X026171Y009535D01*
X026171Y009376D02*
X028741Y009376D01*
X028741Y009218D02*
X026171Y009218D01*
X026171Y009059D02*
X028741Y009059D01*
X028741Y008901D02*
X026171Y008901D01*
X026171Y008742D02*
X028741Y008742D01*
X028741Y008584D02*
X026171Y008584D01*
X026171Y008425D02*
X028741Y008425D01*
X028741Y008267D02*
X026171Y008267D01*
X026171Y008108D02*
X028741Y008108D01*
X028741Y007950D02*
X026171Y007950D01*
X026171Y007791D02*
X028741Y007791D01*
X028741Y007633D02*
X026171Y007633D01*
X026171Y007474D02*
X028741Y007474D01*
X028741Y007316D02*
X026171Y007316D01*
X026171Y007157D02*
X028741Y007157D01*
X028741Y006999D02*
X026171Y006999D01*
X026171Y006840D02*
X028741Y006840D01*
X028741Y006682D02*
X026171Y006682D01*
X026171Y006523D02*
X028741Y006523D01*
X028741Y006365D02*
X026171Y006365D01*
X026171Y006206D02*
X028741Y006206D01*
X028741Y006048D02*
X026171Y006048D01*
X026171Y005889D02*
X028741Y005889D01*
X028741Y005731D02*
X026171Y005731D01*
X026171Y005572D02*
X028741Y005572D01*
X028741Y005414D02*
X026171Y005414D01*
X026171Y005255D02*
X028741Y005255D01*
X028741Y005097D02*
X026171Y005097D01*
X026171Y004938D02*
X028741Y004938D01*
X028741Y004780D02*
X026171Y004780D01*
X026171Y004621D02*
X028741Y004621D01*
X028741Y004463D02*
X026171Y004463D01*
X026171Y004304D02*
X027665Y004304D01*
X027401Y004146D02*
X026171Y004146D01*
X025911Y004146D02*
X009286Y004146D01*
X009286Y004163D02*
X009239Y004278D01*
X009217Y004300D01*
X009239Y004322D01*
X009286Y004437D01*
X009286Y004563D01*
X009239Y004678D01*
X009217Y004700D01*
X009239Y004722D01*
X009286Y004837D01*
X009286Y004963D01*
X009239Y005078D01*
X009217Y005100D01*
X009239Y005122D01*
X009286Y005237D01*
X009286Y005363D01*
X009239Y005478D01*
X009217Y005500D01*
X009239Y005522D01*
X009286Y005637D01*
X009286Y005763D01*
X009239Y005878D01*
X009217Y005900D01*
X009239Y005922D01*
X009286Y006037D01*
X009286Y006163D01*
X009239Y006278D01*
X009217Y006300D01*
X009239Y006322D01*
X009286Y006437D01*
X009286Y006563D01*
X009239Y006678D01*
X009217Y006700D01*
X009239Y006722D01*
X009286Y006837D01*
X009286Y006963D01*
X009239Y007078D01*
X009217Y007100D01*
X009239Y007122D01*
X009286Y007237D01*
X009286Y007363D01*
X009239Y007478D01*
X009150Y007567D01*
X009034Y007615D01*
X008909Y007615D01*
X008793Y007567D01*
X008771Y007545D01*
X008750Y007567D01*
X008634Y007615D01*
X008509Y007615D01*
X008393Y007567D01*
X008371Y007545D01*
X008350Y007567D01*
X008234Y007615D01*
X008109Y007615D01*
X007993Y007567D01*
X007971Y007545D01*
X007950Y007567D01*
X007834Y007615D01*
X007709Y007615D01*
X007593Y007567D01*
X007571Y007545D01*
X007550Y007567D01*
X007434Y007615D01*
X007309Y007615D01*
X007193Y007567D01*
X007171Y007545D01*
X007150Y007567D01*
X007034Y007615D01*
X006909Y007615D01*
X006793Y007567D01*
X006771Y007545D01*
X006750Y007567D01*
X006634Y007615D01*
X006509Y007615D01*
X006393Y007567D01*
X006371Y007545D01*
X006350Y007567D01*
X006234Y007615D01*
X006109Y007615D01*
X005993Y007567D01*
X005971Y007545D01*
X005950Y007567D01*
X005834Y007615D01*
X005709Y007615D01*
X005593Y007567D01*
X005571Y007545D01*
X005550Y007567D01*
X005434Y007615D01*
X005309Y007615D01*
X005193Y007567D01*
X005171Y007545D01*
X005150Y007567D01*
X005034Y007615D01*
X004909Y007615D01*
X004793Y007567D01*
X004704Y007478D01*
X004656Y007363D01*
X004656Y007237D01*
X004704Y007122D01*
X004726Y007100D01*
X004704Y007078D01*
X004656Y006963D01*
X004656Y006837D01*
X004704Y006722D01*
X004726Y006700D01*
X004704Y006678D01*
X004656Y006563D01*
X004656Y006437D01*
X004704Y006322D01*
X004726Y006300D01*
X004704Y006278D01*
X004656Y006163D01*
X004656Y006037D01*
X004704Y005922D01*
X004726Y005900D01*
X004704Y005878D01*
X004656Y005763D01*
X004656Y005637D01*
X004704Y005522D01*
X004726Y005500D01*
X004704Y005478D01*
X004656Y005363D01*
X004656Y005237D01*
X004704Y005122D01*
X004726Y005100D01*
X004704Y005078D01*
X004656Y004963D01*
X004656Y004837D01*
X004704Y004722D01*
X004726Y004700D01*
X004704Y004678D01*
X004656Y004563D01*
X004656Y004437D01*
X004704Y004322D01*
X004726Y004300D01*
X004704Y004278D01*
X004656Y004163D01*
X004656Y004037D01*
X004704Y003922D01*
X004793Y003833D01*
X004909Y003785D01*
X005034Y003785D01*
X005150Y003833D01*
X005171Y003855D01*
X005193Y003833D01*
X005309Y003785D01*
X005434Y003785D01*
X005550Y003833D01*
X005571Y003855D01*
X005593Y003833D01*
X005709Y003785D01*
X005834Y003785D01*
X005950Y003833D01*
X005971Y003855D01*
X005993Y003833D01*
X006109Y003785D01*
X006234Y003785D01*
X006350Y003833D01*
X006371Y003855D01*
X006393Y003833D01*
X006509Y003785D01*
X006634Y003785D01*
X006750Y003833D01*
X006771Y003855D01*
X006793Y003833D01*
X006909Y003785D01*
X007034Y003785D01*
X007150Y003833D01*
X007171Y003855D01*
X007193Y003833D01*
X007309Y003785D01*
X007434Y003785D01*
X007550Y003833D01*
X007571Y003855D01*
X007593Y003833D01*
X007709Y003785D01*
X007834Y003785D01*
X007950Y003833D01*
X007971Y003855D01*
X007993Y003833D01*
X008109Y003785D01*
X008234Y003785D01*
X008350Y003833D01*
X008371Y003855D01*
X008393Y003833D01*
X008509Y003785D01*
X008634Y003785D01*
X008750Y003833D01*
X008771Y003855D01*
X008793Y003833D01*
X008909Y003785D01*
X009034Y003785D01*
X009150Y003833D01*
X009239Y003922D01*
X009286Y004037D01*
X009286Y004163D01*
X009221Y004304D02*
X025911Y004304D01*
X025911Y004463D02*
X009286Y004463D01*
X009262Y004621D02*
X009705Y004621D01*
X009743Y004583D02*
X009859Y004535D01*
X009984Y004535D01*
X010100Y004583D01*
X010121Y004605D01*
X010143Y004583D01*
X010259Y004535D01*
X010384Y004535D01*
X010500Y004583D01*
X010521Y004605D01*
X010543Y004583D01*
X010659Y004535D01*
X010784Y004535D01*
X010900Y004583D01*
X010921Y004605D01*
X010943Y004583D01*
X011059Y004535D01*
X011184Y004535D01*
X011300Y004583D01*
X011321Y004605D01*
X011343Y004583D01*
X011459Y004535D01*
X011584Y004535D01*
X011700Y004583D01*
X011721Y004605D01*
X011743Y004583D01*
X011859Y004535D01*
X011984Y004535D01*
X012100Y004583D01*
X012121Y004605D01*
X012143Y004583D01*
X012259Y004535D01*
X012384Y004535D01*
X012500Y004583D01*
X012521Y004605D01*
X012543Y004583D01*
X012659Y004535D01*
X012784Y004535D01*
X012900Y004583D01*
X012921Y004605D01*
X012943Y004583D01*
X013059Y004535D01*
X013184Y004535D01*
X013300Y004583D01*
X013389Y004672D01*
X013436Y004787D01*
X013436Y004913D01*
X013389Y005028D01*
X013367Y005050D01*
X013389Y005072D01*
X013436Y005187D01*
X013436Y005313D01*
X013389Y005428D01*
X013367Y005450D01*
X013389Y005472D01*
X013436Y005587D01*
X013436Y005713D01*
X013389Y005828D01*
X013367Y005850D01*
X013389Y005872D01*
X013436Y005987D01*
X013436Y006113D01*
X013389Y006228D01*
X013367Y006250D01*
X013389Y006272D01*
X013436Y006387D01*
X013436Y006513D01*
X013389Y006628D01*
X013367Y006650D01*
X013389Y006672D01*
X013436Y006787D01*
X013436Y006913D01*
X013389Y007028D01*
X013367Y007050D01*
X013389Y007072D01*
X013436Y007187D01*
X013436Y007313D01*
X013389Y007428D01*
X013367Y007450D01*
X013389Y007472D01*
X013436Y007587D01*
X013436Y007713D01*
X013389Y007828D01*
X013367Y007850D01*
X013389Y007872D01*
X013436Y007987D01*
X013436Y008113D01*
X013389Y008228D01*
X013367Y008250D01*
X013389Y008272D01*
X013436Y008387D01*
X013436Y008513D01*
X013389Y008628D01*
X013367Y008650D01*
X013389Y008672D01*
X013436Y008787D01*
X013436Y008913D01*
X013389Y009028D01*
X013300Y009117D01*
X013184Y009165D01*
X013059Y009165D01*
X012943Y009117D01*
X012921Y009095D01*
X012900Y009117D01*
X012784Y009165D01*
X012659Y009165D01*
X012543Y009117D01*
X012521Y009095D01*
X012500Y009117D01*
X012384Y009165D01*
X012259Y009165D01*
X012143Y009117D01*
X012121Y009095D01*
X012100Y009117D01*
X011984Y009165D01*
X011859Y009165D01*
X011743Y009117D01*
X011721Y009095D01*
X011700Y009117D01*
X011584Y009165D01*
X011459Y009165D01*
X011343Y009117D01*
X011321Y009095D01*
X011300Y009117D01*
X011184Y009165D01*
X011059Y009165D01*
X010943Y009117D01*
X010921Y009095D01*
X010900Y009117D01*
X010784Y009165D01*
X010659Y009165D01*
X010543Y009117D01*
X010521Y009095D01*
X010500Y009117D01*
X010384Y009165D01*
X010259Y009165D01*
X010143Y009117D01*
X010121Y009095D01*
X010100Y009117D01*
X009984Y009165D01*
X009859Y009165D01*
X009743Y009117D01*
X009654Y009028D01*
X009606Y008913D01*
X009606Y008787D01*
X009654Y008672D01*
X009676Y008650D01*
X009654Y008628D01*
X009606Y008513D01*
X009606Y008387D01*
X009654Y008272D01*
X009676Y008250D01*
X009654Y008228D01*
X009606Y008113D01*
X009606Y007987D01*
X009654Y007872D01*
X009676Y007850D01*
X009654Y007828D01*
X009606Y007713D01*
X009606Y007587D01*
X009654Y007472D01*
X009676Y007450D01*
X009654Y007428D01*
X009606Y007313D01*
X009606Y007187D01*
X009654Y007072D01*
X009676Y007050D01*
X009654Y007028D01*
X009606Y006913D01*
X009606Y006787D01*
X009654Y006672D01*
X009676Y006650D01*
X009654Y006628D01*
X009606Y006513D01*
X009606Y006387D01*
X009654Y006272D01*
X009676Y006250D01*
X009654Y006228D01*
X009606Y006113D01*
X009606Y005987D01*
X009654Y005872D01*
X009676Y005850D01*
X009654Y005828D01*
X009606Y005713D01*
X009606Y005587D01*
X009654Y005472D01*
X009676Y005450D01*
X009654Y005428D01*
X009606Y005313D01*
X009606Y005187D01*
X009654Y005072D01*
X009676Y005050D01*
X009654Y005028D01*
X009606Y004913D01*
X009606Y004787D01*
X009654Y004672D01*
X009743Y004583D01*
X009610Y004780D02*
X009262Y004780D01*
X009286Y004938D02*
X009617Y004938D01*
X009644Y005097D02*
X009220Y005097D01*
X009286Y005255D02*
X009606Y005255D01*
X009648Y005414D02*
X009265Y005414D01*
X009259Y005572D02*
X009613Y005572D01*
X009614Y005731D02*
X009286Y005731D01*
X009228Y005889D02*
X009647Y005889D01*
X009606Y006048D02*
X009286Y006048D01*
X009268Y006206D02*
X009645Y006206D01*
X009616Y006365D02*
X009256Y006365D01*
X009286Y006523D02*
X009611Y006523D01*
X009650Y006682D02*
X009235Y006682D01*
X009286Y006840D02*
X009606Y006840D01*
X009642Y006999D02*
X009272Y006999D01*
X009253Y007157D02*
X009619Y007157D01*
X009608Y007316D02*
X009286Y007316D01*
X009240Y007474D02*
X009653Y007474D01*
X009606Y007633D02*
X003822Y007633D01*
X003876Y007474D02*
X004703Y007474D01*
X004656Y007316D02*
X003876Y007316D01*
X003817Y007157D02*
X004690Y007157D01*
X004671Y006999D02*
X003684Y006999D01*
X003628Y006840D02*
X004656Y006840D01*
X004707Y006682D02*
X003801Y006682D01*
X003867Y006523D02*
X004656Y006523D01*
X004687Y006365D02*
X003876Y006365D01*
X003837Y006206D02*
X004674Y006206D01*
X004656Y006048D02*
X003733Y006048D01*
X003510Y005889D02*
X004715Y005889D01*
X004656Y005731D02*
X003755Y005731D01*
X003847Y005572D02*
X004684Y005572D01*
X004678Y005414D02*
X003876Y005414D01*
X003858Y005255D02*
X004656Y005255D01*
X004722Y005097D02*
X003782Y005097D01*
X003575Y004938D02*
X004656Y004938D01*
X004680Y004780D02*
X001701Y004780D01*
X001701Y004938D02*
X003168Y004938D01*
X002961Y005097D02*
X001701Y005097D01*
X001701Y005255D02*
X002885Y005255D01*
X002867Y005414D02*
X001701Y005414D01*
X001701Y005572D02*
X002896Y005572D01*
X002988Y005731D02*
X001701Y005731D01*
X001701Y005889D02*
X003233Y005889D01*
X003010Y006048D02*
X001701Y006048D01*
X001701Y006206D02*
X002905Y006206D01*
X002867Y006365D02*
X001701Y006365D01*
X001701Y006523D02*
X002876Y006523D01*
X002942Y006682D02*
X001701Y006682D01*
X001701Y006840D02*
X003115Y006840D01*
X003059Y006999D02*
X001701Y006999D01*
X001701Y007157D02*
X002926Y007157D01*
X002867Y007316D02*
X001701Y007316D01*
X001701Y007474D02*
X002867Y007474D01*
X002921Y007633D02*
X001701Y007633D01*
X001701Y007791D02*
X003049Y007791D01*
X003140Y007950D02*
X001701Y007950D01*
X001701Y008108D02*
X002950Y008108D01*
X002880Y008267D02*
X001701Y008267D01*
X001701Y008425D02*
X002867Y008425D01*
X002901Y008584D02*
X001701Y008584D01*
X001701Y008742D02*
X003000Y008742D01*
X003258Y008901D02*
X001701Y008901D01*
X001701Y009059D02*
X002999Y009059D01*
X002901Y009218D02*
X001701Y009218D01*
X001701Y009376D02*
X002867Y009376D01*
X002881Y009535D02*
X001701Y009535D01*
X001701Y009693D02*
X002951Y009693D01*
X003142Y009852D02*
X001701Y009852D01*
X001701Y010010D02*
X003048Y010010D01*
X002921Y010169D02*
X001701Y010169D01*
X001701Y010327D02*
X002867Y010327D01*
X002867Y010486D02*
X001701Y010486D01*
X001701Y010644D02*
X002926Y010644D01*
X003060Y010803D02*
X001701Y010803D01*
X001701Y010961D02*
X003852Y010961D01*
X003823Y011120D02*
X001701Y011120D01*
X001701Y011278D02*
X003868Y011278D01*
X004073Y011437D02*
X001701Y011437D01*
X001701Y011595D02*
X006038Y011595D01*
X006023Y011754D02*
X001701Y011754D01*
X001701Y011912D02*
X006091Y011912D01*
X006142Y011437D02*
X004270Y011437D01*
X003979Y010803D02*
X003683Y010803D01*
X003792Y009693D02*
X016972Y009693D01*
X016974Y009695D02*
X016876Y009597D01*
X016823Y009469D01*
X016823Y009331D01*
X016876Y009203D01*
X016974Y009105D01*
X017102Y009052D01*
X017241Y009052D01*
X017369Y009105D01*
X017467Y009203D01*
X017520Y009331D01*
X017520Y009469D01*
X017467Y009597D01*
X017369Y009695D01*
X017241Y009748D01*
X017102Y009748D01*
X016974Y009695D01*
X016850Y009535D02*
X003862Y009535D01*
X003876Y009376D02*
X016823Y009376D01*
X016870Y009218D02*
X003842Y009218D01*
X003744Y009059D02*
X009685Y009059D01*
X009606Y008901D02*
X003485Y008901D01*
X003743Y008742D02*
X009625Y008742D01*
X009636Y008584D02*
X003842Y008584D01*
X003876Y008425D02*
X009606Y008425D01*
X009659Y008267D02*
X003863Y008267D01*
X003793Y008108D02*
X009606Y008108D01*
X009622Y007950D02*
X003603Y007950D01*
X003694Y007791D02*
X009639Y007791D01*
X013390Y007474D02*
X016253Y007474D01*
X016253Y007523D02*
X016253Y007377D01*
X016309Y007241D01*
X016413Y007138D01*
X016548Y007082D01*
X016695Y007082D01*
X016830Y007138D01*
X016934Y007241D01*
X016990Y007377D01*
X016990Y007523D01*
X016934Y007659D01*
X016830Y007762D01*
X016695Y007818D01*
X016548Y007818D01*
X016413Y007762D01*
X016309Y007659D01*
X016253Y007523D01*
X016299Y007633D02*
X013436Y007633D01*
X013404Y007791D02*
X016483Y007791D01*
X016760Y007791D02*
X025911Y007791D01*
X025911Y007633D02*
X025049Y007633D01*
X025001Y007652D02*
X024742Y007652D01*
X024502Y007553D01*
X024318Y007370D01*
X024219Y007130D01*
X024219Y006870D01*
X024318Y006630D01*
X024502Y006447D01*
X024742Y006348D01*
X025001Y006348D01*
X025241Y006447D01*
X025425Y006630D01*
X025524Y006870D01*
X025524Y007130D01*
X025425Y007370D01*
X025241Y007553D01*
X025001Y007652D01*
X024694Y007633D02*
X016944Y007633D01*
X016990Y007474D02*
X024423Y007474D01*
X024296Y007316D02*
X016964Y007316D01*
X016849Y007157D02*
X024230Y007157D01*
X024219Y006999D02*
X013401Y006999D01*
X013424Y007157D02*
X016394Y007157D01*
X016279Y007316D02*
X013435Y007316D01*
X013436Y006840D02*
X016341Y006840D01*
X016363Y006862D02*
X016259Y006759D01*
X016203Y006623D01*
X016203Y006477D01*
X016259Y006341D01*
X016363Y006238D01*
X016498Y006182D01*
X016645Y006182D01*
X016780Y006238D01*
X016884Y006341D01*
X016940Y006477D01*
X016940Y006623D01*
X016884Y006759D01*
X016780Y006862D01*
X016645Y006918D01*
X016498Y006918D01*
X016363Y006862D01*
X016227Y006682D02*
X013393Y006682D01*
X013432Y006523D02*
X016203Y006523D01*
X016250Y006365D02*
X013427Y006365D01*
X013398Y006206D02*
X016440Y006206D01*
X016703Y006206D02*
X018147Y006206D01*
X018094Y006152D02*
X018026Y005989D01*
X018026Y005811D01*
X018094Y005648D01*
X018219Y005522D01*
X018383Y005454D01*
X018560Y005454D01*
X018724Y005522D01*
X018849Y005648D01*
X018917Y005811D01*
X018917Y005989D01*
X018849Y006152D01*
X018724Y006278D01*
X018560Y006346D01*
X018383Y006346D01*
X018219Y006278D01*
X018094Y006152D01*
X018050Y006048D02*
X013436Y006048D01*
X013396Y005889D02*
X018026Y005889D01*
X018059Y005731D02*
X013429Y005731D01*
X013430Y005572D02*
X018169Y005572D01*
X018774Y005572D02*
X025911Y005572D01*
X025911Y005414D02*
X025251Y005414D01*
X025267Y005397D02*
X025169Y005495D01*
X025041Y005548D01*
X024902Y005548D01*
X024774Y005495D01*
X024676Y005397D01*
X024623Y005269D01*
X024623Y005131D01*
X024676Y005003D01*
X024774Y004905D01*
X024902Y004852D01*
X025041Y004852D01*
X025169Y004905D01*
X025267Y005003D01*
X025320Y005131D01*
X025320Y005269D01*
X025267Y005397D01*
X025320Y005255D02*
X025911Y005255D01*
X025911Y005097D02*
X025306Y005097D01*
X025202Y004938D02*
X025911Y004938D01*
X025911Y004780D02*
X013433Y004780D01*
X013426Y004938D02*
X024741Y004938D01*
X024637Y005097D02*
X013399Y005097D01*
X013436Y005255D02*
X024623Y005255D01*
X024692Y005414D02*
X013395Y005414D01*
X013338Y004621D02*
X025911Y004621D01*
X025911Y003987D02*
X025159Y003987D01*
X025241Y003953D02*
X025001Y004052D01*
X024742Y004052D01*
X024502Y003953D01*
X024318Y003770D01*
X024219Y003530D01*
X024219Y003270D01*
X024318Y003030D01*
X024502Y002847D01*
X024742Y002748D01*
X025001Y002748D01*
X025241Y002847D01*
X025425Y003030D01*
X025524Y003270D01*
X025524Y003530D01*
X025425Y003770D01*
X025241Y003953D01*
X025366Y003829D02*
X025911Y003829D01*
X025911Y003670D02*
X025466Y003670D01*
X025524Y003512D02*
X025911Y003512D01*
X025911Y003353D02*
X025524Y003353D01*
X025493Y003195D02*
X025911Y003195D01*
X025911Y003036D02*
X025427Y003036D01*
X025272Y002878D02*
X025911Y002878D01*
X025802Y002719D02*
X022205Y002719D01*
X022217Y002561D02*
X025643Y002561D01*
X025485Y002402D02*
X022172Y002402D01*
X022066Y001975D02*
X021877Y001975D01*
X021702Y001903D01*
X021569Y001769D01*
X021496Y001595D01*
X021496Y001405D01*
X021569Y001231D01*
X021702Y001097D01*
X021877Y001025D01*
X022066Y001025D01*
X022241Y001097D01*
X022374Y001231D01*
X022447Y001405D01*
X022447Y001595D01*
X022374Y001769D01*
X022241Y001903D01*
X022066Y001975D01*
X022184Y001927D02*
X022759Y001927D01*
X022702Y001903D02*
X022569Y001769D01*
X022496Y001595D01*
X022496Y001405D01*
X022569Y001231D01*
X022702Y001097D01*
X022877Y001025D01*
X023066Y001025D01*
X023241Y001097D01*
X023374Y001231D01*
X023447Y001405D01*
X023447Y001595D01*
X023374Y001769D01*
X023241Y001903D01*
X023066Y001975D01*
X022877Y001975D01*
X022702Y001903D01*
X022568Y001768D02*
X022375Y001768D01*
X022441Y001610D02*
X022502Y001610D01*
X022496Y001451D02*
X022447Y001451D01*
X022400Y001293D02*
X022543Y001293D01*
X022665Y001134D02*
X022278Y001134D01*
X021665Y001134D02*
X020278Y001134D01*
X020241Y001097D02*
X020374Y001231D01*
X020447Y001405D01*
X020447Y001595D01*
X020374Y001769D01*
X020241Y001903D01*
X020066Y001975D01*
X019877Y001975D01*
X019702Y001903D01*
X019569Y001769D01*
X019496Y001595D01*
X019496Y001405D01*
X019569Y001231D01*
X019702Y001097D01*
X019877Y001025D01*
X020066Y001025D01*
X020241Y001097D01*
X020400Y001293D02*
X021543Y001293D01*
X021496Y001451D02*
X020447Y001451D01*
X020441Y001610D02*
X021502Y001610D01*
X021568Y001768D02*
X020375Y001768D01*
X020184Y001927D02*
X021759Y001927D01*
X021371Y002402D02*
X016736Y002402D01*
X016582Y002561D02*
X021326Y002561D01*
X021338Y002719D02*
X016294Y002719D01*
X016320Y002781D02*
X016267Y002653D01*
X016169Y002555D01*
X016041Y002502D01*
X015902Y002502D01*
X015774Y002555D01*
X015676Y002653D01*
X015623Y002781D01*
X015623Y002919D01*
X015676Y003047D01*
X015774Y003145D01*
X015902Y003198D01*
X016041Y003198D01*
X016169Y003145D01*
X016267Y003047D01*
X016320Y002919D01*
X016320Y002781D01*
X016320Y002878D02*
X017901Y002878D01*
X017876Y002903D02*
X017974Y002805D01*
X018102Y002752D01*
X018241Y002752D01*
X018369Y002805D01*
X018467Y002903D01*
X018520Y003031D01*
X018520Y003169D01*
X018467Y003297D01*
X018369Y003395D01*
X018241Y003448D01*
X018102Y003448D01*
X017974Y003395D01*
X017876Y003297D01*
X017823Y003169D01*
X017823Y003031D01*
X017876Y002903D01*
X017823Y003036D02*
X016272Y003036D01*
X016402Y003252D02*
X016541Y003252D01*
X016669Y003305D01*
X016767Y003403D01*
X016820Y003531D01*
X016820Y003669D01*
X016767Y003797D01*
X016669Y003895D01*
X016541Y003948D01*
X016402Y003948D01*
X016274Y003895D01*
X016176Y003797D01*
X016123Y003669D01*
X016123Y003531D01*
X016176Y003403D01*
X016274Y003305D01*
X016402Y003252D01*
X016226Y003353D02*
X012701Y003353D01*
X012749Y003305D02*
X012529Y003525D01*
X012240Y003645D01*
X011928Y003645D01*
X011639Y003525D01*
X011418Y003305D01*
X011299Y003016D01*
X011299Y002704D01*
X011418Y002415D01*
X011639Y002195D01*
X011928Y002075D01*
X012240Y002075D01*
X012529Y002195D01*
X012749Y002415D01*
X012869Y002704D01*
X012869Y003016D01*
X012749Y003305D01*
X012795Y003195D02*
X015893Y003195D01*
X016050Y003195D02*
X017833Y003195D01*
X017932Y003353D02*
X016717Y003353D01*
X016812Y003512D02*
X024219Y003512D01*
X024219Y003353D02*
X018411Y003353D01*
X018509Y003195D02*
X024250Y003195D01*
X024316Y003036D02*
X021884Y003036D01*
X021659Y003036D02*
X018520Y003036D01*
X018442Y002878D02*
X021419Y002878D01*
X022124Y002878D02*
X024471Y002878D01*
X024277Y003670D02*
X016820Y003670D01*
X016736Y003829D02*
X024377Y003829D01*
X024584Y003987D02*
X009266Y003987D01*
X009139Y003829D02*
X016207Y003829D01*
X016123Y003670D02*
X003806Y003670D01*
X003799Y003686D02*
X003657Y003828D01*
X003472Y003905D01*
X003271Y003905D01*
X003086Y003828D01*
X002944Y003686D01*
X002867Y003500D01*
X002867Y003300D01*
X002944Y003114D01*
X003086Y002972D01*
X003259Y002900D01*
X003086Y002828D01*
X002944Y002686D01*
X002867Y002500D01*
X002867Y002300D01*
X002944Y002114D01*
X003086Y001972D01*
X003259Y001900D01*
X003086Y001828D01*
X002944Y001686D01*
X002867Y001500D01*
X002867Y001300D01*
X002944Y001114D01*
X003086Y000972D01*
X003271Y000895D01*
X003472Y000895D01*
X003657Y000972D01*
X003799Y001114D01*
X003876Y001300D01*
X003876Y001500D01*
X003799Y001686D01*
X003657Y001828D01*
X003483Y001900D01*
X003657Y001972D01*
X003799Y002114D01*
X003876Y002300D01*
X003876Y002500D01*
X003799Y002686D01*
X003657Y002828D01*
X003483Y002900D01*
X003657Y002972D01*
X003799Y003114D01*
X003876Y003300D01*
X003876Y003500D01*
X003799Y003686D01*
X003872Y003512D02*
X007600Y003512D01*
X007614Y003525D02*
X007393Y003305D01*
X007274Y003016D01*
X007274Y002704D01*
X007393Y002415D01*
X007614Y002195D01*
X007903Y002075D01*
X008215Y002075D01*
X008504Y002195D01*
X008724Y002415D01*
X008844Y002704D01*
X008844Y003016D01*
X008724Y003305D01*
X008504Y003525D01*
X008215Y003645D01*
X007903Y003645D01*
X007614Y003525D01*
X007442Y003353D02*
X003876Y003353D01*
X003833Y003195D02*
X007348Y003195D01*
X007282Y003036D02*
X003721Y003036D01*
X003538Y002878D02*
X007274Y002878D01*
X007274Y002719D02*
X003766Y002719D01*
X003851Y002561D02*
X007333Y002561D01*
X007407Y002402D02*
X003876Y002402D01*
X003853Y002244D02*
X007565Y002244D01*
X007879Y002085D02*
X003770Y002085D01*
X003547Y001927D02*
X012346Y001927D01*
X012264Y002085D02*
X012505Y002085D01*
X012578Y002244D02*
X012696Y002244D01*
X012736Y002402D02*
X013977Y002402D01*
X014024Y002355D02*
X014152Y002302D01*
X014291Y002302D01*
X014419Y002355D01*
X014517Y002453D01*
X014570Y002581D01*
X014570Y002719D01*
X015649Y002719D01*
X015623Y002878D02*
X014487Y002878D01*
X014517Y002847D02*
X014419Y002945D01*
X014291Y002998D01*
X014152Y002998D01*
X014024Y002945D01*
X013926Y002847D01*
X013873Y002719D01*
X012869Y002719D01*
X012869Y002878D02*
X013956Y002878D01*
X013873Y002719D02*
X013873Y002581D01*
X013926Y002453D01*
X014024Y002355D01*
X013881Y002561D02*
X012810Y002561D01*
X012861Y003036D02*
X015671Y003036D01*
X015768Y002561D02*
X014562Y002561D01*
X014570Y002719D02*
X014517Y002847D01*
X014466Y002402D02*
X016107Y002402D01*
X016175Y002561D02*
X016261Y002561D01*
X016066Y001975D02*
X015877Y001975D01*
X015702Y001903D01*
X015569Y001769D01*
X015496Y001595D01*
X015496Y001405D01*
X015569Y001231D01*
X015702Y001097D01*
X015877Y001025D01*
X016066Y001025D01*
X016241Y001097D01*
X016374Y001231D01*
X016447Y001405D01*
X016447Y001595D01*
X016374Y001769D01*
X016241Y001903D01*
X016066Y001975D01*
X016184Y001927D02*
X016292Y001927D01*
X016375Y001768D02*
X017568Y001768D01*
X017569Y001769D02*
X017496Y001595D01*
X017496Y001405D01*
X017569Y001231D01*
X017702Y001097D01*
X017877Y001025D01*
X018066Y001025D01*
X018241Y001097D01*
X018374Y001231D01*
X018447Y001405D01*
X018447Y001595D01*
X018374Y001769D01*
X018241Y001903D01*
X018066Y001975D01*
X017877Y001975D01*
X017702Y001903D01*
X017569Y001769D01*
X017502Y001610D02*
X016441Y001610D01*
X016447Y001451D02*
X017496Y001451D01*
X017543Y001293D02*
X016400Y001293D01*
X016278Y001134D02*
X017665Y001134D01*
X018278Y001134D02*
X018665Y001134D01*
X018702Y001097D02*
X018569Y001231D01*
X018496Y001405D01*
X018496Y001595D01*
X018569Y001769D01*
X018702Y001903D01*
X018877Y001975D01*
X019066Y001975D01*
X019241Y001903D01*
X019374Y001769D01*
X019447Y001595D01*
X019447Y001405D01*
X019374Y001231D01*
X019241Y001097D01*
X019066Y001025D01*
X018877Y001025D01*
X018702Y001097D01*
X018543Y001293D02*
X018400Y001293D01*
X018447Y001451D02*
X018496Y001451D01*
X018502Y001610D02*
X018441Y001610D01*
X018375Y001768D02*
X018568Y001768D01*
X018759Y001927D02*
X018184Y001927D01*
X017759Y001927D02*
X016551Y001927D01*
X015759Y001927D02*
X015184Y001927D01*
X015241Y001903D02*
X015066Y001975D01*
X014877Y001975D01*
X014702Y001903D01*
X014569Y001769D01*
X014496Y001595D01*
X014496Y001405D01*
X014569Y001231D01*
X014702Y001097D01*
X014877Y001025D01*
X015066Y001025D01*
X015241Y001097D01*
X015374Y001231D01*
X015447Y001405D01*
X015447Y001595D01*
X015374Y001769D01*
X015241Y001903D01*
X015375Y001768D02*
X015568Y001768D01*
X015502Y001610D02*
X015441Y001610D01*
X015447Y001451D02*
X015496Y001451D01*
X015543Y001293D02*
X015400Y001293D01*
X015278Y001134D02*
X015665Y001134D01*
X014665Y001134D02*
X014278Y001134D01*
X014241Y001097D02*
X014374Y001231D01*
X014447Y001405D01*
X014447Y001595D01*
X014374Y001769D01*
X014241Y001903D01*
X014066Y001975D01*
X013877Y001975D01*
X013702Y001903D01*
X013569Y001769D01*
X013496Y001595D01*
X013496Y001405D01*
X013569Y001231D01*
X013702Y001097D01*
X013877Y001025D01*
X014066Y001025D01*
X014241Y001097D01*
X014400Y001293D02*
X014543Y001293D01*
X014496Y001451D02*
X014447Y001451D01*
X014441Y001610D02*
X014502Y001610D01*
X014568Y001768D02*
X014375Y001768D01*
X014184Y001927D02*
X014759Y001927D01*
X013759Y001927D02*
X013184Y001927D01*
X013241Y001903D02*
X013066Y001975D01*
X012877Y001975D01*
X012702Y001903D01*
X012569Y001769D01*
X012496Y001595D01*
X012496Y001405D01*
X012569Y001231D01*
X012702Y001097D01*
X012877Y001025D01*
X013066Y001025D01*
X013241Y001097D01*
X013374Y001231D01*
X013447Y001405D01*
X013447Y001595D01*
X013374Y001769D01*
X013241Y001903D01*
X013375Y001768D02*
X013568Y001768D01*
X013502Y001610D02*
X013441Y001610D01*
X013447Y001451D02*
X013496Y001451D01*
X013543Y001293D02*
X013400Y001293D01*
X013278Y001134D02*
X013665Y001134D01*
X012759Y001927D02*
X012714Y001927D01*
X012568Y001768D02*
X012556Y001768D01*
X012502Y001610D02*
X012471Y001610D01*
X012471Y001451D02*
X012496Y001451D01*
X012471Y001293D02*
X012543Y001293D01*
X012471Y001134D02*
X012665Y001134D01*
X012471Y000976D02*
X027741Y000976D01*
X027741Y001134D02*
X027278Y001134D01*
X027241Y001097D02*
X027374Y001231D01*
X027447Y001405D01*
X027447Y001595D01*
X027374Y001769D01*
X027241Y001903D01*
X027066Y001975D01*
X026877Y001975D01*
X026702Y001903D01*
X026569Y001769D01*
X026496Y001595D01*
X026496Y001405D01*
X026569Y001231D01*
X026702Y001097D01*
X026877Y001025D01*
X027066Y001025D01*
X027241Y001097D01*
X027400Y001293D02*
X027741Y001293D01*
X027741Y001451D02*
X027447Y001451D01*
X027441Y001610D02*
X027756Y001610D01*
X027914Y001768D02*
X027375Y001768D01*
X027184Y001927D02*
X028073Y001927D01*
X028231Y002085D02*
X025535Y002085D01*
X025694Y002244D02*
X028390Y002244D01*
X028548Y002402D02*
X025852Y002402D01*
X026011Y002561D02*
X028707Y002561D01*
X028741Y002719D02*
X028333Y002719D01*
X028565Y002878D02*
X028741Y002878D01*
X028741Y003036D02*
X028710Y003036D01*
X027610Y002719D02*
X026169Y002719D01*
X026171Y002878D02*
X027378Y002878D01*
X027233Y003036D02*
X026171Y003036D01*
X026171Y003195D02*
X027167Y003195D01*
X027112Y003353D02*
X026171Y003353D01*
X026171Y003512D02*
X027112Y003512D01*
X027112Y003670D02*
X026171Y003670D01*
X027112Y003671D02*
X027242Y003987D01*
X028277Y004304D02*
X028741Y004304D01*
X028741Y004146D02*
X028542Y004146D01*
X028701Y003987D02*
X028741Y003987D01*
X026241Y001903D02*
X026066Y001975D01*
X025877Y001975D01*
X025702Y001903D01*
X025569Y001769D01*
X025496Y001595D01*
X025496Y001405D01*
X025569Y001231D01*
X025702Y001097D01*
X025877Y001025D01*
X026066Y001025D01*
X026241Y001097D01*
X026374Y001231D01*
X026447Y001405D01*
X026447Y001595D01*
X026374Y001769D01*
X026241Y001903D01*
X026184Y001927D02*
X026759Y001927D01*
X026568Y001768D02*
X026375Y001768D01*
X026441Y001610D02*
X026502Y001610D01*
X026496Y001451D02*
X026447Y001451D01*
X026400Y001293D02*
X026543Y001293D01*
X026665Y001134D02*
X026278Y001134D01*
X025665Y001134D02*
X025278Y001134D01*
X025241Y001097D02*
X025374Y001231D01*
X025447Y001405D01*
X025447Y001595D01*
X025374Y001769D01*
X025241Y001903D01*
X025066Y001975D01*
X024877Y001975D01*
X024702Y001903D01*
X024569Y001769D01*
X024496Y001595D01*
X024496Y001405D01*
X024569Y001231D01*
X024702Y001097D01*
X024877Y001025D01*
X025066Y001025D01*
X025241Y001097D01*
X025400Y001293D02*
X025543Y001293D01*
X025496Y001451D02*
X025447Y001451D01*
X025441Y001610D02*
X025502Y001610D01*
X025568Y001768D02*
X025375Y001768D01*
X025184Y001927D02*
X025759Y001927D01*
X024759Y001927D02*
X024184Y001927D01*
X024241Y001903D02*
X024066Y001975D01*
X023877Y001975D01*
X023702Y001903D01*
X023569Y001769D01*
X023496Y001595D01*
X023496Y001405D01*
X023569Y001231D01*
X023702Y001097D01*
X023877Y001025D01*
X024066Y001025D01*
X024241Y001097D01*
X024374Y001231D01*
X024447Y001405D01*
X024447Y001595D01*
X024374Y001769D01*
X024241Y001903D01*
X024375Y001768D02*
X024568Y001768D01*
X024502Y001610D02*
X024441Y001610D01*
X024447Y001451D02*
X024496Y001451D01*
X024543Y001293D02*
X024400Y001293D01*
X024278Y001134D02*
X024665Y001134D01*
X023759Y001927D02*
X023184Y001927D01*
X023375Y001768D02*
X023568Y001768D01*
X023502Y001610D02*
X023441Y001610D01*
X023447Y001451D02*
X023496Y001451D01*
X023543Y001293D02*
X023400Y001293D01*
X023278Y001134D02*
X023665Y001134D01*
X019759Y001927D02*
X019184Y001927D01*
X019375Y001768D02*
X019568Y001768D01*
X019502Y001610D02*
X019441Y001610D01*
X019447Y001451D02*
X019496Y001451D01*
X019543Y001293D02*
X019400Y001293D01*
X019278Y001134D02*
X019665Y001134D01*
X016131Y003512D02*
X012543Y003512D01*
X011625Y003512D02*
X008518Y003512D01*
X008676Y003353D02*
X011467Y003353D01*
X011373Y003195D02*
X008770Y003195D01*
X008836Y003036D02*
X011307Y003036D01*
X011299Y002878D02*
X008844Y002878D01*
X008844Y002719D02*
X011299Y002719D01*
X011358Y002561D02*
X008785Y002561D01*
X008711Y002402D02*
X011432Y002402D01*
X011590Y002244D02*
X008553Y002244D01*
X008239Y002085D02*
X011904Y002085D01*
X012225Y001768D02*
X003717Y001768D01*
X003831Y001610D02*
X012211Y001610D01*
X012211Y001451D02*
X003876Y001451D01*
X003873Y001293D02*
X012211Y001293D01*
X012211Y001134D02*
X003808Y001134D01*
X003661Y000976D02*
X012211Y000976D01*
X012211Y000817D02*
X001701Y000817D01*
X001701Y000976D02*
X003082Y000976D01*
X002935Y001134D02*
X001701Y001134D01*
X001701Y001293D02*
X002870Y001293D01*
X002867Y001451D02*
X001701Y001451D01*
X001701Y001610D02*
X002912Y001610D01*
X003026Y001768D02*
X001701Y001768D01*
X001701Y001927D02*
X003195Y001927D01*
X002973Y002085D02*
X001701Y002085D01*
X001701Y002244D02*
X002235Y002244D01*
X002274Y002205D02*
X002402Y002152D01*
X002541Y002152D01*
X002669Y002205D01*
X002767Y002303D01*
X002820Y002431D01*
X002820Y002569D01*
X002767Y002697D01*
X002669Y002795D01*
X002541Y002848D01*
X002402Y002848D01*
X002274Y002795D01*
X002176Y002697D01*
X002123Y002569D01*
X002123Y002431D01*
X002176Y002303D01*
X002274Y002205D01*
X002135Y002402D02*
X001701Y002402D01*
X001701Y002561D02*
X002123Y002561D01*
X002198Y002719D02*
X001701Y002719D01*
X001701Y002878D02*
X003205Y002878D01*
X003022Y003036D02*
X001701Y003036D01*
X001701Y003195D02*
X002910Y003195D01*
X002867Y003353D02*
X001701Y003353D01*
X001701Y003512D02*
X002871Y003512D01*
X002937Y003670D02*
X001701Y003670D01*
X001701Y003829D02*
X003087Y003829D01*
X003656Y003829D02*
X004804Y003829D01*
X004677Y003987D02*
X001701Y003987D01*
X001701Y004146D02*
X004656Y004146D01*
X004722Y004304D02*
X001701Y004304D01*
X001701Y004463D02*
X004656Y004463D01*
X004681Y004621D02*
X001701Y004621D01*
X002745Y002719D02*
X002977Y002719D01*
X002892Y002561D02*
X002820Y002561D01*
X002808Y002402D02*
X002867Y002402D01*
X002890Y002244D02*
X002708Y002244D01*
X005139Y003829D02*
X005204Y003829D01*
X005539Y003829D02*
X005604Y003829D01*
X005939Y003829D02*
X006004Y003829D01*
X006339Y003829D02*
X006404Y003829D01*
X006739Y003829D02*
X006804Y003829D01*
X007139Y003829D02*
X007204Y003829D01*
X007539Y003829D02*
X007604Y003829D01*
X007939Y003829D02*
X008004Y003829D01*
X008339Y003829D02*
X008404Y003829D01*
X008739Y003829D02*
X008804Y003829D01*
X012471Y000817D02*
X027741Y000817D01*
X025911Y005731D02*
X018884Y005731D01*
X018917Y005889D02*
X025911Y005889D01*
X025911Y006048D02*
X018893Y006048D01*
X018796Y006206D02*
X025911Y006206D01*
X025911Y006365D02*
X025042Y006365D01*
X025317Y006523D02*
X025911Y006523D01*
X025911Y006682D02*
X025446Y006682D01*
X025511Y006840D02*
X025911Y006840D01*
X025911Y006999D02*
X025524Y006999D01*
X025513Y007157D02*
X025911Y007157D01*
X025911Y007316D02*
X025447Y007316D01*
X025320Y007474D02*
X025911Y007474D01*
X025911Y007950D02*
X013421Y007950D01*
X013436Y008108D02*
X025911Y008108D01*
X025911Y008267D02*
X019177Y008267D01*
X019141Y008252D02*
X019269Y008305D01*
X019367Y008403D01*
X019420Y008531D01*
X019420Y008669D01*
X019367Y008797D01*
X019269Y008895D01*
X019141Y008948D01*
X019002Y008948D01*
X018874Y008895D01*
X018776Y008797D01*
X018723Y008669D01*
X018723Y008531D01*
X018776Y008403D01*
X018874Y008305D01*
X019002Y008252D01*
X019141Y008252D01*
X018966Y008267D02*
X017331Y008267D01*
X017367Y008303D02*
X017420Y008431D01*
X017420Y008569D01*
X017367Y008697D01*
X017269Y008795D01*
X017141Y008848D01*
X017002Y008848D01*
X016874Y008795D01*
X016776Y008697D01*
X016723Y008569D01*
X016723Y008431D01*
X016776Y008303D01*
X016874Y008205D01*
X017002Y008152D01*
X017141Y008152D01*
X017269Y008205D01*
X017367Y008303D01*
X017418Y008425D02*
X018767Y008425D01*
X018723Y008584D02*
X017414Y008584D01*
X017322Y008742D02*
X018753Y008742D01*
X018886Y008901D02*
X013436Y008901D01*
X013418Y008742D02*
X016821Y008742D01*
X016729Y008584D02*
X013407Y008584D01*
X013436Y008425D02*
X016725Y008425D01*
X016812Y008267D02*
X013383Y008267D01*
X013358Y009059D02*
X017084Y009059D01*
X017259Y009059D02*
X025232Y009059D01*
X025223Y009218D02*
X019382Y009218D01*
X019497Y009376D02*
X025193Y009376D01*
X025129Y008901D02*
X019256Y008901D01*
X019390Y008742D02*
X025032Y008742D01*
X025023Y008584D02*
X019420Y008584D01*
X019376Y008425D02*
X025104Y008425D01*
X025639Y008425D02*
X025911Y008425D01*
X025911Y008584D02*
X025720Y008584D01*
X025710Y008742D02*
X025911Y008742D01*
X025911Y008901D02*
X025815Y008901D01*
X025911Y009059D02*
X025911Y009059D01*
X025949Y009852D02*
X028741Y009852D01*
X028741Y010010D02*
X025791Y010010D01*
X027362Y010169D02*
X027681Y010169D01*
X027579Y010327D02*
X027464Y010327D01*
X027497Y010486D02*
X027546Y010486D01*
X027567Y010644D02*
X027476Y010644D01*
X027391Y010803D02*
X027652Y010803D01*
X027730Y011120D02*
X027313Y011120D01*
X027444Y011278D02*
X027599Y011278D01*
X027546Y011437D02*
X027497Y011437D01*
X027431Y011754D02*
X027612Y011754D01*
X027774Y011912D02*
X027269Y011912D01*
X028391Y010803D02*
X028741Y010803D01*
X028741Y010644D02*
X028476Y010644D01*
X028497Y010486D02*
X028741Y010486D01*
X028741Y010327D02*
X028464Y010327D01*
X028362Y010169D02*
X028741Y010169D01*
X024232Y006840D02*
X016802Y006840D01*
X016915Y006682D02*
X024297Y006682D01*
X024426Y006523D02*
X016940Y006523D01*
X016893Y006365D02*
X024701Y006365D01*
X018961Y009218D02*
X017473Y009218D01*
X017520Y009376D02*
X018846Y009376D01*
X018823Y009535D02*
X017493Y009535D01*
X017371Y009693D02*
X018874Y009693D01*
X016397Y011754D02*
X006720Y011754D01*
X006652Y011912D02*
X016309Y011912D01*
X016303Y012071D02*
X001701Y012071D01*
X001701Y012229D02*
X016380Y012229D01*
X017622Y012071D02*
X017758Y012071D01*
X017743Y012546D02*
X017775Y012546D01*
X017341Y013902D02*
X017469Y013955D01*
X017567Y014053D01*
X017620Y014181D01*
X017620Y014319D01*
X017567Y014447D01*
X017469Y014545D01*
X017341Y014598D01*
X017202Y014598D01*
X017074Y014545D01*
X016976Y014447D01*
X016923Y014319D01*
X016923Y014181D01*
X016976Y014053D01*
X017074Y013955D01*
X017202Y013902D01*
X017341Y013902D01*
X017487Y013973D02*
X020223Y013973D01*
X020223Y013931D02*
X020276Y013803D01*
X020374Y013705D01*
X020502Y013652D01*
X020641Y013652D01*
X020769Y013705D01*
X020867Y013803D01*
X020920Y013931D01*
X020920Y014069D01*
X020867Y014197D01*
X020769Y014295D01*
X020641Y014348D01*
X020502Y014348D01*
X020374Y014295D01*
X020276Y014197D01*
X020223Y014069D01*
X020223Y013931D01*
X020271Y013814D02*
X004401Y013814D01*
X004420Y013769D02*
X004367Y013897D01*
X004269Y013995D01*
X004141Y014048D01*
X004002Y014048D01*
X003874Y013995D01*
X003776Y013897D01*
X003723Y013769D01*
X003723Y013631D01*
X003776Y013503D01*
X003874Y013405D01*
X004002Y013352D01*
X004141Y013352D01*
X004269Y013405D01*
X004367Y013503D01*
X004420Y013631D01*
X004420Y013769D01*
X004420Y013656D02*
X020493Y013656D01*
X020650Y013656D02*
X021859Y013656D01*
X021823Y013497D02*
X004361Y013497D01*
X004292Y013973D02*
X006376Y013973D01*
X006402Y013947D02*
X006642Y013848D01*
X006901Y013848D01*
X007141Y013947D01*
X007325Y014130D01*
X007424Y014370D01*
X007424Y014630D01*
X007325Y014870D01*
X007141Y015053D01*
X006901Y015152D01*
X006642Y015152D01*
X006402Y015053D01*
X006218Y014870D01*
X006119Y014630D01*
X006119Y014370D01*
X006218Y014130D01*
X006402Y013947D01*
X006218Y014131D02*
X005295Y014131D01*
X005269Y014105D02*
X005367Y014203D01*
X005420Y014331D01*
X005420Y014469D01*
X005367Y014597D01*
X005269Y014695D01*
X005141Y014748D01*
X005002Y014748D01*
X004874Y014695D01*
X004776Y014597D01*
X004771Y014586D01*
X004767Y014597D01*
X004669Y014695D01*
X004541Y014748D01*
X004402Y014748D01*
X004274Y014695D01*
X004176Y014597D01*
X004123Y014469D01*
X004123Y014331D01*
X004176Y014203D01*
X004274Y014105D01*
X004402Y014052D01*
X004541Y014052D01*
X004669Y014105D01*
X004767Y014203D01*
X004771Y014214D01*
X004776Y014203D01*
X004874Y014105D01*
X005002Y014052D01*
X005141Y014052D01*
X005269Y014105D01*
X005403Y014290D02*
X006152Y014290D01*
X006119Y014448D02*
X005420Y014448D01*
X005358Y014607D02*
X006119Y014607D01*
X006175Y014765D02*
X002977Y014765D01*
X003002Y014755D02*
X002852Y014817D01*
X002690Y014817D01*
X002541Y014755D01*
X002426Y014640D01*
X002364Y014490D01*
X002364Y014328D01*
X002426Y014179D01*
X002541Y014064D01*
X002690Y014002D01*
X002852Y014002D01*
X003002Y014064D01*
X003117Y014179D01*
X003179Y014328D01*
X003179Y014490D01*
X003117Y014640D01*
X003002Y014755D01*
X003131Y014607D02*
X004185Y014607D01*
X004123Y014448D02*
X003179Y014448D01*
X003162Y014290D02*
X004140Y014290D01*
X004248Y014131D02*
X003069Y014131D01*
X002474Y014131D02*
X001701Y014131D01*
X001701Y013973D02*
X003851Y013973D01*
X003742Y013814D02*
X001701Y013814D01*
X001701Y013656D02*
X003723Y013656D01*
X003782Y013497D02*
X001701Y013497D01*
X001701Y013339D02*
X021861Y013339D01*
X022019Y013814D02*
X020872Y013814D01*
X020920Y013973D02*
X024211Y013973D01*
X024211Y014131D02*
X020894Y014131D01*
X020775Y014290D02*
X024211Y014290D01*
X024211Y014448D02*
X022412Y014448D01*
X022369Y014405D02*
X022467Y014503D01*
X022520Y014631D01*
X022520Y014769D01*
X022467Y014897D01*
X022369Y014995D01*
X022241Y015048D01*
X022200Y015048D01*
X022249Y015098D01*
X022317Y015261D01*
X022317Y015439D01*
X022249Y015602D01*
X022124Y015728D01*
X021960Y015796D01*
X021783Y015796D01*
X021619Y015728D01*
X021494Y015602D01*
X021426Y015439D01*
X021426Y015261D01*
X021494Y015098D01*
X021619Y014972D01*
X021783Y014904D01*
X021883Y014904D01*
X021876Y014897D01*
X021823Y014769D01*
X021823Y014631D01*
X021876Y014503D01*
X021974Y014405D01*
X022102Y014352D01*
X022241Y014352D01*
X022369Y014405D01*
X022510Y014607D02*
X022997Y014607D01*
X022911Y014765D02*
X022520Y014765D01*
X022441Y014924D02*
X022911Y014924D01*
X022911Y015082D02*
X022234Y015082D01*
X022309Y015241D02*
X022911Y015241D01*
X022911Y015399D02*
X022317Y015399D01*
X022268Y015558D02*
X022911Y015558D01*
X022911Y015716D02*
X022136Y015716D01*
X021607Y015716D02*
X008926Y015716D01*
X008891Y015702D02*
X009019Y015755D01*
X009117Y015853D01*
X009170Y015981D01*
X009170Y016119D01*
X009117Y016247D01*
X009019Y016345D01*
X008891Y016398D01*
X008752Y016398D01*
X008624Y016345D01*
X008526Y016247D01*
X008473Y016119D01*
X008473Y015981D01*
X008526Y015853D01*
X008624Y015755D01*
X008752Y015702D01*
X008891Y015702D01*
X008717Y015716D02*
X006880Y015716D01*
X006869Y015705D02*
X006967Y015803D01*
X007020Y015931D01*
X007020Y016069D01*
X006967Y016197D01*
X006869Y016295D01*
X006741Y016348D01*
X006602Y016348D01*
X006474Y016295D01*
X006376Y016197D01*
X006323Y016069D01*
X006323Y015931D01*
X006376Y015803D01*
X006474Y015705D01*
X006602Y015652D01*
X006741Y015652D01*
X006869Y015705D01*
X006997Y015875D02*
X008517Y015875D01*
X008473Y016033D02*
X007020Y016033D01*
X006969Y016192D02*
X008503Y016192D01*
X008635Y016350D02*
X001701Y016350D01*
X001701Y016192D02*
X006374Y016192D01*
X006323Y016033D02*
X001701Y016033D01*
X001701Y015875D02*
X002480Y015875D01*
X002426Y015821D02*
X002541Y015936D01*
X002690Y015998D01*
X002852Y015998D01*
X003002Y015936D01*
X003117Y015821D01*
X003179Y015672D01*
X003179Y015510D01*
X003117Y015360D01*
X003002Y015245D01*
X002852Y015183D01*
X002690Y015183D01*
X002541Y015245D01*
X002426Y015360D01*
X002364Y015510D01*
X002364Y015672D01*
X002426Y015821D01*
X002383Y015716D02*
X001701Y015716D01*
X001701Y015558D02*
X002364Y015558D01*
X002410Y015399D02*
X001701Y015399D01*
X001701Y015241D02*
X002553Y015241D01*
X002990Y015241D02*
X005338Y015241D01*
X005374Y015205D02*
X005502Y015152D01*
X005641Y015152D01*
X005769Y015205D01*
X005867Y015303D01*
X005920Y015431D01*
X005920Y015569D01*
X005867Y015697D01*
X005769Y015795D01*
X005641Y015848D01*
X005502Y015848D01*
X005374Y015795D01*
X005276Y015697D01*
X005223Y015569D01*
X005223Y015431D01*
X005276Y015303D01*
X005374Y015205D01*
X005236Y015399D02*
X003133Y015399D01*
X003179Y015558D02*
X005223Y015558D01*
X005295Y015716D02*
X003160Y015716D01*
X003063Y015875D02*
X006346Y015875D01*
X006463Y015716D02*
X005848Y015716D01*
X005920Y015558D02*
X021475Y015558D01*
X021426Y015399D02*
X005907Y015399D01*
X005805Y015241D02*
X021434Y015241D01*
X021509Y015082D02*
X007071Y015082D01*
X007271Y014924D02*
X021736Y014924D01*
X021823Y014765D02*
X007368Y014765D01*
X007424Y014607D02*
X021833Y014607D01*
X021931Y014448D02*
X017566Y014448D01*
X017620Y014290D02*
X020368Y014290D01*
X020249Y014131D02*
X017599Y014131D01*
X017056Y013973D02*
X007167Y013973D01*
X007325Y014131D02*
X016944Y014131D01*
X016923Y014290D02*
X007390Y014290D01*
X007424Y014448D02*
X016977Y014448D01*
X016541Y015852D02*
X016669Y015905D01*
X016767Y016003D01*
X016820Y016131D01*
X016820Y016269D01*
X016767Y016397D01*
X016669Y016495D01*
X016541Y016548D01*
X016402Y016548D01*
X016274Y016495D01*
X016176Y016397D01*
X016123Y016269D01*
X016123Y016131D01*
X016176Y016003D01*
X016274Y015905D01*
X016402Y015852D01*
X016541Y015852D01*
X016596Y015875D02*
X022911Y015875D01*
X022911Y016033D02*
X016779Y016033D01*
X016820Y016192D02*
X017787Y016192D01*
X017824Y016155D02*
X017726Y016253D01*
X017673Y016381D01*
X017673Y016519D01*
X017726Y016647D01*
X017824Y016745D01*
X017952Y016798D01*
X018091Y016798D01*
X018219Y016745D01*
X018317Y016647D01*
X018370Y016519D01*
X018370Y016381D01*
X018317Y016253D01*
X018219Y016155D01*
X018091Y016102D01*
X017952Y016102D01*
X017824Y016155D01*
X017686Y016350D02*
X016786Y016350D01*
X016637Y016509D02*
X017673Y016509D01*
X017746Y016667D02*
X012778Y016667D01*
X012565Y016667D02*
X011528Y016667D01*
X011491Y016652D02*
X011619Y016705D01*
X011717Y016803D01*
X011770Y016931D01*
X011770Y017069D01*
X011717Y017197D01*
X011619Y017295D01*
X011491Y017348D01*
X011352Y017348D01*
X011224Y017295D01*
X011126Y017197D01*
X011073Y017069D01*
X011073Y016931D01*
X011126Y016803D01*
X011224Y016705D01*
X011352Y016652D01*
X011491Y016652D01*
X011315Y016667D02*
X001701Y016667D01*
X001701Y016509D02*
X016306Y016509D01*
X016156Y016350D02*
X009008Y016350D01*
X009140Y016192D02*
X016123Y016192D01*
X016163Y016033D02*
X009170Y016033D01*
X009126Y015875D02*
X016347Y015875D01*
X018256Y016192D02*
X022911Y016192D01*
X022911Y016350D02*
X018357Y016350D01*
X018370Y016509D02*
X022911Y016509D01*
X022911Y016667D02*
X018297Y016667D01*
X018173Y017301D02*
X018778Y017301D01*
X018682Y017460D02*
X018354Y017460D01*
X018417Y017618D02*
X018673Y017618D01*
X018755Y017777D02*
X018417Y017777D01*
X018357Y017935D02*
X021823Y017935D01*
X021874Y018094D02*
X018186Y018094D01*
X015072Y018094D02*
X008871Y018094D01*
X008993Y017935D02*
X014950Y017935D01*
X013020Y016984D02*
X022911Y016984D01*
X022911Y016826D02*
X012976Y016826D01*
X012367Y016826D02*
X011726Y016826D01*
X011770Y016984D02*
X012323Y016984D01*
X012153Y017143D02*
X011740Y017143D01*
X011605Y017301D02*
X012006Y017301D01*
X011238Y017301D02*
X001701Y017301D01*
X001701Y017143D02*
X011103Y017143D01*
X011073Y016984D02*
X001701Y016984D01*
X001701Y016826D02*
X011117Y016826D01*
X006472Y015082D02*
X001701Y015082D01*
X001701Y014924D02*
X006272Y014924D01*
X004785Y014607D02*
X004758Y014607D01*
X004695Y014131D02*
X004848Y014131D01*
X002566Y014765D02*
X001701Y014765D01*
X001701Y014607D02*
X002412Y014607D01*
X002364Y014448D02*
X001701Y014448D01*
X001701Y014290D02*
X002380Y014290D01*
X002559Y013180D02*
X001701Y013180D01*
X001701Y013022D02*
X002445Y013022D01*
X002423Y012863D02*
X001701Y012863D01*
X001701Y012705D02*
X002475Y012705D01*
X001967Y019362D02*
X001701Y019362D01*
X001701Y019520D02*
X001877Y019520D01*
X001877Y019679D02*
X001701Y019679D01*
X001701Y019837D02*
X001966Y019837D01*
X024471Y014131D02*
X024582Y014131D01*
X024503Y013973D02*
X024471Y013973D01*
X024471Y013814D02*
X024509Y013814D01*
X024471Y013656D02*
X024595Y013656D01*
X028431Y015241D02*
X028741Y015241D01*
X028741Y015082D02*
X028606Y015082D01*
X028727Y014924D02*
X028741Y014924D01*
D16*
X013121Y008850D03*
X012721Y008850D03*
X012321Y008850D03*
X011921Y008850D03*
X011521Y008850D03*
X011121Y008850D03*
X010721Y008850D03*
X010321Y008850D03*
X009921Y008850D03*
X009921Y008450D03*
X009921Y008050D03*
X010321Y008050D03*
X010321Y008450D03*
X010721Y008450D03*
X010721Y008050D03*
X011121Y008050D03*
X011121Y008450D03*
X011521Y008450D03*
X011521Y008050D03*
X011521Y007650D03*
X011121Y007650D03*
X010721Y007650D03*
X010321Y007650D03*
X009921Y007650D03*
X009921Y007250D03*
X010321Y007250D03*
X010321Y006850D03*
X009921Y006850D03*
X009921Y006450D03*
X010321Y006450D03*
X010321Y006050D03*
X009921Y006050D03*
X009921Y005650D03*
X010321Y005650D03*
X010321Y005250D03*
X009921Y005250D03*
X009921Y004850D03*
X010321Y004850D03*
X010721Y004850D03*
X011121Y004850D03*
X011521Y004850D03*
X011521Y005250D03*
X011121Y005250D03*
X010721Y005250D03*
X010721Y005650D03*
X010721Y006050D03*
X011121Y006050D03*
X011121Y005650D03*
X011521Y005650D03*
X011521Y006050D03*
X011521Y006450D03*
X011121Y006450D03*
X010721Y006450D03*
X010721Y006850D03*
X011121Y006850D03*
X011521Y006850D03*
X011521Y007250D03*
X011121Y007250D03*
X010721Y007250D03*
X011921Y007250D03*
X012321Y007250D03*
X012721Y007250D03*
X012721Y006850D03*
X012321Y006850D03*
X011921Y006850D03*
X011921Y006450D03*
X012321Y006450D03*
X012721Y006450D03*
X012721Y006050D03*
X012321Y006050D03*
X011921Y006050D03*
X011921Y005650D03*
X012321Y005650D03*
X012721Y005650D03*
X012721Y005250D03*
X012321Y005250D03*
X011921Y005250D03*
X011921Y004850D03*
X012321Y004850D03*
X012721Y004850D03*
X013121Y004850D03*
X013121Y005250D03*
X013121Y005650D03*
X013121Y006050D03*
X013121Y006450D03*
X013121Y006850D03*
X013121Y007250D03*
X013121Y007650D03*
X012721Y007650D03*
X012321Y007650D03*
X011921Y007650D03*
X011921Y008050D03*
X011921Y008450D03*
X012321Y008450D03*
X012321Y008050D03*
X012721Y008050D03*
X012721Y008450D03*
X013121Y008450D03*
X013121Y008050D03*
X012721Y010250D03*
X012321Y010250D03*
X011921Y010250D03*
X011521Y010250D03*
X011121Y010250D03*
X010721Y010250D03*
X010321Y010250D03*
X009921Y010250D03*
X009921Y009850D03*
X010321Y009850D03*
X010321Y010650D03*
X009921Y010650D03*
X009921Y011050D03*
X010321Y011050D03*
X010321Y011450D03*
X009921Y011450D03*
X009921Y011850D03*
X010321Y011850D03*
X010321Y012250D03*
X009921Y012250D03*
X009921Y012650D03*
X010321Y012650D03*
X010321Y013050D03*
X009921Y013050D03*
X009921Y013450D03*
X010321Y013450D03*
X010321Y013850D03*
X009921Y013850D03*
X010721Y013450D03*
X010721Y013050D03*
X011121Y013050D03*
X011121Y013450D03*
X011521Y013450D03*
X011521Y013050D03*
X011521Y012650D03*
X011121Y012650D03*
X010721Y012650D03*
X010721Y012250D03*
X011121Y012250D03*
X011521Y012250D03*
X011521Y011850D03*
X011121Y011850D03*
X010721Y011850D03*
X010721Y011450D03*
X011121Y011450D03*
X011521Y011450D03*
X011521Y011050D03*
X011121Y011050D03*
X010721Y011050D03*
X010721Y010650D03*
X011121Y010650D03*
X011521Y010650D03*
X011921Y010650D03*
X011921Y011050D03*
X012321Y011050D03*
X012321Y010650D03*
X012721Y010650D03*
X012721Y011050D03*
X012721Y011450D03*
X012321Y011450D03*
X011921Y011450D03*
X011921Y011850D03*
X012321Y011850D03*
X012721Y011850D03*
X012721Y012250D03*
X012321Y012250D03*
X011921Y012250D03*
X011921Y012650D03*
X012321Y012650D03*
X012721Y012650D03*
X012721Y013050D03*
X012321Y013050D03*
X011921Y013050D03*
X011921Y013450D03*
X012321Y013450D03*
X012721Y013450D03*
X008971Y007300D03*
X008571Y007300D03*
X008171Y007300D03*
X007771Y007300D03*
X007371Y007300D03*
X006971Y007300D03*
X006571Y007300D03*
X006171Y007300D03*
X005771Y007300D03*
X005371Y007300D03*
X004971Y007300D03*
X004971Y006900D03*
X004971Y006500D03*
X004971Y006100D03*
X004971Y005700D03*
X004971Y005300D03*
X004971Y004900D03*
X004971Y004500D03*
X004971Y004100D03*
X005371Y004100D03*
X005771Y004100D03*
X006171Y004100D03*
X006171Y004500D03*
X005771Y004500D03*
X005371Y004500D03*
X005371Y004900D03*
X005771Y004900D03*
X006171Y004900D03*
X006171Y005300D03*
X005771Y005300D03*
X005371Y005300D03*
X005371Y005700D03*
X005771Y005700D03*
X006171Y005700D03*
X006171Y006100D03*
X005771Y006100D03*
X005371Y006100D03*
X005371Y006500D03*
X005771Y006500D03*
X006171Y006500D03*
X006171Y006900D03*
X005771Y006900D03*
X005371Y006900D03*
X006571Y006900D03*
X006971Y006900D03*
X007371Y006900D03*
X007371Y006500D03*
X006971Y006500D03*
X006571Y006500D03*
X006571Y006100D03*
X006971Y006100D03*
X007371Y006100D03*
X007371Y005700D03*
X006971Y005700D03*
X006571Y005700D03*
X006571Y005300D03*
X006971Y005300D03*
X007371Y005300D03*
X007371Y004900D03*
X006971Y004900D03*
X006571Y004900D03*
X006571Y004500D03*
X006971Y004500D03*
X007371Y004500D03*
X007371Y004100D03*
X006971Y004100D03*
X006571Y004100D03*
X007771Y004100D03*
X008171Y004100D03*
X008571Y004100D03*
X008571Y004500D03*
X008171Y004500D03*
X007771Y004500D03*
X007771Y004900D03*
X008171Y004900D03*
X008571Y004900D03*
X008571Y005300D03*
X008171Y005300D03*
X007771Y005300D03*
X007771Y005700D03*
X008171Y005700D03*
X008571Y005700D03*
X008571Y006100D03*
X008171Y006100D03*
X007771Y006100D03*
X007771Y006500D03*
X008171Y006500D03*
X008571Y006500D03*
X008571Y006900D03*
X008171Y006900D03*
X007771Y006900D03*
X008971Y006900D03*
X008971Y006500D03*
X008971Y006100D03*
X008971Y005700D03*
X008971Y005300D03*
X008971Y004900D03*
X008971Y004500D03*
X008971Y004100D03*
D17*
X018471Y005900D03*
X020971Y005300D03*
X021771Y002600D03*
X022671Y009900D03*
X024071Y009900D03*
X017321Y011050D03*
X017321Y012400D03*
X021871Y015350D03*
X017971Y017700D03*
D18*
X006771Y014500D03*
X022471Y007000D03*
X024871Y007000D03*
X024871Y003400D03*
X022471Y003400D03*
M02*
