G75*
%MOIN*%
%OFA0B0*%
%FSLAX24Y24*%
%IPPOS*%
%LPD*%
%AMOC8*
5,1,8,0,0,1.08239X$1,22.5*
%
%ADD10C,0.1380*%
%ADD11R,0.0946X0.0316*%
%ADD12R,0.0592X0.0710*%
%ADD13R,0.0867X0.0710*%
%ADD14OC8,0.0740*%
%ADD15OC8,0.0780*%
%ADD16R,0.0780X0.0780*%
%ADD17R,0.0500X0.0930*%
%ADD18C,0.0100*%
%ADD19R,0.1064X0.0986*%
%ADD20R,0.0500X0.0430*%
%ADD21R,0.0560X0.0820*%
%ADD22R,0.1655X0.0710*%
%ADD23R,0.0316X0.0946*%
%ADD24R,0.0460X0.0680*%
%ADD25R,0.0430X0.0500*%
%ADD26R,0.0592X0.2718*%
%ADD27R,0.0540X0.0220*%
%ADD28R,0.0680X0.0460*%
%ADD29R,0.0670X0.0250*%
%ADD30R,0.0560X0.0440*%
%ADD31R,0.0552X0.1064*%
%ADD32C,0.0434*%
%ADD33R,0.0356X0.0749*%
%ADD34R,0.0690X0.0513*%
%ADD35R,0.0497X0.0336*%
%ADD36R,0.0580X0.1430*%
%ADD37R,0.4400X0.3700*%
%ADD38R,0.1080X0.2380*%
%ADD39OC8,0.1290*%
%ADD40C,0.0395*%
%ADD41R,0.0580X0.0300*%
%ADD42R,0.0960X0.0560*%
%ADD43R,0.0946X0.1497*%
%ADD44R,0.0540X0.0710*%
%ADD45R,0.0060X0.0720*%
%ADD46R,0.0474X0.0631*%
%ADD47C,0.1260*%
%ADD48OC8,0.1145*%
%ADD49OC8,0.0552*%
%ADD50OC8,0.1310*%
%ADD51OC8,0.0966*%
D10*
X006993Y002000D03*
X006993Y028500D03*
X048243Y002000D03*
X052993Y027500D03*
D11*
X033164Y019000D03*
X033164Y018500D03*
X033164Y018000D03*
X033164Y017500D03*
X033164Y017000D03*
X033164Y016500D03*
X033164Y016000D03*
X031117Y016000D03*
X031117Y016500D03*
X031117Y017000D03*
X031117Y017500D03*
X031117Y018000D03*
X031117Y018500D03*
X031117Y019000D03*
D12*
X030791Y010721D03*
X031791Y010721D03*
D13*
X031291Y009579D03*
D14*
X031243Y008050D03*
X030243Y008050D03*
X030243Y007050D03*
X031243Y007050D03*
X032243Y007050D03*
X033243Y007050D03*
X034243Y007050D03*
X035243Y007050D03*
X035243Y008050D03*
X034243Y008050D03*
X033243Y008050D03*
X032243Y008050D03*
X035793Y005850D03*
X035793Y004850D03*
X036793Y004850D03*
X037793Y004850D03*
X037793Y005850D03*
X036793Y005850D03*
X038793Y005850D03*
X038793Y004850D03*
X039793Y004850D03*
X039793Y005850D03*
X026541Y012000D03*
X026541Y013000D03*
X026541Y014000D03*
X026541Y015000D03*
X026541Y016000D03*
X026541Y017000D03*
X026541Y018000D03*
X026541Y019000D03*
X026541Y021000D03*
X026541Y022000D03*
X026541Y023000D03*
X026541Y024000D03*
X026541Y025000D03*
X026541Y026000D03*
X007541Y026000D03*
X007541Y025000D03*
X007541Y024000D03*
X007541Y023000D03*
X007541Y022000D03*
X007541Y021000D03*
X007541Y020000D03*
X007541Y019000D03*
X007541Y017400D03*
X007541Y016400D03*
X007541Y015400D03*
X007541Y014400D03*
X007541Y013400D03*
X007541Y012400D03*
X007541Y011400D03*
X007541Y010400D03*
X007541Y009400D03*
X007541Y008400D03*
D15*
X016541Y026050D03*
X017541Y026050D03*
X017541Y027050D03*
X016541Y027050D03*
X015541Y027050D03*
D16*
X015541Y026050D03*
D17*
X041366Y010820D03*
X042366Y010820D03*
X043366Y010820D03*
D18*
X044091Y013175D02*
X040641Y013175D01*
X040641Y015550D01*
X040141Y015550D01*
X040141Y016500D01*
X044591Y016500D01*
X044591Y015550D01*
X044091Y015550D01*
X044091Y013175D01*
X044091Y013207D02*
X040641Y013207D01*
X040641Y013305D02*
X044091Y013305D01*
X044091Y013404D02*
X040641Y013404D01*
X040641Y013502D02*
X044091Y013502D01*
X044091Y013601D02*
X040641Y013601D01*
X040641Y013699D02*
X044091Y013699D01*
X044091Y013798D02*
X040641Y013798D01*
X040641Y013896D02*
X044091Y013896D01*
X044091Y013995D02*
X040641Y013995D01*
X040641Y014093D02*
X044091Y014093D01*
X044091Y014192D02*
X040641Y014192D01*
X040641Y014290D02*
X044091Y014290D01*
X044091Y014389D02*
X040641Y014389D01*
X040641Y014487D02*
X044091Y014487D01*
X044091Y014586D02*
X040641Y014586D01*
X040641Y014684D02*
X044091Y014684D01*
X044091Y014783D02*
X040641Y014783D01*
X040641Y014881D02*
X044091Y014881D01*
X044091Y014980D02*
X040641Y014980D01*
X040641Y015078D02*
X044091Y015078D01*
X044091Y015177D02*
X040641Y015177D01*
X040641Y015275D02*
X044091Y015275D01*
X044091Y015374D02*
X040641Y015374D01*
X040641Y015472D02*
X044091Y015472D01*
X044591Y015571D02*
X040141Y015571D01*
X040141Y015669D02*
X044591Y015669D01*
X044591Y015768D02*
X040141Y015768D01*
X040141Y015866D02*
X044591Y015866D01*
X044591Y015965D02*
X040141Y015965D01*
X040141Y016063D02*
X044591Y016063D01*
X044591Y016162D02*
X040141Y016162D01*
X040141Y016260D02*
X044591Y016260D01*
X044591Y016359D02*
X040141Y016359D01*
X040141Y016457D02*
X044591Y016457D01*
D19*
X044741Y012287D03*
X044741Y010713D03*
D20*
X046193Y013113D03*
X046193Y013793D03*
X046193Y014460D03*
X046193Y015140D03*
X040293Y012587D03*
X040293Y011907D03*
X040293Y011193D03*
X040293Y010513D03*
X034491Y010310D03*
X034491Y010990D03*
X034391Y012360D03*
X034391Y013040D03*
X031743Y013710D03*
X031743Y014390D03*
X030791Y012190D03*
X030791Y011510D03*
X038943Y017213D03*
X038943Y017893D03*
X034143Y018190D03*
X034143Y017510D03*
X032993Y020513D03*
X032993Y021193D03*
X031993Y023460D03*
X031993Y024140D03*
X031993Y024860D03*
X032893Y024860D03*
X032893Y025540D03*
X031993Y025540D03*
X031093Y025540D03*
X031093Y024860D03*
X033793Y024860D03*
X033793Y025540D03*
X034946Y024140D03*
X034946Y023460D03*
X030093Y018190D03*
X030093Y017510D03*
D21*
X037896Y010850D03*
X039196Y010850D03*
X039641Y008950D03*
X040941Y008950D03*
X047396Y011550D03*
X048696Y011550D03*
X048946Y015400D03*
X047646Y015400D03*
X017643Y008397D03*
X016343Y008397D03*
D22*
X015793Y006003D03*
X018194Y006003D03*
X018194Y002453D03*
X015793Y002453D03*
D23*
X017243Y019976D03*
X017743Y019976D03*
X018243Y019976D03*
X018743Y019976D03*
X018743Y022024D03*
X018243Y022024D03*
X017743Y022024D03*
X017243Y022024D03*
D24*
X018083Y023953D03*
X018903Y023953D03*
X024933Y019000D03*
X025753Y019000D03*
X025753Y018000D03*
X024933Y018000D03*
X018703Y018897D03*
X017883Y018897D03*
D25*
X020401Y022250D03*
X021081Y022250D03*
X021751Y022250D03*
X022431Y022250D03*
X018733Y023153D03*
X018053Y023153D03*
X019253Y029400D03*
X019933Y029400D03*
X008033Y030697D03*
X007353Y030697D03*
X007353Y031597D03*
X008033Y031597D03*
X032303Y014950D03*
X032303Y014350D03*
X032303Y013750D03*
X032983Y013750D03*
X032983Y014350D03*
X032983Y014950D03*
X034101Y014650D03*
X034781Y014650D03*
X034781Y015600D03*
X034101Y015600D03*
X034101Y016500D03*
X034781Y016500D03*
X039606Y017250D03*
X040286Y017250D03*
X033531Y009600D03*
X032851Y009600D03*
X041353Y030803D03*
X042033Y030803D03*
X042033Y031553D03*
X041353Y031553D03*
D26*
X051501Y021197D03*
X052485Y021197D03*
D27*
X033801Y010910D03*
X033801Y010650D03*
X033801Y010390D03*
X032981Y010390D03*
X032981Y010910D03*
D28*
X035291Y011060D03*
X035291Y010240D03*
X035191Y012290D03*
X035191Y013110D03*
X035093Y017540D03*
X035093Y018360D03*
X029143Y018357D03*
X029143Y017537D03*
D29*
X031831Y013080D03*
X031831Y012830D03*
X031831Y012570D03*
X031831Y012320D03*
X033551Y012320D03*
X033551Y012570D03*
X033551Y012830D03*
X033551Y013080D03*
D30*
X032093Y019744D03*
X031193Y019744D03*
X031193Y021161D03*
X032093Y021161D03*
D31*
X015528Y030217D03*
X014543Y030217D03*
X013559Y030217D03*
X011230Y030217D03*
X010246Y030217D03*
X009262Y030217D03*
D32*
X008907Y031300D03*
X011585Y031300D03*
X013205Y031300D03*
X015882Y031300D03*
D33*
X025494Y029084D03*
X026494Y029084D03*
X027494Y029084D03*
D34*
X028665Y029850D03*
X028665Y031350D03*
X024827Y031350D03*
X024827Y029850D03*
D35*
X039560Y018721D03*
X039560Y018347D03*
X039560Y017973D03*
X040426Y017973D03*
X040426Y018347D03*
X040426Y018721D03*
D36*
X041343Y017995D03*
X043343Y017995D03*
D37*
X042343Y021850D03*
D38*
X044793Y030100D03*
X038593Y030100D03*
X032393Y030100D03*
X050993Y030100D03*
X030993Y002500D03*
D39*
X028981Y002960D03*
X033006Y002960D03*
X034406Y029640D03*
X036581Y029640D03*
X040606Y029640D03*
X042781Y029640D03*
X046806Y029640D03*
X048981Y029640D03*
X053006Y029640D03*
X030381Y029640D03*
D40*
X042096Y017950D03*
X037693Y014647D03*
X029841Y015000D03*
X029541Y011000D03*
D41*
X032836Y023430D03*
X032836Y024170D03*
X033856Y024170D03*
X033856Y023800D03*
X033856Y023430D03*
D42*
X047321Y014360D03*
X047321Y013450D03*
X047321Y012540D03*
D43*
X049761Y013450D03*
D44*
X009293Y021000D03*
X008693Y021000D03*
X008693Y022000D03*
X009293Y022000D03*
X009293Y023000D03*
X008693Y023000D03*
X008693Y024000D03*
X009293Y024000D03*
D45*
X008993Y024000D03*
X008993Y023000D03*
X008993Y022000D03*
X008993Y021000D03*
D46*
X034919Y024870D03*
X035667Y024870D03*
X035293Y025736D03*
D47*
X023893Y003200D03*
X020593Y003200D03*
D48*
X020593Y006070D03*
X022243Y006070D03*
X023893Y006070D03*
D49*
X021923Y030050D03*
X020443Y030050D03*
X018963Y030050D03*
D50*
X017928Y031230D03*
X022958Y031230D03*
D51*
X044293Y008420D03*
X051793Y008420D03*
X051793Y002200D03*
X044293Y002200D03*
M02*
