%
M48
M72
T01C0.0150
T02C0.0160
T03C0.0236
T04C0.0315
T05C0.0320
T06C0.0354
T07C0.0360
T08C0.0433
T09C0.0440
T10C0.0520
T11C0.0630
T12C0.0787
T13C0.1260
T14C0.1300
%
T01
X15573Y9476
X21323Y12226
X22823Y14476
X23573Y16726
X19323Y14976
X17573Y17601
X15073Y17226
X11823Y17226
X12573Y19726
X12573Y21351
X11573Y22476
X14073Y22476
X14323Y25226
X11573Y24976
X10948Y24851
X6823Y24226
X6823Y22601
X10573Y19726
X8073Y17726
X17073Y23226
X19823Y23351
X19573Y24726
X18823Y26226
X23073Y27476
X24073Y25726
X23698Y25351
X24198Y24726
X27073Y21726
X29573Y19851
X30948Y19351
X32323Y19726
X31323Y22226
X33323Y22226
X34323Y21976
X35573Y23726
X36823Y23476
X37573Y20976
X34823Y18726
X30573Y17101
X33573Y14726
X31823Y11976
X30823Y10976
X30573Y9976
X31073Y8726
X28323Y13976
X24323Y10976
X19823Y21101
X8323Y28726
X7573Y27976
X6323Y26976
X32823Y23726
X39198Y27726
X39573Y30226
X38698Y31476
X45323Y27726
X45323Y21476
X44073Y15226
X44073Y13601
X38573Y8476
T02
X37823Y11976
T03
X37573Y15226
X38323Y15976
X34573Y14726
X29073Y11976
X24198Y22351
X30823Y27976
X31948Y27976
X31323Y31476
X34073Y31476
X32323Y24351
X31323Y24351
X40073Y22601
X41823Y19476
X14073Y10976
X12823Y12226
T04
X32198Y11351
X32198Y10351
X32198Y9351
X34198Y9351
X34198Y10351
X34198Y11351
X34198Y7351
X32198Y7351
X39448Y7351
X41448Y7351
X41448Y9351
X40448Y9351
X39448Y9351
X39698Y24226
X39698Y25226
X39698Y26226
X40698Y26226
X40698Y25226
X40698Y24226
X41698Y24226
X41698Y25226
X41698Y26226
X42698Y26226
X42698Y25226
X42698Y24226
X43698Y24226
X43698Y25226
X43698Y26226
X43698Y27226
X42698Y27226
X41698Y27226
X40698Y27226
X39698Y27226
X39698Y28226
X39698Y29226
X40698Y29226
X40698Y28226
X41698Y28226
X41698Y29226
X42698Y29226
X42698Y28226
X43698Y28226
X43698Y29226
X44698Y29226
X44698Y28226
X44698Y27226
T05
X47277Y28351
X48277Y29351
X47277Y30351
X37198Y17351
X37198Y16351
X35698Y13851
X33698Y13851
X29698Y11476
X28698Y11476
X20698Y15476
X18698Y15976
X16698Y15476
X15698Y15476
X14698Y15476
X13698Y15476
X11198Y15476
X9198Y15476
X9198Y18476
X9198Y20476
X11198Y20476
X11198Y18476
X13198Y20476
X14198Y20476
X13698Y18476
X14698Y18476
X15698Y18476
X16698Y18476
X18698Y17976
X18698Y19726
X20698Y19726
X20698Y18476
X20698Y22726
X20698Y23976
X18698Y24476
X17698Y24476
X16698Y24476
X15698Y24476
X14698Y24476
X13698Y24476
X12698Y24476
X12198Y22476
X14698Y22726
X16698Y22726
X18698Y22726
X20698Y26976
X18698Y27476
X17698Y27476
X16698Y27476
X15698Y27476
X14698Y27476
X13698Y27476
X12698Y27476
X9198Y22476
X5245Y22101
X4245Y21101
X5245Y20101
X5245Y24226
X4245Y25226
X5245Y26226
X5245Y28476
X4245Y29476
X5245Y30476
X40698Y12351
X43698Y12351
X44698Y10101
X45698Y10101
T06
X44698Y24226
X44698Y25226
X44698Y26226
X41948Y30426
X40948Y30426
X38698Y29226
X38698Y28226
X38698Y27226
X38698Y26226
X38698Y25226
X38698Y24226
X25198Y13351
X24198Y13351
X18198Y13351
X17198Y13351
X11198Y13351
X10198Y13351
T07
X5198Y10851
X4198Y10851
X4198Y9851
X5198Y9851
X22573Y15726
X23573Y15726
X25448Y15601
X25448Y16601
X26448Y16601
X26448Y15601
X26448Y17601
X25448Y17601
X25448Y19226
X26448Y19226
X26448Y20226
X25448Y20226
X25448Y21226
X26448Y21226
X23573Y22351
X22573Y22351
X22573Y20101
X23573Y20101
X23573Y17976
X22573Y17976
X5198Y32851
X4198Y32851
X4198Y33851
X5198Y33851
X44698Y23226
X44698Y22226
X47198Y32851
X48198Y32851
X48198Y33851
X47198Y33851
X47198Y10851
X48198Y10851
X48198Y9851
X47198Y9851
T08
X47573Y23726
X47573Y24726
X47573Y25726
X29073Y26185
X21323Y33101
X20323Y33101
X19323Y33101
X18323Y33101
X8698Y32976
X7698Y32976
X4948Y17226
X4948Y16226
X4948Y15226
X4948Y14226
X4948Y13226
X29073Y13405
T09
X33573Y20351
X34573Y20351
X35573Y20351
X41198Y22351
X42198Y22351
X43198Y22351
T10
X35948Y30476
X31948Y30476
X27948Y30476
X23948Y30476
X23948Y34476
X27948Y34476
X31948Y34476
X35948Y34476
X15698Y34476
X11698Y34476
X11698Y30476
X15698Y30476
X29198Y9251
T11
X29573Y15351
X33323Y17101
X18323Y30476
X12448Y29226
X9688Y30151
X8348Y30151
X8348Y24851
X9688Y24851
T12
X8198Y11351
X12198Y11351
X15198Y11351
X19198Y11351
X22198Y11351
X26198Y11351
X39948Y32426
X43948Y32426
T13
X2073Y7726
X2073Y35976
X50323Y35976
X50323Y7726
T14
X42198Y15451
X34573Y27251
M30
