G75*
G70*
%OFA0B0*%
%FSLAX24Y24*%
%IPPOS*%
%LPD*%
%AMOC8*
5,1,8,0,0,1.08239X$1,22.5*
%
%ADD10C,0.0650*%
%ADD11OC8,0.0480*%
%ADD12C,0.0531*%
%ADD13C,0.0480*%
%ADD14C,0.0500*%
%ADD15C,0.0540*%
%ADD16OC8,0.0540*%
%ADD17OC8,0.0472*%
%ADD18C,0.0472*%
%ADD19OC8,0.0780*%
%ADD20OC8,0.0650*%
%ADD21R,0.0650X0.0650*%
%ADD22C,0.0660*%
%ADD23OC8,0.0850*%
%ADD24R,0.0945X0.0945*%
%ADD25C,0.1090*%
%ADD26C,0.0240*%
%ADD27C,0.0290*%
%ADD28OC8,0.0945*%
%ADD29C,0.0300*%
%ADD30C,0.0376*%
%ADD31C,0.0500*%
%ADD32R,0.0531X0.0531*%
%ADD33C,0.0160*%
%ADD34OC8,0.0531*%
D10*
X029073Y013080D02*
X029073Y013730D01*
X029073Y025860D02*
X029073Y026510D01*
D11*
X020698Y026976D03*
X020698Y023976D03*
X020698Y022726D03*
X018698Y022726D03*
X016698Y022726D03*
X014698Y022726D03*
X014198Y020476D03*
X013198Y020476D03*
X011198Y020476D03*
X009198Y020476D03*
X009198Y018476D03*
X011198Y018476D03*
X011198Y015476D03*
X009198Y015476D03*
X009198Y022476D03*
X012198Y022476D03*
X018698Y019726D03*
X018698Y017976D03*
X020698Y018476D03*
X020698Y019726D03*
X018698Y015976D03*
X020698Y015476D03*
X028698Y011476D03*
X029698Y011476D03*
X033698Y013851D03*
X035698Y013851D03*
X037198Y016351D03*
X037198Y017351D03*
X040698Y012351D03*
X043698Y012351D03*
X044698Y010101D03*
X045698Y010101D03*
D12*
X025198Y013351D03*
X024198Y013351D03*
X018198Y013351D03*
X017198Y013351D03*
X011198Y013351D03*
X010198Y013351D03*
X040948Y030426D03*
X041948Y030426D03*
D13*
X047037Y030351D02*
X047517Y030351D01*
X048037Y029351D02*
X048517Y029351D01*
X047517Y028351D02*
X047037Y028351D01*
X018698Y027716D02*
X018698Y027236D01*
X017698Y027236D02*
X017698Y027716D01*
X016698Y027716D02*
X016698Y027236D01*
X015698Y027236D02*
X015698Y027716D01*
X014698Y027716D02*
X014698Y027236D01*
X013698Y027236D02*
X013698Y027716D01*
X012698Y027716D02*
X012698Y027236D01*
X012698Y024716D02*
X012698Y024236D01*
X013698Y024236D02*
X013698Y024716D01*
X014698Y024716D02*
X014698Y024236D01*
X015698Y024236D02*
X015698Y024716D01*
X016698Y024716D02*
X016698Y024236D01*
X017698Y024236D02*
X017698Y024716D01*
X018698Y024716D02*
X018698Y024236D01*
X005485Y024226D02*
X005005Y024226D01*
X004485Y025226D02*
X004005Y025226D01*
X005005Y026226D02*
X005485Y026226D01*
X005485Y028476D02*
X005005Y028476D01*
X004485Y029476D02*
X004005Y029476D01*
X005005Y030476D02*
X005485Y030476D01*
X005485Y022101D02*
X005005Y022101D01*
X004485Y021101D02*
X004005Y021101D01*
X005005Y020101D02*
X005485Y020101D01*
D14*
X013698Y018726D02*
X013698Y018226D01*
X014698Y018226D02*
X014698Y018726D01*
X015698Y018726D02*
X015698Y018226D01*
X016698Y018226D02*
X016698Y018726D01*
X016698Y015726D02*
X016698Y015226D01*
X015698Y015226D02*
X015698Y015726D01*
X014698Y015726D02*
X014698Y015226D01*
X013698Y015226D02*
X013698Y015726D01*
D15*
X022573Y015456D02*
X022573Y015996D01*
X023573Y015996D02*
X023573Y015456D01*
X023573Y017706D02*
X023573Y018246D01*
X022573Y018246D02*
X022573Y017706D01*
X022573Y019831D02*
X022573Y020371D01*
X023573Y020371D02*
X023573Y019831D01*
X023573Y022081D02*
X023573Y022621D01*
X022573Y022621D02*
X022573Y022081D01*
X044428Y022226D02*
X044968Y022226D01*
X044968Y023226D02*
X044428Y023226D01*
D16*
X047198Y032851D03*
X048198Y032851D03*
X048198Y033851D03*
X047198Y033851D03*
X026448Y021226D03*
X025448Y021226D03*
X025448Y020226D03*
X026448Y020226D03*
X026448Y019226D03*
X025448Y019226D03*
X025448Y017601D03*
X026448Y017601D03*
X026448Y016601D03*
X025448Y016601D03*
X025448Y015601D03*
X026448Y015601D03*
X047198Y010851D03*
X048198Y010851D03*
X048198Y009851D03*
X047198Y009851D03*
X005198Y009851D03*
X004198Y009851D03*
X004198Y010851D03*
X005198Y010851D03*
X005198Y032851D03*
X004198Y032851D03*
X004198Y033851D03*
X005198Y033851D03*
D17*
X032198Y011351D03*
X032198Y010351D03*
X032198Y009351D03*
X034198Y009351D03*
X034198Y010351D03*
X034198Y011351D03*
X039448Y009351D03*
X040448Y009351D03*
X041448Y009351D03*
D18*
X041448Y007351D03*
X039448Y007351D03*
X034198Y007351D03*
X032198Y007351D03*
D19*
X031948Y030476D03*
X027948Y030476D03*
X023948Y030476D03*
X023948Y034476D03*
X027948Y034476D03*
X031948Y034476D03*
X035948Y034476D03*
X035948Y030476D03*
X015698Y030476D03*
X011698Y030476D03*
X011698Y034476D03*
X015698Y034476D03*
D20*
X018323Y033101D03*
X019323Y033101D03*
X020323Y033101D03*
X007698Y032976D03*
X004948Y016226D03*
X004948Y015226D03*
X004948Y014226D03*
X004948Y013226D03*
X047573Y024726D03*
X047573Y025726D03*
D21*
X047573Y023726D03*
X021323Y033101D03*
X008698Y032976D03*
X004948Y017226D03*
D22*
X033573Y020021D02*
X033573Y020681D01*
X034573Y020681D02*
X034573Y020021D01*
X035573Y020021D02*
X035573Y020681D01*
X041198Y022021D02*
X041198Y022681D01*
X042198Y022681D02*
X042198Y022021D01*
X043198Y022021D02*
X043198Y022681D01*
D23*
X029198Y009251D03*
D24*
X009688Y024851D03*
X008348Y024851D03*
X008348Y030151D03*
X009688Y030151D03*
D25*
X012448Y029226D02*
X009698Y026476D01*
X009688Y026466D02*
X009688Y025976D01*
X009688Y024851D01*
X008348Y024851D01*
X018323Y030476D02*
X018323Y033101D01*
X034448Y017101D02*
X035948Y018601D01*
X039448Y018601D01*
X041198Y020351D01*
X041198Y022351D01*
X034448Y017101D02*
X033323Y017101D01*
X029573Y015351D02*
X029573Y013905D01*
X029073Y013405D01*
D26*
X028323Y013976D02*
X028323Y018476D01*
X026573Y020226D01*
X026448Y020226D01*
X025448Y019226D02*
X025323Y019226D01*
X024823Y019726D01*
X024823Y024976D01*
X024073Y025726D01*
X023698Y025351D02*
X021448Y023101D01*
X021448Y019226D01*
X020698Y018476D01*
X021073Y017851D02*
X019948Y017851D01*
X018698Y019101D01*
X018698Y019726D01*
X019823Y020601D02*
X020698Y019726D01*
X019823Y020601D02*
X019823Y021101D01*
X021948Y020726D02*
X022573Y021351D01*
X023323Y021351D01*
X023573Y021601D01*
X023573Y022351D01*
X023573Y024101D01*
X024198Y024726D01*
X024198Y022351D02*
X024198Y021601D01*
X023573Y020976D01*
X023073Y020976D01*
X022573Y020476D01*
X022573Y020101D01*
X021948Y020726D02*
X021948Y018726D01*
X021073Y017851D01*
X022323Y017976D02*
X022573Y017976D01*
X022323Y017976D02*
X019323Y014976D01*
X020698Y015476D02*
X020823Y015476D01*
X022073Y016726D01*
X023573Y016726D01*
X023573Y015726D02*
X023573Y015226D01*
X022823Y014476D01*
X024198Y013351D02*
X024323Y013226D01*
X024323Y010976D01*
X024323Y010601D01*
X024698Y010226D01*
X029573Y010226D01*
X031073Y008726D01*
X032073Y008476D02*
X038573Y008476D01*
X034823Y010601D02*
X034823Y011476D01*
X033948Y012351D01*
X031448Y012351D01*
X029823Y010726D01*
X027948Y010726D01*
X027323Y011351D01*
X027323Y012726D01*
X024823Y015226D01*
X024823Y016226D01*
X025323Y016726D01*
X025448Y016601D01*
X025448Y015601D02*
X029073Y011976D01*
X030823Y010976D02*
X031823Y011976D01*
X030573Y009976D02*
X032073Y008476D01*
X034198Y010351D02*
X034573Y010351D01*
X034823Y010601D01*
X034573Y014726D02*
X033573Y014726D01*
X030573Y017101D02*
X030573Y018226D01*
X027073Y021726D01*
X024323Y020976D02*
X024323Y018226D01*
X024073Y017976D01*
X023573Y017976D01*
X017573Y017601D02*
X017573Y015976D01*
X021323Y012226D01*
X015573Y009476D02*
X014073Y010976D01*
X012823Y012226D02*
X012073Y012976D01*
X012073Y016476D01*
X011573Y016976D01*
X011823Y017226D01*
X011573Y016976D02*
X010823Y017726D01*
X008073Y017726D01*
X009198Y018476D02*
X009323Y018476D01*
X010573Y019726D01*
X012573Y019726D02*
X012573Y017976D01*
X013323Y017226D01*
X015073Y017226D01*
X012573Y021351D02*
X012573Y021726D01*
X012823Y021976D01*
X012823Y024476D01*
X012698Y024476D01*
X013698Y024476D02*
X013823Y024476D01*
X013823Y024226D01*
X014073Y023976D01*
X014073Y022476D01*
X014698Y022726D02*
X014948Y022726D01*
X015698Y023476D01*
X015698Y024476D01*
X016698Y024476D02*
X016823Y024476D01*
X017073Y024226D01*
X017073Y023226D01*
X017573Y024476D02*
X017698Y024476D01*
X017573Y024476D02*
X017573Y024726D01*
X016823Y025476D01*
X014573Y025476D01*
X014323Y025226D01*
X011573Y024976D02*
X011573Y022476D01*
X010948Y024226D02*
X010948Y024851D01*
X010948Y024226D02*
X009198Y022476D01*
X006823Y022601D02*
X006823Y023976D01*
X006823Y024226D01*
X009688Y025976D02*
X009823Y025976D01*
X009698Y026476D01*
X007573Y027976D02*
X008323Y028726D01*
X006323Y028976D02*
X006323Y026976D01*
X006323Y028976D02*
X005323Y029976D01*
X005323Y030476D01*
X005245Y030476D01*
X018698Y027476D02*
X018823Y027476D01*
X018823Y027226D01*
X019073Y027226D01*
X019573Y026726D01*
X019573Y024726D01*
X019823Y024226D02*
X019823Y023351D01*
X019823Y024226D02*
X023073Y027476D01*
X018823Y026226D02*
X018823Y024476D01*
X018698Y024476D01*
X029573Y019851D02*
X029948Y019851D01*
X030448Y019351D01*
X030948Y019351D01*
X032323Y019726D02*
X032573Y019976D01*
X032323Y020226D01*
X032323Y024351D01*
X032823Y023726D02*
X032823Y021226D01*
X033573Y020476D01*
X033573Y020351D01*
X034573Y020351D02*
X034573Y019226D01*
X033323Y019226D01*
X032573Y019976D01*
X034573Y019226D02*
X034573Y018976D01*
X034823Y018726D01*
X035573Y020351D02*
X035573Y023726D01*
X034323Y023726D02*
X038323Y027726D01*
X039198Y027726D01*
X037448Y027476D02*
X037448Y028976D01*
X038698Y030226D01*
X039573Y030226D01*
X038698Y031476D02*
X034073Y031476D01*
X031948Y030476D02*
X031948Y027976D01*
X030823Y027976D02*
X030823Y031226D01*
X031073Y031476D01*
X031323Y031476D01*
X037448Y027476D02*
X033823Y023851D01*
X033823Y022726D01*
X033323Y022226D01*
X034323Y021976D02*
X034323Y023726D01*
X036823Y023476D02*
X041573Y023476D01*
X042073Y022976D01*
X042073Y022476D01*
X042198Y022351D01*
X040073Y022601D02*
X038448Y020976D01*
X037573Y020976D01*
X041823Y019476D02*
X044448Y022101D01*
X044573Y022101D01*
X045323Y021476D02*
X045823Y021976D01*
X045823Y024226D01*
X046323Y024726D01*
X047573Y024726D01*
X044698Y024226D02*
X044698Y025226D01*
X044698Y026226D01*
X045323Y027726D02*
X046823Y027726D01*
X047277Y028179D01*
X047277Y028351D01*
X044698Y024226D02*
X044698Y023226D01*
X038323Y015976D02*
X037573Y015226D01*
X044073Y015226D02*
X044073Y013601D01*
X031323Y022226D02*
X031323Y024351D01*
D27*
X032823Y023726D03*
X033323Y022226D03*
X034323Y021976D03*
X035573Y023726D03*
X036823Y023476D03*
X037573Y020976D03*
X034823Y018726D03*
X032323Y019726D03*
X030948Y019351D03*
X029573Y019851D03*
X031323Y022226D03*
X027073Y021726D03*
X024198Y024726D03*
X023698Y025351D03*
X024073Y025726D03*
X023073Y027476D03*
X019573Y024726D03*
X019823Y023351D03*
X019823Y021101D03*
X017073Y023226D03*
X014323Y025226D03*
X011573Y024976D03*
X010948Y024851D03*
X011573Y022476D03*
X012573Y021351D03*
X012573Y019726D03*
X010573Y019726D03*
X008073Y017726D03*
X011823Y017226D03*
X015073Y017226D03*
X017573Y017601D03*
X019323Y014976D03*
X021323Y012226D03*
X022823Y014476D03*
X023573Y016726D03*
X028323Y013976D03*
X030823Y010976D03*
X031823Y011976D03*
X030573Y009976D03*
X031073Y008726D03*
X024323Y010976D03*
X030573Y017101D03*
X033573Y014726D03*
X038573Y008476D03*
X044073Y013601D03*
X044073Y015226D03*
X045323Y021476D03*
X045323Y027726D03*
X039573Y030226D03*
X038698Y031476D03*
X039198Y027726D03*
X018823Y026226D03*
X014073Y022476D03*
X007573Y027976D03*
X008323Y028726D03*
X006323Y026976D03*
X006823Y024226D03*
X006823Y022601D03*
X015573Y009476D03*
D28*
X029573Y015351D03*
X033323Y017101D03*
X018323Y030476D03*
X012448Y029226D03*
D29*
X037823Y011976D03*
D30*
X037573Y015226D03*
X038323Y015976D03*
X034573Y014726D03*
X029073Y011976D03*
X024198Y022351D03*
X030823Y027976D03*
X031948Y027976D03*
X031323Y031476D03*
X034073Y031476D03*
X032323Y024351D03*
X031323Y024351D03*
X040073Y022601D03*
X041823Y019476D03*
X014073Y010976D03*
X012823Y012226D03*
D31*
X039698Y024226D03*
X039698Y025226D03*
X039698Y026226D03*
X040698Y026226D03*
X040698Y025226D03*
X040698Y024226D03*
X041698Y024226D03*
X041698Y025226D03*
X041698Y026226D03*
X042698Y026226D03*
X042698Y025226D03*
X042698Y024226D03*
X043698Y024226D03*
X043698Y025226D03*
X043698Y026226D03*
X043698Y027226D03*
X042698Y027226D03*
X041698Y027226D03*
X040698Y027226D03*
X039698Y027226D03*
X039698Y028226D03*
X039698Y029226D03*
X040698Y029226D03*
X040698Y028226D03*
X041698Y028226D03*
X041698Y029226D03*
X042698Y029226D03*
X042698Y028226D03*
X043698Y028226D03*
X043698Y029226D03*
X044698Y029226D03*
X044698Y028226D03*
X044698Y027226D03*
D32*
X038698Y027226D03*
X038698Y028226D03*
X038698Y029226D03*
X038698Y026226D03*
X038698Y025226D03*
X038698Y024226D03*
D33*
X003823Y008726D02*
X003073Y009476D01*
X003073Y034226D01*
X003823Y034976D01*
X011449Y034976D01*
X011168Y034695D01*
X011168Y034256D01*
X011479Y033946D01*
X011918Y033946D01*
X012228Y034256D01*
X015128Y034256D01*
X015128Y034240D02*
X015462Y033906D01*
X015648Y033906D01*
X015648Y034426D01*
X015128Y034426D01*
X015128Y034240D01*
X015128Y034414D02*
X012228Y034414D01*
X012228Y034256D02*
X012228Y034695D01*
X011948Y034976D01*
X015392Y034976D01*
X015128Y034712D01*
X015128Y034526D01*
X015648Y034526D01*
X015648Y034426D01*
X015748Y034426D01*
X015748Y033906D01*
X015935Y033906D01*
X016268Y034240D01*
X016268Y034426D01*
X015748Y034426D01*
X015748Y034526D01*
X016268Y034526D01*
X016268Y034712D01*
X016005Y034976D01*
X023699Y034976D01*
X023418Y034695D01*
X023418Y034256D01*
X023729Y033946D01*
X024168Y033946D01*
X024478Y034256D01*
X027419Y034256D01*
X027418Y034256D02*
X027729Y033946D01*
X028168Y033946D01*
X028478Y034256D01*
X031419Y034256D01*
X031418Y034256D02*
X031729Y033946D01*
X032168Y033946D01*
X032478Y034256D01*
X035378Y034256D01*
X035378Y034240D02*
X035712Y033906D01*
X035898Y033906D01*
X035898Y034426D01*
X035378Y034426D01*
X035378Y034240D01*
X035378Y034414D02*
X032478Y034414D01*
X032478Y034256D02*
X032478Y034695D01*
X032198Y034976D01*
X035642Y034976D01*
X035378Y034712D01*
X035378Y034526D01*
X035898Y034526D01*
X035898Y034426D01*
X035998Y034426D01*
X035998Y033906D01*
X036185Y033906D01*
X036518Y034240D01*
X036518Y034426D01*
X035998Y034426D01*
X035998Y034526D01*
X036518Y034526D01*
X036518Y034712D01*
X036255Y034976D01*
X048573Y034976D01*
X049323Y034226D01*
X049323Y009476D01*
X048573Y008726D01*
X042823Y008726D01*
X042073Y007976D01*
X042073Y006976D01*
X041823Y006726D01*
X031823Y006726D01*
X031573Y006976D01*
X031573Y007976D01*
X031108Y008441D01*
X031130Y008441D01*
X031235Y008484D01*
X031315Y008564D01*
X031358Y008669D01*
X031358Y008782D01*
X031330Y008852D01*
X031853Y008328D01*
X031926Y008255D01*
X032022Y008216D01*
X038456Y008216D01*
X038517Y008191D01*
X038630Y008191D01*
X038735Y008234D01*
X038815Y008314D01*
X038858Y008419D01*
X038858Y008532D01*
X038815Y008637D01*
X038735Y008717D01*
X038630Y008761D01*
X038517Y008761D01*
X038456Y008736D01*
X032181Y008736D01*
X030840Y010077D01*
X030815Y010137D01*
X030735Y010217D01*
X030630Y010261D01*
X030517Y010261D01*
X030412Y010217D01*
X030332Y010137D01*
X030288Y010032D01*
X030288Y009919D01*
X030317Y009850D01*
X029794Y010373D01*
X029721Y010446D01*
X029673Y010466D01*
X029875Y010466D01*
X029971Y010505D01*
X030567Y011102D01*
X030538Y011032D01*
X030538Y010919D01*
X030582Y010814D01*
X030662Y010734D01*
X030767Y010691D01*
X030880Y010691D01*
X030985Y010734D01*
X031065Y010814D01*
X031090Y010875D01*
X031925Y011709D01*
X031985Y011734D01*
X032065Y011814D01*
X032108Y011919D01*
X032108Y012032D01*
X032084Y012091D01*
X033841Y012091D01*
X034205Y011727D01*
X034043Y011727D01*
X033822Y011506D01*
X033822Y011195D01*
X034043Y010974D01*
X034354Y010974D01*
X034563Y011184D01*
X034563Y010708D01*
X034468Y010613D01*
X034354Y010727D01*
X034043Y010727D01*
X033822Y010506D01*
X033822Y010195D01*
X034043Y009974D01*
X034354Y009974D01*
X034470Y010091D01*
X034625Y010091D01*
X034721Y010130D01*
X034794Y010203D01*
X035044Y010453D01*
X035083Y010549D01*
X035083Y011527D01*
X035044Y011623D01*
X034971Y011696D01*
X034971Y011696D01*
X034169Y012498D01*
X034096Y012571D01*
X034000Y012611D01*
X031397Y012611D01*
X031301Y012571D01*
X031228Y012498D01*
X030118Y011388D01*
X030118Y011476D01*
X030118Y011650D01*
X029872Y011896D01*
X029698Y011896D01*
X029524Y011896D01*
X029278Y011650D01*
X029278Y011476D01*
X029698Y011476D01*
X029698Y011896D01*
X029698Y011476D01*
X029698Y011476D01*
X029698Y011476D01*
X029278Y011476D01*
X029278Y011302D01*
X029524Y011056D01*
X029698Y011056D01*
X029698Y011476D01*
X029698Y011476D01*
X030118Y011476D01*
X029698Y011476D01*
X029698Y011476D01*
X029698Y011056D01*
X029786Y011056D01*
X029716Y010986D01*
X028056Y010986D01*
X027583Y011458D01*
X027583Y012777D01*
X027544Y012873D01*
X027471Y012946D01*
X027471Y012946D01*
X025083Y015333D01*
X025083Y015386D01*
X025279Y015191D01*
X025491Y015191D01*
X028745Y011936D01*
X028745Y011910D01*
X028768Y011856D01*
X028541Y011856D01*
X028318Y011633D01*
X028318Y011318D01*
X028541Y011096D01*
X028856Y011096D01*
X029078Y011318D01*
X029078Y011633D01*
X029064Y011648D01*
X029139Y011648D01*
X029259Y011697D01*
X029352Y011790D01*
X029402Y011910D01*
X029402Y012041D01*
X029352Y012161D01*
X029259Y012254D01*
X029139Y012304D01*
X029113Y012304D01*
X025858Y015558D01*
X025858Y015770D01*
X025618Y016011D01*
X025279Y016011D01*
X025083Y015815D01*
X025083Y016118D01*
X025217Y016252D01*
X025279Y016191D01*
X025618Y016191D01*
X025858Y016431D01*
X025858Y016770D01*
X025618Y017011D01*
X025279Y017011D01*
X025241Y016973D01*
X025176Y016946D01*
X025103Y016873D01*
X024603Y016373D01*
X024563Y016277D01*
X024563Y015174D01*
X024603Y015078D01*
X024676Y015005D01*
X027063Y012618D01*
X027063Y011299D01*
X027103Y011203D01*
X027176Y011130D01*
X027801Y010505D01*
X027848Y010486D01*
X024806Y010486D01*
X024583Y010708D01*
X024583Y010859D01*
X024608Y010919D01*
X024608Y011032D01*
X024583Y011093D01*
X024583Y013220D01*
X024604Y013270D01*
X024604Y013431D01*
X024542Y013580D01*
X024428Y013695D01*
X024279Y013756D01*
X024118Y013756D01*
X023969Y013695D01*
X023854Y013580D01*
X023793Y013431D01*
X023793Y013270D01*
X023854Y013121D01*
X023969Y013007D01*
X024063Y012967D01*
X024063Y011093D01*
X024038Y011032D01*
X024038Y010919D01*
X024063Y010859D01*
X024063Y010549D01*
X024103Y010453D01*
X024478Y010078D01*
X024551Y010005D01*
X024647Y009966D01*
X029466Y009966D01*
X030706Y008726D01*
X029472Y008726D01*
X029763Y009017D01*
X029763Y009485D01*
X029432Y009816D01*
X028964Y009816D01*
X028633Y009485D01*
X028633Y009017D01*
X028924Y008726D01*
X003823Y008726D01*
X003812Y008737D02*
X028913Y008737D01*
X028754Y008896D02*
X003653Y008896D01*
X003495Y009054D02*
X028633Y009054D01*
X028633Y009213D02*
X015683Y009213D01*
X015735Y009234D02*
X015630Y009191D01*
X015517Y009191D01*
X015412Y009234D01*
X015332Y009314D01*
X015307Y009375D01*
X014034Y010648D01*
X014008Y010648D01*
X013888Y010697D01*
X013795Y010790D01*
X013745Y010910D01*
X013745Y011041D01*
X013795Y011161D01*
X013888Y011254D01*
X014008Y011304D01*
X014139Y011304D01*
X014259Y011254D01*
X014352Y011161D01*
X014402Y011041D01*
X014402Y011015D01*
X015675Y009742D01*
X015735Y009717D01*
X015815Y009637D01*
X015858Y009532D01*
X015858Y009419D01*
X015815Y009314D01*
X015735Y009234D01*
X015839Y009371D02*
X028633Y009371D01*
X028678Y009530D02*
X015858Y009530D01*
X015764Y009688D02*
X028837Y009688D01*
X029560Y009688D02*
X029743Y009688D01*
X029718Y009530D02*
X029902Y009530D01*
X029763Y009371D02*
X030060Y009371D01*
X030219Y009213D02*
X029763Y009213D01*
X029763Y009054D02*
X030377Y009054D01*
X030536Y008896D02*
X029642Y008896D01*
X029484Y008737D02*
X030694Y008737D01*
X031129Y008420D02*
X031761Y008420D01*
X031603Y008579D02*
X031321Y008579D01*
X031358Y008737D02*
X031444Y008737D01*
X031287Y008262D02*
X031920Y008262D01*
X031573Y007945D02*
X042073Y007945D01*
X042073Y007786D02*
X031573Y007786D01*
X031573Y007628D02*
X031943Y007628D01*
X031985Y007670D02*
X031879Y007564D01*
X031822Y007425D01*
X031822Y007276D01*
X031879Y007138D01*
X031985Y007032D01*
X032124Y006974D01*
X032273Y006974D01*
X032412Y007032D01*
X032517Y007138D01*
X032575Y007276D01*
X032575Y007425D01*
X032517Y007564D01*
X032412Y007670D01*
X032273Y007727D01*
X032124Y007727D01*
X031985Y007670D01*
X031840Y007469D02*
X031573Y007469D01*
X031573Y007311D02*
X031822Y007311D01*
X031873Y007152D02*
X031573Y007152D01*
X031573Y006994D02*
X032077Y006994D01*
X032320Y006994D02*
X034077Y006994D01*
X034124Y006974D02*
X034273Y006974D01*
X034412Y007032D01*
X034517Y007138D01*
X034575Y007276D01*
X034575Y007425D01*
X034517Y007564D01*
X034412Y007670D01*
X034273Y007727D01*
X034124Y007727D01*
X033985Y007670D01*
X033879Y007564D01*
X033822Y007425D01*
X033822Y007276D01*
X033879Y007138D01*
X033985Y007032D01*
X034124Y006974D01*
X034320Y006994D02*
X039327Y006994D01*
X039374Y006974D02*
X039523Y006974D01*
X039662Y007032D01*
X039767Y007138D01*
X039825Y007276D01*
X039825Y007425D01*
X039767Y007564D01*
X039662Y007670D01*
X039523Y007727D01*
X039374Y007727D01*
X039235Y007670D01*
X039129Y007564D01*
X039072Y007425D01*
X039072Y007276D01*
X039129Y007138D01*
X039235Y007032D01*
X039374Y006974D01*
X039570Y006994D02*
X041327Y006994D01*
X041374Y006974D02*
X041523Y006974D01*
X041662Y007032D01*
X041767Y007138D01*
X041825Y007276D01*
X041825Y007425D01*
X041767Y007564D01*
X041662Y007670D01*
X041523Y007727D01*
X041374Y007727D01*
X041235Y007670D01*
X041129Y007564D01*
X041072Y007425D01*
X041072Y007276D01*
X041129Y007138D01*
X041235Y007032D01*
X041374Y006974D01*
X041570Y006994D02*
X042073Y006994D01*
X042073Y007152D02*
X041773Y007152D01*
X041825Y007311D02*
X042073Y007311D01*
X042073Y007469D02*
X041807Y007469D01*
X041703Y007628D02*
X042073Y007628D01*
X042201Y008103D02*
X031446Y008103D01*
X032180Y008737D02*
X038460Y008737D01*
X038687Y008737D02*
X048585Y008737D01*
X048743Y008896D02*
X032021Y008896D01*
X032043Y008974D02*
X032354Y008974D01*
X032575Y009195D01*
X032575Y009506D01*
X032354Y009727D01*
X032043Y009727D01*
X031822Y009506D01*
X031822Y009195D01*
X032043Y008974D01*
X031963Y009054D02*
X031863Y009054D01*
X031822Y009213D02*
X031704Y009213D01*
X031822Y009371D02*
X031546Y009371D01*
X031387Y009530D02*
X031845Y009530D01*
X032004Y009688D02*
X031229Y009688D01*
X031070Y009847D02*
X044415Y009847D01*
X044318Y009943D02*
X044541Y009721D01*
X044856Y009721D01*
X045078Y009943D01*
X045078Y010258D01*
X044856Y010481D01*
X044541Y010481D01*
X044318Y010258D01*
X044318Y009943D01*
X044318Y010005D02*
X034385Y010005D01*
X034354Y009727D02*
X034043Y009727D01*
X033822Y009506D01*
X033822Y009195D01*
X034043Y008974D01*
X034354Y008974D01*
X034575Y009195D01*
X034575Y009506D01*
X034354Y009727D01*
X034393Y009688D02*
X039254Y009688D01*
X039293Y009727D02*
X039072Y009506D01*
X039072Y009195D01*
X039293Y008974D01*
X039604Y008974D01*
X039825Y009195D01*
X039825Y009506D01*
X039604Y009727D01*
X039293Y009727D01*
X039095Y009530D02*
X034551Y009530D01*
X034575Y009371D02*
X039072Y009371D01*
X039072Y009213D02*
X034575Y009213D01*
X034434Y009054D02*
X039213Y009054D01*
X039684Y009054D02*
X040213Y009054D01*
X040293Y008974D02*
X040604Y008974D01*
X040825Y009195D01*
X040825Y009506D01*
X040604Y009727D01*
X040293Y009727D01*
X040072Y009506D01*
X040072Y009195D01*
X040293Y008974D01*
X040072Y009213D02*
X039825Y009213D01*
X039825Y009371D02*
X040072Y009371D01*
X040095Y009530D02*
X039801Y009530D01*
X039643Y009688D02*
X040254Y009688D01*
X040643Y009688D02*
X041254Y009688D01*
X041293Y009727D02*
X041072Y009506D01*
X041072Y009195D01*
X041293Y008974D01*
X041604Y008974D01*
X041825Y009195D01*
X041825Y009506D01*
X041604Y009727D01*
X041293Y009727D01*
X041095Y009530D02*
X040801Y009530D01*
X040825Y009371D02*
X041072Y009371D01*
X041072Y009213D02*
X040825Y009213D01*
X040684Y009054D02*
X041213Y009054D01*
X041684Y009054D02*
X048902Y009054D01*
X049060Y009213D02*
X041825Y009213D01*
X041825Y009371D02*
X049219Y009371D01*
X049323Y009530D02*
X048457Y009530D01*
X048368Y009441D02*
X048608Y009681D01*
X048608Y010020D01*
X048368Y010261D01*
X048029Y010261D01*
X047788Y010020D01*
X047788Y009681D01*
X048029Y009441D01*
X048368Y009441D01*
X048608Y009688D02*
X049323Y009688D01*
X049323Y009847D02*
X048608Y009847D01*
X048608Y010005D02*
X049323Y010005D01*
X049323Y010164D02*
X048465Y010164D01*
X048368Y010441D02*
X048608Y010681D01*
X048608Y011020D01*
X048368Y011261D01*
X048029Y011261D01*
X047788Y011020D01*
X047788Y010681D01*
X048029Y010441D01*
X048368Y010441D01*
X048408Y010481D02*
X049323Y010481D01*
X049323Y010639D02*
X048567Y010639D01*
X048608Y010798D02*
X049323Y010798D01*
X049323Y010956D02*
X048608Y010956D01*
X048514Y011115D02*
X049323Y011115D01*
X049323Y011273D02*
X035083Y011273D01*
X035083Y011115D02*
X046883Y011115D01*
X046788Y011020D02*
X046788Y010681D01*
X047029Y010441D01*
X047368Y010441D01*
X047608Y010681D01*
X047608Y011020D01*
X047368Y011261D01*
X047029Y011261D01*
X046788Y011020D01*
X046788Y010956D02*
X035083Y010956D01*
X035083Y010798D02*
X046788Y010798D01*
X046830Y010639D02*
X035083Y010639D01*
X035055Y010481D02*
X045484Y010481D01*
X045524Y010521D02*
X045278Y010275D01*
X045278Y010101D01*
X045698Y010101D01*
X045698Y010521D01*
X045524Y010521D01*
X045698Y010521D02*
X045698Y010101D01*
X045698Y010101D01*
X045698Y010101D01*
X045278Y010101D01*
X045278Y009927D01*
X045524Y009681D01*
X045698Y009681D01*
X045698Y010101D01*
X045698Y010101D01*
X046118Y010101D01*
X046118Y010275D01*
X045872Y010521D01*
X045698Y010521D01*
X045698Y010481D02*
X045698Y010481D01*
X045698Y010322D02*
X045698Y010322D01*
X045698Y010164D02*
X045698Y010164D01*
X045698Y010101D02*
X045698Y010101D01*
X045698Y009681D01*
X045872Y009681D01*
X046118Y009927D01*
X046118Y010101D01*
X045698Y010101D01*
X045698Y010005D02*
X045698Y010005D01*
X045698Y009847D02*
X045698Y009847D01*
X045698Y009688D02*
X045698Y009688D01*
X045517Y009688D02*
X041643Y009688D01*
X041801Y009530D02*
X046940Y009530D01*
X047029Y009441D02*
X047368Y009441D01*
X047608Y009681D01*
X047608Y010020D01*
X047368Y010261D01*
X047029Y010261D01*
X046788Y010020D01*
X046788Y009681D01*
X047029Y009441D01*
X046788Y009688D02*
X045880Y009688D01*
X046038Y009847D02*
X046788Y009847D01*
X046788Y010005D02*
X046118Y010005D01*
X046118Y010164D02*
X046932Y010164D01*
X046989Y010481D02*
X045912Y010481D01*
X046071Y010322D02*
X049323Y010322D01*
X049323Y011432D02*
X035083Y011432D01*
X035057Y011590D02*
X049323Y011590D01*
X049323Y011749D02*
X038007Y011749D01*
X037988Y011730D02*
X038069Y011811D01*
X038113Y011918D01*
X038113Y012033D01*
X038069Y012140D01*
X037988Y012221D01*
X037881Y012266D01*
X037766Y012266D01*
X037659Y012221D01*
X037578Y012140D01*
X037533Y012033D01*
X037533Y011918D01*
X037578Y011811D01*
X037659Y011730D01*
X037766Y011686D01*
X037881Y011686D01*
X037988Y011730D01*
X038109Y011907D02*
X049323Y011907D01*
X049323Y012066D02*
X043951Y012066D01*
X043856Y011971D02*
X044078Y012193D01*
X044078Y012508D01*
X043856Y012731D01*
X043541Y012731D01*
X043318Y012508D01*
X043318Y012193D01*
X043541Y011971D01*
X043856Y011971D01*
X044078Y012224D02*
X049323Y012224D01*
X049323Y012383D02*
X044078Y012383D01*
X044045Y012541D02*
X049323Y012541D01*
X049323Y012700D02*
X043887Y012700D01*
X043510Y012700D02*
X040887Y012700D01*
X040856Y012731D02*
X041078Y012508D01*
X041078Y012193D01*
X040856Y011971D01*
X040541Y011971D01*
X040318Y012193D01*
X040318Y012508D01*
X040541Y012731D01*
X040856Y012731D01*
X041045Y012541D02*
X043352Y012541D01*
X043318Y012383D02*
X041078Y012383D01*
X041078Y012224D02*
X043318Y012224D01*
X043446Y012066D02*
X040951Y012066D01*
X040446Y012066D02*
X038100Y012066D01*
X037981Y012224D02*
X040318Y012224D01*
X040318Y012383D02*
X034284Y012383D01*
X034169Y012498D02*
X034169Y012498D01*
X034126Y012541D02*
X040352Y012541D01*
X040510Y012700D02*
X029350Y012700D01*
X029337Y012686D02*
X029467Y012817D01*
X029477Y012840D01*
X029961Y013325D01*
X029961Y013325D01*
X030154Y013517D01*
X030258Y013769D01*
X030258Y015487D01*
X030154Y015739D01*
X029961Y015931D01*
X029710Y016036D01*
X029437Y016036D01*
X029185Y015931D01*
X028993Y015739D01*
X028888Y015487D01*
X028888Y014189D01*
X028833Y014134D01*
X028810Y014124D01*
X028679Y013993D01*
X028670Y013970D01*
X028601Y013902D01*
X028608Y013919D01*
X028608Y014032D01*
X028583Y014093D01*
X028583Y018527D01*
X028544Y018623D01*
X028471Y018696D01*
X026858Y020308D01*
X026858Y020395D01*
X026618Y020636D01*
X026279Y020636D01*
X026038Y020395D01*
X026038Y020056D01*
X026279Y019816D01*
X026616Y019816D01*
X028063Y018368D01*
X028063Y014093D01*
X028038Y014032D01*
X028038Y013919D01*
X028082Y013814D01*
X028162Y013734D01*
X028267Y013691D01*
X028380Y013691D01*
X028465Y013726D01*
X028388Y013542D01*
X028388Y013269D01*
X028493Y013017D01*
X028670Y012840D01*
X028679Y012817D01*
X028810Y012686D01*
X028981Y012616D01*
X029166Y012616D01*
X029337Y012686D01*
X029495Y012858D02*
X049323Y012858D01*
X049323Y013017D02*
X029654Y013017D01*
X029812Y013175D02*
X049323Y013175D01*
X049323Y013334D02*
X044174Y013334D01*
X044130Y013316D02*
X044235Y013359D01*
X044315Y013439D01*
X044358Y013544D01*
X044358Y013657D01*
X044333Y013718D01*
X044333Y015109D01*
X044358Y015169D01*
X044358Y015282D01*
X044315Y015387D01*
X044235Y015467D01*
X044130Y015511D01*
X044017Y015511D01*
X043912Y015467D01*
X043832Y015387D01*
X043788Y015282D01*
X043788Y015169D01*
X043813Y015109D01*
X043813Y013718D01*
X043788Y013657D01*
X043788Y013544D01*
X043832Y013439D01*
X043912Y013359D01*
X044017Y013316D01*
X044130Y013316D01*
X043973Y013334D02*
X029971Y013334D01*
X030129Y013492D02*
X033520Y013492D01*
X033541Y013471D02*
X033318Y013693D01*
X033318Y014008D01*
X033541Y014231D01*
X033856Y014231D01*
X034078Y014008D01*
X034078Y013693D01*
X033856Y013471D01*
X033541Y013471D01*
X033361Y013651D02*
X030209Y013651D01*
X030258Y013809D02*
X033318Y013809D01*
X033318Y013968D02*
X030258Y013968D01*
X030258Y014126D02*
X033437Y014126D01*
X033517Y014441D02*
X033630Y014441D01*
X033690Y014466D01*
X034369Y014466D01*
X034388Y014447D01*
X034508Y014398D01*
X034639Y014398D01*
X034759Y014447D01*
X034852Y014540D01*
X034902Y014660D01*
X034902Y014791D01*
X034852Y014911D01*
X034759Y015004D01*
X034639Y015054D01*
X034508Y015054D01*
X034388Y015004D01*
X034369Y014986D01*
X033690Y014986D01*
X033630Y015011D01*
X033517Y015011D01*
X033412Y014967D01*
X033332Y014887D01*
X033288Y014782D01*
X033288Y014669D01*
X033332Y014564D01*
X033412Y014484D01*
X033517Y014441D01*
X033511Y014443D02*
X030258Y014443D01*
X030258Y014285D02*
X043813Y014285D01*
X043813Y014443D02*
X034749Y014443D01*
X034877Y014602D02*
X041948Y014602D01*
X042023Y014571D02*
X042373Y014571D01*
X042697Y014705D01*
X042944Y014952D01*
X043078Y015276D01*
X043078Y015626D01*
X042944Y015949D01*
X042697Y016197D01*
X042373Y016331D01*
X042023Y016331D01*
X041700Y016197D01*
X041452Y015949D01*
X041318Y015626D01*
X041318Y015276D01*
X041452Y014952D01*
X041700Y014705D01*
X042023Y014571D01*
X041644Y014760D02*
X034902Y014760D01*
X034844Y014919D02*
X037457Y014919D01*
X037508Y014898D02*
X037639Y014898D01*
X037759Y014947D01*
X037852Y015040D01*
X037902Y015160D01*
X037902Y015186D01*
X038363Y015648D01*
X038389Y015648D01*
X038509Y015697D01*
X038602Y015790D01*
X038652Y015910D01*
X038652Y016041D01*
X038602Y016161D01*
X038509Y016254D01*
X038389Y016304D01*
X038258Y016304D01*
X038138Y016254D01*
X038045Y016161D01*
X037995Y016041D01*
X037995Y016015D01*
X037534Y015554D01*
X037508Y015554D01*
X037388Y015504D01*
X037295Y015411D01*
X037245Y015291D01*
X037245Y015160D01*
X037295Y015040D01*
X037388Y014947D01*
X037508Y014898D01*
X037690Y014919D02*
X041486Y014919D01*
X041401Y015077D02*
X037867Y015077D01*
X037951Y015236D02*
X041335Y015236D01*
X041318Y015394D02*
X038110Y015394D01*
X038268Y015553D02*
X041318Y015553D01*
X041354Y015711D02*
X038523Y015711D01*
X038635Y015870D02*
X041419Y015870D01*
X041531Y016028D02*
X038652Y016028D01*
X038576Y016187D02*
X041690Y016187D01*
X042707Y016187D02*
X049323Y016187D01*
X049323Y016345D02*
X037578Y016345D01*
X037578Y016193D02*
X037578Y016508D01*
X037356Y016731D01*
X037041Y016731D01*
X036818Y016508D01*
X036818Y016193D01*
X037041Y015971D01*
X037356Y015971D01*
X037578Y016193D01*
X037572Y016187D02*
X038070Y016187D01*
X037995Y016028D02*
X037413Y016028D01*
X037691Y015711D02*
X030166Y015711D01*
X030231Y015553D02*
X037506Y015553D01*
X037288Y015394D02*
X030258Y015394D01*
X030258Y015236D02*
X037245Y015236D01*
X037280Y015077D02*
X030258Y015077D01*
X030258Y014919D02*
X033363Y014919D01*
X033288Y014760D02*
X030258Y014760D01*
X030258Y014602D02*
X033316Y014602D01*
X033636Y014443D02*
X034398Y014443D01*
X033960Y014126D02*
X035380Y014126D01*
X035278Y014025D02*
X035278Y013851D01*
X035698Y013851D01*
X035698Y014271D01*
X035524Y014271D01*
X035278Y014025D01*
X035278Y013968D02*
X034078Y013968D01*
X034078Y013809D02*
X035278Y013809D01*
X035278Y013851D02*
X035278Y013677D01*
X035524Y013431D01*
X035698Y013431D01*
X035698Y013851D01*
X035698Y013851D01*
X035698Y013851D01*
X035278Y013851D01*
X035304Y013651D02*
X034036Y013651D01*
X033877Y013492D02*
X035463Y013492D01*
X035698Y013492D02*
X035698Y013492D01*
X035698Y013431D02*
X035872Y013431D01*
X036118Y013677D01*
X036118Y013851D01*
X036118Y014025D01*
X035872Y014271D01*
X035698Y014271D01*
X035698Y013851D01*
X035698Y013851D01*
X036118Y013851D01*
X035698Y013851D01*
X035698Y013851D01*
X035698Y013431D01*
X035698Y013651D02*
X035698Y013651D01*
X035698Y013809D02*
X035698Y013809D01*
X035698Y013968D02*
X035698Y013968D01*
X035698Y014126D02*
X035698Y014126D01*
X036017Y014126D02*
X043813Y014126D01*
X043813Y013968D02*
X036118Y013968D01*
X036118Y013809D02*
X043813Y013809D01*
X043788Y013651D02*
X036092Y013651D01*
X035934Y013492D02*
X043810Y013492D01*
X044337Y013492D02*
X049323Y013492D01*
X049323Y013651D02*
X044358Y013651D01*
X044333Y013809D02*
X049323Y013809D01*
X049323Y013968D02*
X044333Y013968D01*
X044333Y014126D02*
X049323Y014126D01*
X049323Y014285D02*
X044333Y014285D01*
X044333Y014443D02*
X049323Y014443D01*
X049323Y014602D02*
X044333Y014602D01*
X044333Y014760D02*
X049323Y014760D01*
X049323Y014919D02*
X044333Y014919D01*
X044333Y015077D02*
X049323Y015077D01*
X049323Y015236D02*
X044358Y015236D01*
X044308Y015394D02*
X049323Y015394D01*
X049323Y015553D02*
X043078Y015553D01*
X043078Y015394D02*
X043839Y015394D01*
X043788Y015236D02*
X043062Y015236D01*
X042996Y015077D02*
X043813Y015077D01*
X043813Y014919D02*
X042911Y014919D01*
X042752Y014760D02*
X043813Y014760D01*
X043813Y014602D02*
X042448Y014602D01*
X043043Y015711D02*
X049323Y015711D01*
X049323Y015870D02*
X042977Y015870D01*
X042865Y016028D02*
X049323Y016028D01*
X049323Y016504D02*
X037578Y016504D01*
X037424Y016662D02*
X049323Y016662D01*
X049323Y016821D02*
X035137Y016821D01*
X035029Y016713D02*
X034836Y016520D01*
X034585Y016416D01*
X033187Y016416D01*
X032935Y016520D01*
X032743Y016713D01*
X032638Y016964D01*
X032638Y017237D01*
X032743Y017489D01*
X032935Y017681D01*
X033187Y017786D01*
X034165Y017786D01*
X034820Y018441D01*
X034767Y018441D01*
X034662Y018484D01*
X034582Y018564D01*
X030603Y018564D01*
X030721Y018446D02*
X029601Y019566D01*
X029630Y019566D01*
X029690Y019591D01*
X029841Y019591D01*
X030301Y019130D01*
X030397Y019091D01*
X030831Y019091D01*
X030892Y019066D01*
X031005Y019066D01*
X031110Y019109D01*
X031190Y019189D01*
X031233Y019294D01*
X031233Y019407D01*
X031190Y019512D01*
X031110Y019592D01*
X031005Y019636D01*
X030892Y019636D01*
X030831Y019611D01*
X030556Y019611D01*
X030169Y019998D01*
X030096Y020071D01*
X030000Y020111D01*
X029690Y020111D01*
X029630Y020136D01*
X029517Y020136D01*
X029412Y020092D01*
X029332Y020012D01*
X029288Y019907D01*
X029288Y019878D01*
X027340Y021827D01*
X027315Y021887D01*
X027235Y021967D01*
X027130Y022011D01*
X027017Y022011D01*
X026912Y021967D01*
X026832Y021887D01*
X026788Y021782D01*
X026788Y021669D01*
X026832Y021564D01*
X026912Y021484D01*
X026972Y021459D01*
X030313Y018118D01*
X030313Y017218D01*
X030288Y017157D01*
X030288Y017044D01*
X030332Y016939D01*
X030412Y016859D01*
X030517Y016816D01*
X030630Y016816D01*
X030735Y016859D01*
X030815Y016939D01*
X030858Y017044D01*
X030858Y017157D01*
X030833Y017218D01*
X030833Y018277D01*
X030794Y018373D01*
X030721Y018446D01*
X030721Y018446D01*
X030761Y018406D02*
X034785Y018406D01*
X034626Y018247D02*
X030833Y018247D01*
X030833Y018089D02*
X034468Y018089D01*
X034309Y017930D02*
X030833Y017930D01*
X030833Y017772D02*
X033153Y017772D01*
X032867Y017613D02*
X030833Y017613D01*
X030833Y017455D02*
X032729Y017455D01*
X032663Y017296D02*
X030833Y017296D01*
X030858Y017138D02*
X032638Y017138D01*
X032638Y016979D02*
X030832Y016979D01*
X030642Y016821D02*
X032698Y016821D01*
X032793Y016662D02*
X028583Y016662D01*
X028583Y016504D02*
X032975Y016504D01*
X034797Y016504D02*
X036818Y016504D01*
X036818Y016345D02*
X028583Y016345D01*
X028583Y016187D02*
X036825Y016187D01*
X036984Y016028D02*
X029728Y016028D01*
X029419Y016028D02*
X028583Y016028D01*
X028583Y015870D02*
X029124Y015870D01*
X028981Y015711D02*
X028583Y015711D01*
X028583Y015553D02*
X028916Y015553D01*
X028888Y015394D02*
X028583Y015394D01*
X028583Y015236D02*
X028888Y015236D01*
X028888Y015077D02*
X028583Y015077D01*
X028583Y014919D02*
X028888Y014919D01*
X028888Y014760D02*
X028583Y014760D01*
X028583Y014602D02*
X028888Y014602D01*
X028888Y014443D02*
X028583Y014443D01*
X028583Y014285D02*
X028888Y014285D01*
X028815Y014126D02*
X028583Y014126D01*
X028608Y013968D02*
X028667Y013968D01*
X028434Y013651D02*
X027766Y013651D01*
X027608Y013809D02*
X028087Y013809D01*
X028038Y013968D02*
X027449Y013968D01*
X027291Y014126D02*
X028063Y014126D01*
X028063Y014285D02*
X027132Y014285D01*
X026974Y014443D02*
X028063Y014443D01*
X028063Y014602D02*
X026815Y014602D01*
X026657Y014760D02*
X028063Y014760D01*
X028063Y014919D02*
X026498Y014919D01*
X026340Y015077D02*
X028063Y015077D01*
X028063Y015236D02*
X026663Y015236D01*
X026618Y015191D02*
X026858Y015431D01*
X026858Y015770D01*
X026618Y016011D01*
X026279Y016011D01*
X026038Y015770D01*
X026038Y015431D01*
X026279Y015191D01*
X026618Y015191D01*
X026822Y015394D02*
X028063Y015394D01*
X028063Y015553D02*
X026858Y015553D01*
X026858Y015711D02*
X028063Y015711D01*
X028063Y015870D02*
X026759Y015870D01*
X026635Y016151D02*
X026898Y016414D01*
X026898Y016591D01*
X026458Y016591D01*
X026458Y016151D01*
X026635Y016151D01*
X026671Y016187D02*
X028063Y016187D01*
X028063Y016345D02*
X026829Y016345D01*
X026898Y016504D02*
X028063Y016504D01*
X028063Y016662D02*
X026898Y016662D01*
X026898Y016611D02*
X026898Y016787D01*
X026635Y017051D01*
X026458Y017051D01*
X026458Y016611D01*
X026438Y016611D01*
X026438Y016591D01*
X025998Y016591D01*
X025998Y016414D01*
X026262Y016151D01*
X026438Y016151D01*
X026438Y016591D01*
X026458Y016591D01*
X026458Y016611D01*
X026898Y016611D01*
X026865Y016821D02*
X028063Y016821D01*
X028063Y016979D02*
X026706Y016979D01*
X026618Y017191D02*
X026858Y017431D01*
X026858Y017770D01*
X026618Y018011D01*
X026279Y018011D01*
X026038Y017770D01*
X026038Y017431D01*
X026279Y017191D01*
X026618Y017191D01*
X026724Y017296D02*
X028063Y017296D01*
X028063Y017138D02*
X021853Y017138D01*
X021926Y016946D02*
X021853Y016873D01*
X020836Y015856D01*
X020571Y015856D01*
X022215Y017500D01*
X022226Y017473D01*
X022341Y017358D01*
X022492Y017296D01*
X022655Y017296D01*
X022806Y017358D01*
X022921Y017473D01*
X022983Y017624D01*
X022983Y018327D01*
X022921Y018478D01*
X022806Y018593D01*
X022655Y018656D01*
X022492Y018656D01*
X022341Y018593D01*
X022226Y018478D01*
X022163Y018327D01*
X022163Y018183D01*
X022103Y018123D01*
X019222Y015242D01*
X019162Y015217D01*
X019082Y015137D01*
X019038Y015032D01*
X019038Y014919D01*
X019067Y014850D01*
X017833Y016083D01*
X017833Y017484D01*
X017858Y017544D01*
X017858Y017657D01*
X017815Y017762D01*
X017735Y017842D01*
X017630Y017886D01*
X017517Y017886D01*
X017412Y017842D01*
X017332Y017762D01*
X017288Y017657D01*
X017288Y017544D01*
X017313Y017484D01*
X017313Y015924D01*
X017353Y015828D01*
X021057Y012125D01*
X021082Y012064D01*
X021162Y011984D01*
X021267Y011941D01*
X021380Y011941D01*
X021485Y011984D01*
X021565Y012064D01*
X021608Y012169D01*
X021608Y012282D01*
X021565Y012387D01*
X021485Y012467D01*
X021425Y012492D01*
X019197Y014719D01*
X019267Y014691D01*
X019380Y014691D01*
X019485Y014734D01*
X019565Y014814D01*
X019590Y014875D01*
X020318Y015603D01*
X020318Y015318D01*
X020541Y015096D01*
X020856Y015096D01*
X021078Y015318D01*
X021078Y015363D01*
X022181Y016466D01*
X023456Y016466D01*
X023517Y016441D01*
X023630Y016441D01*
X023735Y016484D01*
X023815Y016564D01*
X023858Y016669D01*
X023858Y016782D01*
X023815Y016887D01*
X023735Y016967D01*
X023630Y017011D01*
X023517Y017011D01*
X023456Y016986D01*
X022022Y016986D01*
X021926Y016946D01*
X022006Y016979D02*
X021695Y016979D01*
X021801Y016821D02*
X021536Y016821D01*
X021642Y016662D02*
X021378Y016662D01*
X021484Y016504D02*
X021219Y016504D01*
X021325Y016345D02*
X021061Y016345D01*
X021167Y016187D02*
X020902Y016187D01*
X021008Y016028D02*
X020744Y016028D01*
X020850Y015870D02*
X020585Y015870D01*
X020318Y015553D02*
X020268Y015553D01*
X020318Y015394D02*
X020110Y015394D01*
X019951Y015236D02*
X020401Y015236D01*
X019793Y015077D02*
X022416Y015077D01*
X022341Y015108D02*
X022492Y015046D01*
X022655Y015046D01*
X022806Y015108D01*
X022921Y015223D01*
X022983Y015374D01*
X022983Y016077D01*
X022921Y016228D01*
X022806Y016343D01*
X022655Y016406D01*
X022492Y016406D01*
X022341Y016343D01*
X022226Y016228D01*
X022163Y016077D01*
X022163Y015374D01*
X022226Y015223D01*
X022341Y015108D01*
X022221Y015236D02*
X020996Y015236D01*
X021110Y015394D02*
X022163Y015394D01*
X022163Y015553D02*
X021268Y015553D01*
X021427Y015711D02*
X022163Y015711D01*
X022163Y015870D02*
X021585Y015870D01*
X021744Y016028D02*
X022163Y016028D01*
X022209Y016187D02*
X021902Y016187D01*
X022061Y016345D02*
X022346Y016345D01*
X022801Y016345D02*
X023346Y016345D01*
X023341Y016343D02*
X023226Y016228D01*
X023163Y016077D01*
X023163Y015374D01*
X023219Y015239D01*
X022722Y014742D01*
X022662Y014717D01*
X022582Y014637D01*
X022538Y014532D01*
X022538Y014419D01*
X022582Y014314D01*
X022662Y014234D01*
X022767Y014191D01*
X022880Y014191D01*
X022985Y014234D01*
X023065Y014314D01*
X023090Y014375D01*
X023794Y015078D01*
X023806Y015109D01*
X023921Y015223D01*
X023983Y015374D01*
X023983Y016077D01*
X023921Y016228D01*
X023806Y016343D01*
X023655Y016406D01*
X023492Y016406D01*
X023341Y016343D01*
X023209Y016187D02*
X022938Y016187D01*
X022983Y016028D02*
X023163Y016028D01*
X023163Y015870D02*
X022983Y015870D01*
X022983Y015711D02*
X023163Y015711D01*
X023163Y015553D02*
X022983Y015553D01*
X022983Y015394D02*
X023163Y015394D01*
X023216Y015236D02*
X022926Y015236D01*
X023057Y015077D02*
X022731Y015077D01*
X022899Y014919D02*
X019634Y014919D01*
X019511Y014760D02*
X022740Y014760D01*
X022567Y014602D02*
X019315Y014602D01*
X019474Y014443D02*
X022538Y014443D01*
X022611Y014285D02*
X019632Y014285D01*
X019791Y014126D02*
X025555Y014126D01*
X025397Y014285D02*
X023035Y014285D01*
X023159Y014443D02*
X025238Y014443D01*
X025080Y014602D02*
X023317Y014602D01*
X023476Y014760D02*
X024921Y014760D01*
X024763Y014919D02*
X023634Y014919D01*
X023793Y015077D02*
X024604Y015077D01*
X024563Y015236D02*
X023926Y015236D01*
X023983Y015394D02*
X024563Y015394D01*
X024563Y015553D02*
X023983Y015553D01*
X023983Y015711D02*
X024563Y015711D01*
X024563Y015870D02*
X023983Y015870D01*
X023983Y016028D02*
X024563Y016028D01*
X024563Y016187D02*
X023938Y016187D01*
X023801Y016345D02*
X024592Y016345D01*
X024734Y016504D02*
X023754Y016504D01*
X023856Y016662D02*
X024892Y016662D01*
X025051Y016821D02*
X023843Y016821D01*
X023706Y016979D02*
X025247Y016979D01*
X025279Y017191D02*
X025038Y017431D01*
X025038Y017770D01*
X025279Y018011D01*
X025618Y018011D01*
X025858Y017770D01*
X025858Y017431D01*
X025618Y017191D01*
X025279Y017191D01*
X025173Y017296D02*
X023761Y017296D01*
X023746Y017289D02*
X023809Y017321D01*
X023867Y017362D01*
X023917Y017412D01*
X023958Y017470D01*
X023990Y017533D01*
X024012Y017600D01*
X024023Y017670D01*
X024023Y017966D01*
X023583Y017966D01*
X023583Y017256D01*
X023609Y017256D01*
X023679Y017267D01*
X023746Y017289D01*
X023583Y017296D02*
X023563Y017296D01*
X023563Y017256D02*
X023563Y017966D01*
X023123Y017966D01*
X023123Y017670D01*
X023134Y017600D01*
X023156Y017533D01*
X023189Y017470D01*
X023230Y017412D01*
X023280Y017362D01*
X023338Y017321D01*
X023401Y017289D01*
X023468Y017267D01*
X023538Y017256D01*
X023563Y017256D01*
X023386Y017296D02*
X022656Y017296D01*
X022491Y017296D02*
X022012Y017296D01*
X022170Y017455D02*
X022245Y017455D01*
X021910Y017930D02*
X021521Y017930D01*
X021679Y018089D02*
X022069Y018089D01*
X022163Y018247D02*
X021838Y018247D01*
X021996Y018406D02*
X022196Y018406D01*
X022096Y018505D02*
X022169Y018578D01*
X022208Y018674D01*
X022208Y019640D01*
X022226Y019598D01*
X022341Y019483D01*
X022492Y019421D01*
X022655Y019421D01*
X022806Y019483D01*
X022921Y019598D01*
X022983Y019749D01*
X022983Y020452D01*
X022964Y020499D01*
X023181Y020716D01*
X023339Y020716D01*
X023226Y020603D01*
X023163Y020452D01*
X023163Y019749D01*
X023226Y019598D01*
X023341Y019483D01*
X023492Y019421D01*
X023655Y019421D01*
X023806Y019483D01*
X023921Y019598D01*
X023983Y019749D01*
X023983Y020452D01*
X023921Y020603D01*
X023806Y020718D01*
X023719Y020754D01*
X023721Y020755D01*
X024346Y021380D01*
X024419Y021453D01*
X024458Y021549D01*
X024458Y022147D01*
X024477Y022165D01*
X024527Y022285D01*
X024527Y022416D01*
X024477Y022536D01*
X024384Y022629D01*
X024264Y022679D01*
X024133Y022679D01*
X024013Y022629D01*
X023983Y022600D01*
X023983Y022702D01*
X023921Y022853D01*
X023833Y022940D01*
X023833Y023993D01*
X024300Y024459D01*
X024360Y024484D01*
X024440Y024564D01*
X024483Y024669D01*
X024483Y024782D01*
X024440Y024887D01*
X024360Y024967D01*
X024255Y025011D01*
X024142Y025011D01*
X024037Y024967D01*
X023957Y024887D01*
X023932Y024827D01*
X023353Y024248D01*
X023313Y024152D01*
X023313Y022940D01*
X023226Y022853D01*
X023163Y022702D01*
X023163Y021999D01*
X023226Y021848D01*
X023313Y021761D01*
X023313Y021708D01*
X023216Y021611D01*
X022522Y021611D01*
X022426Y021571D01*
X022353Y021498D01*
X021728Y020873D01*
X021708Y020826D01*
X021708Y022993D01*
X023800Y025084D01*
X023860Y025109D01*
X023940Y025189D01*
X023983Y025294D01*
X023983Y025407D01*
X023960Y025464D01*
X023972Y025459D01*
X024563Y024868D01*
X024563Y019674D01*
X024603Y019578D01*
X025038Y019143D01*
X025038Y019056D01*
X025279Y018816D01*
X025618Y018816D01*
X025858Y019056D01*
X025858Y019395D01*
X025618Y019636D01*
X025281Y019636D01*
X025083Y019833D01*
X025083Y020011D01*
X025279Y019816D01*
X025618Y019816D01*
X025858Y020056D01*
X025858Y020395D01*
X025618Y020636D01*
X025279Y020636D01*
X025083Y020440D01*
X025083Y021011D01*
X025279Y020816D01*
X025618Y020816D01*
X025858Y021056D01*
X025858Y021395D01*
X025618Y021636D01*
X025279Y021636D01*
X025083Y021440D01*
X025083Y025027D01*
X025044Y025123D01*
X024971Y025196D01*
X024971Y025196D01*
X024340Y025827D01*
X024315Y025887D01*
X024235Y025967D01*
X024130Y026011D01*
X024017Y026011D01*
X023912Y025967D01*
X023832Y025887D01*
X023788Y025782D01*
X023788Y025669D01*
X023812Y025612D01*
X023755Y025636D01*
X023642Y025636D01*
X023537Y025592D01*
X023457Y025512D01*
X023432Y025452D01*
X021228Y023248D01*
X021188Y023152D01*
X021188Y019333D01*
X020711Y018856D01*
X020541Y018856D01*
X020318Y018633D01*
X020318Y018318D01*
X020526Y018111D01*
X020056Y018111D01*
X018958Y019208D01*
X018958Y019448D01*
X019078Y019568D01*
X019078Y019883D01*
X018856Y020106D01*
X018541Y020106D01*
X018318Y019883D01*
X018318Y019568D01*
X018438Y019448D01*
X018438Y019049D01*
X018478Y018953D01*
X019728Y017703D01*
X019801Y017630D01*
X019897Y017591D01*
X021125Y017591D01*
X021221Y017630D01*
X022096Y018505D01*
X022155Y018564D02*
X022312Y018564D01*
X022208Y018723D02*
X027709Y018723D01*
X027550Y018881D02*
X026684Y018881D01*
X026618Y018816D02*
X026858Y019056D01*
X026858Y019395D01*
X026618Y019636D01*
X026279Y019636D01*
X026038Y019395D01*
X026038Y019056D01*
X026279Y018816D01*
X026618Y018816D01*
X026842Y019040D02*
X027392Y019040D01*
X027233Y019198D02*
X026858Y019198D01*
X026858Y019357D02*
X027075Y019357D01*
X026916Y019515D02*
X026739Y019515D01*
X026758Y019674D02*
X025243Y019674D01*
X025262Y019832D02*
X025085Y019832D01*
X025083Y019991D02*
X025104Y019991D01*
X025083Y020466D02*
X025109Y020466D01*
X025083Y020625D02*
X025268Y020625D01*
X025083Y020783D02*
X027648Y020783D01*
X027490Y020942D02*
X026744Y020942D01*
X026858Y021056D02*
X026618Y020816D01*
X026279Y020816D01*
X026038Y021056D01*
X026038Y021395D01*
X026279Y021636D01*
X026618Y021636D01*
X026858Y021395D01*
X026858Y021056D01*
X026858Y021100D02*
X027331Y021100D01*
X027173Y021259D02*
X026858Y021259D01*
X026837Y021417D02*
X027014Y021417D01*
X026827Y021576D02*
X026678Y021576D01*
X026788Y021734D02*
X025083Y021734D01*
X025083Y021576D02*
X025219Y021576D01*
X025083Y021893D02*
X026837Y021893D01*
X027309Y021893D02*
X032063Y021893D01*
X032063Y022051D02*
X031552Y022051D01*
X031565Y022064D02*
X031608Y022169D01*
X031608Y022282D01*
X031583Y022343D01*
X031583Y024147D01*
X031602Y024165D01*
X031652Y024285D01*
X031652Y024416D01*
X031602Y024536D01*
X031509Y024629D01*
X031389Y024679D01*
X031258Y024679D01*
X031138Y024629D01*
X031045Y024536D01*
X030995Y024416D01*
X030995Y024285D01*
X031045Y024165D01*
X031063Y024147D01*
X031063Y022343D01*
X031038Y022282D01*
X031038Y022169D01*
X031082Y022064D01*
X031162Y021984D01*
X031267Y021941D01*
X031380Y021941D01*
X031485Y021984D01*
X031565Y022064D01*
X031608Y022210D02*
X032063Y022210D01*
X032063Y022368D02*
X031583Y022368D01*
X031583Y022527D02*
X032063Y022527D01*
X032063Y022685D02*
X031583Y022685D01*
X031583Y022844D02*
X032063Y022844D01*
X032063Y023002D02*
X031583Y023002D01*
X031583Y023161D02*
X032063Y023161D01*
X032063Y023319D02*
X031583Y023319D01*
X031583Y023478D02*
X032063Y023478D01*
X032063Y023636D02*
X031583Y023636D01*
X031583Y023795D02*
X032063Y023795D01*
X032063Y023953D02*
X031583Y023953D01*
X031583Y024112D02*
X032063Y024112D01*
X032063Y024147D02*
X032063Y020174D01*
X032103Y020078D01*
X032176Y020005D01*
X032176Y020005D01*
X032199Y019983D01*
X032162Y019967D01*
X032082Y019887D01*
X032038Y019782D01*
X032038Y019669D01*
X032082Y019564D01*
X032162Y019484D01*
X032267Y019441D01*
X032380Y019441D01*
X032485Y019484D01*
X032565Y019564D01*
X032580Y019601D01*
X033103Y019078D01*
X033176Y019005D01*
X033272Y018966D01*
X034313Y018966D01*
X034313Y018924D01*
X034353Y018828D01*
X034426Y018755D01*
X034557Y018625D01*
X034582Y018564D01*
X034459Y018723D02*
X030444Y018723D01*
X030286Y018881D02*
X034331Y018881D01*
X034833Y019083D02*
X034833Y019620D01*
X034840Y019622D01*
X034972Y019754D01*
X035043Y019927D01*
X035043Y020774D01*
X034972Y020947D01*
X034840Y021079D01*
X034667Y021151D01*
X034480Y021151D01*
X034307Y021079D01*
X034175Y020947D01*
X034103Y020774D01*
X034103Y019927D01*
X034175Y019754D01*
X034307Y019622D01*
X034313Y019620D01*
X034313Y019486D01*
X033431Y019486D01*
X032794Y020123D01*
X032721Y020196D01*
X032721Y020196D01*
X032583Y020333D01*
X032583Y021126D01*
X032603Y021078D01*
X032676Y021005D01*
X033103Y020578D01*
X033103Y019927D01*
X033175Y019754D01*
X033307Y019622D01*
X033480Y019551D01*
X033667Y019551D01*
X033840Y019622D01*
X033972Y019754D01*
X034043Y019927D01*
X034043Y020774D01*
X033972Y020947D01*
X033840Y021079D01*
X033667Y021151D01*
X033480Y021151D01*
X033329Y021088D01*
X033083Y021333D01*
X033083Y022063D01*
X033162Y021984D01*
X033267Y021941D01*
X033380Y021941D01*
X033485Y021984D01*
X033565Y022064D01*
X033590Y022125D01*
X033971Y022505D01*
X034044Y022578D01*
X034063Y022626D01*
X034063Y022093D01*
X034038Y022032D01*
X034038Y021919D01*
X034082Y021814D01*
X034162Y021734D01*
X034267Y021691D01*
X034380Y021691D01*
X034485Y021734D01*
X034565Y021814D01*
X034608Y021919D01*
X034608Y022032D01*
X034583Y022093D01*
X034583Y023618D01*
X038431Y027466D01*
X039081Y027466D01*
X039142Y027441D01*
X039255Y027441D01*
X039360Y027484D01*
X039440Y027564D01*
X039483Y027669D01*
X039483Y027782D01*
X039440Y027887D01*
X039360Y027967D01*
X039255Y028011D01*
X039142Y028011D01*
X039081Y027986D01*
X038272Y027986D01*
X038176Y027946D01*
X038103Y027873D01*
X038103Y027873D01*
X037708Y027478D01*
X037708Y028868D01*
X038806Y029966D01*
X039456Y029966D01*
X039517Y029941D01*
X039630Y029941D01*
X039735Y029984D01*
X039815Y030064D01*
X039858Y030169D01*
X039858Y030282D01*
X039815Y030387D01*
X039735Y030467D01*
X039630Y030511D01*
X039517Y030511D01*
X039456Y030486D01*
X038647Y030486D01*
X038551Y030446D01*
X037301Y029196D01*
X037228Y029123D01*
X037188Y029027D01*
X037188Y027583D01*
X033603Y023998D01*
X033563Y023902D01*
X033563Y022833D01*
X033222Y022492D01*
X033162Y022467D01*
X033083Y022389D01*
X033083Y023609D01*
X033108Y023669D01*
X033108Y023782D01*
X033065Y023887D01*
X032985Y023967D01*
X032880Y024011D01*
X032767Y024011D01*
X032662Y023967D01*
X032583Y023889D01*
X032583Y024147D01*
X032602Y024165D01*
X032652Y024285D01*
X032652Y024416D01*
X032602Y024536D01*
X032509Y024629D01*
X032389Y024679D01*
X032258Y024679D01*
X032138Y024629D01*
X032045Y024536D01*
X031995Y024416D01*
X031995Y024285D01*
X032045Y024165D01*
X032063Y024147D01*
X032002Y024270D02*
X031645Y024270D01*
X031646Y024429D02*
X032001Y024429D01*
X032096Y024587D02*
X031551Y024587D01*
X031096Y024587D02*
X025083Y024587D01*
X025083Y024429D02*
X031001Y024429D01*
X031002Y024270D02*
X025083Y024270D01*
X025083Y024112D02*
X031063Y024112D01*
X031063Y023953D02*
X025083Y023953D01*
X025083Y023795D02*
X031063Y023795D01*
X031063Y023636D02*
X025083Y023636D01*
X025083Y023478D02*
X031063Y023478D01*
X031063Y023319D02*
X025083Y023319D01*
X025083Y023161D02*
X031063Y023161D01*
X031063Y023002D02*
X025083Y023002D01*
X025083Y022844D02*
X031063Y022844D01*
X031063Y022685D02*
X025083Y022685D01*
X025083Y022527D02*
X031063Y022527D01*
X031063Y022368D02*
X025083Y022368D01*
X025083Y022210D02*
X031038Y022210D01*
X031095Y022051D02*
X025083Y022051D01*
X024563Y022051D02*
X024458Y022051D01*
X024458Y021893D02*
X024563Y021893D01*
X024563Y021734D02*
X024458Y021734D01*
X024458Y021576D02*
X024563Y021576D01*
X024563Y021417D02*
X024383Y021417D01*
X024346Y021380D02*
X024346Y021380D01*
X024224Y021259D02*
X024563Y021259D01*
X024563Y021100D02*
X024066Y021100D01*
X023907Y020942D02*
X024563Y020942D01*
X024563Y020783D02*
X023749Y020783D01*
X023899Y020625D02*
X024563Y020625D01*
X024563Y020466D02*
X023978Y020466D01*
X023983Y020308D02*
X024563Y020308D01*
X024563Y020149D02*
X023983Y020149D01*
X023983Y019991D02*
X024563Y019991D01*
X024563Y019832D02*
X023983Y019832D01*
X023952Y019674D02*
X024564Y019674D01*
X024666Y019515D02*
X023838Y019515D01*
X023309Y019515D02*
X022838Y019515D01*
X022952Y019674D02*
X023195Y019674D01*
X023163Y019832D02*
X022983Y019832D01*
X022983Y019991D02*
X023163Y019991D01*
X023163Y020149D02*
X022983Y020149D01*
X022983Y020308D02*
X023163Y020308D01*
X023169Y020466D02*
X022978Y020466D01*
X023090Y020625D02*
X023248Y020625D01*
X023313Y021734D02*
X022807Y021734D01*
X022806Y021733D02*
X022921Y021848D01*
X022983Y021999D01*
X022983Y022702D01*
X022921Y022853D01*
X022806Y022968D01*
X022655Y023031D01*
X022492Y023031D01*
X022341Y022968D01*
X022226Y022853D01*
X022163Y022702D01*
X022163Y021999D01*
X022226Y021848D01*
X022341Y021733D01*
X022492Y021671D01*
X022655Y021671D01*
X022806Y021733D01*
X022939Y021893D02*
X023207Y021893D01*
X023163Y022051D02*
X022983Y022051D01*
X022983Y022210D02*
X023163Y022210D01*
X023163Y022368D02*
X022983Y022368D01*
X022983Y022527D02*
X023163Y022527D01*
X023163Y022685D02*
X022983Y022685D01*
X022925Y022844D02*
X023222Y022844D01*
X023313Y023002D02*
X022724Y023002D01*
X022423Y023002D02*
X021718Y023002D01*
X021708Y022844D02*
X022222Y022844D01*
X022163Y022685D02*
X021708Y022685D01*
X021708Y022527D02*
X022163Y022527D01*
X022163Y022368D02*
X021708Y022368D01*
X021708Y022210D02*
X022163Y022210D01*
X022163Y022051D02*
X021708Y022051D01*
X021708Y021893D02*
X022207Y021893D01*
X022340Y021734D02*
X021708Y021734D01*
X021708Y021576D02*
X022437Y021576D01*
X022272Y021417D02*
X021708Y021417D01*
X021708Y021259D02*
X022114Y021259D01*
X021955Y021100D02*
X021708Y021100D01*
X021708Y020942D02*
X021797Y020942D01*
X021188Y020942D02*
X020083Y020942D01*
X020083Y020984D02*
X020108Y021044D01*
X020108Y021157D01*
X020065Y021262D01*
X019985Y021342D01*
X019880Y021386D01*
X019767Y021386D01*
X019662Y021342D01*
X019582Y021262D01*
X019538Y021157D01*
X019538Y021044D01*
X019563Y020984D01*
X019563Y020549D01*
X019603Y020453D01*
X020318Y019738D01*
X020318Y019568D01*
X020541Y019346D01*
X020856Y019346D01*
X021078Y019568D01*
X021078Y019883D01*
X020856Y020106D01*
X020686Y020106D01*
X020083Y020708D01*
X020083Y020984D01*
X020108Y021100D02*
X021188Y021100D01*
X021188Y021259D02*
X020066Y021259D01*
X020083Y020783D02*
X021188Y020783D01*
X021188Y020625D02*
X020167Y020625D01*
X020326Y020466D02*
X021188Y020466D01*
X021188Y020308D02*
X020484Y020308D01*
X020643Y020149D02*
X021188Y020149D01*
X021188Y019991D02*
X020971Y019991D01*
X021078Y019832D02*
X021188Y019832D01*
X021188Y019674D02*
X021078Y019674D01*
X021025Y019515D02*
X021188Y019515D01*
X021188Y019357D02*
X020867Y019357D01*
X021053Y019198D02*
X018969Y019198D01*
X018958Y019357D02*
X020530Y019357D01*
X020371Y019515D02*
X019025Y019515D01*
X019078Y019674D02*
X020318Y019674D01*
X020224Y019832D02*
X019078Y019832D01*
X018971Y019991D02*
X020066Y019991D01*
X019907Y020149D02*
X014409Y020149D01*
X014356Y020096D02*
X014578Y020318D01*
X014578Y020633D01*
X014356Y020856D01*
X014041Y020856D01*
X013818Y020633D01*
X013818Y020318D01*
X014041Y020096D01*
X014356Y020096D01*
X014568Y020308D02*
X019749Y020308D01*
X019598Y020466D02*
X014578Y020466D01*
X014578Y020625D02*
X019563Y020625D01*
X019563Y020783D02*
X014428Y020783D01*
X013969Y020783D02*
X013485Y020783D01*
X013372Y020896D02*
X013198Y020896D01*
X013024Y020896D01*
X012778Y020650D01*
X012778Y020476D01*
X013198Y020476D01*
X013198Y020896D01*
X013198Y020476D01*
X013198Y020476D01*
X013198Y020476D01*
X012778Y020476D01*
X012778Y020302D01*
X013024Y020056D01*
X013198Y020056D01*
X013198Y020476D01*
X013198Y020476D01*
X013618Y020476D01*
X013618Y020650D01*
X013372Y020896D01*
X013198Y020783D02*
X013198Y020783D01*
X013198Y020625D02*
X013198Y020625D01*
X013198Y020476D02*
X013198Y020476D01*
X013198Y020056D01*
X013372Y020056D01*
X013618Y020302D01*
X013618Y020476D01*
X013198Y020476D01*
X013198Y020466D02*
X013198Y020466D01*
X013198Y020308D02*
X013198Y020308D01*
X013198Y020149D02*
X013198Y020149D01*
X012931Y020149D02*
X011409Y020149D01*
X011356Y020096D02*
X011578Y020318D01*
X011578Y020633D01*
X011356Y020856D01*
X011041Y020856D01*
X010818Y020633D01*
X010818Y020318D01*
X011041Y020096D01*
X011356Y020096D01*
X011568Y020308D02*
X012778Y020308D01*
X012778Y020466D02*
X011578Y020466D01*
X011578Y020625D02*
X012778Y020625D01*
X012912Y020783D02*
X011428Y020783D01*
X010969Y020783D02*
X009428Y020783D01*
X009356Y020856D02*
X009041Y020856D01*
X008818Y020633D01*
X008818Y020318D01*
X009041Y020096D01*
X009356Y020096D01*
X009578Y020318D01*
X009578Y020633D01*
X009356Y020856D01*
X009578Y020625D02*
X010818Y020625D01*
X010818Y020466D02*
X009578Y020466D01*
X009568Y020308D02*
X010829Y020308D01*
X010987Y020149D02*
X009409Y020149D01*
X008987Y020149D02*
X005865Y020149D01*
X005865Y020176D02*
X005807Y020316D01*
X005700Y020423D01*
X005560Y020481D01*
X004929Y020481D01*
X004789Y020423D01*
X004683Y020316D01*
X004625Y020176D01*
X004625Y020025D01*
X004683Y019885D01*
X004789Y019778D01*
X004929Y019721D01*
X005560Y019721D01*
X005700Y019778D01*
X005807Y019885D01*
X005865Y020025D01*
X005865Y020176D01*
X005810Y020308D02*
X008829Y020308D01*
X008818Y020466D02*
X005595Y020466D01*
X005850Y019991D02*
X010469Y019991D01*
X010517Y020011D02*
X010412Y019967D01*
X010332Y019887D01*
X010307Y019827D01*
X009336Y018856D01*
X009041Y018856D01*
X008818Y018633D01*
X008818Y018318D01*
X009041Y018096D01*
X009356Y018096D01*
X009578Y018318D01*
X009578Y018363D01*
X010675Y019459D01*
X010735Y019484D01*
X010815Y019564D01*
X010858Y019669D01*
X010858Y019782D01*
X010815Y019887D01*
X010735Y019967D01*
X010630Y020011D01*
X010517Y020011D01*
X010678Y019991D02*
X012469Y019991D01*
X012517Y020011D02*
X012412Y019967D01*
X012332Y019887D01*
X012288Y019782D01*
X012288Y019669D01*
X012313Y019609D01*
X012313Y017924D01*
X012353Y017828D01*
X013103Y017078D01*
X013176Y017005D01*
X013272Y016966D01*
X014956Y016966D01*
X015017Y016941D01*
X015130Y016941D01*
X015235Y016984D01*
X015315Y017064D01*
X015358Y017169D01*
X015358Y017282D01*
X015315Y017387D01*
X015235Y017467D01*
X015130Y017511D01*
X015017Y017511D01*
X014956Y017486D01*
X013431Y017486D01*
X012833Y018083D01*
X012833Y019609D01*
X012858Y019669D01*
X012858Y019782D01*
X012815Y019887D01*
X012735Y019967D01*
X012630Y020011D01*
X012517Y020011D01*
X012678Y019991D02*
X018426Y019991D01*
X018318Y019832D02*
X012838Y019832D01*
X012858Y019674D02*
X018318Y019674D01*
X018371Y019515D02*
X012833Y019515D01*
X012833Y019357D02*
X018438Y019357D01*
X018438Y019198D02*
X012833Y019198D01*
X012833Y019040D02*
X013461Y019040D01*
X013478Y019056D02*
X013368Y018947D01*
X013308Y018803D01*
X013308Y018148D01*
X013368Y018005D01*
X013478Y017895D01*
X013621Y017836D01*
X013776Y017836D01*
X013919Y017895D01*
X014029Y018005D01*
X014088Y018148D01*
X014088Y018803D01*
X014029Y018947D01*
X013919Y019056D01*
X013776Y019116D01*
X013621Y019116D01*
X013478Y019056D01*
X013341Y018881D02*
X012833Y018881D01*
X012833Y018723D02*
X013308Y018723D01*
X013308Y018564D02*
X012833Y018564D01*
X012833Y018406D02*
X013308Y018406D01*
X013308Y018247D02*
X012833Y018247D01*
X012833Y018089D02*
X013333Y018089D01*
X013442Y017930D02*
X012987Y017930D01*
X013145Y017772D02*
X017341Y017772D01*
X017288Y017613D02*
X013304Y017613D01*
X012885Y017296D02*
X012103Y017296D01*
X012108Y017282D02*
X012065Y017387D01*
X011985Y017467D01*
X011880Y017511D01*
X011767Y017511D01*
X011662Y017467D01*
X011582Y017387D01*
X011567Y017350D01*
X011044Y017873D01*
X010971Y017946D01*
X010875Y017986D01*
X008190Y017986D01*
X008130Y018011D01*
X008017Y018011D01*
X007912Y017967D01*
X007832Y017887D01*
X007788Y017782D01*
X007788Y017669D01*
X007832Y017564D01*
X007912Y017484D01*
X008017Y017441D01*
X008130Y017441D01*
X008190Y017466D01*
X010716Y017466D01*
X011353Y016828D01*
X011426Y016755D01*
X011813Y016368D01*
X011813Y012924D01*
X011853Y012828D01*
X012495Y012186D01*
X012495Y012160D01*
X012545Y012040D01*
X012638Y011947D01*
X012758Y011898D01*
X012889Y011898D01*
X013009Y011947D01*
X013102Y012040D01*
X013152Y012160D01*
X013152Y012291D01*
X013102Y012411D01*
X013009Y012504D01*
X012889Y012554D01*
X012863Y012554D01*
X012333Y013083D01*
X012333Y016527D01*
X012294Y016623D01*
X011948Y016969D01*
X011985Y016984D01*
X012065Y017064D01*
X012108Y017169D01*
X012108Y017282D01*
X012095Y017138D02*
X013044Y017138D01*
X013239Y016979D02*
X011973Y016979D01*
X012096Y016821D02*
X017313Y016821D01*
X017313Y016979D02*
X015223Y016979D01*
X015345Y017138D02*
X017313Y017138D01*
X017313Y017296D02*
X015353Y017296D01*
X015247Y017455D02*
X017313Y017455D01*
X017833Y017455D02*
X021435Y017455D01*
X021593Y017613D02*
X021179Y017613D01*
X021362Y017772D02*
X021752Y017772D01*
X021276Y017296D02*
X017833Y017296D01*
X017833Y017138D02*
X021118Y017138D01*
X020959Y016979D02*
X017833Y016979D01*
X017833Y016821D02*
X020801Y016821D01*
X020642Y016662D02*
X017833Y016662D01*
X017833Y016504D02*
X020484Y016504D01*
X020325Y016345D02*
X018866Y016345D01*
X018856Y016356D02*
X019078Y016133D01*
X019078Y015818D01*
X018856Y015596D01*
X018541Y015596D01*
X018318Y015818D01*
X018318Y016133D01*
X018541Y016356D01*
X018856Y016356D01*
X019025Y016187D02*
X020167Y016187D01*
X020008Y016028D02*
X019078Y016028D01*
X019078Y015870D02*
X019850Y015870D01*
X019691Y015711D02*
X018971Y015711D01*
X019374Y015394D02*
X018523Y015394D01*
X018681Y015236D02*
X019206Y015236D01*
X019057Y015077D02*
X018840Y015077D01*
X018998Y014919D02*
X019039Y014919D01*
X018580Y014602D02*
X012333Y014602D01*
X012333Y014760D02*
X018421Y014760D01*
X018263Y014919D02*
X017000Y014919D01*
X016979Y014898D02*
X017026Y014946D01*
X017066Y015000D01*
X017097Y015061D01*
X017118Y015125D01*
X017128Y015192D01*
X017128Y015476D01*
X017128Y015759D01*
X017118Y015826D01*
X017097Y015891D01*
X017066Y015951D01*
X017026Y016006D01*
X016979Y016054D01*
X016924Y016093D01*
X016863Y016124D01*
X016799Y016145D01*
X016732Y016156D01*
X016698Y016156D01*
X016665Y016156D01*
X016598Y016145D01*
X016533Y016124D01*
X016473Y016093D01*
X016418Y016054D01*
X016370Y016006D01*
X016331Y015951D01*
X016300Y015891D01*
X016279Y015826D01*
X016268Y015759D01*
X016268Y015476D01*
X016698Y015476D01*
X016698Y016156D01*
X016698Y015476D01*
X016698Y015476D01*
X016698Y015476D01*
X016268Y015476D01*
X016268Y015192D01*
X016279Y015125D01*
X016300Y015061D01*
X016331Y015000D01*
X016370Y014946D01*
X016418Y014898D01*
X016473Y014858D01*
X016533Y014827D01*
X016598Y014806D01*
X016665Y014796D01*
X016698Y014796D01*
X016698Y015476D01*
X016698Y015476D01*
X017128Y015476D01*
X016698Y015476D01*
X016698Y015476D01*
X016698Y014796D01*
X016732Y014796D01*
X016799Y014806D01*
X016863Y014827D01*
X016924Y014858D01*
X016979Y014898D01*
X017102Y015077D02*
X018104Y015077D01*
X017946Y015236D02*
X017128Y015236D01*
X017128Y015394D02*
X017787Y015394D01*
X017629Y015553D02*
X017128Y015553D01*
X017128Y015711D02*
X017470Y015711D01*
X017336Y015870D02*
X017104Y015870D01*
X017004Y016028D02*
X017313Y016028D01*
X017313Y016187D02*
X012333Y016187D01*
X012333Y016345D02*
X017313Y016345D01*
X017313Y016504D02*
X012333Y016504D01*
X012255Y016662D02*
X017313Y016662D01*
X017833Y016345D02*
X018531Y016345D01*
X018372Y016187D02*
X017833Y016187D01*
X017889Y016028D02*
X018318Y016028D01*
X018318Y015870D02*
X018047Y015870D01*
X018206Y015711D02*
X018426Y015711D01*
X018364Y015553D02*
X019533Y015553D01*
X018738Y014443D02*
X012333Y014443D01*
X012333Y014285D02*
X018897Y014285D01*
X019055Y014126D02*
X012333Y014126D01*
X012333Y013968D02*
X019214Y013968D01*
X019372Y013809D02*
X012333Y013809D01*
X012333Y013651D02*
X016925Y013651D01*
X016969Y013695D02*
X016854Y013580D01*
X016793Y013431D01*
X016793Y013270D01*
X016854Y013121D01*
X016969Y013007D01*
X017118Y012945D01*
X017279Y012945D01*
X017428Y013007D01*
X017542Y013121D01*
X017604Y013270D01*
X017604Y013431D01*
X017542Y013580D01*
X017428Y013695D01*
X017279Y013756D01*
X017118Y013756D01*
X016969Y013695D01*
X016818Y013492D02*
X012333Y013492D01*
X012333Y013334D02*
X016793Y013334D01*
X016832Y013175D02*
X012333Y013175D01*
X012400Y013017D02*
X016959Y013017D01*
X017438Y013017D02*
X017902Y013017D01*
X017908Y013011D02*
X017965Y012969D01*
X018027Y012938D01*
X018094Y012916D01*
X018163Y012905D01*
X018190Y012905D01*
X018190Y013342D01*
X018207Y013342D01*
X018207Y012905D01*
X018233Y012905D01*
X018303Y012916D01*
X018370Y012938D01*
X018432Y012969D01*
X018489Y013011D01*
X018538Y013060D01*
X018580Y013117D01*
X018612Y013180D01*
X018633Y013246D01*
X018644Y013316D01*
X018644Y013342D01*
X018207Y013342D01*
X018207Y013359D01*
X018644Y013359D01*
X018644Y013386D01*
X018633Y013455D01*
X018612Y013522D01*
X018580Y013584D01*
X018538Y013641D01*
X018489Y013691D01*
X018432Y013732D01*
X018370Y013764D01*
X018303Y013785D01*
X018233Y013796D01*
X018207Y013796D01*
X018207Y013359D01*
X018190Y013359D01*
X018190Y013342D01*
X017753Y013342D01*
X017753Y013316D01*
X017764Y013246D01*
X017785Y013180D01*
X017817Y013117D01*
X017858Y013060D01*
X017908Y013011D01*
X017788Y013175D02*
X017565Y013175D01*
X017604Y013334D02*
X017753Y013334D01*
X017753Y013359D02*
X018190Y013359D01*
X018190Y013796D01*
X018163Y013796D01*
X018094Y013785D01*
X018027Y013764D01*
X017965Y013732D01*
X017908Y013691D01*
X017858Y013641D01*
X017817Y013584D01*
X017785Y013522D01*
X017764Y013455D01*
X017753Y013386D01*
X017753Y013359D01*
X017776Y013492D02*
X017579Y013492D01*
X017472Y013651D02*
X017868Y013651D01*
X018190Y013651D02*
X018207Y013651D01*
X018190Y013492D02*
X018207Y013492D01*
X018190Y013334D02*
X018207Y013334D01*
X018190Y013175D02*
X018207Y013175D01*
X018190Y013017D02*
X018207Y013017D01*
X018495Y013017D02*
X020165Y013017D01*
X020006Y013175D02*
X018609Y013175D01*
X018644Y013334D02*
X019848Y013334D01*
X019689Y013492D02*
X018621Y013492D01*
X018529Y013651D02*
X019531Y013651D01*
X019949Y013968D02*
X025714Y013968D01*
X025872Y013809D02*
X020108Y013809D01*
X020266Y013651D02*
X023925Y013651D01*
X023818Y013492D02*
X020425Y013492D01*
X020583Y013334D02*
X023793Y013334D01*
X023832Y013175D02*
X020742Y013175D01*
X020900Y013017D02*
X023959Y013017D01*
X024063Y012858D02*
X021059Y012858D01*
X021217Y012700D02*
X024063Y012700D01*
X024063Y012541D02*
X021376Y012541D01*
X021567Y012383D02*
X024063Y012383D01*
X024063Y012224D02*
X021608Y012224D01*
X021566Y012066D02*
X024063Y012066D01*
X024063Y011907D02*
X022485Y011907D01*
X022552Y011879D02*
X022322Y011974D01*
X022074Y011974D01*
X021845Y011879D01*
X021670Y011704D01*
X021575Y011475D01*
X021575Y011227D01*
X021670Y010997D01*
X021845Y010822D01*
X022074Y010727D01*
X022322Y010727D01*
X022552Y010822D01*
X022727Y010997D01*
X022822Y011227D01*
X022822Y011475D01*
X022727Y011704D01*
X022552Y011879D01*
X022682Y011749D02*
X024063Y011749D01*
X024063Y011590D02*
X022774Y011590D01*
X022822Y011432D02*
X024063Y011432D01*
X024063Y011273D02*
X022822Y011273D01*
X022776Y011115D02*
X024063Y011115D01*
X024038Y010956D02*
X022686Y010956D01*
X022493Y010798D02*
X024063Y010798D01*
X024063Y010639D02*
X014778Y010639D01*
X014845Y010822D02*
X015074Y010727D01*
X015322Y010727D01*
X015552Y010822D01*
X015727Y010997D01*
X015822Y011227D01*
X015822Y011475D01*
X015727Y011704D01*
X015552Y011879D01*
X015322Y011974D01*
X015074Y011974D01*
X014845Y011879D01*
X014670Y011704D01*
X014575Y011475D01*
X014575Y011227D01*
X014670Y010997D01*
X014845Y010822D01*
X014904Y010798D02*
X014619Y010798D01*
X014711Y010956D02*
X014461Y010956D01*
X014371Y011115D02*
X014621Y011115D01*
X014575Y011273D02*
X014213Y011273D01*
X013934Y011273D02*
X012822Y011273D01*
X012822Y011227D02*
X012727Y010997D01*
X012552Y010822D01*
X012322Y010727D01*
X012074Y010727D01*
X011845Y010822D01*
X011670Y010997D01*
X011575Y011227D01*
X011575Y011475D01*
X011670Y011704D01*
X011845Y011879D01*
X012074Y011974D01*
X012322Y011974D01*
X012552Y011879D01*
X012727Y011704D01*
X012822Y011475D01*
X012822Y011227D01*
X012776Y011115D02*
X013776Y011115D01*
X013745Y010956D02*
X012686Y010956D01*
X012493Y010798D02*
X013792Y010798D01*
X014042Y010639D02*
X005567Y010639D01*
X005608Y010681D02*
X005368Y010441D01*
X005029Y010441D01*
X004788Y010681D01*
X004788Y011020D01*
X005029Y011261D01*
X005368Y011261D01*
X005608Y011020D01*
X005608Y010681D01*
X005608Y010798D02*
X007904Y010798D01*
X007845Y010822D02*
X008074Y010727D01*
X008322Y010727D01*
X008552Y010822D01*
X008727Y010997D01*
X008822Y011227D01*
X008822Y011475D01*
X008727Y011704D01*
X008552Y011879D01*
X008322Y011974D01*
X008074Y011974D01*
X007845Y011879D01*
X007670Y011704D01*
X007575Y011475D01*
X007575Y011227D01*
X007670Y010997D01*
X007845Y010822D01*
X007711Y010956D02*
X005608Y010956D01*
X005514Y011115D02*
X007621Y011115D01*
X007575Y011273D02*
X003073Y011273D01*
X003073Y011115D02*
X003883Y011115D01*
X003788Y011020D02*
X003788Y010681D01*
X004029Y010441D01*
X004368Y010441D01*
X004608Y010681D01*
X004608Y011020D01*
X004368Y011261D01*
X004029Y011261D01*
X003788Y011020D01*
X003788Y010956D02*
X003073Y010956D01*
X003073Y010798D02*
X003788Y010798D01*
X003830Y010639D02*
X003073Y010639D01*
X003073Y010481D02*
X003989Y010481D01*
X004029Y010261D02*
X003788Y010020D01*
X003788Y009681D01*
X004029Y009441D01*
X004368Y009441D01*
X004608Y009681D01*
X004608Y010020D01*
X004368Y010261D01*
X004029Y010261D01*
X003932Y010164D02*
X003073Y010164D01*
X003073Y010322D02*
X014359Y010322D01*
X014201Y010481D02*
X005408Y010481D01*
X005368Y010261D02*
X005029Y010261D01*
X004788Y010020D01*
X004788Y009681D01*
X005029Y009441D01*
X005368Y009441D01*
X005608Y009681D01*
X005608Y010020D01*
X005368Y010261D01*
X005465Y010164D02*
X014518Y010164D01*
X014676Y010005D02*
X005608Y010005D01*
X005608Y009847D02*
X014835Y009847D01*
X014993Y009688D02*
X005608Y009688D01*
X005457Y009530D02*
X015152Y009530D01*
X015308Y009371D02*
X003178Y009371D01*
X003073Y009530D02*
X003940Y009530D01*
X003788Y009688D02*
X003073Y009688D01*
X003073Y009847D02*
X003788Y009847D01*
X003788Y010005D02*
X003073Y010005D01*
X003336Y009213D02*
X015464Y009213D01*
X015570Y009847D02*
X029585Y009847D01*
X030003Y010164D02*
X030358Y010164D01*
X030288Y010005D02*
X030162Y010005D01*
X029845Y010322D02*
X031822Y010322D01*
X031822Y010195D02*
X032043Y009974D01*
X032354Y009974D01*
X032575Y010195D01*
X032575Y010506D01*
X032354Y010727D01*
X032043Y010727D01*
X031822Y010506D01*
X031822Y010195D01*
X031853Y010164D02*
X030788Y010164D01*
X030912Y010005D02*
X032012Y010005D01*
X032385Y010005D02*
X034012Y010005D01*
X033853Y010164D02*
X032543Y010164D01*
X032575Y010322D02*
X033822Y010322D01*
X033822Y010481D02*
X032575Y010481D01*
X032442Y010639D02*
X033955Y010639D01*
X033902Y011115D02*
X032494Y011115D01*
X032575Y011195D02*
X032354Y010974D01*
X032043Y010974D01*
X031822Y011195D01*
X031822Y011506D01*
X032043Y011727D01*
X032354Y011727D01*
X032575Y011506D01*
X032575Y011195D01*
X032575Y011273D02*
X033822Y011273D01*
X033822Y011432D02*
X032575Y011432D01*
X032491Y011590D02*
X033906Y011590D01*
X034183Y011749D02*
X031999Y011749D01*
X031906Y011590D02*
X031806Y011590D01*
X031822Y011432D02*
X031647Y011432D01*
X031489Y011273D02*
X031822Y011273D01*
X031902Y011115D02*
X031330Y011115D01*
X031172Y010956D02*
X034563Y010956D01*
X034563Y010798D02*
X031048Y010798D01*
X030598Y010798D02*
X030263Y010798D01*
X030422Y010956D02*
X030538Y010956D01*
X030105Y010639D02*
X031955Y010639D01*
X031822Y010481D02*
X029911Y010481D01*
X029794Y010373D02*
X029794Y010373D01*
X029698Y011115D02*
X029698Y011115D01*
X029698Y011273D02*
X029698Y011273D01*
X029698Y011432D02*
X029698Y011432D01*
X029698Y011590D02*
X029698Y011590D01*
X029698Y011749D02*
X029698Y011749D01*
X029377Y011749D02*
X029310Y011749D01*
X029278Y011590D02*
X029078Y011590D01*
X029078Y011432D02*
X029278Y011432D01*
X029307Y011273D02*
X029033Y011273D01*
X028875Y011115D02*
X029465Y011115D01*
X030118Y011432D02*
X030162Y011432D01*
X030118Y011590D02*
X030320Y011590D01*
X030479Y011749D02*
X030019Y011749D01*
X030637Y011907D02*
X029400Y011907D01*
X029391Y012066D02*
X030796Y012066D01*
X030954Y012224D02*
X029289Y012224D01*
X029034Y012383D02*
X031113Y012383D01*
X031271Y012541D02*
X028876Y012541D01*
X028797Y012700D02*
X028717Y012700D01*
X028652Y012858D02*
X028559Y012858D01*
X028493Y013017D02*
X028400Y013017D01*
X028427Y013175D02*
X028242Y013175D01*
X028388Y013334D02*
X028083Y013334D01*
X027925Y013492D02*
X028388Y013492D01*
X027823Y012858D02*
X027550Y012858D01*
X027583Y012700D02*
X027982Y012700D01*
X028140Y012541D02*
X027583Y012541D01*
X027583Y012383D02*
X028299Y012383D01*
X028457Y012224D02*
X027583Y012224D01*
X027583Y012066D02*
X028616Y012066D01*
X028747Y011907D02*
X027583Y011907D01*
X027583Y011749D02*
X028434Y011749D01*
X028318Y011590D02*
X027583Y011590D01*
X027610Y011432D02*
X028318Y011432D01*
X028364Y011273D02*
X027769Y011273D01*
X027927Y011115D02*
X028522Y011115D01*
X027667Y010639D02*
X024653Y010639D01*
X024583Y010798D02*
X025904Y010798D01*
X025845Y010822D02*
X026074Y010727D01*
X026322Y010727D01*
X026552Y010822D01*
X026727Y010997D01*
X026822Y011227D01*
X026822Y011475D01*
X026727Y011704D01*
X026552Y011879D01*
X026322Y011974D01*
X026074Y011974D01*
X025845Y011879D01*
X025670Y011704D01*
X025575Y011475D01*
X025575Y011227D01*
X025670Y010997D01*
X025845Y010822D01*
X025711Y010956D02*
X024608Y010956D01*
X024583Y011115D02*
X025621Y011115D01*
X025575Y011273D02*
X024583Y011273D01*
X024583Y011432D02*
X025575Y011432D01*
X025623Y011590D02*
X024583Y011590D01*
X024583Y011749D02*
X025714Y011749D01*
X025912Y011907D02*
X024583Y011907D01*
X024583Y012066D02*
X027063Y012066D01*
X027063Y012224D02*
X024583Y012224D01*
X024583Y012383D02*
X027063Y012383D01*
X027063Y012541D02*
X024583Y012541D01*
X024583Y012700D02*
X026982Y012700D01*
X026823Y012858D02*
X024583Y012858D01*
X024583Y013017D02*
X024902Y013017D01*
X024908Y013011D02*
X024965Y012969D01*
X025027Y012938D01*
X025094Y012916D01*
X025163Y012905D01*
X025190Y012905D01*
X025190Y013342D01*
X025207Y013342D01*
X025207Y012905D01*
X025233Y012905D01*
X025303Y012916D01*
X025370Y012938D01*
X025432Y012969D01*
X025489Y013011D01*
X025538Y013060D01*
X025580Y013117D01*
X025612Y013180D01*
X025633Y013246D01*
X025644Y013316D01*
X025644Y013342D01*
X025207Y013342D01*
X025207Y013359D01*
X025644Y013359D01*
X025644Y013386D01*
X025633Y013455D01*
X025612Y013522D01*
X025580Y013584D01*
X025538Y013641D01*
X025489Y013691D01*
X025432Y013732D01*
X025370Y013764D01*
X025303Y013785D01*
X025233Y013796D01*
X025207Y013796D01*
X025207Y013359D01*
X025190Y013359D01*
X025190Y013342D01*
X024753Y013342D01*
X024753Y013316D01*
X024764Y013246D01*
X024785Y013180D01*
X024817Y013117D01*
X024858Y013060D01*
X024908Y013011D01*
X024788Y013175D02*
X024583Y013175D01*
X024604Y013334D02*
X024753Y013334D01*
X024753Y013359D02*
X025190Y013359D01*
X025190Y013796D01*
X025163Y013796D01*
X025094Y013785D01*
X025027Y013764D01*
X024965Y013732D01*
X024908Y013691D01*
X024858Y013641D01*
X024817Y013584D01*
X024785Y013522D01*
X024764Y013455D01*
X024753Y013386D01*
X024753Y013359D01*
X024776Y013492D02*
X024579Y013492D01*
X024472Y013651D02*
X024868Y013651D01*
X025190Y013651D02*
X025207Y013651D01*
X025190Y013492D02*
X025207Y013492D01*
X025190Y013334D02*
X025207Y013334D01*
X025190Y013175D02*
X025207Y013175D01*
X025190Y013017D02*
X025207Y013017D01*
X025495Y013017D02*
X026665Y013017D01*
X026506Y013175D02*
X025609Y013175D01*
X025644Y013334D02*
X026348Y013334D01*
X026189Y013492D02*
X025621Y013492D01*
X025529Y013651D02*
X026031Y013651D01*
X026449Y013968D02*
X026714Y013968D01*
X026608Y013809D02*
X026872Y013809D01*
X026766Y013651D02*
X027031Y013651D01*
X026925Y013492D02*
X027189Y013492D01*
X027083Y013334D02*
X027348Y013334D01*
X027242Y013175D02*
X027506Y013175D01*
X027400Y013017D02*
X027665Y013017D01*
X027063Y011907D02*
X026485Y011907D01*
X026682Y011749D02*
X027063Y011749D01*
X027063Y011590D02*
X026774Y011590D01*
X026822Y011432D02*
X027063Y011432D01*
X027074Y011273D02*
X026822Y011273D01*
X026776Y011115D02*
X027192Y011115D01*
X027350Y010956D02*
X026686Y010956D01*
X026493Y010798D02*
X027509Y010798D01*
X024551Y010005D02*
X015412Y010005D01*
X015253Y010164D02*
X024393Y010164D01*
X024234Y010322D02*
X015095Y010322D01*
X014936Y010481D02*
X024092Y010481D01*
X021904Y010798D02*
X019493Y010798D01*
X019552Y010822D02*
X019727Y010997D01*
X019822Y011227D01*
X019822Y011475D01*
X019727Y011704D01*
X019552Y011879D01*
X019322Y011974D01*
X019074Y011974D01*
X018845Y011879D01*
X018670Y011704D01*
X018575Y011475D01*
X018575Y011227D01*
X018670Y010997D01*
X018845Y010822D01*
X019074Y010727D01*
X019322Y010727D01*
X019552Y010822D01*
X019686Y010956D02*
X021711Y010956D01*
X021621Y011115D02*
X019776Y011115D01*
X019822Y011273D02*
X021575Y011273D01*
X021575Y011432D02*
X019822Y011432D01*
X019774Y011590D02*
X021623Y011590D01*
X021714Y011749D02*
X019682Y011749D01*
X019485Y011907D02*
X021912Y011907D01*
X021081Y012066D02*
X013112Y012066D01*
X013152Y012224D02*
X020957Y012224D01*
X020799Y012383D02*
X013114Y012383D01*
X012919Y012541D02*
X020640Y012541D01*
X020482Y012700D02*
X012717Y012700D01*
X012559Y012858D02*
X020323Y012858D01*
X018912Y011907D02*
X015485Y011907D01*
X015682Y011749D02*
X018714Y011749D01*
X018623Y011590D02*
X015774Y011590D01*
X015822Y011432D02*
X018575Y011432D01*
X018575Y011273D02*
X015822Y011273D01*
X015776Y011115D02*
X018621Y011115D01*
X018711Y010956D02*
X015686Y010956D01*
X015493Y010798D02*
X018904Y010798D01*
X014912Y011907D02*
X012912Y011907D01*
X012735Y011907D02*
X012485Y011907D01*
X012535Y012066D02*
X003073Y012066D01*
X003073Y012224D02*
X012457Y012224D01*
X012299Y012383D02*
X003073Y012383D01*
X003073Y012541D02*
X012140Y012541D01*
X011982Y012700D02*
X003073Y012700D01*
X003073Y012858D02*
X004659Y012858D01*
X004756Y012761D02*
X004484Y013033D01*
X004484Y013418D01*
X004756Y013690D01*
X005141Y013690D01*
X005413Y013418D01*
X005413Y013033D01*
X005141Y012761D01*
X004756Y012761D01*
X004500Y013017D02*
X003073Y013017D01*
X003073Y013175D02*
X004484Y013175D01*
X004484Y013334D02*
X003073Y013334D01*
X003073Y013492D02*
X004558Y013492D01*
X004716Y013651D02*
X003073Y013651D01*
X003073Y013809D02*
X004708Y013809D01*
X004756Y013761D02*
X004484Y014033D01*
X004484Y014418D01*
X004756Y014690D01*
X005141Y014690D01*
X005413Y014418D01*
X005413Y014033D01*
X005141Y013761D01*
X004756Y013761D01*
X004549Y013968D02*
X003073Y013968D01*
X003073Y014126D02*
X004484Y014126D01*
X004484Y014285D02*
X003073Y014285D01*
X003073Y014443D02*
X004509Y014443D01*
X004667Y014602D02*
X003073Y014602D01*
X003073Y014760D02*
X011813Y014760D01*
X011813Y014602D02*
X005230Y014602D01*
X005141Y014761D02*
X005413Y015033D01*
X005413Y015418D01*
X005141Y015690D01*
X004756Y015690D01*
X004484Y015418D01*
X004484Y015033D01*
X004756Y014761D01*
X005141Y014761D01*
X005299Y014919D02*
X011813Y014919D01*
X011813Y015077D02*
X005413Y015077D01*
X005413Y015236D02*
X008901Y015236D01*
X008818Y015318D02*
X009041Y015096D01*
X009356Y015096D01*
X009578Y015318D01*
X009578Y015633D01*
X009356Y015856D01*
X009041Y015856D01*
X008818Y015633D01*
X008818Y015318D01*
X008818Y015394D02*
X005413Y015394D01*
X005279Y015553D02*
X008818Y015553D01*
X008897Y015711D02*
X003073Y015711D01*
X003073Y015553D02*
X004618Y015553D01*
X004484Y015394D02*
X003073Y015394D01*
X003073Y015236D02*
X004484Y015236D01*
X004484Y015077D02*
X003073Y015077D01*
X003073Y014919D02*
X004598Y014919D01*
X004756Y015761D02*
X004484Y016033D01*
X004484Y016418D01*
X004756Y016690D01*
X005141Y016690D01*
X005413Y016418D01*
X005413Y016033D01*
X005141Y015761D01*
X004756Y015761D01*
X004647Y015870D02*
X003073Y015870D01*
X003073Y016028D02*
X004489Y016028D01*
X004484Y016187D02*
X003073Y016187D01*
X003073Y016345D02*
X004484Y016345D01*
X004569Y016504D02*
X003073Y016504D01*
X003073Y016662D02*
X004728Y016662D01*
X004600Y016721D02*
X004920Y016721D01*
X004920Y017197D01*
X004977Y017197D01*
X004977Y016721D01*
X005297Y016721D01*
X005343Y016733D01*
X005384Y016757D01*
X005417Y016790D01*
X005441Y016831D01*
X005453Y016877D01*
X005453Y017197D01*
X004977Y017197D01*
X004977Y017254D01*
X005453Y017254D01*
X005453Y017574D01*
X005441Y017620D01*
X005417Y017661D01*
X005384Y017694D01*
X005343Y017718D01*
X005297Y017730D01*
X004977Y017730D01*
X004977Y017254D01*
X004920Y017254D01*
X004920Y017197D01*
X004444Y017197D01*
X004444Y016877D01*
X004456Y016831D01*
X004480Y016790D01*
X004513Y016757D01*
X004554Y016733D01*
X004600Y016721D01*
X004462Y016821D02*
X003073Y016821D01*
X003073Y016979D02*
X004444Y016979D01*
X004444Y017138D02*
X003073Y017138D01*
X003073Y017296D02*
X004444Y017296D01*
X004444Y017254D02*
X004920Y017254D01*
X004920Y017730D01*
X004600Y017730D01*
X004554Y017718D01*
X004513Y017694D01*
X004480Y017661D01*
X004456Y017620D01*
X004444Y017574D01*
X004444Y017254D01*
X004444Y017455D02*
X003073Y017455D01*
X003073Y017613D02*
X004454Y017613D01*
X004920Y017613D02*
X004977Y017613D01*
X004977Y017455D02*
X004920Y017455D01*
X004920Y017296D02*
X004977Y017296D01*
X004977Y017138D02*
X004920Y017138D01*
X004920Y016979D02*
X004977Y016979D01*
X004977Y016821D02*
X004920Y016821D01*
X005169Y016662D02*
X011519Y016662D01*
X011361Y016821D02*
X005435Y016821D01*
X005453Y016979D02*
X011202Y016979D01*
X011044Y017138D02*
X005453Y017138D01*
X005453Y017296D02*
X010885Y017296D01*
X010727Y017455D02*
X008164Y017455D01*
X007983Y017455D02*
X005453Y017455D01*
X005443Y017613D02*
X007812Y017613D01*
X007788Y017772D02*
X003073Y017772D01*
X003073Y017930D02*
X007875Y017930D01*
X008889Y018247D02*
X003073Y018247D01*
X003073Y018089D02*
X012313Y018089D01*
X012313Y018247D02*
X011507Y018247D01*
X011578Y018318D02*
X011356Y018096D01*
X011041Y018096D01*
X010818Y018318D01*
X010818Y018633D01*
X011041Y018856D01*
X011356Y018856D01*
X011578Y018633D01*
X011578Y018318D01*
X011578Y018406D02*
X012313Y018406D01*
X012313Y018564D02*
X011578Y018564D01*
X011489Y018723D02*
X012313Y018723D01*
X012313Y018881D02*
X010097Y018881D01*
X010255Y019040D02*
X012313Y019040D01*
X012313Y019198D02*
X010414Y019198D01*
X010572Y019357D02*
X012313Y019357D01*
X012313Y019515D02*
X010766Y019515D01*
X010858Y019674D02*
X012288Y019674D01*
X012309Y019832D02*
X010838Y019832D01*
X010309Y019832D02*
X005754Y019832D01*
X004736Y019832D02*
X003073Y019832D01*
X003073Y019674D02*
X010154Y019674D01*
X009995Y019515D02*
X003073Y019515D01*
X003073Y019357D02*
X009837Y019357D01*
X009678Y019198D02*
X003073Y019198D01*
X003073Y019040D02*
X009520Y019040D01*
X009361Y018881D02*
X003073Y018881D01*
X003073Y018723D02*
X008908Y018723D01*
X008818Y018564D02*
X003073Y018564D01*
X003073Y018406D02*
X008818Y018406D01*
X009507Y018247D02*
X010889Y018247D01*
X010818Y018406D02*
X009621Y018406D01*
X009780Y018564D02*
X010818Y018564D01*
X010908Y018723D02*
X009938Y018723D01*
X010987Y017930D02*
X012313Y017930D01*
X012410Y017772D02*
X011145Y017772D01*
X011044Y017873D02*
X011044Y017873D01*
X011304Y017613D02*
X012568Y017613D01*
X012727Y017455D02*
X011997Y017455D01*
X011649Y017455D02*
X011462Y017455D01*
X011678Y016504D02*
X005328Y016504D01*
X005413Y016345D02*
X011813Y016345D01*
X011813Y016187D02*
X005413Y016187D01*
X005408Y016028D02*
X011813Y016028D01*
X011813Y015870D02*
X005250Y015870D01*
X005388Y014443D02*
X011813Y014443D01*
X011813Y014285D02*
X005413Y014285D01*
X005413Y014126D02*
X011813Y014126D01*
X011813Y013968D02*
X005348Y013968D01*
X005189Y013809D02*
X011813Y013809D01*
X011813Y013651D02*
X011529Y013651D01*
X011538Y013641D02*
X011489Y013691D01*
X011432Y013732D01*
X011370Y013764D01*
X011303Y013785D01*
X011233Y013796D01*
X011207Y013796D01*
X011207Y013359D01*
X011644Y013359D01*
X011644Y013386D01*
X011633Y013455D01*
X011612Y013522D01*
X011580Y013584D01*
X011538Y013641D01*
X011621Y013492D02*
X011813Y013492D01*
X011813Y013334D02*
X011644Y013334D01*
X011644Y013342D02*
X011207Y013342D01*
X011207Y012905D01*
X011233Y012905D01*
X011303Y012916D01*
X011370Y012938D01*
X011432Y012969D01*
X011489Y013011D01*
X011538Y013060D01*
X011580Y013117D01*
X011612Y013180D01*
X011633Y013246D01*
X011644Y013316D01*
X011644Y013342D01*
X011609Y013175D02*
X011813Y013175D01*
X011813Y013017D02*
X011495Y013017D01*
X011207Y013017D02*
X011190Y013017D01*
X011190Y012905D02*
X011190Y013342D01*
X011207Y013342D01*
X011207Y013359D01*
X011190Y013359D01*
X011190Y013342D01*
X010753Y013342D01*
X010753Y013316D01*
X010764Y013246D01*
X010785Y013180D01*
X010817Y013117D01*
X010858Y013060D01*
X010908Y013011D01*
X010965Y012969D01*
X011027Y012938D01*
X011094Y012916D01*
X011163Y012905D01*
X011190Y012905D01*
X011190Y013175D02*
X011207Y013175D01*
X011190Y013334D02*
X011207Y013334D01*
X011190Y013359D02*
X010753Y013359D01*
X010753Y013386D01*
X010764Y013455D01*
X010785Y013522D01*
X010817Y013584D01*
X010858Y013641D01*
X010908Y013691D01*
X010965Y013732D01*
X011027Y013764D01*
X011094Y013785D01*
X011163Y013796D01*
X011190Y013796D01*
X011190Y013359D01*
X011190Y013492D02*
X011207Y013492D01*
X011190Y013651D02*
X011207Y013651D01*
X010868Y013651D02*
X010472Y013651D01*
X010428Y013695D02*
X010279Y013756D01*
X010118Y013756D01*
X009969Y013695D01*
X009854Y013580D01*
X009793Y013431D01*
X009793Y013270D01*
X009854Y013121D01*
X009969Y013007D01*
X010118Y012945D01*
X010279Y012945D01*
X010428Y013007D01*
X010542Y013121D01*
X010604Y013270D01*
X010604Y013431D01*
X010542Y013580D01*
X010428Y013695D01*
X010579Y013492D02*
X010776Y013492D01*
X010753Y013334D02*
X010604Y013334D01*
X010565Y013175D02*
X010788Y013175D01*
X010902Y013017D02*
X010438Y013017D01*
X009959Y013017D02*
X005397Y013017D01*
X005413Y013175D02*
X009832Y013175D01*
X009793Y013334D02*
X005413Y013334D01*
X005339Y013492D02*
X009818Y013492D01*
X009925Y013651D02*
X005181Y013651D01*
X005238Y012858D02*
X011841Y012858D01*
X011912Y011907D02*
X008485Y011907D01*
X008682Y011749D02*
X011714Y011749D01*
X011623Y011590D02*
X008774Y011590D01*
X008822Y011432D02*
X011575Y011432D01*
X011575Y011273D02*
X008822Y011273D01*
X008776Y011115D02*
X011621Y011115D01*
X011711Y010956D02*
X008686Y010956D01*
X008493Y010798D02*
X011904Y010798D01*
X012822Y011432D02*
X014575Y011432D01*
X014623Y011590D02*
X012774Y011590D01*
X012682Y011749D02*
X014714Y011749D01*
X014776Y014836D02*
X014621Y014836D01*
X014478Y014895D01*
X014368Y015005D01*
X014308Y015148D01*
X014308Y015803D01*
X014368Y015947D01*
X014478Y016056D01*
X014621Y016116D01*
X014776Y016116D01*
X014919Y016056D01*
X015029Y015947D01*
X015088Y015803D01*
X015088Y015148D01*
X015029Y015005D01*
X014919Y014895D01*
X014776Y014836D01*
X014943Y014919D02*
X015454Y014919D01*
X015478Y014895D02*
X015621Y014836D01*
X015776Y014836D01*
X015919Y014895D01*
X016029Y015005D01*
X016088Y015148D01*
X016088Y015803D01*
X016029Y015947D01*
X015919Y016056D01*
X015776Y016116D01*
X015621Y016116D01*
X015478Y016056D01*
X015368Y015947D01*
X015308Y015803D01*
X015308Y015148D01*
X015368Y015005D01*
X015478Y014895D01*
X015338Y015077D02*
X015059Y015077D01*
X015088Y015236D02*
X015308Y015236D01*
X015308Y015394D02*
X015088Y015394D01*
X015088Y015553D02*
X015308Y015553D01*
X015308Y015711D02*
X015088Y015711D01*
X015061Y015870D02*
X015336Y015870D01*
X015449Y016028D02*
X014947Y016028D01*
X014449Y016028D02*
X013947Y016028D01*
X013919Y016056D02*
X013776Y016116D01*
X013621Y016116D01*
X013478Y016056D01*
X013368Y015947D01*
X013308Y015803D01*
X013308Y015148D01*
X013368Y015005D01*
X013478Y014895D01*
X013621Y014836D01*
X013776Y014836D01*
X013919Y014895D01*
X014029Y015005D01*
X014088Y015148D01*
X014088Y015803D01*
X014029Y015947D01*
X013919Y016056D01*
X014061Y015870D02*
X014336Y015870D01*
X014308Y015711D02*
X014088Y015711D01*
X014088Y015553D02*
X014308Y015553D01*
X014308Y015394D02*
X014088Y015394D01*
X014088Y015236D02*
X014308Y015236D01*
X014338Y015077D02*
X014059Y015077D01*
X013943Y014919D02*
X014454Y014919D01*
X013454Y014919D02*
X012333Y014919D01*
X012333Y015077D02*
X013338Y015077D01*
X013308Y015236D02*
X012333Y015236D01*
X012333Y015394D02*
X013308Y015394D01*
X013308Y015553D02*
X012333Y015553D01*
X012333Y015711D02*
X013308Y015711D01*
X013336Y015870D02*
X012333Y015870D01*
X012333Y016028D02*
X013449Y016028D01*
X011813Y015711D02*
X011500Y015711D01*
X011578Y015633D02*
X011356Y015856D01*
X011041Y015856D01*
X010818Y015633D01*
X010818Y015318D01*
X011041Y015096D01*
X011356Y015096D01*
X011578Y015318D01*
X011578Y015633D01*
X011578Y015553D02*
X011813Y015553D01*
X011813Y015394D02*
X011578Y015394D01*
X011496Y015236D02*
X011813Y015236D01*
X010901Y015236D02*
X009496Y015236D01*
X009578Y015394D02*
X010818Y015394D01*
X010818Y015553D02*
X009578Y015553D01*
X009500Y015711D02*
X010897Y015711D01*
X013954Y017930D02*
X014442Y017930D01*
X014478Y017895D02*
X014621Y017836D01*
X014776Y017836D01*
X014919Y017895D01*
X015029Y018005D01*
X015088Y018148D01*
X015088Y018803D01*
X015029Y018947D01*
X014919Y019056D01*
X014776Y019116D01*
X014621Y019116D01*
X014478Y019056D01*
X014368Y018947D01*
X014308Y018803D01*
X014308Y018148D01*
X014368Y018005D01*
X014478Y017895D01*
X014333Y018089D02*
X014064Y018089D01*
X014088Y018247D02*
X014308Y018247D01*
X014308Y018406D02*
X014088Y018406D01*
X014088Y018564D02*
X014308Y018564D01*
X014308Y018723D02*
X014088Y018723D01*
X014056Y018881D02*
X014341Y018881D01*
X014461Y019040D02*
X013936Y019040D01*
X014936Y019040D02*
X015461Y019040D01*
X015478Y019056D02*
X015368Y018947D01*
X015308Y018803D01*
X015308Y018148D01*
X015368Y018005D01*
X015478Y017895D01*
X015621Y017836D01*
X015776Y017836D01*
X015919Y017895D01*
X016029Y018005D01*
X016088Y018148D01*
X016088Y018803D01*
X016029Y018947D01*
X015919Y019056D01*
X015776Y019116D01*
X015621Y019116D01*
X015478Y019056D01*
X015341Y018881D02*
X015056Y018881D01*
X015088Y018723D02*
X015308Y018723D01*
X015308Y018564D02*
X015088Y018564D01*
X015088Y018406D02*
X015308Y018406D01*
X015308Y018247D02*
X015088Y018247D01*
X015064Y018089D02*
X015333Y018089D01*
X015442Y017930D02*
X014954Y017930D01*
X015954Y017930D02*
X016442Y017930D01*
X016478Y017895D02*
X016621Y017836D01*
X016776Y017836D01*
X016919Y017895D01*
X017029Y018005D01*
X017088Y018148D01*
X017088Y018803D01*
X017029Y018947D01*
X016919Y019056D01*
X016776Y019116D01*
X016621Y019116D01*
X016478Y019056D01*
X016368Y018947D01*
X016308Y018803D01*
X016308Y018148D01*
X016368Y018005D01*
X016478Y017895D01*
X016333Y018089D02*
X016064Y018089D01*
X016088Y018247D02*
X016308Y018247D01*
X016308Y018406D02*
X016088Y018406D01*
X016088Y018564D02*
X016308Y018564D01*
X016308Y018723D02*
X016088Y018723D01*
X016056Y018881D02*
X016341Y018881D01*
X016461Y019040D02*
X015936Y019040D01*
X016936Y019040D02*
X018442Y019040D01*
X018550Y018881D02*
X017056Y018881D01*
X017088Y018723D02*
X018709Y018723D01*
X018867Y018564D02*
X017088Y018564D01*
X017088Y018406D02*
X019026Y018406D01*
X018872Y018396D02*
X018698Y018396D01*
X018524Y018396D01*
X018278Y018150D01*
X018278Y017976D01*
X018698Y017976D01*
X018698Y018396D01*
X018698Y017976D01*
X018698Y017976D01*
X018698Y017976D01*
X018278Y017976D01*
X018278Y017802D01*
X018524Y017556D01*
X018698Y017556D01*
X018698Y017976D01*
X018698Y017976D01*
X019118Y017976D01*
X019118Y018150D01*
X018872Y018396D01*
X019021Y018247D02*
X019184Y018247D01*
X019118Y018089D02*
X019343Y018089D01*
X019501Y017930D02*
X019118Y017930D01*
X019118Y017976D02*
X019118Y017802D01*
X018872Y017556D01*
X018698Y017556D01*
X018698Y017976D01*
X018698Y017976D01*
X019118Y017976D01*
X019088Y017772D02*
X019660Y017772D01*
X019842Y017613D02*
X018930Y017613D01*
X018698Y017613D02*
X018698Y017613D01*
X018698Y017772D02*
X018698Y017772D01*
X018698Y017930D02*
X018698Y017930D01*
X018698Y018089D02*
X018698Y018089D01*
X018698Y018247D02*
X018698Y018247D01*
X018376Y018247D02*
X017088Y018247D01*
X017064Y018089D02*
X018278Y018089D01*
X018278Y017930D02*
X016954Y017930D01*
X017805Y017772D02*
X018308Y017772D01*
X018467Y017613D02*
X017858Y017613D01*
X019127Y019040D02*
X020895Y019040D01*
X020736Y018881D02*
X019286Y018881D01*
X019444Y018723D02*
X020408Y018723D01*
X020318Y018564D02*
X019603Y018564D01*
X019761Y018406D02*
X020318Y018406D01*
X020389Y018247D02*
X019920Y018247D01*
X022208Y018881D02*
X025213Y018881D01*
X025055Y019040D02*
X022208Y019040D01*
X022208Y019198D02*
X024983Y019198D01*
X024825Y019357D02*
X022208Y019357D01*
X022208Y019515D02*
X022309Y019515D01*
X022835Y018564D02*
X023256Y018564D01*
X023280Y018589D02*
X023230Y018539D01*
X023189Y018481D01*
X023156Y018418D01*
X023134Y018351D01*
X023123Y018281D01*
X023123Y017986D01*
X023563Y017986D01*
X023563Y017966D01*
X023583Y017966D01*
X023583Y017986D01*
X023563Y017986D01*
X023563Y018696D01*
X023538Y018696D01*
X023468Y018685D01*
X023401Y018663D01*
X023338Y018631D01*
X023280Y018589D01*
X023152Y018406D02*
X022951Y018406D01*
X022983Y018247D02*
X023123Y018247D01*
X023123Y018089D02*
X022983Y018089D01*
X022983Y017930D02*
X023123Y017930D01*
X023123Y017772D02*
X022983Y017772D01*
X022979Y017613D02*
X023132Y017613D01*
X023200Y017455D02*
X022902Y017455D01*
X023563Y017455D02*
X023583Y017455D01*
X023583Y017613D02*
X023563Y017613D01*
X023563Y017772D02*
X023583Y017772D01*
X023583Y017930D02*
X023563Y017930D01*
X023583Y017986D02*
X024023Y017986D01*
X024023Y018281D01*
X024012Y018351D01*
X023990Y018418D01*
X023958Y018481D01*
X023917Y018539D01*
X023867Y018589D01*
X023809Y018631D01*
X023746Y018663D01*
X023679Y018685D01*
X023609Y018696D01*
X023583Y018696D01*
X023583Y017986D01*
X023583Y018089D02*
X023563Y018089D01*
X023563Y018247D02*
X023583Y018247D01*
X023583Y018406D02*
X023563Y018406D01*
X023563Y018564D02*
X023583Y018564D01*
X023891Y018564D02*
X027867Y018564D01*
X028026Y018406D02*
X023995Y018406D01*
X024023Y018247D02*
X028063Y018247D01*
X028063Y018089D02*
X024023Y018089D01*
X024023Y017930D02*
X025198Y017930D01*
X025040Y017772D02*
X024023Y017772D01*
X024014Y017613D02*
X025038Y017613D01*
X025038Y017455D02*
X023947Y017455D01*
X025152Y016187D02*
X026226Y016187D01*
X026438Y016187D02*
X026458Y016187D01*
X026458Y016345D02*
X026438Y016345D01*
X026438Y016504D02*
X026458Y016504D01*
X026438Y016611D02*
X025998Y016611D01*
X025998Y016787D01*
X026262Y017051D01*
X026438Y017051D01*
X026438Y016611D01*
X026438Y016662D02*
X026458Y016662D01*
X026458Y016821D02*
X026438Y016821D01*
X026438Y016979D02*
X026458Y016979D01*
X026191Y016979D02*
X025650Y016979D01*
X025808Y016821D02*
X026032Y016821D01*
X025998Y016662D02*
X025858Y016662D01*
X025858Y016504D02*
X025998Y016504D01*
X026068Y016345D02*
X025773Y016345D01*
X025759Y015870D02*
X026138Y015870D01*
X026038Y015711D02*
X025858Y015711D01*
X025864Y015553D02*
X026038Y015553D01*
X026023Y015394D02*
X026075Y015394D01*
X026181Y015236D02*
X026234Y015236D01*
X025763Y014919D02*
X025498Y014919D01*
X025604Y015077D02*
X025340Y015077D01*
X025234Y015236D02*
X025181Y015236D01*
X025657Y014760D02*
X025921Y014760D01*
X025815Y014602D02*
X026080Y014602D01*
X025974Y014443D02*
X026238Y014443D01*
X026132Y014285D02*
X026397Y014285D01*
X026291Y014126D02*
X026555Y014126D01*
X025138Y015870D02*
X025083Y015870D01*
X025083Y016028D02*
X028063Y016028D01*
X028583Y016821D02*
X030505Y016821D01*
X030315Y016979D02*
X028583Y016979D01*
X028583Y017138D02*
X030288Y017138D01*
X030313Y017296D02*
X028583Y017296D01*
X028583Y017455D02*
X030313Y017455D01*
X030313Y017613D02*
X028583Y017613D01*
X028583Y017772D02*
X030313Y017772D01*
X030313Y017930D02*
X028583Y017930D01*
X028583Y018089D02*
X030313Y018089D01*
X030184Y018247D02*
X028583Y018247D01*
X028583Y018406D02*
X030026Y018406D01*
X029867Y018564D02*
X028568Y018564D01*
X028444Y018723D02*
X029709Y018723D01*
X029550Y018881D02*
X028286Y018881D01*
X028127Y019040D02*
X029392Y019040D01*
X029233Y019198D02*
X027969Y019198D01*
X027810Y019357D02*
X029075Y019357D01*
X028916Y019515D02*
X027652Y019515D01*
X027493Y019674D02*
X028758Y019674D01*
X028599Y019832D02*
X027335Y019832D01*
X027176Y019991D02*
X028441Y019991D01*
X028282Y020149D02*
X027018Y020149D01*
X026859Y020308D02*
X028124Y020308D01*
X027965Y020466D02*
X026788Y020466D01*
X026629Y020625D02*
X027807Y020625D01*
X028225Y020942D02*
X032063Y020942D01*
X032063Y021100D02*
X028067Y021100D01*
X027908Y021259D02*
X032063Y021259D01*
X032063Y021417D02*
X027750Y021417D01*
X027591Y021576D02*
X032063Y021576D01*
X032063Y021734D02*
X027433Y021734D01*
X026219Y021576D02*
X025678Y021576D01*
X025837Y021417D02*
X026060Y021417D01*
X026038Y021259D02*
X025858Y021259D01*
X025858Y021100D02*
X026038Y021100D01*
X026153Y020942D02*
X025744Y020942D01*
X025629Y020625D02*
X026268Y020625D01*
X026109Y020466D02*
X025788Y020466D01*
X025858Y020308D02*
X026038Y020308D01*
X026038Y020149D02*
X025858Y020149D01*
X025793Y019991D02*
X026104Y019991D01*
X026262Y019832D02*
X025635Y019832D01*
X025739Y019515D02*
X026158Y019515D01*
X026038Y019357D02*
X025858Y019357D01*
X025858Y019198D02*
X026038Y019198D01*
X026055Y019040D02*
X025842Y019040D01*
X025684Y018881D02*
X026213Y018881D01*
X026198Y017930D02*
X025699Y017930D01*
X025857Y017772D02*
X026040Y017772D01*
X026038Y017613D02*
X025858Y017613D01*
X025858Y017455D02*
X026038Y017455D01*
X026173Y017296D02*
X025724Y017296D01*
X026699Y017930D02*
X028063Y017930D01*
X028063Y017772D02*
X026857Y017772D01*
X026858Y017613D02*
X028063Y017613D01*
X028063Y017455D02*
X026858Y017455D01*
X029652Y019515D02*
X029916Y019515D01*
X029810Y019357D02*
X030075Y019357D01*
X029969Y019198D02*
X030233Y019198D01*
X030127Y019040D02*
X033142Y019040D01*
X032983Y019198D02*
X031194Y019198D01*
X031233Y019357D02*
X032825Y019357D01*
X032666Y019515D02*
X032516Y019515D01*
X032131Y019515D02*
X031187Y019515D01*
X030493Y019674D02*
X032038Y019674D01*
X032059Y019832D02*
X030335Y019832D01*
X030176Y019991D02*
X032191Y019991D01*
X032074Y020149D02*
X029018Y020149D01*
X029176Y019991D02*
X029323Y019991D01*
X028859Y020308D02*
X032063Y020308D01*
X032063Y020466D02*
X028701Y020466D01*
X028542Y020625D02*
X032063Y020625D01*
X032063Y020783D02*
X028384Y020783D01*
X025153Y020942D02*
X025083Y020942D01*
X024563Y022210D02*
X024495Y022210D01*
X024527Y022368D02*
X024563Y022368D01*
X024563Y022527D02*
X024481Y022527D01*
X024563Y022685D02*
X023983Y022685D01*
X023925Y022844D02*
X024563Y022844D01*
X024563Y023002D02*
X023833Y023002D01*
X023833Y023161D02*
X024563Y023161D01*
X024563Y023319D02*
X023833Y023319D01*
X023833Y023478D02*
X024563Y023478D01*
X024563Y023636D02*
X023833Y023636D01*
X023833Y023795D02*
X024563Y023795D01*
X024563Y023953D02*
X023833Y023953D01*
X023952Y024112D02*
X024563Y024112D01*
X024563Y024270D02*
X024111Y024270D01*
X024269Y024429D02*
X024563Y024429D01*
X024563Y024587D02*
X024450Y024587D01*
X024483Y024746D02*
X024563Y024746D01*
X024527Y024904D02*
X024423Y024904D01*
X024369Y025063D02*
X023778Y025063D01*
X023620Y024904D02*
X023974Y024904D01*
X023851Y024746D02*
X023461Y024746D01*
X023303Y024587D02*
X023692Y024587D01*
X023534Y024429D02*
X023144Y024429D01*
X022986Y024270D02*
X023375Y024270D01*
X023313Y024112D02*
X022827Y024112D01*
X022669Y023953D02*
X023313Y023953D01*
X023313Y023795D02*
X022510Y023795D01*
X022352Y023636D02*
X023313Y023636D01*
X023313Y023478D02*
X022193Y023478D01*
X022035Y023319D02*
X023313Y023319D01*
X023313Y023161D02*
X021876Y023161D01*
X021458Y023478D02*
X020083Y023478D01*
X020083Y023468D02*
X020083Y024118D01*
X023175Y027209D01*
X023235Y027234D01*
X023315Y027314D01*
X023358Y027419D01*
X023358Y027532D01*
X023315Y027637D01*
X023235Y027717D01*
X023130Y027761D01*
X023017Y027761D01*
X022912Y027717D01*
X022832Y027637D01*
X022807Y027577D01*
X019830Y024600D01*
X019858Y024669D01*
X019858Y024782D01*
X019833Y024843D01*
X019833Y026674D01*
X019833Y026777D01*
X019794Y026873D01*
X019294Y027373D01*
X019221Y027446D01*
X019125Y027486D01*
X019083Y027486D01*
X019083Y027527D01*
X019078Y027539D01*
X019078Y027791D01*
X019021Y027931D01*
X018914Y028038D01*
X018774Y028096D01*
X018623Y028096D01*
X018483Y028038D01*
X018376Y027931D01*
X018318Y027791D01*
X018318Y027160D01*
X018376Y027020D01*
X018483Y026913D01*
X018623Y026856D01*
X018774Y026856D01*
X018914Y026913D01*
X018966Y026966D01*
X019313Y026618D01*
X019313Y024843D01*
X019288Y024782D01*
X019288Y024669D01*
X019332Y024564D01*
X019412Y024484D01*
X019517Y024441D01*
X019630Y024441D01*
X019699Y024469D01*
X019603Y024373D01*
X019563Y024277D01*
X019563Y023468D01*
X019538Y023407D01*
X019538Y023294D01*
X019582Y023189D01*
X019662Y023109D01*
X019767Y023066D01*
X019880Y023066D01*
X019985Y023109D01*
X020065Y023189D01*
X020108Y023294D01*
X020108Y023407D01*
X020083Y023468D01*
X020108Y023319D02*
X021299Y023319D01*
X021192Y023161D02*
X020036Y023161D01*
X020278Y022900D02*
X020278Y022726D01*
X020698Y022726D01*
X020698Y023146D01*
X020524Y023146D01*
X020278Y022900D01*
X020278Y022844D02*
X019078Y022844D01*
X019078Y022883D02*
X018856Y023106D01*
X018541Y023106D01*
X018318Y022883D01*
X018318Y022568D01*
X018541Y022346D01*
X018856Y022346D01*
X019078Y022568D01*
X019078Y022883D01*
X018959Y023002D02*
X020381Y023002D01*
X020278Y022726D02*
X020278Y022552D01*
X020524Y022306D01*
X020698Y022306D01*
X020698Y022726D01*
X020698Y022726D01*
X020698Y022726D01*
X020278Y022726D01*
X020278Y022685D02*
X019078Y022685D01*
X019037Y022527D02*
X020303Y022527D01*
X020462Y022368D02*
X018878Y022368D01*
X018518Y022368D02*
X016935Y022368D01*
X016872Y022306D02*
X017118Y022552D01*
X017118Y022726D01*
X017118Y022900D01*
X017077Y022941D01*
X017130Y022941D01*
X017235Y022984D01*
X017315Y023064D01*
X017358Y023169D01*
X017358Y023282D01*
X017333Y023343D01*
X017333Y024124D01*
X017376Y024020D01*
X017483Y023913D01*
X017623Y023856D01*
X017774Y023856D01*
X017914Y023913D01*
X018021Y024020D01*
X018078Y024160D01*
X018078Y024791D01*
X018021Y024931D01*
X017914Y025038D01*
X017774Y025096D01*
X017623Y025096D01*
X017586Y025080D01*
X017044Y025623D01*
X016971Y025696D01*
X016875Y025736D01*
X014522Y025736D01*
X014426Y025696D01*
X014353Y025623D01*
X014222Y025492D01*
X014162Y025467D01*
X014082Y025387D01*
X014038Y025282D01*
X014038Y025169D01*
X014082Y025064D01*
X014162Y024984D01*
X014267Y024941D01*
X014380Y024941D01*
X014390Y024945D01*
X014376Y024931D01*
X014318Y024791D01*
X014318Y024160D01*
X014376Y024020D01*
X014483Y023913D01*
X014623Y023856D01*
X014774Y023856D01*
X014914Y023913D01*
X015021Y024020D01*
X015078Y024160D01*
X015078Y024791D01*
X015021Y024931D01*
X014914Y025038D01*
X014774Y025096D01*
X014623Y025096D01*
X014569Y025073D01*
X014590Y025125D01*
X014681Y025216D01*
X016716Y025216D01*
X016879Y025052D01*
X016774Y025096D01*
X016623Y025096D01*
X016483Y025038D01*
X016376Y024931D01*
X016318Y024791D01*
X016318Y024160D01*
X016376Y024020D01*
X016483Y023913D01*
X016623Y023856D01*
X016774Y023856D01*
X016813Y023872D01*
X016813Y023343D01*
X016788Y023282D01*
X016788Y023169D01*
X016798Y023146D01*
X016698Y023146D01*
X016524Y023146D01*
X016278Y022900D01*
X016278Y022726D01*
X016698Y022726D01*
X016698Y023146D01*
X016698Y022726D01*
X016698Y022726D01*
X016698Y022726D01*
X016278Y022726D01*
X016278Y022552D01*
X016524Y022306D01*
X016698Y022306D01*
X016698Y022726D01*
X016698Y022726D01*
X017118Y022726D01*
X016698Y022726D01*
X016698Y022726D01*
X016698Y022306D01*
X016872Y022306D01*
X016698Y022368D02*
X016698Y022368D01*
X016698Y022527D02*
X016698Y022527D01*
X016698Y022685D02*
X016698Y022685D01*
X016698Y022844D02*
X016698Y022844D01*
X016698Y023002D02*
X016698Y023002D01*
X016792Y023161D02*
X015751Y023161D01*
X015846Y023255D02*
X015919Y023328D01*
X015958Y023424D01*
X015958Y023958D01*
X016021Y024020D01*
X016078Y024160D01*
X016078Y024791D01*
X016021Y024931D01*
X015914Y025038D01*
X015774Y025096D01*
X015623Y025096D01*
X015483Y025038D01*
X015376Y024931D01*
X015318Y024791D01*
X015318Y024160D01*
X015376Y024020D01*
X015438Y023958D01*
X015438Y023583D01*
X014908Y023053D01*
X014856Y023106D01*
X014541Y023106D01*
X014333Y022898D01*
X014333Y024027D01*
X014294Y024123D01*
X014083Y024333D01*
X014083Y024527D01*
X014078Y024539D01*
X014078Y024791D01*
X014021Y024931D01*
X013914Y025038D01*
X013774Y025096D01*
X013623Y025096D01*
X013483Y025038D01*
X013376Y024931D01*
X013318Y024791D01*
X013318Y024160D01*
X013376Y024020D01*
X013483Y023913D01*
X013623Y023856D01*
X013774Y023856D01*
X013811Y023871D01*
X013813Y023868D01*
X013813Y022593D01*
X013788Y022532D01*
X013788Y022419D01*
X013832Y022314D01*
X013912Y022234D01*
X014017Y022191D01*
X014130Y022191D01*
X014235Y022234D01*
X014315Y022314D01*
X014358Y022419D01*
X014358Y022528D01*
X014541Y022346D01*
X014856Y022346D01*
X014976Y022466D01*
X015000Y022466D01*
X015096Y022505D01*
X015846Y023255D01*
X015910Y023319D02*
X016804Y023319D01*
X016813Y023478D02*
X015958Y023478D01*
X015958Y023636D02*
X016813Y023636D01*
X016813Y023795D02*
X015958Y023795D01*
X015958Y023953D02*
X016443Y023953D01*
X016338Y024112D02*
X016058Y024112D01*
X016078Y024270D02*
X016318Y024270D01*
X016318Y024429D02*
X016078Y024429D01*
X016078Y024587D02*
X016318Y024587D01*
X016318Y024746D02*
X016078Y024746D01*
X016032Y024904D02*
X016365Y024904D01*
X016543Y025063D02*
X015854Y025063D01*
X015543Y025063D02*
X014854Y025063D01*
X015032Y024904D02*
X015365Y024904D01*
X015318Y024746D02*
X015078Y024746D01*
X015078Y024587D02*
X015318Y024587D01*
X015318Y024429D02*
X015078Y024429D01*
X015078Y024270D02*
X015318Y024270D01*
X015338Y024112D02*
X015058Y024112D01*
X014953Y023953D02*
X015438Y023953D01*
X015438Y023795D02*
X014333Y023795D01*
X014333Y023953D02*
X014443Y023953D01*
X014338Y024112D02*
X014298Y024112D01*
X014318Y024270D02*
X014147Y024270D01*
X014083Y024429D02*
X014318Y024429D01*
X014318Y024587D02*
X014078Y024587D01*
X014078Y024746D02*
X014318Y024746D01*
X014365Y024904D02*
X014032Y024904D01*
X014083Y025063D02*
X013854Y025063D01*
X014038Y025221D02*
X011725Y025221D01*
X011735Y025217D02*
X011630Y025261D01*
X011517Y025261D01*
X011412Y025217D01*
X011332Y025137D01*
X011288Y025032D01*
X011288Y024919D01*
X011313Y024859D01*
X011313Y022593D01*
X011288Y022532D01*
X011288Y022419D01*
X011332Y022314D01*
X011412Y022234D01*
X011517Y022191D01*
X011630Y022191D01*
X011735Y022234D01*
X011815Y022314D01*
X011818Y022322D01*
X011818Y022318D01*
X012041Y022096D01*
X012356Y022096D01*
X012563Y022303D01*
X012563Y022083D01*
X012353Y021873D01*
X012313Y021777D01*
X012313Y021468D01*
X012288Y021407D01*
X012288Y021294D01*
X012332Y021189D01*
X012412Y021109D01*
X012517Y021066D01*
X012630Y021066D01*
X012735Y021109D01*
X012815Y021189D01*
X012858Y021294D01*
X012858Y021407D01*
X012833Y021468D01*
X012833Y021618D01*
X012971Y021755D01*
X013044Y021828D01*
X013083Y021924D01*
X013083Y024527D01*
X013078Y024539D01*
X013078Y024791D01*
X013021Y024931D01*
X012914Y025038D01*
X012774Y025096D01*
X012623Y025096D01*
X012483Y025038D01*
X012376Y024931D01*
X012318Y024791D01*
X012318Y024160D01*
X012376Y024020D01*
X012483Y023913D01*
X012563Y023880D01*
X012563Y022648D01*
X012356Y022856D01*
X012041Y022856D01*
X011833Y022648D01*
X011833Y024859D01*
X011858Y024919D01*
X011858Y025032D01*
X011815Y025137D01*
X011735Y025217D01*
X011846Y025063D02*
X012543Y025063D01*
X012365Y024904D02*
X011852Y024904D01*
X011833Y024746D02*
X012318Y024746D01*
X012318Y024587D02*
X011833Y024587D01*
X011833Y024429D02*
X012318Y024429D01*
X012318Y024270D02*
X011833Y024270D01*
X011833Y024112D02*
X012338Y024112D01*
X012443Y023953D02*
X011833Y023953D01*
X011833Y023795D02*
X012563Y023795D01*
X012563Y023636D02*
X011833Y023636D01*
X011833Y023478D02*
X012563Y023478D01*
X012563Y023319D02*
X011833Y023319D01*
X011833Y023161D02*
X012563Y023161D01*
X012563Y023002D02*
X011833Y023002D01*
X011833Y022844D02*
X012029Y022844D01*
X011871Y022685D02*
X011833Y022685D01*
X011927Y022210D02*
X011676Y022210D01*
X011471Y022210D02*
X009470Y022210D01*
X009578Y022318D02*
X009356Y022096D01*
X009041Y022096D01*
X008818Y022318D01*
X008818Y022633D01*
X009041Y022856D01*
X009211Y022856D01*
X010688Y024333D01*
X010688Y024734D01*
X010663Y024794D01*
X010663Y024907D01*
X010707Y025012D01*
X010787Y025092D01*
X010892Y025136D01*
X011005Y025136D01*
X011110Y025092D01*
X011190Y025012D01*
X011233Y024907D01*
X011233Y024794D01*
X011208Y024734D01*
X011208Y024174D01*
X011169Y024078D01*
X011096Y024005D01*
X009578Y022488D01*
X009578Y022318D01*
X009578Y022368D02*
X011309Y022368D01*
X011288Y022527D02*
X009617Y022527D01*
X009776Y022685D02*
X011313Y022685D01*
X011313Y022844D02*
X009934Y022844D01*
X010093Y023002D02*
X011313Y023002D01*
X011313Y023161D02*
X010251Y023161D01*
X010410Y023319D02*
X011313Y023319D01*
X011313Y023478D02*
X010568Y023478D01*
X010727Y023636D02*
X011313Y023636D01*
X011313Y023795D02*
X010885Y023795D01*
X011044Y023953D02*
X011313Y023953D01*
X011313Y024112D02*
X011183Y024112D01*
X011208Y024270D02*
X011313Y024270D01*
X011313Y024429D02*
X011208Y024429D01*
X011208Y024587D02*
X011313Y024587D01*
X011313Y024746D02*
X011213Y024746D01*
X011233Y024904D02*
X011295Y024904D01*
X011301Y025063D02*
X011139Y025063D01*
X011421Y025221D02*
X010373Y025221D01*
X010373Y025063D02*
X010757Y025063D01*
X010663Y024904D02*
X010373Y024904D01*
X010373Y024746D02*
X010683Y024746D01*
X010688Y024587D02*
X010321Y024587D01*
X010301Y024539D02*
X010373Y024714D01*
X010373Y026182D01*
X013029Y028838D01*
X013133Y029089D01*
X013133Y029362D01*
X013029Y029614D01*
X012836Y029806D01*
X012585Y029911D01*
X012312Y029911D01*
X012060Y029806D01*
X009300Y027046D01*
X009108Y026854D01*
X009003Y026602D01*
X009003Y025536D01*
X008212Y025536D01*
X008037Y025463D01*
X007818Y025463D01*
X007736Y025381D01*
X007736Y025162D01*
X007663Y024987D01*
X007663Y024714D01*
X007736Y024539D01*
X007736Y024320D01*
X007818Y024238D01*
X008037Y024238D01*
X008212Y024166D01*
X009825Y024166D01*
X010000Y024238D01*
X010219Y024238D01*
X010301Y024320D01*
X010301Y024539D01*
X010301Y024429D02*
X010688Y024429D01*
X010625Y024270D02*
X010251Y024270D01*
X010467Y024112D02*
X007085Y024112D01*
X007083Y024109D02*
X007108Y024169D01*
X007108Y024282D01*
X007065Y024387D01*
X006985Y024467D01*
X006880Y024511D01*
X006767Y024511D01*
X006662Y024467D01*
X006582Y024387D01*
X006538Y024282D01*
X006538Y024169D01*
X006563Y024109D01*
X006563Y022718D01*
X006538Y022657D01*
X006538Y022544D01*
X006582Y022439D01*
X006662Y022359D01*
X006767Y022316D01*
X006880Y022316D01*
X006985Y022359D01*
X007065Y022439D01*
X007108Y022544D01*
X007108Y022657D01*
X007083Y022718D01*
X007083Y024109D01*
X007083Y023953D02*
X010308Y023953D01*
X010150Y023795D02*
X007083Y023795D01*
X007083Y023636D02*
X009991Y023636D01*
X009833Y023478D02*
X007083Y023478D01*
X007083Y023319D02*
X009674Y023319D01*
X009516Y023161D02*
X007083Y023161D01*
X007083Y023002D02*
X009357Y023002D01*
X009029Y022844D02*
X007083Y022844D01*
X007097Y022685D02*
X008871Y022685D01*
X008818Y022527D02*
X007101Y022527D01*
X006994Y022368D02*
X008818Y022368D01*
X008927Y022210D02*
X005851Y022210D01*
X005865Y022176D02*
X005807Y022316D01*
X005700Y022423D01*
X005560Y022481D01*
X004929Y022481D01*
X004789Y022423D01*
X004683Y022316D01*
X004625Y022176D01*
X004625Y022025D01*
X004683Y021885D01*
X004789Y021778D01*
X004929Y021721D01*
X005560Y021721D01*
X005700Y021778D01*
X005807Y021885D01*
X005865Y022025D01*
X005865Y022176D01*
X005865Y022051D02*
X012531Y022051D01*
X012563Y022210D02*
X012470Y022210D01*
X012373Y021893D02*
X005810Y021893D01*
X005593Y021734D02*
X012313Y021734D01*
X012313Y021576D02*
X003073Y021576D01*
X003073Y021734D02*
X004896Y021734D01*
X004680Y021893D02*
X003073Y021893D01*
X003073Y022051D02*
X004625Y022051D01*
X004639Y022210D02*
X003073Y022210D01*
X003073Y022368D02*
X004735Y022368D01*
X005755Y022368D02*
X006653Y022368D01*
X006546Y022527D02*
X003073Y022527D01*
X003073Y022685D02*
X006550Y022685D01*
X006563Y022844D02*
X003073Y022844D01*
X003073Y023002D02*
X006563Y023002D01*
X006563Y023161D02*
X003073Y023161D01*
X003073Y023319D02*
X006563Y023319D01*
X006563Y023478D02*
X003073Y023478D01*
X003073Y023636D02*
X006563Y023636D01*
X006563Y023795D02*
X003073Y023795D01*
X003073Y023953D02*
X004683Y023953D01*
X004684Y023952D02*
X004731Y023905D01*
X004785Y023866D01*
X004843Y023836D01*
X004906Y023816D01*
X004972Y023806D01*
X005245Y023806D01*
X005518Y023806D01*
X005583Y023816D01*
X005646Y023836D01*
X005705Y023866D01*
X005758Y023905D01*
X005805Y023952D01*
X005844Y024006D01*
X005874Y024064D01*
X005894Y024127D01*
X005905Y024193D01*
X005905Y024226D01*
X005905Y024259D01*
X005894Y024324D01*
X005874Y024387D01*
X005844Y024446D01*
X005805Y024499D01*
X005758Y024546D01*
X005705Y024585D01*
X005646Y024615D01*
X005583Y024635D01*
X005518Y024646D01*
X005245Y024646D01*
X005245Y024226D01*
X005245Y024226D01*
X005905Y024226D01*
X005245Y024226D01*
X005245Y024226D01*
X005245Y024646D01*
X004972Y024646D01*
X004906Y024635D01*
X004843Y024615D01*
X004785Y024585D01*
X004731Y024546D01*
X004684Y024499D01*
X004645Y024446D01*
X004615Y024387D01*
X004595Y024324D01*
X004585Y024259D01*
X004585Y024226D01*
X005245Y024226D01*
X005245Y024226D01*
X005245Y023806D01*
X005245Y024226D01*
X005245Y024226D01*
X004585Y024226D01*
X004585Y024193D01*
X004595Y024127D01*
X004615Y024064D01*
X004645Y024006D01*
X004684Y023952D01*
X004600Y024112D02*
X003073Y024112D01*
X003073Y024270D02*
X004586Y024270D01*
X004637Y024429D02*
X003073Y024429D01*
X003073Y024587D02*
X004789Y024587D01*
X004700Y024903D02*
X004807Y025010D01*
X004865Y025150D01*
X004865Y025301D01*
X004807Y025441D01*
X004700Y025548D01*
X004560Y025606D01*
X003929Y025606D01*
X003789Y025548D01*
X003683Y025441D01*
X003625Y025301D01*
X003625Y025150D01*
X003683Y025010D01*
X003789Y024903D01*
X003929Y024846D01*
X004560Y024846D01*
X004700Y024903D01*
X004701Y024904D02*
X007663Y024904D01*
X007663Y024746D02*
X003073Y024746D01*
X003073Y024904D02*
X003789Y024904D01*
X003661Y025063D02*
X003073Y025063D01*
X003073Y025221D02*
X003625Y025221D01*
X003657Y025380D02*
X003073Y025380D01*
X003073Y025538D02*
X003780Y025538D01*
X003073Y026014D02*
X004681Y026014D01*
X004683Y026010D02*
X004789Y025903D01*
X004929Y025846D01*
X005560Y025846D01*
X005700Y025903D01*
X005807Y026010D01*
X005865Y026150D01*
X005865Y026301D01*
X005807Y026441D01*
X005700Y026548D01*
X005560Y026606D01*
X004929Y026606D01*
X004789Y026548D01*
X004683Y026441D01*
X004625Y026301D01*
X004625Y026150D01*
X004683Y026010D01*
X004625Y026172D02*
X003073Y026172D01*
X003073Y026331D02*
X004637Y026331D01*
X004731Y026489D02*
X003073Y026489D01*
X003073Y026648D02*
X009022Y026648D01*
X009003Y026489D02*
X005759Y026489D01*
X005852Y026331D02*
X009003Y026331D01*
X009003Y026172D02*
X005865Y026172D01*
X005808Y026014D02*
X009003Y026014D01*
X009003Y025855D02*
X005583Y025855D01*
X004906Y025855D02*
X003073Y025855D01*
X003073Y025697D02*
X009003Y025697D01*
X009003Y025538D02*
X004710Y025538D01*
X004832Y025380D02*
X007736Y025380D01*
X007736Y025221D02*
X004865Y025221D01*
X004828Y025063D02*
X007695Y025063D01*
X007716Y024587D02*
X005700Y024587D01*
X005853Y024429D02*
X006623Y024429D01*
X006538Y024270D02*
X005903Y024270D01*
X005889Y024112D02*
X006562Y024112D01*
X006563Y023953D02*
X005806Y023953D01*
X005245Y023953D02*
X005245Y023953D01*
X005245Y024112D02*
X005245Y024112D01*
X005245Y024270D02*
X005245Y024270D01*
X005245Y024429D02*
X005245Y024429D01*
X005245Y024587D02*
X005245Y024587D01*
X007023Y024429D02*
X007736Y024429D01*
X007786Y024270D02*
X007108Y024270D01*
X006380Y026691D02*
X006267Y026691D01*
X006162Y026734D01*
X006082Y026814D01*
X006038Y026919D01*
X006038Y027032D01*
X006063Y027093D01*
X006063Y028868D01*
X005176Y029755D01*
X005103Y029828D01*
X005063Y029924D01*
X005063Y030096D01*
X004929Y030096D01*
X004789Y030153D01*
X004683Y030260D01*
X004625Y030400D01*
X004625Y030551D01*
X004683Y030691D01*
X004789Y030798D01*
X004929Y030856D01*
X005560Y030856D01*
X005700Y030798D01*
X005807Y030691D01*
X005865Y030551D01*
X005865Y030400D01*
X005807Y030260D01*
X005700Y030153D01*
X005583Y030105D01*
X005583Y030083D01*
X006471Y029196D01*
X006471Y029196D01*
X006544Y029123D01*
X006583Y029027D01*
X006583Y027093D01*
X006608Y027032D01*
X006608Y026919D01*
X006565Y026814D01*
X006485Y026734D01*
X006380Y026691D01*
X006557Y026806D02*
X009088Y026806D01*
X009219Y026965D02*
X006608Y026965D01*
X006583Y027123D02*
X009377Y027123D01*
X009536Y027282D02*
X006583Y027282D01*
X006583Y027440D02*
X009694Y027440D01*
X009853Y027599D02*
X006583Y027599D01*
X006583Y027757D02*
X007389Y027757D01*
X007412Y027734D02*
X007517Y027691D01*
X007630Y027691D01*
X007735Y027734D01*
X007815Y027814D01*
X007840Y027875D01*
X008425Y028459D01*
X008485Y028484D01*
X008565Y028564D01*
X008608Y028669D01*
X008608Y028782D01*
X008565Y028887D01*
X008485Y028967D01*
X008380Y029011D01*
X008267Y029011D01*
X008162Y028967D01*
X008082Y028887D01*
X008057Y028827D01*
X007472Y028242D01*
X007412Y028217D01*
X007332Y028137D01*
X007288Y028032D01*
X007288Y027919D01*
X007332Y027814D01*
X007412Y027734D01*
X007290Y027916D02*
X006583Y027916D01*
X006583Y028074D02*
X007306Y028074D01*
X007449Y028233D02*
X006583Y028233D01*
X006583Y028391D02*
X007621Y028391D01*
X007780Y028550D02*
X006583Y028550D01*
X006583Y028708D02*
X007938Y028708D01*
X008073Y028867D02*
X006583Y028867D01*
X006583Y029025D02*
X011279Y029025D01*
X011121Y028867D02*
X008573Y028867D01*
X008608Y028708D02*
X010962Y028708D01*
X010804Y028550D02*
X008551Y028550D01*
X008357Y028391D02*
X010645Y028391D01*
X010487Y028233D02*
X008198Y028233D01*
X008040Y028074D02*
X010328Y028074D01*
X010170Y027916D02*
X007881Y027916D01*
X007758Y027757D02*
X010011Y027757D01*
X010998Y026806D02*
X019125Y026806D01*
X018967Y026965D02*
X018965Y026965D01*
X019284Y026648D02*
X010839Y026648D01*
X010681Y026489D02*
X018715Y026489D01*
X018767Y026511D02*
X018662Y026467D01*
X018582Y026387D01*
X018538Y026282D01*
X018538Y026169D01*
X018563Y026109D01*
X018563Y025071D01*
X018483Y025038D01*
X018376Y024931D01*
X018318Y024791D01*
X018318Y024160D01*
X018376Y024020D01*
X018483Y023913D01*
X018623Y023856D01*
X018774Y023856D01*
X018914Y023913D01*
X019021Y024020D01*
X019078Y024160D01*
X019078Y024412D01*
X019083Y024424D01*
X019083Y026109D01*
X019108Y026169D01*
X019108Y026282D01*
X019065Y026387D01*
X018985Y026467D01*
X018880Y026511D01*
X018767Y026511D01*
X018932Y026489D02*
X019313Y026489D01*
X019313Y026331D02*
X019088Y026331D01*
X019108Y026172D02*
X019313Y026172D01*
X019313Y026014D02*
X019083Y026014D01*
X019083Y025855D02*
X019313Y025855D01*
X019313Y025697D02*
X019083Y025697D01*
X019083Y025538D02*
X019313Y025538D01*
X019313Y025380D02*
X019083Y025380D01*
X019083Y025221D02*
X019313Y025221D01*
X019313Y025063D02*
X019083Y025063D01*
X019083Y024904D02*
X019313Y024904D01*
X019288Y024746D02*
X019083Y024746D01*
X019083Y024587D02*
X019322Y024587D01*
X019083Y024429D02*
X019659Y024429D01*
X019563Y024270D02*
X019078Y024270D01*
X019058Y024112D02*
X019563Y024112D01*
X019563Y023953D02*
X018953Y023953D01*
X018443Y023953D02*
X017953Y023953D01*
X018058Y024112D02*
X018338Y024112D01*
X018318Y024270D02*
X018078Y024270D01*
X018078Y024429D02*
X018318Y024429D01*
X018318Y024587D02*
X018078Y024587D01*
X018078Y024746D02*
X018318Y024746D01*
X018365Y024904D02*
X018032Y024904D01*
X017854Y025063D02*
X018543Y025063D01*
X018563Y025221D02*
X017446Y025221D01*
X017287Y025380D02*
X018563Y025380D01*
X018563Y025538D02*
X017129Y025538D01*
X016969Y025697D02*
X018563Y025697D01*
X018563Y025855D02*
X010373Y025855D01*
X010373Y025697D02*
X014428Y025697D01*
X014268Y025538D02*
X010373Y025538D01*
X010373Y025380D02*
X014079Y025380D01*
X013543Y025063D02*
X012854Y025063D01*
X013032Y024904D02*
X013365Y024904D01*
X013318Y024746D02*
X013078Y024746D01*
X013078Y024587D02*
X013318Y024587D01*
X013318Y024429D02*
X013083Y024429D01*
X013083Y024270D02*
X013318Y024270D01*
X013338Y024112D02*
X013083Y024112D01*
X013083Y023953D02*
X013443Y023953D01*
X013083Y023795D02*
X013813Y023795D01*
X013813Y023636D02*
X013083Y023636D01*
X013083Y023478D02*
X013813Y023478D01*
X013813Y023319D02*
X013083Y023319D01*
X013083Y023161D02*
X013813Y023161D01*
X013813Y023002D02*
X013083Y023002D01*
X013083Y022844D02*
X013813Y022844D01*
X013813Y022685D02*
X013083Y022685D01*
X013083Y022527D02*
X013788Y022527D01*
X013809Y022368D02*
X013083Y022368D01*
X013083Y022210D02*
X013971Y022210D01*
X014176Y022210D02*
X021188Y022210D01*
X021188Y022368D02*
X020935Y022368D01*
X020872Y022306D02*
X021118Y022552D01*
X021118Y022726D01*
X021118Y022900D01*
X020872Y023146D01*
X020698Y023146D01*
X020698Y022726D01*
X020698Y022726D01*
X021118Y022726D01*
X020698Y022726D01*
X020698Y022726D01*
X020698Y022306D01*
X020872Y022306D01*
X020698Y022368D02*
X020698Y022368D01*
X020698Y022527D02*
X020698Y022527D01*
X020698Y022685D02*
X020698Y022685D01*
X020698Y022844D02*
X020698Y022844D01*
X020698Y023002D02*
X020698Y023002D01*
X021016Y023002D02*
X021188Y023002D01*
X021188Y022844D02*
X021118Y022844D01*
X021118Y022685D02*
X021188Y022685D01*
X021188Y022527D02*
X021093Y022527D01*
X021188Y022051D02*
X013083Y022051D01*
X013070Y021893D02*
X021188Y021893D01*
X021188Y021734D02*
X012950Y021734D01*
X012833Y021576D02*
X021188Y021576D01*
X021188Y021417D02*
X012854Y021417D01*
X012844Y021259D02*
X019580Y021259D01*
X019538Y021100D02*
X012713Y021100D01*
X012433Y021100D02*
X004905Y021100D01*
X004905Y021101D02*
X004245Y021101D01*
X004245Y021101D01*
X004245Y021521D01*
X004518Y021521D01*
X004583Y021510D01*
X004646Y021490D01*
X004705Y021460D01*
X004758Y021421D01*
X004805Y021374D01*
X004844Y021321D01*
X004874Y021262D01*
X004894Y021199D01*
X004905Y021134D01*
X004905Y021101D01*
X004245Y021101D01*
X004245Y021101D01*
X004245Y021521D01*
X003972Y021521D01*
X003906Y021510D01*
X003843Y021490D01*
X003785Y021460D01*
X003731Y021421D01*
X003684Y021374D01*
X003645Y021321D01*
X003615Y021262D01*
X003595Y021199D01*
X003585Y021134D01*
X003585Y021101D01*
X004245Y021101D01*
X004245Y021101D01*
X004245Y020681D01*
X004518Y020681D01*
X004583Y020691D01*
X004646Y020711D01*
X004705Y020741D01*
X004758Y020780D01*
X004805Y020827D01*
X004844Y020881D01*
X004874Y020939D01*
X004894Y021002D01*
X004905Y021068D01*
X004905Y021101D01*
X004875Y021259D02*
X012303Y021259D01*
X012292Y021417D02*
X004762Y021417D01*
X004875Y020942D02*
X019563Y020942D01*
X018360Y022527D02*
X017093Y022527D01*
X017118Y022685D02*
X018318Y022685D01*
X018318Y022844D02*
X017118Y022844D01*
X017253Y023002D02*
X018438Y023002D01*
X017355Y023161D02*
X019610Y023161D01*
X019538Y023319D02*
X017343Y023319D01*
X017333Y023478D02*
X019563Y023478D01*
X019563Y023636D02*
X017333Y023636D01*
X017333Y023795D02*
X019563Y023795D01*
X020083Y023795D02*
X020285Y023795D01*
X020278Y023802D02*
X020524Y023556D01*
X020698Y023556D01*
X020698Y023976D01*
X020698Y024396D01*
X020524Y024396D01*
X020278Y024150D01*
X020278Y023976D01*
X020698Y023976D01*
X020698Y023976D01*
X020698Y023976D01*
X020278Y023976D01*
X020278Y023802D01*
X020278Y023953D02*
X020083Y023953D01*
X020083Y024112D02*
X020278Y024112D01*
X020236Y024270D02*
X020399Y024270D01*
X020394Y024429D02*
X022409Y024429D01*
X022567Y024587D02*
X020553Y024587D01*
X020711Y024746D02*
X022726Y024746D01*
X022884Y024904D02*
X020870Y024904D01*
X021028Y025063D02*
X023043Y025063D01*
X023201Y025221D02*
X021187Y025221D01*
X021345Y025380D02*
X023360Y025380D01*
X023483Y025538D02*
X021504Y025538D01*
X021662Y025697D02*
X023788Y025697D01*
X023819Y025855D02*
X021821Y025855D01*
X021979Y026014D02*
X028569Y026014D01*
X028569Y026157D02*
X028569Y025820D01*
X028581Y025742D01*
X028606Y025666D01*
X028642Y025595D01*
X028688Y025531D01*
X028745Y025475D01*
X028809Y025428D01*
X028880Y025392D01*
X028955Y025368D01*
X029034Y025355D01*
X029045Y025355D01*
X029045Y026157D01*
X028569Y026157D01*
X028569Y026213D02*
X029045Y026213D01*
X029045Y026157D01*
X029102Y026157D01*
X029102Y026213D01*
X029578Y026213D01*
X029578Y026549D01*
X029566Y026628D01*
X029541Y026703D01*
X029505Y026774D01*
X029458Y026838D01*
X029402Y026895D01*
X029338Y026941D01*
X029267Y026977D01*
X029192Y027002D01*
X029113Y027014D01*
X029102Y027014D01*
X029102Y026213D01*
X029045Y026213D01*
X029045Y027014D01*
X029034Y027014D01*
X028955Y027002D01*
X028880Y026977D01*
X028809Y026941D01*
X028745Y026895D01*
X028688Y026838D01*
X028642Y026774D01*
X028606Y026703D01*
X028581Y026628D01*
X028569Y026549D01*
X028569Y026213D01*
X028569Y026331D02*
X022296Y026331D01*
X022455Y026489D02*
X028569Y026489D01*
X028587Y026648D02*
X022613Y026648D01*
X022772Y026806D02*
X028665Y026806D01*
X028855Y026965D02*
X022930Y026965D01*
X023089Y027123D02*
X033693Y027123D01*
X033693Y027076D02*
X033827Y026752D01*
X034075Y026505D01*
X034398Y026371D01*
X034748Y026371D01*
X035072Y026505D01*
X035319Y026752D01*
X035453Y027076D01*
X035453Y027426D01*
X035319Y027749D01*
X035072Y027997D01*
X034748Y028131D01*
X034398Y028131D01*
X034075Y027997D01*
X033827Y027749D01*
X033693Y027426D01*
X033693Y027076D01*
X033739Y026965D02*
X029292Y026965D01*
X029102Y026965D02*
X029045Y026965D01*
X029045Y026806D02*
X029102Y026806D01*
X029102Y026648D02*
X029045Y026648D01*
X029045Y026489D02*
X029102Y026489D01*
X029102Y026331D02*
X029045Y026331D01*
X029045Y026172D02*
X022138Y026172D01*
X021719Y026489D02*
X019833Y026489D01*
X019833Y026331D02*
X021561Y026331D01*
X021402Y026172D02*
X019833Y026172D01*
X019833Y026014D02*
X021244Y026014D01*
X021085Y025855D02*
X019833Y025855D01*
X019833Y025697D02*
X020927Y025697D01*
X020768Y025538D02*
X019833Y025538D01*
X019833Y025380D02*
X020610Y025380D01*
X020451Y025221D02*
X019833Y025221D01*
X019833Y025063D02*
X020293Y025063D01*
X020134Y024904D02*
X019833Y024904D01*
X019858Y024746D02*
X019976Y024746D01*
X020698Y024396D02*
X020698Y023976D01*
X020698Y023976D01*
X021118Y023976D01*
X021118Y024150D01*
X020872Y024396D01*
X020698Y024396D01*
X020698Y024270D02*
X020698Y024270D01*
X020698Y024112D02*
X020698Y024112D01*
X020698Y023976D02*
X020698Y023976D01*
X020698Y023556D01*
X020872Y023556D01*
X021118Y023802D01*
X021118Y023976D01*
X020698Y023976D01*
X020698Y023953D02*
X020698Y023953D01*
X020698Y023795D02*
X020698Y023795D01*
X020698Y023636D02*
X020698Y023636D01*
X020444Y023636D02*
X020083Y023636D01*
X020953Y023636D02*
X021616Y023636D01*
X021775Y023795D02*
X021111Y023795D01*
X021118Y023953D02*
X021933Y023953D01*
X022092Y024112D02*
X021118Y024112D01*
X020998Y024270D02*
X022250Y024270D01*
X023953Y025221D02*
X024210Y025221D01*
X024052Y025380D02*
X023983Y025380D01*
X024470Y025697D02*
X028596Y025697D01*
X028569Y025855D02*
X024328Y025855D01*
X024629Y025538D02*
X028683Y025538D01*
X028918Y025380D02*
X024787Y025380D01*
X024946Y025221D02*
X034826Y025221D01*
X034668Y025063D02*
X025069Y025063D01*
X025083Y024904D02*
X034509Y024904D01*
X034351Y024746D02*
X025083Y024746D01*
X022353Y027123D02*
X021078Y027123D01*
X021078Y027133D02*
X020856Y027356D01*
X020541Y027356D01*
X020318Y027133D01*
X020318Y026818D01*
X020541Y026596D01*
X020856Y026596D01*
X021078Y026818D01*
X021078Y027133D01*
X021078Y026965D02*
X022195Y026965D01*
X022036Y026806D02*
X021066Y026806D01*
X020908Y026648D02*
X021878Y026648D01*
X022512Y027282D02*
X020930Y027282D01*
X020467Y027282D02*
X019385Y027282D01*
X019227Y027440D02*
X022670Y027440D01*
X022816Y027599D02*
X019078Y027599D01*
X019078Y027757D02*
X023008Y027757D01*
X023138Y027757D02*
X030578Y027757D01*
X030545Y027790D02*
X030638Y027697D01*
X030758Y027648D01*
X030889Y027648D01*
X031009Y027697D01*
X031102Y027790D01*
X031152Y027910D01*
X031152Y028041D01*
X031102Y028161D01*
X031083Y028180D01*
X031083Y031118D01*
X031156Y031190D01*
X031258Y031148D01*
X031389Y031148D01*
X031509Y031197D01*
X031602Y031290D01*
X031652Y031410D01*
X031652Y031541D01*
X031602Y031661D01*
X031509Y031754D01*
X031389Y031804D01*
X031258Y031804D01*
X031138Y031754D01*
X031119Y031736D01*
X031022Y031736D01*
X030926Y031696D01*
X030853Y031623D01*
X030603Y031373D01*
X030563Y031277D01*
X030563Y028180D01*
X030545Y028161D01*
X030495Y028041D01*
X030495Y027910D01*
X030545Y027790D01*
X030495Y027916D02*
X019027Y027916D01*
X018826Y028074D02*
X030509Y028074D01*
X030563Y028233D02*
X012424Y028233D01*
X012483Y028038D02*
X012376Y027931D01*
X012318Y027791D01*
X012318Y027160D01*
X012376Y027020D01*
X012483Y026913D01*
X012623Y026856D01*
X012774Y026856D01*
X012914Y026913D01*
X013021Y027020D01*
X013078Y027160D01*
X013078Y027791D01*
X013021Y027931D01*
X012914Y028038D01*
X012774Y028096D01*
X012623Y028096D01*
X012483Y028038D01*
X012571Y028074D02*
X012266Y028074D01*
X012370Y027916D02*
X012107Y027916D01*
X011949Y027757D02*
X012318Y027757D01*
X012318Y027599D02*
X011790Y027599D01*
X011632Y027440D02*
X012318Y027440D01*
X012318Y027282D02*
X011473Y027282D01*
X011315Y027123D02*
X012334Y027123D01*
X012432Y026965D02*
X011156Y026965D01*
X010522Y026331D02*
X018558Y026331D01*
X018538Y026172D02*
X010373Y026172D01*
X010373Y026014D02*
X018563Y026014D01*
X018432Y026965D02*
X017965Y026965D01*
X017914Y026913D02*
X018021Y027020D01*
X018078Y027160D01*
X018078Y027791D01*
X018021Y027931D01*
X017914Y028038D01*
X017774Y028096D01*
X017623Y028096D01*
X017483Y028038D01*
X017376Y027931D01*
X017318Y027791D01*
X017318Y027160D01*
X017376Y027020D01*
X017483Y026913D01*
X017623Y026856D01*
X017774Y026856D01*
X017914Y026913D01*
X018063Y027123D02*
X018334Y027123D01*
X018318Y027282D02*
X018078Y027282D01*
X018078Y027440D02*
X018318Y027440D01*
X018318Y027599D02*
X018078Y027599D01*
X018078Y027757D02*
X018318Y027757D01*
X018370Y027916D02*
X018027Y027916D01*
X017826Y028074D02*
X018571Y028074D01*
X017571Y028074D02*
X016826Y028074D01*
X016774Y028096D02*
X016623Y028096D01*
X016483Y028038D01*
X016376Y027931D01*
X016318Y027791D01*
X016318Y027160D01*
X016376Y027020D01*
X016483Y026913D01*
X016623Y026856D01*
X016774Y026856D01*
X016914Y026913D01*
X017021Y027020D01*
X017078Y027160D01*
X017078Y027791D01*
X017021Y027931D01*
X016914Y028038D01*
X016774Y028096D01*
X016571Y028074D02*
X015919Y028074D01*
X015919Y028075D02*
X015860Y028105D01*
X015797Y028125D01*
X015731Y028136D01*
X015698Y028136D01*
X015665Y028136D01*
X015600Y028125D01*
X015537Y028105D01*
X015478Y028075D01*
X015425Y028036D01*
X015378Y027989D01*
X015339Y027936D01*
X015309Y027877D01*
X015289Y027814D01*
X015278Y027749D01*
X015278Y027476D01*
X015698Y027476D01*
X015698Y028136D01*
X015698Y027476D01*
X015698Y027476D01*
X015698Y027476D01*
X015278Y027476D01*
X015278Y027203D01*
X015289Y027137D01*
X015309Y027074D01*
X015339Y027016D01*
X015378Y026962D01*
X015425Y026915D01*
X015478Y026876D01*
X015537Y026846D01*
X015600Y026826D01*
X015665Y026816D01*
X015698Y026816D01*
X015698Y027476D01*
X015698Y027476D01*
X016118Y027476D01*
X016118Y027749D01*
X016108Y027814D01*
X016088Y027877D01*
X016058Y027936D01*
X016019Y027989D01*
X015972Y028036D01*
X015919Y028075D01*
X016068Y027916D02*
X016370Y027916D01*
X016318Y027757D02*
X016117Y027757D01*
X016118Y027599D02*
X016318Y027599D01*
X016318Y027440D02*
X016118Y027440D01*
X016118Y027476D02*
X015698Y027476D01*
X015698Y027476D01*
X015698Y026816D01*
X015731Y026816D01*
X015797Y026826D01*
X015860Y026846D01*
X015919Y026876D01*
X015972Y026915D01*
X016019Y026962D01*
X016058Y027016D01*
X016088Y027074D01*
X016108Y027137D01*
X016118Y027203D01*
X016118Y027476D01*
X016118Y027282D02*
X016318Y027282D01*
X016334Y027123D02*
X016103Y027123D01*
X016021Y026965D02*
X016432Y026965D01*
X016965Y026965D02*
X017432Y026965D01*
X017334Y027123D02*
X017063Y027123D01*
X017078Y027282D02*
X017318Y027282D01*
X017318Y027440D02*
X017078Y027440D01*
X017078Y027599D02*
X017318Y027599D01*
X017318Y027757D02*
X017078Y027757D01*
X017027Y027916D02*
X017370Y027916D01*
X015698Y027916D02*
X015698Y027916D01*
X015698Y028074D02*
X015698Y028074D01*
X015477Y028074D02*
X014826Y028074D01*
X014774Y028096D02*
X014623Y028096D01*
X014483Y028038D01*
X014376Y027931D01*
X014318Y027791D01*
X014318Y027160D01*
X014376Y027020D01*
X014483Y026913D01*
X014623Y026856D01*
X014774Y026856D01*
X014914Y026913D01*
X015021Y027020D01*
X015078Y027160D01*
X015078Y027791D01*
X015021Y027931D01*
X014914Y028038D01*
X014774Y028096D01*
X014571Y028074D02*
X013826Y028074D01*
X013774Y028096D02*
X013623Y028096D01*
X013483Y028038D01*
X013376Y027931D01*
X013318Y027791D01*
X013318Y027160D01*
X013376Y027020D01*
X013483Y026913D01*
X013623Y026856D01*
X013774Y026856D01*
X013914Y026913D01*
X014021Y027020D01*
X014078Y027160D01*
X014078Y027791D01*
X014021Y027931D01*
X013914Y028038D01*
X013774Y028096D01*
X013571Y028074D02*
X012826Y028074D01*
X013027Y027916D02*
X013370Y027916D01*
X013318Y027757D02*
X013078Y027757D01*
X013078Y027599D02*
X013318Y027599D01*
X013318Y027440D02*
X013078Y027440D01*
X013078Y027282D02*
X013318Y027282D01*
X013334Y027123D02*
X013063Y027123D01*
X012965Y026965D02*
X013432Y026965D01*
X013965Y026965D02*
X014432Y026965D01*
X014334Y027123D02*
X014063Y027123D01*
X014078Y027282D02*
X014318Y027282D01*
X014318Y027440D02*
X014078Y027440D01*
X014078Y027599D02*
X014318Y027599D01*
X014318Y027757D02*
X014078Y027757D01*
X014027Y027916D02*
X014370Y027916D01*
X015027Y027916D02*
X015329Y027916D01*
X015280Y027757D02*
X015078Y027757D01*
X015078Y027599D02*
X015278Y027599D01*
X015278Y027440D02*
X015078Y027440D01*
X015078Y027282D02*
X015278Y027282D01*
X015293Y027123D02*
X015063Y027123D01*
X014965Y026965D02*
X015376Y026965D01*
X015698Y026965D02*
X015698Y026965D01*
X015698Y027123D02*
X015698Y027123D01*
X015698Y027282D02*
X015698Y027282D01*
X015698Y027440D02*
X015698Y027440D01*
X015698Y027599D02*
X015698Y027599D01*
X015698Y027757D02*
X015698Y027757D01*
X013107Y029025D02*
X030563Y029025D01*
X030563Y028867D02*
X013041Y028867D01*
X012900Y028708D02*
X030563Y028708D01*
X030563Y028550D02*
X012741Y028550D01*
X012583Y028391D02*
X030563Y028391D01*
X031083Y028391D02*
X031688Y028391D01*
X031688Y028233D02*
X031083Y028233D01*
X031138Y028074D02*
X031634Y028074D01*
X031620Y028041D02*
X031620Y027910D01*
X031670Y027790D01*
X031763Y027697D01*
X031883Y027648D01*
X032014Y027648D01*
X032134Y027697D01*
X032227Y027790D01*
X032277Y027910D01*
X032277Y028041D01*
X032227Y028161D01*
X032208Y028180D01*
X032208Y029986D01*
X032478Y030256D01*
X032478Y030695D01*
X032168Y031006D01*
X031729Y031006D01*
X031418Y030695D01*
X031418Y030256D01*
X031688Y029986D01*
X031688Y028180D01*
X031670Y028161D01*
X031620Y028041D01*
X031620Y027916D02*
X031152Y027916D01*
X031069Y027757D02*
X031703Y027757D01*
X032194Y027757D02*
X033835Y027757D01*
X033765Y027599D02*
X023331Y027599D01*
X023358Y027440D02*
X033699Y027440D01*
X033693Y027282D02*
X023283Y027282D01*
X020489Y026648D02*
X019833Y026648D01*
X019821Y026806D02*
X020330Y026806D01*
X020318Y026965D02*
X019702Y026965D01*
X019544Y027123D02*
X020318Y027123D01*
X016869Y025063D02*
X016854Y025063D01*
X017333Y024112D02*
X017338Y024112D01*
X017333Y023953D02*
X017443Y023953D01*
X016381Y023002D02*
X015593Y023002D01*
X015434Y022844D02*
X016278Y022844D01*
X016278Y022685D02*
X015276Y022685D01*
X015117Y022527D02*
X016303Y022527D01*
X016462Y022368D02*
X014878Y022368D01*
X014518Y022368D02*
X014337Y022368D01*
X014358Y022527D02*
X014360Y022527D01*
X014333Y023002D02*
X014438Y023002D01*
X014333Y023161D02*
X015016Y023161D01*
X015174Y023319D02*
X014333Y023319D01*
X014333Y023478D02*
X015333Y023478D01*
X015438Y023636D02*
X014333Y023636D01*
X012563Y022844D02*
X012368Y022844D01*
X012526Y022685D02*
X012563Y022685D01*
X013618Y020625D02*
X013818Y020625D01*
X013818Y020466D02*
X013618Y020466D01*
X013618Y020308D02*
X013829Y020308D01*
X013987Y020149D02*
X013466Y020149D01*
X008969Y020783D02*
X004761Y020783D01*
X004894Y020466D02*
X003073Y020466D01*
X003073Y020308D02*
X004679Y020308D01*
X004625Y020149D02*
X003073Y020149D01*
X003073Y019991D02*
X004639Y019991D01*
X004245Y020681D02*
X003972Y020681D01*
X003906Y020691D01*
X003843Y020711D01*
X003785Y020741D01*
X003731Y020780D01*
X003684Y020827D01*
X003645Y020881D01*
X003615Y020939D01*
X003595Y021002D01*
X003585Y021068D01*
X003585Y021101D01*
X004245Y021101D01*
X004245Y021101D01*
X004245Y020681D01*
X004245Y020783D02*
X004245Y020783D01*
X004245Y020942D02*
X004245Y020942D01*
X004245Y021100D02*
X004245Y021100D01*
X004245Y021259D02*
X004245Y021259D01*
X004245Y021417D02*
X004245Y021417D01*
X003727Y021417D02*
X003073Y021417D01*
X003073Y021259D02*
X003614Y021259D01*
X003585Y021100D02*
X003073Y021100D01*
X003073Y020942D02*
X003615Y020942D01*
X003728Y020783D02*
X003073Y020783D01*
X003073Y020625D02*
X008818Y020625D01*
X006090Y026806D02*
X003073Y026806D01*
X003073Y026965D02*
X006038Y026965D01*
X006063Y027123D02*
X003073Y027123D01*
X003073Y027282D02*
X006063Y027282D01*
X006063Y027440D02*
X003073Y027440D01*
X003073Y027599D02*
X006063Y027599D01*
X006063Y027757D02*
X003073Y027757D01*
X003073Y027916D02*
X006063Y027916D01*
X006063Y028074D02*
X003073Y028074D01*
X003073Y028233D02*
X004710Y028233D01*
X004683Y028260D02*
X004789Y028153D01*
X004929Y028096D01*
X005560Y028096D01*
X005700Y028153D01*
X005807Y028260D01*
X005865Y028400D01*
X005865Y028551D01*
X005807Y028691D01*
X005700Y028798D01*
X005560Y028856D01*
X004929Y028856D01*
X004789Y028798D01*
X004683Y028691D01*
X004625Y028551D01*
X004625Y028400D01*
X004683Y028260D01*
X004628Y028391D02*
X003073Y028391D01*
X003073Y028550D02*
X004625Y028550D01*
X004700Y028708D02*
X003073Y028708D01*
X003073Y028867D02*
X006063Y028867D01*
X006063Y028708D02*
X005790Y028708D01*
X005865Y028550D02*
X006063Y028550D01*
X006063Y028391D02*
X005861Y028391D01*
X005779Y028233D02*
X006063Y028233D01*
X005906Y029025D02*
X003073Y029025D01*
X003073Y029184D02*
X003759Y029184D01*
X003789Y029153D02*
X003929Y029096D01*
X004560Y029096D01*
X004700Y029153D01*
X004807Y029260D01*
X004865Y029400D01*
X004865Y029551D01*
X004807Y029691D01*
X004700Y029798D01*
X004560Y029856D01*
X003929Y029856D01*
X003789Y029798D01*
X003683Y029691D01*
X003625Y029551D01*
X003625Y029400D01*
X003683Y029260D01*
X003789Y029153D01*
X003649Y029342D02*
X003073Y029342D01*
X003073Y029501D02*
X003625Y029501D01*
X003669Y029659D02*
X003073Y029659D01*
X003073Y029818D02*
X003837Y029818D01*
X004652Y029818D02*
X005114Y029818D01*
X005063Y029976D02*
X003073Y029976D01*
X003073Y030135D02*
X004835Y030135D01*
X004669Y030293D02*
X003073Y030293D01*
X003073Y030452D02*
X004625Y030452D01*
X004649Y030610D02*
X003073Y030610D01*
X003073Y030769D02*
X004760Y030769D01*
X005729Y030769D02*
X011242Y030769D01*
X011168Y030695D02*
X011168Y030256D01*
X011479Y029946D01*
X011918Y029946D01*
X012228Y030256D01*
X012228Y030695D01*
X011918Y031006D01*
X011479Y031006D01*
X011168Y030695D01*
X011168Y030610D02*
X010301Y030610D01*
X010301Y030681D02*
X010219Y030763D01*
X009158Y030763D01*
X009076Y030681D01*
X009076Y029620D01*
X009158Y029538D01*
X010219Y029538D01*
X010301Y029620D01*
X010301Y030681D01*
X010301Y030452D02*
X011168Y030452D01*
X011168Y030293D02*
X010301Y030293D01*
X010301Y030135D02*
X011290Y030135D01*
X011448Y029976D02*
X010301Y029976D01*
X010301Y029818D02*
X012088Y029818D01*
X011948Y029976D02*
X015392Y029976D01*
X015462Y029906D02*
X015128Y030240D01*
X015128Y030426D01*
X015648Y030426D01*
X015648Y030526D01*
X015128Y030526D01*
X015128Y030712D01*
X015462Y031046D01*
X015648Y031046D01*
X015648Y030526D01*
X015748Y030526D01*
X015748Y031046D01*
X015935Y031046D01*
X016268Y030712D01*
X016268Y030526D01*
X015748Y030526D01*
X015748Y030426D01*
X015748Y029906D01*
X015935Y029906D01*
X016268Y030240D01*
X016268Y030426D01*
X015748Y030426D01*
X015648Y030426D01*
X015648Y029906D01*
X015462Y029906D01*
X015648Y029976D02*
X015748Y029976D01*
X015748Y030135D02*
X015648Y030135D01*
X015648Y030293D02*
X015748Y030293D01*
X015748Y030452D02*
X017638Y030452D01*
X017638Y030339D02*
X017743Y030088D01*
X017935Y029895D01*
X018187Y029791D01*
X018460Y029791D01*
X018711Y029895D01*
X018904Y030088D01*
X019008Y030339D01*
X019008Y032758D01*
X019131Y032636D01*
X019516Y032636D01*
X019788Y032908D01*
X019788Y033293D01*
X019516Y033565D01*
X019131Y033565D01*
X018948Y033383D01*
X018904Y033489D01*
X018711Y033681D01*
X018460Y033786D01*
X018187Y033786D01*
X017935Y033681D01*
X017743Y033489D01*
X017638Y033237D01*
X017638Y030339D01*
X017658Y030293D02*
X016268Y030293D01*
X016164Y030135D02*
X017723Y030135D01*
X017854Y029976D02*
X016005Y029976D01*
X015648Y030452D02*
X012228Y030452D01*
X012228Y030610D02*
X015128Y030610D01*
X015185Y030769D02*
X012155Y030769D01*
X011996Y030927D02*
X015344Y030927D01*
X015648Y030927D02*
X015748Y030927D01*
X015748Y030769D02*
X015648Y030769D01*
X015648Y030610D02*
X015748Y030610D01*
X016053Y030927D02*
X017638Y030927D01*
X017638Y030769D02*
X016211Y030769D01*
X016268Y030610D02*
X017638Y030610D01*
X018122Y029818D02*
X012809Y029818D01*
X012984Y029659D02*
X030563Y029659D01*
X030563Y029501D02*
X013076Y029501D01*
X013133Y029342D02*
X030563Y029342D01*
X030563Y029184D02*
X013133Y029184D01*
X012107Y030135D02*
X015233Y030135D01*
X015128Y030293D02*
X012228Y030293D01*
X011913Y029659D02*
X010301Y029659D01*
X009076Y029659D02*
X008961Y029659D01*
X008961Y029620D02*
X008961Y030681D01*
X008879Y030763D01*
X007818Y030763D01*
X007736Y030681D01*
X007736Y029620D01*
X007818Y029538D01*
X008879Y029538D01*
X008961Y029620D01*
X008961Y029818D02*
X009076Y029818D01*
X009076Y029976D02*
X008961Y029976D01*
X008961Y030135D02*
X009076Y030135D01*
X009076Y030293D02*
X008961Y030293D01*
X008961Y030452D02*
X009076Y030452D01*
X009076Y030610D02*
X008961Y030610D01*
X007736Y030610D02*
X005840Y030610D01*
X005865Y030452D02*
X007736Y030452D01*
X007736Y030293D02*
X005820Y030293D01*
X005655Y030135D02*
X007736Y030135D01*
X007736Y029976D02*
X005691Y029976D01*
X005849Y029818D02*
X007736Y029818D01*
X007736Y029659D02*
X006008Y029659D01*
X006166Y029501D02*
X011755Y029501D01*
X011596Y029342D02*
X006325Y029342D01*
X006483Y029184D02*
X011438Y029184D01*
X011400Y030927D02*
X003073Y030927D01*
X003073Y031086D02*
X017638Y031086D01*
X017638Y031244D02*
X003073Y031244D01*
X003073Y031403D02*
X017638Y031403D01*
X017638Y031561D02*
X003073Y031561D01*
X003073Y031720D02*
X017638Y031720D01*
X017638Y031878D02*
X003073Y031878D01*
X003073Y032037D02*
X017638Y032037D01*
X017638Y032195D02*
X003073Y032195D01*
X003073Y032354D02*
X017638Y032354D01*
X017638Y032512D02*
X009139Y032512D01*
X009134Y032507D02*
X009167Y032540D01*
X009191Y032581D01*
X009203Y032627D01*
X009203Y032947D01*
X008727Y032947D01*
X008727Y033004D01*
X009203Y033004D01*
X009203Y033324D01*
X009191Y033370D01*
X009167Y033411D01*
X009134Y033444D01*
X009093Y033468D01*
X009047Y033480D01*
X008727Y033480D01*
X008727Y033004D01*
X008670Y033004D01*
X008670Y032947D01*
X008727Y032947D01*
X008727Y032471D01*
X009047Y032471D01*
X009093Y032483D01*
X009134Y032507D01*
X009203Y032671D02*
X017638Y032671D01*
X017638Y032829D02*
X009203Y032829D01*
X009203Y033146D02*
X017638Y033146D01*
X017638Y032988D02*
X008727Y032988D01*
X008670Y032988D02*
X008163Y032988D01*
X008194Y033004D02*
X008670Y033004D01*
X008670Y033480D01*
X008350Y033480D01*
X008304Y033468D01*
X008263Y033444D01*
X008230Y033411D01*
X008206Y033370D01*
X008194Y033324D01*
X008194Y033004D01*
X008194Y032947D02*
X008194Y032627D01*
X008206Y032581D01*
X008230Y032540D01*
X008263Y032507D01*
X008304Y032483D01*
X008350Y032471D01*
X008670Y032471D01*
X008670Y032947D01*
X008194Y032947D01*
X008194Y032829D02*
X008163Y032829D01*
X008163Y032783D02*
X007891Y032511D01*
X007506Y032511D01*
X007234Y032783D01*
X007234Y033168D01*
X007506Y033440D01*
X007891Y033440D01*
X008163Y033168D01*
X008163Y032783D01*
X008194Y032671D02*
X008051Y032671D01*
X007892Y032512D02*
X008258Y032512D01*
X008670Y032512D02*
X008727Y032512D01*
X008727Y032671D02*
X008670Y032671D01*
X008670Y032829D02*
X008727Y032829D01*
X008727Y033146D02*
X008670Y033146D01*
X008670Y033305D02*
X008727Y033305D01*
X008727Y033463D02*
X008670Y033463D01*
X008295Y033463D02*
X005447Y033463D01*
X005385Y033401D02*
X005648Y033664D01*
X005648Y033841D01*
X005208Y033841D01*
X005208Y033401D01*
X005385Y033401D01*
X005368Y033261D02*
X005029Y033261D01*
X004788Y033020D01*
X004788Y032681D01*
X005029Y032441D01*
X005368Y032441D01*
X005608Y032681D01*
X005608Y033020D01*
X005368Y033261D01*
X005483Y033146D02*
X007234Y033146D01*
X007234Y032988D02*
X005608Y032988D01*
X005608Y032829D02*
X007234Y032829D01*
X007346Y032671D02*
X005598Y032671D01*
X005440Y032512D02*
X007505Y032512D01*
X008163Y033146D02*
X008194Y033146D01*
X008194Y033305D02*
X008027Y033305D01*
X007370Y033305D02*
X003073Y033305D01*
X003073Y033463D02*
X004006Y033463D01*
X004029Y033441D02*
X004368Y033441D01*
X004608Y033681D01*
X004608Y034020D01*
X004368Y034261D01*
X004029Y034261D01*
X003788Y034020D01*
X003788Y033681D01*
X004029Y033441D01*
X004029Y033261D02*
X003788Y033020D01*
X003788Y032681D01*
X004029Y032441D01*
X004368Y032441D01*
X004608Y032681D01*
X004608Y033020D01*
X004368Y033261D01*
X004029Y033261D01*
X003914Y033146D02*
X003073Y033146D01*
X003073Y032988D02*
X003788Y032988D01*
X003788Y032829D02*
X003073Y032829D01*
X003073Y032671D02*
X003799Y032671D01*
X003957Y032512D02*
X003073Y032512D01*
X003073Y033622D02*
X003848Y033622D01*
X003788Y033780D02*
X003073Y033780D01*
X003073Y033939D02*
X003788Y033939D01*
X003865Y034097D02*
X003073Y034097D01*
X003103Y034256D02*
X004024Y034256D01*
X004373Y034256D02*
X004967Y034256D01*
X005012Y034301D02*
X004748Y034037D01*
X004748Y033861D01*
X005188Y033861D01*
X005188Y033841D01*
X004748Y033841D01*
X004748Y033664D01*
X005012Y033401D01*
X005188Y033401D01*
X005188Y033841D01*
X005208Y033841D01*
X005208Y033861D01*
X005188Y033861D01*
X005188Y034301D01*
X005012Y034301D01*
X005188Y034256D02*
X005208Y034256D01*
X005208Y034301D02*
X005385Y034301D01*
X005648Y034037D01*
X005648Y033861D01*
X005208Y033861D01*
X005208Y034301D01*
X005188Y034097D02*
X005208Y034097D01*
X005208Y033939D02*
X005188Y033939D01*
X005188Y033780D02*
X005208Y033780D01*
X005208Y033622D02*
X005188Y033622D01*
X005188Y033463D02*
X005208Y033463D01*
X004949Y033463D02*
X004391Y033463D01*
X004549Y033622D02*
X004791Y033622D01*
X004748Y033780D02*
X004608Y033780D01*
X004608Y033939D02*
X004748Y033939D01*
X004809Y034097D02*
X004532Y034097D01*
X005430Y034256D02*
X011169Y034256D01*
X011168Y034414D02*
X003262Y034414D01*
X003420Y034573D02*
X011168Y034573D01*
X011204Y034731D02*
X003579Y034731D01*
X003737Y034890D02*
X011363Y034890D01*
X012034Y034890D02*
X015306Y034890D01*
X015148Y034731D02*
X012192Y034731D01*
X012228Y034573D02*
X015128Y034573D01*
X015271Y034097D02*
X012069Y034097D01*
X011327Y034097D02*
X005588Y034097D01*
X005648Y033939D02*
X015429Y033939D01*
X015648Y033939D02*
X015748Y033939D01*
X015748Y034097D02*
X015648Y034097D01*
X015648Y034256D02*
X015748Y034256D01*
X015748Y034414D02*
X015648Y034414D01*
X015968Y033939D02*
X035679Y033939D01*
X035898Y033939D02*
X035998Y033939D01*
X035998Y034097D02*
X035898Y034097D01*
X035898Y034256D02*
X035998Y034256D01*
X035998Y034414D02*
X035898Y034414D01*
X035521Y034097D02*
X032319Y034097D01*
X032478Y034573D02*
X035378Y034573D01*
X035398Y034731D02*
X032442Y034731D01*
X032284Y034890D02*
X035556Y034890D01*
X036340Y034890D02*
X048659Y034890D01*
X048818Y034731D02*
X036499Y034731D01*
X036518Y034573D02*
X048976Y034573D01*
X049135Y034414D02*
X036518Y034414D01*
X036518Y034256D02*
X047024Y034256D01*
X047029Y034261D02*
X046788Y034020D01*
X046788Y033681D01*
X047029Y033441D01*
X047368Y033441D01*
X047608Y033681D01*
X047608Y034020D01*
X047368Y034261D01*
X047029Y034261D01*
X046865Y034097D02*
X036376Y034097D01*
X036218Y033939D02*
X046788Y033939D01*
X046788Y033780D02*
X018473Y033780D01*
X018174Y033780D02*
X005648Y033780D01*
X005606Y033622D02*
X017876Y033622D01*
X017732Y033463D02*
X009101Y033463D01*
X009203Y033305D02*
X017666Y033305D01*
X018771Y033622D02*
X046848Y033622D01*
X047006Y033463D02*
X021824Y033463D01*
X021828Y033449D02*
X021816Y033495D01*
X021792Y033536D01*
X021759Y033569D01*
X021718Y033593D01*
X021672Y033605D01*
X021352Y033605D01*
X021352Y033129D01*
X021828Y033129D01*
X021828Y033449D01*
X021828Y033305D02*
X049323Y033305D01*
X049323Y033463D02*
X048391Y033463D01*
X048368Y033441D02*
X048608Y033681D01*
X048608Y034020D01*
X048368Y034261D01*
X048029Y034261D01*
X047788Y034020D01*
X047788Y033681D01*
X048029Y033441D01*
X048368Y033441D01*
X048368Y033261D02*
X048029Y033261D01*
X047788Y033020D01*
X047788Y032681D01*
X048029Y032441D01*
X048368Y032441D01*
X048608Y032681D01*
X048608Y033020D01*
X048368Y033261D01*
X048483Y033146D02*
X049323Y033146D01*
X049323Y032988D02*
X048608Y032988D01*
X048608Y032829D02*
X049323Y032829D01*
X049323Y032671D02*
X048598Y032671D01*
X048440Y032512D02*
X049323Y032512D01*
X049323Y032354D02*
X044572Y032354D01*
X044572Y032302D02*
X044477Y032072D01*
X044302Y031897D01*
X044072Y031802D01*
X043824Y031802D01*
X043595Y031897D01*
X043420Y032072D01*
X043325Y032302D01*
X043325Y032550D01*
X043420Y032779D01*
X043595Y032954D01*
X043824Y033049D01*
X044072Y033049D01*
X044302Y032954D01*
X044477Y032779D01*
X044572Y032550D01*
X044572Y032302D01*
X044528Y032195D02*
X049323Y032195D01*
X049323Y032037D02*
X044442Y032037D01*
X044257Y031878D02*
X049323Y031878D01*
X049323Y031720D02*
X038854Y031720D01*
X038860Y031717D02*
X038755Y031761D01*
X038642Y031761D01*
X038581Y031736D01*
X034277Y031736D01*
X034259Y031754D01*
X034139Y031804D01*
X034008Y031804D01*
X033888Y031754D01*
X033795Y031661D01*
X033745Y031541D01*
X033745Y031410D01*
X033795Y031290D01*
X033888Y031197D01*
X034008Y031148D01*
X034139Y031148D01*
X034259Y031197D01*
X034277Y031216D01*
X038581Y031216D01*
X038642Y031191D01*
X038755Y031191D01*
X038860Y031234D01*
X038940Y031314D01*
X038983Y031419D01*
X038983Y031532D01*
X038940Y031637D01*
X038860Y031717D01*
X038971Y031561D02*
X049323Y031561D01*
X049323Y031403D02*
X038977Y031403D01*
X038870Y031244D02*
X049323Y031244D01*
X049323Y031086D02*
X031083Y031086D01*
X031083Y030927D02*
X031650Y030927D01*
X031492Y030769D02*
X031083Y030769D01*
X031083Y030610D02*
X031418Y030610D01*
X031418Y030452D02*
X031083Y030452D01*
X031083Y030293D02*
X031418Y030293D01*
X031540Y030135D02*
X031083Y030135D01*
X031083Y029976D02*
X031688Y029976D01*
X031688Y029818D02*
X031083Y029818D01*
X031083Y029659D02*
X031688Y029659D01*
X031688Y029501D02*
X031083Y029501D01*
X031083Y029342D02*
X031688Y029342D01*
X031688Y029184D02*
X031083Y029184D01*
X031083Y029025D02*
X031688Y029025D01*
X031688Y028867D02*
X031083Y028867D01*
X031083Y028708D02*
X031688Y028708D01*
X031688Y028550D02*
X031083Y028550D01*
X032208Y028550D02*
X037188Y028550D01*
X037188Y028708D02*
X032208Y028708D01*
X032208Y028867D02*
X037188Y028867D01*
X037188Y029025D02*
X032208Y029025D01*
X032208Y029184D02*
X037289Y029184D01*
X037447Y029342D02*
X032208Y029342D01*
X032208Y029501D02*
X037606Y029501D01*
X037764Y029659D02*
X032208Y029659D01*
X032208Y029818D02*
X037923Y029818D01*
X038081Y029976D02*
X036255Y029976D01*
X036185Y029906D02*
X036518Y030240D01*
X036518Y030426D01*
X035998Y030426D01*
X035998Y029906D01*
X036185Y029906D01*
X035998Y029976D02*
X035898Y029976D01*
X035898Y029906D02*
X035898Y030426D01*
X035378Y030426D01*
X035378Y030240D01*
X035712Y029906D01*
X035898Y029906D01*
X035898Y030135D02*
X035998Y030135D01*
X035998Y030293D02*
X035898Y030293D01*
X035898Y030426D02*
X035998Y030426D01*
X035998Y030526D01*
X035898Y030526D01*
X035898Y030426D01*
X035898Y030452D02*
X032478Y030452D01*
X032478Y030610D02*
X035378Y030610D01*
X035378Y030526D02*
X035898Y030526D01*
X035898Y031046D01*
X035712Y031046D01*
X035378Y030712D01*
X035378Y030526D01*
X035378Y030293D02*
X032478Y030293D01*
X032357Y030135D02*
X035483Y030135D01*
X035642Y029976D02*
X032208Y029976D01*
X032405Y030769D02*
X035435Y030769D01*
X035594Y030927D02*
X032246Y030927D01*
X031556Y031244D02*
X033841Y031244D01*
X033748Y031403D02*
X031648Y031403D01*
X031643Y031561D02*
X033754Y031561D01*
X033853Y031720D02*
X031543Y031720D01*
X030983Y031720D02*
X019008Y031720D01*
X019008Y031878D02*
X039640Y031878D01*
X039595Y031897D02*
X039824Y031802D01*
X040072Y031802D01*
X040302Y031897D01*
X040477Y032072D01*
X040572Y032302D01*
X040572Y032550D01*
X040477Y032779D01*
X040302Y032954D01*
X040072Y033049D01*
X039824Y033049D01*
X039595Y032954D01*
X039420Y032779D01*
X039325Y032550D01*
X039325Y032302D01*
X039420Y032072D01*
X039595Y031897D01*
X039455Y032037D02*
X019008Y032037D01*
X019008Y032195D02*
X039369Y032195D01*
X039325Y032354D02*
X019008Y032354D01*
X019008Y032512D02*
X039325Y032512D01*
X039375Y032671D02*
X021795Y032671D01*
X021792Y032665D02*
X021816Y032706D01*
X021828Y032752D01*
X021828Y033072D01*
X021352Y033072D01*
X021352Y033129D01*
X021295Y033129D01*
X021295Y033072D01*
X021352Y033072D01*
X021352Y032596D01*
X021672Y032596D01*
X021718Y032608D01*
X021759Y032632D01*
X021792Y032665D01*
X021828Y032829D02*
X039470Y032829D01*
X039676Y032988D02*
X021828Y032988D01*
X021828Y033146D02*
X046914Y033146D01*
X047029Y033261D02*
X046788Y033020D01*
X046788Y032681D01*
X047029Y032441D01*
X047368Y032441D01*
X047608Y032681D01*
X047608Y033020D01*
X047368Y033261D01*
X047029Y033261D01*
X046788Y032988D02*
X044221Y032988D01*
X044427Y032829D02*
X046788Y032829D01*
X046799Y032671D02*
X044522Y032671D01*
X044572Y032512D02*
X046957Y032512D01*
X047440Y032512D02*
X047957Y032512D01*
X047799Y032671D02*
X047598Y032671D01*
X047608Y032829D02*
X047788Y032829D01*
X047788Y032988D02*
X047608Y032988D01*
X047483Y033146D02*
X047914Y033146D01*
X048006Y033463D02*
X047391Y033463D01*
X047549Y033622D02*
X047848Y033622D01*
X047788Y033780D02*
X047608Y033780D01*
X047608Y033939D02*
X047788Y033939D01*
X047865Y034097D02*
X047532Y034097D01*
X047373Y034256D02*
X048024Y034256D01*
X048373Y034256D02*
X049293Y034256D01*
X049323Y034097D02*
X048532Y034097D01*
X048608Y033939D02*
X049323Y033939D01*
X049323Y033780D02*
X048608Y033780D01*
X048549Y033622D02*
X049323Y033622D01*
X049323Y030927D02*
X036303Y030927D01*
X036185Y031046D02*
X035998Y031046D01*
X035998Y030526D01*
X036518Y030526D01*
X036518Y030712D01*
X036185Y031046D01*
X035998Y030927D02*
X035898Y030927D01*
X035898Y030769D02*
X035998Y030769D01*
X035998Y030610D02*
X035898Y030610D01*
X035998Y030452D02*
X038565Y030452D01*
X038398Y030293D02*
X036518Y030293D01*
X036414Y030135D02*
X038240Y030135D01*
X038658Y029818D02*
X049323Y029818D01*
X049323Y029976D02*
X047606Y029976D01*
X047593Y029971D02*
X047732Y030028D01*
X047839Y030135D01*
X047897Y030275D01*
X047897Y030426D01*
X047839Y030566D01*
X047732Y030673D01*
X047593Y030731D01*
X046962Y030731D01*
X046822Y030673D01*
X046715Y030566D01*
X046657Y030426D01*
X046657Y030275D01*
X046715Y030135D01*
X046822Y030028D01*
X046962Y029971D01*
X047593Y029971D01*
X047839Y030135D02*
X049323Y030135D01*
X049323Y030293D02*
X047897Y030293D01*
X047887Y030452D02*
X049323Y030452D01*
X049323Y030610D02*
X047795Y030610D01*
X047962Y029731D02*
X047822Y029673D01*
X047715Y029566D01*
X047657Y029426D01*
X047657Y029275D01*
X047715Y029135D01*
X047822Y029028D01*
X047962Y028971D01*
X048593Y028971D01*
X048732Y029028D01*
X048839Y029135D01*
X048897Y029275D01*
X048897Y029426D01*
X048839Y029566D01*
X048732Y029673D01*
X048593Y029731D01*
X047962Y029731D01*
X047808Y029659D02*
X038500Y029659D01*
X038341Y029501D02*
X039422Y029501D01*
X039368Y029447D02*
X039308Y029303D01*
X039308Y029148D01*
X039368Y029005D01*
X039478Y028895D01*
X039621Y028836D01*
X039776Y028836D01*
X039919Y028895D01*
X040029Y029005D01*
X040088Y029148D01*
X040088Y029303D01*
X040029Y029447D01*
X039919Y029556D01*
X039776Y029616D01*
X039621Y029616D01*
X039478Y029556D01*
X039368Y029447D01*
X039325Y029342D02*
X038183Y029342D01*
X038024Y029184D02*
X039308Y029184D01*
X039359Y029025D02*
X037866Y029025D01*
X037708Y028867D02*
X039546Y028867D01*
X039621Y028616D02*
X039478Y028556D01*
X039368Y028447D01*
X039308Y028303D01*
X039308Y028148D01*
X039368Y028005D01*
X039478Y027895D01*
X039621Y027836D01*
X039776Y027836D01*
X039919Y027895D01*
X040029Y028005D01*
X040088Y028148D01*
X040088Y028303D01*
X040029Y028447D01*
X039919Y028556D01*
X039776Y028616D01*
X039621Y028616D01*
X039471Y028550D02*
X037708Y028550D01*
X037708Y028708D02*
X046907Y028708D01*
X046962Y028731D02*
X046822Y028673D01*
X046715Y028566D01*
X046657Y028426D01*
X046657Y028275D01*
X046715Y028135D01*
X046790Y028060D01*
X046716Y027986D01*
X045440Y027986D01*
X045380Y028011D01*
X045267Y028011D01*
X045162Y027967D01*
X045082Y027887D01*
X045038Y027782D01*
X045038Y027669D01*
X045082Y027564D01*
X045162Y027484D01*
X045267Y027441D01*
X045380Y027441D01*
X045440Y027466D01*
X046875Y027466D01*
X046971Y027505D01*
X047044Y027578D01*
X047044Y027578D01*
X047436Y027971D01*
X047593Y027971D01*
X047732Y028028D01*
X047839Y028135D01*
X047897Y028275D01*
X047897Y028426D01*
X047839Y028566D01*
X047732Y028673D01*
X047593Y028731D01*
X046962Y028731D01*
X046708Y028550D02*
X044926Y028550D01*
X044919Y028556D02*
X044776Y028616D01*
X044621Y028616D01*
X044478Y028556D01*
X044368Y028447D01*
X044308Y028303D01*
X044308Y028148D01*
X044368Y028005D01*
X044478Y027895D01*
X044621Y027836D01*
X044776Y027836D01*
X044919Y027895D01*
X045029Y028005D01*
X045088Y028148D01*
X045088Y028303D01*
X045029Y028447D01*
X044919Y028556D01*
X045052Y028391D02*
X046657Y028391D01*
X046675Y028233D02*
X045088Y028233D01*
X045058Y028074D02*
X046776Y028074D01*
X047223Y027757D02*
X049323Y027757D01*
X049323Y027599D02*
X047064Y027599D01*
X047381Y027916D02*
X049323Y027916D01*
X049323Y028074D02*
X047778Y028074D01*
X047880Y028233D02*
X049323Y028233D01*
X049323Y028391D02*
X047897Y028391D01*
X047846Y028550D02*
X049323Y028550D01*
X049323Y028708D02*
X047647Y028708D01*
X047830Y029025D02*
X045038Y029025D01*
X045029Y029005D02*
X045088Y029148D01*
X045088Y029303D01*
X045029Y029447D01*
X044919Y029556D01*
X044776Y029616D01*
X044621Y029616D01*
X044478Y029556D01*
X044368Y029447D01*
X044308Y029303D01*
X044308Y029148D01*
X044368Y029005D01*
X044478Y028895D01*
X044621Y028836D01*
X044776Y028836D01*
X044919Y028895D01*
X045029Y029005D01*
X045088Y029184D02*
X047695Y029184D01*
X047657Y029342D02*
X045072Y029342D01*
X044975Y029501D02*
X047688Y029501D01*
X048724Y029025D02*
X049323Y029025D01*
X049323Y028867D02*
X044851Y028867D01*
X044546Y028867D02*
X043851Y028867D01*
X043919Y028895D02*
X043776Y028836D01*
X043621Y028836D01*
X043478Y028895D01*
X043368Y029005D01*
X043308Y029148D01*
X043308Y029303D01*
X043368Y029447D01*
X043478Y029556D01*
X043621Y029616D01*
X043776Y029616D01*
X043919Y029556D01*
X044029Y029447D01*
X044088Y029303D01*
X044088Y029148D01*
X044029Y029005D01*
X043919Y028895D01*
X044038Y029025D02*
X044359Y029025D01*
X044308Y029184D02*
X044088Y029184D01*
X044072Y029342D02*
X044325Y029342D01*
X044422Y029501D02*
X043975Y029501D01*
X043422Y029501D02*
X042975Y029501D01*
X043029Y029447D02*
X042919Y029556D01*
X042776Y029616D01*
X042621Y029616D01*
X042478Y029556D01*
X042368Y029447D01*
X042308Y029303D01*
X042308Y029148D01*
X042368Y029005D01*
X042478Y028895D01*
X042621Y028836D01*
X042776Y028836D01*
X042919Y028895D01*
X043029Y029005D01*
X043088Y029148D01*
X043088Y029303D01*
X043029Y029447D01*
X043072Y029342D02*
X043325Y029342D01*
X043308Y029184D02*
X043088Y029184D01*
X043038Y029025D02*
X043359Y029025D01*
X043546Y028867D02*
X042851Y028867D01*
X042776Y028616D02*
X042621Y028616D01*
X042478Y028556D01*
X042368Y028447D01*
X042308Y028303D01*
X042308Y028148D01*
X042368Y028005D01*
X042478Y027895D01*
X042621Y027836D01*
X042776Y027836D01*
X042919Y027895D01*
X043029Y028005D01*
X043088Y028148D01*
X043088Y028303D01*
X043029Y028447D01*
X042919Y028556D01*
X042776Y028616D01*
X042926Y028550D02*
X043471Y028550D01*
X043478Y028556D02*
X043368Y028447D01*
X043308Y028303D01*
X043308Y028148D01*
X043368Y028005D01*
X043478Y027895D01*
X043621Y027836D01*
X043776Y027836D01*
X043919Y027895D01*
X044029Y028005D01*
X044088Y028148D01*
X044088Y028303D01*
X044029Y028447D01*
X043919Y028556D01*
X043776Y028616D01*
X043621Y028616D01*
X043478Y028556D01*
X043345Y028391D02*
X043052Y028391D01*
X043088Y028233D02*
X043308Y028233D01*
X043339Y028074D02*
X043058Y028074D01*
X042940Y027916D02*
X043457Y027916D01*
X043580Y027599D02*
X042817Y027599D01*
X042776Y027616D02*
X042621Y027616D01*
X042478Y027556D01*
X042368Y027447D01*
X042308Y027303D01*
X042308Y027148D01*
X042368Y027005D01*
X042478Y026895D01*
X042621Y026836D01*
X042776Y026836D01*
X042919Y026895D01*
X043029Y027005D01*
X043088Y027148D01*
X043088Y027303D01*
X043029Y027447D01*
X042919Y027556D01*
X042776Y027616D01*
X042580Y027599D02*
X041817Y027599D01*
X041776Y027616D02*
X041621Y027616D01*
X041478Y027556D01*
X041368Y027447D01*
X041308Y027303D01*
X041308Y027148D01*
X041368Y027005D01*
X041478Y026895D01*
X041621Y026836D01*
X041776Y026836D01*
X041919Y026895D01*
X042029Y027005D01*
X042088Y027148D01*
X042088Y027303D01*
X042029Y027447D01*
X041919Y027556D01*
X041776Y027616D01*
X041580Y027599D02*
X040817Y027599D01*
X040776Y027616D02*
X040621Y027616D01*
X040478Y027556D01*
X040368Y027447D01*
X040308Y027303D01*
X040308Y027148D01*
X040368Y027005D01*
X040478Y026895D01*
X040621Y026836D01*
X040776Y026836D01*
X040919Y026895D01*
X041029Y027005D01*
X041088Y027148D01*
X041088Y027303D01*
X041029Y027447D01*
X040919Y027556D01*
X040776Y027616D01*
X040580Y027599D02*
X039817Y027599D01*
X039776Y027616D02*
X039621Y027616D01*
X039478Y027556D01*
X039368Y027447D01*
X039308Y027303D01*
X039308Y027148D01*
X039368Y027005D01*
X039478Y026895D01*
X039621Y026836D01*
X039776Y026836D01*
X039919Y026895D01*
X040029Y027005D01*
X040088Y027148D01*
X040088Y027303D01*
X040029Y027447D01*
X039919Y027556D01*
X039776Y027616D01*
X039580Y027599D02*
X039454Y027599D01*
X039483Y027757D02*
X045038Y027757D01*
X045068Y027599D02*
X044817Y027599D01*
X044776Y027616D02*
X044621Y027616D01*
X044478Y027556D01*
X044368Y027447D01*
X044308Y027303D01*
X044308Y027148D01*
X044368Y027005D01*
X044478Y026895D01*
X044621Y026836D01*
X044776Y026836D01*
X044919Y026895D01*
X045029Y027005D01*
X045088Y027148D01*
X045088Y027303D01*
X045029Y027447D01*
X044919Y027556D01*
X044776Y027616D01*
X044580Y027599D02*
X043817Y027599D01*
X043776Y027616D02*
X043621Y027616D01*
X043478Y027556D01*
X043368Y027447D01*
X043308Y027303D01*
X043308Y027148D01*
X043368Y027005D01*
X043478Y026895D01*
X043621Y026836D01*
X043776Y026836D01*
X043919Y026895D01*
X044029Y027005D01*
X044088Y027148D01*
X044088Y027303D01*
X044029Y027447D01*
X043919Y027556D01*
X043776Y027616D01*
X044032Y027440D02*
X044365Y027440D01*
X044308Y027282D02*
X044088Y027282D01*
X044078Y027123D02*
X044319Y027123D01*
X044408Y026965D02*
X043989Y026965D01*
X043776Y026616D02*
X043621Y026616D01*
X043478Y026556D01*
X043368Y026447D01*
X043308Y026303D01*
X043308Y026148D01*
X043368Y026005D01*
X043478Y025895D01*
X043621Y025836D01*
X043776Y025836D01*
X043919Y025895D01*
X044029Y026005D01*
X044088Y026148D01*
X044088Y026303D01*
X044029Y026447D01*
X043919Y026556D01*
X043776Y026616D01*
X043986Y026489D02*
X044388Y026489D01*
X044293Y026394D02*
X044293Y026058D01*
X044438Y025912D01*
X044438Y025539D01*
X044293Y025394D01*
X044293Y025058D01*
X044438Y024912D01*
X044438Y024539D01*
X044293Y024394D01*
X044293Y024058D01*
X044438Y023912D01*
X044438Y023636D01*
X041781Y023636D01*
X041794Y023623D02*
X041721Y023696D01*
X041625Y023736D01*
X036940Y023736D01*
X036880Y023761D01*
X036767Y023761D01*
X036662Y023717D01*
X036582Y023637D01*
X036538Y023532D01*
X036538Y023419D01*
X036582Y023314D01*
X036662Y023234D01*
X036767Y023191D01*
X036880Y023191D01*
X036940Y023216D01*
X041466Y023216D01*
X041781Y022901D01*
X041733Y022785D01*
X041615Y022903D01*
X041597Y022947D01*
X041465Y023079D01*
X041292Y023151D01*
X041105Y023151D01*
X040932Y023079D01*
X040800Y022947D01*
X040782Y022903D01*
X040618Y022739D01*
X040513Y022487D01*
X040513Y020634D01*
X039165Y019286D01*
X035812Y019286D01*
X035560Y019181D01*
X035108Y018729D01*
X035108Y018782D01*
X035065Y018887D01*
X034985Y018967D01*
X034924Y018992D01*
X034833Y019083D01*
X034877Y019040D02*
X035419Y019040D01*
X035260Y018881D02*
X035067Y018881D01*
X034833Y019198D02*
X035601Y019198D01*
X035667Y019551D02*
X035480Y019551D01*
X035307Y019622D01*
X035175Y019754D01*
X035103Y019927D01*
X035103Y020774D01*
X035175Y020947D01*
X035307Y021079D01*
X035313Y021082D01*
X035313Y023609D01*
X035288Y023669D01*
X035288Y023782D01*
X035332Y023887D01*
X035412Y023967D01*
X035517Y024011D01*
X035630Y024011D01*
X035735Y023967D01*
X035815Y023887D01*
X035858Y023782D01*
X035858Y023669D01*
X035833Y023609D01*
X035833Y021082D01*
X035840Y021079D01*
X035972Y020947D01*
X036043Y020774D01*
X036043Y019927D01*
X035972Y019754D01*
X035840Y019622D01*
X035667Y019551D01*
X035891Y019674D02*
X039553Y019674D01*
X039711Y019832D02*
X036004Y019832D01*
X036043Y019991D02*
X039870Y019991D01*
X040028Y020149D02*
X036043Y020149D01*
X036043Y020308D02*
X040187Y020308D01*
X040345Y020466D02*
X036043Y020466D01*
X036043Y020625D02*
X040504Y020625D01*
X040513Y020783D02*
X038624Y020783D01*
X038596Y020755D02*
X040113Y022273D01*
X040139Y022273D01*
X040259Y022322D01*
X040352Y022415D01*
X040402Y022535D01*
X040402Y022666D01*
X040352Y022786D01*
X040259Y022879D01*
X040139Y022929D01*
X040008Y022929D01*
X039888Y022879D01*
X039795Y022786D01*
X039745Y022666D01*
X039745Y022640D01*
X038341Y021236D01*
X037690Y021236D01*
X037630Y021261D01*
X037517Y021261D01*
X037412Y021217D01*
X037332Y021137D01*
X037288Y021032D01*
X037288Y020919D01*
X037332Y020814D01*
X037412Y020734D01*
X037517Y020691D01*
X037630Y020691D01*
X037690Y020716D01*
X038500Y020716D01*
X038596Y020755D01*
X038782Y020942D02*
X040513Y020942D01*
X040513Y021100D02*
X038941Y021100D01*
X039099Y021259D02*
X040513Y021259D01*
X040513Y021417D02*
X039258Y021417D01*
X039416Y021576D02*
X040513Y021576D01*
X040513Y021734D02*
X039575Y021734D01*
X039733Y021893D02*
X040513Y021893D01*
X040513Y022051D02*
X039892Y022051D01*
X040050Y022210D02*
X040513Y022210D01*
X040513Y022368D02*
X040305Y022368D01*
X040398Y022527D02*
X040530Y022527D01*
X040596Y022685D02*
X040394Y022685D01*
X040294Y022844D02*
X040723Y022844D01*
X040855Y023002D02*
X035833Y023002D01*
X035833Y022844D02*
X039852Y022844D01*
X039753Y022685D02*
X035833Y022685D01*
X035833Y022527D02*
X039632Y022527D01*
X039473Y022368D02*
X035833Y022368D01*
X035833Y022210D02*
X039315Y022210D01*
X039156Y022051D02*
X035833Y022051D01*
X035833Y021893D02*
X038998Y021893D01*
X038839Y021734D02*
X035833Y021734D01*
X035833Y021576D02*
X038681Y021576D01*
X038522Y021417D02*
X035833Y021417D01*
X035833Y021259D02*
X037512Y021259D01*
X037635Y021259D02*
X038364Y021259D01*
X037317Y021100D02*
X035833Y021100D01*
X035974Y020942D02*
X037288Y020942D01*
X037363Y020783D02*
X036040Y020783D01*
X035313Y021100D02*
X034789Y021100D01*
X034974Y020942D02*
X035173Y020942D01*
X035107Y020783D02*
X035040Y020783D01*
X035043Y020625D02*
X035103Y020625D01*
X035103Y020466D02*
X035043Y020466D01*
X035043Y020308D02*
X035103Y020308D01*
X035103Y020149D02*
X035043Y020149D01*
X035043Y019991D02*
X035103Y019991D01*
X035143Y019832D02*
X035004Y019832D01*
X034891Y019674D02*
X035256Y019674D01*
X034833Y019515D02*
X039394Y019515D01*
X039236Y019357D02*
X034833Y019357D01*
X034313Y019515D02*
X033402Y019515D01*
X033256Y019674D02*
X033243Y019674D01*
X033143Y019832D02*
X033085Y019832D01*
X033103Y019991D02*
X032926Y019991D01*
X032794Y020123D02*
X032794Y020123D01*
X032768Y020149D02*
X033103Y020149D01*
X033103Y020308D02*
X032609Y020308D01*
X032583Y020466D02*
X033103Y020466D01*
X033057Y020625D02*
X032583Y020625D01*
X032583Y020783D02*
X032898Y020783D01*
X032740Y020942D02*
X032583Y020942D01*
X032583Y021100D02*
X032594Y021100D01*
X033083Y021417D02*
X035313Y021417D01*
X035313Y021259D02*
X033158Y021259D01*
X033317Y021100D02*
X033358Y021100D01*
X033789Y021100D02*
X034358Y021100D01*
X034173Y020942D02*
X033974Y020942D01*
X034040Y020783D02*
X034107Y020783D01*
X034103Y020625D02*
X034043Y020625D01*
X034043Y020466D02*
X034103Y020466D01*
X034103Y020308D02*
X034043Y020308D01*
X034043Y020149D02*
X034103Y020149D01*
X034103Y019991D02*
X034043Y019991D01*
X034004Y019832D02*
X034143Y019832D01*
X034256Y019674D02*
X033891Y019674D01*
X035930Y017613D02*
X036867Y017613D01*
X036778Y017525D02*
X036778Y017351D01*
X037198Y017351D01*
X037198Y017771D01*
X037024Y017771D01*
X036778Y017525D01*
X036778Y017455D02*
X035771Y017455D01*
X035613Y017296D02*
X036778Y017296D01*
X036778Y017351D02*
X036778Y017177D01*
X037024Y016931D01*
X037198Y016931D01*
X037198Y017351D01*
X037198Y017351D01*
X037198Y017351D01*
X036778Y017351D01*
X036817Y017138D02*
X035454Y017138D01*
X035296Y016979D02*
X036976Y016979D01*
X037198Y016979D02*
X037198Y016979D01*
X037198Y016931D02*
X037372Y016931D01*
X037618Y017177D01*
X037618Y017351D01*
X037618Y017525D01*
X037372Y017771D01*
X037198Y017771D01*
X037198Y017351D01*
X037198Y017351D01*
X037618Y017351D01*
X037198Y017351D01*
X037198Y017351D01*
X037198Y016931D01*
X037198Y017138D02*
X037198Y017138D01*
X037198Y017296D02*
X037198Y017296D01*
X037198Y017455D02*
X037198Y017455D01*
X037198Y017613D02*
X037198Y017613D01*
X037530Y017613D02*
X049323Y017613D01*
X049323Y017455D02*
X037618Y017455D01*
X037618Y017296D02*
X049323Y017296D01*
X049323Y017138D02*
X037579Y017138D01*
X037421Y016979D02*
X049323Y016979D01*
X049323Y017772D02*
X036088Y017772D01*
X036232Y017916D02*
X039585Y017916D01*
X039836Y018020D01*
X040029Y018213D01*
X041779Y019963D01*
X041883Y020214D01*
X041883Y021671D01*
X041932Y021622D01*
X042105Y021551D01*
X042292Y021551D01*
X042465Y021622D01*
X042597Y021754D01*
X042668Y021927D01*
X042668Y022774D01*
X042597Y022947D01*
X042465Y023079D01*
X042292Y023151D01*
X042266Y023151D01*
X041794Y023623D01*
X041939Y023478D02*
X044101Y023478D01*
X044081Y023458D02*
X044018Y023307D01*
X044018Y023144D01*
X044081Y022993D01*
X044196Y022878D01*
X044347Y022816D01*
X045050Y022816D01*
X045201Y022878D01*
X045316Y022993D01*
X045378Y023144D01*
X045378Y023307D01*
X045316Y023458D01*
X045201Y023573D01*
X045050Y023636D01*
X044958Y023636D01*
X045563Y023636D01*
X045563Y023478D02*
X045296Y023478D01*
X045373Y023319D02*
X045563Y023319D01*
X045563Y023161D02*
X045378Y023161D01*
X045320Y023002D02*
X045563Y023002D01*
X045563Y022844D02*
X045118Y022844D01*
X045050Y022636D02*
X044347Y022636D01*
X044196Y022573D01*
X044081Y022458D01*
X044018Y022307D01*
X044018Y022144D01*
X044049Y022069D01*
X041784Y019804D01*
X041758Y019804D01*
X041638Y019754D01*
X041545Y019661D01*
X041495Y019541D01*
X041495Y019410D01*
X041545Y019290D01*
X041638Y019197D01*
X041758Y019148D01*
X041889Y019148D01*
X042009Y019197D01*
X042102Y019290D01*
X042152Y019410D01*
X042152Y019436D01*
X044531Y021816D01*
X045050Y021816D01*
X045201Y021878D01*
X045316Y021993D01*
X045378Y022144D01*
X045378Y022307D01*
X045316Y022458D01*
X045201Y022573D01*
X045050Y022636D01*
X045247Y022527D02*
X045563Y022527D01*
X045563Y022685D02*
X043668Y022685D01*
X043668Y022774D02*
X043668Y021927D01*
X043597Y021754D01*
X043465Y021622D01*
X043292Y021551D01*
X043105Y021551D01*
X042932Y021622D01*
X042800Y021754D01*
X042728Y021927D01*
X042728Y022774D01*
X042800Y022947D01*
X042932Y023079D01*
X043105Y023151D01*
X043292Y023151D01*
X043465Y023079D01*
X043597Y022947D01*
X043668Y022774D01*
X043640Y022844D02*
X044279Y022844D01*
X044077Y023002D02*
X043542Y023002D01*
X043668Y022527D02*
X044150Y022527D01*
X044044Y022368D02*
X043668Y022368D01*
X043668Y022210D02*
X044018Y022210D01*
X044031Y022051D02*
X043668Y022051D01*
X043654Y021893D02*
X043873Y021893D01*
X043714Y021734D02*
X043577Y021734D01*
X043556Y021576D02*
X043352Y021576D01*
X043397Y021417D02*
X041883Y021417D01*
X041883Y021259D02*
X043239Y021259D01*
X043080Y021100D02*
X041883Y021100D01*
X041883Y020942D02*
X042922Y020942D01*
X042763Y020783D02*
X041883Y020783D01*
X041883Y020625D02*
X042605Y020625D01*
X042446Y020466D02*
X041883Y020466D01*
X041883Y020308D02*
X042288Y020308D01*
X042129Y020149D02*
X041856Y020149D01*
X041791Y019991D02*
X041971Y019991D01*
X041812Y019832D02*
X041649Y019832D01*
X041557Y019674D02*
X041490Y019674D01*
X041495Y019515D02*
X041332Y019515D01*
X041173Y019357D02*
X041518Y019357D01*
X041637Y019198D02*
X041015Y019198D01*
X040856Y019040D02*
X049323Y019040D01*
X049323Y019198D02*
X042010Y019198D01*
X042129Y019357D02*
X049323Y019357D01*
X049323Y019515D02*
X042231Y019515D01*
X042389Y019674D02*
X049323Y019674D01*
X049323Y019832D02*
X042548Y019832D01*
X042706Y019991D02*
X049323Y019991D01*
X049323Y020149D02*
X042865Y020149D01*
X043023Y020308D02*
X049323Y020308D01*
X049323Y020466D02*
X043182Y020466D01*
X043340Y020625D02*
X049323Y020625D01*
X049323Y020783D02*
X043499Y020783D01*
X043657Y020942D02*
X049323Y020942D01*
X049323Y021100D02*
X043816Y021100D01*
X043974Y021259D02*
X045137Y021259D01*
X045162Y021234D02*
X045267Y021191D01*
X045380Y021191D01*
X045485Y021234D01*
X045565Y021314D01*
X045590Y021375D01*
X045971Y021755D01*
X046044Y021828D01*
X046083Y021924D01*
X046083Y024118D01*
X046431Y024466D01*
X047176Y024466D01*
X047381Y024261D01*
X047766Y024261D01*
X048038Y024533D01*
X048038Y024918D01*
X047766Y025190D01*
X047381Y025190D01*
X047176Y024986D01*
X046272Y024986D01*
X046176Y024946D01*
X046103Y024873D01*
X045603Y024373D01*
X045563Y024277D01*
X045563Y022083D01*
X045222Y021742D01*
X045162Y021717D01*
X045082Y021637D01*
X045038Y021532D01*
X045038Y021419D01*
X045082Y021314D01*
X045162Y021234D01*
X045039Y021417D02*
X044133Y021417D01*
X044291Y021576D02*
X045056Y021576D01*
X045203Y021734D02*
X044450Y021734D01*
X045215Y021893D02*
X045373Y021893D01*
X045340Y022051D02*
X045531Y022051D01*
X045563Y022210D02*
X045378Y022210D01*
X045353Y022368D02*
X045563Y022368D01*
X046083Y022368D02*
X049323Y022368D01*
X049323Y022210D02*
X046083Y022210D01*
X046083Y022051D02*
X049323Y022051D01*
X049323Y021893D02*
X046070Y021893D01*
X045950Y021734D02*
X049323Y021734D01*
X049323Y021576D02*
X045791Y021576D01*
X045633Y021417D02*
X049323Y021417D01*
X049323Y021259D02*
X045509Y021259D01*
X046083Y022527D02*
X049323Y022527D01*
X049323Y022685D02*
X046083Y022685D01*
X046083Y022844D02*
X049323Y022844D01*
X049323Y023002D02*
X046083Y023002D01*
X046083Y023161D02*
X049323Y023161D01*
X049323Y023319D02*
X048015Y023319D01*
X048038Y023343D02*
X048038Y024108D01*
X047956Y024190D01*
X047191Y024190D01*
X047109Y024108D01*
X047109Y023343D01*
X047191Y023261D01*
X047956Y023261D01*
X048038Y023343D01*
X048038Y023478D02*
X049323Y023478D01*
X049323Y023636D02*
X048038Y023636D01*
X048038Y023795D02*
X049323Y023795D01*
X049323Y023953D02*
X048038Y023953D01*
X048035Y024112D02*
X049323Y024112D01*
X049323Y024270D02*
X047775Y024270D01*
X047934Y024429D02*
X049323Y024429D01*
X049323Y024587D02*
X048038Y024587D01*
X048038Y024746D02*
X049323Y024746D01*
X049323Y024904D02*
X048038Y024904D01*
X047894Y025063D02*
X049323Y025063D01*
X049323Y025221D02*
X045104Y025221D01*
X045104Y025063D02*
X047253Y025063D01*
X047381Y025261D02*
X047766Y025261D01*
X048038Y025533D01*
X048038Y025918D01*
X047766Y026190D01*
X047381Y026190D01*
X047109Y025918D01*
X047109Y025533D01*
X047381Y025261D01*
X047262Y025380D02*
X045104Y025380D01*
X045104Y025394D02*
X045104Y025058D01*
X044958Y024912D01*
X044958Y024539D01*
X045104Y024394D01*
X045104Y024058D01*
X044958Y023912D01*
X044958Y023636D01*
X044958Y023795D02*
X045563Y023795D01*
X045563Y023953D02*
X045000Y023953D01*
X045104Y024112D02*
X045563Y024112D01*
X045563Y024270D02*
X045104Y024270D01*
X045069Y024429D02*
X045659Y024429D01*
X045817Y024587D02*
X044958Y024587D01*
X044958Y024746D02*
X045976Y024746D01*
X046134Y024904D02*
X044958Y024904D01*
X044438Y024904D02*
X043928Y024904D01*
X043919Y024895D02*
X044029Y025005D01*
X044088Y025148D01*
X044088Y025303D01*
X044029Y025447D01*
X043919Y025556D01*
X043776Y025616D01*
X043621Y025616D01*
X043478Y025556D01*
X043368Y025447D01*
X043308Y025303D01*
X043308Y025148D01*
X043368Y025005D01*
X043478Y024895D01*
X043621Y024836D01*
X043776Y024836D01*
X043919Y024895D01*
X044053Y025063D02*
X044293Y025063D01*
X044293Y025221D02*
X044088Y025221D01*
X044057Y025380D02*
X044293Y025380D01*
X044437Y025538D02*
X043937Y025538D01*
X043823Y025855D02*
X044438Y025855D01*
X044438Y025697D02*
X036662Y025697D01*
X036821Y025855D02*
X039574Y025855D01*
X039621Y025836D02*
X039776Y025836D01*
X039919Y025895D01*
X040029Y026005D01*
X040088Y026148D01*
X040088Y026303D01*
X040029Y026447D01*
X039919Y026556D01*
X039776Y026616D01*
X039621Y026616D01*
X039478Y026556D01*
X039368Y026447D01*
X039308Y026303D01*
X039308Y026148D01*
X039368Y026005D01*
X039478Y025895D01*
X039621Y025836D01*
X039823Y025855D02*
X040574Y025855D01*
X040621Y025836D02*
X040776Y025836D01*
X040919Y025895D01*
X041029Y026005D01*
X041088Y026148D01*
X041088Y026303D01*
X041029Y026447D01*
X040919Y026556D01*
X040776Y026616D01*
X040621Y026616D01*
X040478Y026556D01*
X040368Y026447D01*
X040308Y026303D01*
X040308Y026148D01*
X040368Y026005D01*
X040478Y025895D01*
X040621Y025836D01*
X040823Y025855D02*
X041574Y025855D01*
X041621Y025836D02*
X041776Y025836D01*
X041919Y025895D01*
X042029Y026005D01*
X042088Y026148D01*
X042088Y026303D01*
X042029Y026447D01*
X041919Y026556D01*
X041776Y026616D01*
X041621Y026616D01*
X041478Y026556D01*
X041368Y026447D01*
X041308Y026303D01*
X041308Y026148D01*
X041368Y026005D01*
X041478Y025895D01*
X041621Y025836D01*
X041823Y025855D02*
X042574Y025855D01*
X042621Y025836D02*
X042776Y025836D01*
X042919Y025895D01*
X043029Y026005D01*
X043088Y026148D01*
X043088Y026303D01*
X043029Y026447D01*
X042919Y026556D01*
X042776Y026616D01*
X042621Y026616D01*
X042478Y026556D01*
X042368Y026447D01*
X042308Y026303D01*
X042308Y026148D01*
X042368Y026005D01*
X042478Y025895D01*
X042621Y025836D01*
X042823Y025855D02*
X043574Y025855D01*
X043364Y026014D02*
X043033Y026014D01*
X043088Y026172D02*
X043308Y026172D01*
X043320Y026331D02*
X043077Y026331D01*
X042986Y026489D02*
X043410Y026489D01*
X043408Y026965D02*
X042989Y026965D01*
X043078Y027123D02*
X043319Y027123D01*
X043308Y027282D02*
X043088Y027282D01*
X043032Y027440D02*
X043365Y027440D01*
X043940Y027916D02*
X044457Y027916D01*
X044339Y028074D02*
X044058Y028074D01*
X044088Y028233D02*
X044308Y028233D01*
X044345Y028391D02*
X044052Y028391D01*
X043926Y028550D02*
X044471Y028550D01*
X044940Y027916D02*
X045110Y027916D01*
X045032Y027440D02*
X049323Y027440D01*
X049323Y027282D02*
X045088Y027282D01*
X045078Y027123D02*
X049323Y027123D01*
X049323Y026965D02*
X044989Y026965D01*
X044866Y026631D02*
X044530Y026631D01*
X044293Y026394D01*
X044293Y026331D02*
X044077Y026331D01*
X044088Y026172D02*
X044293Y026172D01*
X044337Y026014D02*
X044033Y026014D01*
X044958Y025912D02*
X044958Y025539D01*
X045104Y025394D01*
X044960Y025538D02*
X047109Y025538D01*
X047109Y025697D02*
X044958Y025697D01*
X044958Y025855D02*
X047109Y025855D01*
X047204Y026014D02*
X045060Y026014D01*
X045104Y026058D02*
X044958Y025912D01*
X045104Y026058D02*
X045104Y026394D01*
X044866Y026631D01*
X045009Y026489D02*
X049323Y026489D01*
X049323Y026331D02*
X045104Y026331D01*
X045104Y026172D02*
X047363Y026172D01*
X047784Y026172D02*
X049323Y026172D01*
X049323Y026014D02*
X047943Y026014D01*
X048038Y025855D02*
X049323Y025855D01*
X049323Y025697D02*
X048038Y025697D01*
X048038Y025538D02*
X049323Y025538D01*
X049323Y025380D02*
X047885Y025380D01*
X047213Y024429D02*
X046394Y024429D01*
X046236Y024270D02*
X047372Y024270D01*
X047112Y024112D02*
X046083Y024112D01*
X046083Y023953D02*
X047109Y023953D01*
X047109Y023795D02*
X046083Y023795D01*
X046083Y023636D02*
X047109Y023636D01*
X047109Y023478D02*
X046083Y023478D01*
X046083Y023319D02*
X047132Y023319D01*
X044438Y023636D02*
X044347Y023636D01*
X044196Y023573D01*
X044081Y023458D01*
X044023Y023319D02*
X042098Y023319D01*
X042256Y023161D02*
X044018Y023161D01*
X043776Y023836D02*
X043919Y023895D01*
X044029Y024005D01*
X044088Y024148D01*
X044088Y024303D01*
X044029Y024447D01*
X043919Y024556D01*
X043776Y024616D01*
X043621Y024616D01*
X043478Y024556D01*
X043368Y024447D01*
X043308Y024303D01*
X043308Y024148D01*
X043368Y024005D01*
X043478Y023895D01*
X043621Y023836D01*
X043776Y023836D01*
X043977Y023953D02*
X044397Y023953D01*
X044438Y023795D02*
X035853Y023795D01*
X035845Y023636D02*
X036581Y023636D01*
X036538Y023478D02*
X035833Y023478D01*
X035833Y023319D02*
X036580Y023319D01*
X035833Y023161D02*
X041521Y023161D01*
X041542Y023002D02*
X041679Y023002D01*
X041674Y022844D02*
X041757Y022844D01*
X042542Y023002D02*
X042855Y023002D01*
X042757Y022844D02*
X042640Y022844D01*
X042668Y022685D02*
X042728Y022685D01*
X042728Y022527D02*
X042668Y022527D01*
X042668Y022368D02*
X042728Y022368D01*
X042728Y022210D02*
X042668Y022210D01*
X042668Y022051D02*
X042728Y022051D01*
X042743Y021893D02*
X042654Y021893D01*
X042577Y021734D02*
X042820Y021734D01*
X043045Y021576D02*
X042352Y021576D01*
X042045Y021576D02*
X041883Y021576D01*
X041776Y023836D02*
X041919Y023895D01*
X042029Y024005D01*
X042088Y024148D01*
X042088Y024303D01*
X042029Y024447D01*
X041919Y024556D01*
X041776Y024616D01*
X041621Y024616D01*
X041478Y024556D01*
X041368Y024447D01*
X041308Y024303D01*
X041308Y024148D01*
X041368Y024005D01*
X041478Y023895D01*
X041621Y023836D01*
X041776Y023836D01*
X041977Y023953D02*
X042419Y023953D01*
X042368Y024005D02*
X042478Y023895D01*
X042621Y023836D01*
X042776Y023836D01*
X042919Y023895D01*
X043029Y024005D01*
X043088Y024148D01*
X043088Y024303D01*
X043029Y024447D01*
X042919Y024556D01*
X042776Y024616D01*
X042621Y024616D01*
X042478Y024556D01*
X042368Y024447D01*
X042308Y024303D01*
X042308Y024148D01*
X042368Y024005D01*
X042323Y024112D02*
X042073Y024112D01*
X042088Y024270D02*
X042308Y024270D01*
X042360Y024429D02*
X042036Y024429D01*
X041845Y024587D02*
X042552Y024587D01*
X042621Y024836D02*
X042776Y024836D01*
X042919Y024895D01*
X043029Y025005D01*
X043088Y025148D01*
X043088Y025303D01*
X043029Y025447D01*
X042919Y025556D01*
X042776Y025616D01*
X042621Y025616D01*
X042478Y025556D01*
X042368Y025447D01*
X042308Y025303D01*
X042308Y025148D01*
X042368Y025005D01*
X042478Y024895D01*
X042621Y024836D01*
X042468Y024904D02*
X041928Y024904D01*
X041919Y024895D02*
X042029Y025005D01*
X042088Y025148D01*
X042088Y025303D01*
X042029Y025447D01*
X041919Y025556D01*
X041776Y025616D01*
X041621Y025616D01*
X041478Y025556D01*
X041368Y025447D01*
X041308Y025303D01*
X041308Y025148D01*
X041368Y025005D01*
X041478Y024895D01*
X041621Y024836D01*
X041776Y024836D01*
X041919Y024895D01*
X042053Y025063D02*
X042344Y025063D01*
X042308Y025221D02*
X042088Y025221D01*
X042057Y025380D02*
X042340Y025380D01*
X042459Y025538D02*
X041937Y025538D01*
X041459Y025538D02*
X040937Y025538D01*
X040919Y025556D02*
X040776Y025616D01*
X040621Y025616D01*
X040478Y025556D01*
X040368Y025447D01*
X040308Y025303D01*
X040308Y025148D01*
X040368Y025005D01*
X040478Y024895D01*
X040621Y024836D01*
X040776Y024836D01*
X040919Y024895D01*
X041029Y025005D01*
X041088Y025148D01*
X041088Y025303D01*
X041029Y025447D01*
X040919Y025556D01*
X041057Y025380D02*
X041340Y025380D01*
X041308Y025221D02*
X041088Y025221D01*
X041053Y025063D02*
X041344Y025063D01*
X041468Y024904D02*
X040928Y024904D01*
X040776Y024616D02*
X040919Y024556D01*
X041029Y024447D01*
X041088Y024303D01*
X041088Y024148D01*
X041029Y024005D01*
X040919Y023895D01*
X040776Y023836D01*
X040621Y023836D01*
X040478Y023895D01*
X040368Y024005D01*
X040308Y024148D01*
X040308Y024303D01*
X040368Y024447D01*
X040478Y024556D01*
X040621Y024616D01*
X040776Y024616D01*
X040845Y024587D02*
X041552Y024587D01*
X041360Y024429D02*
X041036Y024429D01*
X041088Y024270D02*
X041308Y024270D01*
X041323Y024112D02*
X041073Y024112D01*
X040977Y023953D02*
X041419Y023953D01*
X040419Y023953D02*
X039977Y023953D01*
X040029Y024005D02*
X040088Y024148D01*
X040088Y024303D01*
X040029Y024447D01*
X039919Y024556D01*
X039776Y024616D01*
X039621Y024616D01*
X039478Y024556D01*
X039368Y024447D01*
X039308Y024303D01*
X039308Y024148D01*
X039368Y024005D01*
X039478Y023895D01*
X039621Y023836D01*
X039776Y023836D01*
X039919Y023895D01*
X040029Y024005D01*
X040073Y024112D02*
X040323Y024112D01*
X040308Y024270D02*
X040088Y024270D01*
X040036Y024429D02*
X040360Y024429D01*
X040552Y024587D02*
X039845Y024587D01*
X039776Y024836D02*
X039919Y024895D01*
X040029Y025005D01*
X040088Y025148D01*
X040088Y025303D01*
X040029Y025447D01*
X039919Y025556D01*
X039776Y025616D01*
X039621Y025616D01*
X039478Y025556D01*
X039368Y025447D01*
X039308Y025303D01*
X039308Y025148D01*
X039368Y025005D01*
X039478Y024895D01*
X039621Y024836D01*
X039776Y024836D01*
X039928Y024904D02*
X040468Y024904D01*
X040344Y025063D02*
X040053Y025063D01*
X040088Y025221D02*
X040308Y025221D01*
X040340Y025380D02*
X040057Y025380D01*
X039937Y025538D02*
X040459Y025538D01*
X040364Y026014D02*
X040033Y026014D01*
X040088Y026172D02*
X040308Y026172D01*
X040320Y026331D02*
X040077Y026331D01*
X039986Y026489D02*
X040410Y026489D01*
X040408Y026965D02*
X039989Y026965D01*
X040078Y027123D02*
X040319Y027123D01*
X040308Y027282D02*
X040088Y027282D01*
X040032Y027440D02*
X040365Y027440D01*
X040478Y027895D02*
X040621Y027836D01*
X040776Y027836D01*
X040919Y027895D01*
X041029Y028005D01*
X041088Y028148D01*
X041088Y028303D01*
X041029Y028447D01*
X040919Y028556D01*
X040776Y028616D01*
X040621Y028616D01*
X040478Y028556D01*
X040368Y028447D01*
X040308Y028303D01*
X040308Y028148D01*
X040368Y028005D01*
X040478Y027895D01*
X040457Y027916D02*
X039940Y027916D01*
X040058Y028074D02*
X040339Y028074D01*
X040308Y028233D02*
X040088Y028233D01*
X040052Y028391D02*
X040345Y028391D01*
X040471Y028550D02*
X039926Y028550D01*
X039851Y028867D02*
X040546Y028867D01*
X040478Y028895D02*
X040621Y028836D01*
X040776Y028836D01*
X040919Y028895D01*
X041029Y029005D01*
X041088Y029148D01*
X041088Y029303D01*
X041029Y029447D01*
X040919Y029556D01*
X040776Y029616D01*
X040621Y029616D01*
X040478Y029556D01*
X040368Y029447D01*
X040308Y029303D01*
X040308Y029148D01*
X040368Y029005D01*
X040478Y028895D01*
X040359Y029025D02*
X040038Y029025D01*
X040088Y029184D02*
X040308Y029184D01*
X040325Y029342D02*
X040072Y029342D01*
X039975Y029501D02*
X040422Y029501D01*
X040975Y029501D02*
X041422Y029501D01*
X041368Y029447D02*
X041478Y029556D01*
X041621Y029616D01*
X041776Y029616D01*
X041919Y029556D01*
X042029Y029447D01*
X042088Y029303D01*
X042088Y029148D01*
X042029Y029005D01*
X041919Y028895D01*
X041776Y028836D01*
X041621Y028836D01*
X041478Y028895D01*
X041368Y029005D01*
X041308Y029148D01*
X041308Y029303D01*
X041368Y029447D01*
X041325Y029342D02*
X041072Y029342D01*
X041088Y029184D02*
X041308Y029184D01*
X041359Y029025D02*
X041038Y029025D01*
X040851Y028867D02*
X041546Y028867D01*
X041621Y028616D02*
X041478Y028556D01*
X041368Y028447D01*
X041308Y028303D01*
X041308Y028148D01*
X041368Y028005D01*
X041478Y027895D01*
X041621Y027836D01*
X041776Y027836D01*
X041919Y027895D01*
X042029Y028005D01*
X042088Y028148D01*
X042088Y028303D01*
X042029Y028447D01*
X041919Y028556D01*
X041776Y028616D01*
X041621Y028616D01*
X041471Y028550D02*
X040926Y028550D01*
X041052Y028391D02*
X041345Y028391D01*
X041308Y028233D02*
X041088Y028233D01*
X041058Y028074D02*
X041339Y028074D01*
X041457Y027916D02*
X040940Y027916D01*
X041032Y027440D02*
X041365Y027440D01*
X041308Y027282D02*
X041088Y027282D01*
X041078Y027123D02*
X041319Y027123D01*
X041408Y026965D02*
X040989Y026965D01*
X040986Y026489D02*
X041410Y026489D01*
X041320Y026331D02*
X041077Y026331D01*
X041088Y026172D02*
X041308Y026172D01*
X041364Y026014D02*
X041033Y026014D01*
X042033Y026014D02*
X042364Y026014D01*
X042308Y026172D02*
X042088Y026172D01*
X042077Y026331D02*
X042320Y026331D01*
X042410Y026489D02*
X041986Y026489D01*
X041989Y026965D02*
X042408Y026965D01*
X042319Y027123D02*
X042078Y027123D01*
X042088Y027282D02*
X042308Y027282D01*
X042365Y027440D02*
X042032Y027440D01*
X041940Y027916D02*
X042457Y027916D01*
X042339Y028074D02*
X042058Y028074D01*
X042088Y028233D02*
X042308Y028233D01*
X042345Y028391D02*
X042052Y028391D01*
X041926Y028550D02*
X042471Y028550D01*
X042546Y028867D02*
X041851Y028867D01*
X042038Y029025D02*
X042359Y029025D01*
X042308Y029184D02*
X042088Y029184D01*
X042072Y029342D02*
X042325Y029342D01*
X042422Y029501D02*
X041975Y029501D01*
X042029Y030020D02*
X041868Y030020D01*
X041719Y030082D01*
X041604Y030196D01*
X041543Y030345D01*
X041543Y030506D01*
X041604Y030655D01*
X041719Y030770D01*
X041868Y030831D01*
X042029Y030831D01*
X042178Y030770D01*
X042292Y030655D01*
X042354Y030506D01*
X042354Y030345D01*
X042292Y030196D01*
X042178Y030082D01*
X042029Y030020D01*
X042231Y030135D02*
X046716Y030135D01*
X046657Y030293D02*
X042333Y030293D01*
X042354Y030452D02*
X046668Y030452D01*
X046759Y030610D02*
X042311Y030610D01*
X042179Y030769D02*
X049323Y030769D01*
X049323Y029659D02*
X048746Y029659D01*
X048866Y029501D02*
X049323Y029501D01*
X049323Y029342D02*
X048897Y029342D01*
X048859Y029184D02*
X049323Y029184D01*
X049323Y026806D02*
X037772Y026806D01*
X037930Y026965D02*
X039408Y026965D01*
X039319Y027123D02*
X038089Y027123D01*
X038247Y027282D02*
X039308Y027282D01*
X039365Y027440D02*
X038406Y027440D01*
X037987Y027757D02*
X037708Y027757D01*
X037708Y027599D02*
X037829Y027599D01*
X037708Y027916D02*
X038146Y027916D01*
X037708Y028074D02*
X039339Y028074D01*
X039308Y028233D02*
X037708Y028233D01*
X037708Y028391D02*
X039345Y028391D01*
X039411Y027916D02*
X039457Y027916D01*
X039410Y026489D02*
X037455Y026489D01*
X037613Y026648D02*
X049323Y026648D01*
X046948Y029976D02*
X039716Y029976D01*
X039844Y030135D02*
X040609Y030135D01*
X040608Y030135D02*
X040658Y030086D01*
X040715Y030044D01*
X040777Y030013D01*
X040844Y029991D01*
X040913Y029980D01*
X040940Y029980D01*
X040940Y030417D01*
X040957Y030417D01*
X040957Y029980D01*
X040983Y029980D01*
X041053Y029991D01*
X041120Y030013D01*
X041182Y030044D01*
X041239Y030086D01*
X041288Y030135D01*
X041666Y030135D01*
X041564Y030293D02*
X041374Y030293D01*
X041383Y030321D02*
X041394Y030391D01*
X041394Y030417D01*
X040957Y030417D01*
X040957Y030434D01*
X041394Y030434D01*
X041394Y030461D01*
X041383Y030530D01*
X041362Y030597D01*
X041330Y030659D01*
X041288Y030716D01*
X041239Y030766D01*
X041182Y030807D01*
X041120Y030839D01*
X041053Y030860D01*
X040983Y030871D01*
X040957Y030871D01*
X040957Y030434D01*
X040940Y030434D01*
X040940Y030417D01*
X040503Y030417D01*
X040503Y030391D01*
X040514Y030321D01*
X040535Y030255D01*
X040567Y030192D01*
X040608Y030135D01*
X040523Y030293D02*
X039854Y030293D01*
X039750Y030452D02*
X040503Y030452D01*
X040503Y030461D02*
X040503Y030434D01*
X040940Y030434D01*
X040940Y030871D01*
X040913Y030871D01*
X040844Y030860D01*
X040777Y030839D01*
X040715Y030807D01*
X040658Y030766D01*
X040608Y030716D01*
X040567Y030659D01*
X040535Y030597D01*
X040514Y030530D01*
X040503Y030461D01*
X040542Y030610D02*
X036518Y030610D01*
X036461Y030769D02*
X040662Y030769D01*
X040940Y030769D02*
X040957Y030769D01*
X040940Y030610D02*
X040957Y030610D01*
X040940Y030452D02*
X040957Y030452D01*
X040940Y030293D02*
X040957Y030293D01*
X040940Y030135D02*
X040957Y030135D01*
X041288Y030135D02*
X041330Y030192D01*
X041362Y030255D01*
X041383Y030321D01*
X041394Y030452D02*
X041543Y030452D01*
X041586Y030610D02*
X041355Y030610D01*
X041235Y030769D02*
X041718Y030769D01*
X040442Y032037D02*
X043455Y032037D01*
X043369Y032195D02*
X040528Y032195D01*
X040572Y032354D02*
X043325Y032354D01*
X043325Y032512D02*
X040572Y032512D01*
X040522Y032671D02*
X043375Y032671D01*
X043470Y032829D02*
X040427Y032829D01*
X040221Y032988D02*
X043676Y032988D01*
X043640Y031878D02*
X040257Y031878D01*
X037188Y028391D02*
X032208Y028391D01*
X032208Y028233D02*
X037188Y028233D01*
X037188Y028074D02*
X034885Y028074D01*
X035153Y027916D02*
X037188Y027916D01*
X037188Y027757D02*
X035311Y027757D01*
X035382Y027599D02*
X037188Y027599D01*
X037045Y027440D02*
X035447Y027440D01*
X035453Y027282D02*
X036887Y027282D01*
X036728Y027123D02*
X035453Y027123D01*
X035407Y026965D02*
X036570Y026965D01*
X036411Y026806D02*
X035342Y026806D01*
X035215Y026648D02*
X036253Y026648D01*
X036094Y026489D02*
X035035Y026489D01*
X035619Y026014D02*
X029578Y026014D01*
X029578Y026157D02*
X029102Y026157D01*
X029102Y025355D01*
X029113Y025355D01*
X029192Y025368D01*
X029267Y025392D01*
X029338Y025428D01*
X029402Y025475D01*
X029458Y025531D01*
X029505Y025595D01*
X029541Y025666D01*
X029566Y025742D01*
X029578Y025820D01*
X029578Y026157D01*
X029578Y026331D02*
X035936Y026331D01*
X035777Y026172D02*
X029102Y026172D01*
X029102Y026014D02*
X029045Y026014D01*
X029045Y025855D02*
X029102Y025855D01*
X029102Y025697D02*
X029045Y025697D01*
X029045Y025538D02*
X029102Y025538D01*
X029102Y025380D02*
X029045Y025380D01*
X029229Y025380D02*
X034985Y025380D01*
X035143Y025538D02*
X029464Y025538D01*
X029551Y025697D02*
X035302Y025697D01*
X035460Y025855D02*
X029578Y025855D01*
X029578Y026489D02*
X034112Y026489D01*
X033932Y026648D02*
X029559Y026648D01*
X029482Y026806D02*
X033805Y026806D01*
X033994Y027916D02*
X032277Y027916D01*
X032263Y028074D02*
X034262Y028074D01*
X036979Y026014D02*
X039364Y026014D01*
X039308Y026172D02*
X037138Y026172D01*
X037296Y026331D02*
X039320Y026331D01*
X039459Y025538D02*
X036504Y025538D01*
X036345Y025380D02*
X039340Y025380D01*
X039308Y025221D02*
X036187Y025221D01*
X036028Y025063D02*
X039344Y025063D01*
X039468Y024904D02*
X035870Y024904D01*
X035711Y024746D02*
X044438Y024746D01*
X044438Y024587D02*
X043845Y024587D01*
X044036Y024429D02*
X044328Y024429D01*
X044293Y024270D02*
X044088Y024270D01*
X044073Y024112D02*
X044293Y024112D01*
X043552Y024587D02*
X042845Y024587D01*
X043036Y024429D02*
X043360Y024429D01*
X043308Y024270D02*
X043088Y024270D01*
X043073Y024112D02*
X043323Y024112D01*
X043419Y023953D02*
X042977Y023953D01*
X042928Y024904D02*
X043468Y024904D01*
X043344Y025063D02*
X043053Y025063D01*
X043088Y025221D02*
X043308Y025221D01*
X043340Y025380D02*
X043057Y025380D01*
X042937Y025538D02*
X043459Y025538D01*
X039552Y024587D02*
X035553Y024587D01*
X035394Y024429D02*
X039360Y024429D01*
X039308Y024270D02*
X035236Y024270D01*
X035077Y024112D02*
X039323Y024112D01*
X039419Y023953D02*
X035749Y023953D01*
X035398Y023953D02*
X034919Y023953D01*
X034760Y023795D02*
X035294Y023795D01*
X035302Y023636D02*
X034602Y023636D01*
X034583Y023478D02*
X035313Y023478D01*
X035313Y023319D02*
X034583Y023319D01*
X034583Y023161D02*
X035313Y023161D01*
X035313Y023002D02*
X034583Y023002D01*
X034583Y022844D02*
X035313Y022844D01*
X035313Y022685D02*
X034583Y022685D01*
X034583Y022527D02*
X035313Y022527D01*
X035313Y022368D02*
X034583Y022368D01*
X034583Y022210D02*
X035313Y022210D01*
X035313Y022051D02*
X034601Y022051D01*
X034598Y021893D02*
X035313Y021893D01*
X035313Y021734D02*
X034485Y021734D01*
X034162Y021734D02*
X033083Y021734D01*
X033083Y021576D02*
X035313Y021576D01*
X034063Y022210D02*
X033675Y022210D01*
X033552Y022051D02*
X034046Y022051D01*
X034049Y021893D02*
X033083Y021893D01*
X033083Y022051D02*
X033095Y022051D01*
X033083Y022527D02*
X033257Y022527D01*
X033415Y022685D02*
X033083Y022685D01*
X033083Y022844D02*
X033563Y022844D01*
X033563Y023002D02*
X033083Y023002D01*
X033083Y023161D02*
X033563Y023161D01*
X033563Y023319D02*
X033083Y023319D01*
X033083Y023478D02*
X033563Y023478D01*
X033563Y023636D02*
X033095Y023636D01*
X033103Y023795D02*
X033563Y023795D01*
X033584Y023953D02*
X032999Y023953D01*
X032648Y023953D02*
X032583Y023953D01*
X032583Y024112D02*
X033717Y024112D01*
X033875Y024270D02*
X032645Y024270D01*
X032646Y024429D02*
X034034Y024429D01*
X034192Y024587D02*
X032551Y024587D01*
X033992Y022527D02*
X034063Y022527D01*
X034063Y022368D02*
X033834Y022368D01*
X036232Y017916D02*
X035029Y016713D01*
X034979Y016662D02*
X036973Y016662D01*
X037850Y015870D02*
X030023Y015870D01*
X032095Y012066D02*
X033866Y012066D01*
X034024Y011907D02*
X032104Y011907D01*
X034443Y012224D02*
X037666Y012224D01*
X037547Y012066D02*
X034601Y012066D01*
X034760Y011907D02*
X037538Y011907D01*
X037640Y011749D02*
X034918Y011749D01*
X034563Y011115D02*
X034494Y011115D01*
X034494Y010639D02*
X034442Y010639D01*
X034913Y010322D02*
X044383Y010322D01*
X044318Y010164D02*
X034754Y010164D01*
X034004Y009688D02*
X032393Y009688D01*
X032551Y009530D02*
X033845Y009530D01*
X033822Y009371D02*
X032575Y009371D01*
X032575Y009213D02*
X033822Y009213D01*
X033963Y009054D02*
X032434Y009054D01*
X032453Y007628D02*
X033943Y007628D01*
X033840Y007469D02*
X032557Y007469D01*
X032575Y007311D02*
X033822Y007311D01*
X033873Y007152D02*
X032523Y007152D01*
X031714Y006835D02*
X041933Y006835D01*
X041123Y007152D02*
X039773Y007152D01*
X039825Y007311D02*
X041072Y007311D01*
X041090Y007469D02*
X039807Y007469D01*
X039703Y007628D02*
X041193Y007628D01*
X042359Y008262D02*
X038762Y008262D01*
X038858Y008420D02*
X042518Y008420D01*
X042676Y008579D02*
X038839Y008579D01*
X039193Y007628D02*
X034453Y007628D01*
X034557Y007469D02*
X039090Y007469D01*
X039072Y007311D02*
X034575Y007311D01*
X034523Y007152D02*
X039123Y007152D01*
X044982Y009847D02*
X045358Y009847D01*
X045278Y010005D02*
X045078Y010005D01*
X045078Y010164D02*
X045278Y010164D01*
X045326Y010322D02*
X045014Y010322D01*
X047408Y010481D02*
X047989Y010481D01*
X047830Y010639D02*
X047567Y010639D01*
X047608Y010798D02*
X047788Y010798D01*
X047788Y010956D02*
X047608Y010956D01*
X047514Y011115D02*
X047883Y011115D01*
X047932Y010164D02*
X047465Y010164D01*
X047608Y010005D02*
X047788Y010005D01*
X047788Y009847D02*
X047608Y009847D01*
X047608Y009688D02*
X047788Y009688D01*
X047940Y009530D02*
X047457Y009530D01*
X049323Y017930D02*
X039620Y017930D01*
X039905Y018089D02*
X049323Y018089D01*
X049323Y018247D02*
X040064Y018247D01*
X040222Y018406D02*
X049323Y018406D01*
X049323Y018564D02*
X040381Y018564D01*
X040539Y018723D02*
X049323Y018723D01*
X049323Y018881D02*
X040698Y018881D01*
X030563Y029818D02*
X018525Y029818D01*
X018793Y029976D02*
X023698Y029976D01*
X023729Y029946D02*
X024168Y029946D01*
X024478Y030256D01*
X024478Y030695D01*
X024168Y031006D01*
X023729Y031006D01*
X023418Y030695D01*
X023418Y030256D01*
X023729Y029946D01*
X023540Y030135D02*
X018924Y030135D01*
X018989Y030293D02*
X023418Y030293D01*
X023418Y030452D02*
X019008Y030452D01*
X019008Y030610D02*
X023418Y030610D01*
X023492Y030769D02*
X019008Y030769D01*
X019008Y030927D02*
X023650Y030927D01*
X024246Y030927D02*
X027650Y030927D01*
X027729Y031006D02*
X027418Y030695D01*
X027418Y030256D01*
X027729Y029946D01*
X028168Y029946D01*
X028478Y030256D01*
X028478Y030695D01*
X028168Y031006D01*
X027729Y031006D01*
X027492Y030769D02*
X024405Y030769D01*
X024478Y030610D02*
X027418Y030610D01*
X027418Y030452D02*
X024478Y030452D01*
X024478Y030293D02*
X027418Y030293D01*
X027540Y030135D02*
X024357Y030135D01*
X024198Y029976D02*
X027698Y029976D01*
X028198Y029976D02*
X030563Y029976D01*
X030563Y030135D02*
X028357Y030135D01*
X028478Y030293D02*
X030563Y030293D01*
X030563Y030452D02*
X028478Y030452D01*
X028478Y030610D02*
X030563Y030610D01*
X030563Y030769D02*
X028405Y030769D01*
X028246Y030927D02*
X030563Y030927D01*
X030563Y031086D02*
X019008Y031086D01*
X019008Y031244D02*
X030563Y031244D01*
X030633Y031403D02*
X019008Y031403D01*
X019008Y031561D02*
X030791Y031561D01*
X031577Y034097D02*
X028319Y034097D01*
X028478Y034256D02*
X028478Y034695D01*
X028198Y034976D01*
X031699Y034976D01*
X031418Y034695D01*
X031418Y034256D01*
X031418Y034414D02*
X028478Y034414D01*
X028478Y034573D02*
X031418Y034573D01*
X031454Y034731D02*
X028442Y034731D01*
X028284Y034890D02*
X031613Y034890D01*
X027699Y034976D02*
X027418Y034695D01*
X027418Y034256D01*
X027418Y034414D02*
X024478Y034414D01*
X024478Y034256D02*
X024478Y034695D01*
X024198Y034976D01*
X027699Y034976D01*
X027613Y034890D02*
X024284Y034890D01*
X024442Y034731D02*
X027454Y034731D01*
X027418Y034573D02*
X024478Y034573D01*
X024319Y034097D02*
X027577Y034097D01*
X023613Y034890D02*
X016090Y034890D01*
X016249Y034731D02*
X023454Y034731D01*
X023418Y034573D02*
X016268Y034573D01*
X016268Y034414D02*
X023418Y034414D01*
X023419Y034256D02*
X016268Y034256D01*
X016126Y034097D02*
X023577Y034097D01*
X021352Y033463D02*
X021295Y033463D01*
X021295Y033605D02*
X020975Y033605D01*
X020929Y033593D01*
X020888Y033569D01*
X020855Y033536D01*
X020831Y033495D01*
X020819Y033449D01*
X020819Y033129D01*
X021295Y033129D01*
X021295Y033605D01*
X021295Y033305D02*
X021352Y033305D01*
X021352Y033146D02*
X021295Y033146D01*
X021295Y033072D02*
X020819Y033072D01*
X020819Y032752D01*
X020831Y032706D01*
X020855Y032665D01*
X020888Y032632D01*
X020929Y032608D01*
X020975Y032596D01*
X021295Y032596D01*
X021295Y033072D01*
X021295Y032988D02*
X021352Y032988D01*
X021352Y032829D02*
X021295Y032829D01*
X021295Y032671D02*
X021352Y032671D01*
X020851Y032671D02*
X020551Y032671D01*
X020516Y032636D02*
X020788Y032908D01*
X020788Y033293D01*
X020516Y033565D01*
X020131Y033565D01*
X019859Y033293D01*
X019859Y032908D01*
X020131Y032636D01*
X020516Y032636D01*
X020709Y032829D02*
X020819Y032829D01*
X020819Y032988D02*
X020788Y032988D01*
X020788Y033146D02*
X020819Y033146D01*
X020819Y033305D02*
X020777Y033305D01*
X020822Y033463D02*
X020618Y033463D01*
X020029Y033463D02*
X019618Y033463D01*
X019777Y033305D02*
X019870Y033305D01*
X019859Y033146D02*
X019788Y033146D01*
X019788Y032988D02*
X019859Y032988D01*
X019938Y032829D02*
X019709Y032829D01*
X019551Y032671D02*
X020096Y032671D01*
X019096Y032671D02*
X019008Y032671D01*
X019029Y033463D02*
X018915Y033463D01*
X005748Y029184D02*
X004730Y029184D01*
X004841Y029342D02*
X005589Y029342D01*
X005431Y029501D02*
X004865Y029501D01*
X004820Y029659D02*
X005272Y029659D01*
X004957Y032512D02*
X004440Y032512D01*
X004598Y032671D02*
X004799Y032671D01*
X004788Y032829D02*
X004608Y032829D01*
X004608Y032988D02*
X004788Y032988D01*
X004914Y033146D02*
X004483Y033146D01*
X015947Y016028D02*
X016393Y016028D01*
X016293Y015870D02*
X016061Y015870D01*
X016088Y015711D02*
X016268Y015711D01*
X016268Y015553D02*
X016088Y015553D01*
X016088Y015394D02*
X016268Y015394D01*
X016268Y015236D02*
X016088Y015236D01*
X016059Y015077D02*
X016295Y015077D01*
X016397Y014919D02*
X015943Y014919D01*
X016698Y014919D02*
X016698Y014919D01*
X016698Y015077D02*
X016698Y015077D01*
X016698Y015236D02*
X016698Y015236D01*
X016698Y015394D02*
X016698Y015394D01*
X016698Y015553D02*
X016698Y015553D01*
X016698Y015711D02*
X016698Y015711D01*
X016698Y015870D02*
X016698Y015870D01*
X016698Y016028D02*
X016698Y016028D01*
X007912Y011907D02*
X003073Y011907D01*
X003073Y011749D02*
X007714Y011749D01*
X007623Y011590D02*
X003073Y011590D01*
X003073Y011432D02*
X007575Y011432D01*
X004883Y011115D02*
X004514Y011115D01*
X004608Y010956D02*
X004788Y010956D01*
X004788Y010798D02*
X004608Y010798D01*
X004567Y010639D02*
X004830Y010639D01*
X004989Y010481D02*
X004408Y010481D01*
X004465Y010164D02*
X004932Y010164D01*
X004788Y010005D02*
X004608Y010005D01*
X004608Y009847D02*
X004788Y009847D01*
X004788Y009688D02*
X004608Y009688D01*
X004457Y009530D02*
X004940Y009530D01*
D34*
X044698Y024226D03*
X044698Y025226D03*
X044698Y026226D03*
M02*
