G75*
G70*
%OFA0B0*%
%FSLAX24Y24*%
%IPPOS*%
%LPD*%
%AMOC8*
5,1,8,0,0,1.08239X$1,22.5*
%
%ADD10C,0.0650*%
%ADD11OC8,0.0480*%
%ADD12C,0.0531*%
%ADD13C,0.0480*%
%ADD14C,0.0500*%
%ADD15C,0.0540*%
%ADD16OC8,0.0540*%
%ADD17OC8,0.0472*%
%ADD18C,0.0472*%
%ADD19OC8,0.0780*%
%ADD20OC8,0.0650*%
%ADD21R,0.0650X0.0650*%
%ADD22C,0.0660*%
%ADD23OC8,0.0850*%
%ADD24R,0.0945X0.0945*%
%ADD25C,0.0290*%
%ADD26C,0.0240*%
%ADD27OC8,0.0945*%
%ADD28C,0.1090*%
%ADD29C,0.0376*%
%ADD30C,0.0500*%
%ADD31R,0.0531X0.0531*%
%ADD32OC8,0.0531*%
D10*
X029073Y007428D02*
X029073Y008078D01*
X029073Y020208D02*
X029073Y020857D01*
D11*
X020698Y021323D03*
X020698Y018323D03*
X020698Y017073D03*
X018698Y017073D03*
X016698Y017073D03*
X014698Y017073D03*
X012198Y016823D03*
X011198Y014823D03*
X009198Y014823D03*
X009198Y012823D03*
X011198Y012823D03*
X013198Y014823D03*
X014198Y014823D03*
X018698Y014073D03*
X020698Y014073D03*
X020698Y012823D03*
X018698Y012323D03*
X018698Y010323D03*
X020698Y009823D03*
X028698Y005823D03*
X029698Y005823D03*
X033698Y008198D03*
X035698Y008198D03*
X037198Y010698D03*
X037198Y011698D03*
X040698Y006698D03*
X043698Y006698D03*
X044698Y004448D03*
X045698Y004448D03*
X011198Y009823D03*
X009198Y009823D03*
X009198Y016823D03*
D12*
X010198Y007698D03*
X011198Y007698D03*
X017198Y007698D03*
X018198Y007698D03*
X024198Y007698D03*
X025198Y007698D03*
X040948Y024773D03*
X041948Y024773D03*
D13*
X047037Y024698D02*
X047517Y024698D01*
X048037Y023698D02*
X048517Y023698D01*
X047517Y022698D02*
X047037Y022698D01*
X018698Y022063D02*
X018698Y021583D01*
X017698Y021583D02*
X017698Y022063D01*
X016698Y022063D02*
X016698Y021583D01*
X015698Y021583D02*
X015698Y022063D01*
X014698Y022063D02*
X014698Y021583D01*
X013698Y021583D02*
X013698Y022063D01*
X012698Y022063D02*
X012698Y021583D01*
X012698Y019063D02*
X012698Y018583D01*
X013698Y018583D02*
X013698Y019063D01*
X014698Y019063D02*
X014698Y018583D01*
X015698Y018583D02*
X015698Y019063D01*
X016698Y019063D02*
X016698Y018583D01*
X017698Y018583D02*
X017698Y019063D01*
X018698Y019063D02*
X018698Y018583D01*
X005485Y018573D02*
X005005Y018573D01*
X004485Y019573D02*
X004005Y019573D01*
X005005Y020573D02*
X005485Y020573D01*
X005485Y022823D02*
X005005Y022823D01*
X004485Y023823D02*
X004005Y023823D01*
X005005Y024823D02*
X005485Y024823D01*
X005485Y016448D02*
X005005Y016448D01*
X004485Y015448D02*
X004005Y015448D01*
X005005Y014448D02*
X005485Y014448D01*
D14*
X013698Y013073D02*
X013698Y012573D01*
X014698Y012573D02*
X014698Y013073D01*
X015698Y013073D02*
X015698Y012573D01*
X016698Y012573D02*
X016698Y013073D01*
X016698Y010073D02*
X016698Y009573D01*
X015698Y009573D02*
X015698Y010073D01*
X014698Y010073D02*
X014698Y009573D01*
X013698Y009573D02*
X013698Y010073D01*
D15*
X022573Y009803D02*
X022573Y010343D01*
X023573Y010343D02*
X023573Y009803D01*
X023573Y012053D02*
X023573Y012593D01*
X022573Y012593D02*
X022573Y012053D01*
X022573Y014178D02*
X022573Y014718D01*
X023573Y014718D02*
X023573Y014178D01*
X023573Y016428D02*
X023573Y016968D01*
X022573Y016968D02*
X022573Y016428D01*
X044428Y016573D02*
X044968Y016573D01*
X044968Y017573D02*
X044428Y017573D01*
D16*
X004198Y004198D03*
X005198Y004198D03*
X005198Y005198D03*
X004198Y005198D03*
X025448Y009948D03*
X026448Y009948D03*
X026448Y010948D03*
X025448Y010948D03*
X025448Y011948D03*
X026448Y011948D03*
X026448Y013573D03*
X025448Y013573D03*
X025448Y014573D03*
X026448Y014573D03*
X026448Y015573D03*
X025448Y015573D03*
X005198Y027198D03*
X004198Y027198D03*
X004198Y028198D03*
X005198Y028198D03*
X047198Y028198D03*
X048198Y028198D03*
X048198Y027198D03*
X047198Y027198D03*
X047198Y005198D03*
X048198Y005198D03*
X048198Y004198D03*
X047198Y004198D03*
D17*
X041448Y003698D03*
X040448Y003698D03*
X039448Y003698D03*
X034198Y003698D03*
X034198Y004698D03*
X034198Y005698D03*
X032198Y005698D03*
X032198Y004698D03*
X032198Y003698D03*
D18*
X032198Y001698D03*
X034198Y001698D03*
X039448Y001698D03*
X041448Y001698D03*
D19*
X035948Y024823D03*
X031948Y024823D03*
X027948Y024823D03*
X023948Y024823D03*
X023948Y028823D03*
X027948Y028823D03*
X031948Y028823D03*
X035948Y028823D03*
X015698Y028823D03*
X011698Y028823D03*
X011698Y024823D03*
X015698Y024823D03*
D20*
X018323Y027448D03*
X019323Y027448D03*
X020323Y027448D03*
X007698Y027323D03*
X004948Y010573D03*
X004948Y009573D03*
X004948Y008573D03*
X004948Y007573D03*
X047573Y019073D03*
X047573Y020073D03*
D21*
X047573Y018073D03*
X021323Y027448D03*
X008698Y027323D03*
X004948Y011573D03*
D22*
X033573Y014368D02*
X033573Y015028D01*
X034573Y015028D02*
X034573Y014368D01*
X035573Y014368D02*
X035573Y015028D01*
X041198Y016368D02*
X041198Y017028D01*
X042198Y017028D02*
X042198Y016368D01*
X043198Y016368D02*
X043198Y017028D01*
D23*
X029198Y003598D03*
D24*
X009688Y019198D03*
X008348Y019198D03*
X008348Y024498D03*
X009688Y024498D03*
D25*
X008323Y023073D03*
X007573Y022323D03*
X006323Y021323D03*
X006823Y018573D03*
X006823Y016948D03*
X010948Y019198D03*
X011573Y019323D03*
X014323Y019573D03*
X017073Y017573D03*
X019823Y017698D03*
X019573Y019073D03*
X018823Y020573D03*
X023073Y021823D03*
X024073Y020073D03*
X023698Y019698D03*
X024198Y019073D03*
X024198Y016698D03*
X027073Y016073D03*
X029573Y014198D03*
X030948Y013698D03*
X032323Y014073D03*
X034823Y013073D03*
X037573Y015323D03*
X034323Y016323D03*
X033323Y016573D03*
X032823Y018073D03*
X032323Y018698D03*
X031323Y018698D03*
X031323Y016573D03*
X035573Y018073D03*
X036823Y017823D03*
X039198Y022073D03*
X039573Y024573D03*
X038698Y025823D03*
X034073Y025823D03*
X031323Y025823D03*
X030823Y022323D03*
X031948Y022323D03*
X019823Y015448D03*
X017573Y011948D03*
X015073Y011573D03*
X011823Y011573D03*
X008073Y012073D03*
X010573Y014073D03*
X012573Y014073D03*
X012573Y015698D03*
X011573Y016823D03*
X014073Y016823D03*
X023573Y011073D03*
X022823Y008823D03*
X021323Y006573D03*
X024323Y005323D03*
X028323Y008323D03*
X031823Y006323D03*
X030823Y005323D03*
X030573Y004323D03*
X031073Y003073D03*
X037823Y006323D03*
X034573Y009073D03*
X033573Y009073D03*
X030573Y011448D03*
X037573Y009573D03*
X038323Y010323D03*
X041823Y013823D03*
X045323Y015823D03*
X044073Y009573D03*
X044073Y007948D03*
X038573Y002823D03*
X019323Y009323D03*
X014073Y005323D03*
X012823Y006573D03*
X015573Y003823D03*
X045323Y022073D03*
D26*
X039198Y022073D01*
X036823Y023073D02*
X036823Y017823D01*
X035573Y018073D02*
X035573Y018448D01*
X034948Y019073D01*
X033198Y019073D01*
X032573Y019698D01*
X032573Y022573D01*
X032198Y022948D01*
X030948Y022948D01*
X029823Y024073D01*
X025573Y024073D01*
X024823Y024823D01*
X023948Y024823D01*
X021573Y026073D02*
X029698Y026073D01*
X030948Y024823D01*
X031948Y024823D01*
X031823Y024823D01*
X031323Y025823D02*
X034073Y025823D01*
X032948Y023948D02*
X035948Y023948D01*
X036823Y023073D01*
X039573Y024573D02*
X040323Y025323D01*
X045573Y025323D01*
X046323Y024573D01*
X046323Y021323D01*
X047573Y020073D01*
X048323Y019823D02*
X047573Y019073D01*
X047573Y018073D02*
X047573Y012323D01*
X041323Y006073D01*
X040573Y006073D01*
X039823Y006823D01*
X030323Y006823D01*
X029948Y006323D01*
X029073Y006323D01*
X028698Y005823D02*
X028323Y006198D01*
X028323Y006573D01*
X028573Y006823D01*
X029573Y006823D01*
X030573Y008073D01*
X033573Y008073D01*
X033698Y008198D01*
X033823Y008323D01*
X034073Y008323D01*
X034073Y013073D01*
X035573Y014573D01*
X035573Y014698D01*
X034573Y014698D02*
X034573Y014573D01*
X033823Y015823D02*
X033073Y015823D01*
X030948Y013698D01*
X031573Y013573D02*
X031823Y013573D01*
X032323Y014073D01*
X031573Y013573D02*
X028698Y010823D01*
X028698Y010448D01*
X027573Y009323D01*
X025323Y009323D01*
X023573Y011073D01*
X023073Y010573D02*
X023573Y010073D01*
X023073Y010573D02*
X023073Y012823D01*
X022573Y013323D01*
X022573Y014448D01*
X023573Y014448D02*
X023573Y014823D01*
X023073Y015323D01*
X022073Y015323D01*
X021323Y014573D01*
X021323Y012198D01*
X020698Y011573D01*
X015073Y011573D01*
X015073Y011948D02*
X015698Y012573D01*
X015698Y012823D01*
X016573Y012823D02*
X016698Y012823D01*
X016698Y013198D01*
X013073Y016823D01*
X012198Y016823D01*
X011573Y016823D02*
X011573Y015198D01*
X011198Y014823D01*
X010573Y014073D02*
X012573Y014073D01*
X012573Y015698D01*
X014073Y014823D02*
X014198Y014823D01*
X014073Y014823D02*
X012073Y012823D01*
X011323Y012823D01*
X011198Y012823D01*
X011073Y012823D01*
X009073Y014823D01*
X009198Y014823D01*
X008823Y015323D02*
X008573Y015073D01*
X008573Y010698D01*
X008823Y010448D01*
X012323Y010448D01*
X012573Y010698D01*
X014698Y010698D01*
X014698Y009823D01*
X014698Y010698D02*
X018323Y010698D01*
X018698Y010323D01*
X020073Y010323D01*
X020573Y009823D01*
X020698Y009823D01*
X019323Y009323D02*
X017323Y009323D01*
X016823Y008823D01*
X013198Y008823D01*
X012698Y009323D01*
X011948Y009323D01*
X011448Y009823D01*
X011198Y009823D01*
X010323Y008823D02*
X012448Y008823D01*
X012948Y008323D01*
X017073Y008323D01*
X017573Y008823D01*
X022823Y008823D01*
X033323Y008823D01*
X033573Y009073D01*
X034573Y009073D02*
X037073Y009073D01*
X037573Y009573D01*
X038323Y010323D02*
X041823Y013823D01*
X043823Y014323D02*
X037073Y014323D01*
X034323Y017073D01*
X028198Y017073D01*
X028073Y016948D01*
X028073Y014323D01*
X026823Y013073D01*
X025073Y013073D01*
X024823Y013323D01*
X024823Y014323D01*
X025073Y014573D01*
X025448Y014573D01*
X026448Y013573D02*
X026573Y013573D01*
X027573Y014573D01*
X027573Y016198D01*
X027198Y016573D01*
X025323Y016573D01*
X022823Y019073D01*
X019573Y019073D01*
X019573Y018198D02*
X018698Y017323D01*
X018698Y017073D01*
X018698Y017198D01*
X019823Y017698D02*
X019823Y015448D01*
X019698Y014948D02*
X017073Y017573D01*
X016073Y017073D02*
X016073Y016323D01*
X017698Y014698D01*
X018948Y014698D01*
X019948Y013698D01*
X019948Y013198D01*
X020323Y012823D01*
X020698Y012823D01*
X021573Y011073D02*
X011573Y011073D01*
X011323Y011323D01*
X011323Y012823D01*
X011823Y011573D02*
X014323Y011573D01*
X014698Y011948D01*
X015073Y011948D01*
X017573Y011948D02*
X017573Y013323D01*
X014073Y016823D01*
X014448Y017073D02*
X014698Y017073D01*
X014448Y017073D02*
X014198Y017323D01*
X011323Y017323D01*
X011073Y017073D01*
X011073Y016823D01*
X009573Y015323D01*
X008823Y015323D01*
X006823Y016948D02*
X006823Y012948D01*
X007698Y012073D01*
X008073Y012073D01*
X005573Y012323D02*
X004573Y012323D01*
X004323Y012073D01*
X004323Y010198D01*
X004948Y009573D01*
X005573Y010073D02*
X007073Y010073D01*
X009323Y007823D01*
X010073Y007823D01*
X010198Y007698D01*
X010823Y007073D01*
X026073Y007073D01*
X027823Y005323D01*
X030073Y005323D01*
X030573Y005823D01*
X032073Y005823D01*
X032198Y005698D01*
X031948Y005198D02*
X031448Y004698D01*
X031448Y003573D01*
X032073Y003573D01*
X032198Y003698D01*
X031448Y003573D02*
X029323Y003573D01*
X029198Y003598D01*
X029073Y003823D01*
X015573Y003823D01*
X014073Y005323D02*
X012823Y006573D01*
X012823Y007698D02*
X017198Y007698D01*
X017823Y008323D01*
X028323Y008323D01*
X026448Y009948D02*
X033073Y016573D01*
X033323Y016573D01*
X033823Y015823D02*
X034323Y016323D01*
X035323Y017573D02*
X037573Y015323D01*
X040073Y016948D02*
X040948Y017823D01*
X043073Y017823D01*
X043198Y017698D01*
X043198Y016698D01*
X045323Y015823D02*
X043823Y014323D01*
X044073Y013823D02*
X044073Y009573D01*
X044073Y007948D02*
X041573Y005448D01*
X041573Y003823D01*
X041448Y003698D01*
X041323Y003573D01*
X041323Y002698D01*
X041198Y002573D01*
X038823Y002573D01*
X038573Y002823D01*
X039448Y003698D02*
X034948Y003698D01*
X034323Y003073D01*
X031073Y003073D01*
X030573Y004323D02*
X008323Y004323D01*
X005073Y007573D01*
X004948Y007573D01*
X004948Y008573D02*
X003323Y010198D01*
X003323Y020573D01*
X005245Y020573D01*
X006323Y021323D02*
X006323Y019073D01*
X006823Y018573D01*
X006448Y017698D02*
X015448Y017698D01*
X016073Y017073D01*
X014698Y018823D02*
X014698Y019198D01*
X015073Y019573D01*
X023073Y019573D01*
X025573Y017073D01*
X028198Y017073D01*
X027573Y017573D02*
X026073Y019073D01*
X024198Y019073D01*
X023698Y019698D02*
X026198Y019698D01*
X027823Y018073D01*
X032823Y018073D01*
X032323Y018698D02*
X032323Y019073D01*
X031948Y019448D01*
X031948Y022323D01*
X030823Y022323D02*
X030823Y021323D01*
X031323Y020823D01*
X031323Y018698D01*
X031323Y016573D02*
X027323Y012573D01*
X026073Y012573D01*
X025448Y011948D01*
X026448Y011948D02*
X027323Y011948D01*
X029573Y014198D01*
X027073Y016073D02*
X024323Y016073D01*
X024073Y015823D01*
X021948Y015823D01*
X021073Y014948D01*
X019698Y014948D01*
X022573Y016698D02*
X022573Y017323D01*
X022823Y017573D01*
X023823Y017573D01*
X024198Y017198D01*
X024198Y016698D01*
X025448Y015573D02*
X026448Y015573D01*
X027573Y017573D02*
X035323Y017573D01*
X034823Y013073D02*
X037198Y010698D01*
X040573Y007323D01*
X040573Y006823D01*
X040698Y006698D01*
X037823Y006323D02*
X040448Y003698D01*
X037823Y006323D02*
X031823Y006323D01*
X031948Y005198D02*
X033323Y005198D01*
X033823Y005698D01*
X034198Y005698D01*
X033073Y003823D02*
X032198Y004698D01*
X033073Y003823D02*
X034073Y003823D01*
X034198Y003698D01*
X030823Y005323D02*
X030323Y004823D01*
X025573Y004823D01*
X023823Y006573D01*
X021323Y006573D01*
X023823Y004823D02*
X010323Y004823D01*
X006573Y008573D01*
X004948Y008573D01*
X005573Y010073D02*
X005073Y010573D01*
X004948Y010573D01*
X005573Y012323D02*
X009573Y008323D01*
X012198Y008323D01*
X012823Y007698D01*
X010323Y008823D02*
X009323Y009823D01*
X009198Y009823D01*
X005245Y016448D02*
X005323Y016573D01*
X006448Y017698D01*
X004448Y018073D02*
X004198Y018323D01*
X004198Y019527D01*
X004245Y019573D01*
X004323Y019573D01*
X003323Y020573D02*
X003323Y023823D01*
X003823Y024323D01*
X006448Y024323D01*
X010323Y020573D01*
X018823Y020573D01*
X019198Y020948D02*
X017073Y020948D01*
X016698Y021323D01*
X016698Y021823D01*
X017698Y021823D02*
X018698Y021823D01*
X019198Y020948D02*
X020198Y021948D01*
X022198Y021948D01*
X024073Y020073D01*
X023073Y021823D02*
X022198Y022698D01*
X009323Y022698D01*
X008948Y023073D01*
X008323Y023073D01*
X007573Y022323D02*
X005823Y022323D01*
X005323Y022823D01*
X005245Y022823D01*
X004323Y022448D02*
X004323Y023745D01*
X004245Y023823D01*
X004323Y023823D01*
X004323Y022448D02*
X005073Y021698D01*
X008448Y021698D01*
X010948Y019198D01*
X011573Y019323D02*
X011573Y019698D01*
X011948Y020073D01*
X019323Y020073D01*
X020573Y021323D01*
X020698Y021323D01*
X019948Y018198D02*
X019573Y018198D01*
X019948Y018198D02*
X020448Y017698D01*
X022198Y017698D01*
X022573Y017323D01*
X014323Y019573D02*
X012323Y019573D01*
X012073Y019323D01*
X012073Y018323D01*
X011823Y018073D01*
X004448Y018073D01*
X019323Y027323D02*
X021073Y025573D01*
X029573Y025573D01*
X031448Y023698D01*
X032698Y023698D01*
X032948Y023948D01*
X038698Y025823D02*
X045948Y025823D01*
X047073Y024698D01*
X047277Y024698D01*
X048277Y023698D02*
X048323Y023573D01*
X048323Y019823D01*
X045823Y023948D02*
X044948Y024823D01*
X041998Y024823D01*
X041948Y024773D01*
X045823Y023948D02*
X045823Y015573D01*
X044073Y013823D01*
X043698Y006698D02*
X044573Y005823D01*
X044573Y004573D01*
X044698Y004448D01*
X043823Y006573D02*
X043698Y006698D01*
X024323Y005323D02*
X023823Y004823D01*
X022573Y010073D02*
X021573Y011073D01*
X021573Y026073D02*
X020323Y027323D01*
X020323Y027448D01*
D27*
X018323Y024823D03*
X012448Y023573D03*
X033323Y011448D03*
X029573Y009698D03*
D28*
X029573Y010448D01*
X030573Y011448D01*
X033323Y011448D01*
X037698Y016948D02*
X039573Y015073D01*
X041948Y015073D01*
X042198Y015323D01*
X042198Y016698D01*
X037698Y016948D02*
X037698Y025573D01*
X035573Y027698D01*
X027948Y027698D01*
X027948Y028823D01*
X027948Y027698D02*
X022948Y027698D01*
X021823Y028823D01*
X020073Y028823D01*
X019323Y028073D01*
X019323Y027448D01*
X018323Y024823D02*
X018323Y023573D01*
X022698Y023573D01*
X023948Y024823D01*
X018323Y023573D02*
X012448Y023573D01*
X011698Y024823D02*
X011248Y024498D01*
X009688Y024498D01*
X008348Y024498D01*
X007698Y025148D01*
X007698Y026198D01*
X007698Y027323D01*
X007698Y026198D02*
X004573Y026198D01*
X004198Y026573D01*
X004198Y027198D01*
D29*
X029073Y006323D03*
X040073Y016948D03*
D30*
X039698Y018573D03*
X040698Y018573D03*
X041698Y018573D03*
X042698Y018573D03*
X043698Y018573D03*
X043698Y019573D03*
X042698Y019573D03*
X041698Y019573D03*
X040698Y019573D03*
X039698Y019573D03*
X039698Y020573D03*
X040698Y020573D03*
X041698Y020573D03*
X042698Y020573D03*
X043698Y020573D03*
X043698Y021573D03*
X042698Y021573D03*
X041698Y021573D03*
X040698Y021573D03*
X039698Y021573D03*
X039698Y022573D03*
X040698Y022573D03*
X041698Y022573D03*
X042698Y022573D03*
X043698Y022573D03*
X044698Y022573D03*
X044698Y021573D03*
X044698Y023573D03*
X043698Y023573D03*
X042698Y023573D03*
X041698Y023573D03*
X040698Y023573D03*
X039698Y023573D03*
D31*
X038698Y023573D03*
X038698Y022573D03*
X038698Y021573D03*
X038698Y020573D03*
X038698Y019573D03*
X038698Y018573D03*
D32*
X044698Y018573D03*
X044698Y019573D03*
X044698Y020573D03*
M02*
