G75*
G70*
%OFA0B0*%
%FSLAX24Y24*%
%IPPOS*%
%LPD*%
%AMOC8*
5,1,8,0,0,1.08239X$1,22.5*
%
%ADD10C,0.0100*%
%ADD11C,0.0030*%
%ADD12C,0.0040*%
%ADD13C,0.0060*%
%ADD14C,0.0050*%
%ADD15R,0.0320X0.0760*%
%ADD16C,0.0120*%
%ADD17C,0.0080*%
%ADD18C,0.0070*%
%ADD19R,0.0250X0.0500*%
%ADD20R,0.0100X0.0200*%
%ADD21C,0.0020*%
%ADD22R,0.0300X0.0250*%
%ADD23R,0.0500X0.1100*%
%ADD24C,0.0000*%
D10*
X044503Y004051D02*
X044533Y004003D01*
X044566Y003958D01*
X044602Y003915D01*
X044640Y003874D01*
X044682Y003837D01*
X044726Y003802D01*
X044772Y003771D01*
X044821Y003742D01*
X044871Y003718D01*
X044923Y003697D01*
X044977Y003679D01*
X045031Y003666D01*
X045086Y003656D01*
X045142Y003650D01*
X045198Y003648D01*
X044492Y004824D02*
X044519Y004871D01*
X044549Y004916D01*
X044582Y004959D01*
X044618Y004999D01*
X044657Y005037D01*
X044698Y005072D01*
X044741Y005105D01*
X044786Y005134D01*
X044834Y005160D01*
X044883Y005183D01*
X044933Y005203D01*
X044984Y005219D01*
X045037Y005232D01*
X045090Y005241D01*
X045144Y005246D01*
X045198Y005248D01*
X045809Y003931D02*
X045773Y003892D01*
X045734Y003854D01*
X045694Y003820D01*
X045651Y003788D01*
X045606Y003760D01*
X045559Y003734D01*
X045510Y003711D01*
X045460Y003692D01*
X045409Y003676D01*
X045357Y003664D01*
X045305Y003655D01*
X045251Y003650D01*
X045198Y003648D01*
X045813Y004960D02*
X045777Y005000D01*
X045738Y005038D01*
X045697Y005073D01*
X045654Y005105D01*
X045609Y005135D01*
X045562Y005161D01*
X045513Y005183D01*
X045462Y005203D01*
X045411Y005219D01*
X045359Y005232D01*
X045305Y005241D01*
X045252Y005246D01*
X045198Y005248D01*
X047073Y013073D02*
X047198Y013198D01*
X047323Y013073D01*
X047198Y013198D02*
X047198Y015073D01*
X046948Y015448D01*
X046948Y015573D01*
X046823Y015573D01*
X046698Y015698D01*
X046698Y015823D01*
X046448Y015823D01*
X046698Y015948D02*
X046698Y016073D01*
X046448Y016198D01*
X046698Y015948D02*
X046823Y015948D01*
X046948Y015823D01*
X046948Y015698D01*
X047073Y015698D01*
X047073Y015573D01*
X047198Y015573D01*
X047198Y015698D01*
X047073Y015823D01*
X047198Y015948D01*
X047198Y016073D01*
X047323Y016198D01*
X047448Y016323D01*
X047323Y016198D02*
X047198Y016323D01*
X047573Y015948D02*
X047698Y015948D01*
X047698Y016073D01*
X047823Y016198D01*
X047573Y015948D02*
X047448Y015823D01*
X047448Y015698D01*
X047323Y015698D01*
X047323Y015573D01*
X047448Y015448D01*
X047448Y015573D01*
X047573Y015573D01*
X047698Y015698D01*
X047698Y015823D01*
X047823Y015823D01*
X047823Y015448D02*
X047698Y015448D01*
X047573Y015323D01*
X047448Y015323D01*
X047448Y015198D02*
X047323Y015198D01*
X047198Y015073D02*
X047448Y015448D01*
X047323Y015573D02*
X047198Y015573D01*
X047073Y015573D02*
X046948Y015448D01*
X046948Y015323D02*
X046823Y015323D01*
X046698Y015448D01*
X046448Y015448D01*
X046948Y015198D02*
X047073Y015198D01*
D11*
X048688Y014571D02*
X049058Y014571D01*
X049058Y014449D02*
X049058Y014264D01*
X048997Y014203D01*
X048873Y014203D01*
X048812Y014264D01*
X048812Y014449D01*
X048873Y014571D02*
X048812Y014633D01*
X048812Y014756D01*
X048873Y014818D01*
X049058Y014818D01*
X048935Y014081D02*
X048935Y013834D01*
X048997Y013834D02*
X048873Y013834D01*
X048812Y013896D01*
X048812Y014019D01*
X048873Y014081D01*
X048935Y014081D01*
X049058Y014019D02*
X049058Y013896D01*
X048997Y013834D01*
X049058Y013589D02*
X048688Y013589D01*
X048688Y013466D02*
X048688Y013713D01*
X048873Y012976D02*
X049058Y012976D01*
X049058Y012791D01*
X048997Y012729D01*
X048935Y012791D01*
X048935Y012976D01*
X048873Y012976D02*
X048812Y012914D01*
X048812Y012791D01*
X048812Y012545D02*
X049058Y012545D01*
X049058Y012484D02*
X049058Y012607D01*
X049058Y012362D02*
X049058Y012177D01*
X048997Y012115D01*
X048873Y012115D01*
X048812Y012177D01*
X048812Y012362D01*
X049120Y012362D01*
X049182Y012301D01*
X049182Y012239D01*
X048812Y012484D02*
X048812Y012545D01*
X048688Y012545D02*
X048626Y012545D01*
X048183Y012485D02*
X048183Y012238D01*
X048183Y012362D02*
X047813Y012362D01*
X047937Y012238D01*
X047875Y012117D02*
X048122Y011870D01*
X048183Y011932D01*
X048183Y012055D01*
X048122Y012117D01*
X047875Y012117D01*
X047813Y012055D01*
X047813Y011932D01*
X047875Y011870D01*
X048122Y011870D01*
X048183Y011748D02*
X048183Y011502D01*
X047937Y011748D01*
X047875Y011748D01*
X047813Y011687D01*
X047813Y011563D01*
X047875Y011502D01*
X047308Y011441D02*
X047308Y011318D01*
X047247Y011256D01*
X047123Y011256D01*
X047062Y011318D01*
X047062Y011441D01*
X047123Y011503D01*
X047185Y011503D01*
X047185Y011256D01*
X047308Y011134D02*
X047308Y011010D01*
X047308Y011072D02*
X046938Y011072D01*
X046938Y011010D01*
X047062Y010889D02*
X047308Y010889D01*
X047308Y010704D01*
X047247Y010642D01*
X047062Y010642D01*
X047062Y010521D02*
X047062Y010336D01*
X047123Y010274D01*
X047247Y010274D01*
X047308Y010336D01*
X047308Y010521D01*
X046938Y010521D01*
X047123Y010152D02*
X047062Y010091D01*
X047062Y009967D01*
X047123Y009906D01*
X047247Y009906D01*
X047308Y009967D01*
X047308Y010091D01*
X047247Y010152D01*
X047123Y010152D01*
X046938Y009784D02*
X047308Y009784D01*
X047308Y009537D02*
X046938Y009537D01*
X047062Y009661D01*
X046938Y009784D01*
X047937Y009845D02*
X047998Y009907D01*
X048183Y009907D01*
X048183Y009722D01*
X048122Y009660D01*
X048060Y009722D01*
X048060Y009907D01*
X047937Y009845D02*
X047937Y009722D01*
X047998Y009539D02*
X048183Y009539D01*
X048183Y009415D02*
X047998Y009415D01*
X047937Y009477D01*
X047998Y009539D01*
X047998Y009415D02*
X047937Y009353D01*
X047937Y009292D01*
X048183Y009292D01*
X048122Y009170D02*
X047937Y009170D01*
X048122Y009170D02*
X048183Y009108D01*
X048122Y009047D01*
X048183Y008985D01*
X048122Y008923D01*
X047937Y008923D01*
X047998Y008802D02*
X048060Y008802D01*
X048060Y008555D01*
X048122Y008555D02*
X047998Y008555D01*
X047937Y008617D01*
X047937Y008740D01*
X047998Y008802D01*
X048183Y008740D02*
X048183Y008617D01*
X048122Y008555D01*
X048183Y008434D02*
X047813Y008434D01*
X047813Y008187D02*
X048183Y008434D01*
X048183Y008187D02*
X047813Y008187D01*
X047432Y008432D02*
X047062Y008432D01*
X047062Y008617D01*
X047123Y008679D01*
X047247Y008679D01*
X047308Y008617D01*
X047308Y008432D01*
X047247Y008311D02*
X047123Y008311D01*
X047062Y008249D01*
X047062Y008126D01*
X047123Y008064D01*
X047247Y008064D01*
X047308Y008126D01*
X047308Y008249D01*
X047247Y008311D01*
X047308Y007942D02*
X047308Y007818D01*
X047308Y007880D02*
X046938Y007880D01*
X046938Y007818D01*
X047062Y007697D02*
X047062Y007512D01*
X047123Y007450D01*
X047247Y007450D01*
X047308Y007512D01*
X047308Y007697D01*
X047308Y007329D02*
X047308Y007143D01*
X047247Y007082D01*
X047062Y007082D01*
X047000Y006960D02*
X046938Y006899D01*
X046938Y006775D01*
X047000Y006713D01*
X047247Y006713D01*
X047308Y006775D01*
X047308Y006899D01*
X047247Y006960D01*
X047432Y007205D02*
X047432Y007267D01*
X047370Y007329D01*
X047062Y007329D01*
X047813Y006960D02*
X047813Y006837D01*
X047813Y006899D02*
X048122Y006899D01*
X048183Y006837D01*
X048183Y006775D01*
X048122Y006713D01*
X048122Y007082D02*
X048183Y007143D01*
X048183Y007267D01*
X048122Y007329D01*
X047998Y007329D01*
X047937Y007267D01*
X047937Y007143D01*
X047998Y007082D01*
X048122Y007082D01*
X048183Y007450D02*
X047937Y007450D01*
X047937Y007635D01*
X047998Y007697D01*
X048183Y007697D01*
X048750Y007757D02*
X048997Y007757D01*
X049058Y007819D01*
X048997Y007941D02*
X048873Y007941D01*
X048812Y008003D01*
X048812Y008126D01*
X048873Y008188D01*
X048935Y008188D01*
X048935Y007941D01*
X048997Y007941D02*
X049058Y008003D01*
X049058Y008126D01*
X049058Y008309D02*
X048812Y008309D01*
X048935Y008309D02*
X048812Y008433D01*
X048812Y008495D01*
X048688Y008985D02*
X049058Y008985D01*
X049058Y009232D01*
X048997Y009353D02*
X048935Y009415D01*
X048935Y009600D01*
X048873Y009600D02*
X049058Y009600D01*
X049058Y009415D01*
X048997Y009353D01*
X048812Y009415D02*
X048812Y009538D01*
X048873Y009600D01*
X048812Y009721D02*
X048812Y009907D01*
X048873Y009968D01*
X048997Y009968D01*
X049058Y009907D01*
X049058Y009721D01*
X048688Y009721D01*
X048997Y010151D02*
X049058Y010151D01*
X049058Y010213D01*
X048997Y010213D01*
X048997Y010151D01*
X049058Y010213D02*
X049182Y010090D01*
X048997Y010704D02*
X049058Y010765D01*
X049058Y010889D01*
X048997Y010950D01*
X048873Y010950D01*
X048873Y010827D01*
X048750Y010950D02*
X048688Y010889D01*
X048688Y010765D01*
X048750Y010704D01*
X048997Y010704D01*
X048997Y011072D02*
X048873Y011072D01*
X048812Y011134D01*
X048812Y011257D01*
X048873Y011319D01*
X048935Y011319D01*
X048935Y011072D01*
X048997Y011072D02*
X049058Y011134D01*
X049058Y011257D01*
X048997Y011440D02*
X049058Y011502D01*
X049058Y011625D01*
X048997Y011687D01*
X048873Y011687D01*
X048812Y011625D01*
X048812Y011502D01*
X048873Y011440D01*
X048997Y011440D01*
X049058Y011808D02*
X048812Y011808D01*
X048935Y011808D02*
X048812Y011932D01*
X048812Y011994D01*
X048183Y012606D02*
X047937Y012853D01*
X047875Y012853D01*
X047813Y012792D01*
X047813Y012668D01*
X047875Y012606D01*
X048183Y012606D02*
X048183Y012853D01*
X047308Y012853D02*
X047247Y012915D01*
X047123Y012915D01*
X047062Y012853D01*
X047062Y012668D01*
X047062Y012546D02*
X047000Y012546D01*
X046938Y012485D01*
X046938Y012361D01*
X047000Y012300D01*
X047062Y012178D02*
X047062Y012116D01*
X047185Y011993D01*
X047308Y011993D02*
X047062Y011993D01*
X047308Y012300D02*
X047062Y012546D01*
X046938Y012668D02*
X047308Y012668D01*
X047308Y012853D01*
X047308Y012546D02*
X047308Y012300D01*
X047998Y011012D02*
X047998Y010765D01*
X047998Y010275D02*
X048183Y010275D01*
X047998Y010275D02*
X047937Y010213D01*
X047937Y010028D01*
X048183Y010028D01*
X047247Y009047D02*
X047185Y008986D01*
X047185Y008862D01*
X047123Y008801D01*
X047062Y008862D01*
X047062Y009047D01*
X047247Y009047D02*
X047308Y008986D01*
X047308Y008801D01*
X048812Y007819D02*
X048812Y007696D01*
X048812Y007574D02*
X048812Y007450D01*
X048750Y007512D02*
X048997Y007512D01*
X049058Y007574D01*
X048997Y007329D02*
X048873Y007329D01*
X048812Y007267D01*
X048812Y007143D01*
X048873Y007082D01*
X048997Y007082D01*
X049058Y007143D01*
X049058Y007267D01*
X048997Y007329D01*
X048873Y006960D02*
X048935Y006899D01*
X048935Y006713D01*
X049058Y006713D02*
X048688Y006713D01*
X048688Y006899D01*
X048750Y006960D01*
X048873Y006960D01*
D12*
X043840Y010718D02*
X043840Y010899D01*
X043780Y010959D01*
X043720Y010899D01*
X043720Y010718D01*
X043600Y010718D02*
X043600Y010959D01*
X043660Y010959D01*
X043720Y010899D01*
X043472Y010899D02*
X043472Y010718D01*
X043352Y010718D02*
X043352Y010899D01*
X043412Y010959D01*
X043472Y010899D01*
X043352Y010899D02*
X043292Y010959D01*
X043232Y010959D01*
X043232Y010718D01*
X043104Y010779D02*
X043044Y010718D01*
X042924Y010718D01*
X042863Y010779D01*
X042863Y010899D02*
X042984Y010959D01*
X043044Y010959D01*
X043104Y010899D01*
X043104Y010779D01*
X042863Y010899D02*
X042863Y011079D01*
X043104Y011079D01*
X042738Y010779D02*
X042678Y010779D01*
X042678Y010718D01*
X042738Y010718D01*
X042738Y010779D01*
X042738Y010718D02*
X042618Y010598D01*
X042250Y010718D02*
X042250Y010779D01*
X042490Y011019D01*
X042490Y011079D01*
X042250Y011079D01*
X042001Y011079D02*
X042001Y010718D01*
X041881Y010718D02*
X042122Y010718D01*
X041881Y010959D02*
X042001Y011079D01*
X041753Y010959D02*
X041753Y010718D01*
X041753Y010899D02*
X041513Y010899D01*
X041513Y010959D02*
X041633Y011079D01*
X041753Y010959D01*
X041513Y010959D02*
X041513Y010718D01*
X045325Y016718D02*
X045632Y016718D01*
X045785Y016718D02*
X046092Y017179D01*
X046246Y017179D02*
X046553Y017179D01*
X046399Y017179D02*
X046399Y016718D01*
X046092Y016718D02*
X045785Y017179D01*
X045632Y017179D02*
X045325Y017179D01*
X045325Y016718D01*
X045325Y016949D02*
X045478Y016949D01*
X046706Y016642D02*
X047013Y016642D01*
X047166Y016795D02*
X047166Y017102D01*
X047243Y017179D01*
X047397Y017179D01*
X047473Y017102D01*
X047627Y017179D02*
X047934Y017179D01*
X048087Y017179D02*
X048087Y016718D01*
X048394Y016718D01*
X048548Y016642D02*
X048855Y016642D01*
X049008Y016718D02*
X049008Y017179D01*
X049085Y016949D02*
X049315Y016718D01*
X049008Y016872D02*
X049315Y017179D01*
X048568Y017248D02*
X048568Y016941D01*
X048568Y017094D02*
X048108Y017094D01*
X048261Y016941D01*
X047780Y016718D02*
X047780Y017179D01*
X047473Y016795D02*
X047397Y016718D01*
X047243Y016718D01*
X047166Y016795D01*
X048108Y018322D02*
X048568Y018322D01*
X048415Y018475D01*
X048568Y018629D01*
X048108Y018629D01*
X048185Y019703D02*
X048108Y019780D01*
X048108Y019933D01*
X048185Y020010D01*
X048261Y020010D01*
X048338Y019933D01*
X048415Y020010D01*
X048492Y020010D01*
X048568Y019933D01*
X048568Y019780D01*
X048492Y019703D01*
X048338Y019857D02*
X048338Y019933D01*
X039003Y026820D02*
X038850Y026973D01*
X038543Y026973D01*
X038543Y026666D02*
X038850Y026666D01*
X039003Y026820D01*
X039080Y027127D02*
X039080Y027434D01*
X039003Y027587D02*
X038696Y027587D01*
X038543Y027741D01*
X038696Y027894D01*
X039003Y027894D01*
X038927Y028048D02*
X039003Y028124D01*
X039003Y028278D01*
X038927Y028355D01*
X038543Y028355D01*
X038543Y028508D02*
X039003Y028815D01*
X039003Y028508D02*
X038543Y028815D01*
X038543Y028048D02*
X038927Y028048D01*
X038773Y027894D02*
X038773Y027587D01*
X037303Y027514D02*
X037303Y027744D01*
X037227Y027821D01*
X036920Y027821D01*
X036843Y027744D01*
X036843Y027514D01*
X037303Y027514D01*
X037303Y027361D02*
X036843Y027361D01*
X036843Y027054D02*
X037303Y027361D01*
X037303Y027054D02*
X036843Y027054D01*
X036920Y026900D02*
X036843Y026824D01*
X036843Y026670D01*
X036920Y026593D01*
X037227Y026593D01*
X037303Y026670D01*
X037303Y026824D01*
X037227Y026900D01*
X037073Y026900D01*
X037073Y026747D01*
X036920Y027975D02*
X036843Y028051D01*
X036843Y028205D01*
X036920Y028282D01*
X036996Y028282D01*
X037303Y027975D01*
X037303Y028282D01*
X033303Y028128D02*
X033150Y028282D01*
X032843Y028282D01*
X032843Y027975D02*
X033150Y027975D01*
X033303Y028128D01*
X033303Y027821D02*
X033303Y027514D01*
X032996Y027821D01*
X032920Y027821D01*
X032843Y027744D01*
X032843Y027591D01*
X032920Y027514D01*
X032843Y027207D02*
X033303Y027207D01*
X033303Y027054D02*
X033303Y027361D01*
X032996Y027054D02*
X032843Y027207D01*
X033073Y026900D02*
X033073Y026593D01*
X032920Y026747D02*
X033227Y026747D01*
X029303Y026809D02*
X029303Y026502D01*
X028843Y026502D01*
X028843Y026962D02*
X029303Y026962D01*
X029303Y027269D01*
X029303Y027423D02*
X029303Y027653D01*
X029227Y027730D01*
X028920Y027730D01*
X028843Y027653D01*
X028843Y027423D01*
X029303Y027423D01*
X029073Y027116D02*
X029073Y026962D01*
X028843Y026962D02*
X028843Y027269D01*
X029073Y027883D02*
X029073Y028190D01*
X025303Y027744D02*
X025303Y027514D01*
X024843Y027514D01*
X024843Y027744D01*
X024920Y027821D01*
X025227Y027821D01*
X025303Y027744D01*
X025073Y027975D02*
X025073Y028282D01*
X024920Y028128D02*
X025227Y028128D01*
X025303Y027361D02*
X025303Y027054D01*
X024843Y027054D01*
X024843Y027361D01*
X025073Y027207D02*
X025073Y027054D01*
X025303Y026900D02*
X025303Y026593D01*
X024843Y026593D01*
X024245Y028858D02*
X024015Y028858D01*
X024015Y029319D01*
X024245Y029319D01*
X024322Y029242D01*
X024322Y028935D01*
X024245Y028858D01*
X023861Y028858D02*
X023861Y029319D01*
X023554Y029319D02*
X023554Y028858D01*
X023401Y028935D02*
X023401Y029089D01*
X023247Y029089D01*
X023094Y029242D02*
X023094Y028935D01*
X023171Y028858D01*
X023324Y028858D01*
X023401Y028935D01*
X023401Y029242D02*
X023324Y029319D01*
X023171Y029319D01*
X023094Y029242D01*
X023554Y029319D02*
X023861Y028858D01*
X022480Y029012D02*
X022480Y029319D01*
X022173Y029319D02*
X022173Y029012D01*
X022327Y028858D01*
X022480Y029012D01*
X022020Y029165D02*
X022020Y029242D01*
X021943Y029319D01*
X021789Y029319D01*
X021713Y029242D01*
X022020Y029165D02*
X021713Y028858D01*
X022020Y028858D01*
X021559Y028858D02*
X021252Y028858D01*
X021406Y028858D02*
X021406Y029319D01*
X021252Y029165D01*
X020638Y029089D02*
X020332Y029089D01*
X020178Y028935D02*
X020178Y029242D01*
X020101Y029319D01*
X019871Y029319D01*
X019871Y028858D01*
X020101Y028858D01*
X020178Y028935D01*
X019718Y028858D02*
X019411Y028858D01*
X019411Y029319D01*
X019718Y029319D01*
X019564Y029089D02*
X019411Y029089D01*
X019257Y028858D02*
X018950Y028858D01*
X018950Y029319D01*
X018337Y029089D02*
X018030Y029089D01*
X018183Y029242D02*
X018183Y028935D01*
X017876Y028935D02*
X017876Y029242D01*
X017799Y029319D01*
X017569Y029319D01*
X017569Y028858D01*
X017799Y028858D01*
X017876Y028935D01*
X017416Y028858D02*
X017109Y028858D01*
X017109Y029319D01*
X017416Y029319D01*
X017262Y029089D02*
X017109Y029089D01*
X016955Y028858D02*
X016648Y028858D01*
X016648Y029319D01*
X017053Y028315D02*
X017053Y028008D01*
X017053Y028162D02*
X016593Y028162D01*
X016746Y028008D01*
X016670Y027855D02*
X016593Y027778D01*
X016593Y027548D01*
X017053Y027548D01*
X017053Y027778D01*
X016977Y027855D01*
X016670Y027855D01*
X016593Y027394D02*
X017053Y027394D01*
X016593Y027087D01*
X017053Y027087D01*
X016977Y026934D02*
X016823Y026934D01*
X016823Y026780D01*
X016670Y026627D02*
X016977Y026627D01*
X017053Y026704D01*
X017053Y026857D01*
X016977Y026934D01*
X016670Y026934D02*
X016593Y026857D01*
X016593Y026704D01*
X016670Y026627D01*
X018246Y025929D02*
X018246Y025468D01*
X018553Y025468D01*
X018706Y025468D02*
X019013Y025468D01*
X019166Y025468D02*
X019397Y025468D01*
X019473Y025545D01*
X019473Y025852D01*
X019397Y025929D01*
X019166Y025929D01*
X019166Y025468D01*
X018860Y025699D02*
X018706Y025699D01*
X018706Y025929D02*
X018706Y025468D01*
X018706Y025929D02*
X019013Y025929D01*
X019627Y025392D02*
X019934Y025392D01*
X020087Y025545D02*
X020164Y025468D01*
X020317Y025468D01*
X020394Y025545D01*
X020394Y025852D01*
X020317Y025929D01*
X020164Y025929D01*
X020087Y025852D01*
X020087Y025545D01*
X020548Y025545D02*
X020624Y025468D01*
X020778Y025468D01*
X020855Y025545D01*
X020855Y025929D01*
X021008Y025929D02*
X021315Y025929D01*
X021161Y025929D02*
X021161Y025468D01*
X020548Y025545D02*
X020548Y025929D01*
X013130Y027054D02*
X013130Y027361D01*
X013053Y027514D02*
X013053Y027668D01*
X013053Y027591D02*
X012593Y027591D01*
X012593Y027514D02*
X012593Y027668D01*
X012593Y027821D02*
X013053Y028128D01*
X012593Y028128D01*
X012746Y028282D02*
X012593Y028435D01*
X013053Y028435D01*
X013053Y028282D02*
X013053Y028588D01*
X013053Y027821D02*
X012593Y027821D01*
X012593Y026900D02*
X012900Y026900D01*
X013053Y026747D01*
X012900Y026593D01*
X012593Y026593D01*
X009065Y026218D02*
X008758Y026218D01*
X008605Y026218D02*
X008605Y026679D01*
X008758Y026525D02*
X008911Y026679D01*
X008911Y026218D01*
X008605Y026218D02*
X008451Y026372D01*
X008298Y026218D01*
X008298Y026679D01*
X008144Y026602D02*
X008067Y026679D01*
X007914Y026679D01*
X007837Y026602D01*
X007837Y026295D01*
X007914Y026218D01*
X008067Y026218D01*
X008144Y026295D01*
X008144Y026602D01*
X007684Y026602D02*
X007684Y026449D01*
X007607Y026372D01*
X007377Y026372D01*
X007377Y026218D02*
X007377Y026679D01*
X007607Y026679D01*
X007684Y026602D01*
X007586Y028913D02*
X007586Y029374D01*
X007893Y028913D01*
X007893Y029374D01*
X007432Y029374D02*
X007279Y029374D01*
X007356Y029374D02*
X007356Y028913D01*
X007432Y028913D02*
X007279Y028913D01*
X007125Y029067D02*
X007125Y029374D01*
X006818Y029374D02*
X006818Y029067D01*
X006972Y028913D01*
X007125Y029067D01*
X008507Y028990D02*
X008583Y028913D01*
X008737Y028913D01*
X008813Y028990D01*
X008813Y029144D01*
X008660Y029144D01*
X008813Y029297D02*
X008737Y029374D01*
X008583Y029374D01*
X008507Y029297D01*
X008507Y028990D01*
X008967Y028913D02*
X008967Y029374D01*
X009274Y028913D01*
X009274Y029374D01*
X009427Y029374D02*
X009658Y029374D01*
X009734Y029297D01*
X009734Y028990D01*
X009658Y028913D01*
X009427Y028913D01*
X009427Y029374D01*
X009253Y023290D02*
X008946Y023290D01*
X008793Y023137D01*
X008946Y022983D01*
X009253Y022983D01*
X009253Y022830D02*
X009253Y022523D01*
X008946Y022830D01*
X008870Y022830D01*
X008793Y022753D01*
X008793Y022599D01*
X008870Y022523D01*
X009023Y022369D02*
X008793Y022062D01*
X009023Y022369D02*
X009253Y022062D01*
X009253Y021448D02*
X009253Y021141D01*
X008793Y021141D01*
X008793Y021448D01*
X009023Y021295D02*
X009023Y021141D01*
X009100Y020988D02*
X009177Y020988D01*
X009253Y020911D01*
X009253Y020758D01*
X009177Y020681D01*
X009177Y020528D02*
X008793Y020528D01*
X008870Y020681D02*
X008946Y020681D01*
X009023Y020758D01*
X009023Y020911D01*
X009100Y020988D01*
X008870Y020988D02*
X008793Y020911D01*
X008793Y020758D01*
X008870Y020681D01*
X009177Y020528D02*
X009253Y020451D01*
X009253Y020297D01*
X009177Y020221D01*
X008793Y020221D01*
X008793Y020067D02*
X008793Y019760D01*
X009253Y019760D01*
X009023Y019760D02*
X009023Y019914D01*
X009023Y022983D02*
X009023Y023290D01*
X003352Y012565D02*
X003045Y012565D01*
X002968Y012488D01*
X002968Y012258D01*
X003428Y012258D01*
X003428Y012488D01*
X003352Y012565D01*
X003428Y012105D02*
X002968Y012105D01*
X002968Y011798D02*
X003428Y012105D01*
X003428Y011798D02*
X002968Y011798D01*
X003045Y011644D02*
X002968Y011567D01*
X002968Y011414D01*
X003045Y011337D01*
X003352Y011337D01*
X003428Y011414D01*
X003428Y011567D01*
X003352Y011644D01*
X003198Y011644D01*
X003198Y011491D01*
X003045Y010723D02*
X002968Y010647D01*
X002968Y010493D01*
X003045Y010416D01*
X003352Y010416D01*
X003428Y010493D01*
X003428Y010647D01*
X003352Y010723D01*
X003275Y010263D02*
X002968Y010263D01*
X002968Y009956D02*
X003275Y009956D01*
X003428Y010110D01*
X003275Y010263D01*
X003198Y009342D02*
X003045Y009342D01*
X002968Y009265D01*
X002968Y009035D01*
X003428Y009035D01*
X003275Y009035D02*
X003275Y009265D01*
X003198Y009342D01*
X003275Y009189D02*
X003428Y009342D01*
X003275Y008882D02*
X002968Y008882D01*
X003275Y008882D02*
X003428Y008728D01*
X003275Y008575D01*
X002968Y008575D01*
X002968Y007961D02*
X002968Y007808D01*
X002968Y007884D02*
X003428Y007884D01*
X003428Y007808D02*
X003428Y007961D01*
X003275Y007654D02*
X002968Y007654D01*
X002968Y007347D02*
X003275Y007347D01*
X003428Y007501D01*
X003275Y007654D01*
X003352Y006733D02*
X003045Y006733D01*
X002968Y006657D01*
X002968Y006426D01*
X003428Y006426D01*
X003428Y006657D01*
X003352Y006733D01*
X003198Y006273D02*
X003045Y006273D01*
X002968Y006196D01*
X002968Y005966D01*
X003428Y005966D01*
X003275Y005966D02*
X003275Y006196D01*
X003198Y006273D01*
X003275Y005813D02*
X002968Y005813D01*
X003275Y005813D02*
X003428Y005659D01*
X003275Y005506D01*
X002968Y005506D01*
X006468Y007353D02*
X006468Y007507D01*
X006468Y007430D02*
X006928Y007430D01*
X006928Y007353D02*
X006928Y007507D01*
X006928Y007660D02*
X006468Y007967D01*
X006545Y008121D02*
X006852Y008121D01*
X006928Y008197D01*
X006928Y008351D01*
X006852Y008428D01*
X006545Y008428D01*
X006468Y008351D01*
X006468Y008197D01*
X006545Y008121D01*
X007005Y008581D02*
X007005Y008888D01*
X006928Y009041D02*
X006928Y009272D01*
X006852Y009348D01*
X006775Y009348D01*
X006698Y009272D01*
X006698Y009041D01*
X006468Y009041D02*
X006468Y009272D01*
X006545Y009348D01*
X006621Y009348D01*
X006698Y009272D01*
X006468Y009502D02*
X006928Y009502D01*
X006928Y009809D01*
X006852Y009962D02*
X006928Y010039D01*
X006928Y010192D01*
X006852Y010269D01*
X006545Y010269D01*
X006468Y010192D01*
X006468Y010039D01*
X006545Y009962D01*
X006852Y009962D01*
X006852Y010423D02*
X006545Y010423D01*
X006468Y010499D01*
X006468Y010653D01*
X006545Y010730D01*
X006468Y010883D02*
X006928Y010883D01*
X006775Y010883D02*
X006468Y011190D01*
X006698Y010960D02*
X006928Y011190D01*
X006852Y010730D02*
X006928Y010653D01*
X006928Y010499D01*
X006852Y010423D01*
X006928Y009041D02*
X006468Y009041D01*
X010843Y009122D02*
X010997Y008968D01*
X011150Y009122D01*
X011150Y009429D01*
X010843Y009429D02*
X010843Y009122D01*
X011304Y008892D02*
X011611Y008892D01*
X011764Y009045D02*
X011841Y008968D01*
X011994Y008968D01*
X012071Y009045D01*
X011764Y009045D02*
X011764Y009352D01*
X011841Y009429D01*
X011994Y009429D01*
X012071Y009352D01*
X012225Y009429D02*
X012532Y009429D01*
X012685Y009429D02*
X012685Y008968D01*
X012992Y008968D01*
X012378Y008968D02*
X012378Y009429D01*
X017843Y009304D02*
X017843Y008997D01*
X017997Y008843D01*
X018150Y008997D01*
X018150Y009304D01*
X018304Y008767D02*
X018611Y008767D01*
X018764Y008843D02*
X018764Y009304D01*
X018994Y009304D01*
X019071Y009227D01*
X019071Y009074D01*
X018994Y008997D01*
X018764Y008997D01*
X018918Y008997D02*
X019071Y008843D01*
X019225Y008843D02*
X019532Y008843D01*
X019685Y008843D02*
X019685Y009304D01*
X019992Y009304D01*
X019838Y009074D02*
X019685Y009074D01*
X019532Y009304D02*
X019225Y009304D01*
X019225Y008843D01*
X019225Y009074D02*
X019378Y009074D01*
X024343Y009054D02*
X024343Y008747D01*
X024497Y008593D01*
X024650Y008747D01*
X024650Y009054D01*
X024804Y008517D02*
X025111Y008517D01*
X025264Y008670D02*
X025264Y008977D01*
X025341Y009054D01*
X025494Y009054D01*
X025571Y008977D01*
X025725Y009054D02*
X025725Y008670D01*
X025801Y008593D01*
X025955Y008593D01*
X026032Y008670D01*
X026032Y009054D01*
X026185Y009054D02*
X026415Y009054D01*
X026492Y008977D01*
X026492Y008824D01*
X026415Y008747D01*
X026185Y008747D01*
X026338Y008747D02*
X026492Y008593D01*
X026645Y008593D02*
X026645Y009054D01*
X026876Y009054D01*
X026952Y008977D01*
X026952Y008824D01*
X026876Y008747D01*
X026645Y008747D01*
X026799Y008747D02*
X026952Y008593D01*
X026185Y008593D02*
X026185Y009054D01*
X025571Y008670D02*
X025494Y008593D01*
X025341Y008593D01*
X025264Y008670D01*
X027295Y005565D02*
X027448Y005565D01*
X027525Y005488D01*
X027525Y005258D01*
X027678Y005258D02*
X027218Y005258D01*
X027218Y005488D01*
X027295Y005565D01*
X027525Y005412D02*
X027678Y005565D01*
X027678Y005105D02*
X027525Y004951D01*
X027525Y005028D02*
X027525Y004798D01*
X027678Y004798D02*
X027218Y004798D01*
X027218Y005028D01*
X027295Y005105D01*
X027448Y005105D01*
X027525Y005028D01*
X027602Y004644D02*
X027218Y004644D01*
X027218Y004337D02*
X027602Y004337D01*
X027678Y004414D01*
X027678Y004567D01*
X027602Y004644D01*
X027602Y004184D02*
X027678Y004107D01*
X027678Y003954D01*
X027602Y003877D01*
X027295Y003877D01*
X027218Y003954D01*
X027218Y004107D01*
X027295Y004184D01*
X027755Y003723D02*
X027755Y003416D01*
X027525Y003263D02*
X027218Y003263D01*
X027218Y002956D02*
X027525Y002956D01*
X027678Y003110D01*
X027525Y003263D01*
X020755Y003377D02*
X020755Y003684D01*
X020678Y003837D02*
X020218Y003837D01*
X020218Y004067D01*
X020295Y004144D01*
X020448Y004144D01*
X020525Y004067D01*
X020525Y003837D01*
X020525Y003991D02*
X020678Y004144D01*
X020678Y004298D02*
X020218Y004298D01*
X020218Y004605D01*
X020218Y004758D02*
X020218Y005065D01*
X020448Y004912D02*
X020448Y004758D01*
X020678Y004758D02*
X020218Y004758D01*
X020448Y004451D02*
X020448Y004298D01*
X020678Y004298D02*
X020678Y004605D01*
X020525Y003223D02*
X020218Y003223D01*
X020218Y002916D02*
X020525Y002916D01*
X020678Y003070D01*
X020525Y003223D01*
X013755Y003377D02*
X013755Y003684D01*
X013602Y003837D02*
X013678Y003914D01*
X013678Y004067D01*
X013602Y004144D01*
X013602Y003837D02*
X013295Y003837D01*
X013218Y003914D01*
X013218Y004067D01*
X013295Y004144D01*
X013218Y004298D02*
X013218Y004605D01*
X013218Y004758D02*
X013678Y004758D01*
X013678Y005065D01*
X013678Y004451D02*
X013218Y004451D01*
X013218Y003223D02*
X013525Y003223D01*
X013678Y003070D01*
X013525Y002916D01*
X013218Y002916D01*
X032843Y020318D02*
X032843Y020559D01*
X032964Y020679D01*
X033084Y020559D01*
X033084Y020318D01*
X033212Y020318D02*
X033452Y020318D01*
X033332Y020318D02*
X033332Y020679D01*
X033212Y020559D01*
X033084Y020499D02*
X032843Y020499D01*
X033580Y020379D02*
X033580Y020318D01*
X033580Y020379D02*
X033820Y020619D01*
X033820Y020679D01*
X033580Y020679D01*
X034008Y020379D02*
X034008Y020318D01*
X034068Y020318D01*
X034068Y020379D01*
X034008Y020379D01*
X034068Y020318D02*
X033948Y020198D01*
X034194Y020379D02*
X034254Y020318D01*
X034374Y020318D01*
X034434Y020379D01*
X034434Y020499D01*
X034374Y020559D01*
X034314Y020559D01*
X034194Y020499D01*
X034194Y020679D01*
X034434Y020679D01*
X034562Y020559D02*
X034622Y020559D01*
X034682Y020499D01*
X034742Y020559D01*
X034802Y020499D01*
X034802Y020318D01*
X034682Y020318D02*
X034682Y020499D01*
X034562Y020559D02*
X034562Y020318D01*
X034931Y020318D02*
X034931Y020559D01*
X034991Y020559D01*
X035051Y020499D01*
X035111Y020559D01*
X035171Y020499D01*
X035171Y020318D01*
X035051Y020318D02*
X035051Y020499D01*
D13*
X033863Y021598D02*
X033865Y021651D01*
X033871Y021704D01*
X033881Y021756D01*
X033895Y021807D01*
X033912Y021857D01*
X033933Y021906D01*
X033958Y021953D01*
X033986Y021998D01*
X034018Y022041D01*
X034053Y022081D01*
X034090Y022118D01*
X034130Y022153D01*
X034173Y022185D01*
X034218Y022213D01*
X034265Y022238D01*
X034314Y022259D01*
X034364Y022276D01*
X034415Y022290D01*
X034467Y022300D01*
X034520Y022306D01*
X034573Y022308D01*
X034626Y022306D01*
X034679Y022300D01*
X034731Y022290D01*
X034782Y022276D01*
X034832Y022259D01*
X034881Y022238D01*
X034928Y022213D01*
X034973Y022185D01*
X035016Y022153D01*
X035056Y022118D01*
X035093Y022081D01*
X035128Y022041D01*
X035160Y021998D01*
X035188Y021953D01*
X035213Y021906D01*
X035234Y021857D01*
X035251Y021807D01*
X035265Y021756D01*
X035275Y021704D01*
X035281Y021651D01*
X035283Y021598D01*
X035281Y021545D01*
X035275Y021492D01*
X035265Y021440D01*
X035251Y021389D01*
X035234Y021339D01*
X035213Y021290D01*
X035188Y021243D01*
X035160Y021198D01*
X035128Y021155D01*
X035093Y021115D01*
X035056Y021078D01*
X035016Y021043D01*
X034973Y021011D01*
X034928Y020983D01*
X034881Y020958D01*
X034832Y020937D01*
X034782Y020920D01*
X034731Y020906D01*
X034679Y020896D01*
X034626Y020890D01*
X034573Y020888D01*
X034520Y020890D01*
X034467Y020896D01*
X034415Y020906D01*
X034364Y020920D01*
X034314Y020937D01*
X034265Y020958D01*
X034218Y020983D01*
X034173Y021011D01*
X034130Y021043D01*
X034090Y021078D01*
X034053Y021115D01*
X034018Y021155D01*
X033986Y021198D01*
X033958Y021243D01*
X033933Y021290D01*
X033912Y021339D01*
X033895Y021389D01*
X033881Y021440D01*
X033871Y021492D01*
X033865Y021545D01*
X033863Y021598D01*
X032873Y021598D02*
X032873Y022198D01*
X032523Y022198D01*
X032523Y022948D01*
X036623Y022948D01*
X036623Y022198D01*
X036273Y022198D01*
X036273Y021598D01*
X036623Y021598D01*
X036623Y016698D01*
X032523Y016698D01*
X032523Y021598D01*
X032873Y021598D01*
X030706Y019093D02*
X030706Y018743D01*
X030606Y018643D01*
X030706Y019093D02*
X030704Y019116D01*
X030699Y019139D01*
X030690Y019161D01*
X030677Y019181D01*
X030662Y019199D01*
X030644Y019214D01*
X030624Y019227D01*
X030602Y019236D01*
X030579Y019241D01*
X030556Y019243D01*
X027590Y019243D02*
X027567Y019241D01*
X027544Y019236D01*
X027522Y019227D01*
X027502Y019214D01*
X027484Y019199D01*
X027469Y019181D01*
X027456Y019161D01*
X027447Y019139D01*
X027442Y019116D01*
X027440Y019093D01*
X027440Y018743D01*
X027540Y018643D01*
X024073Y017098D02*
X024073Y016298D01*
X023973Y016198D01*
X023173Y016198D01*
X023073Y016298D01*
X022973Y016198D01*
X022173Y016198D01*
X022073Y016298D01*
X022073Y017098D01*
X022173Y017198D01*
X022973Y017198D01*
X023073Y017098D01*
X023173Y017198D01*
X023973Y017198D01*
X024073Y017098D01*
X025098Y016073D02*
X026798Y016073D01*
X026948Y015923D01*
X026948Y015223D01*
X026798Y015073D01*
X026948Y014923D01*
X026948Y014223D01*
X026798Y014073D01*
X026948Y013923D01*
X026948Y013223D01*
X026798Y013073D01*
X025098Y013073D01*
X024948Y013223D01*
X024948Y013923D01*
X025098Y014073D01*
X024948Y014223D01*
X024948Y014923D01*
X025098Y015073D01*
X024948Y015223D01*
X024948Y015923D01*
X025098Y016073D01*
X023973Y014948D02*
X023173Y014948D01*
X023073Y014848D01*
X022973Y014948D01*
X022173Y014948D01*
X022073Y014848D01*
X022073Y014048D01*
X022173Y013948D01*
X022973Y013948D01*
X023073Y014048D01*
X023173Y013948D01*
X023973Y013948D01*
X024073Y014048D01*
X024073Y014848D01*
X023973Y014948D01*
X021148Y014573D02*
X021098Y014623D01*
X021098Y016523D01*
X021148Y016573D01*
X021148Y016723D01*
X021146Y016740D01*
X021142Y016757D01*
X021135Y016773D01*
X021125Y016787D01*
X021112Y016800D01*
X021098Y016810D01*
X021082Y016817D01*
X021065Y016821D01*
X021048Y016823D01*
X020348Y016823D02*
X020331Y016821D01*
X020314Y016817D01*
X020298Y016810D01*
X020284Y016800D01*
X020271Y016787D01*
X020261Y016773D01*
X020254Y016757D01*
X020250Y016740D01*
X020248Y016723D01*
X020248Y016573D01*
X020298Y016523D01*
X020298Y014623D01*
X020248Y014573D01*
X020248Y014423D01*
X020250Y014406D01*
X020254Y014389D01*
X020261Y014373D01*
X020271Y014359D01*
X020284Y014346D01*
X020298Y014336D01*
X020314Y014329D01*
X020331Y014325D01*
X020348Y014323D01*
X021048Y014323D02*
X021065Y014325D01*
X021082Y014329D01*
X021098Y014336D01*
X021112Y014346D01*
X021125Y014359D01*
X021135Y014373D01*
X021142Y014389D01*
X021146Y014406D01*
X021148Y014423D01*
X021148Y014573D01*
X019148Y014573D02*
X019098Y014623D01*
X019098Y016523D01*
X019148Y016573D01*
X019148Y016723D01*
X019146Y016740D01*
X019142Y016757D01*
X019135Y016773D01*
X019125Y016787D01*
X019112Y016800D01*
X019098Y016810D01*
X019082Y016817D01*
X019065Y016821D01*
X019048Y016823D01*
X018348Y016823D02*
X018331Y016821D01*
X018314Y016817D01*
X018298Y016810D01*
X018284Y016800D01*
X018271Y016787D01*
X018261Y016773D01*
X018254Y016757D01*
X018250Y016740D01*
X018248Y016723D01*
X018248Y016573D01*
X018298Y016523D01*
X018298Y014623D01*
X018248Y014573D01*
X018248Y014423D01*
X018250Y014406D01*
X018254Y014389D01*
X018261Y014373D01*
X018271Y014359D01*
X018284Y014346D01*
X018298Y014336D01*
X018314Y014329D01*
X018331Y014325D01*
X018348Y014323D01*
X019048Y014323D02*
X019065Y014325D01*
X019082Y014329D01*
X019098Y014336D01*
X019112Y014346D01*
X019125Y014359D01*
X019135Y014373D01*
X019142Y014389D01*
X019146Y014406D01*
X019148Y014423D01*
X019148Y014573D01*
X020248Y012473D02*
X020248Y012323D01*
X020298Y012273D01*
X020298Y010373D01*
X020248Y010323D01*
X020248Y010173D01*
X020250Y010156D01*
X020254Y010139D01*
X020261Y010123D01*
X020271Y010109D01*
X020284Y010096D01*
X020298Y010086D01*
X020314Y010079D01*
X020331Y010075D01*
X020348Y010073D01*
X021048Y010073D02*
X021065Y010075D01*
X021082Y010079D01*
X021098Y010086D01*
X021112Y010096D01*
X021125Y010109D01*
X021135Y010123D01*
X021142Y010139D01*
X021146Y010156D01*
X021148Y010173D01*
X021148Y010323D01*
X021098Y010373D01*
X021098Y012273D01*
X021148Y012323D01*
X021148Y012473D01*
X021146Y012490D01*
X021142Y012507D01*
X021135Y012523D01*
X021125Y012537D01*
X021112Y012550D01*
X021098Y012560D01*
X021082Y012567D01*
X021065Y012571D01*
X021048Y012573D01*
X020348Y012573D02*
X020331Y012571D01*
X020314Y012567D01*
X020298Y012560D01*
X020284Y012550D01*
X020271Y012537D01*
X020261Y012523D01*
X020254Y012507D01*
X020250Y012490D01*
X020248Y012473D01*
X019148Y011973D02*
X019148Y010673D01*
X019146Y010647D01*
X019141Y010621D01*
X019133Y010596D01*
X019121Y010573D01*
X019107Y010551D01*
X019089Y010532D01*
X019070Y010514D01*
X019048Y010500D01*
X019025Y010488D01*
X019000Y010480D01*
X018974Y010475D01*
X018948Y010473D01*
X018698Y010823D02*
X018698Y011203D01*
X018698Y011453D02*
X018698Y011823D01*
X018448Y012173D02*
X018422Y012171D01*
X018396Y012166D01*
X018371Y012158D01*
X018348Y012146D01*
X018326Y012132D01*
X018307Y012114D01*
X018289Y012095D01*
X018275Y012073D01*
X018263Y012050D01*
X018255Y012025D01*
X018250Y011999D01*
X018248Y011973D01*
X018248Y010673D01*
X018250Y010647D01*
X018255Y010621D01*
X018263Y010596D01*
X018275Y010573D01*
X018289Y010551D01*
X018307Y010532D01*
X018326Y010514D01*
X018348Y010500D01*
X018371Y010488D01*
X018396Y010480D01*
X018422Y010475D01*
X018448Y010473D01*
X017198Y010173D02*
X017198Y012473D01*
X013198Y012473D01*
X013198Y011723D01*
X013237Y011721D01*
X013276Y011715D01*
X013314Y011706D01*
X013351Y011693D01*
X013387Y011676D01*
X013420Y011656D01*
X013452Y011632D01*
X013481Y011606D01*
X013507Y011577D01*
X013531Y011545D01*
X013551Y011512D01*
X013568Y011476D01*
X013581Y011439D01*
X013590Y011401D01*
X013596Y011362D01*
X013598Y011323D01*
X013596Y011284D01*
X013590Y011245D01*
X013581Y011207D01*
X013568Y011170D01*
X013551Y011134D01*
X013531Y011101D01*
X013507Y011069D01*
X013481Y011040D01*
X013452Y011014D01*
X013420Y010990D01*
X013387Y010970D01*
X013351Y010953D01*
X013314Y010940D01*
X013276Y010931D01*
X013237Y010925D01*
X013198Y010923D01*
X013198Y010173D01*
X017198Y010173D01*
X019148Y011973D02*
X019146Y011999D01*
X019141Y012025D01*
X019133Y012050D01*
X019121Y012073D01*
X019107Y012095D01*
X019089Y012114D01*
X019070Y012132D01*
X019048Y012146D01*
X019025Y012158D01*
X019000Y012166D01*
X018974Y012171D01*
X018948Y012173D01*
X022073Y011923D02*
X022173Y011823D01*
X022973Y011823D01*
X023073Y011923D01*
X023173Y011823D01*
X023973Y011823D01*
X024073Y011923D01*
X024073Y012723D01*
X023973Y012823D01*
X023173Y012823D01*
X023073Y012723D01*
X022973Y012823D01*
X022173Y012823D01*
X022073Y012723D01*
X022073Y011923D01*
X022173Y010573D02*
X022973Y010573D01*
X023073Y010473D01*
X023173Y010573D01*
X023973Y010573D01*
X024073Y010473D01*
X024073Y009673D01*
X023973Y009573D01*
X023173Y009573D01*
X023073Y009673D01*
X022973Y009573D01*
X022173Y009573D01*
X022073Y009673D01*
X022073Y010473D01*
X022173Y010573D01*
X024948Y010598D02*
X024948Y011298D01*
X025098Y011448D01*
X024948Y011598D01*
X024948Y012298D01*
X025098Y012448D01*
X026798Y012448D01*
X026948Y012298D01*
X026948Y011598D01*
X026798Y011448D01*
X026948Y011298D01*
X026948Y010598D01*
X026798Y010448D01*
X026948Y010298D01*
X026948Y009598D01*
X026798Y009448D01*
X025098Y009448D01*
X024948Y009598D01*
X024948Y010298D01*
X025098Y010448D01*
X024948Y010598D01*
X027440Y009542D02*
X027440Y009192D01*
X027442Y009169D01*
X027447Y009146D01*
X027456Y009124D01*
X027469Y009104D01*
X027484Y009086D01*
X027502Y009071D01*
X027522Y009058D01*
X027544Y009049D01*
X027567Y009044D01*
X027590Y009042D01*
X027440Y009542D02*
X027540Y009642D01*
X030556Y009042D02*
X030579Y009044D01*
X030602Y009049D01*
X030624Y009058D01*
X030644Y009071D01*
X030662Y009086D01*
X030677Y009104D01*
X030690Y009124D01*
X030699Y009146D01*
X030704Y009169D01*
X030706Y009192D01*
X030706Y009542D01*
X030606Y009642D01*
X034048Y008648D02*
X035348Y008648D01*
X035374Y008646D01*
X035400Y008641D01*
X035425Y008633D01*
X035448Y008621D01*
X035470Y008607D01*
X035489Y008589D01*
X035507Y008570D01*
X035521Y008548D01*
X035533Y008525D01*
X035541Y008500D01*
X035546Y008474D01*
X035548Y008448D01*
X035198Y008198D02*
X034828Y008198D01*
X034578Y008198D02*
X034198Y008198D01*
X033848Y007948D02*
X033850Y007922D01*
X033855Y007896D01*
X033863Y007871D01*
X033875Y007848D01*
X033889Y007826D01*
X033907Y007807D01*
X033926Y007789D01*
X033948Y007775D01*
X033971Y007763D01*
X033996Y007755D01*
X034022Y007750D01*
X034048Y007748D01*
X035348Y007748D01*
X035374Y007750D01*
X035400Y007755D01*
X035425Y007763D01*
X035448Y007775D01*
X035470Y007789D01*
X035489Y007807D01*
X035507Y007826D01*
X035521Y007848D01*
X035533Y007871D01*
X035541Y007896D01*
X035546Y007922D01*
X035548Y007948D01*
X034048Y008648D02*
X034022Y008646D01*
X033996Y008641D01*
X033971Y008633D01*
X033948Y008621D01*
X033926Y008607D01*
X033907Y008589D01*
X033889Y008570D01*
X033875Y008548D01*
X033863Y008525D01*
X033855Y008500D01*
X033850Y008474D01*
X033848Y008448D01*
X036748Y010548D02*
X036748Y011848D01*
X036750Y011874D01*
X036755Y011900D01*
X036763Y011925D01*
X036775Y011948D01*
X036789Y011970D01*
X036807Y011989D01*
X036826Y012007D01*
X036848Y012021D01*
X036871Y012033D01*
X036896Y012041D01*
X036922Y012046D01*
X036948Y012048D01*
X037448Y012048D01*
X037474Y012046D01*
X037500Y012041D01*
X037525Y012033D01*
X037548Y012021D01*
X037570Y012007D01*
X037589Y011989D01*
X037607Y011970D01*
X037621Y011948D01*
X037633Y011925D01*
X037641Y011900D01*
X037646Y011874D01*
X037648Y011848D01*
X037648Y010548D01*
X037646Y010522D01*
X037641Y010496D01*
X037633Y010471D01*
X037621Y010448D01*
X037607Y010426D01*
X037589Y010407D01*
X037570Y010389D01*
X037548Y010375D01*
X037525Y010363D01*
X037500Y010355D01*
X037474Y010350D01*
X037448Y010348D01*
X036948Y010348D01*
X036922Y010350D01*
X036896Y010355D01*
X036871Y010363D01*
X036848Y010375D01*
X036826Y010389D01*
X036807Y010407D01*
X036789Y010426D01*
X036775Y010448D01*
X036763Y010471D01*
X036755Y010496D01*
X036750Y010522D01*
X036748Y010548D01*
X040148Y009798D02*
X040498Y009798D01*
X040498Y009198D01*
X040148Y009198D01*
X040148Y008448D01*
X044248Y008448D01*
X044248Y009198D01*
X043898Y009198D01*
X043898Y009798D01*
X044248Y009798D01*
X044248Y014698D01*
X040148Y014698D01*
X040148Y009798D01*
X041488Y009798D02*
X041490Y009851D01*
X041496Y009904D01*
X041506Y009956D01*
X041520Y010007D01*
X041537Y010057D01*
X041558Y010106D01*
X041583Y010153D01*
X041611Y010198D01*
X041643Y010241D01*
X041678Y010281D01*
X041715Y010318D01*
X041755Y010353D01*
X041798Y010385D01*
X041843Y010413D01*
X041890Y010438D01*
X041939Y010459D01*
X041989Y010476D01*
X042040Y010490D01*
X042092Y010500D01*
X042145Y010506D01*
X042198Y010508D01*
X042251Y010506D01*
X042304Y010500D01*
X042356Y010490D01*
X042407Y010476D01*
X042457Y010459D01*
X042506Y010438D01*
X042553Y010413D01*
X042598Y010385D01*
X042641Y010353D01*
X042681Y010318D01*
X042718Y010281D01*
X042753Y010241D01*
X042785Y010198D01*
X042813Y010153D01*
X042838Y010106D01*
X042859Y010057D01*
X042876Y010007D01*
X042890Y009956D01*
X042900Y009904D01*
X042906Y009851D01*
X042908Y009798D01*
X042906Y009745D01*
X042900Y009692D01*
X042890Y009640D01*
X042876Y009589D01*
X042859Y009539D01*
X042838Y009490D01*
X042813Y009443D01*
X042785Y009398D01*
X042753Y009355D01*
X042718Y009315D01*
X042681Y009278D01*
X042641Y009243D01*
X042598Y009211D01*
X042553Y009183D01*
X042506Y009158D01*
X042457Y009137D01*
X042407Y009120D01*
X042356Y009106D01*
X042304Y009096D01*
X042251Y009090D01*
X042198Y009088D01*
X042145Y009090D01*
X042092Y009096D01*
X042040Y009106D01*
X041989Y009120D01*
X041939Y009137D01*
X041890Y009158D01*
X041843Y009183D01*
X041798Y009211D01*
X041755Y009243D01*
X041715Y009278D01*
X041678Y009315D01*
X041643Y009355D01*
X041611Y009398D01*
X041583Y009443D01*
X041558Y009490D01*
X041537Y009539D01*
X041520Y009589D01*
X041506Y009640D01*
X041496Y009692D01*
X041490Y009745D01*
X041488Y009798D01*
X041198Y007148D02*
X041048Y007148D01*
X041031Y007146D01*
X041014Y007142D01*
X040998Y007135D01*
X040984Y007125D01*
X040971Y007112D01*
X040961Y007098D01*
X040954Y007082D01*
X040950Y007065D01*
X040948Y007048D01*
X041198Y007148D02*
X041248Y007098D01*
X043148Y007098D01*
X043198Y007148D01*
X043348Y007148D01*
X043365Y007146D01*
X043382Y007142D01*
X043398Y007135D01*
X043412Y007125D01*
X043425Y007112D01*
X043435Y007098D01*
X043442Y007082D01*
X043446Y007065D01*
X043448Y007048D01*
X043448Y006348D02*
X043446Y006331D01*
X043442Y006314D01*
X043435Y006298D01*
X043425Y006284D01*
X043412Y006271D01*
X043398Y006261D01*
X043382Y006254D01*
X043365Y006250D01*
X043348Y006248D01*
X043198Y006248D01*
X043148Y006298D01*
X041248Y006298D01*
X041198Y006248D01*
X041048Y006248D01*
X041031Y006250D01*
X041014Y006254D01*
X040998Y006261D01*
X040984Y006271D01*
X040971Y006284D01*
X040961Y006298D01*
X040954Y006314D01*
X040950Y006331D01*
X040948Y006348D01*
X042528Y005232D02*
X042635Y005339D01*
X042848Y005339D01*
X042955Y005232D01*
X042955Y004912D01*
X043168Y004912D02*
X042528Y004912D01*
X042528Y005232D01*
X042955Y005126D02*
X043168Y005339D01*
X043168Y004695D02*
X042955Y004481D01*
X042955Y004588D02*
X042955Y004268D01*
X043168Y004268D02*
X042528Y004268D01*
X042528Y004588D01*
X042635Y004695D01*
X042848Y004695D01*
X042955Y004588D01*
X043062Y004050D02*
X042528Y004050D01*
X042528Y003623D02*
X043062Y003623D01*
X043168Y003730D01*
X043168Y003943D01*
X043062Y004050D01*
X043062Y003405D02*
X043168Y003299D01*
X043168Y003085D01*
X043062Y002978D01*
X042635Y002978D01*
X042528Y003085D01*
X042528Y003299D01*
X042635Y003405D01*
X045198Y005048D02*
X045245Y005046D01*
X045293Y005040D01*
X045339Y005031D01*
X045385Y005018D01*
X045429Y005002D01*
X045473Y004981D01*
X045514Y004958D01*
X045553Y004932D01*
X045590Y004902D01*
X045625Y004869D01*
X045657Y004834D01*
X045686Y004797D01*
X045198Y003848D02*
X045153Y003850D01*
X045107Y003855D01*
X045063Y003863D01*
X045019Y003875D01*
X044976Y003891D01*
X044934Y003909D01*
X044894Y003931D01*
X044856Y003955D01*
X044820Y003982D01*
X044785Y004012D01*
X044754Y004045D01*
X044724Y004080D01*
X045198Y003848D02*
X045243Y003850D01*
X045289Y003855D01*
X045333Y003863D01*
X045377Y003875D01*
X045420Y003891D01*
X045462Y003909D01*
X045502Y003931D01*
X045540Y003955D01*
X045576Y003982D01*
X045611Y004012D01*
X045642Y004045D01*
X045672Y004080D01*
X045198Y005048D02*
X045152Y005046D01*
X045106Y005041D01*
X045060Y005032D01*
X045015Y005020D01*
X044972Y005004D01*
X044930Y004985D01*
X044889Y004962D01*
X044850Y004937D01*
X044814Y004909D01*
X044779Y004878D01*
X044747Y004844D01*
X044718Y004808D01*
X046698Y005548D02*
X046698Y003848D01*
X046848Y003698D01*
X047548Y003698D01*
X047698Y003848D01*
X047848Y003698D01*
X048548Y003698D01*
X048698Y003848D01*
X048698Y005548D01*
X048548Y005698D01*
X047848Y005698D01*
X047698Y005548D01*
X047548Y005698D01*
X046848Y005698D01*
X046698Y005548D01*
X038293Y005195D02*
X037653Y004768D01*
X037653Y004550D02*
X038187Y004550D01*
X038293Y004443D01*
X038293Y004230D01*
X038187Y004123D01*
X037653Y004123D01*
X037866Y003905D02*
X037653Y003692D01*
X037866Y003478D01*
X038293Y003478D01*
X037973Y003478D02*
X037973Y003905D01*
X037866Y003905D02*
X038293Y003905D01*
X038293Y004768D02*
X037653Y005195D01*
X030048Y005573D02*
X030048Y006073D01*
X030046Y006099D01*
X030041Y006125D01*
X030033Y006150D01*
X030021Y006173D01*
X030007Y006195D01*
X029989Y006214D01*
X029970Y006232D01*
X029948Y006246D01*
X029925Y006258D01*
X029900Y006266D01*
X029874Y006271D01*
X029848Y006273D01*
X028548Y006273D01*
X028522Y006271D01*
X028496Y006266D01*
X028471Y006258D01*
X028448Y006246D01*
X028426Y006232D01*
X028407Y006214D01*
X028389Y006195D01*
X028375Y006173D01*
X028363Y006150D01*
X028355Y006125D01*
X028350Y006099D01*
X028348Y006073D01*
X028348Y005573D01*
X028350Y005547D01*
X028355Y005521D01*
X028363Y005496D01*
X028375Y005473D01*
X028389Y005451D01*
X028407Y005432D01*
X028426Y005414D01*
X028448Y005400D01*
X028471Y005388D01*
X028496Y005380D01*
X028522Y005375D01*
X028548Y005373D01*
X029848Y005373D01*
X029874Y005375D01*
X029900Y005380D01*
X029925Y005388D01*
X029948Y005400D01*
X029970Y005414D01*
X029989Y005432D01*
X030007Y005451D01*
X030021Y005473D01*
X030033Y005496D01*
X030041Y005521D01*
X030046Y005547D01*
X030048Y005573D01*
X014548Y014573D02*
X014548Y015073D01*
X014546Y015099D01*
X014541Y015125D01*
X014533Y015150D01*
X014521Y015173D01*
X014507Y015195D01*
X014489Y015214D01*
X014470Y015232D01*
X014448Y015246D01*
X014425Y015258D01*
X014400Y015266D01*
X014374Y015271D01*
X014348Y015273D01*
X013048Y015273D01*
X013022Y015271D01*
X012996Y015266D01*
X012971Y015258D01*
X012948Y015246D01*
X012926Y015232D01*
X012907Y015214D01*
X012889Y015195D01*
X012875Y015173D01*
X012863Y015150D01*
X012855Y015125D01*
X012850Y015099D01*
X012848Y015073D01*
X012848Y014573D01*
X012850Y014547D01*
X012855Y014521D01*
X012863Y014496D01*
X012875Y014473D01*
X012889Y014451D01*
X012907Y014432D01*
X012926Y014414D01*
X012948Y014400D01*
X012971Y014388D01*
X012996Y014380D01*
X013022Y014375D01*
X013048Y014373D01*
X014348Y014373D01*
X014374Y014375D01*
X014400Y014380D01*
X014425Y014388D01*
X014448Y014400D01*
X014470Y014414D01*
X014489Y014432D01*
X014507Y014451D01*
X014521Y014473D01*
X014533Y014496D01*
X014541Y014521D01*
X014546Y014547D01*
X014548Y014573D01*
X011848Y016373D02*
X011698Y016373D01*
X011648Y016423D01*
X009748Y016423D01*
X009698Y016373D01*
X009548Y016373D01*
X009531Y016375D01*
X009514Y016379D01*
X009498Y016386D01*
X009484Y016396D01*
X009471Y016409D01*
X009461Y016423D01*
X009454Y016439D01*
X009450Y016456D01*
X009448Y016473D01*
X009448Y017173D02*
X009450Y017190D01*
X009454Y017207D01*
X009461Y017223D01*
X009471Y017237D01*
X009484Y017250D01*
X009498Y017260D01*
X009514Y017267D01*
X009531Y017271D01*
X009548Y017273D01*
X009698Y017273D01*
X009748Y017223D01*
X011648Y017223D01*
X011698Y017273D01*
X011848Y017273D01*
X011865Y017271D01*
X011882Y017267D01*
X011898Y017260D01*
X011912Y017250D01*
X011925Y017237D01*
X011935Y017223D01*
X011942Y017207D01*
X011946Y017190D01*
X011948Y017173D01*
X011948Y016473D02*
X011946Y016456D01*
X011942Y016439D01*
X011935Y016423D01*
X011925Y016409D01*
X011912Y016396D01*
X011898Y016386D01*
X011882Y016379D01*
X011865Y016375D01*
X011848Y016373D01*
X010848Y015273D02*
X009548Y015273D01*
X009522Y015271D01*
X009496Y015266D01*
X009471Y015258D01*
X009448Y015246D01*
X009426Y015232D01*
X009407Y015214D01*
X009389Y015195D01*
X009375Y015173D01*
X009363Y015150D01*
X009355Y015125D01*
X009350Y015099D01*
X009348Y015073D01*
X009698Y014823D02*
X010078Y014823D01*
X010328Y014823D02*
X010698Y014823D01*
X011048Y014573D02*
X011046Y014547D01*
X011041Y014521D01*
X011033Y014496D01*
X011021Y014473D01*
X011007Y014451D01*
X010989Y014432D01*
X010970Y014414D01*
X010948Y014400D01*
X010925Y014388D01*
X010900Y014380D01*
X010874Y014375D01*
X010848Y014373D01*
X009548Y014373D01*
X009522Y014375D01*
X009496Y014380D01*
X009471Y014388D01*
X009448Y014400D01*
X009426Y014414D01*
X009407Y014432D01*
X009389Y014451D01*
X009375Y014473D01*
X009363Y014496D01*
X009355Y014521D01*
X009350Y014547D01*
X009348Y014573D01*
X010848Y015273D02*
X010874Y015271D01*
X010900Y015266D01*
X010925Y015258D01*
X010948Y015246D01*
X010970Y015232D01*
X010989Y015214D01*
X011007Y015195D01*
X011021Y015173D01*
X011033Y015150D01*
X011041Y015125D01*
X011046Y015099D01*
X011048Y015073D01*
X015048Y016623D02*
X016348Y016623D01*
X016374Y016625D01*
X016400Y016630D01*
X016425Y016638D01*
X016448Y016650D01*
X016470Y016664D01*
X016489Y016682D01*
X016507Y016701D01*
X016521Y016723D01*
X016533Y016746D01*
X016541Y016771D01*
X016546Y016797D01*
X016548Y016823D01*
X016198Y017073D02*
X015828Y017073D01*
X015578Y017073D02*
X015198Y017073D01*
X014848Y016823D02*
X014850Y016797D01*
X014855Y016771D01*
X014863Y016746D01*
X014875Y016723D01*
X014889Y016701D01*
X014907Y016682D01*
X014926Y016664D01*
X014948Y016650D01*
X014971Y016638D01*
X014996Y016630D01*
X015022Y016625D01*
X015048Y016623D01*
X014848Y017323D02*
X014850Y017349D01*
X014855Y017375D01*
X014863Y017400D01*
X014875Y017423D01*
X014889Y017445D01*
X014907Y017464D01*
X014926Y017482D01*
X014948Y017496D01*
X014971Y017508D01*
X014996Y017516D01*
X015022Y017521D01*
X015048Y017523D01*
X016348Y017523D01*
X016374Y017521D01*
X016400Y017516D01*
X016425Y017508D01*
X016448Y017496D01*
X016470Y017482D01*
X016489Y017464D01*
X016507Y017445D01*
X016521Y017423D01*
X016533Y017400D01*
X016541Y017375D01*
X016546Y017349D01*
X016548Y017323D01*
X019198Y019173D02*
X019198Y021473D01*
X012198Y021473D01*
X012198Y020723D01*
X012237Y020721D01*
X012276Y020715D01*
X012314Y020706D01*
X012351Y020693D01*
X012387Y020676D01*
X012420Y020656D01*
X012452Y020632D01*
X012481Y020606D01*
X012507Y020577D01*
X012531Y020545D01*
X012551Y020512D01*
X012568Y020476D01*
X012581Y020439D01*
X012590Y020401D01*
X012596Y020362D01*
X012598Y020323D01*
X012596Y020284D01*
X012590Y020245D01*
X012581Y020207D01*
X012568Y020170D01*
X012551Y020134D01*
X012531Y020101D01*
X012507Y020069D01*
X012481Y020040D01*
X012452Y020014D01*
X012420Y019990D01*
X012387Y019970D01*
X012351Y019953D01*
X012314Y019940D01*
X012276Y019931D01*
X012237Y019925D01*
X012198Y019923D01*
X012198Y019173D01*
X019198Y019173D01*
X020248Y018823D02*
X020248Y018673D01*
X020250Y018656D01*
X020254Y018639D01*
X020261Y018623D01*
X020271Y018609D01*
X020284Y018596D01*
X020298Y018586D01*
X020314Y018579D01*
X020331Y018575D01*
X020348Y018573D01*
X020248Y018823D02*
X020298Y018873D01*
X020298Y020773D01*
X020248Y020823D01*
X020248Y020973D01*
X020250Y020990D01*
X020254Y021007D01*
X020261Y021023D01*
X020271Y021037D01*
X020284Y021050D01*
X020298Y021060D01*
X020314Y021067D01*
X020331Y021071D01*
X020348Y021073D01*
X021048Y021073D02*
X021065Y021071D01*
X021082Y021067D01*
X021098Y021060D01*
X021112Y021050D01*
X021125Y021037D01*
X021135Y021023D01*
X021142Y021007D01*
X021146Y020990D01*
X021148Y020973D01*
X021148Y020823D01*
X021098Y020773D01*
X021098Y018873D01*
X021148Y018823D01*
X021148Y018673D01*
X021146Y018656D01*
X021142Y018639D01*
X021135Y018623D01*
X021125Y018609D01*
X021112Y018596D01*
X021098Y018586D01*
X021082Y018579D01*
X021065Y018575D01*
X021048Y018573D01*
X011648Y012473D02*
X011648Y012323D01*
X011598Y012273D01*
X011598Y010373D01*
X011648Y010323D01*
X011648Y010173D01*
X011646Y010156D01*
X011642Y010139D01*
X011635Y010123D01*
X011625Y010109D01*
X011612Y010096D01*
X011598Y010086D01*
X011582Y010079D01*
X011565Y010075D01*
X011548Y010073D01*
X010848Y010073D02*
X010831Y010075D01*
X010814Y010079D01*
X010798Y010086D01*
X010784Y010096D01*
X010771Y010109D01*
X010761Y010123D01*
X010754Y010139D01*
X010750Y010156D01*
X010748Y010173D01*
X010748Y010323D01*
X010798Y010373D01*
X010798Y012273D01*
X010748Y012323D01*
X010748Y012473D01*
X010750Y012490D01*
X010754Y012507D01*
X010761Y012523D01*
X010771Y012537D01*
X010784Y012550D01*
X010798Y012560D01*
X010814Y012567D01*
X010831Y012571D01*
X010848Y012573D01*
X011548Y012573D02*
X011565Y012571D01*
X011582Y012567D01*
X011598Y012560D01*
X011612Y012550D01*
X011625Y012537D01*
X011635Y012523D01*
X011642Y012507D01*
X011646Y012490D01*
X011648Y012473D01*
X009648Y012473D02*
X009648Y012323D01*
X009598Y012273D01*
X009598Y010373D01*
X009648Y010323D01*
X009648Y010173D01*
X009646Y010156D01*
X009642Y010139D01*
X009635Y010123D01*
X009625Y010109D01*
X009612Y010096D01*
X009598Y010086D01*
X009582Y010079D01*
X009565Y010075D01*
X009548Y010073D01*
X008848Y010073D02*
X008831Y010075D01*
X008814Y010079D01*
X008798Y010086D01*
X008784Y010096D01*
X008771Y010109D01*
X008761Y010123D01*
X008754Y010139D01*
X008750Y010156D01*
X008748Y010173D01*
X008748Y010323D01*
X008798Y010373D01*
X008798Y012273D01*
X008748Y012323D01*
X008748Y012473D01*
X008750Y012490D01*
X008754Y012507D01*
X008761Y012523D01*
X008771Y012537D01*
X008784Y012550D01*
X008798Y012560D01*
X008814Y012567D01*
X008831Y012571D01*
X008848Y012573D01*
X009548Y012573D02*
X009565Y012571D01*
X009582Y012567D01*
X009598Y012560D01*
X009612Y012550D01*
X009625Y012537D01*
X009635Y012523D01*
X009642Y012507D01*
X009646Y012490D01*
X009648Y012473D01*
X007300Y013537D02*
X003362Y013537D01*
X003362Y017321D01*
X007300Y017321D01*
X007292Y017299D02*
X007292Y017141D01*
X007134Y017141D01*
X007134Y013716D01*
X007292Y013716D01*
X007292Y013559D01*
X007300Y017662D02*
X003362Y017662D01*
X003362Y021446D01*
X007300Y021446D01*
X007292Y021424D02*
X007292Y021266D01*
X007134Y021266D01*
X007134Y017841D01*
X007292Y017841D01*
X007292Y017684D01*
X007300Y021912D02*
X003362Y021912D01*
X003362Y025696D01*
X007300Y025696D01*
X007292Y025674D02*
X007292Y025516D01*
X007134Y025516D01*
X007134Y022091D01*
X007292Y022091D01*
X007292Y021934D01*
X005548Y026698D02*
X004848Y026698D01*
X004698Y026848D01*
X004548Y026698D01*
X003848Y026698D01*
X003698Y026848D01*
X003698Y028548D01*
X003848Y028698D01*
X004548Y028698D01*
X004698Y028548D01*
X004848Y028698D01*
X005548Y028698D01*
X005698Y028548D01*
X005698Y026848D01*
X005548Y026698D01*
X005548Y005698D02*
X004848Y005698D01*
X004698Y005548D01*
X004548Y005698D01*
X003848Y005698D01*
X003698Y005548D01*
X003698Y003848D01*
X003848Y003698D01*
X004548Y003698D01*
X004698Y003848D01*
X004848Y003698D01*
X005548Y003698D01*
X005698Y003848D01*
X005698Y005548D01*
X005548Y005698D01*
X044198Y016173D02*
X044198Y016973D01*
X044298Y017073D01*
X044198Y017173D01*
X044198Y017973D01*
X044298Y018073D01*
X045098Y018073D01*
X045198Y017973D01*
X045198Y017173D01*
X045098Y017073D01*
X045198Y016973D01*
X045198Y016173D01*
X045098Y016073D01*
X044298Y016073D01*
X044198Y016173D01*
X045222Y021826D02*
X049160Y021826D01*
X049160Y025610D01*
X045222Y025610D01*
X045230Y025588D02*
X045230Y025431D01*
X045387Y025431D01*
X045387Y022006D01*
X045230Y022006D01*
X045230Y021848D01*
X046848Y026698D02*
X047548Y026698D01*
X047698Y026848D01*
X047848Y026698D01*
X048548Y026698D01*
X048698Y026848D01*
X048698Y028548D01*
X048548Y028698D01*
X047848Y028698D01*
X047698Y028548D01*
X047548Y028698D01*
X046848Y028698D01*
X046698Y028548D01*
X046698Y026848D01*
X046848Y026698D01*
D14*
X003421Y003474D02*
X003421Y003023D01*
X003722Y003023D02*
X003722Y003474D01*
X003572Y003324D01*
X003421Y003474D01*
X003882Y003474D02*
X003882Y003023D01*
X004182Y003023D01*
X004342Y003099D02*
X004342Y003399D01*
X004417Y003474D01*
X004567Y003474D01*
X004642Y003399D01*
X004803Y003474D02*
X004803Y003023D01*
X004642Y003099D02*
X004567Y003023D01*
X004417Y003023D01*
X004342Y003099D01*
X004032Y003249D02*
X003882Y003249D01*
X003882Y003474D02*
X004182Y003474D01*
X004803Y003249D02*
X005103Y003249D01*
X005263Y003399D02*
X005338Y003474D01*
X005488Y003474D01*
X005563Y003399D01*
X005563Y003324D01*
X005263Y003023D01*
X005563Y003023D01*
X005103Y003023D02*
X005103Y003474D01*
X005113Y005873D02*
X005113Y006324D01*
X004963Y006174D01*
X004963Y005873D02*
X005263Y005873D01*
X004263Y005873D02*
X003963Y005873D01*
X004263Y006174D01*
X004263Y006249D01*
X004188Y006324D01*
X004038Y006324D01*
X003963Y006249D01*
X003698Y006823D02*
X006198Y006823D01*
X006198Y012323D01*
X003698Y012323D01*
X003698Y006823D01*
X008173Y010348D02*
X008173Y010574D01*
X008248Y010649D01*
X008398Y010649D01*
X008473Y010574D01*
X008473Y010348D01*
X008623Y010348D02*
X008173Y010348D01*
X008473Y010499D02*
X008623Y010649D01*
X008623Y010809D02*
X008623Y011109D01*
X008623Y010959D02*
X008173Y010959D01*
X008323Y010809D01*
X008943Y010909D02*
X008943Y011134D01*
X009018Y011209D01*
X009168Y011209D01*
X009243Y011134D01*
X009243Y010909D01*
X009243Y011059D02*
X009393Y011209D01*
X009393Y010909D02*
X008943Y010909D01*
X009018Y010749D02*
X009318Y010448D01*
X009393Y010524D01*
X009393Y010674D01*
X009318Y010749D01*
X009018Y010749D01*
X008943Y010674D01*
X008943Y010524D01*
X009018Y010448D01*
X009318Y010448D01*
X010173Y010348D02*
X010173Y010574D01*
X010248Y010649D01*
X010398Y010649D01*
X010473Y010574D01*
X010473Y010348D01*
X010623Y010348D02*
X010173Y010348D01*
X010473Y010499D02*
X010623Y010649D01*
X010623Y010809D02*
X010323Y011109D01*
X010248Y011109D01*
X010173Y011034D01*
X010173Y010884D01*
X010248Y010809D01*
X010623Y010809D02*
X010623Y011109D01*
X010943Y011134D02*
X011018Y011209D01*
X011168Y011209D01*
X011243Y011134D01*
X011243Y010909D01*
X011243Y011059D02*
X011393Y011209D01*
X011393Y010909D02*
X010943Y010909D01*
X010943Y011134D01*
X011018Y010749D02*
X011318Y010448D01*
X011393Y010524D01*
X011393Y010674D01*
X011318Y010749D01*
X011018Y010749D01*
X010943Y010674D01*
X010943Y010524D01*
X011018Y010448D01*
X011318Y010448D01*
X012623Y010349D02*
X012623Y010198D01*
X012623Y010274D02*
X013073Y010274D01*
X013073Y010349D02*
X013073Y010198D01*
X012998Y010505D02*
X013073Y010580D01*
X013073Y010731D01*
X012998Y010806D01*
X012998Y010966D02*
X013073Y011041D01*
X013073Y011191D01*
X012998Y011266D01*
X012923Y011266D01*
X012848Y011191D01*
X012848Y011116D01*
X012848Y011191D02*
X012773Y011266D01*
X012698Y011266D01*
X012623Y011191D01*
X012623Y011041D01*
X012698Y010966D01*
X012698Y010806D02*
X012623Y010731D01*
X012623Y010580D01*
X012698Y010505D01*
X012998Y010505D01*
X013823Y011098D02*
X013823Y011549D01*
X014049Y011549D01*
X014124Y011474D01*
X014124Y011324D01*
X014049Y011249D01*
X013823Y011249D01*
X013974Y011249D02*
X014124Y011098D01*
X014284Y011098D02*
X014284Y011549D01*
X014584Y011549D01*
X014744Y011549D02*
X014744Y011098D01*
X014584Y011098D02*
X014284Y011098D01*
X014284Y011324D02*
X014434Y011324D01*
X014744Y011324D02*
X014894Y011324D01*
X014744Y011549D02*
X015044Y011549D01*
X015205Y011474D02*
X015205Y011174D01*
X015505Y011474D01*
X015505Y011174D01*
X015430Y011098D01*
X015280Y011098D01*
X015205Y011174D01*
X015205Y011474D02*
X015280Y011549D01*
X015430Y011549D01*
X015505Y011474D01*
X015665Y011474D02*
X015740Y011549D01*
X015890Y011549D01*
X015965Y011474D01*
X015965Y011399D01*
X015665Y011098D01*
X015965Y011098D01*
X017673Y011259D02*
X017748Y011109D01*
X017898Y010959D01*
X017898Y011184D01*
X017973Y011259D01*
X018048Y011259D01*
X018123Y011184D01*
X018123Y011034D01*
X018048Y010959D01*
X017898Y010959D01*
X017748Y010799D02*
X017673Y010724D01*
X017673Y010574D01*
X017748Y010498D01*
X018048Y010498D01*
X018123Y010574D01*
X018123Y010724D01*
X018048Y010799D01*
X019273Y010724D02*
X019273Y010574D01*
X019348Y010498D01*
X019648Y010498D01*
X019348Y010799D01*
X019648Y010799D01*
X019723Y010724D01*
X019723Y010574D01*
X019648Y010498D01*
X019348Y010799D02*
X019273Y010724D01*
X019648Y010959D02*
X019648Y011034D01*
X019723Y011034D01*
X019723Y010959D01*
X019648Y010959D01*
X019723Y011189D02*
X019723Y011489D01*
X019723Y011339D02*
X019273Y011339D01*
X019423Y011189D01*
X019423Y011649D02*
X019648Y011649D01*
X019723Y011724D01*
X019723Y011950D01*
X019423Y011950D01*
X019498Y012110D02*
X019498Y012260D01*
X019273Y012110D02*
X019273Y012410D01*
X019273Y012110D02*
X019723Y012110D01*
X020503Y012013D02*
X020503Y011863D01*
X020578Y011788D01*
X020878Y011788D01*
X020578Y012088D01*
X020878Y012088D01*
X020953Y012013D01*
X020953Y011863D01*
X020878Y011788D01*
X020728Y011628D02*
X020728Y011328D01*
X020503Y011553D01*
X020953Y011553D01*
X021273Y011653D02*
X021348Y011728D01*
X021498Y011728D01*
X021573Y011653D01*
X021573Y011428D01*
X021573Y011578D02*
X021723Y011728D01*
X021648Y011888D02*
X021723Y011963D01*
X021723Y012113D01*
X021648Y012188D01*
X021498Y012188D01*
X021423Y012113D01*
X021423Y012038D01*
X021498Y011888D01*
X021273Y011888D01*
X021273Y012188D01*
X020578Y012088D02*
X020503Y012013D01*
X021273Y011653D02*
X021273Y011428D01*
X021723Y011428D01*
X020953Y011168D02*
X020953Y010867D01*
X020653Y011168D01*
X020578Y011168D01*
X020503Y011092D01*
X020503Y010942D01*
X020578Y010867D01*
X022717Y011274D02*
X022792Y011198D01*
X022867Y011198D01*
X022942Y011274D01*
X022942Y011649D01*
X022867Y011649D02*
X023017Y011649D01*
X023178Y011649D02*
X023178Y011198D01*
X023178Y011349D02*
X023403Y011349D01*
X023478Y011424D01*
X023478Y011574D01*
X023403Y011649D01*
X023178Y011649D01*
X023638Y011424D02*
X023938Y011424D01*
X023863Y011649D02*
X023638Y011424D01*
X023863Y011198D02*
X023863Y011649D01*
X024398Y010844D02*
X024323Y010769D01*
X024323Y010619D01*
X024398Y010544D01*
X024398Y010384D02*
X024548Y010384D01*
X024623Y010309D01*
X024623Y010084D01*
X024773Y010084D02*
X024323Y010084D01*
X024323Y010309D01*
X024398Y010384D01*
X024773Y010544D02*
X024473Y010844D01*
X024398Y010844D01*
X024773Y010844D02*
X024773Y010544D01*
X024698Y009849D02*
X024323Y009849D01*
X024323Y009774D02*
X024323Y009924D01*
X024698Y009849D02*
X024773Y009774D01*
X024773Y009699D01*
X024698Y009623D01*
X023938Y009399D02*
X023788Y009324D01*
X023638Y009174D01*
X023863Y009174D01*
X023938Y009099D01*
X023938Y009024D01*
X023863Y008948D01*
X023713Y008948D01*
X023638Y009024D01*
X023638Y009174D01*
X023478Y009174D02*
X023403Y009099D01*
X023178Y009099D01*
X023178Y008948D02*
X023178Y009399D01*
X023403Y009399D01*
X023478Y009324D01*
X023478Y009174D01*
X023017Y009399D02*
X022867Y009399D01*
X022942Y009399D02*
X022942Y009024D01*
X022867Y008948D01*
X022792Y008948D01*
X022717Y009024D01*
X027123Y009924D02*
X027573Y009924D01*
X027573Y010074D02*
X027573Y009773D01*
X027538Y009655D02*
X027538Y018631D01*
X027597Y019261D02*
X030550Y019261D01*
X030569Y018631D02*
X030569Y009655D01*
X030550Y009025D02*
X027597Y009025D01*
X027273Y009773D02*
X027123Y009924D01*
X027198Y010773D02*
X027123Y010849D01*
X027123Y010999D01*
X027198Y011074D01*
X027273Y011074D01*
X027573Y010773D01*
X027573Y011074D01*
X027498Y011773D02*
X027573Y011849D01*
X027573Y011999D01*
X027498Y012074D01*
X027423Y012074D01*
X027348Y011999D01*
X027348Y011924D01*
X027348Y011999D02*
X027273Y012074D01*
X027198Y012074D01*
X027123Y011999D01*
X027123Y011849D01*
X027198Y011773D01*
X028924Y012718D02*
X028924Y012944D01*
X028999Y013019D01*
X029149Y013019D01*
X029224Y012944D01*
X029224Y012718D01*
X029374Y012718D02*
X028924Y012718D01*
X029224Y012869D02*
X029374Y013019D01*
X029449Y013179D02*
X029449Y013479D01*
X029299Y013639D02*
X029374Y013714D01*
X029374Y013864D01*
X029299Y013940D01*
X029299Y014100D02*
X029374Y014175D01*
X029374Y014325D01*
X029299Y014400D01*
X028924Y014400D01*
X028924Y014560D02*
X028924Y014785D01*
X028999Y014860D01*
X029149Y014860D01*
X029224Y014785D01*
X029224Y014560D01*
X029374Y014560D02*
X028924Y014560D01*
X029224Y014710D02*
X029374Y014860D01*
X029374Y015020D02*
X028924Y015020D01*
X028924Y015246D01*
X028999Y015321D01*
X029149Y015321D01*
X029224Y015246D01*
X029224Y015020D01*
X029224Y015171D02*
X029374Y015321D01*
X029299Y014100D02*
X028924Y014100D01*
X028999Y013940D02*
X028924Y013864D01*
X028924Y013714D01*
X028999Y013639D01*
X029299Y013639D01*
X027573Y013699D02*
X027573Y013398D01*
X027573Y013549D02*
X027123Y013549D01*
X027273Y013398D01*
X027198Y014398D02*
X027123Y014474D01*
X027123Y014624D01*
X027198Y014699D01*
X027273Y014699D01*
X027573Y014398D01*
X027573Y014699D01*
X027498Y015398D02*
X027573Y015474D01*
X027573Y015624D01*
X027498Y015699D01*
X027423Y015699D01*
X027348Y015624D01*
X027348Y015549D01*
X027348Y015624D02*
X027273Y015699D01*
X027198Y015699D01*
X027123Y015624D01*
X027123Y015474D01*
X027198Y015398D01*
X024773Y014469D02*
X024773Y014169D01*
X024773Y014319D02*
X024323Y014319D01*
X024473Y014169D01*
X024398Y014009D02*
X024548Y014009D01*
X024623Y013934D01*
X024623Y013709D01*
X024773Y013709D02*
X024323Y013709D01*
X024323Y013934D01*
X024398Y014009D01*
X024194Y013749D02*
X024194Y013674D01*
X024119Y013599D01*
X024194Y013524D01*
X024194Y013449D01*
X024119Y013373D01*
X023969Y013373D01*
X023894Y013449D01*
X024044Y013599D02*
X024119Y013599D01*
X024194Y013749D02*
X024119Y013824D01*
X023969Y013824D01*
X023894Y013749D01*
X023734Y013749D02*
X023734Y013599D01*
X023659Y013524D01*
X023434Y013524D01*
X023434Y013373D02*
X023434Y013824D01*
X023659Y013824D01*
X023734Y013749D01*
X023274Y013824D02*
X023124Y013824D01*
X023199Y013824D02*
X023199Y013449D01*
X023124Y013373D01*
X023048Y013373D01*
X022973Y013449D01*
X024323Y013474D02*
X024698Y013474D01*
X024773Y013399D01*
X024773Y013324D01*
X024698Y013248D01*
X024323Y013399D02*
X024323Y013549D01*
X023638Y015573D02*
X023638Y015649D01*
X023938Y015949D01*
X023938Y016024D01*
X023638Y016024D01*
X023478Y015949D02*
X023478Y015799D01*
X023403Y015724D01*
X023178Y015724D01*
X023178Y015573D02*
X023178Y016024D01*
X023403Y016024D01*
X023478Y015949D01*
X023017Y016024D02*
X022867Y016024D01*
X022942Y016024D02*
X022942Y015649D01*
X022867Y015573D01*
X022792Y015573D01*
X022717Y015649D01*
X020893Y015384D02*
X020743Y015159D01*
X020593Y015384D01*
X020443Y015159D02*
X020893Y015159D01*
X020893Y014999D02*
X020893Y014698D01*
X020893Y014849D02*
X020443Y014849D01*
X020593Y014698D01*
X020123Y014598D02*
X019673Y014598D01*
X019673Y014824D01*
X019748Y014899D01*
X019898Y014899D01*
X019973Y014824D01*
X019973Y014598D01*
X019973Y014749D02*
X020123Y014899D01*
X020048Y015059D02*
X019973Y015059D01*
X019898Y015134D01*
X019898Y015284D01*
X019973Y015359D01*
X020048Y015359D01*
X020123Y015284D01*
X020123Y015134D01*
X020048Y015059D01*
X019898Y015134D02*
X019823Y015059D01*
X019748Y015059D01*
X019673Y015134D01*
X019673Y015284D01*
X019748Y015359D01*
X019823Y015359D01*
X019898Y015284D01*
X018893Y015159D02*
X018443Y015159D01*
X018443Y015384D01*
X018518Y015459D01*
X018668Y015459D01*
X018743Y015384D01*
X018743Y015159D01*
X018743Y015309D02*
X018893Y015459D01*
X018818Y014999D02*
X018893Y014924D01*
X018893Y014774D01*
X018818Y014698D01*
X018518Y014999D01*
X018818Y014999D01*
X018518Y014999D02*
X018443Y014924D01*
X018443Y014774D01*
X018518Y014698D01*
X018818Y014698D01*
X018123Y014598D02*
X017673Y014598D01*
X017673Y014824D01*
X017748Y014899D01*
X017898Y014899D01*
X017973Y014824D01*
X017973Y014598D01*
X017973Y014749D02*
X018123Y014899D01*
X017898Y015059D02*
X017898Y015359D01*
X018123Y015284D02*
X017673Y015284D01*
X017898Y015059D01*
X016485Y016048D02*
X016485Y016499D01*
X016785Y016499D01*
X016635Y016274D02*
X016485Y016274D01*
X016325Y016349D02*
X016325Y016048D01*
X016099Y016048D01*
X016024Y016124D01*
X016024Y016349D01*
X015864Y016048D02*
X015564Y016048D01*
X015714Y016048D02*
X015714Y016499D01*
X015564Y016349D01*
X015409Y016124D02*
X015409Y016048D01*
X015334Y016048D01*
X015334Y016124D01*
X015409Y016124D01*
X015174Y016124D02*
X015174Y016424D01*
X014873Y016124D01*
X014948Y016048D01*
X015099Y016048D01*
X015174Y016124D01*
X015174Y016424D02*
X015099Y016499D01*
X014948Y016499D01*
X014873Y016424D01*
X014873Y016124D01*
X014263Y015849D02*
X013963Y015849D01*
X013963Y015398D01*
X013803Y015398D02*
X013803Y015699D01*
X013963Y015624D02*
X014113Y015624D01*
X013803Y015398D02*
X013578Y015398D01*
X013503Y015474D01*
X013503Y015699D01*
X013342Y015774D02*
X013042Y015474D01*
X013117Y015398D01*
X013267Y015398D01*
X013342Y015474D01*
X013342Y015774D01*
X013267Y015849D01*
X013117Y015849D01*
X013042Y015774D01*
X013042Y015474D01*
X012887Y015474D02*
X012887Y015398D01*
X012812Y015398D01*
X012812Y015474D01*
X012887Y015474D01*
X012652Y015398D02*
X012352Y015398D01*
X012502Y015398D02*
X012502Y015849D01*
X012352Y015699D01*
X011044Y016704D02*
X010969Y016628D01*
X010819Y016628D01*
X010744Y016704D01*
X011044Y017004D01*
X011044Y016704D01*
X011044Y017004D02*
X010969Y017079D01*
X010819Y017079D01*
X010744Y017004D01*
X010744Y016704D01*
X010584Y017004D02*
X010284Y016704D01*
X010284Y016628D01*
X010049Y016628D02*
X010049Y017079D01*
X009823Y016854D01*
X010124Y016854D01*
X010284Y017079D02*
X010584Y017079D01*
X010584Y017004D01*
X010184Y017398D02*
X010184Y017474D01*
X010484Y017774D01*
X010484Y017849D01*
X010184Y017849D01*
X010348Y017898D02*
X007698Y017898D01*
X007698Y025698D01*
X010348Y025698D01*
X010348Y017898D01*
X010024Y017774D02*
X010024Y017624D01*
X009949Y017549D01*
X009723Y017549D01*
X009874Y017549D02*
X010024Y017398D01*
X009723Y017398D02*
X009723Y017849D01*
X009949Y017849D01*
X010024Y017774D01*
X011573Y019148D02*
X011573Y019299D01*
X011573Y019224D02*
X012023Y019224D01*
X012023Y019299D02*
X012023Y019148D01*
X011948Y019455D02*
X012023Y019530D01*
X012023Y019681D01*
X011948Y019756D01*
X012023Y019916D02*
X012023Y020216D01*
X012023Y020066D02*
X011573Y020066D01*
X011723Y019916D01*
X011648Y019756D02*
X011573Y019681D01*
X011573Y019530D01*
X011648Y019455D01*
X011948Y019455D01*
X013073Y020098D02*
X013374Y020098D01*
X013534Y020098D02*
X013534Y020549D01*
X013684Y020399D01*
X013834Y020549D01*
X013834Y020098D01*
X013994Y020174D02*
X014069Y020098D01*
X014219Y020098D01*
X014294Y020174D01*
X014294Y020249D01*
X014219Y020324D01*
X014144Y020324D01*
X014219Y020324D02*
X014294Y020399D01*
X014294Y020474D01*
X014219Y020549D01*
X014069Y020549D01*
X013994Y020474D01*
X014455Y020474D02*
X014530Y020549D01*
X014680Y020549D01*
X014755Y020474D01*
X014755Y020399D01*
X014455Y020098D01*
X014755Y020098D01*
X014915Y020324D02*
X015215Y020324D01*
X015140Y020549D02*
X014915Y020324D01*
X015140Y020098D02*
X015140Y020549D01*
X015375Y020549D02*
X015676Y020098D01*
X015676Y020549D01*
X015375Y020549D02*
X015375Y020098D01*
X013073Y020098D02*
X013073Y020549D01*
X014948Y018099D02*
X014873Y018024D01*
X014873Y017724D01*
X014948Y017648D01*
X015099Y017648D01*
X015174Y017724D01*
X015334Y017648D02*
X015634Y017648D01*
X015484Y017648D02*
X015484Y018099D01*
X015334Y017949D01*
X015174Y018024D02*
X015099Y018099D01*
X014948Y018099D01*
X019673Y018848D02*
X019673Y019074D01*
X019748Y019149D01*
X019898Y019149D01*
X019973Y019074D01*
X019973Y018848D01*
X020123Y018848D02*
X019673Y018848D01*
X019973Y018999D02*
X020123Y019149D01*
X020048Y019309D02*
X020123Y019384D01*
X020123Y019534D01*
X020048Y019609D01*
X019973Y019609D01*
X019898Y019534D01*
X019898Y019459D01*
X019898Y019534D02*
X019823Y019609D01*
X019748Y019609D01*
X019673Y019534D01*
X019673Y019384D01*
X019748Y019309D01*
X020443Y019484D02*
X020518Y019409D01*
X020443Y019484D02*
X020443Y019634D01*
X020518Y019709D01*
X020593Y019709D01*
X020893Y019409D01*
X020893Y019709D01*
X020818Y019869D02*
X020518Y020169D01*
X020818Y020169D01*
X020893Y020094D01*
X020893Y019944D01*
X020818Y019869D01*
X020518Y019869D01*
X020443Y019944D01*
X020443Y020094D01*
X020518Y020169D01*
X020893Y019249D02*
X020893Y018948D01*
X020893Y019099D02*
X020443Y019099D01*
X020593Y018948D01*
X014263Y014174D02*
X014188Y014249D01*
X014038Y014249D01*
X013963Y014174D01*
X013803Y014174D02*
X013728Y014249D01*
X013578Y014249D01*
X013503Y014174D01*
X013503Y013874D01*
X013578Y013798D01*
X013728Y013798D01*
X013803Y013874D01*
X013963Y013798D02*
X014263Y014099D01*
X014263Y014174D01*
X014263Y013798D02*
X013963Y013798D01*
X011285Y014249D02*
X010985Y014249D01*
X010985Y013798D01*
X010825Y013798D02*
X010825Y014099D01*
X010985Y014024D02*
X011135Y014024D01*
X010825Y013798D02*
X010599Y013798D01*
X010524Y013874D01*
X010524Y014099D01*
X010364Y013798D02*
X010064Y013798D01*
X010214Y013798D02*
X010214Y014249D01*
X010064Y014099D01*
X009909Y013874D02*
X009909Y013798D01*
X009834Y013798D01*
X009834Y013874D01*
X009909Y013874D01*
X009674Y013874D02*
X009599Y013798D01*
X009448Y013798D01*
X009373Y013874D01*
X009674Y014174D01*
X009674Y013874D01*
X009674Y014174D02*
X009599Y014249D01*
X009448Y014249D01*
X009373Y014174D01*
X009373Y013874D01*
X009448Y015398D02*
X009373Y015474D01*
X009373Y015774D01*
X009448Y015849D01*
X009599Y015849D01*
X009674Y015774D01*
X009834Y015774D02*
X009909Y015849D01*
X010059Y015849D01*
X010134Y015774D01*
X010134Y015699D01*
X010059Y015624D01*
X010134Y015549D01*
X010134Y015474D01*
X010059Y015398D01*
X009909Y015398D01*
X009834Y015474D01*
X009674Y015474D02*
X009599Y015398D01*
X009448Y015398D01*
X009984Y015624D02*
X010059Y015624D01*
X006298Y014463D02*
X006298Y014163D01*
X006298Y014313D02*
X005848Y014313D01*
X005998Y014163D01*
X005973Y014969D02*
X005748Y014969D01*
X005748Y015270D01*
X005748Y015430D02*
X006198Y015430D01*
X006048Y015430D02*
X005898Y015655D01*
X006048Y015430D02*
X006198Y015655D01*
X006123Y015270D02*
X006198Y015195D01*
X006198Y015044D01*
X006123Y014969D01*
X005973Y014969D02*
X005898Y015120D01*
X005898Y015195D01*
X005973Y015270D01*
X006123Y015270D01*
X006173Y016213D02*
X006248Y016288D01*
X006248Y016438D01*
X006173Y016513D01*
X006098Y016513D01*
X006023Y016438D01*
X006023Y016363D01*
X006023Y016438D02*
X005948Y016513D01*
X005873Y016513D01*
X005798Y016438D01*
X005798Y016288D01*
X005873Y016213D01*
X003848Y016278D02*
X003848Y016053D01*
X003398Y016053D01*
X003398Y016278D01*
X003473Y016353D01*
X003773Y016353D01*
X003848Y016278D01*
X003773Y016513D02*
X003848Y016588D01*
X003848Y016663D01*
X003773Y016738D01*
X003398Y016738D01*
X003398Y016663D02*
X003398Y016813D01*
X003548Y015893D02*
X003848Y015893D01*
X003623Y015893D02*
X003623Y015592D01*
X003548Y015592D02*
X003398Y015742D01*
X003548Y015893D01*
X003548Y015592D02*
X003848Y015592D01*
X003923Y015432D02*
X003923Y015132D01*
X003773Y014972D02*
X003623Y014972D01*
X003623Y014822D01*
X003473Y014972D02*
X003398Y014897D01*
X003398Y014747D01*
X003473Y014671D01*
X003773Y014671D01*
X003848Y014747D01*
X003848Y014897D01*
X003773Y014972D01*
X003848Y014511D02*
X003848Y014211D01*
X003398Y014211D01*
X003398Y014511D01*
X003623Y014361D02*
X003623Y014211D01*
X003623Y014051D02*
X003698Y013976D01*
X003698Y013751D01*
X003698Y013901D02*
X003848Y014051D01*
X003623Y014051D02*
X003473Y014051D01*
X003398Y013976D01*
X003398Y013751D01*
X003848Y013751D01*
X003848Y018029D02*
X003848Y018179D01*
X003848Y018104D02*
X003398Y018104D01*
X003398Y018029D02*
X003398Y018179D01*
X003398Y018336D02*
X003548Y018486D01*
X003398Y018636D01*
X003848Y018636D01*
X003848Y018796D02*
X003398Y018796D01*
X003398Y019097D01*
X003548Y019257D02*
X003398Y019407D01*
X003548Y019557D01*
X003848Y019557D01*
X003773Y019717D02*
X003848Y019792D01*
X003848Y019942D01*
X003773Y020018D01*
X003698Y020018D01*
X003623Y019942D01*
X003623Y019792D01*
X003548Y019717D01*
X003473Y019717D01*
X003398Y019792D01*
X003398Y019942D01*
X003473Y020018D01*
X003923Y020178D02*
X003923Y020478D01*
X003848Y020638D02*
X003398Y020638D01*
X003623Y020713D02*
X003848Y020938D01*
X003698Y020638D02*
X003398Y020938D01*
X003398Y022126D02*
X003398Y022351D01*
X003473Y022426D01*
X003623Y022426D01*
X003698Y022351D01*
X003698Y022126D01*
X003698Y022276D02*
X003848Y022426D01*
X003848Y022586D02*
X003848Y022886D01*
X003848Y023046D02*
X003398Y023046D01*
X003398Y023347D01*
X003623Y023197D02*
X003623Y023046D01*
X003398Y022886D02*
X003398Y022586D01*
X003848Y022586D01*
X003623Y022586D02*
X003623Y022736D01*
X003848Y022126D02*
X003398Y022126D01*
X003923Y023507D02*
X003923Y023807D01*
X003848Y023967D02*
X003548Y023967D01*
X003398Y024117D01*
X003548Y024268D01*
X003848Y024268D01*
X003848Y024428D02*
X003398Y024428D01*
X003398Y024653D01*
X003473Y024728D01*
X003773Y024728D01*
X003848Y024653D01*
X003848Y024428D01*
X003623Y024268D02*
X003623Y023967D01*
X003773Y024888D02*
X003848Y024963D01*
X003848Y025038D01*
X003773Y025113D01*
X003398Y025113D01*
X003398Y025038D02*
X003398Y025188D01*
X004023Y026073D02*
X004324Y026073D01*
X004174Y026073D02*
X004174Y026524D01*
X004023Y026374D01*
X005023Y026449D02*
X005098Y026524D01*
X005249Y026524D01*
X005324Y026449D01*
X005324Y026374D01*
X005023Y026073D01*
X005324Y026073D01*
X006948Y026073D02*
X009448Y026073D01*
X009448Y028573D01*
X006948Y028573D01*
X006948Y026073D01*
X006173Y024888D02*
X006248Y024813D01*
X006248Y024663D01*
X006173Y024588D01*
X006023Y024738D02*
X006023Y024813D01*
X006098Y024888D01*
X006173Y024888D01*
X006023Y024813D02*
X005948Y024888D01*
X005873Y024888D01*
X005798Y024813D01*
X005798Y024663D01*
X005873Y024588D01*
X005898Y024280D02*
X006048Y024055D01*
X006198Y024280D01*
X006198Y024055D02*
X005748Y024055D01*
X005823Y023895D02*
X005748Y023820D01*
X005748Y023669D01*
X005823Y023594D01*
X006123Y023594D01*
X005823Y023895D01*
X006123Y023895D01*
X006198Y023820D01*
X006198Y023669D01*
X006123Y023594D01*
X006198Y023434D02*
X006198Y023134D01*
X006198Y023284D02*
X005748Y023284D01*
X005898Y023134D01*
X005848Y022688D02*
X006298Y022688D01*
X006298Y022538D02*
X006298Y022838D01*
X005998Y022538D02*
X005848Y022688D01*
X005873Y020638D02*
X005948Y020638D01*
X006023Y020563D01*
X006098Y020638D01*
X006173Y020638D01*
X006248Y020563D01*
X006248Y020413D01*
X006173Y020338D01*
X006023Y020488D02*
X006023Y020563D01*
X005873Y020638D02*
X005798Y020563D01*
X005798Y020413D01*
X005873Y020338D01*
X005898Y019780D02*
X006048Y019555D01*
X006198Y019780D01*
X006198Y019555D02*
X005748Y019555D01*
X005823Y019395D02*
X005748Y019320D01*
X005748Y019169D01*
X005823Y019094D01*
X006123Y019094D01*
X005823Y019395D01*
X006123Y019395D01*
X006198Y019320D01*
X006198Y019169D01*
X006123Y019094D01*
X006198Y018934D02*
X006198Y018634D01*
X006298Y018588D02*
X006298Y018288D01*
X006298Y018438D02*
X005848Y018438D01*
X005998Y018288D01*
X005898Y018634D02*
X005748Y018784D01*
X006198Y018784D01*
X003848Y018796D02*
X003848Y019097D01*
X003848Y019257D02*
X003548Y019257D01*
X003623Y019257D02*
X003623Y019557D01*
X003623Y018947D02*
X003623Y018796D01*
X003848Y018336D02*
X003398Y018336D01*
X010823Y024698D02*
X012573Y024698D01*
X012573Y028948D01*
X010823Y028948D01*
X010823Y024698D01*
X014823Y024698D02*
X014823Y028948D01*
X016573Y028948D01*
X016573Y024698D01*
X014823Y024698D01*
X017573Y026198D02*
X017573Y028698D01*
X022073Y028698D01*
X022073Y026198D01*
X017573Y026198D01*
X023073Y024698D02*
X024823Y024698D01*
X024823Y028948D01*
X023073Y028948D01*
X023073Y024698D01*
X027073Y024698D02*
X027073Y028948D01*
X028823Y028948D01*
X028823Y024698D01*
X027073Y024698D01*
X031073Y024698D02*
X032823Y024698D01*
X032823Y028948D01*
X031073Y028948D01*
X031073Y024698D01*
X035073Y024698D02*
X036823Y024698D01*
X036823Y028948D01*
X035073Y028948D01*
X035073Y024698D01*
X034144Y019799D02*
X033844Y019799D01*
X034144Y019799D02*
X034144Y019724D01*
X033844Y019424D01*
X033844Y019348D01*
X033684Y019348D02*
X033384Y019348D01*
X033534Y019348D02*
X033534Y019799D01*
X033384Y019649D01*
X033224Y019649D02*
X033149Y019574D01*
X033224Y019499D01*
X033224Y019424D01*
X033149Y019348D01*
X032998Y019348D01*
X032923Y019424D01*
X033074Y019574D02*
X033149Y019574D01*
X033224Y019649D02*
X033224Y019724D01*
X033149Y019799D01*
X032998Y019799D01*
X032923Y019724D01*
X029358Y018329D02*
X029358Y018029D01*
X029058Y018329D01*
X028982Y018329D01*
X028907Y018254D01*
X028907Y018104D01*
X028982Y018029D01*
X029283Y017874D02*
X029358Y017874D01*
X029358Y017799D01*
X029283Y017799D01*
X029283Y017874D01*
X029283Y017639D02*
X029358Y017564D01*
X029358Y017414D01*
X029283Y017339D01*
X028982Y017639D01*
X029283Y017639D01*
X029283Y017339D02*
X028982Y017339D01*
X028907Y017414D01*
X028907Y017564D01*
X028982Y017639D01*
X037773Y012435D02*
X037773Y012135D01*
X038223Y012135D01*
X038223Y011975D02*
X037923Y011975D01*
X037998Y012135D02*
X037998Y012285D01*
X038223Y011975D02*
X038223Y011749D01*
X038148Y011674D01*
X037923Y011674D01*
X037848Y011514D02*
X038148Y011214D01*
X038223Y011289D01*
X038223Y011439D01*
X038148Y011514D01*
X037848Y011514D01*
X037773Y011439D01*
X037773Y011289D01*
X037848Y011214D01*
X038148Y011214D01*
X038148Y011059D02*
X038223Y011059D01*
X038223Y010984D01*
X038148Y010984D01*
X038148Y011059D01*
X038223Y010824D02*
X038223Y010523D01*
X038223Y010674D02*
X037773Y010674D01*
X037923Y010523D01*
X036623Y010599D02*
X036623Y010749D01*
X036548Y010824D01*
X036548Y010984D02*
X036623Y011059D01*
X036623Y011209D01*
X036548Y011284D01*
X036398Y011284D01*
X036323Y011209D01*
X036323Y011134D01*
X036398Y010984D01*
X036173Y010984D01*
X036173Y011284D01*
X036248Y010824D02*
X036173Y010749D01*
X036173Y010599D01*
X036248Y010523D01*
X036548Y010523D01*
X036623Y010599D01*
X034559Y009224D02*
X034334Y008999D01*
X034634Y008999D01*
X034559Y009224D02*
X034559Y008773D01*
X034174Y008849D02*
X034099Y008773D01*
X033948Y008773D01*
X033873Y008849D01*
X033873Y009149D01*
X033948Y009224D01*
X034099Y009224D01*
X034174Y009149D01*
X034099Y007624D02*
X033948Y007624D01*
X033873Y007549D01*
X033873Y007249D01*
X034174Y007549D01*
X034174Y007249D01*
X034099Y007173D01*
X033948Y007173D01*
X033873Y007249D01*
X034174Y007549D02*
X034099Y007624D01*
X034334Y007249D02*
X034409Y007249D01*
X034409Y007173D01*
X034334Y007173D01*
X034334Y007249D01*
X034564Y007173D02*
X034864Y007173D01*
X034714Y007173D02*
X034714Y007624D01*
X034564Y007474D01*
X035024Y007474D02*
X035024Y007249D01*
X035099Y007173D01*
X035325Y007173D01*
X035325Y007474D01*
X035485Y007399D02*
X035635Y007399D01*
X035485Y007624D02*
X035785Y007624D01*
X035485Y007624D02*
X035485Y007173D01*
X034698Y006698D02*
X035198Y006198D01*
X035198Y001198D01*
X034698Y000698D01*
X031698Y000698D01*
X031198Y001198D01*
X031198Y006198D01*
X031698Y006698D01*
X034698Y006698D01*
X038448Y004198D02*
X038448Y001198D01*
X038948Y000698D01*
X041948Y000698D01*
X042448Y001198D01*
X042448Y004198D01*
X041948Y004698D01*
X038948Y004698D01*
X038448Y004198D01*
X041303Y005673D02*
X041303Y006124D01*
X041528Y006124D01*
X041603Y006049D01*
X041603Y005899D01*
X041528Y005824D01*
X041303Y005824D01*
X041453Y005824D02*
X041603Y005673D01*
X041763Y005749D02*
X041838Y005673D01*
X041988Y005673D01*
X042063Y005749D01*
X042063Y005824D01*
X041988Y005899D01*
X041763Y005899D01*
X041763Y005749D01*
X041763Y005899D02*
X041913Y006049D01*
X042063Y006124D01*
X042049Y006443D02*
X042124Y006443D01*
X042124Y006519D01*
X042049Y006519D01*
X042049Y006443D01*
X041889Y006443D02*
X041589Y006443D01*
X041739Y006443D02*
X041739Y006894D01*
X041589Y006744D01*
X042279Y006669D02*
X042279Y006894D01*
X042580Y006894D01*
X042740Y006894D02*
X042740Y006443D01*
X042740Y006594D02*
X042965Y006443D01*
X042740Y006594D02*
X042965Y006744D01*
X042580Y006669D02*
X042580Y006519D01*
X042505Y006443D01*
X042354Y006443D01*
X042279Y006519D01*
X042279Y006669D02*
X042429Y006744D01*
X042505Y006744D01*
X042580Y006669D01*
X046963Y006249D02*
X047038Y006324D01*
X047188Y006324D01*
X047263Y006249D01*
X047263Y006174D01*
X046963Y005873D01*
X047263Y005873D01*
X047963Y005873D02*
X048263Y005873D01*
X048113Y005873D02*
X048113Y006324D01*
X047963Y006174D01*
X048103Y003474D02*
X048103Y003023D01*
X048263Y003099D02*
X048338Y003023D01*
X048488Y003023D01*
X048563Y003099D01*
X048563Y003174D01*
X048488Y003249D01*
X048413Y003249D01*
X048488Y003249D02*
X048563Y003324D01*
X048563Y003399D01*
X048488Y003474D01*
X048338Y003474D01*
X048263Y003399D01*
X048103Y003249D02*
X047803Y003249D01*
X047642Y003399D02*
X047567Y003474D01*
X047417Y003474D01*
X047342Y003399D01*
X047342Y003099D01*
X047417Y003023D01*
X047567Y003023D01*
X047642Y003099D01*
X047803Y003023D02*
X047803Y003474D01*
X047182Y003474D02*
X046882Y003474D01*
X046882Y003023D01*
X047182Y003023D01*
X047032Y003249D02*
X046882Y003249D01*
X046722Y003474D02*
X046722Y003023D01*
X046421Y003023D02*
X046421Y003474D01*
X046572Y003324D01*
X046722Y003474D01*
X045359Y003474D02*
X045359Y003023D01*
X045059Y003474D01*
X045059Y003023D01*
X044899Y003099D02*
X044899Y003399D01*
X044824Y003474D01*
X044673Y003474D01*
X044598Y003399D01*
X044598Y003099D01*
X044673Y003023D01*
X044824Y003023D01*
X044899Y003099D01*
X043788Y011423D02*
X043788Y011874D01*
X043638Y011874D02*
X043938Y011874D01*
X043478Y011874D02*
X043178Y011874D01*
X043178Y011423D01*
X043478Y011423D01*
X043328Y011649D02*
X043178Y011649D01*
X043017Y011874D02*
X042717Y011874D01*
X042717Y011423D01*
X042557Y011499D02*
X042482Y011423D01*
X042332Y011423D01*
X042257Y011499D01*
X042097Y011499D02*
X042097Y011799D01*
X042022Y011874D01*
X041872Y011874D01*
X041796Y011799D01*
X041796Y011499D01*
X041872Y011423D01*
X042022Y011423D01*
X042097Y011499D01*
X042257Y011724D02*
X042332Y011649D01*
X042482Y011649D01*
X042557Y011574D01*
X042557Y011499D01*
X042717Y011649D02*
X042867Y011649D01*
X042557Y011799D02*
X042482Y011874D01*
X042332Y011874D01*
X042257Y011799D01*
X042257Y011724D01*
X041636Y011874D02*
X041636Y011423D01*
X041336Y011423D02*
X041336Y011874D01*
X041486Y011724D01*
X041636Y011874D01*
X041176Y011649D02*
X040876Y011649D01*
X040716Y011423D02*
X040716Y011874D01*
X040415Y011874D02*
X040716Y011423D01*
X040415Y011423D02*
X040415Y011874D01*
X044223Y015699D02*
X044298Y015623D01*
X044374Y015623D01*
X044449Y015699D01*
X044449Y016074D01*
X044374Y016074D02*
X044524Y016074D01*
X044684Y016074D02*
X044684Y015623D01*
X044684Y015774D02*
X044909Y015774D01*
X044984Y015849D01*
X044984Y015999D01*
X044909Y016074D01*
X044684Y016074D01*
X045144Y016074D02*
X045144Y015849D01*
X045294Y015924D01*
X045369Y015924D01*
X045444Y015849D01*
X045444Y015699D01*
X045369Y015623D01*
X045219Y015623D01*
X045144Y015699D01*
X045144Y016074D02*
X045444Y016074D01*
X046323Y017323D02*
X046323Y020823D01*
X048823Y020823D01*
X048823Y017323D01*
X046323Y017323D01*
X046372Y021298D02*
X046522Y021298D01*
X046597Y021374D01*
X046372Y021298D02*
X046296Y021374D01*
X046296Y021674D01*
X046372Y021749D01*
X046522Y021749D01*
X046597Y021674D01*
X046757Y021749D02*
X047057Y021749D01*
X046907Y021749D02*
X046907Y021298D01*
X047217Y021298D02*
X047517Y021298D01*
X047678Y021223D02*
X047978Y021223D01*
X048138Y021298D02*
X048138Y021749D01*
X048213Y021524D02*
X048438Y021298D01*
X048138Y021449D02*
X048438Y021749D01*
X047217Y021749D02*
X047217Y021298D01*
X046648Y022523D02*
X046723Y022599D01*
X046723Y022749D01*
X046648Y022824D01*
X046573Y022824D01*
X046498Y022749D01*
X046498Y022674D01*
X046498Y022749D02*
X046423Y022824D01*
X046348Y022824D01*
X046273Y022749D01*
X046273Y022599D01*
X046348Y022523D01*
X046473Y023383D02*
X046323Y023534D01*
X046773Y023534D01*
X046773Y023684D02*
X046773Y023383D01*
X046698Y023844D02*
X046398Y023844D01*
X046323Y023919D01*
X046323Y024069D01*
X046398Y024144D01*
X046698Y023844D01*
X046773Y023919D01*
X046773Y024069D01*
X046698Y024144D01*
X046398Y024144D01*
X046323Y024304D02*
X046773Y024304D01*
X046623Y024304D02*
X046773Y024529D01*
X046673Y024573D02*
X046673Y024874D01*
X046673Y024724D02*
X046223Y024724D01*
X046373Y024573D01*
X046473Y024529D02*
X046623Y024304D01*
X047023Y026073D02*
X047324Y026073D01*
X047174Y026073D02*
X047174Y026524D01*
X047023Y026374D01*
X048023Y026449D02*
X048098Y026524D01*
X048249Y026524D01*
X048324Y026449D01*
X048324Y026374D01*
X048023Y026073D01*
X048324Y026073D01*
X048405Y028923D02*
X048405Y029374D01*
X048565Y029224D02*
X048715Y029374D01*
X048715Y028923D01*
X048565Y028923D02*
X048865Y028923D01*
X048405Y029149D02*
X048105Y029149D01*
X047944Y029299D02*
X047869Y029374D01*
X047719Y029374D01*
X047644Y029299D01*
X047644Y028999D01*
X047719Y028923D01*
X047869Y028923D01*
X047944Y028999D01*
X048105Y028923D02*
X048105Y029374D01*
X047484Y029374D02*
X047184Y029374D01*
X047184Y028923D01*
X047484Y028923D01*
X047334Y029149D02*
X047184Y029149D01*
X047024Y029374D02*
X047024Y028923D01*
X046723Y028923D02*
X046723Y029374D01*
X046874Y029224D01*
X047024Y029374D01*
X029228Y006849D02*
X029303Y006774D01*
X029003Y006474D01*
X029078Y006398D01*
X029228Y006398D01*
X029303Y006474D01*
X029303Y006774D01*
X029228Y006849D02*
X029078Y006849D01*
X029003Y006774D01*
X029003Y006474D01*
X028842Y006398D02*
X028542Y006398D01*
X028692Y006398D02*
X028692Y006849D01*
X028542Y006699D01*
X029463Y006699D02*
X029463Y006474D01*
X029538Y006398D01*
X029763Y006398D01*
X029763Y006699D01*
X029763Y005249D02*
X029763Y005174D01*
X029463Y004874D01*
X029463Y004798D01*
X029580Y004699D02*
X029580Y004474D01*
X029730Y004549D01*
X029805Y004549D01*
X029880Y004474D01*
X029880Y004324D01*
X029805Y004248D01*
X029655Y004248D01*
X029580Y004324D01*
X029419Y004173D02*
X029119Y004173D01*
X028884Y004399D02*
X028659Y004399D01*
X028659Y004248D02*
X028659Y004699D01*
X028884Y004699D01*
X028959Y004624D01*
X028959Y004474D01*
X028884Y004399D01*
X029078Y004798D02*
X029228Y004798D01*
X029303Y004874D01*
X029078Y004798D02*
X029003Y004874D01*
X029003Y005174D01*
X029078Y005249D01*
X029228Y005249D01*
X029303Y005174D01*
X029463Y005249D02*
X029763Y005249D01*
X029880Y004699D02*
X029580Y004699D01*
X030040Y004699D02*
X030040Y004399D01*
X030190Y004248D01*
X030340Y004399D01*
X030340Y004699D01*
X028499Y004699D02*
X028198Y004699D01*
X028349Y004699D02*
X028349Y004248D01*
X005405Y028923D02*
X005105Y028923D01*
X005405Y029224D01*
X005405Y029299D01*
X005330Y029374D01*
X005180Y029374D01*
X005105Y029299D01*
X004944Y029374D02*
X004944Y028923D01*
X004794Y029074D01*
X004644Y028923D01*
X004644Y029374D01*
X004484Y029299D02*
X004409Y029374D01*
X004259Y029374D01*
X004184Y029299D01*
X004184Y028999D01*
X004259Y028923D01*
X004409Y028923D01*
X004484Y028999D01*
X004484Y029299D01*
X004024Y029299D02*
X004024Y029149D01*
X003949Y029074D01*
X003723Y029074D01*
X003723Y028923D02*
X003723Y029374D01*
X003949Y029374D01*
X004024Y029299D01*
D15*
X029073Y019647D03*
X029073Y008639D03*
D16*
X029068Y006123D02*
X029068Y005523D01*
X029318Y005523D02*
X029318Y006123D01*
X034578Y007898D02*
X034578Y008198D01*
X034578Y008498D01*
X034828Y008498D02*
X034828Y008198D01*
X034828Y007898D01*
X036898Y011078D02*
X037498Y011078D01*
X037498Y011328D02*
X036898Y011328D01*
X018998Y011203D02*
X018698Y011203D01*
X018398Y011203D01*
X018398Y011453D02*
X018698Y011453D01*
X018998Y011453D01*
X013818Y014523D02*
X013818Y015123D01*
X013568Y015123D02*
X013568Y014523D01*
X010328Y014523D02*
X010328Y014823D01*
X010328Y015123D01*
X010078Y015123D02*
X010078Y014823D01*
X010078Y014523D01*
X015578Y016773D02*
X015578Y017073D01*
X015578Y017373D01*
X015828Y017373D02*
X015828Y017073D01*
X015828Y016773D01*
D17*
X014334Y008405D02*
X014334Y002834D01*
X020063Y002834D01*
X020063Y008405D01*
X014334Y008405D01*
X013063Y008405D02*
X013063Y002834D01*
X007334Y002834D01*
X007334Y008405D01*
X013063Y008405D01*
X021334Y008405D02*
X021334Y002834D01*
X027063Y002834D01*
X027063Y008405D01*
X021334Y008405D01*
X039084Y024067D02*
X039084Y029638D01*
X044813Y029638D01*
X044813Y024067D01*
X039084Y024067D01*
D18*
X035358Y005259D02*
X035358Y004839D01*
X035358Y005049D02*
X035988Y005049D01*
X035883Y004615D02*
X035988Y004510D01*
X035988Y004299D01*
X035883Y004194D01*
X035673Y004299D02*
X035673Y004510D01*
X035778Y004615D01*
X035883Y004615D01*
X035673Y004299D02*
X035568Y004194D01*
X035463Y004194D01*
X035358Y004299D01*
X035358Y004510D01*
X035463Y004615D01*
X035358Y003970D02*
X035358Y003550D01*
X035988Y003550D01*
X035988Y003970D01*
X035673Y003760D02*
X035673Y003550D01*
X035358Y003326D02*
X035358Y002905D01*
X035358Y003115D02*
X035988Y003115D01*
D19*
X003257Y013856D03*
X003257Y014496D03*
X003257Y017981D03*
X003257Y018621D03*
X003257Y022231D03*
X003257Y022871D03*
X049265Y024651D03*
X049265Y025291D03*
D20*
X049200Y024991D03*
X003322Y022531D03*
X003322Y018281D03*
X003322Y014156D03*
D21*
X032773Y016948D02*
X032773Y020198D01*
X036373Y020198D01*
X036373Y016948D01*
X032773Y016948D01*
X040398Y014448D02*
X040398Y011198D01*
X043998Y011198D01*
X043998Y014448D01*
X040398Y014448D01*
D22*
X041198Y015923D03*
X042198Y015923D03*
X043198Y015923D03*
X035573Y015473D03*
X034573Y015473D03*
X033573Y015473D03*
D23*
X033573Y016148D03*
X034573Y016148D03*
X035573Y016148D03*
X041198Y015248D03*
X042198Y015248D03*
X043198Y015248D03*
D24*
X029154Y003607D02*
X029154Y003605D01*
X029152Y003603D01*
X029154Y003602D01*
X029154Y003600D01*
X029152Y003598D01*
X029149Y003598D01*
X029147Y003600D01*
X029145Y003598D02*
X029138Y003598D01*
X029141Y003598D02*
X029141Y003608D01*
X029138Y003605D01*
X029135Y003603D02*
X029129Y003603D01*
X029126Y003598D02*
X029119Y003598D01*
X029117Y003600D02*
X029117Y003607D01*
X029115Y003608D01*
X029110Y003608D01*
X029110Y003598D01*
X029115Y003598D01*
X029117Y003600D01*
X029119Y003605D02*
X029123Y003608D01*
X029123Y003598D01*
X029108Y003598D02*
X029108Y003605D01*
X029104Y003608D01*
X029101Y003605D01*
X029101Y003598D01*
X029101Y003603D02*
X029108Y003603D01*
X029099Y003603D02*
X029097Y003602D01*
X029092Y003602D01*
X029089Y003603D02*
X029088Y003602D01*
X029083Y003602D01*
X029083Y003598D02*
X029083Y003608D01*
X029088Y003608D01*
X029089Y003607D01*
X029089Y003603D01*
X029092Y003598D02*
X029092Y003608D01*
X029097Y003608D01*
X029099Y003607D01*
X029099Y003603D01*
X029080Y003608D02*
X029073Y003608D01*
X029077Y003608D02*
X029077Y003598D01*
X029147Y003607D02*
X029149Y003608D01*
X029152Y003608D01*
X029154Y003607D01*
X029152Y003603D02*
X029150Y003603D01*
M02*
