G75*
%MOIN*%
%OFA0B0*%
%FSLAX24Y24*%
%IPPOS*%
%LPD*%
%AMOC8*
5,1,8,0,0,1.08239X$1,22.5*
%
%ADD10C,0.0000*%
D10*
X007193Y006495D02*
X007693Y005995D01*
X055693Y005995D01*
X056193Y006495D01*
X056193Y036945D01*
X055693Y037445D01*
X007693Y037445D01*
X007193Y036945D01*
X007193Y006495D01*
X036028Y006695D02*
X036030Y006721D01*
X036036Y006747D01*
X036046Y006772D01*
X036059Y006795D01*
X036075Y006815D01*
X036095Y006833D01*
X036117Y006848D01*
X036140Y006860D01*
X036166Y006868D01*
X036192Y006872D01*
X036218Y006872D01*
X036244Y006868D01*
X036270Y006860D01*
X036294Y006848D01*
X036315Y006833D01*
X036335Y006815D01*
X036351Y006795D01*
X036364Y006772D01*
X036374Y006747D01*
X036380Y006721D01*
X036382Y006695D01*
X036380Y006669D01*
X036374Y006643D01*
X036364Y006618D01*
X036351Y006595D01*
X036335Y006575D01*
X036315Y006557D01*
X036293Y006542D01*
X036270Y006530D01*
X036244Y006522D01*
X036218Y006518D01*
X036192Y006518D01*
X036166Y006522D01*
X036140Y006530D01*
X036116Y006542D01*
X036095Y006557D01*
X036075Y006575D01*
X036059Y006595D01*
X036046Y006618D01*
X036036Y006643D01*
X036030Y006669D01*
X036028Y006695D01*
X038705Y006695D02*
X038707Y006721D01*
X038713Y006747D01*
X038723Y006772D01*
X038736Y006795D01*
X038752Y006815D01*
X038772Y006833D01*
X038794Y006848D01*
X038817Y006860D01*
X038843Y006868D01*
X038869Y006872D01*
X038895Y006872D01*
X038921Y006868D01*
X038947Y006860D01*
X038971Y006848D01*
X038992Y006833D01*
X039012Y006815D01*
X039028Y006795D01*
X039041Y006772D01*
X039051Y006747D01*
X039057Y006721D01*
X039059Y006695D01*
X039057Y006669D01*
X039051Y006643D01*
X039041Y006618D01*
X039028Y006595D01*
X039012Y006575D01*
X038992Y006557D01*
X038970Y006542D01*
X038947Y006530D01*
X038921Y006522D01*
X038895Y006518D01*
X038869Y006518D01*
X038843Y006522D01*
X038817Y006530D01*
X038793Y006542D01*
X038772Y006557D01*
X038752Y006575D01*
X038736Y006595D01*
X038723Y006618D01*
X038713Y006643D01*
X038707Y006669D01*
X038705Y006695D01*
X045278Y006695D02*
X045280Y006721D01*
X045286Y006747D01*
X045296Y006772D01*
X045309Y006795D01*
X045325Y006815D01*
X045345Y006833D01*
X045367Y006848D01*
X045390Y006860D01*
X045416Y006868D01*
X045442Y006872D01*
X045468Y006872D01*
X045494Y006868D01*
X045520Y006860D01*
X045544Y006848D01*
X045565Y006833D01*
X045585Y006815D01*
X045601Y006795D01*
X045614Y006772D01*
X045624Y006747D01*
X045630Y006721D01*
X045632Y006695D01*
X045630Y006669D01*
X045624Y006643D01*
X045614Y006618D01*
X045601Y006595D01*
X045585Y006575D01*
X045565Y006557D01*
X045543Y006542D01*
X045520Y006530D01*
X045494Y006522D01*
X045468Y006518D01*
X045442Y006518D01*
X045416Y006522D01*
X045390Y006530D01*
X045366Y006542D01*
X045345Y006557D01*
X045325Y006575D01*
X045309Y006595D01*
X045296Y006618D01*
X045286Y006643D01*
X045280Y006669D01*
X045278Y006695D01*
X047955Y006695D02*
X047957Y006721D01*
X047963Y006747D01*
X047973Y006772D01*
X047986Y006795D01*
X048002Y006815D01*
X048022Y006833D01*
X048044Y006848D01*
X048067Y006860D01*
X048093Y006868D01*
X048119Y006872D01*
X048145Y006872D01*
X048171Y006868D01*
X048197Y006860D01*
X048221Y006848D01*
X048242Y006833D01*
X048262Y006815D01*
X048278Y006795D01*
X048291Y006772D01*
X048301Y006747D01*
X048307Y006721D01*
X048309Y006695D01*
X048307Y006669D01*
X048301Y006643D01*
X048291Y006618D01*
X048278Y006595D01*
X048262Y006575D01*
X048242Y006557D01*
X048220Y006542D01*
X048197Y006530D01*
X048171Y006522D01*
X048145Y006518D01*
X048119Y006518D01*
X048093Y006522D01*
X048067Y006530D01*
X048043Y006542D01*
X048022Y006557D01*
X048002Y006575D01*
X047986Y006595D01*
X047973Y006618D01*
X047963Y006643D01*
X047957Y006669D01*
X047955Y006695D01*
X051455Y007176D02*
X051457Y007211D01*
X051463Y007246D01*
X051473Y007280D01*
X051486Y007313D01*
X051503Y007344D01*
X051524Y007372D01*
X051547Y007399D01*
X051574Y007422D01*
X051602Y007443D01*
X051633Y007460D01*
X051666Y007473D01*
X051700Y007483D01*
X051735Y007489D01*
X051770Y007491D01*
X051805Y007489D01*
X051840Y007483D01*
X051874Y007473D01*
X051907Y007460D01*
X051938Y007443D01*
X051966Y007422D01*
X051993Y007399D01*
X052016Y007372D01*
X052037Y007344D01*
X052054Y007313D01*
X052067Y007280D01*
X052077Y007246D01*
X052083Y007211D01*
X052085Y007176D01*
X052083Y007141D01*
X052077Y007106D01*
X052067Y007072D01*
X052054Y007039D01*
X052037Y007008D01*
X052016Y006980D01*
X051993Y006953D01*
X051966Y006930D01*
X051938Y006909D01*
X051907Y006892D01*
X051874Y006879D01*
X051840Y006869D01*
X051805Y006863D01*
X051770Y006861D01*
X051735Y006863D01*
X051700Y006869D01*
X051666Y006879D01*
X051633Y006892D01*
X051602Y006909D01*
X051574Y006930D01*
X051547Y006953D01*
X051524Y006980D01*
X051503Y007008D01*
X051486Y007039D01*
X051473Y007072D01*
X051463Y007106D01*
X051457Y007141D01*
X051455Y007176D01*
M02*
