G75*
%MOIN*%
%OFA0B0*%
%FSLAX24Y24*%
%IPPOS*%
%LPD*%
%AMOC8*
5,1,8,0,0,1.08239X$1,22.5*
%
%ADD10R,0.0472X0.0984*%
%ADD11OC8,0.1065*%
%ADD12OC8,0.0700*%
%ADD13OC8,0.0660*%
%ADD14OC8,0.0531*%
%ADD15OC8,0.1095*%
%ADD16OC8,0.1620*%
%ADD17OC8,0.1325*%
%ADD18OC8,0.1424*%
%ADD19OC8,0.0600*%
%ADD20OC8,0.0472*%
%ADD21C,0.0570*%
%ADD22C,0.0100*%
%ADD23C,0.0270*%
%ADD24C,0.0210*%
%ADD25C,0.0050*%
%ADD26C,0.0472*%
%ADD27C,0.0240*%
%ADD28C,0.0110*%
%ADD29C,0.0376*%
%ADD30C,0.0945*%
%ADD31OC8,0.1181*%
%ADD32OC8,0.0650*%
%ADD33C,0.0200*%
%ADD34C,0.0400*%
%ADD35C,0.0160*%
%ADD36OC8,0.1266*%
%ADD37C,0.0240*%
%ADD38C,0.0120*%
%ADD39C,0.0070*%
%ADD40C,0.0591*%
%ADD41C,0.0400*%
D10*
X045809Y007778D03*
X046793Y007778D03*
X047778Y007778D03*
D11*
X020843Y007805D03*
X017843Y007805D03*
X014193Y007805D03*
X011193Y007805D03*
X031393Y035635D03*
X034393Y035635D03*
X037993Y035635D03*
X040993Y035635D03*
X044593Y035635D03*
X047593Y035635D03*
X051193Y035635D03*
X054193Y035635D03*
D12*
X052693Y032565D03*
X046093Y032565D03*
X039493Y032565D03*
X032893Y032565D03*
X019343Y010875D03*
X012693Y010875D03*
D13*
X024243Y010095D03*
X024243Y009095D03*
X025243Y009095D03*
X026243Y009095D03*
X026243Y010095D03*
X025243Y010095D03*
X027243Y010095D03*
X027243Y009095D03*
X028243Y009095D03*
X028243Y010095D03*
X052282Y026918D03*
X053282Y026918D03*
X053282Y027918D03*
X052282Y027918D03*
X052282Y028918D03*
X053282Y028918D03*
X053282Y029918D03*
X052282Y029918D03*
D14*
X022793Y035595D03*
X021793Y035595D03*
X020793Y035595D03*
D15*
X016873Y036495D03*
X014873Y036495D03*
X014023Y031495D03*
X015873Y031495D03*
X017723Y031495D03*
X033793Y012995D03*
X033793Y006995D03*
X041293Y006995D03*
X041293Y012995D03*
D16*
X051770Y010719D03*
D17*
X051770Y008357D03*
D18*
X053541Y007965D03*
X049998Y007965D03*
D19*
X011693Y031995D03*
X011693Y032995D03*
X011693Y033995D03*
X011693Y034995D03*
X009593Y034995D03*
X009593Y033995D03*
X009593Y032995D03*
X009593Y031995D03*
D20*
X049003Y031495D03*
X049003Y032495D03*
X049003Y033495D03*
X050003Y034495D03*
X049003Y035495D03*
D21*
X009693Y006595D03*
X009693Y007595D03*
X009693Y008595D03*
X009693Y009595D03*
X009693Y010595D03*
X009693Y011595D03*
X009693Y012595D03*
X009693Y013595D03*
X009693Y014595D03*
X009693Y015595D03*
X009693Y016595D03*
X009693Y017595D03*
X009693Y018595D03*
X009693Y019595D03*
X012693Y018595D03*
X013693Y018595D03*
X013693Y017595D03*
X012693Y017595D03*
X012693Y016595D03*
X013693Y016595D03*
X013693Y015595D03*
X012693Y015595D03*
X012693Y014595D03*
X013693Y014595D03*
X013693Y013595D03*
X012693Y013595D03*
X012693Y012595D03*
X013693Y012595D03*
X014693Y011595D03*
X014693Y010595D03*
X015693Y010595D03*
X015693Y009595D03*
X015693Y008595D03*
X015693Y007595D03*
X015693Y006595D03*
X015693Y011595D03*
X015693Y012595D03*
X015693Y013595D03*
X015693Y014595D03*
X015693Y015595D03*
X015693Y016595D03*
X015693Y017595D03*
X015693Y018595D03*
X015693Y019595D03*
D22*
X016143Y014045D02*
X014143Y014045D01*
X013693Y013595D01*
X017126Y010428D02*
X023988Y010428D01*
X024071Y010510D02*
X023828Y010267D01*
X023828Y009923D01*
X024071Y009680D01*
X024415Y009680D01*
X024659Y009923D01*
X024659Y010267D01*
X024415Y010510D01*
X024071Y010510D01*
X023890Y010329D02*
X017027Y010329D01*
X016943Y010245D02*
X018943Y012245D01*
X020443Y012245D01*
X024443Y016245D01*
X024443Y026185D01*
X024589Y026185D01*
X025189Y026785D01*
X025254Y026849D01*
X025254Y027073D01*
X025352Y026975D01*
X025535Y026975D01*
X025664Y027104D01*
X025664Y027286D01*
X025535Y027415D01*
X025533Y027415D01*
X025634Y027516D01*
X025634Y027674D01*
X025522Y027785D01*
X025364Y027785D01*
X025253Y027674D01*
X025253Y027561D01*
X025098Y027405D01*
X025098Y027405D01*
X025033Y027341D01*
X025033Y026941D01*
X024498Y026405D01*
X020852Y026405D01*
X020772Y026485D01*
X020614Y026485D01*
X020503Y026374D01*
X020503Y026245D01*
X019234Y026245D01*
X019234Y026324D01*
X019154Y026404D01*
X019154Y027036D01*
X019234Y027116D01*
X019234Y027274D01*
X019122Y027385D01*
X018964Y027385D01*
X018853Y027274D01*
X018853Y027116D01*
X018933Y027036D01*
X018933Y026404D01*
X018853Y026324D01*
X018853Y026245D01*
X018049Y026245D01*
X018089Y026285D01*
X018154Y026349D01*
X018154Y027936D01*
X018234Y028016D01*
X018234Y028174D01*
X018122Y028285D01*
X017964Y028285D01*
X017853Y028174D01*
X017853Y028016D01*
X017933Y027936D01*
X017933Y026441D01*
X017737Y026245D01*
X015005Y026245D01*
X015064Y026304D01*
X015064Y026486D01*
X014935Y026615D01*
X014752Y026615D01*
X014623Y026486D01*
X014623Y026304D01*
X014682Y026245D01*
X007393Y026245D01*
X007393Y036862D01*
X007776Y037245D01*
X055610Y037245D01*
X055993Y036862D01*
X055993Y012995D01*
X052943Y012995D01*
X052943Y009202D01*
X052463Y008722D01*
X052080Y009105D01*
X051460Y009105D01*
X051022Y008667D01*
X051022Y008495D01*
X050596Y008495D01*
X050328Y008762D01*
X049668Y008762D01*
X049401Y008495D01*
X047918Y008495D01*
X047918Y008558D01*
X047964Y008604D01*
X047964Y008786D01*
X047835Y008915D01*
X047652Y008915D01*
X047523Y008786D01*
X047523Y008604D01*
X047632Y008495D01*
X046934Y008495D01*
X046934Y008524D01*
X047014Y008604D01*
X047014Y008786D01*
X046885Y008915D01*
X046702Y008915D01*
X046573Y008786D01*
X046573Y008604D01*
X046653Y008524D01*
X046653Y008495D01*
X045955Y008495D01*
X046064Y008604D01*
X046064Y008786D01*
X045935Y008915D01*
X045752Y008915D01*
X045623Y008786D01*
X045623Y008604D01*
X045669Y008558D01*
X045669Y008495D01*
X022943Y008495D01*
X021693Y007245D01*
X021157Y007245D01*
X021461Y007549D01*
X021461Y008061D01*
X021099Y008423D01*
X020587Y008423D01*
X020225Y008061D01*
X020225Y007549D01*
X020529Y007245D01*
X018157Y007245D01*
X018461Y007549D01*
X018461Y008061D01*
X018099Y008423D01*
X017587Y008423D01*
X017225Y008061D01*
X017225Y007549D01*
X017529Y007245D01*
X016943Y007245D01*
X016943Y010245D01*
X016943Y010231D02*
X023828Y010231D01*
X023828Y010132D02*
X016943Y010132D01*
X016943Y010034D02*
X023828Y010034D01*
X023828Y009935D02*
X016943Y009935D01*
X016943Y009837D02*
X023914Y009837D01*
X024013Y009738D02*
X016943Y009738D01*
X016943Y009640D02*
X052943Y009640D01*
X052943Y009738D02*
X028474Y009738D01*
X028415Y009680D02*
X028659Y009923D01*
X028659Y010267D01*
X028415Y010510D01*
X028071Y010510D01*
X027828Y010267D01*
X027828Y009923D01*
X028071Y009680D01*
X028415Y009680D01*
X028415Y009510D02*
X028071Y009510D01*
X027828Y009267D01*
X027828Y008923D01*
X028071Y008680D01*
X028415Y008680D01*
X028659Y008923D01*
X028659Y009267D01*
X028415Y009510D01*
X028483Y009443D02*
X052943Y009443D01*
X052943Y009541D02*
X016943Y009541D01*
X016943Y009443D02*
X024003Y009443D01*
X024071Y009510D02*
X023828Y009267D01*
X023828Y008923D01*
X024071Y008680D01*
X024415Y008680D01*
X024659Y008923D01*
X024659Y009267D01*
X024415Y009510D01*
X024071Y009510D01*
X023905Y009344D02*
X016943Y009344D01*
X016943Y009246D02*
X023828Y009246D01*
X023828Y009147D02*
X016943Y009147D01*
X016943Y009049D02*
X023828Y009049D01*
X023828Y008950D02*
X016943Y008950D01*
X016943Y008852D02*
X023899Y008852D01*
X023998Y008753D02*
X016943Y008753D01*
X016943Y008655D02*
X030254Y008655D01*
X030323Y008585D02*
X030663Y008585D01*
X030904Y008825D01*
X030904Y009165D01*
X030663Y009405D01*
X030323Y009405D01*
X030083Y009165D01*
X030083Y008825D01*
X030323Y008585D01*
X030155Y008753D02*
X028489Y008753D01*
X028587Y008852D02*
X030083Y008852D01*
X030083Y008950D02*
X028659Y008950D01*
X028659Y009049D02*
X030083Y009049D01*
X030083Y009147D02*
X028659Y009147D01*
X028659Y009246D02*
X030164Y009246D01*
X030262Y009344D02*
X028582Y009344D01*
X028572Y009837D02*
X051386Y009837D01*
X051399Y009824D02*
X052141Y009824D01*
X052665Y010348D01*
X052665Y011090D01*
X052141Y011615D01*
X051399Y011615D01*
X050874Y011090D01*
X050874Y010348D01*
X051399Y009824D01*
X051287Y009935D02*
X028659Y009935D01*
X028659Y010034D02*
X051189Y010034D01*
X051090Y010132D02*
X028659Y010132D01*
X028659Y010231D02*
X050992Y010231D01*
X050893Y010329D02*
X028597Y010329D01*
X028498Y010428D02*
X050874Y010428D01*
X050874Y010526D02*
X026409Y010526D01*
X026409Y010510D02*
X026409Y012724D01*
X026475Y012790D01*
X026517Y012891D01*
X026517Y012999D01*
X026475Y013100D01*
X026398Y013177D01*
X026298Y013219D01*
X026189Y013219D01*
X026088Y013177D01*
X026011Y013100D01*
X025970Y012999D01*
X025970Y012891D01*
X026011Y012790D01*
X026078Y012724D01*
X026078Y010510D01*
X026071Y010510D01*
X025828Y010267D01*
X025828Y009923D01*
X026071Y009680D01*
X026415Y009680D01*
X026659Y009923D01*
X026659Y010267D01*
X026415Y010510D01*
X026409Y010510D01*
X026409Y010625D02*
X050874Y010625D01*
X050874Y010723D02*
X026409Y010723D01*
X026409Y010822D02*
X030287Y010822D01*
X030323Y010785D02*
X030663Y010785D01*
X030904Y011025D01*
X030904Y011365D01*
X030663Y011605D01*
X030323Y011605D01*
X030083Y011365D01*
X030083Y011025D01*
X030323Y010785D01*
X030188Y010920D02*
X026409Y010920D01*
X026409Y011019D02*
X030090Y011019D01*
X030083Y011117D02*
X026409Y011117D01*
X026409Y011216D02*
X030083Y011216D01*
X030083Y011314D02*
X026409Y011314D01*
X026409Y011413D02*
X030131Y011413D01*
X030229Y011511D02*
X026409Y011511D01*
X026409Y011610D02*
X051393Y011610D01*
X051295Y011511D02*
X030757Y011511D01*
X030856Y011413D02*
X051196Y011413D01*
X051098Y011314D02*
X030904Y011314D01*
X030904Y011216D02*
X050999Y011216D01*
X050901Y011117D02*
X030904Y011117D01*
X030897Y011019D02*
X050874Y011019D01*
X050874Y010920D02*
X030798Y010920D01*
X030700Y010822D02*
X050874Y010822D01*
X052146Y011610D02*
X052943Y011610D01*
X052943Y011708D02*
X026409Y011708D01*
X026409Y011807D02*
X052943Y011807D01*
X052943Y011905D02*
X026409Y011905D01*
X026409Y012004D02*
X052943Y012004D01*
X052943Y012102D02*
X026409Y012102D01*
X026409Y012201D02*
X046172Y012201D01*
X046196Y012176D02*
X046791Y012176D01*
X047212Y012597D01*
X047212Y013193D01*
X046791Y013614D01*
X046196Y013614D01*
X045775Y013193D01*
X045775Y012597D01*
X046196Y012176D01*
X046073Y012299D02*
X026409Y012299D01*
X026409Y012398D02*
X033496Y012398D01*
X033531Y012362D02*
X034055Y012362D01*
X034426Y012733D01*
X034426Y013257D01*
X034055Y013628D01*
X033531Y013628D01*
X033160Y013257D01*
X033160Y012733D01*
X033531Y012362D01*
X033397Y012496D02*
X026409Y012496D01*
X026409Y012595D02*
X033299Y012595D01*
X033200Y012693D02*
X026409Y012693D01*
X026476Y012792D02*
X033160Y012792D01*
X033160Y012890D02*
X026517Y012890D01*
X026517Y012989D02*
X033160Y012989D01*
X033160Y013087D02*
X026481Y013087D01*
X026377Y013186D02*
X033160Y013186D01*
X033187Y013284D02*
X021482Y013284D01*
X021384Y013186D02*
X026109Y013186D01*
X026006Y013087D02*
X021285Y013087D01*
X021187Y012989D02*
X025970Y012989D01*
X025970Y012890D02*
X021088Y012890D01*
X020990Y012792D02*
X026011Y012792D01*
X026078Y012693D02*
X020891Y012693D01*
X020793Y012595D02*
X026078Y012595D01*
X026078Y012496D02*
X020694Y012496D01*
X020596Y012398D02*
X026078Y012398D01*
X026078Y012299D02*
X022901Y012299D01*
X022885Y012315D02*
X022702Y012315D01*
X022573Y012186D01*
X022573Y012004D01*
X022702Y011875D01*
X022885Y011875D01*
X023014Y012004D01*
X023014Y012186D01*
X022885Y012315D01*
X023000Y012201D02*
X026078Y012201D01*
X026078Y012102D02*
X023014Y012102D01*
X023014Y012004D02*
X026078Y012004D01*
X026078Y011905D02*
X022915Y011905D01*
X022672Y011905D02*
X021965Y011905D01*
X021935Y011875D02*
X022064Y012004D01*
X022064Y012186D01*
X021935Y012315D01*
X021752Y012315D01*
X021623Y012186D01*
X021623Y012004D01*
X021752Y011875D01*
X021935Y011875D01*
X022064Y012004D02*
X022573Y012004D01*
X022573Y012102D02*
X022064Y012102D01*
X022050Y012201D02*
X022587Y012201D01*
X022686Y012299D02*
X021951Y012299D01*
X021736Y012299D02*
X020497Y012299D01*
X020802Y011515D02*
X020673Y011386D01*
X020673Y011204D01*
X020802Y011075D01*
X020985Y011075D01*
X021114Y011204D01*
X021114Y011386D01*
X020985Y011515D01*
X020802Y011515D01*
X020798Y011511D02*
X018209Y011511D01*
X018111Y011413D02*
X020699Y011413D01*
X020673Y011314D02*
X018012Y011314D01*
X017914Y011216D02*
X019068Y011216D01*
X019163Y011310D02*
X018908Y011055D01*
X018908Y010695D01*
X019163Y010440D01*
X019524Y010440D01*
X019779Y010695D01*
X019779Y011055D01*
X019524Y011310D01*
X019163Y011310D01*
X018970Y011117D02*
X017815Y011117D01*
X017717Y011019D02*
X018908Y011019D01*
X018908Y010920D02*
X017618Y010920D01*
X017520Y010822D02*
X018908Y010822D01*
X018908Y010723D02*
X017421Y010723D01*
X017323Y010625D02*
X018978Y010625D01*
X019076Y010526D02*
X017224Y010526D01*
X018308Y011610D02*
X026078Y011610D01*
X026078Y011708D02*
X018406Y011708D01*
X018505Y011807D02*
X026078Y011807D01*
X026078Y011511D02*
X020989Y011511D01*
X021088Y011413D02*
X026078Y011413D01*
X026078Y011314D02*
X021114Y011314D01*
X021114Y011216D02*
X026078Y011216D01*
X026078Y011117D02*
X021027Y011117D01*
X020760Y011117D02*
X019717Y011117D01*
X019779Y011019D02*
X026078Y011019D01*
X026078Y010920D02*
X019779Y010920D01*
X019779Y010822D02*
X026078Y010822D01*
X026078Y010723D02*
X019779Y010723D01*
X019709Y010625D02*
X026078Y010625D01*
X026078Y010526D02*
X019610Y010526D01*
X019619Y011216D02*
X020673Y011216D01*
X021623Y012004D02*
X018702Y012004D01*
X018800Y012102D02*
X021623Y012102D01*
X021637Y012201D02*
X018899Y012201D01*
X018603Y011905D02*
X021722Y011905D01*
X021581Y013383D02*
X033286Y013383D01*
X033384Y013481D02*
X021679Y013481D01*
X021778Y013580D02*
X033483Y013580D01*
X033431Y013795D02*
X051555Y013795D01*
X051643Y013883D01*
X051643Y031140D01*
X051667Y031140D01*
X051667Y031065D01*
X052063Y030669D01*
X052623Y030669D01*
X053019Y031065D01*
X053019Y031625D01*
X052623Y032021D01*
X052063Y032021D01*
X051667Y031625D01*
X051667Y031550D01*
X051643Y031550D01*
X051643Y032007D01*
X051555Y032095D01*
X049659Y032095D01*
X049659Y032849D01*
X049714Y032904D01*
X049714Y033086D01*
X049585Y033215D01*
X049402Y033215D01*
X049273Y033086D01*
X049273Y032904D01*
X049328Y032849D01*
X049328Y032095D01*
X033431Y032095D01*
X033343Y032007D01*
X033343Y031457D01*
X033273Y031386D01*
X033273Y031273D01*
X033065Y031065D01*
X032952Y031065D01*
X032823Y030936D01*
X032823Y030754D01*
X032952Y030625D01*
X033135Y030625D01*
X033264Y030754D01*
X033264Y030867D01*
X033343Y030946D01*
X033343Y030457D01*
X033323Y030436D01*
X033323Y030254D01*
X033343Y030233D01*
X033343Y025707D01*
X033323Y025686D01*
X033323Y025504D01*
X033343Y025483D01*
X033343Y013883D01*
X033431Y013795D01*
X033351Y013875D02*
X022073Y013875D01*
X021975Y013777D02*
X055993Y013777D01*
X055993Y013875D02*
X051635Y013875D01*
X051643Y013974D02*
X055993Y013974D01*
X055993Y014072D02*
X051643Y014072D01*
X051643Y014171D02*
X055993Y014171D01*
X055993Y014269D02*
X051643Y014269D01*
X051643Y014368D02*
X055993Y014368D01*
X055993Y014466D02*
X051643Y014466D01*
X051643Y014565D02*
X055993Y014565D01*
X055993Y014663D02*
X051643Y014663D01*
X051643Y014762D02*
X055993Y014762D01*
X055993Y014860D02*
X051643Y014860D01*
X051643Y014959D02*
X055993Y014959D01*
X055993Y015057D02*
X051643Y015057D01*
X051643Y015156D02*
X055993Y015156D01*
X055993Y015254D02*
X051643Y015254D01*
X051643Y015353D02*
X055993Y015353D01*
X055993Y015451D02*
X051643Y015451D01*
X051643Y015550D02*
X055993Y015550D01*
X055993Y015648D02*
X051643Y015648D01*
X051643Y015747D02*
X055993Y015747D01*
X055993Y015845D02*
X051643Y015845D01*
X051643Y015944D02*
X055993Y015944D01*
X055993Y016042D02*
X051643Y016042D01*
X051643Y016141D02*
X055993Y016141D01*
X055993Y016239D02*
X051643Y016239D01*
X051643Y016338D02*
X055993Y016338D01*
X055993Y016436D02*
X051643Y016436D01*
X051643Y016535D02*
X055993Y016535D01*
X055993Y016633D02*
X051643Y016633D01*
X051643Y016732D02*
X055993Y016732D01*
X055993Y016830D02*
X051643Y016830D01*
X051643Y016929D02*
X055993Y016929D01*
X055993Y017027D02*
X051643Y017027D01*
X051643Y017126D02*
X055993Y017126D01*
X055993Y017224D02*
X051643Y017224D01*
X051643Y017323D02*
X055993Y017323D01*
X055993Y017421D02*
X051643Y017421D01*
X051643Y017520D02*
X055993Y017520D01*
X055993Y017618D02*
X051643Y017618D01*
X051643Y017717D02*
X055993Y017717D01*
X055993Y017815D02*
X051643Y017815D01*
X051643Y017914D02*
X055993Y017914D01*
X055993Y018012D02*
X051643Y018012D01*
X051643Y018111D02*
X055993Y018111D01*
X055993Y018209D02*
X051643Y018209D01*
X051643Y018308D02*
X055993Y018308D01*
X055993Y018406D02*
X051643Y018406D01*
X051643Y018505D02*
X055993Y018505D01*
X055993Y018603D02*
X051643Y018603D01*
X051643Y018702D02*
X055993Y018702D01*
X055993Y018800D02*
X051643Y018800D01*
X051643Y018899D02*
X055993Y018899D01*
X055993Y018997D02*
X051643Y018997D01*
X051643Y019096D02*
X055993Y019096D01*
X055993Y019194D02*
X051643Y019194D01*
X051643Y019293D02*
X055993Y019293D01*
X055993Y019391D02*
X051643Y019391D01*
X051643Y019490D02*
X055993Y019490D01*
X055993Y019588D02*
X051643Y019588D01*
X051643Y019687D02*
X055993Y019687D01*
X055993Y019785D02*
X051643Y019785D01*
X051643Y019884D02*
X055993Y019884D01*
X055993Y019982D02*
X051643Y019982D01*
X051643Y020081D02*
X055993Y020081D01*
X055993Y020179D02*
X051643Y020179D01*
X051643Y020278D02*
X055993Y020278D01*
X055993Y020376D02*
X051643Y020376D01*
X051643Y020475D02*
X055993Y020475D01*
X055993Y020573D02*
X051643Y020573D01*
X051643Y020672D02*
X055993Y020672D01*
X055993Y020770D02*
X051643Y020770D01*
X051643Y020869D02*
X055993Y020869D01*
X055993Y020967D02*
X051643Y020967D01*
X051643Y021066D02*
X055993Y021066D01*
X055993Y021164D02*
X051643Y021164D01*
X051643Y021263D02*
X055993Y021263D01*
X055993Y021361D02*
X051643Y021361D01*
X051643Y021460D02*
X055993Y021460D01*
X055993Y021558D02*
X051643Y021558D01*
X051643Y021657D02*
X055993Y021657D01*
X055993Y021755D02*
X051643Y021755D01*
X051643Y021854D02*
X055993Y021854D01*
X055993Y021952D02*
X051643Y021952D01*
X051643Y022051D02*
X055993Y022051D01*
X055993Y022149D02*
X051643Y022149D01*
X051643Y022248D02*
X055993Y022248D01*
X055993Y022346D02*
X051643Y022346D01*
X051643Y022445D02*
X055993Y022445D01*
X055993Y022543D02*
X051643Y022543D01*
X051643Y022642D02*
X055993Y022642D01*
X055993Y022740D02*
X051643Y022740D01*
X051643Y022839D02*
X055993Y022839D01*
X055993Y022937D02*
X051643Y022937D01*
X051643Y023036D02*
X055993Y023036D01*
X055993Y023134D02*
X051643Y023134D01*
X051643Y023233D02*
X055993Y023233D01*
X055993Y023331D02*
X051643Y023331D01*
X051643Y023430D02*
X055993Y023430D01*
X055993Y023528D02*
X051643Y023528D01*
X051643Y023627D02*
X055993Y023627D01*
X055993Y023725D02*
X051643Y023725D01*
X051643Y023824D02*
X055993Y023824D01*
X055993Y023922D02*
X051643Y023922D01*
X051643Y024021D02*
X055993Y024021D01*
X055993Y024119D02*
X051643Y024119D01*
X051643Y024218D02*
X055993Y024218D01*
X055993Y024316D02*
X051643Y024316D01*
X051643Y024415D02*
X055993Y024415D01*
X055993Y024513D02*
X051643Y024513D01*
X051643Y024612D02*
X055993Y024612D01*
X055993Y024710D02*
X051643Y024710D01*
X051643Y024809D02*
X055993Y024809D01*
X055993Y024907D02*
X051643Y024907D01*
X051643Y025006D02*
X055993Y025006D01*
X055993Y025104D02*
X051643Y025104D01*
X051643Y025203D02*
X055993Y025203D01*
X055993Y025301D02*
X051643Y025301D01*
X051643Y025400D02*
X055993Y025400D01*
X055993Y025498D02*
X051643Y025498D01*
X051643Y025597D02*
X055993Y025597D01*
X055993Y025695D02*
X051643Y025695D01*
X051643Y025794D02*
X055993Y025794D01*
X055993Y025892D02*
X051643Y025892D01*
X051643Y025991D02*
X055993Y025991D01*
X055993Y026089D02*
X051643Y026089D01*
X051643Y026188D02*
X055993Y026188D01*
X055993Y026286D02*
X051643Y026286D01*
X051643Y026385D02*
X055993Y026385D01*
X055993Y026483D02*
X051643Y026483D01*
X051643Y026582D02*
X052031Y026582D01*
X052110Y026502D02*
X051867Y026746D01*
X051867Y027090D01*
X052110Y027333D01*
X052454Y027333D01*
X052698Y027090D01*
X052698Y026746D01*
X052454Y026502D01*
X052110Y026502D01*
X051933Y026680D02*
X051643Y026680D01*
X051643Y026779D02*
X051867Y026779D01*
X051867Y026877D02*
X051643Y026877D01*
X051643Y026976D02*
X051867Y026976D01*
X051867Y027074D02*
X051643Y027074D01*
X051643Y027173D02*
X051949Y027173D01*
X052048Y027271D02*
X051643Y027271D01*
X051643Y027370D02*
X055993Y027370D01*
X055993Y027468D02*
X051643Y027468D01*
X051643Y027567D02*
X052046Y027567D01*
X052110Y027502D02*
X052454Y027502D01*
X052698Y027746D01*
X052698Y028090D01*
X052454Y028333D01*
X052110Y028333D01*
X051867Y028090D01*
X051867Y027746D01*
X052110Y027502D01*
X051948Y027665D02*
X051643Y027665D01*
X051643Y027764D02*
X051867Y027764D01*
X051867Y027862D02*
X051643Y027862D01*
X051643Y027961D02*
X051867Y027961D01*
X051867Y028059D02*
X051643Y028059D01*
X051643Y028158D02*
X051934Y028158D01*
X052033Y028256D02*
X051643Y028256D01*
X051643Y028355D02*
X055993Y028355D01*
X055993Y028453D02*
X051643Y028453D01*
X051643Y028552D02*
X052061Y028552D01*
X052110Y028502D02*
X052454Y028502D01*
X052698Y028746D01*
X052698Y029090D01*
X052454Y029333D01*
X052110Y029333D01*
X051867Y029090D01*
X051867Y028746D01*
X052110Y028502D01*
X051963Y028650D02*
X051643Y028650D01*
X051643Y028749D02*
X051867Y028749D01*
X051867Y028847D02*
X051643Y028847D01*
X051643Y028946D02*
X051867Y028946D01*
X051867Y029044D02*
X051643Y029044D01*
X051643Y029143D02*
X051919Y029143D01*
X052018Y029241D02*
X051643Y029241D01*
X051643Y029340D02*
X055993Y029340D01*
X055993Y029438D02*
X051643Y029438D01*
X051643Y029537D02*
X052076Y029537D01*
X052110Y029502D02*
X052454Y029502D01*
X052698Y029746D01*
X052698Y030090D01*
X052454Y030333D01*
X052110Y030333D01*
X051867Y030090D01*
X051867Y029746D01*
X052110Y029502D01*
X051978Y029635D02*
X051643Y029635D01*
X051643Y029734D02*
X051879Y029734D01*
X051867Y029832D02*
X051643Y029832D01*
X051643Y029931D02*
X051867Y029931D01*
X051867Y030029D02*
X051643Y030029D01*
X051643Y030128D02*
X051904Y030128D01*
X052003Y030226D02*
X051643Y030226D01*
X051643Y030325D02*
X052101Y030325D01*
X052463Y030325D02*
X053101Y030325D01*
X053110Y030333D02*
X052867Y030090D01*
X052867Y029746D01*
X053110Y029502D01*
X053454Y029502D01*
X053698Y029746D01*
X053698Y030090D01*
X053454Y030333D01*
X053110Y030333D01*
X053003Y030226D02*
X052562Y030226D01*
X052660Y030128D02*
X052904Y030128D01*
X052867Y030029D02*
X052698Y030029D01*
X052698Y029931D02*
X052867Y029931D01*
X052867Y029832D02*
X052698Y029832D01*
X052686Y029734D02*
X052879Y029734D01*
X052978Y029635D02*
X052587Y029635D01*
X052489Y029537D02*
X053076Y029537D01*
X053110Y029333D02*
X052867Y029090D01*
X052867Y028746D01*
X053110Y028502D01*
X053454Y028502D01*
X053698Y028746D01*
X053698Y029090D01*
X053454Y029333D01*
X053110Y029333D01*
X053018Y029241D02*
X052547Y029241D01*
X052645Y029143D02*
X052919Y029143D01*
X052867Y029044D02*
X052698Y029044D01*
X052698Y028946D02*
X052867Y028946D01*
X052867Y028847D02*
X052698Y028847D01*
X052698Y028749D02*
X052867Y028749D01*
X052963Y028650D02*
X052602Y028650D01*
X052504Y028552D02*
X053061Y028552D01*
X053110Y028333D02*
X052867Y028090D01*
X052867Y027746D01*
X053110Y027502D01*
X053454Y027502D01*
X053698Y027746D01*
X053698Y028090D01*
X053454Y028333D01*
X053110Y028333D01*
X053033Y028256D02*
X052532Y028256D01*
X052630Y028158D02*
X052934Y028158D01*
X052867Y028059D02*
X052698Y028059D01*
X052698Y027961D02*
X052867Y027961D01*
X052867Y027862D02*
X052698Y027862D01*
X052698Y027764D02*
X052867Y027764D01*
X052948Y027665D02*
X052617Y027665D01*
X052519Y027567D02*
X053046Y027567D01*
X053110Y027333D02*
X052867Y027090D01*
X052867Y026746D01*
X053110Y026502D01*
X053454Y026502D01*
X053698Y026746D01*
X053698Y027090D01*
X053454Y027333D01*
X053110Y027333D01*
X053048Y027271D02*
X052517Y027271D01*
X052615Y027173D02*
X052949Y027173D01*
X052867Y027074D02*
X052698Y027074D01*
X052698Y026976D02*
X052867Y026976D01*
X052867Y026877D02*
X052698Y026877D01*
X052698Y026779D02*
X052867Y026779D01*
X052933Y026680D02*
X052632Y026680D01*
X052534Y026582D02*
X053031Y026582D01*
X053534Y026582D02*
X055993Y026582D01*
X055993Y026680D02*
X053632Y026680D01*
X053698Y026779D02*
X055993Y026779D01*
X055993Y026877D02*
X053698Y026877D01*
X053698Y026976D02*
X055993Y026976D01*
X055993Y027074D02*
X053698Y027074D01*
X053615Y027173D02*
X055993Y027173D01*
X055993Y027271D02*
X053517Y027271D01*
X053519Y027567D02*
X055993Y027567D01*
X055993Y027665D02*
X053617Y027665D01*
X053698Y027764D02*
X055993Y027764D01*
X055993Y027862D02*
X053698Y027862D01*
X053698Y027961D02*
X055993Y027961D01*
X055993Y028059D02*
X053698Y028059D01*
X053630Y028158D02*
X055993Y028158D01*
X055993Y028256D02*
X053532Y028256D01*
X053504Y028552D02*
X055993Y028552D01*
X055993Y028650D02*
X053602Y028650D01*
X053698Y028749D02*
X055993Y028749D01*
X055993Y028847D02*
X053698Y028847D01*
X053698Y028946D02*
X055993Y028946D01*
X055993Y029044D02*
X053698Y029044D01*
X053645Y029143D02*
X055993Y029143D01*
X055993Y029241D02*
X053547Y029241D01*
X053489Y029537D02*
X055993Y029537D01*
X055993Y029635D02*
X053587Y029635D01*
X053686Y029734D02*
X055993Y029734D01*
X055993Y029832D02*
X053698Y029832D01*
X053698Y029931D02*
X055993Y029931D01*
X055993Y030029D02*
X053698Y030029D01*
X053660Y030128D02*
X055993Y030128D01*
X055993Y030226D02*
X053562Y030226D01*
X053463Y030325D02*
X055993Y030325D01*
X055993Y030423D02*
X051643Y030423D01*
X051643Y030522D02*
X055993Y030522D01*
X055993Y030620D02*
X051643Y030620D01*
X051643Y030719D02*
X052014Y030719D01*
X051915Y030817D02*
X051643Y030817D01*
X051643Y030916D02*
X051817Y030916D01*
X051718Y031014D02*
X051643Y031014D01*
X051643Y031113D02*
X051667Y031113D01*
X051493Y031113D02*
X046053Y031113D01*
X046045Y031120D02*
X044751Y031120D01*
X044878Y031248D01*
X044878Y031442D01*
X044741Y031580D01*
X044546Y031580D01*
X044408Y031442D01*
X044408Y031248D01*
X044536Y031120D01*
X037542Y031120D01*
X037468Y031047D01*
X037468Y030802D01*
X037458Y030792D01*
X037458Y030598D01*
X037468Y030588D01*
X037468Y030302D01*
X037458Y030292D01*
X037458Y030098D01*
X037468Y030088D01*
X037468Y029802D01*
X037458Y029792D01*
X037458Y029598D01*
X037468Y029588D01*
X037468Y029302D01*
X037458Y029292D01*
X037458Y029098D01*
X037468Y029088D01*
X037468Y028802D01*
X037458Y028792D01*
X037458Y028598D01*
X037468Y028588D01*
X037468Y028302D01*
X037391Y028380D01*
X037196Y028380D01*
X037058Y028242D01*
X037058Y028213D01*
X037026Y028245D01*
X037093Y028312D01*
X037093Y028478D01*
X037026Y028545D01*
X037093Y028612D01*
X037093Y028778D01*
X036976Y028895D01*
X036810Y028895D01*
X036743Y028828D01*
X036676Y028895D01*
X036510Y028895D01*
X036443Y028828D01*
X036376Y028895D01*
X036210Y028895D01*
X036093Y028778D01*
X036093Y028612D01*
X036160Y028545D01*
X036118Y028503D01*
X035991Y028630D01*
X035796Y028630D01*
X035658Y028492D01*
X035658Y028298D01*
X035796Y028160D01*
X035991Y028160D01*
X036118Y028287D01*
X036160Y028245D01*
X036093Y028178D01*
X036093Y028012D01*
X036210Y027895D01*
X036376Y027895D01*
X036443Y027962D01*
X036510Y027895D01*
X036676Y027895D01*
X036743Y027962D01*
X036810Y027895D01*
X036976Y027895D01*
X037093Y028012D01*
X037093Y028013D01*
X037196Y027910D01*
X037391Y027910D01*
X037468Y027988D01*
X037468Y027802D01*
X037458Y027792D01*
X037458Y027598D01*
X037468Y027588D01*
X037468Y027302D01*
X037458Y027292D01*
X037458Y027098D01*
X037468Y027088D01*
X037468Y025943D01*
X037542Y025870D01*
X046045Y025870D01*
X046118Y025943D01*
X046118Y031047D01*
X046045Y031120D01*
X046118Y031014D02*
X051493Y031014D01*
X051493Y030916D02*
X046118Y030916D01*
X046118Y030817D02*
X051493Y030817D01*
X051493Y030719D02*
X046118Y030719D01*
X046118Y030620D02*
X051493Y030620D01*
X051493Y030522D02*
X046118Y030522D01*
X046118Y030423D02*
X051493Y030423D01*
X051493Y030325D02*
X046118Y030325D01*
X046118Y030226D02*
X051493Y030226D01*
X051493Y030128D02*
X046118Y030128D01*
X046118Y030029D02*
X051493Y030029D01*
X051493Y029931D02*
X046118Y029931D01*
X046118Y029832D02*
X051493Y029832D01*
X051493Y029734D02*
X046118Y029734D01*
X046118Y029635D02*
X051493Y029635D01*
X051493Y029537D02*
X046118Y029537D01*
X046118Y029438D02*
X051493Y029438D01*
X051493Y029340D02*
X046118Y029340D01*
X046118Y029241D02*
X051493Y029241D01*
X051493Y029143D02*
X051038Y029143D01*
X051068Y029130D02*
X050857Y029217D01*
X050629Y029217D01*
X050419Y029130D01*
X050258Y028969D01*
X050171Y028759D01*
X050171Y028531D01*
X050258Y028321D01*
X050419Y028160D01*
X050629Y028073D01*
X050857Y028073D01*
X051068Y028160D01*
X051229Y028321D01*
X051316Y028531D01*
X051316Y028759D01*
X051229Y028969D01*
X051068Y029130D01*
X051154Y029044D02*
X051493Y029044D01*
X051493Y028946D02*
X051238Y028946D01*
X051279Y028847D02*
X051493Y028847D01*
X051493Y028749D02*
X051316Y028749D01*
X051316Y028650D02*
X051493Y028650D01*
X051493Y028552D02*
X051316Y028552D01*
X051283Y028453D02*
X051493Y028453D01*
X051493Y028355D02*
X051243Y028355D01*
X051164Y028256D02*
X051493Y028256D01*
X051493Y028158D02*
X051062Y028158D01*
X051493Y028059D02*
X046118Y028059D01*
X046118Y027961D02*
X051493Y027961D01*
X051493Y027862D02*
X046118Y027862D01*
X046118Y027764D02*
X051493Y027764D01*
X051493Y027665D02*
X046118Y027665D01*
X046118Y027567D02*
X051493Y027567D01*
X051493Y027468D02*
X046118Y027468D01*
X046118Y027370D02*
X051493Y027370D01*
X051493Y027271D02*
X046118Y027271D01*
X046118Y027173D02*
X051493Y027173D01*
X051493Y027074D02*
X046118Y027074D01*
X046118Y026976D02*
X051493Y026976D01*
X051493Y026877D02*
X046118Y026877D01*
X046118Y026779D02*
X051493Y026779D01*
X051493Y026680D02*
X046118Y026680D01*
X046118Y026582D02*
X051493Y026582D01*
X051493Y026483D02*
X046118Y026483D01*
X046118Y026385D02*
X051493Y026385D01*
X051493Y026286D02*
X046118Y026286D01*
X046118Y026188D02*
X051493Y026188D01*
X051493Y026089D02*
X046118Y026089D01*
X046118Y025991D02*
X051493Y025991D01*
X051493Y025892D02*
X046067Y025892D01*
X047058Y025742D02*
X047058Y025548D01*
X047196Y025410D01*
X047391Y025410D01*
X047528Y025548D01*
X047528Y025742D01*
X047391Y025880D01*
X047196Y025880D01*
X047058Y025742D01*
X047058Y025695D02*
X035776Y025695D01*
X035751Y025720D02*
X035828Y025798D01*
X035828Y025992D01*
X035691Y026130D01*
X035496Y026130D01*
X035418Y026052D01*
X035341Y026130D01*
X035146Y026130D01*
X035008Y025992D01*
X035008Y025798D01*
X035086Y025720D01*
X035008Y025642D01*
X035008Y025448D01*
X035146Y025310D01*
X035341Y025310D01*
X035418Y025388D01*
X035436Y025370D01*
X035358Y025292D01*
X035358Y025098D01*
X035496Y024960D01*
X035691Y024960D01*
X035828Y025098D01*
X035828Y025292D01*
X035751Y025370D01*
X035828Y025448D01*
X035828Y025642D01*
X035751Y025720D01*
X035824Y025794D02*
X047110Y025794D01*
X047058Y025597D02*
X040174Y025597D01*
X040141Y025630D02*
X039946Y025630D01*
X039808Y025492D01*
X039808Y025298D01*
X039946Y025160D01*
X040141Y025160D01*
X040278Y025298D01*
X040278Y025492D01*
X040141Y025630D01*
X040273Y025498D02*
X047108Y025498D01*
X047479Y025498D02*
X048587Y025498D01*
X048619Y025530D02*
X048458Y025369D01*
X048371Y025159D01*
X048371Y024931D01*
X048458Y024721D01*
X048619Y024560D01*
X048829Y024473D01*
X049057Y024473D01*
X049268Y024560D01*
X049429Y024721D01*
X049516Y024931D01*
X049516Y025159D01*
X049429Y025369D01*
X049268Y025530D01*
X049057Y025617D01*
X048829Y025617D01*
X048619Y025530D01*
X048779Y025597D02*
X047528Y025597D01*
X047528Y025695D02*
X051493Y025695D01*
X051493Y025597D02*
X049108Y025597D01*
X049300Y025498D02*
X051493Y025498D01*
X051493Y025400D02*
X049398Y025400D01*
X049457Y025301D02*
X051493Y025301D01*
X051493Y025203D02*
X049498Y025203D01*
X049516Y025104D02*
X051493Y025104D01*
X051493Y025006D02*
X049516Y025006D01*
X049506Y024907D02*
X051493Y024907D01*
X051493Y024809D02*
X049465Y024809D01*
X049418Y024710D02*
X051493Y024710D01*
X051493Y024612D02*
X049319Y024612D01*
X049155Y024513D02*
X051493Y024513D01*
X051493Y024415D02*
X039506Y024415D01*
X039528Y024392D02*
X039391Y024530D01*
X039196Y024530D01*
X039058Y024392D01*
X039058Y024200D01*
X033493Y024200D01*
X033493Y025360D01*
X033641Y025360D01*
X033778Y025498D01*
X035008Y025498D01*
X035008Y025597D02*
X033778Y025597D01*
X033778Y025692D02*
X033641Y025830D01*
X033493Y025830D01*
X033493Y030110D01*
X033641Y030110D01*
X033778Y030248D01*
X033778Y030361D01*
X034028Y030610D01*
X034141Y030610D01*
X034278Y030748D01*
X034278Y030942D01*
X034141Y031080D01*
X033946Y031080D01*
X033808Y030942D01*
X033808Y030829D01*
X033559Y030580D01*
X033493Y030580D01*
X033493Y031060D01*
X033591Y031060D01*
X033728Y031198D01*
X033728Y031392D01*
X033591Y031530D01*
X033493Y031530D01*
X033493Y031945D01*
X051493Y031945D01*
X051493Y013945D01*
X033493Y013945D01*
X033493Y020890D01*
X038516Y020890D01*
X038646Y020760D01*
X038841Y020760D01*
X038971Y020890D01*
X039583Y020890D01*
X039583Y020829D01*
X039583Y018867D01*
X039508Y018792D01*
X039508Y018598D01*
X039646Y018460D01*
X039841Y018460D01*
X039921Y018540D01*
X040016Y018540D01*
X040046Y018510D01*
X040241Y018510D01*
X040271Y018540D01*
X040666Y018540D01*
X040696Y018510D01*
X040891Y018510D01*
X040921Y018540D01*
X041078Y018540D01*
X041198Y018660D01*
X041198Y020890D01*
X045628Y020890D01*
X045748Y021010D01*
X045748Y022545D01*
X046435Y022545D01*
X046493Y022604D01*
X046493Y023786D01*
X046435Y023845D01*
X045748Y023845D01*
X045748Y024080D01*
X045628Y024200D01*
X039528Y024200D01*
X039528Y024392D01*
X039528Y024316D02*
X047032Y024316D01*
X047096Y024380D02*
X046958Y024242D01*
X046958Y024048D01*
X047096Y023910D01*
X047291Y023910D01*
X047428Y024048D01*
X047428Y024242D01*
X047291Y024380D01*
X047096Y024380D01*
X046958Y024218D02*
X039528Y024218D01*
X039408Y024513D02*
X048732Y024513D01*
X048567Y024612D02*
X033493Y024612D01*
X033493Y024710D02*
X048469Y024710D01*
X048422Y024809D02*
X033493Y024809D01*
X033493Y024907D02*
X047699Y024907D01*
X047658Y024948D02*
X047796Y024810D01*
X047991Y024810D01*
X048128Y024948D01*
X048128Y025142D01*
X047991Y025280D01*
X047796Y025280D01*
X047658Y025142D01*
X047658Y024948D01*
X047658Y025006D02*
X044936Y025006D01*
X044891Y024960D02*
X045028Y025098D01*
X045028Y025292D01*
X044891Y025430D01*
X044696Y025430D01*
X044558Y025292D01*
X044558Y025098D01*
X044696Y024960D01*
X044891Y024960D01*
X045028Y025104D02*
X047658Y025104D01*
X047719Y025203D02*
X045028Y025203D01*
X045020Y025301D02*
X048430Y025301D01*
X048389Y025203D02*
X048068Y025203D01*
X048128Y025104D02*
X048371Y025104D01*
X048371Y025006D02*
X048128Y025006D01*
X048088Y024907D02*
X048381Y024907D01*
X048488Y025400D02*
X044921Y025400D01*
X044666Y025400D02*
X040278Y025400D01*
X040278Y025301D02*
X044567Y025301D01*
X044558Y025203D02*
X040183Y025203D01*
X039903Y025203D02*
X035828Y025203D01*
X035820Y025301D02*
X039808Y025301D01*
X039808Y025400D02*
X035780Y025400D01*
X035828Y025498D02*
X039814Y025498D01*
X039913Y025597D02*
X035828Y025597D01*
X035828Y025892D02*
X037519Y025892D01*
X037468Y025991D02*
X035828Y025991D01*
X035732Y026089D02*
X037468Y026089D01*
X037468Y026188D02*
X033493Y026188D01*
X033493Y026286D02*
X037468Y026286D01*
X037468Y026385D02*
X033493Y026385D01*
X033493Y026483D02*
X037468Y026483D01*
X037468Y026582D02*
X033493Y026582D01*
X033493Y026680D02*
X037468Y026680D01*
X037468Y026779D02*
X033493Y026779D01*
X033493Y026877D02*
X037468Y026877D01*
X037468Y026976D02*
X033493Y026976D01*
X033493Y027074D02*
X037468Y027074D01*
X037458Y027173D02*
X033493Y027173D01*
X033493Y027271D02*
X037458Y027271D01*
X037468Y027370D02*
X033493Y027370D01*
X033493Y027468D02*
X037468Y027468D01*
X037468Y027567D02*
X033493Y027567D01*
X033493Y027665D02*
X037458Y027665D01*
X037458Y027764D02*
X033493Y027764D01*
X033493Y027862D02*
X035394Y027862D01*
X035396Y027860D02*
X035591Y027860D01*
X035728Y027998D01*
X035728Y028192D01*
X035591Y028330D01*
X035396Y028330D01*
X035258Y028192D01*
X035258Y027998D01*
X035396Y027860D01*
X035295Y027961D02*
X033493Y027961D01*
X033493Y028059D02*
X035258Y028059D01*
X035258Y028158D02*
X033493Y028158D01*
X033493Y028256D02*
X035322Y028256D01*
X035396Y028460D02*
X035591Y028460D01*
X035728Y028598D01*
X035728Y028792D01*
X035591Y028930D01*
X035396Y028930D01*
X035258Y028792D01*
X035258Y028598D01*
X035396Y028460D01*
X035304Y028552D02*
X033493Y028552D01*
X033493Y028650D02*
X035258Y028650D01*
X035258Y028749D02*
X033493Y028749D01*
X033493Y028847D02*
X035313Y028847D01*
X035674Y028847D02*
X036163Y028847D01*
X036093Y028749D02*
X035728Y028749D01*
X035728Y028650D02*
X036093Y028650D01*
X036069Y028552D02*
X036154Y028552D01*
X036149Y028256D02*
X036087Y028256D01*
X036093Y028158D02*
X035728Y028158D01*
X035728Y028059D02*
X036093Y028059D01*
X036145Y027961D02*
X035691Y027961D01*
X035593Y027862D02*
X037468Y027862D01*
X037468Y027961D02*
X037441Y027961D01*
X037145Y027961D02*
X037042Y027961D01*
X037037Y028256D02*
X037072Y028256D01*
X037093Y028355D02*
X037171Y028355D01*
X037093Y028453D02*
X037468Y028453D01*
X037468Y028355D02*
X037416Y028355D01*
X037468Y028552D02*
X037033Y028552D01*
X037093Y028650D02*
X037458Y028650D01*
X037458Y028749D02*
X037093Y028749D01*
X037024Y028847D02*
X037468Y028847D01*
X037468Y028946D02*
X033493Y028946D01*
X033493Y029044D02*
X037468Y029044D01*
X037458Y029143D02*
X033493Y029143D01*
X033493Y029241D02*
X037458Y029241D01*
X037468Y029340D02*
X033493Y029340D01*
X033493Y029438D02*
X037468Y029438D01*
X037468Y029537D02*
X033493Y029537D01*
X033493Y029635D02*
X037458Y029635D01*
X037458Y029734D02*
X033493Y029734D01*
X033493Y029832D02*
X037468Y029832D01*
X037468Y029931D02*
X033493Y029931D01*
X033493Y030029D02*
X036627Y030029D01*
X036558Y030098D02*
X036696Y029960D01*
X036891Y029960D01*
X037028Y030098D01*
X037028Y030292D01*
X036891Y030430D01*
X036696Y030430D01*
X036558Y030292D01*
X036558Y030098D01*
X036558Y030128D02*
X033658Y030128D01*
X033757Y030226D02*
X036558Y030226D01*
X036591Y030325D02*
X033778Y030325D01*
X033841Y030423D02*
X036689Y030423D01*
X036696Y030460D02*
X036891Y030460D01*
X037028Y030598D01*
X037028Y030792D01*
X036891Y030930D01*
X036696Y030930D01*
X036558Y030792D01*
X036558Y030598D01*
X036696Y030460D01*
X036634Y030522D02*
X033939Y030522D01*
X034151Y030620D02*
X036558Y030620D01*
X036558Y030719D02*
X034249Y030719D01*
X034278Y030817D02*
X036583Y030817D01*
X036682Y030916D02*
X034278Y030916D01*
X034207Y031014D02*
X037468Y031014D01*
X037468Y030916D02*
X036905Y030916D01*
X037004Y030817D02*
X037468Y030817D01*
X037458Y030719D02*
X037028Y030719D01*
X037028Y030620D02*
X037458Y030620D01*
X037468Y030522D02*
X036952Y030522D01*
X036898Y030423D02*
X037468Y030423D01*
X037468Y030325D02*
X036996Y030325D01*
X037028Y030226D02*
X037458Y030226D01*
X037458Y030128D02*
X037028Y030128D01*
X036960Y030029D02*
X037468Y030029D01*
X037534Y031113D02*
X033643Y031113D01*
X033728Y031211D02*
X044445Y031211D01*
X044408Y031310D02*
X033728Y031310D01*
X033713Y031408D02*
X044408Y031408D01*
X044473Y031507D02*
X033614Y031507D01*
X033493Y031605D02*
X048667Y031605D01*
X048667Y031634D02*
X048667Y031356D01*
X048864Y031159D01*
X049143Y031159D01*
X049340Y031356D01*
X049340Y031634D01*
X049143Y031831D01*
X048864Y031831D01*
X048667Y031634D01*
X048736Y031704D02*
X033493Y031704D01*
X033493Y031802D02*
X048835Y031802D01*
X049172Y031802D02*
X051493Y031802D01*
X051493Y031704D02*
X049270Y031704D01*
X049340Y031605D02*
X051493Y031605D01*
X051493Y031507D02*
X049340Y031507D01*
X049340Y031408D02*
X051493Y031408D01*
X051493Y031310D02*
X049293Y031310D01*
X049195Y031211D02*
X051493Y031211D01*
X051643Y031605D02*
X051667Y031605D01*
X051643Y031704D02*
X051746Y031704D01*
X051844Y031802D02*
X051643Y031802D01*
X051643Y031901D02*
X051943Y031901D01*
X052041Y031999D02*
X051643Y031999D01*
X051493Y031901D02*
X033493Y031901D01*
X033343Y031901D02*
X033264Y031901D01*
X033264Y031936D02*
X033135Y032065D01*
X032952Y032065D01*
X032823Y031936D01*
X032823Y031823D01*
X032565Y031565D01*
X032452Y031565D01*
X032323Y031436D01*
X032323Y031254D01*
X032452Y031125D01*
X032635Y031125D01*
X032764Y031254D01*
X032764Y031367D01*
X033021Y031625D01*
X033135Y031625D01*
X033264Y031754D01*
X033264Y031936D01*
X033201Y031999D02*
X033343Y031999D01*
X033343Y031802D02*
X033264Y031802D01*
X033214Y031704D02*
X033343Y031704D01*
X033343Y031605D02*
X033002Y031605D01*
X032903Y031507D02*
X033343Y031507D01*
X033295Y031408D02*
X032805Y031408D01*
X032764Y031310D02*
X033273Y031310D01*
X033211Y031211D02*
X032721Y031211D01*
X032901Y031014D02*
X025306Y031014D01*
X025326Y031022D02*
X025416Y031113D01*
X025465Y031231D01*
X025465Y031359D01*
X025416Y031477D01*
X025326Y031568D01*
X025207Y031617D01*
X025079Y031617D01*
X024961Y031568D01*
X024894Y031500D01*
X020693Y031500D01*
X020626Y031568D01*
X020507Y031617D01*
X020379Y031617D01*
X020261Y031568D01*
X020171Y031477D01*
X020122Y031359D01*
X020122Y031231D01*
X020171Y031113D01*
X020261Y031022D01*
X020379Y030973D01*
X020507Y030973D01*
X020626Y031022D01*
X020693Y031090D01*
X024894Y031090D01*
X024961Y031022D01*
X025079Y030973D01*
X025207Y030973D01*
X025326Y031022D01*
X025416Y031113D02*
X033112Y031113D01*
X033312Y030916D02*
X033343Y030916D01*
X033343Y030817D02*
X033264Y030817D01*
X033229Y030719D02*
X033343Y030719D01*
X033343Y030620D02*
X032264Y030620D01*
X032264Y030636D02*
X032135Y030765D01*
X031952Y030765D01*
X031823Y030636D01*
X031823Y030454D01*
X031952Y030325D01*
X032135Y030325D01*
X032264Y030454D01*
X032264Y030636D01*
X032264Y030522D02*
X033343Y030522D01*
X033323Y030423D02*
X032233Y030423D01*
X032181Y030719D02*
X032858Y030719D01*
X032823Y030817D02*
X022933Y030817D01*
X022964Y030786D02*
X022835Y030915D01*
X022652Y030915D01*
X022523Y030786D01*
X022523Y030604D01*
X022652Y030475D01*
X022835Y030475D01*
X022964Y030604D01*
X022964Y030786D01*
X022964Y030719D02*
X031905Y030719D01*
X031823Y030620D02*
X022964Y030620D01*
X022882Y030522D02*
X031823Y030522D01*
X031854Y030423D02*
X023927Y030423D01*
X023964Y030386D02*
X023835Y030515D01*
X023652Y030515D01*
X023523Y030386D01*
X023523Y030204D01*
X023652Y030075D01*
X023835Y030075D01*
X023964Y030204D01*
X023964Y030386D01*
X023964Y030325D02*
X033323Y030325D01*
X033343Y030226D02*
X030774Y030226D01*
X030814Y030186D02*
X030685Y030315D01*
X030502Y030315D01*
X030373Y030186D01*
X030373Y030004D01*
X030502Y029875D01*
X030685Y029875D01*
X030814Y030004D01*
X030814Y030186D01*
X030814Y030128D02*
X033343Y030128D01*
X033343Y030029D02*
X030814Y030029D01*
X030741Y029931D02*
X033343Y029931D01*
X033343Y029832D02*
X026014Y029832D01*
X026014Y029836D02*
X025885Y029965D01*
X025702Y029965D01*
X025573Y029836D01*
X025573Y029654D01*
X025702Y029525D01*
X025885Y029525D01*
X026014Y029654D01*
X026014Y029836D01*
X026014Y029734D02*
X033343Y029734D01*
X033343Y029635D02*
X030565Y029635D01*
X030614Y029586D02*
X030485Y029715D01*
X030302Y029715D01*
X030173Y029586D01*
X030173Y029404D01*
X030302Y029275D01*
X030485Y029275D01*
X030614Y029404D01*
X030614Y029586D01*
X030614Y029537D02*
X033343Y029537D01*
X033343Y029438D02*
X030614Y029438D01*
X030550Y029340D02*
X033343Y029340D01*
X033343Y029241D02*
X025614Y029241D01*
X025614Y029204D02*
X025485Y029075D01*
X025302Y029075D01*
X025173Y029204D01*
X025173Y029386D01*
X025302Y029515D01*
X025485Y029515D01*
X025614Y029386D01*
X025614Y029204D01*
X025553Y029143D02*
X033343Y029143D01*
X033343Y029044D02*
X022904Y029044D01*
X022964Y029104D02*
X022835Y028975D01*
X022652Y028975D01*
X022523Y029104D01*
X022523Y029286D01*
X022652Y029415D01*
X022835Y029415D01*
X022964Y029286D01*
X022964Y029104D01*
X022964Y029143D02*
X025234Y029143D01*
X025173Y029241D02*
X022964Y029241D01*
X022910Y029340D02*
X025173Y029340D01*
X025225Y029438D02*
X023348Y029438D01*
X023285Y029375D02*
X023414Y029504D01*
X023414Y029686D01*
X023285Y029815D01*
X023102Y029815D01*
X022973Y029686D01*
X022973Y029504D01*
X023102Y029375D01*
X023285Y029375D01*
X023414Y029537D02*
X025690Y029537D01*
X025592Y029635D02*
X023414Y029635D01*
X023366Y029734D02*
X025573Y029734D01*
X025573Y029832D02*
X019364Y029832D01*
X019364Y029754D02*
X019235Y029625D01*
X019052Y029625D01*
X018923Y029754D01*
X018923Y029936D01*
X019052Y030065D01*
X019235Y030065D01*
X019364Y029936D01*
X019364Y029754D01*
X019344Y029734D02*
X023020Y029734D01*
X022973Y029635D02*
X019245Y029635D01*
X019042Y029635D02*
X012245Y029635D01*
X012185Y029575D02*
X012314Y029704D01*
X012314Y029886D01*
X012185Y030015D01*
X012002Y030015D01*
X011873Y029886D01*
X011873Y029704D01*
X012002Y029575D01*
X012185Y029575D01*
X012314Y029734D02*
X018943Y029734D01*
X018923Y029832D02*
X012314Y029832D01*
X012269Y029931D02*
X018923Y029931D01*
X019016Y030029D02*
X009814Y030029D01*
X009814Y029954D02*
X009814Y030136D01*
X009685Y030265D01*
X009502Y030265D01*
X009373Y030136D01*
X009373Y029954D01*
X009453Y029874D01*
X009453Y029137D01*
X009885Y028705D01*
X010522Y028705D01*
X010602Y028625D01*
X010785Y028625D01*
X010914Y028754D01*
X010914Y028936D01*
X010785Y029065D01*
X010602Y029065D01*
X010522Y028985D01*
X010001Y028985D01*
X009734Y029253D01*
X009734Y029874D01*
X009814Y029954D01*
X009791Y029931D02*
X009917Y029931D01*
X009873Y029886D02*
X009873Y029704D01*
X010002Y029575D01*
X010185Y029575D01*
X010314Y029704D01*
X010314Y029886D01*
X010185Y030015D01*
X010002Y030015D01*
X009873Y029886D01*
X009873Y029832D02*
X009734Y029832D01*
X009734Y029734D02*
X009873Y029734D01*
X009942Y029635D02*
X009734Y029635D01*
X009734Y029537D02*
X022973Y029537D01*
X023039Y029438D02*
X009734Y029438D01*
X009734Y029340D02*
X022576Y029340D01*
X022523Y029241D02*
X009746Y029241D01*
X009844Y029143D02*
X014779Y029143D01*
X014802Y029165D02*
X014673Y029036D01*
X014673Y028854D01*
X014802Y028725D01*
X014985Y028725D01*
X015114Y028854D01*
X015114Y029036D01*
X014985Y029165D01*
X014802Y029165D01*
X014681Y029044D02*
X010806Y029044D01*
X010904Y028946D02*
X014673Y028946D01*
X014680Y028847D02*
X010914Y028847D01*
X010909Y028749D02*
X014778Y028749D01*
X015009Y028749D02*
X027548Y028749D01*
X027465Y028665D02*
X027635Y028835D01*
X030522Y028835D01*
X030602Y028915D01*
X030785Y028915D01*
X030914Y028786D01*
X030914Y028604D01*
X030785Y028475D01*
X030602Y028475D01*
X030522Y028555D01*
X027751Y028555D01*
X027664Y028467D01*
X027664Y028354D01*
X027535Y028225D01*
X027352Y028225D01*
X027223Y028354D01*
X027223Y028536D01*
X027352Y028665D01*
X027465Y028665D01*
X027337Y028650D02*
X010810Y028650D01*
X010577Y028650D02*
X007393Y028650D01*
X007393Y028552D02*
X027238Y028552D01*
X027223Y028453D02*
X027097Y028453D01*
X027085Y028465D02*
X026902Y028465D01*
X026773Y028336D01*
X026773Y028154D01*
X026902Y028025D01*
X027085Y028025D01*
X027214Y028154D01*
X027214Y028336D01*
X027085Y028465D01*
X027195Y028355D02*
X027223Y028355D01*
X027214Y028256D02*
X027321Y028256D01*
X027214Y028158D02*
X031644Y028158D01*
X031623Y028136D02*
X031623Y027954D01*
X031752Y027825D01*
X031935Y027825D01*
X032064Y027954D01*
X032064Y028136D01*
X031935Y028265D01*
X031752Y028265D01*
X031623Y028136D01*
X031623Y028059D02*
X027119Y028059D01*
X026868Y028059D02*
X020891Y028059D01*
X020885Y028065D02*
X020702Y028065D01*
X020573Y027936D01*
X020573Y027754D01*
X020702Y027625D01*
X020885Y027625D01*
X021014Y027754D01*
X021014Y027936D01*
X020885Y028065D01*
X020989Y027961D02*
X031623Y027961D01*
X031715Y027862D02*
X021014Y027862D01*
X021014Y027764D02*
X025343Y027764D01*
X025253Y027665D02*
X020925Y027665D01*
X020662Y027665D02*
X018154Y027665D01*
X018154Y027567D02*
X025253Y027567D01*
X025160Y027468D02*
X018154Y027468D01*
X018154Y027370D02*
X018949Y027370D01*
X018853Y027271D02*
X018154Y027271D01*
X018154Y027173D02*
X018853Y027173D01*
X018895Y027074D02*
X018154Y027074D01*
X018154Y026976D02*
X018933Y026976D01*
X018933Y026877D02*
X018154Y026877D01*
X018154Y026779D02*
X018933Y026779D01*
X018933Y026680D02*
X018154Y026680D01*
X018154Y026582D02*
X018933Y026582D01*
X018933Y026483D02*
X018154Y026483D01*
X018154Y026385D02*
X018914Y026385D01*
X018853Y026286D02*
X018091Y026286D01*
X017877Y026385D02*
X015845Y026385D01*
X015864Y026404D02*
X015735Y026275D01*
X015552Y026275D01*
X015423Y026404D01*
X015423Y026586D01*
X015552Y026715D01*
X015735Y026715D01*
X015864Y026586D01*
X015864Y026404D01*
X015864Y026483D02*
X017933Y026483D01*
X017933Y026582D02*
X015864Y026582D01*
X015770Y026680D02*
X017933Y026680D01*
X017933Y026779D02*
X014514Y026779D01*
X014514Y026704D02*
X014385Y026575D01*
X014202Y026575D01*
X014073Y026704D01*
X014073Y026886D01*
X014202Y027015D01*
X014385Y027015D01*
X014514Y026886D01*
X014514Y026704D01*
X014490Y026680D02*
X015517Y026680D01*
X015423Y026582D02*
X014968Y026582D01*
X015064Y026483D02*
X015423Y026483D01*
X015442Y026385D02*
X015064Y026385D01*
X015046Y026286D02*
X015541Y026286D01*
X015746Y026286D02*
X017778Y026286D01*
X017933Y026877D02*
X014514Y026877D01*
X014424Y026976D02*
X017933Y026976D01*
X017933Y027074D02*
X007393Y027074D01*
X007393Y026976D02*
X014162Y026976D01*
X014073Y026877D02*
X007393Y026877D01*
X007393Y026779D02*
X014073Y026779D01*
X014097Y026680D02*
X007393Y026680D01*
X007393Y026582D02*
X014195Y026582D01*
X014392Y026582D02*
X014718Y026582D01*
X014623Y026483D02*
X007393Y026483D01*
X007393Y026385D02*
X014623Y026385D01*
X014641Y026286D02*
X007393Y026286D01*
X007393Y027173D02*
X017933Y027173D01*
X017933Y027271D02*
X007393Y027271D01*
X007393Y027370D02*
X017933Y027370D01*
X017933Y027468D02*
X007393Y027468D01*
X007393Y027567D02*
X014110Y027567D01*
X014073Y027604D02*
X014202Y027475D01*
X014385Y027475D01*
X014514Y027604D01*
X014514Y027786D01*
X014385Y027915D01*
X014202Y027915D01*
X014073Y027786D01*
X014073Y027604D01*
X014073Y027665D02*
X007393Y027665D01*
X007393Y027764D02*
X010213Y027764D01*
X010252Y027725D02*
X010435Y027725D01*
X010564Y027854D01*
X010564Y028036D01*
X010435Y028165D01*
X010252Y028165D01*
X010123Y028036D01*
X010123Y027854D01*
X010252Y027725D01*
X010123Y027862D02*
X007393Y027862D01*
X007393Y027961D02*
X010123Y027961D01*
X010146Y028059D02*
X007393Y028059D01*
X007393Y028158D02*
X010244Y028158D01*
X010442Y028158D02*
X012344Y028158D01*
X012352Y028165D02*
X012223Y028036D01*
X012223Y027854D01*
X012352Y027725D01*
X012535Y027725D01*
X012664Y027854D01*
X012664Y028036D01*
X012535Y028165D01*
X012352Y028165D01*
X012246Y028059D02*
X010541Y028059D01*
X010564Y027961D02*
X012223Y027961D01*
X012223Y027862D02*
X010564Y027862D01*
X010474Y027764D02*
X012313Y027764D01*
X012574Y027764D02*
X014073Y027764D01*
X014149Y027862D02*
X012664Y027862D01*
X012664Y027961D02*
X014666Y027961D01*
X014623Y028004D02*
X014752Y027875D01*
X014935Y027875D01*
X015064Y028004D01*
X015064Y028186D01*
X014935Y028315D01*
X014752Y028315D01*
X014623Y028186D01*
X014623Y028004D01*
X014623Y028059D02*
X012641Y028059D01*
X012542Y028158D02*
X014623Y028158D01*
X014693Y028256D02*
X007393Y028256D01*
X007393Y028355D02*
X026791Y028355D01*
X026773Y028256D02*
X018152Y028256D01*
X018234Y028158D02*
X026773Y028158D01*
X026890Y028453D02*
X007393Y028453D01*
X007393Y028749D02*
X009841Y028749D01*
X009743Y028847D02*
X007393Y028847D01*
X007393Y028946D02*
X009644Y028946D01*
X009546Y029044D02*
X007393Y029044D01*
X007393Y029143D02*
X009453Y029143D01*
X009453Y029241D02*
X007393Y029241D01*
X007393Y029340D02*
X009453Y029340D01*
X009453Y029438D02*
X007393Y029438D01*
X007393Y029537D02*
X009453Y029537D01*
X009453Y029635D02*
X007393Y029635D01*
X007393Y029734D02*
X009453Y029734D01*
X009453Y029832D02*
X007393Y029832D01*
X007393Y029931D02*
X009396Y029931D01*
X009373Y030029D02*
X007393Y030029D01*
X007393Y030128D02*
X009373Y030128D01*
X009463Y030226D02*
X007393Y030226D01*
X007393Y030325D02*
X022973Y030325D01*
X022973Y030386D02*
X022973Y030204D01*
X023102Y030075D01*
X023285Y030075D01*
X023414Y030204D01*
X023414Y030386D01*
X023285Y030515D01*
X023102Y030515D01*
X022973Y030386D01*
X023010Y030423D02*
X007393Y030423D01*
X007393Y030522D02*
X022605Y030522D01*
X022523Y030620D02*
X007393Y030620D01*
X007393Y030719D02*
X022523Y030719D01*
X022554Y030817D02*
X007393Y030817D01*
X007393Y030916D02*
X013708Y030916D01*
X013761Y030862D02*
X014285Y030862D01*
X014656Y031233D01*
X014656Y031757D01*
X014285Y032128D01*
X013761Y032128D01*
X013390Y031757D01*
X013390Y031233D01*
X013761Y030862D01*
X013609Y031014D02*
X007393Y031014D01*
X007393Y031113D02*
X013511Y031113D01*
X013412Y031211D02*
X007393Y031211D01*
X007393Y031310D02*
X013390Y031310D01*
X013390Y031408D02*
X007393Y031408D01*
X007393Y031507D02*
X013390Y031507D01*
X013390Y031605D02*
X007393Y031605D01*
X007393Y031704D02*
X009340Y031704D01*
X009434Y031610D02*
X009753Y031610D01*
X009979Y031835D01*
X009979Y032155D01*
X009753Y032380D01*
X009434Y032380D01*
X009208Y032155D01*
X009208Y031835D01*
X009434Y031610D01*
X009241Y031802D02*
X007393Y031802D01*
X007393Y031901D02*
X009208Y031901D01*
X009208Y031999D02*
X007393Y031999D01*
X007393Y032098D02*
X009208Y032098D01*
X009249Y032196D02*
X007393Y032196D01*
X007393Y032295D02*
X009348Y032295D01*
X009434Y032610D02*
X009753Y032610D01*
X009979Y032835D01*
X009979Y033155D01*
X009753Y033380D01*
X009434Y033380D01*
X009208Y033155D01*
X009208Y032835D01*
X009434Y032610D01*
X009355Y032689D02*
X007393Y032689D01*
X007393Y032787D02*
X009256Y032787D01*
X009208Y032886D02*
X007393Y032886D01*
X007393Y032984D02*
X009208Y032984D01*
X009208Y033083D02*
X007393Y033083D01*
X007393Y033181D02*
X009234Y033181D01*
X009333Y033280D02*
X007393Y033280D01*
X007393Y033378D02*
X009431Y033378D01*
X009434Y033610D02*
X009753Y033610D01*
X009979Y033835D01*
X009979Y034155D01*
X009753Y034380D01*
X009434Y034380D01*
X009208Y034155D01*
X009208Y033835D01*
X009434Y033610D01*
X009370Y033674D02*
X007393Y033674D01*
X007393Y033772D02*
X009271Y033772D01*
X009208Y033871D02*
X007393Y033871D01*
X007393Y033969D02*
X009208Y033969D01*
X009208Y034068D02*
X007393Y034068D01*
X007393Y034166D02*
X009219Y034166D01*
X009318Y034265D02*
X007393Y034265D01*
X007393Y034363D02*
X009416Y034363D01*
X009434Y034610D02*
X009753Y034610D01*
X009979Y034835D01*
X009979Y035155D01*
X009753Y035380D01*
X009434Y035380D01*
X009208Y035155D01*
X009208Y034835D01*
X009434Y034610D01*
X009385Y034659D02*
X007393Y034659D01*
X007393Y034757D02*
X009286Y034757D01*
X009208Y034856D02*
X007393Y034856D01*
X007393Y034954D02*
X009208Y034954D01*
X009208Y035053D02*
X007393Y035053D01*
X007393Y035151D02*
X009208Y035151D01*
X009303Y035250D02*
X007393Y035250D01*
X007393Y035348D02*
X009401Y035348D01*
X009785Y035348D02*
X011501Y035348D01*
X011534Y035380D02*
X011308Y035155D01*
X011308Y034835D01*
X011534Y034610D01*
X011853Y034610D01*
X012079Y034835D01*
X012079Y035155D01*
X011853Y035380D01*
X011534Y035380D01*
X011403Y035250D02*
X009884Y035250D01*
X009979Y035151D02*
X011308Y035151D01*
X011308Y035053D02*
X009979Y035053D01*
X009979Y034954D02*
X011308Y034954D01*
X011308Y034856D02*
X009979Y034856D01*
X009900Y034757D02*
X011386Y034757D01*
X011485Y034659D02*
X009802Y034659D01*
X009770Y034363D02*
X011516Y034363D01*
X011534Y034380D02*
X011308Y034155D01*
X011308Y033835D01*
X011534Y033610D01*
X011853Y033610D01*
X012079Y033835D01*
X012079Y034155D01*
X011853Y034380D01*
X011534Y034380D01*
X011418Y034265D02*
X009869Y034265D01*
X009967Y034166D02*
X011319Y034166D01*
X011308Y034068D02*
X009979Y034068D01*
X009979Y033969D02*
X011308Y033969D01*
X011308Y033871D02*
X009979Y033871D01*
X009915Y033772D02*
X011371Y033772D01*
X011470Y033674D02*
X009817Y033674D01*
X009755Y033378D02*
X011531Y033378D01*
X011534Y033380D02*
X011308Y033155D01*
X011308Y032835D01*
X011534Y032610D01*
X011853Y032610D01*
X012079Y032835D01*
X012079Y033155D01*
X011853Y033380D01*
X011534Y033380D01*
X011433Y033280D02*
X009854Y033280D01*
X009952Y033181D02*
X011334Y033181D01*
X011308Y033083D02*
X009979Y033083D01*
X009979Y032984D02*
X011308Y032984D01*
X011308Y032886D02*
X009979Y032886D01*
X009930Y032787D02*
X011356Y032787D01*
X011455Y032689D02*
X009832Y032689D01*
X009839Y032295D02*
X011448Y032295D01*
X011534Y032380D02*
X011308Y032155D01*
X011308Y031835D01*
X011534Y031610D01*
X011853Y031610D01*
X012079Y031835D01*
X012079Y032155D01*
X011853Y032380D01*
X011534Y032380D01*
X011349Y032196D02*
X009937Y032196D01*
X009979Y032098D02*
X011308Y032098D01*
X011308Y031999D02*
X009979Y031999D01*
X009979Y031901D02*
X011308Y031901D01*
X011341Y031802D02*
X009945Y031802D01*
X009847Y031704D02*
X011440Y031704D01*
X011947Y031704D02*
X013390Y031704D01*
X013435Y031802D02*
X012045Y031802D01*
X012079Y031901D02*
X013534Y031901D01*
X013632Y031999D02*
X012079Y031999D01*
X012079Y032098D02*
X013731Y032098D01*
X014316Y032098D02*
X015581Y032098D01*
X015611Y032128D02*
X015240Y031757D01*
X015240Y031233D01*
X015611Y030862D01*
X016135Y030862D01*
X016506Y031233D01*
X016506Y031757D01*
X016135Y032128D01*
X015611Y032128D01*
X015482Y031999D02*
X014414Y031999D01*
X014513Y031901D02*
X015384Y031901D01*
X015285Y031802D02*
X014611Y031802D01*
X014656Y031704D02*
X015240Y031704D01*
X015240Y031605D02*
X014656Y031605D01*
X014656Y031507D02*
X015240Y031507D01*
X015240Y031408D02*
X014656Y031408D01*
X014656Y031310D02*
X015240Y031310D01*
X015262Y031211D02*
X014634Y031211D01*
X014536Y031113D02*
X015361Y031113D01*
X015459Y031014D02*
X014437Y031014D01*
X014339Y030916D02*
X015558Y030916D01*
X016189Y030916D02*
X017408Y030916D01*
X017461Y030862D02*
X017985Y030862D01*
X018356Y031233D01*
X018356Y031757D01*
X017985Y032128D01*
X017461Y032128D01*
X017090Y031757D01*
X017090Y031233D01*
X017461Y030862D01*
X017309Y031014D02*
X016287Y031014D01*
X016386Y031113D02*
X017211Y031113D01*
X017112Y031211D02*
X016484Y031211D01*
X016506Y031310D02*
X017090Y031310D01*
X017090Y031408D02*
X016506Y031408D01*
X016506Y031507D02*
X017090Y031507D01*
X017090Y031605D02*
X016506Y031605D01*
X016506Y031704D02*
X017090Y031704D01*
X017135Y031802D02*
X016461Y031802D01*
X016363Y031901D02*
X017234Y031901D01*
X017332Y031999D02*
X016264Y031999D01*
X016166Y032098D02*
X017431Y032098D01*
X018016Y032098D02*
X049328Y032098D01*
X049328Y032196D02*
X049159Y032196D01*
X049137Y032173D02*
X049325Y032362D01*
X049325Y032628D01*
X049137Y032817D01*
X048870Y032817D01*
X048682Y032628D01*
X048682Y032362D01*
X048870Y032173D01*
X049137Y032173D01*
X049258Y032295D02*
X049328Y032295D01*
X049325Y032393D02*
X049328Y032393D01*
X049325Y032492D02*
X049328Y032492D01*
X049325Y032590D02*
X049328Y032590D01*
X049328Y032689D02*
X049265Y032689D01*
X049328Y032787D02*
X049166Y032787D01*
X049291Y032886D02*
X046389Y032886D01*
X046487Y032787D02*
X048840Y032787D01*
X048742Y032689D02*
X046529Y032689D01*
X046529Y032745D02*
X046529Y032385D01*
X046274Y032130D01*
X045913Y032130D01*
X045658Y032385D01*
X045658Y032745D01*
X045913Y033000D01*
X046274Y033000D01*
X046529Y032745D01*
X046529Y032590D02*
X048682Y032590D01*
X048682Y032492D02*
X046529Y032492D01*
X046529Y032393D02*
X048682Y032393D01*
X048749Y032295D02*
X046439Y032295D01*
X046340Y032196D02*
X048847Y032196D01*
X048667Y031507D02*
X044814Y031507D01*
X044878Y031408D02*
X048667Y031408D01*
X048713Y031310D02*
X044878Y031310D01*
X044842Y031211D02*
X048812Y031211D01*
X049659Y032098D02*
X055993Y032098D01*
X055993Y032196D02*
X052940Y032196D01*
X052874Y032130D02*
X053129Y032385D01*
X053129Y032745D01*
X052874Y033000D01*
X052513Y033000D01*
X052258Y032745D01*
X052258Y032385D01*
X052513Y032130D01*
X052874Y032130D01*
X053039Y032295D02*
X055993Y032295D01*
X055993Y032393D02*
X053129Y032393D01*
X053129Y032492D02*
X055993Y032492D01*
X055993Y032590D02*
X053129Y032590D01*
X053129Y032689D02*
X055993Y032689D01*
X055993Y032787D02*
X053087Y032787D01*
X052989Y032886D02*
X055993Y032886D01*
X055993Y032984D02*
X052890Y032984D01*
X052497Y032984D02*
X049714Y032984D01*
X049714Y033083D02*
X055993Y033083D01*
X055993Y033181D02*
X049619Y033181D01*
X049368Y033181D02*
X049144Y033181D01*
X049137Y033173D02*
X049325Y033362D01*
X049325Y033628D01*
X049137Y033817D01*
X048870Y033817D01*
X048682Y033628D01*
X048682Y033362D01*
X048870Y033173D01*
X049137Y033173D01*
X049243Y033280D02*
X055993Y033280D01*
X055993Y033378D02*
X049325Y033378D01*
X049325Y033477D02*
X055993Y033477D01*
X055993Y033575D02*
X049325Y033575D01*
X049280Y033674D02*
X055993Y033674D01*
X055993Y033772D02*
X049181Y033772D01*
X048825Y033772D02*
X012015Y033772D01*
X012079Y033871D02*
X055993Y033871D01*
X055993Y033969D02*
X012079Y033969D01*
X012079Y034068D02*
X055993Y034068D01*
X055993Y034166D02*
X012067Y034166D01*
X011969Y034265D02*
X049779Y034265D01*
X049870Y034173D02*
X050137Y034173D01*
X050325Y034362D01*
X050325Y034628D01*
X050137Y034817D01*
X049870Y034817D01*
X049682Y034628D01*
X049682Y034362D01*
X049870Y034173D01*
X049682Y034363D02*
X011870Y034363D01*
X011902Y034659D02*
X049712Y034659D01*
X049682Y034560D02*
X007393Y034560D01*
X007393Y034462D02*
X049682Y034462D01*
X049810Y034757D02*
X012000Y034757D01*
X012079Y034856D02*
X055993Y034856D01*
X055993Y034954D02*
X012079Y034954D01*
X012079Y035053D02*
X031102Y035053D01*
X031137Y035017D02*
X031649Y035017D01*
X032011Y035379D01*
X032011Y035891D01*
X031649Y036253D01*
X031137Y036253D01*
X030775Y035891D01*
X030775Y035379D01*
X031137Y035017D01*
X031003Y035151D02*
X012079Y035151D01*
X011984Y035250D02*
X020642Y035250D01*
X020648Y035244D02*
X020442Y035450D01*
X020442Y035740D01*
X020648Y035946D01*
X020939Y035946D01*
X021144Y035740D01*
X021144Y035450D01*
X020939Y035244D01*
X020648Y035244D01*
X020544Y035348D02*
X011885Y035348D01*
X011917Y033674D02*
X048727Y033674D01*
X048682Y033575D02*
X007393Y033575D01*
X007393Y033477D02*
X048682Y033477D01*
X048682Y033378D02*
X011855Y033378D01*
X011954Y033280D02*
X048764Y033280D01*
X048862Y033181D02*
X012052Y033181D01*
X012079Y033083D02*
X049273Y033083D01*
X049273Y032984D02*
X046290Y032984D01*
X045897Y032984D02*
X039690Y032984D01*
X039674Y033000D02*
X039313Y033000D01*
X039058Y032745D01*
X039058Y032385D01*
X039313Y032130D01*
X039674Y032130D01*
X039929Y032385D01*
X039929Y032745D01*
X039674Y033000D01*
X039789Y032886D02*
X045798Y032886D01*
X045700Y032787D02*
X039887Y032787D01*
X039929Y032689D02*
X045658Y032689D01*
X045658Y032590D02*
X039929Y032590D01*
X039929Y032492D02*
X045658Y032492D01*
X045658Y032393D02*
X039929Y032393D01*
X039839Y032295D02*
X045748Y032295D01*
X045846Y032196D02*
X039740Y032196D01*
X039246Y032196D02*
X033140Y032196D01*
X033074Y032130D02*
X033329Y032385D01*
X033329Y032745D01*
X033074Y033000D01*
X032713Y033000D01*
X032458Y032745D01*
X032458Y032385D01*
X032713Y032130D01*
X033074Y032130D01*
X032886Y031999D02*
X018114Y031999D01*
X018213Y031901D02*
X032823Y031901D01*
X032802Y031802D02*
X018311Y031802D01*
X018356Y031704D02*
X032703Y031704D01*
X032605Y031605D02*
X025235Y031605D01*
X025387Y031507D02*
X032393Y031507D01*
X032323Y031408D02*
X025445Y031408D01*
X025465Y031310D02*
X032323Y031310D01*
X032366Y031211D02*
X025457Y031211D01*
X024981Y031014D02*
X020606Y031014D01*
X020281Y031014D02*
X018137Y031014D01*
X018039Y030916D02*
X032823Y030916D01*
X033493Y030916D02*
X033808Y030916D01*
X033796Y030817D02*
X033493Y030817D01*
X033493Y030719D02*
X033698Y030719D01*
X033599Y030620D02*
X033493Y030620D01*
X033493Y031014D02*
X033880Y031014D01*
X033239Y032295D02*
X039148Y032295D01*
X039058Y032393D02*
X033329Y032393D01*
X033329Y032492D02*
X039058Y032492D01*
X039058Y032590D02*
X033329Y032590D01*
X033329Y032689D02*
X039058Y032689D01*
X039100Y032787D02*
X033287Y032787D01*
X033189Y032886D02*
X039198Y032886D01*
X039297Y032984D02*
X033090Y032984D01*
X032697Y032984D02*
X012079Y032984D01*
X012079Y032886D02*
X032598Y032886D01*
X032500Y032787D02*
X012030Y032787D01*
X011932Y032689D02*
X032458Y032689D01*
X032458Y032590D02*
X007393Y032590D01*
X007393Y032492D02*
X032458Y032492D01*
X032458Y032393D02*
X007393Y032393D01*
X009724Y030226D02*
X022973Y030226D01*
X023049Y030128D02*
X009814Y030128D01*
X010269Y029931D02*
X011117Y029931D01*
X011073Y029886D02*
X011073Y029704D01*
X011202Y029575D01*
X011385Y029575D01*
X011514Y029704D01*
X011514Y029886D01*
X011385Y030015D01*
X011202Y030015D01*
X011073Y029886D01*
X011073Y029832D02*
X010314Y029832D01*
X010314Y029734D02*
X011073Y029734D01*
X011142Y029635D02*
X010245Y029635D01*
X009943Y029044D02*
X010581Y029044D01*
X011445Y029635D02*
X011942Y029635D01*
X011873Y029734D02*
X011514Y029734D01*
X011514Y029832D02*
X011873Y029832D01*
X011917Y029931D02*
X011469Y029931D01*
X012037Y032196D02*
X032646Y032196D01*
X032548Y032295D02*
X011939Y032295D01*
X015007Y029143D02*
X022523Y029143D01*
X022583Y029044D02*
X015106Y029044D01*
X015114Y028946D02*
X033343Y028946D01*
X033343Y028847D02*
X030853Y028847D01*
X030914Y028749D02*
X033343Y028749D01*
X033343Y028650D02*
X030914Y028650D01*
X030862Y028552D02*
X033343Y028552D01*
X033343Y028453D02*
X027664Y028453D01*
X027664Y028355D02*
X033343Y028355D01*
X033343Y028256D02*
X031944Y028256D01*
X032042Y028158D02*
X033343Y028158D01*
X033343Y028059D02*
X032064Y028059D01*
X032064Y027961D02*
X033343Y027961D01*
X033343Y027862D02*
X031972Y027862D01*
X031985Y027565D02*
X031802Y027565D01*
X031673Y027436D01*
X031673Y027254D01*
X031802Y027125D01*
X031985Y027125D01*
X032114Y027254D01*
X032114Y027436D01*
X031985Y027565D01*
X032082Y027468D02*
X033343Y027468D01*
X033343Y027370D02*
X032114Y027370D01*
X032114Y027271D02*
X033343Y027271D01*
X033343Y027173D02*
X032033Y027173D01*
X031754Y027173D02*
X030533Y027173D01*
X030485Y027125D02*
X030614Y027254D01*
X030614Y027436D01*
X030485Y027565D01*
X030302Y027565D01*
X030173Y027436D01*
X030173Y027254D01*
X030302Y027125D01*
X030485Y027125D01*
X030614Y027271D02*
X031673Y027271D01*
X031673Y027370D02*
X030614Y027370D01*
X030582Y027468D02*
X031705Y027468D01*
X031902Y026765D02*
X031773Y026636D01*
X031773Y026454D01*
X031902Y026325D01*
X032085Y026325D01*
X032214Y026454D01*
X032214Y026636D01*
X032085Y026765D01*
X031902Y026765D01*
X031817Y026680D02*
X030420Y026680D01*
X030385Y026715D02*
X030514Y026586D01*
X030514Y026404D01*
X030385Y026275D01*
X030202Y026275D01*
X030073Y026404D01*
X030073Y026586D01*
X030202Y026715D01*
X030385Y026715D01*
X030514Y026582D02*
X031773Y026582D01*
X031773Y026483D02*
X030514Y026483D01*
X030495Y026385D02*
X031842Y026385D01*
X031662Y026188D02*
X033343Y026188D01*
X033343Y026286D02*
X030396Y026286D01*
X030191Y026286D02*
X024691Y026286D01*
X024789Y026385D02*
X030092Y026385D01*
X030073Y026483D02*
X024888Y026483D01*
X024986Y026582D02*
X025695Y026582D01*
X025752Y026525D02*
X025623Y026654D01*
X025623Y026836D01*
X025752Y026965D01*
X025935Y026965D01*
X026064Y026836D01*
X026064Y026654D01*
X025935Y026525D01*
X025752Y026525D01*
X025623Y026680D02*
X025085Y026680D01*
X025183Y026779D02*
X025623Y026779D01*
X025664Y026877D02*
X025254Y026877D01*
X025254Y026976D02*
X025351Y026976D01*
X025536Y026976D02*
X026851Y026976D01*
X026852Y026975D02*
X027035Y026975D01*
X027164Y027104D01*
X027164Y027286D01*
X027035Y027415D01*
X026852Y027415D01*
X026723Y027286D01*
X026723Y027104D01*
X026852Y026975D01*
X026753Y027074D02*
X025634Y027074D01*
X025664Y027173D02*
X026723Y027173D01*
X026723Y027271D02*
X025664Y027271D01*
X025580Y027370D02*
X026806Y027370D01*
X027080Y027370D02*
X030173Y027370D01*
X030173Y027271D02*
X027164Y027271D01*
X027164Y027173D02*
X030254Y027173D01*
X030205Y027468D02*
X025586Y027468D01*
X025634Y027567D02*
X033343Y027567D01*
X033343Y027665D02*
X025634Y027665D01*
X025544Y027764D02*
X033343Y027764D01*
X033493Y028355D02*
X035658Y028355D01*
X035658Y028453D02*
X033493Y028453D01*
X033343Y027074D02*
X027134Y027074D01*
X027036Y026976D02*
X028112Y026976D01*
X028073Y026936D02*
X028202Y027065D01*
X028385Y027065D01*
X028514Y026936D01*
X028514Y026754D01*
X028385Y026625D01*
X028202Y026625D01*
X028073Y026754D01*
X028073Y026936D01*
X028073Y026877D02*
X026723Y026877D01*
X026764Y026836D02*
X026635Y026965D01*
X026452Y026965D01*
X026323Y026836D01*
X026323Y026654D01*
X026452Y026525D01*
X026635Y026525D01*
X026764Y026654D01*
X026764Y026836D01*
X026764Y026779D02*
X028073Y026779D01*
X028147Y026680D02*
X026764Y026680D01*
X026692Y026582D02*
X030073Y026582D01*
X030167Y026680D02*
X029940Y026680D01*
X029885Y026625D02*
X030014Y026754D01*
X030014Y026936D01*
X029885Y027065D01*
X029702Y027065D01*
X029573Y026936D01*
X029573Y026754D01*
X029702Y026625D01*
X029885Y026625D01*
X030014Y026779D02*
X033343Y026779D01*
X033343Y026877D02*
X030014Y026877D01*
X029974Y026976D02*
X033343Y026976D01*
X033343Y026680D02*
X032170Y026680D01*
X032214Y026582D02*
X033343Y026582D01*
X033343Y026483D02*
X032214Y026483D01*
X032145Y026385D02*
X033343Y026385D01*
X033343Y026089D02*
X031761Y026089D01*
X031764Y026086D02*
X031635Y026215D01*
X031452Y026215D01*
X031323Y026086D01*
X031323Y025904D01*
X031452Y025775D01*
X031635Y025775D01*
X031764Y025904D01*
X031764Y026086D01*
X031764Y025991D02*
X033343Y025991D01*
X033343Y025892D02*
X031752Y025892D01*
X031654Y025794D02*
X033343Y025794D01*
X033332Y025695D02*
X029605Y025695D01*
X029585Y025715D02*
X029402Y025715D01*
X029273Y025586D01*
X029273Y025404D01*
X029402Y025275D01*
X029585Y025275D01*
X029714Y025404D01*
X029714Y025586D01*
X029585Y025715D01*
X029703Y025597D02*
X033323Y025597D01*
X033329Y025498D02*
X029714Y025498D01*
X029710Y025400D02*
X031136Y025400D01*
X031152Y025415D02*
X031023Y025286D01*
X031023Y025104D01*
X024443Y025104D01*
X024443Y025006D02*
X031121Y025006D01*
X031152Y024975D02*
X031265Y024975D01*
X031985Y024255D01*
X032872Y024255D01*
X032952Y024175D01*
X033135Y024175D01*
X033264Y024304D01*
X033264Y024486D01*
X033135Y024615D01*
X032952Y024615D01*
X032872Y024535D01*
X032101Y024535D01*
X031464Y025173D01*
X031464Y025286D01*
X031335Y025415D01*
X031152Y025415D01*
X031038Y025301D02*
X029611Y025301D01*
X029376Y025301D02*
X028711Y025301D01*
X028685Y025275D02*
X028814Y025404D01*
X028814Y025586D01*
X028685Y025715D01*
X028502Y025715D01*
X028373Y025586D01*
X028373Y025404D01*
X028502Y025275D01*
X028685Y025275D01*
X028810Y025400D02*
X029277Y025400D01*
X029273Y025498D02*
X028814Y025498D01*
X028803Y025597D02*
X029283Y025597D01*
X029382Y025695D02*
X028705Y025695D01*
X028482Y025695D02*
X024443Y025695D01*
X024443Y025597D02*
X028383Y025597D01*
X028373Y025498D02*
X024443Y025498D01*
X024443Y025400D02*
X028377Y025400D01*
X028476Y025301D02*
X024443Y025301D01*
X024443Y025203D02*
X031023Y025203D01*
X031023Y025104D02*
X031152Y024975D01*
X031333Y024907D02*
X024443Y024907D01*
X024443Y024809D02*
X031431Y024809D01*
X031530Y024710D02*
X030140Y024710D01*
X030085Y024765D02*
X029902Y024765D01*
X029773Y024636D01*
X029773Y024454D01*
X029902Y024325D01*
X030085Y024325D01*
X030214Y024454D01*
X030214Y024636D01*
X030085Y024765D01*
X030214Y024612D02*
X031628Y024612D01*
X031727Y024513D02*
X030214Y024513D01*
X030175Y024415D02*
X031825Y024415D01*
X031924Y024316D02*
X030584Y024316D01*
X030535Y024365D02*
X030352Y024365D01*
X030223Y024236D01*
X030223Y024054D01*
X030352Y023925D01*
X030535Y023925D01*
X030664Y024054D01*
X030664Y024236D01*
X030535Y024365D01*
X030664Y024218D02*
X032909Y024218D01*
X033178Y024218D02*
X033343Y024218D01*
X033343Y024316D02*
X033264Y024316D01*
X033264Y024415D02*
X033343Y024415D01*
X033343Y024513D02*
X033237Y024513D01*
X033138Y024612D02*
X033343Y024612D01*
X033343Y024710D02*
X031927Y024710D01*
X032025Y024612D02*
X032948Y024612D01*
X033343Y024809D02*
X031828Y024809D01*
X031730Y024907D02*
X033343Y024907D01*
X033343Y025006D02*
X031631Y025006D01*
X031533Y025104D02*
X033343Y025104D01*
X033343Y025203D02*
X031464Y025203D01*
X031449Y025301D02*
X033343Y025301D01*
X033343Y025400D02*
X031350Y025400D01*
X031433Y025794D02*
X030854Y025794D01*
X030835Y025775D02*
X030964Y025904D01*
X030964Y026086D01*
X030835Y026215D01*
X030652Y026215D01*
X030523Y026086D01*
X030523Y025904D01*
X030652Y025775D01*
X030835Y025775D01*
X030952Y025892D02*
X031335Y025892D01*
X031323Y025991D02*
X030964Y025991D01*
X030961Y026089D02*
X031326Y026089D01*
X031424Y026188D02*
X030862Y026188D01*
X030624Y026188D02*
X030062Y026188D01*
X030114Y026136D02*
X029985Y026265D01*
X029802Y026265D01*
X029673Y026136D01*
X029673Y025954D01*
X029802Y025825D01*
X029985Y025825D01*
X030114Y025954D01*
X030114Y026136D01*
X030114Y026089D02*
X030526Y026089D01*
X030523Y025991D02*
X030114Y025991D01*
X030052Y025892D02*
X030535Y025892D01*
X030633Y025794D02*
X024443Y025794D01*
X024443Y025892D02*
X028035Y025892D01*
X027973Y025954D02*
X028102Y025825D01*
X028285Y025825D01*
X028414Y025954D01*
X028414Y026136D01*
X028285Y026265D01*
X028102Y026265D01*
X027973Y026136D01*
X027973Y025954D01*
X027973Y025991D02*
X024443Y025991D01*
X024443Y026089D02*
X027973Y026089D01*
X028024Y026188D02*
X024592Y026188D01*
X024575Y026483D02*
X020775Y026483D01*
X020612Y026483D02*
X019154Y026483D01*
X019154Y026582D02*
X024674Y026582D01*
X024772Y026680D02*
X019154Y026680D01*
X019154Y026779D02*
X024871Y026779D01*
X024969Y026877D02*
X019154Y026877D01*
X019154Y026976D02*
X020601Y026976D01*
X020602Y026975D02*
X020785Y026975D01*
X020914Y027104D01*
X020914Y027286D01*
X020785Y027415D01*
X020602Y027415D01*
X020473Y027286D01*
X020473Y027104D01*
X020602Y026975D01*
X020503Y027074D02*
X019192Y027074D01*
X019234Y027173D02*
X020473Y027173D01*
X020473Y027271D02*
X019234Y027271D01*
X019138Y027370D02*
X020556Y027370D01*
X020830Y027370D02*
X025062Y027370D01*
X025033Y027271D02*
X020914Y027271D01*
X020914Y027173D02*
X025033Y027173D01*
X025033Y027074D02*
X020884Y027074D01*
X020786Y026976D02*
X025033Y026976D01*
X026023Y026877D02*
X026364Y026877D01*
X026323Y026779D02*
X026064Y026779D01*
X026064Y026680D02*
X026323Y026680D01*
X026395Y026582D02*
X025992Y026582D01*
X027566Y028256D02*
X031743Y028256D01*
X030525Y028552D02*
X027748Y028552D01*
X025995Y029635D02*
X030222Y029635D01*
X030173Y029537D02*
X025897Y029537D01*
X025614Y029340D02*
X030237Y029340D01*
X030173Y029438D02*
X025562Y029438D01*
X025667Y029931D02*
X019364Y029931D01*
X019271Y030029D02*
X030373Y030029D01*
X030373Y030128D02*
X023888Y030128D01*
X023964Y030226D02*
X030413Y030226D01*
X030446Y029931D02*
X025919Y029931D01*
X024900Y031507D02*
X020687Y031507D01*
X020535Y031605D02*
X025051Y031605D01*
X023560Y030423D02*
X023377Y030423D01*
X023414Y030325D02*
X023523Y030325D01*
X023523Y030226D02*
X023414Y030226D01*
X023338Y030128D02*
X023599Y030128D01*
X020696Y028059D02*
X018234Y028059D01*
X018178Y027961D02*
X020597Y027961D01*
X020573Y027862D02*
X018154Y027862D01*
X018154Y027764D02*
X020573Y027764D01*
X020514Y026385D02*
X019173Y026385D01*
X019234Y026286D02*
X020503Y026286D01*
X017933Y027567D02*
X014477Y027567D01*
X014514Y027665D02*
X017933Y027665D01*
X017933Y027764D02*
X014514Y027764D01*
X014438Y027862D02*
X015465Y027862D01*
X015423Y027904D02*
X015552Y027775D01*
X015735Y027775D01*
X015864Y027904D01*
X015864Y028086D01*
X015735Y028215D01*
X015552Y028215D01*
X015423Y028086D01*
X015423Y027904D01*
X015423Y027961D02*
X015021Y027961D01*
X015064Y028059D02*
X015423Y028059D01*
X015494Y028158D02*
X015064Y028158D01*
X014994Y028256D02*
X016868Y028256D01*
X016888Y028277D02*
X016811Y028200D01*
X016770Y028099D01*
X016770Y027991D01*
X016811Y027890D01*
X016888Y027813D01*
X016989Y027771D01*
X017098Y027771D01*
X017198Y027813D01*
X017275Y027890D01*
X017317Y027991D01*
X017317Y028099D01*
X017275Y028200D01*
X017198Y028277D01*
X017098Y028319D01*
X016989Y028319D01*
X016888Y028277D01*
X016794Y028158D02*
X015792Y028158D01*
X015864Y028059D02*
X016770Y028059D01*
X016782Y027961D02*
X015864Y027961D01*
X015822Y027862D02*
X016839Y027862D01*
X017247Y027862D02*
X017933Y027862D01*
X017908Y027961D02*
X017304Y027961D01*
X017317Y028059D02*
X017853Y028059D01*
X017853Y028158D02*
X017293Y028158D01*
X017219Y028256D02*
X017935Y028256D01*
X015107Y028847D02*
X030534Y028847D01*
X029612Y026976D02*
X028474Y026976D01*
X028514Y026877D02*
X029573Y026877D01*
X029573Y026779D02*
X028514Y026779D01*
X028440Y026680D02*
X029647Y026680D01*
X029724Y026188D02*
X028362Y026188D01*
X028414Y026089D02*
X029673Y026089D01*
X029673Y025991D02*
X028414Y025991D01*
X028352Y025892D02*
X029735Y025892D01*
X029847Y024710D02*
X024443Y024710D01*
X024443Y024612D02*
X029773Y024612D01*
X029773Y024513D02*
X024443Y024513D01*
X024443Y024415D02*
X029812Y024415D01*
X030223Y024218D02*
X024443Y024218D01*
X024443Y024316D02*
X030303Y024316D01*
X030223Y024119D02*
X024443Y024119D01*
X024443Y024021D02*
X030256Y024021D01*
X030352Y023665D02*
X030223Y023536D01*
X030223Y023354D01*
X030352Y023225D01*
X030535Y023225D01*
X030664Y023354D01*
X030664Y023536D01*
X030535Y023665D01*
X030352Y023665D01*
X030313Y023627D02*
X027374Y023627D01*
X027335Y023665D02*
X027152Y023665D01*
X027023Y023536D01*
X027023Y023354D01*
X027152Y023225D01*
X027335Y023225D01*
X027464Y023354D01*
X027464Y023536D01*
X027335Y023665D01*
X027464Y023528D02*
X030223Y023528D01*
X030223Y023430D02*
X027464Y023430D01*
X027441Y023331D02*
X030246Y023331D01*
X030344Y023233D02*
X030118Y023233D01*
X030085Y023265D02*
X029902Y023265D01*
X029773Y023136D01*
X029773Y022954D01*
X029902Y022825D01*
X030085Y022825D01*
X030214Y022954D01*
X030214Y023136D01*
X030085Y023265D01*
X030214Y023134D02*
X032093Y023134D01*
X032152Y023075D02*
X032023Y023204D01*
X032023Y023386D01*
X032152Y023515D01*
X032335Y023515D01*
X032464Y023386D01*
X032464Y023204D01*
X032335Y023075D01*
X032152Y023075D01*
X032023Y023233D02*
X030543Y023233D01*
X030641Y023331D02*
X032023Y023331D01*
X032066Y023430D02*
X030664Y023430D01*
X030664Y023528D02*
X033343Y023528D01*
X033343Y023430D02*
X032421Y023430D01*
X032464Y023331D02*
X033343Y023331D01*
X033343Y023233D02*
X033218Y023233D01*
X033264Y023186D02*
X033135Y023315D01*
X032952Y023315D01*
X032823Y023186D01*
X032823Y023004D01*
X032952Y022875D01*
X033135Y022875D01*
X033264Y023004D01*
X033264Y023186D01*
X033264Y023134D02*
X033343Y023134D01*
X033343Y023036D02*
X033264Y023036D01*
X033197Y022937D02*
X033343Y022937D01*
X033343Y022839D02*
X031914Y022839D01*
X031914Y022754D02*
X031785Y022625D01*
X031602Y022625D01*
X031473Y022754D01*
X031473Y022936D01*
X031602Y023065D01*
X031785Y023065D01*
X031914Y022936D01*
X031914Y022754D01*
X031900Y022740D02*
X033343Y022740D01*
X033343Y022642D02*
X031802Y022642D01*
X031585Y022642D02*
X031209Y022642D01*
X031185Y022665D02*
X031002Y022665D01*
X030922Y022585D01*
X029415Y022585D01*
X029335Y022665D01*
X029152Y022665D01*
X029023Y022536D01*
X029023Y022354D01*
X029152Y022225D01*
X029335Y022225D01*
X029415Y022305D01*
X030922Y022305D01*
X031002Y022225D01*
X031185Y022225D01*
X031314Y022354D01*
X031314Y022536D01*
X031185Y022665D01*
X031307Y022543D02*
X033343Y022543D01*
X033343Y022445D02*
X031314Y022445D01*
X031306Y022346D02*
X033343Y022346D01*
X033343Y022248D02*
X031803Y022248D01*
X031785Y022265D02*
X031602Y022265D01*
X031473Y022136D01*
X031473Y021954D01*
X031602Y021825D01*
X031785Y021825D01*
X031914Y021954D01*
X031914Y022136D01*
X031785Y022265D01*
X031901Y022149D02*
X033343Y022149D01*
X033343Y022051D02*
X031914Y022051D01*
X031912Y021952D02*
X033343Y021952D01*
X033343Y021854D02*
X031814Y021854D01*
X031973Y021686D02*
X032102Y021815D01*
X032285Y021815D01*
X032414Y021686D01*
X032414Y021504D01*
X032285Y021375D01*
X032102Y021375D01*
X031973Y021504D01*
X031973Y021686D01*
X031973Y021657D02*
X024443Y021657D01*
X024443Y021755D02*
X025672Y021755D01*
X025702Y021725D02*
X025885Y021725D01*
X026014Y021854D01*
X026014Y022036D01*
X025885Y022165D01*
X025702Y022165D01*
X025573Y022036D01*
X025573Y021854D01*
X025702Y021725D01*
X025573Y021854D02*
X024443Y021854D01*
X024443Y021952D02*
X025573Y021952D01*
X025587Y022051D02*
X024443Y022051D01*
X024443Y022149D02*
X025686Y022149D01*
X025901Y022149D02*
X031486Y022149D01*
X031473Y022051D02*
X026000Y022051D01*
X026014Y021952D02*
X031475Y021952D01*
X031573Y021854D02*
X026014Y021854D01*
X025915Y021755D02*
X032042Y021755D01*
X031973Y021558D02*
X024443Y021558D01*
X024443Y021460D02*
X032017Y021460D01*
X032370Y021460D02*
X032867Y021460D01*
X032823Y021504D02*
X032952Y021375D01*
X033135Y021375D01*
X033264Y021504D01*
X033264Y021686D01*
X033135Y021815D01*
X032952Y021815D01*
X032823Y021686D01*
X032823Y021504D01*
X032823Y021558D02*
X032414Y021558D01*
X032414Y021657D02*
X032823Y021657D01*
X032892Y021755D02*
X032345Y021755D01*
X033195Y021755D02*
X033343Y021755D01*
X033343Y021657D02*
X033264Y021657D01*
X033264Y021558D02*
X033343Y021558D01*
X033343Y021460D02*
X033220Y021460D01*
X033343Y021361D02*
X028789Y021361D01*
X028785Y021365D02*
X028602Y021365D01*
X028473Y021236D01*
X028473Y021054D01*
X028602Y020925D01*
X028785Y020925D01*
X028914Y021054D01*
X028914Y021236D01*
X028785Y021365D01*
X028888Y021263D02*
X033343Y021263D01*
X033343Y021164D02*
X028914Y021164D01*
X028914Y021066D02*
X033343Y021066D01*
X033343Y020967D02*
X028827Y020967D01*
X028560Y020967D02*
X024443Y020967D01*
X024443Y020869D02*
X033343Y020869D01*
X033343Y020770D02*
X024443Y020770D01*
X024443Y020672D02*
X032108Y020672D01*
X032152Y020715D02*
X032023Y020586D01*
X032023Y020404D01*
X032152Y020275D01*
X032335Y020275D01*
X032415Y020355D01*
X032872Y020355D01*
X032952Y020275D01*
X033135Y020275D01*
X033264Y020404D01*
X033264Y020586D01*
X033135Y020715D01*
X032952Y020715D01*
X032872Y020635D01*
X032415Y020635D01*
X032335Y020715D01*
X032152Y020715D01*
X032023Y020573D02*
X024443Y020573D01*
X024443Y020475D02*
X032023Y020475D01*
X032051Y020376D02*
X030474Y020376D01*
X030435Y020415D02*
X030564Y020286D01*
X030564Y020104D01*
X030435Y019975D01*
X030252Y019975D01*
X030123Y020104D01*
X030123Y020286D01*
X030252Y020415D01*
X030435Y020415D01*
X030564Y020278D02*
X032149Y020278D01*
X032338Y020278D02*
X032949Y020278D01*
X033138Y020278D02*
X033343Y020278D01*
X033343Y020376D02*
X033236Y020376D01*
X033264Y020475D02*
X033343Y020475D01*
X033343Y020573D02*
X033264Y020573D01*
X033343Y020672D02*
X033179Y020672D01*
X032908Y020672D02*
X032379Y020672D01*
X033343Y020179D02*
X030564Y020179D01*
X030541Y020081D02*
X033343Y020081D01*
X033343Y019982D02*
X030442Y019982D01*
X030435Y019915D02*
X030252Y019915D01*
X030123Y019786D01*
X030123Y019604D01*
X030252Y019475D01*
X030435Y019475D01*
X030564Y019604D01*
X030564Y019786D01*
X030435Y019915D01*
X030467Y019884D02*
X033343Y019884D01*
X033343Y019785D02*
X030564Y019785D01*
X030564Y019687D02*
X033343Y019687D01*
X033343Y019588D02*
X030548Y019588D01*
X030450Y019490D02*
X033343Y019490D01*
X033343Y019391D02*
X030459Y019391D01*
X030435Y019415D02*
X030252Y019415D01*
X030123Y019286D01*
X030123Y019104D01*
X030252Y018975D01*
X030435Y018975D01*
X030564Y019104D01*
X030564Y019286D01*
X030435Y019415D01*
X030558Y019293D02*
X033343Y019293D01*
X033343Y019194D02*
X030564Y019194D01*
X030556Y019096D02*
X033343Y019096D01*
X033343Y018997D02*
X030457Y018997D01*
X030435Y018915D02*
X030252Y018915D01*
X030123Y018786D01*
X030123Y018604D01*
X030252Y018475D01*
X030435Y018475D01*
X030564Y018604D01*
X030564Y018786D01*
X030435Y018915D01*
X030452Y018899D02*
X033343Y018899D01*
X033343Y018800D02*
X030550Y018800D01*
X030564Y018702D02*
X033343Y018702D01*
X033343Y018603D02*
X030563Y018603D01*
X030465Y018505D02*
X033343Y018505D01*
X033343Y018406D02*
X030444Y018406D01*
X030435Y018415D02*
X030252Y018415D01*
X030214Y018377D01*
X030214Y018486D01*
X030085Y018615D01*
X029902Y018615D01*
X029773Y018486D01*
X029773Y018415D01*
X029752Y018415D01*
X029623Y018286D01*
X029623Y018104D01*
X029752Y017975D01*
X029935Y017975D01*
X030064Y018104D01*
X030064Y018175D01*
X030085Y018175D01*
X030123Y018213D01*
X030123Y018104D01*
X030252Y017975D01*
X030435Y017975D01*
X030564Y018104D01*
X030564Y018286D01*
X030435Y018415D01*
X030543Y018308D02*
X033343Y018308D01*
X033343Y018209D02*
X030564Y018209D01*
X030564Y018111D02*
X033343Y018111D01*
X033343Y018012D02*
X030472Y018012D01*
X030215Y018012D02*
X029972Y018012D01*
X030064Y018111D02*
X030123Y018111D01*
X030119Y018209D02*
X030123Y018209D01*
X030214Y018406D02*
X030243Y018406D01*
X030222Y018505D02*
X030196Y018505D01*
X030124Y018603D02*
X030097Y018603D01*
X030123Y018702D02*
X027409Y018702D01*
X027409Y018800D02*
X030137Y018800D01*
X030235Y018899D02*
X027409Y018899D01*
X027409Y018997D02*
X029730Y018997D01*
X029752Y018975D02*
X029935Y018975D01*
X030064Y019104D01*
X030064Y019286D01*
X029935Y019415D01*
X029752Y019415D01*
X029623Y019286D01*
X029623Y019104D01*
X029752Y018975D01*
X029631Y019096D02*
X027409Y019096D01*
X027409Y019194D02*
X029623Y019194D01*
X029629Y019293D02*
X027409Y019293D01*
X027409Y019391D02*
X029728Y019391D01*
X029752Y019475D02*
X029935Y019475D01*
X030064Y019604D01*
X030064Y019786D01*
X029935Y019915D01*
X029752Y019915D01*
X029623Y019786D01*
X029623Y019604D01*
X029752Y019475D01*
X029737Y019490D02*
X029450Y019490D01*
X029435Y019475D02*
X029564Y019604D01*
X029564Y019786D01*
X029435Y019915D01*
X029252Y019915D01*
X029123Y019786D01*
X029123Y019604D01*
X029252Y019475D01*
X029435Y019475D01*
X029548Y019588D02*
X029639Y019588D01*
X029623Y019687D02*
X029564Y019687D01*
X029564Y019785D02*
X029623Y019785D01*
X029720Y019884D02*
X029467Y019884D01*
X029435Y019975D02*
X029564Y020104D01*
X029564Y020286D01*
X029435Y020415D01*
X029252Y020415D01*
X029123Y020286D01*
X029123Y020104D01*
X029252Y019975D01*
X029435Y019975D01*
X029442Y019982D02*
X029745Y019982D01*
X029752Y019975D02*
X029935Y019975D01*
X030064Y020104D01*
X030064Y020286D01*
X029935Y020415D01*
X029752Y020415D01*
X029623Y020286D01*
X029623Y020104D01*
X029752Y019975D01*
X029646Y020081D02*
X029541Y020081D01*
X029564Y020179D02*
X029623Y020179D01*
X029623Y020278D02*
X029564Y020278D01*
X029474Y020376D02*
X029713Y020376D01*
X029974Y020376D02*
X030213Y020376D01*
X030123Y020278D02*
X030064Y020278D01*
X030064Y020179D02*
X030123Y020179D01*
X030146Y020081D02*
X030041Y020081D01*
X029942Y019982D02*
X030245Y019982D01*
X030220Y019884D02*
X029967Y019884D01*
X030064Y019785D02*
X030123Y019785D01*
X030123Y019687D02*
X030064Y019687D01*
X030048Y019588D02*
X030139Y019588D01*
X030237Y019490D02*
X029950Y019490D01*
X029959Y019391D02*
X030228Y019391D01*
X030129Y019293D02*
X030058Y019293D01*
X030064Y019194D02*
X030123Y019194D01*
X030131Y019096D02*
X030056Y019096D01*
X029957Y018997D02*
X030230Y018997D01*
X029890Y018603D02*
X027409Y018603D01*
X027409Y018505D02*
X029791Y018505D01*
X029743Y018406D02*
X029444Y018406D01*
X029435Y018415D02*
X029252Y018415D01*
X029123Y018286D01*
X029123Y018104D01*
X029252Y017975D01*
X029435Y017975D01*
X029564Y018104D01*
X029564Y018286D01*
X029435Y018415D01*
X029543Y018308D02*
X029644Y018308D01*
X029623Y018209D02*
X029564Y018209D01*
X029564Y018111D02*
X029623Y018111D01*
X029715Y018012D02*
X029472Y018012D01*
X029215Y018012D02*
X028972Y018012D01*
X028935Y017975D02*
X029064Y018104D01*
X029064Y018286D01*
X028935Y018415D01*
X028752Y018415D01*
X028623Y018286D01*
X028623Y018104D01*
X028752Y017975D01*
X028935Y017975D01*
X029064Y018111D02*
X029123Y018111D01*
X029123Y018209D02*
X029064Y018209D01*
X029043Y018308D02*
X029144Y018308D01*
X029243Y018406D02*
X028944Y018406D01*
X028743Y018406D02*
X028444Y018406D01*
X028435Y018415D02*
X028252Y018415D01*
X028123Y018286D01*
X028123Y018104D01*
X028252Y017975D01*
X028435Y017975D01*
X028564Y018104D01*
X028564Y018286D01*
X028435Y018415D01*
X028543Y018308D02*
X028644Y018308D01*
X028623Y018209D02*
X028564Y018209D01*
X028564Y018111D02*
X028623Y018111D01*
X028715Y018012D02*
X028472Y018012D01*
X028215Y018012D02*
X027409Y018012D01*
X027409Y017914D02*
X033343Y017914D01*
X033343Y017815D02*
X027409Y017815D01*
X027409Y017717D02*
X033343Y017717D01*
X033343Y017618D02*
X027409Y017618D01*
X027409Y017520D02*
X033343Y017520D01*
X033343Y017421D02*
X027409Y017421D01*
X027409Y017323D02*
X033343Y017323D01*
X033343Y017224D02*
X027409Y017224D01*
X027409Y017126D02*
X033343Y017126D01*
X033343Y017027D02*
X027409Y017027D01*
X027409Y016929D02*
X033343Y016929D01*
X033343Y016830D02*
X027409Y016830D01*
X027409Y016732D02*
X033343Y016732D01*
X033343Y016633D02*
X027409Y016633D01*
X027409Y016535D02*
X033343Y016535D01*
X033343Y016436D02*
X027409Y016436D01*
X027409Y016366D02*
X027409Y019874D01*
X027475Y019940D01*
X027517Y020041D01*
X027517Y020149D01*
X027475Y020250D01*
X027398Y020327D01*
X027298Y020369D01*
X027189Y020369D01*
X027088Y020327D01*
X027011Y020250D01*
X026970Y020149D01*
X026970Y020041D01*
X027011Y019940D01*
X027078Y019874D01*
X027078Y016366D01*
X027011Y016300D01*
X026970Y016199D01*
X026970Y016091D01*
X027011Y015990D01*
X027088Y015913D01*
X027189Y015871D01*
X027298Y015871D01*
X027398Y015913D01*
X027475Y015990D01*
X027517Y016091D01*
X027517Y016199D01*
X027475Y016300D01*
X027409Y016366D01*
X027438Y016338D02*
X033343Y016338D01*
X033343Y016239D02*
X027500Y016239D01*
X027517Y016141D02*
X033343Y016141D01*
X033343Y016042D02*
X027497Y016042D01*
X027429Y015944D02*
X033343Y015944D01*
X033343Y015845D02*
X024043Y015845D01*
X023945Y015747D02*
X033343Y015747D01*
X033343Y015648D02*
X023846Y015648D01*
X023748Y015550D02*
X033343Y015550D01*
X033343Y015451D02*
X023649Y015451D01*
X023551Y015353D02*
X033343Y015353D01*
X033343Y015254D02*
X023452Y015254D01*
X023354Y015156D02*
X033343Y015156D01*
X033343Y015057D02*
X023255Y015057D01*
X023157Y014959D02*
X033343Y014959D01*
X033343Y014860D02*
X023058Y014860D01*
X022960Y014762D02*
X033343Y014762D01*
X033343Y014663D02*
X022861Y014663D01*
X022763Y014565D02*
X033343Y014565D01*
X033343Y014466D02*
X022664Y014466D01*
X022566Y014368D02*
X033343Y014368D01*
X033343Y014269D02*
X022467Y014269D01*
X022369Y014171D02*
X033343Y014171D01*
X033343Y014072D02*
X022270Y014072D01*
X022172Y013974D02*
X033343Y013974D01*
X033493Y013974D02*
X051493Y013974D01*
X051493Y014072D02*
X033493Y014072D01*
X033493Y014171D02*
X051493Y014171D01*
X051493Y014269D02*
X033493Y014269D01*
X033493Y014368D02*
X051493Y014368D01*
X051493Y014466D02*
X033493Y014466D01*
X033493Y014565D02*
X051493Y014565D01*
X051493Y014663D02*
X033493Y014663D01*
X033493Y014762D02*
X051493Y014762D01*
X051493Y014860D02*
X033493Y014860D01*
X033493Y014959D02*
X034968Y014959D01*
X034943Y014983D02*
X035031Y014895D01*
X038005Y014895D01*
X038093Y014983D01*
X038093Y017707D01*
X038005Y017795D01*
X037881Y017795D01*
X035155Y017795D01*
X035031Y017795D01*
X034943Y017707D01*
X034943Y014983D01*
X034943Y015057D02*
X033493Y015057D01*
X033493Y015156D02*
X034943Y015156D01*
X034943Y015254D02*
X033493Y015254D01*
X033493Y015353D02*
X034943Y015353D01*
X034943Y015451D02*
X033493Y015451D01*
X033493Y015550D02*
X034943Y015550D01*
X034943Y015648D02*
X033493Y015648D01*
X033493Y015747D02*
X034943Y015747D01*
X034943Y015845D02*
X033493Y015845D01*
X033493Y015944D02*
X034943Y015944D01*
X034943Y016042D02*
X033493Y016042D01*
X033493Y016141D02*
X034943Y016141D01*
X034943Y016239D02*
X033493Y016239D01*
X033493Y016338D02*
X034943Y016338D01*
X034943Y016436D02*
X033493Y016436D01*
X033493Y016535D02*
X034943Y016535D01*
X034943Y016633D02*
X033493Y016633D01*
X033493Y016732D02*
X034943Y016732D01*
X034943Y016830D02*
X033493Y016830D01*
X033493Y016929D02*
X034943Y016929D01*
X034943Y017027D02*
X033493Y017027D01*
X033493Y017126D02*
X034943Y017126D01*
X034943Y017224D02*
X033493Y017224D01*
X033493Y017323D02*
X034943Y017323D01*
X034943Y017421D02*
X033493Y017421D01*
X033493Y017520D02*
X034943Y017520D01*
X034943Y017618D02*
X033493Y017618D01*
X033493Y017717D02*
X034953Y017717D01*
X035093Y017645D02*
X035093Y015045D01*
X037943Y015045D01*
X037943Y017645D01*
X035093Y017645D01*
X035093Y017618D02*
X037943Y017618D01*
X037943Y017520D02*
X035093Y017520D01*
X035093Y017421D02*
X037943Y017421D01*
X037943Y017323D02*
X035093Y017323D01*
X035093Y017224D02*
X037943Y017224D01*
X037943Y017126D02*
X035093Y017126D01*
X035093Y017027D02*
X037943Y017027D01*
X037943Y016929D02*
X035093Y016929D01*
X035093Y016830D02*
X037943Y016830D01*
X037943Y016732D02*
X035093Y016732D01*
X035093Y016633D02*
X037943Y016633D01*
X037943Y016535D02*
X035093Y016535D01*
X035093Y016436D02*
X037943Y016436D01*
X037943Y016338D02*
X035093Y016338D01*
X035093Y016239D02*
X037943Y016239D01*
X037943Y016141D02*
X035093Y016141D01*
X035093Y016042D02*
X037943Y016042D01*
X037943Y015944D02*
X035093Y015944D01*
X035093Y015845D02*
X037943Y015845D01*
X037943Y015747D02*
X035093Y015747D01*
X035093Y015648D02*
X037943Y015648D01*
X037943Y015550D02*
X035093Y015550D01*
X035093Y015451D02*
X037943Y015451D01*
X037943Y015353D02*
X035093Y015353D01*
X035093Y015254D02*
X037943Y015254D01*
X037943Y015156D02*
X035093Y015156D01*
X035093Y015057D02*
X037943Y015057D01*
X038093Y015057D02*
X051493Y015057D01*
X051493Y014959D02*
X038069Y014959D01*
X038093Y015156D02*
X051493Y015156D01*
X051493Y015254D02*
X038093Y015254D01*
X038093Y015353D02*
X051493Y015353D01*
X051493Y015451D02*
X038093Y015451D01*
X038093Y015550D02*
X051493Y015550D01*
X051493Y015648D02*
X038093Y015648D01*
X038093Y015747D02*
X051493Y015747D01*
X051493Y015845D02*
X038093Y015845D01*
X038093Y015944D02*
X051493Y015944D01*
X051493Y016042D02*
X038093Y016042D01*
X038093Y016141D02*
X051493Y016141D01*
X051493Y016239D02*
X038093Y016239D01*
X038093Y016338D02*
X051493Y016338D01*
X051493Y016436D02*
X038093Y016436D01*
X038093Y016535D02*
X051493Y016535D01*
X051493Y016633D02*
X038093Y016633D01*
X038093Y016732D02*
X051493Y016732D01*
X051493Y016830D02*
X038093Y016830D01*
X038093Y016929D02*
X051493Y016929D01*
X051493Y017027D02*
X038093Y017027D01*
X038093Y017126D02*
X051493Y017126D01*
X051493Y017224D02*
X038093Y017224D01*
X038093Y017323D02*
X051493Y017323D01*
X051493Y017421D02*
X038093Y017421D01*
X038093Y017520D02*
X051493Y017520D01*
X051493Y017618D02*
X038093Y017618D01*
X038084Y017717D02*
X051493Y017717D01*
X051493Y017815D02*
X033493Y017815D01*
X033493Y017914D02*
X051493Y017914D01*
X051493Y018012D02*
X033493Y018012D01*
X033493Y018111D02*
X051493Y018111D01*
X051493Y018209D02*
X033493Y018209D01*
X033493Y018308D02*
X051493Y018308D01*
X051493Y018406D02*
X033493Y018406D01*
X033493Y018505D02*
X039601Y018505D01*
X039508Y018603D02*
X033493Y018603D01*
X033493Y018702D02*
X039508Y018702D01*
X039516Y018800D02*
X033493Y018800D01*
X033493Y018899D02*
X039583Y018899D01*
X039583Y018997D02*
X033493Y018997D01*
X033493Y019096D02*
X039583Y019096D01*
X039583Y019194D02*
X033493Y019194D01*
X033493Y019293D02*
X039583Y019293D01*
X039583Y019391D02*
X033493Y019391D01*
X033493Y019490D02*
X039583Y019490D01*
X039583Y019588D02*
X033493Y019588D01*
X033493Y019687D02*
X039583Y019687D01*
X039583Y019785D02*
X033493Y019785D01*
X033493Y019884D02*
X039583Y019884D01*
X039583Y019982D02*
X033493Y019982D01*
X033493Y020081D02*
X039583Y020081D01*
X039583Y020179D02*
X033493Y020179D01*
X033493Y020278D02*
X039583Y020278D01*
X039583Y020376D02*
X033493Y020376D01*
X033493Y020475D02*
X039583Y020475D01*
X039583Y020573D02*
X033493Y020573D01*
X033493Y020672D02*
X039583Y020672D01*
X039583Y020770D02*
X038851Y020770D01*
X038949Y020869D02*
X039583Y020869D01*
X038636Y020770D02*
X033493Y020770D01*
X033493Y020869D02*
X038537Y020869D01*
X041198Y020869D02*
X043485Y020869D01*
X043496Y020880D02*
X043358Y020742D01*
X043358Y020548D01*
X043496Y020410D01*
X043691Y020410D01*
X043828Y020548D01*
X043828Y020742D01*
X043691Y020880D01*
X043496Y020880D01*
X043386Y020770D02*
X041198Y020770D01*
X041198Y020672D02*
X043358Y020672D01*
X043358Y020573D02*
X041198Y020573D01*
X041198Y020475D02*
X043431Y020475D01*
X043755Y020475D02*
X051493Y020475D01*
X051493Y020573D02*
X043828Y020573D01*
X043828Y020672D02*
X051493Y020672D01*
X051493Y020770D02*
X043801Y020770D01*
X043702Y020869D02*
X051493Y020869D01*
X051493Y020967D02*
X045705Y020967D01*
X045748Y021066D02*
X051493Y021066D01*
X051493Y021164D02*
X045748Y021164D01*
X045748Y021263D02*
X051493Y021263D01*
X051493Y021361D02*
X045748Y021361D01*
X045748Y021460D02*
X051493Y021460D01*
X051493Y021558D02*
X045748Y021558D01*
X045748Y021657D02*
X051493Y021657D01*
X051493Y021755D02*
X045748Y021755D01*
X045748Y021854D02*
X051493Y021854D01*
X051493Y021952D02*
X045748Y021952D01*
X045748Y022051D02*
X051493Y022051D01*
X051493Y022149D02*
X045748Y022149D01*
X045748Y022248D02*
X051493Y022248D01*
X051493Y022346D02*
X045748Y022346D01*
X045748Y022445D02*
X051493Y022445D01*
X051493Y022543D02*
X045748Y022543D01*
X046493Y022642D02*
X051493Y022642D01*
X051493Y022740D02*
X046493Y022740D01*
X046493Y022839D02*
X051493Y022839D01*
X051493Y022937D02*
X046493Y022937D01*
X046493Y023036D02*
X051493Y023036D01*
X051493Y023134D02*
X046493Y023134D01*
X046493Y023233D02*
X051493Y023233D01*
X051493Y023331D02*
X046493Y023331D01*
X046493Y023430D02*
X051493Y023430D01*
X051493Y023528D02*
X046493Y023528D01*
X046493Y023627D02*
X051493Y023627D01*
X051493Y023725D02*
X046493Y023725D01*
X046456Y023824D02*
X051493Y023824D01*
X051493Y023922D02*
X047303Y023922D01*
X047401Y024021D02*
X051493Y024021D01*
X051493Y024119D02*
X047428Y024119D01*
X047428Y024218D02*
X051493Y024218D01*
X051493Y024316D02*
X047355Y024316D01*
X046958Y024119D02*
X045709Y024119D01*
X045748Y024021D02*
X046985Y024021D01*
X047084Y023922D02*
X045748Y023922D01*
X044650Y025006D02*
X035736Y025006D01*
X035828Y025104D02*
X044558Y025104D01*
X047477Y025794D02*
X051493Y025794D01*
X050424Y028158D02*
X046118Y028158D01*
X046118Y028256D02*
X050323Y028256D01*
X050244Y028355D02*
X046118Y028355D01*
X046118Y028453D02*
X050203Y028453D01*
X050171Y028552D02*
X046118Y028552D01*
X046118Y028650D02*
X050171Y028650D01*
X050171Y028749D02*
X046118Y028749D01*
X046118Y028847D02*
X050207Y028847D01*
X050248Y028946D02*
X046118Y028946D01*
X046118Y029044D02*
X050333Y029044D01*
X050449Y029143D02*
X046118Y029143D01*
X049659Y032196D02*
X052446Y032196D01*
X052348Y032295D02*
X049659Y032295D01*
X049659Y032393D02*
X052258Y032393D01*
X052258Y032492D02*
X049659Y032492D01*
X049659Y032590D02*
X052258Y032590D01*
X052258Y032689D02*
X049659Y032689D01*
X049659Y032787D02*
X052300Y032787D01*
X052398Y032886D02*
X049696Y032886D01*
X050228Y034265D02*
X055993Y034265D01*
X055993Y034363D02*
X050325Y034363D01*
X050325Y034462D02*
X055993Y034462D01*
X055993Y034560D02*
X050325Y034560D01*
X050295Y034659D02*
X055993Y034659D01*
X055993Y034757D02*
X050196Y034757D01*
X050705Y035250D02*
X049213Y035250D01*
X049137Y035173D02*
X049325Y035362D01*
X049325Y035628D01*
X049137Y035817D01*
X048870Y035817D01*
X048682Y035628D01*
X048682Y035362D01*
X048870Y035173D01*
X049137Y035173D01*
X049311Y035348D02*
X050606Y035348D01*
X050575Y035379D02*
X050937Y035017D01*
X051449Y035017D01*
X051811Y035379D01*
X051811Y035891D01*
X051449Y036253D01*
X050937Y036253D01*
X050575Y035891D01*
X050575Y035379D01*
X050575Y035447D02*
X049325Y035447D01*
X049325Y035545D02*
X050575Y035545D01*
X050575Y035644D02*
X049310Y035644D01*
X049211Y035742D02*
X050575Y035742D01*
X050575Y035841D02*
X048211Y035841D01*
X048211Y035891D02*
X047849Y036253D01*
X047337Y036253D01*
X046975Y035891D01*
X046975Y035379D01*
X047337Y035017D01*
X047849Y035017D01*
X048211Y035379D01*
X048211Y035891D01*
X048163Y035939D02*
X050623Y035939D01*
X050722Y036038D02*
X048065Y036038D01*
X047966Y036136D02*
X050820Y036136D01*
X050919Y036235D02*
X047868Y036235D01*
X047319Y036235D02*
X044868Y036235D01*
X044849Y036253D02*
X044337Y036253D01*
X043975Y035891D01*
X043975Y035379D01*
X044337Y035017D01*
X044849Y035017D01*
X045211Y035379D01*
X045211Y035891D01*
X044849Y036253D01*
X044966Y036136D02*
X047220Y036136D01*
X047122Y036038D02*
X045065Y036038D01*
X045163Y035939D02*
X047023Y035939D01*
X046975Y035841D02*
X045211Y035841D01*
X045211Y035742D02*
X046975Y035742D01*
X046975Y035644D02*
X045211Y035644D01*
X045211Y035545D02*
X046975Y035545D01*
X046975Y035447D02*
X045211Y035447D01*
X045180Y035348D02*
X047006Y035348D01*
X047105Y035250D02*
X045082Y035250D01*
X044983Y035151D02*
X047203Y035151D01*
X047302Y035053D02*
X044885Y035053D01*
X044302Y035053D02*
X041285Y035053D01*
X041249Y035017D02*
X041611Y035379D01*
X041611Y035891D01*
X041249Y036253D01*
X040737Y036253D01*
X040375Y035891D01*
X040375Y035379D01*
X040737Y035017D01*
X041249Y035017D01*
X041383Y035151D02*
X044203Y035151D01*
X044105Y035250D02*
X041482Y035250D01*
X041580Y035348D02*
X044006Y035348D01*
X043975Y035447D02*
X041611Y035447D01*
X041611Y035545D02*
X043975Y035545D01*
X043975Y035644D02*
X041611Y035644D01*
X041611Y035742D02*
X043975Y035742D01*
X043975Y035841D02*
X041611Y035841D01*
X041563Y035939D02*
X044023Y035939D01*
X044122Y036038D02*
X041465Y036038D01*
X041366Y036136D02*
X044220Y036136D01*
X044319Y036235D02*
X041268Y036235D01*
X040719Y036235D02*
X038268Y036235D01*
X038249Y036253D02*
X037737Y036253D01*
X037375Y035891D01*
X037375Y035379D01*
X037737Y035017D01*
X038249Y035017D01*
X038611Y035379D01*
X038611Y035891D01*
X038249Y036253D01*
X038366Y036136D02*
X040620Y036136D01*
X040522Y036038D02*
X038465Y036038D01*
X038563Y035939D02*
X040423Y035939D01*
X040375Y035841D02*
X038611Y035841D01*
X038611Y035742D02*
X040375Y035742D01*
X040375Y035644D02*
X038611Y035644D01*
X038611Y035545D02*
X040375Y035545D01*
X040375Y035447D02*
X038611Y035447D01*
X038580Y035348D02*
X040406Y035348D01*
X040505Y035250D02*
X038482Y035250D01*
X038383Y035151D02*
X040603Y035151D01*
X040702Y035053D02*
X038285Y035053D01*
X037702Y035053D02*
X034685Y035053D01*
X034649Y035017D02*
X035011Y035379D01*
X035011Y035891D01*
X034649Y036253D01*
X034137Y036253D01*
X033775Y035891D01*
X033775Y035379D01*
X034137Y035017D01*
X034649Y035017D01*
X034783Y035151D02*
X037603Y035151D01*
X037505Y035250D02*
X034882Y035250D01*
X034980Y035348D02*
X037406Y035348D01*
X037375Y035447D02*
X035011Y035447D01*
X035011Y035545D02*
X037375Y035545D01*
X037375Y035644D02*
X035011Y035644D01*
X035011Y035742D02*
X037375Y035742D01*
X037375Y035841D02*
X035011Y035841D01*
X034963Y035939D02*
X037423Y035939D01*
X037522Y036038D02*
X034865Y036038D01*
X034766Y036136D02*
X037620Y036136D01*
X037719Y036235D02*
X034668Y036235D01*
X034119Y036235D02*
X031668Y036235D01*
X031766Y036136D02*
X034020Y036136D01*
X033922Y036038D02*
X031865Y036038D01*
X031963Y035939D02*
X033823Y035939D01*
X033775Y035841D02*
X032011Y035841D01*
X032011Y035742D02*
X033775Y035742D01*
X033775Y035644D02*
X032011Y035644D01*
X032011Y035545D02*
X033775Y035545D01*
X033775Y035447D02*
X032011Y035447D01*
X031980Y035348D02*
X033806Y035348D01*
X033905Y035250D02*
X031882Y035250D01*
X031783Y035151D02*
X034003Y035151D01*
X034102Y035053D02*
X031685Y035053D01*
X030905Y035250D02*
X022945Y035250D01*
X022939Y035244D02*
X023144Y035450D01*
X023144Y035740D01*
X022939Y035946D01*
X022648Y035946D01*
X022442Y035740D01*
X022442Y035450D01*
X022648Y035244D01*
X022939Y035244D01*
X023043Y035348D02*
X030806Y035348D01*
X030775Y035447D02*
X023142Y035447D01*
X023144Y035545D02*
X030775Y035545D01*
X030775Y035644D02*
X023144Y035644D01*
X023143Y035742D02*
X030775Y035742D01*
X030775Y035841D02*
X023044Y035841D01*
X022946Y035939D02*
X030823Y035939D01*
X030922Y036038D02*
X017311Y036038D01*
X017409Y036136D02*
X031020Y036136D01*
X031119Y036235D02*
X017506Y036235D01*
X017506Y036233D02*
X017135Y035862D01*
X016611Y035862D01*
X016240Y036233D01*
X016240Y036757D01*
X016611Y037128D01*
X017135Y037128D01*
X017506Y036757D01*
X017506Y036233D01*
X017506Y036333D02*
X055993Y036333D01*
X055993Y036235D02*
X054468Y036235D01*
X054449Y036253D02*
X053937Y036253D01*
X053575Y035891D01*
X053575Y035379D01*
X053937Y035017D01*
X054449Y035017D01*
X054811Y035379D01*
X054811Y035891D01*
X054449Y036253D01*
X054566Y036136D02*
X055993Y036136D01*
X055993Y036038D02*
X054665Y036038D01*
X054763Y035939D02*
X055993Y035939D01*
X055993Y035841D02*
X054811Y035841D01*
X054811Y035742D02*
X055993Y035742D01*
X055993Y035644D02*
X054811Y035644D01*
X054811Y035545D02*
X055993Y035545D01*
X055993Y035447D02*
X054811Y035447D01*
X054780Y035348D02*
X055993Y035348D01*
X055993Y035250D02*
X054682Y035250D01*
X054583Y035151D02*
X055993Y035151D01*
X055993Y035053D02*
X054485Y035053D01*
X053902Y035053D02*
X051485Y035053D01*
X051583Y035151D02*
X053803Y035151D01*
X053705Y035250D02*
X051682Y035250D01*
X051780Y035348D02*
X053606Y035348D01*
X053575Y035447D02*
X051811Y035447D01*
X051811Y035545D02*
X053575Y035545D01*
X053575Y035644D02*
X051811Y035644D01*
X051811Y035742D02*
X053575Y035742D01*
X053575Y035841D02*
X051811Y035841D01*
X051763Y035939D02*
X053623Y035939D01*
X053722Y036038D02*
X051665Y036038D01*
X051566Y036136D02*
X053820Y036136D01*
X053919Y036235D02*
X051468Y036235D01*
X050803Y035151D02*
X047983Y035151D01*
X047885Y035053D02*
X050902Y035053D01*
X048794Y035250D02*
X048082Y035250D01*
X048180Y035348D02*
X048695Y035348D01*
X048682Y035447D02*
X048211Y035447D01*
X048211Y035545D02*
X048682Y035545D01*
X048697Y035644D02*
X048211Y035644D01*
X048211Y035742D02*
X048795Y035742D01*
X052645Y031999D02*
X053641Y031999D01*
X053663Y032021D02*
X053267Y031625D01*
X053267Y031065D01*
X053663Y030669D01*
X054223Y030669D01*
X054619Y031065D01*
X054619Y031625D01*
X054223Y032021D01*
X053663Y032021D01*
X053543Y031901D02*
X052744Y031901D01*
X052842Y031802D02*
X053444Y031802D01*
X053346Y031704D02*
X052941Y031704D01*
X053019Y031605D02*
X053267Y031605D01*
X053267Y031507D02*
X053019Y031507D01*
X053019Y031408D02*
X053267Y031408D01*
X053267Y031310D02*
X053019Y031310D01*
X053019Y031211D02*
X053267Y031211D01*
X053267Y031113D02*
X053019Y031113D01*
X052968Y031014D02*
X053318Y031014D01*
X053417Y030916D02*
X052870Y030916D01*
X052771Y030817D02*
X053515Y030817D01*
X053614Y030719D02*
X052673Y030719D01*
X054273Y030719D02*
X055993Y030719D01*
X055993Y030817D02*
X054371Y030817D01*
X054470Y030916D02*
X055993Y030916D01*
X055993Y031014D02*
X054568Y031014D01*
X054619Y031113D02*
X055993Y031113D01*
X055993Y031211D02*
X054619Y031211D01*
X054619Y031310D02*
X055993Y031310D01*
X055993Y031408D02*
X054619Y031408D01*
X054619Y031507D02*
X055993Y031507D01*
X055993Y031605D02*
X054619Y031605D01*
X054541Y031704D02*
X055993Y031704D01*
X055993Y031802D02*
X054442Y031802D01*
X054344Y031901D02*
X055993Y031901D01*
X055993Y031999D02*
X054245Y031999D01*
X055993Y036432D02*
X017506Y036432D01*
X017506Y036530D02*
X055993Y036530D01*
X055993Y036629D02*
X017506Y036629D01*
X017506Y036727D02*
X055993Y036727D01*
X055993Y036826D02*
X017438Y036826D01*
X017339Y036924D02*
X055931Y036924D01*
X055833Y037023D02*
X017241Y037023D01*
X017142Y037121D02*
X055734Y037121D01*
X055636Y037220D02*
X007751Y037220D01*
X007652Y037121D02*
X014604Y037121D01*
X014611Y037128D02*
X014240Y036757D01*
X014240Y036233D01*
X014611Y035862D01*
X015135Y035862D01*
X015506Y036233D01*
X015506Y036757D01*
X015135Y037128D01*
X014611Y037128D01*
X014506Y037023D02*
X007554Y037023D01*
X007455Y036924D02*
X014407Y036924D01*
X014309Y036826D02*
X007393Y036826D01*
X007393Y036727D02*
X014240Y036727D01*
X014240Y036629D02*
X007393Y036629D01*
X007393Y036530D02*
X014240Y036530D01*
X014240Y036432D02*
X007393Y036432D01*
X007393Y036333D02*
X014240Y036333D01*
X014240Y036235D02*
X007393Y036235D01*
X007393Y036136D02*
X014337Y036136D01*
X014436Y036038D02*
X007393Y036038D01*
X007393Y035939D02*
X014534Y035939D01*
X015212Y035939D02*
X016534Y035939D01*
X016436Y036038D02*
X015311Y036038D01*
X015409Y036136D02*
X016337Y036136D01*
X016240Y036235D02*
X015506Y036235D01*
X015506Y036333D02*
X016240Y036333D01*
X016240Y036432D02*
X015506Y036432D01*
X015506Y036530D02*
X016240Y036530D01*
X016240Y036629D02*
X015506Y036629D01*
X015506Y036727D02*
X016240Y036727D01*
X016309Y036826D02*
X015438Y036826D01*
X015339Y036924D02*
X016407Y036924D01*
X016506Y037023D02*
X015241Y037023D01*
X015142Y037121D02*
X016604Y037121D01*
X017212Y035939D02*
X020641Y035939D01*
X020542Y035841D02*
X007393Y035841D01*
X007393Y035742D02*
X020444Y035742D01*
X020442Y035644D02*
X007393Y035644D01*
X007393Y035545D02*
X020442Y035545D01*
X020445Y035447D02*
X007393Y035447D01*
X018236Y031113D02*
X020171Y031113D01*
X020130Y031211D02*
X018334Y031211D01*
X018356Y031310D02*
X020122Y031310D01*
X020142Y031408D02*
X018356Y031408D01*
X018356Y031507D02*
X020200Y031507D01*
X020351Y031605D02*
X018356Y031605D01*
X020945Y035250D02*
X021642Y035250D01*
X021648Y035244D02*
X021939Y035244D01*
X022144Y035450D01*
X022144Y035740D01*
X021939Y035946D01*
X021648Y035946D01*
X021442Y035740D01*
X021442Y035450D01*
X021648Y035244D01*
X021544Y035348D02*
X021043Y035348D01*
X021142Y035447D02*
X021445Y035447D01*
X021442Y035545D02*
X021144Y035545D01*
X021144Y035644D02*
X021442Y035644D01*
X021444Y035742D02*
X021143Y035742D01*
X021044Y035841D02*
X021542Y035841D01*
X021641Y035939D02*
X020946Y035939D01*
X021946Y035939D02*
X022641Y035939D01*
X022542Y035841D02*
X022044Y035841D01*
X022143Y035742D02*
X022444Y035742D01*
X022442Y035644D02*
X022144Y035644D01*
X022144Y035545D02*
X022442Y035545D01*
X022445Y035447D02*
X022142Y035447D01*
X022043Y035348D02*
X022544Y035348D01*
X022642Y035250D02*
X021945Y035250D01*
X033493Y026089D02*
X035105Y026089D01*
X035008Y025991D02*
X033493Y025991D01*
X033493Y025892D02*
X035008Y025892D01*
X035012Y025794D02*
X033677Y025794D01*
X033776Y025695D02*
X035061Y025695D01*
X035056Y025400D02*
X033680Y025400D01*
X033778Y025498D02*
X033778Y025692D01*
X033493Y025301D02*
X035367Y025301D01*
X035358Y025203D02*
X033493Y025203D01*
X033493Y025104D02*
X035358Y025104D01*
X035450Y025006D02*
X033493Y025006D01*
X033493Y024513D02*
X039179Y024513D01*
X039081Y024415D02*
X033493Y024415D01*
X033493Y024316D02*
X039058Y024316D01*
X039058Y024218D02*
X033493Y024218D01*
X033343Y024119D02*
X030664Y024119D01*
X030631Y024021D02*
X033343Y024021D01*
X033343Y023922D02*
X024443Y023922D01*
X024443Y023824D02*
X033343Y023824D01*
X033343Y023725D02*
X024443Y023725D01*
X024443Y023627D02*
X027113Y023627D01*
X027023Y023528D02*
X024443Y023528D01*
X024443Y023430D02*
X027023Y023430D01*
X027046Y023331D02*
X024443Y023331D01*
X024443Y023233D02*
X027144Y023233D01*
X027343Y023233D02*
X027569Y023233D01*
X027602Y023265D02*
X027473Y023136D01*
X027473Y022954D01*
X027602Y022825D01*
X027785Y022825D01*
X027914Y022954D01*
X027914Y023136D01*
X027785Y023265D01*
X027602Y023265D01*
X027473Y023134D02*
X024443Y023134D01*
X024443Y023036D02*
X027473Y023036D01*
X027490Y022937D02*
X027363Y022937D01*
X027335Y022965D02*
X027152Y022965D01*
X027023Y022836D01*
X027023Y022654D01*
X027152Y022525D01*
X027335Y022525D01*
X027464Y022654D01*
X027464Y022836D01*
X027335Y022965D01*
X027462Y022839D02*
X027588Y022839D01*
X027464Y022740D02*
X031487Y022740D01*
X031473Y022839D02*
X030099Y022839D01*
X030197Y022937D02*
X031474Y022937D01*
X031572Y023036D02*
X030214Y023036D01*
X029888Y022839D02*
X027799Y022839D01*
X027897Y022937D02*
X029790Y022937D01*
X029773Y023036D02*
X027914Y023036D01*
X027914Y023134D02*
X029773Y023134D01*
X029869Y023233D02*
X027818Y023233D01*
X027124Y022937D02*
X024443Y022937D01*
X024443Y022839D02*
X027025Y022839D01*
X027023Y022740D02*
X024443Y022740D01*
X024443Y022642D02*
X027035Y022642D01*
X027134Y022543D02*
X024443Y022543D01*
X024443Y022445D02*
X029023Y022445D01*
X029030Y022543D02*
X027353Y022543D01*
X027452Y022642D02*
X029128Y022642D01*
X029359Y022642D02*
X030978Y022642D01*
X030979Y022248D02*
X029358Y022248D01*
X029129Y022248D02*
X024443Y022248D01*
X024443Y022346D02*
X029031Y022346D01*
X028598Y021361D02*
X024443Y021361D01*
X024443Y021263D02*
X028499Y021263D01*
X028473Y021164D02*
X024443Y021164D01*
X024443Y021066D02*
X028473Y021066D01*
X028435Y020415D02*
X028252Y020415D01*
X028123Y020286D01*
X028123Y020104D01*
X028252Y019975D01*
X028435Y019975D01*
X028564Y020104D01*
X028564Y020286D01*
X028435Y020415D01*
X028474Y020376D02*
X028713Y020376D01*
X028752Y020415D02*
X028623Y020286D01*
X028623Y020104D01*
X028752Y019975D01*
X028935Y019975D01*
X029064Y020104D01*
X029064Y020286D01*
X028935Y020415D01*
X028752Y020415D01*
X028623Y020278D02*
X028564Y020278D01*
X028564Y020179D02*
X028623Y020179D01*
X028646Y020081D02*
X028541Y020081D01*
X028442Y019982D02*
X028745Y019982D01*
X028752Y019915D02*
X028623Y019786D01*
X028623Y019604D01*
X028752Y019475D01*
X028935Y019475D01*
X029064Y019604D01*
X029064Y019786D01*
X028935Y019915D01*
X028752Y019915D01*
X028720Y019884D02*
X028467Y019884D01*
X028435Y019915D02*
X028564Y019786D01*
X028564Y019604D01*
X028435Y019475D01*
X028252Y019475D01*
X028123Y019604D01*
X028123Y019786D01*
X028252Y019915D01*
X028435Y019915D01*
X028564Y019785D02*
X028623Y019785D01*
X028623Y019687D02*
X028564Y019687D01*
X028548Y019588D02*
X028639Y019588D01*
X028737Y019490D02*
X028450Y019490D01*
X028237Y019490D02*
X027409Y019490D01*
X027409Y019588D02*
X028139Y019588D01*
X028123Y019687D02*
X027409Y019687D01*
X027409Y019785D02*
X028123Y019785D01*
X028220Y019884D02*
X027419Y019884D01*
X027493Y019982D02*
X028245Y019982D01*
X028146Y020081D02*
X027517Y020081D01*
X027505Y020179D02*
X028123Y020179D01*
X028123Y020278D02*
X027448Y020278D01*
X027039Y020278D02*
X026373Y020278D01*
X026335Y020315D02*
X026152Y020315D01*
X026023Y020186D01*
X026023Y020004D01*
X026152Y019875D01*
X026335Y019875D01*
X026464Y020004D01*
X026464Y020186D01*
X026335Y020315D01*
X026464Y020179D02*
X026982Y020179D01*
X026970Y020081D02*
X026464Y020081D01*
X026442Y019982D02*
X026994Y019982D01*
X027068Y019884D02*
X026344Y019884D01*
X026143Y019884D02*
X025844Y019884D01*
X025835Y019875D02*
X025964Y020004D01*
X025964Y020186D01*
X025835Y020315D01*
X025652Y020315D01*
X025523Y020186D01*
X025523Y020004D01*
X025652Y019875D01*
X025835Y019875D01*
X025835Y019815D02*
X025652Y019815D01*
X025523Y019686D01*
X025523Y019504D01*
X025652Y019375D01*
X025835Y019375D01*
X025964Y019504D01*
X025964Y019686D01*
X025835Y019815D01*
X025865Y019785D02*
X027078Y019785D01*
X027078Y019687D02*
X025964Y019687D01*
X025964Y019588D02*
X027078Y019588D01*
X027078Y019490D02*
X025950Y019490D01*
X025851Y019391D02*
X027078Y019391D01*
X027078Y019293D02*
X025858Y019293D01*
X025835Y019315D02*
X025652Y019315D01*
X025523Y019186D01*
X025523Y019004D01*
X025652Y018875D01*
X025835Y018875D01*
X025964Y019004D01*
X025964Y019186D01*
X025835Y019315D01*
X025956Y019194D02*
X027078Y019194D01*
X027078Y019096D02*
X025964Y019096D01*
X025957Y018997D02*
X027078Y018997D01*
X027078Y018899D02*
X025859Y018899D01*
X025835Y018815D02*
X025652Y018815D01*
X025523Y018686D01*
X025523Y018504D01*
X025652Y018375D01*
X025835Y018375D01*
X025964Y018504D01*
X025964Y018686D01*
X025835Y018815D01*
X025850Y018800D02*
X026137Y018800D01*
X026152Y018815D02*
X026023Y018686D01*
X026023Y018504D01*
X026152Y018375D01*
X026335Y018375D01*
X026464Y018504D01*
X026464Y018686D01*
X026335Y018815D01*
X026152Y018815D01*
X026038Y018702D02*
X025949Y018702D01*
X025964Y018603D02*
X026023Y018603D01*
X026023Y018505D02*
X025964Y018505D01*
X025866Y018406D02*
X026121Y018406D01*
X026152Y018315D02*
X026023Y018186D01*
X026023Y018004D01*
X026152Y017875D01*
X026335Y017875D01*
X026464Y018004D01*
X026464Y018186D01*
X026335Y018315D01*
X026152Y018315D01*
X026144Y018308D02*
X025843Y018308D01*
X025835Y018315D02*
X025652Y018315D01*
X025523Y018186D01*
X025523Y018004D01*
X025652Y017875D01*
X025835Y017875D01*
X025964Y018004D01*
X025964Y018186D01*
X025835Y018315D01*
X025941Y018209D02*
X026046Y018209D01*
X026023Y018111D02*
X025964Y018111D01*
X025964Y018012D02*
X026023Y018012D01*
X026113Y017914D02*
X025874Y017914D01*
X025835Y017815D02*
X025652Y017815D01*
X025335Y017815D01*
X025152Y017815D01*
X024835Y017815D01*
X024652Y017815D01*
X024443Y017815D01*
X024443Y017717D02*
X024553Y017717D01*
X024523Y017686D02*
X024523Y017504D01*
X024652Y017375D01*
X024835Y017375D01*
X024964Y017504D01*
X024964Y017686D01*
X024835Y017815D01*
X024835Y017875D02*
X024964Y018004D01*
X024964Y018186D01*
X024835Y018315D01*
X024652Y018315D01*
X024523Y018186D01*
X024523Y018004D01*
X024652Y017875D01*
X024835Y017875D01*
X024874Y017914D02*
X025113Y017914D01*
X025152Y017875D02*
X025335Y017875D01*
X025464Y018004D01*
X025464Y018186D01*
X025335Y018315D01*
X025152Y018315D01*
X025023Y018186D01*
X025023Y018004D01*
X025152Y017875D01*
X025152Y017815D02*
X025023Y017686D01*
X025023Y017504D01*
X025152Y017375D01*
X025335Y017375D01*
X025464Y017504D01*
X025464Y017686D01*
X025335Y017815D01*
X025374Y017914D02*
X025613Y017914D01*
X025652Y017815D02*
X025523Y017686D01*
X025523Y017504D01*
X025652Y017375D01*
X025835Y017375D01*
X025964Y017504D01*
X025964Y017686D01*
X025835Y017815D01*
X026152Y017815D01*
X026023Y017686D01*
X026023Y017504D01*
X026152Y017375D01*
X026335Y017375D01*
X026464Y017504D01*
X026464Y017686D01*
X026335Y017815D01*
X027078Y017815D01*
X027078Y017717D02*
X026434Y017717D01*
X026464Y017618D02*
X027078Y017618D01*
X027078Y017520D02*
X026464Y017520D01*
X026381Y017421D02*
X027078Y017421D01*
X027078Y017323D02*
X024443Y017323D01*
X024443Y017421D02*
X024606Y017421D01*
X024652Y017315D02*
X024523Y017186D01*
X024523Y017004D01*
X024652Y016875D01*
X024835Y016875D01*
X024964Y017004D01*
X024964Y017186D01*
X024835Y017315D01*
X024652Y017315D01*
X024561Y017224D02*
X024443Y017224D01*
X024443Y017126D02*
X024523Y017126D01*
X024523Y017027D02*
X024443Y017027D01*
X024443Y016929D02*
X024598Y016929D01*
X024652Y016815D02*
X024523Y016686D01*
X024523Y016504D01*
X024652Y016375D01*
X024835Y016375D01*
X024964Y016504D01*
X024964Y016686D01*
X024835Y016815D01*
X024652Y016815D01*
X024568Y016732D02*
X024443Y016732D01*
X024443Y016830D02*
X027078Y016830D01*
X027078Y016732D02*
X026419Y016732D01*
X026464Y016686D02*
X026335Y016815D01*
X026152Y016815D01*
X026023Y016686D01*
X026023Y016504D01*
X026152Y016375D01*
X026335Y016375D01*
X026464Y016504D01*
X026464Y016686D01*
X026464Y016633D02*
X027078Y016633D01*
X027078Y016535D02*
X026464Y016535D01*
X026396Y016436D02*
X027078Y016436D01*
X027049Y016338D02*
X024443Y016338D01*
X024443Y016436D02*
X024591Y016436D01*
X024523Y016535D02*
X024443Y016535D01*
X024443Y016633D02*
X024523Y016633D01*
X024437Y016239D02*
X026986Y016239D01*
X026970Y016141D02*
X024339Y016141D01*
X024240Y016042D02*
X026990Y016042D01*
X027058Y015944D02*
X024142Y015944D01*
X024896Y016436D02*
X025091Y016436D01*
X025152Y016375D02*
X025335Y016375D01*
X025464Y016504D01*
X025464Y016686D01*
X025335Y016815D01*
X025152Y016815D01*
X025023Y016686D01*
X025023Y016504D01*
X025152Y016375D01*
X025023Y016535D02*
X024964Y016535D01*
X024964Y016633D02*
X025023Y016633D01*
X025068Y016732D02*
X024919Y016732D01*
X024889Y016929D02*
X025098Y016929D01*
X025152Y016875D02*
X025335Y016875D01*
X025464Y017004D01*
X025464Y017186D01*
X025335Y017315D01*
X025152Y017315D01*
X025023Y017186D01*
X025023Y017004D01*
X025152Y016875D01*
X025023Y017027D02*
X024964Y017027D01*
X024964Y017126D02*
X025023Y017126D01*
X025061Y017224D02*
X024926Y017224D01*
X024881Y017421D02*
X025106Y017421D01*
X025023Y017520D02*
X024964Y017520D01*
X024964Y017618D02*
X025023Y017618D01*
X025053Y017717D02*
X024934Y017717D01*
X024964Y018012D02*
X025023Y018012D01*
X025023Y018111D02*
X024964Y018111D01*
X024941Y018209D02*
X025046Y018209D01*
X025144Y018308D02*
X024843Y018308D01*
X024835Y018375D02*
X024964Y018504D01*
X024964Y018686D01*
X024835Y018815D01*
X024652Y018815D01*
X024523Y018686D01*
X024523Y018504D01*
X024652Y018375D01*
X024835Y018375D01*
X024866Y018406D02*
X025121Y018406D01*
X025152Y018375D02*
X025335Y018375D01*
X025464Y018504D01*
X025464Y018686D01*
X025335Y018815D01*
X025152Y018815D01*
X025023Y018686D01*
X025023Y018504D01*
X025152Y018375D01*
X025023Y018505D02*
X024964Y018505D01*
X024964Y018603D02*
X025023Y018603D01*
X025038Y018702D02*
X024949Y018702D01*
X024850Y018800D02*
X025137Y018800D01*
X025152Y018875D02*
X025335Y018875D01*
X025464Y019004D01*
X025464Y019186D01*
X025335Y019315D01*
X025152Y019315D01*
X025023Y019186D01*
X025023Y019004D01*
X025152Y018875D01*
X025128Y018899D02*
X024859Y018899D01*
X024835Y018875D02*
X024964Y019004D01*
X024964Y019186D01*
X024835Y019315D01*
X024652Y019315D01*
X024523Y019186D01*
X024523Y019004D01*
X024652Y018875D01*
X024835Y018875D01*
X024957Y018997D02*
X025030Y018997D01*
X025023Y019096D02*
X024964Y019096D01*
X024956Y019194D02*
X025031Y019194D01*
X025129Y019293D02*
X024858Y019293D01*
X024835Y019375D02*
X024964Y019504D01*
X024964Y019686D01*
X024835Y019815D01*
X024652Y019815D01*
X024523Y019686D01*
X024523Y019504D01*
X024652Y019375D01*
X024835Y019375D01*
X024851Y019391D02*
X025136Y019391D01*
X025152Y019375D02*
X025335Y019375D01*
X025464Y019504D01*
X025464Y019686D01*
X025335Y019815D01*
X025152Y019815D01*
X025023Y019686D01*
X025023Y019504D01*
X025152Y019375D01*
X025037Y019490D02*
X024950Y019490D01*
X024964Y019588D02*
X025023Y019588D01*
X025023Y019687D02*
X024964Y019687D01*
X024865Y019785D02*
X025122Y019785D01*
X025152Y019875D02*
X025335Y019875D01*
X025464Y020004D01*
X025464Y020186D01*
X025335Y020315D01*
X025152Y020315D01*
X025023Y020186D01*
X025023Y020004D01*
X025152Y019875D01*
X025143Y019884D02*
X024844Y019884D01*
X024835Y019875D02*
X024964Y020004D01*
X024964Y020186D01*
X024835Y020315D01*
X024652Y020315D01*
X024523Y020186D01*
X024523Y020004D01*
X024652Y019875D01*
X024835Y019875D01*
X024942Y019982D02*
X025045Y019982D01*
X025023Y020081D02*
X024964Y020081D01*
X024964Y020179D02*
X025023Y020179D01*
X025114Y020278D02*
X024873Y020278D01*
X024614Y020278D02*
X024443Y020278D01*
X024443Y020376D02*
X028213Y020376D01*
X028974Y020376D02*
X029213Y020376D01*
X029123Y020278D02*
X029064Y020278D01*
X029064Y020179D02*
X029123Y020179D01*
X029146Y020081D02*
X029041Y020081D01*
X028942Y019982D02*
X029245Y019982D01*
X029220Y019884D02*
X028967Y019884D01*
X029064Y019785D02*
X029123Y019785D01*
X029123Y019687D02*
X029064Y019687D01*
X029048Y019588D02*
X029139Y019588D01*
X029237Y019490D02*
X028950Y019490D01*
X028243Y018406D02*
X027409Y018406D01*
X027409Y018308D02*
X028144Y018308D01*
X028123Y018209D02*
X027409Y018209D01*
X027409Y018111D02*
X028123Y018111D01*
X027078Y018111D02*
X026464Y018111D01*
X026464Y018012D02*
X027078Y018012D01*
X027078Y017914D02*
X026374Y017914D01*
X026335Y017815D02*
X026152Y017815D01*
X026053Y017717D02*
X025934Y017717D01*
X025964Y017618D02*
X026023Y017618D01*
X026023Y017520D02*
X025964Y017520D01*
X025881Y017421D02*
X026106Y017421D01*
X026152Y017315D02*
X026023Y017186D01*
X026023Y017004D01*
X026152Y016875D01*
X026335Y016875D01*
X026464Y017004D01*
X026464Y017186D01*
X026335Y017315D01*
X026152Y017315D01*
X026061Y017224D02*
X025926Y017224D01*
X025964Y017186D02*
X025835Y017315D01*
X025652Y017315D01*
X025523Y017186D01*
X025523Y017004D01*
X025652Y016875D01*
X025835Y016875D01*
X025964Y017004D01*
X025964Y017186D01*
X025964Y017126D02*
X026023Y017126D01*
X026023Y017027D02*
X025964Y017027D01*
X025889Y016929D02*
X026098Y016929D01*
X026068Y016732D02*
X025919Y016732D01*
X025964Y016686D02*
X025835Y016815D01*
X025652Y016815D01*
X025523Y016686D01*
X025523Y016504D01*
X025652Y016375D01*
X025835Y016375D01*
X025964Y016504D01*
X025964Y016686D01*
X025964Y016633D02*
X026023Y016633D01*
X026023Y016535D02*
X025964Y016535D01*
X025896Y016436D02*
X026091Y016436D01*
X025591Y016436D02*
X025396Y016436D01*
X025464Y016535D02*
X025523Y016535D01*
X025523Y016633D02*
X025464Y016633D01*
X025419Y016732D02*
X025568Y016732D01*
X025598Y016929D02*
X025389Y016929D01*
X025464Y017027D02*
X025523Y017027D01*
X025523Y017126D02*
X025464Y017126D01*
X025426Y017224D02*
X025561Y017224D01*
X025606Y017421D02*
X025381Y017421D01*
X025464Y017520D02*
X025523Y017520D01*
X025523Y017618D02*
X025464Y017618D01*
X025434Y017717D02*
X025553Y017717D01*
X025523Y018012D02*
X025464Y018012D01*
X025464Y018111D02*
X025523Y018111D01*
X025546Y018209D02*
X025441Y018209D01*
X025343Y018308D02*
X025644Y018308D01*
X025621Y018406D02*
X025366Y018406D01*
X025464Y018505D02*
X025523Y018505D01*
X025523Y018603D02*
X025464Y018603D01*
X025449Y018702D02*
X025538Y018702D01*
X025637Y018800D02*
X025350Y018800D01*
X025359Y018899D02*
X025628Y018899D01*
X025530Y018997D02*
X025457Y018997D01*
X025464Y019096D02*
X025523Y019096D01*
X025531Y019194D02*
X025456Y019194D01*
X025358Y019293D02*
X025629Y019293D01*
X025636Y019391D02*
X025351Y019391D01*
X025450Y019490D02*
X025537Y019490D01*
X025523Y019588D02*
X025464Y019588D01*
X025464Y019687D02*
X025523Y019687D01*
X025622Y019785D02*
X025365Y019785D01*
X025344Y019884D02*
X025643Y019884D01*
X025545Y019982D02*
X025442Y019982D01*
X025464Y020081D02*
X025523Y020081D01*
X025523Y020179D02*
X025464Y020179D01*
X025373Y020278D02*
X025614Y020278D01*
X025873Y020278D02*
X026114Y020278D01*
X026023Y020179D02*
X025964Y020179D01*
X025964Y020081D02*
X026023Y020081D01*
X026045Y019982D02*
X025942Y019982D01*
X026350Y018800D02*
X027078Y018800D01*
X027078Y018702D02*
X026449Y018702D01*
X026464Y018603D02*
X027078Y018603D01*
X027078Y018505D02*
X026464Y018505D01*
X026366Y018406D02*
X027078Y018406D01*
X027078Y018308D02*
X026343Y018308D01*
X026441Y018209D02*
X027078Y018209D01*
X027078Y017224D02*
X026426Y017224D01*
X026464Y017126D02*
X027078Y017126D01*
X027078Y017027D02*
X026464Y017027D01*
X026389Y016929D02*
X027078Y016929D01*
X024652Y017815D02*
X024523Y017686D01*
X024523Y017618D02*
X024443Y017618D01*
X024443Y017520D02*
X024523Y017520D01*
X024443Y017914D02*
X024613Y017914D01*
X024523Y018012D02*
X024443Y018012D01*
X024443Y018111D02*
X024523Y018111D01*
X024546Y018209D02*
X024443Y018209D01*
X024443Y018308D02*
X024644Y018308D01*
X024621Y018406D02*
X024443Y018406D01*
X024443Y018505D02*
X024523Y018505D01*
X024523Y018603D02*
X024443Y018603D01*
X024443Y018702D02*
X024538Y018702D01*
X024443Y018800D02*
X024637Y018800D01*
X024628Y018899D02*
X024443Y018899D01*
X024443Y018997D02*
X024530Y018997D01*
X024523Y019096D02*
X024443Y019096D01*
X024443Y019194D02*
X024531Y019194D01*
X024443Y019293D02*
X024629Y019293D01*
X024636Y019391D02*
X024443Y019391D01*
X024443Y019490D02*
X024537Y019490D01*
X024523Y019588D02*
X024443Y019588D01*
X024443Y019687D02*
X024523Y019687D01*
X024443Y019785D02*
X024622Y019785D01*
X024643Y019884D02*
X024443Y019884D01*
X024443Y019982D02*
X024545Y019982D01*
X024523Y020081D02*
X024443Y020081D01*
X024443Y020179D02*
X024523Y020179D01*
X030574Y023627D02*
X033343Y023627D01*
X032869Y023233D02*
X032464Y023233D01*
X032394Y023134D02*
X032823Y023134D01*
X032823Y023036D02*
X031815Y023036D01*
X031913Y022937D02*
X032890Y022937D01*
X031584Y022248D02*
X031208Y022248D01*
X035382Y026089D02*
X035455Y026089D01*
X036442Y027961D02*
X036445Y027961D01*
X036742Y027961D02*
X036745Y027961D01*
X036724Y028847D02*
X036763Y028847D01*
X036463Y028847D02*
X036424Y028847D01*
X035718Y028552D02*
X035682Y028552D01*
X035665Y028256D02*
X035700Y028256D01*
X041198Y020376D02*
X051493Y020376D01*
X051493Y020278D02*
X041198Y020278D01*
X041198Y020179D02*
X051493Y020179D01*
X051493Y020081D02*
X041198Y020081D01*
X041198Y019982D02*
X051493Y019982D01*
X051493Y019884D02*
X041198Y019884D01*
X041198Y019785D02*
X051493Y019785D01*
X051493Y019687D02*
X041198Y019687D01*
X041198Y019588D02*
X051493Y019588D01*
X051493Y019490D02*
X041198Y019490D01*
X041198Y019391D02*
X051493Y019391D01*
X051493Y019293D02*
X041198Y019293D01*
X041198Y019194D02*
X051493Y019194D01*
X051493Y019096D02*
X041198Y019096D01*
X041198Y018997D02*
X051493Y018997D01*
X051493Y018899D02*
X041198Y018899D01*
X041198Y018800D02*
X051493Y018800D01*
X051493Y018702D02*
X041198Y018702D01*
X041141Y018603D02*
X051493Y018603D01*
X051493Y018505D02*
X039885Y018505D01*
X041031Y013628D02*
X040660Y013257D01*
X040660Y012733D01*
X041031Y012362D01*
X041555Y012362D01*
X041926Y012733D01*
X041926Y013257D01*
X041555Y013628D01*
X041031Y013628D01*
X040983Y013580D02*
X034104Y013580D01*
X034202Y013481D02*
X040884Y013481D01*
X040786Y013383D02*
X034301Y013383D01*
X034399Y013284D02*
X040687Y013284D01*
X040660Y013186D02*
X034426Y013186D01*
X034426Y013087D02*
X040660Y013087D01*
X040660Y012989D02*
X034426Y012989D01*
X034426Y012890D02*
X040660Y012890D01*
X040660Y012792D02*
X034426Y012792D01*
X034386Y012693D02*
X040700Y012693D01*
X040799Y012595D02*
X034288Y012595D01*
X034189Y012496D02*
X040897Y012496D01*
X040996Y012398D02*
X034091Y012398D01*
X030823Y009246D02*
X052943Y009246D01*
X052943Y009344D02*
X030724Y009344D01*
X030904Y009147D02*
X052888Y009147D01*
X052790Y009049D02*
X052136Y009049D01*
X052235Y008950D02*
X052691Y008950D01*
X052593Y008852D02*
X052333Y008852D01*
X052432Y008753D02*
X052494Y008753D01*
X051403Y009049D02*
X030904Y009049D01*
X030904Y008950D02*
X051305Y008950D01*
X051206Y008852D02*
X047899Y008852D01*
X047964Y008753D02*
X049659Y008753D01*
X049560Y008655D02*
X047964Y008655D01*
X047918Y008556D02*
X049462Y008556D01*
X050337Y008753D02*
X051108Y008753D01*
X051022Y008655D02*
X050436Y008655D01*
X050534Y008556D02*
X051022Y008556D01*
X052153Y009837D02*
X052943Y009837D01*
X052943Y009935D02*
X052252Y009935D01*
X052350Y010034D02*
X052943Y010034D01*
X052943Y010132D02*
X052449Y010132D01*
X052547Y010231D02*
X052943Y010231D01*
X052943Y010329D02*
X052646Y010329D01*
X052665Y010428D02*
X052943Y010428D01*
X052943Y010526D02*
X052665Y010526D01*
X052665Y010625D02*
X052943Y010625D01*
X052943Y010723D02*
X052665Y010723D01*
X052665Y010822D02*
X052943Y010822D01*
X052943Y010920D02*
X052665Y010920D01*
X052665Y011019D02*
X052943Y011019D01*
X052943Y011117D02*
X052639Y011117D01*
X052540Y011216D02*
X052943Y011216D01*
X052943Y011314D02*
X052442Y011314D01*
X052343Y011413D02*
X052943Y011413D01*
X052943Y011511D02*
X052245Y011511D01*
X052943Y012201D02*
X049765Y012201D01*
X049741Y012176D02*
X050162Y012597D01*
X050162Y013193D01*
X049741Y013614D01*
X049146Y013614D01*
X048725Y013193D01*
X048725Y012597D01*
X049146Y012176D01*
X049741Y012176D01*
X049863Y012299D02*
X052943Y012299D01*
X052943Y012398D02*
X049962Y012398D01*
X050060Y012496D02*
X052943Y012496D01*
X052943Y012595D02*
X050159Y012595D01*
X050162Y012693D02*
X052943Y012693D01*
X052943Y012792D02*
X050162Y012792D01*
X050162Y012890D02*
X052943Y012890D01*
X052943Y012989D02*
X050162Y012989D01*
X050162Y013087D02*
X055993Y013087D01*
X055993Y013186D02*
X050162Y013186D01*
X050070Y013284D02*
X055993Y013284D01*
X055993Y013383D02*
X049972Y013383D01*
X049873Y013481D02*
X055993Y013481D01*
X055993Y013580D02*
X049775Y013580D01*
X049112Y013580D02*
X046825Y013580D01*
X046923Y013481D02*
X049013Y013481D01*
X048915Y013383D02*
X047022Y013383D01*
X047120Y013284D02*
X048816Y013284D01*
X048725Y013186D02*
X047212Y013186D01*
X047212Y013087D02*
X048725Y013087D01*
X048725Y012989D02*
X047212Y012989D01*
X047212Y012890D02*
X048725Y012890D01*
X048725Y012792D02*
X047212Y012792D01*
X047212Y012693D02*
X048725Y012693D01*
X048728Y012595D02*
X047209Y012595D01*
X047110Y012496D02*
X048826Y012496D01*
X048925Y012398D02*
X047012Y012398D01*
X046913Y012299D02*
X049023Y012299D01*
X049122Y012201D02*
X046815Y012201D01*
X045975Y012398D02*
X041591Y012398D01*
X041689Y012496D02*
X045876Y012496D01*
X045778Y012595D02*
X041788Y012595D01*
X041886Y012693D02*
X045775Y012693D01*
X045775Y012792D02*
X041926Y012792D01*
X041926Y012890D02*
X045775Y012890D01*
X045775Y012989D02*
X041926Y012989D01*
X041926Y013087D02*
X045775Y013087D01*
X045775Y013186D02*
X041926Y013186D01*
X041899Y013284D02*
X045866Y013284D01*
X045965Y013383D02*
X041801Y013383D01*
X041702Y013481D02*
X046063Y013481D01*
X046162Y013580D02*
X041604Y013580D01*
X045688Y008852D02*
X030904Y008852D01*
X030831Y008753D02*
X045623Y008753D01*
X045623Y008655D02*
X030733Y008655D01*
X027998Y008753D02*
X027489Y008753D01*
X027415Y008680D02*
X027659Y008923D01*
X027659Y009267D01*
X027415Y009510D01*
X027071Y009510D01*
X026828Y009267D01*
X026828Y008923D01*
X027071Y008680D01*
X027415Y008680D01*
X027587Y008852D02*
X027899Y008852D01*
X027828Y008950D02*
X027659Y008950D01*
X027659Y009049D02*
X027828Y009049D01*
X027828Y009147D02*
X027659Y009147D01*
X027659Y009246D02*
X027828Y009246D01*
X027905Y009344D02*
X027582Y009344D01*
X027483Y009443D02*
X028003Y009443D01*
X028013Y009738D02*
X027474Y009738D01*
X027415Y009680D02*
X027659Y009923D01*
X027659Y010267D01*
X027415Y010510D01*
X027071Y010510D01*
X026828Y010267D01*
X026828Y009923D01*
X027071Y009680D01*
X027415Y009680D01*
X027572Y009837D02*
X027914Y009837D01*
X027828Y009935D02*
X027659Y009935D01*
X027659Y010034D02*
X027828Y010034D01*
X027828Y010132D02*
X027659Y010132D01*
X027659Y010231D02*
X027828Y010231D01*
X027890Y010329D02*
X027597Y010329D01*
X027498Y010428D02*
X027988Y010428D01*
X026988Y010428D02*
X026498Y010428D01*
X026597Y010329D02*
X026890Y010329D01*
X026828Y010231D02*
X026659Y010231D01*
X026659Y010132D02*
X026828Y010132D01*
X026828Y010034D02*
X026659Y010034D01*
X026659Y009935D02*
X026828Y009935D01*
X026914Y009837D02*
X026572Y009837D01*
X026474Y009738D02*
X027013Y009738D01*
X027003Y009443D02*
X026483Y009443D01*
X026415Y009510D02*
X026659Y009267D01*
X026659Y008923D01*
X026415Y008680D01*
X026071Y008680D01*
X025828Y008923D01*
X025828Y009267D01*
X026071Y009510D01*
X026415Y009510D01*
X026582Y009344D02*
X026905Y009344D01*
X026828Y009246D02*
X026659Y009246D01*
X026659Y009147D02*
X026828Y009147D01*
X026828Y009049D02*
X026659Y009049D01*
X026659Y008950D02*
X026828Y008950D01*
X026899Y008852D02*
X026587Y008852D01*
X026489Y008753D02*
X026998Y008753D01*
X025998Y008753D02*
X025489Y008753D01*
X025415Y008680D02*
X025659Y008923D01*
X025659Y009267D01*
X025415Y009510D01*
X025071Y009510D01*
X024828Y009267D01*
X024828Y008923D01*
X025071Y008680D01*
X025415Y008680D01*
X025587Y008852D02*
X025899Y008852D01*
X025828Y008950D02*
X025659Y008950D01*
X025659Y009049D02*
X025828Y009049D01*
X025828Y009147D02*
X025659Y009147D01*
X025659Y009246D02*
X025828Y009246D01*
X025905Y009344D02*
X025582Y009344D01*
X025483Y009443D02*
X026003Y009443D01*
X026013Y009738D02*
X025474Y009738D01*
X025415Y009680D02*
X025659Y009923D01*
X025659Y010267D01*
X025415Y010510D01*
X025071Y010510D01*
X024828Y010267D01*
X024828Y009923D01*
X025071Y009680D01*
X025415Y009680D01*
X025572Y009837D02*
X025914Y009837D01*
X025828Y009935D02*
X025659Y009935D01*
X025659Y010034D02*
X025828Y010034D01*
X025828Y010132D02*
X025659Y010132D01*
X025659Y010231D02*
X025828Y010231D01*
X025890Y010329D02*
X025597Y010329D01*
X025498Y010428D02*
X025988Y010428D01*
X024988Y010428D02*
X024498Y010428D01*
X024597Y010329D02*
X024890Y010329D01*
X024828Y010231D02*
X024659Y010231D01*
X024659Y010132D02*
X024828Y010132D01*
X024828Y010034D02*
X024659Y010034D01*
X024659Y009935D02*
X024828Y009935D01*
X024914Y009837D02*
X024572Y009837D01*
X024474Y009738D02*
X025013Y009738D01*
X025003Y009443D02*
X024483Y009443D01*
X024582Y009344D02*
X024905Y009344D01*
X024828Y009246D02*
X024659Y009246D01*
X024659Y009147D02*
X024828Y009147D01*
X024828Y009049D02*
X024659Y009049D01*
X024659Y008950D02*
X024828Y008950D01*
X024899Y008852D02*
X024587Y008852D01*
X024489Y008753D02*
X024998Y008753D01*
X022906Y008458D02*
X016943Y008458D01*
X016943Y008556D02*
X045669Y008556D01*
X046016Y008556D02*
X046621Y008556D01*
X046573Y008655D02*
X046064Y008655D01*
X046064Y008753D02*
X046573Y008753D01*
X046638Y008852D02*
X045999Y008852D01*
X046949Y008852D02*
X047588Y008852D01*
X047523Y008753D02*
X047014Y008753D01*
X047014Y008655D02*
X047523Y008655D01*
X047571Y008556D02*
X046966Y008556D01*
X055993Y013678D02*
X021876Y013678D01*
X021163Y008359D02*
X022807Y008359D01*
X022709Y008261D02*
X021262Y008261D01*
X021360Y008162D02*
X022610Y008162D01*
X022512Y008064D02*
X021459Y008064D01*
X021461Y007965D02*
X022413Y007965D01*
X022315Y007867D02*
X021461Y007867D01*
X021461Y007768D02*
X022216Y007768D01*
X022118Y007670D02*
X021461Y007670D01*
X021461Y007571D02*
X022019Y007571D01*
X021921Y007473D02*
X021385Y007473D01*
X021286Y007374D02*
X021822Y007374D01*
X021724Y007276D02*
X021188Y007276D01*
X020499Y007276D02*
X018188Y007276D01*
X018286Y007374D02*
X020400Y007374D01*
X020302Y007473D02*
X018385Y007473D01*
X018461Y007571D02*
X020225Y007571D01*
X020225Y007670D02*
X018461Y007670D01*
X018461Y007768D02*
X020225Y007768D01*
X020225Y007867D02*
X018461Y007867D01*
X018461Y007965D02*
X020225Y007965D01*
X020228Y008064D02*
X018459Y008064D01*
X018360Y008162D02*
X020326Y008162D01*
X020425Y008261D02*
X018262Y008261D01*
X018163Y008359D02*
X020523Y008359D01*
X017523Y008359D02*
X016943Y008359D01*
X016943Y008261D02*
X017425Y008261D01*
X017326Y008162D02*
X016943Y008162D01*
X016943Y008064D02*
X017228Y008064D01*
X017225Y007965D02*
X016943Y007965D01*
X016943Y007867D02*
X017225Y007867D01*
X017225Y007768D02*
X016943Y007768D01*
X016943Y007670D02*
X017225Y007670D01*
X017225Y007571D02*
X016943Y007571D01*
X016943Y007473D02*
X017302Y007473D01*
X017400Y007374D02*
X016943Y007374D01*
X016943Y007276D02*
X017499Y007276D01*
D23*
X020893Y011295D03*
X021843Y012095D03*
X022793Y012095D03*
X024743Y016595D03*
X024743Y017095D03*
X024743Y017595D03*
X024743Y018095D03*
X024743Y018595D03*
X024743Y019095D03*
X024743Y019595D03*
X024743Y020095D03*
X025243Y020095D03*
X025243Y019595D03*
X025243Y019095D03*
X025243Y018595D03*
X025243Y018095D03*
X025243Y017595D03*
X025243Y017095D03*
X025243Y016595D03*
X025743Y016595D03*
X025743Y017095D03*
X025743Y017595D03*
X025743Y018095D03*
X025743Y018595D03*
X025743Y019095D03*
X025743Y019595D03*
X025743Y020095D03*
X026243Y020095D03*
X026243Y018595D03*
X026243Y018095D03*
X026243Y017595D03*
X026243Y017095D03*
X026243Y016595D03*
X028343Y016595D03*
X028343Y017095D03*
X028843Y017095D03*
X028843Y016595D03*
X029343Y016595D03*
X029343Y017095D03*
X029343Y017595D03*
X029843Y017595D03*
X029843Y017095D03*
X029843Y016595D03*
X030343Y016595D03*
X030343Y017095D03*
X030343Y017595D03*
X030343Y018195D03*
X029993Y018395D03*
X029843Y018195D03*
X029343Y018195D03*
X028843Y018195D03*
X028343Y018195D03*
X028343Y019695D03*
X028343Y020195D03*
X028843Y020195D03*
X028843Y019695D03*
X029343Y019695D03*
X029343Y020195D03*
X029843Y020195D03*
X029843Y019695D03*
X029843Y019195D03*
X030343Y019195D03*
X030343Y018695D03*
X030343Y019695D03*
X030343Y020195D03*
X028693Y021145D03*
X029243Y022445D03*
X029993Y023045D03*
X030443Y023445D03*
X030443Y024145D03*
X029993Y024545D03*
X029493Y025495D03*
X029893Y026045D03*
X030293Y026495D03*
X029793Y026845D03*
X030393Y027345D03*
X031893Y027345D03*
X031993Y026545D03*
X031543Y025995D03*
X031243Y025195D03*
X030743Y025995D03*
X028593Y025495D03*
X028193Y026045D03*
X028293Y026845D03*
X026943Y027195D03*
X026543Y026745D03*
X025843Y026745D03*
X025443Y027195D03*
X026993Y028245D03*
X027443Y028445D03*
X026893Y029295D03*
X026493Y029745D03*
X025793Y029745D03*
X025393Y029295D03*
X023743Y030295D03*
X023193Y030295D03*
X022743Y030695D03*
X023193Y029595D03*
X022743Y029195D03*
X020793Y027845D03*
X020693Y027195D03*
X019143Y029845D03*
X015643Y027995D03*
X014843Y028095D03*
X014293Y027695D03*
X014293Y026795D03*
X014843Y026395D03*
X015643Y026495D03*
X018093Y023895D03*
X018093Y023495D03*
X018093Y023095D03*
X018493Y023095D03*
X018493Y023495D03*
X018493Y023895D03*
X014193Y019695D03*
X013093Y021045D03*
X012443Y027945D03*
X010693Y028845D03*
X010343Y027945D03*
X010093Y029795D03*
X009593Y030045D03*
X011293Y029795D03*
X012093Y029795D03*
X014893Y028945D03*
X025793Y021945D03*
X027243Y022745D03*
X027693Y023045D03*
X027243Y023445D03*
X027243Y024145D03*
X027693Y024545D03*
X031093Y022445D03*
X031693Y022045D03*
X032193Y021595D03*
X033043Y021595D03*
X033043Y020495D03*
X032243Y020495D03*
X031693Y022845D03*
X032243Y023295D03*
X033043Y023095D03*
X033043Y024395D03*
X033543Y025595D03*
X035243Y025545D03*
X035243Y025895D03*
X035593Y025895D03*
X035593Y025545D03*
X035593Y025195D03*
X037693Y027195D03*
X037693Y027695D03*
X037693Y028195D03*
X037293Y028145D03*
X037293Y028695D03*
X037693Y028695D03*
X037693Y029195D03*
X037693Y029695D03*
X037693Y030195D03*
X037693Y030695D03*
X038193Y030695D03*
X038193Y030195D03*
X038193Y029695D03*
X038193Y029195D03*
X038193Y028695D03*
X038193Y028195D03*
X038193Y027695D03*
X038193Y027195D03*
X038693Y027195D03*
X038693Y026695D03*
X038693Y026195D03*
X039193Y026195D03*
X039193Y026695D03*
X039193Y027195D03*
X039193Y027695D03*
X038693Y027695D03*
X038693Y028195D03*
X038693Y028695D03*
X038693Y029195D03*
X038693Y029695D03*
X038693Y030195D03*
X038693Y030695D03*
X039193Y030695D03*
X039193Y030195D03*
X039193Y029695D03*
X039193Y029195D03*
X039193Y028695D03*
X039193Y028195D03*
X039793Y028195D03*
X039793Y027695D03*
X039793Y027195D03*
X039793Y026695D03*
X039793Y026195D03*
X040293Y026195D03*
X040293Y026695D03*
X040293Y027195D03*
X040293Y027695D03*
X040293Y028195D03*
X040293Y028695D03*
X039793Y028695D03*
X039793Y029195D03*
X039793Y029695D03*
X039793Y030195D03*
X039793Y030695D03*
X040293Y030695D03*
X040293Y030195D03*
X040293Y029695D03*
X040293Y029195D03*
X040793Y029195D03*
X040793Y028695D03*
X040793Y028195D03*
X040793Y027695D03*
X040793Y027195D03*
X040793Y026695D03*
X040793Y026195D03*
X041293Y026195D03*
X041293Y026695D03*
X041293Y027195D03*
X041293Y027695D03*
X041293Y028195D03*
X041293Y028695D03*
X041293Y029195D03*
X041293Y029695D03*
X040793Y029695D03*
X040793Y030195D03*
X040793Y030695D03*
X041293Y030695D03*
X041293Y030195D03*
X044643Y031345D03*
X045293Y030695D03*
X045293Y030195D03*
X045293Y029695D03*
X045293Y029195D03*
X045293Y028695D03*
X045293Y028195D03*
X045293Y027695D03*
X045293Y027195D03*
X045293Y026695D03*
X045293Y026195D03*
X044793Y026195D03*
X044293Y026195D03*
X043793Y026195D03*
X043293Y026195D03*
X042793Y026195D03*
X042293Y026195D03*
X041793Y026195D03*
X042243Y025395D03*
X044093Y024295D03*
X043993Y023895D03*
X042543Y023595D03*
X042543Y022795D03*
X043993Y022495D03*
X044293Y022145D03*
X044793Y021845D03*
X045243Y021845D03*
X044743Y021345D03*
X044793Y020395D03*
X045293Y020395D03*
X045793Y020395D03*
X046293Y020395D03*
X046293Y020895D03*
X046793Y020895D03*
X046793Y020395D03*
X047293Y020395D03*
X047293Y020895D03*
X047293Y021395D03*
X046793Y021395D03*
X047293Y021895D03*
X047793Y021895D03*
X047793Y021395D03*
X047793Y020895D03*
X047793Y020395D03*
X048293Y020395D03*
X048293Y020895D03*
X048293Y021395D03*
X048293Y021895D03*
X048293Y022395D03*
X047793Y022395D03*
X048293Y022895D03*
X048293Y023395D03*
X048793Y023395D03*
X048793Y022895D03*
X048793Y022395D03*
X048793Y021895D03*
X048793Y021395D03*
X048793Y020895D03*
X048793Y020395D03*
X049293Y020395D03*
X049293Y020895D03*
X049293Y021395D03*
X049293Y021895D03*
X049293Y022395D03*
X049293Y022895D03*
X049293Y023395D03*
X049293Y023895D03*
X048793Y023895D03*
X049793Y023895D03*
X049793Y023395D03*
X049793Y022895D03*
X049793Y022395D03*
X049793Y021895D03*
X049793Y021395D03*
X049793Y020895D03*
X049793Y020395D03*
X050293Y020395D03*
X050293Y020895D03*
X050293Y021395D03*
X050293Y021895D03*
X050293Y022395D03*
X050293Y022895D03*
X050293Y023395D03*
X050293Y023895D03*
X050793Y023895D03*
X050793Y023395D03*
X050793Y022895D03*
X050793Y022395D03*
X050793Y021895D03*
X050793Y021395D03*
X050793Y020895D03*
X050793Y020395D03*
X051293Y020395D03*
X051293Y020895D03*
X051293Y021395D03*
X051293Y021895D03*
X051293Y022395D03*
X051293Y022895D03*
X051293Y023395D03*
X051293Y023895D03*
X047893Y025045D03*
X047293Y025645D03*
X046143Y025645D03*
X045793Y026195D03*
X045793Y026695D03*
X045793Y027195D03*
X045793Y027695D03*
X045793Y028195D03*
X045793Y028695D03*
X045793Y029195D03*
X045793Y029695D03*
X045793Y030195D03*
X045793Y030695D03*
X049493Y032995D03*
X044793Y025195D03*
X045693Y025045D03*
X045793Y024145D03*
X047193Y024145D03*
X043593Y020645D03*
X044293Y019895D03*
X044293Y019395D03*
X044293Y018895D03*
X044293Y018395D03*
X043793Y018395D03*
X043793Y017895D03*
X043793Y017395D03*
X043793Y016895D03*
X043793Y016395D03*
X043793Y015895D03*
X043793Y015395D03*
X043793Y014895D03*
X043793Y014395D03*
X044293Y014395D03*
X044293Y014895D03*
X044293Y015395D03*
X044293Y015895D03*
X044293Y016395D03*
X044293Y016895D03*
X044293Y017395D03*
X044293Y017895D03*
X044793Y015395D03*
X044793Y014895D03*
X044793Y014395D03*
X045293Y014895D03*
X045293Y015395D03*
X045793Y015395D03*
X045793Y014895D03*
X045793Y014395D03*
X046293Y014395D03*
X046293Y014895D03*
X046293Y015395D03*
X046793Y015395D03*
X046793Y014895D03*
X046793Y014395D03*
X047293Y014395D03*
X047293Y014895D03*
X047293Y015395D03*
X047793Y015395D03*
X047793Y014895D03*
X047793Y014395D03*
X048293Y014395D03*
X048293Y014895D03*
X048293Y015395D03*
X048793Y015395D03*
X048793Y014895D03*
X048793Y014395D03*
X049293Y014395D03*
X049293Y014895D03*
X049293Y015395D03*
X049293Y015895D03*
X048793Y015895D03*
X048793Y016395D03*
X048793Y016895D03*
X048793Y017395D03*
X048793Y017895D03*
X048793Y018395D03*
X048793Y018895D03*
X048793Y019395D03*
X048793Y019895D03*
X049293Y019895D03*
X049293Y019395D03*
X049293Y018895D03*
X049293Y018395D03*
X049293Y017895D03*
X049293Y017395D03*
X049293Y016895D03*
X049293Y016395D03*
X049793Y016395D03*
X049793Y015895D03*
X049793Y015395D03*
X049793Y014895D03*
X049793Y014395D03*
X050293Y014395D03*
X050293Y014895D03*
X050293Y015395D03*
X050293Y015895D03*
X050293Y016395D03*
X050293Y016895D03*
X049793Y016895D03*
X049793Y017395D03*
X049793Y017895D03*
X049793Y018395D03*
X049793Y018895D03*
X049793Y019395D03*
X049793Y019895D03*
X050293Y019895D03*
X050293Y019395D03*
X050293Y018895D03*
X050293Y018395D03*
X050293Y017895D03*
X050293Y017395D03*
X050793Y017395D03*
X050793Y016895D03*
X050793Y016395D03*
X050793Y015895D03*
X050793Y015395D03*
X050793Y014895D03*
X050793Y014395D03*
X051293Y014895D03*
X051293Y015395D03*
X051293Y015895D03*
X051293Y016395D03*
X051293Y016895D03*
X051293Y017395D03*
X051293Y017895D03*
X050793Y017895D03*
X050793Y018395D03*
X050793Y018895D03*
X050793Y019395D03*
X050793Y019895D03*
X051293Y019895D03*
X051293Y019395D03*
X051293Y018895D03*
X051293Y018395D03*
X042543Y021395D03*
X040143Y021795D03*
X039843Y020995D03*
X039443Y021795D03*
X038693Y022095D03*
X038193Y022445D03*
X037393Y023095D03*
X038193Y023295D03*
X039293Y024295D03*
X040043Y025395D03*
X039843Y022695D03*
X038743Y020995D03*
X039743Y018695D03*
X040143Y018745D03*
X040793Y018745D03*
X035493Y028095D03*
X035893Y028395D03*
X035493Y028695D03*
X035393Y029145D03*
X034993Y029145D03*
X034993Y029545D03*
X035393Y029545D03*
X035393Y029995D03*
X034993Y029995D03*
X034993Y030395D03*
X035393Y030395D03*
X035393Y030795D03*
X034043Y030845D03*
X033543Y030345D03*
X033043Y030845D03*
X033493Y031295D03*
X033043Y031845D03*
X032543Y031345D03*
X032043Y030545D03*
X030593Y030095D03*
X030393Y029495D03*
X030693Y028695D03*
X031843Y028045D03*
X036793Y030195D03*
X036793Y030695D03*
X016143Y014045D03*
X045843Y008695D03*
X046793Y008695D03*
X047743Y008695D03*
D24*
X026343Y006745D03*
X025243Y006745D03*
X019443Y015045D03*
X018593Y015045D03*
X010493Y021795D03*
X010293Y021095D03*
X014293Y024445D03*
X014293Y025245D03*
X015593Y024645D03*
X016293Y024645D03*
X016043Y023745D03*
X015043Y023745D03*
X017543Y025895D03*
X019043Y026245D03*
X019043Y027195D03*
X018043Y028095D03*
X020693Y026295D03*
X025443Y027595D03*
D25*
X025143Y027295D01*
X025143Y026895D01*
X024543Y026295D01*
X020693Y026295D01*
X019043Y026245D02*
X019043Y027195D01*
X018043Y026395D02*
X018043Y028095D01*
X018043Y026395D02*
X017543Y025895D01*
X016293Y024645D02*
X015593Y024645D01*
X016043Y023745D02*
X015043Y023745D01*
X014293Y024445D02*
X014293Y025245D01*
X010493Y021795D02*
X010293Y021595D01*
X010293Y021095D01*
X025243Y006745D02*
X026343Y006745D01*
X037593Y025995D02*
X037593Y030995D01*
X045993Y030995D01*
X045993Y025995D01*
X037593Y025995D01*
X037593Y026026D02*
X045993Y026026D01*
X045993Y026074D02*
X037593Y026074D01*
X037593Y026123D02*
X045993Y026123D01*
X045993Y026171D02*
X037593Y026171D01*
X037593Y026220D02*
X045993Y026220D01*
X045993Y026268D02*
X037593Y026268D01*
X037593Y026317D02*
X045993Y026317D01*
X045993Y026365D02*
X037593Y026365D01*
X037593Y026414D02*
X045993Y026414D01*
X045993Y026462D02*
X037593Y026462D01*
X037593Y026511D02*
X045993Y026511D01*
X045993Y026559D02*
X037593Y026559D01*
X037593Y026608D02*
X045993Y026608D01*
X045993Y026656D02*
X037593Y026656D01*
X037593Y026705D02*
X045993Y026705D01*
X045993Y026753D02*
X037593Y026753D01*
X037593Y026802D02*
X045993Y026802D01*
X045993Y026850D02*
X037593Y026850D01*
X037593Y026899D02*
X045993Y026899D01*
X045993Y026947D02*
X037593Y026947D01*
X037593Y026996D02*
X045993Y026996D01*
X045993Y027044D02*
X037593Y027044D01*
X037593Y027093D02*
X045993Y027093D01*
X045993Y027141D02*
X037593Y027141D01*
X037593Y027190D02*
X045993Y027190D01*
X045993Y027238D02*
X037593Y027238D01*
X037593Y027287D02*
X045993Y027287D01*
X045993Y027335D02*
X037593Y027335D01*
X037593Y027384D02*
X045993Y027384D01*
X045993Y027432D02*
X037593Y027432D01*
X037593Y027481D02*
X045993Y027481D01*
X045993Y027529D02*
X037593Y027529D01*
X037593Y027578D02*
X045993Y027578D01*
X045993Y027626D02*
X037593Y027626D01*
X037593Y027675D02*
X045993Y027675D01*
X045993Y027723D02*
X037593Y027723D01*
X037593Y027772D02*
X045993Y027772D01*
X045993Y027820D02*
X037593Y027820D01*
X037593Y027869D02*
X045993Y027869D01*
X045993Y027917D02*
X037593Y027917D01*
X037593Y027966D02*
X045993Y027966D01*
X045993Y028014D02*
X037593Y028014D01*
X037593Y028063D02*
X045993Y028063D01*
X045993Y028111D02*
X037593Y028111D01*
X037593Y028160D02*
X045993Y028160D01*
X045993Y028208D02*
X037593Y028208D01*
X037593Y028257D02*
X045993Y028257D01*
X045993Y028305D02*
X037593Y028305D01*
X037593Y028354D02*
X045993Y028354D01*
X045993Y028402D02*
X037593Y028402D01*
X037593Y028451D02*
X045993Y028451D01*
X045993Y028499D02*
X037593Y028499D01*
X037593Y028548D02*
X045993Y028548D01*
X045993Y028596D02*
X037593Y028596D01*
X037593Y028645D02*
X045993Y028645D01*
X045993Y028693D02*
X037593Y028693D01*
X037593Y028742D02*
X045993Y028742D01*
X045993Y028790D02*
X037593Y028790D01*
X037593Y028839D02*
X045993Y028839D01*
X045993Y028887D02*
X037593Y028887D01*
X037593Y028936D02*
X045993Y028936D01*
X045993Y028984D02*
X037593Y028984D01*
X037593Y029033D02*
X045993Y029033D01*
X045993Y029081D02*
X037593Y029081D01*
X037593Y029130D02*
X045993Y029130D01*
X045993Y029178D02*
X037593Y029178D01*
X037593Y029227D02*
X045993Y029227D01*
X045993Y029275D02*
X037593Y029275D01*
X037593Y029324D02*
X045993Y029324D01*
X045993Y029372D02*
X037593Y029372D01*
X037593Y029421D02*
X045993Y029421D01*
X045993Y029469D02*
X037593Y029469D01*
X037593Y029518D02*
X045993Y029518D01*
X045993Y029566D02*
X037593Y029566D01*
X037593Y029615D02*
X045993Y029615D01*
X045993Y029663D02*
X037593Y029663D01*
X037593Y029712D02*
X045993Y029712D01*
X045993Y029760D02*
X037593Y029760D01*
X037593Y029809D02*
X045993Y029809D01*
X045993Y029857D02*
X037593Y029857D01*
X037593Y029906D02*
X045993Y029906D01*
X045993Y029954D02*
X037593Y029954D01*
X037593Y030003D02*
X045993Y030003D01*
X045993Y030051D02*
X037593Y030051D01*
X037593Y030100D02*
X045993Y030100D01*
X045993Y030148D02*
X037593Y030148D01*
X037593Y030197D02*
X045993Y030197D01*
X045993Y030245D02*
X037593Y030245D01*
X037593Y030294D02*
X045993Y030294D01*
X045993Y030342D02*
X037593Y030342D01*
X037593Y030391D02*
X045993Y030391D01*
X045993Y030439D02*
X037593Y030439D01*
X037593Y030488D02*
X045993Y030488D01*
X045993Y030536D02*
X037593Y030536D01*
X037593Y030585D02*
X045993Y030585D01*
X045993Y030633D02*
X037593Y030633D01*
X037593Y030682D02*
X045993Y030682D01*
X045993Y030730D02*
X037593Y030730D01*
X037593Y030779D02*
X045993Y030779D01*
X045993Y030827D02*
X037593Y030827D01*
X037593Y030876D02*
X045993Y030876D01*
X045993Y030924D02*
X037593Y030924D01*
X037593Y030973D02*
X045993Y030973D01*
D26*
X025143Y031295D03*
X020443Y031295D03*
D27*
X025143Y031295D01*
X042543Y022795D02*
X043693Y022795D01*
X043633Y022855D01*
X043633Y024395D01*
X043693Y022795D02*
X043993Y022495D01*
X049643Y031345D02*
X052343Y031345D01*
D28*
X045542Y023995D02*
X043908Y023995D01*
X043908Y022969D01*
X043926Y022951D01*
X044121Y022756D01*
X044158Y022741D01*
X044239Y022659D01*
X044283Y022553D01*
X044283Y022437D01*
X044239Y022331D01*
X044158Y022249D01*
X044051Y022205D01*
X043936Y022205D01*
X043829Y022249D01*
X043747Y022331D01*
X043732Y022367D01*
X043579Y022520D01*
X042637Y022520D01*
X042601Y022505D01*
X042486Y022505D01*
X042379Y022549D01*
X042297Y022631D01*
X042253Y022737D01*
X042253Y022853D01*
X042297Y022959D01*
X042379Y023041D01*
X042486Y023085D01*
X042601Y023085D01*
X042637Y023070D01*
X043358Y023070D01*
X043358Y023995D01*
X032843Y023995D01*
X032843Y023305D01*
X032879Y023341D01*
X032986Y023385D01*
X033101Y023385D01*
X033208Y023341D01*
X033289Y023259D01*
X033333Y023153D01*
X033333Y023037D01*
X033289Y022931D01*
X033208Y022849D01*
X033101Y022805D01*
X032986Y022805D01*
X032879Y022849D01*
X032843Y022885D01*
X032843Y021805D01*
X032879Y021841D01*
X032986Y021885D01*
X033101Y021885D01*
X033208Y021841D01*
X033289Y021759D01*
X033333Y021653D01*
X033333Y021537D01*
X033289Y021431D01*
X033208Y021349D01*
X033101Y021305D01*
X032986Y021305D01*
X032879Y021349D01*
X032843Y021385D01*
X032843Y021095D01*
X038471Y021095D01*
X038497Y021159D01*
X038579Y021241D01*
X038686Y021285D01*
X038801Y021285D01*
X038908Y021241D01*
X038989Y021159D01*
X039016Y021095D01*
X039571Y021095D01*
X039597Y021159D01*
X039679Y021241D01*
X039786Y021285D01*
X039901Y021285D01*
X040008Y021241D01*
X040089Y021159D01*
X040133Y021053D01*
X040133Y020937D01*
X040089Y020831D01*
X040008Y020749D01*
X039958Y020729D01*
X039958Y018890D01*
X039989Y018859D01*
X040033Y018753D01*
X040033Y018745D01*
X040503Y018745D01*
X040503Y018803D01*
X040547Y018909D01*
X040629Y018991D01*
X040736Y019035D01*
X040851Y019035D01*
X040958Y018991D01*
X040993Y018955D01*
X040993Y021095D01*
X045543Y021095D01*
X045543Y022540D01*
X044750Y022540D01*
X044688Y022602D01*
X044688Y022688D01*
X044688Y023702D01*
X044688Y023788D01*
X044750Y023850D01*
X045543Y023850D01*
X045543Y023991D01*
X045542Y023995D01*
X045543Y023898D02*
X043908Y023898D01*
X043908Y023789D02*
X044689Y023789D01*
X044688Y023681D02*
X043908Y023681D01*
X043908Y023572D02*
X044688Y023572D01*
X044688Y023464D02*
X043908Y023464D01*
X043908Y023355D02*
X044688Y023355D01*
X044688Y023247D02*
X043908Y023247D01*
X043908Y023138D02*
X044688Y023138D01*
X044688Y023030D02*
X043908Y023030D01*
X043956Y022921D02*
X044688Y022921D01*
X044688Y022813D02*
X044065Y022813D01*
X044194Y022704D02*
X044688Y022704D01*
X044694Y022596D02*
X044266Y022596D01*
X044283Y022487D02*
X045543Y022487D01*
X045543Y022379D02*
X044259Y022379D01*
X044178Y022270D02*
X045543Y022270D01*
X045543Y022162D02*
X032843Y022162D01*
X032843Y022270D02*
X043808Y022270D01*
X043721Y022379D02*
X032843Y022379D01*
X032843Y022487D02*
X043612Y022487D01*
X043358Y023138D02*
X038442Y023138D01*
X038439Y023131D02*
X038483Y023237D01*
X038483Y023353D01*
X038439Y023459D01*
X038358Y023541D01*
X038251Y023585D01*
X038136Y023585D01*
X038029Y023541D01*
X037947Y023459D01*
X037903Y023353D01*
X037903Y023237D01*
X037947Y023131D01*
X038029Y023049D01*
X038136Y023005D01*
X038251Y023005D01*
X038358Y023049D01*
X038439Y023131D01*
X038483Y023247D02*
X043358Y023247D01*
X043358Y023355D02*
X038482Y023355D01*
X038435Y023464D02*
X043358Y023464D01*
X043358Y023572D02*
X038282Y023572D01*
X038104Y023572D02*
X032843Y023572D01*
X032843Y023464D02*
X037952Y023464D01*
X037904Y023355D02*
X037523Y023355D01*
X037558Y023341D02*
X037451Y023385D01*
X037336Y023385D01*
X037229Y023341D01*
X037147Y023259D01*
X037103Y023153D01*
X037103Y023037D01*
X037147Y022931D01*
X037229Y022849D01*
X037336Y022805D01*
X037451Y022805D01*
X037558Y022849D01*
X037639Y022931D01*
X037683Y023037D01*
X037683Y023153D01*
X037639Y023259D01*
X037558Y023341D01*
X037644Y023247D02*
X037903Y023247D01*
X037944Y023138D02*
X037683Y023138D01*
X037680Y023030D02*
X038076Y023030D01*
X038310Y023030D02*
X042368Y023030D01*
X042282Y022921D02*
X037629Y022921D01*
X037469Y022813D02*
X042253Y022813D01*
X042267Y022704D02*
X032843Y022704D01*
X032843Y022596D02*
X042333Y022596D01*
X042486Y021685D02*
X042379Y021641D01*
X042297Y021559D01*
X042253Y021453D01*
X042253Y021337D01*
X042297Y021231D01*
X042379Y021149D01*
X042486Y021105D01*
X042601Y021105D01*
X042708Y021149D01*
X042789Y021231D01*
X042833Y021337D01*
X042833Y021453D01*
X042789Y021559D01*
X042708Y021641D01*
X042601Y021685D01*
X042486Y021685D01*
X042357Y021619D02*
X040377Y021619D01*
X040389Y021631D02*
X040433Y021737D01*
X040433Y021853D01*
X040389Y021959D01*
X040308Y022041D01*
X040201Y022085D01*
X040086Y022085D01*
X039979Y022041D01*
X039897Y021959D01*
X039853Y021853D01*
X039853Y021737D01*
X039897Y021631D01*
X039979Y021549D01*
X040086Y021505D01*
X040201Y021505D01*
X040308Y021549D01*
X040389Y021631D01*
X040429Y021728D02*
X044978Y021728D01*
X044997Y021681D02*
X045079Y021599D01*
X045186Y021555D01*
X045301Y021555D01*
X045408Y021599D01*
X045489Y021681D01*
X045533Y021787D01*
X045533Y021903D01*
X045489Y022009D01*
X045408Y022091D01*
X045301Y022135D01*
X045186Y022135D01*
X045079Y022091D01*
X044997Y022009D01*
X044953Y021903D01*
X044953Y021787D01*
X044997Y021681D01*
X045059Y021619D02*
X042729Y021619D01*
X042809Y021511D02*
X045543Y021511D01*
X045543Y021619D02*
X045427Y021619D01*
X045509Y021728D02*
X045543Y021728D01*
X045533Y021836D02*
X045543Y021836D01*
X045543Y021945D02*
X045516Y021945D01*
X045543Y022053D02*
X045445Y022053D01*
X045041Y022053D02*
X040278Y022053D01*
X040395Y021945D02*
X044971Y021945D01*
X044953Y021836D02*
X040433Y021836D01*
X040214Y021511D02*
X042277Y021511D01*
X042253Y021402D02*
X033260Y021402D01*
X033322Y021511D02*
X039372Y021511D01*
X039386Y021505D02*
X039501Y021505D01*
X039608Y021549D01*
X039689Y021631D01*
X039733Y021737D01*
X039733Y021853D01*
X039689Y021959D01*
X039608Y022041D01*
X039501Y022085D01*
X039386Y022085D01*
X039279Y022041D01*
X039197Y021959D01*
X039153Y021853D01*
X039153Y021737D01*
X039197Y021631D01*
X039279Y021549D01*
X039386Y021505D01*
X039514Y021511D02*
X040072Y021511D01*
X039909Y021619D02*
X039677Y021619D01*
X039729Y021728D02*
X039857Y021728D01*
X039853Y021836D02*
X039733Y021836D01*
X039695Y021945D02*
X039891Y021945D01*
X040008Y022053D02*
X039578Y022053D01*
X039308Y022053D02*
X032843Y022053D01*
X032843Y021945D02*
X039191Y021945D01*
X039153Y021836D02*
X033212Y021836D01*
X033302Y021728D02*
X039157Y021728D01*
X039209Y021619D02*
X033333Y021619D01*
X032874Y021836D02*
X032843Y021836D01*
X032843Y021294D02*
X042271Y021294D01*
X042343Y021185D02*
X040063Y021185D01*
X040123Y021077D02*
X040993Y021077D01*
X040993Y020968D02*
X040133Y020968D01*
X040101Y020860D02*
X040993Y020860D01*
X040993Y020751D02*
X040009Y020751D01*
X039958Y020643D02*
X040993Y020643D01*
X040993Y020534D02*
X039958Y020534D01*
X039958Y020426D02*
X040993Y020426D01*
X040993Y020317D02*
X039958Y020317D01*
X039958Y020209D02*
X040993Y020209D01*
X040993Y020100D02*
X039958Y020100D01*
X039958Y019992D02*
X040993Y019992D01*
X040993Y019883D02*
X039958Y019883D01*
X039958Y019775D02*
X040993Y019775D01*
X040993Y019666D02*
X039958Y019666D01*
X039958Y019558D02*
X040993Y019558D01*
X040993Y019449D02*
X039958Y019449D01*
X039958Y019341D02*
X040993Y019341D01*
X040993Y019232D02*
X039958Y019232D01*
X039958Y019124D02*
X040993Y019124D01*
X040993Y019015D02*
X040899Y019015D01*
X040687Y019015D02*
X039958Y019015D01*
X039958Y018907D02*
X040546Y018907D01*
X040503Y018798D02*
X040015Y018798D01*
X039623Y021185D02*
X038963Y021185D01*
X038523Y021185D02*
X032843Y021185D01*
X033043Y020495D02*
X032243Y020495D01*
X031093Y022445D02*
X029243Y022445D01*
X031243Y025195D02*
X032043Y024395D01*
X033043Y024395D01*
X032843Y023898D02*
X043358Y023898D01*
X043358Y023789D02*
X032843Y023789D01*
X032843Y023681D02*
X043358Y023681D01*
X045443Y023545D02*
X045793Y023195D01*
X046143Y023195D01*
X045543Y021402D02*
X042833Y021402D01*
X042815Y021294D02*
X045543Y021294D01*
X045543Y021185D02*
X042743Y021185D01*
X037317Y022813D02*
X033119Y022813D01*
X032967Y022813D02*
X032843Y022813D01*
X033279Y022921D02*
X037157Y022921D01*
X037107Y023030D02*
X033330Y023030D01*
X033333Y023138D02*
X037103Y023138D01*
X037142Y023247D02*
X033294Y023247D01*
X033173Y023355D02*
X037263Y023355D01*
X032913Y023355D02*
X032843Y023355D01*
X030693Y028695D02*
X027693Y028695D01*
X027443Y028445D01*
X032543Y031345D02*
X033043Y031845D01*
X033493Y031295D02*
X033043Y030845D01*
X033543Y030345D02*
X034043Y030845D01*
X037143Y029395D02*
X037343Y029595D01*
X037293Y028695D02*
X037343Y028645D01*
X045809Y008695D02*
X045809Y007778D01*
X045843Y008695D02*
X045809Y008695D01*
X046793Y008695D02*
X046793Y007778D01*
X047778Y007778D02*
X047778Y008661D01*
X047743Y008695D01*
X010693Y028845D02*
X009943Y028845D01*
X009593Y029195D01*
X009593Y030045D01*
D29*
X017043Y028045D03*
X027243Y020095D03*
X027243Y016145D03*
X026243Y012945D03*
X017893Y015745D03*
X035493Y015195D03*
X035943Y015195D03*
X036393Y015195D03*
X036843Y015195D03*
X036843Y015645D03*
X036843Y016095D03*
X036843Y016545D03*
X036843Y016995D03*
X036843Y017445D03*
X036393Y017445D03*
X035943Y017445D03*
X035493Y017445D03*
X037293Y017445D03*
X037293Y016995D03*
X037293Y016545D03*
X037293Y016095D03*
X037293Y015645D03*
X037293Y015195D03*
X037743Y015195D03*
X037743Y015645D03*
X037743Y016095D03*
X037743Y016545D03*
X037743Y016995D03*
X037743Y017445D03*
D30*
X048943Y025045D03*
X048393Y028645D03*
X050743Y028645D03*
X053943Y011995D03*
D31*
X053943Y031345D03*
X052343Y031345D03*
D32*
X030493Y011195D03*
X030493Y008995D03*
X030243Y007945D03*
X031243Y007345D03*
X030243Y006545D03*
D33*
X019093Y015645D03*
X018843Y015645D03*
X018593Y015645D03*
X018593Y015895D03*
X018593Y016145D03*
X018843Y016145D03*
X018843Y015895D03*
X019093Y015895D03*
X019093Y016145D03*
X018043Y014795D03*
X017793Y014795D03*
X017793Y014545D03*
X017793Y014295D03*
X017793Y014045D03*
X018043Y014045D03*
X018043Y014295D03*
X018043Y014545D03*
X036293Y028095D03*
X036293Y028395D03*
X036293Y028695D03*
X036593Y028695D03*
X036593Y028395D03*
X036593Y028095D03*
X036893Y028095D03*
X036893Y028395D03*
X036893Y028695D03*
D34*
X016593Y016595D03*
D35*
X026243Y012945D02*
X026243Y010095D01*
X027243Y016145D02*
X027243Y020095D01*
X049493Y031845D02*
X049493Y032995D01*
D36*
X049443Y012895D03*
X046493Y012895D03*
D37*
X046143Y023195D03*
X045443Y023545D03*
D38*
X039843Y020995D02*
X039743Y020895D01*
X039743Y018695D01*
D39*
X019443Y015045D02*
X018593Y015045D01*
D40*
X018243Y012195D03*
D41*
X016443Y010395D01*
X016443Y007345D01*
X015693Y006595D01*
M02*
