G75*
%MOIN*%
%OFA0B0*%
%FSLAX24Y24*%
%IPPOS*%
%LPD*%
%AMOC8*
5,1,8,0,0,1.08239X$1,22.5*
%
%ADD10R,0.0866X0.0236*%
%ADD11R,0.0630X0.0512*%
%ADD12R,0.0630X0.0787*%
%ADD13R,0.0236X0.0866*%
%ADD14R,0.0480X0.0740*%
%ADD15R,0.0420X0.0350*%
%ADD16R,0.0600X0.0380*%
%ADD17R,0.0350X0.0420*%
%ADD18R,0.0965X0.1457*%
%ADD19R,0.0140X0.0460*%
%ADD20R,0.0380X0.0600*%
%ADD21R,0.0276X0.0669*%
%ADD22R,0.0610X0.0433*%
%ADD23R,0.1350X0.0500*%
%ADD24R,0.3550X0.4200*%
%ADD25OC8,0.1065*%
%ADD26OC8,0.0700*%
%ADD27R,0.0394X0.0709*%
%ADD28OC8,0.0660*%
%ADD29OC8,0.0531*%
%ADD30OC8,0.1095*%
%ADD31R,0.0270X0.0300*%
%ADD32R,0.0394X0.0217*%
%ADD33R,0.0217X0.0394*%
%ADD34R,0.0740X0.0480*%
%ADD35R,0.0650X0.1100*%
%ADD36R,0.0360X0.0480*%
%ADD37R,0.0512X0.0472*%
%ADD38OC8,0.1620*%
%ADD39OC8,0.1325*%
%ADD40OC8,0.1424*%
%ADD41R,0.0140X0.0400*%
%ADD42R,0.3500X0.4200*%
%ADD43R,0.0900X0.0420*%
%ADD44R,0.1575X0.0630*%
%ADD45R,0.0417X0.0256*%
%ADD46R,0.0300X0.0400*%
%ADD47R,0.0709X0.0394*%
%ADD48OC8,0.0600*%
%ADD49R,0.0480X0.0360*%
%ADD50OC8,0.0472*%
%ADD51C,0.0570*%
%ADD52R,0.0315X0.0354*%
%ADD53R,0.0170X0.0590*%
%ADD54R,0.0220X0.0780*%
%ADD55R,0.0900X0.0900*%
%ADD56R,0.0250X0.0250*%
%ADD57C,0.0120*%
%ADD58C,0.0270*%
%ADD59C,0.0100*%
%ADD60C,0.0110*%
%ADD61C,0.0070*%
%ADD62C,0.0050*%
%ADD63C,0.0240*%
%ADD64C,0.0472*%
%ADD65C,0.0160*%
%ADD66C,0.0376*%
%ADD67C,0.0945*%
%ADD68OC8,0.1181*%
%ADD69OC8,0.0650*%
%ADD70C,0.0500*%
%ADD71OC8,0.1266*%
%ADD72C,0.1750*%
%ADD73C,0.0860*%
%ADD74C,0.0320*%
%ADD75C,0.1500*%
%ADD76C,0.1100*%
%ADD77C,0.1200*%
%ADD78C,0.0760*%
%ADD79C,0.0700*%
%ADD80C,0.1000*%
%ADD81C,0.0400*%
%ADD82C,0.0416*%
D10*
X034217Y020495D03*
X034217Y020995D03*
X034217Y021495D03*
X034217Y021995D03*
X034217Y022495D03*
X034217Y022995D03*
X034217Y023495D03*
X036264Y023495D03*
X036264Y022995D03*
X036264Y022495D03*
X036264Y021995D03*
X036264Y021495D03*
X036264Y020995D03*
X036264Y020495D03*
D11*
X029114Y029548D03*
X029114Y030548D03*
D12*
X027972Y030048D03*
D13*
X018043Y028719D03*
X017543Y028719D03*
X017043Y028719D03*
X016543Y028719D03*
X016543Y026671D03*
X017043Y026671D03*
X017543Y026671D03*
X018043Y026671D03*
D14*
X018393Y029848D03*
X017093Y029848D03*
X026393Y019495D03*
X027693Y019495D03*
X036143Y025445D03*
X037443Y025445D03*
X042993Y021395D03*
X044293Y021395D03*
X046143Y025045D03*
X047443Y025045D03*
X044793Y032545D03*
X043493Y032545D03*
X038193Y032545D03*
X036893Y032545D03*
X037243Y030395D03*
X035943Y030395D03*
X050243Y032545D03*
X051543Y032545D03*
D15*
X044793Y024835D03*
X044793Y024155D03*
X046943Y023535D03*
X046943Y022855D03*
X043193Y020635D03*
X043193Y019955D03*
X042393Y019955D03*
X042393Y020635D03*
X041593Y020635D03*
X041593Y019955D03*
X039843Y023055D03*
X039843Y023735D03*
X037393Y022685D03*
X037393Y022005D03*
X033043Y022005D03*
X033043Y022685D03*
X029993Y023455D03*
X029993Y024135D03*
X027968Y024830D03*
X027968Y025510D03*
X027068Y025535D03*
X027068Y024855D03*
X027693Y024135D03*
X027693Y023455D03*
X029143Y021835D03*
X029143Y021155D03*
X027993Y027808D03*
X027993Y028488D03*
X031393Y028735D03*
X031393Y028055D03*
X031393Y029455D03*
X031393Y030135D03*
X022743Y030285D03*
X022743Y029605D03*
X022743Y028535D03*
X022743Y027855D03*
X020143Y025885D03*
X020143Y025205D03*
X019093Y025205D03*
X019093Y025885D03*
X015641Y026905D03*
X015641Y027585D03*
X012093Y030255D03*
X012093Y030935D03*
X011293Y030935D03*
X011293Y030255D03*
X009993Y030255D03*
X009193Y030255D03*
X009193Y030935D03*
X009993Y030935D03*
X014193Y020835D03*
X014193Y020155D03*
X017918Y019960D03*
X017918Y019280D03*
X017018Y013985D03*
X017018Y013305D03*
X020893Y010885D03*
X020893Y010205D03*
D16*
X020868Y015060D03*
X020868Y015880D03*
X017218Y015855D03*
X017218Y015035D03*
X014841Y026835D03*
X014841Y027655D03*
X032243Y022852D03*
X032243Y022032D03*
X038193Y022035D03*
X038193Y022855D03*
D17*
X038253Y024295D03*
X038933Y024295D03*
X037533Y024295D03*
X036853Y024295D03*
X035833Y024295D03*
X035153Y024295D03*
X034233Y024295D03*
X033553Y024295D03*
X033553Y025145D03*
X034233Y025145D03*
X035753Y026445D03*
X036433Y026445D03*
X037153Y026445D03*
X037833Y026445D03*
X042953Y024195D03*
X043633Y024195D03*
X046153Y024145D03*
X046833Y024145D03*
X045433Y022245D03*
X044753Y022245D03*
X043633Y022195D03*
X042953Y022195D03*
X040133Y021395D03*
X039453Y021395D03*
X038331Y020995D03*
X037651Y020995D03*
X037651Y020245D03*
X038331Y020245D03*
X040103Y019145D03*
X040783Y019145D03*
X031483Y027342D03*
X030803Y027342D03*
X029383Y026848D03*
X028703Y026848D03*
X026533Y027195D03*
X025853Y027195D03*
X024883Y027495D03*
X024203Y027495D03*
X024203Y028445D03*
X024883Y028445D03*
X024883Y029345D03*
X024203Y029345D03*
X025803Y029295D03*
X026483Y029295D03*
X029903Y030548D03*
X030583Y030548D03*
X031353Y030995D03*
X032033Y030995D03*
X021883Y028745D03*
X021203Y028745D03*
X020233Y028945D03*
X019553Y028945D03*
X019553Y029845D03*
X020233Y029845D03*
X020233Y028095D03*
X019553Y028095D03*
X021203Y027845D03*
X021883Y027845D03*
X015986Y028945D03*
X015306Y028945D03*
X015306Y029695D03*
X015986Y029695D03*
X012033Y027945D03*
X011353Y027945D03*
X011353Y027245D03*
X012033Y027245D03*
X009933Y027245D03*
X009253Y027245D03*
X009253Y027945D03*
X009933Y027945D03*
X016578Y019220D03*
X016578Y018570D03*
X017258Y018570D03*
X017258Y019220D03*
X016953Y017795D03*
X017633Y017795D03*
X018078Y013345D03*
X018758Y013345D03*
X017533Y012495D03*
X016853Y012495D03*
X016853Y011595D03*
X017533Y011595D03*
X026353Y016845D03*
X027033Y016845D03*
X024783Y021045D03*
X024103Y021045D03*
X026203Y021945D03*
X026883Y021945D03*
X027653Y021945D03*
X028333Y021945D03*
X029953Y021945D03*
X030633Y021945D03*
X030633Y021145D03*
X029953Y021145D03*
X045053Y031345D03*
X045733Y031345D03*
X046553Y031345D03*
X047233Y031345D03*
D18*
X035854Y016345D03*
X033827Y016345D03*
D19*
X029303Y027538D03*
X029043Y027538D03*
X028783Y027538D03*
X028783Y028358D03*
X029303Y028358D03*
D20*
X030733Y026542D03*
X031553Y026542D03*
X029453Y026048D03*
X028633Y026048D03*
X020253Y027195D03*
X019433Y027195D03*
D21*
X025944Y034429D03*
X026944Y034429D03*
X027944Y034429D03*
D22*
X029115Y035195D03*
X029115Y036695D03*
X025277Y036695D03*
X025277Y035195D03*
D23*
X042488Y018995D03*
X042488Y016995D03*
D24*
X046368Y017995D03*
D25*
X047593Y035635D03*
X044593Y035635D03*
X040993Y035635D03*
X037993Y035635D03*
X034393Y035635D03*
X031393Y035635D03*
X051193Y035635D03*
X054193Y035635D03*
X020843Y007805D03*
X017843Y007805D03*
X014193Y007805D03*
X011193Y007805D03*
D26*
X012693Y010875D03*
X019343Y010875D03*
X032893Y032565D03*
X039493Y032565D03*
X046093Y032565D03*
X052693Y032565D03*
D27*
X034993Y027545D03*
X032343Y029892D03*
X027343Y031298D03*
X023118Y018270D03*
X030943Y017095D03*
D28*
X028243Y010095D03*
X027243Y010095D03*
X026243Y010095D03*
X025243Y010095D03*
X024243Y010095D03*
X024243Y009095D03*
X025243Y009095D03*
X026243Y009095D03*
X027243Y009095D03*
X028243Y009095D03*
X052282Y026918D03*
X053282Y026918D03*
X053282Y027918D03*
X052282Y027918D03*
X052282Y028918D03*
X053282Y028918D03*
X053282Y029918D03*
X052282Y029918D03*
D29*
X022793Y035595D03*
X021793Y035595D03*
X020793Y035595D03*
D30*
X016873Y036495D03*
X014873Y036495D03*
X014023Y031495D03*
X015873Y031495D03*
X017723Y031495D03*
X033793Y012995D03*
X033793Y006995D03*
X041293Y006995D03*
X041293Y012995D03*
D31*
X015503Y021495D03*
X015083Y021495D03*
X015083Y022095D03*
X015503Y022095D03*
X015503Y022695D03*
X015083Y022695D03*
X015083Y023295D03*
X015503Y023295D03*
X014303Y023295D03*
X013883Y023295D03*
X013883Y022695D03*
X014303Y022695D03*
X014303Y022095D03*
X013883Y022095D03*
X013883Y021495D03*
X014303Y021495D03*
X013103Y021495D03*
X012683Y021495D03*
X012683Y022095D03*
X013103Y022095D03*
X013103Y022695D03*
X012683Y022695D03*
X012683Y023295D03*
X013103Y023295D03*
X011903Y023295D03*
X011483Y023295D03*
X011483Y022695D03*
X011903Y022695D03*
X011903Y022095D03*
X011483Y022095D03*
X011483Y021495D03*
X011903Y021495D03*
X010703Y021495D03*
X010283Y021495D03*
X010283Y022095D03*
X010703Y022095D03*
X010703Y022695D03*
X010283Y022695D03*
X009503Y022695D03*
X009083Y022695D03*
X009083Y022095D03*
X009503Y022095D03*
X009503Y021495D03*
X009083Y021495D03*
X009083Y023295D03*
X009503Y023295D03*
X010283Y023295D03*
X010703Y023295D03*
D32*
X020962Y029571D03*
X020962Y029945D03*
X020962Y030319D03*
X022025Y030319D03*
X022025Y029571D03*
X045062Y023569D03*
X045062Y023195D03*
X045062Y022821D03*
X046125Y022821D03*
X046125Y023569D03*
D33*
X030767Y028014D03*
X030019Y028014D03*
X030019Y029076D03*
X030393Y029076D03*
X030767Y029076D03*
X019842Y019351D03*
X019468Y019351D03*
X019094Y019351D03*
X019094Y018289D03*
X019842Y018289D03*
X027069Y018726D03*
X027443Y018726D03*
X027817Y018726D03*
X027817Y017664D03*
X027069Y017664D03*
D34*
X028643Y017545D03*
X028643Y018845D03*
X020818Y018470D03*
X020818Y017170D03*
X020218Y020070D03*
X020218Y021370D03*
D35*
X020218Y023620D03*
X019118Y023620D03*
D36*
X018960Y022220D03*
X020377Y022220D03*
X018352Y017045D03*
X016935Y017045D03*
D37*
X021087Y020031D03*
X021087Y021409D03*
X023449Y021409D03*
X023449Y020031D03*
D38*
X051770Y010719D03*
D39*
X051770Y008357D03*
D40*
X053541Y007965D03*
X049998Y007965D03*
D41*
X040853Y019805D03*
X040593Y019805D03*
X040333Y019805D03*
X040077Y019805D03*
X040077Y020685D03*
X040333Y020685D03*
X040593Y020685D03*
X040853Y020685D03*
D42*
X043293Y028495D03*
D43*
X046943Y028495D03*
X046943Y029165D03*
X046943Y029835D03*
X046943Y027825D03*
X046943Y027155D03*
D44*
X048393Y025895D03*
X050794Y025895D03*
X050744Y029545D03*
X048343Y029545D03*
D45*
X044026Y023569D03*
X044026Y023195D03*
X044026Y022821D03*
X043160Y022821D03*
X043160Y023195D03*
X043160Y023569D03*
X042126Y023569D03*
X042126Y023195D03*
X042126Y022821D03*
X041260Y022821D03*
X041260Y023195D03*
X041260Y023569D03*
X026576Y027871D03*
X026576Y028245D03*
X026576Y028619D03*
X025710Y028619D03*
X025710Y028245D03*
X025710Y027871D03*
D46*
X025033Y030295D03*
X024153Y030295D03*
D47*
X026143Y030295D03*
X025793Y021045D03*
X039443Y025395D03*
X041643Y025395D03*
D48*
X011693Y031995D03*
X011693Y032995D03*
X011693Y033995D03*
X011693Y034995D03*
X009593Y034995D03*
X009593Y033995D03*
X009593Y032995D03*
X009593Y031995D03*
D49*
X022068Y016154D03*
X022068Y014736D03*
X021843Y011654D03*
X022793Y011654D03*
X022793Y010236D03*
X021843Y010236D03*
D50*
X049003Y031495D03*
X049003Y032495D03*
X049003Y033495D03*
X050003Y034495D03*
X049003Y035495D03*
D51*
X015693Y019595D03*
X015693Y018595D03*
X015693Y017595D03*
X015693Y016595D03*
X015693Y015595D03*
X015693Y014595D03*
X015693Y013595D03*
X015693Y012595D03*
X015693Y011595D03*
X014693Y011595D03*
X014693Y010595D03*
X015693Y010595D03*
X015693Y009595D03*
X015693Y008595D03*
X015693Y007595D03*
X015693Y006595D03*
X009693Y006595D03*
X009693Y007595D03*
X009693Y008595D03*
X009693Y009595D03*
X009693Y010595D03*
X009693Y011595D03*
X009693Y012595D03*
X009693Y013595D03*
X009693Y014595D03*
X009693Y015595D03*
X009693Y016595D03*
X009693Y017595D03*
X009693Y018595D03*
X009693Y019595D03*
X012693Y018595D03*
X013693Y018595D03*
X013693Y017595D03*
X012693Y017595D03*
X012693Y016595D03*
X013693Y016595D03*
X013693Y015595D03*
X012693Y015595D03*
X012693Y014595D03*
X013693Y014595D03*
X013693Y013595D03*
X012693Y013595D03*
X012693Y012595D03*
X013693Y012595D03*
D52*
X026119Y022718D03*
X026867Y022718D03*
X026493Y023545D03*
X012067Y028618D03*
X011319Y028618D03*
X011693Y029445D03*
X009967Y028618D03*
X009219Y028618D03*
X009593Y029445D03*
D53*
X028463Y024655D03*
X028713Y024655D03*
X028973Y024655D03*
X029223Y024655D03*
X029223Y022935D03*
X028973Y022935D03*
X028713Y022935D03*
X028463Y022935D03*
D54*
X035843Y027425D03*
X036343Y027425D03*
X036843Y027425D03*
X037343Y027425D03*
X037343Y029365D03*
X036843Y029365D03*
X036343Y029365D03*
X035843Y029365D03*
D55*
X036593Y028395D03*
D56*
X020118Y016095D03*
X019618Y016095D03*
X019618Y015595D03*
X019618Y015095D03*
X019118Y015095D03*
X018618Y015095D03*
X018118Y015095D03*
X018118Y014595D03*
X018118Y014095D03*
X018618Y014095D03*
X018618Y014595D03*
X019118Y014595D03*
X019118Y014095D03*
X019618Y014095D03*
X019618Y014595D03*
X020118Y014595D03*
X020118Y014095D03*
X020118Y015095D03*
X020118Y015595D03*
X018618Y016095D03*
X018118Y016095D03*
D57*
X020893Y011295D02*
X020893Y010885D01*
X020883Y010205D02*
X020893Y010205D01*
X034217Y020495D02*
X034217Y020995D01*
X036264Y020995D02*
X037651Y020995D01*
X037651Y020925D01*
X038331Y020245D01*
X037651Y020995D02*
X037601Y021045D01*
X036264Y020495D02*
X036243Y020474D01*
X036264Y022995D02*
X036743Y022995D01*
X036264Y023495D02*
X036293Y023524D01*
X038933Y024295D02*
X039293Y024295D01*
X039843Y023795D02*
X039843Y023735D01*
X039843Y023055D02*
X039843Y022695D01*
X041260Y023195D02*
X041410Y023195D01*
X042126Y023569D02*
X042152Y023595D01*
X042543Y023595D01*
X043093Y023636D02*
X043160Y023569D01*
X042993Y024155D02*
X042953Y024195D01*
X043033Y024195D01*
X042993Y024195D02*
X042953Y024195D01*
X043633Y024195D02*
X043733Y024295D01*
X044093Y024295D01*
X043993Y023895D02*
X043993Y023602D01*
X044026Y023569D01*
X044026Y023195D02*
X044193Y023195D01*
X044026Y022821D02*
X043993Y022788D01*
X043993Y022495D01*
X044293Y022145D02*
X043683Y022145D01*
X043633Y022195D01*
X043093Y022595D02*
X043093Y022754D01*
X043160Y022821D01*
X043093Y022595D02*
X042993Y022495D01*
X042993Y022235D01*
X042953Y022195D01*
X042543Y022795D02*
X042152Y022795D01*
X042126Y022821D01*
X040843Y020995D02*
X040843Y020695D01*
X040853Y020685D01*
X040843Y020675D01*
X040843Y020420D01*
X040768Y020345D01*
X040593Y020685D02*
X040593Y021045D01*
X040543Y021095D01*
X040333Y020905D02*
X040333Y020685D01*
X040333Y020905D02*
X040243Y020995D01*
X039843Y020995D01*
X040333Y019805D02*
X040333Y019555D01*
X040343Y019545D01*
X040593Y019595D02*
X040643Y019545D01*
X040593Y019595D02*
X040593Y019805D01*
X040853Y019805D02*
X040883Y019805D01*
X042393Y019955D02*
X042488Y019860D01*
X043193Y020635D02*
X043583Y020635D01*
X043593Y020645D01*
X046909Y022821D02*
X046943Y022855D01*
X044793Y024835D02*
X044793Y025195D01*
X046553Y029835D02*
X046943Y029835D01*
X048343Y029546D02*
X048343Y029545D01*
X046553Y031345D02*
X045733Y031345D01*
X045053Y031345D02*
X044643Y031345D01*
X053000Y027201D02*
X053000Y027201D01*
X031553Y026542D02*
X031546Y026542D01*
X031543Y026545D01*
X029453Y026048D02*
X029451Y026045D01*
X029443Y026045D01*
X027993Y027808D02*
X028543Y028358D01*
X028783Y028358D01*
X029303Y028358D02*
X029303Y028395D01*
X029303Y029359D02*
X029114Y029548D01*
X029114Y030548D02*
X029903Y030548D01*
X031353Y030985D02*
X031353Y030995D01*
X027972Y030048D02*
X027972Y028509D01*
X027993Y028488D01*
X024153Y030295D02*
X023743Y030295D01*
X026944Y034429D02*
X026943Y034528D01*
X026944Y034429D02*
X026943Y034629D01*
X027944Y034494D02*
X027944Y034429D01*
D58*
X007743Y006695D03*
X007543Y007445D03*
X008543Y006745D03*
X008793Y007395D03*
X008293Y008195D03*
X008893Y008495D03*
X008843Y009245D03*
X008143Y009445D03*
X007593Y008945D03*
X007943Y010195D03*
X007593Y010795D03*
X008443Y011095D03*
X007743Y011745D03*
X007543Y012195D03*
X007993Y012995D03*
X007643Y013295D03*
X007943Y013945D03*
X007843Y014445D03*
X007543Y014945D03*
X007993Y015495D03*
X007543Y015845D03*
X007543Y016795D03*
X008193Y016745D03*
X007743Y017845D03*
X008043Y018495D03*
X007543Y018695D03*
X007793Y019545D03*
X007793Y020195D03*
X008193Y020645D03*
X007993Y021095D03*
X007543Y020745D03*
X007543Y021545D03*
X007743Y022495D03*
X007543Y023045D03*
X007693Y023695D03*
X007743Y024545D03*
X007593Y025295D03*
X009243Y025395D03*
X009893Y025095D03*
X010243Y025395D03*
X010393Y024795D03*
X010893Y024745D03*
X011193Y025245D03*
X012243Y025395D03*
X013543Y025345D03*
X014293Y025245D03*
X014893Y025345D03*
X015443Y025295D03*
X015943Y025695D03*
X015643Y026495D03*
X014843Y026395D03*
X014293Y026795D03*
X014293Y027695D03*
X014843Y028095D03*
X015643Y027995D03*
X014893Y028945D03*
X012443Y027945D03*
X010693Y028845D03*
X010343Y027945D03*
X010093Y029795D03*
X009593Y030045D03*
X011293Y029795D03*
X012093Y029795D03*
X017568Y025895D03*
X017393Y025245D03*
X018093Y025395D03*
X018493Y025645D03*
X019043Y026245D03*
X019643Y025745D03*
X019643Y025145D03*
X020793Y024995D03*
X021043Y025445D03*
X020693Y025745D03*
X020693Y026295D03*
X020693Y027195D03*
X020793Y027845D03*
X019043Y027195D03*
X018043Y028095D03*
X019143Y029845D03*
X022743Y029195D03*
X023193Y029595D03*
X023193Y030295D03*
X023743Y030295D03*
X022743Y030695D03*
X025393Y029295D03*
X025793Y029745D03*
X026493Y029745D03*
X026893Y029295D03*
X027443Y028445D03*
X026993Y028245D03*
X026943Y027195D03*
X026543Y026745D03*
X025843Y026745D03*
X025443Y027195D03*
X025418Y027545D03*
X027068Y025945D03*
X028193Y026045D03*
X028593Y025495D03*
X029493Y025495D03*
X029893Y026045D03*
X030293Y026495D03*
X029793Y026845D03*
X030393Y027345D03*
X031893Y027345D03*
X031993Y026545D03*
X031543Y025995D03*
X031243Y025195D03*
X030743Y025995D03*
X030468Y024395D03*
X029993Y024545D03*
X029993Y023045D03*
X030393Y023070D03*
X031093Y022445D03*
X031693Y022045D03*
X032193Y021595D03*
X033043Y021595D03*
X033043Y020495D03*
X032243Y020495D03*
X030343Y020195D03*
X029843Y020195D03*
X029343Y020195D03*
X028843Y020195D03*
X028343Y020195D03*
X028343Y019695D03*
X028843Y019695D03*
X029343Y019695D03*
X029843Y019695D03*
X029843Y019195D03*
X030343Y019195D03*
X030343Y018695D03*
X029993Y018395D03*
X029843Y018195D03*
X029343Y018195D03*
X028843Y018195D03*
X028343Y018195D03*
X028343Y017095D03*
X028343Y016595D03*
X028843Y016595D03*
X028843Y017095D03*
X029343Y017095D03*
X029343Y016595D03*
X029843Y016595D03*
X029843Y017095D03*
X029843Y017595D03*
X029343Y017595D03*
X030343Y017595D03*
X030343Y017095D03*
X030343Y016595D03*
X030343Y018195D03*
X030343Y019695D03*
X028693Y021145D03*
X029243Y022445D03*
X027693Y023045D03*
X027243Y022745D03*
X027243Y023445D03*
X027243Y024145D03*
X027493Y024545D03*
X028293Y026845D03*
X030693Y028695D03*
X030393Y029495D03*
X030593Y030095D03*
X032043Y030545D03*
X032543Y031345D03*
X033043Y030845D03*
X033493Y031295D03*
X033043Y031845D03*
X034043Y030845D03*
X033543Y030345D03*
X034993Y030395D03*
X034993Y029995D03*
X035393Y029995D03*
X035393Y030395D03*
X035393Y030795D03*
X035393Y029545D03*
X034993Y029545D03*
X034993Y029145D03*
X035393Y029145D03*
X035493Y028695D03*
X035893Y028395D03*
X036293Y028395D03*
X036293Y028095D03*
X036593Y028095D03*
X036593Y028395D03*
X036593Y028695D03*
X036293Y028695D03*
X036893Y028695D03*
X036893Y028395D03*
X036893Y028095D03*
X037293Y028145D03*
X037793Y028195D03*
X037793Y027695D03*
X037793Y027195D03*
X038293Y027195D03*
X038293Y027695D03*
X038293Y028195D03*
X038293Y028695D03*
X037793Y028695D03*
X037293Y028695D03*
X037793Y029195D03*
X037793Y029695D03*
X037793Y030195D03*
X037793Y030695D03*
X038293Y030695D03*
X038293Y030195D03*
X038293Y029695D03*
X038293Y029195D03*
X038793Y029195D03*
X038793Y028695D03*
X038793Y028195D03*
X038793Y027695D03*
X038793Y027195D03*
X038793Y026695D03*
X038793Y026195D03*
X039293Y026195D03*
X039293Y026695D03*
X039293Y027195D03*
X039293Y027695D03*
X039293Y028195D03*
X039293Y028695D03*
X039293Y029195D03*
X039293Y029695D03*
X038793Y029695D03*
X038793Y030195D03*
X038793Y030695D03*
X039293Y030695D03*
X039293Y030195D03*
X039793Y030195D03*
X039793Y029695D03*
X039793Y029195D03*
X039793Y028695D03*
X039793Y028195D03*
X039793Y027695D03*
X039793Y027195D03*
X039793Y026695D03*
X039793Y026195D03*
X040293Y026195D03*
X040293Y026695D03*
X040293Y027195D03*
X040293Y027695D03*
X040293Y028195D03*
X040293Y028695D03*
X040293Y029195D03*
X040293Y029695D03*
X040293Y030195D03*
X040293Y030695D03*
X039793Y030695D03*
X040793Y030695D03*
X040793Y030195D03*
X040793Y029695D03*
X040793Y029195D03*
X040793Y028695D03*
X040793Y028195D03*
X040793Y027695D03*
X040793Y027195D03*
X040793Y026695D03*
X040793Y026195D03*
X041293Y026195D03*
X041293Y026695D03*
X041293Y027195D03*
X041293Y027695D03*
X041293Y028195D03*
X041293Y028695D03*
X041293Y029195D03*
X041293Y029695D03*
X041293Y030195D03*
X041293Y030695D03*
X044643Y031345D03*
X045293Y030695D03*
X045293Y030195D03*
X045293Y029695D03*
X045293Y029195D03*
X045293Y028695D03*
X045293Y028195D03*
X045293Y027695D03*
X045293Y027195D03*
X045293Y026695D03*
X045293Y026195D03*
X044793Y026195D03*
X044293Y026195D03*
X043793Y026195D03*
X043293Y026195D03*
X042793Y026195D03*
X042293Y026195D03*
X041793Y026195D03*
X042243Y025395D03*
X044093Y024295D03*
X043993Y023895D03*
X042543Y023595D03*
X042543Y022795D03*
X043993Y022495D03*
X044293Y022145D03*
X044793Y021845D03*
X045243Y021845D03*
X044743Y021345D03*
X044793Y020395D03*
X045293Y020395D03*
X045793Y020395D03*
X046293Y020395D03*
X046293Y020895D03*
X046793Y020895D03*
X046793Y020395D03*
X047293Y020395D03*
X047293Y020895D03*
X047293Y021395D03*
X046793Y021395D03*
X047293Y021895D03*
X047793Y021895D03*
X047793Y021395D03*
X047793Y020895D03*
X047793Y020395D03*
X048293Y020395D03*
X048293Y020895D03*
X048293Y021395D03*
X048293Y021895D03*
X048293Y022395D03*
X047793Y022395D03*
X048293Y022895D03*
X048293Y023395D03*
X048793Y023395D03*
X048793Y022895D03*
X048793Y022395D03*
X048793Y021895D03*
X048793Y021395D03*
X048793Y020895D03*
X048793Y020395D03*
X049293Y020395D03*
X049293Y020895D03*
X049293Y021395D03*
X049293Y021895D03*
X049293Y022395D03*
X049293Y022895D03*
X049293Y023395D03*
X049293Y023895D03*
X048793Y023895D03*
X049793Y023895D03*
X049793Y023395D03*
X049793Y022895D03*
X049793Y022395D03*
X049793Y021895D03*
X049793Y021395D03*
X049793Y020895D03*
X049793Y020395D03*
X050293Y020395D03*
X050293Y020895D03*
X050293Y021395D03*
X050293Y021895D03*
X050293Y022395D03*
X050293Y022895D03*
X050293Y023395D03*
X050293Y023895D03*
X050793Y023895D03*
X050793Y023395D03*
X050793Y022895D03*
X050793Y022395D03*
X050793Y021895D03*
X050793Y021395D03*
X050793Y020895D03*
X050793Y020395D03*
X051293Y020395D03*
X051293Y020895D03*
X051293Y021395D03*
X051293Y021895D03*
X051293Y022395D03*
X051293Y022895D03*
X051293Y023395D03*
X051293Y023895D03*
X047893Y025045D03*
X047293Y025645D03*
X046143Y025645D03*
X045793Y026195D03*
X045793Y026695D03*
X045793Y027195D03*
X045793Y027695D03*
X045793Y028195D03*
X045793Y028695D03*
X045793Y029195D03*
X045793Y029695D03*
X045793Y030195D03*
X045793Y030695D03*
X049493Y032995D03*
X044793Y025195D03*
X045693Y025045D03*
X045793Y024145D03*
X045443Y023545D03*
X046143Y023195D03*
X047193Y024145D03*
X043593Y020645D03*
X044293Y019895D03*
X044293Y019395D03*
X044293Y018895D03*
X044293Y018395D03*
X043793Y018395D03*
X043793Y017895D03*
X043793Y017395D03*
X043793Y016895D03*
X043793Y016395D03*
X043793Y015895D03*
X043793Y015395D03*
X043793Y014895D03*
X043793Y014395D03*
X044293Y014395D03*
X044293Y014895D03*
X044293Y015395D03*
X044293Y015895D03*
X044293Y016395D03*
X044293Y016895D03*
X044293Y017395D03*
X044293Y017895D03*
X044793Y015395D03*
X044793Y014895D03*
X044793Y014395D03*
X045293Y014895D03*
X045293Y015395D03*
X045793Y015395D03*
X045793Y014895D03*
X045793Y014395D03*
X046293Y014395D03*
X046293Y014895D03*
X046293Y015395D03*
X046793Y015395D03*
X046793Y014895D03*
X046793Y014395D03*
X047293Y014395D03*
X047293Y014895D03*
X047293Y015395D03*
X047793Y015395D03*
X047793Y014895D03*
X047793Y014395D03*
X048293Y014395D03*
X048293Y014895D03*
X048293Y015395D03*
X048793Y015395D03*
X048793Y014895D03*
X048793Y014395D03*
X049293Y014395D03*
X049293Y014895D03*
X049293Y015395D03*
X049293Y015895D03*
X048793Y015895D03*
X048793Y016395D03*
X048793Y016895D03*
X048793Y017395D03*
X048793Y017895D03*
X048793Y018395D03*
X048793Y018895D03*
X048793Y019395D03*
X048793Y019895D03*
X049293Y019895D03*
X049293Y019395D03*
X049293Y018895D03*
X049293Y018395D03*
X049293Y017895D03*
X049293Y017395D03*
X049293Y016895D03*
X049293Y016395D03*
X049793Y016395D03*
X049793Y015895D03*
X049793Y015395D03*
X049793Y014895D03*
X049793Y014395D03*
X050293Y014395D03*
X050293Y014895D03*
X050293Y015395D03*
X050293Y015895D03*
X050293Y016395D03*
X050293Y016895D03*
X049793Y016895D03*
X049793Y017395D03*
X049793Y017895D03*
X049793Y018395D03*
X049793Y018895D03*
X049793Y019395D03*
X049793Y019895D03*
X050293Y019895D03*
X050293Y019395D03*
X050293Y018895D03*
X050293Y018395D03*
X050293Y017895D03*
X050293Y017395D03*
X050793Y017395D03*
X050793Y016895D03*
X050793Y016395D03*
X050793Y015895D03*
X050793Y015395D03*
X050793Y014895D03*
X050793Y014395D03*
X051293Y014895D03*
X051293Y015395D03*
X051293Y015895D03*
X051293Y016395D03*
X051293Y016895D03*
X051293Y017395D03*
X051293Y017895D03*
X050793Y017895D03*
X050793Y018395D03*
X050793Y018895D03*
X050793Y019395D03*
X050793Y019895D03*
X051293Y019895D03*
X051293Y019395D03*
X051293Y018895D03*
X051293Y018395D03*
X042543Y021395D03*
X040143Y021795D03*
X039843Y020995D03*
X039443Y021795D03*
X038693Y022095D03*
X038193Y022445D03*
X037393Y023095D03*
X038193Y023295D03*
X039293Y024295D03*
X040043Y025395D03*
X039843Y022695D03*
X038743Y020995D03*
X039743Y018695D03*
X040143Y018745D03*
X040793Y018745D03*
X035593Y025195D03*
X035593Y025545D03*
X035243Y025545D03*
X035243Y025895D03*
X035593Y025895D03*
X033543Y025595D03*
X033043Y024395D03*
X032243Y023295D03*
X031693Y022845D03*
X033043Y023095D03*
X031843Y028045D03*
X035493Y028095D03*
X036793Y030195D03*
X036793Y030695D03*
X025793Y021945D03*
X024043Y022345D03*
X024043Y023045D03*
X024043Y023895D03*
X023643Y024895D03*
X023843Y025545D03*
X022643Y025595D03*
X021893Y025795D03*
X021543Y025145D03*
X022493Y024945D03*
X023993Y021795D03*
X023993Y020445D03*
X024743Y020095D03*
X024743Y019595D03*
X024743Y019095D03*
X024743Y018595D03*
X024743Y018095D03*
X024743Y017595D03*
X024743Y017095D03*
X024743Y016595D03*
X025243Y016595D03*
X025243Y017095D03*
X025243Y017595D03*
X025243Y018095D03*
X025243Y018595D03*
X025243Y019095D03*
X025243Y019595D03*
X025243Y020095D03*
X025743Y020095D03*
X025743Y019595D03*
X025743Y019095D03*
X025743Y018595D03*
X025743Y018095D03*
X025743Y017595D03*
X025743Y017095D03*
X025743Y016595D03*
X026243Y017595D03*
X026243Y018095D03*
X026243Y018595D03*
X026243Y020095D03*
X023993Y019595D03*
X023993Y018395D03*
X023993Y017395D03*
X023743Y016395D03*
X023293Y016545D03*
X022743Y016345D03*
X023143Y015895D03*
X022643Y015295D03*
X021543Y015345D03*
X021543Y014645D03*
X020993Y014470D03*
X020618Y014470D03*
X020618Y014095D03*
X020618Y013720D03*
X020243Y013720D03*
X019868Y013720D03*
X019493Y013720D03*
X019118Y013720D03*
X019493Y013345D03*
X019868Y013345D03*
X020243Y013345D03*
X020993Y014095D03*
X021843Y012095D03*
X022793Y012095D03*
X020893Y011295D03*
X018343Y012795D03*
X017943Y012445D03*
X017493Y013295D03*
X016543Y014095D03*
X015343Y014045D03*
X015143Y014795D03*
X015093Y015345D03*
X015093Y012945D03*
X015143Y012395D03*
X014843Y011095D03*
X013493Y010045D03*
X014093Y009095D03*
X013393Y008795D03*
X012493Y008145D03*
X012893Y007695D03*
X012693Y006895D03*
X012993Y006395D03*
X013793Y006595D03*
X014843Y006395D03*
X014993Y007095D03*
X015143Y008095D03*
X014943Y009095D03*
X015043Y009645D03*
X012193Y008995D03*
X011293Y008845D03*
X010343Y009795D03*
X011443Y010395D03*
X011543Y011245D03*
X011493Y011995D03*
X010893Y011895D03*
X010593Y012495D03*
X011743Y013595D03*
X012093Y013245D03*
X011993Y014195D03*
X011443Y014545D03*
X011843Y014845D03*
X011143Y015395D03*
X010843Y015795D03*
X010043Y016095D03*
X009343Y015995D03*
X009343Y015095D03*
X010093Y015095D03*
X010793Y014745D03*
X011343Y014045D03*
X011793Y016095D03*
X011843Y016895D03*
X011893Y017895D03*
X011943Y018945D03*
X011793Y019495D03*
X011793Y020045D03*
X010668Y020695D03*
X010293Y021070D03*
X009743Y020495D03*
X009543Y020145D03*
X009943Y018145D03*
X009393Y017095D03*
X013093Y021045D03*
X014293Y019745D03*
X015243Y020045D03*
X015643Y020145D03*
X015393Y020495D03*
X016143Y020795D03*
X016043Y021445D03*
X016193Y022045D03*
X016043Y022595D03*
X016143Y023245D03*
X016118Y023745D03*
X016268Y024595D03*
X015593Y024595D03*
X015043Y023745D03*
X014293Y024320D03*
X013493Y024145D03*
X013493Y023745D03*
X009793Y023895D03*
X009843Y024545D03*
X016143Y018295D03*
X016443Y017795D03*
X018143Y018045D03*
X018543Y017795D03*
X018493Y018445D03*
X018518Y023220D03*
X018118Y023220D03*
X018118Y023620D03*
X018118Y024020D03*
X018518Y024020D03*
X018518Y023620D03*
X010593Y010995D03*
X008943Y010295D03*
X010543Y006645D03*
X011643Y006395D03*
X011743Y006945D03*
X025243Y006745D03*
X026368Y006745D03*
X045843Y008695D03*
X046793Y008695D03*
X047743Y008695D03*
D59*
X051046Y014295D02*
X043693Y014295D01*
X043693Y018445D01*
X044243Y018995D01*
X044243Y019995D01*
X044793Y020545D01*
X045743Y020545D01*
X048793Y024095D01*
X051493Y024095D01*
X051493Y014742D01*
X051046Y014295D01*
X051119Y014368D02*
X043693Y014368D01*
X043693Y014466D02*
X051217Y014466D01*
X051316Y014565D02*
X043693Y014565D01*
X043693Y014663D02*
X051414Y014663D01*
X051493Y014762D02*
X043693Y014762D01*
X043693Y014860D02*
X051493Y014860D01*
X051493Y014959D02*
X043693Y014959D01*
X043693Y015057D02*
X051493Y015057D01*
X051493Y015156D02*
X043693Y015156D01*
X043693Y015254D02*
X051493Y015254D01*
X051493Y015353D02*
X043693Y015353D01*
X043693Y015451D02*
X051493Y015451D01*
X051493Y015550D02*
X043693Y015550D01*
X043693Y015648D02*
X051493Y015648D01*
X051493Y015747D02*
X043693Y015747D01*
X043693Y015845D02*
X051493Y015845D01*
X051493Y015944D02*
X043693Y015944D01*
X043693Y016042D02*
X051493Y016042D01*
X051493Y016141D02*
X043693Y016141D01*
X043693Y016239D02*
X051493Y016239D01*
X051493Y016338D02*
X043693Y016338D01*
X043693Y016436D02*
X051493Y016436D01*
X051493Y016535D02*
X043693Y016535D01*
X043693Y016633D02*
X051493Y016633D01*
X051493Y016732D02*
X043693Y016732D01*
X043693Y016830D02*
X051493Y016830D01*
X051493Y016929D02*
X043693Y016929D01*
X043693Y017027D02*
X051493Y017027D01*
X051493Y017126D02*
X043693Y017126D01*
X043693Y017224D02*
X051493Y017224D01*
X051493Y017323D02*
X043693Y017323D01*
X043693Y017421D02*
X051493Y017421D01*
X051493Y017520D02*
X043693Y017520D01*
X043693Y017618D02*
X051493Y017618D01*
X051493Y017717D02*
X043693Y017717D01*
X043693Y017815D02*
X051493Y017815D01*
X051493Y017914D02*
X043693Y017914D01*
X043693Y018012D02*
X051493Y018012D01*
X051493Y018111D02*
X043693Y018111D01*
X043693Y018209D02*
X051493Y018209D01*
X051493Y018308D02*
X043693Y018308D01*
X043693Y018406D02*
X051493Y018406D01*
X051493Y018505D02*
X043753Y018505D01*
X043851Y018603D02*
X051493Y018603D01*
X051493Y018702D02*
X043950Y018702D01*
X044048Y018800D02*
X051493Y018800D01*
X051493Y018899D02*
X044147Y018899D01*
X044243Y018997D02*
X051493Y018997D01*
X051493Y019096D02*
X044243Y019096D01*
X044243Y019194D02*
X051493Y019194D01*
X051493Y019293D02*
X044243Y019293D01*
X044243Y019391D02*
X051493Y019391D01*
X051493Y019490D02*
X044243Y019490D01*
X044243Y019588D02*
X051493Y019588D01*
X051493Y019687D02*
X044243Y019687D01*
X044243Y019785D02*
X051493Y019785D01*
X051493Y019884D02*
X044243Y019884D01*
X044243Y019982D02*
X051493Y019982D01*
X051493Y020081D02*
X044329Y020081D01*
X044427Y020179D02*
X051493Y020179D01*
X051493Y020278D02*
X044526Y020278D01*
X044624Y020376D02*
X051493Y020376D01*
X051493Y020475D02*
X044723Y020475D01*
X045767Y020573D02*
X051493Y020573D01*
X051493Y020672D02*
X045852Y020672D01*
X045937Y020770D02*
X051493Y020770D01*
X051493Y020869D02*
X046021Y020869D01*
X046106Y020967D02*
X051493Y020967D01*
X051493Y021066D02*
X046191Y021066D01*
X046275Y021164D02*
X051493Y021164D01*
X051493Y021263D02*
X046360Y021263D01*
X046444Y021361D02*
X051493Y021361D01*
X051493Y021460D02*
X046529Y021460D01*
X046614Y021558D02*
X051493Y021558D01*
X051493Y021657D02*
X046698Y021657D01*
X046783Y021755D02*
X051493Y021755D01*
X051493Y021854D02*
X046868Y021854D01*
X046952Y021952D02*
X051493Y021952D01*
X051493Y022051D02*
X047037Y022051D01*
X047121Y022149D02*
X051493Y022149D01*
X051493Y022248D02*
X047206Y022248D01*
X047291Y022346D02*
X051493Y022346D01*
X051493Y022445D02*
X047375Y022445D01*
X047460Y022543D02*
X051493Y022543D01*
X051493Y022642D02*
X047545Y022642D01*
X047629Y022740D02*
X051493Y022740D01*
X051493Y022839D02*
X047714Y022839D01*
X047798Y022937D02*
X051493Y022937D01*
X051493Y023036D02*
X047883Y023036D01*
X047968Y023134D02*
X051493Y023134D01*
X051493Y023233D02*
X048052Y023233D01*
X048137Y023331D02*
X051493Y023331D01*
X051493Y023430D02*
X048222Y023430D01*
X048306Y023528D02*
X051493Y023528D01*
X051493Y023627D02*
X048391Y023627D01*
X048475Y023725D02*
X051493Y023725D01*
X051493Y023824D02*
X048560Y023824D01*
X048645Y023922D02*
X051493Y023922D01*
X051493Y024021D02*
X048729Y024021D01*
X037943Y017645D02*
X037943Y015045D01*
X035093Y015045D01*
X035093Y017645D01*
X037943Y017645D01*
X037943Y017618D02*
X035093Y017618D01*
X035093Y017520D02*
X037943Y017520D01*
X037943Y017421D02*
X035093Y017421D01*
X035093Y017323D02*
X037943Y017323D01*
X037943Y017224D02*
X035093Y017224D01*
X035093Y017126D02*
X037943Y017126D01*
X037943Y017027D02*
X035093Y017027D01*
X035093Y016929D02*
X037943Y016929D01*
X037943Y016830D02*
X035093Y016830D01*
X035093Y016732D02*
X037943Y016732D01*
X037943Y016633D02*
X035093Y016633D01*
X035093Y016535D02*
X037943Y016535D01*
X037943Y016436D02*
X035093Y016436D01*
X035093Y016338D02*
X037943Y016338D01*
X037943Y016239D02*
X035093Y016239D01*
X035093Y016141D02*
X037943Y016141D01*
X037943Y016042D02*
X035093Y016042D01*
X035093Y015944D02*
X037943Y015944D01*
X037943Y015845D02*
X035093Y015845D01*
X035093Y015747D02*
X037943Y015747D01*
X037943Y015648D02*
X035093Y015648D01*
X035093Y015550D02*
X037943Y015550D01*
X037943Y015451D02*
X035093Y015451D01*
X035093Y015353D02*
X037943Y015353D01*
X037943Y015254D02*
X035093Y015254D01*
X035093Y015156D02*
X037943Y015156D01*
X037943Y015057D02*
X035093Y015057D01*
X034843Y022065D02*
X034663Y022245D01*
X029443Y026045D02*
X029393Y025995D01*
X018117Y026671D02*
X018043Y026671D01*
X017996Y026692D01*
X017043Y026671D02*
X016993Y026674D01*
X017533Y012495D02*
X017533Y011595D01*
D60*
X017533Y012495D02*
X017533Y012705D01*
X017243Y012995D01*
X016593Y012995D01*
X016493Y013095D01*
X016493Y013745D01*
X016193Y014045D01*
X015343Y014045D01*
X016543Y014095D02*
X016908Y014095D01*
X017018Y013985D01*
X017018Y013305D02*
X017028Y013295D01*
X017493Y013295D01*
X018103Y015095D02*
X018118Y015095D01*
X018103Y015095D02*
X018103Y015252D01*
X017941Y015415D01*
X016571Y015415D01*
X016443Y015543D01*
X016443Y016533D01*
X016605Y016695D01*
X017215Y016695D01*
X017368Y016848D01*
X017368Y017530D01*
X017633Y017795D01*
X016953Y017795D02*
X016953Y017064D01*
X016935Y017045D01*
X019118Y015095D02*
X019618Y015095D01*
X021843Y012095D02*
X021843Y011654D01*
X022793Y011654D02*
X022793Y012095D01*
X022793Y010236D02*
X021843Y010236D01*
X021812Y010205D01*
X020893Y010205D01*
X020013Y010205D01*
X019343Y010875D01*
X020893Y010205D02*
X020953Y010145D01*
X022793Y010236D02*
X022935Y010095D01*
X024243Y010095D01*
X029293Y015145D01*
X031103Y015145D01*
X032643Y016685D01*
X032643Y020595D01*
X033543Y021495D01*
X034217Y021495D01*
X034493Y021495D01*
X034943Y021045D01*
X034943Y020845D01*
X035893Y019895D01*
X038693Y019895D01*
X039483Y020685D01*
X040077Y020685D01*
X040843Y020995D02*
X040843Y021595D01*
X040293Y022145D01*
X039243Y022145D01*
X038593Y021495D01*
X036264Y021495D01*
X035843Y021495D01*
X034843Y022495D01*
X034217Y022495D01*
X034217Y022995D02*
X034743Y022995D01*
X034943Y023195D01*
X034943Y023585D01*
X034233Y024295D01*
X034233Y025145D01*
X033553Y025145D02*
X033553Y025585D01*
X033543Y025595D01*
X034043Y025895D02*
X034043Y030295D01*
X032393Y031945D01*
X031393Y031945D01*
X028093Y035245D01*
X026743Y035245D01*
X026443Y034945D01*
X026443Y034145D01*
X026093Y033795D01*
X022993Y033795D01*
X021793Y034995D01*
X021793Y035595D01*
X020793Y035595D02*
X020793Y035095D01*
X023493Y032395D01*
X023493Y028295D01*
X024203Y027585D01*
X024203Y027495D01*
X024593Y027595D02*
X024593Y027945D01*
X024203Y028335D01*
X024203Y028445D01*
X024883Y028445D02*
X024883Y029345D01*
X024883Y030145D01*
X025033Y030295D01*
X026143Y030295D01*
X024543Y029685D02*
X024543Y031545D01*
X026993Y033995D01*
X026993Y034380D01*
X026944Y034429D01*
X025944Y034429D02*
X025059Y034429D01*
X023457Y036031D01*
X020409Y036031D01*
X015873Y031495D01*
X016693Y031695D02*
X016693Y031155D01*
X015833Y030295D01*
X013593Y030295D01*
X012443Y029145D01*
X009876Y029145D01*
X009593Y028862D01*
X009593Y027403D01*
X009751Y027245D01*
X009933Y027245D01*
X009253Y027245D02*
X009253Y027945D01*
X009219Y027979D01*
X009219Y028618D01*
X009967Y028618D02*
X009967Y027979D01*
X009933Y027945D01*
X010343Y027945D01*
X011319Y027979D02*
X011319Y027279D01*
X011353Y027245D01*
X011353Y027945D02*
X011319Y027979D01*
X011319Y028618D01*
X010793Y028945D02*
X010693Y028845D01*
X010793Y028945D02*
X012443Y028945D01*
X012993Y028395D01*
X016043Y028395D01*
X016843Y027595D01*
X017993Y027595D01*
X019043Y026545D01*
X024393Y026545D01*
X026493Y024445D01*
X026493Y023545D01*
X026119Y022718D02*
X026917Y021920D01*
X026917Y021911D01*
X026883Y021945D01*
X027653Y021945D01*
X027993Y021675D02*
X027993Y022233D01*
X028205Y022445D01*
X028973Y022445D01*
X028973Y022935D01*
X029223Y022935D02*
X029243Y022915D01*
X029243Y022445D01*
X029043Y022245D01*
X028843Y022245D01*
X028543Y021945D01*
X028333Y021945D01*
X027993Y021675D02*
X028174Y021495D01*
X029543Y021495D01*
X029893Y021145D01*
X029953Y021145D01*
X030633Y021145D02*
X029953Y021825D01*
X029953Y021945D01*
X029943Y021955D01*
X029943Y022645D01*
X029493Y023095D01*
X029493Y023395D01*
X028973Y023915D01*
X028973Y024655D01*
X028713Y024655D02*
X028713Y024975D01*
X028618Y025070D01*
X028208Y025070D01*
X027968Y024830D01*
X027968Y024855D01*
X027068Y024855D01*
X027068Y025535D02*
X027068Y025945D01*
X027093Y026445D02*
X025343Y026445D01*
X024743Y027045D01*
X023553Y027045D01*
X022743Y027855D01*
X022743Y027795D01*
X021883Y027845D02*
X021883Y028745D01*
X022533Y028745D01*
X022743Y028535D01*
X021883Y028745D02*
X021883Y029429D01*
X022025Y029571D01*
X021393Y029795D02*
X021393Y028935D01*
X021203Y028745D01*
X021203Y027845D01*
X020793Y027845D01*
X020743Y027595D02*
X020543Y027595D01*
X020243Y027895D01*
X020243Y028085D01*
X020233Y028095D01*
X020233Y028945D01*
X019553Y028945D02*
X019553Y029165D01*
X020233Y029845D01*
X020507Y029571D01*
X020962Y029571D01*
X020962Y029945D02*
X021243Y029945D01*
X021393Y029795D01*
X020962Y030319D02*
X020962Y031726D01*
X020293Y032395D01*
X017393Y032395D01*
X016693Y031695D01*
X017485Y031495D02*
X017723Y031495D01*
X017485Y031495D02*
X015986Y029996D01*
X015986Y029695D01*
X016043Y029638D01*
X016043Y029445D01*
X016543Y028945D01*
X016543Y028719D01*
X015986Y028945D02*
X015306Y029625D01*
X015306Y029695D01*
X015306Y028945D02*
X014893Y028945D01*
X015643Y027595D02*
X015651Y027595D01*
X015641Y026905D02*
X015641Y026895D01*
X015643Y026895D01*
X014843Y026835D02*
X014843Y026795D01*
X014841Y026835D02*
X014843Y026835D01*
X012443Y027945D02*
X012033Y027945D01*
X012067Y027979D01*
X012067Y028618D01*
X012343Y029445D02*
X011693Y029445D01*
X011293Y029795D02*
X011293Y030255D01*
X010693Y029745D02*
X010393Y029445D01*
X009593Y029445D01*
X009593Y030045D02*
X009593Y031195D01*
X009093Y031695D01*
X009093Y032595D01*
X009493Y032995D01*
X009593Y032995D01*
X008793Y033595D02*
X008793Y031335D01*
X009193Y030935D01*
X009993Y030935D02*
X009993Y031595D01*
X009593Y031995D01*
X010893Y031335D02*
X011293Y030935D01*
X010893Y031335D02*
X010893Y033695D01*
X011193Y033995D01*
X011693Y033995D01*
X011693Y034995D02*
X011193Y034995D01*
X010693Y034495D01*
X010693Y029745D01*
X010093Y029795D02*
X010093Y030155D01*
X009993Y030255D01*
X009193Y030255D02*
X009093Y030155D01*
X011693Y031995D02*
X012093Y031595D01*
X012093Y030935D01*
X012093Y030255D02*
X012093Y029795D01*
X012343Y029445D02*
X012643Y029745D01*
X012643Y032045D01*
X011693Y032995D01*
X009593Y033995D02*
X009193Y033995D01*
X008793Y033595D01*
X014023Y031495D02*
X018838Y036310D01*
X024479Y036310D01*
X024993Y035795D01*
X029862Y035795D01*
X030393Y035263D01*
X030393Y033684D01*
X031512Y032565D01*
X032893Y032565D01*
X033043Y031845D02*
X034693Y033495D01*
X049003Y033495D01*
X048653Y031845D02*
X049003Y031495D01*
X048653Y031845D02*
X044243Y031845D01*
X043643Y031245D01*
X034993Y031245D01*
X034493Y030745D01*
X034493Y025795D01*
X035493Y024795D01*
X036353Y024795D01*
X036853Y024295D01*
X036853Y024084D01*
X036293Y023524D01*
X036843Y023605D02*
X036843Y023095D01*
X036743Y022995D01*
X037043Y022695D02*
X036843Y022495D01*
X036264Y022495D01*
X035593Y022495D01*
X035433Y022655D01*
X035433Y023895D01*
X035833Y024295D01*
X035153Y024295D02*
X035153Y024785D01*
X034043Y025895D01*
X033143Y025095D02*
X033143Y029945D01*
X033543Y030345D01*
X033043Y030845D02*
X032943Y030745D01*
X032943Y025345D01*
X031443Y023845D01*
X031443Y021295D01*
X032243Y020495D01*
X033043Y020495D02*
X034217Y020495D01*
X034843Y021595D02*
X034843Y022065D01*
X034663Y022245D02*
X033685Y022245D01*
X033543Y022386D01*
X033543Y023445D01*
X032743Y024245D01*
X032743Y024695D01*
X033143Y025095D01*
X033043Y024395D02*
X033453Y024395D01*
X033553Y024295D01*
X033553Y023975D01*
X034033Y023495D01*
X034217Y023495D01*
X034843Y021595D02*
X035943Y020495D01*
X036264Y020495D01*
X037401Y020495D01*
X037651Y020245D01*
X039743Y018695D02*
X040543Y017895D01*
X042893Y017895D01*
X043393Y017395D01*
X043393Y013695D01*
X046793Y010295D01*
X046793Y008695D01*
X043161Y018295D02*
X041793Y018295D01*
X041493Y018595D01*
X041493Y019195D01*
X040883Y019805D01*
X041593Y019955D02*
X042393Y019955D01*
X043193Y019955D01*
X043793Y020095D02*
X044493Y020795D01*
X044993Y020795D01*
X046125Y021926D01*
X046125Y022821D01*
X046909Y022821D01*
X046603Y023195D02*
X046943Y023535D01*
X046603Y023195D02*
X046143Y023195D01*
X045743Y023295D02*
X045743Y023745D01*
X044993Y024495D01*
X044393Y024495D01*
X044153Y024735D01*
X041283Y024735D01*
X040343Y023795D01*
X039843Y023795D01*
X039843Y023735D02*
X037433Y023735D01*
X037043Y023345D01*
X037043Y022695D01*
X036843Y023605D02*
X037533Y024295D01*
X038253Y024295D01*
X039443Y025395D02*
X040043Y025395D01*
X041643Y025395D02*
X042243Y025395D01*
X041893Y024195D02*
X042953Y024195D01*
X042993Y024155D02*
X042993Y023895D01*
X043093Y023795D01*
X043093Y023636D01*
X043160Y023195D02*
X044026Y023195D01*
X044193Y023195D02*
X044567Y023569D01*
X044793Y023569D01*
X044793Y024155D01*
X044793Y023569D02*
X045062Y023569D01*
X045086Y023545D01*
X045443Y023545D01*
X045743Y023295D02*
X045269Y022821D01*
X045062Y022821D01*
X042953Y022195D02*
X041893Y022195D01*
X041693Y022395D01*
X041693Y022912D01*
X041410Y023195D01*
X041693Y023478D02*
X041693Y023995D01*
X041893Y024195D01*
X041693Y023478D02*
X041976Y023195D01*
X042126Y023195D01*
X041260Y022821D02*
X041260Y022228D01*
X042393Y021095D01*
X042393Y020635D01*
X041593Y020635D02*
X041593Y021295D01*
X040793Y022095D01*
X040793Y023395D01*
X040993Y023595D01*
X041234Y023595D01*
X041260Y023569D01*
X043793Y020095D02*
X043793Y018927D01*
X043161Y018295D01*
X042488Y018995D02*
X042488Y019860D01*
X035843Y027425D02*
X035723Y027545D01*
X034993Y027545D01*
X037293Y028695D02*
X037293Y029315D01*
X037343Y029365D01*
X034893Y031695D02*
X042643Y031695D01*
X043493Y032545D01*
X045793Y028695D02*
X045793Y028495D01*
X036893Y032545D02*
X034743Y032545D01*
X033493Y031295D01*
X034043Y030845D02*
X034893Y031695D01*
X032693Y030345D02*
X032543Y030495D01*
X032543Y031345D01*
X032043Y030985D02*
X032043Y030545D01*
X032043Y030985D02*
X032033Y030995D01*
X032693Y030345D02*
X032693Y025595D01*
X031093Y023995D01*
X031093Y022445D01*
X029953Y021945D02*
X029953Y021835D01*
X029143Y021835D01*
X029143Y021155D02*
X029133Y021145D01*
X028693Y021145D01*
X027217Y022718D02*
X027243Y022745D01*
X027217Y022718D02*
X026867Y022718D01*
X026203Y021945D02*
X025793Y021945D01*
X026169Y021911D02*
X026203Y021945D01*
X026240Y025195D02*
X027968Y025195D01*
X027968Y025245D01*
X031168Y025245D01*
X031243Y025195D01*
X029393Y026845D02*
X029386Y026845D01*
X029383Y026848D01*
X028693Y026848D02*
X028693Y026845D01*
X027443Y026795D02*
X027093Y026445D01*
X027443Y026795D02*
X027443Y028445D01*
X025710Y028619D02*
X025057Y028619D01*
X024883Y028445D01*
X025318Y028245D02*
X024918Y027845D01*
X024918Y027530D01*
X024883Y027495D01*
X024693Y027495D01*
X024593Y027595D01*
X024590Y026845D02*
X022493Y026845D01*
X021943Y027395D01*
X020943Y027395D01*
X020743Y027595D01*
X020693Y027195D02*
X020253Y027195D01*
X019553Y027315D02*
X019553Y028095D01*
X019553Y027315D02*
X019433Y027195D01*
X019553Y029845D02*
X019143Y029845D01*
X018393Y029848D02*
X018391Y029845D01*
X017143Y029848D02*
X017093Y029848D01*
X017143Y029848D02*
X017143Y030045D01*
X017043Y030045D01*
X024203Y029345D02*
X024543Y029685D01*
X025318Y028245D02*
X025710Y028245D01*
X024590Y026845D02*
X026240Y025195D01*
X027968Y025245D02*
X027968Y025510D01*
X030019Y028014D02*
X030019Y028121D01*
X030045Y028095D01*
X030293Y028095D01*
X030593Y028395D01*
X031053Y028395D01*
X031393Y028735D01*
X031393Y029455D01*
X031393Y030135D02*
X031133Y030135D01*
X030767Y029769D01*
X030767Y029076D01*
X030743Y029052D01*
X030743Y028745D01*
X030693Y028695D01*
X031393Y028055D02*
X031403Y028045D01*
X031843Y028045D01*
X030593Y030095D02*
X030593Y030538D01*
X030583Y030548D01*
X027069Y017664D02*
X027103Y017629D01*
X027033Y017559D01*
X027033Y016845D01*
X030343Y017095D02*
X030943Y017095D01*
D61*
X030543Y017092D02*
X027443Y017092D01*
X027443Y017024D02*
X030543Y017024D01*
X030543Y016955D02*
X027443Y016955D01*
X027443Y016887D02*
X030543Y016887D01*
X030543Y016818D02*
X027443Y016818D01*
X027443Y016750D02*
X030543Y016750D01*
X030543Y016681D02*
X027443Y016681D01*
X027443Y016613D02*
X030543Y016613D01*
X030543Y016544D02*
X027443Y016544D01*
X027443Y016476D02*
X030543Y016476D01*
X030543Y016407D02*
X027443Y016407D01*
X027443Y016339D02*
X030543Y016339D01*
X030543Y016295D02*
X027477Y016295D01*
X027475Y016300D01*
X027443Y016331D01*
X027443Y017795D01*
X030543Y017795D01*
X030543Y016295D01*
X030543Y017161D02*
X027443Y017161D01*
X027443Y017229D02*
X030543Y017229D01*
X030543Y017298D02*
X027443Y017298D01*
X027443Y017366D02*
X030543Y017366D01*
X030543Y017435D02*
X027443Y017435D01*
X027443Y017503D02*
X030543Y017503D01*
X030543Y017572D02*
X027443Y017572D01*
X027443Y017640D02*
X030543Y017640D01*
X030543Y017709D02*
X027443Y017709D01*
X027443Y017777D02*
X030543Y017777D01*
X030543Y017995D02*
X026743Y017995D01*
X026743Y016295D01*
X024443Y016295D01*
X024443Y020495D01*
X026743Y020495D01*
X026743Y018295D01*
X027743Y018295D01*
X027743Y018895D01*
X028143Y018895D01*
X028143Y020495D01*
X030543Y020495D01*
X030543Y017995D01*
X030543Y018051D02*
X024443Y018051D01*
X024443Y017983D02*
X026743Y017983D01*
X026743Y017914D02*
X024443Y017914D01*
X024443Y017846D02*
X026743Y017846D01*
X026743Y017777D02*
X024443Y017777D01*
X024443Y017709D02*
X026743Y017709D01*
X026743Y017640D02*
X024443Y017640D01*
X024443Y017572D02*
X026743Y017572D01*
X026743Y017503D02*
X024443Y017503D01*
X024443Y017435D02*
X026743Y017435D01*
X026743Y017366D02*
X024443Y017366D01*
X024443Y017298D02*
X026743Y017298D01*
X026743Y017229D02*
X024443Y017229D01*
X024443Y017161D02*
X026743Y017161D01*
X026743Y017092D02*
X024443Y017092D01*
X024443Y017024D02*
X026743Y017024D01*
X026743Y016955D02*
X024443Y016955D01*
X024443Y016887D02*
X026743Y016887D01*
X026743Y016818D02*
X024443Y016818D01*
X024443Y016750D02*
X026743Y016750D01*
X026743Y016681D02*
X024443Y016681D01*
X024443Y016613D02*
X026743Y016613D01*
X026743Y016544D02*
X024443Y016544D01*
X024443Y016476D02*
X026743Y016476D01*
X026743Y016407D02*
X024443Y016407D01*
X024443Y016339D02*
X026743Y016339D01*
X026743Y018325D02*
X024443Y018325D01*
X024443Y018257D02*
X030543Y018257D01*
X030543Y018325D02*
X027743Y018325D01*
X027743Y018394D02*
X030543Y018394D01*
X030543Y018462D02*
X027743Y018462D01*
X027743Y018531D02*
X030543Y018531D01*
X030543Y018599D02*
X027743Y018599D01*
X027743Y018668D02*
X030543Y018668D01*
X030543Y018736D02*
X027743Y018736D01*
X027743Y018805D02*
X030543Y018805D01*
X030543Y018873D02*
X027743Y018873D01*
X027543Y018873D02*
X026943Y018873D01*
X026943Y018805D02*
X027543Y018805D01*
X027543Y018736D02*
X026943Y018736D01*
X026943Y018668D02*
X027543Y018668D01*
X027543Y018599D02*
X026943Y018599D01*
X026943Y018531D02*
X027543Y018531D01*
X027543Y018495D02*
X026943Y018495D01*
X026943Y020495D01*
X027943Y020495D01*
X027943Y019095D01*
X027543Y019095D01*
X027543Y018495D01*
X027543Y018942D02*
X026943Y018942D01*
X026943Y019010D02*
X027543Y019010D01*
X027543Y019079D02*
X026943Y019079D01*
X026943Y019147D02*
X027943Y019147D01*
X027943Y019216D02*
X026943Y019216D01*
X026943Y019284D02*
X027943Y019284D01*
X027943Y019353D02*
X026943Y019353D01*
X026943Y019421D02*
X027943Y019421D01*
X027943Y019490D02*
X026943Y019490D01*
X026943Y019558D02*
X027943Y019558D01*
X027943Y019627D02*
X026943Y019627D01*
X026943Y019695D02*
X027943Y019695D01*
X027943Y019764D02*
X026943Y019764D01*
X026943Y019832D02*
X027943Y019832D01*
X027943Y019901D02*
X026943Y019901D01*
X026943Y019969D02*
X027943Y019969D01*
X027943Y020038D02*
X026943Y020038D01*
X026943Y020106D02*
X027943Y020106D01*
X027943Y020175D02*
X026943Y020175D01*
X026943Y020243D02*
X027943Y020243D01*
X027943Y020312D02*
X026943Y020312D01*
X026943Y020380D02*
X027943Y020380D01*
X027943Y020449D02*
X026943Y020449D01*
X026743Y020449D02*
X024443Y020449D01*
X024443Y020380D02*
X026743Y020380D01*
X026743Y020312D02*
X024443Y020312D01*
X024443Y020243D02*
X026743Y020243D01*
X026743Y020175D02*
X024443Y020175D01*
X024443Y020106D02*
X026743Y020106D01*
X026743Y020038D02*
X024443Y020038D01*
X024443Y019969D02*
X026743Y019969D01*
X026743Y019901D02*
X024443Y019901D01*
X024443Y019832D02*
X026743Y019832D01*
X026743Y019764D02*
X024443Y019764D01*
X024443Y019695D02*
X026743Y019695D01*
X026743Y019627D02*
X024443Y019627D01*
X024443Y019558D02*
X026743Y019558D01*
X026743Y019490D02*
X024443Y019490D01*
X024443Y019421D02*
X026743Y019421D01*
X026743Y019353D02*
X024443Y019353D01*
X024443Y019284D02*
X026743Y019284D01*
X026743Y019216D02*
X024443Y019216D01*
X024443Y019147D02*
X026743Y019147D01*
X026743Y019079D02*
X024443Y019079D01*
X024443Y019010D02*
X026743Y019010D01*
X026743Y018942D02*
X024443Y018942D01*
X024443Y018873D02*
X026743Y018873D01*
X026743Y018805D02*
X024443Y018805D01*
X024443Y018736D02*
X026743Y018736D01*
X026743Y018668D02*
X024443Y018668D01*
X024443Y018599D02*
X026743Y018599D01*
X026743Y018531D02*
X024443Y018531D01*
X024443Y018462D02*
X026743Y018462D01*
X026743Y018394D02*
X024443Y018394D01*
X024443Y018188D02*
X030543Y018188D01*
X030543Y018120D02*
X024443Y018120D01*
X023768Y018120D02*
X021777Y018120D01*
X021846Y018188D02*
X023768Y018188D01*
X023768Y018257D02*
X021914Y018257D01*
X021918Y018261D02*
X021918Y020620D01*
X023768Y020620D01*
X023768Y016745D01*
X023404Y016745D01*
X023384Y016765D01*
X023202Y016765D01*
X023182Y016745D01*
X018918Y016745D01*
X018918Y018420D01*
X020068Y018420D01*
X020068Y017720D01*
X021377Y017720D01*
X021918Y018261D01*
X021918Y018325D02*
X023768Y018325D01*
X023768Y018394D02*
X021918Y018394D01*
X021918Y018462D02*
X023768Y018462D01*
X023768Y018531D02*
X021918Y018531D01*
X021918Y018599D02*
X023768Y018599D01*
X023768Y018668D02*
X021918Y018668D01*
X021918Y018736D02*
X023768Y018736D01*
X023768Y018805D02*
X021918Y018805D01*
X021918Y018873D02*
X023768Y018873D01*
X023768Y018942D02*
X021918Y018942D01*
X021918Y019010D02*
X023768Y019010D01*
X023768Y019079D02*
X021918Y019079D01*
X021918Y019147D02*
X023768Y019147D01*
X023768Y019216D02*
X021918Y019216D01*
X021918Y019284D02*
X023768Y019284D01*
X023768Y019353D02*
X021918Y019353D01*
X021918Y019421D02*
X023768Y019421D01*
X023768Y019490D02*
X021918Y019490D01*
X021918Y019558D02*
X023768Y019558D01*
X023768Y019627D02*
X021918Y019627D01*
X021918Y019695D02*
X023768Y019695D01*
X023768Y019764D02*
X021918Y019764D01*
X021918Y019832D02*
X023768Y019832D01*
X023768Y019901D02*
X021918Y019901D01*
X021918Y019969D02*
X023768Y019969D01*
X023768Y020038D02*
X021918Y020038D01*
X021918Y020106D02*
X023768Y020106D01*
X023768Y020175D02*
X021918Y020175D01*
X021918Y020243D02*
X023768Y020243D01*
X023768Y020312D02*
X021918Y020312D01*
X021918Y020380D02*
X023768Y020380D01*
X023768Y020449D02*
X021918Y020449D01*
X021918Y020517D02*
X023768Y020517D01*
X023768Y020586D02*
X021918Y020586D01*
X021768Y020586D02*
X019768Y020586D01*
X019768Y020620D02*
X019768Y019220D01*
X021768Y019220D01*
X021768Y020620D01*
X019768Y020620D01*
X019768Y020517D02*
X021768Y020517D01*
X021768Y020449D02*
X019768Y020449D01*
X019768Y020380D02*
X021768Y020380D01*
X021768Y020312D02*
X019768Y020312D01*
X019768Y020243D02*
X021768Y020243D01*
X021768Y020175D02*
X019768Y020175D01*
X019768Y020106D02*
X021768Y020106D01*
X021768Y020038D02*
X019768Y020038D01*
X019768Y019969D02*
X021768Y019969D01*
X021768Y019901D02*
X019768Y019901D01*
X019768Y019832D02*
X021768Y019832D01*
X021768Y019764D02*
X019768Y019764D01*
X019768Y019695D02*
X021768Y019695D01*
X021768Y019627D02*
X019768Y019627D01*
X019768Y019558D02*
X021768Y019558D01*
X021768Y019490D02*
X019768Y019490D01*
X019768Y019421D02*
X021768Y019421D01*
X021768Y019353D02*
X019768Y019353D01*
X019768Y019284D02*
X021768Y019284D01*
X021768Y019020D02*
X021768Y018311D01*
X021378Y017920D01*
X020268Y017920D01*
X020268Y018620D01*
X019293Y018620D01*
X019293Y019820D01*
X018618Y019820D01*
X018318Y019720D01*
X016823Y019720D01*
X016823Y023334D01*
X017664Y024175D01*
X019568Y024175D01*
X019568Y023020D01*
X018268Y023020D01*
X018268Y020620D01*
X018468Y020620D01*
X018468Y022820D01*
X019568Y022820D01*
X019568Y019020D01*
X021768Y019020D01*
X021768Y019010D02*
X019293Y019010D01*
X019293Y018942D02*
X021768Y018942D01*
X021768Y018873D02*
X019293Y018873D01*
X019293Y018805D02*
X021768Y018805D01*
X021768Y018736D02*
X019293Y018736D01*
X019293Y018668D02*
X021768Y018668D01*
X021768Y018599D02*
X020268Y018599D01*
X020268Y018531D02*
X021768Y018531D01*
X021768Y018462D02*
X020268Y018462D01*
X020268Y018394D02*
X021768Y018394D01*
X021768Y018325D02*
X020268Y018325D01*
X020268Y018257D02*
X021714Y018257D01*
X021646Y018188D02*
X020268Y018188D01*
X020268Y018120D02*
X021577Y018120D01*
X021509Y018051D02*
X020268Y018051D01*
X020268Y017983D02*
X021440Y017983D01*
X021572Y017914D02*
X023768Y017914D01*
X023768Y017846D02*
X021503Y017846D01*
X021435Y017777D02*
X023768Y017777D01*
X023768Y017709D02*
X018918Y017709D01*
X018918Y017777D02*
X020068Y017777D01*
X020068Y017846D02*
X018918Y017846D01*
X018918Y017914D02*
X020068Y017914D01*
X020068Y017983D02*
X018918Y017983D01*
X018918Y018051D02*
X020068Y018051D01*
X020068Y018120D02*
X018918Y018120D01*
X018918Y018188D02*
X020068Y018188D01*
X020068Y018257D02*
X018918Y018257D01*
X018918Y018325D02*
X020068Y018325D01*
X020068Y018394D02*
X018918Y018394D01*
X018506Y018942D02*
X017018Y018942D01*
X017018Y019010D02*
X018604Y019010D01*
X018618Y019020D02*
X017618Y018320D01*
X017018Y018320D01*
X017018Y019520D01*
X018318Y019520D01*
X018618Y019620D01*
X019143Y019620D01*
X019143Y019020D01*
X018618Y019020D01*
X018408Y018873D02*
X017018Y018873D01*
X017018Y018805D02*
X018311Y018805D01*
X018213Y018736D02*
X017018Y018736D01*
X017018Y018668D02*
X018115Y018668D01*
X018017Y018599D02*
X017018Y018599D01*
X017018Y018531D02*
X017919Y018531D01*
X017821Y018462D02*
X017018Y018462D01*
X017018Y018394D02*
X017723Y018394D01*
X017626Y018325D02*
X017018Y018325D01*
X016143Y018295D02*
X016143Y017295D01*
X016093Y017245D01*
X016093Y016795D01*
X016193Y016695D01*
X016193Y014045D01*
X015693Y013595D02*
X016793Y012495D01*
X016853Y012495D01*
X017193Y012155D01*
X017193Y011395D01*
X016593Y010795D01*
X016593Y006995D01*
X016843Y006745D01*
X025243Y006745D01*
X025243Y009095D01*
X026243Y009095D02*
X026243Y007895D01*
X030193Y007895D01*
X030243Y007945D01*
X030143Y007345D02*
X031243Y007345D01*
X030143Y007345D02*
X029543Y006745D01*
X026368Y006745D01*
X026243Y006995D02*
X026243Y007895D01*
X026243Y006995D02*
X025743Y006495D01*
X016818Y006495D01*
X016443Y006869D01*
X016443Y011645D01*
X016853Y011645D01*
X016853Y011595D01*
X016443Y011645D02*
X016443Y012550D01*
X015898Y013095D01*
X015493Y013095D01*
X015043Y013545D01*
X015043Y014145D01*
X015493Y014595D01*
X015693Y014595D01*
X015693Y015595D02*
X014993Y016295D01*
X014993Y019220D01*
X014693Y019520D01*
X014693Y022395D01*
X014993Y022695D01*
X015083Y022695D01*
X015503Y022695D02*
X015503Y022095D01*
X015503Y021495D01*
X015083Y021495D02*
X014993Y021405D01*
X014993Y019620D01*
X015293Y019320D01*
X015293Y017995D01*
X015693Y017595D01*
X015143Y017145D02*
X015693Y016595D01*
X015143Y017145D02*
X015143Y019270D01*
X014843Y019570D01*
X014843Y021945D01*
X014993Y022095D01*
X015083Y022095D01*
X015503Y022695D02*
X015503Y023295D01*
X015503Y023505D01*
X016943Y024945D01*
X018833Y024945D01*
X019093Y025205D01*
X019093Y025885D02*
X019043Y025935D01*
X019043Y026245D01*
X019043Y027195D02*
X019433Y027195D01*
X018043Y027104D02*
X018043Y026671D01*
X018093Y026621D01*
X018043Y027104D02*
X017902Y027245D01*
X016943Y027245D01*
X016793Y027095D01*
X016793Y026073D01*
X015715Y024995D01*
X011985Y024995D01*
X010493Y023504D01*
X010283Y023295D02*
X010193Y023295D01*
X009743Y022845D01*
X009743Y021195D01*
X009243Y020695D01*
X009243Y018045D01*
X009693Y017595D01*
X010243Y017145D02*
X010243Y020645D01*
X010043Y020845D01*
X010043Y022455D01*
X010283Y022695D01*
X010393Y022995D02*
X010168Y022995D01*
X009893Y022720D01*
X009893Y020795D01*
X010093Y020595D01*
X010093Y018995D01*
X009693Y018595D01*
X010243Y017145D02*
X009693Y016595D01*
X010943Y016345D02*
X010943Y022845D01*
X011393Y023295D01*
X011483Y023295D01*
X011903Y023295D02*
X013203Y024595D01*
X015593Y024595D01*
X015883Y024845D02*
X017043Y026005D01*
X017043Y026671D01*
X016993Y026674D02*
X016993Y026995D01*
X016993Y027045D01*
X017043Y027045D01*
X017543Y026671D02*
X017543Y026195D01*
X015293Y023945D01*
X015043Y023745D02*
X014753Y023745D01*
X014303Y023295D01*
X014293Y023305D01*
X014293Y024320D01*
X014293Y025245D02*
X012293Y027245D01*
X012033Y027245D01*
X012253Y024845D02*
X015883Y024845D01*
X016268Y024595D02*
X017568Y025895D01*
X017593Y026621D02*
X017543Y026671D01*
X018043Y028095D02*
X018043Y028719D01*
X020543Y026285D02*
X020693Y026285D01*
X020693Y026295D01*
X020143Y025205D02*
X019733Y024795D01*
X017168Y024795D01*
X016118Y023745D01*
X016823Y023326D02*
X019568Y023326D01*
X019568Y023394D02*
X016883Y023394D01*
X016951Y023463D02*
X019568Y023463D01*
X019568Y023531D02*
X017020Y023531D01*
X017088Y023600D02*
X019568Y023600D01*
X019568Y023668D02*
X017157Y023668D01*
X017225Y023737D02*
X019568Y023737D01*
X019568Y023805D02*
X017294Y023805D01*
X017362Y023874D02*
X019568Y023874D01*
X019568Y023942D02*
X017431Y023942D01*
X017499Y024011D02*
X019568Y024011D01*
X019568Y024079D02*
X017568Y024079D01*
X017636Y024148D02*
X019568Y024148D01*
X019768Y024148D02*
X023768Y024148D01*
X023768Y024216D02*
X019768Y024216D01*
X019768Y024285D02*
X023768Y024285D01*
X023768Y024353D02*
X019768Y024353D01*
X019768Y024422D02*
X023768Y024422D01*
X023768Y024490D02*
X019768Y024490D01*
X019768Y024559D02*
X023768Y024559D01*
X023768Y024620D02*
X023768Y020820D01*
X022368Y020820D01*
X022368Y023020D01*
X019768Y023020D01*
X019768Y024620D01*
X023768Y024620D01*
X023768Y024079D02*
X019768Y024079D01*
X019768Y024011D02*
X023768Y024011D01*
X023768Y023942D02*
X019768Y023942D01*
X019768Y023874D02*
X023768Y023874D01*
X023768Y023805D02*
X019768Y023805D01*
X019768Y023737D02*
X023768Y023737D01*
X023768Y023668D02*
X019768Y023668D01*
X019768Y023600D02*
X023768Y023600D01*
X023768Y023531D02*
X019768Y023531D01*
X019768Y023463D02*
X023768Y023463D01*
X023768Y023394D02*
X019768Y023394D01*
X019768Y023326D02*
X023768Y023326D01*
X023768Y023257D02*
X019768Y023257D01*
X019768Y023189D02*
X023768Y023189D01*
X023768Y023120D02*
X019768Y023120D01*
X019768Y023052D02*
X023768Y023052D01*
X023768Y022983D02*
X022368Y022983D01*
X022368Y022915D02*
X023768Y022915D01*
X023768Y022846D02*
X022368Y022846D01*
X022368Y022778D02*
X023768Y022778D01*
X023768Y022709D02*
X022368Y022709D01*
X022368Y022641D02*
X023768Y022641D01*
X023768Y022572D02*
X022368Y022572D01*
X022368Y022504D02*
X023768Y022504D01*
X023768Y022435D02*
X022368Y022435D01*
X022368Y022367D02*
X023768Y022367D01*
X023768Y022298D02*
X022368Y022298D01*
X022368Y022230D02*
X023768Y022230D01*
X023768Y022161D02*
X022368Y022161D01*
X022368Y022093D02*
X023768Y022093D01*
X023768Y022024D02*
X022368Y022024D01*
X022368Y021956D02*
X023768Y021956D01*
X023768Y021887D02*
X022368Y021887D01*
X022368Y021819D02*
X023768Y021819D01*
X023768Y021750D02*
X022368Y021750D01*
X022368Y021682D02*
X023768Y021682D01*
X023768Y021613D02*
X022368Y021613D01*
X022368Y021545D02*
X023768Y021545D01*
X023768Y021476D02*
X022368Y021476D01*
X022368Y021408D02*
X023768Y021408D01*
X023768Y021339D02*
X022368Y021339D01*
X022368Y021271D02*
X023768Y021271D01*
X023768Y021202D02*
X022368Y021202D01*
X022368Y021134D02*
X023768Y021134D01*
X023768Y021065D02*
X022368Y021065D01*
X022368Y020997D02*
X023768Y020997D01*
X023768Y020928D02*
X022368Y020928D01*
X022368Y020860D02*
X023768Y020860D01*
X022168Y020860D02*
X019768Y020860D01*
X019768Y020820D02*
X019768Y022820D01*
X022168Y022820D01*
X022168Y020820D01*
X019768Y020820D01*
X019768Y020928D02*
X022168Y020928D01*
X022168Y020997D02*
X019768Y020997D01*
X019768Y021065D02*
X022168Y021065D01*
X022168Y021134D02*
X019768Y021134D01*
X019768Y021202D02*
X022168Y021202D01*
X022168Y021271D02*
X019768Y021271D01*
X019768Y021339D02*
X022168Y021339D01*
X022168Y021408D02*
X019768Y021408D01*
X019768Y021476D02*
X022168Y021476D01*
X022168Y021545D02*
X019768Y021545D01*
X019768Y021613D02*
X022168Y021613D01*
X022168Y021682D02*
X019768Y021682D01*
X019768Y021750D02*
X022168Y021750D01*
X022168Y021819D02*
X019768Y021819D01*
X019768Y021887D02*
X022168Y021887D01*
X022168Y021956D02*
X019768Y021956D01*
X019768Y022024D02*
X022168Y022024D01*
X022168Y022093D02*
X019768Y022093D01*
X019768Y022161D02*
X022168Y022161D01*
X022168Y022230D02*
X019768Y022230D01*
X019768Y022298D02*
X022168Y022298D01*
X022168Y022367D02*
X019768Y022367D01*
X019768Y022435D02*
X022168Y022435D01*
X022168Y022504D02*
X019768Y022504D01*
X019768Y022572D02*
X022168Y022572D01*
X022168Y022641D02*
X019768Y022641D01*
X019768Y022709D02*
X022168Y022709D01*
X022168Y022778D02*
X019768Y022778D01*
X019568Y022778D02*
X018468Y022778D01*
X018468Y022709D02*
X019568Y022709D01*
X019568Y022641D02*
X018468Y022641D01*
X018468Y022572D02*
X019568Y022572D01*
X019568Y022504D02*
X018468Y022504D01*
X018468Y022435D02*
X019568Y022435D01*
X019568Y022367D02*
X018468Y022367D01*
X018468Y022298D02*
X019568Y022298D01*
X019568Y022230D02*
X018468Y022230D01*
X018468Y022161D02*
X019568Y022161D01*
X019568Y022093D02*
X018468Y022093D01*
X018468Y022024D02*
X019568Y022024D01*
X019568Y021956D02*
X018468Y021956D01*
X018468Y021887D02*
X019568Y021887D01*
X019568Y021819D02*
X018468Y021819D01*
X018468Y021750D02*
X019568Y021750D01*
X019568Y021682D02*
X018468Y021682D01*
X018468Y021613D02*
X019568Y021613D01*
X019568Y021545D02*
X018468Y021545D01*
X018468Y021476D02*
X019568Y021476D01*
X019568Y021408D02*
X018468Y021408D01*
X018468Y021339D02*
X019568Y021339D01*
X019568Y021271D02*
X018468Y021271D01*
X018468Y021202D02*
X019568Y021202D01*
X019568Y021134D02*
X018468Y021134D01*
X018468Y021065D02*
X019568Y021065D01*
X019568Y020997D02*
X018468Y020997D01*
X018468Y020928D02*
X019568Y020928D01*
X019568Y020860D02*
X018468Y020860D01*
X018468Y020791D02*
X019568Y020791D01*
X019568Y020723D02*
X018468Y020723D01*
X018468Y020654D02*
X019568Y020654D01*
X019568Y020586D02*
X016823Y020586D01*
X016823Y020654D02*
X018268Y020654D01*
X018268Y020723D02*
X016823Y020723D01*
X016823Y020791D02*
X018268Y020791D01*
X018268Y020860D02*
X016823Y020860D01*
X016823Y020928D02*
X018268Y020928D01*
X018268Y020997D02*
X016823Y020997D01*
X016823Y021065D02*
X018268Y021065D01*
X018268Y021134D02*
X016823Y021134D01*
X016823Y021202D02*
X018268Y021202D01*
X018268Y021271D02*
X016823Y021271D01*
X016823Y021339D02*
X018268Y021339D01*
X018268Y021408D02*
X016823Y021408D01*
X016823Y021476D02*
X018268Y021476D01*
X018268Y021545D02*
X016823Y021545D01*
X016823Y021613D02*
X018268Y021613D01*
X018268Y021682D02*
X016823Y021682D01*
X016823Y021750D02*
X018268Y021750D01*
X018268Y021819D02*
X016823Y021819D01*
X016823Y021887D02*
X018268Y021887D01*
X018268Y021956D02*
X016823Y021956D01*
X016823Y022024D02*
X018268Y022024D01*
X018268Y022093D02*
X016823Y022093D01*
X016823Y022161D02*
X018268Y022161D01*
X018268Y022230D02*
X016823Y022230D01*
X016823Y022298D02*
X018268Y022298D01*
X018268Y022367D02*
X016823Y022367D01*
X016823Y022435D02*
X018268Y022435D01*
X018268Y022504D02*
X016823Y022504D01*
X016823Y022572D02*
X018268Y022572D01*
X018268Y022641D02*
X016823Y022641D01*
X016823Y022709D02*
X018268Y022709D01*
X018268Y022778D02*
X016823Y022778D01*
X016823Y022846D02*
X018268Y022846D01*
X018268Y022915D02*
X016823Y022915D01*
X016823Y022983D02*
X018268Y022983D01*
X019568Y023052D02*
X016823Y023052D01*
X016823Y023120D02*
X019568Y023120D01*
X019568Y023189D02*
X016823Y023189D01*
X016823Y023257D02*
X019568Y023257D01*
X019568Y020517D02*
X016823Y020517D01*
X016823Y020449D02*
X019568Y020449D01*
X019568Y020380D02*
X016823Y020380D01*
X016823Y020312D02*
X019568Y020312D01*
X019568Y020243D02*
X016823Y020243D01*
X016823Y020175D02*
X019568Y020175D01*
X019568Y020106D02*
X016823Y020106D01*
X016823Y020038D02*
X019568Y020038D01*
X019568Y019969D02*
X016823Y019969D01*
X016823Y019901D02*
X019568Y019901D01*
X019568Y019832D02*
X016823Y019832D01*
X016823Y019764D02*
X018449Y019764D01*
X018432Y019558D02*
X019143Y019558D01*
X019143Y019490D02*
X017018Y019490D01*
X017018Y019421D02*
X019143Y019421D01*
X019143Y019353D02*
X017018Y019353D01*
X017018Y019284D02*
X019143Y019284D01*
X019143Y019216D02*
X017018Y019216D01*
X017018Y019147D02*
X019143Y019147D01*
X019143Y019079D02*
X017018Y019079D01*
X016093Y018995D02*
X015693Y018595D01*
X016093Y018995D02*
X016093Y020270D01*
X015293Y021070D01*
X014303Y020895D02*
X014303Y021495D01*
X014303Y022095D01*
X014303Y022695D01*
X014303Y023295D01*
X013883Y023295D02*
X013793Y023295D01*
X013343Y022845D01*
X013343Y019745D01*
X014243Y018845D01*
X014243Y013145D01*
X013693Y012595D01*
X013993Y011995D02*
X012893Y011995D01*
X012693Y012195D01*
X012693Y012595D01*
X013993Y011995D02*
X014393Y012395D01*
X014393Y018895D01*
X013493Y019795D01*
X013493Y022395D01*
X013793Y022695D01*
X013883Y022695D01*
X013883Y022095D02*
X013793Y022095D01*
X013643Y021945D01*
X013643Y019845D01*
X014543Y018945D01*
X014543Y012245D01*
X014093Y011795D01*
X014093Y011195D01*
X014693Y010595D01*
X014393Y010195D02*
X010543Y014045D01*
X010543Y020395D01*
X010668Y020520D01*
X010668Y020695D01*
X010543Y020945D02*
X010393Y020795D01*
X010393Y013995D01*
X014343Y010045D01*
X016093Y010045D01*
X016293Y010245D01*
X016293Y012195D01*
X015943Y012545D01*
X015943Y012595D01*
X015693Y012595D01*
X015193Y011895D02*
X015193Y011095D01*
X015693Y010595D01*
X015993Y010195D02*
X016143Y010345D01*
X016143Y011395D01*
X015943Y011595D01*
X015693Y011595D01*
X015193Y011895D02*
X014843Y012245D01*
X014843Y019170D01*
X014543Y019470D01*
X014543Y022845D01*
X014993Y023295D01*
X015083Y023295D01*
X013103Y023295D02*
X013103Y022695D01*
X013103Y022095D01*
X013103Y021495D01*
X013093Y021495D01*
X013093Y021045D01*
X012683Y021495D02*
X012683Y020205D01*
X014093Y018795D01*
X014093Y018045D01*
X013693Y017645D01*
X013693Y017595D01*
X012693Y017595D02*
X011483Y018805D01*
X011483Y021495D01*
X011903Y021495D02*
X011903Y022095D01*
X011903Y022695D01*
X011903Y023295D01*
X012143Y022845D02*
X012143Y019745D01*
X013068Y018820D01*
X013068Y015220D01*
X013693Y014595D01*
X012693Y014595D02*
X010943Y016345D01*
X011093Y017195D02*
X011093Y022445D01*
X011343Y022695D01*
X011483Y022695D01*
X011483Y022095D02*
X011443Y022095D01*
X011243Y021895D01*
X011243Y018045D01*
X012693Y016595D01*
X013318Y016970D02*
X013318Y018920D01*
X012443Y019795D01*
X012443Y021855D01*
X012683Y022095D01*
X012293Y022305D02*
X012683Y022695D01*
X012293Y022305D02*
X012293Y019770D01*
X013193Y018870D01*
X013193Y016045D01*
X013693Y015595D01*
X012693Y015595D02*
X011093Y017195D01*
X013318Y016970D02*
X013693Y016595D01*
X014693Y018995D02*
X013793Y019895D01*
X013793Y021405D01*
X013883Y021495D01*
X014193Y020835D02*
X014210Y020831D01*
X014227Y020832D01*
X014245Y020835D01*
X014261Y020842D01*
X014275Y020852D01*
X014287Y020864D01*
X014297Y020879D01*
X014303Y020895D01*
X014193Y020155D02*
X014293Y020005D01*
X014293Y019745D01*
X014693Y018995D02*
X014693Y011595D01*
X014393Y010195D02*
X015993Y010195D01*
X012693Y010875D02*
X012693Y011245D01*
X009843Y014095D01*
X009543Y014095D01*
X009093Y014545D01*
X009093Y020945D01*
X009503Y021355D01*
X009503Y021495D01*
X009503Y022095D01*
X009503Y022695D01*
X009503Y023295D01*
X009083Y023295D02*
X008993Y023295D01*
X008493Y022795D01*
X008493Y011795D01*
X009693Y010595D01*
X009693Y011595D02*
X008643Y012645D01*
X008643Y022245D01*
X009083Y022685D01*
X009083Y022695D01*
X009083Y022095D02*
X009083Y022085D01*
X008793Y021795D01*
X008793Y013495D01*
X009693Y012595D01*
X009693Y013595D02*
X009093Y014195D01*
X008943Y014345D01*
X008943Y021345D01*
X009093Y021495D01*
X009083Y021495D01*
X010283Y021495D02*
X010293Y021485D01*
X010293Y021070D01*
X010543Y020945D02*
X010543Y021245D01*
X010493Y021295D01*
X010283Y021455D02*
X010283Y021495D01*
X010703Y021495D02*
X010703Y022095D01*
X010703Y022695D01*
X010703Y023295D01*
X012253Y024845D01*
X012593Y023295D02*
X012143Y022845D01*
X012593Y023295D02*
X012683Y023295D01*
X010493Y023095D02*
X010393Y022995D01*
X010283Y022095D02*
X010493Y021885D01*
X010283Y022005D02*
X010283Y022095D01*
X018918Y017640D02*
X023768Y017640D01*
X023768Y017572D02*
X018918Y017572D01*
X018918Y017503D02*
X023768Y017503D01*
X023768Y017435D02*
X018918Y017435D01*
X018918Y017366D02*
X023768Y017366D01*
X023768Y017298D02*
X018918Y017298D01*
X018918Y017229D02*
X023768Y017229D01*
X023768Y017161D02*
X018918Y017161D01*
X018918Y017092D02*
X023768Y017092D01*
X023768Y017024D02*
X018918Y017024D01*
X018918Y016955D02*
X023768Y016955D01*
X023768Y016887D02*
X018918Y016887D01*
X018918Y016818D02*
X023768Y016818D01*
X023768Y016750D02*
X023400Y016750D01*
X023187Y016750D02*
X018918Y016750D01*
X019293Y019079D02*
X019568Y019079D01*
X019568Y019147D02*
X019293Y019147D01*
X019293Y019216D02*
X019568Y019216D01*
X019568Y019284D02*
X019293Y019284D01*
X019293Y019353D02*
X019568Y019353D01*
X019568Y019421D02*
X019293Y019421D01*
X019293Y019490D02*
X019568Y019490D01*
X019568Y019558D02*
X019293Y019558D01*
X019293Y019627D02*
X019568Y019627D01*
X019568Y019695D02*
X019293Y019695D01*
X019293Y019764D02*
X019568Y019764D01*
X021709Y018051D02*
X023768Y018051D01*
X023768Y017983D02*
X021640Y017983D01*
X028143Y018942D02*
X030543Y018942D01*
X030543Y019010D02*
X028143Y019010D01*
X028143Y019079D02*
X030543Y019079D01*
X030543Y019147D02*
X028143Y019147D01*
X028143Y019216D02*
X030543Y019216D01*
X030543Y019284D02*
X028143Y019284D01*
X028143Y019353D02*
X030543Y019353D01*
X030543Y019421D02*
X028143Y019421D01*
X028143Y019490D02*
X030543Y019490D01*
X030543Y019558D02*
X028143Y019558D01*
X028143Y019627D02*
X030543Y019627D01*
X030543Y019695D02*
X028143Y019695D01*
X028143Y019764D02*
X030543Y019764D01*
X030543Y019832D02*
X028143Y019832D01*
X028143Y019901D02*
X030543Y019901D01*
X030543Y019969D02*
X028143Y019969D01*
X028143Y020038D02*
X030543Y020038D01*
X030543Y020106D02*
X028143Y020106D01*
X028143Y020175D02*
X030543Y020175D01*
X030543Y020243D02*
X028143Y020243D01*
X028143Y020312D02*
X030543Y020312D01*
X030543Y020380D02*
X028143Y020380D01*
X028143Y020449D02*
X030543Y020449D01*
X035423Y025107D02*
X036393Y025107D01*
X036393Y025175D02*
X035354Y025175D01*
X035286Y025244D02*
X036393Y025244D01*
X036393Y025312D02*
X035217Y025312D01*
X035149Y025381D02*
X036393Y025381D01*
X036393Y025449D02*
X035080Y025449D01*
X035043Y025486D02*
X035584Y024945D01*
X036393Y024945D01*
X036393Y026145D01*
X036093Y026145D01*
X036093Y027795D01*
X035393Y027795D01*
X035393Y026095D01*
X035043Y026095D01*
X035043Y025486D01*
X035043Y025518D02*
X036393Y025518D01*
X036393Y025586D02*
X035043Y025586D01*
X035043Y025655D02*
X036393Y025655D01*
X036393Y025723D02*
X035043Y025723D01*
X035043Y025792D02*
X036393Y025792D01*
X036393Y025860D02*
X035043Y025860D01*
X035043Y025929D02*
X036393Y025929D01*
X036393Y025997D02*
X035043Y025997D01*
X035043Y026066D02*
X036393Y026066D01*
X036393Y026134D02*
X035393Y026134D01*
X035393Y026203D02*
X036093Y026203D01*
X036093Y026271D02*
X035393Y026271D01*
X035393Y026340D02*
X036093Y026340D01*
X036093Y026408D02*
X035393Y026408D01*
X035393Y026477D02*
X036093Y026477D01*
X036093Y026545D02*
X035393Y026545D01*
X035393Y026614D02*
X036093Y026614D01*
X036093Y026682D02*
X035393Y026682D01*
X035393Y026751D02*
X036093Y026751D01*
X036093Y026819D02*
X035393Y026819D01*
X035393Y026888D02*
X036093Y026888D01*
X036093Y026956D02*
X035393Y026956D01*
X035393Y027025D02*
X036093Y027025D01*
X036093Y027093D02*
X035393Y027093D01*
X035393Y027162D02*
X036093Y027162D01*
X036093Y027230D02*
X035393Y027230D01*
X035393Y027299D02*
X036093Y027299D01*
X036093Y027367D02*
X035393Y027367D01*
X035393Y027436D02*
X036093Y027436D01*
X036093Y027504D02*
X035393Y027504D01*
X035393Y027573D02*
X036093Y027573D01*
X036093Y027641D02*
X035393Y027641D01*
X035393Y027710D02*
X036093Y027710D01*
X036093Y027778D02*
X035393Y027778D01*
X035393Y027995D02*
X035393Y028795D01*
X036293Y028795D01*
X036293Y029895D01*
X036593Y029895D01*
X036593Y030995D01*
X045993Y030995D01*
X045993Y025995D01*
X038743Y025995D01*
X037693Y024945D01*
X036593Y024945D01*
X036593Y026150D01*
X036644Y026150D01*
X036693Y026200D01*
X036693Y026280D01*
X036893Y026280D01*
X036893Y026200D01*
X036943Y026150D01*
X037364Y026150D01*
X037413Y026200D01*
X037413Y026690D01*
X037364Y026740D01*
X036943Y026740D01*
X036893Y026690D01*
X036893Y026610D01*
X036693Y026610D01*
X036693Y026690D01*
X036644Y026740D01*
X036593Y026740D01*
X036593Y027995D01*
X035393Y027995D01*
X035393Y028052D02*
X045993Y028052D01*
X045993Y027984D02*
X036593Y027984D01*
X036593Y027915D02*
X045993Y027915D01*
X045993Y027847D02*
X036593Y027847D01*
X036593Y027778D02*
X045993Y027778D01*
X045993Y027710D02*
X036593Y027710D01*
X036593Y027641D02*
X045993Y027641D01*
X045993Y027573D02*
X036593Y027573D01*
X036593Y027504D02*
X045993Y027504D01*
X045993Y027436D02*
X036593Y027436D01*
X036593Y027367D02*
X045993Y027367D01*
X045993Y027299D02*
X036593Y027299D01*
X036593Y027230D02*
X045993Y027230D01*
X045993Y027162D02*
X036593Y027162D01*
X036593Y027093D02*
X045993Y027093D01*
X045993Y027025D02*
X036593Y027025D01*
X036593Y026956D02*
X045993Y026956D01*
X045993Y026888D02*
X036593Y026888D01*
X036593Y026819D02*
X045993Y026819D01*
X045993Y026751D02*
X036593Y026751D01*
X036693Y026682D02*
X036893Y026682D01*
X036893Y026614D02*
X036693Y026614D01*
X036693Y026271D02*
X036893Y026271D01*
X036893Y026203D02*
X036693Y026203D01*
X036593Y026134D02*
X045993Y026134D01*
X045993Y026066D02*
X036593Y026066D01*
X036593Y025997D02*
X045993Y025997D01*
X045993Y026203D02*
X037413Y026203D01*
X037413Y026271D02*
X045993Y026271D01*
X045993Y026340D02*
X037413Y026340D01*
X037413Y026408D02*
X045993Y026408D01*
X045993Y026477D02*
X037413Y026477D01*
X037413Y026545D02*
X045993Y026545D01*
X045993Y026614D02*
X037413Y026614D01*
X037413Y026682D02*
X045993Y026682D01*
X046493Y026895D02*
X047493Y026895D01*
X047993Y026595D01*
X050193Y026595D01*
X050193Y025695D01*
X051393Y025695D01*
X051393Y026495D01*
X053893Y026595D01*
X053893Y028095D01*
X053593Y028395D01*
X051993Y028395D01*
X051593Y027995D01*
X051593Y027745D01*
X051343Y027495D01*
X047713Y027495D01*
X047393Y027815D01*
X047393Y027995D01*
X046493Y027995D01*
X046493Y026895D01*
X046493Y026956D02*
X053893Y026956D01*
X053893Y026888D02*
X047506Y026888D01*
X047620Y026819D02*
X053893Y026819D01*
X053893Y026751D02*
X047734Y026751D01*
X047848Y026682D02*
X053893Y026682D01*
X053893Y026614D02*
X047962Y026614D01*
X048343Y026145D02*
X049133Y026145D01*
X049543Y025734D01*
X049543Y024495D01*
X048343Y024495D01*
X048343Y026145D01*
X048343Y026134D02*
X049144Y026134D01*
X049212Y026066D02*
X048343Y026066D01*
X048343Y025997D02*
X049281Y025997D01*
X049349Y025929D02*
X048343Y025929D01*
X048343Y025860D02*
X049418Y025860D01*
X049486Y025792D02*
X048343Y025792D01*
X048343Y025723D02*
X049543Y025723D01*
X049543Y025655D02*
X048343Y025655D01*
X048343Y025586D02*
X049543Y025586D01*
X049543Y025518D02*
X048343Y025518D01*
X048343Y025449D02*
X049543Y025449D01*
X049543Y025381D02*
X048343Y025381D01*
X048343Y025312D02*
X049543Y025312D01*
X049543Y025244D02*
X048343Y025244D01*
X048343Y025175D02*
X049543Y025175D01*
X049543Y025107D02*
X048343Y025107D01*
X048343Y025038D02*
X049543Y025038D01*
X049543Y024970D02*
X048343Y024970D01*
X048343Y024901D02*
X049543Y024901D01*
X049543Y024833D02*
X048343Y024833D01*
X048343Y024764D02*
X049543Y024764D01*
X049543Y024696D02*
X048343Y024696D01*
X048343Y024627D02*
X049543Y024627D01*
X049543Y024559D02*
X048343Y024559D01*
X050193Y025723D02*
X051393Y025723D01*
X051393Y025792D02*
X050193Y025792D01*
X050193Y025860D02*
X051393Y025860D01*
X051393Y025929D02*
X050193Y025929D01*
X050193Y025997D02*
X051393Y025997D01*
X051393Y026066D02*
X050193Y026066D01*
X050193Y026134D02*
X051393Y026134D01*
X051393Y026203D02*
X050193Y026203D01*
X050193Y026271D02*
X051393Y026271D01*
X051393Y026340D02*
X050193Y026340D01*
X050193Y026408D02*
X051393Y026408D01*
X051393Y026477D02*
X050193Y026477D01*
X050193Y026545D02*
X052645Y026545D01*
X053893Y027025D02*
X046493Y027025D01*
X046493Y027093D02*
X053893Y027093D01*
X053893Y027162D02*
X046493Y027162D01*
X046493Y027230D02*
X053893Y027230D01*
X053893Y027299D02*
X046493Y027299D01*
X046493Y027367D02*
X053893Y027367D01*
X053893Y027436D02*
X046493Y027436D01*
X046493Y027504D02*
X047704Y027504D01*
X047636Y027573D02*
X046493Y027573D01*
X046493Y027641D02*
X047567Y027641D01*
X047499Y027710D02*
X046493Y027710D01*
X046493Y027778D02*
X047430Y027778D01*
X047393Y027847D02*
X046493Y027847D01*
X046493Y027915D02*
X047393Y027915D01*
X047393Y027984D02*
X046493Y027984D01*
X045993Y028121D02*
X035393Y028121D01*
X035393Y028189D02*
X045993Y028189D01*
X045993Y028258D02*
X035393Y028258D01*
X035393Y028326D02*
X045993Y028326D01*
X045993Y028395D02*
X035393Y028395D01*
X035393Y028463D02*
X045993Y028463D01*
X045993Y028532D02*
X037441Y028532D01*
X037384Y028475D02*
X037513Y028604D01*
X037513Y028786D01*
X037433Y028866D01*
X037433Y028890D01*
X037489Y028890D01*
X037538Y028940D01*
X037538Y029790D01*
X037489Y029840D01*
X037198Y029840D01*
X037148Y029790D01*
X037148Y028940D01*
X037153Y028935D01*
X037153Y028866D01*
X037073Y028786D01*
X037073Y028604D01*
X037202Y028475D01*
X037384Y028475D01*
X037510Y028600D02*
X045993Y028600D01*
X045993Y028669D02*
X037513Y028669D01*
X037513Y028737D02*
X045993Y028737D01*
X045993Y028806D02*
X037494Y028806D01*
X037433Y028874D02*
X045993Y028874D01*
X045993Y028943D02*
X037538Y028943D01*
X037538Y029011D02*
X045993Y029011D01*
X045993Y029080D02*
X037538Y029080D01*
X037538Y029148D02*
X045993Y029148D01*
X045993Y029217D02*
X037538Y029217D01*
X037538Y029285D02*
X045993Y029285D01*
X045993Y029354D02*
X037538Y029354D01*
X037538Y029422D02*
X045993Y029422D01*
X045993Y029491D02*
X037538Y029491D01*
X037538Y029559D02*
X045993Y029559D01*
X045993Y029628D02*
X037538Y029628D01*
X037538Y029696D02*
X045993Y029696D01*
X045993Y029765D02*
X037538Y029765D01*
X037495Y029833D02*
X045993Y029833D01*
X045993Y029902D02*
X036593Y029902D01*
X036593Y029970D02*
X045993Y029970D01*
X045993Y030039D02*
X036593Y030039D01*
X036593Y030107D02*
X045993Y030107D01*
X045993Y030176D02*
X036593Y030176D01*
X036593Y030244D02*
X045993Y030244D01*
X045993Y030313D02*
X036593Y030313D01*
X036593Y030381D02*
X045993Y030381D01*
X045993Y030450D02*
X036593Y030450D01*
X036593Y030518D02*
X045993Y030518D01*
X045993Y030587D02*
X036593Y030587D01*
X036593Y030655D02*
X045993Y030655D01*
X045993Y030724D02*
X036593Y030724D01*
X036593Y030792D02*
X045993Y030792D01*
X045993Y030861D02*
X036593Y030861D01*
X036593Y030929D02*
X045993Y030929D01*
X046443Y029445D02*
X048943Y029445D01*
X048943Y027945D01*
X047743Y027945D01*
X047743Y028895D01*
X046443Y028895D01*
X046443Y029445D01*
X046443Y029422D02*
X048943Y029422D01*
X048943Y029354D02*
X046443Y029354D01*
X046443Y029285D02*
X048943Y029285D01*
X048943Y029217D02*
X046443Y029217D01*
X046443Y029148D02*
X048943Y029148D01*
X048943Y029080D02*
X046443Y029080D01*
X046443Y029011D02*
X048943Y029011D01*
X048943Y028943D02*
X046443Y028943D01*
X047743Y028874D02*
X048943Y028874D01*
X048943Y028806D02*
X047743Y028806D01*
X047743Y028737D02*
X048943Y028737D01*
X048943Y028669D02*
X047743Y028669D01*
X047743Y028600D02*
X048943Y028600D01*
X048943Y028532D02*
X047743Y028532D01*
X047743Y028463D02*
X048943Y028463D01*
X048943Y028395D02*
X047743Y028395D01*
X047743Y028326D02*
X048943Y028326D01*
X048943Y028258D02*
X047743Y028258D01*
X047743Y028189D02*
X048943Y028189D01*
X048943Y028121D02*
X047743Y028121D01*
X047743Y028052D02*
X048943Y028052D01*
X048943Y027984D02*
X047743Y027984D01*
X050143Y027984D02*
X051343Y027984D01*
X051343Y027945D02*
X050143Y027945D01*
X050143Y029445D01*
X051343Y029445D01*
X051343Y027945D01*
X051343Y028052D02*
X050143Y028052D01*
X050143Y028121D02*
X051343Y028121D01*
X051343Y028189D02*
X050143Y028189D01*
X050143Y028258D02*
X051343Y028258D01*
X051343Y028326D02*
X050143Y028326D01*
X050143Y028395D02*
X051343Y028395D01*
X051343Y028463D02*
X050143Y028463D01*
X050143Y028532D02*
X051343Y028532D01*
X051343Y028600D02*
X050143Y028600D01*
X050143Y028669D02*
X051343Y028669D01*
X051343Y028737D02*
X050143Y028737D01*
X050143Y028806D02*
X051343Y028806D01*
X051343Y028874D02*
X050143Y028874D01*
X050143Y028943D02*
X051343Y028943D01*
X051343Y029011D02*
X050143Y029011D01*
X050143Y029080D02*
X051343Y029080D01*
X051343Y029148D02*
X050143Y029148D01*
X050143Y029217D02*
X051343Y029217D01*
X051343Y029285D02*
X050143Y029285D01*
X050143Y029354D02*
X051343Y029354D01*
X051343Y029422D02*
X050143Y029422D01*
X051650Y028052D02*
X053893Y028052D01*
X053893Y027984D02*
X051593Y027984D01*
X051593Y027915D02*
X053893Y027915D01*
X053893Y027847D02*
X051593Y027847D01*
X051593Y027778D02*
X053893Y027778D01*
X053893Y027710D02*
X051558Y027710D01*
X051489Y027641D02*
X053893Y027641D01*
X053893Y027573D02*
X051421Y027573D01*
X051352Y027504D02*
X053893Y027504D01*
X053868Y028121D02*
X051719Y028121D01*
X051787Y028189D02*
X053799Y028189D01*
X053731Y028258D02*
X051856Y028258D01*
X051924Y028326D02*
X053662Y028326D01*
X053594Y028395D02*
X051993Y028395D01*
X040593Y020045D02*
X040593Y019805D01*
X040593Y020045D02*
X040493Y020145D01*
X040193Y020145D01*
X040077Y020029D01*
X040077Y019805D01*
X037718Y024970D02*
X036593Y024970D01*
X036593Y025038D02*
X037786Y025038D01*
X037855Y025107D02*
X036593Y025107D01*
X036593Y025175D02*
X037923Y025175D01*
X037992Y025244D02*
X036593Y025244D01*
X036593Y025312D02*
X038060Y025312D01*
X038129Y025381D02*
X036593Y025381D01*
X036593Y025449D02*
X038197Y025449D01*
X038266Y025518D02*
X036593Y025518D01*
X036593Y025586D02*
X038334Y025586D01*
X038403Y025655D02*
X036593Y025655D01*
X036593Y025723D02*
X038471Y025723D01*
X038540Y025792D02*
X036593Y025792D01*
X036593Y025860D02*
X038608Y025860D01*
X038677Y025929D02*
X036593Y025929D01*
X036393Y025038D02*
X035491Y025038D01*
X035560Y024970D02*
X036393Y024970D01*
X037146Y028532D02*
X035393Y028532D01*
X035393Y028600D02*
X037077Y028600D01*
X037073Y028669D02*
X035393Y028669D01*
X035393Y028737D02*
X037073Y028737D01*
X037093Y028806D02*
X036293Y028806D01*
X036293Y028874D02*
X037153Y028874D01*
X037148Y028943D02*
X036293Y028943D01*
X036293Y029011D02*
X037148Y029011D01*
X037148Y029080D02*
X036293Y029080D01*
X036293Y029148D02*
X037148Y029148D01*
X037148Y029217D02*
X036293Y029217D01*
X036293Y029285D02*
X037148Y029285D01*
X037148Y029354D02*
X036293Y029354D01*
X036293Y029422D02*
X037148Y029422D01*
X037148Y029491D02*
X036293Y029491D01*
X036293Y029559D02*
X037148Y029559D01*
X037148Y029628D02*
X036293Y029628D01*
X036293Y029696D02*
X037148Y029696D01*
X037148Y029765D02*
X036293Y029765D01*
X036293Y029833D02*
X037191Y029833D01*
X036393Y030095D02*
X036093Y030095D01*
X036093Y028995D01*
X034793Y028995D01*
X034793Y030534D01*
X035254Y030995D01*
X036393Y030995D01*
X036393Y030095D01*
X036393Y030107D02*
X034793Y030107D01*
X034793Y030039D02*
X036093Y030039D01*
X036093Y029970D02*
X034793Y029970D01*
X034793Y029902D02*
X036093Y029902D01*
X036093Y029833D02*
X034793Y029833D01*
X034793Y029765D02*
X036093Y029765D01*
X036093Y029696D02*
X034793Y029696D01*
X034793Y029628D02*
X036093Y029628D01*
X036093Y029559D02*
X034793Y029559D01*
X034793Y029491D02*
X036093Y029491D01*
X036093Y029422D02*
X034793Y029422D01*
X034793Y029354D02*
X036093Y029354D01*
X036093Y029285D02*
X034793Y029285D01*
X034793Y029217D02*
X036093Y029217D01*
X036093Y029148D02*
X034793Y029148D01*
X034793Y029080D02*
X036093Y029080D01*
X036093Y029011D02*
X034793Y029011D01*
X034793Y030176D02*
X036393Y030176D01*
X036393Y030244D02*
X034793Y030244D01*
X034793Y030313D02*
X036393Y030313D01*
X036393Y030381D02*
X034793Y030381D01*
X034793Y030450D02*
X036393Y030450D01*
X036393Y030518D02*
X034793Y030518D01*
X034846Y030587D02*
X036393Y030587D01*
X036393Y030655D02*
X034914Y030655D01*
X034983Y030724D02*
X036393Y030724D01*
X036393Y030792D02*
X035051Y030792D01*
X035120Y030861D02*
X036393Y030861D01*
X036393Y030929D02*
X035188Y030929D01*
X025710Y027871D02*
X025710Y027837D01*
X025418Y027545D01*
D62*
X015293Y023945D02*
X015293Y021070D01*
X017618Y017395D02*
X018618Y017395D01*
X018618Y016595D01*
X018993Y016595D01*
X018993Y015595D01*
X016618Y015595D01*
X016618Y016524D01*
X016659Y016565D01*
X017269Y016565D01*
X017299Y016595D01*
X017618Y016595D01*
X017618Y017395D01*
X017618Y017393D02*
X018618Y017393D01*
X018618Y017344D02*
X017618Y017344D01*
X017618Y017296D02*
X018618Y017296D01*
X018618Y017247D02*
X017618Y017247D01*
X017618Y017199D02*
X018618Y017199D01*
X018618Y017150D02*
X017618Y017150D01*
X017618Y017102D02*
X018618Y017102D01*
X018618Y017053D02*
X017618Y017053D01*
X017618Y017005D02*
X018618Y017005D01*
X018618Y016956D02*
X017618Y016956D01*
X017618Y016908D02*
X018618Y016908D01*
X018618Y016859D02*
X017618Y016859D01*
X017618Y016811D02*
X018618Y016811D01*
X018618Y016762D02*
X017618Y016762D01*
X017618Y016714D02*
X018618Y016714D01*
X018618Y016665D02*
X017618Y016665D01*
X017618Y016617D02*
X018618Y016617D01*
X018993Y016568D02*
X017272Y016568D01*
X016618Y016520D02*
X018993Y016520D01*
X018993Y016471D02*
X016618Y016471D01*
X016618Y016423D02*
X018993Y016423D01*
X018993Y016374D02*
X016618Y016374D01*
X016618Y016326D02*
X018993Y016326D01*
X018993Y016277D02*
X016618Y016277D01*
X016618Y016229D02*
X018993Y016229D01*
X018993Y016180D02*
X016618Y016180D01*
X016618Y016132D02*
X018993Y016132D01*
X018993Y016083D02*
X016618Y016083D01*
X016618Y016035D02*
X018993Y016035D01*
X018993Y015986D02*
X016618Y015986D01*
X016618Y015938D02*
X018993Y015938D01*
X018993Y015889D02*
X016618Y015889D01*
X016618Y015841D02*
X018993Y015841D01*
X018993Y015792D02*
X016618Y015792D01*
X016618Y015744D02*
X018993Y015744D01*
X018993Y015695D02*
X016618Y015695D01*
X016618Y015647D02*
X018993Y015647D01*
X018993Y015598D02*
X016618Y015598D01*
X016618Y015220D02*
X017868Y015220D01*
X017868Y014720D01*
X018368Y014720D01*
X018368Y015345D01*
X018868Y015345D01*
X018868Y014720D01*
X020493Y014720D01*
X020493Y015220D01*
X021343Y015220D01*
X021343Y014180D01*
X021311Y014101D01*
X021311Y013989D01*
X021343Y013910D01*
X021343Y013695D01*
X020618Y012970D01*
X018368Y012970D01*
X018368Y014345D01*
X016618Y014345D01*
X016618Y015220D01*
X016618Y015210D02*
X017868Y015210D01*
X017868Y015162D02*
X016618Y015162D01*
X016618Y015113D02*
X017868Y015113D01*
X017868Y015065D02*
X016618Y015065D01*
X016618Y015016D02*
X017868Y015016D01*
X017868Y014968D02*
X016618Y014968D01*
X016618Y014919D02*
X017868Y014919D01*
X017868Y014871D02*
X016618Y014871D01*
X016618Y014822D02*
X017868Y014822D01*
X017868Y014774D02*
X016618Y014774D01*
X016618Y014725D02*
X017868Y014725D01*
X018368Y014725D02*
X018868Y014725D01*
X018868Y014774D02*
X018368Y014774D01*
X018368Y014822D02*
X018868Y014822D01*
X018868Y014871D02*
X018368Y014871D01*
X018368Y014919D02*
X018868Y014919D01*
X018868Y014968D02*
X018368Y014968D01*
X018368Y015016D02*
X018868Y015016D01*
X018868Y015065D02*
X018368Y015065D01*
X018368Y015113D02*
X018868Y015113D01*
X018868Y015162D02*
X018368Y015162D01*
X018368Y015210D02*
X018868Y015210D01*
X018868Y015259D02*
X018368Y015259D01*
X018368Y015307D02*
X018868Y015307D01*
X019368Y015307D02*
X020368Y015307D01*
X020368Y015259D02*
X019368Y015259D01*
X019368Y015210D02*
X020368Y015210D01*
X020368Y015162D02*
X019368Y015162D01*
X019368Y015113D02*
X020368Y015113D01*
X020368Y015065D02*
X019368Y015065D01*
X019368Y015016D02*
X020368Y015016D01*
X020368Y014968D02*
X019368Y014968D01*
X019368Y014919D02*
X020368Y014919D01*
X020368Y014871D02*
X019368Y014871D01*
X019368Y014845D02*
X020368Y014845D01*
X020368Y015595D01*
X022443Y015595D01*
X022443Y016795D01*
X019368Y016795D01*
X019368Y014845D01*
X019368Y015356D02*
X020368Y015356D01*
X020368Y015404D02*
X019368Y015404D01*
X019368Y015453D02*
X020368Y015453D01*
X020368Y015501D02*
X019368Y015501D01*
X019368Y015550D02*
X020368Y015550D01*
X020493Y015210D02*
X021343Y015210D01*
X021343Y015162D02*
X020493Y015162D01*
X020493Y015113D02*
X021343Y015113D01*
X021343Y015065D02*
X020493Y015065D01*
X020493Y015016D02*
X021343Y015016D01*
X021343Y014968D02*
X020493Y014968D01*
X020493Y014919D02*
X021343Y014919D01*
X021343Y014871D02*
X020493Y014871D01*
X020493Y014822D02*
X021343Y014822D01*
X021343Y014774D02*
X020493Y014774D01*
X020493Y014725D02*
X021343Y014725D01*
X021343Y014677D02*
X016618Y014677D01*
X016618Y014628D02*
X021343Y014628D01*
X021343Y014580D02*
X016618Y014580D01*
X016618Y014531D02*
X021343Y014531D01*
X021343Y014483D02*
X016618Y014483D01*
X016618Y014434D02*
X021343Y014434D01*
X021343Y014386D02*
X016618Y014386D01*
X017743Y014220D02*
X018243Y014220D01*
X018243Y012992D01*
X018221Y012970D01*
X017743Y012970D01*
X017743Y014220D01*
X017743Y014192D02*
X018243Y014192D01*
X018243Y014143D02*
X017743Y014143D01*
X017743Y014095D02*
X018243Y014095D01*
X018243Y014046D02*
X017743Y014046D01*
X017743Y013998D02*
X018243Y013998D01*
X018243Y013949D02*
X017743Y013949D01*
X017743Y013901D02*
X018243Y013901D01*
X018243Y013852D02*
X017743Y013852D01*
X017743Y013804D02*
X018243Y013804D01*
X018243Y013755D02*
X017743Y013755D01*
X017743Y013707D02*
X018243Y013707D01*
X018243Y013658D02*
X017743Y013658D01*
X017743Y013610D02*
X018243Y013610D01*
X018243Y013561D02*
X017743Y013561D01*
X017743Y013513D02*
X018243Y013513D01*
X018243Y013464D02*
X017743Y013464D01*
X017743Y013416D02*
X018243Y013416D01*
X018243Y013367D02*
X017743Y013367D01*
X017743Y013319D02*
X018243Y013319D01*
X018243Y013270D02*
X017743Y013270D01*
X017743Y013222D02*
X018243Y013222D01*
X018243Y013173D02*
X017743Y013173D01*
X017743Y013125D02*
X018243Y013125D01*
X018243Y013076D02*
X017743Y013076D01*
X017743Y013028D02*
X018243Y013028D01*
X018230Y012979D02*
X017743Y012979D01*
X018368Y012979D02*
X020627Y012979D01*
X020676Y013028D02*
X018368Y013028D01*
X018368Y013076D02*
X020724Y013076D01*
X020773Y013125D02*
X018368Y013125D01*
X018368Y013173D02*
X020821Y013173D01*
X020870Y013222D02*
X018368Y013222D01*
X018368Y013270D02*
X020918Y013270D01*
X020967Y013319D02*
X018368Y013319D01*
X018368Y013367D02*
X021015Y013367D01*
X021064Y013416D02*
X018368Y013416D01*
X018368Y013464D02*
X021112Y013464D01*
X021161Y013513D02*
X018368Y013513D01*
X018368Y013561D02*
X021209Y013561D01*
X021258Y013610D02*
X018368Y013610D01*
X018368Y013658D02*
X021306Y013658D01*
X021343Y013707D02*
X018368Y013707D01*
X018368Y013755D02*
X021343Y013755D01*
X021343Y013804D02*
X018368Y013804D01*
X018368Y013852D02*
X021343Y013852D01*
X021343Y013901D02*
X018368Y013901D01*
X018368Y013949D02*
X021327Y013949D01*
X021311Y013998D02*
X018368Y013998D01*
X018368Y014046D02*
X021311Y014046D01*
X021311Y014095D02*
X018368Y014095D01*
X018368Y014143D02*
X021328Y014143D01*
X021343Y014192D02*
X018368Y014192D01*
X018368Y014240D02*
X021343Y014240D01*
X021343Y014289D02*
X018368Y014289D01*
X018368Y014337D02*
X021343Y014337D01*
X022443Y015598D02*
X019368Y015598D01*
X019368Y015647D02*
X022443Y015647D01*
X022443Y015695D02*
X019368Y015695D01*
X019368Y015744D02*
X022443Y015744D01*
X022443Y015792D02*
X019368Y015792D01*
X019368Y015841D02*
X022443Y015841D01*
X022443Y015889D02*
X019368Y015889D01*
X019368Y015938D02*
X022443Y015938D01*
X022443Y015986D02*
X019368Y015986D01*
X019368Y016035D02*
X022443Y016035D01*
X022443Y016083D02*
X019368Y016083D01*
X019368Y016132D02*
X022443Y016132D01*
X022443Y016180D02*
X019368Y016180D01*
X019368Y016229D02*
X022443Y016229D01*
X022443Y016277D02*
X019368Y016277D01*
X019368Y016326D02*
X022443Y016326D01*
X022443Y016374D02*
X019368Y016374D01*
X019368Y016423D02*
X022443Y016423D01*
X022443Y016471D02*
X019368Y016471D01*
X019368Y016520D02*
X022443Y016520D01*
X022443Y016568D02*
X019368Y016568D01*
X019368Y016617D02*
X022443Y016617D01*
X022443Y016665D02*
X019368Y016665D01*
X019368Y016714D02*
X022443Y016714D01*
X022443Y016762D02*
X019368Y016762D01*
X010493Y021295D02*
X010493Y021885D01*
X010493Y023095D02*
X010493Y023504D01*
D63*
X014293Y026795D02*
X014843Y026795D01*
X014843Y026395D01*
X015643Y026495D02*
X015643Y026895D01*
X016543Y026671D02*
X016543Y027345D01*
X016343Y027545D01*
X015681Y027545D01*
X015641Y027585D01*
X015651Y027595D01*
X015643Y027595D02*
X015643Y027995D01*
X014843Y028095D02*
X014843Y027645D01*
X014841Y027655D02*
X014841Y027695D01*
X014293Y027695D01*
X018393Y029848D02*
X018393Y030148D01*
X019541Y031295D01*
X020443Y031295D01*
X022025Y030319D02*
X022713Y030319D01*
X022713Y030315D01*
X022743Y030285D01*
X023193Y030285D01*
X023193Y030295D01*
X022743Y030285D02*
X022743Y030695D01*
X022743Y029605D02*
X022743Y029195D01*
X022743Y029605D02*
X023193Y029605D01*
X023193Y029595D01*
X025393Y029295D02*
X025803Y029295D01*
X025803Y029735D01*
X025793Y029745D01*
X026483Y029735D02*
X026483Y029295D01*
X026893Y029295D01*
X026576Y029202D02*
X026576Y028619D01*
X026576Y028245D02*
X026993Y028245D01*
X026576Y027871D02*
X026533Y027828D01*
X026533Y027195D01*
X026943Y027195D01*
X026533Y027195D02*
X026533Y026755D01*
X026543Y026745D01*
X025853Y026755D02*
X025853Y027195D01*
X025443Y027195D01*
X025853Y026755D02*
X025843Y026745D01*
X028193Y026045D02*
X028196Y026048D01*
X028633Y026048D01*
X028593Y026045D02*
X028593Y025495D01*
X028693Y026145D02*
X028693Y026845D01*
X028693Y026848D02*
X028703Y026848D01*
X028743Y026848D01*
X028693Y026848D02*
X028296Y026848D01*
X028293Y026845D01*
X029343Y026888D02*
X029383Y026848D01*
X029791Y026848D01*
X029793Y026845D01*
X029393Y026845D02*
X029393Y026145D01*
X029453Y026048D02*
X029891Y026048D01*
X029893Y026045D01*
X029493Y026045D02*
X029493Y025495D01*
X029993Y024545D02*
X029993Y024135D01*
X029453Y024135D01*
X029243Y024345D01*
X028443Y024295D02*
X028283Y024135D01*
X027693Y024135D01*
X027493Y024545D01*
X027693Y024135D02*
X027253Y024135D01*
X027243Y024145D01*
X027253Y023455D02*
X027693Y023455D01*
X027733Y023495D01*
X028243Y023495D01*
X028443Y023295D01*
X027693Y023455D02*
X027693Y023045D01*
X027253Y023455D02*
X027243Y023445D01*
X029993Y023445D02*
X029993Y023045D01*
X029993Y023445D02*
X029993Y023455D01*
X030743Y024154D02*
X032343Y025754D01*
X032343Y029892D01*
X032343Y029945D01*
X032343Y030135D01*
X031393Y030135D01*
X031353Y030135D01*
X031353Y030995D01*
X027944Y034404D01*
X027944Y034429D01*
X027993Y031295D02*
X027346Y031295D01*
X027343Y031298D01*
X027346Y031295D02*
X025143Y031295D01*
X026493Y029745D02*
X026483Y029735D01*
X026483Y029295D02*
X026501Y029293D01*
X026519Y029288D01*
X026535Y029279D01*
X026549Y029268D01*
X026560Y029254D01*
X026569Y029238D01*
X026574Y029220D01*
X026576Y029202D01*
X028543Y030045D02*
X028543Y030745D01*
X027993Y031295D01*
X028543Y030045D02*
X029041Y029548D01*
X029114Y029548D01*
X029303Y029359D02*
X029303Y029095D01*
X029322Y029076D01*
X030019Y029076D01*
X030393Y029076D02*
X030393Y029495D01*
X029303Y029095D02*
X029303Y028358D01*
X030393Y027345D02*
X030803Y027345D01*
X030803Y027342D01*
X030767Y027378D01*
X030767Y028014D01*
X030803Y027342D02*
X030803Y026542D01*
X030733Y026542D01*
X030733Y026495D01*
X030293Y026495D01*
X030733Y026542D02*
X030733Y026005D01*
X030743Y025995D01*
X031543Y025995D02*
X031553Y026005D01*
X031553Y026542D01*
X031553Y026545D01*
X031993Y026545D01*
X031543Y026545D02*
X031543Y026445D01*
X031543Y026545D02*
X031483Y026545D01*
X031483Y027342D01*
X031483Y027345D01*
X031893Y027345D01*
X030743Y024154D02*
X030743Y022055D01*
X030633Y021945D01*
X031693Y022045D02*
X032193Y022045D01*
X032193Y021595D01*
X032271Y022005D02*
X033043Y022005D01*
X033643Y021995D01*
X034217Y021995D01*
X033043Y022005D02*
X033043Y021595D01*
X032271Y022005D02*
X032243Y022032D01*
X032393Y022695D02*
X032243Y022845D01*
X031693Y022845D01*
X032243Y022852D02*
X032243Y023295D01*
X033043Y023095D02*
X033043Y022695D01*
X032393Y022695D01*
X033043Y022695D02*
X033043Y022685D01*
X037343Y022035D02*
X037393Y022005D01*
X037343Y022035D02*
X038193Y022035D01*
X038193Y022095D01*
X038693Y022095D01*
X038193Y022095D02*
X038193Y022445D01*
X038193Y022855D02*
X038193Y023295D01*
X037393Y023095D02*
X037393Y022685D01*
X039443Y021795D02*
X039443Y021405D01*
X039453Y021395D01*
X040133Y021395D02*
X040143Y021405D01*
X040143Y021795D01*
X040133Y021395D02*
X040293Y021395D01*
X040543Y021095D01*
X040343Y019545D02*
X040343Y019385D01*
X040103Y019145D01*
X040143Y019105D01*
X040143Y018745D01*
X040783Y018755D02*
X040783Y019145D01*
X040783Y019355D01*
X040693Y019445D01*
X040783Y018755D02*
X040793Y018745D01*
X042543Y021395D02*
X042993Y021395D01*
X044293Y021395D02*
X044693Y021395D01*
X044743Y021345D01*
X044793Y021845D02*
X044793Y022195D01*
X044743Y022245D01*
X044753Y022245D01*
X044743Y022245D02*
X044693Y022245D01*
X044593Y022145D01*
X044293Y022145D01*
X044593Y022195D02*
X044643Y022145D01*
X044593Y022195D02*
X044593Y022245D01*
X044693Y022245D01*
X044593Y022245D02*
X044593Y023045D01*
X044743Y023195D01*
X045062Y023195D01*
X045433Y022245D02*
X045243Y022055D01*
X045243Y021845D01*
X046125Y023569D02*
X046153Y023598D01*
X046153Y024145D01*
X045793Y024145D01*
X046143Y024155D02*
X046143Y025045D01*
X046143Y025645D01*
X046093Y025045D02*
X045693Y025045D01*
X046143Y024155D02*
X046153Y024145D01*
X046833Y024145D02*
X047193Y024145D01*
X047443Y025045D02*
X047893Y025045D01*
X047293Y025095D02*
X047293Y025645D01*
D64*
X025143Y031295D03*
X020443Y031295D03*
D65*
X018391Y029845D02*
X017793Y029845D01*
X017543Y029595D01*
X017543Y028719D01*
X017043Y028719D02*
X017043Y028045D01*
X017043Y028719D02*
X017043Y030045D01*
X017543Y035595D02*
X014243Y035595D01*
X013993Y035845D01*
X013993Y036895D01*
X013743Y037145D01*
X008743Y037145D01*
X008493Y036895D01*
X008493Y030755D01*
X009093Y030155D01*
X017543Y035595D02*
X017793Y035845D01*
X017793Y036895D01*
X018043Y037145D01*
X048793Y037145D01*
X049493Y036445D01*
X049493Y032995D01*
X049003Y032495D02*
X050193Y032495D01*
X050243Y032545D01*
X051543Y032545D02*
X052673Y032545D01*
X052693Y032565D01*
X047843Y030735D02*
X047843Y028995D01*
X048143Y028995D01*
X048393Y028745D01*
X048393Y028645D01*
X046943Y028495D02*
X045793Y028495D01*
X046553Y029835D02*
X046553Y031345D01*
X047233Y031345D02*
X047843Y030735D01*
X046093Y032565D02*
X044813Y032565D01*
X044793Y032545D01*
X039493Y032565D02*
X039473Y032545D01*
X038193Y032545D01*
X036343Y027425D02*
X036343Y026535D01*
X036345Y026517D01*
X036350Y026501D01*
X036358Y026485D01*
X036369Y026471D01*
X036383Y026460D01*
X036399Y026452D01*
X036415Y026447D01*
X036433Y026445D01*
X037153Y026445D01*
X037393Y022005D02*
X037343Y021995D01*
X036264Y021995D01*
X038331Y020995D02*
X038743Y020995D01*
X039743Y020270D02*
X039818Y020345D01*
X039818Y020320D01*
X039768Y020270D01*
X039818Y020345D02*
X040768Y020345D01*
X040643Y019545D02*
X040693Y019495D01*
X040693Y019445D01*
X030393Y023070D02*
X030018Y023445D01*
X029993Y023445D01*
X029993Y024095D02*
X030168Y024095D01*
X030468Y024395D01*
X029243Y024345D02*
X029243Y024635D01*
X029223Y024655D01*
X028463Y024655D02*
X028463Y024315D01*
X028443Y024295D01*
X028443Y023295D02*
X028463Y023275D01*
X028463Y022935D01*
X028713Y022935D01*
X028743Y026848D02*
X029043Y027148D01*
X029043Y027538D01*
X029303Y027538D02*
X029303Y026848D01*
X029383Y026848D01*
X029303Y026928D01*
X026533Y027195D02*
X026493Y027155D01*
X027243Y016145D02*
X027243Y013945D01*
X026243Y012945D01*
D66*
X026243Y012945D03*
X027243Y016145D03*
X027243Y020095D03*
X035493Y017445D03*
X035943Y017445D03*
X036393Y017445D03*
X036843Y017445D03*
X036843Y016995D03*
X036843Y016545D03*
X036843Y016095D03*
X036843Y015645D03*
X036843Y015195D03*
X036393Y015195D03*
X035943Y015195D03*
X035493Y015195D03*
X037293Y015195D03*
X037293Y015645D03*
X037293Y016095D03*
X037293Y016545D03*
X037293Y016995D03*
X037293Y017445D03*
X037743Y017445D03*
X037743Y016995D03*
X037743Y016545D03*
X037743Y016095D03*
X037743Y015645D03*
X037743Y015195D03*
X017043Y028045D03*
X016403Y017045D03*
D67*
X048393Y028645D03*
X050743Y028645D03*
X048943Y025045D03*
X053943Y011995D03*
D68*
X053943Y031345D03*
X052343Y031345D03*
D69*
X030493Y011195D03*
X030493Y008995D03*
X030243Y007945D03*
X031243Y007345D03*
X030243Y006545D03*
D70*
X038443Y018945D02*
X039768Y020270D01*
X048063Y028315D02*
X048393Y028645D01*
X027293Y020479D02*
X027293Y019495D01*
X027293Y020479D02*
X026728Y021045D01*
X025793Y021045D01*
X024783Y021045D01*
D71*
X046493Y012895D03*
X049443Y012895D03*
D72*
X053053Y012895D01*
X053053Y012995D01*
X053053Y026786D01*
X046493Y012895D02*
X048669Y010719D01*
X051770Y010719D01*
D73*
X053053Y012886D02*
X053943Y011995D01*
X053053Y012886D02*
X053053Y012995D01*
D74*
X039793Y020295D02*
X039768Y020270D01*
X022068Y014736D02*
X022068Y014520D01*
X021593Y014045D01*
X016935Y017045D02*
X016403Y017045D01*
X016578Y018570D02*
X016578Y019220D01*
X016578Y023436D01*
X017562Y024420D01*
X020168Y024420D01*
X020268Y024320D01*
X020268Y023670D01*
X020218Y023620D01*
D75*
X033827Y016345D02*
X033827Y012962D01*
X033793Y012995D02*
X033793Y012195D01*
X041293Y012995D02*
X041293Y009995D01*
X041293Y012995D02*
X041293Y016295D01*
X041643Y016645D01*
D76*
X032793Y011195D02*
X030493Y011195D01*
X030493Y008995D02*
X040293Y008995D01*
D77*
X041293Y009995D01*
X033793Y012195D02*
X032793Y011195D01*
D78*
X030493Y011195D02*
X027782Y011195D01*
X027243Y010656D01*
X027243Y010095D01*
X027243Y009095D01*
X028243Y009095D02*
X028243Y010095D01*
X028243Y009095D02*
X028243Y008995D01*
X030493Y008995D01*
D79*
X041643Y016645D02*
X041643Y016945D01*
X041693Y016995D01*
X042488Y016995D01*
D80*
X038443Y018945D02*
X035193Y018945D01*
X033827Y017578D01*
X033827Y016345D01*
X033793Y012995D02*
X033827Y012962D01*
D81*
X024103Y021045D02*
X023813Y021045D01*
X023449Y021409D01*
D82*
X021593Y014045D03*
M02*
