G75*
%MOIN*%
%OFA0B0*%
%FSLAX24Y24*%
%IPPOS*%
%LPD*%
%AMOC8*
5,1,8,0,0,1.08239X$1,22.5*
%
%ADD10C,0.0100*%
%ADD11R,0.0552X0.1064*%
%ADD12C,0.0434*%
%ADD13OC8,0.1145*%
%ADD14OC8,0.0780*%
%ADD15OC8,0.0740*%
%ADD16OC8,0.0611*%
%ADD17OC8,0.1175*%
%ADD18OC8,0.1700*%
%ADD19OC8,0.1405*%
%ADD20C,0.0710*%
%ADD21OC8,0.1504*%
%ADD22OC8,0.0680*%
%ADD23OC8,0.0552*%
%ADD24C,0.0650*%
%ADD25OC8,0.1261*%
%ADD26OC8,0.0730*%
%ADD27OC8,0.1346*%
D10*
X034393Y013945D02*
X034393Y031045D01*
X051493Y031045D01*
X051493Y013945D01*
X034393Y013945D01*
X034393Y013974D02*
X051493Y013974D01*
X051493Y014072D02*
X034393Y014072D01*
X034393Y014171D02*
X051493Y014171D01*
X051493Y014269D02*
X034393Y014269D01*
X034393Y014368D02*
X051493Y014368D01*
X051493Y014466D02*
X034393Y014466D01*
X034393Y014565D02*
X051493Y014565D01*
X051493Y014663D02*
X034393Y014663D01*
X034393Y014762D02*
X051493Y014762D01*
X051493Y014860D02*
X034393Y014860D01*
X034393Y014959D02*
X051493Y014959D01*
X051493Y015057D02*
X034393Y015057D01*
X034393Y015156D02*
X051493Y015156D01*
X051493Y015254D02*
X034393Y015254D01*
X034393Y015353D02*
X051493Y015353D01*
X051493Y015451D02*
X034393Y015451D01*
X034393Y015550D02*
X051493Y015550D01*
X051493Y015648D02*
X034393Y015648D01*
X034393Y015747D02*
X051493Y015747D01*
X051493Y015845D02*
X034393Y015845D01*
X034393Y015944D02*
X051493Y015944D01*
X051493Y016042D02*
X034393Y016042D01*
X034393Y016141D02*
X051493Y016141D01*
X051493Y016239D02*
X034393Y016239D01*
X034393Y016338D02*
X051493Y016338D01*
X051493Y016436D02*
X034393Y016436D01*
X034393Y016535D02*
X051493Y016535D01*
X051493Y016633D02*
X034393Y016633D01*
X034393Y016732D02*
X051493Y016732D01*
X051493Y016830D02*
X034393Y016830D01*
X034393Y016929D02*
X051493Y016929D01*
X051493Y017027D02*
X034393Y017027D01*
X034393Y017126D02*
X051493Y017126D01*
X051493Y017224D02*
X034393Y017224D01*
X034393Y017323D02*
X051493Y017323D01*
X051493Y017421D02*
X034393Y017421D01*
X034393Y017520D02*
X051493Y017520D01*
X051493Y017618D02*
X034393Y017618D01*
X034393Y017717D02*
X051493Y017717D01*
X051493Y017815D02*
X034393Y017815D01*
X034393Y017914D02*
X051493Y017914D01*
X051493Y018012D02*
X034393Y018012D01*
X034393Y018111D02*
X051493Y018111D01*
X051493Y018209D02*
X034393Y018209D01*
X034393Y018308D02*
X051493Y018308D01*
X051493Y018406D02*
X034393Y018406D01*
X034393Y018505D02*
X051493Y018505D01*
X051493Y018603D02*
X034393Y018603D01*
X034393Y018702D02*
X051493Y018702D01*
X051493Y018800D02*
X034393Y018800D01*
X034393Y018899D02*
X051493Y018899D01*
X051493Y018997D02*
X034393Y018997D01*
X034393Y019096D02*
X051493Y019096D01*
X051493Y019194D02*
X034393Y019194D01*
X034393Y019293D02*
X051493Y019293D01*
X051493Y019391D02*
X034393Y019391D01*
X034393Y019490D02*
X051493Y019490D01*
X051493Y019588D02*
X034393Y019588D01*
X034393Y019687D02*
X051493Y019687D01*
X051493Y019785D02*
X034393Y019785D01*
X034393Y019884D02*
X051493Y019884D01*
X051493Y019982D02*
X034393Y019982D01*
X034393Y020081D02*
X051493Y020081D01*
X051493Y020179D02*
X034393Y020179D01*
X034393Y020278D02*
X051493Y020278D01*
X051493Y020376D02*
X034393Y020376D01*
X034393Y020475D02*
X051493Y020475D01*
X051493Y020573D02*
X034393Y020573D01*
X034393Y020672D02*
X051493Y020672D01*
X051493Y020770D02*
X034393Y020770D01*
X034393Y020869D02*
X051493Y020869D01*
X051493Y020967D02*
X034393Y020967D01*
X034393Y021066D02*
X051493Y021066D01*
X051493Y021164D02*
X034393Y021164D01*
X034393Y021263D02*
X051493Y021263D01*
X051493Y021361D02*
X034393Y021361D01*
X034393Y021460D02*
X051493Y021460D01*
X051493Y021558D02*
X034393Y021558D01*
X034393Y021657D02*
X051493Y021657D01*
X051493Y021755D02*
X034393Y021755D01*
X034393Y021854D02*
X051493Y021854D01*
X051493Y021952D02*
X034393Y021952D01*
X034393Y022051D02*
X051493Y022051D01*
X051493Y022149D02*
X034393Y022149D01*
X034393Y022248D02*
X051493Y022248D01*
X051493Y022346D02*
X034393Y022346D01*
X034393Y022445D02*
X051493Y022445D01*
X051493Y022543D02*
X034393Y022543D01*
X034393Y022642D02*
X051493Y022642D01*
X051493Y022740D02*
X034393Y022740D01*
X034393Y022839D02*
X051493Y022839D01*
X051493Y022937D02*
X034393Y022937D01*
X034393Y023036D02*
X051493Y023036D01*
X051493Y023134D02*
X034393Y023134D01*
X034393Y023233D02*
X051493Y023233D01*
X051493Y023331D02*
X034393Y023331D01*
X034393Y023430D02*
X051493Y023430D01*
X051493Y023528D02*
X034393Y023528D01*
X034393Y023627D02*
X051493Y023627D01*
X051493Y023725D02*
X034393Y023725D01*
X034393Y023824D02*
X051493Y023824D01*
X051493Y023922D02*
X034393Y023922D01*
X034393Y024021D02*
X051493Y024021D01*
X051493Y024119D02*
X034393Y024119D01*
X034393Y024218D02*
X051493Y024218D01*
X051493Y024316D02*
X034393Y024316D01*
X034393Y024415D02*
X051493Y024415D01*
X051493Y024513D02*
X034393Y024513D01*
X034393Y024612D02*
X051493Y024612D01*
X051493Y024710D02*
X034393Y024710D01*
X034393Y024809D02*
X051493Y024809D01*
X051493Y024907D02*
X034393Y024907D01*
X034393Y025006D02*
X051493Y025006D01*
X051493Y025104D02*
X034393Y025104D01*
X034393Y025203D02*
X051493Y025203D01*
X051493Y025301D02*
X034393Y025301D01*
X034393Y025400D02*
X051493Y025400D01*
X051493Y025498D02*
X034393Y025498D01*
X034393Y025597D02*
X051493Y025597D01*
X051493Y025695D02*
X034393Y025695D01*
X034393Y025794D02*
X051493Y025794D01*
X051493Y025892D02*
X034393Y025892D01*
X034393Y025991D02*
X051493Y025991D01*
X051493Y026089D02*
X034393Y026089D01*
X034393Y026188D02*
X051493Y026188D01*
X051493Y026286D02*
X034393Y026286D01*
X034393Y026385D02*
X051493Y026385D01*
X051493Y026483D02*
X034393Y026483D01*
X034393Y026582D02*
X051493Y026582D01*
X051493Y026680D02*
X034393Y026680D01*
X034393Y026779D02*
X051493Y026779D01*
X051493Y026877D02*
X034393Y026877D01*
X034393Y026976D02*
X051493Y026976D01*
X051493Y027074D02*
X034393Y027074D01*
X034393Y027173D02*
X051493Y027173D01*
X051493Y027271D02*
X034393Y027271D01*
X034393Y027370D02*
X051493Y027370D01*
X051493Y027468D02*
X034393Y027468D01*
X034393Y027567D02*
X051493Y027567D01*
X051493Y027665D02*
X034393Y027665D01*
X034393Y027764D02*
X051493Y027764D01*
X051493Y027862D02*
X034393Y027862D01*
X034393Y027961D02*
X051493Y027961D01*
X051493Y028059D02*
X034393Y028059D01*
X034393Y028158D02*
X051493Y028158D01*
X051493Y028256D02*
X034393Y028256D01*
X034393Y028355D02*
X051493Y028355D01*
X051493Y028453D02*
X034393Y028453D01*
X034393Y028552D02*
X051493Y028552D01*
X051493Y028650D02*
X034393Y028650D01*
X034393Y028749D02*
X051493Y028749D01*
X051493Y028847D02*
X034393Y028847D01*
X034393Y028946D02*
X051493Y028946D01*
X051493Y029044D02*
X034393Y029044D01*
X034393Y029143D02*
X051493Y029143D01*
X051493Y029241D02*
X034393Y029241D01*
X034393Y029340D02*
X051493Y029340D01*
X051493Y029438D02*
X034393Y029438D01*
X034393Y029537D02*
X051493Y029537D01*
X051493Y029635D02*
X034393Y029635D01*
X034393Y029734D02*
X051493Y029734D01*
X051493Y029832D02*
X034393Y029832D01*
X034393Y029931D02*
X051493Y029931D01*
X051493Y030029D02*
X034393Y030029D01*
X034393Y030128D02*
X051493Y030128D01*
X051493Y030226D02*
X034393Y030226D01*
X034393Y030325D02*
X051493Y030325D01*
X051493Y030423D02*
X034393Y030423D01*
X034393Y030522D02*
X051493Y030522D01*
X051493Y030620D02*
X034393Y030620D01*
X034393Y030719D02*
X051493Y030719D01*
X051493Y030817D02*
X034393Y030817D01*
X034393Y030916D02*
X051493Y030916D01*
X051493Y031014D02*
X034393Y031014D01*
D11*
X036559Y007778D03*
X037543Y007778D03*
X038528Y007778D03*
X045809Y007778D03*
X046793Y007778D03*
X047778Y007778D03*
D12*
X048132Y006695D03*
X045455Y006695D03*
X038882Y006695D03*
X036205Y006695D03*
D13*
X020843Y007805D03*
X017843Y007805D03*
X014193Y007805D03*
X011193Y007805D03*
X031393Y035635D03*
X034393Y035635D03*
X037993Y035635D03*
X040993Y035635D03*
X044593Y035635D03*
X047593Y035635D03*
X051193Y035635D03*
X054193Y035635D03*
D14*
X052693Y032565D03*
X046093Y032565D03*
X039493Y032565D03*
X032893Y032565D03*
X019343Y010875D03*
X012693Y010875D03*
D15*
X024243Y010095D03*
X024243Y009095D03*
X025243Y009095D03*
X026243Y009095D03*
X026243Y010095D03*
X025243Y010095D03*
X027243Y010095D03*
X027243Y009095D03*
X028243Y009095D03*
X028243Y010095D03*
X052282Y026918D03*
X053282Y026918D03*
X053282Y027918D03*
X052282Y027918D03*
X052282Y028918D03*
X053282Y028918D03*
X053282Y029918D03*
X052282Y029918D03*
D16*
X022793Y035595D03*
X021793Y035595D03*
X020793Y035595D03*
D17*
X016873Y036495D03*
X014873Y036495D03*
X014023Y031495D03*
X015873Y031495D03*
X017723Y031495D03*
X033793Y012995D03*
X033793Y006995D03*
X041293Y006995D03*
X041293Y012995D03*
D18*
X051770Y010719D03*
D19*
X051770Y008357D03*
D20*
X051770Y007176D03*
D21*
X053541Y007965D03*
X049998Y007965D03*
D22*
X011693Y031995D03*
X011693Y032995D03*
X011693Y033995D03*
X011693Y034995D03*
X009593Y034995D03*
X009593Y033995D03*
X009593Y032995D03*
X009593Y031995D03*
D23*
X035803Y031495D03*
X035803Y032495D03*
X035803Y033495D03*
X036803Y034495D03*
X035803Y035495D03*
X049003Y035495D03*
X050003Y034495D03*
X049003Y033495D03*
X049003Y032495D03*
X049003Y031495D03*
D24*
X015693Y019595D03*
X015693Y018595D03*
X015693Y017595D03*
X015693Y016595D03*
X015693Y015595D03*
X015693Y014595D03*
X015693Y013595D03*
X015693Y012595D03*
X015693Y011595D03*
X014693Y011595D03*
X014693Y010595D03*
X015693Y010595D03*
X015693Y009595D03*
X015693Y008595D03*
X015693Y007595D03*
X015693Y006595D03*
X009693Y006595D03*
X009693Y007595D03*
X009693Y008595D03*
X009693Y009595D03*
X009693Y010595D03*
X009693Y011595D03*
X009693Y012595D03*
X009693Y013595D03*
X009693Y014595D03*
X009693Y015595D03*
X009693Y016595D03*
X009693Y017595D03*
X009693Y018595D03*
X009693Y019595D03*
X012693Y018595D03*
X013693Y018595D03*
X013693Y017595D03*
X012693Y017595D03*
X012693Y016595D03*
X013693Y016595D03*
X013693Y015595D03*
X012693Y015595D03*
X012693Y014595D03*
X013693Y014595D03*
X013693Y013595D03*
X012693Y013595D03*
X012693Y012595D03*
X013693Y012595D03*
D25*
X052343Y031345D03*
X053943Y031345D03*
D26*
X008543Y006595D03*
X030243Y006545D03*
X031243Y007345D03*
X030243Y007945D03*
X030493Y008995D03*
X030493Y011195D03*
X034943Y019345D03*
X029043Y032545D03*
X019493Y033545D03*
X012843Y032845D03*
X012893Y036495D03*
X041093Y032645D03*
X042693Y036495D03*
D27*
X046493Y012895D03*
X049443Y012895D03*
M02*
