G75*
G70*
%OFA0B0*%
%FSLAX24Y24*%
%IPPOS*%
%LPD*%
%AMOC8*
5,1,8,0,0,1.08239X$1,22.5*
%
%ADD10C,0.0100*%
%ADD11C,0.0030*%
%ADD12C,0.0040*%
%ADD13C,0.0060*%
%ADD14C,0.0050*%
%ADD15R,0.0320X0.0760*%
%ADD16C,0.0120*%
%ADD17C,0.0080*%
%ADD18C,0.0070*%
%ADD19R,0.0250X0.0500*%
%ADD20R,0.0100X0.0200*%
%ADD21C,0.0020*%
%ADD22R,0.0300X0.0250*%
%ADD23R,0.0500X0.1100*%
D10*
X044503Y004051D02*
X044533Y004003D01*
X044566Y003958D01*
X044602Y003915D01*
X044640Y003874D01*
X044682Y003837D01*
X044726Y003802D01*
X044772Y003771D01*
X044821Y003742D01*
X044871Y003718D01*
X044923Y003697D01*
X044977Y003679D01*
X045031Y003666D01*
X045086Y003656D01*
X045142Y003650D01*
X045198Y003648D01*
X044492Y004824D02*
X044519Y004871D01*
X044549Y004916D01*
X044582Y004959D01*
X044618Y004999D01*
X044657Y005037D01*
X044698Y005072D01*
X044741Y005105D01*
X044786Y005134D01*
X044834Y005160D01*
X044883Y005183D01*
X044933Y005203D01*
X044984Y005219D01*
X045037Y005232D01*
X045090Y005241D01*
X045144Y005246D01*
X045198Y005248D01*
X045809Y003931D02*
X045773Y003892D01*
X045734Y003854D01*
X045694Y003820D01*
X045651Y003788D01*
X045606Y003760D01*
X045559Y003734D01*
X045510Y003711D01*
X045460Y003692D01*
X045409Y003676D01*
X045357Y003664D01*
X045305Y003655D01*
X045251Y003650D01*
X045198Y003648D01*
X045813Y004960D02*
X045777Y005000D01*
X045738Y005038D01*
X045697Y005073D01*
X045654Y005105D01*
X045609Y005135D01*
X045562Y005161D01*
X045513Y005183D01*
X045462Y005203D01*
X045411Y005219D01*
X045359Y005232D01*
X045305Y005241D01*
X045252Y005246D01*
X045198Y005248D01*
X047573Y013448D02*
X047698Y013573D01*
X047823Y013448D01*
X047698Y013573D02*
X047698Y015198D01*
X047448Y015573D01*
X047448Y015698D01*
X047323Y015698D01*
X047198Y015823D01*
X047198Y015948D01*
X046948Y015948D01*
X047198Y016073D02*
X047198Y016198D01*
X046948Y016323D01*
X047198Y016073D02*
X047323Y016073D01*
X047448Y015948D01*
X047448Y015823D01*
X047573Y015823D01*
X047573Y015698D01*
X047698Y015698D01*
X047698Y015823D01*
X047573Y015948D01*
X047698Y016073D01*
X047698Y016198D01*
X047823Y016323D01*
X047948Y016448D01*
X047823Y016323D02*
X047698Y016448D01*
X048073Y016073D02*
X048198Y016073D01*
X048198Y016198D01*
X048323Y016323D01*
X048073Y016073D02*
X047948Y015948D01*
X047948Y015823D01*
X047823Y015823D01*
X047823Y015698D01*
X047948Y015573D01*
X047948Y015698D01*
X048073Y015698D01*
X048198Y015823D01*
X048198Y015948D01*
X048323Y015948D01*
X048323Y015573D02*
X048198Y015573D01*
X048073Y015448D01*
X047948Y015448D01*
X047948Y015323D02*
X047823Y015323D01*
X047698Y015198D02*
X047948Y015573D01*
X047823Y015698D02*
X047698Y015698D01*
X047573Y015698D02*
X047448Y015573D01*
X047448Y015448D02*
X047323Y015448D01*
X047198Y015573D01*
X046948Y015573D01*
X047448Y015323D02*
X047573Y015323D01*
D11*
X048688Y014571D02*
X049058Y014571D01*
X049058Y014449D02*
X049058Y014264D01*
X048997Y014203D01*
X048873Y014203D01*
X048812Y014264D01*
X048812Y014449D01*
X048873Y014571D02*
X048812Y014633D01*
X048812Y014756D01*
X048873Y014818D01*
X049058Y014818D01*
X048935Y014081D02*
X048935Y013834D01*
X048997Y013834D02*
X048873Y013834D01*
X048812Y013896D01*
X048812Y014019D01*
X048873Y014081D01*
X048935Y014081D01*
X049058Y014019D02*
X049058Y013896D01*
X048997Y013834D01*
X049058Y013589D02*
X048688Y013589D01*
X048688Y013466D02*
X048688Y013713D01*
X048873Y012976D02*
X049058Y012976D01*
X049058Y012791D01*
X048997Y012729D01*
X048935Y012791D01*
X048935Y012976D01*
X048873Y012976D02*
X048812Y012914D01*
X048812Y012791D01*
X048812Y012545D02*
X049058Y012545D01*
X049058Y012484D02*
X049058Y012607D01*
X049058Y012362D02*
X049058Y012177D01*
X048997Y012115D01*
X048873Y012115D01*
X048812Y012177D01*
X048812Y012362D01*
X049120Y012362D01*
X049182Y012301D01*
X049182Y012239D01*
X048812Y012484D02*
X048812Y012545D01*
X048688Y012545D02*
X048626Y012545D01*
X048183Y012485D02*
X048183Y012238D01*
X048183Y012362D02*
X047813Y012362D01*
X047937Y012238D01*
X047875Y012117D02*
X048122Y011870D01*
X048183Y011932D01*
X048183Y012055D01*
X048122Y012117D01*
X047875Y012117D01*
X047813Y012055D01*
X047813Y011932D01*
X047875Y011870D01*
X048122Y011870D01*
X048183Y011748D02*
X048183Y011502D01*
X047937Y011748D01*
X047875Y011748D01*
X047813Y011687D01*
X047813Y011563D01*
X047875Y011502D01*
X047308Y011441D02*
X047308Y011318D01*
X047247Y011256D01*
X047123Y011256D01*
X047062Y011318D01*
X047062Y011441D01*
X047123Y011503D01*
X047185Y011503D01*
X047185Y011256D01*
X047308Y011134D02*
X047308Y011010D01*
X047308Y011072D02*
X046938Y011072D01*
X046938Y011010D01*
X047062Y010889D02*
X047308Y010889D01*
X047308Y010704D01*
X047247Y010642D01*
X047062Y010642D01*
X047062Y010521D02*
X047062Y010336D01*
X047123Y010274D01*
X047247Y010274D01*
X047308Y010336D01*
X047308Y010521D01*
X046938Y010521D01*
X047123Y010152D02*
X047062Y010091D01*
X047062Y009967D01*
X047123Y009906D01*
X047247Y009906D01*
X047308Y009967D01*
X047308Y010091D01*
X047247Y010152D01*
X047123Y010152D01*
X046938Y009784D02*
X047308Y009784D01*
X047308Y009537D02*
X046938Y009537D01*
X047062Y009661D01*
X046938Y009784D01*
X047937Y009845D02*
X047998Y009907D01*
X048183Y009907D01*
X048183Y009722D01*
X048122Y009660D01*
X048060Y009722D01*
X048060Y009907D01*
X047937Y009845D02*
X047937Y009722D01*
X047998Y009539D02*
X048183Y009539D01*
X048183Y009415D02*
X047998Y009415D01*
X047937Y009477D01*
X047998Y009539D01*
X047998Y009415D02*
X047937Y009353D01*
X047937Y009292D01*
X048183Y009292D01*
X048122Y009170D02*
X047937Y009170D01*
X048122Y009170D02*
X048183Y009108D01*
X048122Y009047D01*
X048183Y008985D01*
X048122Y008923D01*
X047937Y008923D01*
X047998Y008802D02*
X048060Y008802D01*
X048060Y008555D01*
X048122Y008555D02*
X047998Y008555D01*
X047937Y008617D01*
X047937Y008740D01*
X047998Y008802D01*
X048183Y008740D02*
X048183Y008617D01*
X048122Y008555D01*
X048183Y008434D02*
X047813Y008434D01*
X047813Y008187D02*
X048183Y008434D01*
X048183Y008187D02*
X047813Y008187D01*
X047432Y008432D02*
X047062Y008432D01*
X047062Y008617D01*
X047123Y008679D01*
X047247Y008679D01*
X047308Y008617D01*
X047308Y008432D01*
X047247Y008311D02*
X047123Y008311D01*
X047062Y008249D01*
X047062Y008126D01*
X047123Y008064D01*
X047247Y008064D01*
X047308Y008126D01*
X047308Y008249D01*
X047247Y008311D01*
X047308Y007942D02*
X047308Y007818D01*
X047308Y007880D02*
X046938Y007880D01*
X046938Y007818D01*
X047062Y007697D02*
X047062Y007512D01*
X047123Y007450D01*
X047247Y007450D01*
X047308Y007512D01*
X047308Y007697D01*
X047308Y007329D02*
X047308Y007143D01*
X047247Y007082D01*
X047062Y007082D01*
X047000Y006960D02*
X046938Y006899D01*
X046938Y006775D01*
X047000Y006713D01*
X047247Y006713D01*
X047308Y006775D01*
X047308Y006899D01*
X047247Y006960D01*
X047432Y007205D02*
X047432Y007267D01*
X047370Y007329D01*
X047062Y007329D01*
X047813Y006960D02*
X047813Y006837D01*
X047813Y006899D02*
X048122Y006899D01*
X048183Y006837D01*
X048183Y006775D01*
X048122Y006713D01*
X048122Y007082D02*
X048183Y007143D01*
X048183Y007267D01*
X048122Y007329D01*
X047998Y007329D01*
X047937Y007267D01*
X047937Y007143D01*
X047998Y007082D01*
X048122Y007082D01*
X048183Y007450D02*
X047937Y007450D01*
X047937Y007635D01*
X047998Y007697D01*
X048183Y007697D01*
X048750Y007757D02*
X048997Y007757D01*
X049058Y007819D01*
X048997Y007941D02*
X048873Y007941D01*
X048812Y008003D01*
X048812Y008126D01*
X048873Y008188D01*
X048935Y008188D01*
X048935Y007941D01*
X048997Y007941D02*
X049058Y008003D01*
X049058Y008126D01*
X049058Y008309D02*
X048812Y008309D01*
X048935Y008309D02*
X048812Y008433D01*
X048812Y008495D01*
X048688Y008985D02*
X049058Y008985D01*
X049058Y009232D01*
X048997Y009353D02*
X048935Y009415D01*
X048935Y009600D01*
X048873Y009600D02*
X049058Y009600D01*
X049058Y009415D01*
X048997Y009353D01*
X048812Y009415D02*
X048812Y009538D01*
X048873Y009600D01*
X048812Y009721D02*
X048812Y009907D01*
X048873Y009968D01*
X048997Y009968D01*
X049058Y009907D01*
X049058Y009721D01*
X048688Y009721D01*
X048997Y010151D02*
X049058Y010151D01*
X049058Y010213D01*
X048997Y010213D01*
X048997Y010151D01*
X049058Y010213D02*
X049182Y010090D01*
X048997Y010704D02*
X049058Y010765D01*
X049058Y010889D01*
X048997Y010950D01*
X048873Y010950D01*
X048873Y010827D01*
X048750Y010950D02*
X048688Y010889D01*
X048688Y010765D01*
X048750Y010704D01*
X048997Y010704D01*
X048997Y011072D02*
X048873Y011072D01*
X048812Y011134D01*
X048812Y011257D01*
X048873Y011319D01*
X048935Y011319D01*
X048935Y011072D01*
X048997Y011072D02*
X049058Y011134D01*
X049058Y011257D01*
X048997Y011440D02*
X049058Y011502D01*
X049058Y011625D01*
X048997Y011687D01*
X048873Y011687D01*
X048812Y011625D01*
X048812Y011502D01*
X048873Y011440D01*
X048997Y011440D01*
X049058Y011808D02*
X048812Y011808D01*
X048935Y011808D02*
X048812Y011932D01*
X048812Y011994D01*
X048183Y012668D02*
X048122Y012606D01*
X048183Y012668D02*
X048183Y012792D01*
X048122Y012853D01*
X048060Y012853D01*
X047998Y012792D01*
X047998Y012730D01*
X047998Y012792D02*
X047937Y012853D01*
X047875Y012853D01*
X047813Y012792D01*
X047813Y012668D01*
X047875Y012606D01*
X047308Y012546D02*
X047308Y012300D01*
X047062Y012546D01*
X047000Y012546D01*
X046938Y012485D01*
X046938Y012361D01*
X047000Y012300D01*
X047062Y012178D02*
X047062Y012116D01*
X047185Y011993D01*
X047308Y011993D02*
X047062Y011993D01*
X047062Y012668D02*
X047062Y012853D01*
X047123Y012915D01*
X047247Y012915D01*
X047308Y012853D01*
X047308Y012668D01*
X046938Y012668D01*
X047998Y011012D02*
X047998Y010765D01*
X047998Y010275D02*
X048183Y010275D01*
X047998Y010275D02*
X047937Y010213D01*
X047937Y010028D01*
X048183Y010028D01*
X047247Y009047D02*
X047185Y008986D01*
X047185Y008862D01*
X047123Y008801D01*
X047062Y008862D01*
X047062Y009047D01*
X047247Y009047D02*
X047308Y008986D01*
X047308Y008801D01*
X048812Y007819D02*
X048812Y007696D01*
X048812Y007574D02*
X048812Y007450D01*
X048750Y007512D02*
X048997Y007512D01*
X049058Y007574D01*
X048997Y007329D02*
X048873Y007329D01*
X048812Y007267D01*
X048812Y007143D01*
X048873Y007082D01*
X048997Y007082D01*
X049058Y007143D01*
X049058Y007267D01*
X048997Y007329D01*
X048873Y006960D02*
X048935Y006899D01*
X048935Y006713D01*
X049058Y006713D02*
X048688Y006713D01*
X048688Y006899D01*
X048750Y006960D01*
X048873Y006960D01*
X049063Y017463D02*
X049433Y017463D01*
X049433Y017710D01*
X049433Y017832D02*
X049063Y018079D01*
X049063Y018200D02*
X049063Y018447D01*
X049063Y018324D02*
X049433Y018324D01*
X049433Y018079D02*
X049063Y017832D01*
X049063Y017710D02*
X049063Y017463D01*
X049248Y017463D02*
X049248Y017587D01*
X049495Y018568D02*
X049495Y018815D01*
X049372Y018937D02*
X049433Y018998D01*
X049433Y019122D01*
X049372Y019184D01*
X049125Y019184D02*
X049063Y019122D01*
X049063Y018998D01*
X049125Y018937D01*
X049372Y018937D01*
X049063Y019305D02*
X049063Y019552D01*
X049063Y019673D02*
X049433Y019673D01*
X049433Y019920D01*
X049495Y020042D02*
X049495Y020289D01*
X049433Y020410D02*
X049063Y020410D01*
X049248Y020472D02*
X049433Y020657D01*
X049310Y020410D02*
X049063Y020657D01*
X049063Y019428D02*
X049433Y019428D01*
X022908Y029040D02*
X022908Y029287D01*
X022847Y029349D01*
X022661Y029349D01*
X022661Y028978D01*
X022847Y028978D01*
X022908Y029040D01*
X022540Y028978D02*
X022540Y029349D01*
X022293Y029349D02*
X022293Y028978D01*
X022172Y029040D02*
X022172Y029164D01*
X022048Y029164D01*
X021925Y029287D02*
X021925Y029040D01*
X021987Y028978D01*
X022110Y028978D01*
X022172Y029040D01*
X022172Y029287D02*
X022110Y029349D01*
X021987Y029349D01*
X021925Y029287D01*
X022293Y029349D02*
X022540Y028978D01*
X021435Y029102D02*
X021435Y029349D01*
X021188Y029349D02*
X021188Y029102D01*
X021312Y028978D01*
X021435Y029102D01*
X021067Y029225D02*
X021067Y029287D01*
X021005Y029349D01*
X020882Y029349D01*
X020820Y029287D01*
X020575Y029349D02*
X020575Y028978D01*
X020452Y028978D02*
X020698Y028978D01*
X020820Y028978D02*
X021067Y029225D01*
X021067Y028978D02*
X020820Y028978D01*
X020452Y029225D02*
X020575Y029349D01*
X019962Y029164D02*
X019715Y029164D01*
X019593Y029287D02*
X019532Y029349D01*
X019347Y029349D01*
X019347Y028978D01*
X019532Y028978D01*
X019593Y029040D01*
X019593Y029287D01*
X019225Y029349D02*
X018978Y029349D01*
X018978Y028978D01*
X019225Y028978D01*
X019102Y029164D02*
X018978Y029164D01*
X018857Y028978D02*
X018610Y028978D01*
X018610Y029349D01*
X018120Y029164D02*
X017873Y029164D01*
X017752Y029287D02*
X017752Y029040D01*
X017690Y028978D01*
X017505Y028978D01*
X017505Y029349D01*
X017690Y029349D01*
X017752Y029287D01*
X017997Y029287D02*
X017997Y029040D01*
X017384Y028978D02*
X017137Y028978D01*
X017137Y029349D01*
X017384Y029349D01*
X017260Y029164D02*
X017137Y029164D01*
X017015Y028978D02*
X016768Y028978D01*
X016768Y029349D01*
D12*
X017178Y027782D02*
X017178Y027475D01*
X017178Y027628D02*
X016718Y027628D01*
X016871Y027475D01*
X016795Y027321D02*
X016718Y027244D01*
X016718Y027014D01*
X017178Y027014D01*
X017178Y027244D01*
X017102Y027321D01*
X016795Y027321D01*
X016718Y026861D02*
X017178Y026861D01*
X016718Y026554D01*
X017178Y026554D01*
X017102Y026400D02*
X016948Y026400D01*
X016948Y026247D01*
X016795Y026400D02*
X016718Y026324D01*
X016718Y026170D01*
X016795Y026093D01*
X017102Y026093D01*
X017178Y026170D01*
X017178Y026324D01*
X017102Y026400D01*
X018246Y025929D02*
X018246Y025468D01*
X018553Y025468D01*
X018706Y025468D02*
X019013Y025468D01*
X019166Y025468D02*
X019397Y025468D01*
X019473Y025545D01*
X019473Y025852D01*
X019397Y025929D01*
X019166Y025929D01*
X019166Y025468D01*
X018860Y025699D02*
X018706Y025699D01*
X018706Y025929D02*
X018706Y025468D01*
X018706Y025929D02*
X019013Y025929D01*
X019627Y025392D02*
X019934Y025392D01*
X020087Y025545D02*
X020164Y025468D01*
X020317Y025468D01*
X020394Y025545D01*
X020394Y025852D01*
X020317Y025929D01*
X020164Y025929D01*
X020087Y025852D01*
X020087Y025545D01*
X020548Y025545D02*
X020624Y025468D01*
X020778Y025468D01*
X020855Y025545D01*
X020855Y025929D01*
X021008Y025929D02*
X021315Y025929D01*
X021161Y025929D02*
X021161Y025468D01*
X020548Y025545D02*
X020548Y025929D01*
X024968Y026343D02*
X025428Y026343D01*
X025428Y026650D01*
X025428Y026804D02*
X025428Y027111D01*
X025428Y027264D02*
X024968Y027264D01*
X024968Y027494D01*
X025045Y027571D01*
X025352Y027571D01*
X025428Y027494D01*
X025428Y027264D01*
X025198Y026957D02*
X025198Y026804D01*
X024968Y026804D02*
X025428Y026804D01*
X024968Y026804D02*
X024968Y027111D01*
X025198Y027725D02*
X025198Y028032D01*
X025045Y027878D02*
X025352Y027878D01*
X028968Y027494D02*
X028968Y027264D01*
X029428Y027264D01*
X029428Y027494D01*
X029352Y027571D01*
X029045Y027571D01*
X028968Y027494D01*
X029198Y027725D02*
X029198Y028032D01*
X028968Y027111D02*
X028968Y026804D01*
X029428Y026804D01*
X029428Y027111D01*
X029198Y026957D02*
X029198Y026804D01*
X029428Y026650D02*
X029428Y026343D01*
X028968Y026343D01*
X032968Y026957D02*
X033428Y026957D01*
X033428Y026804D02*
X033428Y027111D01*
X033428Y027264D02*
X033121Y027571D01*
X033045Y027571D01*
X032968Y027494D01*
X032968Y027341D01*
X033045Y027264D01*
X032968Y026957D02*
X033121Y026804D01*
X033198Y026650D02*
X033198Y026343D01*
X033045Y026497D02*
X033352Y026497D01*
X033428Y027264D02*
X033428Y027571D01*
X033275Y027725D02*
X033428Y027878D01*
X033275Y028032D01*
X032968Y028032D01*
X032968Y027725D02*
X033275Y027725D01*
X036968Y027619D02*
X036968Y027389D01*
X037428Y027389D01*
X037428Y027619D01*
X037352Y027696D01*
X037045Y027696D01*
X036968Y027619D01*
X037045Y027850D02*
X036968Y027926D01*
X036968Y028080D01*
X037045Y028157D01*
X037121Y028157D01*
X037428Y027850D01*
X037428Y028157D01*
X038343Y028157D02*
X038727Y028157D01*
X038803Y028080D01*
X038803Y027926D01*
X038727Y027850D01*
X038343Y027850D01*
X038496Y027696D02*
X038803Y027696D01*
X038573Y027696D02*
X038573Y027389D01*
X038496Y027389D02*
X038343Y027543D01*
X038496Y027696D01*
X038496Y027389D02*
X038803Y027389D01*
X038880Y027236D02*
X038880Y026929D01*
X038650Y026775D02*
X038343Y026775D01*
X038343Y026468D02*
X038650Y026468D01*
X038803Y026622D01*
X038650Y026775D01*
X037428Y026699D02*
X037428Y026545D01*
X037352Y026468D01*
X037045Y026468D01*
X036968Y026545D01*
X036968Y026699D01*
X037045Y026775D01*
X037198Y026775D02*
X037198Y026622D01*
X037198Y026775D02*
X037352Y026775D01*
X037428Y026699D01*
X037428Y026929D02*
X036968Y026929D01*
X037428Y027236D01*
X036968Y027236D01*
X038343Y028310D02*
X038803Y028617D01*
X038803Y028310D02*
X038343Y028617D01*
X035111Y020559D02*
X035051Y020499D01*
X035051Y020318D01*
X035171Y020318D02*
X035171Y020499D01*
X035111Y020559D01*
X035051Y020499D02*
X034991Y020559D01*
X034931Y020559D01*
X034931Y020318D01*
X034802Y020318D02*
X034802Y020499D01*
X034742Y020559D01*
X034682Y020499D01*
X034682Y020318D01*
X034562Y020318D02*
X034562Y020559D01*
X034622Y020559D01*
X034682Y020499D01*
X034434Y020499D02*
X034434Y020379D01*
X034374Y020318D01*
X034254Y020318D01*
X034194Y020379D01*
X034194Y020499D02*
X034314Y020559D01*
X034374Y020559D01*
X034434Y020499D01*
X034434Y020679D02*
X034194Y020679D01*
X034194Y020499D01*
X034068Y020379D02*
X034008Y020379D01*
X034008Y020318D01*
X034068Y020318D01*
X034068Y020379D01*
X034068Y020318D02*
X033948Y020198D01*
X033580Y020318D02*
X033580Y020379D01*
X033820Y020619D01*
X033820Y020679D01*
X033580Y020679D01*
X033332Y020679D02*
X033332Y020318D01*
X033212Y020318D02*
X033452Y020318D01*
X033212Y020559D02*
X033332Y020679D01*
X033084Y020559D02*
X033084Y020318D01*
X033084Y020499D02*
X032843Y020499D01*
X032843Y020559D02*
X032964Y020679D01*
X033084Y020559D01*
X032843Y020559D02*
X032843Y020318D01*
X041633Y011079D02*
X041753Y010959D01*
X041753Y010718D01*
X041881Y010718D02*
X042122Y010718D01*
X042001Y010718D02*
X042001Y011079D01*
X041881Y010959D01*
X041753Y010899D02*
X041513Y010899D01*
X041513Y010959D02*
X041633Y011079D01*
X041513Y010959D02*
X041513Y010718D01*
X042250Y010718D02*
X042250Y010779D01*
X042490Y011019D01*
X042490Y011079D01*
X042250Y011079D01*
X042678Y010779D02*
X042678Y010718D01*
X042738Y010718D01*
X042738Y010779D01*
X042678Y010779D01*
X042738Y010718D02*
X042618Y010598D01*
X042863Y010779D02*
X042924Y010718D01*
X043044Y010718D01*
X043104Y010779D01*
X043104Y010899D01*
X043044Y010959D01*
X042984Y010959D01*
X042863Y010899D01*
X042863Y011079D01*
X043104Y011079D01*
X043232Y010959D02*
X043292Y010959D01*
X043352Y010899D01*
X043412Y010959D01*
X043472Y010899D01*
X043472Y010718D01*
X043352Y010718D02*
X043352Y010899D01*
X043232Y010959D02*
X043232Y010718D01*
X043600Y010718D02*
X043600Y010959D01*
X043660Y010959D01*
X043720Y010899D01*
X043780Y010959D01*
X043840Y010899D01*
X043840Y010718D01*
X043720Y010718D02*
X043720Y010899D01*
X048261Y016941D02*
X048108Y017094D01*
X048568Y017094D01*
X048568Y016941D02*
X048568Y017248D01*
X048568Y018322D02*
X048108Y018322D01*
X048108Y018629D02*
X048568Y018629D01*
X048415Y018475D01*
X048568Y018322D01*
X048492Y019703D02*
X048568Y019780D01*
X048568Y019933D01*
X048492Y020010D01*
X048415Y020010D01*
X048338Y019933D01*
X048338Y019857D01*
X048338Y019933D02*
X048261Y020010D01*
X048185Y020010D01*
X048108Y019933D01*
X048108Y019780D01*
X048185Y019703D01*
X027077Y008977D02*
X027077Y008824D01*
X027001Y008747D01*
X026770Y008747D01*
X026770Y008593D02*
X026770Y009054D01*
X027001Y009054D01*
X027077Y008977D01*
X026924Y008747D02*
X027077Y008593D01*
X026617Y008593D02*
X026463Y008747D01*
X026540Y008747D02*
X026310Y008747D01*
X026310Y008593D02*
X026310Y009054D01*
X026540Y009054D01*
X026617Y008977D01*
X026617Y008824D01*
X026540Y008747D01*
X026157Y008670D02*
X026157Y009054D01*
X025850Y009054D02*
X025850Y008670D01*
X025926Y008593D01*
X026080Y008593D01*
X026157Y008670D01*
X025696Y008670D02*
X025619Y008593D01*
X025466Y008593D01*
X025389Y008670D01*
X025389Y008977D01*
X025466Y009054D01*
X025619Y009054D01*
X025696Y008977D01*
X025236Y008517D02*
X024929Y008517D01*
X024775Y008747D02*
X024775Y009054D01*
X024468Y009054D02*
X024468Y008747D01*
X024622Y008593D01*
X024775Y008747D01*
X027295Y005565D02*
X027448Y005565D01*
X027525Y005488D01*
X027525Y005258D01*
X027678Y005258D02*
X027218Y005258D01*
X027218Y005488D01*
X027295Y005565D01*
X027525Y005412D02*
X027678Y005565D01*
X027678Y005105D02*
X027525Y004951D01*
X027525Y005028D02*
X027525Y004798D01*
X027678Y004798D02*
X027218Y004798D01*
X027218Y005028D01*
X027295Y005105D01*
X027448Y005105D01*
X027525Y005028D01*
X027602Y004644D02*
X027218Y004644D01*
X027218Y004337D02*
X027602Y004337D01*
X027678Y004414D01*
X027678Y004567D01*
X027602Y004644D01*
X027602Y004184D02*
X027678Y004107D01*
X027678Y003954D01*
X027602Y003877D01*
X027295Y003877D01*
X027218Y003954D01*
X027218Y004107D01*
X027295Y004184D01*
X027755Y003723D02*
X027755Y003416D01*
X027525Y003263D02*
X027218Y003263D01*
X027218Y002956D02*
X027525Y002956D01*
X027678Y003110D01*
X027525Y003263D01*
X020755Y003377D02*
X020755Y003684D01*
X020678Y003837D02*
X020218Y003837D01*
X020218Y004067D01*
X020295Y004144D01*
X020448Y004144D01*
X020525Y004067D01*
X020525Y003837D01*
X020525Y003991D02*
X020678Y004144D01*
X020678Y004298D02*
X020218Y004298D01*
X020218Y004605D01*
X020218Y004758D02*
X020218Y005065D01*
X020448Y004912D02*
X020448Y004758D01*
X020678Y004758D02*
X020218Y004758D01*
X020448Y004451D02*
X020448Y004298D01*
X020678Y004298D02*
X020678Y004605D01*
X020525Y003223D02*
X020218Y003223D01*
X020218Y002916D02*
X020525Y002916D01*
X020678Y003070D01*
X020525Y003223D01*
X013755Y003377D02*
X013755Y003684D01*
X013602Y003837D02*
X013678Y003914D01*
X013678Y004067D01*
X013602Y004144D01*
X013602Y003837D02*
X013295Y003837D01*
X013218Y003914D01*
X013218Y004067D01*
X013295Y004144D01*
X013218Y004298D02*
X013218Y004605D01*
X013218Y004758D02*
X013678Y004758D01*
X013678Y005065D01*
X013678Y004451D02*
X013218Y004451D01*
X013218Y003223D02*
X013525Y003223D01*
X013678Y003070D01*
X013525Y002916D01*
X013218Y002916D01*
X006928Y007353D02*
X006928Y007507D01*
X006928Y007430D02*
X006468Y007430D01*
X006468Y007353D02*
X006468Y007507D01*
X006468Y007967D02*
X006928Y007660D01*
X006852Y008121D02*
X006545Y008121D01*
X006468Y008197D01*
X006468Y008351D01*
X006545Y008428D01*
X006852Y008428D01*
X006928Y008351D01*
X006928Y008197D01*
X006852Y008121D01*
X007005Y008581D02*
X007005Y008888D01*
X006928Y009041D02*
X006928Y009272D01*
X006852Y009348D01*
X006775Y009348D01*
X006698Y009272D01*
X006698Y009041D01*
X006468Y009041D02*
X006468Y009272D01*
X006545Y009348D01*
X006621Y009348D01*
X006698Y009272D01*
X006468Y009502D02*
X006928Y009502D01*
X006928Y009809D01*
X006852Y009962D02*
X006928Y010039D01*
X006928Y010192D01*
X006852Y010269D01*
X006545Y010269D01*
X006468Y010192D01*
X006468Y010039D01*
X006545Y009962D01*
X006852Y009962D01*
X006852Y010423D02*
X006545Y010423D01*
X006468Y010499D01*
X006468Y010653D01*
X006545Y010730D01*
X006468Y010883D02*
X006928Y010883D01*
X006775Y010883D02*
X006468Y011190D01*
X006698Y010960D02*
X006928Y011190D01*
X006852Y010730D02*
X006928Y010653D01*
X006928Y010499D01*
X006852Y010423D01*
X009343Y009179D02*
X009343Y008872D01*
X009497Y008718D01*
X009650Y008872D01*
X009650Y009179D01*
X010264Y009102D02*
X010264Y008795D01*
X010341Y008718D01*
X010494Y008718D01*
X010571Y008795D01*
X010571Y009102D02*
X010494Y009179D01*
X010341Y009179D01*
X010264Y009102D01*
X010725Y009179D02*
X011032Y009179D01*
X011185Y009179D02*
X011185Y008718D01*
X011492Y008718D01*
X010878Y008718D02*
X010878Y009179D01*
X010111Y008642D02*
X009804Y008642D01*
X006928Y009041D02*
X006468Y009041D01*
X003303Y009103D02*
X003150Y008950D01*
X002843Y008950D01*
X002843Y009257D02*
X003150Y009257D01*
X003303Y009103D01*
X003303Y009410D02*
X002843Y009410D01*
X002843Y009640D01*
X002920Y009717D01*
X003073Y009717D01*
X003150Y009640D01*
X003150Y009410D01*
X003150Y009564D02*
X003303Y009717D01*
X003150Y010331D02*
X002843Y010331D01*
X003150Y010331D02*
X003303Y010485D01*
X003150Y010638D01*
X002843Y010638D01*
X002920Y010791D02*
X003227Y010791D01*
X003303Y010868D01*
X003303Y011022D01*
X003227Y011098D01*
X002920Y011098D02*
X002843Y011022D01*
X002843Y010868D01*
X002920Y010791D01*
X002920Y011712D02*
X003227Y011712D01*
X003303Y011789D01*
X003303Y011942D01*
X003227Y012019D01*
X003073Y012019D01*
X003073Y011866D01*
X002920Y012019D02*
X002843Y011942D01*
X002843Y011789D01*
X002920Y011712D01*
X002843Y012173D02*
X003303Y012480D01*
X002843Y012480D01*
X002843Y012633D02*
X002843Y012863D01*
X002920Y012940D01*
X003227Y012940D01*
X003303Y012863D01*
X003303Y012633D01*
X002843Y012633D01*
X002843Y012173D02*
X003303Y012173D01*
X003303Y008336D02*
X003303Y008183D01*
X003303Y008259D02*
X002843Y008259D01*
X002843Y008183D02*
X002843Y008336D01*
X002843Y008029D02*
X003150Y008029D01*
X003303Y007876D01*
X003150Y007722D01*
X002843Y007722D01*
X002920Y007108D02*
X002843Y007032D01*
X002843Y006801D01*
X003303Y006801D01*
X003303Y007032D01*
X003227Y007108D01*
X002920Y007108D01*
X002920Y006648D02*
X003073Y006648D01*
X003150Y006571D01*
X003150Y006341D01*
X003303Y006341D02*
X002843Y006341D01*
X002843Y006571D01*
X002920Y006648D01*
X002843Y006188D02*
X003150Y006188D01*
X003303Y006034D01*
X003150Y005881D01*
X002843Y005881D01*
X016343Y008747D02*
X016497Y008593D01*
X016650Y008747D01*
X016650Y009054D01*
X016343Y009054D02*
X016343Y008747D01*
X016804Y008517D02*
X017111Y008517D01*
X017264Y008593D02*
X017264Y009054D01*
X017494Y009054D01*
X017571Y008977D01*
X017571Y008824D01*
X017494Y008747D01*
X017264Y008747D01*
X017418Y008747D02*
X017571Y008593D01*
X017725Y008593D02*
X018032Y008593D01*
X018185Y008593D02*
X018185Y009054D01*
X018492Y009054D01*
X018338Y008824D02*
X018185Y008824D01*
X018032Y009054D02*
X017725Y009054D01*
X017725Y008593D01*
X017725Y008824D02*
X017878Y008824D01*
X009253Y019885D02*
X008793Y019885D01*
X008793Y020192D01*
X008793Y020346D02*
X009177Y020346D01*
X009253Y020422D01*
X009253Y020576D01*
X009177Y020653D01*
X008793Y020653D01*
X008870Y020806D02*
X008946Y020806D01*
X009023Y020883D01*
X009023Y021036D01*
X009100Y021113D01*
X009177Y021113D01*
X009253Y021036D01*
X009253Y020883D01*
X009177Y020806D01*
X008870Y020806D02*
X008793Y020883D01*
X008793Y021036D01*
X008870Y021113D01*
X008793Y021266D02*
X009253Y021266D01*
X009253Y021573D01*
X009023Y021420D02*
X009023Y021266D01*
X008793Y021266D02*
X008793Y021573D01*
X008793Y022187D02*
X009023Y022494D01*
X009253Y022187D01*
X009253Y022648D02*
X008946Y022955D01*
X008870Y022955D01*
X008793Y022878D01*
X008793Y022724D01*
X008870Y022648D01*
X009253Y022648D02*
X009253Y022955D01*
X009253Y023108D02*
X008946Y023108D01*
X008793Y023262D01*
X008946Y023415D01*
X009253Y023415D01*
X009023Y023415D02*
X009023Y023108D01*
X012843Y026093D02*
X013150Y026093D01*
X013303Y026247D01*
X013150Y026400D01*
X012843Y026400D01*
X013380Y026554D02*
X013380Y026861D01*
X013303Y027014D02*
X013303Y027168D01*
X013303Y027091D02*
X012843Y027091D01*
X012843Y027014D02*
X012843Y027168D01*
X012843Y027321D02*
X013303Y027628D01*
X012843Y027628D01*
X012996Y027782D02*
X012843Y027935D01*
X013303Y027935D01*
X013303Y027782D02*
X013303Y028088D01*
X013303Y027321D02*
X012843Y027321D01*
X010178Y027284D02*
X010178Y027131D01*
X010102Y027054D01*
X009795Y027054D01*
X009718Y027131D01*
X009718Y027284D01*
X009795Y027361D01*
X010102Y027361D01*
X010178Y027284D01*
X010178Y027514D02*
X010025Y027668D01*
X010178Y027821D01*
X009718Y027821D01*
X009871Y027975D02*
X009718Y028128D01*
X010178Y028128D01*
X010178Y027975D02*
X010178Y028282D01*
X009658Y028913D02*
X009427Y028913D01*
X009427Y029374D01*
X009658Y029374D01*
X009734Y029297D01*
X009734Y028990D01*
X009658Y028913D01*
X009274Y028913D02*
X009274Y029374D01*
X008967Y029374D02*
X009274Y028913D01*
X008967Y028913D02*
X008967Y029374D01*
X008813Y029297D02*
X008737Y029374D01*
X008583Y029374D01*
X008507Y029297D01*
X008507Y028990D01*
X008583Y028913D01*
X008737Y028913D01*
X008813Y028990D01*
X008813Y029144D01*
X008660Y029144D01*
X007893Y029374D02*
X007893Y028913D01*
X007586Y029374D01*
X007586Y028913D01*
X007432Y028913D02*
X007279Y028913D01*
X007356Y028913D02*
X007356Y029374D01*
X007432Y029374D02*
X007279Y029374D01*
X007125Y029374D02*
X007125Y029067D01*
X006972Y028913D01*
X006818Y029067D01*
X006818Y029374D01*
X009718Y027514D02*
X010178Y027514D01*
X009948Y026900D02*
X010025Y026824D01*
X010025Y026593D01*
X010178Y026593D02*
X009718Y026593D01*
X009718Y026824D01*
X009795Y026900D01*
X009948Y026900D01*
X009023Y020039D02*
X009023Y019885D01*
D13*
X007292Y021266D02*
X007292Y021424D01*
X007300Y021446D02*
X003362Y021446D01*
X003362Y017662D01*
X007300Y017662D01*
X007292Y017684D02*
X007292Y017841D01*
X007134Y017841D01*
X007134Y021266D01*
X007292Y021266D01*
X007300Y021912D02*
X003362Y021912D01*
X003362Y025696D01*
X007300Y025696D01*
X007292Y025674D02*
X007292Y025516D01*
X007134Y025516D01*
X007134Y022091D01*
X007292Y022091D01*
X007292Y021934D01*
X012198Y021473D02*
X012198Y020723D01*
X012237Y020721D01*
X012276Y020715D01*
X012314Y020706D01*
X012351Y020693D01*
X012387Y020676D01*
X012420Y020656D01*
X012452Y020632D01*
X012481Y020606D01*
X012507Y020577D01*
X012531Y020545D01*
X012551Y020512D01*
X012568Y020476D01*
X012581Y020439D01*
X012590Y020401D01*
X012596Y020362D01*
X012598Y020323D01*
X012596Y020284D01*
X012590Y020245D01*
X012581Y020207D01*
X012568Y020170D01*
X012551Y020134D01*
X012531Y020101D01*
X012507Y020069D01*
X012481Y020040D01*
X012452Y020014D01*
X012420Y019990D01*
X012387Y019970D01*
X012351Y019953D01*
X012314Y019940D01*
X012276Y019931D01*
X012237Y019925D01*
X012198Y019923D01*
X012198Y019173D01*
X019198Y019173D01*
X019198Y021473D01*
X012198Y021473D01*
X015048Y017523D02*
X016348Y017523D01*
X016374Y017521D01*
X016400Y017516D01*
X016425Y017508D01*
X016448Y017496D01*
X016470Y017482D01*
X016489Y017464D01*
X016507Y017445D01*
X016521Y017423D01*
X016533Y017400D01*
X016541Y017375D01*
X016546Y017349D01*
X016548Y017323D01*
X016198Y017073D02*
X015828Y017073D01*
X015578Y017073D02*
X015198Y017073D01*
X014848Y016823D02*
X014850Y016797D01*
X014855Y016771D01*
X014863Y016746D01*
X014875Y016723D01*
X014889Y016701D01*
X014907Y016682D01*
X014926Y016664D01*
X014948Y016650D01*
X014971Y016638D01*
X014996Y016630D01*
X015022Y016625D01*
X015048Y016623D01*
X016348Y016623D01*
X016374Y016625D01*
X016400Y016630D01*
X016425Y016638D01*
X016448Y016650D01*
X016470Y016664D01*
X016489Y016682D01*
X016507Y016701D01*
X016521Y016723D01*
X016533Y016746D01*
X016541Y016771D01*
X016546Y016797D01*
X016548Y016823D01*
X015048Y017523D02*
X015022Y017521D01*
X014996Y017516D01*
X014971Y017508D01*
X014948Y017496D01*
X014926Y017482D01*
X014907Y017464D01*
X014889Y017445D01*
X014875Y017423D01*
X014863Y017400D01*
X014855Y017375D01*
X014850Y017349D01*
X014848Y017323D01*
X014348Y015273D02*
X013048Y015273D01*
X013022Y015271D01*
X012996Y015266D01*
X012971Y015258D01*
X012948Y015246D01*
X012926Y015232D01*
X012907Y015214D01*
X012889Y015195D01*
X012875Y015173D01*
X012863Y015150D01*
X012855Y015125D01*
X012850Y015099D01*
X012848Y015073D01*
X012848Y014573D01*
X012850Y014547D01*
X012855Y014521D01*
X012863Y014496D01*
X012875Y014473D01*
X012889Y014451D01*
X012907Y014432D01*
X012926Y014414D01*
X012948Y014400D01*
X012971Y014388D01*
X012996Y014380D01*
X013022Y014375D01*
X013048Y014373D01*
X014348Y014373D01*
X014374Y014375D01*
X014400Y014380D01*
X014425Y014388D01*
X014448Y014400D01*
X014470Y014414D01*
X014489Y014432D01*
X014507Y014451D01*
X014521Y014473D01*
X014533Y014496D01*
X014541Y014521D01*
X014546Y014547D01*
X014548Y014573D01*
X014548Y015073D01*
X014546Y015099D01*
X014541Y015125D01*
X014533Y015150D01*
X014521Y015173D01*
X014507Y015195D01*
X014489Y015214D01*
X014470Y015232D01*
X014448Y015246D01*
X014425Y015258D01*
X014400Y015266D01*
X014374Y015271D01*
X014348Y015273D01*
X011848Y016373D02*
X011698Y016373D01*
X011648Y016423D01*
X009748Y016423D01*
X009698Y016373D01*
X009548Y016373D01*
X009531Y016375D01*
X009514Y016379D01*
X009498Y016386D01*
X009484Y016396D01*
X009471Y016409D01*
X009461Y016423D01*
X009454Y016439D01*
X009450Y016456D01*
X009448Y016473D01*
X009448Y017173D02*
X009450Y017190D01*
X009454Y017207D01*
X009461Y017223D01*
X009471Y017237D01*
X009484Y017250D01*
X009498Y017260D01*
X009514Y017267D01*
X009531Y017271D01*
X009548Y017273D01*
X009698Y017273D01*
X009748Y017223D01*
X011648Y017223D01*
X011698Y017273D01*
X011848Y017273D01*
X011865Y017271D01*
X011882Y017267D01*
X011898Y017260D01*
X011912Y017250D01*
X011925Y017237D01*
X011935Y017223D01*
X011942Y017207D01*
X011946Y017190D01*
X011948Y017173D01*
X011948Y016473D02*
X011946Y016456D01*
X011942Y016439D01*
X011935Y016423D01*
X011925Y016409D01*
X011912Y016396D01*
X011898Y016386D01*
X011882Y016379D01*
X011865Y016375D01*
X011848Y016373D01*
X010848Y015273D02*
X009548Y015273D01*
X009522Y015271D01*
X009496Y015266D01*
X009471Y015258D01*
X009448Y015246D01*
X009426Y015232D01*
X009407Y015214D01*
X009389Y015195D01*
X009375Y015173D01*
X009363Y015150D01*
X009355Y015125D01*
X009350Y015099D01*
X009348Y015073D01*
X009698Y014823D02*
X010078Y014823D01*
X010328Y014823D02*
X010698Y014823D01*
X011048Y014573D02*
X011046Y014547D01*
X011041Y014521D01*
X011033Y014496D01*
X011021Y014473D01*
X011007Y014451D01*
X010989Y014432D01*
X010970Y014414D01*
X010948Y014400D01*
X010925Y014388D01*
X010900Y014380D01*
X010874Y014375D01*
X010848Y014373D01*
X009548Y014373D01*
X009522Y014375D01*
X009496Y014380D01*
X009471Y014388D01*
X009448Y014400D01*
X009426Y014414D01*
X009407Y014432D01*
X009389Y014451D01*
X009375Y014473D01*
X009363Y014496D01*
X009355Y014521D01*
X009350Y014547D01*
X009348Y014573D01*
X010848Y015273D02*
X010874Y015271D01*
X010900Y015266D01*
X010925Y015258D01*
X010948Y015246D01*
X010970Y015232D01*
X010989Y015214D01*
X011007Y015195D01*
X011021Y015173D01*
X011033Y015150D01*
X011041Y015125D01*
X011046Y015099D01*
X011048Y015073D01*
X010848Y012573D02*
X010831Y012571D01*
X010814Y012567D01*
X010798Y012560D01*
X010784Y012550D01*
X010771Y012537D01*
X010761Y012523D01*
X010754Y012507D01*
X010750Y012490D01*
X010748Y012473D01*
X010748Y012323D01*
X010798Y012273D01*
X010798Y010373D01*
X010748Y010323D01*
X010748Y010173D01*
X010750Y010156D01*
X010754Y010139D01*
X010761Y010123D01*
X010771Y010109D01*
X010784Y010096D01*
X010798Y010086D01*
X010814Y010079D01*
X010831Y010075D01*
X010848Y010073D01*
X011548Y010073D02*
X011565Y010075D01*
X011582Y010079D01*
X011598Y010086D01*
X011612Y010096D01*
X011625Y010109D01*
X011635Y010123D01*
X011642Y010139D01*
X011646Y010156D01*
X011648Y010173D01*
X011648Y010323D01*
X011598Y010373D01*
X011598Y012273D01*
X011648Y012323D01*
X011648Y012473D01*
X011646Y012490D01*
X011642Y012507D01*
X011635Y012523D01*
X011625Y012537D01*
X011612Y012550D01*
X011598Y012560D01*
X011582Y012567D01*
X011565Y012571D01*
X011548Y012573D01*
X013198Y012473D02*
X013198Y011723D01*
X013237Y011721D01*
X013276Y011715D01*
X013314Y011706D01*
X013351Y011693D01*
X013387Y011676D01*
X013420Y011656D01*
X013452Y011632D01*
X013481Y011606D01*
X013507Y011577D01*
X013531Y011545D01*
X013551Y011512D01*
X013568Y011476D01*
X013581Y011439D01*
X013590Y011401D01*
X013596Y011362D01*
X013598Y011323D01*
X013596Y011284D01*
X013590Y011245D01*
X013581Y011207D01*
X013568Y011170D01*
X013551Y011134D01*
X013531Y011101D01*
X013507Y011069D01*
X013481Y011040D01*
X013452Y011014D01*
X013420Y010990D01*
X013387Y010970D01*
X013351Y010953D01*
X013314Y010940D01*
X013276Y010931D01*
X013237Y010925D01*
X013198Y010923D01*
X013198Y010173D01*
X017198Y010173D01*
X017198Y012473D01*
X013198Y012473D01*
X009648Y012473D02*
X009648Y012323D01*
X009598Y012273D01*
X009598Y010373D01*
X009648Y010323D01*
X009648Y010173D01*
X009646Y010156D01*
X009642Y010139D01*
X009635Y010123D01*
X009625Y010109D01*
X009612Y010096D01*
X009598Y010086D01*
X009582Y010079D01*
X009565Y010075D01*
X009548Y010073D01*
X008848Y010073D02*
X008831Y010075D01*
X008814Y010079D01*
X008798Y010086D01*
X008784Y010096D01*
X008771Y010109D01*
X008761Y010123D01*
X008754Y010139D01*
X008750Y010156D01*
X008748Y010173D01*
X008748Y010323D01*
X008798Y010373D01*
X008798Y012273D01*
X008748Y012323D01*
X008748Y012473D01*
X008750Y012490D01*
X008754Y012507D01*
X008761Y012523D01*
X008771Y012537D01*
X008784Y012550D01*
X008798Y012560D01*
X008814Y012567D01*
X008831Y012571D01*
X008848Y012573D01*
X009548Y012573D02*
X009565Y012571D01*
X009582Y012567D01*
X009598Y012560D01*
X009612Y012550D01*
X009625Y012537D01*
X009635Y012523D01*
X009642Y012507D01*
X009646Y012490D01*
X009648Y012473D01*
X007300Y013537D02*
X003362Y013537D01*
X003362Y017321D01*
X007300Y017321D01*
X007292Y017299D02*
X007292Y017141D01*
X007134Y017141D01*
X007134Y013716D01*
X007292Y013716D01*
X007292Y013559D01*
X018248Y014423D02*
X018248Y014573D01*
X018298Y014623D01*
X018298Y016523D01*
X018248Y016573D01*
X018248Y016723D01*
X018250Y016740D01*
X018254Y016757D01*
X018261Y016773D01*
X018271Y016787D01*
X018284Y016800D01*
X018298Y016810D01*
X018314Y016817D01*
X018331Y016821D01*
X018348Y016823D01*
X019048Y016823D02*
X019065Y016821D01*
X019082Y016817D01*
X019098Y016810D01*
X019112Y016800D01*
X019125Y016787D01*
X019135Y016773D01*
X019142Y016757D01*
X019146Y016740D01*
X019148Y016723D01*
X019148Y016573D01*
X019098Y016523D01*
X019098Y014623D01*
X019148Y014573D01*
X019148Y014423D01*
X019146Y014406D01*
X019142Y014389D01*
X019135Y014373D01*
X019125Y014359D01*
X019112Y014346D01*
X019098Y014336D01*
X019082Y014329D01*
X019065Y014325D01*
X019048Y014323D01*
X018348Y014323D02*
X018331Y014325D01*
X018314Y014329D01*
X018298Y014336D01*
X018284Y014346D01*
X018271Y014359D01*
X018261Y014373D01*
X018254Y014389D01*
X018250Y014406D01*
X018248Y014423D01*
X020248Y014423D02*
X020248Y014573D01*
X020298Y014623D01*
X020298Y016523D01*
X020248Y016573D01*
X020248Y016723D01*
X020250Y016740D01*
X020254Y016757D01*
X020261Y016773D01*
X020271Y016787D01*
X020284Y016800D01*
X020298Y016810D01*
X020314Y016817D01*
X020331Y016821D01*
X020348Y016823D01*
X021048Y016823D02*
X021065Y016821D01*
X021082Y016817D01*
X021098Y016810D01*
X021112Y016800D01*
X021125Y016787D01*
X021135Y016773D01*
X021142Y016757D01*
X021146Y016740D01*
X021148Y016723D01*
X021148Y016573D01*
X021098Y016523D01*
X021098Y014623D01*
X021148Y014573D01*
X021148Y014423D01*
X021146Y014406D01*
X021142Y014389D01*
X021135Y014373D01*
X021125Y014359D01*
X021112Y014346D01*
X021098Y014336D01*
X021082Y014329D01*
X021065Y014325D01*
X021048Y014323D01*
X020348Y014323D02*
X020331Y014325D01*
X020314Y014329D01*
X020298Y014336D01*
X020284Y014346D01*
X020271Y014359D01*
X020261Y014373D01*
X020254Y014389D01*
X020250Y014406D01*
X020248Y014423D01*
X022073Y014048D02*
X022073Y014848D01*
X022173Y014948D01*
X022973Y014948D01*
X023073Y014848D01*
X023173Y014948D01*
X023973Y014948D01*
X024073Y014848D01*
X024073Y014048D01*
X023973Y013948D01*
X023173Y013948D01*
X023073Y014048D01*
X022973Y013948D01*
X022173Y013948D01*
X022073Y014048D01*
X022173Y012823D02*
X022973Y012823D01*
X023073Y012723D01*
X023173Y012823D01*
X023973Y012823D01*
X024073Y012723D01*
X024073Y011923D01*
X023973Y011823D01*
X023173Y011823D01*
X023073Y011923D01*
X022973Y011823D01*
X022173Y011823D01*
X022073Y011923D01*
X022073Y012723D01*
X022173Y012823D01*
X021148Y012473D02*
X021148Y012323D01*
X021098Y012273D01*
X021098Y010373D01*
X021148Y010323D01*
X021148Y010173D01*
X021146Y010156D01*
X021142Y010139D01*
X021135Y010123D01*
X021125Y010109D01*
X021112Y010096D01*
X021098Y010086D01*
X021082Y010079D01*
X021065Y010075D01*
X021048Y010073D01*
X020348Y010073D02*
X020331Y010075D01*
X020314Y010079D01*
X020298Y010086D01*
X020284Y010096D01*
X020271Y010109D01*
X020261Y010123D01*
X020254Y010139D01*
X020250Y010156D01*
X020248Y010173D01*
X020248Y010323D01*
X020298Y010373D01*
X020298Y012273D01*
X020248Y012323D01*
X020248Y012473D01*
X020250Y012490D01*
X020254Y012507D01*
X020261Y012523D01*
X020271Y012537D01*
X020284Y012550D01*
X020298Y012560D01*
X020314Y012567D01*
X020331Y012571D01*
X020348Y012573D01*
X021048Y012573D02*
X021065Y012571D01*
X021082Y012567D01*
X021098Y012560D01*
X021112Y012550D01*
X021125Y012537D01*
X021135Y012523D01*
X021142Y012507D01*
X021146Y012490D01*
X021148Y012473D01*
X019148Y011973D02*
X019148Y010673D01*
X019146Y010647D01*
X019141Y010621D01*
X019133Y010596D01*
X019121Y010573D01*
X019107Y010551D01*
X019089Y010532D01*
X019070Y010514D01*
X019048Y010500D01*
X019025Y010488D01*
X019000Y010480D01*
X018974Y010475D01*
X018948Y010473D01*
X018698Y010823D02*
X018698Y011203D01*
X018698Y011453D02*
X018698Y011823D01*
X018448Y012173D02*
X018422Y012171D01*
X018396Y012166D01*
X018371Y012158D01*
X018348Y012146D01*
X018326Y012132D01*
X018307Y012114D01*
X018289Y012095D01*
X018275Y012073D01*
X018263Y012050D01*
X018255Y012025D01*
X018250Y011999D01*
X018248Y011973D01*
X018248Y010673D01*
X018250Y010647D01*
X018255Y010621D01*
X018263Y010596D01*
X018275Y010573D01*
X018289Y010551D01*
X018307Y010532D01*
X018326Y010514D01*
X018348Y010500D01*
X018371Y010488D01*
X018396Y010480D01*
X018422Y010475D01*
X018448Y010473D01*
X019148Y011973D02*
X019146Y011999D01*
X019141Y012025D01*
X019133Y012050D01*
X019121Y012073D01*
X019107Y012095D01*
X019089Y012114D01*
X019070Y012132D01*
X019048Y012146D01*
X019025Y012158D01*
X019000Y012166D01*
X018974Y012171D01*
X018948Y012173D01*
X022073Y010473D02*
X022073Y009673D01*
X022173Y009573D01*
X022973Y009573D01*
X023073Y009673D01*
X023173Y009573D01*
X023973Y009573D01*
X024073Y009673D01*
X024073Y010473D01*
X023973Y010573D01*
X023173Y010573D01*
X023073Y010473D01*
X022973Y010573D01*
X022173Y010573D01*
X022073Y010473D01*
X024948Y010598D02*
X024948Y011298D01*
X025098Y011448D01*
X024948Y011598D01*
X024948Y012298D01*
X025098Y012448D01*
X026798Y012448D01*
X026948Y012298D01*
X026948Y011598D01*
X026798Y011448D01*
X026948Y011298D01*
X026948Y010598D01*
X026798Y010448D01*
X026948Y010298D01*
X026948Y009598D01*
X026798Y009448D01*
X025098Y009448D01*
X024948Y009598D01*
X024948Y010298D01*
X025098Y010448D01*
X024948Y010598D01*
X027440Y009542D02*
X027440Y009192D01*
X027442Y009169D01*
X027447Y009146D01*
X027456Y009124D01*
X027469Y009104D01*
X027484Y009086D01*
X027502Y009071D01*
X027522Y009058D01*
X027544Y009049D01*
X027567Y009044D01*
X027590Y009042D01*
X027440Y009542D02*
X027540Y009642D01*
X030556Y009042D02*
X030579Y009044D01*
X030602Y009049D01*
X030624Y009058D01*
X030644Y009071D01*
X030662Y009086D01*
X030677Y009104D01*
X030690Y009124D01*
X030699Y009146D01*
X030704Y009169D01*
X030706Y009192D01*
X030706Y009542D01*
X030606Y009642D01*
X034048Y008648D02*
X035348Y008648D01*
X035374Y008646D01*
X035400Y008641D01*
X035425Y008633D01*
X035448Y008621D01*
X035470Y008607D01*
X035489Y008589D01*
X035507Y008570D01*
X035521Y008548D01*
X035533Y008525D01*
X035541Y008500D01*
X035546Y008474D01*
X035548Y008448D01*
X035198Y008198D02*
X034828Y008198D01*
X034578Y008198D02*
X034198Y008198D01*
X033848Y007948D02*
X033850Y007922D01*
X033855Y007896D01*
X033863Y007871D01*
X033875Y007848D01*
X033889Y007826D01*
X033907Y007807D01*
X033926Y007789D01*
X033948Y007775D01*
X033971Y007763D01*
X033996Y007755D01*
X034022Y007750D01*
X034048Y007748D01*
X035348Y007748D01*
X035374Y007750D01*
X035400Y007755D01*
X035425Y007763D01*
X035448Y007775D01*
X035470Y007789D01*
X035489Y007807D01*
X035507Y007826D01*
X035521Y007848D01*
X035533Y007871D01*
X035541Y007896D01*
X035546Y007922D01*
X035548Y007948D01*
X034048Y008648D02*
X034022Y008646D01*
X033996Y008641D01*
X033971Y008633D01*
X033948Y008621D01*
X033926Y008607D01*
X033907Y008589D01*
X033889Y008570D01*
X033875Y008548D01*
X033863Y008525D01*
X033855Y008500D01*
X033850Y008474D01*
X033848Y008448D01*
X036748Y010548D02*
X036748Y011848D01*
X036750Y011874D01*
X036755Y011900D01*
X036763Y011925D01*
X036775Y011948D01*
X036789Y011970D01*
X036807Y011989D01*
X036826Y012007D01*
X036848Y012021D01*
X036871Y012033D01*
X036896Y012041D01*
X036922Y012046D01*
X036948Y012048D01*
X037448Y012048D01*
X037474Y012046D01*
X037500Y012041D01*
X037525Y012033D01*
X037548Y012021D01*
X037570Y012007D01*
X037589Y011989D01*
X037607Y011970D01*
X037621Y011948D01*
X037633Y011925D01*
X037641Y011900D01*
X037646Y011874D01*
X037648Y011848D01*
X037648Y010548D01*
X037646Y010522D01*
X037641Y010496D01*
X037633Y010471D01*
X037621Y010448D01*
X037607Y010426D01*
X037589Y010407D01*
X037570Y010389D01*
X037548Y010375D01*
X037525Y010363D01*
X037500Y010355D01*
X037474Y010350D01*
X037448Y010348D01*
X036948Y010348D01*
X036922Y010350D01*
X036896Y010355D01*
X036871Y010363D01*
X036848Y010375D01*
X036826Y010389D01*
X036807Y010407D01*
X036789Y010426D01*
X036775Y010448D01*
X036763Y010471D01*
X036755Y010496D01*
X036750Y010522D01*
X036748Y010548D01*
X040148Y009798D02*
X040498Y009798D01*
X040498Y009198D01*
X040148Y009198D01*
X040148Y008448D01*
X044248Y008448D01*
X044248Y009198D01*
X043898Y009198D01*
X043898Y009798D01*
X044248Y009798D01*
X044248Y014698D01*
X040148Y014698D01*
X040148Y009798D01*
X041488Y009798D02*
X041490Y009851D01*
X041496Y009904D01*
X041506Y009956D01*
X041520Y010007D01*
X041537Y010057D01*
X041558Y010106D01*
X041583Y010153D01*
X041611Y010198D01*
X041643Y010241D01*
X041678Y010281D01*
X041715Y010318D01*
X041755Y010353D01*
X041798Y010385D01*
X041843Y010413D01*
X041890Y010438D01*
X041939Y010459D01*
X041989Y010476D01*
X042040Y010490D01*
X042092Y010500D01*
X042145Y010506D01*
X042198Y010508D01*
X042251Y010506D01*
X042304Y010500D01*
X042356Y010490D01*
X042407Y010476D01*
X042457Y010459D01*
X042506Y010438D01*
X042553Y010413D01*
X042598Y010385D01*
X042641Y010353D01*
X042681Y010318D01*
X042718Y010281D01*
X042753Y010241D01*
X042785Y010198D01*
X042813Y010153D01*
X042838Y010106D01*
X042859Y010057D01*
X042876Y010007D01*
X042890Y009956D01*
X042900Y009904D01*
X042906Y009851D01*
X042908Y009798D01*
X042906Y009745D01*
X042900Y009692D01*
X042890Y009640D01*
X042876Y009589D01*
X042859Y009539D01*
X042838Y009490D01*
X042813Y009443D01*
X042785Y009398D01*
X042753Y009355D01*
X042718Y009315D01*
X042681Y009278D01*
X042641Y009243D01*
X042598Y009211D01*
X042553Y009183D01*
X042506Y009158D01*
X042457Y009137D01*
X042407Y009120D01*
X042356Y009106D01*
X042304Y009096D01*
X042251Y009090D01*
X042198Y009088D01*
X042145Y009090D01*
X042092Y009096D01*
X042040Y009106D01*
X041989Y009120D01*
X041939Y009137D01*
X041890Y009158D01*
X041843Y009183D01*
X041798Y009211D01*
X041755Y009243D01*
X041715Y009278D01*
X041678Y009315D01*
X041643Y009355D01*
X041611Y009398D01*
X041583Y009443D01*
X041558Y009490D01*
X041537Y009539D01*
X041520Y009589D01*
X041506Y009640D01*
X041496Y009692D01*
X041490Y009745D01*
X041488Y009798D01*
X041198Y007148D02*
X041048Y007148D01*
X041031Y007146D01*
X041014Y007142D01*
X040998Y007135D01*
X040984Y007125D01*
X040971Y007112D01*
X040961Y007098D01*
X040954Y007082D01*
X040950Y007065D01*
X040948Y007048D01*
X041198Y007148D02*
X041248Y007098D01*
X043148Y007098D01*
X043198Y007148D01*
X043348Y007148D01*
X043365Y007146D01*
X043382Y007142D01*
X043398Y007135D01*
X043412Y007125D01*
X043425Y007112D01*
X043435Y007098D01*
X043442Y007082D01*
X043446Y007065D01*
X043448Y007048D01*
X043448Y006348D02*
X043446Y006331D01*
X043442Y006314D01*
X043435Y006298D01*
X043425Y006284D01*
X043412Y006271D01*
X043398Y006261D01*
X043382Y006254D01*
X043365Y006250D01*
X043348Y006248D01*
X043198Y006248D01*
X043148Y006298D01*
X041248Y006298D01*
X041198Y006248D01*
X041048Y006248D01*
X041031Y006250D01*
X041014Y006254D01*
X040998Y006261D01*
X040984Y006271D01*
X040971Y006284D01*
X040961Y006298D01*
X040954Y006314D01*
X040950Y006331D01*
X040948Y006348D01*
X042653Y005232D02*
X042760Y005339D01*
X042973Y005339D01*
X043080Y005232D01*
X043080Y004912D01*
X043293Y004912D02*
X042653Y004912D01*
X042653Y005232D01*
X043080Y005126D02*
X043293Y005339D01*
X043293Y004695D02*
X043080Y004481D01*
X043080Y004588D02*
X043080Y004268D01*
X043293Y004268D02*
X042653Y004268D01*
X042653Y004588D01*
X042760Y004695D01*
X042973Y004695D01*
X043080Y004588D01*
X043187Y004050D02*
X042653Y004050D01*
X042653Y003623D02*
X043187Y003623D01*
X043293Y003730D01*
X043293Y003943D01*
X043187Y004050D01*
X043187Y003405D02*
X043293Y003299D01*
X043293Y003085D01*
X043187Y002978D01*
X042760Y002978D01*
X042653Y003085D01*
X042653Y003299D01*
X042760Y003405D01*
X045198Y005048D02*
X045245Y005046D01*
X045293Y005040D01*
X045339Y005031D01*
X045385Y005018D01*
X045429Y005002D01*
X045473Y004981D01*
X045514Y004958D01*
X045553Y004932D01*
X045590Y004902D01*
X045625Y004869D01*
X045657Y004834D01*
X045686Y004797D01*
X045198Y003848D02*
X045153Y003850D01*
X045107Y003855D01*
X045063Y003863D01*
X045019Y003875D01*
X044976Y003891D01*
X044934Y003909D01*
X044894Y003931D01*
X044856Y003955D01*
X044820Y003982D01*
X044785Y004012D01*
X044754Y004045D01*
X044724Y004080D01*
X045198Y003848D02*
X045243Y003850D01*
X045289Y003855D01*
X045333Y003863D01*
X045377Y003875D01*
X045420Y003891D01*
X045462Y003909D01*
X045502Y003931D01*
X045540Y003955D01*
X045576Y003982D01*
X045611Y004012D01*
X045642Y004045D01*
X045672Y004080D01*
X045198Y005048D02*
X045152Y005046D01*
X045106Y005041D01*
X045060Y005032D01*
X045015Y005020D01*
X044972Y005004D01*
X044930Y004985D01*
X044889Y004962D01*
X044850Y004937D01*
X044814Y004909D01*
X044779Y004878D01*
X044747Y004844D01*
X044718Y004808D01*
X046698Y005548D02*
X046698Y003848D01*
X046848Y003698D01*
X047548Y003698D01*
X047698Y003848D01*
X047848Y003698D01*
X048548Y003698D01*
X048698Y003848D01*
X048698Y005548D01*
X048548Y005698D01*
X047848Y005698D01*
X047698Y005548D01*
X047548Y005698D01*
X046848Y005698D01*
X046698Y005548D01*
X038168Y004570D02*
X037528Y004143D01*
X037528Y003925D02*
X038062Y003925D01*
X038168Y003818D01*
X038168Y003605D01*
X038062Y003498D01*
X037528Y003498D01*
X037741Y003280D02*
X037528Y003067D01*
X037741Y002853D01*
X038168Y002853D01*
X037848Y002853D02*
X037848Y003280D01*
X037741Y003280D02*
X038168Y003280D01*
X038168Y004143D02*
X037528Y004570D01*
X030048Y005573D02*
X030048Y006073D01*
X030046Y006099D01*
X030041Y006125D01*
X030033Y006150D01*
X030021Y006173D01*
X030007Y006195D01*
X029989Y006214D01*
X029970Y006232D01*
X029948Y006246D01*
X029925Y006258D01*
X029900Y006266D01*
X029874Y006271D01*
X029848Y006273D01*
X028548Y006273D01*
X028522Y006271D01*
X028496Y006266D01*
X028471Y006258D01*
X028448Y006246D01*
X028426Y006232D01*
X028407Y006214D01*
X028389Y006195D01*
X028375Y006173D01*
X028363Y006150D01*
X028355Y006125D01*
X028350Y006099D01*
X028348Y006073D01*
X028348Y005573D01*
X028350Y005547D01*
X028355Y005521D01*
X028363Y005496D01*
X028375Y005473D01*
X028389Y005451D01*
X028407Y005432D01*
X028426Y005414D01*
X028448Y005400D01*
X028471Y005388D01*
X028496Y005380D01*
X028522Y005375D01*
X028548Y005373D01*
X029848Y005373D01*
X029874Y005375D01*
X029900Y005380D01*
X029925Y005388D01*
X029948Y005400D01*
X029970Y005414D01*
X029989Y005432D01*
X030007Y005451D01*
X030021Y005473D01*
X030033Y005496D01*
X030041Y005521D01*
X030046Y005547D01*
X030048Y005573D01*
X026798Y013073D02*
X025098Y013073D01*
X024948Y013223D01*
X024948Y013923D01*
X025098Y014073D01*
X024948Y014223D01*
X024948Y014923D01*
X025098Y015073D01*
X024948Y015223D01*
X024948Y015923D01*
X025098Y016073D01*
X026798Y016073D01*
X026948Y015923D01*
X026948Y015223D01*
X026798Y015073D01*
X026948Y014923D01*
X026948Y014223D01*
X026798Y014073D01*
X026948Y013923D01*
X026948Y013223D01*
X026798Y013073D01*
X023973Y016198D02*
X023173Y016198D01*
X023073Y016298D01*
X022973Y016198D01*
X022173Y016198D01*
X022073Y016298D01*
X022073Y017098D01*
X022173Y017198D01*
X022973Y017198D01*
X023073Y017098D01*
X023173Y017198D01*
X023973Y017198D01*
X024073Y017098D01*
X024073Y016298D01*
X023973Y016198D01*
X021148Y018673D02*
X021148Y018823D01*
X021098Y018873D01*
X021098Y020773D01*
X021148Y020823D01*
X021148Y020973D01*
X021146Y020990D01*
X021142Y021007D01*
X021135Y021023D01*
X021125Y021037D01*
X021112Y021050D01*
X021098Y021060D01*
X021082Y021067D01*
X021065Y021071D01*
X021048Y021073D01*
X020348Y021073D02*
X020331Y021071D01*
X020314Y021067D01*
X020298Y021060D01*
X020284Y021050D01*
X020271Y021037D01*
X020261Y021023D01*
X020254Y021007D01*
X020250Y020990D01*
X020248Y020973D01*
X020248Y020823D01*
X020298Y020773D01*
X020298Y018873D01*
X020248Y018823D01*
X020248Y018673D01*
X020250Y018656D01*
X020254Y018639D01*
X020261Y018623D01*
X020271Y018609D01*
X020284Y018596D01*
X020298Y018586D01*
X020314Y018579D01*
X020331Y018575D01*
X020348Y018573D01*
X021048Y018573D02*
X021065Y018575D01*
X021082Y018579D01*
X021098Y018586D01*
X021112Y018596D01*
X021125Y018609D01*
X021135Y018623D01*
X021142Y018639D01*
X021146Y018656D01*
X021148Y018673D01*
X027440Y018743D02*
X027540Y018643D01*
X027440Y018743D02*
X027440Y019093D01*
X027442Y019116D01*
X027447Y019139D01*
X027456Y019161D01*
X027469Y019181D01*
X027484Y019199D01*
X027502Y019214D01*
X027522Y019227D01*
X027544Y019236D01*
X027567Y019241D01*
X027590Y019243D01*
X030556Y019243D02*
X030579Y019241D01*
X030602Y019236D01*
X030624Y019227D01*
X030644Y019214D01*
X030662Y019199D01*
X030677Y019181D01*
X030690Y019161D01*
X030699Y019139D01*
X030704Y019116D01*
X030706Y019093D01*
X030706Y018743D01*
X030606Y018643D01*
X032523Y016698D02*
X032523Y021598D01*
X032873Y021598D01*
X032873Y022198D01*
X032523Y022198D01*
X032523Y022948D01*
X036623Y022948D01*
X036623Y022198D01*
X036273Y022198D01*
X036273Y021598D01*
X036623Y021598D01*
X036623Y016698D01*
X032523Y016698D01*
X033863Y021598D02*
X033865Y021651D01*
X033871Y021704D01*
X033881Y021756D01*
X033895Y021807D01*
X033912Y021857D01*
X033933Y021906D01*
X033958Y021953D01*
X033986Y021998D01*
X034018Y022041D01*
X034053Y022081D01*
X034090Y022118D01*
X034130Y022153D01*
X034173Y022185D01*
X034218Y022213D01*
X034265Y022238D01*
X034314Y022259D01*
X034364Y022276D01*
X034415Y022290D01*
X034467Y022300D01*
X034520Y022306D01*
X034573Y022308D01*
X034626Y022306D01*
X034679Y022300D01*
X034731Y022290D01*
X034782Y022276D01*
X034832Y022259D01*
X034881Y022238D01*
X034928Y022213D01*
X034973Y022185D01*
X035016Y022153D01*
X035056Y022118D01*
X035093Y022081D01*
X035128Y022041D01*
X035160Y021998D01*
X035188Y021953D01*
X035213Y021906D01*
X035234Y021857D01*
X035251Y021807D01*
X035265Y021756D01*
X035275Y021704D01*
X035281Y021651D01*
X035283Y021598D01*
X035281Y021545D01*
X035275Y021492D01*
X035265Y021440D01*
X035251Y021389D01*
X035234Y021339D01*
X035213Y021290D01*
X035188Y021243D01*
X035160Y021198D01*
X035128Y021155D01*
X035093Y021115D01*
X035056Y021078D01*
X035016Y021043D01*
X034973Y021011D01*
X034928Y020983D01*
X034881Y020958D01*
X034832Y020937D01*
X034782Y020920D01*
X034731Y020906D01*
X034679Y020896D01*
X034626Y020890D01*
X034573Y020888D01*
X034520Y020890D01*
X034467Y020896D01*
X034415Y020906D01*
X034364Y020920D01*
X034314Y020937D01*
X034265Y020958D01*
X034218Y020983D01*
X034173Y021011D01*
X034130Y021043D01*
X034090Y021078D01*
X034053Y021115D01*
X034018Y021155D01*
X033986Y021198D01*
X033958Y021243D01*
X033933Y021290D01*
X033912Y021339D01*
X033895Y021389D01*
X033881Y021440D01*
X033871Y021492D01*
X033865Y021545D01*
X033863Y021598D01*
X044198Y017973D02*
X044198Y017173D01*
X044298Y017073D01*
X044198Y016973D01*
X044198Y016173D01*
X044298Y016073D01*
X045098Y016073D01*
X045198Y016173D01*
X045198Y016973D01*
X045098Y017073D01*
X045198Y017173D01*
X045198Y017973D01*
X045098Y018073D01*
X044298Y018073D01*
X044198Y017973D01*
X045222Y021826D02*
X049160Y021826D01*
X049160Y025610D01*
X045222Y025610D01*
X045230Y025588D02*
X045230Y025431D01*
X045387Y025431D01*
X045387Y022006D01*
X045230Y022006D01*
X045230Y021848D01*
X046848Y026698D02*
X047548Y026698D01*
X047698Y026848D01*
X047848Y026698D01*
X048548Y026698D01*
X048698Y026848D01*
X048698Y028548D01*
X048548Y028698D01*
X047848Y028698D01*
X047698Y028548D01*
X047548Y028698D01*
X046848Y028698D01*
X046698Y028548D01*
X046698Y026848D01*
X046848Y026698D01*
X005698Y026848D02*
X005548Y026698D01*
X004848Y026698D01*
X004698Y026848D01*
X004548Y026698D01*
X003848Y026698D01*
X003698Y026848D01*
X003698Y028548D01*
X003848Y028698D01*
X004548Y028698D01*
X004698Y028548D01*
X004848Y028698D01*
X005548Y028698D01*
X005698Y028548D01*
X005698Y026848D01*
X005548Y005698D02*
X004848Y005698D01*
X004698Y005548D01*
X004548Y005698D01*
X003848Y005698D01*
X003698Y005548D01*
X003698Y003848D01*
X003848Y003698D01*
X004548Y003698D01*
X004698Y003848D01*
X004848Y003698D01*
X005548Y003698D01*
X005698Y003848D01*
X005698Y005548D01*
X005548Y005698D01*
D14*
X003671Y003349D02*
X003671Y002898D01*
X003972Y002898D02*
X003972Y003349D01*
X003822Y003199D01*
X003671Y003349D01*
X004132Y003349D02*
X004132Y002898D01*
X004432Y002898D01*
X004592Y002974D02*
X004667Y002898D01*
X004817Y002898D01*
X004892Y002974D01*
X005053Y002898D02*
X005053Y003349D01*
X004892Y003274D02*
X004817Y003349D01*
X004667Y003349D01*
X004592Y003274D01*
X004592Y002974D01*
X004282Y003124D02*
X004132Y003124D01*
X004132Y003349D02*
X004432Y003349D01*
X005053Y003124D02*
X005353Y003124D01*
X005513Y003274D02*
X005588Y003349D01*
X005738Y003349D01*
X005813Y003274D01*
X005813Y003199D01*
X005513Y002898D01*
X005813Y002898D01*
X005353Y002898D02*
X005353Y003349D01*
X005263Y005873D02*
X004963Y005873D01*
X005113Y005873D02*
X005113Y006324D01*
X004963Y006174D01*
X004263Y006174D02*
X004263Y006249D01*
X004188Y006324D01*
X004038Y006324D01*
X003963Y006249D01*
X004263Y006174D02*
X003963Y005873D01*
X004263Y005873D01*
X003698Y006823D02*
X006198Y006823D01*
X006198Y012323D01*
X003698Y012323D01*
X003698Y006823D01*
X008173Y010348D02*
X008173Y010574D01*
X008248Y010649D01*
X008398Y010649D01*
X008473Y010574D01*
X008473Y010348D01*
X008623Y010348D02*
X008173Y010348D01*
X008473Y010499D02*
X008623Y010649D01*
X008623Y010809D02*
X008623Y011109D01*
X008623Y010959D02*
X008173Y010959D01*
X008323Y010809D01*
X008943Y010909D02*
X008943Y011134D01*
X009018Y011209D01*
X009168Y011209D01*
X009243Y011134D01*
X009243Y010909D01*
X009243Y011059D02*
X009393Y011209D01*
X009393Y010909D02*
X008943Y010909D01*
X009018Y010749D02*
X009318Y010448D01*
X009393Y010524D01*
X009393Y010674D01*
X009318Y010749D01*
X009018Y010749D01*
X008943Y010674D01*
X008943Y010524D01*
X009018Y010448D01*
X009318Y010448D01*
X010173Y010348D02*
X010173Y010574D01*
X010248Y010649D01*
X010398Y010649D01*
X010473Y010574D01*
X010473Y010348D01*
X010623Y010348D02*
X010173Y010348D01*
X010473Y010499D02*
X010623Y010649D01*
X010623Y010809D02*
X010323Y011109D01*
X010248Y011109D01*
X010173Y011034D01*
X010173Y010884D01*
X010248Y010809D01*
X010623Y010809D02*
X010623Y011109D01*
X010943Y011134D02*
X011018Y011209D01*
X011168Y011209D01*
X011243Y011134D01*
X011243Y010909D01*
X011243Y011059D02*
X011393Y011209D01*
X011393Y010909D02*
X010943Y010909D01*
X010943Y011134D01*
X011018Y010749D02*
X011318Y010448D01*
X011393Y010524D01*
X011393Y010674D01*
X011318Y010749D01*
X011018Y010749D01*
X010943Y010674D01*
X010943Y010524D01*
X011018Y010448D01*
X011318Y010448D01*
X012623Y010349D02*
X012623Y010198D01*
X012623Y010274D02*
X013073Y010274D01*
X013073Y010349D02*
X013073Y010198D01*
X012998Y010505D02*
X013073Y010580D01*
X013073Y010731D01*
X012998Y010806D01*
X012998Y010966D02*
X013073Y011041D01*
X013073Y011191D01*
X012998Y011266D01*
X012923Y011266D01*
X012848Y011191D01*
X012848Y011116D01*
X012848Y011191D02*
X012773Y011266D01*
X012698Y011266D01*
X012623Y011191D01*
X012623Y011041D01*
X012698Y010966D01*
X012698Y010806D02*
X012623Y010731D01*
X012623Y010580D01*
X012698Y010505D01*
X012998Y010505D01*
X013823Y011098D02*
X013823Y011549D01*
X014049Y011549D01*
X014124Y011474D01*
X014124Y011324D01*
X014049Y011249D01*
X013823Y011249D01*
X013974Y011249D02*
X014124Y011098D01*
X014284Y011098D02*
X014284Y011549D01*
X014584Y011549D01*
X014744Y011549D02*
X014744Y011098D01*
X014584Y011098D02*
X014284Y011098D01*
X014284Y011324D02*
X014434Y011324D01*
X014744Y011324D02*
X014894Y011324D01*
X014744Y011549D02*
X015044Y011549D01*
X015205Y011474D02*
X015205Y011174D01*
X015505Y011474D01*
X015505Y011174D01*
X015430Y011098D01*
X015280Y011098D01*
X015205Y011174D01*
X015205Y011474D02*
X015280Y011549D01*
X015430Y011549D01*
X015505Y011474D01*
X015665Y011474D02*
X015740Y011549D01*
X015890Y011549D01*
X015965Y011474D01*
X015965Y011399D01*
X015665Y011098D01*
X015965Y011098D01*
X017673Y011099D02*
X017673Y010949D01*
X017748Y010873D01*
X018048Y010873D01*
X018123Y010949D01*
X018123Y011099D01*
X018048Y011174D01*
X018048Y011334D02*
X018123Y011409D01*
X018123Y011559D01*
X018048Y011634D01*
X017973Y011634D01*
X017898Y011559D01*
X017898Y011334D01*
X018048Y011334D01*
X017898Y011334D02*
X017748Y011484D01*
X017673Y011634D01*
X017748Y011174D02*
X017673Y011099D01*
X019273Y011339D02*
X019723Y011339D01*
X019723Y011189D02*
X019723Y011489D01*
X019648Y011649D02*
X019723Y011724D01*
X019723Y011950D01*
X019423Y011950D01*
X019498Y012110D02*
X019498Y012260D01*
X019273Y012110D02*
X019273Y012410D01*
X019273Y012110D02*
X019723Y012110D01*
X019648Y011649D02*
X019423Y011649D01*
X019273Y011339D02*
X019423Y011189D01*
X019648Y011034D02*
X019723Y011034D01*
X019723Y010959D01*
X019648Y010959D01*
X019648Y011034D01*
X019648Y010799D02*
X019348Y010799D01*
X019648Y010498D01*
X019723Y010574D01*
X019723Y010724D01*
X019648Y010799D01*
X019348Y010799D02*
X019273Y010724D01*
X019273Y010574D01*
X019348Y010498D01*
X019648Y010498D01*
X020473Y010924D02*
X020473Y011074D01*
X020548Y011149D01*
X020623Y011149D01*
X020923Y010848D01*
X020923Y011149D01*
X020698Y011309D02*
X020698Y011609D01*
X020548Y011769D02*
X020473Y011844D01*
X020473Y011994D01*
X020548Y012069D01*
X020848Y011769D01*
X020923Y011844D01*
X020923Y011994D01*
X020848Y012069D01*
X020548Y012069D01*
X020548Y011769D02*
X020848Y011769D01*
X020923Y011534D02*
X020473Y011534D01*
X020698Y011309D01*
X020473Y010924D02*
X020548Y010848D01*
X021348Y010848D02*
X021348Y011074D01*
X021423Y011149D01*
X021573Y011149D01*
X021648Y011074D01*
X021648Y010848D01*
X021798Y010848D02*
X021348Y010848D01*
X021648Y010999D02*
X021798Y011149D01*
X021723Y011309D02*
X021798Y011384D01*
X021798Y011534D01*
X021723Y011609D01*
X021573Y011609D01*
X021498Y011534D01*
X021498Y011459D01*
X021573Y011309D01*
X021348Y011309D01*
X021348Y011609D01*
X022717Y011274D02*
X022792Y011198D01*
X022867Y011198D01*
X022942Y011274D01*
X022942Y011649D01*
X022867Y011649D02*
X023017Y011649D01*
X023178Y011649D02*
X023178Y011198D01*
X023178Y011349D02*
X023403Y011349D01*
X023478Y011424D01*
X023478Y011574D01*
X023403Y011649D01*
X023178Y011649D01*
X023638Y011424D02*
X023938Y011424D01*
X023863Y011649D02*
X023638Y011424D01*
X023863Y011198D02*
X023863Y011649D01*
X025123Y012574D02*
X025198Y012498D01*
X025274Y012498D01*
X025349Y012574D01*
X025349Y012949D01*
X025274Y012949D02*
X025424Y012949D01*
X025584Y012949D02*
X025809Y012949D01*
X025884Y012874D01*
X025884Y012724D01*
X025809Y012649D01*
X025584Y012649D01*
X025584Y012498D02*
X025584Y012949D01*
X026044Y012874D02*
X026119Y012949D01*
X026269Y012949D01*
X026344Y012874D01*
X026344Y012799D01*
X026044Y012498D01*
X026344Y012498D01*
X027123Y011999D02*
X027198Y012074D01*
X027273Y012074D01*
X027348Y011999D01*
X027423Y012074D01*
X027498Y012074D01*
X027573Y011999D01*
X027573Y011849D01*
X027498Y011773D01*
X027348Y011924D02*
X027348Y011999D01*
X027123Y011999D02*
X027123Y011849D01*
X027198Y011773D01*
X027198Y011074D02*
X027123Y010999D01*
X027123Y010849D01*
X027198Y010773D01*
X027198Y011074D02*
X027273Y011074D01*
X027573Y010773D01*
X027573Y011074D01*
X027573Y010074D02*
X027573Y009773D01*
X027538Y009655D02*
X027538Y018631D01*
X027597Y019261D02*
X030550Y019261D01*
X030569Y018631D02*
X030569Y009655D01*
X030550Y009025D02*
X027597Y009025D01*
X027273Y009773D02*
X027123Y009924D01*
X027573Y009924D01*
X023938Y009399D02*
X023788Y009324D01*
X023638Y009174D01*
X023863Y009174D01*
X023938Y009099D01*
X023938Y009024D01*
X023863Y008948D01*
X023713Y008948D01*
X023638Y009024D01*
X023638Y009174D01*
X023478Y009174D02*
X023403Y009099D01*
X023178Y009099D01*
X023178Y008948D02*
X023178Y009399D01*
X023403Y009399D01*
X023478Y009324D01*
X023478Y009174D01*
X023017Y009399D02*
X022867Y009399D01*
X022942Y009399D02*
X022942Y009024D01*
X022867Y008948D01*
X022792Y008948D01*
X022717Y009024D01*
X028098Y006724D02*
X028098Y006424D01*
X028173Y006348D01*
X028324Y006348D01*
X028399Y006424D01*
X028559Y006424D02*
X028559Y006348D01*
X028559Y006424D02*
X028859Y006724D01*
X028859Y006799D01*
X028559Y006799D01*
X028399Y006724D02*
X028324Y006799D01*
X028173Y006799D01*
X028098Y006724D01*
X029473Y006649D02*
X029624Y006799D01*
X029624Y006348D01*
X029774Y006348D02*
X029473Y006348D01*
X029934Y006424D02*
X030234Y006724D01*
X030234Y006424D01*
X030159Y006348D01*
X030009Y006348D01*
X029934Y006424D01*
X029934Y006724D01*
X030009Y006799D01*
X030159Y006799D01*
X030234Y006724D01*
X030394Y006649D02*
X030394Y006424D01*
X030469Y006348D01*
X030694Y006348D01*
X030694Y006649D01*
X030855Y006574D02*
X031005Y006574D01*
X030855Y006799D02*
X031155Y006799D01*
X030855Y006799D02*
X030855Y006348D01*
X031198Y006198D02*
X031198Y001198D01*
X031698Y000698D01*
X034698Y000698D01*
X035198Y001198D01*
X035198Y006198D01*
X034698Y006698D01*
X031698Y006698D01*
X031198Y006198D01*
X033473Y007299D02*
X033473Y007599D01*
X033548Y007674D01*
X033699Y007674D01*
X033774Y007599D01*
X033473Y007299D01*
X033548Y007223D01*
X033699Y007223D01*
X033774Y007299D01*
X033774Y007599D01*
X033934Y007299D02*
X034009Y007299D01*
X034009Y007223D01*
X033934Y007223D01*
X033934Y007299D01*
X034164Y007223D02*
X034464Y007223D01*
X034314Y007223D02*
X034314Y007674D01*
X034164Y007524D01*
X034624Y007524D02*
X034624Y007299D01*
X034699Y007223D01*
X034925Y007223D01*
X034925Y007524D01*
X035085Y007449D02*
X035235Y007449D01*
X035085Y007674D02*
X035385Y007674D01*
X035085Y007674D02*
X035085Y007223D01*
X034159Y008848D02*
X034159Y009299D01*
X033934Y009074D01*
X034234Y009074D01*
X033774Y009224D02*
X033699Y009299D01*
X033548Y009299D01*
X033473Y009224D01*
X033473Y008924D01*
X033548Y008848D01*
X033699Y008848D01*
X033774Y008924D01*
X036098Y010924D02*
X036173Y010848D01*
X036473Y010848D01*
X036548Y010924D01*
X036548Y011074D01*
X036473Y011149D01*
X036473Y011309D02*
X036548Y011384D01*
X036548Y011534D01*
X036473Y011609D01*
X036323Y011609D01*
X036248Y011534D01*
X036248Y011459D01*
X036323Y011309D01*
X036098Y011309D01*
X036098Y011609D01*
X036173Y011149D02*
X036098Y011074D01*
X036098Y010924D01*
X037848Y010999D02*
X038298Y010999D01*
X038298Y011149D02*
X038298Y010848D01*
X037998Y010848D02*
X037848Y010999D01*
X038223Y011309D02*
X038223Y011384D01*
X038298Y011384D01*
X038298Y011309D01*
X038223Y011309D01*
X038223Y011539D02*
X037923Y011839D01*
X038223Y011839D01*
X038298Y011764D01*
X038298Y011614D01*
X038223Y011539D01*
X037923Y011539D01*
X037848Y011614D01*
X037848Y011764D01*
X037923Y011839D01*
X037998Y011999D02*
X038223Y011999D01*
X038298Y012074D01*
X038298Y012300D01*
X037998Y012300D01*
X038073Y012460D02*
X038073Y012610D01*
X037848Y012460D02*
X037848Y012760D01*
X037848Y012460D02*
X038298Y012460D01*
X040415Y011874D02*
X040716Y011423D01*
X040716Y011874D01*
X040876Y011649D02*
X041176Y011649D01*
X041336Y011423D02*
X041336Y011874D01*
X041486Y011724D01*
X041636Y011874D01*
X041636Y011423D01*
X041796Y011499D02*
X041872Y011423D01*
X042022Y011423D01*
X042097Y011499D01*
X042097Y011799D01*
X042022Y011874D01*
X041872Y011874D01*
X041796Y011799D01*
X041796Y011499D01*
X042257Y011499D02*
X042332Y011423D01*
X042482Y011423D01*
X042557Y011499D01*
X042557Y011574D01*
X042482Y011649D01*
X042332Y011649D01*
X042257Y011724D01*
X042257Y011799D01*
X042332Y011874D01*
X042482Y011874D01*
X042557Y011799D01*
X042717Y011874D02*
X043017Y011874D01*
X043178Y011874D02*
X043178Y011423D01*
X043478Y011423D01*
X043328Y011649D02*
X043178Y011649D01*
X043178Y011874D02*
X043478Y011874D01*
X043638Y011874D02*
X043938Y011874D01*
X043788Y011874D02*
X043788Y011423D01*
X042867Y011649D02*
X042717Y011649D01*
X042717Y011874D02*
X042717Y011423D01*
X040415Y011423D02*
X040415Y011874D01*
X044098Y015449D02*
X044173Y015373D01*
X044249Y015373D01*
X044324Y015449D01*
X044324Y015824D01*
X044249Y015824D02*
X044399Y015824D01*
X044559Y015824D02*
X044559Y015373D01*
X044559Y015524D02*
X044784Y015524D01*
X044859Y015599D01*
X044859Y015749D01*
X044784Y015824D01*
X044559Y015824D01*
X045019Y015824D02*
X045019Y015599D01*
X045169Y015674D01*
X045244Y015674D01*
X045319Y015599D01*
X045319Y015449D01*
X045244Y015373D01*
X045094Y015373D01*
X045019Y015449D01*
X045019Y015824D02*
X045319Y015824D01*
X046323Y017323D02*
X046323Y020823D01*
X048823Y020823D01*
X048823Y017323D01*
X046323Y017323D01*
X046298Y021223D02*
X046449Y021223D01*
X046524Y021299D01*
X046298Y021223D02*
X046223Y021299D01*
X046223Y021599D01*
X046298Y021674D01*
X046449Y021674D01*
X046524Y021599D01*
X046684Y021674D02*
X046984Y021674D01*
X046834Y021674D02*
X046834Y021223D01*
X047144Y021223D02*
X047444Y021223D01*
X047605Y021148D02*
X047905Y021148D01*
X048065Y021223D02*
X048065Y021674D01*
X048140Y021449D02*
X048365Y021223D01*
X048065Y021374D02*
X048365Y021674D01*
X047144Y021674D02*
X047144Y021223D01*
X046648Y022523D02*
X046723Y022599D01*
X046723Y022749D01*
X046648Y022824D01*
X046573Y022824D01*
X046498Y022749D01*
X046498Y022674D01*
X046498Y022749D02*
X046423Y022824D01*
X046348Y022824D01*
X046273Y022749D01*
X046273Y022599D01*
X046348Y022523D01*
X046148Y023258D02*
X046148Y023559D01*
X046148Y023409D02*
X045698Y023409D01*
X045848Y023258D01*
X045773Y023719D02*
X045698Y023794D01*
X045698Y023944D01*
X045773Y024019D01*
X046073Y023719D01*
X046148Y023794D01*
X046148Y023944D01*
X046073Y024019D01*
X045773Y024019D01*
X045698Y024179D02*
X046148Y024179D01*
X045998Y024179D02*
X045848Y024404D01*
X045998Y024179D02*
X046148Y024404D01*
X046373Y024573D02*
X046223Y024724D01*
X046673Y024724D01*
X046673Y024874D02*
X046673Y024573D01*
X046073Y023719D02*
X045773Y023719D01*
X047023Y026073D02*
X047324Y026073D01*
X047174Y026073D02*
X047174Y026524D01*
X047023Y026374D01*
X048023Y026449D02*
X048098Y026524D01*
X048249Y026524D01*
X048324Y026449D01*
X048324Y026374D01*
X048023Y026073D01*
X048324Y026073D01*
X048405Y028923D02*
X048405Y029374D01*
X048565Y029224D02*
X048715Y029374D01*
X048715Y028923D01*
X048565Y028923D02*
X048865Y028923D01*
X048405Y029149D02*
X048105Y029149D01*
X047944Y029299D02*
X047869Y029374D01*
X047719Y029374D01*
X047644Y029299D01*
X047644Y028999D01*
X047719Y028923D01*
X047869Y028923D01*
X047944Y028999D01*
X048105Y028923D02*
X048105Y029374D01*
X047484Y029374D02*
X047184Y029374D01*
X047184Y028923D01*
X047484Y028923D01*
X047334Y029149D02*
X047184Y029149D01*
X047024Y029374D02*
X047024Y028923D01*
X046723Y028923D02*
X046723Y029374D01*
X046874Y029224D01*
X047024Y029374D01*
X036823Y028948D02*
X036823Y024698D01*
X035073Y024698D01*
X035073Y028948D01*
X036823Y028948D01*
X032823Y028948D02*
X032823Y024698D01*
X031073Y024698D01*
X031073Y028948D01*
X032823Y028948D01*
X028823Y028948D02*
X027073Y028948D01*
X027073Y024698D01*
X028823Y024698D01*
X028823Y028948D01*
X024823Y028948D02*
X024823Y024698D01*
X023073Y024698D01*
X023073Y028948D01*
X024823Y028948D01*
X022073Y028698D02*
X017573Y028698D01*
X017573Y026198D01*
X022073Y026198D01*
X022073Y028698D01*
X016573Y028948D02*
X014823Y028948D01*
X014823Y024698D01*
X016573Y024698D01*
X016573Y028948D01*
X012573Y028948D02*
X012573Y024698D01*
X010823Y024698D01*
X010823Y028948D01*
X012573Y028948D01*
X009448Y028573D02*
X006948Y028573D01*
X006948Y026073D01*
X009448Y026073D01*
X009448Y028573D01*
X005405Y028923D02*
X005105Y028923D01*
X005405Y029224D01*
X005405Y029299D01*
X005330Y029374D01*
X005180Y029374D01*
X005105Y029299D01*
X004944Y029374D02*
X004944Y028923D01*
X004794Y029074D01*
X004644Y028923D01*
X004644Y029374D01*
X004484Y029299D02*
X004409Y029374D01*
X004259Y029374D01*
X004184Y029299D01*
X004184Y028999D01*
X004259Y028923D01*
X004409Y028923D01*
X004484Y028999D01*
X004484Y029299D01*
X004024Y029299D02*
X004024Y029149D01*
X003949Y029074D01*
X003723Y029074D01*
X003723Y028923D02*
X003723Y029374D01*
X003949Y029374D01*
X004024Y029299D01*
X003148Y026613D02*
X002773Y026613D01*
X002773Y026538D02*
X002773Y026688D01*
X003148Y026613D02*
X003223Y026538D01*
X003223Y026463D01*
X003148Y026388D01*
X003148Y026228D02*
X002848Y026228D01*
X002773Y026153D01*
X002773Y025928D01*
X003223Y025928D01*
X003223Y026153D01*
X003148Y026228D01*
X003223Y025768D02*
X002923Y025768D01*
X002773Y025617D01*
X002923Y025467D01*
X003223Y025467D01*
X003298Y025307D02*
X003298Y025007D01*
X002998Y024697D02*
X002998Y024546D01*
X002773Y024546D02*
X002773Y024847D01*
X002773Y024546D02*
X003223Y024546D01*
X003223Y024386D02*
X003223Y024086D01*
X002773Y024086D01*
X002773Y024386D01*
X002998Y024236D02*
X002998Y024086D01*
X002998Y023926D02*
X003073Y023851D01*
X003073Y023626D01*
X003073Y023776D02*
X003223Y023926D01*
X002998Y023926D02*
X002848Y023926D01*
X002773Y023851D01*
X002773Y023626D01*
X003223Y023626D01*
X005748Y023669D02*
X005748Y023820D01*
X005823Y023895D01*
X006123Y023594D01*
X006198Y023669D01*
X006198Y023820D01*
X006123Y023895D01*
X005823Y023895D01*
X005748Y024055D02*
X006198Y024055D01*
X006048Y024055D02*
X005898Y024280D01*
X006048Y024055D02*
X006198Y024280D01*
X006173Y024588D02*
X006248Y024663D01*
X006248Y024813D01*
X006173Y024888D01*
X006098Y024888D01*
X006023Y024813D01*
X006023Y024738D01*
X006023Y024813D02*
X005948Y024888D01*
X005873Y024888D01*
X005798Y024813D01*
X005798Y024663D01*
X005873Y024588D01*
X005748Y023669D02*
X005823Y023594D01*
X006123Y023594D01*
X006198Y023434D02*
X006198Y023134D01*
X006198Y023284D02*
X005748Y023284D01*
X005898Y023134D01*
X005848Y022688D02*
X006298Y022688D01*
X006298Y022538D02*
X006298Y022838D01*
X005998Y022538D02*
X005848Y022688D01*
X003223Y021813D02*
X002998Y021588D01*
X003073Y021513D02*
X002773Y021813D01*
X002773Y021513D02*
X003223Y021513D01*
X003298Y021353D02*
X003298Y021053D01*
X003148Y020893D02*
X003223Y020817D01*
X003223Y020667D01*
X003148Y020592D01*
X002998Y020667D02*
X002998Y020817D01*
X003073Y020893D01*
X003148Y020893D01*
X002998Y020667D02*
X002923Y020592D01*
X002848Y020592D01*
X002773Y020667D01*
X002773Y020817D01*
X002848Y020893D01*
X002923Y020432D02*
X003223Y020432D01*
X002998Y020432D02*
X002998Y020132D01*
X002923Y020132D02*
X002773Y020282D01*
X002923Y020432D01*
X002923Y020132D02*
X003223Y020132D01*
X003223Y019972D02*
X003223Y019671D01*
X002773Y019671D01*
X002773Y019972D01*
X002998Y019822D02*
X002998Y019671D01*
X002773Y019511D02*
X003223Y019511D01*
X003223Y019211D02*
X002773Y019211D01*
X002923Y019361D01*
X002773Y019511D01*
X002773Y019054D02*
X002773Y018904D01*
X002773Y018979D02*
X003223Y018979D01*
X003223Y018904D02*
X003223Y019054D01*
X005748Y019169D02*
X005748Y019320D01*
X005823Y019395D01*
X006123Y019094D01*
X006198Y019169D01*
X006198Y019320D01*
X006123Y019395D01*
X005823Y019395D01*
X005748Y019555D02*
X006198Y019555D01*
X006048Y019555D02*
X005898Y019780D01*
X006048Y019555D02*
X006198Y019780D01*
X006173Y020338D02*
X006248Y020413D01*
X006248Y020563D01*
X006173Y020638D01*
X006098Y020638D01*
X006023Y020563D01*
X006023Y020488D01*
X006023Y020563D02*
X005948Y020638D01*
X005873Y020638D01*
X005798Y020563D01*
X005798Y020413D01*
X005873Y020338D01*
X005748Y019169D02*
X005823Y019094D01*
X006123Y019094D01*
X006198Y018934D02*
X006198Y018634D01*
X006298Y018588D02*
X006298Y018288D01*
X006298Y018438D02*
X005848Y018438D01*
X005998Y018288D01*
X005898Y018634D02*
X005748Y018784D01*
X006198Y018784D01*
X007698Y017898D02*
X007698Y025698D01*
X010348Y025698D01*
X010348Y017898D01*
X007698Y017898D01*
X007523Y016938D02*
X007523Y016788D01*
X007523Y016863D02*
X007898Y016863D01*
X007973Y016788D01*
X007973Y016713D01*
X007898Y016638D01*
X007898Y016478D02*
X007598Y016478D01*
X007523Y016403D01*
X007523Y016178D01*
X007973Y016178D01*
X007973Y016403D01*
X007898Y016478D01*
X007973Y016018D02*
X007673Y016018D01*
X007523Y015867D01*
X007673Y015717D01*
X007973Y015717D01*
X008048Y015557D02*
X008048Y015257D01*
X007898Y015097D02*
X007748Y015097D01*
X007748Y014947D01*
X007598Y015097D02*
X007523Y015022D01*
X007523Y014872D01*
X007598Y014796D01*
X007898Y014796D01*
X007973Y014872D01*
X007973Y015022D01*
X007898Y015097D01*
X007973Y014636D02*
X007973Y014336D01*
X007523Y014336D01*
X007523Y014636D01*
X007748Y014486D02*
X007748Y014336D01*
X007748Y014176D02*
X007823Y014101D01*
X007823Y013876D01*
X007823Y014026D02*
X007973Y014176D01*
X007748Y014176D02*
X007598Y014176D01*
X007523Y014101D01*
X007523Y013876D01*
X007973Y013876D01*
X009473Y013924D02*
X009774Y014224D01*
X009774Y013924D01*
X009699Y013848D01*
X009548Y013848D01*
X009473Y013924D01*
X009473Y014224D01*
X009548Y014299D01*
X009699Y014299D01*
X009774Y014224D01*
X009934Y013924D02*
X010009Y013924D01*
X010009Y013848D01*
X009934Y013848D01*
X009934Y013924D01*
X010164Y013848D02*
X010464Y013848D01*
X010314Y013848D02*
X010314Y014299D01*
X010164Y014149D01*
X010624Y014149D02*
X010624Y013924D01*
X010699Y013848D01*
X010925Y013848D01*
X010925Y014149D01*
X011085Y014074D02*
X011235Y014074D01*
X011085Y014299D02*
X011385Y014299D01*
X011085Y014299D02*
X011085Y013848D01*
X013098Y013848D02*
X013399Y013848D01*
X013249Y013848D02*
X013249Y014299D01*
X013098Y014149D01*
X013559Y013924D02*
X013634Y013924D01*
X013634Y013848D01*
X013559Y013848D01*
X013559Y013924D01*
X013789Y013924D02*
X014089Y014224D01*
X014089Y013924D01*
X014014Y013848D01*
X013864Y013848D01*
X013789Y013924D01*
X013789Y014224D01*
X013864Y014299D01*
X014014Y014299D01*
X014089Y014224D01*
X014249Y014149D02*
X014249Y013924D01*
X014324Y013848D01*
X014550Y013848D01*
X014550Y014149D01*
X014710Y014074D02*
X014860Y014074D01*
X014710Y014299D02*
X015010Y014299D01*
X014710Y014299D02*
X014710Y013848D01*
X013859Y015473D02*
X013559Y015473D01*
X013859Y015774D01*
X013859Y015849D01*
X013784Y015924D01*
X013634Y015924D01*
X013559Y015849D01*
X013399Y015849D02*
X013324Y015924D01*
X013173Y015924D01*
X013098Y015849D01*
X013098Y015549D01*
X013173Y015473D01*
X013324Y015473D01*
X013399Y015549D01*
X014873Y016124D02*
X015174Y016424D01*
X015174Y016124D01*
X015099Y016048D01*
X014948Y016048D01*
X014873Y016124D01*
X014873Y016424D01*
X014948Y016499D01*
X015099Y016499D01*
X015174Y016424D01*
X015334Y016124D02*
X015409Y016124D01*
X015409Y016048D01*
X015334Y016048D01*
X015334Y016124D01*
X015564Y016048D02*
X015864Y016048D01*
X015714Y016048D02*
X015714Y016499D01*
X015564Y016349D01*
X016024Y016349D02*
X016024Y016124D01*
X016099Y016048D01*
X016325Y016048D01*
X016325Y016349D01*
X016485Y016274D02*
X016635Y016274D01*
X016485Y016499D02*
X016785Y016499D01*
X016485Y016499D02*
X016485Y016048D01*
X018473Y016034D02*
X018473Y015809D01*
X018923Y015809D01*
X018773Y015809D02*
X018773Y016034D01*
X018698Y016109D01*
X018548Y016109D01*
X018473Y016034D01*
X018773Y015959D02*
X018923Y016109D01*
X019298Y016034D02*
X019523Y015809D01*
X019523Y016109D01*
X019748Y016034D02*
X019298Y016034D01*
X019373Y015649D02*
X019523Y015649D01*
X019598Y015574D01*
X019598Y015348D01*
X019748Y015348D02*
X019298Y015348D01*
X019298Y015574D01*
X019373Y015649D01*
X019598Y015499D02*
X019748Y015649D01*
X020348Y015499D02*
X020798Y015499D01*
X020798Y015649D02*
X020798Y015348D01*
X020498Y015348D02*
X020348Y015499D01*
X020348Y015809D02*
X020798Y015809D01*
X020648Y015809D02*
X020498Y016034D01*
X020648Y015809D02*
X020798Y016034D01*
X021298Y016034D02*
X021373Y016109D01*
X021448Y016109D01*
X021523Y016034D01*
X021523Y015884D01*
X021448Y015809D01*
X021373Y015809D01*
X021298Y015884D01*
X021298Y016034D01*
X021523Y016034D02*
X021598Y016109D01*
X021673Y016109D01*
X021748Y016034D01*
X021748Y015884D01*
X021673Y015809D01*
X021598Y015809D01*
X021523Y015884D01*
X021523Y015649D02*
X021373Y015649D01*
X021298Y015574D01*
X021298Y015348D01*
X021748Y015348D01*
X021598Y015348D02*
X021598Y015574D01*
X021523Y015649D01*
X021598Y015499D02*
X021748Y015649D01*
X022717Y015649D02*
X022792Y015573D01*
X022867Y015573D01*
X022942Y015649D01*
X022942Y016024D01*
X022867Y016024D02*
X023017Y016024D01*
X023178Y016024D02*
X023178Y015573D01*
X023178Y015724D02*
X023403Y015724D01*
X023478Y015799D01*
X023478Y015949D01*
X023403Y016024D01*
X023178Y016024D01*
X023638Y016024D02*
X023938Y016024D01*
X023938Y015949D01*
X023638Y015649D01*
X023638Y015573D01*
X025123Y016199D02*
X025198Y016123D01*
X025274Y016123D01*
X025349Y016199D01*
X025349Y016574D01*
X025274Y016574D02*
X025424Y016574D01*
X025584Y016574D02*
X025809Y016574D01*
X025884Y016499D01*
X025884Y016349D01*
X025809Y016274D01*
X025584Y016274D01*
X025584Y016123D02*
X025584Y016574D01*
X026044Y016424D02*
X026194Y016574D01*
X026194Y016123D01*
X026044Y016123D02*
X026344Y016123D01*
X027123Y015624D02*
X027198Y015699D01*
X027273Y015699D01*
X027348Y015624D01*
X027423Y015699D01*
X027498Y015699D01*
X027573Y015624D01*
X027573Y015474D01*
X027498Y015398D01*
X027348Y015549D02*
X027348Y015624D01*
X027123Y015624D02*
X027123Y015474D01*
X027198Y015398D01*
X027198Y014699D02*
X027123Y014624D01*
X027123Y014474D01*
X027198Y014398D01*
X027198Y014699D02*
X027273Y014699D01*
X027573Y014398D01*
X027573Y014699D01*
X028397Y014783D02*
X028397Y014558D01*
X028848Y014558D01*
X028698Y014558D02*
X028698Y014783D01*
X028623Y014858D01*
X028473Y014858D01*
X028397Y014783D01*
X028397Y015018D02*
X028397Y015243D01*
X028473Y015318D01*
X028623Y015318D01*
X028698Y015243D01*
X028698Y015018D01*
X028848Y015018D02*
X028397Y015018D01*
X028698Y015168D02*
X028848Y015318D01*
X028848Y014858D02*
X028698Y014708D01*
X028773Y014397D02*
X028397Y014397D01*
X028397Y014097D02*
X028773Y014097D01*
X028848Y014172D01*
X028848Y014322D01*
X028773Y014397D01*
X028773Y013937D02*
X028848Y013862D01*
X028848Y013712D01*
X028773Y013637D01*
X028473Y013637D01*
X028397Y013712D01*
X028397Y013862D01*
X028473Y013937D01*
X029164Y013623D02*
X029164Y013473D01*
X029239Y013398D01*
X029164Y013623D02*
X029239Y013698D01*
X029314Y013698D01*
X029614Y013398D01*
X029614Y013698D01*
X028923Y013477D02*
X028923Y013176D01*
X028848Y013016D02*
X028698Y012866D01*
X028698Y012941D02*
X028698Y012716D01*
X028848Y012716D02*
X028397Y012716D01*
X028397Y012941D01*
X028473Y013016D01*
X028623Y013016D01*
X028698Y012941D01*
X029164Y012933D02*
X029239Y013008D01*
X029539Y012707D01*
X029614Y012782D01*
X029614Y012933D01*
X029539Y013008D01*
X029239Y013008D01*
X029164Y012933D02*
X029164Y012782D01*
X029239Y012707D01*
X029539Y012707D01*
X029539Y013168D02*
X029539Y013243D01*
X029614Y013243D01*
X029614Y013168D01*
X029539Y013168D01*
X027573Y013398D02*
X027573Y013699D01*
X027573Y013549D02*
X027123Y013549D01*
X027273Y013398D01*
X024194Y013449D02*
X024119Y013373D01*
X023969Y013373D01*
X023894Y013449D01*
X024044Y013599D02*
X024119Y013599D01*
X024194Y013524D01*
X024194Y013449D01*
X024119Y013599D02*
X024194Y013674D01*
X024194Y013749D01*
X024119Y013824D01*
X023969Y013824D01*
X023894Y013749D01*
X023734Y013749D02*
X023734Y013599D01*
X023659Y013524D01*
X023434Y013524D01*
X023434Y013373D02*
X023434Y013824D01*
X023659Y013824D01*
X023734Y013749D01*
X023274Y013824D02*
X023124Y013824D01*
X023199Y013824D02*
X023199Y013449D01*
X023124Y013373D01*
X023048Y013373D01*
X022973Y013449D01*
X018923Y015424D02*
X018923Y015574D01*
X018848Y015649D01*
X018548Y015649D01*
X018848Y015348D01*
X018923Y015424D01*
X018848Y015348D02*
X018548Y015348D01*
X018473Y015424D01*
X018473Y015574D01*
X018548Y015649D01*
X015634Y017648D02*
X015334Y017648D01*
X015484Y017648D02*
X015484Y018099D01*
X015334Y017949D01*
X015174Y018024D02*
X015099Y018099D01*
X014948Y018099D01*
X014873Y018024D01*
X014873Y017724D01*
X014948Y017648D01*
X015099Y017648D01*
X015174Y017724D01*
X011419Y017004D02*
X011119Y016704D01*
X011194Y016628D01*
X011344Y016628D01*
X011419Y016704D01*
X011419Y017004D01*
X011344Y017079D01*
X011194Y017079D01*
X011119Y017004D01*
X011119Y016704D01*
X010959Y017004D02*
X010659Y016704D01*
X010659Y016628D01*
X010424Y016628D02*
X010424Y017079D01*
X010198Y016854D01*
X010499Y016854D01*
X010659Y017079D02*
X010959Y017079D01*
X010959Y017004D01*
X010684Y017398D02*
X010684Y017474D01*
X010984Y017774D01*
X010984Y017849D01*
X010684Y017849D01*
X010524Y017774D02*
X010524Y017624D01*
X010449Y017549D01*
X010223Y017549D01*
X010374Y017549D02*
X010524Y017398D01*
X010223Y017398D02*
X010223Y017849D01*
X010449Y017849D01*
X010524Y017774D01*
X010159Y015924D02*
X010234Y015849D01*
X010234Y015774D01*
X010159Y015699D01*
X010234Y015624D01*
X010234Y015549D01*
X010159Y015473D01*
X010009Y015473D01*
X009934Y015549D01*
X009774Y015549D02*
X009699Y015473D01*
X009548Y015473D01*
X009473Y015549D01*
X009473Y015849D01*
X009548Y015924D01*
X009699Y015924D01*
X009774Y015849D01*
X009934Y015849D02*
X010009Y015924D01*
X010159Y015924D01*
X010159Y015699D02*
X010084Y015699D01*
X007748Y015717D02*
X007748Y016018D01*
X006823Y015780D02*
X006673Y015555D01*
X006523Y015780D01*
X006373Y015555D02*
X006823Y015555D01*
X006748Y015395D02*
X006823Y015320D01*
X006823Y015169D01*
X006748Y015094D01*
X006598Y015094D02*
X006523Y015245D01*
X006523Y015320D01*
X006598Y015395D01*
X006748Y015395D01*
X006598Y015094D02*
X006373Y015094D01*
X006373Y015395D01*
X006173Y016213D02*
X006248Y016288D01*
X006248Y016438D01*
X006173Y016513D01*
X006098Y016513D01*
X006023Y016438D01*
X006023Y016363D01*
X006023Y016438D02*
X005948Y016513D01*
X005873Y016513D01*
X005798Y016438D01*
X005798Y016288D01*
X005873Y016213D01*
X006298Y014463D02*
X006298Y014163D01*
X006298Y014313D02*
X005848Y014313D01*
X005998Y014163D01*
X011448Y019898D02*
X011448Y020049D01*
X011448Y019974D02*
X011898Y019974D01*
X011898Y020049D02*
X011898Y019898D01*
X011823Y020205D02*
X011523Y020205D01*
X011448Y020280D01*
X011448Y020431D01*
X011523Y020506D01*
X011598Y020666D02*
X011448Y020816D01*
X011898Y020816D01*
X011898Y020666D02*
X011898Y020966D01*
X011823Y020506D02*
X011898Y020431D01*
X011898Y020280D01*
X011823Y020205D01*
X014323Y020098D02*
X014624Y020098D01*
X014784Y020098D02*
X014784Y020549D01*
X014934Y020399D01*
X015084Y020549D01*
X015084Y020098D01*
X015244Y020174D02*
X015319Y020098D01*
X015469Y020098D01*
X015544Y020174D01*
X015544Y020249D01*
X015469Y020324D01*
X015394Y020324D01*
X015469Y020324D02*
X015544Y020399D01*
X015544Y020474D01*
X015469Y020549D01*
X015319Y020549D01*
X015244Y020474D01*
X015705Y020474D02*
X015780Y020549D01*
X015930Y020549D01*
X016005Y020474D01*
X016005Y020399D01*
X015705Y020098D01*
X016005Y020098D01*
X016165Y020324D02*
X016465Y020324D01*
X016390Y020549D02*
X016390Y020098D01*
X016625Y020098D02*
X016625Y020549D01*
X016926Y020098D01*
X016926Y020549D01*
X016390Y020549D02*
X016165Y020324D01*
X014323Y020549D02*
X014323Y020098D01*
X020473Y020034D02*
X020473Y019884D01*
X020548Y019809D01*
X020473Y020034D02*
X020548Y020109D01*
X020623Y020109D01*
X020923Y019809D01*
X020923Y020109D01*
X020848Y020269D02*
X020548Y020569D01*
X020848Y020569D01*
X020923Y020494D01*
X020923Y020344D01*
X020848Y020269D01*
X020548Y020269D01*
X020473Y020344D01*
X020473Y020494D01*
X020548Y020569D01*
X021348Y020034D02*
X021423Y020109D01*
X021498Y020109D01*
X021573Y020034D01*
X021648Y020109D01*
X021723Y020109D01*
X021798Y020034D01*
X021798Y019884D01*
X021723Y019809D01*
X021798Y019649D02*
X021648Y019499D01*
X021648Y019574D02*
X021648Y019348D01*
X021798Y019348D02*
X021348Y019348D01*
X021348Y019574D01*
X021423Y019649D01*
X021573Y019649D01*
X021648Y019574D01*
X021423Y019809D02*
X021348Y019884D01*
X021348Y020034D01*
X021573Y020034D02*
X021573Y019959D01*
X020923Y019649D02*
X020923Y019348D01*
X020923Y019499D02*
X020473Y019499D01*
X020623Y019348D01*
X032923Y019424D02*
X032998Y019348D01*
X033149Y019348D01*
X033224Y019424D01*
X033224Y019499D01*
X033149Y019574D01*
X033074Y019574D01*
X033149Y019574D02*
X033224Y019649D01*
X033224Y019724D01*
X033149Y019799D01*
X032998Y019799D01*
X032923Y019724D01*
X033384Y019649D02*
X033534Y019799D01*
X033534Y019348D01*
X033384Y019348D02*
X033684Y019348D01*
X033844Y019348D02*
X033844Y019424D01*
X034144Y019724D01*
X034144Y019799D01*
X033844Y019799D01*
X041749Y006924D02*
X041749Y006473D01*
X041899Y006473D02*
X041598Y006473D01*
X041598Y006174D02*
X041824Y006174D01*
X041899Y006099D01*
X041899Y005949D01*
X041824Y005874D01*
X041598Y005874D01*
X041749Y005874D02*
X041899Y005723D01*
X042059Y005799D02*
X042059Y005949D01*
X042284Y005949D01*
X042359Y005874D01*
X042359Y005799D01*
X042284Y005723D01*
X042134Y005723D01*
X042059Y005799D01*
X042059Y005949D02*
X042209Y006099D01*
X042359Y006174D01*
X042364Y006473D02*
X042289Y006549D01*
X042364Y006473D02*
X042514Y006473D01*
X042589Y006549D01*
X042589Y006699D01*
X042514Y006774D01*
X042439Y006774D01*
X042289Y006699D01*
X042289Y006924D01*
X042589Y006924D01*
X042749Y006924D02*
X042749Y006473D01*
X042749Y006624D02*
X042975Y006774D01*
X042749Y006624D02*
X042975Y006473D01*
X042134Y006473D02*
X042059Y006473D01*
X042059Y006549D01*
X042134Y006549D01*
X042134Y006473D01*
X041749Y006924D02*
X041598Y006774D01*
X041598Y006174D02*
X041598Y005723D01*
X041948Y004698D02*
X042448Y004198D01*
X042448Y001198D01*
X041948Y000698D01*
X038948Y000698D01*
X038448Y001198D01*
X038448Y004198D01*
X038948Y004698D01*
X041948Y004698D01*
X044848Y003399D02*
X044848Y003099D01*
X044923Y003023D01*
X045074Y003023D01*
X045149Y003099D01*
X045149Y003399D01*
X045074Y003474D01*
X044923Y003474D01*
X044848Y003399D01*
X045309Y003474D02*
X045309Y003023D01*
X045609Y003023D02*
X045309Y003474D01*
X045609Y003474D02*
X045609Y003023D01*
X046671Y002898D02*
X046671Y003349D01*
X046822Y003199D01*
X046972Y003349D01*
X046972Y002898D01*
X047132Y002898D02*
X047432Y002898D01*
X047592Y002974D02*
X047667Y002898D01*
X047817Y002898D01*
X047892Y002974D01*
X048053Y002898D02*
X048053Y003349D01*
X047892Y003274D02*
X047817Y003349D01*
X047667Y003349D01*
X047592Y003274D01*
X047592Y002974D01*
X047282Y003124D02*
X047132Y003124D01*
X047132Y003349D02*
X047132Y002898D01*
X047132Y003349D02*
X047432Y003349D01*
X048053Y003124D02*
X048353Y003124D01*
X048513Y003274D02*
X048588Y003349D01*
X048738Y003349D01*
X048813Y003274D01*
X048813Y003199D01*
X048738Y003124D01*
X048813Y003049D01*
X048813Y002974D01*
X048738Y002898D01*
X048588Y002898D01*
X048513Y002974D01*
X048353Y002898D02*
X048353Y003349D01*
X048663Y003124D02*
X048738Y003124D01*
X048263Y005873D02*
X047963Y005873D01*
X048113Y005873D02*
X048113Y006324D01*
X047963Y006174D01*
X047263Y006174D02*
X047263Y006249D01*
X047188Y006324D01*
X047038Y006324D01*
X046963Y006249D01*
X047263Y006174D02*
X046963Y005873D01*
X047263Y005873D01*
X030365Y004674D02*
X030365Y004374D01*
X030215Y004223D01*
X030065Y004374D01*
X030065Y004674D01*
X029905Y004674D02*
X029605Y004674D01*
X029605Y004449D01*
X029755Y004524D01*
X029830Y004524D01*
X029905Y004449D01*
X029905Y004299D01*
X029830Y004223D01*
X029680Y004223D01*
X029605Y004299D01*
X029444Y004148D02*
X029144Y004148D01*
X028909Y004374D02*
X028684Y004374D01*
X028684Y004223D02*
X028684Y004674D01*
X028909Y004674D01*
X028984Y004599D01*
X028984Y004449D01*
X028909Y004374D01*
X028524Y004674D02*
X028223Y004674D01*
X028374Y004674D02*
X028374Y004223D01*
X002998Y025467D02*
X002998Y025768D01*
X004023Y026073D02*
X004324Y026073D01*
X004174Y026073D02*
X004174Y026524D01*
X004023Y026374D01*
X005023Y026449D02*
X005098Y026524D01*
X005249Y026524D01*
X005324Y026449D01*
X005324Y026374D01*
X005023Y026073D01*
X005324Y026073D01*
D15*
X029073Y019647D03*
X029073Y008639D03*
D16*
X029068Y006123D02*
X029068Y005523D01*
X029318Y005523D02*
X029318Y006123D01*
X034578Y007898D02*
X034578Y008198D01*
X034578Y008498D01*
X034828Y008498D02*
X034828Y008198D01*
X034828Y007898D01*
X036898Y011078D02*
X037498Y011078D01*
X037498Y011328D02*
X036898Y011328D01*
X018998Y011203D02*
X018698Y011203D01*
X018398Y011203D01*
X018398Y011453D02*
X018698Y011453D01*
X018998Y011453D01*
X013818Y014523D02*
X013818Y015123D01*
X013568Y015123D02*
X013568Y014523D01*
X010328Y014523D02*
X010328Y014823D01*
X010328Y015123D01*
X010078Y015123D02*
X010078Y014823D01*
X010078Y014523D01*
X015578Y016773D02*
X015578Y017073D01*
X015578Y017373D01*
X015828Y017373D02*
X015828Y017073D01*
X015828Y016773D01*
D17*
X014334Y008405D02*
X014334Y002834D01*
X020063Y002834D01*
X020063Y008405D01*
X014334Y008405D01*
X013063Y008405D02*
X013063Y002834D01*
X007334Y002834D01*
X007334Y008405D01*
X013063Y008405D01*
X021334Y008405D02*
X021334Y002834D01*
X027063Y002834D01*
X027063Y008405D01*
X021334Y008405D01*
X039084Y024067D02*
X039084Y029638D01*
X044813Y029638D01*
X044813Y024067D01*
X039084Y024067D01*
D18*
X035358Y005259D02*
X035358Y004839D01*
X035358Y005049D02*
X035988Y005049D01*
X035883Y004615D02*
X035988Y004510D01*
X035988Y004299D01*
X035883Y004194D01*
X035673Y004299D02*
X035673Y004510D01*
X035778Y004615D01*
X035883Y004615D01*
X035673Y004299D02*
X035568Y004194D01*
X035463Y004194D01*
X035358Y004299D01*
X035358Y004510D01*
X035463Y004615D01*
X035358Y003970D02*
X035358Y003550D01*
X035988Y003550D01*
X035988Y003970D01*
X035673Y003760D02*
X035673Y003550D01*
X035358Y003326D02*
X035358Y002905D01*
X035358Y003115D02*
X035988Y003115D01*
D19*
X003257Y013856D03*
X003257Y014496D03*
X003257Y017981D03*
X003257Y018621D03*
X003257Y022231D03*
X003257Y022871D03*
X049265Y024651D03*
X049265Y025291D03*
D20*
X049200Y024991D03*
X003322Y022531D03*
X003322Y018281D03*
X003322Y014156D03*
D21*
X032773Y016948D02*
X032773Y020198D01*
X036373Y020198D01*
X036373Y016948D01*
X032773Y016948D01*
X040398Y014448D02*
X040398Y011198D01*
X043998Y011198D01*
X043998Y014448D01*
X040398Y014448D01*
D22*
X041198Y015923D03*
X042198Y015923D03*
X043198Y015923D03*
X035573Y015473D03*
X034573Y015473D03*
X033573Y015473D03*
D23*
X033573Y016148D03*
X034573Y016148D03*
X035573Y016148D03*
X041198Y015248D03*
X042198Y015248D03*
X043198Y015248D03*
M02*
