G75*
%MOIN*%
%OFA0B0*%
%FSLAX24Y24*%
%IPPOS*%
%LPD*%
%AMOC8*
5,1,8,0,0,1.08239X$1,22.5*
%
%ADD10C,0.1065*%
%ADD11C,0.0540*%
%ADD12C,0.0600*%
%ADD13C,0.0531*%
%ADD14C,0.1095*%
%ADD15C,0.1620*%
%ADD16C,0.1325*%
%ADD17C,0.1424*%
%ADD18C,0.0472*%
%ADD19C,0.0570*%
%ADD20C,0.0270*%
%ADD21C,0.0100*%
%ADD22C,0.0416*%
%ADD23C,0.0376*%
%ADD24C,0.0945*%
%ADD25C,0.1181*%
%ADD26C,0.0650*%
%ADD27C,0.1266*%
D10*
X011193Y007805D03*
X014193Y007805D03*
X017843Y007805D03*
X020843Y007805D03*
X031393Y035635D03*
X034393Y035635D03*
X037993Y035635D03*
X040993Y035635D03*
X044593Y035635D03*
X047593Y035635D03*
X051193Y035635D03*
X054193Y035635D03*
D11*
X052693Y032565D03*
X046093Y032565D03*
X039493Y032565D03*
X032893Y032565D03*
X019343Y010875D03*
X012693Y010875D03*
D12*
X024243Y010095D03*
X024243Y009095D03*
X025243Y009095D03*
X026243Y009095D03*
X026243Y010095D03*
X025243Y010095D03*
X027243Y010095D03*
X027243Y009095D03*
X028243Y009095D03*
X028243Y010095D03*
X052282Y026918D03*
X053282Y026918D03*
X053282Y027918D03*
X052282Y027918D03*
X052282Y028918D03*
X053282Y028918D03*
X053282Y029918D03*
X052282Y029918D03*
X011693Y031995D03*
X011693Y032995D03*
X011693Y033995D03*
X011693Y034995D03*
X009593Y034995D03*
X009593Y033995D03*
X009593Y032995D03*
X009593Y031995D03*
D13*
X020793Y035595D03*
X021793Y035595D03*
X022793Y035595D03*
X018643Y018195D03*
D14*
X017723Y031495D03*
X015873Y031495D03*
X014023Y031495D03*
X014873Y036495D03*
X016873Y036495D03*
X033793Y012995D03*
X033793Y006995D03*
X041293Y006995D03*
X041293Y012995D03*
D15*
X051770Y010719D03*
D16*
X051770Y008357D03*
D17*
X053541Y007965D03*
X049998Y007965D03*
D18*
X049003Y031495D03*
X049003Y032495D03*
X049003Y033495D03*
X050003Y034495D03*
X049003Y035495D03*
X036803Y034495D03*
X035803Y033495D03*
X035803Y032495D03*
X035803Y031495D03*
X035803Y035495D03*
X025143Y031295D03*
X020093Y031295D03*
D19*
X015693Y019595D03*
X015693Y018595D03*
X015693Y017595D03*
X015693Y016595D03*
X015693Y015595D03*
X015693Y014595D03*
X015693Y013595D03*
X015693Y012595D03*
X015693Y011595D03*
X014693Y011595D03*
X014693Y010595D03*
X015693Y010595D03*
X015693Y009595D03*
X015693Y008595D03*
X015693Y007595D03*
X015693Y006595D03*
X009693Y006595D03*
X009693Y007595D03*
X009693Y008595D03*
X009693Y009595D03*
X009693Y010595D03*
X009693Y011595D03*
X009693Y012595D03*
X009693Y013595D03*
X009693Y014595D03*
X009693Y015595D03*
X009693Y016595D03*
X009693Y017595D03*
X009693Y018595D03*
X009693Y019595D03*
X012693Y018595D03*
X013693Y018595D03*
X013693Y017595D03*
X012693Y017595D03*
X012693Y016595D03*
X013693Y016595D03*
X013693Y015595D03*
X012693Y015595D03*
X012693Y014595D03*
X013693Y014595D03*
X013693Y013595D03*
X012693Y013595D03*
X012693Y012595D03*
X013693Y012595D03*
D20*
X012093Y013245D03*
X011743Y013595D03*
X011343Y014045D03*
X011443Y014545D03*
X011843Y014845D03*
X011143Y015395D03*
X010843Y015795D03*
X010043Y016095D03*
X009343Y015995D03*
X009343Y015095D03*
X010093Y015095D03*
X010793Y014745D03*
X011993Y014195D03*
X010593Y012495D03*
X010893Y011895D03*
X011493Y011995D03*
X011543Y011245D03*
X011443Y010395D03*
X010593Y010995D03*
X010343Y009795D03*
X011293Y008845D03*
X012193Y008995D03*
X012493Y008145D03*
X012893Y007695D03*
X012693Y006895D03*
X012993Y006395D03*
X013793Y006595D03*
X014843Y006395D03*
X014993Y007095D03*
X015143Y008095D03*
X014943Y009095D03*
X015043Y009645D03*
X014093Y009095D03*
X013393Y008795D03*
X013493Y010045D03*
X014843Y011095D03*
X015143Y012395D03*
X015093Y012945D03*
X015343Y014045D03*
X015143Y014795D03*
X015093Y015345D03*
X016543Y014095D03*
X017493Y013295D03*
X018343Y012795D03*
X017943Y012445D03*
X019118Y013720D03*
X019493Y013720D03*
X019493Y013345D03*
X019868Y013345D03*
X019868Y013720D03*
X020243Y013720D03*
X020243Y013345D03*
X020618Y013720D03*
X020618Y014095D03*
X020618Y014470D03*
X020993Y014470D03*
X020993Y014095D03*
X021543Y014645D03*
X021543Y015345D03*
X022643Y015295D03*
X023143Y015895D03*
X022743Y016345D03*
X023293Y016545D03*
X023743Y016395D03*
X024743Y016595D03*
X024743Y017095D03*
X024743Y017595D03*
X024743Y018095D03*
X024743Y018595D03*
X024743Y019095D03*
X024743Y019595D03*
X024743Y020095D03*
X025243Y020095D03*
X025243Y019595D03*
X025243Y019095D03*
X025243Y018595D03*
X025243Y018095D03*
X025243Y017595D03*
X025243Y017095D03*
X025243Y016595D03*
X025743Y016595D03*
X025743Y017095D03*
X025743Y017595D03*
X025743Y018095D03*
X025743Y018595D03*
X025743Y019095D03*
X025743Y019595D03*
X025743Y020095D03*
X026243Y020095D03*
X026243Y018595D03*
X026243Y018095D03*
X026243Y017595D03*
X028343Y017095D03*
X028343Y016595D03*
X028843Y016595D03*
X028843Y017095D03*
X029343Y017095D03*
X029343Y016595D03*
X029843Y016595D03*
X029843Y017095D03*
X029843Y017595D03*
X029343Y017595D03*
X029343Y018195D03*
X028843Y018195D03*
X028343Y018195D03*
X028343Y019695D03*
X028343Y020195D03*
X028843Y020195D03*
X028843Y019695D03*
X029343Y019695D03*
X029343Y020195D03*
X029843Y020195D03*
X029843Y019695D03*
X029843Y019195D03*
X030343Y019195D03*
X030343Y018695D03*
X029993Y018395D03*
X029843Y018195D03*
X030343Y018195D03*
X030343Y017595D03*
X030343Y017095D03*
X030343Y016595D03*
X030343Y019695D03*
X030343Y020195D03*
X028693Y021145D03*
X029243Y022445D03*
X029993Y023045D03*
X030393Y023070D03*
X031093Y022445D03*
X031693Y022845D03*
X032243Y023295D03*
X033043Y023095D03*
X033043Y024395D03*
X033543Y025595D03*
X035243Y025545D03*
X035243Y025895D03*
X035593Y025895D03*
X035593Y025545D03*
X035593Y025195D03*
X037393Y023095D03*
X038193Y023295D03*
X038993Y022645D03*
X038693Y022095D03*
X038193Y022445D03*
X038743Y021245D03*
X041143Y021245D03*
X041793Y021695D03*
X042243Y021495D03*
X044293Y021395D03*
X045243Y021295D03*
X045643Y021495D03*
X044743Y022245D03*
X046193Y022495D03*
X046143Y023195D03*
X045443Y023545D03*
X045793Y024145D03*
X044843Y024345D03*
X045693Y025045D03*
X045293Y025495D03*
X045293Y026195D03*
X044793Y026195D03*
X044293Y026195D03*
X043793Y026195D03*
X043293Y026195D03*
X042793Y026195D03*
X042293Y026195D03*
X041793Y026195D03*
X041293Y026195D03*
X040793Y026195D03*
X040293Y026195D03*
X039793Y026195D03*
X039293Y026195D03*
X038793Y026195D03*
X038793Y026695D03*
X038793Y027195D03*
X038293Y027195D03*
X037793Y027195D03*
X037793Y027695D03*
X037793Y028195D03*
X037793Y028695D03*
X037293Y028695D03*
X036893Y028695D03*
X036593Y028695D03*
X036293Y028695D03*
X036293Y028395D03*
X036293Y028095D03*
X036593Y028095D03*
X036593Y028395D03*
X036893Y028395D03*
X036893Y028095D03*
X037293Y028145D03*
X038293Y028195D03*
X038293Y027695D03*
X038793Y027695D03*
X038793Y028195D03*
X038793Y028695D03*
X038293Y028695D03*
X037793Y029195D03*
X037793Y029695D03*
X037793Y030195D03*
X037793Y030695D03*
X036793Y030695D03*
X036793Y030195D03*
X035393Y029995D03*
X034993Y029995D03*
X034993Y030395D03*
X035393Y030395D03*
X035393Y030795D03*
X034043Y030295D03*
X034993Y029545D03*
X034993Y029145D03*
X035393Y029145D03*
X035393Y029545D03*
X035493Y028695D03*
X035893Y028395D03*
X035493Y028095D03*
X031843Y028045D03*
X031893Y027345D03*
X031993Y026545D03*
X031543Y025995D03*
X031243Y025195D03*
X030743Y025995D03*
X030293Y026495D03*
X029893Y026045D03*
X029793Y026845D03*
X030393Y027345D03*
X030693Y028695D03*
X030393Y029495D03*
X030593Y030095D03*
X032393Y031945D03*
X033243Y033395D03*
X027443Y028445D03*
X026993Y028245D03*
X026943Y027195D03*
X026543Y026745D03*
X025843Y026745D03*
X025443Y027195D03*
X025418Y027545D03*
X024613Y025875D03*
X023843Y025545D03*
X023643Y024895D03*
X024043Y023895D03*
X024043Y023045D03*
X024043Y022345D03*
X023993Y021795D03*
X023993Y020445D03*
X023993Y019595D03*
X023993Y018395D03*
X023993Y017395D03*
X025793Y021945D03*
X027243Y022745D03*
X027693Y023045D03*
X027243Y023445D03*
X027243Y024145D03*
X027493Y024545D03*
X028593Y025495D03*
X028193Y026045D03*
X028293Y026845D03*
X027068Y025945D03*
X029493Y025495D03*
X029993Y024545D03*
X030468Y024395D03*
X031693Y022045D03*
X032193Y021595D03*
X033043Y021595D03*
X033043Y020495D03*
X032243Y020495D03*
X034843Y018995D03*
X034843Y018145D03*
X036193Y018995D03*
X038393Y017595D03*
X041993Y017595D03*
X043493Y018995D03*
X044843Y018395D03*
X045143Y018395D03*
X045443Y018395D03*
X045743Y018395D03*
X046043Y018395D03*
X046343Y018395D03*
X046643Y018395D03*
X046943Y018395D03*
X047243Y018395D03*
X047543Y018395D03*
X047843Y018395D03*
X047843Y017945D03*
X047543Y017945D03*
X047243Y017945D03*
X046943Y017945D03*
X046643Y017945D03*
X046343Y017945D03*
X046043Y017945D03*
X045743Y017945D03*
X045443Y017945D03*
X045143Y017945D03*
X044843Y017945D03*
X044843Y017495D03*
X045143Y017495D03*
X045443Y017495D03*
X045743Y017495D03*
X046043Y017495D03*
X046343Y017495D03*
X046643Y017495D03*
X046943Y017495D03*
X047243Y017495D03*
X047543Y017495D03*
X047843Y017495D03*
X047843Y017045D03*
X047543Y017045D03*
X047243Y017045D03*
X046943Y017045D03*
X046643Y017045D03*
X046343Y017045D03*
X046043Y017045D03*
X045743Y017045D03*
X045443Y017045D03*
X045143Y017045D03*
X044843Y017045D03*
X044843Y016595D03*
X045143Y016595D03*
X045443Y016595D03*
X045743Y016595D03*
X046043Y016595D03*
X046343Y016595D03*
X046643Y016595D03*
X046943Y016595D03*
X047243Y016595D03*
X047543Y016595D03*
X047843Y016595D03*
X047843Y016145D03*
X047543Y016145D03*
X047243Y016145D03*
X046943Y016145D03*
X046643Y016145D03*
X046343Y016145D03*
X046043Y016145D03*
X045743Y016145D03*
X045443Y016145D03*
X045143Y016145D03*
X044843Y016145D03*
X044843Y015695D03*
X045143Y015695D03*
X045443Y015695D03*
X045743Y015695D03*
X046043Y015695D03*
X046343Y015695D03*
X046643Y015695D03*
X046943Y015695D03*
X047243Y015695D03*
X047543Y015695D03*
X047843Y015695D03*
X047843Y015245D03*
X047543Y015245D03*
X047243Y015245D03*
X046943Y015245D03*
X046643Y015245D03*
X046343Y015245D03*
X046043Y015245D03*
X045743Y015245D03*
X045443Y015245D03*
X045143Y015245D03*
X044843Y015245D03*
X043143Y014845D03*
X043743Y012445D03*
X043143Y012345D03*
X045793Y008695D03*
X046793Y008695D03*
X038493Y008695D03*
X037543Y008695D03*
X036593Y008695D03*
X036743Y011945D03*
X036693Y013645D03*
X026368Y006745D03*
X025243Y006745D03*
X020893Y011295D03*
X021843Y012095D03*
X022793Y012095D03*
X018693Y017645D03*
X018343Y017595D03*
X018143Y018045D03*
X016443Y017795D03*
X015243Y019895D03*
X015693Y020245D03*
X016143Y020795D03*
X015993Y021745D03*
X016093Y022195D03*
X016043Y022695D03*
X016043Y023295D03*
X016093Y023995D03*
X015793Y024245D03*
X015043Y023745D03*
X014843Y024395D03*
X014293Y024320D03*
X013443Y023895D03*
X013543Y025345D03*
X014293Y025245D03*
X014743Y025345D03*
X014593Y025795D03*
X015343Y025095D03*
X016143Y025645D03*
X016493Y025995D03*
X016793Y025545D03*
X017093Y025995D03*
X017393Y026395D03*
X017843Y026395D03*
X017393Y025595D03*
X018193Y024945D03*
X018793Y024995D03*
X018543Y025445D03*
X019043Y025695D03*
X019843Y026295D03*
X020043Y025595D03*
X020043Y025095D03*
X020293Y024745D03*
X021043Y024795D03*
X021543Y025145D03*
X021043Y025445D03*
X021893Y025795D03*
X022643Y025595D03*
X022493Y024945D03*
X020693Y027195D03*
X020793Y027845D03*
X019843Y027195D03*
X018393Y027345D03*
X018393Y028195D03*
X019143Y029845D03*
X022743Y029195D03*
X023193Y029595D03*
X023193Y030295D03*
X023743Y030295D03*
X022743Y030695D03*
X025393Y029295D03*
X025793Y029745D03*
X026493Y029745D03*
X026893Y029295D03*
X018518Y024020D03*
X018518Y023620D03*
X018118Y023620D03*
X018118Y023970D03*
X018118Y023220D03*
X018518Y023220D03*
X016793Y024345D03*
X015643Y026995D03*
X014843Y026895D03*
X014293Y027295D03*
X014293Y028195D03*
X014843Y028595D03*
X014893Y029445D03*
X015643Y028495D03*
X012443Y027945D03*
X010693Y028845D03*
X010343Y027945D03*
X010093Y029795D03*
X009593Y030045D03*
X011293Y029795D03*
X012093Y029795D03*
X012243Y025395D03*
X011193Y025245D03*
X010893Y024745D03*
X010393Y024795D03*
X009893Y025095D03*
X010243Y025395D03*
X009843Y024545D03*
X009243Y025395D03*
X009793Y023895D03*
X007693Y023695D03*
X007543Y023045D03*
X007743Y022495D03*
X007543Y021545D03*
X007993Y021095D03*
X008193Y020645D03*
X007793Y020195D03*
X007543Y020745D03*
X007793Y019545D03*
X007543Y018695D03*
X008043Y018495D03*
X007743Y017845D03*
X007543Y016795D03*
X008193Y016745D03*
X007543Y015845D03*
X007993Y015495D03*
X007543Y014945D03*
X007843Y014445D03*
X007943Y013945D03*
X007643Y013295D03*
X007993Y012995D03*
X007543Y012195D03*
X007743Y011745D03*
X008443Y011095D03*
X007593Y010795D03*
X007943Y010195D03*
X008143Y009445D03*
X008843Y009245D03*
X008893Y008495D03*
X008293Y008195D03*
X007593Y008945D03*
X007543Y007445D03*
X007743Y006695D03*
X008793Y007395D03*
X010543Y006645D03*
X011643Y006395D03*
X011743Y006945D03*
X008943Y010295D03*
X011793Y016095D03*
X011843Y016895D03*
X011893Y017895D03*
X011943Y018945D03*
X011793Y019495D03*
X011793Y020045D03*
X010668Y020695D03*
X010293Y021070D03*
X009743Y020495D03*
X009543Y020145D03*
X009943Y018145D03*
X009393Y017095D03*
X013093Y021045D03*
X014293Y019745D03*
X007743Y024545D03*
X007593Y025295D03*
X039293Y024295D03*
X039993Y024545D03*
X040443Y024945D03*
X041093Y024945D03*
X040793Y024195D03*
X040443Y023495D03*
X041793Y025395D03*
X042443Y024795D03*
X043443Y024695D03*
X043843Y023695D03*
X043043Y025745D03*
X041293Y026695D03*
X040793Y026695D03*
X040293Y026695D03*
X039793Y026695D03*
X039293Y026695D03*
X039293Y027195D03*
X039293Y027695D03*
X039293Y028195D03*
X039793Y028195D03*
X039793Y027695D03*
X039793Y027195D03*
X040293Y027195D03*
X040293Y027695D03*
X040293Y028195D03*
X040293Y028695D03*
X039793Y028695D03*
X040793Y028695D03*
X040793Y028195D03*
X040793Y027695D03*
X040793Y027195D03*
X041293Y027195D03*
X041293Y027695D03*
X041293Y028195D03*
X041293Y028695D03*
X041293Y029195D03*
X040793Y029195D03*
X040793Y029695D03*
X040793Y030195D03*
X040793Y030695D03*
X041293Y030695D03*
X041293Y030195D03*
X041293Y029695D03*
X044643Y031345D03*
X045293Y030695D03*
X045293Y030195D03*
X045293Y029695D03*
X045293Y029195D03*
X045293Y028695D03*
X045293Y028195D03*
X045293Y027695D03*
X045293Y027195D03*
X045293Y026695D03*
X045793Y026695D03*
X045793Y026195D03*
X046143Y025645D03*
X047293Y025645D03*
X047893Y025045D03*
X047193Y024145D03*
X047843Y022245D03*
X048043Y021945D03*
X045793Y027195D03*
X045793Y027695D03*
X045793Y028195D03*
X045793Y028695D03*
X045793Y029195D03*
X045793Y029695D03*
X045793Y030195D03*
X045793Y030695D03*
X049493Y032995D03*
D21*
X007393Y036862D02*
X007393Y006578D01*
X007776Y006195D01*
X015522Y006195D01*
X015447Y006226D01*
X015325Y006349D01*
X015258Y006508D01*
X015258Y006682D01*
X015325Y006841D01*
X015447Y006964D01*
X015607Y007030D01*
X015780Y007030D01*
X015940Y006964D01*
X016062Y006841D01*
X016128Y006682D01*
X016128Y006508D01*
X016062Y006349D01*
X015940Y006226D01*
X015864Y006195D01*
X055610Y006195D01*
X055993Y006578D01*
X055993Y036862D01*
X055610Y037245D01*
X007776Y037245D01*
X007393Y036862D01*
X007393Y036826D02*
X014255Y036826D01*
X014282Y036890D02*
X014176Y036634D01*
X014176Y036356D01*
X014282Y036100D01*
X014478Y035904D01*
X014735Y035798D01*
X015012Y035798D01*
X015268Y035904D01*
X015465Y036100D01*
X015571Y036356D01*
X015571Y036634D01*
X015465Y036890D01*
X015268Y037086D01*
X015012Y037192D01*
X014735Y037192D01*
X014478Y037086D01*
X014282Y036890D01*
X014316Y036924D02*
X007455Y036924D01*
X007554Y037023D02*
X014414Y037023D01*
X014562Y037121D02*
X007652Y037121D01*
X007751Y037220D02*
X055636Y037220D01*
X055734Y037121D02*
X017184Y037121D01*
X017268Y037086D02*
X017012Y037192D01*
X016735Y037192D01*
X016478Y037086D01*
X016282Y036890D01*
X016176Y036634D01*
X016176Y036356D01*
X016282Y036100D01*
X016478Y035904D01*
X016735Y035798D01*
X017012Y035798D01*
X017268Y035904D01*
X017465Y036100D01*
X017571Y036356D01*
X017571Y036634D01*
X017465Y036890D01*
X017268Y037086D01*
X017332Y037023D02*
X055833Y037023D01*
X055931Y036924D02*
X042898Y036924D01*
X042962Y036898D02*
X042788Y036970D01*
X042599Y036970D01*
X042424Y036898D01*
X042291Y036764D01*
X042219Y036589D01*
X042219Y036401D01*
X042291Y036226D01*
X042424Y036092D01*
X042599Y036020D01*
X042788Y036020D01*
X042962Y036092D01*
X043096Y036226D01*
X043168Y036401D01*
X043168Y036589D01*
X043096Y036764D01*
X042962Y036898D01*
X043034Y036826D02*
X055993Y036826D01*
X055993Y036727D02*
X043111Y036727D01*
X043152Y036629D02*
X055993Y036629D01*
X055993Y036530D02*
X043168Y036530D01*
X043168Y036432D02*
X055993Y036432D01*
X055993Y036333D02*
X043140Y036333D01*
X043099Y036235D02*
X055993Y036235D01*
X055993Y036136D02*
X043006Y036136D01*
X042830Y036038D02*
X055993Y036038D01*
X055993Y035939D02*
X022037Y035939D01*
X022029Y035947D02*
X021876Y036011D01*
X021711Y036011D01*
X021558Y035947D01*
X021441Y035831D01*
X021378Y035678D01*
X021378Y035512D01*
X021441Y035359D01*
X021558Y035243D01*
X021711Y035179D01*
X021876Y035179D01*
X022029Y035243D01*
X022146Y035359D01*
X022209Y035512D01*
X022209Y035678D01*
X022146Y035831D01*
X022029Y035947D01*
X022136Y035841D02*
X035628Y035841D01*
X035585Y035822D02*
X035476Y035714D01*
X035417Y035572D01*
X035417Y035418D01*
X035476Y035276D01*
X035585Y035168D01*
X035726Y035109D01*
X035880Y035109D01*
X036022Y035168D01*
X036131Y035276D01*
X036190Y035418D01*
X036190Y035572D01*
X036131Y035714D01*
X036022Y035822D01*
X035880Y035881D01*
X035726Y035881D01*
X035585Y035822D01*
X035504Y035742D02*
X022182Y035742D01*
X022209Y035644D02*
X035447Y035644D01*
X035417Y035545D02*
X022209Y035545D01*
X022182Y035447D02*
X035417Y035447D01*
X035446Y035348D02*
X022134Y035348D01*
X022036Y035250D02*
X035503Y035250D01*
X035624Y035151D02*
X012116Y035151D01*
X012143Y035085D02*
X012075Y035250D01*
X011948Y035376D01*
X011783Y035445D01*
X011604Y035445D01*
X011438Y035376D01*
X011312Y035250D01*
X011243Y035085D01*
X011243Y034905D01*
X011312Y034740D01*
X011438Y034614D01*
X011604Y034545D01*
X011783Y034545D01*
X011948Y034614D01*
X012075Y034740D01*
X012143Y034905D01*
X012143Y035085D01*
X012143Y035053D02*
X055993Y035053D01*
X055993Y035151D02*
X049182Y035151D01*
X049222Y035168D02*
X049331Y035276D01*
X049390Y035418D01*
X049390Y035572D01*
X049331Y035714D01*
X049222Y035822D01*
X049080Y035881D01*
X048926Y035881D01*
X048785Y035822D01*
X048676Y035714D01*
X048617Y035572D01*
X048617Y035418D01*
X048676Y035276D01*
X048785Y035168D01*
X048926Y035109D01*
X049080Y035109D01*
X049222Y035168D01*
X049304Y035250D02*
X055993Y035250D01*
X055993Y035348D02*
X049360Y035348D01*
X049390Y035447D02*
X055993Y035447D01*
X055993Y035545D02*
X049390Y035545D01*
X049360Y035644D02*
X055993Y035644D01*
X055993Y035742D02*
X049302Y035742D01*
X049178Y035841D02*
X055993Y035841D01*
X055993Y034954D02*
X012143Y034954D01*
X012123Y034856D02*
X036665Y034856D01*
X036726Y034881D02*
X036585Y034822D01*
X036476Y034714D01*
X036417Y034572D01*
X036417Y034418D01*
X036476Y034276D01*
X036585Y034168D01*
X036726Y034109D01*
X036880Y034109D01*
X037022Y034168D01*
X037131Y034276D01*
X037190Y034418D01*
X037190Y034572D01*
X037131Y034714D01*
X037022Y034822D01*
X036880Y034881D01*
X036726Y034881D01*
X036942Y034856D02*
X049865Y034856D01*
X049926Y034881D02*
X049785Y034822D01*
X049676Y034714D01*
X049617Y034572D01*
X049617Y034418D01*
X049676Y034276D01*
X049785Y034168D01*
X049926Y034109D01*
X050080Y034109D01*
X050222Y034168D01*
X050331Y034276D01*
X050390Y034418D01*
X050390Y034572D01*
X050331Y034714D01*
X050222Y034822D01*
X050080Y034881D01*
X049926Y034881D01*
X050142Y034856D02*
X055993Y034856D01*
X055993Y034757D02*
X050287Y034757D01*
X050354Y034659D02*
X055993Y034659D01*
X055993Y034560D02*
X050390Y034560D01*
X050390Y034462D02*
X055993Y034462D01*
X055993Y034363D02*
X050367Y034363D01*
X050319Y034265D02*
X055993Y034265D01*
X055993Y034166D02*
X050218Y034166D01*
X049788Y034166D02*
X037018Y034166D01*
X037119Y034265D02*
X049688Y034265D01*
X049640Y034363D02*
X037167Y034363D01*
X037190Y034462D02*
X049617Y034462D01*
X049617Y034560D02*
X037190Y034560D01*
X037154Y034659D02*
X049653Y034659D01*
X049719Y034757D02*
X037087Y034757D01*
X036519Y034757D02*
X012082Y034757D01*
X011993Y034659D02*
X036453Y034659D01*
X036417Y034560D02*
X011819Y034560D01*
X011783Y034445D02*
X011604Y034445D01*
X011438Y034376D01*
X011312Y034250D01*
X011243Y034085D01*
X011243Y033905D01*
X011312Y033740D01*
X011438Y033614D01*
X011604Y033545D01*
X011783Y033545D01*
X011948Y033614D01*
X012075Y033740D01*
X012143Y033905D01*
X012143Y034085D01*
X012075Y034250D01*
X011948Y034376D01*
X011783Y034445D01*
X011962Y034363D02*
X036440Y034363D01*
X036417Y034462D02*
X007393Y034462D01*
X007393Y034560D02*
X011567Y034560D01*
X011393Y034659D02*
X007393Y034659D01*
X007393Y034757D02*
X011305Y034757D01*
X011264Y034856D02*
X007393Y034856D01*
X007393Y034954D02*
X011243Y034954D01*
X011243Y035053D02*
X007393Y035053D01*
X007393Y035151D02*
X011271Y035151D01*
X011312Y035250D02*
X007393Y035250D01*
X007393Y035348D02*
X011410Y035348D01*
X011977Y035348D02*
X020452Y035348D01*
X020441Y035359D02*
X020558Y035243D01*
X020711Y035179D01*
X020876Y035179D01*
X021029Y035243D01*
X021146Y035359D01*
X021209Y035512D01*
X021209Y035678D01*
X021146Y035831D01*
X021029Y035947D01*
X020876Y036011D01*
X020711Y036011D01*
X020558Y035947D01*
X020441Y035831D01*
X020378Y035678D01*
X020378Y035512D01*
X020441Y035359D01*
X020405Y035447D02*
X007393Y035447D01*
X007393Y035545D02*
X020378Y035545D01*
X020378Y035644D02*
X007393Y035644D01*
X007393Y035742D02*
X020404Y035742D01*
X020451Y035841D02*
X017116Y035841D01*
X017304Y035939D02*
X020549Y035939D01*
X021037Y035939D02*
X021549Y035939D01*
X021451Y035841D02*
X021136Y035841D01*
X021182Y035742D02*
X021404Y035742D01*
X021378Y035644D02*
X021209Y035644D01*
X021209Y035545D02*
X021378Y035545D01*
X021405Y035447D02*
X021182Y035447D01*
X021134Y035348D02*
X021452Y035348D01*
X021551Y035250D02*
X021036Y035250D01*
X020551Y035250D02*
X012075Y035250D01*
X012060Y034265D02*
X036488Y034265D01*
X036588Y034166D02*
X012110Y034166D01*
X012143Y034068D02*
X055993Y034068D01*
X055993Y033969D02*
X012143Y033969D01*
X012129Y033871D02*
X035701Y033871D01*
X035726Y033881D02*
X035585Y033822D01*
X035476Y033714D01*
X035417Y033572D01*
X035417Y033418D01*
X035476Y033276D01*
X035585Y033168D01*
X035726Y033109D01*
X035880Y033109D01*
X036022Y033168D01*
X036131Y033276D01*
X036190Y033418D01*
X036190Y033572D01*
X036131Y033714D01*
X036022Y033822D01*
X035880Y033881D01*
X035726Y033881D01*
X035906Y033871D02*
X048901Y033871D01*
X048926Y033881D02*
X048785Y033822D01*
X048676Y033714D01*
X048617Y033572D01*
X048617Y033418D01*
X048676Y033276D01*
X048785Y033168D01*
X048926Y033109D01*
X049080Y033109D01*
X049222Y033168D01*
X049331Y033276D01*
X049390Y033418D01*
X049390Y033572D01*
X049331Y033714D01*
X049222Y033822D01*
X049080Y033881D01*
X048926Y033881D01*
X049106Y033871D02*
X055993Y033871D01*
X055993Y033772D02*
X049272Y033772D01*
X049347Y033674D02*
X055993Y033674D01*
X055993Y033575D02*
X049388Y033575D01*
X049390Y033477D02*
X055993Y033477D01*
X055993Y033378D02*
X049373Y033378D01*
X049332Y033280D02*
X049436Y033280D01*
X049437Y033280D02*
X049332Y033237D01*
X049252Y033156D01*
X049208Y033052D01*
X049208Y032938D01*
X049252Y032834D01*
X049332Y032753D01*
X049437Y032710D01*
X049550Y032710D01*
X049655Y032753D01*
X049735Y032834D01*
X049778Y032938D01*
X049778Y033052D01*
X049735Y033156D01*
X049655Y033237D01*
X049550Y033280D01*
X049437Y033280D01*
X049551Y033280D02*
X055993Y033280D01*
X055993Y033181D02*
X049710Y033181D01*
X049766Y033083D02*
X055993Y033083D01*
X055993Y032984D02*
X052779Y032984D01*
X052777Y032985D02*
X052610Y032985D01*
X052455Y032921D01*
X052337Y032803D01*
X052273Y032649D01*
X052273Y032481D01*
X052337Y032327D01*
X052455Y032209D01*
X052610Y032145D01*
X052777Y032145D01*
X052931Y032209D01*
X053049Y032327D01*
X053113Y032481D01*
X053113Y032649D01*
X053049Y032803D01*
X052931Y032921D01*
X052777Y032985D01*
X052608Y032984D02*
X049778Y032984D01*
X049756Y032886D02*
X052420Y032886D01*
X052331Y032787D02*
X049688Y032787D01*
X049341Y032689D02*
X052290Y032689D01*
X052273Y032590D02*
X049382Y032590D01*
X049390Y032572D02*
X049331Y032714D01*
X049222Y032822D01*
X049080Y032881D01*
X048926Y032881D01*
X048785Y032822D01*
X048676Y032714D01*
X048617Y032572D01*
X048617Y032418D01*
X048676Y032276D01*
X048785Y032168D01*
X048926Y032109D01*
X049080Y032109D01*
X049222Y032168D01*
X049331Y032276D01*
X049390Y032418D01*
X049390Y032572D01*
X049390Y032492D02*
X052273Y032492D01*
X052310Y032393D02*
X049379Y032393D01*
X049338Y032295D02*
X052370Y032295D01*
X052486Y032196D02*
X049251Y032196D01*
X049080Y031881D02*
X048926Y031881D01*
X048785Y031822D01*
X048676Y031714D01*
X048617Y031572D01*
X048617Y031418D01*
X048676Y031276D01*
X048785Y031168D01*
X048926Y031109D01*
X049080Y031109D01*
X049222Y031168D01*
X049331Y031276D01*
X049390Y031418D01*
X049390Y031572D01*
X049331Y031714D01*
X049222Y031822D01*
X049080Y031881D01*
X049242Y031802D02*
X051753Y031802D01*
X051715Y031764D02*
X051603Y031492D01*
X051603Y031198D01*
X051715Y030926D01*
X051924Y030717D01*
X052196Y030604D01*
X052491Y030604D01*
X052763Y030717D01*
X052971Y030926D01*
X053084Y031198D01*
X053084Y031492D01*
X052971Y031764D01*
X052763Y031973D01*
X052491Y032086D01*
X052196Y032086D01*
X051924Y031973D01*
X051715Y031764D01*
X051690Y031704D02*
X049335Y031704D01*
X049376Y031605D02*
X051649Y031605D01*
X051609Y031507D02*
X049390Y031507D01*
X049385Y031408D02*
X051603Y031408D01*
X051603Y031310D02*
X049345Y031310D01*
X049266Y031211D02*
X051603Y031211D01*
X051638Y031113D02*
X049089Y031113D01*
X048917Y031113D02*
X035889Y031113D01*
X035880Y031109D02*
X036022Y031168D01*
X036131Y031276D01*
X036190Y031418D01*
X036190Y031572D01*
X036131Y031714D01*
X036022Y031822D01*
X035880Y031881D01*
X035726Y031881D01*
X035585Y031822D01*
X035476Y031714D01*
X035417Y031572D01*
X035417Y031418D01*
X035476Y031276D01*
X035585Y031168D01*
X035726Y031109D01*
X035880Y031109D01*
X035717Y031113D02*
X025486Y031113D01*
X025471Y031076D02*
X025530Y031218D01*
X025530Y031372D01*
X025471Y031514D01*
X025362Y031622D01*
X025220Y031681D01*
X025066Y031681D01*
X024925Y031622D01*
X024816Y031514D01*
X024757Y031372D01*
X024757Y031218D01*
X024816Y031076D01*
X024925Y030968D01*
X025066Y030909D01*
X025220Y030909D01*
X025362Y030968D01*
X025471Y031076D01*
X025409Y031014D02*
X035209Y031014D01*
X035232Y031037D02*
X035152Y030956D01*
X035108Y030852D01*
X035108Y030738D01*
X035150Y030639D01*
X035050Y030680D01*
X034937Y030680D01*
X034832Y030637D01*
X034752Y030556D01*
X034708Y030452D01*
X034708Y030338D01*
X034752Y030234D01*
X034790Y030195D01*
X034752Y030156D01*
X034708Y030052D01*
X034708Y029938D01*
X034752Y029834D01*
X034815Y029770D01*
X034752Y029706D01*
X034708Y029602D01*
X034708Y029488D01*
X034752Y029384D01*
X034790Y029345D01*
X034752Y029306D01*
X034708Y029202D01*
X034708Y029088D01*
X034752Y028984D01*
X034832Y028903D01*
X034937Y028860D01*
X035050Y028860D01*
X035155Y028903D01*
X035193Y028942D01*
X035232Y028903D01*
X035337Y028860D01*
X035450Y028860D01*
X035555Y028903D01*
X035635Y028984D01*
X035678Y029088D01*
X035678Y029202D01*
X035635Y029306D01*
X035596Y029345D01*
X035635Y029384D01*
X035678Y029488D01*
X035678Y029602D01*
X035635Y029706D01*
X035571Y029770D01*
X035635Y029834D01*
X035678Y029938D01*
X035678Y030052D01*
X035635Y030156D01*
X035596Y030195D01*
X035635Y030234D01*
X035678Y030338D01*
X035678Y030452D01*
X035635Y030556D01*
X035596Y030595D01*
X035635Y030634D01*
X035678Y030738D01*
X035678Y030852D01*
X035635Y030956D01*
X035555Y031037D01*
X035450Y031080D01*
X035337Y031080D01*
X035232Y031037D01*
X035135Y030916D02*
X025237Y030916D01*
X025050Y030916D02*
X022926Y030916D01*
X022905Y030937D02*
X022800Y030980D01*
X022687Y030980D01*
X022582Y030937D01*
X022502Y030856D01*
X022458Y030752D01*
X022458Y030638D01*
X022502Y030534D01*
X022582Y030453D01*
X022687Y030410D01*
X022800Y030410D01*
X022905Y030453D01*
X022985Y030534D01*
X023028Y030638D01*
X023028Y030752D01*
X022985Y030856D01*
X022905Y030937D01*
X023001Y030817D02*
X035108Y030817D01*
X035116Y030719D02*
X023028Y030719D01*
X023021Y030620D02*
X034815Y030620D01*
X034737Y030522D02*
X034220Y030522D01*
X034205Y030537D02*
X034100Y030580D01*
X033987Y030580D01*
X033882Y030537D01*
X033802Y030456D01*
X033758Y030352D01*
X033758Y030238D01*
X033802Y030134D01*
X033882Y030053D01*
X033987Y030010D01*
X034100Y030010D01*
X034205Y030053D01*
X034285Y030134D01*
X034328Y030238D01*
X034328Y030352D01*
X034285Y030456D01*
X034205Y030537D01*
X034299Y030423D02*
X034708Y030423D01*
X034714Y030325D02*
X034328Y030325D01*
X034323Y030226D02*
X034759Y030226D01*
X034740Y030128D02*
X034279Y030128D01*
X034146Y030029D02*
X034708Y030029D01*
X034712Y029931D02*
X026711Y029931D01*
X026735Y029906D02*
X026655Y029987D01*
X026550Y030030D01*
X026437Y030030D01*
X026332Y029987D01*
X026252Y029906D01*
X026208Y029802D01*
X026208Y029688D01*
X026252Y029584D01*
X026332Y029503D01*
X026437Y029460D01*
X026550Y029460D01*
X026655Y029503D01*
X026735Y029584D01*
X026778Y029688D01*
X026778Y029802D01*
X026735Y029906D01*
X026766Y029832D02*
X034753Y029832D01*
X034779Y029734D02*
X026778Y029734D01*
X026756Y029635D02*
X034722Y029635D01*
X034708Y029537D02*
X027055Y029537D01*
X026950Y029580D01*
X026837Y029580D01*
X026732Y029537D01*
X026652Y029456D01*
X026608Y029352D01*
X026608Y029238D01*
X026652Y029134D01*
X026732Y029053D01*
X026837Y029010D01*
X026950Y029010D01*
X027055Y029053D01*
X027135Y029134D01*
X027178Y029238D01*
X027178Y029352D01*
X027135Y029456D01*
X027055Y029537D01*
X027143Y029438D02*
X034729Y029438D01*
X034785Y029340D02*
X027178Y029340D01*
X027178Y029241D02*
X034725Y029241D01*
X034708Y029143D02*
X027139Y029143D01*
X027032Y029044D02*
X034727Y029044D01*
X034790Y028946D02*
X030833Y028946D01*
X030855Y028937D02*
X030750Y028980D01*
X030637Y028980D01*
X030532Y028937D01*
X030452Y028856D01*
X030408Y028752D01*
X030408Y028638D01*
X030452Y028534D01*
X030532Y028453D01*
X030637Y028410D01*
X030750Y028410D01*
X030855Y028453D01*
X030935Y028534D01*
X030978Y028638D01*
X030978Y028752D01*
X030935Y028856D01*
X030855Y028937D01*
X030939Y028847D02*
X037048Y028847D01*
X037052Y028856D02*
X037008Y028752D01*
X037008Y028638D01*
X037052Y028534D01*
X037132Y028453D01*
X037237Y028410D01*
X037350Y028410D01*
X037455Y028453D01*
X037535Y028534D01*
X037578Y028638D01*
X037578Y028752D01*
X037535Y028856D01*
X037455Y028937D01*
X037350Y028980D01*
X037237Y028980D01*
X037132Y028937D01*
X037052Y028856D01*
X037008Y028749D02*
X030978Y028749D01*
X030978Y028650D02*
X037008Y028650D01*
X037044Y028552D02*
X030942Y028552D01*
X030854Y028453D02*
X037133Y028453D01*
X037454Y028453D02*
X047799Y028453D01*
X047771Y028521D02*
X047866Y028292D01*
X048041Y028117D01*
X048269Y028023D01*
X048517Y028023D01*
X048746Y028117D01*
X048921Y028292D01*
X049016Y028521D01*
X049016Y028769D01*
X048921Y028998D01*
X048746Y029173D01*
X048517Y029267D01*
X048269Y029267D01*
X048041Y029173D01*
X047866Y028998D01*
X047771Y028769D01*
X047771Y028521D01*
X047771Y028552D02*
X037542Y028552D01*
X037578Y028650D02*
X047771Y028650D01*
X047771Y028749D02*
X037578Y028749D01*
X037539Y028847D02*
X047803Y028847D01*
X047844Y028946D02*
X037433Y028946D01*
X037153Y028946D02*
X035597Y028946D01*
X035660Y029044D02*
X047912Y029044D01*
X048011Y029143D02*
X039697Y029143D01*
X039775Y029175D02*
X040014Y029414D01*
X040143Y029726D01*
X040143Y030064D01*
X040014Y030376D01*
X039775Y030615D01*
X039462Y030745D01*
X039124Y030745D01*
X038812Y030615D01*
X038573Y030376D01*
X038444Y030064D01*
X038444Y029726D01*
X038573Y029414D01*
X038812Y029175D01*
X039124Y029045D01*
X039462Y029045D01*
X039775Y029175D01*
X039841Y029241D02*
X048206Y029241D01*
X048581Y029241D02*
X055993Y029241D01*
X055993Y029143D02*
X048776Y029143D01*
X048875Y029044D02*
X055993Y029044D01*
X055993Y028946D02*
X048943Y028946D01*
X048983Y028847D02*
X055993Y028847D01*
X055993Y028749D02*
X049016Y028749D01*
X049016Y028650D02*
X055993Y028650D01*
X055993Y028552D02*
X049016Y028552D01*
X048988Y028453D02*
X055993Y028453D01*
X055993Y028355D02*
X053404Y028355D01*
X053372Y028368D02*
X053193Y028368D01*
X053027Y028299D01*
X052901Y028173D01*
X052832Y028007D01*
X052832Y027828D01*
X052901Y027663D01*
X053027Y027536D01*
X053193Y027468D01*
X053372Y027468D01*
X053537Y027536D01*
X053664Y027663D01*
X053732Y027828D01*
X053732Y028007D01*
X053664Y028173D01*
X053537Y028299D01*
X053372Y028368D01*
X053161Y028355D02*
X052404Y028355D01*
X052372Y028368D02*
X052193Y028368D01*
X052027Y028299D01*
X051901Y028173D01*
X051832Y028007D01*
X051832Y027828D01*
X051901Y027663D01*
X052027Y027536D01*
X052193Y027468D01*
X052372Y027468D01*
X052537Y027536D01*
X052664Y027663D01*
X052732Y027828D01*
X052732Y028007D01*
X052664Y028173D01*
X052537Y028299D01*
X052372Y028368D01*
X052161Y028355D02*
X048947Y028355D01*
X048885Y028256D02*
X051984Y028256D01*
X051895Y028158D02*
X048786Y028158D01*
X048605Y028059D02*
X051854Y028059D01*
X051832Y027961D02*
X018562Y027961D01*
X018555Y027953D02*
X018635Y028034D01*
X018678Y028138D01*
X018678Y028252D01*
X018635Y028356D01*
X018555Y028437D01*
X018450Y028480D01*
X018337Y028480D01*
X018232Y028437D01*
X018152Y028356D01*
X018108Y028252D01*
X018108Y028138D01*
X018152Y028034D01*
X018232Y027953D01*
X018337Y027910D01*
X018450Y027910D01*
X018555Y027953D01*
X018645Y028059D02*
X048181Y028059D01*
X048000Y028158D02*
X018678Y028158D01*
X018676Y028256D02*
X027229Y028256D01*
X027202Y028284D02*
X027282Y028203D01*
X027387Y028160D01*
X027500Y028160D01*
X027605Y028203D01*
X027685Y028284D01*
X027728Y028388D01*
X027728Y028502D01*
X027685Y028606D01*
X027605Y028687D01*
X027500Y028730D01*
X027387Y028730D01*
X027282Y028687D01*
X027202Y028606D01*
X027158Y028502D01*
X027158Y028388D01*
X027202Y028284D01*
X027172Y028355D02*
X018636Y028355D01*
X018515Y028453D02*
X027158Y028453D01*
X027179Y028552D02*
X015928Y028552D01*
X015885Y028656D01*
X015805Y028737D01*
X015700Y028780D01*
X015587Y028780D01*
X015482Y028737D01*
X015402Y028656D01*
X015358Y028552D01*
X015358Y028438D01*
X015402Y028334D01*
X015482Y028253D01*
X015587Y028210D01*
X015700Y028210D01*
X015805Y028253D01*
X015885Y028334D01*
X015928Y028438D01*
X015928Y028552D01*
X015928Y028453D02*
X018272Y028453D01*
X018151Y028355D02*
X015894Y028355D01*
X015807Y028256D02*
X018110Y028256D01*
X018108Y028158D02*
X014578Y028158D01*
X014578Y028138D02*
X014535Y028034D01*
X014455Y027953D01*
X014350Y027910D01*
X014237Y027910D01*
X014132Y027953D01*
X014052Y028034D01*
X014008Y028138D01*
X014008Y028252D01*
X014052Y028356D01*
X014132Y028437D01*
X014237Y028480D01*
X014350Y028480D01*
X014455Y028437D01*
X014535Y028356D01*
X014578Y028252D01*
X014578Y028138D01*
X014545Y028059D02*
X018141Y028059D01*
X018225Y027961D02*
X014462Y027961D01*
X014576Y028256D02*
X015479Y028256D01*
X015393Y028355D02*
X015006Y028355D01*
X015005Y028353D02*
X015085Y028434D01*
X015128Y028538D01*
X015128Y028652D01*
X015085Y028756D01*
X015005Y028837D01*
X014900Y028880D01*
X014787Y028880D01*
X014682Y028837D01*
X014602Y028756D01*
X014558Y028652D01*
X014558Y028538D01*
X014602Y028434D01*
X014682Y028353D01*
X014787Y028310D01*
X014900Y028310D01*
X015005Y028353D01*
X015093Y028453D02*
X015358Y028453D01*
X015358Y028552D02*
X015128Y028552D01*
X015128Y028650D02*
X015399Y028650D01*
X015511Y028749D02*
X015088Y028749D01*
X014980Y028847D02*
X030448Y028847D01*
X030408Y028749D02*
X015776Y028749D01*
X015888Y028650D02*
X027245Y028650D01*
X027641Y028650D02*
X030408Y028650D01*
X030444Y028552D02*
X027708Y028552D01*
X027728Y028453D02*
X030533Y028453D01*
X030553Y028946D02*
X010960Y028946D01*
X010978Y028902D02*
X010935Y029006D01*
X010855Y029087D01*
X010750Y029130D01*
X010637Y029130D01*
X010532Y029087D01*
X010452Y029006D01*
X010408Y028902D01*
X010408Y028788D01*
X010452Y028684D01*
X010532Y028603D01*
X010637Y028560D01*
X010750Y028560D01*
X010855Y028603D01*
X010935Y028684D01*
X010978Y028788D01*
X010978Y028902D01*
X010978Y028847D02*
X014707Y028847D01*
X014598Y028749D02*
X010962Y028749D01*
X010901Y028650D02*
X014558Y028650D01*
X014558Y028552D02*
X007393Y028552D01*
X007393Y028650D02*
X010485Y028650D01*
X010425Y028749D02*
X007393Y028749D01*
X007393Y028847D02*
X010408Y028847D01*
X010426Y028946D02*
X007393Y028946D01*
X007393Y029044D02*
X010489Y029044D01*
X010897Y029044D02*
X026754Y029044D01*
X026648Y029143D02*
X007393Y029143D01*
X007393Y029241D02*
X026608Y029241D01*
X026608Y029340D02*
X007393Y029340D01*
X007393Y029438D02*
X026644Y029438D01*
X026688Y029537D02*
X026732Y029537D01*
X026299Y029537D02*
X012214Y029537D01*
X012255Y029553D02*
X012335Y029634D01*
X012378Y029738D01*
X012378Y029852D01*
X012335Y029956D01*
X012255Y030037D01*
X012150Y030080D01*
X012037Y030080D01*
X011932Y030037D01*
X011852Y029956D01*
X011808Y029852D01*
X011808Y029738D01*
X011852Y029634D01*
X011932Y029553D01*
X012037Y029510D01*
X012150Y029510D01*
X012255Y029553D01*
X012336Y029635D02*
X026230Y029635D01*
X026208Y029734D02*
X012376Y029734D01*
X012378Y029832D02*
X026221Y029832D01*
X026276Y029931D02*
X012346Y029931D01*
X012262Y030029D02*
X023091Y030029D01*
X023137Y030010D02*
X023250Y030010D01*
X023355Y030053D01*
X023435Y030134D01*
X023478Y030238D01*
X023478Y030352D01*
X023435Y030456D01*
X023355Y030537D01*
X023250Y030580D01*
X023137Y030580D01*
X023032Y030537D01*
X022952Y030456D01*
X022908Y030352D01*
X022908Y030238D01*
X022952Y030134D01*
X023032Y030053D01*
X023137Y030010D01*
X023296Y030029D02*
X026434Y030029D01*
X026552Y030029D02*
X033941Y030029D01*
X033808Y030128D02*
X023429Y030128D01*
X023473Y030226D02*
X033763Y030226D01*
X033758Y030325D02*
X023478Y030325D01*
X023449Y030423D02*
X033788Y030423D01*
X033867Y030522D02*
X023370Y030522D01*
X023017Y030522D02*
X022973Y030522D01*
X022938Y030423D02*
X022832Y030423D01*
X022908Y030325D02*
X009663Y030325D01*
X009650Y030330D02*
X009537Y030330D01*
X009432Y030287D01*
X009352Y030206D01*
X009308Y030102D01*
X009308Y029988D01*
X009352Y029884D01*
X009432Y029803D01*
X009537Y029760D01*
X009650Y029760D01*
X009755Y029803D01*
X009812Y029861D01*
X009808Y029852D01*
X009808Y029738D01*
X009852Y029634D01*
X009932Y029553D01*
X010037Y029510D01*
X010150Y029510D01*
X010255Y029553D01*
X010335Y029634D01*
X010378Y029738D01*
X010378Y029852D01*
X010335Y029956D01*
X010255Y030037D01*
X010150Y030080D01*
X010037Y030080D01*
X009932Y030037D01*
X009875Y029979D01*
X009878Y029988D01*
X009878Y030102D01*
X009835Y030206D01*
X009755Y030287D01*
X009650Y030330D01*
X009523Y030325D02*
X007393Y030325D01*
X007393Y030423D02*
X022655Y030423D01*
X022514Y030522D02*
X007393Y030522D01*
X007393Y030620D02*
X022466Y030620D01*
X022458Y030719D02*
X007393Y030719D01*
X007393Y030817D02*
X013837Y030817D01*
X013885Y030798D02*
X014162Y030798D01*
X014418Y030904D01*
X014615Y031100D01*
X014721Y031356D01*
X014721Y031634D01*
X014615Y031890D01*
X014418Y032086D01*
X014162Y032192D01*
X013885Y032192D01*
X013628Y032086D01*
X013432Y031890D01*
X013326Y031634D01*
X013326Y031356D01*
X013432Y031100D01*
X013628Y030904D01*
X013885Y030798D01*
X013616Y030916D02*
X007393Y030916D01*
X007393Y031014D02*
X013518Y031014D01*
X013427Y031113D02*
X007393Y031113D01*
X007393Y031211D02*
X013386Y031211D01*
X013345Y031310D02*
X007393Y031310D01*
X007393Y031408D02*
X013326Y031408D01*
X013326Y031507D02*
X007393Y031507D01*
X007393Y031605D02*
X009359Y031605D01*
X009338Y031614D02*
X009504Y031545D01*
X009683Y031545D01*
X009848Y031614D01*
X009975Y031740D01*
X010043Y031905D01*
X010043Y032085D01*
X009975Y032250D01*
X009848Y032376D01*
X009683Y032445D01*
X009504Y032445D01*
X009338Y032376D01*
X009212Y032250D01*
X009143Y032085D01*
X009143Y031905D01*
X009212Y031740D01*
X009338Y031614D01*
X009248Y031704D02*
X007393Y031704D01*
X007393Y031802D02*
X009186Y031802D01*
X009145Y031901D02*
X007393Y031901D01*
X007393Y031999D02*
X009143Y031999D01*
X009149Y032098D02*
X007393Y032098D01*
X007393Y032196D02*
X009190Y032196D01*
X009256Y032295D02*
X007393Y032295D01*
X007393Y032393D02*
X009378Y032393D01*
X009504Y032545D02*
X009683Y032545D01*
X009848Y032614D01*
X009975Y032740D01*
X010043Y032905D01*
X010043Y033085D01*
X009975Y033250D01*
X009848Y033376D01*
X009683Y033445D01*
X009504Y033445D01*
X009338Y033376D01*
X009212Y033250D01*
X009143Y033085D01*
X009143Y032905D01*
X009212Y032740D01*
X009338Y032614D01*
X009504Y032545D01*
X009395Y032590D02*
X007393Y032590D01*
X007393Y032492D02*
X032473Y032492D01*
X032473Y032481D02*
X032537Y032327D01*
X032655Y032209D01*
X032810Y032145D01*
X032977Y032145D01*
X033131Y032209D01*
X033249Y032327D01*
X033313Y032481D01*
X033313Y032649D01*
X033249Y032803D01*
X033131Y032921D01*
X032977Y032985D01*
X032810Y032985D01*
X032655Y032921D01*
X032537Y032803D01*
X032473Y032649D01*
X032473Y032481D01*
X032510Y032393D02*
X011908Y032393D01*
X011948Y032376D02*
X011783Y032445D01*
X011604Y032445D01*
X011438Y032376D01*
X011312Y032250D01*
X011243Y032085D01*
X011243Y031905D01*
X011312Y031740D01*
X011438Y031614D01*
X011604Y031545D01*
X011783Y031545D01*
X011948Y031614D01*
X012075Y031740D01*
X012143Y031905D01*
X012143Y032085D01*
X012075Y032250D01*
X011948Y032376D01*
X012030Y032295D02*
X032570Y032295D01*
X032532Y032196D02*
X032686Y032196D01*
X032635Y032106D02*
X032555Y032187D01*
X032450Y032230D01*
X032337Y032230D01*
X032232Y032187D01*
X032152Y032106D01*
X032108Y032002D01*
X032108Y031888D01*
X032152Y031784D01*
X032232Y031703D01*
X032337Y031660D01*
X032450Y031660D01*
X032555Y031703D01*
X032635Y031784D01*
X032678Y031888D01*
X032678Y032002D01*
X032635Y032106D01*
X032639Y032098D02*
X033318Y032098D01*
X033307Y032087D02*
X033255Y031962D01*
X033255Y031828D01*
X033307Y031703D01*
X033402Y031608D01*
X033526Y031557D01*
X033661Y031557D01*
X033785Y031608D01*
X033880Y031703D01*
X033931Y031828D01*
X033931Y031962D01*
X033880Y032087D01*
X033785Y032182D01*
X033661Y032233D01*
X033526Y032233D01*
X033402Y032182D01*
X033307Y032087D01*
X033270Y031999D02*
X032678Y031999D01*
X032678Y031901D02*
X033255Y031901D01*
X033266Y031802D02*
X032643Y031802D01*
X032555Y031704D02*
X033307Y031704D01*
X033410Y031605D02*
X025379Y031605D01*
X025474Y031507D02*
X035417Y031507D01*
X035421Y031408D02*
X025515Y031408D01*
X025530Y031310D02*
X035462Y031310D01*
X035541Y031211D02*
X025527Y031211D01*
X024878Y031014D02*
X020359Y031014D01*
X020312Y030968D02*
X020421Y031076D01*
X020480Y031218D01*
X020480Y031372D01*
X020421Y031514D01*
X020312Y031622D01*
X020170Y031681D01*
X020016Y031681D01*
X019875Y031622D01*
X019766Y031514D01*
X019707Y031372D01*
X019707Y031218D01*
X019766Y031076D01*
X019875Y030968D01*
X020016Y030909D01*
X020170Y030909D01*
X020312Y030968D01*
X020187Y030916D02*
X022561Y030916D01*
X022485Y030817D02*
X017909Y030817D01*
X017862Y030798D02*
X018118Y030904D01*
X018315Y031100D01*
X018421Y031356D01*
X018421Y031634D01*
X018315Y031890D01*
X018118Y032086D01*
X017862Y032192D01*
X017585Y032192D01*
X017328Y032086D01*
X017132Y031890D01*
X017026Y031634D01*
X017026Y031356D01*
X017132Y031100D01*
X017328Y030904D01*
X017585Y030798D01*
X017862Y030798D01*
X018130Y030916D02*
X020000Y030916D01*
X019828Y031014D02*
X018229Y031014D01*
X018320Y031113D02*
X019751Y031113D01*
X019710Y031211D02*
X018361Y031211D01*
X018401Y031310D02*
X019707Y031310D01*
X019722Y031408D02*
X018421Y031408D01*
X018421Y031507D02*
X019763Y031507D01*
X019857Y031605D02*
X018421Y031605D01*
X018392Y031704D02*
X032232Y031704D01*
X032144Y031802D02*
X018351Y031802D01*
X018304Y031901D02*
X032108Y031901D01*
X032108Y031999D02*
X018206Y031999D01*
X018091Y032098D02*
X032148Y032098D01*
X032255Y032196D02*
X012097Y032196D01*
X012138Y032098D02*
X013655Y032098D01*
X013541Y031999D02*
X012143Y031999D01*
X012141Y031901D02*
X013442Y031901D01*
X013396Y031802D02*
X012100Y031802D01*
X012038Y031704D02*
X013355Y031704D01*
X013326Y031605D02*
X011928Y031605D01*
X011459Y031605D02*
X009828Y031605D01*
X009938Y031704D02*
X011348Y031704D01*
X011286Y031802D02*
X010000Y031802D01*
X010041Y031901D02*
X011245Y031901D01*
X011243Y031999D02*
X010043Y031999D01*
X010038Y032098D02*
X011249Y032098D01*
X011290Y032196D02*
X009997Y032196D01*
X009930Y032295D02*
X011356Y032295D01*
X011478Y032393D02*
X009808Y032393D01*
X009792Y032590D02*
X032473Y032590D01*
X032490Y032689D02*
X009923Y032689D01*
X009994Y032787D02*
X032531Y032787D01*
X032620Y032886D02*
X010035Y032886D01*
X010043Y032984D02*
X032808Y032984D01*
X032979Y032984D02*
X039408Y032984D01*
X039410Y032985D02*
X039255Y032921D01*
X039137Y032803D01*
X039073Y032649D01*
X039073Y032481D01*
X039137Y032327D01*
X039255Y032209D01*
X039410Y032145D01*
X039577Y032145D01*
X039731Y032209D01*
X039849Y032327D01*
X039913Y032481D01*
X039913Y032649D01*
X039849Y032803D01*
X039731Y032921D01*
X039577Y032985D01*
X039410Y032985D01*
X039579Y032984D02*
X046008Y032984D01*
X046010Y032985D02*
X045855Y032921D01*
X045737Y032803D01*
X045673Y032649D01*
X045673Y032481D01*
X045737Y032327D01*
X045855Y032209D01*
X046010Y032145D01*
X046177Y032145D01*
X046331Y032209D01*
X046449Y032327D01*
X046513Y032481D01*
X046513Y032649D01*
X046449Y032803D01*
X046331Y032921D01*
X046177Y032985D01*
X046010Y032985D01*
X046179Y032984D02*
X049208Y032984D01*
X049221Y033083D02*
X010043Y033083D01*
X010003Y033181D02*
X033054Y033181D01*
X033082Y033153D02*
X033187Y033110D01*
X033300Y033110D01*
X033405Y033153D01*
X033485Y033234D01*
X033528Y033338D01*
X033528Y033452D01*
X033485Y033556D01*
X033405Y033637D01*
X033300Y033680D01*
X033187Y033680D01*
X033082Y033637D01*
X033002Y033556D01*
X032958Y033452D01*
X032958Y033338D01*
X033002Y033234D01*
X033082Y033153D01*
X032983Y033280D02*
X009945Y033280D01*
X009844Y033378D02*
X032958Y033378D01*
X032969Y033477D02*
X007393Y033477D01*
X007393Y033575D02*
X009431Y033575D01*
X009504Y033545D02*
X009683Y033545D01*
X009848Y033614D01*
X009975Y033740D01*
X010043Y033905D01*
X010043Y034085D01*
X009975Y034250D01*
X009848Y034376D01*
X009683Y034445D01*
X009504Y034445D01*
X009338Y034376D01*
X009212Y034250D01*
X009143Y034085D01*
X009143Y033905D01*
X009212Y033740D01*
X009338Y033614D01*
X009504Y033545D01*
X009342Y033378D02*
X007393Y033378D01*
X007393Y033280D02*
X009241Y033280D01*
X009183Y033181D02*
X007393Y033181D01*
X007393Y033083D02*
X009143Y033083D01*
X009143Y032984D02*
X007393Y032984D01*
X007393Y032886D02*
X009152Y032886D01*
X009192Y032787D02*
X007393Y032787D01*
X007393Y032689D02*
X009263Y032689D01*
X009278Y033674D02*
X007393Y033674D01*
X007393Y033772D02*
X009199Y033772D01*
X009158Y033871D02*
X007393Y033871D01*
X007393Y033969D02*
X009143Y033969D01*
X009143Y034068D02*
X007393Y034068D01*
X007393Y034166D02*
X009177Y034166D01*
X009226Y034265D02*
X007393Y034265D01*
X007393Y034363D02*
X009325Y034363D01*
X009862Y034363D02*
X011425Y034363D01*
X011326Y034265D02*
X009960Y034265D01*
X010010Y034166D02*
X011277Y034166D01*
X011243Y034068D02*
X010043Y034068D01*
X010043Y033969D02*
X011243Y033969D01*
X011258Y033871D02*
X010029Y033871D01*
X009988Y033772D02*
X011299Y033772D01*
X011378Y033674D02*
X009908Y033674D01*
X009755Y033575D02*
X011531Y033575D01*
X011855Y033575D02*
X033020Y033575D01*
X033171Y033674D02*
X012008Y033674D01*
X012088Y033772D02*
X035534Y033772D01*
X035459Y033674D02*
X033316Y033674D01*
X033466Y033575D02*
X035418Y033575D01*
X035417Y033477D02*
X033518Y033477D01*
X033528Y033378D02*
X035434Y033378D01*
X035474Y033280D02*
X033504Y033280D01*
X033432Y033181D02*
X035571Y033181D01*
X035726Y032881D02*
X035585Y032822D01*
X035476Y032714D01*
X035417Y032572D01*
X035417Y032418D01*
X035476Y032276D01*
X035585Y032168D01*
X035726Y032109D01*
X035880Y032109D01*
X036022Y032168D01*
X036131Y032276D01*
X036190Y032418D01*
X036190Y032572D01*
X036131Y032714D01*
X036022Y032822D01*
X035880Y032881D01*
X035726Y032881D01*
X035549Y032787D02*
X033256Y032787D01*
X033297Y032689D02*
X035465Y032689D01*
X035425Y032590D02*
X033313Y032590D01*
X033313Y032492D02*
X035417Y032492D01*
X035427Y032393D02*
X033277Y032393D01*
X033217Y032295D02*
X035468Y032295D01*
X035556Y032196D02*
X033750Y032196D01*
X033869Y032098D02*
X055993Y032098D01*
X055993Y032196D02*
X052900Y032196D01*
X053017Y032295D02*
X055993Y032295D01*
X055993Y032393D02*
X053077Y032393D01*
X053113Y032492D02*
X055993Y032492D01*
X055993Y032590D02*
X053113Y032590D01*
X053097Y032689D02*
X055993Y032689D01*
X055993Y032787D02*
X053056Y032787D01*
X052967Y032886D02*
X055993Y032886D01*
X055993Y031999D02*
X052699Y031999D01*
X052835Y031901D02*
X055993Y031901D01*
X055993Y031802D02*
X052934Y031802D01*
X052996Y031704D02*
X055993Y031704D01*
X055993Y031605D02*
X053037Y031605D01*
X053078Y031507D02*
X055993Y031507D01*
X055993Y031408D02*
X053084Y031408D01*
X053084Y031310D02*
X055993Y031310D01*
X055993Y031211D02*
X053084Y031211D01*
X053049Y031113D02*
X055993Y031113D01*
X055993Y031014D02*
X053008Y031014D01*
X052961Y030916D02*
X055993Y030916D01*
X055993Y030817D02*
X052863Y030817D01*
X052764Y030719D02*
X055993Y030719D01*
X055993Y030620D02*
X052528Y030620D01*
X052158Y030620D02*
X039763Y030620D01*
X039868Y030522D02*
X055993Y030522D01*
X055993Y030423D02*
X039967Y030423D01*
X040035Y030325D02*
X055993Y030325D01*
X055993Y030226D02*
X040076Y030226D01*
X040117Y030128D02*
X055993Y030128D01*
X055993Y030029D02*
X040143Y030029D01*
X040143Y029931D02*
X055993Y029931D01*
X055993Y029832D02*
X040143Y029832D01*
X040143Y029734D02*
X055993Y029734D01*
X055993Y029635D02*
X040105Y029635D01*
X040064Y029537D02*
X055993Y029537D01*
X055993Y029438D02*
X040024Y029438D01*
X039939Y029340D02*
X055993Y029340D01*
X055993Y028256D02*
X053580Y028256D01*
X053670Y028158D02*
X055993Y028158D01*
X055993Y028059D02*
X053711Y028059D01*
X053732Y027961D02*
X055993Y027961D01*
X055993Y027862D02*
X053732Y027862D01*
X053705Y027764D02*
X055993Y027764D01*
X055993Y027665D02*
X053665Y027665D01*
X053567Y027567D02*
X055993Y027567D01*
X055993Y027468D02*
X053372Y027468D01*
X053372Y027368D02*
X053193Y027368D01*
X053027Y027299D01*
X052901Y027173D01*
X052832Y027007D01*
X052832Y026828D01*
X052901Y026663D01*
X053027Y026536D01*
X053193Y026468D01*
X053372Y026468D01*
X053537Y026536D01*
X053664Y026663D01*
X053732Y026828D01*
X053732Y027007D01*
X053664Y027173D01*
X053537Y027299D01*
X053372Y027368D01*
X053192Y027468D02*
X052372Y027468D01*
X052372Y027368D02*
X052193Y027368D01*
X052027Y027299D01*
X051901Y027173D01*
X051832Y027007D01*
X051832Y026828D01*
X051901Y026663D01*
X052027Y026536D01*
X052193Y026468D01*
X052372Y026468D01*
X052537Y026536D01*
X052664Y026663D01*
X052732Y026828D01*
X052732Y027007D01*
X052664Y027173D01*
X052537Y027299D01*
X052372Y027368D01*
X052192Y027468D02*
X030651Y027468D01*
X030635Y027506D02*
X030555Y027587D01*
X030450Y027630D01*
X030337Y027630D01*
X030232Y027587D01*
X030152Y027506D01*
X030108Y027402D01*
X030108Y027288D01*
X030152Y027184D01*
X030232Y027103D01*
X030337Y027060D01*
X030450Y027060D01*
X030555Y027103D01*
X030635Y027184D01*
X030678Y027288D01*
X030678Y027402D01*
X030635Y027506D01*
X030575Y027567D02*
X051997Y027567D01*
X051900Y027665D02*
X025677Y027665D01*
X025660Y027706D02*
X025580Y027787D01*
X025475Y027830D01*
X025362Y027830D01*
X025257Y027787D01*
X025177Y027706D01*
X025133Y027602D01*
X025133Y027488D01*
X025177Y027384D01*
X025257Y027303D01*
X025362Y027260D01*
X025475Y027260D01*
X025580Y027303D01*
X025660Y027384D01*
X025703Y027488D01*
X025703Y027602D01*
X025660Y027706D01*
X025603Y027764D02*
X051859Y027764D01*
X051832Y027862D02*
X007393Y027862D01*
X007393Y027764D02*
X025234Y027764D01*
X025160Y027665D02*
X007393Y027665D01*
X007393Y027567D02*
X018212Y027567D01*
X018232Y027587D02*
X018152Y027506D01*
X018108Y027402D01*
X018108Y027288D01*
X018152Y027184D01*
X018232Y027103D01*
X018337Y027060D01*
X018450Y027060D01*
X018555Y027103D01*
X018635Y027184D01*
X018678Y027288D01*
X018678Y027402D01*
X018635Y027506D01*
X018555Y027587D01*
X018450Y027630D01*
X018337Y027630D01*
X018232Y027587D01*
X018136Y027468D02*
X007393Y027468D01*
X007393Y027370D02*
X018108Y027370D01*
X018115Y027271D02*
X007393Y027271D01*
X007393Y027173D02*
X018163Y027173D01*
X018303Y027074D02*
X007393Y027074D01*
X007393Y026976D02*
X019660Y026976D01*
X019682Y026953D02*
X019787Y026910D01*
X019900Y026910D01*
X020005Y026953D01*
X020085Y027034D01*
X020128Y027138D01*
X020128Y027252D01*
X020085Y027356D01*
X020005Y027437D01*
X019900Y027480D01*
X019787Y027480D01*
X019682Y027437D01*
X019602Y027356D01*
X019558Y027252D01*
X019558Y027138D01*
X019602Y027034D01*
X019682Y026953D01*
X019585Y027074D02*
X018484Y027074D01*
X018624Y027173D02*
X019558Y027173D01*
X019566Y027271D02*
X018671Y027271D01*
X018678Y027370D02*
X019615Y027370D01*
X019758Y027468D02*
X018651Y027468D01*
X018575Y027567D02*
X025133Y027567D01*
X025142Y027468D02*
X019929Y027468D01*
X020072Y027370D02*
X025191Y027370D01*
X025335Y027271D02*
X020120Y027271D01*
X020128Y027173D02*
X026658Y027173D01*
X026658Y027138D02*
X026702Y027034D01*
X026782Y026953D01*
X026887Y026910D01*
X027000Y026910D01*
X027105Y026953D01*
X027185Y027034D01*
X027228Y027138D01*
X027228Y027252D01*
X027185Y027356D01*
X027105Y027437D01*
X027000Y027480D01*
X026887Y027480D01*
X026782Y027437D01*
X026702Y027356D01*
X026658Y027252D01*
X026658Y027138D01*
X026685Y027074D02*
X020102Y027074D01*
X020027Y026976D02*
X026371Y026976D01*
X026382Y026987D02*
X026302Y026906D01*
X026258Y026802D01*
X026258Y026688D01*
X026302Y026584D01*
X026382Y026503D01*
X026487Y026460D01*
X026600Y026460D01*
X026705Y026503D01*
X026785Y026584D01*
X026828Y026688D01*
X026828Y026802D01*
X026785Y026906D01*
X026705Y026987D01*
X026600Y027030D01*
X026487Y027030D01*
X026382Y026987D01*
X026290Y026877D02*
X007393Y026877D01*
X007393Y026779D02*
X026258Y026779D01*
X026262Y026680D02*
X007393Y026680D01*
X007393Y026582D02*
X017177Y026582D01*
X017152Y026556D02*
X017108Y026452D01*
X017108Y026338D01*
X017132Y026280D01*
X017037Y026280D01*
X016932Y026237D01*
X016852Y026156D01*
X016808Y026052D01*
X016808Y025938D01*
X016852Y025834D01*
X016932Y025753D01*
X017037Y025710D01*
X017132Y025710D01*
X017108Y025652D01*
X017108Y025538D01*
X017152Y025434D01*
X017232Y025353D01*
X017337Y025310D01*
X017450Y025310D01*
X017555Y025353D01*
X017635Y025434D01*
X017678Y025538D01*
X017678Y025652D01*
X017635Y025756D01*
X017555Y025837D01*
X017450Y025880D01*
X017354Y025880D01*
X017378Y025938D01*
X017378Y026052D01*
X017354Y026110D01*
X017450Y026110D01*
X017555Y026153D01*
X017618Y026217D01*
X017682Y026153D01*
X017787Y026110D01*
X017900Y026110D01*
X018005Y026153D01*
X018085Y026234D01*
X018128Y026338D01*
X018128Y026452D01*
X018085Y026556D01*
X018005Y026637D01*
X017900Y026680D01*
X017787Y026680D01*
X017682Y026637D01*
X017618Y026573D01*
X017555Y026637D01*
X017450Y026680D01*
X017337Y026680D01*
X017232Y026637D01*
X017152Y026556D01*
X017121Y026483D02*
X007393Y026483D01*
X007393Y026385D02*
X017108Y026385D01*
X017130Y026286D02*
X007393Y026286D01*
X007393Y026188D02*
X016283Y026188D01*
X016252Y026156D02*
X016208Y026052D01*
X016208Y025938D01*
X016214Y025924D01*
X016200Y025930D01*
X016087Y025930D01*
X015982Y025887D01*
X015902Y025806D01*
X015858Y025702D01*
X015858Y025588D01*
X015902Y025484D01*
X015982Y025403D01*
X016087Y025360D01*
X016200Y025360D01*
X016305Y025403D01*
X016385Y025484D01*
X016428Y025588D01*
X016428Y025702D01*
X016422Y025716D01*
X016437Y025710D01*
X016550Y025710D01*
X016655Y025753D01*
X016735Y025834D01*
X016778Y025938D01*
X016778Y026052D01*
X016735Y026156D01*
X016655Y026237D01*
X016550Y026280D01*
X016437Y026280D01*
X016332Y026237D01*
X016252Y026156D01*
X016224Y026089D02*
X007393Y026089D01*
X007393Y025991D02*
X016208Y025991D01*
X015995Y025892D02*
X007393Y025892D01*
X007393Y025794D02*
X015896Y025794D01*
X015858Y025695D02*
X007393Y025695D01*
X007393Y025597D02*
X015858Y025597D01*
X015896Y025498D02*
X014427Y025498D01*
X014455Y025487D02*
X014350Y025530D01*
X014237Y025530D01*
X014132Y025487D01*
X014052Y025406D01*
X014008Y025302D01*
X014008Y025188D01*
X014052Y025084D01*
X014132Y025003D01*
X014237Y024960D01*
X014350Y024960D01*
X014455Y025003D01*
X014535Y025084D01*
X014578Y025188D01*
X014578Y025302D01*
X014535Y025406D01*
X014455Y025487D01*
X014538Y025400D02*
X015991Y025400D01*
X016295Y025400D02*
X017186Y025400D01*
X017125Y025498D02*
X016391Y025498D01*
X016428Y025597D02*
X017108Y025597D01*
X017126Y025695D02*
X016428Y025695D01*
X016695Y025794D02*
X016892Y025794D01*
X016827Y025892D02*
X016759Y025892D01*
X016778Y025991D02*
X016808Y025991D01*
X016824Y026089D02*
X016763Y026089D01*
X016704Y026188D02*
X016883Y026188D01*
X017363Y026089D02*
X019646Y026089D01*
X019682Y026053D02*
X019787Y026010D01*
X019900Y026010D01*
X020005Y026053D01*
X020085Y026134D01*
X020128Y026238D01*
X020128Y026352D01*
X020085Y026456D01*
X020005Y026537D01*
X019900Y026580D01*
X019787Y026580D01*
X019682Y026537D01*
X019602Y026456D01*
X019558Y026352D01*
X019558Y026238D01*
X019602Y026134D01*
X019682Y026053D01*
X019579Y026188D02*
X018039Y026188D01*
X018107Y026286D02*
X019558Y026286D01*
X019572Y026385D02*
X018128Y026385D01*
X018115Y026483D02*
X019628Y026483D01*
X020058Y026483D02*
X026431Y026483D01*
X026304Y026582D02*
X018060Y026582D01*
X017627Y026582D02*
X017610Y026582D01*
X017589Y026188D02*
X017648Y026188D01*
X017378Y025991D02*
X024093Y025991D01*
X024093Y026089D02*
X020040Y026089D01*
X020107Y026188D02*
X024093Y026188D01*
X024093Y026286D02*
X020128Y026286D01*
X020115Y026385D02*
X030031Y026385D01*
X030052Y026334D02*
X030132Y026253D01*
X030237Y026210D01*
X030350Y026210D01*
X030455Y026253D01*
X030535Y026334D01*
X030578Y026438D01*
X030578Y026552D01*
X030535Y026656D01*
X030455Y026737D01*
X030350Y026780D01*
X030237Y026780D01*
X030132Y026737D01*
X030052Y026656D01*
X030008Y026552D01*
X030008Y026438D01*
X030052Y026334D01*
X030055Y026287D02*
X029950Y026330D01*
X029837Y026330D01*
X029732Y026287D01*
X029652Y026206D01*
X029608Y026102D01*
X029608Y025988D01*
X029652Y025884D01*
X029732Y025803D01*
X029837Y025760D01*
X029950Y025760D01*
X030055Y025803D01*
X030135Y025884D01*
X030178Y025988D01*
X030178Y026102D01*
X030135Y026206D01*
X030055Y026287D01*
X030055Y026286D02*
X030099Y026286D01*
X030143Y026188D02*
X030533Y026188D01*
X030502Y026156D02*
X030458Y026052D01*
X030458Y025938D01*
X030502Y025834D01*
X030582Y025753D01*
X030687Y025710D01*
X030800Y025710D01*
X030905Y025753D01*
X030985Y025834D01*
X031028Y025938D01*
X031028Y026052D01*
X030985Y026156D01*
X030905Y026237D01*
X030800Y026280D01*
X030687Y026280D01*
X030582Y026237D01*
X030502Y026156D01*
X030474Y026089D02*
X030178Y026089D01*
X030178Y025991D02*
X030458Y025991D01*
X030477Y025892D02*
X030138Y025892D01*
X030031Y025794D02*
X030542Y025794D01*
X030945Y025794D02*
X034977Y025794D01*
X034958Y025838D02*
X035002Y025734D01*
X035015Y025720D01*
X035002Y025706D01*
X034958Y025602D01*
X034958Y025488D01*
X035002Y025384D01*
X035082Y025303D01*
X035187Y025260D01*
X035300Y025260D01*
X035314Y025266D01*
X035308Y025252D01*
X035308Y025138D01*
X035352Y025034D01*
X035432Y024953D01*
X035537Y024910D01*
X035650Y024910D01*
X035755Y024953D01*
X035835Y025034D01*
X035878Y025138D01*
X035878Y025252D01*
X035835Y025356D01*
X035821Y025370D01*
X035835Y025384D01*
X035878Y025488D01*
X035878Y025602D01*
X035835Y025706D01*
X035821Y025720D01*
X035835Y025734D01*
X035878Y025838D01*
X035878Y025952D01*
X035835Y026056D01*
X035755Y026137D01*
X035650Y026180D01*
X035537Y026180D01*
X035432Y026137D01*
X035418Y026123D01*
X035405Y026137D01*
X035300Y026180D01*
X035187Y026180D01*
X035082Y026137D01*
X035002Y026056D01*
X034958Y025952D01*
X034958Y025838D01*
X034958Y025892D02*
X031009Y025892D01*
X031028Y025991D02*
X034974Y025991D01*
X035034Y026089D02*
X031013Y026089D01*
X030954Y026188D02*
X055993Y026188D01*
X055993Y026286D02*
X030487Y026286D01*
X030556Y026385D02*
X055993Y026385D01*
X055993Y026483D02*
X053409Y026483D01*
X053582Y026582D02*
X055993Y026582D01*
X055993Y026680D02*
X053671Y026680D01*
X053712Y026779D02*
X055993Y026779D01*
X055993Y026877D02*
X053732Y026877D01*
X053732Y026976D02*
X055993Y026976D01*
X055993Y027074D02*
X053705Y027074D01*
X053664Y027173D02*
X055993Y027173D01*
X055993Y027271D02*
X053565Y027271D01*
X052999Y027271D02*
X052565Y027271D01*
X052664Y027173D02*
X052901Y027173D01*
X052860Y027074D02*
X052705Y027074D01*
X052732Y026976D02*
X052832Y026976D01*
X052832Y026877D02*
X052732Y026877D01*
X052712Y026779D02*
X052853Y026779D01*
X052894Y026680D02*
X052671Y026680D01*
X052582Y026582D02*
X052982Y026582D01*
X053156Y026483D02*
X052409Y026483D01*
X052156Y026483D02*
X030578Y026483D01*
X030566Y026582D02*
X051982Y026582D01*
X051894Y026680D02*
X030511Y026680D01*
X030353Y026779D02*
X051853Y026779D01*
X051832Y026877D02*
X030078Y026877D01*
X030078Y026902D02*
X030035Y027006D01*
X029955Y027087D01*
X029850Y027130D01*
X029737Y027130D01*
X029632Y027087D01*
X029552Y027006D01*
X029508Y026902D01*
X029508Y026788D01*
X029552Y026684D01*
X029632Y026603D01*
X029737Y026560D01*
X029850Y026560D01*
X029955Y026603D01*
X030035Y026684D01*
X030078Y026788D01*
X030078Y026902D01*
X030048Y026976D02*
X051832Y026976D01*
X051860Y027074D02*
X030484Y027074D01*
X030624Y027173D02*
X051901Y027173D01*
X051999Y027271D02*
X030671Y027271D01*
X030678Y027370D02*
X055993Y027370D01*
X055993Y026089D02*
X035802Y026089D01*
X035862Y025991D02*
X055993Y025991D01*
X055993Y025892D02*
X046292Y025892D01*
X046305Y025887D02*
X046200Y025930D01*
X046087Y025930D01*
X045982Y025887D01*
X045902Y025806D01*
X045858Y025702D01*
X045858Y025588D01*
X045902Y025484D01*
X045982Y025403D01*
X046087Y025360D01*
X046200Y025360D01*
X046305Y025403D01*
X046385Y025484D01*
X046428Y025588D01*
X046428Y025702D01*
X046385Y025806D01*
X046305Y025887D01*
X046390Y025794D02*
X055993Y025794D01*
X055993Y025695D02*
X046428Y025695D01*
X046428Y025597D02*
X055993Y025597D01*
X055993Y025498D02*
X046391Y025498D01*
X046295Y025400D02*
X055993Y025400D01*
X055993Y025301D02*
X045820Y025301D01*
X045855Y025287D02*
X045750Y025330D01*
X045637Y025330D01*
X045532Y025287D01*
X045452Y025206D01*
X045408Y025102D01*
X045408Y024988D01*
X045452Y024884D01*
X045532Y024803D01*
X045637Y024760D01*
X045750Y024760D01*
X045855Y024803D01*
X045935Y024884D01*
X045978Y024988D01*
X045978Y025102D01*
X045935Y025206D01*
X045855Y025287D01*
X045937Y025203D02*
X055993Y025203D01*
X055993Y025104D02*
X045977Y025104D01*
X045978Y025006D02*
X055993Y025006D01*
X055993Y024907D02*
X045945Y024907D01*
X045860Y024809D02*
X055993Y024809D01*
X055993Y024710D02*
X043728Y024710D01*
X043728Y024752D02*
X043685Y024856D01*
X043605Y024937D01*
X043500Y024980D01*
X043387Y024980D01*
X043282Y024937D01*
X043202Y024856D01*
X043158Y024752D01*
X043158Y024638D01*
X043202Y024534D01*
X043282Y024453D01*
X043387Y024410D01*
X043500Y024410D01*
X043605Y024453D01*
X043685Y024534D01*
X043728Y024638D01*
X043728Y024752D01*
X043705Y024809D02*
X045527Y024809D01*
X045442Y024907D02*
X043634Y024907D01*
X043717Y024612D02*
X055993Y024612D01*
X055993Y024513D02*
X043664Y024513D01*
X043511Y024415D02*
X045699Y024415D01*
X045737Y024430D02*
X045632Y024387D01*
X045552Y024306D01*
X045508Y024202D01*
X045508Y024088D01*
X045552Y023984D01*
X045632Y023903D01*
X045737Y023860D01*
X045850Y023860D01*
X045955Y023903D01*
X046035Y023984D01*
X046078Y024088D01*
X046078Y024202D01*
X046035Y024306D01*
X045955Y024387D01*
X045850Y024430D01*
X045737Y024430D01*
X045887Y024415D02*
X055993Y024415D01*
X055993Y024316D02*
X046025Y024316D01*
X046072Y024218D02*
X048637Y024218D01*
X048591Y024198D02*
X048490Y024098D01*
X048436Y023966D01*
X048436Y023824D01*
X048490Y023692D01*
X048537Y023645D01*
X048490Y023598D01*
X048436Y023466D01*
X048436Y023324D01*
X048490Y023192D01*
X048537Y023145D01*
X048490Y023098D01*
X048436Y022966D01*
X048436Y022824D01*
X048490Y022692D01*
X048562Y022620D01*
X048490Y022548D01*
X048436Y022416D01*
X048436Y022274D01*
X048490Y022142D01*
X048562Y022070D01*
X048490Y021998D01*
X048436Y021866D01*
X048436Y021724D01*
X048490Y021592D01*
X048562Y021520D01*
X048543Y021501D01*
X048496Y021548D01*
X048364Y021603D01*
X048222Y021603D01*
X048091Y021548D01*
X048043Y021501D01*
X047996Y021548D01*
X047864Y021603D01*
X047722Y021603D01*
X047591Y021548D01*
X047490Y021448D01*
X047436Y021316D01*
X047436Y021174D01*
X047490Y021042D01*
X047537Y020995D01*
X047490Y020948D01*
X047436Y020816D01*
X047436Y020674D01*
X047490Y020542D01*
X047591Y020442D01*
X047722Y020387D01*
X047864Y020387D01*
X047996Y020442D01*
X048043Y020489D01*
X048091Y020442D01*
X048222Y020387D01*
X048364Y020387D01*
X048496Y020442D01*
X048543Y020489D01*
X048591Y020442D01*
X048722Y020387D01*
X048864Y020387D01*
X048986Y020437D01*
X048936Y020316D01*
X048936Y020174D01*
X048990Y020042D01*
X049037Y019995D01*
X048990Y019948D01*
X048936Y019816D01*
X048936Y019674D01*
X048986Y019553D01*
X048864Y019603D01*
X048722Y019603D01*
X048591Y019548D01*
X048568Y019526D01*
X048546Y019548D01*
X048414Y019603D01*
X048272Y019603D01*
X048141Y019548D01*
X048040Y019448D01*
X047986Y019316D01*
X047986Y019174D01*
X048040Y019042D01*
X048087Y018995D01*
X048040Y018948D01*
X047986Y018816D01*
X047986Y018674D01*
X048000Y018639D01*
X047900Y018680D01*
X047787Y018680D01*
X047693Y018641D01*
X047600Y018680D01*
X047487Y018680D01*
X047393Y018641D01*
X047300Y018680D01*
X047187Y018680D01*
X047093Y018641D01*
X047000Y018680D01*
X046887Y018680D01*
X046793Y018641D01*
X046700Y018680D01*
X046587Y018680D01*
X046493Y018641D01*
X046400Y018680D01*
X046287Y018680D01*
X046193Y018641D01*
X046100Y018680D01*
X045987Y018680D01*
X045893Y018641D01*
X045800Y018680D01*
X045687Y018680D01*
X045593Y018641D01*
X045500Y018680D01*
X045387Y018680D01*
X045293Y018641D01*
X045200Y018680D01*
X045087Y018680D01*
X044993Y018641D01*
X044900Y018680D01*
X044787Y018680D01*
X044682Y018637D01*
X044602Y018556D01*
X044568Y018476D01*
X044496Y018548D01*
X044364Y018603D01*
X044222Y018603D01*
X044091Y018548D01*
X044043Y018501D01*
X043996Y018548D01*
X043864Y018603D01*
X043722Y018603D01*
X043591Y018548D01*
X043490Y018448D01*
X043436Y018316D01*
X043436Y018174D01*
X043490Y018042D01*
X043537Y017995D01*
X043490Y017948D01*
X043436Y017816D01*
X043436Y017674D01*
X043490Y017542D01*
X043537Y017495D01*
X043490Y017448D01*
X043436Y017316D01*
X043436Y017174D01*
X043490Y017042D01*
X043537Y016995D01*
X043490Y016948D01*
X043436Y016816D01*
X043436Y016674D01*
X043490Y016542D01*
X043537Y016495D01*
X043490Y016448D01*
X043436Y016316D01*
X043436Y016174D01*
X043490Y016042D01*
X036298Y016042D01*
X036264Y016126D02*
X036025Y016365D01*
X035712Y016495D01*
X035374Y016495D01*
X035062Y016365D01*
X034823Y016126D01*
X034694Y015814D01*
X034694Y015476D01*
X034823Y015164D01*
X035062Y014925D01*
X035374Y014795D01*
X035712Y014795D01*
X036025Y014925D01*
X036264Y015164D01*
X036393Y015476D01*
X036393Y015814D01*
X036264Y016126D01*
X036249Y016141D02*
X043449Y016141D01*
X043436Y016239D02*
X036151Y016239D01*
X036052Y016338D02*
X043444Y016338D01*
X043485Y016436D02*
X035854Y016436D01*
X035233Y016436D02*
X030586Y016436D01*
X030585Y016434D02*
X030628Y016538D01*
X030628Y016652D01*
X030585Y016756D01*
X030505Y016837D01*
X030484Y016845D01*
X030505Y016853D01*
X030585Y016934D01*
X030628Y017038D01*
X030628Y017152D01*
X030585Y017256D01*
X030505Y017337D01*
X030484Y017345D01*
X030505Y017353D01*
X030585Y017434D01*
X030628Y017538D01*
X030628Y017652D01*
X030585Y017756D01*
X030505Y017837D01*
X030400Y017880D01*
X030287Y017880D01*
X030182Y017837D01*
X030102Y017756D01*
X030093Y017736D01*
X030085Y017756D01*
X030005Y017837D01*
X029900Y017880D01*
X029787Y017880D01*
X029682Y017837D01*
X029602Y017756D01*
X029593Y017736D01*
X029585Y017756D01*
X029505Y017837D01*
X029400Y017880D01*
X029287Y017880D01*
X029182Y017837D01*
X029102Y017756D01*
X029058Y017652D01*
X029058Y017538D01*
X029102Y017434D01*
X029182Y017353D01*
X029202Y017345D01*
X029182Y017337D01*
X029102Y017256D01*
X029093Y017236D01*
X029085Y017256D01*
X029005Y017337D01*
X028900Y017380D01*
X028787Y017380D01*
X028682Y017337D01*
X028602Y017256D01*
X028593Y017236D01*
X028585Y017256D01*
X028505Y017337D01*
X028400Y017380D01*
X028287Y017380D01*
X028182Y017337D01*
X028102Y017256D01*
X028058Y017152D01*
X028058Y017038D01*
X028102Y016934D01*
X028182Y016853D01*
X028202Y016845D01*
X028182Y016837D01*
X028102Y016756D01*
X028058Y016652D01*
X028058Y016538D01*
X028102Y016434D01*
X028182Y016353D01*
X028287Y016310D01*
X028400Y016310D01*
X028505Y016353D01*
X028585Y016434D01*
X028593Y016454D01*
X028602Y016434D01*
X028682Y016353D01*
X028787Y016310D01*
X028900Y016310D01*
X029005Y016353D01*
X029085Y016434D01*
X029093Y016454D01*
X029102Y016434D01*
X029182Y016353D01*
X029287Y016310D01*
X029400Y016310D01*
X029505Y016353D01*
X029585Y016434D01*
X029593Y016454D01*
X029602Y016434D01*
X029682Y016353D01*
X029787Y016310D01*
X029900Y016310D01*
X030005Y016353D01*
X030085Y016434D01*
X030093Y016454D01*
X030102Y016434D01*
X030182Y016353D01*
X030287Y016310D01*
X030400Y016310D01*
X030505Y016353D01*
X030585Y016434D01*
X030627Y016535D02*
X043498Y016535D01*
X043452Y016633D02*
X030628Y016633D01*
X030595Y016732D02*
X043436Y016732D01*
X043441Y016830D02*
X030511Y016830D01*
X030580Y016929D02*
X043482Y016929D01*
X043505Y017027D02*
X030624Y017027D01*
X030628Y017126D02*
X043456Y017126D01*
X043436Y017224D02*
X030598Y017224D01*
X030519Y017323D02*
X038306Y017323D01*
X038337Y017310D02*
X038450Y017310D01*
X038555Y017353D01*
X038635Y017434D01*
X038678Y017538D01*
X038678Y017652D01*
X038635Y017756D01*
X038555Y017837D01*
X038450Y017880D01*
X038337Y017880D01*
X038232Y017837D01*
X038152Y017756D01*
X038108Y017652D01*
X038108Y017538D01*
X038152Y017434D01*
X038232Y017353D01*
X038337Y017310D01*
X038480Y017323D02*
X041906Y017323D01*
X041937Y017310D02*
X042050Y017310D01*
X042155Y017353D01*
X042235Y017434D01*
X042278Y017538D01*
X042278Y017652D01*
X042235Y017756D01*
X042155Y017837D01*
X042050Y017880D01*
X041937Y017880D01*
X041832Y017837D01*
X041752Y017756D01*
X041708Y017652D01*
X041708Y017538D01*
X041752Y017434D01*
X041832Y017353D01*
X041937Y017310D01*
X042080Y017323D02*
X043438Y017323D01*
X043479Y017421D02*
X042222Y017421D01*
X042271Y017520D02*
X043513Y017520D01*
X043459Y017618D02*
X042278Y017618D01*
X042251Y017717D02*
X043436Y017717D01*
X043436Y017815D02*
X042176Y017815D01*
X041810Y017815D02*
X038576Y017815D01*
X038651Y017717D02*
X041735Y017717D01*
X041708Y017618D02*
X038678Y017618D01*
X038671Y017520D02*
X041716Y017520D01*
X041764Y017421D02*
X038622Y017421D01*
X038164Y017421D02*
X030572Y017421D01*
X030621Y017520D02*
X038116Y017520D01*
X038108Y017618D02*
X030628Y017618D01*
X030601Y017717D02*
X038135Y017717D01*
X038210Y017815D02*
X030526Y017815D01*
X030160Y017815D02*
X030026Y017815D01*
X029660Y017815D02*
X029526Y017815D01*
X029160Y017815D02*
X024543Y017815D01*
X024543Y017717D02*
X029085Y017717D01*
X029058Y017618D02*
X024543Y017618D01*
X024543Y017520D02*
X029066Y017520D01*
X029114Y017421D02*
X024543Y017421D01*
X024543Y017323D02*
X028168Y017323D01*
X028088Y017224D02*
X024543Y017224D01*
X024543Y017126D02*
X028058Y017126D01*
X028063Y017027D02*
X024543Y017027D01*
X024543Y016929D02*
X028107Y016929D01*
X028175Y016830D02*
X024543Y016830D01*
X024543Y016732D02*
X028091Y016732D01*
X028058Y016633D02*
X024543Y016633D01*
X024543Y016535D02*
X028060Y016535D01*
X028101Y016436D02*
X027424Y016436D01*
X027435Y016432D02*
X027311Y016483D01*
X027176Y016483D01*
X027052Y016432D01*
X026957Y016337D01*
X026905Y016212D01*
X026905Y016078D01*
X026957Y015953D01*
X027052Y015858D01*
X027176Y015807D01*
X027311Y015807D01*
X027435Y015858D01*
X027530Y015953D01*
X027581Y016078D01*
X027581Y016212D01*
X027530Y016337D01*
X027435Y016432D01*
X027529Y016338D02*
X028220Y016338D01*
X028466Y016338D02*
X028720Y016338D01*
X028601Y016436D02*
X028586Y016436D01*
X028966Y016338D02*
X029220Y016338D01*
X029101Y016436D02*
X029086Y016436D01*
X029466Y016338D02*
X029720Y016338D01*
X029601Y016436D02*
X029586Y016436D01*
X029966Y016338D02*
X030220Y016338D01*
X030101Y016436D02*
X030086Y016436D01*
X030466Y016338D02*
X035034Y016338D01*
X034936Y016239D02*
X027570Y016239D01*
X027581Y016141D02*
X034837Y016141D01*
X034788Y016042D02*
X027567Y016042D01*
X027520Y015944D02*
X034747Y015944D01*
X034707Y015845D02*
X027403Y015845D01*
X027084Y015845D02*
X024185Y015845D01*
X024283Y015944D02*
X026967Y015944D01*
X026920Y016042D02*
X024382Y016042D01*
X024480Y016141D02*
X026905Y016141D01*
X026916Y016239D02*
X024543Y016239D01*
X024543Y016204D02*
X024543Y025596D01*
X024557Y025590D01*
X024670Y025590D01*
X024775Y025633D01*
X024855Y025714D01*
X024898Y025818D01*
X024898Y025932D01*
X024855Y026036D01*
X024775Y026117D01*
X024670Y026160D01*
X024557Y026160D01*
X024543Y026154D01*
X024543Y026286D01*
X029731Y026286D01*
X029644Y026188D02*
X024543Y026188D01*
X024543Y026286D02*
X024485Y026345D01*
X024152Y026345D01*
X024093Y026286D01*
X024093Y016536D01*
X021851Y014294D01*
X021796Y014348D01*
X021664Y014403D01*
X021522Y014403D01*
X021391Y014348D01*
X021290Y014248D01*
X021236Y014116D01*
X021236Y013974D01*
X021290Y013842D01*
X021345Y013788D01*
X020152Y012595D01*
X018652Y012595D01*
X018593Y012536D01*
X016593Y010536D01*
X016593Y006954D01*
X016652Y006895D01*
X021985Y006895D01*
X022043Y006954D01*
X023235Y008145D01*
X029812Y008145D01*
X029769Y008039D01*
X029769Y007851D01*
X029841Y007676D01*
X029974Y007542D01*
X030149Y007470D01*
X030338Y007470D01*
X030512Y007542D01*
X030646Y007676D01*
X030718Y007851D01*
X030718Y008039D01*
X030674Y008145D01*
X049140Y008145D01*
X049136Y008136D01*
X049136Y007794D01*
X049267Y007477D01*
X049510Y007234D01*
X049827Y007103D01*
X050169Y007103D01*
X050486Y007234D01*
X050729Y007477D01*
X050860Y007794D01*
X050860Y008136D01*
X050856Y008145D01*
X052333Y008145D01*
X052392Y008204D01*
X053293Y009105D01*
X053293Y013036D01*
X053235Y013095D01*
X052902Y013095D01*
X052843Y013036D01*
X052843Y009244D01*
X052195Y008595D01*
X050587Y008595D01*
X050486Y008696D01*
X050169Y008827D01*
X049827Y008827D01*
X049510Y008696D01*
X049409Y008595D01*
X047060Y008595D01*
X047078Y008638D01*
X047078Y008752D01*
X047035Y008856D01*
X046955Y008937D01*
X046850Y008980D01*
X046737Y008980D01*
X046632Y008937D01*
X046552Y008856D01*
X046508Y008752D01*
X046508Y008638D01*
X046526Y008595D01*
X046060Y008595D01*
X046078Y008638D01*
X046078Y008752D01*
X046035Y008856D01*
X045955Y008937D01*
X045850Y008980D01*
X045737Y008980D01*
X045632Y008937D01*
X045552Y008856D01*
X045508Y008752D01*
X045508Y008638D01*
X045526Y008595D01*
X037810Y008595D01*
X037828Y008638D01*
X037828Y008752D01*
X037785Y008856D01*
X037705Y008937D01*
X037600Y008980D01*
X037487Y008980D01*
X037382Y008937D01*
X037302Y008856D01*
X037258Y008752D01*
X037258Y008638D01*
X037276Y008595D01*
X036860Y008595D01*
X036878Y008638D01*
X036878Y008752D01*
X036835Y008856D01*
X036755Y008937D01*
X036650Y008980D01*
X036537Y008980D01*
X036432Y008937D01*
X036352Y008856D01*
X036308Y008752D01*
X036308Y008638D01*
X036326Y008595D01*
X030765Y008595D01*
X030896Y008726D01*
X030968Y008901D01*
X030968Y009089D01*
X030896Y009264D01*
X030762Y009398D01*
X030588Y009470D01*
X030399Y009470D01*
X030224Y009398D01*
X030091Y009264D01*
X030019Y009089D01*
X030019Y008901D01*
X030091Y008726D01*
X030222Y008595D01*
X022902Y008595D01*
X022843Y008536D01*
X021652Y007345D01*
X017043Y007345D01*
X017043Y010204D01*
X018985Y012145D01*
X020485Y012145D01*
X020543Y012204D01*
X024485Y016145D01*
X024543Y016204D01*
X024485Y016145D02*
X024485Y016145D01*
X024543Y016338D02*
X026958Y016338D01*
X027062Y016436D02*
X024543Y016436D01*
X024091Y016535D02*
X016128Y016535D01*
X016128Y016508D02*
X016062Y016349D01*
X015940Y016226D01*
X015780Y016160D01*
X015607Y016160D01*
X015447Y016226D01*
X015325Y016349D01*
X015258Y016508D01*
X015258Y016682D01*
X015325Y016841D01*
X015447Y016964D01*
X015607Y017030D01*
X015780Y017030D01*
X015940Y016964D01*
X016062Y016841D01*
X016128Y016682D01*
X016128Y016508D01*
X016098Y016436D02*
X023993Y016436D01*
X023894Y016338D02*
X016051Y016338D01*
X015953Y016239D02*
X023796Y016239D01*
X023697Y016141D02*
X007393Y016141D01*
X007393Y016239D02*
X009434Y016239D01*
X009447Y016226D02*
X009607Y016160D01*
X009780Y016160D01*
X009940Y016226D01*
X010062Y016349D01*
X010128Y016508D01*
X010128Y016682D01*
X010062Y016841D01*
X009940Y016964D01*
X009780Y017030D01*
X009607Y017030D01*
X009447Y016964D01*
X009325Y016841D01*
X009258Y016682D01*
X009258Y016508D01*
X009325Y016349D01*
X009447Y016226D01*
X009336Y016338D02*
X007393Y016338D01*
X007393Y016436D02*
X009288Y016436D01*
X009258Y016535D02*
X007393Y016535D01*
X007393Y016633D02*
X009258Y016633D01*
X009279Y016732D02*
X007393Y016732D01*
X007393Y016830D02*
X009320Y016830D01*
X009412Y016929D02*
X007393Y016929D01*
X007393Y017027D02*
X009600Y017027D01*
X009607Y017160D02*
X009780Y017160D01*
X009940Y017226D01*
X010062Y017349D01*
X010128Y017508D01*
X010128Y017682D01*
X010062Y017841D01*
X009940Y017964D01*
X009780Y018030D01*
X009607Y018030D01*
X009447Y017964D01*
X009325Y017841D01*
X009258Y017682D01*
X009258Y017508D01*
X009325Y017349D01*
X009447Y017226D01*
X009607Y017160D01*
X009452Y017224D02*
X007393Y017224D01*
X007393Y017126D02*
X016071Y017126D01*
X016065Y017112D02*
X016065Y016978D01*
X016117Y016853D01*
X016212Y016758D01*
X016336Y016707D01*
X016471Y016707D01*
X016595Y016758D01*
X016690Y016853D01*
X016741Y016978D01*
X016741Y017112D01*
X016690Y017237D01*
X016595Y017332D01*
X016471Y017383D01*
X016336Y017383D01*
X016212Y017332D01*
X016117Y017237D01*
X016065Y017112D01*
X016065Y017027D02*
X015787Y017027D01*
X015780Y017160D02*
X015940Y017226D01*
X016062Y017349D01*
X016128Y017508D01*
X016128Y017682D01*
X016062Y017841D01*
X015940Y017964D01*
X015780Y018030D01*
X015607Y018030D01*
X015447Y017964D01*
X015325Y017841D01*
X015258Y017682D01*
X015258Y017508D01*
X015325Y017349D01*
X015447Y017226D01*
X015607Y017160D01*
X015780Y017160D01*
X015934Y017224D02*
X016111Y017224D01*
X016036Y017323D02*
X016203Y017323D01*
X016092Y017421D02*
X024093Y017421D01*
X024093Y017323D02*
X016604Y017323D01*
X016695Y017224D02*
X024093Y017224D01*
X024093Y017126D02*
X016736Y017126D01*
X016741Y017027D02*
X024093Y017027D01*
X024093Y016929D02*
X016721Y016929D01*
X016666Y016830D02*
X024093Y016830D01*
X024093Y016732D02*
X016530Y016732D01*
X016277Y016732D02*
X016108Y016732D01*
X016128Y016633D02*
X024093Y016633D01*
X023599Y016042D02*
X007393Y016042D01*
X007393Y015944D02*
X009427Y015944D01*
X009447Y015964D02*
X009325Y015841D01*
X009258Y015682D01*
X009258Y015508D01*
X009325Y015349D01*
X009447Y015226D01*
X009607Y015160D01*
X009780Y015160D01*
X009940Y015226D01*
X010062Y015349D01*
X010128Y015508D01*
X010128Y015682D01*
X010062Y015841D01*
X009940Y015964D01*
X009780Y016030D01*
X009607Y016030D01*
X009447Y015964D01*
X009328Y015845D02*
X007393Y015845D01*
X007393Y015747D02*
X009285Y015747D01*
X009258Y015648D02*
X007393Y015648D01*
X007393Y015550D02*
X009258Y015550D01*
X009282Y015451D02*
X007393Y015451D01*
X007393Y015353D02*
X009323Y015353D01*
X009419Y015254D02*
X007393Y015254D01*
X007393Y015156D02*
X022712Y015156D01*
X022811Y015254D02*
X015968Y015254D01*
X015940Y015226D02*
X016062Y015349D01*
X016128Y015508D01*
X016128Y015682D01*
X016062Y015841D01*
X015940Y015964D01*
X015780Y016030D01*
X015607Y016030D01*
X015447Y015964D01*
X015325Y015841D01*
X015258Y015682D01*
X015258Y015508D01*
X015325Y015349D01*
X015447Y015226D01*
X015607Y015160D01*
X015780Y015160D01*
X015940Y015226D01*
X016064Y015353D02*
X022909Y015353D01*
X023008Y015451D02*
X016105Y015451D01*
X016128Y015550D02*
X023106Y015550D01*
X023205Y015648D02*
X016128Y015648D01*
X016101Y015747D02*
X023303Y015747D01*
X023402Y015845D02*
X016058Y015845D01*
X015960Y015944D02*
X023500Y015944D01*
X023889Y015550D02*
X034694Y015550D01*
X034694Y015648D02*
X023988Y015648D01*
X024086Y015747D02*
X034694Y015747D01*
X034704Y015451D02*
X023791Y015451D01*
X023692Y015353D02*
X034745Y015353D01*
X034786Y015254D02*
X023594Y015254D01*
X023495Y015156D02*
X034831Y015156D01*
X034930Y015057D02*
X023397Y015057D01*
X023298Y014959D02*
X035028Y014959D01*
X035218Y014860D02*
X023200Y014860D01*
X023101Y014762D02*
X042869Y014762D01*
X042858Y014788D02*
X042902Y014684D01*
X042982Y014603D01*
X043087Y014560D01*
X043200Y014560D01*
X043305Y014603D01*
X043385Y014684D01*
X043428Y014788D01*
X043428Y014902D01*
X043385Y015006D01*
X043305Y015087D01*
X043200Y015130D01*
X043087Y015130D01*
X042982Y015087D01*
X042902Y015006D01*
X042858Y014902D01*
X042858Y014788D01*
X042858Y014860D02*
X035868Y014860D01*
X036058Y014959D02*
X042882Y014959D01*
X042952Y015057D02*
X036157Y015057D01*
X036255Y015156D02*
X043443Y015156D01*
X043436Y015174D02*
X043490Y015042D01*
X043591Y014942D01*
X043722Y014887D01*
X043864Y014887D01*
X043996Y014942D01*
X044043Y014989D01*
X044091Y014942D01*
X044222Y014887D01*
X044364Y014887D01*
X044496Y014942D01*
X044597Y015042D01*
X044610Y015075D01*
X044682Y015003D01*
X044787Y014960D01*
X044900Y014960D01*
X044993Y014999D01*
X045087Y014960D01*
X045200Y014960D01*
X045293Y014999D01*
X045387Y014960D01*
X045500Y014960D01*
X045593Y014999D01*
X045687Y014960D01*
X045800Y014960D01*
X045893Y014999D01*
X045987Y014960D01*
X046100Y014960D01*
X046193Y014999D01*
X046287Y014960D01*
X046400Y014960D01*
X046493Y014999D01*
X046587Y014960D01*
X046700Y014960D01*
X046793Y014999D01*
X046887Y014960D01*
X047000Y014960D01*
X047093Y014999D01*
X047187Y014960D01*
X047300Y014960D01*
X047393Y014999D01*
X047487Y014960D01*
X047600Y014960D01*
X047693Y014999D01*
X047787Y014960D01*
X047900Y014960D01*
X048005Y015003D01*
X048042Y015040D01*
X048141Y014942D01*
X048272Y014887D01*
X048414Y014887D01*
X048546Y014942D01*
X048568Y014964D01*
X048591Y014942D01*
X048722Y014887D01*
X048864Y014887D01*
X048986Y014937D01*
X048936Y014816D01*
X048936Y014674D01*
X048990Y014542D01*
X049037Y014495D01*
X048990Y014448D01*
X048936Y014316D01*
X048936Y014174D01*
X048990Y014042D01*
X049091Y013942D01*
X049222Y013887D01*
X049364Y013887D01*
X049496Y013942D01*
X049543Y013989D01*
X049591Y013942D01*
X049722Y013887D01*
X049864Y013887D01*
X049996Y013942D01*
X050043Y013989D01*
X050091Y013942D01*
X050222Y013887D01*
X050364Y013887D01*
X050496Y013942D01*
X050543Y013989D01*
X050591Y013942D01*
X050722Y013887D01*
X050864Y013887D01*
X050996Y013942D01*
X051043Y013989D01*
X051091Y013942D01*
X051222Y013887D01*
X051364Y013887D01*
X051496Y013942D01*
X051597Y014042D01*
X051651Y014174D01*
X051651Y014316D01*
X051597Y014448D01*
X051549Y014495D01*
X051597Y014542D01*
X051651Y014674D01*
X051651Y014816D01*
X051597Y014948D01*
X051549Y014995D01*
X051597Y015042D01*
X051651Y015174D01*
X051651Y015316D01*
X051597Y015448D01*
X051549Y015495D01*
X051597Y015542D01*
X051651Y015674D01*
X051651Y015816D01*
X051597Y015948D01*
X051549Y015995D01*
X051597Y016042D01*
X051651Y016174D01*
X051651Y016316D01*
X051597Y016448D01*
X051549Y016495D01*
X051597Y016542D01*
X051651Y016674D01*
X051651Y016816D01*
X051597Y016948D01*
X051549Y016995D01*
X051597Y017042D01*
X051651Y017174D01*
X051651Y017316D01*
X051597Y017448D01*
X051549Y017495D01*
X051597Y017542D01*
X051651Y017674D01*
X051651Y017816D01*
X051597Y017948D01*
X051549Y017995D01*
X051597Y018042D01*
X051651Y018174D01*
X051651Y018316D01*
X051597Y018448D01*
X051549Y018495D01*
X051597Y018542D01*
X051651Y018674D01*
X051651Y018816D01*
X051597Y018948D01*
X051549Y018995D01*
X051597Y019042D01*
X051651Y019174D01*
X051651Y019316D01*
X051597Y019448D01*
X051549Y019495D01*
X051597Y019542D01*
X051651Y019674D01*
X051651Y019816D01*
X051597Y019948D01*
X051549Y019995D01*
X051597Y020042D01*
X051651Y020174D01*
X051651Y020316D01*
X051597Y020448D01*
X051549Y020495D01*
X051597Y020542D01*
X051651Y020674D01*
X051651Y020816D01*
X051597Y020948D01*
X051549Y020995D01*
X051597Y021042D01*
X051651Y021174D01*
X051651Y021316D01*
X051597Y021448D01*
X051524Y021520D01*
X051597Y021592D01*
X051651Y021724D01*
X051651Y021866D01*
X051597Y021998D01*
X051524Y022070D01*
X051597Y022142D01*
X051651Y022274D01*
X051651Y022416D01*
X051597Y022548D01*
X051524Y022620D01*
X051597Y022692D01*
X051651Y022824D01*
X051651Y022966D01*
X051597Y023098D01*
X051549Y023145D01*
X051597Y023192D01*
X051651Y023324D01*
X051651Y023466D01*
X051597Y023598D01*
X051549Y023645D01*
X051597Y023692D01*
X051651Y023824D01*
X051651Y023966D01*
X051597Y024098D01*
X051496Y024198D01*
X051364Y024253D01*
X051222Y024253D01*
X051091Y024198D01*
X051043Y024151D01*
X050996Y024198D01*
X050864Y024253D01*
X050722Y024253D01*
X050591Y024198D01*
X050543Y024151D01*
X050496Y024198D01*
X050364Y024253D01*
X050222Y024253D01*
X050091Y024198D01*
X050043Y024151D01*
X049996Y024198D01*
X049864Y024253D01*
X049722Y024253D01*
X049591Y024198D01*
X049543Y024151D01*
X049496Y024198D01*
X049364Y024253D01*
X049222Y024253D01*
X049091Y024198D01*
X049043Y024151D01*
X048996Y024198D01*
X048864Y024253D01*
X048722Y024253D01*
X048591Y024198D01*
X048511Y024119D02*
X046078Y024119D01*
X046050Y024021D02*
X048458Y024021D01*
X048436Y023922D02*
X045973Y023922D01*
X045613Y023922D02*
X044019Y023922D01*
X044005Y023937D02*
X043900Y023980D01*
X043787Y023980D01*
X043682Y023937D01*
X043602Y023856D01*
X043558Y023752D01*
X043558Y023638D01*
X043602Y023534D01*
X043682Y023453D01*
X043787Y023410D01*
X043900Y023410D01*
X044005Y023453D01*
X044085Y023534D01*
X044128Y023638D01*
X044128Y023752D01*
X044085Y023856D01*
X044005Y023937D01*
X044099Y023824D02*
X044730Y023824D01*
X044752Y023845D02*
X044693Y023786D01*
X044693Y023704D01*
X044693Y022686D01*
X044693Y022604D01*
X044752Y022545D01*
X046435Y022545D01*
X046493Y022604D01*
X046493Y023786D01*
X046435Y023845D01*
X044752Y023845D01*
X044693Y023725D02*
X044128Y023725D01*
X044123Y023627D02*
X044693Y023627D01*
X044693Y023528D02*
X044079Y023528D01*
X043947Y023430D02*
X044693Y023430D01*
X044693Y023331D02*
X040682Y023331D01*
X040685Y023334D02*
X040728Y023438D01*
X040728Y023552D01*
X040685Y023656D01*
X040605Y023737D01*
X040500Y023780D01*
X040387Y023780D01*
X040282Y023737D01*
X040202Y023656D01*
X040158Y023552D01*
X040158Y023438D01*
X040202Y023334D01*
X040282Y023253D01*
X040387Y023210D01*
X040500Y023210D01*
X040605Y023253D01*
X040685Y023334D01*
X040725Y023430D02*
X043739Y023430D01*
X043607Y023528D02*
X040728Y023528D01*
X040697Y023627D02*
X043563Y023627D01*
X043558Y023725D02*
X040616Y023725D01*
X040708Y023922D02*
X027423Y023922D01*
X027405Y023903D02*
X027485Y023984D01*
X027528Y024088D01*
X027528Y024202D01*
X027504Y024260D01*
X027550Y024260D01*
X027655Y024303D01*
X027735Y024384D01*
X027778Y024488D01*
X027778Y024602D01*
X027735Y024706D01*
X027655Y024787D01*
X027550Y024830D01*
X027437Y024830D01*
X027332Y024787D01*
X027252Y024706D01*
X027208Y024602D01*
X027208Y024488D01*
X027232Y024430D01*
X027187Y024430D01*
X027082Y024387D01*
X027002Y024306D01*
X026958Y024202D01*
X026958Y024088D01*
X027002Y023984D01*
X027082Y023903D01*
X027187Y023860D01*
X027300Y023860D01*
X027405Y023903D01*
X027500Y024021D02*
X040565Y024021D01*
X040552Y024034D02*
X040632Y023953D01*
X040737Y023910D01*
X040850Y023910D01*
X040955Y023953D01*
X041035Y024034D01*
X041078Y024138D01*
X041078Y024252D01*
X041035Y024356D01*
X040955Y024437D01*
X040850Y024480D01*
X040737Y024480D01*
X040632Y024437D01*
X040552Y024356D01*
X040508Y024252D01*
X040508Y024138D01*
X040552Y024034D01*
X040516Y024119D02*
X033122Y024119D01*
X033100Y024110D02*
X033205Y024153D01*
X033285Y024234D01*
X033328Y024338D01*
X033328Y024452D01*
X033285Y024556D01*
X033205Y024637D01*
X033100Y024680D01*
X032987Y024680D01*
X032882Y024637D01*
X032802Y024556D01*
X032758Y024452D01*
X032758Y024338D01*
X032802Y024234D01*
X032882Y024153D01*
X032987Y024110D01*
X033100Y024110D01*
X032965Y024119D02*
X030547Y024119D01*
X030525Y024110D02*
X030630Y024153D01*
X030710Y024234D01*
X030753Y024338D01*
X030753Y024452D01*
X030710Y024556D01*
X030630Y024637D01*
X030525Y024680D01*
X030412Y024680D01*
X030307Y024637D01*
X030276Y024606D01*
X030235Y024706D01*
X030155Y024787D01*
X030050Y024830D01*
X029937Y024830D01*
X029832Y024787D01*
X029752Y024706D01*
X029708Y024602D01*
X029708Y024488D01*
X029752Y024384D01*
X029832Y024303D01*
X029937Y024260D01*
X030050Y024260D01*
X030155Y024303D01*
X030185Y024334D01*
X030227Y024234D01*
X030307Y024153D01*
X030412Y024110D01*
X030525Y024110D01*
X030390Y024119D02*
X027528Y024119D01*
X027522Y024218D02*
X030243Y024218D01*
X030193Y024316D02*
X030167Y024316D01*
X030274Y024612D02*
X030282Y024612D01*
X030231Y024710D02*
X043158Y024710D01*
X043169Y024612D02*
X033230Y024612D01*
X033303Y024513D02*
X043222Y024513D01*
X043376Y024415D02*
X040977Y024415D01*
X041052Y024316D02*
X045561Y024316D01*
X045515Y024218D02*
X041078Y024218D01*
X041070Y024119D02*
X045508Y024119D01*
X045536Y024021D02*
X041022Y024021D01*
X040879Y023922D02*
X043667Y023922D01*
X043588Y023824D02*
X024543Y023824D01*
X024543Y023922D02*
X027063Y023922D01*
X026986Y024021D02*
X024543Y024021D01*
X024543Y024119D02*
X026958Y024119D01*
X026965Y024218D02*
X024543Y024218D01*
X024543Y024316D02*
X027011Y024316D01*
X027149Y024415D02*
X024543Y024415D01*
X024543Y024513D02*
X027208Y024513D01*
X027212Y024612D02*
X024543Y024612D01*
X024543Y024710D02*
X027255Y024710D01*
X027385Y024809D02*
X024543Y024809D01*
X024543Y024907D02*
X043252Y024907D01*
X043182Y024809D02*
X030102Y024809D01*
X029885Y024809D02*
X027602Y024809D01*
X027731Y024710D02*
X029755Y024710D01*
X029712Y024612D02*
X027774Y024612D01*
X027778Y024513D02*
X029708Y024513D01*
X029739Y024415D02*
X027748Y024415D01*
X027667Y024316D02*
X029819Y024316D01*
X030694Y024218D02*
X032818Y024218D01*
X032768Y024316D02*
X030744Y024316D01*
X030753Y024415D02*
X032758Y024415D01*
X032784Y024513D02*
X030728Y024513D01*
X030655Y024612D02*
X032857Y024612D01*
X033328Y024415D02*
X040610Y024415D01*
X040535Y024316D02*
X033319Y024316D01*
X033269Y024218D02*
X040508Y024218D01*
X040270Y023725D02*
X024543Y023725D01*
X024543Y023627D02*
X040189Y023627D01*
X040158Y023528D02*
X024543Y023528D01*
X024543Y023430D02*
X040162Y023430D01*
X040204Y023331D02*
X024543Y023331D01*
X024543Y023233D02*
X040332Y023233D01*
X040554Y023233D02*
X044693Y023233D01*
X044693Y023134D02*
X024543Y023134D01*
X024543Y023036D02*
X044693Y023036D01*
X044693Y022937D02*
X024543Y022937D01*
X024543Y022839D02*
X038784Y022839D01*
X038752Y022806D02*
X038708Y022702D01*
X038708Y022588D01*
X038752Y022484D01*
X038832Y022403D01*
X038937Y022360D01*
X039050Y022360D01*
X039155Y022403D01*
X039235Y022484D01*
X039278Y022588D01*
X039278Y022702D01*
X039235Y022806D01*
X039155Y022887D01*
X039050Y022930D01*
X038937Y022930D01*
X038832Y022887D01*
X038752Y022806D01*
X038724Y022740D02*
X024543Y022740D01*
X024543Y022642D02*
X029037Y022642D01*
X029002Y022606D02*
X028958Y022502D01*
X028958Y022388D01*
X029002Y022284D01*
X029082Y022203D01*
X029187Y022160D01*
X029300Y022160D01*
X029405Y022203D01*
X029485Y022284D01*
X029528Y022388D01*
X029528Y022502D01*
X029485Y022606D01*
X029405Y022687D01*
X029300Y022730D01*
X029187Y022730D01*
X029082Y022687D01*
X029002Y022606D01*
X028975Y022543D02*
X024543Y022543D01*
X024543Y022445D02*
X028958Y022445D01*
X028976Y022346D02*
X024543Y022346D01*
X024543Y022248D02*
X029038Y022248D01*
X029449Y022248D02*
X030888Y022248D01*
X030852Y022284D02*
X030932Y022203D01*
X031037Y022160D01*
X031150Y022160D01*
X031255Y022203D01*
X031335Y022284D01*
X031378Y022388D01*
X031378Y022502D01*
X031335Y022606D01*
X031255Y022687D01*
X031150Y022730D01*
X031037Y022730D01*
X030932Y022687D01*
X030852Y022606D01*
X030808Y022502D01*
X030808Y022388D01*
X030852Y022284D01*
X030826Y022346D02*
X029511Y022346D01*
X029528Y022445D02*
X030808Y022445D01*
X030825Y022543D02*
X029511Y022543D01*
X029450Y022642D02*
X030887Y022642D01*
X031300Y022642D02*
X037987Y022642D01*
X037952Y022606D02*
X037908Y022502D01*
X037908Y022388D01*
X037952Y022284D01*
X038032Y022203D01*
X038137Y022160D01*
X038250Y022160D01*
X038355Y022203D01*
X038435Y022284D01*
X038478Y022388D01*
X038478Y022502D01*
X038435Y022606D01*
X038355Y022687D01*
X038250Y022730D01*
X038137Y022730D01*
X038032Y022687D01*
X037952Y022606D01*
X037925Y022543D02*
X031361Y022543D01*
X031378Y022445D02*
X037908Y022445D01*
X037926Y022346D02*
X031361Y022346D01*
X031299Y022248D02*
X031493Y022248D01*
X031532Y022287D02*
X031452Y022206D01*
X031408Y022102D01*
X031408Y021988D01*
X031452Y021884D01*
X031532Y021803D01*
X031637Y021760D01*
X031750Y021760D01*
X031855Y021803D01*
X031935Y021884D01*
X031978Y021988D01*
X031978Y022102D01*
X031935Y022206D01*
X031855Y022287D01*
X031750Y022330D01*
X031637Y022330D01*
X031532Y022287D01*
X031428Y022149D02*
X024543Y022149D01*
X024543Y022051D02*
X031408Y022051D01*
X031423Y021952D02*
X024543Y021952D01*
X024543Y021854D02*
X031482Y021854D01*
X031905Y021854D02*
X032073Y021854D01*
X032032Y021837D02*
X031952Y021756D01*
X031908Y021652D01*
X031908Y021538D01*
X031952Y021434D01*
X032032Y021353D01*
X032137Y021310D01*
X032250Y021310D01*
X032355Y021353D01*
X032435Y021434D01*
X032478Y021538D01*
X032478Y021652D01*
X032435Y021756D01*
X032355Y021837D01*
X032250Y021880D01*
X032137Y021880D01*
X032032Y021837D01*
X031951Y021755D02*
X024543Y021755D01*
X024543Y021657D02*
X031910Y021657D01*
X031908Y021558D02*
X024543Y021558D01*
X024543Y021460D02*
X031941Y021460D01*
X032024Y021361D02*
X024543Y021361D01*
X024543Y021263D02*
X040858Y021263D01*
X040858Y021302D02*
X040858Y021188D01*
X040902Y021084D01*
X040982Y021003D01*
X041087Y020960D01*
X041200Y020960D01*
X041305Y021003D01*
X041385Y021084D01*
X041428Y021188D01*
X041428Y021302D01*
X041385Y021406D01*
X041305Y021487D01*
X041200Y021530D01*
X041087Y021530D01*
X040982Y021487D01*
X040902Y021406D01*
X040858Y021302D01*
X040883Y021361D02*
X033212Y021361D01*
X033205Y021353D02*
X033285Y021434D01*
X033328Y021538D01*
X033328Y021652D01*
X033285Y021756D01*
X033205Y021837D01*
X033100Y021880D01*
X032987Y021880D01*
X032882Y021837D01*
X032802Y021756D01*
X032758Y021652D01*
X032758Y021538D01*
X032802Y021434D01*
X032882Y021353D01*
X032987Y021310D01*
X033100Y021310D01*
X033205Y021353D01*
X033296Y021460D02*
X040955Y021460D01*
X040868Y021164D02*
X024543Y021164D01*
X024543Y021066D02*
X040920Y021066D01*
X041070Y020967D02*
X024543Y020967D01*
X024543Y020869D02*
X047457Y020869D01*
X047436Y020770D02*
X033124Y020770D01*
X033100Y020780D02*
X032987Y020780D01*
X032882Y020737D01*
X032802Y020656D01*
X032758Y020552D01*
X032758Y020438D01*
X032802Y020334D01*
X032882Y020253D01*
X032987Y020210D01*
X033100Y020210D01*
X033205Y020253D01*
X033285Y020334D01*
X033328Y020438D01*
X033328Y020552D01*
X033285Y020656D01*
X033205Y020737D01*
X033100Y020780D01*
X032963Y020770D02*
X032324Y020770D01*
X032300Y020780D02*
X032187Y020780D01*
X032082Y020737D01*
X032002Y020656D01*
X031958Y020552D01*
X031958Y020438D01*
X032002Y020334D01*
X032082Y020253D01*
X032187Y020210D01*
X032300Y020210D01*
X032405Y020253D01*
X032485Y020334D01*
X032528Y020438D01*
X032528Y020552D01*
X032485Y020656D01*
X032405Y020737D01*
X032300Y020780D01*
X032163Y020770D02*
X024543Y020770D01*
X024543Y020672D02*
X032017Y020672D01*
X031967Y020573D02*
X024543Y020573D01*
X024543Y020475D02*
X031958Y020475D01*
X031984Y020376D02*
X027440Y020376D01*
X027435Y020382D02*
X027311Y020433D01*
X027176Y020433D01*
X027052Y020382D01*
X026957Y020287D01*
X026905Y020162D01*
X026905Y020028D01*
X026957Y019903D01*
X027052Y019808D01*
X027176Y019757D01*
X027311Y019757D01*
X027435Y019808D01*
X027530Y019903D01*
X027581Y020028D01*
X027581Y020162D01*
X027530Y020287D01*
X027435Y020382D01*
X027534Y020278D02*
X032058Y020278D01*
X032429Y020278D02*
X032858Y020278D01*
X032784Y020376D02*
X032503Y020376D01*
X032528Y020475D02*
X032758Y020475D01*
X032767Y020573D02*
X032519Y020573D01*
X032470Y020672D02*
X032817Y020672D01*
X033270Y020672D02*
X047436Y020672D01*
X047477Y020573D02*
X033319Y020573D01*
X033328Y020475D02*
X047558Y020475D01*
X048029Y020475D02*
X048058Y020475D01*
X048529Y020475D02*
X048558Y020475D01*
X048960Y020376D02*
X033303Y020376D01*
X033229Y020278D02*
X048936Y020278D01*
X048936Y020179D02*
X027574Y020179D01*
X027581Y020081D02*
X048974Y020081D01*
X049024Y019982D02*
X027562Y019982D01*
X027510Y019884D02*
X048963Y019884D01*
X048936Y019785D02*
X027379Y019785D01*
X027108Y019785D02*
X024543Y019785D01*
X024543Y019687D02*
X048936Y019687D01*
X048900Y019588D02*
X048971Y019588D01*
X048687Y019588D02*
X048450Y019588D01*
X048237Y019588D02*
X024543Y019588D01*
X024543Y019490D02*
X048082Y019490D01*
X048017Y019391D02*
X024543Y019391D01*
X024543Y019293D02*
X047986Y019293D01*
X047986Y019194D02*
X043697Y019194D01*
X043735Y019156D02*
X043655Y019237D01*
X043550Y019280D01*
X043437Y019280D01*
X043332Y019237D01*
X043252Y019156D01*
X043208Y019052D01*
X043208Y018938D01*
X043252Y018834D01*
X043332Y018753D01*
X043437Y018710D01*
X043550Y018710D01*
X043655Y018753D01*
X043735Y018834D01*
X043778Y018938D01*
X043778Y019052D01*
X043735Y019156D01*
X043760Y019096D02*
X048018Y019096D01*
X048085Y018997D02*
X043778Y018997D01*
X043762Y018899D02*
X048020Y018899D01*
X047986Y018800D02*
X043701Y018800D01*
X043547Y018505D02*
X024543Y018505D01*
X024543Y018603D02*
X044648Y018603D01*
X044580Y018505D02*
X044540Y018505D01*
X044047Y018505D02*
X044040Y018505D01*
X043473Y018406D02*
X024543Y018406D01*
X024543Y018308D02*
X043436Y018308D01*
X043436Y018209D02*
X024543Y018209D01*
X024543Y018111D02*
X043462Y018111D01*
X043520Y018012D02*
X024543Y018012D01*
X024543Y017914D02*
X043476Y017914D01*
X043285Y018800D02*
X035051Y018800D01*
X035085Y018834D02*
X035128Y018938D01*
X035128Y019052D01*
X035085Y019156D01*
X035005Y019237D01*
X034900Y019280D01*
X034787Y019280D01*
X034682Y019237D01*
X034602Y019156D01*
X034558Y019052D01*
X034558Y018938D01*
X034602Y018834D01*
X034682Y018753D01*
X034787Y018710D01*
X034900Y018710D01*
X035005Y018753D01*
X035085Y018834D01*
X035112Y018899D02*
X043225Y018899D01*
X043208Y018997D02*
X035128Y018997D01*
X035110Y019096D02*
X043226Y019096D01*
X043289Y019194D02*
X035047Y019194D01*
X034639Y019194D02*
X024543Y019194D01*
X024543Y019096D02*
X034576Y019096D01*
X034558Y018997D02*
X024543Y018997D01*
X024543Y018899D02*
X034575Y018899D01*
X034635Y018800D02*
X024543Y018800D01*
X024543Y018702D02*
X047986Y018702D01*
X047509Y020967D02*
X041217Y020967D01*
X041367Y021066D02*
X045070Y021066D01*
X045082Y021053D02*
X045187Y021010D01*
X045300Y021010D01*
X045405Y021053D01*
X045485Y021134D01*
X045528Y021238D01*
X045528Y021352D01*
X045485Y021456D01*
X045405Y021537D01*
X045300Y021580D01*
X045187Y021580D01*
X045082Y021537D01*
X045002Y021456D01*
X044958Y021352D01*
X044958Y021238D01*
X045002Y021134D01*
X045082Y021053D01*
X044989Y021164D02*
X044465Y021164D01*
X044455Y021153D02*
X044535Y021234D01*
X044578Y021338D01*
X044578Y021452D01*
X044535Y021556D01*
X044455Y021637D01*
X044350Y021680D01*
X044237Y021680D01*
X044132Y021637D01*
X044052Y021556D01*
X044008Y021452D01*
X044008Y021338D01*
X044052Y021234D01*
X044132Y021153D01*
X044237Y021110D01*
X044350Y021110D01*
X044455Y021153D01*
X044547Y021263D02*
X044958Y021263D01*
X044962Y021361D02*
X044578Y021361D01*
X044575Y021460D02*
X045005Y021460D01*
X045134Y021558D02*
X044533Y021558D01*
X044407Y021657D02*
X048463Y021657D01*
X048473Y021558D02*
X048524Y021558D01*
X048436Y021755D02*
X048256Y021755D01*
X048285Y021784D02*
X048328Y021888D01*
X048328Y022002D01*
X048285Y022106D01*
X048205Y022187D01*
X048128Y022218D01*
X048128Y022302D01*
X048085Y022406D01*
X048005Y022487D01*
X047900Y022530D01*
X047787Y022530D01*
X047682Y022487D01*
X047602Y022406D01*
X047558Y022302D01*
X047558Y022188D01*
X047602Y022084D01*
X047682Y022003D01*
X047758Y021972D01*
X047758Y021888D01*
X047802Y021784D01*
X047882Y021703D01*
X047987Y021660D01*
X048100Y021660D01*
X048205Y021703D01*
X048285Y021784D01*
X048314Y021854D02*
X048436Y021854D01*
X048471Y021952D02*
X048328Y021952D01*
X048308Y022051D02*
X048543Y022051D01*
X048487Y022149D02*
X048242Y022149D01*
X048128Y022248D02*
X048446Y022248D01*
X048436Y022346D02*
X048110Y022346D01*
X048047Y022445D02*
X048447Y022445D01*
X048488Y022543D02*
X039260Y022543D01*
X039278Y022642D02*
X044693Y022642D01*
X044693Y022740D02*
X039262Y022740D01*
X039203Y022839D02*
X044693Y022839D01*
X044687Y022530D02*
X044582Y022487D01*
X044502Y022406D01*
X044458Y022302D01*
X044458Y022188D01*
X044502Y022084D01*
X044582Y022003D01*
X044687Y021960D01*
X044800Y021960D01*
X044905Y022003D01*
X044985Y022084D01*
X045028Y022188D01*
X045028Y022302D01*
X044985Y022406D01*
X044905Y022487D01*
X044800Y022530D01*
X044687Y022530D01*
X044540Y022445D02*
X039196Y022445D01*
X038935Y022256D02*
X038855Y022337D01*
X038750Y022380D01*
X038637Y022380D01*
X038532Y022337D01*
X038452Y022256D01*
X038408Y022152D01*
X038408Y022038D01*
X038452Y021934D01*
X038532Y021853D01*
X038637Y021810D01*
X038750Y021810D01*
X038855Y021853D01*
X038935Y021934D01*
X038978Y022038D01*
X038978Y022152D01*
X038935Y022256D01*
X038939Y022248D02*
X044458Y022248D01*
X044477Y022346D02*
X038832Y022346D01*
X038791Y022445D02*
X038478Y022445D01*
X038461Y022543D02*
X038727Y022543D01*
X038708Y022642D02*
X038400Y022642D01*
X038461Y022346D02*
X038555Y022346D01*
X038448Y022248D02*
X038399Y022248D01*
X038408Y022149D02*
X031959Y022149D01*
X031978Y022051D02*
X038408Y022051D01*
X038444Y021952D02*
X031963Y021952D01*
X031894Y022248D02*
X037988Y022248D01*
X038532Y021854D02*
X033164Y021854D01*
X033285Y021755D02*
X041510Y021755D01*
X041508Y021752D02*
X041508Y021638D01*
X041552Y021534D01*
X041632Y021453D01*
X041737Y021410D01*
X041850Y021410D01*
X041955Y021453D01*
X041958Y021457D01*
X041958Y021438D01*
X042002Y021334D01*
X042082Y021253D01*
X042187Y021210D01*
X042300Y021210D01*
X042405Y021253D01*
X042485Y021334D01*
X042528Y021438D01*
X042528Y021552D01*
X042485Y021656D01*
X042405Y021737D01*
X042300Y021780D01*
X042187Y021780D01*
X042082Y021737D01*
X042078Y021733D01*
X042078Y021752D01*
X042035Y021856D01*
X041955Y021937D01*
X041850Y021980D01*
X041737Y021980D01*
X041632Y021937D01*
X041552Y021856D01*
X041508Y021752D01*
X041508Y021657D02*
X033326Y021657D01*
X033328Y021558D02*
X041542Y021558D01*
X041626Y021460D02*
X041332Y021460D01*
X041404Y021361D02*
X041990Y021361D01*
X042073Y021263D02*
X041428Y021263D01*
X041418Y021164D02*
X044121Y021164D01*
X044040Y021263D02*
X042414Y021263D01*
X042496Y021361D02*
X044008Y021361D01*
X044012Y021460D02*
X042528Y021460D01*
X042526Y021558D02*
X044053Y021558D01*
X044180Y021657D02*
X042485Y021657D01*
X042360Y021755D02*
X047830Y021755D01*
X047773Y021854D02*
X042036Y021854D01*
X042077Y021755D02*
X042126Y021755D01*
X041917Y021952D02*
X047758Y021952D01*
X047635Y022051D02*
X044952Y022051D01*
X045012Y022149D02*
X047575Y022149D01*
X047558Y022248D02*
X045028Y022248D01*
X045010Y022346D02*
X047577Y022346D01*
X047640Y022445D02*
X044947Y022445D01*
X044475Y022149D02*
X038978Y022149D01*
X038978Y022051D02*
X044535Y022051D01*
X045353Y021558D02*
X047614Y021558D01*
X047502Y021460D02*
X045482Y021460D01*
X045524Y021361D02*
X047454Y021361D01*
X047436Y021263D02*
X045528Y021263D01*
X045498Y021164D02*
X047440Y021164D01*
X047480Y021066D02*
X045417Y021066D01*
X046493Y022642D02*
X048541Y022642D01*
X048470Y022740D02*
X046493Y022740D01*
X046493Y022839D02*
X048436Y022839D01*
X048436Y022937D02*
X046493Y022937D01*
X046493Y023036D02*
X048464Y023036D01*
X048526Y023134D02*
X046493Y023134D01*
X046493Y023233D02*
X048473Y023233D01*
X048436Y023331D02*
X046493Y023331D01*
X046493Y023430D02*
X048436Y023430D01*
X048461Y023528D02*
X046493Y023528D01*
X046493Y023627D02*
X048519Y023627D01*
X048476Y023725D02*
X046493Y023725D01*
X046456Y023824D02*
X048436Y023824D01*
X048950Y024218D02*
X049137Y024218D01*
X049450Y024218D02*
X049637Y024218D01*
X049950Y024218D02*
X050137Y024218D01*
X050450Y024218D02*
X050637Y024218D01*
X050950Y024218D02*
X051137Y024218D01*
X051450Y024218D02*
X055993Y024218D01*
X055993Y024119D02*
X051575Y024119D01*
X051629Y024021D02*
X055993Y024021D01*
X055993Y023922D02*
X051651Y023922D01*
X051651Y023824D02*
X055993Y023824D01*
X055993Y023725D02*
X051610Y023725D01*
X051568Y023627D02*
X055993Y023627D01*
X055993Y023528D02*
X051625Y023528D01*
X051651Y023430D02*
X055993Y023430D01*
X055993Y023331D02*
X051651Y023331D01*
X051613Y023233D02*
X055993Y023233D01*
X055993Y023134D02*
X051560Y023134D01*
X051622Y023036D02*
X055993Y023036D01*
X055993Y022937D02*
X051651Y022937D01*
X051651Y022839D02*
X055993Y022839D01*
X055993Y022740D02*
X051616Y022740D01*
X051546Y022642D02*
X055993Y022642D01*
X055993Y022543D02*
X051599Y022543D01*
X051639Y022445D02*
X055993Y022445D01*
X055993Y022346D02*
X051651Y022346D01*
X051640Y022248D02*
X055993Y022248D01*
X055993Y022149D02*
X051599Y022149D01*
X051544Y022051D02*
X055993Y022051D01*
X055993Y021952D02*
X051616Y021952D01*
X051651Y021854D02*
X055993Y021854D01*
X055993Y021755D02*
X051651Y021755D01*
X051623Y021657D02*
X055993Y021657D01*
X055993Y021558D02*
X051562Y021558D01*
X051585Y021460D02*
X055993Y021460D01*
X055993Y021361D02*
X051633Y021361D01*
X051651Y021263D02*
X055993Y021263D01*
X055993Y021164D02*
X051647Y021164D01*
X051606Y021066D02*
X055993Y021066D01*
X055993Y020967D02*
X051577Y020967D01*
X051629Y020869D02*
X055993Y020869D01*
X055993Y020770D02*
X051651Y020770D01*
X051650Y020672D02*
X055993Y020672D01*
X055993Y020573D02*
X051609Y020573D01*
X051570Y020475D02*
X055993Y020475D01*
X055993Y020376D02*
X051626Y020376D01*
X051651Y020278D02*
X055993Y020278D01*
X055993Y020179D02*
X051651Y020179D01*
X051612Y020081D02*
X055993Y020081D01*
X055993Y019982D02*
X051562Y019982D01*
X051623Y019884D02*
X055993Y019884D01*
X055993Y019785D02*
X051651Y019785D01*
X051651Y019687D02*
X055993Y019687D01*
X055993Y019588D02*
X051616Y019588D01*
X051555Y019490D02*
X055993Y019490D01*
X055993Y019391D02*
X051620Y019391D01*
X051651Y019293D02*
X055993Y019293D01*
X055993Y019194D02*
X051651Y019194D01*
X051619Y019096D02*
X055993Y019096D01*
X055993Y018997D02*
X051551Y018997D01*
X051617Y018899D02*
X055993Y018899D01*
X055993Y018800D02*
X051651Y018800D01*
X051651Y018702D02*
X055993Y018702D01*
X055993Y018603D02*
X051622Y018603D01*
X051559Y018505D02*
X055993Y018505D01*
X055993Y018406D02*
X051614Y018406D01*
X051651Y018308D02*
X055993Y018308D01*
X055993Y018209D02*
X051651Y018209D01*
X051625Y018111D02*
X055993Y018111D01*
X055993Y018012D02*
X051566Y018012D01*
X051611Y017914D02*
X055993Y017914D01*
X055993Y017815D02*
X051651Y017815D01*
X051651Y017717D02*
X055993Y017717D01*
X055993Y017618D02*
X051628Y017618D01*
X051574Y017520D02*
X055993Y017520D01*
X055993Y017421D02*
X051608Y017421D01*
X051648Y017323D02*
X055993Y017323D01*
X055993Y017224D02*
X051651Y017224D01*
X051631Y017126D02*
X055993Y017126D01*
X055993Y017027D02*
X051581Y017027D01*
X051605Y016929D02*
X055993Y016929D01*
X055993Y016830D02*
X051645Y016830D01*
X051651Y016732D02*
X055993Y016732D01*
X055993Y016633D02*
X051634Y016633D01*
X051589Y016535D02*
X055993Y016535D01*
X055993Y016436D02*
X051601Y016436D01*
X051642Y016338D02*
X055993Y016338D01*
X055993Y016239D02*
X051651Y016239D01*
X051637Y016141D02*
X055993Y016141D01*
X055993Y016042D02*
X051596Y016042D01*
X051598Y015944D02*
X055993Y015944D01*
X055993Y015845D02*
X051639Y015845D01*
X051651Y015747D02*
X055993Y015747D01*
X055993Y015648D02*
X051640Y015648D01*
X051600Y015550D02*
X055993Y015550D01*
X055993Y015451D02*
X051593Y015451D01*
X051636Y015353D02*
X055993Y015353D01*
X055993Y015254D02*
X051651Y015254D01*
X051644Y015156D02*
X055993Y015156D01*
X055993Y015057D02*
X051603Y015057D01*
X051586Y014959D02*
X055993Y014959D01*
X055993Y014860D02*
X051633Y014860D01*
X051651Y014762D02*
X055993Y014762D01*
X055993Y014663D02*
X053235Y014663D01*
X053199Y014678D02*
X052888Y014678D01*
X052600Y014559D01*
X052379Y014339D01*
X052260Y014051D01*
X052260Y013739D01*
X052379Y013451D01*
X052600Y013231D01*
X052888Y013112D01*
X053199Y013112D01*
X053487Y013231D01*
X053707Y013451D01*
X053826Y013739D01*
X053826Y014051D01*
X053707Y014339D01*
X053487Y014559D01*
X053199Y014678D01*
X053473Y014565D02*
X055993Y014565D01*
X055993Y014466D02*
X053580Y014466D01*
X053678Y014368D02*
X055993Y014368D01*
X055993Y014269D02*
X053736Y014269D01*
X053777Y014171D02*
X055993Y014171D01*
X055993Y014072D02*
X053818Y014072D01*
X053826Y013974D02*
X055993Y013974D01*
X055993Y013875D02*
X053826Y013875D01*
X053826Y013777D02*
X055993Y013777D01*
X055993Y013678D02*
X053801Y013678D01*
X053760Y013580D02*
X055993Y013580D01*
X055993Y013481D02*
X053719Y013481D01*
X053638Y013383D02*
X055993Y013383D01*
X055993Y013284D02*
X053540Y013284D01*
X053377Y013186D02*
X055993Y013186D01*
X055993Y013087D02*
X053243Y013087D01*
X053293Y012989D02*
X055993Y012989D01*
X055993Y012890D02*
X053293Y012890D01*
X053293Y012792D02*
X055993Y012792D01*
X055993Y012693D02*
X053293Y012693D01*
X053293Y012595D02*
X053764Y012595D01*
X053819Y012617D02*
X053591Y012523D01*
X053416Y012348D01*
X053321Y012119D01*
X053321Y011871D01*
X053416Y011642D01*
X053591Y011467D01*
X053819Y011373D01*
X054067Y011373D01*
X054296Y011467D01*
X054471Y011642D01*
X054566Y011871D01*
X054566Y012119D01*
X054471Y012348D01*
X054296Y012523D01*
X054067Y012617D01*
X053819Y012617D01*
X053564Y012496D02*
X053293Y012496D01*
X053293Y012398D02*
X053466Y012398D01*
X053396Y012299D02*
X053293Y012299D01*
X053293Y012201D02*
X053355Y012201D01*
X053321Y012102D02*
X053293Y012102D01*
X053293Y012004D02*
X053321Y012004D01*
X053321Y011905D02*
X053293Y011905D01*
X053293Y011807D02*
X053348Y011807D01*
X053388Y011708D02*
X053293Y011708D01*
X053293Y011610D02*
X053449Y011610D01*
X053547Y011511D02*
X053293Y011511D01*
X053293Y011413D02*
X053723Y011413D01*
X054164Y011413D02*
X055993Y011413D01*
X055993Y011511D02*
X054340Y011511D01*
X054438Y011610D02*
X055993Y011610D01*
X055993Y011708D02*
X054498Y011708D01*
X054539Y011807D02*
X055993Y011807D01*
X055993Y011905D02*
X054566Y011905D01*
X054566Y012004D02*
X055993Y012004D01*
X055993Y012102D02*
X054566Y012102D01*
X054532Y012201D02*
X055993Y012201D01*
X055993Y012299D02*
X054491Y012299D01*
X054421Y012398D02*
X055993Y012398D01*
X055993Y012496D02*
X054323Y012496D01*
X054122Y012595D02*
X055993Y012595D01*
X055993Y011314D02*
X053293Y011314D01*
X053293Y011216D02*
X055993Y011216D01*
X055993Y011117D02*
X053293Y011117D01*
X053293Y011019D02*
X055993Y011019D01*
X055993Y010920D02*
X053293Y010920D01*
X053293Y010822D02*
X055993Y010822D01*
X055993Y010723D02*
X053293Y010723D01*
X053293Y010625D02*
X055993Y010625D01*
X055993Y010526D02*
X053293Y010526D01*
X053293Y010428D02*
X055993Y010428D01*
X055993Y010329D02*
X053293Y010329D01*
X053293Y010231D02*
X055993Y010231D01*
X055993Y010132D02*
X053293Y010132D01*
X053293Y010034D02*
X055993Y010034D01*
X055993Y009935D02*
X053293Y009935D01*
X053293Y009837D02*
X055993Y009837D01*
X055993Y009738D02*
X053293Y009738D01*
X053293Y009640D02*
X055993Y009640D01*
X055993Y009541D02*
X053293Y009541D01*
X053293Y009443D02*
X055993Y009443D01*
X055993Y009344D02*
X053293Y009344D01*
X053293Y009246D02*
X055993Y009246D01*
X055993Y009147D02*
X053293Y009147D01*
X053237Y009049D02*
X055993Y009049D01*
X055993Y008950D02*
X053138Y008950D01*
X053040Y008852D02*
X055993Y008852D01*
X055993Y008753D02*
X053891Y008753D01*
X054030Y008696D02*
X053713Y008827D01*
X053370Y008827D01*
X053053Y008696D01*
X052811Y008453D01*
X052680Y008136D01*
X052680Y007794D01*
X052811Y007477D01*
X053053Y007234D01*
X053370Y007103D01*
X053713Y007103D01*
X054030Y007234D01*
X054272Y007477D01*
X054403Y007794D01*
X054403Y008136D01*
X054272Y008453D01*
X054030Y008696D01*
X054071Y008655D02*
X055993Y008655D01*
X055993Y008556D02*
X054169Y008556D01*
X054268Y008458D02*
X055993Y008458D01*
X055993Y008359D02*
X054311Y008359D01*
X054352Y008261D02*
X055993Y008261D01*
X055993Y008162D02*
X054393Y008162D01*
X054403Y008064D02*
X055993Y008064D01*
X055993Y007965D02*
X054403Y007965D01*
X054403Y007867D02*
X055993Y007867D01*
X055993Y007768D02*
X054393Y007768D01*
X054352Y007670D02*
X055993Y007670D01*
X055993Y007571D02*
X054311Y007571D01*
X054268Y007473D02*
X055993Y007473D01*
X055993Y007374D02*
X054169Y007374D01*
X054071Y007276D02*
X055993Y007276D01*
X055993Y007177D02*
X053891Y007177D01*
X053192Y007177D02*
X052285Y007177D01*
X052285Y007079D02*
X055993Y007079D01*
X055993Y006980D02*
X052246Y006980D01*
X052285Y007074D02*
X052206Y006884D01*
X052061Y006740D01*
X051872Y006661D01*
X051667Y006661D01*
X051478Y006740D01*
X051333Y006884D01*
X051255Y007074D01*
X051255Y007279D01*
X051333Y007468D01*
X051478Y007613D01*
X051667Y007691D01*
X051872Y007691D01*
X052061Y007613D01*
X052206Y007468D01*
X052285Y007279D01*
X052285Y007074D01*
X052285Y007276D02*
X053012Y007276D01*
X052914Y007374D02*
X052245Y007374D01*
X052202Y007473D02*
X052815Y007473D01*
X052772Y007571D02*
X052103Y007571D01*
X051924Y007670D02*
X052731Y007670D01*
X052690Y007768D02*
X050849Y007768D01*
X050860Y007867D02*
X052680Y007867D01*
X052680Y007965D02*
X050860Y007965D01*
X050860Y008064D02*
X052680Y008064D01*
X052690Y008162D02*
X052350Y008162D01*
X052449Y008261D02*
X052731Y008261D01*
X052772Y008359D02*
X052547Y008359D01*
X052646Y008458D02*
X052815Y008458D01*
X052744Y008556D02*
X052914Y008556D01*
X052843Y008655D02*
X053012Y008655D01*
X052941Y008753D02*
X053192Y008753D01*
X052747Y009147D02*
X030944Y009147D01*
X030968Y009049D02*
X052648Y009049D01*
X052550Y008950D02*
X046922Y008950D01*
X047037Y008852D02*
X052451Y008852D01*
X052353Y008753D02*
X050348Y008753D01*
X050527Y008655D02*
X052254Y008655D01*
X051615Y007670D02*
X050808Y007670D01*
X050768Y007571D02*
X051436Y007571D01*
X051338Y007473D02*
X050724Y007473D01*
X050626Y007374D02*
X051294Y007374D01*
X051255Y007276D02*
X050527Y007276D01*
X050348Y007177D02*
X051255Y007177D01*
X051255Y007079D02*
X041991Y007079D01*
X041991Y007134D02*
X041885Y007390D01*
X041688Y007586D01*
X041432Y007692D01*
X041155Y007692D01*
X040898Y007586D01*
X040702Y007390D01*
X040596Y007134D01*
X040596Y006856D01*
X040702Y006600D01*
X040898Y006404D01*
X041155Y006298D01*
X041432Y006298D01*
X041688Y006404D01*
X041885Y006600D01*
X041991Y006856D01*
X041991Y007134D01*
X041973Y007177D02*
X049648Y007177D01*
X049469Y007276D02*
X041932Y007276D01*
X041891Y007374D02*
X049370Y007374D01*
X049272Y007473D02*
X041802Y007473D01*
X041704Y007571D02*
X049228Y007571D01*
X049188Y007670D02*
X041488Y007670D01*
X041099Y007670D02*
X033988Y007670D01*
X033932Y007692D02*
X033655Y007692D01*
X033398Y007586D01*
X033202Y007390D01*
X033096Y007134D01*
X033096Y006856D01*
X033202Y006600D01*
X033398Y006404D01*
X033655Y006298D01*
X033932Y006298D01*
X034188Y006404D01*
X034385Y006600D01*
X034491Y006856D01*
X034491Y007134D01*
X034385Y007390D01*
X034188Y007586D01*
X033932Y007692D01*
X034204Y007571D02*
X040883Y007571D01*
X040784Y007473D02*
X034302Y007473D01*
X034391Y007374D02*
X040695Y007374D01*
X040655Y007276D02*
X034432Y007276D01*
X034473Y007177D02*
X040614Y007177D01*
X040596Y007079D02*
X034491Y007079D01*
X034491Y006980D02*
X035956Y006980D01*
X035991Y007015D02*
X035885Y006909D01*
X035828Y006770D01*
X035828Y006620D01*
X035885Y006481D01*
X035991Y006375D01*
X036130Y006318D01*
X036280Y006318D01*
X036418Y006375D01*
X036524Y006481D01*
X036582Y006620D01*
X036582Y006770D01*
X036524Y006909D01*
X036418Y007015D01*
X036280Y007072D01*
X036130Y007072D01*
X035991Y007015D01*
X035874Y006882D02*
X034491Y006882D01*
X034460Y006783D02*
X035833Y006783D01*
X035828Y006685D02*
X034420Y006685D01*
X034371Y006586D02*
X035842Y006586D01*
X035882Y006488D02*
X034272Y006488D01*
X034153Y006389D02*
X035977Y006389D01*
X036432Y006389D02*
X038654Y006389D01*
X038668Y006375D02*
X038807Y006318D01*
X038957Y006318D01*
X039096Y006375D01*
X039202Y006481D01*
X039259Y006620D01*
X039259Y006770D01*
X039202Y006909D01*
X039096Y007015D01*
X038957Y007072D01*
X038807Y007072D01*
X038668Y007015D01*
X038562Y006909D01*
X038505Y006770D01*
X038505Y006620D01*
X038562Y006481D01*
X038668Y006375D01*
X038560Y006488D02*
X036527Y006488D01*
X036568Y006586D02*
X038519Y006586D01*
X038505Y006685D02*
X036582Y006685D01*
X036577Y006783D02*
X038510Y006783D01*
X038551Y006882D02*
X036536Y006882D01*
X036453Y006980D02*
X038634Y006980D01*
X039130Y006980D02*
X040596Y006980D01*
X040596Y006882D02*
X039213Y006882D01*
X039254Y006783D02*
X040626Y006783D01*
X040667Y006685D02*
X039259Y006685D01*
X039245Y006586D02*
X040716Y006586D01*
X040814Y006488D02*
X039204Y006488D01*
X039109Y006389D02*
X040934Y006389D01*
X041653Y006389D02*
X045227Y006389D01*
X045241Y006375D02*
X045380Y006318D01*
X045530Y006318D01*
X045668Y006375D01*
X045774Y006481D01*
X045832Y006620D01*
X045832Y006770D01*
X045774Y006909D01*
X045668Y007015D01*
X045530Y007072D01*
X045380Y007072D01*
X045241Y007015D01*
X045135Y006909D01*
X045078Y006770D01*
X045078Y006620D01*
X045135Y006481D01*
X045241Y006375D01*
X045132Y006488D02*
X041772Y006488D01*
X041871Y006586D02*
X045092Y006586D01*
X045078Y006685D02*
X041920Y006685D01*
X041960Y006783D02*
X045083Y006783D01*
X045124Y006882D02*
X041991Y006882D01*
X041991Y006980D02*
X045206Y006980D01*
X045703Y006980D02*
X047884Y006980D01*
X047918Y007015D02*
X047812Y006909D01*
X047755Y006770D01*
X047755Y006620D01*
X047812Y006481D01*
X047918Y006375D01*
X048057Y006318D01*
X048207Y006318D01*
X048346Y006375D01*
X048452Y006481D01*
X048509Y006620D01*
X048509Y006770D01*
X048452Y006909D01*
X048346Y007015D01*
X048207Y007072D01*
X048057Y007072D01*
X047918Y007015D01*
X047801Y006882D02*
X045786Y006882D01*
X045827Y006783D02*
X047760Y006783D01*
X047755Y006685D02*
X045832Y006685D01*
X045818Y006586D02*
X047769Y006586D01*
X047810Y006488D02*
X045777Y006488D01*
X045682Y006389D02*
X047904Y006389D01*
X048359Y006389D02*
X055804Y006389D01*
X055706Y006291D02*
X016004Y006291D01*
X016079Y006389D02*
X033434Y006389D01*
X033314Y006488D02*
X026491Y006488D01*
X026530Y006503D02*
X026610Y006584D01*
X026653Y006688D01*
X026653Y006802D01*
X026610Y006906D01*
X026530Y006987D01*
X026425Y007030D01*
X026312Y007030D01*
X026207Y006987D01*
X026127Y006906D01*
X026083Y006802D01*
X026083Y006688D01*
X026127Y006584D01*
X026207Y006503D01*
X026312Y006460D01*
X026425Y006460D01*
X026530Y006503D01*
X026611Y006586D02*
X033216Y006586D01*
X033167Y006685D02*
X026652Y006685D01*
X026653Y006783D02*
X033126Y006783D01*
X033096Y006882D02*
X031365Y006882D01*
X031338Y006870D02*
X031512Y006942D01*
X031646Y007076D01*
X031718Y007251D01*
X031718Y007439D01*
X031646Y007614D01*
X031512Y007748D01*
X031338Y007820D01*
X031149Y007820D01*
X030974Y007748D01*
X030841Y007614D01*
X030769Y007439D01*
X030769Y007251D01*
X030841Y007076D01*
X030974Y006942D01*
X031149Y006870D01*
X031338Y006870D01*
X031122Y006882D02*
X026620Y006882D01*
X026536Y006980D02*
X030937Y006980D01*
X030840Y007079D02*
X022168Y007079D01*
X022267Y007177D02*
X030799Y007177D01*
X030769Y007276D02*
X022365Y007276D01*
X022464Y007374D02*
X030769Y007374D01*
X030782Y007473D02*
X030343Y007473D01*
X030143Y007473D02*
X022562Y007473D01*
X022661Y007571D02*
X029946Y007571D01*
X029847Y007670D02*
X022759Y007670D01*
X022858Y007768D02*
X029803Y007768D01*
X029769Y007867D02*
X022956Y007867D01*
X023055Y007965D02*
X029769Y007965D01*
X029778Y008064D02*
X023153Y008064D01*
X022764Y008458D02*
X017043Y008458D01*
X017043Y008556D02*
X022863Y008556D01*
X022666Y008359D02*
X017043Y008359D01*
X017043Y008261D02*
X022567Y008261D01*
X022469Y008162D02*
X017043Y008162D01*
X017043Y008064D02*
X022370Y008064D01*
X022272Y007965D02*
X017043Y007965D01*
X017043Y007867D02*
X022173Y007867D01*
X022075Y007768D02*
X017043Y007768D01*
X017043Y007670D02*
X021976Y007670D01*
X021878Y007571D02*
X017043Y007571D01*
X017043Y007473D02*
X021779Y007473D01*
X021681Y007374D02*
X017043Y007374D01*
X016593Y007374D02*
X010073Y007374D01*
X010062Y007349D02*
X010128Y007508D01*
X010128Y007682D01*
X010062Y007841D01*
X009940Y007964D01*
X009780Y008030D01*
X009607Y008030D01*
X009447Y007964D01*
X009325Y007841D01*
X009258Y007682D01*
X009258Y007508D01*
X009325Y007349D01*
X009447Y007226D01*
X009607Y007160D01*
X009780Y007160D01*
X009940Y007226D01*
X010062Y007349D01*
X009989Y007276D02*
X016593Y007276D01*
X016593Y007177D02*
X009821Y007177D01*
X009566Y007177D02*
X007393Y007177D01*
X007393Y007079D02*
X016593Y007079D01*
X016593Y006980D02*
X015901Y006980D01*
X016022Y006882D02*
X024991Y006882D01*
X025002Y006906D02*
X024958Y006802D01*
X024958Y006688D01*
X025002Y006584D01*
X025082Y006503D01*
X025187Y006460D01*
X025300Y006460D01*
X025405Y006503D01*
X025485Y006584D01*
X025528Y006688D01*
X025528Y006802D01*
X025485Y006906D01*
X025405Y006987D01*
X025300Y007030D01*
X025187Y007030D01*
X025082Y006987D01*
X025002Y006906D01*
X025075Y006980D02*
X022070Y006980D01*
X024958Y006783D02*
X016086Y006783D01*
X016127Y006685D02*
X024960Y006685D01*
X025001Y006586D02*
X016128Y006586D01*
X016120Y006488D02*
X025120Y006488D01*
X025366Y006488D02*
X026245Y006488D01*
X026126Y006586D02*
X025486Y006586D01*
X025527Y006685D02*
X026085Y006685D01*
X026083Y006783D02*
X025528Y006783D01*
X025495Y006882D02*
X026116Y006882D01*
X026200Y006980D02*
X025411Y006980D01*
X025333Y008645D02*
X025154Y008645D01*
X024988Y008714D01*
X024862Y008840D01*
X024793Y009005D01*
X024793Y009185D01*
X024862Y009350D01*
X024988Y009476D01*
X025154Y009545D01*
X025333Y009545D01*
X025498Y009476D01*
X025625Y009350D01*
X025693Y009185D01*
X025693Y009005D01*
X025625Y008840D01*
X025498Y008714D01*
X025333Y008645D01*
X025356Y008655D02*
X026131Y008655D01*
X026154Y008645D02*
X026333Y008645D01*
X026498Y008714D01*
X026625Y008840D01*
X026693Y009005D01*
X026693Y009185D01*
X026625Y009350D01*
X026498Y009476D01*
X026333Y009545D01*
X026154Y009545D01*
X025988Y009476D01*
X025862Y009350D01*
X025793Y009185D01*
X025793Y009005D01*
X025862Y008840D01*
X025988Y008714D01*
X026154Y008645D01*
X026356Y008655D02*
X027131Y008655D01*
X027154Y008645D02*
X027333Y008645D01*
X027498Y008714D01*
X027625Y008840D01*
X027693Y009005D01*
X027693Y009185D01*
X027625Y009350D01*
X027498Y009476D01*
X027333Y009545D01*
X027154Y009545D01*
X026988Y009476D01*
X026862Y009350D01*
X026793Y009185D01*
X026793Y009005D01*
X026862Y008840D01*
X026988Y008714D01*
X027154Y008645D01*
X027356Y008655D02*
X028131Y008655D01*
X028154Y008645D02*
X028333Y008645D01*
X028498Y008714D01*
X028625Y008840D01*
X028693Y009005D01*
X028693Y009185D01*
X028625Y009350D01*
X028498Y009476D01*
X028333Y009545D01*
X028154Y009545D01*
X027988Y009476D01*
X027862Y009350D01*
X027793Y009185D01*
X027793Y009005D01*
X027862Y008840D01*
X027988Y008714D01*
X028154Y008645D01*
X028356Y008655D02*
X030162Y008655D01*
X030080Y008753D02*
X028538Y008753D01*
X028630Y008852D02*
X030039Y008852D01*
X030019Y008950D02*
X028670Y008950D01*
X028693Y009049D02*
X030019Y009049D01*
X030042Y009147D02*
X028693Y009147D01*
X028668Y009246D02*
X030083Y009246D01*
X030171Y009344D02*
X028627Y009344D01*
X028532Y009443D02*
X030333Y009443D01*
X030654Y009443D02*
X052843Y009443D01*
X052843Y009541D02*
X028342Y009541D01*
X028333Y009645D02*
X028498Y009714D01*
X028625Y009840D01*
X028693Y010005D01*
X028693Y010185D01*
X028625Y010350D01*
X028498Y010476D01*
X028333Y010545D01*
X028154Y010545D01*
X027988Y010476D01*
X027862Y010350D01*
X027793Y010185D01*
X027793Y010005D01*
X027862Y009840D01*
X027988Y009714D01*
X028154Y009645D01*
X028333Y009645D01*
X028523Y009738D02*
X052843Y009738D01*
X052843Y009640D02*
X017043Y009640D01*
X017043Y009738D02*
X023964Y009738D01*
X023988Y009714D02*
X024154Y009645D01*
X024333Y009645D01*
X024498Y009714D01*
X024625Y009840D01*
X024693Y010005D01*
X024693Y010185D01*
X024625Y010350D01*
X024498Y010476D01*
X024333Y010545D01*
X024154Y010545D01*
X023988Y010476D01*
X023862Y010350D01*
X023793Y010185D01*
X023793Y010005D01*
X023862Y009840D01*
X023988Y009714D01*
X023865Y009837D02*
X017043Y009837D01*
X017043Y009935D02*
X023822Y009935D01*
X023793Y010034D02*
X017043Y010034D01*
X017043Y010132D02*
X023793Y010132D01*
X023812Y010231D02*
X017070Y010231D01*
X017169Y010329D02*
X023853Y010329D01*
X023939Y010428D02*
X017267Y010428D01*
X017366Y010526D02*
X019098Y010526D01*
X019105Y010519D02*
X019260Y010455D01*
X019427Y010455D01*
X019581Y010519D01*
X019699Y010637D01*
X019763Y010791D01*
X019763Y010959D01*
X019699Y011113D01*
X019581Y011231D01*
X019427Y011295D01*
X019260Y011295D01*
X019105Y011231D01*
X018987Y011113D01*
X018923Y010959D01*
X018923Y010791D01*
X018987Y010637D01*
X019105Y010519D01*
X019000Y010625D02*
X017464Y010625D01*
X017563Y010723D02*
X018952Y010723D01*
X018923Y010822D02*
X017661Y010822D01*
X017760Y010920D02*
X018923Y010920D01*
X018948Y011019D02*
X017858Y011019D01*
X017957Y011117D02*
X018991Y011117D01*
X019090Y011216D02*
X018055Y011216D01*
X018154Y011314D02*
X020608Y011314D01*
X020608Y011352D02*
X020608Y011238D01*
X020652Y011134D01*
X020732Y011053D01*
X020837Y011010D01*
X020950Y011010D01*
X021055Y011053D01*
X021135Y011134D01*
X021178Y011238D01*
X021178Y011352D01*
X021135Y011456D01*
X021055Y011537D01*
X020950Y011580D01*
X020837Y011580D01*
X020732Y011537D01*
X020652Y011456D01*
X020608Y011352D01*
X020634Y011413D02*
X018252Y011413D01*
X018351Y011511D02*
X020706Y011511D01*
X020618Y011216D02*
X019597Y011216D01*
X019695Y011117D02*
X020668Y011117D01*
X020816Y011019D02*
X019738Y011019D01*
X019763Y010920D02*
X030097Y010920D01*
X030091Y010926D02*
X030224Y010792D01*
X030399Y010720D01*
X030588Y010720D01*
X030762Y010792D01*
X030896Y010926D01*
X030968Y011101D01*
X030968Y011289D01*
X030896Y011464D01*
X030762Y011598D01*
X030588Y011670D01*
X030399Y011670D01*
X030224Y011598D01*
X030091Y011464D01*
X030019Y011289D01*
X030019Y011101D01*
X030091Y010926D01*
X030052Y011019D02*
X020971Y011019D01*
X021118Y011117D02*
X030019Y011117D01*
X030019Y011216D02*
X021169Y011216D01*
X021178Y011314D02*
X030029Y011314D01*
X030069Y011413D02*
X021153Y011413D01*
X021080Y011511D02*
X030138Y011511D01*
X030253Y011610D02*
X018449Y011610D01*
X018548Y011708D02*
X036577Y011708D01*
X036582Y011703D02*
X036687Y011660D01*
X036800Y011660D01*
X036905Y011703D01*
X036985Y011784D01*
X037028Y011888D01*
X037028Y012002D01*
X036985Y012106D01*
X036905Y012187D01*
X036800Y012230D01*
X036687Y012230D01*
X036582Y012187D01*
X036502Y012106D01*
X036458Y012002D01*
X036458Y011888D01*
X036502Y011784D01*
X036582Y011703D01*
X036492Y011807D02*
X018646Y011807D01*
X018745Y011905D02*
X021630Y011905D01*
X021602Y011934D02*
X021682Y011853D01*
X021787Y011810D01*
X021900Y011810D01*
X022005Y011853D01*
X022085Y011934D01*
X022128Y012038D01*
X022128Y012152D01*
X022085Y012256D01*
X022005Y012337D01*
X021900Y012380D01*
X021787Y012380D01*
X021682Y012337D01*
X021602Y012256D01*
X021558Y012152D01*
X021558Y012038D01*
X021602Y011934D01*
X021573Y012004D02*
X018843Y012004D01*
X018942Y012102D02*
X021558Y012102D01*
X021579Y012201D02*
X020540Y012201D01*
X020543Y012204D02*
X020543Y012204D01*
X020639Y012299D02*
X021644Y012299D01*
X022042Y012299D02*
X033651Y012299D01*
X033655Y012298D02*
X033932Y012298D01*
X034188Y012404D01*
X034385Y012600D01*
X034491Y012856D01*
X034491Y013134D01*
X034385Y013390D01*
X034188Y013586D01*
X033932Y013692D01*
X033655Y013692D01*
X033398Y013586D01*
X033202Y013390D01*
X033096Y013134D01*
X033096Y012856D01*
X033202Y012600D01*
X033398Y012404D01*
X033655Y012298D01*
X033413Y012398D02*
X020737Y012398D01*
X020836Y012496D02*
X033306Y012496D01*
X033207Y012595D02*
X020934Y012595D01*
X021033Y012693D02*
X026017Y012693D01*
X026052Y012658D02*
X026176Y012607D01*
X026311Y012607D01*
X026435Y012658D01*
X026530Y012753D01*
X026581Y012878D01*
X026581Y013012D01*
X026530Y013137D01*
X026435Y013232D01*
X026311Y013283D01*
X026176Y013283D01*
X026052Y013232D01*
X025957Y013137D01*
X025905Y013012D01*
X025905Y012878D01*
X025957Y012753D01*
X026052Y012658D01*
X025941Y012792D02*
X021131Y012792D01*
X021230Y012890D02*
X025905Y012890D01*
X025905Y012989D02*
X021328Y012989D01*
X021427Y013087D02*
X025936Y013087D01*
X026006Y013186D02*
X021525Y013186D01*
X021624Y013284D02*
X033158Y013284D01*
X033117Y013186D02*
X026481Y013186D01*
X026550Y013087D02*
X033096Y013087D01*
X033096Y012989D02*
X026581Y012989D01*
X026581Y012890D02*
X033096Y012890D01*
X033123Y012792D02*
X026546Y012792D01*
X026469Y012693D02*
X033163Y012693D01*
X033199Y013383D02*
X021722Y013383D01*
X021821Y013481D02*
X033293Y013481D01*
X033391Y013580D02*
X021919Y013580D01*
X022018Y013678D02*
X033620Y013678D01*
X033967Y013678D02*
X036408Y013678D01*
X036408Y013702D02*
X036408Y013588D01*
X036452Y013484D01*
X036532Y013403D01*
X036637Y013360D01*
X036750Y013360D01*
X036855Y013403D01*
X036935Y013484D01*
X036978Y013588D01*
X036978Y013702D01*
X036935Y013806D01*
X036855Y013887D01*
X036750Y013930D01*
X036637Y013930D01*
X036532Y013887D01*
X036452Y013806D01*
X036408Y013702D01*
X036439Y013777D02*
X022116Y013777D01*
X022215Y013875D02*
X036520Y013875D01*
X036412Y013580D02*
X034195Y013580D01*
X034294Y013481D02*
X036454Y013481D01*
X036582Y013383D02*
X034388Y013383D01*
X034429Y013284D02*
X040658Y013284D01*
X040617Y013186D02*
X034469Y013186D01*
X034491Y013087D02*
X040596Y013087D01*
X040596Y013134D02*
X040596Y012856D01*
X040702Y012600D01*
X040898Y012404D01*
X041155Y012298D01*
X041432Y012298D01*
X041688Y012404D01*
X041885Y012600D01*
X041991Y012856D01*
X041991Y013134D01*
X041885Y013390D01*
X041688Y013586D01*
X041432Y013692D01*
X041155Y013692D01*
X040898Y013586D01*
X040702Y013390D01*
X040596Y013134D01*
X040596Y012989D02*
X034491Y012989D01*
X034491Y012890D02*
X040596Y012890D01*
X040623Y012792D02*
X034464Y012792D01*
X034423Y012693D02*
X040663Y012693D01*
X040707Y012595D02*
X034379Y012595D01*
X034281Y012496D02*
X040806Y012496D01*
X040913Y012398D02*
X034174Y012398D01*
X033936Y012299D02*
X041151Y012299D01*
X041436Y012299D02*
X042858Y012299D01*
X042858Y012288D02*
X042902Y012184D01*
X042982Y012103D01*
X043087Y012060D01*
X043200Y012060D01*
X043305Y012103D01*
X043385Y012184D01*
X043428Y012288D01*
X043428Y012402D01*
X043385Y012506D01*
X043305Y012587D01*
X043200Y012630D01*
X043087Y012630D01*
X042982Y012587D01*
X042902Y012506D01*
X042858Y012402D01*
X042858Y012288D01*
X042895Y012201D02*
X036871Y012201D01*
X036987Y012102D02*
X042985Y012102D01*
X043301Y012102D02*
X052843Y012102D01*
X052843Y012004D02*
X037028Y012004D01*
X037028Y011905D02*
X052843Y011905D01*
X052843Y011807D02*
X036994Y011807D01*
X036909Y011708D02*
X052843Y011708D01*
X052843Y011610D02*
X052130Y011610D01*
X051961Y011680D02*
X051579Y011680D01*
X051226Y011533D01*
X050956Y011263D01*
X050809Y010910D01*
X050809Y010528D01*
X050956Y010175D01*
X051226Y009905D01*
X051579Y009759D01*
X051961Y009759D01*
X052314Y009905D01*
X052584Y010175D01*
X052730Y010528D01*
X052730Y010910D01*
X052584Y011263D01*
X052314Y011533D01*
X051961Y011680D01*
X052336Y011511D02*
X052843Y011511D01*
X052843Y011413D02*
X052435Y011413D01*
X052533Y011314D02*
X052843Y011314D01*
X052843Y011216D02*
X052604Y011216D01*
X052644Y011117D02*
X052843Y011117D01*
X052843Y011019D02*
X052685Y011019D01*
X052726Y010920D02*
X052843Y010920D01*
X052843Y010822D02*
X052730Y010822D01*
X052730Y010723D02*
X052843Y010723D01*
X052843Y010625D02*
X052730Y010625D01*
X052729Y010526D02*
X052843Y010526D01*
X052843Y010428D02*
X052688Y010428D01*
X052647Y010329D02*
X052843Y010329D01*
X052843Y010231D02*
X052607Y010231D01*
X052540Y010132D02*
X052843Y010132D01*
X052843Y010034D02*
X052442Y010034D01*
X052343Y009935D02*
X052843Y009935D01*
X052843Y009837D02*
X052147Y009837D01*
X051392Y009837D02*
X028621Y009837D01*
X028664Y009935D02*
X051196Y009935D01*
X051098Y010034D02*
X028693Y010034D01*
X028693Y010132D02*
X050999Y010132D01*
X050933Y010231D02*
X028674Y010231D01*
X028633Y010329D02*
X050892Y010329D01*
X050851Y010428D02*
X028547Y010428D01*
X028379Y010526D02*
X050810Y010526D01*
X050809Y010625D02*
X019687Y010625D01*
X019735Y010723D02*
X030392Y010723D01*
X030595Y010723D02*
X050809Y010723D01*
X050809Y010822D02*
X030791Y010822D01*
X030890Y010920D02*
X050813Y010920D01*
X050854Y011019D02*
X030934Y011019D01*
X030968Y011117D02*
X050895Y011117D01*
X050936Y011216D02*
X030968Y011216D01*
X030958Y011314D02*
X051006Y011314D01*
X051105Y011413D02*
X030917Y011413D01*
X030849Y011511D02*
X051203Y011511D01*
X051409Y011610D02*
X030733Y011610D01*
X030195Y010822D02*
X019763Y010822D01*
X019588Y010526D02*
X024108Y010526D01*
X024379Y010526D02*
X025108Y010526D01*
X025154Y010545D02*
X024988Y010476D01*
X024862Y010350D01*
X024793Y010185D01*
X024793Y010005D01*
X024862Y009840D01*
X024988Y009714D01*
X025154Y009645D01*
X025333Y009645D01*
X025498Y009714D01*
X025625Y009840D01*
X025693Y010005D01*
X025693Y010185D01*
X025625Y010350D01*
X025498Y010476D01*
X025333Y010545D01*
X025154Y010545D01*
X025379Y010526D02*
X026108Y010526D01*
X026154Y010545D02*
X025988Y010476D01*
X025862Y010350D01*
X025793Y010185D01*
X025793Y010005D01*
X025862Y009840D01*
X025988Y009714D01*
X026154Y009645D01*
X026333Y009645D01*
X026498Y009714D01*
X026625Y009840D01*
X026693Y010005D01*
X026693Y010185D01*
X026625Y010350D01*
X026498Y010476D01*
X026333Y010545D01*
X026154Y010545D01*
X026379Y010526D02*
X027108Y010526D01*
X027154Y010545D02*
X026988Y010476D01*
X026862Y010350D01*
X026793Y010185D01*
X026793Y010005D01*
X026862Y009840D01*
X026988Y009714D01*
X027154Y009645D01*
X027333Y009645D01*
X027498Y009714D01*
X027625Y009840D01*
X027693Y010005D01*
X027693Y010185D01*
X027625Y010350D01*
X027498Y010476D01*
X027333Y010545D01*
X027154Y010545D01*
X027379Y010526D02*
X028108Y010526D01*
X027939Y010428D02*
X027547Y010428D01*
X027633Y010329D02*
X027853Y010329D01*
X027812Y010231D02*
X027674Y010231D01*
X027693Y010132D02*
X027793Y010132D01*
X027793Y010034D02*
X027693Y010034D01*
X027664Y009935D02*
X027822Y009935D01*
X027865Y009837D02*
X027621Y009837D01*
X027523Y009738D02*
X027964Y009738D01*
X028144Y009541D02*
X027342Y009541D01*
X027144Y009541D02*
X026342Y009541D01*
X026144Y009541D02*
X025342Y009541D01*
X025144Y009541D02*
X017043Y009541D01*
X017043Y009443D02*
X024954Y009443D01*
X024859Y009344D02*
X017043Y009344D01*
X017043Y009246D02*
X024819Y009246D01*
X024793Y009147D02*
X017043Y009147D01*
X017043Y009049D02*
X024793Y009049D01*
X024816Y008950D02*
X017043Y008950D01*
X017043Y008852D02*
X024857Y008852D01*
X024949Y008753D02*
X017043Y008753D01*
X017043Y008655D02*
X025131Y008655D01*
X025538Y008753D02*
X025949Y008753D01*
X025857Y008852D02*
X025630Y008852D01*
X025670Y008950D02*
X025816Y008950D01*
X025793Y009049D02*
X025693Y009049D01*
X025693Y009147D02*
X025793Y009147D01*
X025819Y009246D02*
X025668Y009246D01*
X025627Y009344D02*
X025859Y009344D01*
X025954Y009443D02*
X025532Y009443D01*
X025523Y009738D02*
X025964Y009738D01*
X025865Y009837D02*
X025621Y009837D01*
X025664Y009935D02*
X025822Y009935D01*
X025793Y010034D02*
X025693Y010034D01*
X025693Y010132D02*
X025793Y010132D01*
X025812Y010231D02*
X025674Y010231D01*
X025633Y010329D02*
X025853Y010329D01*
X025939Y010428D02*
X025547Y010428D01*
X024939Y010428D02*
X024547Y010428D01*
X024633Y010329D02*
X024853Y010329D01*
X024812Y010231D02*
X024674Y010231D01*
X024693Y010132D02*
X024793Y010132D01*
X024793Y010034D02*
X024693Y010034D01*
X024664Y009935D02*
X024822Y009935D01*
X024865Y009837D02*
X024621Y009837D01*
X024523Y009738D02*
X024964Y009738D01*
X026523Y009738D02*
X026964Y009738D01*
X026865Y009837D02*
X026621Y009837D01*
X026664Y009935D02*
X026822Y009935D01*
X026793Y010034D02*
X026693Y010034D01*
X026693Y010132D02*
X026793Y010132D01*
X026812Y010231D02*
X026674Y010231D01*
X026633Y010329D02*
X026853Y010329D01*
X026939Y010428D02*
X026547Y010428D01*
X026532Y009443D02*
X026954Y009443D01*
X026859Y009344D02*
X026627Y009344D01*
X026668Y009246D02*
X026819Y009246D01*
X026793Y009147D02*
X026693Y009147D01*
X026693Y009049D02*
X026793Y009049D01*
X026816Y008950D02*
X026670Y008950D01*
X026630Y008852D02*
X026857Y008852D01*
X026949Y008753D02*
X026538Y008753D01*
X027538Y008753D02*
X027949Y008753D01*
X027857Y008852D02*
X027630Y008852D01*
X027670Y008950D02*
X027816Y008950D01*
X027793Y009049D02*
X027693Y009049D01*
X027693Y009147D02*
X027793Y009147D01*
X027819Y009246D02*
X027668Y009246D01*
X027627Y009344D02*
X027859Y009344D01*
X027954Y009443D02*
X027532Y009443D01*
X030816Y009344D02*
X052843Y009344D01*
X052843Y009246D02*
X030903Y009246D01*
X030968Y008950D02*
X036464Y008950D01*
X036350Y008852D02*
X030948Y008852D01*
X030907Y008753D02*
X036309Y008753D01*
X036308Y008655D02*
X030824Y008655D01*
X030708Y008064D02*
X049136Y008064D01*
X049136Y007965D02*
X030718Y007965D01*
X030718Y007867D02*
X049136Y007867D01*
X049147Y007768D02*
X031463Y007768D01*
X031590Y007670D02*
X033599Y007670D01*
X033383Y007571D02*
X031664Y007571D01*
X031704Y007473D02*
X033284Y007473D01*
X033195Y007374D02*
X031718Y007374D01*
X031718Y007276D02*
X033155Y007276D01*
X033114Y007177D02*
X031688Y007177D01*
X031647Y007079D02*
X033096Y007079D01*
X033096Y006980D02*
X031550Y006980D01*
X030823Y007571D02*
X030541Y007571D01*
X030639Y007670D02*
X030896Y007670D01*
X031024Y007768D02*
X030684Y007768D01*
X036458Y011905D02*
X022056Y011905D01*
X022114Y012004D02*
X036459Y012004D01*
X036500Y012102D02*
X022128Y012102D01*
X022108Y012201D02*
X036615Y012201D01*
X036804Y013383D02*
X040699Y013383D01*
X040793Y013481D02*
X036932Y013481D01*
X036975Y013580D02*
X040891Y013580D01*
X041120Y013678D02*
X036978Y013678D01*
X036947Y013777D02*
X052260Y013777D01*
X052260Y013875D02*
X036866Y013875D01*
X036301Y015254D02*
X043436Y015254D01*
X043436Y015316D02*
X043436Y015174D01*
X043484Y015057D02*
X043334Y015057D01*
X043405Y014959D02*
X043574Y014959D01*
X043428Y014860D02*
X048954Y014860D01*
X048936Y014762D02*
X043417Y014762D01*
X043364Y014663D02*
X048940Y014663D01*
X048981Y014565D02*
X043211Y014565D01*
X043076Y014565D02*
X022904Y014565D01*
X023003Y014663D02*
X042922Y014663D01*
X043436Y015316D02*
X043490Y015448D01*
X043537Y015495D01*
X043490Y015542D01*
X043436Y015674D01*
X043436Y015816D01*
X043490Y015948D01*
X043537Y015995D01*
X043490Y016042D01*
X043488Y015944D02*
X036339Y015944D01*
X036380Y015845D02*
X043447Y015845D01*
X043436Y015747D02*
X036393Y015747D01*
X036393Y015648D02*
X043446Y015648D01*
X043487Y015550D02*
X036393Y015550D01*
X036383Y015451D02*
X043493Y015451D01*
X043451Y015353D02*
X036342Y015353D01*
X041467Y013678D02*
X050437Y013678D01*
X050438Y013678D02*
X050150Y013559D01*
X049929Y013339D01*
X049810Y013051D01*
X049810Y012739D01*
X049929Y012451D01*
X050150Y012231D01*
X050438Y012112D01*
X050749Y012112D01*
X051037Y012231D01*
X051257Y012451D01*
X051376Y012739D01*
X051376Y013051D01*
X051257Y013339D01*
X051037Y013559D01*
X050749Y013678D01*
X050438Y013678D01*
X050200Y013580D02*
X041695Y013580D01*
X041794Y013481D02*
X050072Y013481D01*
X049973Y013383D02*
X041888Y013383D01*
X041929Y013284D02*
X049907Y013284D01*
X049866Y013186D02*
X041969Y013186D01*
X041991Y013087D02*
X049825Y013087D01*
X049810Y012989D02*
X041991Y012989D01*
X041991Y012890D02*
X049810Y012890D01*
X049810Y012792D02*
X041964Y012792D01*
X041923Y012693D02*
X043597Y012693D01*
X043582Y012687D02*
X043502Y012606D01*
X043458Y012502D01*
X043458Y012388D01*
X043502Y012284D01*
X043582Y012203D01*
X043687Y012160D01*
X043800Y012160D01*
X043905Y012203D01*
X043985Y012284D01*
X044028Y012388D01*
X044028Y012502D01*
X043985Y012606D01*
X043905Y012687D01*
X043800Y012730D01*
X043687Y012730D01*
X043582Y012687D01*
X043497Y012595D02*
X043286Y012595D01*
X043389Y012496D02*
X043458Y012496D01*
X043458Y012398D02*
X043428Y012398D01*
X043428Y012299D02*
X043495Y012299D01*
X043589Y012201D02*
X043392Y012201D01*
X043898Y012201D02*
X050224Y012201D01*
X050082Y012299D02*
X043991Y012299D01*
X044028Y012398D02*
X049983Y012398D01*
X049911Y012496D02*
X044028Y012496D01*
X043990Y012595D02*
X049870Y012595D01*
X049829Y012693D02*
X043889Y012693D01*
X043001Y012595D02*
X041879Y012595D01*
X041781Y012496D02*
X042897Y012496D01*
X042858Y012398D02*
X041674Y012398D01*
X044013Y014959D02*
X044074Y014959D01*
X044513Y014959D02*
X048124Y014959D01*
X048563Y014959D02*
X048574Y014959D01*
X049008Y014466D02*
X022806Y014466D01*
X022707Y014368D02*
X048957Y014368D01*
X048936Y014269D02*
X022609Y014269D01*
X022510Y014171D02*
X048937Y014171D01*
X048978Y014072D02*
X022412Y014072D01*
X022313Y013974D02*
X049059Y013974D01*
X049528Y013974D02*
X049559Y013974D01*
X050028Y013974D02*
X050059Y013974D01*
X050528Y013974D02*
X050559Y013974D01*
X050749Y013678D02*
X052286Y013678D01*
X052326Y013580D02*
X050987Y013580D01*
X051115Y013481D02*
X052367Y013481D01*
X052448Y013383D02*
X051213Y013383D01*
X051280Y013284D02*
X052547Y013284D01*
X052710Y013186D02*
X051321Y013186D01*
X051361Y013087D02*
X052894Y013087D01*
X052843Y012989D02*
X051376Y012989D01*
X051376Y012890D02*
X052843Y012890D01*
X052843Y012792D02*
X051376Y012792D01*
X051357Y012693D02*
X052843Y012693D01*
X052843Y012595D02*
X051316Y012595D01*
X051276Y012496D02*
X052843Y012496D01*
X052843Y012398D02*
X051203Y012398D01*
X051105Y012299D02*
X052843Y012299D01*
X052843Y012201D02*
X050963Y012201D01*
X051028Y013974D02*
X051059Y013974D01*
X051528Y013974D02*
X052260Y013974D01*
X052269Y014072D02*
X051609Y014072D01*
X051650Y014171D02*
X052310Y014171D01*
X052351Y014269D02*
X051651Y014269D01*
X051630Y014368D02*
X052408Y014368D01*
X052507Y014466D02*
X051578Y014466D01*
X051606Y014565D02*
X052613Y014565D01*
X052851Y014663D02*
X051647Y014663D01*
X049648Y008753D02*
X047078Y008753D01*
X047078Y008655D02*
X049469Y008655D01*
X048380Y006980D02*
X051294Y006980D01*
X051336Y006882D02*
X048463Y006882D01*
X048504Y006783D02*
X051435Y006783D01*
X051611Y006685D02*
X048509Y006685D01*
X048495Y006586D02*
X055993Y006586D01*
X055993Y006685D02*
X051929Y006685D01*
X052105Y006783D02*
X055993Y006783D01*
X055993Y006882D02*
X052203Y006882D01*
X055903Y006488D02*
X048454Y006488D01*
X046508Y008655D02*
X046078Y008655D01*
X046078Y008753D02*
X046509Y008753D01*
X046550Y008852D02*
X046037Y008852D01*
X045922Y008950D02*
X046664Y008950D01*
X045664Y008950D02*
X037672Y008950D01*
X037787Y008852D02*
X045550Y008852D01*
X045509Y008753D02*
X037828Y008753D01*
X037828Y008655D02*
X045508Y008655D01*
X044628Y015057D02*
X044603Y015057D01*
X037414Y008950D02*
X036722Y008950D01*
X036837Y008852D02*
X037300Y008852D01*
X037259Y008753D02*
X036878Y008753D01*
X036878Y008655D02*
X037258Y008655D01*
X029168Y017323D02*
X029019Y017323D01*
X028668Y017323D02*
X028519Y017323D01*
X026977Y019884D02*
X024543Y019884D01*
X024543Y019982D02*
X026924Y019982D01*
X026905Y020081D02*
X024543Y020081D01*
X024543Y020179D02*
X026912Y020179D01*
X026953Y020278D02*
X024543Y020278D01*
X024543Y020376D02*
X027046Y020376D01*
X024093Y020376D02*
X007393Y020376D01*
X007393Y020278D02*
X024093Y020278D01*
X024093Y020179D02*
X007393Y020179D01*
X007393Y020081D02*
X024093Y020081D01*
X024093Y019982D02*
X015896Y019982D01*
X015940Y019964D02*
X015780Y020030D01*
X015607Y020030D01*
X015447Y019964D01*
X015325Y019841D01*
X015258Y019682D01*
X015258Y019508D01*
X015325Y019349D01*
X015447Y019226D01*
X015607Y019160D01*
X015780Y019160D01*
X015940Y019226D01*
X016062Y019349D01*
X016128Y019508D01*
X016128Y019682D01*
X016062Y019841D01*
X015940Y019964D01*
X016020Y019884D02*
X024093Y019884D01*
X024093Y019785D02*
X016085Y019785D01*
X016126Y019687D02*
X024093Y019687D01*
X024093Y019588D02*
X016128Y019588D01*
X016120Y019490D02*
X024093Y019490D01*
X024093Y019391D02*
X016080Y019391D01*
X016006Y019293D02*
X024093Y019293D01*
X024093Y019194D02*
X015862Y019194D01*
X015780Y019030D02*
X015607Y019030D01*
X015447Y018964D01*
X015325Y018841D01*
X015258Y018682D01*
X015258Y018508D01*
X015325Y018349D01*
X015447Y018226D01*
X015607Y018160D01*
X015780Y018160D01*
X015940Y018226D01*
X016062Y018349D01*
X016128Y018508D01*
X016128Y018682D01*
X016062Y018841D01*
X015940Y018964D01*
X015780Y019030D01*
X015859Y018997D02*
X024093Y018997D01*
X024093Y018899D02*
X016005Y018899D01*
X016079Y018800D02*
X024093Y018800D01*
X024093Y018702D02*
X016120Y018702D01*
X016128Y018603D02*
X018542Y018603D01*
X018561Y018611D02*
X018408Y018547D01*
X018291Y018431D01*
X018228Y018278D01*
X018228Y018112D01*
X018291Y017959D01*
X018408Y017843D01*
X018561Y017779D01*
X018726Y017779D01*
X018879Y017843D01*
X018996Y017959D01*
X019059Y018112D01*
X019059Y018278D01*
X018996Y018431D01*
X018879Y018547D01*
X018726Y018611D01*
X018561Y018611D01*
X018745Y018603D02*
X024093Y018603D01*
X024093Y018505D02*
X018922Y018505D01*
X019006Y018406D02*
X024093Y018406D01*
X024093Y018308D02*
X019047Y018308D01*
X019059Y018209D02*
X024093Y018209D01*
X024093Y018111D02*
X019058Y018111D01*
X019018Y018012D02*
X024093Y018012D01*
X024093Y017914D02*
X018950Y017914D01*
X018812Y017815D02*
X024093Y017815D01*
X024093Y017717D02*
X016114Y017717D01*
X016128Y017618D02*
X024093Y017618D01*
X024093Y017520D02*
X016128Y017520D01*
X016073Y017815D02*
X018474Y017815D01*
X018337Y017914D02*
X015990Y017914D01*
X015823Y018012D02*
X018269Y018012D01*
X018228Y018111D02*
X007393Y018111D01*
X007393Y018209D02*
X009488Y018209D01*
X009447Y018226D02*
X009607Y018160D01*
X009780Y018160D01*
X009940Y018226D01*
X010062Y018349D01*
X010128Y018508D01*
X010128Y018682D01*
X010062Y018841D01*
X009940Y018964D01*
X009780Y019030D01*
X009607Y019030D01*
X009447Y018964D01*
X009325Y018841D01*
X009258Y018682D01*
X009258Y018508D01*
X009325Y018349D01*
X009447Y018226D01*
X009366Y018308D02*
X007393Y018308D01*
X007393Y018406D02*
X009301Y018406D01*
X009260Y018505D02*
X007393Y018505D01*
X007393Y018603D02*
X009258Y018603D01*
X009267Y018702D02*
X007393Y018702D01*
X007393Y018800D02*
X009307Y018800D01*
X009382Y018899D02*
X007393Y018899D01*
X007393Y018997D02*
X009527Y018997D01*
X009607Y019160D02*
X009780Y019160D01*
X009940Y019226D01*
X010062Y019349D01*
X010128Y019508D01*
X010128Y019682D01*
X010062Y019841D01*
X009940Y019964D01*
X009780Y020030D01*
X009607Y020030D01*
X009447Y019964D01*
X009325Y019841D01*
X009258Y019682D01*
X009258Y019508D01*
X009325Y019349D01*
X009447Y019226D01*
X009607Y019160D01*
X009525Y019194D02*
X007393Y019194D01*
X007393Y019096D02*
X024093Y019096D01*
X024093Y020475D02*
X010851Y020475D01*
X010830Y020453D02*
X010910Y020534D01*
X010953Y020638D01*
X010953Y020752D01*
X010910Y020856D01*
X010830Y020937D01*
X010725Y020980D01*
X010612Y020980D01*
X010555Y020956D01*
X010578Y021013D01*
X010578Y021127D01*
X010535Y021231D01*
X010455Y021312D01*
X010350Y021355D01*
X010237Y021355D01*
X010132Y021312D01*
X010052Y021231D01*
X010008Y021127D01*
X010008Y021013D01*
X010052Y020909D01*
X010132Y020828D01*
X010237Y020785D01*
X010350Y020785D01*
X010407Y020809D01*
X010383Y020752D01*
X010383Y020638D01*
X010427Y020534D01*
X010507Y020453D01*
X010612Y020410D01*
X010725Y020410D01*
X010830Y020453D01*
X010926Y020573D02*
X024093Y020573D01*
X024093Y020672D02*
X010953Y020672D01*
X010946Y020770D02*
X024093Y020770D01*
X024093Y020869D02*
X010898Y020869D01*
X010756Y020967D02*
X024093Y020967D01*
X024093Y021066D02*
X010578Y021066D01*
X010580Y020967D02*
X010559Y020967D01*
X010563Y021164D02*
X024093Y021164D01*
X024093Y021263D02*
X010504Y021263D01*
X010083Y021263D02*
X007393Y021263D01*
X007393Y021361D02*
X024093Y021361D01*
X024093Y021460D02*
X007393Y021460D01*
X007393Y021558D02*
X024093Y021558D01*
X024093Y021657D02*
X007393Y021657D01*
X007393Y021755D02*
X024093Y021755D01*
X024093Y021854D02*
X007393Y021854D01*
X007393Y021952D02*
X024093Y021952D01*
X024093Y022051D02*
X007393Y022051D01*
X007393Y022149D02*
X024093Y022149D01*
X024093Y022248D02*
X007393Y022248D01*
X007393Y022346D02*
X024093Y022346D01*
X024093Y022445D02*
X007393Y022445D01*
X007393Y022543D02*
X024093Y022543D01*
X024093Y022642D02*
X007393Y022642D01*
X007393Y022740D02*
X024093Y022740D01*
X024093Y022839D02*
X007393Y022839D01*
X007393Y022937D02*
X024093Y022937D01*
X024093Y023036D02*
X007393Y023036D01*
X007393Y023134D02*
X024093Y023134D01*
X024093Y023233D02*
X007393Y023233D01*
X007393Y023331D02*
X024093Y023331D01*
X024093Y023430D02*
X007393Y023430D01*
X007393Y023528D02*
X014857Y023528D01*
X014882Y023503D02*
X014987Y023460D01*
X015100Y023460D01*
X015205Y023503D01*
X015285Y023584D01*
X015328Y023688D01*
X015328Y023802D01*
X015285Y023906D01*
X015205Y023987D01*
X015100Y024030D01*
X014987Y024030D01*
X014882Y023987D01*
X014802Y023906D01*
X014758Y023802D01*
X014758Y023688D01*
X014802Y023584D01*
X014882Y023503D01*
X014784Y023627D02*
X007393Y023627D01*
X007393Y023725D02*
X014758Y023725D01*
X014767Y023824D02*
X007393Y023824D01*
X007393Y023922D02*
X014817Y023922D01*
X014964Y024021D02*
X007393Y024021D01*
X007393Y024119D02*
X014091Y024119D01*
X014052Y024159D02*
X014132Y024078D01*
X014237Y024035D01*
X014350Y024035D01*
X014455Y024078D01*
X014535Y024159D01*
X014578Y024263D01*
X014578Y024377D01*
X014535Y024481D01*
X014455Y024562D01*
X014350Y024605D01*
X014237Y024605D01*
X014132Y024562D01*
X014052Y024481D01*
X014008Y024377D01*
X014008Y024263D01*
X014052Y024159D01*
X014027Y024218D02*
X007393Y024218D01*
X007393Y024316D02*
X014008Y024316D01*
X014024Y024415D02*
X007393Y024415D01*
X007393Y024513D02*
X014083Y024513D01*
X014503Y024513D02*
X020122Y024513D01*
X020132Y024503D02*
X020237Y024460D01*
X020350Y024460D01*
X020455Y024503D01*
X020535Y024584D01*
X020578Y024688D01*
X020578Y024802D01*
X020535Y024906D01*
X020455Y024987D01*
X020350Y025030D01*
X020237Y025030D01*
X020132Y024987D01*
X020052Y024906D01*
X020008Y024802D01*
X020008Y024688D01*
X020052Y024584D01*
X020132Y024503D01*
X020040Y024612D02*
X007393Y024612D01*
X007393Y024710D02*
X018025Y024710D01*
X018032Y024703D02*
X018137Y024660D01*
X018250Y024660D01*
X018355Y024703D01*
X018435Y024784D01*
X018478Y024888D01*
X018478Y025002D01*
X018435Y025106D01*
X018355Y025187D01*
X018250Y025230D01*
X018137Y025230D01*
X018032Y025187D01*
X017952Y025106D01*
X017908Y025002D01*
X017908Y024888D01*
X017952Y024784D01*
X018032Y024703D01*
X017941Y024809D02*
X007393Y024809D01*
X007393Y024907D02*
X015128Y024907D01*
X015102Y024934D02*
X015182Y024853D01*
X015287Y024810D01*
X015400Y024810D01*
X015505Y024853D01*
X015585Y024934D01*
X015628Y025038D01*
X015628Y025152D01*
X015585Y025256D01*
X015505Y025337D01*
X015400Y025380D01*
X015287Y025380D01*
X015182Y025337D01*
X015102Y025256D01*
X015058Y025152D01*
X015058Y025038D01*
X015102Y024934D01*
X015072Y025006D02*
X014457Y025006D01*
X014543Y025104D02*
X015058Y025104D01*
X015079Y025203D02*
X014578Y025203D01*
X014578Y025301D02*
X015146Y025301D01*
X015540Y025301D02*
X024093Y025301D01*
X024093Y025203D02*
X018316Y025203D01*
X018436Y025104D02*
X024093Y025104D01*
X024093Y025006D02*
X020409Y025006D01*
X020534Y024907D02*
X024093Y024907D01*
X024093Y024809D02*
X020575Y024809D01*
X020578Y024710D02*
X024093Y024710D01*
X024093Y024612D02*
X020547Y024612D01*
X020464Y024513D02*
X024093Y024513D01*
X024093Y024415D02*
X014563Y024415D01*
X014578Y024316D02*
X024093Y024316D01*
X024093Y024218D02*
X016274Y024218D01*
X016255Y024237D02*
X016150Y024280D01*
X016037Y024280D01*
X015932Y024237D01*
X015852Y024156D01*
X015808Y024052D01*
X015808Y023938D01*
X015852Y023834D01*
X015932Y023753D01*
X016037Y023710D01*
X016150Y023710D01*
X016255Y023753D01*
X016335Y023834D01*
X016378Y023938D01*
X016378Y024052D01*
X016335Y024156D01*
X016255Y024237D01*
X016350Y024119D02*
X024093Y024119D01*
X024093Y024021D02*
X016378Y024021D01*
X016372Y023922D02*
X024093Y023922D01*
X024093Y023824D02*
X016325Y023824D01*
X016186Y023725D02*
X024093Y023725D01*
X024093Y023627D02*
X015303Y023627D01*
X015328Y023725D02*
X016000Y023725D01*
X015862Y023824D02*
X015319Y023824D01*
X015269Y023922D02*
X015815Y023922D01*
X015808Y024021D02*
X015123Y024021D01*
X015229Y023528D02*
X024093Y023528D01*
X024543Y025006D02*
X031030Y025006D01*
X031002Y025034D02*
X031082Y024953D01*
X031187Y024910D01*
X031300Y024910D01*
X031405Y024953D01*
X031485Y025034D01*
X031528Y025138D01*
X031528Y025252D01*
X031485Y025356D01*
X031405Y025437D01*
X031300Y025480D01*
X031187Y025480D01*
X031082Y025437D01*
X031002Y025356D01*
X030958Y025252D01*
X030958Y025138D01*
X031002Y025034D01*
X030972Y025104D02*
X024543Y025104D01*
X024543Y025203D02*
X030958Y025203D01*
X030979Y025301D02*
X029702Y025301D01*
X029735Y025334D02*
X029778Y025438D01*
X029778Y025552D01*
X029735Y025656D01*
X029655Y025737D01*
X029550Y025780D01*
X029437Y025780D01*
X029332Y025737D01*
X029252Y025656D01*
X029208Y025552D01*
X029208Y025438D01*
X029252Y025334D01*
X029332Y025253D01*
X029437Y025210D01*
X029550Y025210D01*
X029655Y025253D01*
X029735Y025334D01*
X029762Y025400D02*
X031045Y025400D01*
X031442Y025400D02*
X034995Y025400D01*
X034958Y025498D02*
X029778Y025498D01*
X029760Y025597D02*
X034958Y025597D01*
X034997Y025695D02*
X029696Y025695D01*
X029756Y025794D02*
X024888Y025794D01*
X024898Y025892D02*
X029648Y025892D01*
X029608Y025991D02*
X024874Y025991D01*
X024802Y026089D02*
X029608Y026089D01*
X029685Y026582D02*
X026783Y026582D01*
X026825Y026680D02*
X029555Y026680D01*
X029512Y026779D02*
X026828Y026779D01*
X026797Y026877D02*
X029508Y026877D01*
X029539Y026976D02*
X027127Y026976D01*
X027202Y027074D02*
X029619Y027074D01*
X029967Y027074D02*
X030303Y027074D01*
X030163Y027173D02*
X027228Y027173D01*
X027220Y027271D02*
X030115Y027271D01*
X030108Y027370D02*
X027172Y027370D01*
X027029Y027468D02*
X030136Y027468D01*
X030212Y027567D02*
X025703Y027567D01*
X025695Y027468D02*
X026858Y027468D01*
X026715Y027370D02*
X025646Y027370D01*
X025502Y027271D02*
X026666Y027271D01*
X026716Y026976D02*
X026760Y026976D01*
X026656Y026483D02*
X030008Y026483D01*
X030021Y026582D02*
X029902Y026582D01*
X030031Y026680D02*
X030075Y026680D01*
X030074Y026779D02*
X030233Y026779D01*
X029290Y025695D02*
X024836Y025695D01*
X024686Y025597D02*
X029227Y025597D01*
X029208Y025498D02*
X024543Y025498D01*
X024543Y025400D02*
X029224Y025400D01*
X029284Y025301D02*
X024543Y025301D01*
X024093Y025400D02*
X017601Y025400D01*
X017662Y025498D02*
X024093Y025498D01*
X024093Y025597D02*
X017678Y025597D01*
X017660Y025695D02*
X024093Y025695D01*
X024093Y025794D02*
X017598Y025794D01*
X017359Y025892D02*
X024093Y025892D01*
X027657Y028256D02*
X047902Y028256D01*
X047840Y028355D02*
X027714Y028355D01*
X024801Y031113D02*
X020436Y031113D01*
X020477Y031211D02*
X024760Y031211D01*
X024757Y031310D02*
X020480Y031310D01*
X020465Y031408D02*
X024772Y031408D01*
X024813Y031507D02*
X020424Y031507D01*
X020329Y031605D02*
X024907Y031605D01*
X022958Y030128D02*
X009868Y030128D01*
X009878Y030029D02*
X009924Y030029D01*
X009815Y030226D02*
X022913Y030226D01*
X017537Y030817D02*
X016059Y030817D01*
X016012Y030798D02*
X016268Y030904D01*
X016465Y031100D01*
X016571Y031356D01*
X016571Y031634D01*
X016465Y031890D01*
X016268Y032086D01*
X016012Y032192D01*
X015735Y032192D01*
X015478Y032086D01*
X015282Y031890D01*
X015176Y031634D01*
X015176Y031356D01*
X015282Y031100D01*
X015478Y030904D01*
X015735Y030798D01*
X016012Y030798D01*
X016280Y030916D02*
X017316Y030916D01*
X017218Y031014D02*
X016379Y031014D01*
X016470Y031113D02*
X017127Y031113D01*
X017086Y031211D02*
X016511Y031211D01*
X016551Y031310D02*
X017045Y031310D01*
X017026Y031408D02*
X016571Y031408D01*
X016571Y031507D02*
X017026Y031507D01*
X017026Y031605D02*
X016571Y031605D01*
X016542Y031704D02*
X017055Y031704D01*
X017096Y031802D02*
X016501Y031802D01*
X016454Y031901D02*
X017142Y031901D01*
X017241Y031999D02*
X016356Y031999D01*
X016241Y032098D02*
X017355Y032098D01*
X015505Y032098D02*
X014391Y032098D01*
X014506Y031999D02*
X015391Y031999D01*
X015292Y031901D02*
X014604Y031901D01*
X014651Y031802D02*
X015246Y031802D01*
X015205Y031704D02*
X014692Y031704D01*
X014721Y031605D02*
X015176Y031605D01*
X015176Y031507D02*
X014721Y031507D01*
X014721Y031408D02*
X015176Y031408D01*
X015195Y031310D02*
X014701Y031310D01*
X014661Y031211D02*
X015236Y031211D01*
X015277Y031113D02*
X014620Y031113D01*
X014529Y031014D02*
X015368Y031014D01*
X015466Y030916D02*
X014430Y030916D01*
X014209Y030817D02*
X015687Y030817D01*
X014594Y028453D02*
X014415Y028453D01*
X014536Y028355D02*
X014681Y028355D01*
X014172Y028453D02*
X007393Y028453D01*
X007393Y028355D02*
X014051Y028355D01*
X014010Y028256D02*
X007393Y028256D01*
X007393Y028158D02*
X014008Y028158D01*
X014041Y028059D02*
X007393Y028059D01*
X007393Y027961D02*
X014125Y027961D01*
X011972Y029537D02*
X011414Y029537D01*
X011455Y029553D02*
X011535Y029634D01*
X011578Y029738D01*
X011578Y029852D01*
X011535Y029956D01*
X011455Y030037D01*
X011350Y030080D01*
X011237Y030080D01*
X011132Y030037D01*
X011052Y029956D01*
X011008Y029852D01*
X011008Y029738D01*
X011052Y029634D01*
X011132Y029553D01*
X011237Y029510D01*
X011350Y029510D01*
X011455Y029553D01*
X011536Y029635D02*
X011851Y029635D01*
X011810Y029734D02*
X011576Y029734D01*
X011578Y029832D02*
X011808Y029832D01*
X011841Y029931D02*
X011546Y029931D01*
X011462Y030029D02*
X011924Y030029D01*
X011124Y030029D02*
X010262Y030029D01*
X010346Y029931D02*
X011041Y029931D01*
X011008Y029832D02*
X010378Y029832D01*
X010376Y029734D02*
X011010Y029734D01*
X011051Y029635D02*
X010336Y029635D01*
X010214Y029537D02*
X011172Y029537D01*
X009972Y029537D02*
X007393Y029537D01*
X007393Y029635D02*
X009851Y029635D01*
X009810Y029734D02*
X007393Y029734D01*
X007393Y029832D02*
X009403Y029832D01*
X009332Y029931D02*
X007393Y029931D01*
X007393Y030029D02*
X009308Y030029D01*
X009319Y030128D02*
X007393Y030128D01*
X007393Y030226D02*
X009371Y030226D01*
X009783Y029832D02*
X009808Y029832D01*
X007393Y025498D02*
X014159Y025498D01*
X014049Y025400D02*
X007393Y025400D01*
X007393Y025301D02*
X014008Y025301D01*
X014008Y025203D02*
X007393Y025203D01*
X007393Y025104D02*
X014043Y025104D01*
X014130Y025006D02*
X007393Y025006D01*
X007393Y021164D02*
X010024Y021164D01*
X010008Y021066D02*
X007393Y021066D01*
X007393Y020967D02*
X010027Y020967D01*
X010092Y020869D02*
X007393Y020869D01*
X007393Y020770D02*
X010391Y020770D01*
X010383Y020672D02*
X007393Y020672D01*
X007393Y020573D02*
X010410Y020573D01*
X010486Y020475D02*
X007393Y020475D01*
X007393Y019982D02*
X009491Y019982D01*
X009367Y019884D02*
X007393Y019884D01*
X007393Y019785D02*
X009301Y019785D01*
X009260Y019687D02*
X007393Y019687D01*
X007393Y019588D02*
X009258Y019588D01*
X009266Y019490D02*
X007393Y019490D01*
X007393Y019391D02*
X009307Y019391D01*
X009381Y019293D02*
X007393Y019293D01*
X007393Y018012D02*
X009563Y018012D01*
X009397Y017914D02*
X007393Y017914D01*
X007393Y017815D02*
X009314Y017815D01*
X009273Y017717D02*
X007393Y017717D01*
X007393Y017618D02*
X009258Y017618D01*
X009258Y017520D02*
X007393Y017520D01*
X007393Y017421D02*
X009295Y017421D01*
X009351Y017323D02*
X007393Y017323D01*
X007393Y015057D02*
X022614Y015057D01*
X022515Y014959D02*
X015945Y014959D01*
X015940Y014964D02*
X015780Y015030D01*
X015607Y015030D01*
X015447Y014964D01*
X015325Y014841D01*
X015258Y014682D01*
X015258Y014508D01*
X015325Y014349D01*
X015343Y014330D01*
X015287Y014330D01*
X015182Y014287D01*
X015102Y014206D01*
X015058Y014102D01*
X015058Y013988D01*
X015102Y013884D01*
X015182Y013803D01*
X015287Y013760D01*
X015291Y013760D01*
X015258Y013682D01*
X015258Y013508D01*
X015325Y013349D01*
X015447Y013226D01*
X015607Y013160D01*
X015780Y013160D01*
X015940Y013226D01*
X016062Y013349D01*
X016128Y013508D01*
X016128Y013682D01*
X016062Y013841D01*
X015940Y013964D01*
X015780Y014030D01*
X015628Y014030D01*
X015628Y014102D01*
X015604Y014161D01*
X015607Y014160D01*
X015780Y014160D01*
X015940Y014226D01*
X016062Y014349D01*
X016128Y014508D01*
X016128Y014682D01*
X016062Y014841D01*
X015940Y014964D01*
X016043Y014860D02*
X022417Y014860D01*
X022318Y014762D02*
X016095Y014762D01*
X016128Y014663D02*
X022220Y014663D01*
X022121Y014565D02*
X016128Y014565D01*
X016111Y014466D02*
X022023Y014466D01*
X021924Y014368D02*
X021750Y014368D01*
X021437Y014368D02*
X016630Y014368D01*
X016600Y014380D02*
X016705Y014337D01*
X016785Y014256D01*
X016828Y014152D01*
X016828Y014038D01*
X016785Y013934D01*
X016705Y013853D01*
X016600Y013810D01*
X016487Y013810D01*
X016382Y013853D01*
X016302Y013934D01*
X016258Y014038D01*
X016258Y014152D01*
X016302Y014256D01*
X016382Y014337D01*
X016487Y014380D01*
X016600Y014380D01*
X016456Y014368D02*
X016070Y014368D01*
X015983Y014269D02*
X016314Y014269D01*
X016266Y014171D02*
X015805Y014171D01*
X015628Y014072D02*
X016258Y014072D01*
X016285Y013974D02*
X015916Y013974D01*
X016028Y013875D02*
X016360Y013875D01*
X016089Y013777D02*
X021333Y013777D01*
X021276Y013875D02*
X016726Y013875D01*
X016801Y013974D02*
X021236Y013974D01*
X021236Y014072D02*
X016828Y014072D01*
X016821Y014171D02*
X021258Y014171D01*
X021311Y014269D02*
X016772Y014269D01*
X016128Y013678D02*
X021235Y013678D01*
X021136Y013580D02*
X016128Y013580D01*
X016117Y013481D02*
X021038Y013481D01*
X020939Y013383D02*
X016076Y013383D01*
X015998Y013284D02*
X020841Y013284D01*
X020742Y013186D02*
X015841Y013186D01*
X015780Y013030D02*
X015607Y013030D01*
X015447Y012964D01*
X015325Y012841D01*
X015258Y012682D01*
X015258Y012508D01*
X015325Y012349D01*
X015447Y012226D01*
X015607Y012160D01*
X015780Y012160D01*
X015940Y012226D01*
X016062Y012349D01*
X016128Y012508D01*
X016128Y012682D01*
X016062Y012841D01*
X015940Y012964D01*
X015780Y013030D01*
X015880Y012989D02*
X020545Y012989D01*
X020644Y013087D02*
X007393Y013087D01*
X007393Y012989D02*
X009507Y012989D01*
X009447Y012964D02*
X009325Y012841D01*
X009258Y012682D01*
X009258Y012508D01*
X009325Y012349D01*
X009447Y012226D01*
X009607Y012160D01*
X009780Y012160D01*
X009940Y012226D01*
X010062Y012349D01*
X010128Y012508D01*
X010128Y012682D01*
X010062Y012841D01*
X009940Y012964D01*
X009780Y013030D01*
X009607Y013030D01*
X009447Y012964D01*
X009373Y012890D02*
X007393Y012890D01*
X007393Y012792D02*
X009304Y012792D01*
X009263Y012693D02*
X007393Y012693D01*
X007393Y012595D02*
X009258Y012595D01*
X009263Y012496D02*
X007393Y012496D01*
X007393Y012398D02*
X009304Y012398D01*
X009374Y012299D02*
X007393Y012299D01*
X007393Y012201D02*
X009509Y012201D01*
X009607Y012030D02*
X009447Y011964D01*
X009325Y011841D01*
X009258Y011682D01*
X009258Y011508D01*
X009325Y011349D01*
X009447Y011226D01*
X009607Y011160D01*
X009780Y011160D01*
X009940Y011226D01*
X010062Y011349D01*
X010128Y011508D01*
X010128Y011682D01*
X010062Y011841D01*
X009940Y011964D01*
X009780Y012030D01*
X009607Y012030D01*
X009543Y012004D02*
X007393Y012004D01*
X007393Y012102D02*
X018159Y012102D01*
X018257Y012201D02*
X015878Y012201D01*
X016013Y012299D02*
X018356Y012299D01*
X018454Y012398D02*
X016082Y012398D01*
X016123Y012496D02*
X018553Y012496D01*
X018651Y012595D02*
X016128Y012595D01*
X016124Y012693D02*
X020250Y012693D01*
X020348Y012792D02*
X016083Y012792D01*
X016013Y012890D02*
X020447Y012890D01*
X018060Y012004D02*
X015844Y012004D01*
X015780Y012030D02*
X015607Y012030D01*
X015447Y011964D01*
X015325Y011841D01*
X015258Y011682D01*
X015258Y011508D01*
X015325Y011349D01*
X015447Y011226D01*
X015607Y011160D01*
X015780Y011160D01*
X015940Y011226D01*
X016062Y011349D01*
X016128Y011508D01*
X016128Y011682D01*
X016062Y011841D01*
X015940Y011964D01*
X015780Y012030D01*
X015543Y012004D02*
X014844Y012004D01*
X014780Y012030D02*
X014607Y012030D01*
X014447Y011964D01*
X014325Y011841D01*
X014258Y011682D01*
X014258Y011508D01*
X014325Y011349D01*
X014447Y011226D01*
X014607Y011160D01*
X014780Y011160D01*
X014940Y011226D01*
X015062Y011349D01*
X015128Y011508D01*
X015128Y011682D01*
X015062Y011841D01*
X014940Y011964D01*
X014780Y012030D01*
X014543Y012004D02*
X009844Y012004D01*
X009998Y011905D02*
X014388Y011905D01*
X014310Y011807D02*
X010077Y011807D01*
X010117Y011708D02*
X014269Y011708D01*
X014258Y011610D02*
X010128Y011610D01*
X010128Y011511D02*
X014258Y011511D01*
X014298Y011413D02*
X010089Y011413D01*
X010028Y011314D02*
X014359Y011314D01*
X014473Y011216D02*
X012947Y011216D01*
X012931Y011231D02*
X012777Y011295D01*
X012610Y011295D01*
X012455Y011231D01*
X012337Y011113D01*
X012273Y010959D01*
X012273Y010791D01*
X012337Y010637D01*
X012455Y010519D01*
X012610Y010455D01*
X012777Y010455D01*
X012931Y010519D01*
X013049Y010637D01*
X013113Y010791D01*
X013113Y010959D01*
X013049Y011113D01*
X012931Y011231D01*
X013045Y011117D02*
X017174Y011117D01*
X017272Y011216D02*
X015914Y011216D01*
X016028Y011314D02*
X017371Y011314D01*
X017469Y011413D02*
X016089Y011413D01*
X016128Y011511D02*
X017568Y011511D01*
X017666Y011610D02*
X016128Y011610D01*
X016117Y011708D02*
X017765Y011708D01*
X017863Y011807D02*
X016077Y011807D01*
X015998Y011905D02*
X017962Y011905D01*
X017075Y011019D02*
X015808Y011019D01*
X015780Y011030D02*
X015607Y011030D01*
X015447Y010964D01*
X015325Y010841D01*
X015258Y010682D01*
X015258Y010508D01*
X015325Y010349D01*
X015447Y010226D01*
X015607Y010160D01*
X015780Y010160D01*
X015940Y010226D01*
X016062Y010349D01*
X016128Y010508D01*
X016128Y010682D01*
X016062Y010841D01*
X015940Y010964D01*
X015780Y011030D01*
X015579Y011019D02*
X014808Y011019D01*
X014780Y011030D02*
X014607Y011030D01*
X014447Y010964D01*
X014325Y010841D01*
X014258Y010682D01*
X014258Y010508D01*
X014325Y010349D01*
X014447Y010226D01*
X014607Y010160D01*
X014780Y010160D01*
X014940Y010226D01*
X015062Y010349D01*
X015128Y010508D01*
X015128Y010682D01*
X015062Y010841D01*
X014940Y010964D01*
X014780Y011030D01*
X014579Y011019D02*
X013088Y011019D01*
X013113Y010920D02*
X014403Y010920D01*
X014316Y010822D02*
X013113Y010822D01*
X013085Y010723D02*
X014275Y010723D01*
X014258Y010625D02*
X013037Y010625D01*
X012938Y010526D02*
X014258Y010526D01*
X014292Y010428D02*
X010095Y010428D01*
X010062Y010349D02*
X010128Y010508D01*
X010128Y010682D01*
X010062Y010841D01*
X009940Y010964D01*
X009780Y011030D01*
X009607Y011030D01*
X009447Y010964D01*
X009325Y010841D01*
X009258Y010682D01*
X009258Y010508D01*
X009325Y010349D01*
X009447Y010226D01*
X009607Y010160D01*
X009780Y010160D01*
X009940Y010226D01*
X010062Y010349D01*
X010043Y010329D02*
X014344Y010329D01*
X014443Y010231D02*
X009944Y010231D01*
X009780Y010030D02*
X009607Y010030D01*
X009447Y009964D01*
X009325Y009841D01*
X009258Y009682D01*
X009258Y009508D01*
X009325Y009349D01*
X009447Y009226D01*
X009607Y009160D01*
X009780Y009160D01*
X009940Y009226D01*
X010062Y009349D01*
X010128Y009508D01*
X010128Y009682D01*
X010062Y009841D01*
X009940Y009964D01*
X009780Y010030D01*
X009968Y009935D02*
X015418Y009935D01*
X015447Y009964D02*
X015325Y009841D01*
X015258Y009682D01*
X015258Y009508D01*
X015325Y009349D01*
X015447Y009226D01*
X015607Y009160D01*
X015780Y009160D01*
X015940Y009226D01*
X016062Y009349D01*
X016128Y009508D01*
X016128Y009682D01*
X016062Y009841D01*
X015940Y009964D01*
X015780Y010030D01*
X015607Y010030D01*
X015447Y009964D01*
X015323Y009837D02*
X010064Y009837D01*
X010105Y009738D02*
X015282Y009738D01*
X015258Y009640D02*
X010128Y009640D01*
X010128Y009541D02*
X015258Y009541D01*
X015286Y009443D02*
X010101Y009443D01*
X010057Y009344D02*
X015329Y009344D01*
X015428Y009246D02*
X009959Y009246D01*
X009780Y009030D02*
X009607Y009030D01*
X009447Y008964D01*
X009325Y008841D01*
X009258Y008682D01*
X009258Y008508D01*
X009325Y008349D01*
X009447Y008226D01*
X009607Y008160D01*
X009780Y008160D01*
X009940Y008226D01*
X010062Y008349D01*
X010128Y008508D01*
X010128Y008682D01*
X010062Y008841D01*
X009940Y008964D01*
X009780Y009030D01*
X009953Y008950D02*
X015433Y008950D01*
X015447Y008964D02*
X015325Y008841D01*
X015258Y008682D01*
X015258Y008508D01*
X015325Y008349D01*
X015447Y008226D01*
X015607Y008160D01*
X015780Y008160D01*
X015940Y008226D01*
X016062Y008349D01*
X016128Y008508D01*
X016128Y008682D01*
X016062Y008841D01*
X015940Y008964D01*
X015780Y009030D01*
X015607Y009030D01*
X015447Y008964D01*
X015335Y008852D02*
X010052Y008852D01*
X010099Y008753D02*
X015288Y008753D01*
X015258Y008655D02*
X010128Y008655D01*
X010128Y008556D02*
X015258Y008556D01*
X015279Y008458D02*
X010107Y008458D01*
X010066Y008359D02*
X015320Y008359D01*
X015413Y008261D02*
X009974Y008261D01*
X009785Y008162D02*
X015602Y008162D01*
X015785Y008162D02*
X016593Y008162D01*
X016593Y008064D02*
X007393Y008064D01*
X007393Y008162D02*
X009602Y008162D01*
X009413Y008261D02*
X007393Y008261D01*
X007393Y008359D02*
X009320Y008359D01*
X009279Y008458D02*
X007393Y008458D01*
X007393Y008556D02*
X009258Y008556D01*
X009258Y008655D02*
X007393Y008655D01*
X007393Y008753D02*
X009288Y008753D01*
X009335Y008852D02*
X007393Y008852D01*
X007393Y008950D02*
X009433Y008950D01*
X009428Y009246D02*
X007393Y009246D01*
X007393Y009344D02*
X009329Y009344D01*
X009286Y009443D02*
X007393Y009443D01*
X007393Y009541D02*
X009258Y009541D01*
X009258Y009640D02*
X007393Y009640D01*
X007393Y009738D02*
X009282Y009738D01*
X009323Y009837D02*
X007393Y009837D01*
X007393Y009935D02*
X009418Y009935D01*
X009443Y010231D02*
X007393Y010231D01*
X007393Y010329D02*
X009344Y010329D01*
X009292Y010428D02*
X007393Y010428D01*
X007393Y010526D02*
X009258Y010526D01*
X009258Y010625D02*
X007393Y010625D01*
X007393Y010723D02*
X009275Y010723D01*
X009316Y010822D02*
X007393Y010822D01*
X007393Y010920D02*
X009403Y010920D01*
X009579Y011019D02*
X007393Y011019D01*
X007393Y011117D02*
X012341Y011117D01*
X012298Y011019D02*
X009808Y011019D01*
X009983Y010920D02*
X012273Y010920D01*
X012273Y010822D02*
X010070Y010822D01*
X010111Y010723D02*
X012302Y010723D01*
X012350Y010625D02*
X010128Y010625D01*
X010128Y010526D02*
X012448Y010526D01*
X012440Y011216D02*
X009914Y011216D01*
X009473Y011216D02*
X007393Y011216D01*
X007393Y011314D02*
X009359Y011314D01*
X009298Y011413D02*
X007393Y011413D01*
X007393Y011511D02*
X009258Y011511D01*
X009258Y011610D02*
X007393Y011610D01*
X007393Y011708D02*
X009269Y011708D01*
X009310Y011807D02*
X007393Y011807D01*
X007393Y011905D02*
X009388Y011905D01*
X009878Y012201D02*
X012509Y012201D01*
X012447Y012226D02*
X012607Y012160D01*
X012780Y012160D01*
X012940Y012226D01*
X013062Y012349D01*
X013128Y012508D01*
X013128Y012682D01*
X013062Y012841D01*
X012940Y012964D01*
X012780Y013030D01*
X012607Y013030D01*
X012447Y012964D01*
X012325Y012841D01*
X012258Y012682D01*
X012258Y012508D01*
X012325Y012349D01*
X012447Y012226D01*
X012374Y012299D02*
X010013Y012299D01*
X010082Y012398D02*
X012304Y012398D01*
X012263Y012496D02*
X010123Y012496D01*
X010128Y012595D02*
X012258Y012595D01*
X012263Y012693D02*
X010124Y012693D01*
X010083Y012792D02*
X012304Y012792D01*
X012373Y012890D02*
X010013Y012890D01*
X009880Y012989D02*
X012507Y012989D01*
X012880Y012989D02*
X013507Y012989D01*
X013447Y012964D02*
X013325Y012841D01*
X013258Y012682D01*
X013258Y012508D01*
X013325Y012349D01*
X013447Y012226D01*
X013607Y012160D01*
X013780Y012160D01*
X013940Y012226D01*
X014062Y012349D01*
X014128Y012508D01*
X014128Y012682D01*
X014062Y012841D01*
X013940Y012964D01*
X013780Y013030D01*
X013607Y013030D01*
X013447Y012964D01*
X013373Y012890D02*
X013013Y012890D01*
X013083Y012792D02*
X013304Y012792D01*
X013263Y012693D02*
X013124Y012693D01*
X013128Y012595D02*
X013258Y012595D01*
X013263Y012496D02*
X013123Y012496D01*
X013082Y012398D02*
X013304Y012398D01*
X013374Y012299D02*
X013013Y012299D01*
X012878Y012201D02*
X013509Y012201D01*
X013878Y012201D02*
X015509Y012201D01*
X015374Y012299D02*
X014013Y012299D01*
X014082Y012398D02*
X015304Y012398D01*
X015263Y012496D02*
X014123Y012496D01*
X014128Y012595D02*
X015258Y012595D01*
X015263Y012693D02*
X014124Y012693D01*
X014083Y012792D02*
X015304Y012792D01*
X015373Y012890D02*
X014013Y012890D01*
X013880Y012989D02*
X015507Y012989D01*
X015545Y013186D02*
X013841Y013186D01*
X013780Y013160D02*
X013940Y013226D01*
X014062Y013349D01*
X014128Y013508D01*
X014128Y013682D01*
X014062Y013841D01*
X013940Y013964D01*
X013780Y014030D01*
X013607Y014030D01*
X013447Y013964D01*
X013325Y013841D01*
X013258Y013682D01*
X013258Y013508D01*
X013325Y013349D01*
X013447Y013226D01*
X013607Y013160D01*
X013780Y013160D01*
X013545Y013186D02*
X009841Y013186D01*
X009780Y013160D02*
X009940Y013226D01*
X010062Y013349D01*
X010128Y013508D01*
X010128Y013682D01*
X010062Y013841D01*
X009940Y013964D01*
X009780Y014030D01*
X009607Y014030D01*
X009447Y013964D01*
X009325Y013841D01*
X009258Y013682D01*
X009258Y013508D01*
X009325Y013349D01*
X009447Y013226D01*
X009607Y013160D01*
X009780Y013160D01*
X009545Y013186D02*
X007393Y013186D01*
X007393Y013284D02*
X009389Y013284D01*
X009310Y013383D02*
X007393Y013383D01*
X007393Y013481D02*
X009270Y013481D01*
X009258Y013580D02*
X007393Y013580D01*
X007393Y013678D02*
X009258Y013678D01*
X009298Y013777D02*
X007393Y013777D01*
X007393Y013875D02*
X009358Y013875D01*
X009470Y013974D02*
X007393Y013974D01*
X007393Y014072D02*
X015058Y014072D01*
X015064Y013974D02*
X013916Y013974D01*
X014028Y013875D02*
X015110Y013875D01*
X015247Y013777D02*
X014089Y013777D01*
X014128Y013678D02*
X015258Y013678D01*
X015258Y013580D02*
X014128Y013580D01*
X014117Y013481D02*
X015270Y013481D01*
X015310Y013383D02*
X014076Y013383D01*
X013998Y013284D02*
X015389Y013284D01*
X015087Y014171D02*
X013805Y014171D01*
X013780Y014160D02*
X013940Y014226D01*
X014062Y014349D01*
X014128Y014508D01*
X014128Y014682D01*
X014062Y014841D01*
X013940Y014964D01*
X013780Y015030D01*
X013607Y015030D01*
X013447Y014964D01*
X013325Y014841D01*
X013258Y014682D01*
X013258Y014508D01*
X013325Y014349D01*
X013447Y014226D01*
X013607Y014160D01*
X013780Y014160D01*
X013581Y014171D02*
X012805Y014171D01*
X012780Y014160D02*
X012940Y014226D01*
X013062Y014349D01*
X013128Y014508D01*
X013128Y014682D01*
X013062Y014841D01*
X012940Y014964D01*
X012780Y015030D01*
X012607Y015030D01*
X012447Y014964D01*
X012325Y014841D01*
X012258Y014682D01*
X012258Y014508D01*
X012325Y014349D01*
X012447Y014226D01*
X012607Y014160D01*
X012780Y014160D01*
X012581Y014171D02*
X009805Y014171D01*
X009780Y014160D02*
X009940Y014226D01*
X010062Y014349D01*
X010128Y014508D01*
X010128Y014682D01*
X010062Y014841D01*
X009940Y014964D01*
X009780Y015030D01*
X009607Y015030D01*
X009447Y014964D01*
X009325Y014841D01*
X009258Y014682D01*
X009258Y014508D01*
X009325Y014349D01*
X009447Y014226D01*
X009607Y014160D01*
X009780Y014160D01*
X009581Y014171D02*
X007393Y014171D01*
X007393Y014269D02*
X009404Y014269D01*
X009317Y014368D02*
X007393Y014368D01*
X007393Y014466D02*
X009276Y014466D01*
X009258Y014565D02*
X007393Y014565D01*
X007393Y014663D02*
X009258Y014663D01*
X009291Y014762D02*
X007393Y014762D01*
X007393Y014860D02*
X009343Y014860D01*
X009442Y014959D02*
X007393Y014959D01*
X009945Y014959D02*
X012442Y014959D01*
X012343Y014860D02*
X010043Y014860D01*
X010095Y014762D02*
X012291Y014762D01*
X012258Y014663D02*
X010128Y014663D01*
X010128Y014565D02*
X012258Y014565D01*
X012276Y014466D02*
X010111Y014466D01*
X010070Y014368D02*
X012317Y014368D01*
X012404Y014269D02*
X009983Y014269D01*
X009916Y013974D02*
X013470Y013974D01*
X013358Y013875D02*
X010028Y013875D01*
X010089Y013777D02*
X013298Y013777D01*
X013258Y013678D02*
X010128Y013678D01*
X010128Y013580D02*
X013258Y013580D01*
X013270Y013481D02*
X010117Y013481D01*
X010076Y013383D02*
X013310Y013383D01*
X013389Y013284D02*
X009998Y013284D01*
X009968Y015254D02*
X012419Y015254D01*
X012447Y015226D02*
X012607Y015160D01*
X012780Y015160D01*
X012940Y015226D01*
X013062Y015349D01*
X013128Y015508D01*
X013128Y015682D01*
X013062Y015841D01*
X012940Y015964D01*
X012780Y016030D01*
X012607Y016030D01*
X012447Y015964D01*
X012325Y015841D01*
X012258Y015682D01*
X012258Y015508D01*
X012325Y015349D01*
X012447Y015226D01*
X012323Y015353D02*
X010064Y015353D01*
X010105Y015451D02*
X012282Y015451D01*
X012258Y015550D02*
X010128Y015550D01*
X010128Y015648D02*
X012258Y015648D01*
X012285Y015747D02*
X010101Y015747D01*
X010058Y015845D02*
X012328Y015845D01*
X012427Y015944D02*
X009960Y015944D01*
X009953Y016239D02*
X012434Y016239D01*
X012447Y016226D02*
X012607Y016160D01*
X012780Y016160D01*
X012940Y016226D01*
X013062Y016349D01*
X013128Y016508D01*
X013128Y016682D01*
X013062Y016841D01*
X012940Y016964D01*
X012780Y017030D01*
X012607Y017030D01*
X012447Y016964D01*
X012325Y016841D01*
X012258Y016682D01*
X012258Y016508D01*
X012325Y016349D01*
X012447Y016226D01*
X012336Y016338D02*
X010051Y016338D01*
X010098Y016436D02*
X012288Y016436D01*
X012258Y016535D02*
X010128Y016535D01*
X010128Y016633D02*
X012258Y016633D01*
X012279Y016732D02*
X010108Y016732D01*
X010067Y016830D02*
X012320Y016830D01*
X012412Y016929D02*
X009975Y016929D01*
X009787Y017027D02*
X012600Y017027D01*
X012607Y017160D02*
X012780Y017160D01*
X012940Y017226D01*
X013062Y017349D01*
X013128Y017508D01*
X013128Y017682D01*
X013062Y017841D01*
X012940Y017964D01*
X012780Y018030D01*
X012607Y018030D01*
X012447Y017964D01*
X012325Y017841D01*
X012258Y017682D01*
X012258Y017508D01*
X012325Y017349D01*
X012447Y017226D01*
X012607Y017160D01*
X012452Y017224D02*
X009934Y017224D01*
X010036Y017323D02*
X012351Y017323D01*
X012295Y017421D02*
X010092Y017421D01*
X010128Y017520D02*
X012258Y017520D01*
X012258Y017618D02*
X010128Y017618D01*
X010114Y017717D02*
X012273Y017717D01*
X012314Y017815D02*
X010073Y017815D01*
X009990Y017914D02*
X012397Y017914D01*
X012563Y018012D02*
X009823Y018012D01*
X009898Y018209D02*
X012488Y018209D01*
X012447Y018226D02*
X012607Y018160D01*
X012780Y018160D01*
X012940Y018226D01*
X013062Y018349D01*
X013128Y018508D01*
X013128Y018682D01*
X013062Y018841D01*
X012940Y018964D01*
X012780Y019030D01*
X012607Y019030D01*
X012447Y018964D01*
X012325Y018841D01*
X012258Y018682D01*
X012258Y018508D01*
X012325Y018349D01*
X012447Y018226D01*
X012366Y018308D02*
X010021Y018308D01*
X010086Y018406D02*
X012301Y018406D01*
X012260Y018505D02*
X010127Y018505D01*
X010128Y018603D02*
X012258Y018603D01*
X012267Y018702D02*
X010120Y018702D01*
X010079Y018800D02*
X012307Y018800D01*
X012382Y018899D02*
X010005Y018899D01*
X009859Y018997D02*
X012527Y018997D01*
X012859Y018997D02*
X013527Y018997D01*
X013607Y019030D02*
X013447Y018964D01*
X013325Y018841D01*
X013258Y018682D01*
X013258Y018508D01*
X013325Y018349D01*
X013447Y018226D01*
X013607Y018160D01*
X013780Y018160D01*
X013940Y018226D01*
X014062Y018349D01*
X014128Y018508D01*
X014128Y018682D01*
X014062Y018841D01*
X013940Y018964D01*
X013780Y019030D01*
X013607Y019030D01*
X013859Y018997D02*
X015527Y018997D01*
X015382Y018899D02*
X014005Y018899D01*
X014079Y018800D02*
X015307Y018800D01*
X015267Y018702D02*
X014120Y018702D01*
X014128Y018603D02*
X015258Y018603D01*
X015260Y018505D02*
X014127Y018505D01*
X014086Y018406D02*
X015301Y018406D01*
X015366Y018308D02*
X014021Y018308D01*
X013898Y018209D02*
X015488Y018209D01*
X015563Y018012D02*
X013823Y018012D01*
X013780Y018030D02*
X013607Y018030D01*
X013447Y017964D01*
X013325Y017841D01*
X013258Y017682D01*
X013258Y017508D01*
X013325Y017349D01*
X013447Y017226D01*
X013607Y017160D01*
X013780Y017160D01*
X013940Y017226D01*
X014062Y017349D01*
X014128Y017508D01*
X014128Y017682D01*
X014062Y017841D01*
X013940Y017964D01*
X013780Y018030D01*
X013563Y018012D02*
X012823Y018012D01*
X012990Y017914D02*
X013397Y017914D01*
X013314Y017815D02*
X013073Y017815D01*
X013114Y017717D02*
X013273Y017717D01*
X013258Y017618D02*
X013128Y017618D01*
X013128Y017520D02*
X013258Y017520D01*
X013295Y017421D02*
X013092Y017421D01*
X013036Y017323D02*
X013351Y017323D01*
X013452Y017224D02*
X012934Y017224D01*
X012787Y017027D02*
X013600Y017027D01*
X013607Y017030D02*
X013447Y016964D01*
X013325Y016841D01*
X013258Y016682D01*
X013258Y016508D01*
X013325Y016349D01*
X013447Y016226D01*
X013607Y016160D01*
X013780Y016160D01*
X013940Y016226D01*
X014062Y016349D01*
X014128Y016508D01*
X014128Y016682D01*
X014062Y016841D01*
X013940Y016964D01*
X013780Y017030D01*
X013607Y017030D01*
X013787Y017027D02*
X015600Y017027D01*
X015412Y016929D02*
X013975Y016929D01*
X014067Y016830D02*
X015320Y016830D01*
X015279Y016732D02*
X014108Y016732D01*
X014128Y016633D02*
X015258Y016633D01*
X015258Y016535D02*
X014128Y016535D01*
X014098Y016436D02*
X015288Y016436D01*
X015336Y016338D02*
X014051Y016338D01*
X013953Y016239D02*
X015434Y016239D01*
X015427Y015944D02*
X013960Y015944D01*
X013940Y015964D02*
X013780Y016030D01*
X013607Y016030D01*
X013447Y015964D01*
X013325Y015841D01*
X013258Y015682D01*
X013258Y015508D01*
X013325Y015349D01*
X013447Y015226D01*
X013607Y015160D01*
X013780Y015160D01*
X013940Y015226D01*
X014062Y015349D01*
X014128Y015508D01*
X014128Y015682D01*
X014062Y015841D01*
X013940Y015964D01*
X014058Y015845D02*
X015328Y015845D01*
X015285Y015747D02*
X014101Y015747D01*
X014128Y015648D02*
X015258Y015648D01*
X015258Y015550D02*
X014128Y015550D01*
X014105Y015451D02*
X015282Y015451D01*
X015323Y015353D02*
X014064Y015353D01*
X013968Y015254D02*
X015419Y015254D01*
X015442Y014959D02*
X013945Y014959D01*
X014043Y014860D02*
X015343Y014860D01*
X015291Y014762D02*
X014095Y014762D01*
X014128Y014663D02*
X015258Y014663D01*
X015258Y014565D02*
X014128Y014565D01*
X014111Y014466D02*
X015276Y014466D01*
X015317Y014368D02*
X014070Y014368D01*
X013983Y014269D02*
X015164Y014269D01*
X013404Y014269D02*
X012983Y014269D01*
X013070Y014368D02*
X013317Y014368D01*
X013276Y014466D02*
X013111Y014466D01*
X013128Y014565D02*
X013258Y014565D01*
X013258Y014663D02*
X013128Y014663D01*
X013095Y014762D02*
X013291Y014762D01*
X013343Y014860D02*
X013043Y014860D01*
X012945Y014959D02*
X013442Y014959D01*
X013419Y015254D02*
X012968Y015254D01*
X013064Y015353D02*
X013323Y015353D01*
X013282Y015451D02*
X013105Y015451D01*
X013128Y015550D02*
X013258Y015550D01*
X013258Y015648D02*
X013128Y015648D01*
X013101Y015747D02*
X013285Y015747D01*
X013328Y015845D02*
X013058Y015845D01*
X012960Y015944D02*
X013427Y015944D01*
X013434Y016239D02*
X012953Y016239D01*
X013051Y016338D02*
X013336Y016338D01*
X013288Y016436D02*
X013098Y016436D01*
X013128Y016535D02*
X013258Y016535D01*
X013258Y016633D02*
X013128Y016633D01*
X013108Y016732D02*
X013279Y016732D01*
X013320Y016830D02*
X013067Y016830D01*
X012975Y016929D02*
X013412Y016929D01*
X013934Y017224D02*
X015452Y017224D01*
X015351Y017323D02*
X014036Y017323D01*
X014092Y017421D02*
X015295Y017421D01*
X015258Y017520D02*
X014128Y017520D01*
X014128Y017618D02*
X015258Y017618D01*
X015273Y017717D02*
X014114Y017717D01*
X014073Y017815D02*
X015314Y017815D01*
X015397Y017914D02*
X013990Y017914D01*
X013488Y018209D02*
X012898Y018209D01*
X013021Y018308D02*
X013366Y018308D01*
X013301Y018406D02*
X013086Y018406D01*
X013127Y018505D02*
X013260Y018505D01*
X013258Y018603D02*
X013128Y018603D01*
X013120Y018702D02*
X013267Y018702D01*
X013307Y018800D02*
X013079Y018800D01*
X013005Y018899D02*
X013382Y018899D01*
X014052Y019584D02*
X014132Y019503D01*
X014237Y019460D01*
X014350Y019460D01*
X014455Y019503D01*
X014535Y019584D01*
X014578Y019688D01*
X014578Y019802D01*
X014535Y019906D01*
X014455Y019987D01*
X014350Y020030D01*
X014237Y020030D01*
X014132Y019987D01*
X014052Y019906D01*
X014008Y019802D01*
X014008Y019688D01*
X014052Y019584D01*
X014050Y019588D02*
X010128Y019588D01*
X010126Y019687D02*
X014009Y019687D01*
X014008Y019785D02*
X010085Y019785D01*
X010020Y019884D02*
X014042Y019884D01*
X014127Y019982D02*
X009896Y019982D01*
X010120Y019490D02*
X014165Y019490D01*
X014421Y019490D02*
X015266Y019490D01*
X015258Y019588D02*
X014537Y019588D01*
X014578Y019687D02*
X015260Y019687D01*
X015301Y019785D02*
X014578Y019785D01*
X014544Y019884D02*
X015367Y019884D01*
X015491Y019982D02*
X014459Y019982D01*
X015307Y019391D02*
X010080Y019391D01*
X010006Y019293D02*
X015381Y019293D01*
X015525Y019194D02*
X009862Y019194D01*
X015898Y018209D02*
X018228Y018209D01*
X018240Y018308D02*
X016021Y018308D01*
X016086Y018406D02*
X018281Y018406D01*
X018365Y018505D02*
X016127Y018505D01*
X016086Y016929D02*
X015975Y016929D01*
X016067Y016830D02*
X016140Y016830D01*
X015388Y011905D02*
X014998Y011905D01*
X015077Y011807D02*
X015310Y011807D01*
X015269Y011708D02*
X015117Y011708D01*
X015128Y011610D02*
X015258Y011610D01*
X015258Y011511D02*
X015128Y011511D01*
X015089Y011413D02*
X015298Y011413D01*
X015359Y011314D02*
X015028Y011314D01*
X014914Y011216D02*
X015473Y011216D01*
X015403Y010920D02*
X014983Y010920D01*
X015070Y010822D02*
X015316Y010822D01*
X015275Y010723D02*
X015111Y010723D01*
X015128Y010625D02*
X015258Y010625D01*
X015258Y010526D02*
X015128Y010526D01*
X015095Y010428D02*
X015292Y010428D01*
X015344Y010329D02*
X015043Y010329D01*
X014944Y010231D02*
X015443Y010231D01*
X015944Y010231D02*
X016593Y010231D01*
X016593Y010329D02*
X016043Y010329D01*
X016095Y010428D02*
X016593Y010428D01*
X016593Y010526D02*
X016128Y010526D01*
X016128Y010625D02*
X016681Y010625D01*
X016780Y010723D02*
X016111Y010723D01*
X016070Y010822D02*
X016878Y010822D01*
X016977Y010920D02*
X015983Y010920D01*
X015968Y009935D02*
X016593Y009935D01*
X016593Y009837D02*
X016064Y009837D01*
X016105Y009738D02*
X016593Y009738D01*
X016593Y009640D02*
X016128Y009640D01*
X016128Y009541D02*
X016593Y009541D01*
X016593Y009443D02*
X016101Y009443D01*
X016057Y009344D02*
X016593Y009344D01*
X016593Y009246D02*
X015959Y009246D01*
X015953Y008950D02*
X016593Y008950D01*
X016593Y008852D02*
X016052Y008852D01*
X016099Y008753D02*
X016593Y008753D01*
X016593Y008655D02*
X016128Y008655D01*
X016128Y008556D02*
X016593Y008556D01*
X016593Y008458D02*
X016107Y008458D01*
X016066Y008359D02*
X016593Y008359D01*
X016593Y008261D02*
X015974Y008261D01*
X016593Y007965D02*
X009937Y007965D01*
X010037Y007867D02*
X016593Y007867D01*
X016593Y007768D02*
X010092Y007768D01*
X010128Y007670D02*
X016593Y007670D01*
X016593Y007571D02*
X010128Y007571D01*
X010113Y007473D02*
X016593Y007473D01*
X015486Y006980D02*
X007393Y006980D01*
X007393Y006882D02*
X015365Y006882D01*
X015300Y006783D02*
X007393Y006783D01*
X007393Y006685D02*
X015260Y006685D01*
X015258Y006586D02*
X007393Y006586D01*
X007484Y006488D02*
X015267Y006488D01*
X015308Y006389D02*
X007582Y006389D01*
X007681Y006291D02*
X015383Y006291D01*
X016593Y009049D02*
X007393Y009049D01*
X007393Y009147D02*
X016593Y009147D01*
X016593Y010034D02*
X007393Y010034D01*
X007393Y010132D02*
X016593Y010132D01*
X009450Y007965D02*
X007393Y007965D01*
X007393Y007867D02*
X009350Y007867D01*
X009294Y007768D02*
X007393Y007768D01*
X007393Y007670D02*
X009258Y007670D01*
X009258Y007571D02*
X007393Y007571D01*
X007393Y007473D02*
X009273Y007473D01*
X009314Y007374D02*
X007393Y007374D01*
X007393Y007276D02*
X009398Y007276D01*
X014495Y024119D02*
X015836Y024119D01*
X015913Y024218D02*
X014559Y024218D01*
X015558Y024907D02*
X017908Y024907D01*
X017910Y025006D02*
X015615Y025006D01*
X015628Y025104D02*
X017951Y025104D01*
X018070Y025203D02*
X015607Y025203D01*
X018361Y024710D02*
X020008Y024710D01*
X020011Y024809D02*
X018445Y024809D01*
X018478Y024907D02*
X020052Y024907D01*
X020178Y025006D02*
X018477Y025006D01*
X016631Y035841D02*
X015116Y035841D01*
X015304Y035939D02*
X016443Y035939D01*
X016344Y036038D02*
X015402Y036038D01*
X015480Y036136D02*
X016267Y036136D01*
X016226Y036235D02*
X015520Y036235D01*
X015561Y036333D02*
X016185Y036333D01*
X016176Y036432D02*
X015571Y036432D01*
X015571Y036530D02*
X016176Y036530D01*
X016176Y036629D02*
X015571Y036629D01*
X015532Y036727D02*
X016214Y036727D01*
X016255Y036826D02*
X015491Y036826D01*
X015431Y036924D02*
X016316Y036924D01*
X016414Y037023D02*
X015332Y037023D01*
X015184Y037121D02*
X016562Y037121D01*
X017431Y036924D02*
X042488Y036924D01*
X042352Y036826D02*
X017491Y036826D01*
X017532Y036727D02*
X042276Y036727D01*
X042235Y036629D02*
X017571Y036629D01*
X017571Y036530D02*
X042219Y036530D01*
X042219Y036432D02*
X017571Y036432D01*
X017561Y036333D02*
X042246Y036333D01*
X042287Y036235D02*
X017520Y036235D01*
X017480Y036136D02*
X042381Y036136D01*
X042557Y036038D02*
X017402Y036038D01*
X014631Y035841D02*
X007393Y035841D01*
X007393Y035939D02*
X014443Y035939D01*
X014344Y036038D02*
X007393Y036038D01*
X007393Y036136D02*
X014267Y036136D01*
X014226Y036235D02*
X007393Y036235D01*
X007393Y036333D02*
X014185Y036333D01*
X014176Y036432D02*
X007393Y036432D01*
X007393Y036530D02*
X014176Y036530D01*
X014176Y036629D02*
X007393Y036629D01*
X007393Y036727D02*
X014214Y036727D01*
X031508Y025301D02*
X035088Y025301D01*
X035308Y025203D02*
X031528Y025203D01*
X031514Y025104D02*
X035322Y025104D01*
X035380Y025006D02*
X031457Y025006D01*
X032314Y021854D02*
X032923Y021854D01*
X032801Y021755D02*
X032435Y021755D01*
X032476Y021657D02*
X032760Y021657D01*
X032758Y021558D02*
X032478Y021558D01*
X032446Y021460D02*
X032791Y021460D01*
X032874Y021361D02*
X032362Y021361D01*
X035807Y025006D02*
X045408Y025006D01*
X045409Y025104D02*
X035864Y025104D01*
X035878Y025203D02*
X041583Y025203D01*
X041552Y025234D02*
X041632Y025153D01*
X041737Y025110D01*
X041850Y025110D01*
X041955Y025153D01*
X042035Y025234D01*
X042078Y025338D01*
X042078Y025452D01*
X042035Y025556D01*
X041955Y025637D01*
X041850Y025680D01*
X041737Y025680D01*
X041632Y025637D01*
X041552Y025556D01*
X041508Y025452D01*
X041508Y025338D01*
X041552Y025234D01*
X041524Y025301D02*
X035858Y025301D01*
X035842Y025400D02*
X041508Y025400D01*
X041528Y025498D02*
X035878Y025498D01*
X035878Y025597D02*
X041592Y025597D01*
X041995Y025597D02*
X045858Y025597D01*
X045858Y025695D02*
X035840Y025695D01*
X035860Y025794D02*
X045896Y025794D01*
X045995Y025892D02*
X035878Y025892D01*
X035678Y029143D02*
X038890Y029143D01*
X038746Y029241D02*
X035662Y029241D01*
X035602Y029340D02*
X038647Y029340D01*
X038563Y029438D02*
X035657Y029438D01*
X035678Y029537D02*
X038522Y029537D01*
X038481Y029635D02*
X035664Y029635D01*
X035608Y029734D02*
X038444Y029734D01*
X038444Y029832D02*
X035633Y029832D01*
X035675Y029931D02*
X038444Y029931D01*
X038444Y030029D02*
X035678Y030029D01*
X035647Y030128D02*
X038470Y030128D01*
X038511Y030226D02*
X035627Y030226D01*
X035673Y030325D02*
X038552Y030325D01*
X038620Y030423D02*
X035678Y030423D01*
X035649Y030522D02*
X038718Y030522D01*
X038824Y030620D02*
X035621Y030620D01*
X035670Y030719D02*
X039061Y030719D01*
X039525Y030719D02*
X051922Y030719D01*
X051824Y030817D02*
X035678Y030817D01*
X035652Y030916D02*
X051725Y030916D01*
X051679Y031014D02*
X035577Y031014D01*
X036066Y031211D02*
X048741Y031211D01*
X048662Y031310D02*
X036145Y031310D01*
X036185Y031408D02*
X048621Y031408D01*
X048617Y031507D02*
X036190Y031507D01*
X036176Y031605D02*
X048631Y031605D01*
X048672Y031704D02*
X036135Y031704D01*
X036042Y031802D02*
X048764Y031802D01*
X048756Y032196D02*
X046300Y032196D01*
X046417Y032295D02*
X048668Y032295D01*
X048627Y032393D02*
X046477Y032393D01*
X046513Y032492D02*
X048617Y032492D01*
X048625Y032590D02*
X046513Y032590D01*
X046497Y032689D02*
X048665Y032689D01*
X048749Y032787D02*
X046456Y032787D01*
X046367Y032886D02*
X049230Y032886D01*
X049257Y032787D02*
X049298Y032787D01*
X049276Y033181D02*
X049236Y033181D01*
X048771Y033181D02*
X036036Y033181D01*
X036132Y033280D02*
X048674Y033280D01*
X048634Y033378D02*
X036173Y033378D01*
X036190Y033477D02*
X048617Y033477D01*
X048618Y033575D02*
X036188Y033575D01*
X036147Y033674D02*
X048659Y033674D01*
X048734Y033772D02*
X036072Y033772D01*
X036057Y032787D02*
X039131Y032787D01*
X039090Y032689D02*
X036141Y032689D01*
X036182Y032590D02*
X039073Y032590D01*
X039073Y032492D02*
X036190Y032492D01*
X036179Y032393D02*
X039110Y032393D01*
X039170Y032295D02*
X036138Y032295D01*
X036051Y032196D02*
X039286Y032196D01*
X039700Y032196D02*
X045886Y032196D01*
X045770Y032295D02*
X039817Y032295D01*
X039877Y032393D02*
X045710Y032393D01*
X045673Y032492D02*
X039913Y032492D01*
X039913Y032590D02*
X045673Y032590D01*
X045690Y032689D02*
X039897Y032689D01*
X039856Y032787D02*
X045731Y032787D01*
X045820Y032886D02*
X039767Y032886D01*
X039220Y032886D02*
X033167Y032886D01*
X033100Y032196D02*
X033437Y032196D01*
X033916Y031999D02*
X051987Y031999D01*
X051852Y031901D02*
X033931Y031901D01*
X033921Y031802D02*
X035564Y031802D01*
X035472Y031704D02*
X033880Y031704D01*
X033777Y031605D02*
X035431Y031605D01*
X035982Y035151D02*
X048824Y035151D01*
X048703Y035250D02*
X036104Y035250D01*
X036160Y035348D02*
X048646Y035348D01*
X048617Y035447D02*
X036190Y035447D01*
X036190Y035545D02*
X048617Y035545D01*
X048647Y035644D02*
X036160Y035644D01*
X036102Y035742D02*
X048704Y035742D01*
X048828Y035841D02*
X035978Y035841D01*
X042059Y025498D02*
X045896Y025498D01*
X045991Y025400D02*
X042078Y025400D01*
X042063Y025301D02*
X045567Y025301D01*
X045450Y025203D02*
X042004Y025203D01*
X041669Y021952D02*
X038943Y021952D01*
X038855Y021854D02*
X041550Y021854D01*
X047973Y021558D02*
X048114Y021558D01*
X052567Y027567D02*
X052997Y027567D01*
X052900Y027665D02*
X052665Y027665D01*
X052705Y027764D02*
X052859Y027764D01*
X052832Y027862D02*
X052732Y027862D01*
X052732Y027961D02*
X052832Y027961D01*
X052854Y028059D02*
X052711Y028059D01*
X052670Y028158D02*
X052895Y028158D01*
X052984Y028256D02*
X052580Y028256D01*
D22*
X051293Y023895D03*
X050793Y023895D03*
X050293Y023895D03*
X049793Y023895D03*
X049293Y023895D03*
X048793Y023895D03*
X048793Y023395D03*
X048793Y022895D03*
X049293Y022895D03*
X049293Y023395D03*
X049793Y023395D03*
X049793Y022895D03*
X050293Y022895D03*
X050293Y023395D03*
X050793Y023395D03*
X050793Y022895D03*
X051293Y022895D03*
X051293Y023395D03*
X051293Y022345D03*
X050793Y022345D03*
X050293Y022345D03*
X049793Y022345D03*
X049293Y022345D03*
X048793Y022345D03*
X048793Y021795D03*
X049293Y021795D03*
X049793Y021795D03*
X050293Y021795D03*
X050793Y021795D03*
X051293Y021795D03*
X051293Y021245D03*
X050793Y021245D03*
X050293Y021245D03*
X049793Y021245D03*
X049293Y021245D03*
X048793Y021245D03*
X048293Y021245D03*
X047793Y021245D03*
X047793Y020745D03*
X048293Y020745D03*
X048793Y020745D03*
X049293Y020745D03*
X049293Y020245D03*
X049293Y019745D03*
X049293Y019245D03*
X048793Y019245D03*
X048343Y019245D03*
X048343Y018745D03*
X048793Y018745D03*
X048793Y018245D03*
X048343Y018245D03*
X048343Y017745D03*
X048343Y017245D03*
X048343Y016745D03*
X048343Y016245D03*
X048343Y015745D03*
X048793Y015745D03*
X048793Y015245D03*
X048343Y015245D03*
X049293Y015245D03*
X049293Y014745D03*
X049293Y014245D03*
X049793Y014245D03*
X049793Y014745D03*
X049793Y015245D03*
X050293Y015245D03*
X050293Y014745D03*
X050293Y014245D03*
X050793Y014245D03*
X050793Y014745D03*
X050793Y015245D03*
X050793Y015745D03*
X051293Y015745D03*
X051293Y015245D03*
X051293Y014745D03*
X051293Y014245D03*
X051293Y016245D03*
X051293Y016745D03*
X051293Y017245D03*
X051293Y017745D03*
X050793Y017745D03*
X050793Y018245D03*
X050293Y018245D03*
X049793Y018245D03*
X049293Y018245D03*
X049293Y018745D03*
X049793Y018745D03*
X049793Y019245D03*
X049793Y019745D03*
X049793Y020245D03*
X049793Y020745D03*
X050293Y020745D03*
X050293Y020245D03*
X050293Y019745D03*
X050293Y019245D03*
X050293Y018745D03*
X050793Y018745D03*
X050793Y019245D03*
X050793Y019745D03*
X050793Y020245D03*
X050793Y020745D03*
X051293Y020745D03*
X051293Y020245D03*
X051293Y019745D03*
X051293Y019245D03*
X051293Y018745D03*
X051293Y018245D03*
X044293Y018245D03*
X043793Y018245D03*
X043793Y017745D03*
X043793Y017245D03*
X043793Y016745D03*
X043793Y016245D03*
X043793Y015745D03*
X043793Y015245D03*
X044293Y015245D03*
X044293Y015745D03*
X044293Y016245D03*
X044293Y016745D03*
X044293Y017245D03*
X044293Y017745D03*
X039393Y016995D03*
X038943Y016995D03*
X038493Y016995D03*
X038043Y016995D03*
X037593Y016995D03*
X037143Y016995D03*
X037143Y016545D03*
X037143Y016095D03*
X037143Y015645D03*
X037143Y015195D03*
X037143Y014745D03*
X037593Y014745D03*
X037593Y015195D03*
X037593Y015645D03*
X037593Y016095D03*
X037593Y016545D03*
X038043Y016545D03*
X038043Y016095D03*
X038043Y015645D03*
X038043Y015195D03*
X038043Y014745D03*
X038493Y014745D03*
X038943Y014745D03*
X039393Y014745D03*
X021593Y014045D03*
D23*
X026243Y012945D03*
X027243Y016145D03*
X027243Y020095D03*
X017043Y028545D03*
X016403Y017045D03*
X033593Y031895D03*
D24*
X048393Y028645D03*
X050743Y028645D03*
X048943Y025045D03*
X053943Y011995D03*
D25*
X053943Y031345D03*
X052343Y031345D03*
D26*
X042693Y036495D03*
X041093Y032645D03*
X029043Y032545D03*
X019493Y033545D03*
X012843Y032845D03*
X012893Y036495D03*
X034193Y017245D03*
X030493Y011195D03*
X030493Y008995D03*
X030243Y007945D03*
X031243Y007345D03*
X030243Y006545D03*
X008543Y006595D03*
D27*
X050593Y012895D03*
X053043Y013895D03*
M02*
