G75*
%MOIN*%
%OFA0B0*%
%FSLAX25Y25*%
%IPPOS*%
%LPD*%
%AMOC8*
5,1,8,0,0,1.08239X$1,22.5*
%
%ADD10C,0.13792*%
%ADD11R,0.09461X0.03162*%
%ADD12R,0.03162X0.09461*%
%ADD13R,0.05600X0.08200*%
%ADD14R,0.05000X0.04300*%
%ADD15R,0.06800X0.04600*%
%ADD16R,0.04300X0.05000*%
%ADD17R,0.33083X0.32296*%
%ADD18R,0.12611X0.08674*%
%ADD19R,0.02200X0.05400*%
%ADD20R,0.04600X0.06800*%
%ADD21C,0.04343*%
%ADD22R,0.03556X0.07493*%
%ADD23R,0.06902X0.05131*%
%ADD24R,0.14300X0.05800*%
%ADD25R,0.37000X0.44000*%
%ADD26OC8,0.11450*%
%ADD27OC8,0.07800*%
%ADD28R,0.04737X0.07887*%
%ADD29OC8,0.07400*%
%ADD30OC8,0.11750*%
%ADD31R,0.03500X0.03800*%
%ADD32R,0.04737X0.02965*%
%ADD33R,0.02965X0.04737*%
%ADD34R,0.04400X0.05600*%
%ADD35R,0.05918X0.05524*%
%ADD36OC8,0.17005*%
%ADD37OC8,0.14052*%
%ADD38C,0.07099*%
%ADD39OC8,0.15036*%
%ADD40R,0.08200X0.05600*%
%ADD41R,0.35800X0.42800*%
%ADD42R,0.09800X0.05000*%
%ADD43R,0.16548X0.07099*%
%ADD44R,0.04973X0.03359*%
%ADD45R,0.03359X0.04973*%
%ADD46R,0.04800X0.03800*%
%ADD47R,0.07887X0.04737*%
%ADD48OC8,0.06800*%
%ADD49R,0.05600X0.04400*%
%ADD50OC8,0.05524*%
%ADD51C,0.06500*%
%ADD52R,0.03950X0.04343*%
%ADD53R,0.02500X0.06700*%
%ADD54R,0.03000X0.08600*%
%ADD55R,0.09800X0.09800*%
%ADD56R,0.03300X0.03300*%
%ADD57R,0.08871X0.08871*%
%ADD58R,0.04146X0.01902*%
%ADD59R,0.01902X0.04146*%
%ADD60R,0.08674X0.04737*%
%ADD61C,0.04956*%
%ADD62R,0.04956X0.04956*%
%ADD63OC8,0.12611*%
%ADD64OC8,0.07296*%
%ADD65OC8,0.13461*%
D10*
X0355433Y0156450D03*
X0496933Y0168450D03*
X0392933Y0298950D03*
D11*
X0362642Y0234950D03*
X0362642Y0229950D03*
X0362642Y0224950D03*
X0362642Y0219950D03*
X0362642Y0214950D03*
X0362642Y0209950D03*
X0362642Y0204950D03*
X0342169Y0204950D03*
X0342169Y0209950D03*
X0342169Y0214950D03*
X0342169Y0219950D03*
X0342169Y0224950D03*
X0342169Y0229950D03*
X0342169Y0234950D03*
D12*
X0172559Y0271714D03*
X0167559Y0271714D03*
X0162559Y0271714D03*
X0157559Y0271714D03*
X0157559Y0292186D03*
X0162559Y0292186D03*
X0167559Y0292186D03*
X0172559Y0292186D03*
D13*
X0176059Y0303478D03*
X0163059Y0303478D03*
X0190236Y0238296D03*
X0190236Y0228454D03*
X0203236Y0228454D03*
X0203236Y0238296D03*
X0263933Y0194950D03*
X0276933Y0194950D03*
X0366220Y0183178D03*
X0379220Y0183178D03*
X0447933Y0213950D03*
X0460933Y0213950D03*
X0461433Y0250450D03*
X0474433Y0250450D03*
X0447933Y0325450D03*
X0434933Y0325450D03*
X0381933Y0325450D03*
X0368933Y0325450D03*
X0372433Y0303950D03*
X0359433Y0303950D03*
X0361433Y0254450D03*
X0374433Y0254450D03*
X0502433Y0325450D03*
X0515433Y0325450D03*
D14*
X0452933Y0250850D03*
X0452933Y0244050D03*
X0444433Y0236850D03*
X0444433Y0230050D03*
X0424433Y0230050D03*
X0424433Y0236850D03*
X0417933Y0236850D03*
X0417933Y0243050D03*
X0417933Y0249850D03*
X0410933Y0245350D03*
X0404433Y0245350D03*
X0404433Y0238550D03*
X0410933Y0238550D03*
X0417933Y0230050D03*
X0397933Y0230850D03*
X0397933Y0224050D03*
X0389933Y0230550D03*
X0389933Y0237350D03*
X0373933Y0226850D03*
X0373933Y0220050D03*
X0330433Y0220050D03*
X0330433Y0226850D03*
X0299933Y0234550D03*
X0299933Y0241350D03*
X0279683Y0248300D03*
X0279683Y0255100D03*
X0270683Y0255350D03*
X0270683Y0248550D03*
X0276933Y0241350D03*
X0276933Y0234550D03*
X0291433Y0218350D03*
X0291433Y0211550D03*
X0313933Y0280550D03*
X0313933Y0287350D03*
X0313933Y0294550D03*
X0313933Y0301350D03*
X0241618Y0282641D03*
X0241618Y0275841D03*
X0230598Y0276034D03*
X0230598Y0282834D03*
X0222780Y0282834D03*
X0222780Y0276034D03*
X0205933Y0258350D03*
X0205933Y0251550D03*
X0195433Y0251550D03*
X0195433Y0258350D03*
X0148531Y0274050D03*
X0148531Y0280850D03*
X0120933Y0302550D03*
X0120933Y0309350D03*
X0112933Y0309350D03*
X0112933Y0302550D03*
X0099933Y0302550D03*
X0099933Y0309350D03*
X0091933Y0309350D03*
X0091933Y0302550D03*
X0161433Y0211350D03*
X0161433Y0204550D03*
X0179183Y0199600D03*
X0179183Y0192800D03*
X0170183Y0139850D03*
X0170183Y0133050D03*
X0208933Y0108850D03*
X0208933Y0102050D03*
X0421433Y0201550D03*
X0421433Y0208350D03*
X0428933Y0208350D03*
X0428933Y0201550D03*
X0467433Y0227550D03*
X0467433Y0234350D03*
X0475933Y0234350D03*
X0475933Y0227550D03*
D15*
X0381933Y0228550D03*
X0381933Y0220350D03*
X0322433Y0220322D03*
X0322433Y0228522D03*
X0202183Y0210513D03*
X0202183Y0202313D03*
X0183161Y0270145D03*
X0183161Y0278345D03*
X0140531Y0281550D03*
X0140531Y0273350D03*
D16*
X0150033Y0257950D03*
X0156833Y0257950D03*
X0178033Y0258450D03*
X0184833Y0258450D03*
X0191761Y0270580D03*
X0198561Y0270580D03*
X0198561Y0278454D03*
X0191761Y0278454D03*
X0191761Y0286328D03*
X0198561Y0286328D03*
X0208561Y0290647D03*
X0215361Y0290647D03*
X0224092Y0290647D03*
X0230892Y0290647D03*
X0259608Y0292950D03*
X0266408Y0292950D03*
X0269034Y0303651D03*
X0262234Y0303651D03*
X0262234Y0311919D03*
X0269034Y0311919D03*
X0285856Y0291840D03*
X0292656Y0291840D03*
X0308033Y0273422D03*
X0314833Y0273422D03*
X0293833Y0268478D03*
X0287033Y0268478D03*
X0266908Y0271950D03*
X0260108Y0271950D03*
X0262033Y0219450D03*
X0268833Y0219450D03*
X0276533Y0219450D03*
X0283333Y0219450D03*
X0299533Y0219450D03*
X0306333Y0219450D03*
X0306333Y0211450D03*
X0299533Y0211450D03*
X0335533Y0242950D03*
X0342333Y0242950D03*
X0342333Y0251450D03*
X0335533Y0251450D03*
X0351533Y0242950D03*
X0358333Y0242950D03*
X0368533Y0242950D03*
X0375333Y0242950D03*
X0382533Y0242950D03*
X0389333Y0242950D03*
X0378333Y0264450D03*
X0371533Y0264450D03*
X0364333Y0264450D03*
X0357533Y0264450D03*
X0376506Y0209950D03*
X0383306Y0209950D03*
X0383306Y0202450D03*
X0376506Y0202450D03*
X0374533Y0194450D03*
X0381333Y0194450D03*
X0418033Y0221450D03*
X0424833Y0221450D03*
X0424533Y0243450D03*
X0431333Y0243450D03*
X0437533Y0243450D03*
X0444333Y0243450D03*
X0441333Y0250950D03*
X0441333Y0257450D03*
X0434533Y0257450D03*
X0434533Y0250950D03*
X0461533Y0241450D03*
X0468333Y0241450D03*
X0458333Y0222450D03*
X0451533Y0222450D03*
X0450533Y0313450D03*
X0457333Y0313450D03*
X0465533Y0313450D03*
X0472333Y0313450D03*
X0270333Y0168450D03*
X0263533Y0168450D03*
X0247833Y0210450D03*
X0241033Y0210450D03*
X0172583Y0192200D03*
X0172583Y0185700D03*
X0165783Y0185700D03*
X0165783Y0192200D03*
X0169533Y0177950D03*
X0176333Y0177950D03*
X0180783Y0133450D03*
X0187583Y0133450D03*
X0175333Y0124950D03*
X0168533Y0124950D03*
X0168533Y0115950D03*
X0175333Y0115950D03*
X0120333Y0272450D03*
X0113533Y0272450D03*
X0113533Y0279450D03*
X0120333Y0279450D03*
X0099333Y0279450D03*
X0092533Y0279450D03*
X0092533Y0272450D03*
X0099333Y0272450D03*
X0145187Y0294450D03*
X0151987Y0294450D03*
X0155136Y0301950D03*
X0148336Y0301950D03*
D17*
X0384933Y0156978D03*
D18*
X0418004Y0166820D03*
X0418004Y0147135D03*
D19*
X0293033Y0275378D03*
X0290433Y0275378D03*
X0287833Y0275378D03*
X0287833Y0283578D03*
X0293033Y0283578D03*
D20*
X0307333Y0265422D03*
X0315533Y0265422D03*
X0294533Y0260478D03*
X0286333Y0260478D03*
D21*
X0362047Y0066950D03*
X0388819Y0066950D03*
X0454547Y0066950D03*
X0481319Y0066950D03*
D22*
X0287315Y0344293D03*
X0277315Y0344293D03*
X0267315Y0344293D03*
D23*
X0260642Y0351950D03*
X0260642Y0366950D03*
X0299028Y0366950D03*
X0299028Y0351950D03*
D24*
X0425383Y0194950D03*
X0425383Y0174950D03*
D25*
X0463933Y0184950D03*
D26*
X0475933Y0356350D03*
X0445933Y0356350D03*
X0409933Y0356350D03*
X0379933Y0356350D03*
X0343933Y0356350D03*
X0313933Y0356350D03*
X0511933Y0356350D03*
X0541933Y0356350D03*
X0208433Y0078050D03*
X0178433Y0078050D03*
X0141933Y0078050D03*
X0111933Y0078050D03*
D27*
X0126933Y0108750D03*
X0193433Y0108750D03*
X0328933Y0325650D03*
X0394933Y0325650D03*
X0460933Y0325650D03*
X0526933Y0325650D03*
D28*
X0349933Y0275450D03*
X0323433Y0298922D03*
X0281307Y0325182D03*
X0231183Y0182700D03*
X0309433Y0170950D03*
D29*
X0282433Y0100950D03*
X0272433Y0100950D03*
X0262433Y0100950D03*
X0252433Y0100950D03*
X0242433Y0100950D03*
X0242433Y0090950D03*
X0252433Y0090950D03*
X0262433Y0090950D03*
X0272433Y0090950D03*
X0282433Y0090950D03*
X0522823Y0269178D03*
X0532823Y0269178D03*
X0532823Y0279178D03*
X0522823Y0279178D03*
X0522823Y0289178D03*
X0532823Y0289178D03*
X0532823Y0299178D03*
X0522823Y0299178D03*
D30*
X0412933Y0129950D03*
X0412933Y0069950D03*
X0337933Y0069950D03*
X0337933Y0129950D03*
X0169359Y0314950D03*
X0150859Y0314950D03*
X0132359Y0314950D03*
X0140859Y0364950D03*
X0160859Y0364950D03*
D31*
X0155033Y0232950D03*
X0150833Y0232950D03*
X0150833Y0226950D03*
X0155033Y0226950D03*
X0155033Y0220950D03*
X0150833Y0220950D03*
X0150833Y0214950D03*
X0155033Y0214950D03*
X0143033Y0214950D03*
X0138833Y0214950D03*
X0138833Y0220950D03*
X0143033Y0220950D03*
X0143033Y0226950D03*
X0138833Y0226950D03*
X0138833Y0232950D03*
X0143033Y0232950D03*
X0131033Y0232950D03*
X0126833Y0232950D03*
X0126833Y0226950D03*
X0131033Y0226950D03*
X0131033Y0220950D03*
X0126833Y0220950D03*
X0126833Y0214950D03*
X0131033Y0214950D03*
X0119033Y0214950D03*
X0114833Y0214950D03*
X0114833Y0220950D03*
X0119033Y0220950D03*
X0119033Y0226950D03*
X0114833Y0226950D03*
X0114833Y0232950D03*
X0119033Y0232950D03*
X0107033Y0232950D03*
X0102833Y0232950D03*
X0102833Y0226950D03*
X0107033Y0226950D03*
X0107033Y0220950D03*
X0102833Y0220950D03*
X0102833Y0214950D03*
X0107033Y0214950D03*
X0095033Y0214950D03*
X0090833Y0214950D03*
X0090833Y0220950D03*
X0095033Y0220950D03*
X0095033Y0226950D03*
X0090833Y0226950D03*
X0090833Y0232950D03*
X0095033Y0232950D03*
D32*
X0450618Y0231950D03*
X0450618Y0228210D03*
X0450618Y0235690D03*
X0461248Y0235690D03*
X0461248Y0228210D03*
D33*
X0307673Y0280135D03*
X0300193Y0280135D03*
X0300193Y0290765D03*
X0303933Y0290765D03*
X0307673Y0290765D03*
X0216094Y0283462D03*
X0208614Y0283462D03*
X0208614Y0272832D03*
X0212354Y0272832D03*
X0216094Y0272832D03*
X0198423Y0193515D03*
X0194683Y0193515D03*
X0190943Y0193515D03*
X0190943Y0182885D03*
X0198423Y0182885D03*
X0270693Y0187265D03*
X0274433Y0187265D03*
X0278173Y0187265D03*
X0278173Y0176635D03*
X0270693Y0176635D03*
D34*
X0203770Y0217869D03*
X0189596Y0217869D03*
X0183520Y0170450D03*
X0169346Y0170450D03*
X0347972Y0171970D03*
X0362146Y0171970D03*
D35*
X0234494Y0200310D03*
X0234494Y0214090D03*
X0210872Y0214090D03*
X0210872Y0200310D03*
D36*
X0517697Y0107194D03*
D37*
X0517697Y0083572D03*
D38*
X0517697Y0071761D03*
D39*
X0535413Y0079650D03*
X0499980Y0079650D03*
D40*
X0286433Y0175450D03*
X0286433Y0188450D03*
X0208183Y0184700D03*
X0208183Y0171700D03*
X0209728Y0162513D03*
X0209728Y0149513D03*
X0171539Y0148332D03*
X0171539Y0161332D03*
D41*
X0432933Y0284950D03*
D42*
X0469433Y0284950D03*
X0469433Y0278250D03*
X0469433Y0271550D03*
X0469433Y0291650D03*
X0469433Y0298350D03*
D43*
X0483425Y0295450D03*
X0507441Y0295450D03*
X0507941Y0258950D03*
X0483925Y0258950D03*
D44*
X0438764Y0233190D03*
X0438764Y0229450D03*
X0438764Y0225710D03*
X0430102Y0225710D03*
X0430102Y0229450D03*
X0430102Y0233190D03*
X0267339Y0278710D03*
X0267339Y0282450D03*
X0267339Y0286190D03*
X0258677Y0286190D03*
X0258677Y0282450D03*
X0258677Y0278710D03*
D45*
X0404193Y0230781D03*
X0407933Y0230781D03*
X0411673Y0230781D03*
X0411673Y0222119D03*
X0407933Y0222119D03*
X0404193Y0222119D03*
D46*
X0250980Y0279156D03*
X0250980Y0287956D03*
D47*
X0261697Y0324123D03*
X0257933Y0210450D03*
X0342433Y0189950D03*
X0342433Y0181450D03*
D48*
X0116933Y0319950D03*
X0116933Y0329950D03*
X0116933Y0339950D03*
X0116933Y0349950D03*
X0095933Y0349950D03*
X0095933Y0339950D03*
X0095933Y0329950D03*
X0095933Y0319950D03*
D49*
X0220683Y0161537D03*
X0220683Y0147363D03*
X0218433Y0116537D03*
X0227933Y0116537D03*
X0227933Y0102363D03*
X0218433Y0102363D03*
D50*
X0358033Y0314950D03*
X0358033Y0324950D03*
X0358033Y0334950D03*
X0368033Y0344950D03*
X0358033Y0354950D03*
X0490033Y0354950D03*
X0500033Y0344950D03*
X0490033Y0334950D03*
X0490033Y0324950D03*
X0490033Y0314950D03*
D51*
X0156933Y0195950D03*
X0156933Y0185950D03*
X0156933Y0175950D03*
X0156933Y0165950D03*
X0156933Y0155950D03*
X0156933Y0145950D03*
X0156933Y0135950D03*
X0156933Y0125950D03*
X0156933Y0115950D03*
X0146933Y0115950D03*
X0146933Y0105950D03*
X0156933Y0105950D03*
X0156933Y0095950D03*
X0156933Y0085950D03*
X0156933Y0075950D03*
X0156933Y0065950D03*
X0096933Y0065950D03*
X0096933Y0075950D03*
X0096933Y0085950D03*
X0096933Y0095950D03*
X0096933Y0105950D03*
X0096933Y0115950D03*
X0096933Y0125950D03*
X0096933Y0135950D03*
X0096933Y0145950D03*
X0096933Y0155950D03*
X0096933Y0165950D03*
X0096933Y0175950D03*
X0096933Y0185950D03*
X0096933Y0195950D03*
X0126933Y0185950D03*
X0136933Y0185950D03*
X0136933Y0175950D03*
X0126933Y0175950D03*
X0126933Y0165950D03*
X0136933Y0165950D03*
X0136933Y0155950D03*
X0126933Y0155950D03*
X0126933Y0145950D03*
X0136933Y0145950D03*
X0136933Y0135950D03*
X0126933Y0135950D03*
X0126933Y0125950D03*
X0136933Y0125950D03*
D52*
X0261193Y0227182D03*
X0268673Y0227182D03*
X0264933Y0235450D03*
X0120673Y0286182D03*
X0116933Y0294450D03*
X0113193Y0286182D03*
X0099673Y0286182D03*
X0092193Y0286182D03*
X0095933Y0294450D03*
D53*
X0284633Y0246550D03*
X0287133Y0246550D03*
X0289733Y0246550D03*
X0292233Y0246550D03*
X0292233Y0229350D03*
X0289733Y0229350D03*
X0287133Y0229350D03*
X0284633Y0229350D03*
D54*
X0358433Y0274250D03*
X0363433Y0274250D03*
X0368433Y0274250D03*
X0373433Y0274250D03*
X0373433Y0293650D03*
X0368433Y0293650D03*
X0363433Y0293650D03*
X0358433Y0293650D03*
D55*
X0365933Y0283950D03*
D56*
X0201183Y0160950D03*
X0196183Y0160950D03*
X0196183Y0155950D03*
X0196183Y0150950D03*
X0191183Y0150950D03*
X0186183Y0150950D03*
X0181183Y0150950D03*
X0181183Y0145950D03*
X0181183Y0140950D03*
X0186183Y0140950D03*
X0186183Y0145950D03*
X0191183Y0145950D03*
X0191183Y0140950D03*
X0196183Y0140950D03*
X0196183Y0145950D03*
X0201183Y0145950D03*
X0201183Y0140950D03*
X0201183Y0150950D03*
X0201183Y0155950D03*
X0186183Y0160950D03*
X0181183Y0160950D03*
D57*
X0167933Y0249450D03*
D58*
X0161142Y0249450D03*
X0161142Y0247481D03*
X0161142Y0245513D03*
X0161142Y0251419D03*
X0161142Y0253387D03*
X0174724Y0253387D03*
X0174724Y0251419D03*
X0174724Y0249450D03*
X0174724Y0247481D03*
X0174724Y0245513D03*
D59*
X0170886Y0242659D03*
X0164980Y0242659D03*
X0164980Y0256241D03*
X0170886Y0256241D03*
D60*
X0390433Y0211871D03*
X0390433Y0194548D03*
X0390433Y0181950D03*
X0413071Y0181950D03*
X0413071Y0203210D03*
D61*
X0278232Y0335541D03*
X0270358Y0335541D03*
D62*
X0286106Y0335541D03*
D63*
X0523433Y0313450D03*
X0539433Y0313450D03*
D64*
X0085433Y0065950D03*
X0302433Y0065450D03*
X0312433Y0073450D03*
X0302433Y0079450D03*
X0304933Y0089950D03*
X0304933Y0111950D03*
X0326972Y0157096D03*
X0484051Y0112588D03*
X0410933Y0326450D03*
X0426933Y0364950D03*
X0290433Y0325450D03*
X0081189Y0278450D03*
D65*
X0505933Y0128950D03*
X0530433Y0138950D03*
M02*
