G75*
%MOIN*%
%OFA0B0*%
%FSLAX25Y25*%
%IPPOS*%
%LPD*%
%AMOC8*
5,1,8,0,0,1.08239X$1,22.5*
%
%ADD10R,0.08661X0.02362*%
%ADD11R,0.06299X0.05118*%
%ADD12R,0.06299X0.07874*%
%ADD13R,0.02362X0.08661*%
%ADD14R,0.04800X0.07400*%
%ADD15R,0.04200X0.03500*%
%ADD16R,0.06000X0.03800*%
%ADD17R,0.03500X0.04200*%
%ADD18R,0.32283X0.31496*%
%ADD19R,0.11811X0.07874*%
%ADD20R,0.01400X0.04600*%
%ADD21R,0.03800X0.06000*%
%ADD22R,0.02756X0.06693*%
%ADD23R,0.06102X0.04331*%
%ADD24R,0.13500X0.05000*%
%ADD25R,0.35500X0.42000*%
%ADD26OC8,0.10650*%
%ADD27OC8,0.07000*%
%ADD28R,0.03937X0.07087*%
%ADD29OC8,0.06600*%
%ADD30OC8,0.10950*%
%ADD31R,0.02700X0.03000*%
%ADD32R,0.03937X0.02165*%
%ADD33R,0.02165X0.03937*%
%ADD34R,0.06500X0.11000*%
%ADD35R,0.03600X0.04800*%
%ADD36R,0.05118X0.04724*%
%ADD37OC8,0.16205*%
%ADD38OC8,0.13252*%
%ADD39OC8,0.14236*%
%ADD40R,0.07400X0.04800*%
%ADD41R,0.35000X0.42000*%
%ADD42R,0.09000X0.04200*%
%ADD43R,0.15748X0.06299*%
%ADD44R,0.04173X0.02559*%
%ADD45R,0.02559X0.04173*%
%ADD46R,0.04000X0.03000*%
%ADD47R,0.07087X0.03937*%
%ADD48OC8,0.06000*%
%ADD49R,0.04800X0.03600*%
%ADD50OC8,0.04724*%
%ADD51C,0.05700*%
%ADD52R,0.03150X0.03543*%
%ADD53R,0.01700X0.05900*%
%ADD54R,0.02200X0.07800*%
%ADD55R,0.09000X0.09000*%
%ADD56R,0.02500X0.02500*%
%ADD57R,0.08071X0.08071*%
%ADD58R,0.03346X0.01102*%
%ADD59R,0.01102X0.03346*%
%ADD60R,0.07874X0.03937*%
%ADD61C,0.04156*%
%ADD62R,0.04156X0.04156*%
%ADD63C,0.01200*%
%ADD64C,0.02700*%
%ADD65C,0.01000*%
%ADD66C,0.01100*%
%ADD67C,0.01600*%
%ADD68C,0.00700*%
%ADD69C,0.00500*%
%ADD70C,0.02400*%
%ADD71C,0.04724*%
%ADD72C,0.03762*%
%ADD73C,0.09449*%
%ADD74OC8,0.11811*%
%ADD75OC8,0.06496*%
%ADD76C,0.01100*%
%ADD77C,0.02778*%
%ADD78C,0.05000*%
%ADD79OC8,0.12661*%
%ADD80C,0.08600*%
%ADD81C,0.03200*%
%ADD82C,0.17500*%
%ADD83C,0.06600*%
%ADD84C,0.07600*%
%ADD85C,0.04000*%
%ADD86C,0.02702*%
%ADD87C,0.05315*%
D10*
X0342169Y0204950D03*
X0342169Y0209950D03*
X0342169Y0214950D03*
X0342169Y0219950D03*
X0342169Y0224950D03*
X0342169Y0229950D03*
X0342169Y0234950D03*
X0362642Y0234950D03*
X0362642Y0229950D03*
X0362642Y0224950D03*
X0362642Y0219950D03*
X0362642Y0214950D03*
X0362642Y0209950D03*
X0362642Y0204950D03*
D11*
X0291142Y0295478D03*
X0291142Y0305478D03*
D12*
X0279724Y0300478D03*
D13*
X0172559Y0292186D03*
X0167559Y0292186D03*
X0162559Y0292186D03*
X0157559Y0292186D03*
X0157559Y0271714D03*
X0162559Y0271714D03*
X0167559Y0271714D03*
X0172559Y0271714D03*
D14*
X0176059Y0303478D03*
X0163059Y0303478D03*
X0263933Y0194950D03*
X0276933Y0194950D03*
X0361433Y0254450D03*
X0374433Y0254450D03*
X0372433Y0303950D03*
X0359433Y0303950D03*
X0368933Y0325450D03*
X0381933Y0325450D03*
X0434933Y0325450D03*
X0447933Y0325450D03*
X0502433Y0325450D03*
X0515433Y0325450D03*
X0474433Y0250450D03*
X0461433Y0250450D03*
X0460933Y0213950D03*
X0447933Y0213950D03*
D15*
X0467433Y0227550D03*
X0467433Y0234350D03*
X0475933Y0234350D03*
X0475933Y0227550D03*
X0452933Y0244050D03*
X0444433Y0236850D03*
X0444433Y0230050D03*
X0424433Y0230050D03*
X0424433Y0236850D03*
X0417933Y0236850D03*
X0417933Y0243050D03*
X0417933Y0249850D03*
X0410933Y0245350D03*
X0404433Y0245350D03*
X0404433Y0238550D03*
X0410933Y0238550D03*
X0417933Y0230050D03*
X0397933Y0230850D03*
X0397933Y0224050D03*
X0389933Y0230550D03*
X0389933Y0237350D03*
X0373933Y0226850D03*
X0373933Y0220050D03*
X0380933Y0187850D03*
X0380933Y0181050D03*
X0421433Y0201550D03*
X0421433Y0208350D03*
X0428933Y0208350D03*
X0428933Y0201550D03*
X0452933Y0250850D03*
X0330433Y0226850D03*
X0330433Y0220050D03*
X0299933Y0234550D03*
X0299933Y0241350D03*
X0279683Y0248300D03*
X0279683Y0255100D03*
X0270683Y0255350D03*
X0270683Y0248550D03*
X0276933Y0241350D03*
X0276933Y0234550D03*
X0291433Y0218350D03*
X0291433Y0211550D03*
X0279933Y0278078D03*
X0279933Y0284878D03*
X0313933Y0287350D03*
X0313933Y0294550D03*
X0313933Y0301350D03*
X0313933Y0280550D03*
X0241618Y0282641D03*
X0241618Y0275841D03*
X0230598Y0276034D03*
X0230598Y0282834D03*
X0222780Y0282834D03*
X0222780Y0276034D03*
X0205933Y0258350D03*
X0205933Y0251550D03*
X0195433Y0251550D03*
X0195433Y0258350D03*
X0148531Y0274050D03*
X0148531Y0280850D03*
X0120933Y0302550D03*
X0120933Y0309350D03*
X0112933Y0309350D03*
X0112933Y0302550D03*
X0099933Y0302550D03*
X0099933Y0309350D03*
X0091933Y0309350D03*
X0091933Y0302550D03*
X0161433Y0211350D03*
X0161433Y0204550D03*
X0179183Y0199600D03*
X0179183Y0192800D03*
X0170183Y0139850D03*
X0170183Y0133050D03*
X0208933Y0108850D03*
X0208933Y0102050D03*
D16*
X0208683Y0150600D03*
X0208683Y0158800D03*
X0172183Y0158550D03*
X0172183Y0150350D03*
X0202183Y0203100D03*
X0202183Y0211300D03*
X0183161Y0270145D03*
X0183161Y0278345D03*
X0140531Y0281550D03*
X0140531Y0273350D03*
X0322433Y0228522D03*
X0322433Y0220322D03*
X0381933Y0220350D03*
X0381933Y0228550D03*
D17*
X0382533Y0242950D03*
X0389333Y0242950D03*
X0375333Y0242950D03*
X0368533Y0242950D03*
X0358333Y0242950D03*
X0351533Y0242950D03*
X0342333Y0242950D03*
X0335533Y0242950D03*
X0335533Y0251450D03*
X0342333Y0251450D03*
X0357533Y0264450D03*
X0364333Y0264450D03*
X0371533Y0264450D03*
X0378333Y0264450D03*
X0418033Y0221450D03*
X0424833Y0221450D03*
X0424533Y0243450D03*
X0431333Y0243450D03*
X0437533Y0243450D03*
X0444333Y0243450D03*
X0441333Y0250950D03*
X0441333Y0257450D03*
X0434533Y0257450D03*
X0434533Y0250950D03*
X0461533Y0241450D03*
X0468333Y0241450D03*
X0458333Y0222450D03*
X0451533Y0222450D03*
X0383306Y0209950D03*
X0376506Y0209950D03*
X0376506Y0202450D03*
X0383306Y0202450D03*
X0381333Y0194450D03*
X0374533Y0194450D03*
X0306333Y0211450D03*
X0299533Y0211450D03*
X0299533Y0219450D03*
X0306333Y0219450D03*
X0283333Y0219450D03*
X0276533Y0219450D03*
X0268833Y0219450D03*
X0262033Y0219450D03*
X0247833Y0210450D03*
X0241033Y0210450D03*
X0263533Y0168450D03*
X0270333Y0168450D03*
X0187583Y0133450D03*
X0180783Y0133450D03*
X0175333Y0124950D03*
X0168533Y0124950D03*
X0168533Y0115950D03*
X0175333Y0115950D03*
X0176333Y0177950D03*
X0169533Y0177950D03*
X0172583Y0185700D03*
X0172583Y0192200D03*
X0165783Y0192200D03*
X0165783Y0185700D03*
X0156833Y0257950D03*
X0150033Y0257950D03*
X0178033Y0258450D03*
X0184833Y0258450D03*
X0191761Y0270580D03*
X0198561Y0270580D03*
X0198561Y0278454D03*
X0191761Y0278454D03*
X0191761Y0286328D03*
X0198561Y0286328D03*
X0208561Y0290647D03*
X0215361Y0290647D03*
X0224092Y0290647D03*
X0230892Y0290647D03*
X0259608Y0292950D03*
X0266408Y0292950D03*
X0269034Y0303651D03*
X0262234Y0303651D03*
X0262234Y0311919D03*
X0269034Y0311919D03*
X0299033Y0305478D03*
X0305833Y0305478D03*
X0308033Y0273422D03*
X0314833Y0273422D03*
X0293833Y0268478D03*
X0287033Y0268478D03*
X0266908Y0271950D03*
X0260108Y0271950D03*
X0155136Y0301950D03*
X0148336Y0301950D03*
X0145187Y0294450D03*
X0151987Y0294450D03*
X0120333Y0279450D03*
X0113533Y0279450D03*
X0113533Y0272450D03*
X0120333Y0272450D03*
X0099333Y0272450D03*
X0092533Y0272450D03*
X0092533Y0279450D03*
X0099333Y0279450D03*
X0450533Y0313450D03*
X0457333Y0313450D03*
X0465533Y0313450D03*
X0472333Y0313450D03*
D18*
X0384933Y0156978D03*
D19*
X0418004Y0166820D03*
X0418004Y0147135D03*
D20*
X0293033Y0275378D03*
X0290433Y0275378D03*
X0287833Y0275378D03*
X0287833Y0283578D03*
X0293033Y0283578D03*
D21*
X0307333Y0265422D03*
X0315533Y0265422D03*
X0294533Y0260478D03*
X0286333Y0260478D03*
D22*
X0287315Y0344293D03*
X0277315Y0344293D03*
X0267315Y0344293D03*
D23*
X0260642Y0351950D03*
X0260642Y0366950D03*
X0299028Y0366950D03*
X0299028Y0351950D03*
D24*
X0425383Y0194950D03*
X0425383Y0174950D03*
D25*
X0464183Y0184950D03*
D26*
X0475933Y0356350D03*
X0445933Y0356350D03*
X0409933Y0356350D03*
X0379933Y0356350D03*
X0343933Y0356350D03*
X0313933Y0356350D03*
X0511933Y0356350D03*
X0541933Y0356350D03*
X0208433Y0078050D03*
X0178433Y0078050D03*
X0141933Y0078050D03*
X0111933Y0078050D03*
D27*
X0126933Y0108750D03*
X0193433Y0108750D03*
X0328933Y0325650D03*
X0394933Y0325650D03*
X0460933Y0325650D03*
X0526933Y0325650D03*
D28*
X0349933Y0275450D03*
X0323433Y0298922D03*
X0281307Y0325182D03*
X0231183Y0182700D03*
X0309433Y0170950D03*
D29*
X0282433Y0100950D03*
X0272433Y0100950D03*
X0262433Y0100950D03*
X0252433Y0100950D03*
X0242433Y0100950D03*
X0242433Y0090950D03*
X0252433Y0090950D03*
X0262433Y0090950D03*
X0272433Y0090950D03*
X0282433Y0090950D03*
X0522823Y0269178D03*
X0532823Y0269178D03*
X0532823Y0279178D03*
X0522823Y0279178D03*
X0522823Y0289178D03*
X0532823Y0289178D03*
X0532823Y0299178D03*
X0522823Y0299178D03*
D30*
X0412933Y0129950D03*
X0412933Y0069950D03*
X0337933Y0069950D03*
X0337933Y0129950D03*
X0169359Y0314950D03*
X0150859Y0314950D03*
X0132359Y0314950D03*
X0140859Y0364950D03*
X0160859Y0364950D03*
D31*
X0155033Y0232950D03*
X0150833Y0232950D03*
X0150833Y0226950D03*
X0155033Y0226950D03*
X0155033Y0220950D03*
X0150833Y0220950D03*
X0150833Y0214950D03*
X0155033Y0214950D03*
X0143033Y0214950D03*
X0138833Y0214950D03*
X0138833Y0220950D03*
X0143033Y0220950D03*
X0143033Y0226950D03*
X0138833Y0226950D03*
X0138833Y0232950D03*
X0143033Y0232950D03*
X0131033Y0232950D03*
X0126833Y0232950D03*
X0126833Y0226950D03*
X0131033Y0226950D03*
X0131033Y0220950D03*
X0126833Y0220950D03*
X0126833Y0214950D03*
X0131033Y0214950D03*
X0119033Y0214950D03*
X0114833Y0214950D03*
X0114833Y0220950D03*
X0119033Y0220950D03*
X0119033Y0226950D03*
X0114833Y0226950D03*
X0114833Y0232950D03*
X0119033Y0232950D03*
X0107033Y0232950D03*
X0102833Y0232950D03*
X0102833Y0226950D03*
X0107033Y0226950D03*
X0107033Y0220950D03*
X0102833Y0220950D03*
X0102833Y0214950D03*
X0107033Y0214950D03*
X0095033Y0214950D03*
X0090833Y0214950D03*
X0090833Y0220950D03*
X0095033Y0220950D03*
X0095033Y0226950D03*
X0090833Y0226950D03*
X0090833Y0232950D03*
X0095033Y0232950D03*
D32*
X0450618Y0231950D03*
X0450618Y0228210D03*
X0450618Y0235690D03*
X0461248Y0235690D03*
X0461248Y0228210D03*
D33*
X0307673Y0280135D03*
X0300193Y0280135D03*
X0300193Y0290765D03*
X0303933Y0290765D03*
X0307673Y0290765D03*
X0216094Y0283462D03*
X0208614Y0283462D03*
X0208614Y0272832D03*
X0212354Y0272832D03*
X0216094Y0272832D03*
X0198423Y0193515D03*
X0194683Y0193515D03*
X0190943Y0193515D03*
X0190943Y0182885D03*
X0198423Y0182885D03*
X0270693Y0187265D03*
X0274433Y0187265D03*
X0278173Y0187265D03*
X0278173Y0176635D03*
X0270693Y0176635D03*
D34*
X0202183Y0236200D03*
X0191183Y0236200D03*
D35*
X0189596Y0222200D03*
X0203770Y0222200D03*
X0183520Y0170450D03*
X0169346Y0170450D03*
X0355846Y0179450D03*
X0370020Y0179450D03*
D36*
X0234494Y0200310D03*
X0234494Y0214090D03*
X0210872Y0214090D03*
X0210872Y0200310D03*
D37*
X0517697Y0107194D03*
D38*
X0517697Y0083572D03*
D39*
X0535413Y0079650D03*
X0499980Y0079650D03*
D40*
X0286433Y0175450D03*
X0286433Y0188450D03*
X0208183Y0184700D03*
X0208183Y0171700D03*
D41*
X0432933Y0284950D03*
D42*
X0469433Y0284950D03*
X0469433Y0278250D03*
X0469433Y0271550D03*
X0469433Y0291650D03*
X0469433Y0298350D03*
D43*
X0483425Y0295450D03*
X0507441Y0295450D03*
X0507941Y0258950D03*
X0483925Y0258950D03*
D44*
X0438764Y0233190D03*
X0438764Y0229450D03*
X0438764Y0225710D03*
X0430102Y0225710D03*
X0430102Y0229450D03*
X0430102Y0233190D03*
X0267339Y0278710D03*
X0267339Y0282450D03*
X0267339Y0286190D03*
X0258677Y0286190D03*
X0258677Y0282450D03*
X0258677Y0278710D03*
D45*
X0404193Y0230781D03*
X0407933Y0230781D03*
X0411673Y0230781D03*
X0411673Y0222119D03*
X0407933Y0222119D03*
X0404193Y0222119D03*
D46*
X0250980Y0279156D03*
X0250980Y0287956D03*
D47*
X0261697Y0324123D03*
X0257933Y0210450D03*
X0342433Y0189950D03*
X0342433Y0181450D03*
D48*
X0116933Y0319950D03*
X0116933Y0329950D03*
X0116933Y0339950D03*
X0116933Y0349950D03*
X0095933Y0349950D03*
X0095933Y0339950D03*
X0095933Y0329950D03*
X0095933Y0319950D03*
D49*
X0220683Y0161537D03*
X0220683Y0147363D03*
X0218433Y0116537D03*
X0227933Y0116537D03*
X0227933Y0102363D03*
X0218433Y0102363D03*
D50*
X0358033Y0314950D03*
X0358033Y0324950D03*
X0358033Y0334950D03*
X0368033Y0344950D03*
X0358033Y0354950D03*
X0490033Y0354950D03*
X0500033Y0344950D03*
X0490033Y0334950D03*
X0490033Y0324950D03*
X0490033Y0314950D03*
D51*
X0156933Y0195950D03*
X0156933Y0185950D03*
X0156933Y0175950D03*
X0156933Y0165950D03*
X0156933Y0155950D03*
X0156933Y0145950D03*
X0156933Y0135950D03*
X0156933Y0125950D03*
X0156933Y0115950D03*
X0146933Y0115950D03*
X0146933Y0105950D03*
X0156933Y0105950D03*
X0156933Y0095950D03*
X0156933Y0085950D03*
X0156933Y0075950D03*
X0156933Y0065950D03*
X0096933Y0065950D03*
X0096933Y0075950D03*
X0096933Y0085950D03*
X0096933Y0095950D03*
X0096933Y0105950D03*
X0096933Y0115950D03*
X0096933Y0125950D03*
X0096933Y0135950D03*
X0096933Y0145950D03*
X0096933Y0155950D03*
X0096933Y0165950D03*
X0096933Y0175950D03*
X0096933Y0185950D03*
X0096933Y0195950D03*
X0126933Y0185950D03*
X0136933Y0185950D03*
X0136933Y0175950D03*
X0126933Y0175950D03*
X0126933Y0165950D03*
X0136933Y0165950D03*
X0136933Y0155950D03*
X0126933Y0155950D03*
X0126933Y0145950D03*
X0136933Y0145950D03*
X0136933Y0135950D03*
X0126933Y0135950D03*
X0126933Y0125950D03*
X0136933Y0125950D03*
D52*
X0261193Y0227182D03*
X0268673Y0227182D03*
X0264933Y0235450D03*
X0120673Y0286182D03*
X0116933Y0294450D03*
X0113193Y0286182D03*
X0099673Y0286182D03*
X0092193Y0286182D03*
X0095933Y0294450D03*
D53*
X0284633Y0246550D03*
X0287133Y0246550D03*
X0289733Y0246550D03*
X0292233Y0246550D03*
X0292233Y0229350D03*
X0289733Y0229350D03*
X0287133Y0229350D03*
X0284633Y0229350D03*
D54*
X0358433Y0274250D03*
X0363433Y0274250D03*
X0368433Y0274250D03*
X0373433Y0274250D03*
X0373433Y0293650D03*
X0368433Y0293650D03*
X0363433Y0293650D03*
X0358433Y0293650D03*
D55*
X0365933Y0283950D03*
D56*
X0201183Y0160950D03*
X0196183Y0160950D03*
X0196183Y0155950D03*
X0196183Y0150950D03*
X0191183Y0150950D03*
X0186183Y0150950D03*
X0181183Y0150950D03*
X0181183Y0145950D03*
X0181183Y0140950D03*
X0186183Y0140950D03*
X0186183Y0145950D03*
X0191183Y0145950D03*
X0191183Y0140950D03*
X0196183Y0140950D03*
X0196183Y0145950D03*
X0201183Y0145950D03*
X0201183Y0140950D03*
X0201183Y0150950D03*
X0201183Y0155950D03*
X0186183Y0160950D03*
X0181183Y0160950D03*
D57*
X0167933Y0249450D03*
D58*
X0161142Y0249450D03*
X0161142Y0247481D03*
X0161142Y0245513D03*
X0161142Y0251419D03*
X0161142Y0253387D03*
X0174724Y0253387D03*
X0174724Y0251419D03*
X0174724Y0249450D03*
X0174724Y0247481D03*
X0174724Y0245513D03*
D59*
X0170886Y0242659D03*
X0164980Y0242659D03*
X0164980Y0256241D03*
X0170886Y0256241D03*
D60*
X0390433Y0211871D03*
X0390433Y0194548D03*
X0390433Y0181950D03*
X0413071Y0181950D03*
X0413071Y0203210D03*
D61*
X0397433Y0181950D03*
X0398433Y0169950D03*
X0393933Y0169950D03*
X0389433Y0169950D03*
X0384933Y0169950D03*
X0380433Y0169950D03*
X0375933Y0169950D03*
X0371433Y0169950D03*
X0371433Y0165450D03*
X0371433Y0160950D03*
X0371433Y0156450D03*
X0371433Y0151950D03*
X0371433Y0147450D03*
X0371433Y0142950D03*
X0375933Y0142950D03*
X0375933Y0147450D03*
X0375933Y0151950D03*
X0375933Y0156450D03*
X0375933Y0160950D03*
X0375933Y0165450D03*
X0380433Y0165450D03*
X0380433Y0160950D03*
X0380433Y0156450D03*
X0380433Y0151950D03*
X0380433Y0147450D03*
X0380433Y0142950D03*
X0384933Y0142950D03*
X0384933Y0147450D03*
X0384933Y0151950D03*
X0384933Y0156450D03*
X0384933Y0160950D03*
X0384933Y0165450D03*
X0389433Y0165450D03*
X0389433Y0160950D03*
X0389433Y0156450D03*
X0389433Y0151950D03*
X0389433Y0147450D03*
X0389433Y0142950D03*
X0393933Y0142950D03*
X0393933Y0147450D03*
X0393933Y0151950D03*
X0393933Y0156450D03*
X0393933Y0160950D03*
X0393933Y0165450D03*
X0398433Y0165450D03*
X0398433Y0160950D03*
X0398433Y0156450D03*
X0398433Y0151950D03*
X0398433Y0147450D03*
X0398433Y0142950D03*
X0403933Y0144950D03*
X0403933Y0149450D03*
X0403933Y0153950D03*
X0408933Y0153950D03*
X0408933Y0149450D03*
X0408933Y0144950D03*
X0413433Y0153950D03*
X0417933Y0153950D03*
X0422433Y0153950D03*
X0437933Y0152450D03*
X0437933Y0147450D03*
X0437933Y0142450D03*
X0442933Y0142450D03*
X0442933Y0147450D03*
X0442933Y0152450D03*
X0442933Y0157450D03*
X0437933Y0157450D03*
X0437933Y0162450D03*
X0437933Y0167450D03*
X0437933Y0172450D03*
X0437933Y0177450D03*
X0437933Y0182450D03*
X0442933Y0182450D03*
X0442933Y0177450D03*
X0442933Y0172450D03*
X0442933Y0167450D03*
X0442933Y0162450D03*
X0447933Y0162450D03*
X0447933Y0157450D03*
X0447933Y0152450D03*
X0447933Y0147450D03*
X0447933Y0142450D03*
X0452933Y0142450D03*
X0452933Y0147450D03*
X0452933Y0152450D03*
X0452933Y0157450D03*
X0452933Y0162450D03*
X0457933Y0162450D03*
X0457933Y0157450D03*
X0457933Y0152450D03*
X0457933Y0147450D03*
X0457933Y0142450D03*
X0462933Y0142450D03*
X0462933Y0147450D03*
X0462933Y0152450D03*
X0462933Y0157450D03*
X0462933Y0162450D03*
X0467933Y0162450D03*
X0467933Y0157450D03*
X0467933Y0152450D03*
X0467933Y0147450D03*
X0467933Y0142450D03*
X0472933Y0142450D03*
X0472933Y0147450D03*
X0472933Y0152450D03*
X0472933Y0157450D03*
X0472933Y0162450D03*
X0477933Y0162450D03*
X0477933Y0157450D03*
X0477933Y0152450D03*
X0477933Y0147450D03*
X0477933Y0142450D03*
X0482933Y0142450D03*
X0482933Y0147450D03*
X0487933Y0147450D03*
X0487933Y0142450D03*
X0492933Y0142450D03*
X0492933Y0147450D03*
X0492933Y0152450D03*
X0487933Y0152450D03*
X0483433Y0152450D03*
X0483433Y0157450D03*
X0487933Y0157450D03*
X0483433Y0162450D03*
X0483433Y0167450D03*
X0483433Y0172450D03*
X0483433Y0177450D03*
X0483433Y0182450D03*
X0487933Y0182450D03*
X0492933Y0182450D03*
X0497933Y0182450D03*
X0502933Y0182450D03*
X0507933Y0182450D03*
X0507933Y0177450D03*
X0512933Y0177450D03*
X0512933Y0172450D03*
X0512933Y0167450D03*
X0512933Y0162450D03*
X0512933Y0157450D03*
X0507933Y0157450D03*
X0507933Y0152450D03*
X0502933Y0152450D03*
X0497933Y0152450D03*
X0497933Y0147450D03*
X0497933Y0142450D03*
X0502933Y0142450D03*
X0502933Y0147450D03*
X0507933Y0147450D03*
X0507933Y0142450D03*
X0512933Y0142450D03*
X0512933Y0147450D03*
X0512933Y0152450D03*
X0512933Y0182450D03*
X0512933Y0187950D03*
X0507933Y0187950D03*
X0502933Y0187950D03*
X0497933Y0187950D03*
X0492933Y0187950D03*
X0487933Y0187950D03*
X0482933Y0187950D03*
X0482933Y0192950D03*
X0482933Y0197950D03*
X0482933Y0202950D03*
X0482933Y0207950D03*
X0477933Y0207950D03*
X0477933Y0212950D03*
X0482933Y0212950D03*
X0487933Y0212950D03*
X0487933Y0207950D03*
X0487933Y0202950D03*
X0487933Y0197950D03*
X0487933Y0192950D03*
X0492933Y0192950D03*
X0492933Y0197950D03*
X0492933Y0202950D03*
X0492933Y0207950D03*
X0492933Y0212950D03*
X0492933Y0217950D03*
X0487933Y0217950D03*
X0487933Y0223450D03*
X0492933Y0223450D03*
X0497933Y0223450D03*
X0502933Y0223450D03*
X0507933Y0223450D03*
X0512933Y0223450D03*
X0512933Y0217950D03*
X0507933Y0217950D03*
X0502933Y0217950D03*
X0497933Y0217950D03*
X0497933Y0212950D03*
X0497933Y0207950D03*
X0497933Y0202950D03*
X0497933Y0197950D03*
X0497933Y0192950D03*
X0502933Y0192950D03*
X0502933Y0197950D03*
X0502933Y0202950D03*
X0502933Y0207950D03*
X0502933Y0212950D03*
X0507933Y0212950D03*
X0507933Y0207950D03*
X0507933Y0202950D03*
X0507933Y0197950D03*
X0507933Y0192950D03*
X0512933Y0192950D03*
X0512933Y0197950D03*
X0512933Y0202950D03*
X0512933Y0207950D03*
X0512933Y0212950D03*
X0512933Y0228950D03*
X0507933Y0228950D03*
X0502933Y0228950D03*
X0497933Y0228950D03*
X0492933Y0228950D03*
X0487933Y0228950D03*
X0487933Y0233950D03*
X0487933Y0238950D03*
X0492933Y0238950D03*
X0492933Y0233950D03*
X0497933Y0233950D03*
X0497933Y0238950D03*
X0502933Y0238950D03*
X0502933Y0233950D03*
X0507933Y0233950D03*
X0507933Y0238950D03*
X0512933Y0238950D03*
X0512933Y0233950D03*
X0442933Y0202950D03*
X0442933Y0197950D03*
X0442933Y0192950D03*
X0442933Y0187950D03*
X0278232Y0335541D03*
X0270358Y0335541D03*
X0215933Y0140450D03*
D62*
X0286106Y0335541D03*
D63*
X0291142Y0305478D02*
X0299033Y0305478D01*
X0291142Y0295478D02*
X0293033Y0293586D01*
X0293033Y0283950D02*
X0293033Y0283578D01*
X0287833Y0283578D02*
X0285433Y0283578D01*
X0279933Y0278078D01*
X0279933Y0284878D02*
X0279724Y0285086D01*
X0279724Y0300478D01*
X0250980Y0279156D02*
X0250980Y0274663D01*
X0294433Y0260450D02*
X0294506Y0260450D01*
X0294533Y0260478D01*
X0315433Y0265450D02*
X0315461Y0265422D01*
X0315533Y0265422D01*
X0362642Y0234950D02*
X0362933Y0235241D01*
X0362642Y0229950D02*
X0367433Y0229950D01*
X0389933Y0230550D02*
X0389933Y0226450D01*
X0389333Y0242950D02*
X0392933Y0242950D01*
X0376006Y0210450D02*
X0376506Y0209950D01*
X0376506Y0209250D01*
X0383306Y0202450D01*
X0376506Y0209950D02*
X0362642Y0209950D01*
X0362642Y0204950D02*
X0362433Y0204741D01*
X0342169Y0204950D02*
X0342169Y0209950D01*
X0438433Y0225379D02*
X0438764Y0225710D01*
X0438764Y0233190D02*
X0438433Y0233521D01*
X0438433Y0242550D02*
X0437533Y0243450D01*
X0483425Y0295450D02*
X0483433Y0295458D01*
X0469433Y0298350D02*
X0465533Y0298350D01*
X0465533Y0313450D02*
X0457333Y0313450D01*
X0450533Y0313450D02*
X0446433Y0313450D01*
X0208933Y0112950D02*
X0208933Y0108850D01*
X0208833Y0102050D02*
X0208933Y0102050D01*
D64*
X0077433Y0066950D03*
X0075433Y0074450D03*
X0082933Y0081950D03*
X0088933Y0084950D03*
X0088433Y0092450D03*
X0081433Y0094450D03*
X0075933Y0089450D03*
X0079433Y0101950D03*
X0075933Y0107950D03*
X0084433Y0110950D03*
X0089433Y0102950D03*
X0103433Y0097950D03*
X0114433Y0103950D03*
X0105933Y0109950D03*
X0108933Y0118950D03*
X0105933Y0124950D03*
X0114933Y0119950D03*
X0115433Y0112450D03*
X0120933Y0132450D03*
X0117433Y0135950D03*
X0113433Y0140450D03*
X0114433Y0145450D03*
X0118433Y0148450D03*
X0111433Y0153950D03*
X0108433Y0157950D03*
X0100433Y0160950D03*
X0093433Y0159950D03*
X0093433Y0150950D03*
X0100933Y0150950D03*
X0107933Y0147450D03*
X0119933Y0141950D03*
X0117933Y0160950D03*
X0118433Y0168950D03*
X0118933Y0178950D03*
X0119433Y0189450D03*
X0117933Y0194950D03*
X0117933Y0200450D03*
X0106683Y0206950D03*
X0102933Y0210700D03*
X0097433Y0204950D03*
X0095433Y0201450D03*
X0081933Y0206450D03*
X0079933Y0210950D03*
X0075433Y0207450D03*
X0077933Y0201950D03*
X0077933Y0195450D03*
X0075433Y0186950D03*
X0080433Y0184950D03*
X0077433Y0178450D03*
X0075433Y0167950D03*
X0081933Y0167450D03*
X0075433Y0158450D03*
X0079933Y0154950D03*
X0075433Y0149450D03*
X0078433Y0144450D03*
X0079433Y0139450D03*
X0076433Y0132950D03*
X0079933Y0129950D03*
X0075433Y0121950D03*
X0077433Y0117450D03*
X0112933Y0088450D03*
X0121933Y0089950D03*
X0124933Y0081450D03*
X0128933Y0076950D03*
X0126933Y0068950D03*
X0129933Y0063950D03*
X0137933Y0065950D03*
X0148433Y0063950D03*
X0149933Y0070950D03*
X0151433Y0080950D03*
X0149433Y0090950D03*
X0150433Y0096450D03*
X0140933Y0090950D03*
X0133933Y0087950D03*
X0134933Y0100450D03*
X0148433Y0110950D03*
X0151433Y0123950D03*
X0150933Y0129450D03*
X0153433Y0140450D03*
X0151433Y0147950D03*
X0150933Y0153450D03*
X0165433Y0140950D03*
X0174933Y0132950D03*
X0183433Y0127950D03*
X0179433Y0124450D03*
X0191183Y0137200D03*
X0194933Y0137200D03*
X0194933Y0133450D03*
X0198683Y0133450D03*
X0198683Y0137200D03*
X0202433Y0137200D03*
X0202433Y0133450D03*
X0206183Y0137200D03*
X0206183Y0140950D03*
X0206183Y0144700D03*
X0209933Y0144700D03*
X0209933Y0140950D03*
X0215433Y0146450D03*
X0215433Y0153450D03*
X0226433Y0152950D03*
X0231433Y0158950D03*
X0227433Y0163450D03*
X0232933Y0165450D03*
X0237433Y0163950D03*
X0247433Y0165950D03*
X0247433Y0170950D03*
X0247433Y0175950D03*
X0247433Y0180950D03*
X0247433Y0185950D03*
X0247433Y0190950D03*
X0247433Y0195950D03*
X0247433Y0200950D03*
X0252433Y0200950D03*
X0252433Y0195950D03*
X0252433Y0190950D03*
X0252433Y0185950D03*
X0252433Y0180950D03*
X0252433Y0175950D03*
X0252433Y0170950D03*
X0252433Y0165950D03*
X0257433Y0165950D03*
X0257433Y0170950D03*
X0257433Y0175950D03*
X0257433Y0180950D03*
X0257433Y0185950D03*
X0257433Y0190950D03*
X0257433Y0195950D03*
X0257433Y0200950D03*
X0262433Y0200950D03*
X0262433Y0185950D03*
X0262433Y0180950D03*
X0262433Y0175950D03*
X0283433Y0170950D03*
X0283433Y0165950D03*
X0288433Y0165950D03*
X0288433Y0170950D03*
X0293433Y0170950D03*
X0293433Y0165950D03*
X0298433Y0165950D03*
X0298433Y0170950D03*
X0298433Y0175950D03*
X0293433Y0175950D03*
X0293433Y0181950D03*
X0288433Y0181950D03*
X0283433Y0181950D03*
X0283433Y0196950D03*
X0283433Y0201950D03*
X0288433Y0201950D03*
X0288433Y0196950D03*
X0293433Y0196950D03*
X0293433Y0201950D03*
X0298433Y0201950D03*
X0298433Y0196950D03*
X0298433Y0191950D03*
X0303433Y0191950D03*
X0303433Y0186950D03*
X0299933Y0183950D03*
X0298433Y0181950D03*
X0303433Y0181950D03*
X0303433Y0175950D03*
X0303433Y0170950D03*
X0303433Y0165950D03*
X0303433Y0196950D03*
X0303433Y0201950D03*
X0286933Y0211450D03*
X0292433Y0224450D03*
X0299933Y0230450D03*
X0303933Y0230700D03*
X0310933Y0224450D03*
X0316933Y0228450D03*
X0322433Y0232950D03*
X0330433Y0230950D03*
X0330433Y0243950D03*
X0335433Y0255950D03*
X0352433Y0255450D03*
X0352433Y0258950D03*
X0355933Y0258950D03*
X0355933Y0255450D03*
X0355933Y0251950D03*
X0373933Y0230950D03*
X0381933Y0232950D03*
X0389933Y0226450D03*
X0386933Y0220950D03*
X0381933Y0224450D03*
X0383433Y0213950D03*
X0411433Y0212450D03*
X0417933Y0216950D03*
X0422433Y0214950D03*
X0443433Y0217950D03*
X0447433Y0222450D03*
X0452433Y0217950D03*
X0461933Y0224950D03*
X0461433Y0231950D03*
X0454433Y0235450D03*
X0457933Y0241450D03*
X0448433Y0243450D03*
X0456933Y0250450D03*
X0452933Y0254950D03*
X0445433Y0257450D03*
X0442933Y0261950D03*
X0437933Y0261950D03*
X0432933Y0261950D03*
X0427933Y0261950D03*
X0422933Y0261950D03*
X0417933Y0261950D03*
X0412933Y0261950D03*
X0407933Y0261950D03*
X0402933Y0261950D03*
X0397933Y0261950D03*
X0392933Y0261950D03*
X0387933Y0261950D03*
X0387933Y0266950D03*
X0387933Y0271950D03*
X0382933Y0271950D03*
X0377933Y0271950D03*
X0377933Y0276950D03*
X0377933Y0281950D03*
X0377933Y0286950D03*
X0372933Y0286950D03*
X0368933Y0286950D03*
X0365933Y0286950D03*
X0362933Y0286950D03*
X0362933Y0283950D03*
X0362933Y0280950D03*
X0365933Y0280950D03*
X0365933Y0283950D03*
X0368933Y0283950D03*
X0368933Y0280950D03*
X0372933Y0281450D03*
X0382933Y0281950D03*
X0382933Y0276950D03*
X0387933Y0276950D03*
X0387933Y0281950D03*
X0387933Y0286950D03*
X0382933Y0286950D03*
X0377933Y0291950D03*
X0377933Y0296950D03*
X0377933Y0301950D03*
X0377933Y0306950D03*
X0367933Y0306950D03*
X0367933Y0301950D03*
X0353933Y0299950D03*
X0349933Y0299950D03*
X0349933Y0303950D03*
X0353933Y0303950D03*
X0353933Y0307950D03*
X0340433Y0302950D03*
X0349933Y0295450D03*
X0349933Y0291450D03*
X0353933Y0291450D03*
X0353933Y0295450D03*
X0354933Y0286950D03*
X0358933Y0283950D03*
X0354933Y0280950D03*
X0318433Y0280450D03*
X0318933Y0273450D03*
X0319933Y0265450D03*
X0315433Y0259950D03*
X0312433Y0251950D03*
X0307433Y0259950D03*
X0302933Y0264950D03*
X0298933Y0260450D03*
X0297933Y0268450D03*
X0303933Y0273450D03*
X0306933Y0286950D03*
X0303933Y0294950D03*
X0305933Y0300950D03*
X0323933Y0319450D03*
X0332433Y0333950D03*
X0270508Y0292950D03*
X0266508Y0297450D03*
X0259508Y0297450D03*
X0271508Y0282450D03*
X0274433Y0284450D03*
X0271008Y0271950D03*
X0267008Y0267450D03*
X0260008Y0267450D03*
X0256008Y0271950D03*
X0255758Y0275450D03*
X0250980Y0274663D03*
X0246133Y0258750D03*
X0236465Y0253481D03*
X0236433Y0248950D03*
X0226827Y0253588D03*
X0224933Y0249450D03*
X0215433Y0251450D03*
X0210433Y0254450D03*
X0210433Y0247950D03*
X0200433Y0250950D03*
X0200433Y0255950D03*
X0190433Y0256950D03*
X0190165Y0262163D03*
X0185433Y0254450D03*
X0181933Y0249450D03*
X0185183Y0240200D03*
X0185183Y0236200D03*
X0185183Y0232200D03*
X0181183Y0232200D03*
X0181183Y0235200D03*
X0181183Y0238700D03*
X0167933Y0243450D03*
X0160933Y0239950D03*
X0155933Y0240450D03*
X0150433Y0237450D03*
X0143433Y0237950D03*
X0144433Y0243450D03*
X0142933Y0252450D03*
X0147433Y0253450D03*
X0145933Y0257950D03*
X0153433Y0250950D03*
X0161433Y0256450D03*
X0164933Y0259950D03*
X0166059Y0263950D03*
X0170559Y0263950D03*
X0170933Y0259950D03*
X0173933Y0255950D03*
X0167933Y0255450D03*
X0176059Y0273450D03*
X0183161Y0274245D03*
X0176059Y0280769D03*
X0183161Y0282745D03*
X0187496Y0286245D03*
X0211685Y0286871D03*
X0219335Y0286895D03*
X0212374Y0276867D03*
X0230201Y0271367D03*
X0240433Y0238950D03*
X0240433Y0230450D03*
X0240433Y0223450D03*
X0239933Y0217950D03*
X0239933Y0204450D03*
X0239933Y0195950D03*
X0239933Y0183950D03*
X0239933Y0173950D03*
X0257933Y0219450D03*
X0272433Y0227450D03*
X0276933Y0230450D03*
X0272433Y0234450D03*
X0272433Y0241450D03*
X0274933Y0245450D03*
X0285933Y0254950D03*
X0281933Y0260450D03*
X0282933Y0268450D03*
X0270683Y0259450D03*
X0294933Y0254950D03*
X0299933Y0245450D03*
X0304683Y0243950D03*
X0316933Y0220450D03*
X0321933Y0215950D03*
X0330433Y0215950D03*
X0330433Y0204950D03*
X0322433Y0204950D03*
X0348433Y0189950D03*
X0348433Y0181450D03*
X0351933Y0178450D03*
X0366933Y0136450D03*
X0367433Y0119450D03*
X0365933Y0086950D03*
X0375433Y0086950D03*
X0384933Y0086950D03*
X0431433Y0123450D03*
X0437433Y0124450D03*
X0431433Y0148450D03*
X0448433Y0166950D03*
X0451433Y0166950D03*
X0454433Y0166950D03*
X0457433Y0166950D03*
X0460433Y0166950D03*
X0463433Y0166950D03*
X0466433Y0166950D03*
X0469433Y0166950D03*
X0472433Y0166950D03*
X0475433Y0166950D03*
X0478433Y0166950D03*
X0478433Y0171450D03*
X0475433Y0171450D03*
X0472433Y0171450D03*
X0469433Y0171450D03*
X0466433Y0171450D03*
X0463433Y0171450D03*
X0460433Y0171450D03*
X0457433Y0171450D03*
X0454433Y0171450D03*
X0451433Y0171450D03*
X0448433Y0171450D03*
X0448433Y0175950D03*
X0451433Y0175950D03*
X0454433Y0175950D03*
X0457433Y0175950D03*
X0460433Y0175950D03*
X0463433Y0175950D03*
X0466433Y0175950D03*
X0469433Y0175950D03*
X0472433Y0175950D03*
X0475433Y0175950D03*
X0478433Y0175950D03*
X0478433Y0180450D03*
X0475433Y0180450D03*
X0472433Y0180450D03*
X0469433Y0180450D03*
X0466433Y0180450D03*
X0463433Y0180450D03*
X0460433Y0180450D03*
X0457433Y0180450D03*
X0454433Y0180450D03*
X0451433Y0180450D03*
X0448433Y0180450D03*
X0448433Y0184950D03*
X0451433Y0184950D03*
X0454433Y0184950D03*
X0457433Y0184950D03*
X0460433Y0184950D03*
X0463433Y0184950D03*
X0466433Y0184950D03*
X0469433Y0184950D03*
X0472433Y0184950D03*
X0475433Y0184950D03*
X0478433Y0184950D03*
X0478433Y0189450D03*
X0475433Y0189450D03*
X0472433Y0189450D03*
X0469433Y0189450D03*
X0466433Y0189450D03*
X0463433Y0189450D03*
X0460433Y0189450D03*
X0457433Y0189450D03*
X0454433Y0189450D03*
X0451433Y0189450D03*
X0448433Y0189450D03*
X0448433Y0193950D03*
X0451433Y0193950D03*
X0454433Y0193950D03*
X0457433Y0193950D03*
X0460433Y0193950D03*
X0463433Y0193950D03*
X0466433Y0193950D03*
X0469433Y0193950D03*
X0472433Y0193950D03*
X0475433Y0193950D03*
X0478433Y0193950D03*
X0478433Y0198450D03*
X0475433Y0198450D03*
X0472433Y0198450D03*
X0469433Y0198450D03*
X0466433Y0198450D03*
X0463433Y0198450D03*
X0460433Y0198450D03*
X0457433Y0198450D03*
X0454433Y0198450D03*
X0451433Y0198450D03*
X0448433Y0198450D03*
X0448433Y0202950D03*
X0451433Y0202950D03*
X0454433Y0202950D03*
X0457433Y0202950D03*
X0460433Y0202950D03*
X0463433Y0202950D03*
X0466433Y0202950D03*
X0469433Y0202950D03*
X0472433Y0202950D03*
X0475433Y0202950D03*
X0478433Y0202950D03*
X0480433Y0219450D03*
X0478433Y0222450D03*
X0464933Y0218950D03*
X0471933Y0241450D03*
X0478933Y0250450D03*
X0472933Y0256450D03*
X0461433Y0256450D03*
X0457933Y0261950D03*
X0452933Y0261950D03*
X0447933Y0261950D03*
X0452933Y0266950D03*
X0452933Y0271950D03*
X0452933Y0276950D03*
X0452933Y0281950D03*
X0452933Y0286950D03*
X0452933Y0291950D03*
X0452933Y0296950D03*
X0452933Y0301950D03*
X0452933Y0306950D03*
X0457933Y0306950D03*
X0457933Y0301950D03*
X0457933Y0296950D03*
X0457933Y0291950D03*
X0457933Y0286950D03*
X0457933Y0281950D03*
X0457933Y0276950D03*
X0457933Y0271950D03*
X0457933Y0266950D03*
X0434433Y0246950D03*
X0424433Y0247950D03*
X0417933Y0253950D03*
X0410933Y0249450D03*
X0404433Y0249450D03*
X0399933Y0245450D03*
X0392933Y0242950D03*
X0404433Y0234950D03*
X0407933Y0241950D03*
X0407933Y0266950D03*
X0402933Y0266950D03*
X0397933Y0266950D03*
X0392933Y0266950D03*
X0392933Y0271950D03*
X0392933Y0276950D03*
X0392933Y0281950D03*
X0397933Y0281950D03*
X0397933Y0276950D03*
X0397933Y0271950D03*
X0402933Y0271950D03*
X0402933Y0276950D03*
X0402933Y0281950D03*
X0402933Y0286950D03*
X0397933Y0286950D03*
X0407933Y0286950D03*
X0407933Y0281950D03*
X0407933Y0276950D03*
X0407933Y0271950D03*
X0412933Y0271950D03*
X0412933Y0266950D03*
X0412933Y0276950D03*
X0412933Y0281950D03*
X0412933Y0286950D03*
X0412933Y0291950D03*
X0407933Y0291950D03*
X0407933Y0296950D03*
X0407933Y0301950D03*
X0407933Y0306950D03*
X0412933Y0306950D03*
X0412933Y0301950D03*
X0412933Y0296950D03*
X0446433Y0313450D03*
X0438433Y0236950D03*
X0434539Y0189556D03*
X0457933Y0086950D03*
X0467933Y0086950D03*
X0263683Y0067450D03*
X0252433Y0067450D03*
X0208933Y0112950D03*
X0218433Y0120950D03*
X0227933Y0120950D03*
X0186933Y0176450D03*
X0183433Y0175950D03*
X0181433Y0180450D03*
X0164433Y0177950D03*
X0152433Y0198950D03*
X0161933Y0200950D03*
X0159933Y0217450D03*
X0160933Y0221950D03*
X0160433Y0226950D03*
X0160433Y0232950D03*
X0134433Y0238950D03*
X0135433Y0253450D03*
X0122433Y0253950D03*
X0111933Y0252450D03*
X0108933Y0247450D03*
X0103933Y0247950D03*
X0098933Y0250950D03*
X0102433Y0253950D03*
X0098433Y0245450D03*
X0092433Y0253950D03*
X0097933Y0238950D03*
X0076933Y0236950D03*
X0075433Y0230450D03*
X0077433Y0224950D03*
X0075433Y0215450D03*
X0077433Y0245450D03*
X0075933Y0252950D03*
X0103433Y0279450D03*
X0106933Y0288450D03*
X0100933Y0297950D03*
X0095933Y0300450D03*
X0092012Y0297745D03*
X0112933Y0297950D03*
X0120933Y0297950D03*
X0141059Y0294450D03*
X0140559Y0285950D03*
X0135059Y0281950D03*
X0135059Y0272950D03*
X0140559Y0268950D03*
X0148559Y0269950D03*
X0148559Y0284950D03*
X0124433Y0279450D03*
X0189933Y0249950D03*
X0141933Y0208450D03*
X0141933Y0201950D03*
X0130933Y0210450D03*
X0099433Y0181450D03*
X0093933Y0170950D03*
X0087933Y0073950D03*
X0105433Y0066450D03*
X0116433Y0063950D03*
X0117433Y0069450D03*
D65*
X0175333Y0115950D02*
X0175333Y0124950D01*
X0293933Y0259950D02*
X0294433Y0260450D01*
X0256858Y0288235D02*
X0256858Y0298123D01*
X0258534Y0299800D01*
X0265970Y0299800D01*
X0269034Y0302863D01*
X0258154Y0303257D02*
X0254610Y0299714D01*
X0254610Y0296958D01*
X0247980Y0289871D01*
X0247980Y0282513D01*
X0247858Y0282391D01*
X0241618Y0282641D02*
X0241618Y0287115D01*
X0246736Y0292233D01*
X0246768Y0292233D01*
X0249524Y0294989D01*
X0249524Y0328879D01*
X0256185Y0335541D01*
X0270358Y0335541D01*
X0274295Y0337509D02*
X0274295Y0331997D01*
X0278232Y0335541D02*
X0278626Y0335541D01*
X0282957Y0339871D01*
X0282957Y0347352D01*
X0285319Y0349714D01*
X0290043Y0349714D01*
X0298667Y0341090D01*
X0298667Y0334716D01*
X0275476Y0338690D02*
X0274295Y0337509D01*
X0256858Y0288235D02*
X0256579Y0287956D01*
X0346630Y0222450D02*
X0348433Y0220647D01*
X0408933Y0168450D02*
X0416933Y0176450D01*
X0416933Y0177950D01*
X0432933Y0177950D01*
X0432933Y0173450D01*
X0426933Y0167450D01*
X0426933Y0163950D01*
X0424933Y0161950D01*
X0408933Y0161950D01*
X0408933Y0168450D01*
X0409271Y0168788D02*
X0428271Y0168788D01*
X0429269Y0169786D02*
X0410269Y0169786D01*
X0411268Y0170785D02*
X0430268Y0170785D01*
X0431266Y0171783D02*
X0412266Y0171783D01*
X0413265Y0172782D02*
X0432265Y0172782D01*
X0432933Y0173780D02*
X0414263Y0173780D01*
X0415262Y0174779D02*
X0432933Y0174779D01*
X0432933Y0175777D02*
X0416260Y0175777D01*
X0416933Y0176776D02*
X0432933Y0176776D01*
X0432933Y0177774D02*
X0416933Y0177774D01*
X0408933Y0167789D02*
X0427272Y0167789D01*
X0426933Y0166791D02*
X0408933Y0166791D01*
X0408933Y0165792D02*
X0426933Y0165792D01*
X0426933Y0164794D02*
X0408933Y0164794D01*
X0408933Y0163795D02*
X0426778Y0163795D01*
X0425780Y0162797D02*
X0408933Y0162797D01*
X0431343Y0140829D02*
X0514933Y0140829D01*
X0514933Y0139831D02*
X0430363Y0139831D01*
X0429858Y0139317D02*
X0427933Y0137450D01*
X0409933Y0137450D01*
X0405433Y0132950D01*
X0405433Y0126950D01*
X0409433Y0122950D01*
X0425433Y0122950D01*
X0430270Y0125610D01*
X0430460Y0125800D01*
X0430615Y0125800D01*
X0455433Y0139450D01*
X0514933Y0139450D01*
X0514933Y0240950D01*
X0485933Y0240950D01*
X0485933Y0216950D01*
X0477347Y0216950D01*
X0475933Y0215536D01*
X0475933Y0206450D01*
X0436933Y0206450D01*
X0436933Y0146526D01*
X0429858Y0139317D01*
X0429359Y0138832D02*
X0454310Y0138832D01*
X0452495Y0137834D02*
X0428329Y0137834D01*
X0432322Y0141828D02*
X0514933Y0141828D01*
X0514933Y0142826D02*
X0433302Y0142826D01*
X0434282Y0143825D02*
X0514933Y0143825D01*
X0514933Y0144823D02*
X0435262Y0144823D01*
X0436242Y0145822D02*
X0514933Y0145822D01*
X0514933Y0146820D02*
X0436933Y0146820D01*
X0436933Y0147819D02*
X0514933Y0147819D01*
X0514933Y0148818D02*
X0436933Y0148818D01*
X0436933Y0149816D02*
X0514933Y0149816D01*
X0514933Y0150815D02*
X0436933Y0150815D01*
X0436933Y0151813D02*
X0514933Y0151813D01*
X0514933Y0152812D02*
X0436933Y0152812D01*
X0436933Y0153810D02*
X0514933Y0153810D01*
X0514933Y0154809D02*
X0436933Y0154809D01*
X0436933Y0155807D02*
X0514933Y0155807D01*
X0514933Y0156806D02*
X0436933Y0156806D01*
X0436933Y0157804D02*
X0514933Y0157804D01*
X0514933Y0158803D02*
X0436933Y0158803D01*
X0436933Y0159801D02*
X0514933Y0159801D01*
X0514933Y0160800D02*
X0499881Y0160800D01*
X0498563Y0160254D02*
X0501576Y0161502D01*
X0503881Y0163807D01*
X0505129Y0166820D01*
X0505129Y0170080D01*
X0503881Y0173093D01*
X0501576Y0175398D01*
X0498563Y0176646D01*
X0495303Y0176646D01*
X0492290Y0175398D01*
X0489985Y0173093D01*
X0488737Y0170080D01*
X0488737Y0166820D01*
X0489985Y0163807D01*
X0492290Y0161502D01*
X0495303Y0160254D01*
X0498563Y0160254D01*
X0501872Y0161798D02*
X0514933Y0161798D01*
X0514933Y0162797D02*
X0502871Y0162797D01*
X0503869Y0163795D02*
X0514933Y0163795D01*
X0514933Y0164794D02*
X0504290Y0164794D01*
X0504704Y0165792D02*
X0514933Y0165792D01*
X0514933Y0166791D02*
X0505117Y0166791D01*
X0505129Y0167789D02*
X0514933Y0167789D01*
X0514933Y0168788D02*
X0505129Y0168788D01*
X0505129Y0169786D02*
X0514933Y0169786D01*
X0514933Y0170785D02*
X0504837Y0170785D01*
X0504424Y0171783D02*
X0514933Y0171783D01*
X0514933Y0172782D02*
X0504010Y0172782D01*
X0503194Y0173780D02*
X0514933Y0173780D01*
X0514933Y0174779D02*
X0502195Y0174779D01*
X0500661Y0175777D02*
X0514933Y0175777D01*
X0514933Y0176776D02*
X0436933Y0176776D01*
X0436933Y0177774D02*
X0514933Y0177774D01*
X0514933Y0178773D02*
X0436933Y0178773D01*
X0436933Y0179771D02*
X0514933Y0179771D01*
X0514933Y0180770D02*
X0436933Y0180770D01*
X0436933Y0181768D02*
X0514933Y0181768D01*
X0514933Y0182767D02*
X0436933Y0182767D01*
X0436933Y0183765D02*
X0514933Y0183765D01*
X0514933Y0184764D02*
X0436933Y0184764D01*
X0436933Y0185762D02*
X0514933Y0185762D01*
X0514933Y0186761D02*
X0436933Y0186761D01*
X0436933Y0187759D02*
X0514933Y0187759D01*
X0514933Y0188758D02*
X0436933Y0188758D01*
X0436933Y0189756D02*
X0514933Y0189756D01*
X0514933Y0190755D02*
X0436933Y0190755D01*
X0436933Y0191753D02*
X0514933Y0191753D01*
X0514933Y0192752D02*
X0436933Y0192752D01*
X0436933Y0193751D02*
X0514933Y0193751D01*
X0514933Y0194749D02*
X0436933Y0194749D01*
X0436933Y0195748D02*
X0514933Y0195748D01*
X0514933Y0196746D02*
X0436933Y0196746D01*
X0436933Y0197745D02*
X0514933Y0197745D01*
X0514933Y0198743D02*
X0436933Y0198743D01*
X0436933Y0199742D02*
X0514933Y0199742D01*
X0514933Y0200740D02*
X0436933Y0200740D01*
X0436933Y0201739D02*
X0514933Y0201739D01*
X0514933Y0202737D02*
X0436933Y0202737D01*
X0436933Y0203736D02*
X0514933Y0203736D01*
X0514933Y0204734D02*
X0436933Y0204734D01*
X0436933Y0205733D02*
X0514933Y0205733D01*
X0514933Y0206731D02*
X0475933Y0206731D01*
X0475933Y0207730D02*
X0514933Y0207730D01*
X0514933Y0208728D02*
X0475933Y0208728D01*
X0475933Y0209727D02*
X0514933Y0209727D01*
X0514933Y0210725D02*
X0475933Y0210725D01*
X0475933Y0211724D02*
X0514933Y0211724D01*
X0514933Y0212722D02*
X0475933Y0212722D01*
X0475933Y0213721D02*
X0514933Y0213721D01*
X0514933Y0214719D02*
X0475933Y0214719D01*
X0476115Y0215718D02*
X0514933Y0215718D01*
X0514933Y0216716D02*
X0477114Y0216716D01*
X0485933Y0217715D02*
X0514933Y0217715D01*
X0514933Y0218713D02*
X0485933Y0218713D01*
X0485933Y0219712D02*
X0514933Y0219712D01*
X0514933Y0220710D02*
X0485933Y0220710D01*
X0485933Y0221709D02*
X0514933Y0221709D01*
X0514933Y0222707D02*
X0485933Y0222707D01*
X0485933Y0223706D02*
X0514933Y0223706D01*
X0514933Y0224704D02*
X0485933Y0224704D01*
X0485933Y0225703D02*
X0514933Y0225703D01*
X0514933Y0226701D02*
X0485933Y0226701D01*
X0485933Y0227700D02*
X0514933Y0227700D01*
X0514933Y0228698D02*
X0485933Y0228698D01*
X0485933Y0229697D02*
X0514933Y0229697D01*
X0514933Y0230695D02*
X0485933Y0230695D01*
X0485933Y0231694D02*
X0514933Y0231694D01*
X0514933Y0232692D02*
X0485933Y0232692D01*
X0485933Y0233691D02*
X0514933Y0233691D01*
X0514933Y0234689D02*
X0485933Y0234689D01*
X0485933Y0235688D02*
X0514933Y0235688D01*
X0514933Y0236687D02*
X0485933Y0236687D01*
X0485933Y0237685D02*
X0514933Y0237685D01*
X0514933Y0238684D02*
X0485933Y0238684D01*
X0485933Y0239682D02*
X0514933Y0239682D01*
X0514933Y0240681D02*
X0485933Y0240681D01*
X0493205Y0175777D02*
X0436933Y0175777D01*
X0436933Y0174779D02*
X0491671Y0174779D01*
X0490672Y0173780D02*
X0436933Y0173780D01*
X0436933Y0172782D02*
X0489856Y0172782D01*
X0489442Y0171783D02*
X0436933Y0171783D01*
X0436933Y0170785D02*
X0489029Y0170785D01*
X0488737Y0169786D02*
X0436933Y0169786D01*
X0436933Y0168788D02*
X0488737Y0168788D01*
X0488737Y0167789D02*
X0436933Y0167789D01*
X0436933Y0166791D02*
X0488749Y0166791D01*
X0489163Y0165792D02*
X0436933Y0165792D01*
X0436933Y0164794D02*
X0489576Y0164794D01*
X0489997Y0163795D02*
X0436933Y0163795D01*
X0436933Y0162797D02*
X0490995Y0162797D01*
X0491994Y0161798D02*
X0436933Y0161798D01*
X0436933Y0160800D02*
X0493985Y0160800D01*
X0450679Y0136835D02*
X0409318Y0136835D01*
X0408320Y0135837D02*
X0448864Y0135837D01*
X0447048Y0134838D02*
X0407321Y0134838D01*
X0406323Y0133840D02*
X0445233Y0133840D01*
X0443417Y0132841D02*
X0405433Y0132841D01*
X0405433Y0131843D02*
X0441602Y0131843D01*
X0439786Y0130844D02*
X0405433Y0130844D01*
X0405433Y0129846D02*
X0437971Y0129846D01*
X0436155Y0128847D02*
X0405433Y0128847D01*
X0405433Y0127849D02*
X0434340Y0127849D01*
X0432524Y0126850D02*
X0405533Y0126850D01*
X0406531Y0125852D02*
X0430709Y0125852D01*
X0428894Y0124853D02*
X0407530Y0124853D01*
X0408528Y0123855D02*
X0427078Y0123855D01*
D66*
X0431433Y0123450D02*
X0431433Y0113450D01*
X0457933Y0086950D01*
X0467933Y0086950D02*
X0437433Y0117450D01*
X0437433Y0124450D01*
X0424933Y0140450D02*
X0408433Y0140450D01*
X0408433Y0154950D01*
X0424933Y0154950D01*
X0424933Y0140450D01*
X0424933Y0141240D02*
X0408433Y0141240D01*
X0408433Y0142338D02*
X0424933Y0142338D01*
X0424933Y0143437D02*
X0408433Y0143437D01*
X0408433Y0144535D02*
X0424933Y0144535D01*
X0424933Y0145634D02*
X0408433Y0145634D01*
X0408433Y0146732D02*
X0424933Y0146732D01*
X0424933Y0147831D02*
X0408433Y0147831D01*
X0408433Y0148929D02*
X0424933Y0148929D01*
X0424933Y0150028D02*
X0408433Y0150028D01*
X0408433Y0151126D02*
X0424933Y0151126D01*
X0424933Y0152225D02*
X0408433Y0152225D01*
X0408433Y0153323D02*
X0424933Y0153323D01*
X0424933Y0154422D02*
X0408433Y0154422D01*
X0410598Y0168285D02*
X0418004Y0166820D01*
X0425383Y0174950D02*
X0425383Y0179500D01*
X0418433Y0186450D01*
X0397433Y0186450D01*
X0386433Y0186450D01*
X0381033Y0181050D01*
X0380933Y0181050D01*
X0380933Y0187850D02*
X0384833Y0187850D01*
X0390433Y0193450D01*
X0390433Y0194548D01*
X0388433Y0198950D02*
X0390248Y0200765D01*
X0390248Y0211687D01*
X0390433Y0211871D01*
X0392295Y0217400D02*
X0397433Y0212262D01*
X0397433Y0186450D01*
X0397433Y0181950D02*
X0390433Y0181950D01*
X0406933Y0175950D02*
X0408433Y0177450D01*
X0408571Y0177450D01*
X0413071Y0181950D01*
X0406933Y0175950D02*
X0370433Y0175950D01*
X0370433Y0179037D01*
X0370020Y0179450D01*
X0370433Y0175950D02*
X0366933Y0172450D01*
X0366933Y0136450D01*
X0367054Y0137288D01*
X0367433Y0119450D02*
X0375433Y0111450D01*
X0375433Y0086950D01*
X0431433Y0148450D02*
X0431433Y0150450D01*
X0434539Y0153556D01*
X0434539Y0189556D01*
X0425383Y0194950D02*
X0425383Y0198900D01*
X0425433Y0198950D01*
X0425433Y0201550D01*
X0421433Y0201550D01*
X0425433Y0201550D02*
X0428933Y0201550D01*
X0431933Y0204950D02*
X0435433Y0208450D01*
X0466433Y0208450D01*
X0468433Y0210450D01*
X0468433Y0226550D01*
X0467433Y0227550D01*
X0475933Y0227550D01*
X0478352Y0230950D02*
X0470833Y0230950D01*
X0467433Y0234350D01*
X0465033Y0231950D01*
X0461433Y0231950D01*
X0461248Y0228210D02*
X0466093Y0228210D01*
X0467093Y0227210D01*
X0467433Y0227550D01*
X0467433Y0234350D02*
X0467533Y0235450D01*
X0475933Y0234350D02*
X0476033Y0234450D01*
X0478328Y0234450D01*
X0481933Y0230844D01*
X0481933Y0220950D01*
X0480433Y0219450D01*
X0478433Y0222450D02*
X0479933Y0223950D01*
X0479933Y0229369D01*
X0478352Y0230950D01*
X0454433Y0235450D02*
X0450858Y0235450D01*
X0450618Y0235690D01*
X0451433Y0236505D01*
X0451433Y0242550D01*
X0452933Y0244050D01*
X0446033Y0250950D01*
X0441333Y0250950D01*
X0440933Y0245450D02*
X0440933Y0240350D01*
X0444433Y0236850D01*
X0444433Y0230050D02*
X0443833Y0229450D01*
X0438764Y0229450D01*
X0444933Y0225450D02*
X0447858Y0225450D01*
X0450618Y0228210D01*
X0444933Y0225450D02*
X0434433Y0214950D01*
X0422433Y0214950D01*
X0424833Y0212450D02*
X0418686Y0212450D01*
X0411673Y0219463D01*
X0411673Y0222119D01*
X0407933Y0222119D02*
X0407933Y0223647D01*
X0406130Y0225450D01*
X0399333Y0225450D01*
X0397933Y0224050D01*
X0401333Y0227450D02*
X0406933Y0227450D01*
X0408933Y0225450D01*
X0420833Y0225450D01*
X0424833Y0221450D01*
X0425843Y0221450D01*
X0430102Y0225710D01*
X0430102Y0229450D02*
X0425033Y0229450D01*
X0424986Y0229452D01*
X0424939Y0229457D01*
X0424893Y0229467D01*
X0424848Y0229479D01*
X0424803Y0229496D01*
X0424761Y0229515D01*
X0424720Y0229538D01*
X0424680Y0229565D01*
X0424643Y0229594D01*
X0424609Y0229626D01*
X0424577Y0229660D01*
X0424548Y0229697D01*
X0424521Y0229737D01*
X0424498Y0229778D01*
X0424479Y0229820D01*
X0424462Y0229865D01*
X0424450Y0229910D01*
X0424440Y0229956D01*
X0424435Y0230003D01*
X0424433Y0230050D01*
X0421593Y0233190D02*
X0417933Y0236850D01*
X0417933Y0243050D01*
X0417933Y0249850D02*
X0417933Y0253950D01*
X0427933Y0245450D02*
X0427933Y0240350D01*
X0424433Y0236850D01*
X0421593Y0233190D02*
X0430102Y0233190D01*
X0424833Y0221550D02*
X0424833Y0221450D01*
X0418033Y0221450D02*
X0418033Y0217050D01*
X0417933Y0216950D01*
X0411433Y0212450D02*
X0406933Y0216950D01*
X0395933Y0216950D01*
X0393433Y0219450D01*
X0393433Y0233950D01*
X0390033Y0237350D01*
X0389933Y0237350D01*
X0374333Y0237350D01*
X0370433Y0233450D01*
X0370433Y0226950D01*
X0368433Y0224950D01*
X0362642Y0224950D01*
X0355933Y0224950D01*
X0354333Y0226550D01*
X0354333Y0238950D01*
X0358333Y0242950D01*
X0354933Y0247950D02*
X0344933Y0257950D01*
X0344933Y0307450D01*
X0348433Y0310950D01*
X0362933Y0310950D01*
X0366933Y0314950D01*
X0431933Y0314950D01*
X0435433Y0318450D01*
X0486533Y0318450D01*
X0490033Y0314950D01*
X0490033Y0334950D02*
X0367433Y0334950D01*
X0362433Y0329950D01*
X0353433Y0329950D01*
X0326933Y0303450D01*
X0326933Y0255950D01*
X0310933Y0239950D01*
X0310933Y0224450D01*
X0299433Y0226450D02*
X0299433Y0219550D01*
X0299533Y0219450D01*
X0299533Y0218350D01*
X0291433Y0218350D01*
X0290433Y0222450D02*
X0292433Y0224450D01*
X0292433Y0229150D01*
X0292233Y0229350D01*
X0289733Y0229350D02*
X0289733Y0224450D01*
X0282054Y0224450D01*
X0279933Y0222329D01*
X0279933Y0216753D01*
X0281736Y0214950D01*
X0295433Y0214950D01*
X0298933Y0211450D01*
X0299533Y0211450D01*
X0299533Y0218250D02*
X0299533Y0219450D01*
X0299533Y0218250D02*
X0306333Y0211450D01*
X0314433Y0212950D02*
X0314433Y0238450D01*
X0329433Y0253450D01*
X0329433Y0301976D01*
X0348907Y0321450D01*
X0364933Y0321450D01*
X0368933Y0325450D01*
X0358033Y0334950D02*
X0345933Y0334950D01*
X0336633Y0325650D01*
X0328933Y0325650D01*
X0323933Y0319450D02*
X0313933Y0319450D01*
X0298667Y0334716D01*
X0304610Y0342218D02*
X0304610Y0354800D01*
X0301461Y0357950D01*
X0267209Y0357950D01*
X0267315Y0344293D02*
X0262795Y0344293D01*
X0275476Y0338690D02*
X0277445Y0340659D01*
X0277315Y0340789D01*
X0277315Y0344293D01*
X0277182Y0344288D02*
X0277191Y0344007D01*
X0277191Y0343110D01*
X0277220Y0343081D01*
X0277222Y0343039D01*
X0277445Y0342830D01*
X0277445Y0340659D01*
X0261697Y0324123D02*
X0262234Y0323586D01*
X0262234Y0311919D01*
X0262234Y0310451D01*
X0269034Y0303651D01*
X0269034Y0302863D01*
X0262234Y0303651D02*
X0261840Y0303257D01*
X0258154Y0303257D01*
X0268649Y0311919D02*
X0268783Y0311919D01*
X0269441Y0312576D01*
X0269571Y0312456D02*
X0269034Y0311919D01*
X0268783Y0311919D01*
X0269571Y0312456D02*
X0269571Y0317430D01*
X0256911Y0287956D02*
X0258677Y0286190D01*
X0256911Y0287956D02*
X0256579Y0287956D01*
X0250980Y0287956D01*
X0250980Y0288690D01*
X0247917Y0282450D02*
X0247858Y0282391D01*
X0247858Y0277607D01*
X0245555Y0275304D01*
X0242155Y0275304D01*
X0241618Y0275841D01*
X0235659Y0272602D02*
X0239563Y0268698D01*
X0249185Y0268698D01*
X0253433Y0264450D01*
X0270933Y0264450D01*
X0274433Y0267950D01*
X0274433Y0284450D01*
X0258677Y0282450D02*
X0247917Y0282450D01*
X0241618Y0282641D02*
X0241224Y0283035D01*
X0235659Y0285880D02*
X0235659Y0272602D01*
X0230201Y0271367D02*
X0230201Y0276034D01*
X0222780Y0276034D01*
X0222780Y0282834D02*
X0230598Y0282834D01*
X0230598Y0276034D02*
X0230201Y0276034D01*
X0239256Y0265751D02*
X0240437Y0264570D01*
X0249782Y0264570D01*
X0262402Y0251950D01*
X0279683Y0251950D01*
X0279683Y0252450D01*
X0311683Y0252450D01*
X0312433Y0251950D01*
X0327433Y0246950D02*
X0327433Y0242450D01*
X0335433Y0234450D01*
X0335433Y0223864D01*
X0336847Y0222450D01*
X0346630Y0222450D01*
X0348433Y0220647D02*
X0348433Y0215950D01*
X0359433Y0204950D01*
X0362642Y0204950D01*
X0374006Y0204950D01*
X0376506Y0202450D01*
X0374533Y0194450D02*
X0363433Y0194450D01*
X0349433Y0208450D01*
X0349433Y0210450D01*
X0344933Y0214950D01*
X0342169Y0214950D01*
X0335433Y0214950D01*
X0326433Y0205950D01*
X0326433Y0172450D01*
X0261433Y0107450D01*
X0248933Y0107450D01*
X0242433Y0100950D01*
X0229346Y0100950D01*
X0227933Y0102363D01*
X0218433Y0102363D01*
X0218120Y0102050D01*
X0208933Y0102050D01*
X0200133Y0102050D01*
X0193433Y0108750D01*
X0208933Y0102050D02*
X0209533Y0101450D01*
X0218433Y0116537D02*
X0218433Y0120950D01*
X0227933Y0120950D02*
X0227933Y0116537D01*
X0196183Y0150950D02*
X0191183Y0150950D01*
X0181183Y0150950D02*
X0181033Y0150950D01*
X0181033Y0152522D01*
X0179405Y0154150D01*
X0165714Y0154150D01*
X0164433Y0155431D01*
X0164433Y0165329D01*
X0166054Y0166950D01*
X0172152Y0166950D01*
X0173683Y0168481D01*
X0173683Y0175300D01*
X0176333Y0177950D01*
X0169533Y0177950D02*
X0169533Y0170637D01*
X0169346Y0170450D01*
X0169083Y0140950D02*
X0165433Y0140950D01*
X0161933Y0140450D02*
X0164933Y0137450D01*
X0164933Y0130950D01*
X0165933Y0129950D01*
X0172433Y0129950D01*
X0175333Y0127050D01*
X0175333Y0124950D01*
X0174933Y0132950D02*
X0170283Y0132950D01*
X0170183Y0133050D01*
X0170183Y0139850D02*
X0169083Y0140950D01*
X0161933Y0140450D02*
X0153433Y0140450D01*
X0257933Y0219450D02*
X0262033Y0219450D01*
X0261693Y0219110D01*
X0268833Y0219450D02*
X0276533Y0219450D01*
X0283333Y0219450D02*
X0285433Y0219450D01*
X0288433Y0222450D01*
X0290433Y0222450D01*
X0294933Y0230950D02*
X0299433Y0226450D01*
X0294933Y0230950D02*
X0294933Y0233950D01*
X0289733Y0239150D01*
X0289733Y0246550D01*
X0287133Y0246550D02*
X0287133Y0249750D01*
X0286183Y0250700D01*
X0282083Y0250700D01*
X0279683Y0248300D01*
X0279683Y0248550D01*
X0270683Y0248550D01*
X0264933Y0244450D02*
X0247100Y0262283D01*
X0237878Y0262283D01*
X0236500Y0263661D01*
X0192061Y0263661D01*
X0190634Y0265088D01*
X0180968Y0265088D01*
X0180606Y0265450D01*
X0185713Y0265450D01*
X0180606Y0265450D02*
X0178626Y0267430D01*
X0178626Y0276092D01*
X0176768Y0277950D01*
X0163559Y0277950D01*
X0152505Y0289004D01*
X0111183Y0289004D01*
X0110629Y0288450D01*
X0106933Y0288450D01*
X0106372Y0290850D02*
X0106972Y0291450D01*
X0126118Y0291450D01*
X0140831Y0306163D01*
X0140831Y0317824D01*
X0145949Y0322942D01*
X0158154Y0322942D01*
X0161697Y0319399D01*
X0166028Y0314950D02*
X0155136Y0304059D01*
X0155136Y0301950D01*
X0157559Y0299527D01*
X0157559Y0292186D01*
X0151987Y0294450D02*
X0151987Y0298300D01*
X0148336Y0301950D01*
X0145187Y0294450D02*
X0141059Y0294450D01*
X0148559Y0280950D02*
X0148631Y0280950D01*
X0148531Y0274050D02*
X0148531Y0273950D01*
X0148559Y0273950D01*
X0140559Y0273350D02*
X0140559Y0272950D01*
X0140531Y0273350D02*
X0140559Y0273350D01*
X0124433Y0279450D02*
X0120333Y0279450D01*
X0120673Y0279790D01*
X0120673Y0286182D01*
X0122933Y0294450D02*
X0116933Y0294450D01*
X0112933Y0297950D02*
X0112933Y0302550D01*
X0112933Y0309350D02*
X0108933Y0313350D01*
X0108933Y0336950D01*
X0111933Y0339950D01*
X0116933Y0339950D01*
X0116933Y0349950D02*
X0111933Y0349950D01*
X0106933Y0344950D01*
X0106933Y0297450D01*
X0103933Y0294450D01*
X0095933Y0294450D01*
X0092012Y0297745D02*
X0091933Y0297824D01*
X0091933Y0302550D01*
X0095933Y0300450D02*
X0095933Y0311950D01*
X0090933Y0316950D01*
X0090933Y0325950D01*
X0094933Y0329950D01*
X0095933Y0329950D01*
X0087933Y0335950D02*
X0087933Y0313350D01*
X0091933Y0309350D01*
X0099933Y0309350D02*
X0099933Y0315950D01*
X0095933Y0319950D01*
X0099933Y0302550D02*
X0100933Y0301550D01*
X0100933Y0297950D01*
X0105939Y0290850D02*
X0104217Y0289128D01*
X0104217Y0284753D01*
X0106185Y0282785D01*
X0106185Y0275304D01*
X0103331Y0272450D01*
X0099333Y0272450D01*
X0092533Y0272450D02*
X0092533Y0279450D01*
X0092193Y0279790D01*
X0092193Y0286182D01*
X0099673Y0286182D02*
X0099673Y0279790D01*
X0099333Y0279450D01*
X0103433Y0279450D01*
X0113193Y0279790D02*
X0113193Y0272790D01*
X0113533Y0272450D01*
X0113533Y0279450D02*
X0113193Y0279790D01*
X0113193Y0286182D01*
X0106372Y0290850D02*
X0105939Y0290850D01*
X0120933Y0297950D02*
X0120933Y0302550D01*
X0120933Y0309350D02*
X0121033Y0309450D01*
X0123933Y0309450D01*
X0125045Y0308338D01*
X0125045Y0296562D01*
X0122933Y0294450D01*
X0120933Y0309350D02*
X0120933Y0315950D01*
X0116933Y0319950D01*
X0095933Y0339950D02*
X0091933Y0339950D01*
X0087933Y0335950D01*
X0162559Y0305450D02*
X0163559Y0305450D01*
X0163559Y0303478D01*
X0163059Y0303478D01*
X0166028Y0314950D02*
X0169359Y0314950D01*
X0176059Y0303478D02*
X0176031Y0303450D01*
X0178626Y0289478D02*
X0189576Y0289478D01*
X0189577Y0289478D01*
X0202641Y0289478D01*
X0204826Y0287293D01*
X0204826Y0276620D01*
X0208614Y0272832D01*
X0212354Y0273336D02*
X0212354Y0276848D01*
X0212374Y0276867D01*
X0216094Y0272832D02*
X0216094Y0271041D01*
X0213665Y0268611D01*
X0206579Y0268611D01*
X0202604Y0272586D01*
X0202604Y0282285D01*
X0201192Y0283697D01*
X0198561Y0278454D02*
X0198561Y0270580D01*
X0198890Y0271007D01*
X0198890Y0269107D01*
X0200798Y0268343D02*
X0203390Y0265751D01*
X0239256Y0265751D01*
X0231492Y0290647D02*
X0230892Y0290647D01*
X0230849Y0290864D01*
X0216094Y0283462D02*
X0215286Y0283559D01*
X0191761Y0286328D02*
X0187496Y0286245D01*
X0183161Y0282745D02*
X0183161Y0278345D01*
X0183161Y0270145D02*
X0191327Y0270145D01*
X0191761Y0270580D01*
X0191761Y0278454D02*
X0191812Y0279201D01*
X0167933Y0255450D02*
X0167933Y0249450D01*
X0167933Y0243450D01*
X0167142Y0242659D01*
X0164980Y0242659D01*
X0161433Y0239450D02*
X0160933Y0239950D01*
X0161433Y0239450D02*
X0169433Y0239450D01*
X0170886Y0240903D01*
X0170886Y0242659D01*
X0261193Y0227182D02*
X0269173Y0219202D01*
X0269173Y0219110D01*
X0268833Y0219450D01*
X0268673Y0227182D02*
X0272165Y0227182D01*
X0272433Y0227450D01*
X0264933Y0235450D02*
X0264933Y0244450D01*
X0279683Y0252450D02*
X0279683Y0255100D01*
X0270683Y0255350D02*
X0270683Y0259450D01*
X0286933Y0268450D02*
X0286933Y0268478D01*
X0293833Y0268478D02*
X0293861Y0268450D01*
X0293933Y0268450D01*
X0300193Y0280135D02*
X0300193Y0281210D01*
X0300453Y0280950D01*
X0302933Y0280950D01*
X0305933Y0283950D01*
X0310533Y0283950D01*
X0313933Y0287350D01*
X0313933Y0294550D01*
X0307673Y0297690D02*
X0307673Y0290765D01*
X0307433Y0290525D01*
X0307433Y0287450D01*
X0306933Y0286950D01*
X0313933Y0280550D02*
X0314033Y0280450D01*
X0318433Y0280450D01*
X0307673Y0297690D02*
X0311333Y0301350D01*
X0313933Y0301350D01*
X0305933Y0300950D02*
X0305933Y0305378D01*
X0305833Y0305478D01*
X0331433Y0299450D02*
X0331433Y0250950D01*
X0327433Y0246950D01*
X0330433Y0243950D02*
X0334533Y0243950D01*
X0335533Y0242950D01*
X0335533Y0239750D01*
X0340333Y0234950D01*
X0342169Y0234950D01*
X0342169Y0229950D02*
X0347433Y0229950D01*
X0349433Y0231950D01*
X0349433Y0235850D01*
X0342333Y0242950D01*
X0342333Y0251450D01*
X0335533Y0251450D02*
X0335533Y0255850D01*
X0335433Y0255950D01*
X0340433Y0258950D02*
X0340433Y0302950D01*
X0331433Y0299450D02*
X0350433Y0318450D01*
X0427933Y0318450D01*
X0434933Y0325450D01*
X0457933Y0286950D02*
X0457933Y0284950D01*
X0445433Y0257450D02*
X0441333Y0257450D01*
X0434533Y0257450D02*
X0434533Y0250950D01*
X0433433Y0250950D01*
X0427933Y0245450D01*
X0434533Y0250950D02*
X0435433Y0250950D01*
X0440933Y0245450D01*
X0452933Y0250850D02*
X0452933Y0254950D01*
X0417933Y0230050D02*
X0415333Y0227450D01*
X0409933Y0227450D01*
X0407933Y0229450D01*
X0407933Y0230781D01*
X0401333Y0227450D02*
X0397933Y0230850D01*
X0404193Y0222119D02*
X0404193Y0219690D01*
X0404933Y0218950D01*
X0408933Y0218950D01*
X0419433Y0208450D01*
X0421333Y0208450D01*
X0421433Y0208350D01*
X0417433Y0204950D02*
X0415693Y0203210D01*
X0413071Y0203210D01*
X0417433Y0204950D02*
X0431933Y0204950D01*
X0428933Y0208350D02*
X0424833Y0212450D01*
X0392295Y0217400D02*
X0379883Y0217400D01*
X0377433Y0214950D01*
X0362642Y0214950D01*
X0358433Y0214950D01*
X0348433Y0224950D01*
X0342169Y0224950D01*
X0351533Y0242950D02*
X0351533Y0247850D01*
X0340433Y0258950D01*
X0354933Y0247950D02*
X0363533Y0247950D01*
X0368533Y0242950D01*
X0368533Y0240841D01*
X0362933Y0235241D01*
X0368433Y0236050D02*
X0368433Y0230950D01*
X0367433Y0229950D01*
X0368433Y0236050D02*
X0375333Y0242950D01*
X0382533Y0242950D01*
X0383433Y0213950D02*
X0383433Y0210078D01*
X0383306Y0209950D01*
X0385140Y0198950D02*
X0381433Y0195243D01*
X0381433Y0194450D01*
X0381333Y0194450D01*
X0385140Y0198950D02*
X0388433Y0198950D01*
X0355846Y0179450D02*
X0352933Y0179450D01*
X0351933Y0178450D01*
X0348433Y0181450D02*
X0342433Y0181450D01*
X0342433Y0189950D02*
X0348433Y0189950D01*
X0342169Y0204950D02*
X0330433Y0204950D01*
X0322433Y0204950D02*
X0314433Y0212950D01*
X0291433Y0211550D02*
X0291333Y0211450D01*
X0286933Y0211450D01*
X0270693Y0176635D02*
X0271033Y0176295D01*
X0270333Y0175595D01*
X0270333Y0168450D01*
X0303433Y0170950D02*
X0309433Y0170950D01*
X0349933Y0275450D02*
X0357233Y0275450D01*
X0358433Y0274250D01*
X0372933Y0286950D02*
X0372933Y0293150D01*
X0373433Y0293650D01*
X0332433Y0333950D02*
X0312878Y0333950D01*
X0304610Y0342218D01*
D67*
X0381933Y0325450D02*
X0394733Y0325450D01*
X0394933Y0325650D01*
X0447933Y0325450D02*
X0448133Y0325650D01*
X0460933Y0325650D01*
X0465533Y0313450D02*
X0465533Y0298350D01*
X0478433Y0289950D02*
X0481433Y0289950D01*
X0483933Y0287450D01*
X0483933Y0286450D01*
X0478433Y0289950D02*
X0478433Y0307350D01*
X0472333Y0313450D01*
X0490033Y0324950D02*
X0501933Y0324950D01*
X0502433Y0325450D01*
X0515433Y0325450D02*
X0526733Y0325450D01*
X0526933Y0325650D01*
X0469433Y0284950D02*
X0457933Y0284950D01*
X0434433Y0246950D02*
X0431333Y0243850D01*
X0431333Y0243450D01*
X0434433Y0240350D01*
X0434433Y0227450D01*
X0435933Y0225950D01*
X0438524Y0225950D01*
X0438764Y0225710D01*
X0438433Y0233521D02*
X0438433Y0236950D01*
X0437533Y0237850D01*
X0437533Y0243450D01*
X0444333Y0243450D02*
X0448433Y0243450D01*
X0450618Y0231950D02*
X0452933Y0231950D01*
X0448933Y0217950D02*
X0447933Y0216950D01*
X0446933Y0217950D01*
X0443433Y0217950D01*
X0424533Y0243450D02*
X0424433Y0247950D01*
X0410933Y0249450D02*
X0410933Y0245350D01*
X0407933Y0241950D02*
X0410933Y0238950D01*
X0410933Y0238550D01*
X0411673Y0238550D01*
X0411673Y0230781D01*
X0404193Y0230781D02*
X0404193Y0234710D01*
X0404433Y0234950D01*
X0404433Y0238550D01*
X0404433Y0245350D02*
X0404433Y0245450D01*
X0404433Y0249450D01*
X0404433Y0245450D02*
X0399933Y0245450D01*
X0371533Y0264450D02*
X0364333Y0264450D01*
X0364274Y0264452D01*
X0364216Y0264458D01*
X0364157Y0264467D01*
X0364100Y0264481D01*
X0364044Y0264498D01*
X0363989Y0264519D01*
X0363935Y0264543D01*
X0363883Y0264571D01*
X0363833Y0264602D01*
X0363785Y0264636D01*
X0363740Y0264673D01*
X0363697Y0264714D01*
X0363656Y0264757D01*
X0363619Y0264802D01*
X0363585Y0264850D01*
X0363554Y0264900D01*
X0363526Y0264952D01*
X0363502Y0265006D01*
X0363481Y0265061D01*
X0363464Y0265117D01*
X0363450Y0265174D01*
X0363441Y0265233D01*
X0363435Y0265291D01*
X0363433Y0265350D01*
X0363433Y0274250D01*
X0362642Y0219950D02*
X0373433Y0219950D01*
X0373933Y0220050D01*
X0303933Y0230700D02*
X0300183Y0234450D01*
X0299933Y0234450D01*
X0299933Y0240950D02*
X0301683Y0240950D01*
X0304683Y0243950D01*
X0292433Y0243450D02*
X0292433Y0246350D01*
X0292233Y0246550D01*
X0284633Y0246550D02*
X0284633Y0243150D01*
X0284433Y0242950D01*
X0284433Y0232950D02*
X0284633Y0232750D01*
X0284633Y0229350D01*
X0287133Y0229350D01*
X0287433Y0268478D02*
X0290433Y0271478D01*
X0290433Y0275378D01*
X0293033Y0275378D02*
X0293033Y0268478D01*
X0293833Y0268478D01*
X0293033Y0269278D01*
X0266908Y0271950D02*
X0266508Y0271550D01*
X0185433Y0257850D02*
X0185433Y0254450D01*
X0185433Y0257850D02*
X0184833Y0258450D01*
X0183933Y0258350D01*
X0178033Y0258450D02*
X0176533Y0259950D01*
X0170933Y0259950D01*
X0170886Y0259403D01*
X0170886Y0256241D01*
X0164980Y0256241D02*
X0164980Y0258903D01*
X0164933Y0259950D01*
X0158833Y0259950D01*
X0156833Y0257950D01*
X0150033Y0257950D02*
X0145933Y0257950D01*
X0162559Y0285450D02*
X0162559Y0292186D01*
X0162559Y0305450D01*
X0167559Y0300950D02*
X0170059Y0303450D01*
X0176031Y0303450D01*
X0167559Y0300950D02*
X0167559Y0292186D01*
D68*
X0172559Y0292186D02*
X0176059Y0288686D01*
X0176059Y0280769D01*
X0176059Y0273450D02*
X0176059Y0266454D01*
X0178825Y0263688D01*
X0185790Y0263688D01*
X0187933Y0261545D01*
X0187933Y0252950D01*
X0186933Y0251950D01*
X0179433Y0251950D01*
X0176933Y0249450D01*
X0174724Y0249450D01*
X0174724Y0247481D02*
X0177465Y0247481D01*
X0179433Y0249450D01*
X0181933Y0249450D01*
X0179933Y0246950D02*
X0201333Y0246950D01*
X0205933Y0251550D01*
X0205933Y0258350D02*
X0206746Y0259163D01*
X0206333Y0258750D02*
X0246133Y0258750D01*
X0237683Y0245700D02*
X0237683Y0208200D01*
X0223683Y0208200D01*
X0223683Y0230200D01*
X0197683Y0230200D01*
X0197683Y0245700D01*
X0237683Y0245700D01*
X0237683Y0245055D02*
X0197683Y0245055D01*
X0197683Y0244357D02*
X0237683Y0244357D01*
X0237683Y0243658D02*
X0197683Y0243658D01*
X0197683Y0242960D02*
X0237683Y0242960D01*
X0237683Y0242261D02*
X0197683Y0242261D01*
X0197683Y0241563D02*
X0237683Y0241563D01*
X0237683Y0240864D02*
X0197683Y0240864D01*
X0197683Y0240166D02*
X0237683Y0240166D01*
X0237683Y0239467D02*
X0197683Y0239467D01*
X0197683Y0238769D02*
X0237683Y0238769D01*
X0237683Y0238070D02*
X0197683Y0238070D01*
X0197683Y0237372D02*
X0237683Y0237372D01*
X0237683Y0236673D02*
X0197683Y0236673D01*
X0197683Y0235975D02*
X0237683Y0235975D01*
X0237683Y0235276D02*
X0197683Y0235276D01*
X0197683Y0234578D02*
X0237683Y0234578D01*
X0237683Y0233879D02*
X0197683Y0233879D01*
X0197683Y0233181D02*
X0237683Y0233181D01*
X0237683Y0232482D02*
X0197683Y0232482D01*
X0197683Y0231784D02*
X0237683Y0231784D01*
X0237683Y0231085D02*
X0197683Y0231085D01*
X0197683Y0230387D02*
X0237683Y0230387D01*
X0237683Y0229688D02*
X0223683Y0229688D01*
X0223683Y0228990D02*
X0237683Y0228990D01*
X0237683Y0228291D02*
X0223683Y0228291D01*
X0223683Y0227593D02*
X0237683Y0227593D01*
X0237683Y0226894D02*
X0223683Y0226894D01*
X0223683Y0226196D02*
X0237683Y0226196D01*
X0237683Y0225497D02*
X0223683Y0225497D01*
X0223683Y0224799D02*
X0237683Y0224799D01*
X0237683Y0224100D02*
X0223683Y0224100D01*
X0223683Y0223402D02*
X0237683Y0223402D01*
X0237683Y0222703D02*
X0223683Y0222703D01*
X0223683Y0222005D02*
X0237683Y0222005D01*
X0237683Y0221306D02*
X0223683Y0221306D01*
X0223683Y0220608D02*
X0237683Y0220608D01*
X0237683Y0219909D02*
X0223683Y0219909D01*
X0223683Y0219211D02*
X0237683Y0219211D01*
X0237683Y0218512D02*
X0223683Y0218512D01*
X0223683Y0217814D02*
X0237683Y0217814D01*
X0237683Y0217115D02*
X0223683Y0217115D01*
X0223683Y0216417D02*
X0237683Y0216417D01*
X0237683Y0215718D02*
X0223683Y0215718D01*
X0223683Y0215020D02*
X0237683Y0215020D01*
X0237683Y0214321D02*
X0223683Y0214321D01*
X0223683Y0213622D02*
X0237683Y0213622D01*
X0237683Y0212924D02*
X0223683Y0212924D01*
X0223683Y0212225D02*
X0237683Y0212225D01*
X0237683Y0211527D02*
X0223683Y0211527D01*
X0223683Y0210828D02*
X0237683Y0210828D01*
X0237683Y0210130D02*
X0223683Y0210130D01*
X0223683Y0209431D02*
X0237683Y0209431D01*
X0237683Y0208733D02*
X0223683Y0208733D01*
X0221683Y0208733D02*
X0197683Y0208733D01*
X0197683Y0208200D02*
X0197683Y0228200D01*
X0221683Y0228200D01*
X0221683Y0208200D01*
X0197683Y0208200D01*
X0197683Y0209431D02*
X0221683Y0209431D01*
X0221683Y0210130D02*
X0197683Y0210130D01*
X0197683Y0210828D02*
X0221683Y0210828D01*
X0221683Y0211527D02*
X0197683Y0211527D01*
X0197683Y0212225D02*
X0221683Y0212225D01*
X0221683Y0212924D02*
X0197683Y0212924D01*
X0197683Y0213622D02*
X0221683Y0213622D01*
X0221683Y0214321D02*
X0197683Y0214321D01*
X0197683Y0215020D02*
X0221683Y0215020D01*
X0221683Y0215718D02*
X0197683Y0215718D01*
X0197683Y0216417D02*
X0221683Y0216417D01*
X0221683Y0217115D02*
X0197683Y0217115D01*
X0197683Y0217814D02*
X0221683Y0217814D01*
X0221683Y0218512D02*
X0197683Y0218512D01*
X0197683Y0219211D02*
X0221683Y0219211D01*
X0221683Y0219909D02*
X0197683Y0219909D01*
X0197683Y0220608D02*
X0221683Y0220608D01*
X0221683Y0221306D02*
X0197683Y0221306D01*
X0197683Y0222005D02*
X0221683Y0222005D01*
X0221683Y0222703D02*
X0197683Y0222703D01*
X0197683Y0223402D02*
X0221683Y0223402D01*
X0221683Y0224100D02*
X0197683Y0224100D01*
X0197683Y0224799D02*
X0221683Y0224799D01*
X0221683Y0225497D02*
X0197683Y0225497D01*
X0197683Y0226196D02*
X0221683Y0226196D01*
X0221683Y0226894D02*
X0197683Y0226894D01*
X0197683Y0227593D02*
X0221683Y0227593D01*
X0219183Y0206200D02*
X0237683Y0206200D01*
X0237683Y0167450D01*
X0234044Y0167450D01*
X0233844Y0167650D01*
X0232022Y0167650D01*
X0231822Y0167450D01*
X0189183Y0167450D01*
X0189183Y0184200D01*
X0200683Y0184200D01*
X0200683Y0177200D01*
X0213775Y0177200D01*
X0219183Y0182608D01*
X0219183Y0206200D01*
X0219183Y0205939D02*
X0237683Y0205939D01*
X0237683Y0205240D02*
X0219183Y0205240D01*
X0219183Y0204542D02*
X0237683Y0204542D01*
X0237683Y0203843D02*
X0219183Y0203843D01*
X0219183Y0203145D02*
X0237683Y0203145D01*
X0237683Y0202446D02*
X0219183Y0202446D01*
X0219183Y0201748D02*
X0237683Y0201748D01*
X0237683Y0201049D02*
X0219183Y0201049D01*
X0219183Y0200351D02*
X0237683Y0200351D01*
X0237683Y0199652D02*
X0219183Y0199652D01*
X0219183Y0198954D02*
X0237683Y0198954D01*
X0237683Y0198255D02*
X0219183Y0198255D01*
X0219183Y0197557D02*
X0237683Y0197557D01*
X0237683Y0196858D02*
X0219183Y0196858D01*
X0219183Y0196160D02*
X0237683Y0196160D01*
X0237683Y0195461D02*
X0219183Y0195461D01*
X0219183Y0194763D02*
X0237683Y0194763D01*
X0237683Y0194064D02*
X0219183Y0194064D01*
X0219183Y0193366D02*
X0237683Y0193366D01*
X0237683Y0192667D02*
X0219183Y0192667D01*
X0219183Y0191969D02*
X0237683Y0191969D01*
X0237683Y0191270D02*
X0219183Y0191270D01*
X0219183Y0190572D02*
X0237683Y0190572D01*
X0237683Y0189873D02*
X0219183Y0189873D01*
X0219183Y0189175D02*
X0237683Y0189175D01*
X0237683Y0188476D02*
X0219183Y0188476D01*
X0219183Y0187778D02*
X0237683Y0187778D01*
X0237683Y0187079D02*
X0219183Y0187079D01*
X0219183Y0186381D02*
X0237683Y0186381D01*
X0237683Y0185682D02*
X0219183Y0185682D01*
X0219183Y0184984D02*
X0237683Y0184984D01*
X0237683Y0184285D02*
X0219183Y0184285D01*
X0219183Y0183587D02*
X0237683Y0183587D01*
X0237683Y0182888D02*
X0219183Y0182888D01*
X0218764Y0182189D02*
X0237683Y0182189D01*
X0237683Y0181491D02*
X0218066Y0181491D01*
X0217367Y0180792D02*
X0237683Y0180792D01*
X0237683Y0180094D02*
X0216669Y0180094D01*
X0215970Y0179395D02*
X0237683Y0179395D01*
X0237683Y0178697D02*
X0215272Y0178697D01*
X0214573Y0177998D02*
X0237683Y0177998D01*
X0237683Y0177300D02*
X0213875Y0177300D01*
X0213778Y0179200D02*
X0202683Y0179200D01*
X0202683Y0186200D01*
X0192933Y0186200D01*
X0192933Y0198200D01*
X0186183Y0198200D01*
X0183183Y0197200D01*
X0168233Y0197200D01*
X0168233Y0227285D01*
X0182698Y0241750D01*
X0195683Y0241750D01*
X0195683Y0230200D01*
X0182683Y0230200D01*
X0182683Y0206200D01*
X0184683Y0206200D01*
X0184683Y0228200D01*
X0195683Y0228200D01*
X0195683Y0190200D01*
X0217683Y0190200D01*
X0217683Y0183105D01*
X0213778Y0179200D01*
X0213973Y0179395D02*
X0202683Y0179395D01*
X0202683Y0180094D02*
X0214672Y0180094D01*
X0215370Y0180792D02*
X0202683Y0180792D01*
X0202683Y0181491D02*
X0216069Y0181491D01*
X0216767Y0182189D02*
X0202683Y0182189D01*
X0202683Y0182888D02*
X0217466Y0182888D01*
X0217683Y0183587D02*
X0202683Y0183587D01*
X0202683Y0184285D02*
X0217683Y0184285D01*
X0217683Y0184984D02*
X0202683Y0184984D01*
X0202683Y0185682D02*
X0217683Y0185682D01*
X0217683Y0186381D02*
X0192933Y0186381D01*
X0192933Y0187079D02*
X0217683Y0187079D01*
X0217683Y0187778D02*
X0192933Y0187778D01*
X0192933Y0188476D02*
X0217683Y0188476D01*
X0217683Y0189175D02*
X0192933Y0189175D01*
X0192933Y0189873D02*
X0217683Y0189873D01*
X0217683Y0192200D02*
X0197683Y0192200D01*
X0197683Y0206200D01*
X0217683Y0206200D01*
X0217683Y0192200D01*
X0217683Y0192667D02*
X0197683Y0192667D01*
X0197683Y0193366D02*
X0217683Y0193366D01*
X0217683Y0194064D02*
X0197683Y0194064D01*
X0197683Y0194763D02*
X0217683Y0194763D01*
X0217683Y0195461D02*
X0197683Y0195461D01*
X0197683Y0196160D02*
X0217683Y0196160D01*
X0217683Y0196858D02*
X0197683Y0196858D01*
X0197683Y0197557D02*
X0217683Y0197557D01*
X0217683Y0198255D02*
X0197683Y0198255D01*
X0197683Y0198954D02*
X0217683Y0198954D01*
X0217683Y0199652D02*
X0197683Y0199652D01*
X0197683Y0200351D02*
X0217683Y0200351D01*
X0217683Y0201049D02*
X0197683Y0201049D01*
X0197683Y0201748D02*
X0217683Y0201748D01*
X0217683Y0202446D02*
X0197683Y0202446D01*
X0197683Y0203145D02*
X0217683Y0203145D01*
X0217683Y0203843D02*
X0197683Y0203843D01*
X0197683Y0204542D02*
X0217683Y0204542D01*
X0217683Y0205240D02*
X0197683Y0205240D01*
X0197683Y0205939D02*
X0217683Y0205939D01*
X0195683Y0205939D02*
X0168233Y0205939D01*
X0168233Y0206637D02*
X0182683Y0206637D01*
X0182683Y0207336D02*
X0168233Y0207336D01*
X0168233Y0208034D02*
X0182683Y0208034D01*
X0182683Y0208733D02*
X0168233Y0208733D01*
X0168233Y0209431D02*
X0182683Y0209431D01*
X0182683Y0210130D02*
X0168233Y0210130D01*
X0168233Y0210828D02*
X0182683Y0210828D01*
X0182683Y0211527D02*
X0168233Y0211527D01*
X0168233Y0212225D02*
X0182683Y0212225D01*
X0182683Y0212924D02*
X0168233Y0212924D01*
X0168233Y0213622D02*
X0182683Y0213622D01*
X0182683Y0214321D02*
X0168233Y0214321D01*
X0168233Y0215020D02*
X0182683Y0215020D01*
X0182683Y0215718D02*
X0168233Y0215718D01*
X0168233Y0216417D02*
X0182683Y0216417D01*
X0182683Y0217115D02*
X0168233Y0217115D01*
X0168233Y0217814D02*
X0182683Y0217814D01*
X0182683Y0218512D02*
X0168233Y0218512D01*
X0168233Y0219211D02*
X0182683Y0219211D01*
X0182683Y0219909D02*
X0168233Y0219909D01*
X0168233Y0220608D02*
X0182683Y0220608D01*
X0182683Y0221306D02*
X0168233Y0221306D01*
X0168233Y0222005D02*
X0182683Y0222005D01*
X0182683Y0222703D02*
X0168233Y0222703D01*
X0168233Y0223402D02*
X0182683Y0223402D01*
X0182683Y0224100D02*
X0168233Y0224100D01*
X0168233Y0224799D02*
X0182683Y0224799D01*
X0182683Y0225497D02*
X0168233Y0225497D01*
X0168233Y0226196D02*
X0182683Y0226196D01*
X0182683Y0226894D02*
X0168233Y0226894D01*
X0168541Y0227593D02*
X0182683Y0227593D01*
X0182683Y0228291D02*
X0169239Y0228291D01*
X0169938Y0228990D02*
X0182683Y0228990D01*
X0182683Y0229688D02*
X0170636Y0229688D01*
X0171335Y0230387D02*
X0195683Y0230387D01*
X0195683Y0231085D02*
X0172033Y0231085D01*
X0172732Y0231784D02*
X0195683Y0231784D01*
X0195683Y0232482D02*
X0173430Y0232482D01*
X0174129Y0233181D02*
X0195683Y0233181D01*
X0195683Y0233879D02*
X0174827Y0233879D01*
X0175526Y0234578D02*
X0195683Y0234578D01*
X0195683Y0235276D02*
X0176224Y0235276D01*
X0176923Y0235975D02*
X0195683Y0235975D01*
X0195683Y0236673D02*
X0177621Y0236673D01*
X0178320Y0237372D02*
X0195683Y0237372D01*
X0195683Y0238070D02*
X0179018Y0238070D01*
X0179717Y0238769D02*
X0195683Y0238769D01*
X0195683Y0239467D02*
X0180415Y0239467D01*
X0181114Y0240166D02*
X0195683Y0240166D01*
X0195683Y0240864D02*
X0181812Y0240864D01*
X0182511Y0241563D02*
X0195683Y0241563D01*
X0189933Y0249950D02*
X0191533Y0251550D01*
X0195433Y0251550D01*
X0195433Y0258350D02*
X0191620Y0262163D01*
X0190165Y0262163D01*
X0180988Y0261131D02*
X0180988Y0255800D01*
X0176606Y0251419D01*
X0174724Y0251419D01*
X0174724Y0253387D02*
X0174724Y0255159D01*
X0173933Y0255950D01*
X0178091Y0261919D02*
X0172559Y0267450D01*
X0172559Y0271714D01*
X0172059Y0272214D01*
X0172059Y0274450D01*
X0172559Y0273950D01*
X0172559Y0271714D01*
X0167559Y0271714D02*
X0167559Y0267950D01*
X0170559Y0264950D01*
X0170559Y0263950D01*
X0166059Y0263950D02*
X0166059Y0264950D01*
X0162559Y0268450D01*
X0162559Y0271714D01*
X0161433Y0256450D02*
X0161142Y0256241D01*
X0161142Y0253387D01*
X0161142Y0251419D02*
X0158465Y0251419D01*
X0156433Y0253450D01*
X0151433Y0253450D01*
X0147933Y0249950D01*
X0119847Y0249950D01*
X0104933Y0235036D01*
X0102833Y0232950D02*
X0101933Y0232950D01*
X0097433Y0228450D01*
X0097433Y0211950D01*
X0092433Y0206950D01*
X0092433Y0180450D01*
X0096933Y0175950D01*
X0102433Y0171450D02*
X0102433Y0206450D01*
X0100433Y0208450D01*
X0100433Y0224550D01*
X0102833Y0226950D01*
X0103933Y0229950D02*
X0101683Y0229950D01*
X0098933Y0227200D01*
X0098933Y0207950D01*
X0100933Y0205950D01*
X0100933Y0189950D01*
X0096933Y0185950D01*
X0102433Y0171450D02*
X0096933Y0165950D01*
X0109433Y0163450D02*
X0109433Y0228450D01*
X0113933Y0232950D01*
X0114833Y0232950D01*
X0119033Y0232950D02*
X0133033Y0246950D01*
X0154433Y0246950D01*
X0156933Y0249450D01*
X0161142Y0249450D01*
X0161142Y0247481D02*
X0157965Y0247481D01*
X0152933Y0242450D01*
X0152933Y0239450D01*
X0155033Y0239550D02*
X0155033Y0232950D01*
X0157533Y0235450D01*
X0168433Y0235450D01*
X0179933Y0246950D01*
X0180988Y0261131D02*
X0180201Y0261919D01*
X0178091Y0261919D01*
X0183161Y0270145D02*
X0183161Y0274245D01*
X0205933Y0258350D02*
X0205935Y0258389D01*
X0205941Y0258428D01*
X0205950Y0258466D01*
X0205963Y0258503D01*
X0205980Y0258539D01*
X0206000Y0258572D01*
X0206024Y0258604D01*
X0206050Y0258633D01*
X0206079Y0258659D01*
X0206111Y0258683D01*
X0206144Y0258703D01*
X0206180Y0258720D01*
X0206217Y0258733D01*
X0206255Y0258742D01*
X0206294Y0258748D01*
X0206333Y0258750D01*
X0195683Y0227593D02*
X0184683Y0227593D01*
X0184683Y0226894D02*
X0195683Y0226894D01*
X0195683Y0226196D02*
X0184683Y0226196D01*
X0184683Y0225497D02*
X0195683Y0225497D01*
X0195683Y0224799D02*
X0184683Y0224799D01*
X0184683Y0224100D02*
X0195683Y0224100D01*
X0195683Y0223402D02*
X0184683Y0223402D01*
X0184683Y0222703D02*
X0195683Y0222703D01*
X0195683Y0222005D02*
X0184683Y0222005D01*
X0184683Y0221306D02*
X0195683Y0221306D01*
X0195683Y0220608D02*
X0184683Y0220608D01*
X0184683Y0219909D02*
X0195683Y0219909D01*
X0195683Y0219211D02*
X0184683Y0219211D01*
X0184683Y0218512D02*
X0195683Y0218512D01*
X0195683Y0217814D02*
X0184683Y0217814D01*
X0184683Y0217115D02*
X0195683Y0217115D01*
X0195683Y0216417D02*
X0184683Y0216417D01*
X0184683Y0215718D02*
X0195683Y0215718D01*
X0195683Y0215020D02*
X0184683Y0215020D01*
X0184683Y0214321D02*
X0195683Y0214321D01*
X0195683Y0213622D02*
X0184683Y0213622D01*
X0184683Y0212924D02*
X0195683Y0212924D01*
X0195683Y0212225D02*
X0184683Y0212225D01*
X0184683Y0211527D02*
X0195683Y0211527D01*
X0195683Y0210828D02*
X0184683Y0210828D01*
X0184683Y0210130D02*
X0195683Y0210130D01*
X0195683Y0209431D02*
X0184683Y0209431D01*
X0184683Y0208733D02*
X0195683Y0208733D01*
X0195683Y0208034D02*
X0184683Y0208034D01*
X0184683Y0207336D02*
X0195683Y0207336D01*
X0195683Y0206637D02*
X0184683Y0206637D01*
X0184253Y0197557D02*
X0168233Y0197557D01*
X0168233Y0198255D02*
X0195683Y0198255D01*
X0195683Y0197557D02*
X0192933Y0197557D01*
X0192933Y0196858D02*
X0195683Y0196858D01*
X0195683Y0196160D02*
X0192933Y0196160D01*
X0192933Y0195461D02*
X0195683Y0195461D01*
X0195683Y0194763D02*
X0192933Y0194763D01*
X0192933Y0194064D02*
X0195683Y0194064D01*
X0195683Y0193366D02*
X0192933Y0193366D01*
X0192933Y0192667D02*
X0195683Y0192667D01*
X0195683Y0191969D02*
X0192933Y0191969D01*
X0192933Y0191270D02*
X0195683Y0191270D01*
X0195683Y0190572D02*
X0192933Y0190572D01*
X0191433Y0190572D02*
X0170183Y0190572D01*
X0170183Y0191270D02*
X0191433Y0191270D01*
X0191433Y0191969D02*
X0170183Y0191969D01*
X0170183Y0192667D02*
X0191433Y0192667D01*
X0191433Y0193366D02*
X0170183Y0193366D01*
X0170183Y0194064D02*
X0191433Y0194064D01*
X0191433Y0194763D02*
X0170183Y0194763D01*
X0170183Y0195200D02*
X0183183Y0195200D01*
X0186183Y0196200D01*
X0191433Y0196200D01*
X0191433Y0190200D01*
X0186183Y0190200D01*
X0176183Y0183200D01*
X0170183Y0183200D01*
X0170183Y0195200D01*
X0168233Y0198954D02*
X0195683Y0198954D01*
X0195683Y0199652D02*
X0168233Y0199652D01*
X0168233Y0200351D02*
X0195683Y0200351D01*
X0195683Y0201049D02*
X0168233Y0201049D01*
X0168233Y0201748D02*
X0195683Y0201748D01*
X0195683Y0202446D02*
X0168233Y0202446D01*
X0168233Y0203145D02*
X0195683Y0203145D01*
X0195683Y0203843D02*
X0168233Y0203843D01*
X0168233Y0204542D02*
X0195683Y0204542D01*
X0195683Y0205240D02*
X0168233Y0205240D01*
X0161433Y0204550D02*
X0161433Y0201450D01*
X0161933Y0200950D01*
X0160933Y0197950D02*
X0152933Y0205950D01*
X0152933Y0210700D01*
X0149933Y0214050D02*
X0150833Y0214950D01*
X0149933Y0214050D02*
X0149933Y0196200D01*
X0152933Y0193200D01*
X0152933Y0179950D01*
X0156933Y0175950D01*
X0151433Y0171450D02*
X0156933Y0165950D01*
X0149933Y0162950D02*
X0156933Y0155950D01*
X0149933Y0162950D02*
X0149933Y0192200D01*
X0146933Y0195200D01*
X0146933Y0223950D01*
X0149933Y0226950D01*
X0150833Y0226950D01*
X0155033Y0226950D02*
X0155033Y0220950D01*
X0155033Y0214950D01*
X0158633Y0211350D01*
X0161433Y0211350D01*
X0150833Y0220950D02*
X0149933Y0220950D01*
X0148433Y0219450D01*
X0148433Y0195700D01*
X0151433Y0192700D01*
X0151433Y0171450D01*
X0140933Y0180450D02*
X0140933Y0187950D01*
X0126833Y0202050D01*
X0126833Y0214950D01*
X0130933Y0214950D02*
X0130933Y0210450D01*
X0130933Y0214950D02*
X0131033Y0214950D01*
X0131033Y0220950D01*
X0131033Y0226950D01*
X0131033Y0232950D01*
X0126833Y0232950D02*
X0125933Y0232950D01*
X0121433Y0228450D01*
X0121433Y0197450D01*
X0130683Y0188200D01*
X0130683Y0152200D01*
X0136933Y0145950D01*
X0126933Y0145950D02*
X0109433Y0163450D01*
X0110933Y0171950D02*
X0110933Y0224450D01*
X0113433Y0226950D01*
X0114833Y0226950D01*
X0119033Y0226950D02*
X0119033Y0220950D01*
X0119033Y0214950D01*
X0114833Y0214950D02*
X0114833Y0188050D01*
X0126933Y0175950D01*
X0133183Y0169700D02*
X0133183Y0189200D01*
X0124433Y0197950D01*
X0124433Y0218550D01*
X0126833Y0220950D01*
X0122933Y0223050D02*
X0126833Y0226950D01*
X0122933Y0223050D02*
X0122933Y0197700D01*
X0131933Y0188700D01*
X0131933Y0160450D01*
X0136933Y0155950D01*
X0126933Y0155950D02*
X0110933Y0171950D01*
X0112433Y0180450D02*
X0112433Y0218950D01*
X0114433Y0220950D01*
X0114833Y0220950D01*
X0119033Y0226950D02*
X0119033Y0232950D01*
X0107033Y0232950D02*
X0107033Y0226950D01*
X0107033Y0220950D01*
X0107033Y0214950D01*
X0104933Y0212950D02*
X0105433Y0212450D01*
X0105433Y0209450D01*
X0103933Y0207950D01*
X0103933Y0139950D01*
X0143433Y0100450D01*
X0160933Y0100450D01*
X0162933Y0102450D01*
X0162933Y0121950D01*
X0159433Y0125450D01*
X0159433Y0125950D01*
X0156933Y0125950D01*
X0154933Y0130950D02*
X0158983Y0130950D01*
X0164433Y0125500D01*
X0164433Y0116450D01*
X0168533Y0116450D01*
X0168533Y0115950D01*
X0171933Y0113950D02*
X0165933Y0107950D01*
X0165933Y0069950D01*
X0168433Y0067450D01*
X0252433Y0067450D01*
X0252433Y0090950D01*
X0262433Y0090950D02*
X0262433Y0071450D01*
X0294433Y0071450D01*
X0302433Y0079450D01*
X0301433Y0073450D02*
X0312433Y0073450D01*
X0301433Y0073450D02*
X0295433Y0067450D01*
X0263683Y0067450D01*
X0262433Y0069950D02*
X0262433Y0071450D01*
X0262433Y0069950D02*
X0257433Y0064950D01*
X0168176Y0064950D01*
X0164433Y0068693D01*
X0164433Y0116450D01*
X0161433Y0113950D02*
X0159433Y0115950D01*
X0156933Y0115950D01*
X0161433Y0113950D02*
X0161433Y0103450D01*
X0159933Y0101950D01*
X0143933Y0101950D01*
X0105433Y0140450D01*
X0105433Y0203950D01*
X0106683Y0205200D01*
X0106683Y0206950D01*
X0102933Y0210700D02*
X0102933Y0214850D01*
X0102833Y0214950D01*
X0102833Y0214550D01*
X0104933Y0218850D02*
X0102833Y0220950D01*
X0102833Y0220050D01*
X0095033Y0220950D02*
X0095033Y0214950D01*
X0095033Y0213550D01*
X0090933Y0209450D01*
X0090933Y0145450D01*
X0095433Y0140950D01*
X0098433Y0140950D01*
X0126933Y0112450D01*
X0126933Y0108750D01*
X0128933Y0119950D02*
X0126933Y0121950D01*
X0126933Y0125950D01*
X0128933Y0119950D02*
X0139933Y0119950D01*
X0143933Y0123950D01*
X0143933Y0188950D01*
X0134933Y0197950D01*
X0134933Y0223950D01*
X0137933Y0226950D01*
X0138833Y0226950D01*
X0143033Y0226950D02*
X0143033Y0220950D01*
X0143033Y0214950D01*
X0138833Y0214950D02*
X0137933Y0214050D01*
X0137933Y0198950D01*
X0146933Y0189950D01*
X0146933Y0115950D01*
X0151933Y0118950D02*
X0148433Y0122450D01*
X0148433Y0191700D01*
X0145433Y0194700D01*
X0145433Y0228450D01*
X0149933Y0232950D01*
X0150833Y0232950D01*
X0155033Y0232950D02*
X0155033Y0226950D01*
X0150433Y0237450D02*
X0147533Y0237450D01*
X0143033Y0232950D01*
X0143033Y0226950D01*
X0138833Y0220950D02*
X0137933Y0220950D01*
X0136433Y0219450D01*
X0136433Y0198450D01*
X0145433Y0189450D01*
X0145433Y0122450D01*
X0140933Y0117950D01*
X0140933Y0111950D01*
X0146933Y0105950D01*
X0151933Y0110950D02*
X0156933Y0105950D01*
X0151933Y0110950D02*
X0151933Y0118950D01*
X0154933Y0130950D02*
X0150433Y0135450D01*
X0150433Y0141450D01*
X0154933Y0145950D01*
X0156933Y0145950D01*
X0156933Y0135950D02*
X0167933Y0124950D01*
X0168533Y0124950D01*
X0171933Y0121550D01*
X0171933Y0113950D01*
X0142433Y0131450D02*
X0136933Y0125950D01*
X0142433Y0131450D02*
X0142433Y0188450D01*
X0133433Y0197450D01*
X0133433Y0228450D01*
X0137933Y0232950D01*
X0138833Y0232950D01*
X0155033Y0239550D02*
X0155933Y0240450D01*
X0150933Y0248450D02*
X0153433Y0250950D01*
X0150933Y0248450D02*
X0122533Y0248450D01*
X0107033Y0232950D01*
X0104933Y0230950D02*
X0103933Y0229950D01*
X0095033Y0226950D02*
X0095033Y0220950D01*
X0090833Y0220950D02*
X0090833Y0220850D01*
X0087933Y0217950D01*
X0087933Y0134950D01*
X0096933Y0125950D01*
X0096933Y0115950D02*
X0086433Y0126450D01*
X0086433Y0222450D01*
X0090833Y0226850D01*
X0090833Y0226950D01*
X0095033Y0226950D02*
X0095033Y0232950D01*
X0090833Y0232950D02*
X0089933Y0232950D01*
X0084933Y0227950D01*
X0084933Y0117950D01*
X0096933Y0105950D01*
X0096933Y0135950D02*
X0089433Y0143450D01*
X0089433Y0213450D01*
X0090933Y0214950D01*
X0090833Y0214950D01*
X0112433Y0180450D02*
X0126933Y0165950D01*
X0133183Y0169700D02*
X0136933Y0165950D01*
X0136933Y0175950D02*
X0136933Y0176450D01*
X0140933Y0180450D01*
X0156933Y0185950D02*
X0160933Y0189950D01*
X0160933Y0197950D01*
X0170183Y0189873D02*
X0185716Y0189873D01*
X0184718Y0189175D02*
X0170183Y0189175D01*
X0170183Y0188476D02*
X0183720Y0188476D01*
X0182722Y0187778D02*
X0170183Y0187778D01*
X0170183Y0187079D02*
X0181725Y0187079D01*
X0180727Y0186381D02*
X0170183Y0186381D01*
X0170183Y0185682D02*
X0179729Y0185682D01*
X0178731Y0184984D02*
X0170183Y0184984D01*
X0170183Y0184285D02*
X0177733Y0184285D01*
X0176735Y0183587D02*
X0170183Y0183587D01*
X0183967Y0195461D02*
X0191433Y0195461D01*
X0191433Y0196160D02*
X0186062Y0196160D01*
X0189183Y0183587D02*
X0200683Y0183587D01*
X0200683Y0182888D02*
X0189183Y0182888D01*
X0189183Y0182189D02*
X0200683Y0182189D01*
X0200683Y0181491D02*
X0189183Y0181491D01*
X0189183Y0180792D02*
X0200683Y0180792D01*
X0200683Y0180094D02*
X0189183Y0180094D01*
X0189183Y0179395D02*
X0200683Y0179395D01*
X0200683Y0178697D02*
X0189183Y0178697D01*
X0189183Y0177998D02*
X0200683Y0177998D01*
X0200683Y0177300D02*
X0189183Y0177300D01*
X0189183Y0176601D02*
X0237683Y0176601D01*
X0237683Y0175903D02*
X0189183Y0175903D01*
X0189183Y0175204D02*
X0237683Y0175204D01*
X0237683Y0174506D02*
X0189183Y0174506D01*
X0189183Y0173807D02*
X0237683Y0173807D01*
X0237683Y0173109D02*
X0189183Y0173109D01*
X0189183Y0172410D02*
X0237683Y0172410D01*
X0237683Y0171712D02*
X0189183Y0171712D01*
X0189183Y0171013D02*
X0237683Y0171013D01*
X0237683Y0170315D02*
X0189183Y0170315D01*
X0189183Y0169616D02*
X0237683Y0169616D01*
X0237683Y0168918D02*
X0189183Y0168918D01*
X0189183Y0168219D02*
X0237683Y0168219D01*
X0237683Y0167521D02*
X0233974Y0167521D01*
X0231893Y0167521D02*
X0189183Y0167521D01*
X0244433Y0167521D02*
X0267433Y0167521D01*
X0267433Y0168219D02*
X0244433Y0168219D01*
X0244433Y0168918D02*
X0267433Y0168918D01*
X0267433Y0169616D02*
X0244433Y0169616D01*
X0244433Y0170315D02*
X0267433Y0170315D01*
X0267433Y0171013D02*
X0244433Y0171013D01*
X0244433Y0171712D02*
X0267433Y0171712D01*
X0267433Y0172410D02*
X0244433Y0172410D01*
X0244433Y0173109D02*
X0267433Y0173109D01*
X0267433Y0173807D02*
X0244433Y0173807D01*
X0244433Y0174506D02*
X0267433Y0174506D01*
X0267433Y0175204D02*
X0244433Y0175204D01*
X0244433Y0175903D02*
X0267433Y0175903D01*
X0267433Y0176601D02*
X0244433Y0176601D01*
X0244433Y0177300D02*
X0267433Y0177300D01*
X0267433Y0177998D02*
X0244433Y0177998D01*
X0244433Y0178697D02*
X0267433Y0178697D01*
X0267433Y0179395D02*
X0244433Y0179395D01*
X0244433Y0180094D02*
X0305433Y0180094D01*
X0305433Y0179950D02*
X0267433Y0179950D01*
X0267433Y0162950D01*
X0244433Y0162950D01*
X0244433Y0204950D01*
X0267433Y0204950D01*
X0267433Y0182950D01*
X0277433Y0182950D01*
X0277433Y0188950D01*
X0281433Y0188950D01*
X0281433Y0204950D01*
X0305433Y0204950D01*
X0305433Y0179950D01*
X0305433Y0180792D02*
X0244433Y0180792D01*
X0244433Y0181491D02*
X0305433Y0181491D01*
X0305433Y0182189D02*
X0244433Y0182189D01*
X0244433Y0182888D02*
X0305433Y0182888D01*
X0305433Y0183587D02*
X0277433Y0183587D01*
X0277433Y0184285D02*
X0305433Y0184285D01*
X0305433Y0184984D02*
X0277433Y0184984D01*
X0277433Y0185682D02*
X0305433Y0185682D01*
X0305433Y0186381D02*
X0277433Y0186381D01*
X0277433Y0187079D02*
X0305433Y0187079D01*
X0305433Y0187778D02*
X0277433Y0187778D01*
X0277433Y0188476D02*
X0305433Y0188476D01*
X0305433Y0189175D02*
X0281433Y0189175D01*
X0281433Y0189873D02*
X0305433Y0189873D01*
X0305433Y0190572D02*
X0281433Y0190572D01*
X0281433Y0191270D02*
X0305433Y0191270D01*
X0305433Y0191969D02*
X0281433Y0191969D01*
X0281433Y0192667D02*
X0305433Y0192667D01*
X0305433Y0193366D02*
X0281433Y0193366D01*
X0281433Y0194064D02*
X0305433Y0194064D01*
X0305433Y0194763D02*
X0281433Y0194763D01*
X0281433Y0195461D02*
X0305433Y0195461D01*
X0305433Y0196160D02*
X0281433Y0196160D01*
X0281433Y0196858D02*
X0305433Y0196858D01*
X0305433Y0197557D02*
X0281433Y0197557D01*
X0281433Y0198255D02*
X0305433Y0198255D01*
X0305433Y0198954D02*
X0281433Y0198954D01*
X0281433Y0199652D02*
X0305433Y0199652D01*
X0305433Y0200351D02*
X0281433Y0200351D01*
X0281433Y0201049D02*
X0305433Y0201049D01*
X0305433Y0201748D02*
X0281433Y0201748D01*
X0281433Y0202446D02*
X0305433Y0202446D01*
X0305433Y0203145D02*
X0281433Y0203145D01*
X0281433Y0203843D02*
X0305433Y0203843D01*
X0305433Y0204542D02*
X0281433Y0204542D01*
X0279433Y0204542D02*
X0269433Y0204542D01*
X0269433Y0204950D02*
X0279433Y0204950D01*
X0279433Y0190950D01*
X0275433Y0190950D01*
X0275433Y0184950D01*
X0269433Y0184950D01*
X0269433Y0204950D01*
X0269433Y0203843D02*
X0279433Y0203843D01*
X0279433Y0203145D02*
X0269433Y0203145D01*
X0269433Y0202446D02*
X0279433Y0202446D01*
X0279433Y0201748D02*
X0269433Y0201748D01*
X0269433Y0201049D02*
X0279433Y0201049D01*
X0279433Y0200351D02*
X0269433Y0200351D01*
X0269433Y0199652D02*
X0279433Y0199652D01*
X0279433Y0198954D02*
X0269433Y0198954D01*
X0269433Y0198255D02*
X0279433Y0198255D01*
X0279433Y0197557D02*
X0269433Y0197557D01*
X0269433Y0196858D02*
X0279433Y0196858D01*
X0279433Y0196160D02*
X0269433Y0196160D01*
X0269433Y0195461D02*
X0279433Y0195461D01*
X0279433Y0194763D02*
X0269433Y0194763D01*
X0269433Y0194064D02*
X0279433Y0194064D01*
X0279433Y0193366D02*
X0269433Y0193366D01*
X0269433Y0192667D02*
X0279433Y0192667D01*
X0279433Y0191969D02*
X0269433Y0191969D01*
X0269433Y0191270D02*
X0279433Y0191270D01*
X0275433Y0190572D02*
X0269433Y0190572D01*
X0269433Y0189873D02*
X0275433Y0189873D01*
X0275433Y0189175D02*
X0269433Y0189175D01*
X0269433Y0188476D02*
X0275433Y0188476D01*
X0275433Y0187778D02*
X0269433Y0187778D01*
X0269433Y0187079D02*
X0275433Y0187079D01*
X0275433Y0186381D02*
X0269433Y0186381D01*
X0269433Y0185682D02*
X0275433Y0185682D01*
X0275433Y0184984D02*
X0269433Y0184984D01*
X0267433Y0184984D02*
X0244433Y0184984D01*
X0244433Y0185682D02*
X0267433Y0185682D01*
X0267433Y0186381D02*
X0244433Y0186381D01*
X0244433Y0187079D02*
X0267433Y0187079D01*
X0267433Y0187778D02*
X0244433Y0187778D01*
X0244433Y0188476D02*
X0267433Y0188476D01*
X0267433Y0189175D02*
X0244433Y0189175D01*
X0244433Y0189873D02*
X0267433Y0189873D01*
X0267433Y0190572D02*
X0244433Y0190572D01*
X0244433Y0191270D02*
X0267433Y0191270D01*
X0267433Y0191969D02*
X0244433Y0191969D01*
X0244433Y0192667D02*
X0267433Y0192667D01*
X0267433Y0193366D02*
X0244433Y0193366D01*
X0244433Y0194064D02*
X0267433Y0194064D01*
X0267433Y0194763D02*
X0244433Y0194763D01*
X0244433Y0195461D02*
X0267433Y0195461D01*
X0267433Y0196160D02*
X0244433Y0196160D01*
X0244433Y0196858D02*
X0267433Y0196858D01*
X0267433Y0197557D02*
X0244433Y0197557D01*
X0244433Y0198255D02*
X0267433Y0198255D01*
X0267433Y0198954D02*
X0244433Y0198954D01*
X0244433Y0199652D02*
X0267433Y0199652D01*
X0267433Y0200351D02*
X0244433Y0200351D01*
X0244433Y0201049D02*
X0267433Y0201049D01*
X0267433Y0201748D02*
X0244433Y0201748D01*
X0244433Y0202446D02*
X0267433Y0202446D01*
X0267433Y0203145D02*
X0244433Y0203145D01*
X0244433Y0203843D02*
X0267433Y0203843D01*
X0267433Y0204542D02*
X0244433Y0204542D01*
X0244433Y0184285D02*
X0267433Y0184285D01*
X0267433Y0183587D02*
X0244433Y0183587D01*
X0244433Y0166822D02*
X0267433Y0166822D01*
X0267433Y0166124D02*
X0244433Y0166124D01*
X0244433Y0165425D02*
X0267433Y0165425D01*
X0267433Y0164727D02*
X0244433Y0164727D01*
X0244433Y0164028D02*
X0267433Y0164028D01*
X0267433Y0163330D02*
X0244433Y0163330D01*
X0274433Y0163330D02*
X0305433Y0163330D01*
X0305433Y0162950D02*
X0274768Y0162950D01*
X0274748Y0162997D01*
X0274433Y0163312D01*
X0274433Y0177950D01*
X0305433Y0177950D01*
X0305433Y0162950D01*
X0305433Y0164028D02*
X0274433Y0164028D01*
X0274433Y0164727D02*
X0305433Y0164727D01*
X0305433Y0165425D02*
X0274433Y0165425D01*
X0274433Y0166124D02*
X0305433Y0166124D01*
X0305433Y0166822D02*
X0274433Y0166822D01*
X0274433Y0167521D02*
X0305433Y0167521D01*
X0305433Y0168219D02*
X0274433Y0168219D01*
X0274433Y0168918D02*
X0305433Y0168918D01*
X0305433Y0169616D02*
X0274433Y0169616D01*
X0274433Y0170315D02*
X0305433Y0170315D01*
X0305433Y0171013D02*
X0274433Y0171013D01*
X0274433Y0171712D02*
X0305433Y0171712D01*
X0305433Y0172410D02*
X0274433Y0172410D01*
X0274433Y0173109D02*
X0305433Y0173109D01*
X0305433Y0173807D02*
X0274433Y0173807D01*
X0274433Y0174506D02*
X0305433Y0174506D01*
X0305433Y0175204D02*
X0274433Y0175204D01*
X0274433Y0175903D02*
X0305433Y0175903D01*
X0305433Y0176601D02*
X0274433Y0176601D01*
X0274433Y0177300D02*
X0305433Y0177300D01*
X0355841Y0249450D02*
X0350433Y0254858D01*
X0350433Y0260950D01*
X0353933Y0260950D01*
X0353933Y0277950D01*
X0360933Y0277950D01*
X0360933Y0261450D01*
X0363933Y0261450D01*
X0363933Y0249450D01*
X0355841Y0249450D01*
X0355346Y0249945D02*
X0363933Y0249945D01*
X0363933Y0250644D02*
X0354648Y0250644D01*
X0353949Y0251342D02*
X0363933Y0251342D01*
X0363933Y0252041D02*
X0353251Y0252041D01*
X0352552Y0252739D02*
X0363933Y0252739D01*
X0363933Y0253438D02*
X0351854Y0253438D01*
X0351155Y0254136D02*
X0363933Y0254136D01*
X0363933Y0254835D02*
X0350457Y0254835D01*
X0350433Y0255533D02*
X0363933Y0255533D01*
X0363933Y0256232D02*
X0350433Y0256232D01*
X0350433Y0256930D02*
X0363933Y0256930D01*
X0363933Y0257629D02*
X0350433Y0257629D01*
X0350433Y0258327D02*
X0363933Y0258327D01*
X0363933Y0259026D02*
X0350433Y0259026D01*
X0350433Y0259724D02*
X0363933Y0259724D01*
X0363933Y0260423D02*
X0350433Y0260423D01*
X0353933Y0261121D02*
X0363933Y0261121D01*
X0365933Y0261121D02*
X0459933Y0261121D01*
X0459933Y0260423D02*
X0365933Y0260423D01*
X0365933Y0259724D02*
X0387207Y0259724D01*
X0387433Y0259950D02*
X0376933Y0249450D01*
X0365933Y0249450D01*
X0365933Y0261500D01*
X0366435Y0261500D01*
X0366933Y0261998D01*
X0366933Y0262800D01*
X0368933Y0262800D01*
X0368933Y0261998D01*
X0369431Y0261500D01*
X0373635Y0261500D01*
X0374133Y0261998D01*
X0374133Y0266902D01*
X0373635Y0267400D01*
X0369431Y0267400D01*
X0368933Y0266902D01*
X0368933Y0266100D01*
X0366933Y0266100D01*
X0366933Y0266902D01*
X0366435Y0267400D01*
X0365933Y0267400D01*
X0365933Y0279950D01*
X0353933Y0279950D01*
X0353933Y0287950D01*
X0362933Y0287950D01*
X0362933Y0298950D01*
X0365933Y0298950D01*
X0365933Y0309950D01*
X0381933Y0309950D01*
X0381933Y0293040D01*
X0387523Y0287450D01*
X0398412Y0287450D01*
X0404433Y0293471D01*
X0404433Y0309950D01*
X0459933Y0309950D01*
X0459933Y0259950D01*
X0437085Y0259950D01*
X0436635Y0260400D01*
X0432431Y0260400D01*
X0431981Y0259950D01*
X0387433Y0259950D01*
X0386509Y0259026D02*
X0365933Y0259026D01*
X0365933Y0258327D02*
X0385810Y0258327D01*
X0385112Y0257629D02*
X0365933Y0257629D01*
X0365933Y0256930D02*
X0384413Y0256930D01*
X0383715Y0256232D02*
X0365933Y0256232D01*
X0365933Y0255533D02*
X0383016Y0255533D01*
X0382318Y0254835D02*
X0365933Y0254835D01*
X0365933Y0254136D02*
X0381619Y0254136D01*
X0380921Y0253438D02*
X0365933Y0253438D01*
X0365933Y0252739D02*
X0380222Y0252739D01*
X0379524Y0252041D02*
X0365933Y0252041D01*
X0365933Y0251342D02*
X0378825Y0251342D01*
X0378127Y0250644D02*
X0365933Y0250644D01*
X0365933Y0249945D02*
X0377428Y0249945D01*
X0373955Y0261820D02*
X0459933Y0261820D01*
X0459933Y0262518D02*
X0374133Y0262518D01*
X0374133Y0263217D02*
X0459933Y0263217D01*
X0459933Y0263915D02*
X0374133Y0263915D01*
X0374133Y0264614D02*
X0459933Y0264614D01*
X0459933Y0265312D02*
X0374133Y0265312D01*
X0374133Y0266011D02*
X0459933Y0266011D01*
X0459933Y0266709D02*
X0374133Y0266709D01*
X0368933Y0266709D02*
X0366933Y0266709D01*
X0365933Y0267408D02*
X0459933Y0267408D01*
X0459933Y0268106D02*
X0365933Y0268106D01*
X0365933Y0268805D02*
X0459933Y0268805D01*
X0459933Y0269503D02*
X0365933Y0269503D01*
X0365933Y0270202D02*
X0459933Y0270202D01*
X0459933Y0270900D02*
X0365933Y0270900D01*
X0365933Y0271599D02*
X0459933Y0271599D01*
X0459933Y0272297D02*
X0365933Y0272297D01*
X0365933Y0272996D02*
X0459933Y0272996D01*
X0459933Y0273694D02*
X0365933Y0273694D01*
X0365933Y0274393D02*
X0459933Y0274393D01*
X0459933Y0275091D02*
X0365933Y0275091D01*
X0365933Y0275790D02*
X0459933Y0275790D01*
X0459933Y0276489D02*
X0365933Y0276489D01*
X0365933Y0277187D02*
X0459933Y0277187D01*
X0459933Y0277886D02*
X0365933Y0277886D01*
X0365933Y0278584D02*
X0459933Y0278584D01*
X0459933Y0279283D02*
X0365933Y0279283D01*
X0360933Y0277886D02*
X0353933Y0277886D01*
X0353933Y0277187D02*
X0360933Y0277187D01*
X0360933Y0276489D02*
X0353933Y0276489D01*
X0353933Y0275790D02*
X0360933Y0275790D01*
X0360933Y0275091D02*
X0353933Y0275091D01*
X0353933Y0274393D02*
X0360933Y0274393D01*
X0360933Y0273694D02*
X0353933Y0273694D01*
X0353933Y0272996D02*
X0360933Y0272996D01*
X0360933Y0272297D02*
X0353933Y0272297D01*
X0353933Y0271599D02*
X0360933Y0271599D01*
X0360933Y0270900D02*
X0353933Y0270900D01*
X0353933Y0270202D02*
X0360933Y0270202D01*
X0360933Y0269503D02*
X0353933Y0269503D01*
X0353933Y0268805D02*
X0360933Y0268805D01*
X0360933Y0268106D02*
X0353933Y0268106D01*
X0353933Y0267408D02*
X0360933Y0267408D01*
X0360933Y0266709D02*
X0353933Y0266709D01*
X0353933Y0266011D02*
X0360933Y0266011D01*
X0360933Y0265312D02*
X0353933Y0265312D01*
X0353933Y0264614D02*
X0360933Y0264614D01*
X0360933Y0263915D02*
X0353933Y0263915D01*
X0353933Y0263217D02*
X0360933Y0263217D01*
X0360933Y0262518D02*
X0353933Y0262518D01*
X0353933Y0261820D02*
X0360933Y0261820D01*
X0366755Y0261820D02*
X0369111Y0261820D01*
X0368933Y0262518D02*
X0366933Y0262518D01*
X0353933Y0279981D02*
X0459933Y0279981D01*
X0459933Y0280680D02*
X0353933Y0280680D01*
X0353933Y0281378D02*
X0459933Y0281378D01*
X0459933Y0282077D02*
X0353933Y0282077D01*
X0353933Y0282775D02*
X0459933Y0282775D01*
X0459933Y0283474D02*
X0353933Y0283474D01*
X0353933Y0284172D02*
X0459933Y0284172D01*
X0459933Y0284871D02*
X0373965Y0284871D01*
X0373844Y0284750D02*
X0375133Y0286039D01*
X0375133Y0287861D01*
X0374333Y0288661D01*
X0374333Y0288900D01*
X0374885Y0288900D01*
X0375383Y0289398D01*
X0375383Y0297902D01*
X0374885Y0298400D01*
X0371981Y0298400D01*
X0371483Y0297902D01*
X0371483Y0289398D01*
X0371533Y0289348D01*
X0371533Y0288661D01*
X0370733Y0287861D01*
X0370733Y0286039D01*
X0372022Y0284750D01*
X0373844Y0284750D01*
X0374663Y0285569D02*
X0459933Y0285569D01*
X0459933Y0286268D02*
X0375133Y0286268D01*
X0375133Y0286966D02*
X0459933Y0286966D01*
X0459933Y0287665D02*
X0398627Y0287665D01*
X0399325Y0288363D02*
X0459933Y0288363D01*
X0459933Y0289062D02*
X0400024Y0289062D01*
X0400723Y0289760D02*
X0459933Y0289760D01*
X0459933Y0290459D02*
X0401421Y0290459D01*
X0402120Y0291157D02*
X0459933Y0291157D01*
X0459933Y0291856D02*
X0402818Y0291856D01*
X0403517Y0292554D02*
X0459933Y0292554D01*
X0459933Y0293253D02*
X0404215Y0293253D01*
X0404433Y0293951D02*
X0459933Y0293951D01*
X0459933Y0294650D02*
X0404433Y0294650D01*
X0404433Y0295348D02*
X0459933Y0295348D01*
X0459933Y0296047D02*
X0404433Y0296047D01*
X0404433Y0296745D02*
X0459933Y0296745D01*
X0459933Y0297444D02*
X0404433Y0297444D01*
X0404433Y0298142D02*
X0459933Y0298142D01*
X0459933Y0298841D02*
X0404433Y0298841D01*
X0404433Y0299539D02*
X0459933Y0299539D01*
X0459933Y0300238D02*
X0404433Y0300238D01*
X0404433Y0300936D02*
X0459933Y0300936D01*
X0459933Y0301635D02*
X0404433Y0301635D01*
X0404433Y0302333D02*
X0459933Y0302333D01*
X0459933Y0303032D02*
X0404433Y0303032D01*
X0404433Y0303730D02*
X0459933Y0303730D01*
X0459933Y0304429D02*
X0404433Y0304429D01*
X0404433Y0305127D02*
X0459933Y0305127D01*
X0459933Y0305826D02*
X0404433Y0305826D01*
X0404433Y0306524D02*
X0459933Y0306524D01*
X0459933Y0307223D02*
X0404433Y0307223D01*
X0404433Y0307922D02*
X0459933Y0307922D01*
X0459933Y0308620D02*
X0404433Y0308620D01*
X0404433Y0309319D02*
X0459933Y0309319D01*
X0464433Y0294450D02*
X0489433Y0294450D01*
X0489433Y0279450D01*
X0477433Y0279450D01*
X0477433Y0288950D01*
X0464433Y0288950D01*
X0464433Y0294450D01*
X0464433Y0293951D02*
X0489433Y0293951D01*
X0489433Y0293253D02*
X0464433Y0293253D01*
X0464433Y0292554D02*
X0489433Y0292554D01*
X0489433Y0291856D02*
X0464433Y0291856D01*
X0464433Y0291157D02*
X0489433Y0291157D01*
X0489433Y0290459D02*
X0464433Y0290459D01*
X0464433Y0289760D02*
X0489433Y0289760D01*
X0489433Y0289062D02*
X0464433Y0289062D01*
X0464933Y0279950D02*
X0473933Y0279950D01*
X0473933Y0278152D01*
X0477135Y0274950D01*
X0513433Y0274950D01*
X0515933Y0277450D01*
X0515933Y0279950D01*
X0519933Y0283950D01*
X0535933Y0283950D01*
X0538933Y0280950D01*
X0538933Y0264950D01*
X0513933Y0264950D01*
X0513933Y0256950D01*
X0501933Y0256950D01*
X0501933Y0265950D01*
X0479933Y0265950D01*
X0474933Y0268950D01*
X0464933Y0268950D01*
X0464933Y0279950D01*
X0464933Y0279283D02*
X0473933Y0279283D01*
X0473933Y0278584D02*
X0464933Y0278584D01*
X0464933Y0277886D02*
X0474199Y0277886D01*
X0474898Y0277187D02*
X0464933Y0277187D01*
X0464933Y0276489D02*
X0475596Y0276489D01*
X0476295Y0275790D02*
X0464933Y0275790D01*
X0464933Y0275091D02*
X0476993Y0275091D01*
X0477433Y0279981D02*
X0489433Y0279981D01*
X0489433Y0280680D02*
X0477433Y0280680D01*
X0477433Y0281378D02*
X0489433Y0281378D01*
X0489433Y0282077D02*
X0477433Y0282077D01*
X0477433Y0282775D02*
X0489433Y0282775D01*
X0489433Y0283474D02*
X0477433Y0283474D01*
X0477433Y0284172D02*
X0489433Y0284172D01*
X0489433Y0284871D02*
X0477433Y0284871D01*
X0477433Y0285569D02*
X0489433Y0285569D01*
X0489433Y0286268D02*
X0477433Y0286268D01*
X0477433Y0286966D02*
X0489433Y0286966D01*
X0489433Y0287665D02*
X0477433Y0287665D01*
X0477433Y0288363D02*
X0489433Y0288363D01*
X0501433Y0288363D02*
X0513433Y0288363D01*
X0513433Y0287665D02*
X0501433Y0287665D01*
X0501433Y0286966D02*
X0513433Y0286966D01*
X0513433Y0286268D02*
X0501433Y0286268D01*
X0501433Y0285569D02*
X0513433Y0285569D01*
X0513433Y0284871D02*
X0501433Y0284871D01*
X0501433Y0284172D02*
X0513433Y0284172D01*
X0513433Y0283474D02*
X0501433Y0283474D01*
X0501433Y0282775D02*
X0513433Y0282775D01*
X0513433Y0282077D02*
X0501433Y0282077D01*
X0501433Y0281378D02*
X0513433Y0281378D01*
X0513433Y0280680D02*
X0501433Y0280680D01*
X0501433Y0279981D02*
X0513433Y0279981D01*
X0513433Y0279450D02*
X0501433Y0279450D01*
X0501433Y0294450D01*
X0513433Y0294450D01*
X0513433Y0279450D01*
X0515933Y0279283D02*
X0538933Y0279283D01*
X0538933Y0279981D02*
X0515964Y0279981D01*
X0516663Y0280680D02*
X0538933Y0280680D01*
X0538505Y0281378D02*
X0517361Y0281378D01*
X0518060Y0282077D02*
X0537806Y0282077D01*
X0537108Y0282775D02*
X0518758Y0282775D01*
X0519457Y0283474D02*
X0536409Y0283474D01*
X0538933Y0278584D02*
X0515933Y0278584D01*
X0515933Y0277886D02*
X0538933Y0277886D01*
X0538933Y0277187D02*
X0515670Y0277187D01*
X0514972Y0276489D02*
X0538933Y0276489D01*
X0538933Y0275790D02*
X0514273Y0275790D01*
X0513575Y0275091D02*
X0538933Y0275091D01*
X0538933Y0274393D02*
X0464933Y0274393D01*
X0464933Y0273694D02*
X0538933Y0273694D01*
X0538933Y0272996D02*
X0464933Y0272996D01*
X0464933Y0272297D02*
X0538933Y0272297D01*
X0538933Y0271599D02*
X0464933Y0271599D01*
X0464933Y0270900D02*
X0538933Y0270900D01*
X0538933Y0270202D02*
X0464933Y0270202D01*
X0464933Y0269503D02*
X0538933Y0269503D01*
X0538933Y0268805D02*
X0475175Y0268805D01*
X0476339Y0268106D02*
X0538933Y0268106D01*
X0538933Y0267408D02*
X0477503Y0267408D01*
X0478667Y0266709D02*
X0538933Y0266709D01*
X0538933Y0266011D02*
X0479832Y0266011D01*
X0483433Y0261450D02*
X0491328Y0261450D01*
X0495433Y0257344D01*
X0495433Y0244950D01*
X0483433Y0244950D01*
X0483433Y0261450D01*
X0483433Y0261121D02*
X0491656Y0261121D01*
X0492355Y0260423D02*
X0483433Y0260423D01*
X0483433Y0259724D02*
X0493053Y0259724D01*
X0493752Y0259026D02*
X0483433Y0259026D01*
X0483433Y0258327D02*
X0494450Y0258327D01*
X0495149Y0257629D02*
X0483433Y0257629D01*
X0483433Y0256930D02*
X0495433Y0256930D01*
X0495433Y0256232D02*
X0483433Y0256232D01*
X0483433Y0255533D02*
X0495433Y0255533D01*
X0495433Y0254835D02*
X0483433Y0254835D01*
X0483433Y0254136D02*
X0495433Y0254136D01*
X0495433Y0253438D02*
X0483433Y0253438D01*
X0483433Y0252739D02*
X0495433Y0252739D01*
X0495433Y0252041D02*
X0483433Y0252041D01*
X0483433Y0251342D02*
X0495433Y0251342D01*
X0495433Y0250644D02*
X0483433Y0250644D01*
X0483433Y0249945D02*
X0495433Y0249945D01*
X0495433Y0249247D02*
X0483433Y0249247D01*
X0483433Y0248548D02*
X0495433Y0248548D01*
X0495433Y0247850D02*
X0483433Y0247850D01*
X0483433Y0247151D02*
X0495433Y0247151D01*
X0495433Y0246453D02*
X0483433Y0246453D01*
X0483433Y0245754D02*
X0495433Y0245754D01*
X0495433Y0245055D02*
X0483433Y0245055D01*
X0501933Y0257629D02*
X0513933Y0257629D01*
X0513933Y0258327D02*
X0501933Y0258327D01*
X0501933Y0259026D02*
X0513933Y0259026D01*
X0513933Y0259724D02*
X0501933Y0259724D01*
X0501933Y0260423D02*
X0513933Y0260423D01*
X0513933Y0261121D02*
X0501933Y0261121D01*
X0501933Y0261820D02*
X0513933Y0261820D01*
X0513933Y0262518D02*
X0501933Y0262518D01*
X0501933Y0263217D02*
X0513933Y0263217D01*
X0513933Y0263915D02*
X0501933Y0263915D01*
X0501933Y0264614D02*
X0513933Y0264614D01*
X0501933Y0265312D02*
X0538933Y0265312D01*
X0513433Y0289062D02*
X0501433Y0289062D01*
X0501433Y0289760D02*
X0513433Y0289760D01*
X0513433Y0290459D02*
X0501433Y0290459D01*
X0501433Y0291157D02*
X0513433Y0291157D01*
X0513433Y0291856D02*
X0501433Y0291856D01*
X0501433Y0292554D02*
X0513433Y0292554D01*
X0513433Y0293253D02*
X0501433Y0293253D01*
X0501433Y0293951D02*
X0513433Y0293951D01*
X0387309Y0287665D02*
X0375133Y0287665D01*
X0374631Y0288363D02*
X0386610Y0288363D01*
X0385912Y0289062D02*
X0375047Y0289062D01*
X0375383Y0289760D02*
X0385213Y0289760D01*
X0384515Y0290459D02*
X0375383Y0290459D01*
X0375383Y0291157D02*
X0383816Y0291157D01*
X0383117Y0291856D02*
X0375383Y0291856D01*
X0375383Y0292554D02*
X0382419Y0292554D01*
X0381933Y0293253D02*
X0375383Y0293253D01*
X0375383Y0293951D02*
X0381933Y0293951D01*
X0381933Y0294650D02*
X0375383Y0294650D01*
X0375383Y0295348D02*
X0381933Y0295348D01*
X0381933Y0296047D02*
X0375383Y0296047D01*
X0375383Y0296745D02*
X0381933Y0296745D01*
X0381933Y0297444D02*
X0375383Y0297444D01*
X0375143Y0298142D02*
X0381933Y0298142D01*
X0381933Y0298841D02*
X0362933Y0298841D01*
X0362933Y0298142D02*
X0371723Y0298142D01*
X0371483Y0297444D02*
X0362933Y0297444D01*
X0362933Y0296745D02*
X0371483Y0296745D01*
X0371483Y0296047D02*
X0362933Y0296047D01*
X0362933Y0295348D02*
X0371483Y0295348D01*
X0371483Y0294650D02*
X0362933Y0294650D01*
X0362933Y0293951D02*
X0371483Y0293951D01*
X0371483Y0293253D02*
X0362933Y0293253D01*
X0362933Y0292554D02*
X0371483Y0292554D01*
X0371483Y0291856D02*
X0362933Y0291856D01*
X0362933Y0291157D02*
X0371483Y0291157D01*
X0371483Y0290459D02*
X0362933Y0290459D01*
X0362933Y0289760D02*
X0371483Y0289760D01*
X0371533Y0289062D02*
X0362933Y0289062D01*
X0362933Y0288363D02*
X0371235Y0288363D01*
X0370733Y0287665D02*
X0353933Y0287665D01*
X0353933Y0286966D02*
X0370733Y0286966D01*
X0370733Y0286268D02*
X0353933Y0286268D01*
X0353933Y0285569D02*
X0371203Y0285569D01*
X0371901Y0284871D02*
X0353933Y0284871D01*
X0347933Y0289950D02*
X0347933Y0305340D01*
X0352143Y0309550D01*
X0363513Y0309550D01*
X0363913Y0309950D01*
X0363933Y0309950D01*
X0363933Y0300950D01*
X0360933Y0300950D01*
X0360933Y0289950D01*
X0347933Y0289950D01*
X0347933Y0290459D02*
X0360933Y0290459D01*
X0360933Y0291157D02*
X0347933Y0291157D01*
X0347933Y0291856D02*
X0360933Y0291856D01*
X0360933Y0292554D02*
X0347933Y0292554D01*
X0347933Y0293253D02*
X0360933Y0293253D01*
X0360933Y0293951D02*
X0347933Y0293951D01*
X0347933Y0294650D02*
X0360933Y0294650D01*
X0360933Y0295348D02*
X0347933Y0295348D01*
X0347933Y0296047D02*
X0360933Y0296047D01*
X0360933Y0296745D02*
X0347933Y0296745D01*
X0347933Y0297444D02*
X0360933Y0297444D01*
X0360933Y0298142D02*
X0347933Y0298142D01*
X0347933Y0298841D02*
X0360933Y0298841D01*
X0360933Y0299539D02*
X0347933Y0299539D01*
X0347933Y0300238D02*
X0360933Y0300238D01*
X0360933Y0300936D02*
X0347933Y0300936D01*
X0347933Y0301635D02*
X0363933Y0301635D01*
X0363933Y0302333D02*
X0347933Y0302333D01*
X0347933Y0303032D02*
X0363933Y0303032D01*
X0363933Y0303730D02*
X0347933Y0303730D01*
X0347933Y0304429D02*
X0363933Y0304429D01*
X0363933Y0305127D02*
X0347933Y0305127D01*
X0348419Y0305826D02*
X0363933Y0305826D01*
X0363933Y0306524D02*
X0349117Y0306524D01*
X0349816Y0307223D02*
X0363933Y0307223D01*
X0363933Y0307922D02*
X0350514Y0307922D01*
X0351213Y0308620D02*
X0363933Y0308620D01*
X0363933Y0309319D02*
X0351911Y0309319D01*
X0365933Y0309319D02*
X0381933Y0309319D01*
X0381933Y0308620D02*
X0365933Y0308620D01*
X0365933Y0307922D02*
X0381933Y0307922D01*
X0381933Y0307223D02*
X0365933Y0307223D01*
X0365933Y0306524D02*
X0381933Y0306524D01*
X0381933Y0305826D02*
X0365933Y0305826D01*
X0365933Y0305127D02*
X0381933Y0305127D01*
X0381933Y0304429D02*
X0365933Y0304429D01*
X0365933Y0303730D02*
X0381933Y0303730D01*
X0381933Y0303032D02*
X0365933Y0303032D01*
X0365933Y0302333D02*
X0381933Y0302333D01*
X0381933Y0301635D02*
X0365933Y0301635D01*
X0365933Y0300936D02*
X0381933Y0300936D01*
X0381933Y0300238D02*
X0365933Y0300238D01*
X0365933Y0299539D02*
X0381933Y0299539D01*
X0258677Y0278710D02*
X0258677Y0278369D01*
X0255758Y0275450D01*
X0142933Y0252450D02*
X0122933Y0272450D01*
X0120333Y0272450D01*
D69*
X0104933Y0235036D02*
X0104933Y0230950D01*
X0104933Y0218850D02*
X0104933Y0212950D01*
X0152933Y0210700D02*
X0152933Y0239450D01*
X0176183Y0173950D02*
X0182463Y0173950D01*
X0182563Y0173850D01*
X0184303Y0173850D01*
X0184403Y0173950D01*
X0186183Y0173950D01*
X0186183Y0165950D01*
X0189933Y0165950D01*
X0189933Y0155950D01*
X0166183Y0155950D01*
X0166183Y0165240D01*
X0166593Y0165650D01*
X0172691Y0165650D01*
X0172991Y0165950D01*
X0176183Y0165950D01*
X0176183Y0173950D01*
X0176183Y0173611D02*
X0186183Y0173611D01*
X0186183Y0173112D02*
X0176183Y0173112D01*
X0176183Y0172614D02*
X0186183Y0172614D01*
X0186183Y0172115D02*
X0176183Y0172115D01*
X0176183Y0171617D02*
X0186183Y0171617D01*
X0186183Y0171118D02*
X0176183Y0171118D01*
X0176183Y0170620D02*
X0186183Y0170620D01*
X0186183Y0170121D02*
X0176183Y0170121D01*
X0176183Y0169622D02*
X0186183Y0169622D01*
X0186183Y0169124D02*
X0176183Y0169124D01*
X0176183Y0168625D02*
X0186183Y0168625D01*
X0186183Y0168127D02*
X0176183Y0168127D01*
X0176183Y0167628D02*
X0186183Y0167628D01*
X0186183Y0167130D02*
X0176183Y0167130D01*
X0176183Y0166631D02*
X0186183Y0166631D01*
X0186183Y0166133D02*
X0176183Y0166133D01*
X0166577Y0165634D02*
X0189933Y0165634D01*
X0189933Y0165136D02*
X0166183Y0165136D01*
X0166183Y0164637D02*
X0189933Y0164637D01*
X0189933Y0164139D02*
X0166183Y0164139D01*
X0166183Y0163640D02*
X0189933Y0163640D01*
X0189933Y0163142D02*
X0166183Y0163142D01*
X0166183Y0162643D02*
X0189933Y0162643D01*
X0189933Y0162145D02*
X0166183Y0162145D01*
X0166183Y0161646D02*
X0189933Y0161646D01*
X0189933Y0161148D02*
X0166183Y0161148D01*
X0166183Y0160649D02*
X0189933Y0160649D01*
X0189933Y0160151D02*
X0166183Y0160151D01*
X0166183Y0159652D02*
X0189933Y0159652D01*
X0189933Y0159154D02*
X0166183Y0159154D01*
X0166183Y0158655D02*
X0189933Y0158655D01*
X0189933Y0158157D02*
X0166183Y0158157D01*
X0166183Y0157658D02*
X0189933Y0157658D01*
X0189933Y0157160D02*
X0166183Y0157160D01*
X0166183Y0156661D02*
X0189933Y0156661D01*
X0189933Y0156163D02*
X0166183Y0156163D01*
X0166183Y0152200D02*
X0178683Y0152200D01*
X0178683Y0147200D01*
X0183683Y0147200D01*
X0183683Y0153450D01*
X0188683Y0153450D01*
X0188683Y0147200D01*
X0204933Y0147200D01*
X0204933Y0152200D01*
X0213433Y0152200D01*
X0213433Y0141804D01*
X0213105Y0141013D01*
X0213105Y0139887D01*
X0213433Y0139096D01*
X0213433Y0136950D01*
X0206183Y0129700D01*
X0183683Y0129700D01*
X0183683Y0143450D01*
X0166183Y0143450D01*
X0166183Y0152200D01*
X0166183Y0152175D02*
X0178683Y0152175D01*
X0178683Y0151676D02*
X0166183Y0151676D01*
X0166183Y0151178D02*
X0178683Y0151178D01*
X0178683Y0150679D02*
X0166183Y0150679D01*
X0166183Y0150181D02*
X0178683Y0150181D01*
X0178683Y0149682D02*
X0166183Y0149682D01*
X0166183Y0149184D02*
X0178683Y0149184D01*
X0178683Y0148685D02*
X0166183Y0148685D01*
X0166183Y0148187D02*
X0178683Y0148187D01*
X0178683Y0147688D02*
X0166183Y0147688D01*
X0166183Y0147189D02*
X0213433Y0147189D01*
X0213433Y0146691D02*
X0166183Y0146691D01*
X0166183Y0146192D02*
X0213433Y0146192D01*
X0213433Y0145694D02*
X0166183Y0145694D01*
X0166183Y0145195D02*
X0213433Y0145195D01*
X0213433Y0144697D02*
X0166183Y0144697D01*
X0166183Y0144198D02*
X0213433Y0144198D01*
X0213433Y0143700D02*
X0166183Y0143700D01*
X0177433Y0142200D02*
X0182433Y0142200D01*
X0182433Y0129920D01*
X0182213Y0129700D01*
X0177433Y0129700D01*
X0177433Y0142200D01*
X0177433Y0141706D02*
X0182433Y0141706D01*
X0182433Y0141207D02*
X0177433Y0141207D01*
X0177433Y0140709D02*
X0182433Y0140709D01*
X0182433Y0140210D02*
X0177433Y0140210D01*
X0177433Y0139712D02*
X0182433Y0139712D01*
X0182433Y0139213D02*
X0177433Y0139213D01*
X0177433Y0138715D02*
X0182433Y0138715D01*
X0182433Y0138216D02*
X0177433Y0138216D01*
X0177433Y0137718D02*
X0182433Y0137718D01*
X0182433Y0137219D02*
X0177433Y0137219D01*
X0177433Y0136721D02*
X0182433Y0136721D01*
X0182433Y0136222D02*
X0177433Y0136222D01*
X0177433Y0135724D02*
X0182433Y0135724D01*
X0182433Y0135225D02*
X0177433Y0135225D01*
X0177433Y0134727D02*
X0182433Y0134727D01*
X0182433Y0134228D02*
X0177433Y0134228D01*
X0177433Y0133730D02*
X0182433Y0133730D01*
X0182433Y0133231D02*
X0177433Y0133231D01*
X0177433Y0132733D02*
X0182433Y0132733D01*
X0182433Y0132234D02*
X0177433Y0132234D01*
X0177433Y0131736D02*
X0182433Y0131736D01*
X0182433Y0131237D02*
X0177433Y0131237D01*
X0177433Y0130739D02*
X0182433Y0130739D01*
X0182433Y0130240D02*
X0177433Y0130240D01*
X0177433Y0129742D02*
X0182255Y0129742D01*
X0183683Y0129742D02*
X0206225Y0129742D01*
X0206723Y0130240D02*
X0183683Y0130240D01*
X0183683Y0130739D02*
X0207222Y0130739D01*
X0207720Y0131237D02*
X0183683Y0131237D01*
X0183683Y0131736D02*
X0208219Y0131736D01*
X0208717Y0132234D02*
X0183683Y0132234D01*
X0183683Y0132733D02*
X0209216Y0132733D01*
X0209714Y0133231D02*
X0183683Y0133231D01*
X0183683Y0133730D02*
X0210213Y0133730D01*
X0210711Y0134228D02*
X0183683Y0134228D01*
X0183683Y0134727D02*
X0211210Y0134727D01*
X0211708Y0135225D02*
X0183683Y0135225D01*
X0183683Y0135724D02*
X0212207Y0135724D01*
X0212705Y0136222D02*
X0183683Y0136222D01*
X0183683Y0136721D02*
X0213204Y0136721D01*
X0213433Y0137219D02*
X0183683Y0137219D01*
X0183683Y0137718D02*
X0213433Y0137718D01*
X0213433Y0138216D02*
X0183683Y0138216D01*
X0183683Y0138715D02*
X0213433Y0138715D01*
X0213384Y0139213D02*
X0183683Y0139213D01*
X0183683Y0139712D02*
X0213178Y0139712D01*
X0213105Y0140210D02*
X0183683Y0140210D01*
X0183683Y0140709D02*
X0213105Y0140709D01*
X0213186Y0141207D02*
X0183683Y0141207D01*
X0183683Y0141706D02*
X0213392Y0141706D01*
X0213433Y0142204D02*
X0183683Y0142204D01*
X0183683Y0142703D02*
X0213433Y0142703D01*
X0213433Y0143201D02*
X0183683Y0143201D01*
X0183683Y0147688D02*
X0188683Y0147688D01*
X0188683Y0148187D02*
X0183683Y0148187D01*
X0183683Y0148685D02*
X0188683Y0148685D01*
X0188683Y0149184D02*
X0183683Y0149184D01*
X0183683Y0149682D02*
X0188683Y0149682D01*
X0188683Y0150181D02*
X0183683Y0150181D01*
X0183683Y0150679D02*
X0188683Y0150679D01*
X0188683Y0151178D02*
X0183683Y0151178D01*
X0183683Y0151676D02*
X0188683Y0151676D01*
X0188683Y0152175D02*
X0183683Y0152175D01*
X0183683Y0152673D02*
X0188683Y0152673D01*
X0188683Y0153172D02*
X0183683Y0153172D01*
X0193683Y0153172D02*
X0203683Y0153172D01*
X0203683Y0153670D02*
X0193683Y0153670D01*
X0193683Y0154169D02*
X0203683Y0154169D01*
X0203683Y0154667D02*
X0193683Y0154667D01*
X0193683Y0155166D02*
X0203683Y0155166D01*
X0203683Y0155664D02*
X0193683Y0155664D01*
X0193683Y0156163D02*
X0224433Y0156163D01*
X0224433Y0155950D02*
X0203683Y0155950D01*
X0203683Y0148450D01*
X0193683Y0148450D01*
X0193683Y0167950D01*
X0224433Y0167950D01*
X0224433Y0155950D01*
X0224433Y0156661D02*
X0193683Y0156661D01*
X0193683Y0157160D02*
X0224433Y0157160D01*
X0224433Y0157658D02*
X0193683Y0157658D01*
X0193683Y0158157D02*
X0224433Y0158157D01*
X0224433Y0158655D02*
X0193683Y0158655D01*
X0193683Y0159154D02*
X0224433Y0159154D01*
X0224433Y0159652D02*
X0193683Y0159652D01*
X0193683Y0160151D02*
X0224433Y0160151D01*
X0224433Y0160649D02*
X0193683Y0160649D01*
X0193683Y0161148D02*
X0224433Y0161148D01*
X0224433Y0161646D02*
X0193683Y0161646D01*
X0193683Y0162145D02*
X0224433Y0162145D01*
X0224433Y0162643D02*
X0193683Y0162643D01*
X0193683Y0163142D02*
X0224433Y0163142D01*
X0224433Y0163640D02*
X0193683Y0163640D01*
X0193683Y0164139D02*
X0224433Y0164139D01*
X0224433Y0164637D02*
X0193683Y0164637D01*
X0193683Y0165136D02*
X0224433Y0165136D01*
X0224433Y0165634D02*
X0193683Y0165634D01*
X0193683Y0166133D02*
X0224433Y0166133D01*
X0224433Y0166631D02*
X0193683Y0166631D01*
X0193683Y0167130D02*
X0224433Y0167130D01*
X0224433Y0167628D02*
X0193683Y0167628D01*
X0193683Y0152673D02*
X0203683Y0152673D01*
X0203683Y0152175D02*
X0193683Y0152175D01*
X0193683Y0151676D02*
X0203683Y0151676D01*
X0203683Y0151178D02*
X0193683Y0151178D01*
X0193683Y0150679D02*
X0203683Y0150679D01*
X0203683Y0150181D02*
X0193683Y0150181D01*
X0193683Y0149682D02*
X0203683Y0149682D01*
X0203683Y0149184D02*
X0193683Y0149184D01*
X0193683Y0148685D02*
X0203683Y0148685D01*
X0204933Y0148685D02*
X0213433Y0148685D01*
X0213433Y0148187D02*
X0204933Y0148187D01*
X0204933Y0147688D02*
X0213433Y0147688D01*
X0213433Y0149184D02*
X0204933Y0149184D01*
X0204933Y0149682D02*
X0213433Y0149682D01*
X0213433Y0150181D02*
X0204933Y0150181D01*
X0204933Y0150679D02*
X0213433Y0150679D01*
X0213433Y0151178D02*
X0204933Y0151178D01*
X0204933Y0151676D02*
X0213433Y0151676D01*
X0213433Y0152175D02*
X0204933Y0152175D01*
D70*
X0262433Y0114950D02*
X0272433Y0124950D01*
X0272433Y0161450D01*
X0306333Y0219450D02*
X0307433Y0220550D01*
X0307433Y0241545D01*
X0323433Y0257545D01*
X0323433Y0298922D01*
X0323433Y0301350D01*
X0323433Y0306450D01*
X0335933Y0318950D01*
X0323433Y0301350D02*
X0313933Y0301350D01*
X0313933Y0311651D01*
X0293980Y0331604D01*
X0293980Y0337627D01*
X0287315Y0344293D01*
X0277543Y0328946D02*
X0256283Y0328946D01*
X0253429Y0326092D01*
X0253429Y0315462D01*
X0259508Y0297450D02*
X0259608Y0297350D01*
X0259608Y0292950D01*
X0266408Y0292950D02*
X0266408Y0297350D01*
X0266508Y0297450D01*
X0266408Y0292950D02*
X0270508Y0292950D01*
X0267339Y0292019D02*
X0267339Y0286190D01*
X0267339Y0282450D02*
X0271508Y0282450D01*
X0267339Y0278710D02*
X0266908Y0278279D01*
X0266908Y0271950D01*
X0271008Y0271950D01*
X0266908Y0271950D02*
X0266908Y0267550D01*
X0267008Y0267450D01*
X0260108Y0267550D02*
X0260108Y0271950D01*
X0256008Y0271950D01*
X0260108Y0267550D02*
X0260008Y0267450D01*
X0282933Y0268450D02*
X0282961Y0268478D01*
X0286933Y0268478D01*
X0287033Y0268478D01*
X0287433Y0268478D01*
X0286933Y0268450D02*
X0286933Y0261450D01*
X0286333Y0260478D02*
X0281961Y0260478D01*
X0281933Y0260450D01*
X0285933Y0260450D02*
X0285933Y0254950D01*
X0294933Y0254950D02*
X0294933Y0260450D01*
X0294533Y0260478D02*
X0298906Y0260478D01*
X0298933Y0260450D01*
X0293933Y0261450D02*
X0293933Y0268450D01*
X0293833Y0268478D02*
X0297906Y0268478D01*
X0297933Y0268450D01*
X0293833Y0268478D02*
X0293433Y0268878D01*
X0302933Y0264950D02*
X0307333Y0264950D01*
X0307333Y0265422D01*
X0308033Y0265422D01*
X0308033Y0273422D01*
X0307673Y0273782D01*
X0307673Y0280135D01*
X0308033Y0273450D02*
X0308033Y0273422D01*
X0308033Y0273450D02*
X0303933Y0273450D01*
X0314833Y0273450D02*
X0314833Y0273422D01*
X0314833Y0265450D01*
X0315433Y0265450D01*
X0315433Y0264450D01*
X0315533Y0265422D02*
X0315533Y0265450D01*
X0319933Y0265450D01*
X0315533Y0265422D02*
X0315533Y0260050D01*
X0315433Y0259950D01*
X0307433Y0259950D02*
X0307333Y0260050D01*
X0307333Y0265422D01*
X0314833Y0273450D02*
X0318933Y0273450D01*
X0303933Y0290765D02*
X0303933Y0294950D01*
X0300193Y0290765D02*
X0293218Y0290765D01*
X0293033Y0290950D01*
X0293033Y0293586D01*
X0293033Y0290950D02*
X0293033Y0283578D01*
X0291142Y0295478D02*
X0290406Y0295478D01*
X0285433Y0300450D01*
X0285433Y0309950D01*
X0281307Y0314076D01*
X0281307Y0325182D01*
X0277543Y0328946D01*
X0313533Y0301350D02*
X0313933Y0301350D01*
X0267339Y0292019D02*
X0267337Y0292077D01*
X0267332Y0292136D01*
X0267323Y0292193D01*
X0267310Y0292251D01*
X0267293Y0292307D01*
X0267274Y0292362D01*
X0267250Y0292415D01*
X0267224Y0292468D01*
X0267194Y0292518D01*
X0267161Y0292566D01*
X0267125Y0292612D01*
X0267087Y0292656D01*
X0267045Y0292698D01*
X0267001Y0292736D01*
X0266955Y0292772D01*
X0266907Y0292805D01*
X0266857Y0292835D01*
X0266804Y0292861D01*
X0266751Y0292885D01*
X0266696Y0292904D01*
X0266640Y0292921D01*
X0266582Y0292934D01*
X0266525Y0292943D01*
X0266466Y0292948D01*
X0266408Y0292950D01*
X0219335Y0286895D02*
X0219113Y0286895D01*
X0215361Y0290647D01*
X0211685Y0286871D02*
X0208764Y0284509D01*
X0208614Y0284359D01*
X0208614Y0283462D01*
X0208614Y0284359D02*
X0208614Y0290593D01*
X0208561Y0290647D01*
X0208535Y0290672D01*
X0177311Y0294840D02*
X0177311Y0296487D01*
X0176059Y0297739D01*
X0176059Y0303478D01*
X0155559Y0280450D02*
X0148931Y0280450D01*
X0148531Y0280850D01*
X0148631Y0280950D01*
X0148559Y0280950D02*
X0148559Y0284950D01*
X0140559Y0285950D02*
X0140559Y0281450D01*
X0140531Y0281550D02*
X0140531Y0281950D01*
X0135059Y0281950D01*
X0135059Y0272950D02*
X0140559Y0272950D01*
X0140559Y0268950D01*
X0148559Y0269950D02*
X0148559Y0273950D01*
X0157559Y0271714D02*
X0157559Y0278450D01*
X0155559Y0280450D01*
X0272433Y0241450D02*
X0272533Y0241350D01*
X0276933Y0241350D01*
X0282833Y0241350D01*
X0284433Y0242950D01*
X0276933Y0241350D02*
X0274933Y0245450D01*
X0277333Y0234950D02*
X0282433Y0234950D01*
X0284433Y0232950D01*
X0277333Y0234950D02*
X0276933Y0234550D01*
X0276933Y0230450D01*
X0276933Y0234550D02*
X0272533Y0234550D01*
X0272433Y0234450D01*
X0292433Y0243450D02*
X0294533Y0241350D01*
X0299933Y0241350D01*
X0299933Y0245450D01*
X0299933Y0234550D02*
X0299933Y0234450D01*
X0299933Y0230450D01*
X0316933Y0228450D02*
X0322433Y0228450D01*
X0323933Y0226950D01*
X0330433Y0226950D01*
X0330433Y0226850D01*
X0330433Y0226950D02*
X0330433Y0230950D01*
X0322433Y0232950D02*
X0322433Y0228522D01*
X0321933Y0220450D02*
X0316933Y0220450D01*
X0321933Y0220450D02*
X0321933Y0215950D01*
X0322706Y0220050D02*
X0330433Y0220050D01*
X0336433Y0219950D01*
X0342169Y0219950D01*
X0330433Y0220050D02*
X0330433Y0215950D01*
X0322706Y0220050D02*
X0322433Y0220322D01*
X0373433Y0220350D02*
X0373933Y0220050D01*
X0373433Y0220350D02*
X0381933Y0220350D01*
X0381933Y0220950D01*
X0386933Y0220950D01*
X0381933Y0220950D02*
X0381933Y0224450D01*
X0381933Y0228550D02*
X0381933Y0232950D01*
X0373933Y0230950D02*
X0373933Y0226850D01*
X0443433Y0217950D02*
X0447033Y0217950D01*
X0447933Y0218850D01*
X0447933Y0216950D01*
X0447933Y0213950D01*
X0448933Y0212950D01*
X0448933Y0217950D02*
X0452433Y0217950D01*
X0451533Y0222450D02*
X0447933Y0218850D01*
X0447433Y0222450D02*
X0451433Y0222450D01*
X0451533Y0222450D02*
X0455433Y0226350D01*
X0455433Y0229950D01*
X0453433Y0231950D01*
X0452933Y0231950D01*
X0461248Y0235690D02*
X0461533Y0235975D01*
X0461533Y0241450D01*
X0457933Y0241450D01*
X0461433Y0241550D02*
X0461433Y0250450D01*
X0461433Y0256450D01*
X0460933Y0250450D02*
X0456933Y0250450D01*
X0461433Y0241550D02*
X0461533Y0241450D01*
X0468333Y0241450D02*
X0471933Y0241450D01*
X0474433Y0250450D02*
X0478933Y0250450D01*
X0472933Y0250950D02*
X0472933Y0256450D01*
X0461933Y0224950D02*
X0458333Y0222450D01*
X0464933Y0218950D02*
X0460933Y0214950D01*
X0460933Y0213950D01*
D71*
X0253429Y0315462D03*
X0177311Y0294840D03*
D72*
X0162559Y0285450D03*
X0272433Y0200950D03*
X0272433Y0161450D03*
X0262433Y0114950D03*
X0164033Y0170450D03*
X0335933Y0318950D03*
D73*
X0483933Y0286450D03*
X0507433Y0286450D03*
X0489433Y0250450D03*
X0539433Y0119950D03*
D74*
X0539433Y0313450D03*
X0523433Y0313450D03*
D75*
X0426933Y0364950D03*
X0410933Y0326450D03*
X0290433Y0325450D03*
X0341933Y0172450D03*
X0304933Y0111950D03*
X0304933Y0089950D03*
X0302433Y0079450D03*
X0312433Y0073450D03*
X0302433Y0065450D03*
X0484051Y0112588D03*
X0085433Y0065950D03*
X0081189Y0278450D03*
D76*
X0184543Y0265450D02*
X0185713Y0265450D01*
X0198561Y0270580D02*
X0200798Y0268343D01*
X0212354Y0272832D02*
X0212354Y0273336D01*
X0212354Y0274723D01*
X0216010Y0282834D02*
X0215286Y0283559D01*
X0216010Y0282834D02*
X0222780Y0282834D01*
X0224092Y0284147D01*
X0224092Y0290647D01*
X0230849Y0290864D02*
X0230849Y0291585D01*
X0230892Y0290647D02*
X0235659Y0285880D01*
X0201192Y0283697D02*
X0198561Y0286328D01*
X0198561Y0285950D01*
X0191812Y0279201D01*
D77*
X0178626Y0289478D03*
X0161697Y0319399D03*
X0262795Y0344293D03*
X0267209Y0357950D03*
D78*
X0267276Y0210450D02*
X0257933Y0210450D01*
X0247833Y0210450D01*
X0267276Y0210450D02*
X0272933Y0204793D01*
X0272933Y0194950D01*
X0272433Y0090950D02*
X0272433Y0084450D01*
X0274933Y0081950D01*
X0290433Y0081950D01*
X0297933Y0089450D01*
X0304433Y0089450D01*
X0304933Y0089950D01*
X0480633Y0283150D02*
X0483933Y0286450D01*
D79*
X0530433Y0138950D03*
X0505933Y0128950D03*
D80*
X0530527Y0128856D02*
X0539433Y0119950D01*
D81*
X0220683Y0145200D02*
X0220683Y0147363D01*
X0220683Y0145200D02*
X0215933Y0140450D01*
X0190008Y0181950D02*
X0186433Y0181950D01*
X0190008Y0181950D02*
X0190943Y0182885D01*
X0169346Y0170450D02*
X0164033Y0170450D01*
X0165783Y0185700D02*
X0165783Y0192200D01*
X0165783Y0228300D01*
X0181683Y0244200D01*
X0201683Y0244200D01*
X0202683Y0243200D01*
X0202683Y0236700D01*
X0202183Y0236200D01*
D82*
X0505933Y0128950D02*
X0505933Y0118958D01*
X0517697Y0107194D01*
X0530527Y0129950D02*
X0530527Y0130450D01*
X0530527Y0267856D01*
D83*
X0530433Y0138950D02*
X0530527Y0138856D01*
X0530527Y0130450D01*
X0530527Y0129950D02*
X0530527Y0128856D01*
D84*
X0412933Y0129950D02*
X0367933Y0129950D01*
X0327933Y0089950D01*
X0304933Y0089950D01*
X0304933Y0111950D02*
X0293433Y0111950D01*
X0282433Y0100950D01*
X0282433Y0090950D01*
X0272433Y0090950D02*
X0272433Y0100950D01*
X0304933Y0111950D02*
X0319933Y0111950D01*
X0337933Y0129950D01*
D85*
X0241033Y0210450D02*
X0238134Y0210450D01*
X0234494Y0214090D01*
D86*
X0269571Y0317430D03*
X0274295Y0331997D03*
D87*
X0186433Y0181950D03*
M02*
