G75*
%MOIN*%
%OFA0B0*%
%FSLAX24Y24*%
%IPPOS*%
%LPD*%
%AMOC8*
5,1,8,0,0,1.08239X$1,22.5*
%
%ADD10C,0.4646*%
%ADD11C,0.2009*%
%ADD12C,0.2697*%
%ADD13C,0.1221*%
%ADD14C,0.4174*%
%ADD15C,0.3386*%
%ADD16R,1.2090X0.0010*%
%ADD17R,1.2080X0.0010*%
%ADD18R,1.2070X0.0010*%
%ADD19R,1.2050X0.0010*%
%ADD20R,1.2040X0.0010*%
%ADD21R,1.2030X0.0010*%
%ADD22R,1.2020X0.0010*%
%ADD23R,1.2000X0.0010*%
%ADD24R,1.1990X0.0010*%
%ADD25R,1.1980X0.0010*%
%ADD26R,1.1970X0.0010*%
%ADD27R,1.1950X0.0010*%
%ADD28R,1.1940X0.0010*%
%ADD29R,1.1930X0.0010*%
%ADD30R,1.1920X0.0010*%
%ADD31R,1.1910X0.0010*%
%ADD32R,1.1890X0.0010*%
%ADD33R,1.1880X0.0010*%
%ADD34R,1.1870X0.0010*%
%ADD35R,1.1860X0.0010*%
%ADD36R,1.1850X0.0010*%
%ADD37R,1.1830X0.0010*%
%ADD38R,1.1820X0.0010*%
%ADD39R,1.1810X0.0010*%
%ADD40R,1.1800X0.0010*%
%ADD41R,1.1790X0.0010*%
%ADD42R,1.1770X0.0010*%
%ADD43R,1.1760X0.0010*%
%ADD44R,1.1750X0.0010*%
%ADD45R,1.1740X0.0010*%
%ADD46R,1.1730X0.0010*%
%ADD47R,1.1710X0.0010*%
%ADD48R,1.1700X0.0010*%
%ADD49R,1.1690X0.0010*%
%ADD50R,1.1680X0.0010*%
%ADD51R,1.1670X0.0010*%
%ADD52R,1.1650X0.0010*%
%ADD53R,1.1640X0.0010*%
%ADD54R,1.1630X0.0010*%
%ADD55R,1.1620X0.0010*%
%ADD56R,1.1600X0.0010*%
%ADD57R,1.1590X0.0010*%
%ADD58R,1.1580X0.0010*%
%ADD59R,1.1570X0.0010*%
%ADD60R,1.1560X0.0010*%
%ADD61R,1.1540X0.0010*%
%ADD62R,1.1530X0.0010*%
%ADD63R,1.1520X0.0010*%
%ADD64R,1.1510X0.0010*%
%ADD65R,0.3430X0.0010*%
%ADD66R,0.1470X0.0010*%
%ADD67R,0.0800X0.0010*%
%ADD68R,0.1740X0.0010*%
%ADD69R,0.1810X0.0010*%
%ADD70R,0.1750X0.0010*%
%ADD71R,0.3380X0.0010*%
%ADD72R,0.1410X0.0010*%
%ADD73R,0.0740X0.0010*%
%ADD74R,0.1680X0.0010*%
%ADD75R,0.1720X0.0010*%
%ADD76R,0.1710X0.0010*%
%ADD77R,0.3360X0.0010*%
%ADD78R,0.1380X0.0010*%
%ADD79R,0.0710X0.0010*%
%ADD80R,0.0350X0.0010*%
%ADD81R,0.1140X0.0010*%
%ADD82R,0.0360X0.0010*%
%ADD83R,0.1190X0.0010*%
%ADD84R,0.1260X0.0010*%
%ADD85R,0.0870X0.0010*%
%ADD86R,0.0890X0.0010*%
%ADD87R,0.1250X0.0010*%
%ADD88R,0.0680X0.0010*%
%ADD89R,0.0310X0.0010*%
%ADD90R,0.0420X0.0010*%
%ADD91R,0.0600X0.0010*%
%ADD92R,0.0700X0.0010*%
%ADD93R,0.0810X0.0010*%
%ADD94R,0.0320X0.0010*%
%ADD95R,0.1170X0.0010*%
%ADD96R,0.1210X0.0010*%
%ADD97R,0.0450X0.0010*%
%ADD98R,0.0280X0.0010*%
%ADD99R,0.0440X0.0010*%
%ADD100R,0.0370X0.0010*%
%ADD101R,0.1200X0.0010*%
%ADD102R,0.0660X0.0010*%
%ADD103R,0.0290X0.0010*%
%ADD104R,0.0530X0.0010*%
%ADD105R,0.0640X0.0010*%
%ADD106R,0.0430X0.0010*%
%ADD107R,0.0090X0.0010*%
%ADD108R,0.0270X0.0010*%
%ADD109R,0.0250X0.0010*%
%ADD110R,0.0390X0.0010*%
%ADD111R,0.1180X0.0010*%
%ADD112R,0.0500X0.0010*%
%ADD113R,0.0550X0.0010*%
%ADD114R,0.0380X0.0010*%
%ADD115R,0.0260X0.0010*%
%ADD116R,0.1110X0.0010*%
%ADD117R,0.0030X0.0010*%
%ADD118R,0.0190X0.0010*%
%ADD119R,0.0220X0.0010*%
%ADD120R,0.0340X0.0010*%
%ADD121R,0.0300X0.0010*%
%ADD122R,0.1150X0.0010*%
%ADD123R,0.0630X0.0010*%
%ADD124R,0.0470X0.0010*%
%ADD125R,0.1100X0.0010*%
%ADD126R,0.1130X0.0010*%
%ADD127R,0.0200X0.0010*%
%ADD128R,0.0060X0.0010*%
%ADD129R,0.0140X0.0010*%
%ADD130R,0.0610X0.0010*%
%ADD131R,0.0240X0.0010*%
%ADD132R,0.0070X0.0010*%
%ADD133R,0.1070X0.0010*%
%ADD134R,0.0180X0.0010*%
%ADD135R,0.0010X0.0010*%
%ADD136R,0.1120X0.0010*%
%ADD137R,0.0230X0.0010*%
%ADD138R,0.0020X0.0010*%
%ADD139R,0.1060X0.0010*%
%ADD140R,0.0160X0.0010*%
%ADD141R,0.0590X0.0010*%
%ADD142R,0.0210X0.0010*%
%ADD143R,0.0410X0.0010*%
%ADD144R,0.1040X0.0010*%
%ADD145R,0.1080X0.0010*%
%ADD146R,0.0150X0.0010*%
%ADD147R,0.1090X0.0010*%
%ADD148R,0.0580X0.0010*%
%ADD149R,0.0400X0.0010*%
%ADD150R,0.1020X0.0010*%
%ADD151R,0.0130X0.0010*%
%ADD152R,0.0560X0.0010*%
%ADD153R,0.0170X0.0010*%
%ADD154R,0.1010X0.0010*%
%ADD155R,0.1050X0.0010*%
%ADD156R,0.1000X0.0010*%
%ADD157R,0.0110X0.0010*%
%ADD158R,0.0990X0.0010*%
%ADD159R,0.1030X0.0010*%
%ADD160R,0.0540X0.0010*%
%ADD161R,0.0980X0.0010*%
%ADD162R,0.0100X0.0010*%
%ADD163R,0.0960X0.0010*%
%ADD164R,0.0120X0.0010*%
%ADD165R,0.0940X0.0010*%
%ADD166R,0.0520X0.0010*%
%ADD167R,0.0930X0.0010*%
%ADD168R,0.0920X0.0010*%
%ADD169R,0.0510X0.0010*%
%ADD170R,0.0910X0.0010*%
%ADD171R,0.0970X0.0010*%
%ADD172R,0.0480X0.0010*%
%ADD173R,0.0900X0.0010*%
%ADD174R,0.0460X0.0010*%
%ADD175R,0.0880X0.0010*%
%ADD176R,0.0950X0.0010*%
%ADD177R,0.0860X0.0010*%
%ADD178R,0.0080X0.0010*%
%ADD179R,0.0850X0.0010*%
%ADD180R,0.0840X0.0010*%
%ADD181R,0.0050X0.0010*%
%ADD182R,0.0040X0.0010*%
%ADD183R,0.0830X0.0010*%
%ADD184R,0.0330X0.0010*%
%ADD185R,0.0820X0.0010*%
%ADD186R,0.0570X0.0010*%
%ADD187R,0.0620X0.0010*%
%ADD188R,0.0790X0.0010*%
%ADD189R,0.0770X0.0010*%
%ADD190R,0.0650X0.0010*%
%ADD191R,0.0760X0.0010*%
%ADD192R,0.0750X0.0010*%
%ADD193R,0.0730X0.0010*%
%ADD194R,0.0690X0.0010*%
%ADD195R,0.0670X0.0010*%
%ADD196R,0.0780X0.0010*%
%ADD197R,0.0720X0.0010*%
%ADD198R,0.0490X0.0010*%
%ADD199R,0.1160X0.0010*%
%ADD200R,0.1350X0.0010*%
%ADD201R,0.1220X0.0010*%
%ADD202R,0.1420X0.0010*%
%ADD203R,0.1240X0.0010*%
%ADD204R,0.1290X0.0010*%
%ADD205R,0.1540X0.0010*%
%ADD206R,0.2520X0.0010*%
%ADD207R,0.1360X0.0010*%
%ADD208R,0.3590X0.0010*%
%ADD209R,0.2530X0.0010*%
%ADD210R,0.3620X0.0010*%
%ADD211R,0.2540X0.0010*%
%ADD212R,0.1400X0.0010*%
%ADD213R,0.3650X0.0010*%
%ADD214R,0.2570X0.0010*%
%ADD215R,0.3690X0.0010*%
%ADD216R,0.9800X0.0010*%
%ADD217R,0.9790X0.0010*%
%ADD218R,0.9770X0.0010*%
%ADD219R,0.9760X0.0010*%
%ADD220R,0.9750X0.0010*%
%ADD221R,0.9740X0.0010*%
%ADD222R,0.9730X0.0010*%
%ADD223R,0.9710X0.0010*%
%ADD224R,0.9700X0.0010*%
%ADD225R,0.9690X0.0010*%
%ADD226R,0.9680X0.0010*%
%ADD227R,0.9670X0.0010*%
%ADD228R,0.9650X0.0010*%
%ADD229R,0.9640X0.0010*%
%ADD230R,0.9630X0.0010*%
%ADD231R,0.9620X0.0010*%
%ADD232R,0.9600X0.0010*%
%ADD233R,0.9590X0.0010*%
%ADD234R,0.9580X0.0010*%
%ADD235R,0.9570X0.0010*%
%ADD236R,0.9560X0.0010*%
%ADD237R,0.9540X0.0010*%
%ADD238R,0.9530X0.0010*%
%ADD239R,0.9520X0.0010*%
%ADD240R,0.9510X0.0010*%
%ADD241R,0.9500X0.0010*%
%ADD242R,0.9480X0.0010*%
%ADD243R,0.9470X0.0010*%
%ADD244R,0.9460X0.0010*%
%ADD245R,0.9450X0.0010*%
%ADD246R,0.9430X0.0010*%
%ADD247R,0.9420X0.0010*%
%ADD248R,0.9410X0.0010*%
%ADD249R,0.9400X0.0010*%
%ADD250R,0.9390X0.0010*%
%ADD251R,0.9370X0.0010*%
%ADD252R,0.9360X0.0010*%
%ADD253R,0.9350X0.0010*%
%ADD254R,0.9340X0.0010*%
%ADD255R,0.9330X0.0010*%
%ADD256R,0.9310X0.0010*%
%ADD257R,0.9300X0.0010*%
%ADD258R,0.9290X0.0010*%
%ADD259R,0.9280X0.0010*%
%ADD260R,0.9270X0.0010*%
%ADD261R,0.9250X0.0010*%
%ADD262R,0.2060X0.0010*%
%ADD263R,0.2020X0.0010*%
%ADD264R,0.3890X0.0010*%
%ADD265R,0.2000X0.0010*%
%ADD266R,0.1970X0.0010*%
%ADD267R,0.3860X0.0010*%
%ADD268R,0.1960X0.0010*%
%ADD269R,0.1930X0.0010*%
%ADD270R,0.2120X0.0010*%
%ADD271R,0.1660X0.0010*%
%ADD272R,0.1920X0.0010*%
%ADD273R,0.1890X0.0010*%
%ADD274R,0.1630X0.0010*%
%ADD275R,0.1880X0.0010*%
%ADD276R,0.1850X0.0010*%
%ADD277R,0.1600X0.0010*%
%ADD278R,0.1830X0.0010*%
%ADD279R,0.1580X0.0010*%
%ADD280R,0.1610X0.0010*%
%ADD281R,0.1370X0.0010*%
%ADD282R,0.1330X0.0010*%
%ADD283R,0.1300X0.0010*%
%ADD284R,0.2040X0.0010*%
%ADD285R,0.1320X0.0010*%
%ADD286R,0.5750X0.0010*%
%ADD287R,0.5770X0.0010*%
%ADD288R,0.1670X0.0010*%
%ADD289R,0.5790X0.0010*%
%ADD290R,0.7510X0.0010*%
%ADD291R,0.7500X0.0010*%
%ADD292R,0.7480X0.0010*%
%ADD293R,0.7470X0.0010*%
%ADD294R,0.7460X0.0010*%
%ADD295R,0.7450X0.0010*%
%ADD296R,0.7440X0.0010*%
%ADD297R,0.7420X0.0010*%
%ADD298R,0.7410X0.0010*%
%ADD299R,0.7400X0.0010*%
%ADD300R,0.7390X0.0010*%
%ADD301R,0.7370X0.0010*%
%ADD302R,0.7360X0.0010*%
%ADD303R,0.7350X0.0010*%
%ADD304R,0.7340X0.0010*%
%ADD305R,0.7330X0.0010*%
%ADD306R,0.7310X0.0010*%
%ADD307R,0.7300X0.0010*%
%ADD308R,0.7290X0.0010*%
%ADD309R,0.7280X0.0010*%
%ADD310R,0.7270X0.0010*%
%ADD311R,0.7250X0.0010*%
%ADD312R,0.7240X0.0010*%
%ADD313R,0.7230X0.0010*%
%ADD314R,0.7220X0.0010*%
%ADD315R,0.7210X0.0010*%
%ADD316R,0.7190X0.0010*%
%ADD317R,0.7180X0.0010*%
%ADD318R,0.7170X0.0010*%
%ADD319R,0.7160X0.0010*%
%ADD320R,0.7140X0.0010*%
%ADD321R,0.7130X0.0010*%
%ADD322R,0.7120X0.0010*%
%ADD323R,0.7110X0.0010*%
%ADD324R,0.7100X0.0010*%
%ADD325R,0.7080X0.0010*%
%ADD326R,0.7070X0.0010*%
%ADD327R,0.7060X0.0010*%
%ADD328R,0.7050X0.0010*%
%ADD329R,0.7040X0.0010*%
%ADD330R,0.7020X0.0010*%
%ADD331R,0.7010X0.0010*%
%ADD332R,0.7000X0.0010*%
%ADD333R,0.6990X0.0010*%
%ADD334R,0.6980X0.0010*%
%ADD335R,0.6960X0.0010*%
%ADD336R,0.6950X0.0010*%
%ADD337R,0.6940X0.0010*%
%ADD338R,0.6930X0.0010*%
%ADD339R,0.6910X0.0010*%
%ADD340R,0.6900X0.0010*%
%ADD341R,0.3040X0.0010*%
%ADD342R,0.2940X0.0010*%
%ADD343R,0.3550X0.0010*%
%ADD344R,0.2890X0.0010*%
%ADD345R,0.3480X0.0010*%
%ADD346R,0.2840X0.0010*%
%ADD347R,0.3420X0.0010*%
%ADD348R,0.2790X0.0010*%
%ADD349R,0.2760X0.0010*%
%ADD350R,0.3330X0.0010*%
%ADD351R,0.2720X0.0010*%
%ADD352R,0.3290X0.0010*%
%ADD353R,0.2690X0.0010*%
%ADD354R,0.3250X0.0010*%
%ADD355R,0.2660X0.0010*%
%ADD356R,0.3210X0.0010*%
%ADD357R,0.2640X0.0010*%
%ADD358R,0.3180X0.0010*%
%ADD359R,0.2630X0.0010*%
%ADD360R,0.3140X0.0010*%
%ADD361R,0.2610X0.0010*%
%ADD362R,0.3110X0.0010*%
%ADD363R,0.2600X0.0010*%
%ADD364R,0.3070X0.0010*%
%ADD365R,0.2590X0.0010*%
%ADD366R,0.3010X0.0010*%
%ADD367R,0.2980X0.0010*%
%ADD368R,0.2580X0.0010*%
%ADD369R,0.2950X0.0010*%
%ADD370R,0.2920X0.0010*%
%ADD371R,0.2870X0.0010*%
%ADD372R,0.2820X0.0010*%
%ADD373R,0.3460X0.0010*%
%ADD374R,0.3490X0.0010*%
%ADD375R,0.2770X0.0010*%
%ADD376R,0.3500X0.0010*%
%ADD377R,0.2750X0.0010*%
%ADD378R,0.3530X0.0010*%
%ADD379R,0.3540X0.0010*%
%ADD380R,0.2710X0.0010*%
%ADD381R,0.2680X0.0010*%
%ADD382R,0.3570X0.0010*%
%ADD383R,0.3580X0.0010*%
%ADD384R,0.3600X0.0010*%
%ADD385R,0.2620X0.0010*%
%ADD386R,0.3610X0.0010*%
%ADD387R,0.3640X0.0010*%
%ADD388R,0.2550X0.0010*%
%ADD389R,0.3660X0.0010*%
%ADD390R,0.3670X0.0010*%
%ADD391R,0.2510X0.0010*%
%ADD392R,0.2500X0.0010*%
%ADD393R,0.2480X0.0010*%
%ADD394R,0.3440X0.0010*%
%ADD395R,0.2470X0.0010*%
%ADD396R,0.3370X0.0010*%
%ADD397R,0.2450X0.0010*%
%ADD398R,0.3310X0.0010*%
%ADD399R,0.2420X0.0010*%
%ADD400R,0.3260X0.0010*%
%ADD401R,0.2410X0.0010*%
%ADD402R,0.3220X0.0010*%
%ADD403R,0.2390X0.0010*%
%ADD404R,0.2380X0.0010*%
%ADD405R,0.3160X0.0010*%
%ADD406R,0.2350X0.0010*%
%ADD407R,0.3120X0.0010*%
%ADD408R,0.2310X0.0010*%
%ADD409R,0.3090X0.0010*%
%ADD410R,0.2280X0.0010*%
%ADD411R,0.2230X0.0010*%
%ADD412R,0.2200X0.0010*%
%ADD413R,0.2160X0.0010*%
%ADD414R,0.2990X0.0010*%
%ADD415R,0.2960X0.0010*%
%ADD416R,0.2090X0.0010*%
%ADD417R,0.2030X0.0010*%
%ADD418R,0.1990X0.0010*%
%ADD419R,0.2880X0.0010*%
%ADD420R,0.2860X0.0010*%
%ADD421R,0.1870X0.0010*%
%ADD422R,0.2800X0.0010*%
%ADD423R,0.1840X0.0010*%
%ADD424R,0.1980X0.0010*%
%ADD425R,0.1310X0.0010*%
%ADD426R,0.1950X0.0010*%
%ADD427R,0.1940X0.0010*%
%ADD428R,0.1280X0.0010*%
%ADD429R,0.1270X0.0010*%
%ADD430R,0.1230X0.0010*%
%ADD431R,0.1480X0.0010*%
%ADD432R,0.1430X0.0010*%
%ADD433R,0.1460X0.0010*%
%ADD434R,0.1450X0.0010*%
%ADD435R,0.1440X0.0010*%
%ADD436R,0.1490X0.0010*%
%ADD437R,0.1510X0.0010*%
%ADD438R,0.1530X0.0010*%
%ADD439R,0.1560X0.0010*%
%ADD440R,0.1570X0.0010*%
%ADD441R,0.1390X0.0010*%
%ADD442R,0.1620X0.0010*%
%ADD443R,0.1640X0.0010*%
%ADD444R,0.1650X0.0010*%
%ADD445R,0.1340X0.0010*%
%ADD446R,0.1590X0.0010*%
%ADD447R,0.1700X0.0010*%
%ADD448R,0.1550X0.0010*%
%ADD449R,0.1770X0.0010*%
%ADD450R,0.1910X0.0010*%
%ADD451R,0.1520X0.0010*%
%ADD452R,0.1500X0.0010*%
%ADD453R,0.1690X0.0010*%
%ADD454R,0.1730X0.0010*%
%ADD455R,0.1800X0.0010*%
%ADD456R,0.2370X0.0010*%
%ADD457R,0.2340X0.0010*%
%ADD458R,0.2250X0.0010*%
%ADD459R,0.1780X0.0010*%
%ADD460R,0.2930X0.0010*%
%ADD461R,0.2900X0.0010*%
%ADD462R,0.2850X0.0010*%
%ADD463R,0.2830X0.0010*%
%ADD464R,0.2810X0.0010*%
%ADD465R,0.2780X0.0010*%
%ADD466R,0.2730X0.0010*%
%ADD467R,0.2700X0.0010*%
%ADD468R,0.2670X0.0010*%
%ADD469R,0.2650X0.0010*%
%ADD470R,0.2560X0.0010*%
%ADD471R,0.2490X0.0010*%
%ADD472R,0.2440X0.0010*%
%ADD473R,0.2430X0.0010*%
%ADD474R,0.2360X0.0010*%
%ADD475R,0.2330X0.0010*%
%ADD476R,0.2320X0.0010*%
%ADD477R,0.2300X0.0010*%
%ADD478R,0.2290X0.0010*%
%ADD479R,0.2270X0.0010*%
%ADD480R,0.2260X0.0010*%
%ADD481R,0.2240X0.0010*%
%ADD482R,0.2210X0.0010*%
%ADD483R,0.2190X0.0010*%
%ADD484R,0.2180X0.0010*%
%ADD485R,0.2150X0.0010*%
%ADD486R,0.2140X0.0010*%
%ADD487R,0.2130X0.0010*%
%ADD488R,0.2100X0.0010*%
%ADD489R,0.2080X0.0010*%
%ADD490R,0.2070X0.0010*%
%ADD491R,0.2010X0.0010*%
%ADD492R,0.1900X0.0010*%
%ADD493R,0.1860X0.0010*%
%ADD494R,0.1790X0.0010*%
%ADD495R,0.1760X0.0010*%
%ADD496C,0.2205*%
D10*
X006197Y010103D03*
X012797Y010103D03*
X019397Y010103D03*
X025997Y010103D03*
X014847Y024867D03*
X008197Y024867D03*
D11*
X031697Y009532D03*
D12*
X037097Y010319D03*
X042997Y009985D03*
D13*
X047197Y009516D03*
X049297Y009516D03*
X049297Y011315D03*
X047197Y011315D03*
D14*
X036797Y026489D03*
X029297Y026489D03*
D15*
X047274Y020780D03*
D16*
X016056Y001411D03*
D17*
X016061Y001421D03*
D18*
X016056Y001431D03*
D19*
X016056Y001441D03*
D20*
X016061Y001451D03*
D21*
X016056Y001461D03*
D22*
X016061Y001471D03*
D23*
X016061Y001481D03*
D24*
X016056Y001491D03*
D25*
X016061Y001501D03*
D26*
X016056Y001511D03*
D27*
X016056Y001521D03*
D28*
X016061Y001531D03*
D29*
X016056Y001541D03*
D30*
X016061Y001551D03*
D31*
X016056Y001561D03*
D32*
X016056Y001571D03*
D33*
X016061Y001581D03*
D34*
X016056Y001591D03*
D35*
X016061Y001601D03*
D36*
X016056Y001611D03*
D37*
X016056Y001621D03*
D38*
X016061Y001631D03*
D39*
X016056Y001641D03*
D40*
X016061Y001651D03*
D41*
X016056Y001661D03*
D42*
X016056Y001671D03*
D43*
X016061Y001681D03*
D44*
X016056Y001691D03*
D45*
X016061Y001701D03*
D46*
X016056Y001711D03*
D47*
X016056Y001721D03*
D48*
X016061Y001731D03*
D49*
X016056Y001741D03*
D50*
X016061Y001751D03*
D51*
X016056Y001761D03*
D52*
X016056Y001771D03*
D53*
X016061Y001781D03*
D54*
X016056Y001791D03*
D55*
X016061Y001801D03*
D56*
X016061Y001811D03*
D57*
X016056Y001821D03*
D58*
X016061Y001831D03*
D59*
X016056Y001841D03*
D60*
X016061Y001851D03*
D61*
X016061Y001861D03*
D62*
X016056Y001871D03*
D63*
X016061Y001881D03*
D64*
X016056Y001891D03*
D65*
X012026Y001901D03*
D66*
X014556Y001901D03*
X014546Y003291D03*
X018176Y003241D03*
X018266Y006531D03*
X016566Y006561D03*
X014486Y007571D03*
X014486Y007581D03*
X017216Y008271D03*
X016056Y010171D03*
D67*
X017301Y008681D03*
X019681Y004751D03*
X019761Y004621D03*
X019771Y004601D03*
X019781Y004581D03*
X019791Y004561D03*
X019841Y004481D03*
X019851Y004461D03*
X019861Y004451D03*
X019871Y004441D03*
X019921Y004351D03*
X019931Y004341D03*
X019931Y004331D03*
X019941Y004311D03*
X020041Y004151D03*
X020051Y004141D03*
X020081Y004091D03*
X020081Y004081D03*
X020611Y003221D03*
X018771Y004261D03*
X015811Y003251D03*
X014611Y002861D03*
X015781Y001901D03*
X012121Y004221D03*
X012131Y004241D03*
X012131Y004251D03*
X013311Y004511D03*
X011061Y002481D03*
X011061Y002471D03*
X011051Y002461D03*
D68*
X017171Y001901D03*
X014241Y006951D03*
X014281Y007011D03*
X016061Y009951D03*
D69*
X016056Y009891D03*
X014286Y006971D03*
X019026Y001901D03*
D70*
X020926Y001901D03*
X014876Y007991D03*
X017076Y008261D03*
X016056Y009941D03*
D71*
X017791Y005741D03*
X012011Y001911D03*
D72*
X014556Y001911D03*
X018256Y006591D03*
X018256Y006601D03*
X016316Y007801D03*
X014146Y007071D03*
X016056Y010221D03*
D73*
X017361Y008621D03*
X017371Y008611D03*
X014641Y008431D03*
X014631Y008421D03*
X014621Y008401D03*
X014541Y008271D03*
X014531Y008251D03*
X014521Y008231D03*
X016991Y006761D03*
X015781Y005901D03*
X013291Y004571D03*
X012151Y004331D03*
X012151Y004321D03*
X011101Y002601D03*
X011101Y002591D03*
X014621Y002821D03*
X014631Y002381D03*
X015771Y001911D03*
X015801Y003211D03*
X018791Y004291D03*
X020651Y003191D03*
X021001Y002611D03*
D74*
X019031Y001921D03*
X017171Y001911D03*
X018981Y005181D03*
X016511Y006721D03*
X016271Y007631D03*
X016271Y007641D03*
X016271Y007651D03*
X015291Y008731D03*
X015291Y008741D03*
X014821Y007961D03*
X014191Y006921D03*
X016061Y010001D03*
D75*
X016061Y009971D03*
X015381Y008851D03*
X016281Y007581D03*
X016281Y007571D03*
X014221Y006941D03*
X019031Y001911D03*
D76*
X020946Y001911D03*
X016276Y007591D03*
X016276Y007601D03*
X015386Y008861D03*
X015386Y008871D03*
D77*
X012001Y001921D03*
D78*
X014551Y001921D03*
X014531Y003271D03*
X018171Y003221D03*
X014141Y007081D03*
X014621Y007871D03*
X016061Y010251D03*
D79*
X016056Y010801D03*
X017406Y008571D03*
X017416Y008561D03*
X017426Y008551D03*
X017536Y008361D03*
X015766Y007551D03*
X014546Y008301D03*
X014546Y008311D03*
X015396Y006321D03*
X016356Y005081D03*
X014286Y003831D03*
X013296Y004611D03*
X012196Y004431D03*
X012196Y004421D03*
X012186Y004411D03*
X012136Y003221D03*
X011116Y002651D03*
X011116Y002641D03*
X015766Y001921D03*
X018796Y004301D03*
X020676Y003181D03*
D80*
X019766Y003221D03*
X019636Y002711D03*
X019646Y002691D03*
X019646Y002681D03*
X019646Y002671D03*
X019656Y002661D03*
X019656Y002651D03*
X019656Y002641D03*
X019656Y002631D03*
X019656Y002531D03*
X019656Y002521D03*
X019656Y002511D03*
X019656Y002501D03*
X018636Y002321D03*
X018636Y002311D03*
X018596Y002061D03*
X018596Y002051D03*
X018596Y002041D03*
X017686Y002321D03*
X017686Y002331D03*
X016976Y002451D03*
X016976Y002461D03*
X017066Y001941D03*
X016536Y001921D03*
X015896Y002281D03*
X015906Y002891D03*
X015106Y004211D03*
X014456Y004501D03*
X014456Y004511D03*
X013946Y005071D03*
X013576Y004151D03*
X013046Y004211D03*
X013366Y003241D03*
X013276Y002671D03*
X013276Y002661D03*
X013286Y002631D03*
X013286Y002621D03*
X013286Y002611D03*
X013286Y002601D03*
X013286Y002591D03*
X013286Y002581D03*
X013286Y002571D03*
X013286Y002561D03*
X013286Y002551D03*
X013276Y002521D03*
X013276Y002511D03*
X013276Y002501D03*
X013266Y002481D03*
X013266Y002471D03*
X018196Y003181D03*
X018716Y004981D03*
X019826Y004881D03*
X015636Y007091D03*
X015636Y007101D03*
X016516Y008041D03*
X016056Y011101D03*
D81*
X016991Y008901D03*
X018071Y007131D03*
X018071Y007121D03*
X018081Y007101D03*
X017411Y001921D03*
X014451Y001971D03*
X010921Y001961D03*
X021211Y001941D03*
D82*
X020291Y001921D03*
X019641Y002461D03*
X019641Y002471D03*
X019651Y002481D03*
X019651Y002491D03*
X019641Y002701D03*
X019631Y002721D03*
X018601Y002071D03*
X018601Y002031D03*
X018601Y002021D03*
X017691Y002301D03*
X017691Y002311D03*
X016971Y002471D03*
X016991Y002571D03*
X015911Y002901D03*
X015891Y002271D03*
X015891Y002261D03*
X013271Y002491D03*
X013261Y002461D03*
X013251Y002441D03*
X013281Y002641D03*
X013281Y002651D03*
X013271Y002681D03*
X013271Y002691D03*
X013561Y003891D03*
X013571Y004161D03*
X013121Y004701D03*
X014441Y004481D03*
X014441Y004471D03*
X014451Y004491D03*
X015181Y004701D03*
X014501Y005081D03*
X015381Y006531D03*
X015201Y006811D03*
X015071Y007151D03*
X015631Y007111D03*
X015921Y008271D03*
X016061Y011091D03*
X018831Y004491D03*
D83*
X014466Y003221D03*
X014096Y007161D03*
X015246Y008021D03*
X015016Y008691D03*
X016956Y008931D03*
X017396Y008201D03*
X018126Y006991D03*
X018136Y006981D03*
X018136Y006971D03*
X016056Y010401D03*
X021196Y001921D03*
D84*
X018441Y006411D03*
X018191Y006821D03*
X018191Y006831D03*
X014531Y007831D03*
X016061Y010351D03*
X010961Y001931D03*
D85*
X011026Y002361D03*
X011026Y002371D03*
X012106Y001931D03*
X014576Y002241D03*
X014576Y002251D03*
X014586Y002921D03*
X014586Y002931D03*
X013336Y004441D03*
X013336Y004451D03*
X012026Y004021D03*
X012026Y004011D03*
X016716Y007541D03*
X017236Y008731D03*
X016056Y010671D03*
X018746Y004221D03*
X018676Y004161D03*
X020096Y004011D03*
X020096Y004001D03*
X020976Y002551D03*
D86*
X020976Y002541D03*
X020096Y003991D03*
X018696Y004171D03*
X016306Y005131D03*
X013346Y004421D03*
X012026Y004001D03*
X012026Y003991D03*
X011016Y002331D03*
X013106Y001931D03*
X014566Y002211D03*
X014576Y002951D03*
X014576Y002961D03*
X017646Y008031D03*
X017626Y008071D03*
X017206Y008751D03*
X016056Y010651D03*
D87*
X016366Y007841D03*
X018186Y006851D03*
X018186Y006841D03*
X014106Y007131D03*
X014486Y001931D03*
D88*
X015761Y001931D03*
X016841Y003201D03*
X017531Y003831D03*
X018571Y004151D03*
X018801Y004321D03*
X016351Y004771D03*
X016351Y004781D03*
X016351Y004791D03*
X016351Y004841D03*
X016361Y005061D03*
X015781Y005891D03*
X015391Y006341D03*
X017021Y006781D03*
X017531Y008391D03*
X017521Y008411D03*
X017511Y008431D03*
X017501Y008441D03*
X017501Y008451D03*
X017491Y008461D03*
X017481Y008471D03*
X017471Y008491D03*
X014581Y008381D03*
X014571Y008371D03*
X014561Y008361D03*
X014561Y008351D03*
X015321Y004561D03*
X015321Y004551D03*
X015321Y004541D03*
X015311Y004351D03*
X015311Y004341D03*
X015301Y004271D03*
X013291Y004641D03*
X013291Y004651D03*
X013281Y004671D03*
X012231Y004511D03*
X012221Y004491D03*
X021021Y002631D03*
D89*
X019686Y001941D03*
X018656Y002471D03*
X018656Y002481D03*
X018656Y002491D03*
X018656Y002501D03*
X018656Y002511D03*
X018666Y002561D03*
X018666Y002571D03*
X018666Y002581D03*
X018666Y002591D03*
X017696Y002441D03*
X017696Y002431D03*
X017696Y002421D03*
X017686Y002461D03*
X017686Y002471D03*
X017676Y002511D03*
X017666Y002541D03*
X017666Y002551D03*
X017666Y002561D03*
X017016Y002601D03*
X016996Y002411D03*
X017056Y001951D03*
X016536Y001931D03*
X015916Y002331D03*
X015926Y002851D03*
X017696Y003851D03*
X017116Y004201D03*
X017726Y004791D03*
X017726Y004801D03*
X017726Y004891D03*
X017726Y004901D03*
X017726Y004911D03*
X017706Y005041D03*
X018736Y004961D03*
X019816Y004931D03*
X015636Y007031D03*
X015636Y007041D03*
X015216Y006831D03*
X015376Y006561D03*
X014516Y005061D03*
X013956Y005011D03*
X013956Y005001D03*
X013956Y004991D03*
X013506Y005081D03*
X013096Y004721D03*
X013566Y004111D03*
X013556Y003921D03*
X014476Y004561D03*
X015156Y004721D03*
X016536Y008051D03*
X015406Y008621D03*
X016056Y011131D03*
D90*
X016061Y011041D03*
X015641Y007211D03*
X015641Y007201D03*
X015381Y006491D03*
X016541Y006321D03*
X017081Y007111D03*
X017081Y007121D03*
X017071Y007151D03*
X017061Y007181D03*
X012491Y005151D03*
X012371Y004961D03*
X012371Y004951D03*
X014371Y004191D03*
X014381Y004211D03*
X015881Y002991D03*
X015881Y002981D03*
X016961Y003091D03*
X017081Y001931D03*
X017711Y001991D03*
X017721Y002001D03*
X017721Y002131D03*
X017711Y002181D03*
X020941Y002981D03*
X020951Y002961D03*
X013231Y002391D03*
D91*
X012131Y002391D03*
X012131Y002461D03*
X012131Y002471D03*
X012121Y002741D03*
X012121Y002751D03*
X012131Y002831D03*
X012131Y002841D03*
X012141Y003101D03*
X012141Y003111D03*
X012141Y003121D03*
X011141Y002781D03*
X011141Y002771D03*
X012261Y004621D03*
X012261Y004631D03*
X015391Y006381D03*
X015711Y007481D03*
X016871Y007511D03*
X016321Y004351D03*
X016321Y004331D03*
X016321Y004281D03*
X016321Y004271D03*
X016321Y004261D03*
X018531Y003931D03*
X018541Y003911D03*
X018541Y003901D03*
X018811Y004381D03*
X020771Y003111D03*
X021011Y002721D03*
X021011Y002711D03*
X017671Y001931D03*
X015751Y001981D03*
X016061Y010891D03*
D92*
X016061Y010811D03*
X017431Y008541D03*
X017441Y008531D03*
X017531Y008371D03*
X017011Y006771D03*
X016511Y006371D03*
X016351Y004821D03*
X016351Y004811D03*
X015311Y004491D03*
X015311Y004481D03*
X015311Y004471D03*
X015311Y004461D03*
X015311Y004451D03*
X015311Y004441D03*
X015311Y004431D03*
X015311Y004421D03*
X015311Y004411D03*
X015311Y004401D03*
X015311Y004391D03*
X015301Y004251D03*
X015791Y003201D03*
X014631Y002801D03*
X014641Y002401D03*
X013461Y003851D03*
X013291Y004621D03*
X012211Y004461D03*
X012201Y004451D03*
X012201Y004441D03*
X011121Y002661D03*
X018571Y001931D03*
X018531Y003831D03*
X019711Y004781D03*
X014551Y008321D03*
X014591Y008391D03*
D93*
X014756Y008561D03*
X014766Y008581D03*
X017286Y008691D03*
X016056Y010721D03*
X015786Y005911D03*
X017556Y005101D03*
X019776Y004591D03*
X019786Y004571D03*
X019796Y004551D03*
X019806Y004541D03*
X019806Y004531D03*
X019816Y004521D03*
X019816Y004511D03*
X019826Y004501D03*
X019836Y004491D03*
X019846Y004471D03*
X019936Y004321D03*
X019946Y004301D03*
X019956Y004281D03*
X020016Y004181D03*
X020026Y004171D03*
X020036Y004161D03*
X020086Y004071D03*
X020596Y003231D03*
X020986Y002581D03*
X019446Y001931D03*
X014606Y002321D03*
X014606Y002331D03*
X014606Y002871D03*
X012116Y004211D03*
X012126Y004231D03*
X011046Y002451D03*
X011046Y002441D03*
D94*
X013331Y001951D03*
X013361Y003231D03*
X013571Y004121D03*
X013571Y004131D03*
X013031Y004201D03*
X013951Y005021D03*
X013951Y005031D03*
X014471Y004551D03*
X015091Y004201D03*
X015921Y002861D03*
X015911Y002321D03*
X016991Y002421D03*
X017671Y002521D03*
X017671Y002531D03*
X017681Y002501D03*
X017681Y002491D03*
X017681Y002481D03*
X017691Y002451D03*
X017691Y002411D03*
X017691Y002401D03*
X017691Y002391D03*
X018651Y002381D03*
X018651Y002371D03*
X018661Y002521D03*
X018661Y002531D03*
X018661Y002541D03*
X018661Y002551D03*
X019761Y003211D03*
X020291Y001931D03*
X018851Y004511D03*
X019821Y004921D03*
X017721Y004881D03*
X017721Y004871D03*
X017721Y004861D03*
X017721Y004851D03*
X017721Y004841D03*
X017721Y004831D03*
X017721Y004821D03*
X017721Y004811D03*
X015791Y006761D03*
X015041Y006731D03*
X016061Y011121D03*
D95*
X016056Y010421D03*
X016966Y008921D03*
X015816Y008191D03*
X016386Y007861D03*
X014976Y008631D03*
X014976Y008641D03*
X014086Y007171D03*
X016496Y006501D03*
X018106Y007041D03*
X018116Y007021D03*
X012036Y003791D03*
X010926Y001951D03*
X021206Y001931D03*
D96*
X017416Y005151D03*
X018156Y006921D03*
X018156Y006931D03*
X018146Y006941D03*
X018146Y006951D03*
X016376Y007851D03*
X014096Y007151D03*
X012046Y003771D03*
X010936Y001941D03*
X016056Y010391D03*
D97*
X014336Y008171D03*
X014326Y008161D03*
X014326Y008151D03*
X014316Y008141D03*
X015016Y007201D03*
X015646Y007241D03*
X015646Y007251D03*
X017016Y007291D03*
X017026Y007281D03*
X017026Y007271D03*
X015386Y006471D03*
X015776Y005861D03*
X014346Y004141D03*
X014336Y004121D03*
X014326Y004101D03*
X014316Y004081D03*
X014306Y004061D03*
X014296Y004031D03*
X014296Y004021D03*
X014296Y004011D03*
X012356Y004901D03*
X012356Y004911D03*
X011246Y003081D03*
X011946Y001941D03*
X016946Y003111D03*
X017706Y001971D03*
X020966Y002911D03*
X020966Y002921D03*
X018686Y005031D03*
D98*
X017721Y004981D03*
X017721Y004971D03*
X017721Y004731D03*
X017731Y004521D03*
X017731Y004511D03*
X017731Y004501D03*
X017731Y004491D03*
X017731Y004481D03*
X017731Y004471D03*
X017121Y004251D03*
X017121Y004241D03*
X017701Y003861D03*
X017041Y003051D03*
X017651Y002631D03*
X017651Y002621D03*
X017021Y002311D03*
X017021Y002301D03*
X015921Y002351D03*
X013311Y002321D03*
X012361Y001941D03*
X012041Y002311D03*
X013361Y003221D03*
X013551Y003941D03*
X013551Y003951D03*
X013561Y004091D03*
X013461Y004701D03*
X013081Y004731D03*
X013961Y004961D03*
X014521Y005051D03*
X015141Y004731D03*
X014481Y004651D03*
X014481Y004641D03*
X014481Y004631D03*
X014481Y004621D03*
X017491Y006321D03*
X015651Y006961D03*
X015651Y006971D03*
X015221Y006841D03*
X015081Y006771D03*
X015071Y006761D03*
X015091Y007681D03*
X015421Y008611D03*
X019691Y005161D03*
X019701Y005151D03*
X019801Y004981D03*
X019801Y004971D03*
X019751Y003201D03*
X018681Y002671D03*
X018681Y002661D03*
X019691Y001951D03*
X020291Y001941D03*
D99*
X020961Y002931D03*
X019311Y003241D03*
X016951Y003101D03*
X015871Y003021D03*
X015851Y002171D03*
X012921Y001941D03*
X011251Y003091D03*
X012931Y003241D03*
X014301Y004041D03*
X014301Y004051D03*
X014311Y004071D03*
X014321Y004091D03*
X014331Y004111D03*
X014341Y004131D03*
X014351Y004151D03*
X014361Y004171D03*
X013561Y004221D03*
X012361Y004921D03*
X015641Y007231D03*
X017031Y007251D03*
X017031Y007261D03*
X017041Y007241D03*
X017041Y007231D03*
X017051Y007211D03*
X017101Y007031D03*
X017101Y007021D03*
X017101Y007011D03*
X017101Y007001D03*
X017691Y005081D03*
X016061Y011021D03*
D100*
X016056Y011081D03*
X015636Y007131D03*
X015636Y007121D03*
X015826Y006751D03*
X017516Y006311D03*
X017706Y005061D03*
X018706Y004991D03*
X019826Y004871D03*
X019826Y004861D03*
X017676Y003841D03*
X016986Y003071D03*
X016986Y002561D03*
X015906Y002911D03*
X015886Y002251D03*
X013336Y001941D03*
X013246Y002431D03*
X013256Y002451D03*
X013266Y002701D03*
X013266Y002711D03*
X013256Y002721D03*
X011276Y003181D03*
X013066Y004221D03*
X013576Y004171D03*
X014396Y004331D03*
X014396Y004341D03*
X014396Y004351D03*
X014406Y004371D03*
X014406Y004381D03*
X014416Y004401D03*
X014416Y004411D03*
X014426Y004431D03*
X014426Y004441D03*
X014436Y004451D03*
X014436Y004461D03*
X015126Y004221D03*
X012426Y005081D03*
X018636Y002301D03*
X018636Y002291D03*
X018636Y002281D03*
X018596Y002081D03*
X019636Y002441D03*
X019636Y002451D03*
X019626Y002731D03*
X019766Y003231D03*
D101*
X014471Y001941D03*
X018141Y006961D03*
X016941Y008941D03*
D102*
X016401Y007961D03*
X015391Y006351D03*
X016361Y005051D03*
X016341Y004921D03*
X016341Y004911D03*
X016341Y004901D03*
X016341Y004731D03*
X016331Y004571D03*
X016331Y004561D03*
X016331Y004551D03*
X016331Y004541D03*
X016331Y004531D03*
X016331Y004521D03*
X016331Y004511D03*
X016331Y004501D03*
X016331Y004491D03*
X015321Y004581D03*
X015321Y004591D03*
X013121Y002861D03*
X013121Y002851D03*
X013121Y002351D03*
X014681Y002561D03*
X014681Y002571D03*
X014681Y002581D03*
X014681Y002621D03*
X014681Y002631D03*
X014681Y002641D03*
X014661Y002771D03*
X015751Y001941D03*
X018541Y003851D03*
X018531Y004101D03*
X019501Y002861D03*
X019501Y002851D03*
X021031Y002641D03*
X012241Y004541D03*
X011131Y002711D03*
X016061Y010841D03*
D103*
X016056Y011151D03*
X015646Y006991D03*
X015646Y006981D03*
X015776Y006771D03*
X015376Y006581D03*
X017716Y005031D03*
X017726Y004961D03*
X017726Y004751D03*
X017726Y004741D03*
X017116Y004231D03*
X016546Y003811D03*
X017666Y003191D03*
X017656Y002601D03*
X017026Y002611D03*
X017006Y002391D03*
X017006Y002381D03*
X017016Y002341D03*
X017016Y002331D03*
X017016Y002321D03*
X016536Y001941D03*
X015916Y002341D03*
X015926Y002841D03*
X013566Y004101D03*
X013956Y004971D03*
X013956Y004981D03*
X014486Y004611D03*
X014486Y004601D03*
X018666Y003171D03*
X018676Y002651D03*
X018676Y002641D03*
X018676Y002631D03*
X019806Y004961D03*
D104*
X018816Y004421D03*
X020986Y002821D03*
X017686Y001941D03*
X015786Y002081D03*
X015776Y002061D03*
X015416Y003841D03*
X014316Y003931D03*
X012336Y004801D03*
X015386Y006421D03*
X014966Y007261D03*
X015676Y007371D03*
X015676Y007381D03*
X017086Y006871D03*
X011216Y002961D03*
X011216Y002951D03*
X016056Y010951D03*
D105*
X016061Y010861D03*
X015391Y006361D03*
X016361Y005011D03*
X016361Y005001D03*
X016351Y004981D03*
X016351Y004971D03*
X016341Y004711D03*
X016341Y004701D03*
X016331Y004621D03*
X016321Y004441D03*
X016321Y004431D03*
X016321Y004421D03*
X016321Y004411D03*
X015321Y004621D03*
X015321Y004691D03*
X014311Y003841D03*
X013121Y002841D03*
X013121Y002831D03*
X013121Y002821D03*
X013121Y002381D03*
X012131Y002911D03*
X012131Y002921D03*
X012131Y002931D03*
X012131Y002941D03*
X012131Y002951D03*
X012131Y002961D03*
X012131Y002971D03*
X012141Y003001D03*
X012251Y004571D03*
X012251Y004581D03*
X014671Y002761D03*
X014681Y002731D03*
X014691Y002511D03*
X015751Y001951D03*
X015781Y003181D03*
X018521Y004051D03*
X018521Y004061D03*
X018521Y004071D03*
X018811Y004351D03*
X018641Y005081D03*
X019501Y002821D03*
X019501Y002811D03*
X019501Y002801D03*
X019491Y002371D03*
X018561Y001941D03*
X021021Y002661D03*
D106*
X020956Y002941D03*
X020956Y002951D03*
X020946Y002971D03*
X019296Y001941D03*
X018596Y001981D03*
X017706Y001981D03*
X015856Y002181D03*
X015876Y003001D03*
X015876Y003011D03*
X016136Y003821D03*
X014366Y004181D03*
X014356Y004161D03*
X013566Y004211D03*
X013576Y003861D03*
X012366Y004931D03*
X012366Y004941D03*
X011336Y003241D03*
X011256Y003111D03*
X011256Y003101D03*
X015386Y006481D03*
X015026Y007191D03*
X015646Y007221D03*
X016476Y008021D03*
X017046Y007221D03*
X017056Y007201D03*
X017056Y007191D03*
X017066Y007171D03*
X017066Y007161D03*
X017076Y007141D03*
X017076Y007131D03*
X017086Y007101D03*
X017086Y007091D03*
X017086Y007081D03*
X017096Y007071D03*
X017096Y007061D03*
X017096Y007051D03*
X017096Y007041D03*
X018696Y005021D03*
X018826Y004461D03*
X019826Y004811D03*
X019826Y004821D03*
X016056Y011031D03*
D107*
X016056Y011311D03*
X015736Y008671D03*
X015576Y008541D03*
X016276Y008331D03*
X016466Y008441D03*
X016986Y008371D03*
X018816Y004871D03*
X018816Y004791D03*
X018276Y004641D03*
X016536Y003961D03*
X015296Y003871D03*
X013986Y004811D03*
X013456Y004971D03*
X013456Y004981D03*
X013236Y003871D03*
X013846Y002701D03*
X011786Y001951D03*
X016486Y002251D03*
X016486Y002261D03*
X016486Y002751D03*
X019406Y002301D03*
X020236Y002251D03*
D108*
X019686Y002321D03*
X018686Y002681D03*
X018186Y003161D03*
X017646Y002651D03*
X017646Y002641D03*
X017036Y002621D03*
X017026Y002291D03*
X017026Y002281D03*
X017036Y002271D03*
X017056Y001961D03*
X016536Y001951D03*
X015926Y002361D03*
X015936Y002831D03*
X015516Y004241D03*
X014486Y004661D03*
X014486Y004671D03*
X014486Y004681D03*
X014486Y004691D03*
X014496Y004701D03*
X014496Y004711D03*
X014506Y004721D03*
X014506Y004731D03*
X014506Y004741D03*
X014516Y004751D03*
X014516Y004761D03*
X014526Y004771D03*
X014526Y004781D03*
X014526Y005041D03*
X013966Y004951D03*
X013556Y004081D03*
X015546Y005081D03*
X017126Y004471D03*
X017126Y004461D03*
X017126Y004451D03*
X017126Y004441D03*
X017126Y004431D03*
X017126Y004421D03*
X017126Y004411D03*
X017126Y004401D03*
X017126Y004391D03*
X017126Y004381D03*
X017126Y004371D03*
X017726Y004531D03*
X017726Y004541D03*
X017726Y004551D03*
X017726Y004561D03*
X017726Y004571D03*
X017736Y004461D03*
X017736Y004451D03*
X017736Y004441D03*
X017736Y004431D03*
X017736Y004421D03*
X017726Y004701D03*
X017726Y004711D03*
X017726Y004721D03*
X017726Y004991D03*
X017716Y005021D03*
X018756Y004951D03*
X018876Y004531D03*
X019796Y004991D03*
X019796Y005001D03*
X019786Y005011D03*
X015756Y006781D03*
X015656Y006941D03*
X015656Y006951D03*
X015376Y006601D03*
X015376Y006591D03*
X015096Y006781D03*
X015126Y007121D03*
X013946Y007681D03*
X016056Y011161D03*
X013316Y002311D03*
X013326Y001971D03*
X012006Y001951D03*
D109*
X012356Y001951D03*
X013326Y001981D03*
X013326Y002291D03*
X013326Y002871D03*
X013336Y002881D03*
X013356Y003211D03*
X013546Y003981D03*
X013546Y003991D03*
X013546Y004001D03*
X013546Y004011D03*
X013546Y004041D03*
X013546Y004051D03*
X013466Y004721D03*
X013966Y004921D03*
X013966Y004931D03*
X014546Y004821D03*
X015546Y005071D03*
X017126Y004521D03*
X017126Y004511D03*
X017126Y004501D03*
X017126Y004321D03*
X017126Y004291D03*
X017126Y004281D03*
X017706Y003871D03*
X017736Y004391D03*
X017726Y004681D03*
X017726Y004691D03*
X018866Y004601D03*
X018866Y004591D03*
X018866Y004581D03*
X019726Y005121D03*
X019736Y005111D03*
X019746Y005091D03*
X019756Y005081D03*
X019756Y005071D03*
X019766Y005061D03*
X019776Y005041D03*
X019746Y003191D03*
X019716Y002881D03*
X019696Y002301D03*
X019706Y002291D03*
X020296Y001961D03*
X018686Y002701D03*
X018686Y002711D03*
X018686Y003151D03*
X017656Y003181D03*
X017636Y002691D03*
X017636Y002681D03*
X017046Y002631D03*
X017036Y002251D03*
X017036Y002241D03*
X017056Y001971D03*
X016546Y001961D03*
X015946Y002811D03*
X015376Y006611D03*
X015236Y006851D03*
X015666Y006901D03*
X015666Y006911D03*
X014726Y007801D03*
X013946Y007691D03*
X015436Y008601D03*
X016056Y011181D03*
D110*
X016056Y011061D03*
X016496Y008031D03*
X015636Y007161D03*
X015636Y007151D03*
X015046Y007171D03*
X012466Y005131D03*
X012456Y005121D03*
X012446Y005111D03*
X012396Y005021D03*
X012386Y005001D03*
X013076Y004231D03*
X014396Y004261D03*
X014396Y004271D03*
X014396Y004281D03*
X014396Y004291D03*
X014396Y004301D03*
X014396Y004311D03*
X015136Y004231D03*
X015896Y002941D03*
X015896Y002931D03*
X015876Y002221D03*
X015876Y002211D03*
X016966Y002491D03*
X016966Y002501D03*
X016976Y002551D03*
X017696Y002271D03*
X017696Y002261D03*
X017696Y002251D03*
X017736Y002051D03*
X017736Y002041D03*
X018606Y002121D03*
X018606Y002131D03*
X018616Y002161D03*
X018616Y002171D03*
X018616Y002181D03*
X018616Y002191D03*
X018616Y002201D03*
X018626Y002231D03*
X018626Y002241D03*
X019616Y002411D03*
X019606Y002761D03*
X019766Y003241D03*
X019826Y004841D03*
X019826Y004851D03*
X013246Y002751D03*
X013236Y002411D03*
X012916Y001951D03*
X011296Y003211D03*
D111*
X012041Y003781D03*
X014461Y001951D03*
X017421Y005141D03*
X018121Y007001D03*
X018121Y007011D03*
X018111Y007031D03*
X016061Y010411D03*
D112*
X016061Y010971D03*
X014291Y008061D03*
X014981Y007241D03*
X015661Y007321D03*
X015661Y007331D03*
X016951Y007421D03*
X017091Y006901D03*
X016541Y006331D03*
X015421Y003851D03*
X015831Y003061D03*
X016901Y003161D03*
X017691Y001951D03*
X018591Y001961D03*
X020981Y002851D03*
X015811Y002121D03*
X011231Y003001D03*
X011231Y003011D03*
D113*
X011206Y002931D03*
X011206Y002921D03*
X011196Y002911D03*
X011196Y002901D03*
X013176Y002331D03*
X014326Y003911D03*
X014326Y003921D03*
X015786Y003121D03*
X015796Y003111D03*
X015756Y002031D03*
X018586Y001951D03*
X019546Y002331D03*
X020986Y002801D03*
X018816Y004411D03*
X015386Y006411D03*
X014946Y007281D03*
X015686Y007411D03*
X016906Y007481D03*
X017076Y006851D03*
X014296Y008031D03*
X016056Y010931D03*
X012326Y004781D03*
X012316Y004761D03*
X012316Y004751D03*
X012306Y004741D03*
X012296Y004721D03*
X012286Y004701D03*
D114*
X012401Y005031D03*
X012401Y005041D03*
X012411Y005051D03*
X012411Y005061D03*
X012421Y005071D03*
X012431Y005091D03*
X012441Y005101D03*
X013571Y004181D03*
X013561Y003881D03*
X014391Y004321D03*
X014401Y004361D03*
X014411Y004391D03*
X014421Y004421D03*
X015901Y002921D03*
X015881Y002241D03*
X015881Y002231D03*
X016971Y002481D03*
X017691Y002291D03*
X017691Y002281D03*
X018601Y002111D03*
X018601Y002101D03*
X018601Y002091D03*
X018611Y002141D03*
X018611Y002151D03*
X018621Y002211D03*
X018621Y002221D03*
X018631Y002251D03*
X018631Y002261D03*
X018631Y002271D03*
X018601Y002011D03*
X019291Y001951D03*
X019621Y002421D03*
X019631Y002431D03*
X019621Y002741D03*
X019611Y002751D03*
X018831Y004481D03*
X015381Y006511D03*
X015381Y006521D03*
X015191Y006801D03*
X015061Y007161D03*
X015631Y007141D03*
X015921Y008261D03*
X016061Y011071D03*
X011291Y003201D03*
X011281Y003191D03*
X011271Y003171D03*
X011261Y003161D03*
X011261Y003151D03*
X013251Y002741D03*
X013251Y002731D03*
X013241Y002421D03*
D115*
X013321Y002301D03*
X015931Y002371D03*
X015941Y002821D03*
X017031Y002261D03*
X017641Y002661D03*
X017641Y002671D03*
X018681Y002691D03*
X018671Y003161D03*
X019711Y002871D03*
X019691Y002311D03*
X019691Y001961D03*
X020291Y001951D03*
X017121Y004261D03*
X017121Y004271D03*
X017131Y004331D03*
X017131Y004341D03*
X017131Y004351D03*
X017131Y004361D03*
X017121Y004481D03*
X017121Y004491D03*
X017721Y004581D03*
X017721Y004591D03*
X017721Y004601D03*
X017721Y004611D03*
X017741Y004411D03*
X017741Y004401D03*
X017721Y005001D03*
X017721Y005011D03*
X018871Y004571D03*
X018871Y004561D03*
X018871Y004551D03*
X018871Y004541D03*
X019781Y005021D03*
X019781Y005031D03*
X019771Y005051D03*
X019741Y005101D03*
X019721Y005131D03*
X019711Y005141D03*
X016551Y003821D03*
X015521Y004231D03*
X015511Y004701D03*
X015521Y004711D03*
X014541Y004801D03*
X014541Y004811D03*
X014531Y004791D03*
X013961Y004941D03*
X013491Y005071D03*
X013461Y004711D03*
X013551Y004071D03*
X013551Y004061D03*
X013551Y003971D03*
X013551Y003961D03*
X015741Y006791D03*
X015661Y006921D03*
X015661Y006931D03*
X016561Y008061D03*
X016641Y008311D03*
X016061Y011171D03*
D116*
X016056Y010471D03*
X015756Y008171D03*
X017366Y008311D03*
X018026Y007231D03*
X018026Y007221D03*
X018036Y007211D03*
X018036Y007201D03*
X014076Y007201D03*
X014456Y003181D03*
X010916Y001981D03*
X021216Y001951D03*
D117*
X020256Y002301D03*
X020196Y002841D03*
X019426Y002891D03*
X019356Y001981D03*
X018176Y002601D03*
X018176Y002611D03*
X016446Y002841D03*
X015376Y002741D03*
X013826Y002731D03*
X013046Y002891D03*
X012976Y001981D03*
X011776Y001961D03*
X012876Y004171D03*
X012956Y004741D03*
X014936Y004171D03*
X015016Y004741D03*
X017046Y004741D03*
X016966Y004161D03*
X018236Y004601D03*
X015226Y007711D03*
X015436Y008241D03*
X015656Y008521D03*
X015936Y008691D03*
X016036Y008331D03*
X016216Y008391D03*
X016876Y008371D03*
X015096Y008441D03*
X016056Y011361D03*
D118*
X016056Y011231D03*
X015466Y008581D03*
X016306Y008271D03*
X016606Y008351D03*
X014756Y008031D03*
X013996Y007821D03*
X013946Y007751D03*
X013946Y007741D03*
X015256Y006871D03*
X015366Y006671D03*
X015366Y006661D03*
X015546Y005041D03*
X015556Y005021D03*
X015556Y005011D03*
X015566Y004991D03*
X015566Y004981D03*
X015566Y004971D03*
X015576Y004951D03*
X015576Y004941D03*
X015576Y004931D03*
X015576Y004921D03*
X015576Y004911D03*
X015576Y004901D03*
X015576Y004891D03*
X015576Y004881D03*
X015576Y004871D03*
X015576Y004861D03*
X015576Y004851D03*
X015566Y004141D03*
X015566Y004131D03*
X015566Y004121D03*
X015536Y003891D03*
X016556Y003871D03*
X016516Y004191D03*
X017126Y004601D03*
X017126Y004681D03*
X017126Y004691D03*
X017756Y004011D03*
X017756Y004001D03*
X017726Y003911D03*
X017646Y003151D03*
X018176Y002941D03*
X018176Y002931D03*
X018736Y003011D03*
X018736Y003021D03*
X018736Y003061D03*
X018736Y003071D03*
X018726Y003081D03*
X018726Y003091D03*
X019276Y002391D03*
X019726Y002171D03*
X019726Y002161D03*
X019726Y002151D03*
X019726Y002141D03*
X019726Y002131D03*
X019726Y002121D03*
X019696Y002011D03*
X020266Y002121D03*
X020276Y002101D03*
X019746Y002981D03*
X019746Y002991D03*
X019746Y003001D03*
X019746Y003011D03*
X019736Y003151D03*
X018846Y004691D03*
X018846Y004701D03*
X017076Y002911D03*
X017076Y002901D03*
X017076Y002891D03*
X017076Y002881D03*
X017066Y002851D03*
X017066Y002841D03*
X017056Y002821D03*
X017046Y002791D03*
X017046Y002771D03*
X017066Y002171D03*
X017056Y002001D03*
X016516Y002111D03*
X016516Y002121D03*
X015986Y002601D03*
X015966Y002781D03*
X015446Y002621D03*
X015446Y002571D03*
X013886Y002561D03*
X013886Y002621D03*
X013376Y003011D03*
X013376Y003021D03*
X013376Y003031D03*
X013376Y003041D03*
X013346Y003171D03*
X013236Y003861D03*
X013466Y004751D03*
X013976Y004871D03*
X014556Y004871D03*
X014546Y004981D03*
X012896Y002391D03*
X013346Y002181D03*
X013346Y002171D03*
X013346Y002161D03*
X013346Y002151D03*
X013346Y002141D03*
X012346Y002291D03*
X012006Y001961D03*
D119*
X012351Y001961D03*
X013321Y002001D03*
X013341Y002231D03*
X013341Y002241D03*
X013341Y002251D03*
X013351Y002911D03*
X013351Y002921D03*
X013361Y002941D03*
X013351Y003191D03*
X015541Y004201D03*
X015551Y004181D03*
X016551Y003841D03*
X017121Y004561D03*
X017741Y004291D03*
X017741Y004281D03*
X017741Y004271D03*
X017741Y004261D03*
X017741Y004251D03*
X017751Y004061D03*
X017751Y004051D03*
X017751Y004041D03*
X018851Y004651D03*
X018851Y004661D03*
X018841Y004671D03*
X018781Y004941D03*
X019741Y003171D03*
X019731Y002921D03*
X019731Y002911D03*
X019721Y002241D03*
X019721Y002231D03*
X019691Y001981D03*
X020301Y001991D03*
X018681Y002771D03*
X018681Y002781D03*
X018681Y002791D03*
X018681Y002801D03*
X018721Y002951D03*
X018721Y002961D03*
X018701Y003131D03*
X018171Y003131D03*
X018171Y003121D03*
X018171Y003111D03*
X018171Y003101D03*
X018171Y003091D03*
X018171Y003021D03*
X018171Y003011D03*
X018171Y003001D03*
X018171Y002991D03*
X017631Y002891D03*
X017621Y002931D03*
X017621Y002941D03*
X017621Y002951D03*
X017641Y002841D03*
X017641Y002831D03*
X017071Y003021D03*
X017071Y003031D03*
X017061Y002671D03*
X017061Y002661D03*
X017061Y002651D03*
X017051Y002211D03*
X017051Y002201D03*
X016551Y002001D03*
X016551Y001991D03*
X015951Y002801D03*
X015551Y004761D03*
X015561Y004781D03*
X014541Y005001D03*
X014541Y005011D03*
X013971Y004901D03*
X013971Y004891D03*
X013481Y005061D03*
X013471Y004731D03*
X015371Y006631D03*
X015371Y006641D03*
X015241Y006861D03*
X013941Y007711D03*
X015451Y008591D03*
X016621Y008331D03*
X016951Y008331D03*
D120*
X015631Y007081D03*
X015021Y006711D03*
X015381Y006541D03*
X014461Y004521D03*
X013571Y004141D03*
X013561Y003901D03*
X013281Y002541D03*
X013281Y002531D03*
X012911Y001961D03*
X015901Y002291D03*
X015911Y002881D03*
X017011Y003061D03*
X017001Y002581D03*
X016981Y002441D03*
X017681Y002351D03*
X017681Y002341D03*
X018641Y002341D03*
X018641Y002331D03*
X019291Y001961D03*
X019661Y002541D03*
X019661Y002551D03*
X019661Y002561D03*
X019661Y002571D03*
X019661Y002581D03*
X019661Y002591D03*
X019661Y002601D03*
X019661Y002611D03*
X019661Y002621D03*
X018841Y004501D03*
X019821Y004891D03*
X019821Y004901D03*
D121*
X019811Y004941D03*
X019811Y004951D03*
X018861Y004521D03*
X017721Y004761D03*
X017721Y004771D03*
X017721Y004781D03*
X017721Y004921D03*
X017721Y004931D03*
X017721Y004941D03*
X017721Y004951D03*
X017121Y004221D03*
X017121Y004211D03*
X016231Y004191D03*
X014481Y004571D03*
X014481Y004581D03*
X014481Y004591D03*
X013551Y003931D03*
X013331Y001961D03*
X017001Y002401D03*
X017011Y002371D03*
X017011Y002361D03*
X017011Y002351D03*
X017661Y002571D03*
X017661Y002581D03*
X017661Y002591D03*
X017651Y002611D03*
X018191Y003171D03*
X018671Y002621D03*
X018671Y002611D03*
X018671Y002601D03*
X018651Y002461D03*
X018651Y002451D03*
X018651Y002441D03*
X018651Y002431D03*
X018651Y002421D03*
X018651Y002411D03*
X018651Y002401D03*
X018651Y002391D03*
X016541Y006311D03*
X015641Y007001D03*
X015641Y007011D03*
X015641Y007021D03*
X015101Y007131D03*
X015061Y006751D03*
X015051Y006741D03*
X015381Y006571D03*
X016061Y011141D03*
D122*
X016056Y010441D03*
X014986Y008661D03*
X014086Y007181D03*
X018076Y007111D03*
X018086Y007091D03*
X018096Y007071D03*
X012036Y003801D03*
X014456Y003201D03*
X014456Y001961D03*
D123*
X014676Y002441D03*
X014676Y002451D03*
X014686Y002461D03*
X014686Y002471D03*
X014686Y002481D03*
X014686Y002491D03*
X014686Y002501D03*
X014686Y002701D03*
X014686Y002711D03*
X014686Y002721D03*
X014676Y002741D03*
X014676Y002751D03*
X015746Y001961D03*
X013116Y002781D03*
X012136Y002901D03*
X012136Y003011D03*
X012136Y003021D03*
X012136Y003031D03*
X012136Y003041D03*
X012136Y003051D03*
X012136Y003191D03*
X012126Y002691D03*
X012126Y002681D03*
X012126Y002671D03*
X012126Y002661D03*
X012126Y002651D03*
X012126Y002641D03*
X012126Y002631D03*
X012126Y002621D03*
X012126Y002611D03*
X012126Y002601D03*
X012126Y002591D03*
X012126Y002581D03*
X012126Y002571D03*
X012126Y002561D03*
X012126Y002551D03*
X012126Y002541D03*
X012126Y002531D03*
X012126Y002521D03*
X011136Y002741D03*
X011136Y002751D03*
X012256Y004591D03*
X015316Y004681D03*
X015326Y004651D03*
X015326Y004641D03*
X015326Y004631D03*
X015416Y005111D03*
X016366Y005031D03*
X016366Y005021D03*
X016336Y004691D03*
X016336Y004681D03*
X016336Y004671D03*
X016336Y004661D03*
X016336Y004651D03*
X016336Y004641D03*
X016336Y004631D03*
X018516Y004041D03*
X018516Y004031D03*
X018536Y003871D03*
X018806Y004361D03*
X020726Y003161D03*
X020736Y003151D03*
X021026Y002671D03*
X019496Y002781D03*
X019496Y002791D03*
X019496Y002381D03*
X016526Y006351D03*
X017046Y006801D03*
X015726Y007511D03*
X016056Y010871D03*
D124*
X016056Y011001D03*
X016466Y008011D03*
X016986Y007361D03*
X016986Y007351D03*
X016996Y007341D03*
X017096Y006951D03*
X015656Y007281D03*
X015006Y007211D03*
X014996Y007221D03*
X014996Y007671D03*
X014306Y008101D03*
X014306Y008111D03*
X015386Y006461D03*
X015386Y006451D03*
X018686Y005041D03*
X016926Y003131D03*
X015846Y003041D03*
X015836Y002151D03*
X015826Y002141D03*
X017696Y001961D03*
X018596Y001971D03*
X020976Y002881D03*
X014296Y003991D03*
X014296Y004001D03*
X011246Y003061D03*
X011246Y003051D03*
D125*
X012031Y003831D03*
X010911Y001991D03*
X014451Y001991D03*
X017411Y003791D03*
X021221Y001961D03*
X018021Y007241D03*
X018011Y007251D03*
X018011Y007261D03*
X018001Y007281D03*
X017031Y008871D03*
X016061Y010481D03*
D126*
X016056Y010451D03*
X017006Y008891D03*
X017426Y008191D03*
X016396Y007871D03*
X015786Y008181D03*
X015516Y008101D03*
X016486Y006491D03*
X018056Y007151D03*
X018056Y007161D03*
X018066Y007141D03*
X018046Y007181D03*
X017426Y005131D03*
X014456Y003191D03*
X012036Y003811D03*
X010916Y001971D03*
D127*
X012041Y002301D03*
X012341Y002301D03*
X012351Y001971D03*
X013321Y002011D03*
X013321Y002021D03*
X013351Y002191D03*
X013891Y002571D03*
X013891Y002581D03*
X013891Y002611D03*
X013371Y002971D03*
X013371Y002981D03*
X013371Y002991D03*
X013371Y003001D03*
X013351Y003181D03*
X015301Y003861D03*
X015541Y003881D03*
X015561Y004151D03*
X016551Y003861D03*
X017121Y004591D03*
X017131Y004701D03*
X017131Y004711D03*
X017131Y004721D03*
X017131Y004731D03*
X015571Y004811D03*
X015571Y004821D03*
X015571Y004831D03*
X015571Y004841D03*
X015551Y005031D03*
X014541Y004991D03*
X014551Y004861D03*
X013971Y004881D03*
X013481Y005051D03*
X015371Y006651D03*
X013941Y007721D03*
X013941Y007731D03*
X016951Y008341D03*
X016951Y008351D03*
X016061Y011221D03*
X017751Y004031D03*
X017751Y004021D03*
X017721Y003901D03*
X017651Y003161D03*
X017611Y002991D03*
X017611Y002981D03*
X017081Y002981D03*
X017081Y002971D03*
X017081Y002961D03*
X017081Y002951D03*
X017081Y002941D03*
X017081Y002931D03*
X017081Y002921D03*
X017081Y002991D03*
X017041Y002781D03*
X017051Y002761D03*
X017051Y002751D03*
X017051Y002741D03*
X017051Y002731D03*
X017061Y002181D03*
X016551Y002021D03*
X016541Y002051D03*
X016531Y002071D03*
X016531Y002081D03*
X016521Y002091D03*
X016521Y002101D03*
X015961Y002411D03*
X015451Y002581D03*
X015451Y002611D03*
X018171Y002951D03*
X018731Y002991D03*
X018731Y003001D03*
X018721Y003101D03*
X019731Y002181D03*
X019691Y002001D03*
X020271Y002111D03*
X020281Y002091D03*
X020281Y002081D03*
X020291Y002061D03*
X020301Y002031D03*
D128*
X020251Y002281D03*
X020221Y002731D03*
X019201Y002871D03*
X019201Y002341D03*
X018171Y002671D03*
X018171Y002681D03*
X018171Y002691D03*
X016461Y002731D03*
X016461Y002821D03*
X016491Y002281D03*
X015401Y002481D03*
X013841Y002481D03*
X012821Y002341D03*
X012791Y001971D03*
X012821Y002871D03*
X012781Y003221D03*
X012891Y004181D03*
X013441Y004831D03*
X013451Y004931D03*
X013451Y004941D03*
X014951Y004181D03*
X016521Y004051D03*
X016521Y004041D03*
X016531Y004001D03*
X016531Y003991D03*
X018251Y004711D03*
X017271Y005071D03*
X019081Y005081D03*
X017551Y006511D03*
X016251Y008361D03*
X016041Y008311D03*
X015781Y008331D03*
X015611Y008531D03*
X015931Y008701D03*
X016061Y011341D03*
D129*
X016061Y011271D03*
X015511Y008561D03*
X015821Y008291D03*
X015271Y006881D03*
X015361Y006721D03*
X015361Y006711D03*
X013981Y004841D03*
X013461Y004781D03*
X012951Y003821D03*
X012871Y002751D03*
X012971Y001971D03*
X013871Y002531D03*
X015421Y002671D03*
X015981Y002761D03*
X015991Y002731D03*
X015991Y002721D03*
X015991Y002711D03*
X015991Y002701D03*
X016511Y002781D03*
X016511Y002801D03*
X016481Y002191D03*
X017081Y002141D03*
X017081Y002131D03*
X017601Y003061D03*
X018171Y002871D03*
X019251Y002751D03*
X019351Y001971D03*
X020231Y002201D03*
X020241Y002191D03*
X016531Y004141D03*
X015551Y003961D03*
X015541Y003941D03*
X015541Y003931D03*
X018301Y004671D03*
X018831Y004741D03*
X018821Y004921D03*
X019071Y005091D03*
D130*
X018526Y003961D03*
X018526Y003951D03*
X018526Y003941D03*
X018536Y003921D03*
X018536Y003891D03*
X016316Y004221D03*
X016316Y004231D03*
X016316Y004241D03*
X016316Y004251D03*
X016316Y004361D03*
X016316Y004371D03*
X016316Y004381D03*
X015776Y003161D03*
X015746Y001971D03*
X012126Y002351D03*
X012126Y002361D03*
X012126Y002371D03*
X012126Y002381D03*
X012126Y002481D03*
X012126Y002491D03*
X012126Y002501D03*
X012126Y002711D03*
X012126Y002721D03*
X012126Y002731D03*
X012126Y002851D03*
X012136Y003091D03*
X012136Y003181D03*
X012256Y004601D03*
X012256Y004611D03*
X017056Y006811D03*
X015716Y007491D03*
X016056Y010881D03*
X020766Y003121D03*
X021016Y002701D03*
D131*
X020301Y001971D03*
X019691Y001971D03*
X019711Y002271D03*
X019711Y002281D03*
X019721Y002891D03*
X019741Y003181D03*
X018711Y002921D03*
X018711Y002911D03*
X018701Y002891D03*
X018701Y002881D03*
X018701Y002871D03*
X018691Y002851D03*
X018691Y002841D03*
X018691Y002731D03*
X018691Y002721D03*
X018181Y003151D03*
X017641Y002751D03*
X017641Y002741D03*
X017641Y002731D03*
X017631Y002711D03*
X017631Y002701D03*
X017041Y002231D03*
X016541Y001971D03*
X015941Y002381D03*
X013331Y002281D03*
X013341Y002891D03*
X013351Y003201D03*
X013541Y004021D03*
X013541Y004031D03*
X014531Y005031D03*
X015531Y004721D03*
X015531Y004221D03*
X016551Y003831D03*
X017131Y004301D03*
X017131Y004311D03*
X017121Y004531D03*
X017721Y004621D03*
X017721Y004631D03*
X017721Y004641D03*
X017721Y004651D03*
X017721Y004661D03*
X017721Y004671D03*
X017741Y004381D03*
X017741Y004371D03*
X017741Y004361D03*
X017741Y004221D03*
X017741Y004211D03*
X017741Y004201D03*
X017741Y004191D03*
X017741Y004181D03*
X017741Y004171D03*
X017741Y004161D03*
X017741Y004151D03*
X017741Y004141D03*
X017741Y004131D03*
X017741Y004121D03*
X017741Y004111D03*
X018861Y004611D03*
X018861Y004621D03*
X015731Y006801D03*
X015721Y006811D03*
X015711Y006821D03*
X015691Y006851D03*
X015681Y006871D03*
X015671Y006881D03*
X015671Y006891D03*
X015371Y006621D03*
X013941Y007701D03*
X016631Y008321D03*
X016951Y008321D03*
X016061Y011191D03*
D132*
X016056Y011331D03*
X015746Y008661D03*
X015446Y008231D03*
X014856Y008191D03*
X016256Y008351D03*
X016426Y008461D03*
X015136Y007101D03*
X013456Y004951D03*
X015976Y003831D03*
X016536Y003981D03*
X016526Y004061D03*
X016526Y004071D03*
X018256Y004621D03*
X018806Y004811D03*
X018806Y004821D03*
X018806Y004831D03*
X018166Y002791D03*
X018176Y002741D03*
X018176Y002731D03*
X018176Y002721D03*
X018176Y002711D03*
X018176Y002701D03*
X019226Y002421D03*
X019166Y001971D03*
X020246Y002271D03*
X016486Y002271D03*
X016476Y002741D03*
X015396Y002711D03*
X013836Y002711D03*
X012846Y002421D03*
D133*
X014446Y002011D03*
X014466Y003151D03*
X012026Y003851D03*
X014066Y007221D03*
X015916Y008201D03*
X017946Y007391D03*
X017956Y007371D03*
X017966Y007351D03*
X016056Y010501D03*
X020076Y003871D03*
X021226Y001971D03*
D134*
X020261Y002131D03*
X020261Y002141D03*
X019721Y002111D03*
X019721Y002101D03*
X019721Y002091D03*
X019711Y002081D03*
X019711Y002071D03*
X019711Y002061D03*
X019701Y002041D03*
X019691Y002021D03*
X019271Y002761D03*
X019751Y003021D03*
X019751Y003031D03*
X019751Y003041D03*
X019751Y003051D03*
X019741Y003091D03*
X019731Y003141D03*
X018741Y003051D03*
X018741Y003041D03*
X018741Y003031D03*
X018171Y002921D03*
X018171Y002911D03*
X017611Y003001D03*
X017611Y003011D03*
X017641Y003141D03*
X017071Y002871D03*
X017071Y002861D03*
X017061Y002831D03*
X017051Y002811D03*
X017051Y002801D03*
X016501Y002151D03*
X016501Y002141D03*
X016511Y002131D03*
X015971Y002421D03*
X015991Y002581D03*
X015991Y002591D03*
X015991Y002611D03*
X015991Y002621D03*
X015441Y002631D03*
X015441Y002561D03*
X013881Y002631D03*
X013371Y003051D03*
X013371Y003061D03*
X013371Y003071D03*
X013371Y003081D03*
X013371Y003091D03*
X013361Y003101D03*
X013361Y003111D03*
X013361Y003121D03*
X013361Y003131D03*
X013351Y003141D03*
X013351Y003151D03*
X013351Y003161D03*
X012891Y002761D03*
X012351Y002281D03*
X012351Y001981D03*
X013321Y002031D03*
X013321Y002041D03*
X013341Y002111D03*
X013341Y002121D03*
X013341Y002131D03*
X015571Y004101D03*
X015571Y004111D03*
X016521Y004181D03*
X017121Y004611D03*
X017131Y004661D03*
X017131Y004671D03*
X017301Y003841D03*
X017731Y003921D03*
X017741Y003931D03*
X017741Y003941D03*
X017751Y003961D03*
X017761Y003991D03*
X018841Y004711D03*
X015571Y004961D03*
X015561Y005001D03*
X014561Y004881D03*
X014551Y004961D03*
X014551Y004971D03*
X013471Y005041D03*
X013951Y007761D03*
X013971Y007801D03*
X013981Y007811D03*
X015151Y007691D03*
X016951Y008361D03*
X016061Y011241D03*
D135*
X015776Y008641D03*
X015696Y008511D03*
X015746Y008351D03*
X015636Y008241D03*
X016026Y008351D03*
X016186Y008411D03*
X016586Y008571D03*
X016616Y008561D03*
X016636Y008551D03*
X016656Y008541D03*
X016866Y008381D03*
X016996Y008411D03*
X015106Y008431D03*
X014986Y008391D03*
X014896Y008171D03*
X014946Y008141D03*
X014696Y008071D03*
X014666Y008181D03*
X013986Y004761D03*
X016006Y004201D03*
X016436Y002851D03*
X016506Y002311D03*
X015376Y002451D03*
X015376Y002751D03*
X013816Y002751D03*
X013816Y002761D03*
X012776Y001981D03*
X018176Y002571D03*
X018176Y002581D03*
X020186Y002851D03*
X018216Y004741D03*
D136*
X018051Y007171D03*
X018041Y007191D03*
X015721Y008161D03*
X017021Y008881D03*
X016061Y010461D03*
X014081Y007191D03*
X012031Y003821D03*
X014451Y001981D03*
D137*
X013326Y001991D03*
X013336Y002261D03*
X013336Y002271D03*
X013036Y002321D03*
X013056Y002871D03*
X013346Y002901D03*
X015536Y003861D03*
X015546Y004191D03*
X015536Y004211D03*
X016236Y004181D03*
X016196Y003831D03*
X017126Y004541D03*
X017126Y004551D03*
X017746Y004351D03*
X017746Y004341D03*
X017736Y004241D03*
X017736Y004231D03*
X017746Y004101D03*
X017746Y004091D03*
X017746Y004081D03*
X017746Y004071D03*
X017716Y003881D03*
X017656Y003171D03*
X017626Y002921D03*
X017626Y002911D03*
X017626Y002901D03*
X017636Y002881D03*
X017636Y002871D03*
X017636Y002861D03*
X017636Y002851D03*
X017646Y002821D03*
X017646Y002811D03*
X017646Y002801D03*
X017646Y002791D03*
X017646Y002781D03*
X017646Y002771D03*
X017646Y002761D03*
X017636Y002721D03*
X017056Y002641D03*
X017066Y003041D03*
X017046Y002221D03*
X017056Y001981D03*
X016546Y001981D03*
X015946Y002391D03*
X018176Y003031D03*
X018176Y003041D03*
X018176Y003051D03*
X018176Y003061D03*
X018176Y003071D03*
X018176Y003081D03*
X018176Y003141D03*
X018696Y003141D03*
X018716Y002941D03*
X018716Y002931D03*
X018706Y002901D03*
X018696Y002861D03*
X018686Y002831D03*
X018686Y002821D03*
X018686Y002811D03*
X018686Y002761D03*
X018686Y002751D03*
X018686Y002741D03*
X019436Y002871D03*
X019726Y002901D03*
X019716Y002261D03*
X019716Y002251D03*
X019416Y002321D03*
X020306Y001981D03*
X018856Y004631D03*
X018856Y004641D03*
X015546Y004741D03*
X015546Y004751D03*
X015536Y004731D03*
X015546Y005061D03*
X014536Y005021D03*
X014546Y004841D03*
X014546Y004831D03*
X013966Y004911D03*
X015706Y006831D03*
X015696Y006841D03*
X015686Y006861D03*
X016056Y011201D03*
D138*
X016061Y011371D03*
X016251Y008821D03*
X016161Y008691D03*
X016361Y008491D03*
X016201Y008401D03*
X016031Y008341D03*
X015251Y008211D03*
X014961Y008131D03*
X017001Y008401D03*
X017551Y006491D03*
X018231Y004731D03*
X019291Y004761D03*
X020191Y002711D03*
X020261Y002311D03*
X019151Y001981D03*
X018171Y002591D03*
X016441Y002711D03*
X015381Y002461D03*
X013821Y002461D03*
X013821Y002741D03*
X012041Y002291D03*
X011821Y002331D03*
X013991Y004771D03*
D139*
X012031Y003861D03*
X014471Y003141D03*
X014451Y002021D03*
X010911Y002011D03*
X017951Y007381D03*
X017941Y007401D03*
X017941Y007411D03*
X017931Y007421D03*
X017481Y008171D03*
X017061Y008851D03*
X016411Y007891D03*
X015681Y008141D03*
X015481Y008081D03*
X016061Y010511D03*
X020081Y003881D03*
X021231Y001981D03*
D140*
X020251Y002161D03*
X020251Y002171D03*
X019261Y002401D03*
X018171Y002891D03*
X017601Y003041D03*
X017621Y003111D03*
X017631Y003131D03*
X017071Y003821D03*
X016561Y003901D03*
X016561Y003911D03*
X015571Y004041D03*
X015571Y004051D03*
X015571Y004061D03*
X015541Y003921D03*
X015541Y003911D03*
X014561Y004901D03*
X014561Y004911D03*
X014561Y004921D03*
X014561Y004931D03*
X014981Y005111D03*
X013981Y004851D03*
X013461Y004771D03*
X013471Y005031D03*
X015361Y006701D03*
X016591Y008071D03*
X016581Y008371D03*
X015711Y008691D03*
X015471Y008211D03*
X017451Y006331D03*
X017011Y005111D03*
X018841Y004721D03*
X019351Y005121D03*
X015971Y002771D03*
X015991Y002651D03*
X015991Y002641D03*
X016001Y002541D03*
X016001Y002531D03*
X016001Y002521D03*
X016001Y002511D03*
X015431Y002541D03*
X015431Y002651D03*
X016491Y002171D03*
X017071Y002151D03*
X013881Y002551D03*
X013871Y002651D03*
X013051Y002881D03*
X012881Y002401D03*
X012361Y002251D03*
X012361Y002241D03*
X012351Y001991D03*
D141*
X012126Y002401D03*
X012126Y002411D03*
X012126Y002451D03*
X012126Y002761D03*
X012126Y002771D03*
X012126Y002811D03*
X012126Y002821D03*
X012136Y003171D03*
X011156Y002811D03*
X011146Y002791D03*
X014326Y003861D03*
X015776Y003151D03*
X016866Y003181D03*
X016326Y004291D03*
X016326Y004301D03*
X016326Y004311D03*
X016326Y004321D03*
X016316Y004341D03*
X015416Y005101D03*
X017056Y006821D03*
X015706Y007461D03*
X015706Y007471D03*
X012266Y004641D03*
X015746Y001991D03*
X020786Y003101D03*
X021006Y002741D03*
X021006Y002731D03*
X016056Y010901D03*
D142*
X016056Y011211D03*
X016616Y008341D03*
X015546Y005051D03*
X015566Y004801D03*
X015566Y004791D03*
X015556Y004771D03*
X015276Y005081D03*
X014546Y004851D03*
X013466Y004741D03*
X013216Y005081D03*
X015556Y004171D03*
X015556Y004161D03*
X015536Y003871D03*
X016556Y003851D03*
X017126Y004571D03*
X017126Y004581D03*
X017746Y004331D03*
X017746Y004321D03*
X017746Y004311D03*
X017746Y004301D03*
X017716Y003891D03*
X017616Y002971D03*
X017616Y002961D03*
X017076Y003001D03*
X017076Y003011D03*
X017056Y002721D03*
X017056Y002711D03*
X017056Y002701D03*
X017056Y002691D03*
X017056Y002681D03*
X017056Y002191D03*
X017056Y001991D03*
X016556Y002011D03*
X016546Y002031D03*
X016546Y002041D03*
X016536Y002061D03*
X015956Y002401D03*
X015956Y002791D03*
X015456Y002601D03*
X015456Y002591D03*
X013896Y002591D03*
X013896Y002601D03*
X013356Y002931D03*
X013366Y002951D03*
X013366Y002961D03*
X013016Y003231D03*
X012906Y002771D03*
X013346Y002221D03*
X013346Y002211D03*
X013346Y002201D03*
X012336Y002311D03*
X018176Y002961D03*
X018176Y002971D03*
X018176Y002981D03*
X018706Y003121D03*
X018716Y003111D03*
X018726Y002981D03*
X018726Y002971D03*
X019286Y002771D03*
X019736Y002931D03*
X019736Y002941D03*
X019746Y002951D03*
X019746Y002961D03*
X019746Y002971D03*
X019736Y003161D03*
X019396Y003231D03*
X019726Y002221D03*
X019726Y002211D03*
X019726Y002201D03*
X019726Y002191D03*
X019686Y001991D03*
X020286Y002071D03*
X020296Y002051D03*
X020296Y002041D03*
X020306Y002021D03*
X020306Y002011D03*
X020306Y002001D03*
X018846Y004681D03*
D143*
X018826Y004471D03*
X018696Y005011D03*
X019826Y004831D03*
X020916Y003031D03*
X020926Y003021D03*
X020926Y003011D03*
X020936Y003001D03*
X020936Y002991D03*
X019606Y002391D03*
X018596Y001991D03*
X017726Y002011D03*
X017726Y002091D03*
X017726Y002101D03*
X017726Y002111D03*
X017726Y002121D03*
X017716Y002141D03*
X017716Y002151D03*
X017716Y002161D03*
X017716Y002171D03*
X017706Y002191D03*
X017706Y002201D03*
X017706Y002211D03*
X016966Y002531D03*
X015866Y002191D03*
X015886Y002961D03*
X015886Y002971D03*
X014376Y004201D03*
X014386Y004221D03*
X013566Y004201D03*
X012376Y004971D03*
X012476Y005141D03*
X013946Y005081D03*
X015186Y006791D03*
X015036Y007181D03*
X015636Y007181D03*
X015636Y007191D03*
X015926Y008251D03*
X016056Y011051D03*
X011326Y003231D03*
X011256Y003121D03*
X013226Y002771D03*
X013236Y002401D03*
D144*
X014451Y002041D03*
X014491Y003111D03*
X012031Y003881D03*
X010911Y002031D03*
X017901Y007481D03*
X017901Y007491D03*
X017891Y007501D03*
X017891Y007511D03*
X016061Y010531D03*
X020081Y003891D03*
X021231Y001991D03*
D145*
X020081Y003861D03*
X014461Y003161D03*
X012031Y003841D03*
X010911Y002001D03*
X017991Y007301D03*
X017981Y007321D03*
X017981Y007331D03*
X017971Y007341D03*
X017961Y007361D03*
X015701Y008151D03*
X015501Y008091D03*
X017051Y008861D03*
D146*
X016576Y008381D03*
X016556Y008391D03*
X016296Y008291D03*
X014816Y008211D03*
X015106Y007111D03*
X015776Y005841D03*
X013466Y005021D03*
X015016Y003821D03*
X015546Y003951D03*
X015556Y003971D03*
X015556Y003981D03*
X015556Y003991D03*
X015566Y004001D03*
X015566Y004011D03*
X015566Y004021D03*
X015566Y004031D03*
X016526Y004151D03*
X016526Y004161D03*
X016556Y003921D03*
X017606Y003091D03*
X017606Y003081D03*
X017606Y003071D03*
X017596Y003051D03*
X017616Y003101D03*
X018176Y002881D03*
X019426Y002881D03*
X020266Y002801D03*
X020266Y002791D03*
X020246Y002181D03*
X019426Y003861D03*
X018306Y004681D03*
X018836Y004731D03*
X018816Y004931D03*
X016516Y002791D03*
X015996Y002691D03*
X015996Y002681D03*
X015996Y002671D03*
X015996Y002661D03*
X015996Y002501D03*
X015996Y002491D03*
X015996Y002481D03*
X015996Y002471D03*
X015996Y002461D03*
X015996Y002451D03*
X015986Y002441D03*
X016486Y002181D03*
X017056Y002031D03*
X017056Y002021D03*
X015426Y002531D03*
X015426Y002661D03*
X013876Y002541D03*
X013866Y002661D03*
X012366Y002231D03*
X012366Y002221D03*
X012366Y002211D03*
X012346Y002001D03*
X016056Y011261D03*
D147*
X016056Y010491D03*
X017456Y008181D03*
X016406Y007881D03*
X017986Y007311D03*
X017996Y007291D03*
X018006Y007271D03*
X016486Y006481D03*
X017436Y005121D03*
X014456Y003171D03*
X014446Y002001D03*
X013626Y005091D03*
X014076Y007211D03*
D148*
X014931Y007311D03*
X015701Y007451D03*
X016421Y007981D03*
X014421Y008211D03*
X015391Y006391D03*
X016541Y006341D03*
X018651Y005071D03*
X018811Y004391D03*
X020991Y002771D03*
X020991Y002761D03*
X021001Y002751D03*
X015751Y002001D03*
X015411Y003831D03*
X014331Y003871D03*
X012271Y004651D03*
X012271Y004661D03*
X012141Y003161D03*
X012141Y003151D03*
X012141Y003141D03*
X012141Y003131D03*
X012121Y002801D03*
X012121Y002791D03*
X012121Y002781D03*
X012131Y002441D03*
X012131Y002431D03*
X012131Y002421D03*
X012141Y002331D03*
X011151Y002801D03*
X011161Y002821D03*
X011161Y002831D03*
X011171Y002841D03*
X016061Y010911D03*
D149*
X015641Y007171D03*
X015381Y006501D03*
X014481Y005091D03*
X014391Y004251D03*
X014391Y004241D03*
X014391Y004231D03*
X013571Y004191D03*
X013571Y003871D03*
X013091Y004241D03*
X012381Y004981D03*
X012381Y004991D03*
X012391Y005011D03*
X011311Y003221D03*
X011261Y003141D03*
X011261Y003131D03*
X013231Y002761D03*
X015151Y004241D03*
X015891Y002951D03*
X015871Y002201D03*
X016961Y002511D03*
X016961Y002521D03*
X016971Y002541D03*
X016971Y003081D03*
X017701Y002241D03*
X017701Y002231D03*
X017701Y002221D03*
X017731Y002081D03*
X017731Y002071D03*
X017731Y002061D03*
X017731Y002031D03*
X017731Y002021D03*
X018601Y002001D03*
X019611Y002401D03*
X019601Y002771D03*
X020911Y003041D03*
X018701Y005001D03*
X017701Y005071D03*
D150*
X016481Y006461D03*
X017851Y007581D03*
X017851Y007591D03*
X017861Y007571D03*
X017841Y007611D03*
X016421Y007901D03*
X015631Y008121D03*
X014061Y007251D03*
X012031Y003901D03*
X014501Y003091D03*
X014511Y003081D03*
X014461Y002061D03*
X014451Y002051D03*
X010921Y002071D03*
X010911Y002051D03*
X020081Y003901D03*
X020081Y003911D03*
X021231Y002001D03*
D151*
X020226Y002211D03*
X020226Y002221D03*
X020266Y002781D03*
X019396Y003221D03*
X018176Y002861D03*
X017076Y002121D03*
X017076Y002111D03*
X017076Y002101D03*
X017066Y002081D03*
X017056Y002051D03*
X017056Y002041D03*
X016476Y002201D03*
X015986Y002741D03*
X015986Y002751D03*
X015426Y002521D03*
X013866Y002521D03*
X013866Y002671D03*
X013016Y003221D03*
X013086Y004191D03*
X013466Y005011D03*
X013216Y005071D03*
X013986Y004831D03*
X015276Y005071D03*
X015146Y004191D03*
X016236Y004171D03*
X016196Y003841D03*
X016556Y003931D03*
X018286Y004691D03*
X018836Y004751D03*
X018816Y004911D03*
X019476Y004801D03*
X017266Y005081D03*
X015356Y006731D03*
X015356Y006741D03*
X016296Y008301D03*
X016536Y008401D03*
X016056Y011281D03*
X012366Y002201D03*
X012366Y002191D03*
X012366Y002181D03*
X012366Y002171D03*
X012366Y002161D03*
X012366Y002151D03*
X012346Y002021D03*
X012346Y002011D03*
D152*
X011191Y002891D03*
X012271Y004671D03*
X012271Y004681D03*
X012281Y004691D03*
X012291Y004711D03*
X012301Y004731D03*
X014331Y003901D03*
X014331Y003891D03*
X014331Y003881D03*
X015781Y003131D03*
X015751Y002021D03*
X015751Y002011D03*
X016331Y004201D03*
X015391Y006401D03*
X014941Y007291D03*
X015691Y007421D03*
X015691Y007431D03*
X016891Y007491D03*
X017071Y006841D03*
X014411Y008201D03*
X014301Y008021D03*
X020811Y003081D03*
D153*
X019746Y003081D03*
X019746Y003071D03*
X019746Y003061D03*
X019736Y003101D03*
X019736Y003111D03*
X019736Y003121D03*
X019736Y003131D03*
X019416Y002311D03*
X019706Y002051D03*
X019696Y002031D03*
X020256Y002151D03*
X018176Y002901D03*
X017606Y003021D03*
X017606Y003031D03*
X017626Y003121D03*
X017746Y003951D03*
X017756Y003971D03*
X017756Y003981D03*
X017126Y004621D03*
X017126Y004631D03*
X017126Y004641D03*
X017126Y004651D03*
X016526Y004171D03*
X016556Y003891D03*
X016556Y003881D03*
X015566Y004071D03*
X015566Y004081D03*
X015566Y004091D03*
X015536Y003901D03*
X014556Y004891D03*
X014556Y004941D03*
X014556Y004951D03*
X013976Y004861D03*
X013466Y004761D03*
X012916Y005111D03*
X015366Y006681D03*
X015366Y006691D03*
X013956Y007771D03*
X013956Y007781D03*
X013966Y007791D03*
X015486Y008571D03*
X015826Y008281D03*
X016306Y008281D03*
X016596Y008361D03*
X016056Y011251D03*
X015996Y002631D03*
X015996Y002571D03*
X015996Y002561D03*
X015996Y002551D03*
X015976Y002431D03*
X015436Y002551D03*
X015436Y002641D03*
X016496Y002161D03*
X017066Y002161D03*
X017056Y002011D03*
X013876Y002641D03*
X013336Y002101D03*
X013336Y002091D03*
X013336Y002081D03*
X013326Y002071D03*
X013326Y002061D03*
X013326Y002051D03*
X013036Y002311D03*
X012356Y002271D03*
X012356Y002261D03*
D154*
X010936Y002101D03*
X010926Y002091D03*
X010926Y002081D03*
X010916Y002061D03*
X012036Y003911D03*
X012036Y003921D03*
X014516Y003071D03*
X014466Y002071D03*
X018726Y005121D03*
X017846Y007601D03*
X017836Y007621D03*
X017826Y007631D03*
X017826Y007641D03*
X017816Y007661D03*
X017516Y008151D03*
X017106Y008821D03*
X016056Y010551D03*
X014096Y007311D03*
X014066Y007271D03*
X014066Y007261D03*
X021236Y002011D03*
D155*
X014446Y002031D03*
X014486Y003121D03*
X014476Y003131D03*
X012026Y003871D03*
X010906Y002021D03*
X016476Y006471D03*
X017926Y007431D03*
X017926Y007441D03*
X017916Y007451D03*
X017916Y007461D03*
X017906Y007471D03*
X017076Y008841D03*
X016056Y010521D03*
X014066Y007231D03*
D156*
X014071Y007281D03*
X014081Y007301D03*
X015451Y008061D03*
X017121Y008811D03*
X017801Y007691D03*
X017801Y007681D03*
X017811Y007671D03*
X017821Y007651D03*
X016061Y010561D03*
X020081Y003921D03*
X021231Y002021D03*
X014481Y002091D03*
X014471Y002081D03*
X010951Y002131D03*
X010941Y002121D03*
X010941Y002111D03*
D157*
X012346Y002041D03*
X012346Y002031D03*
X012356Y002091D03*
X012356Y002101D03*
X012356Y002111D03*
X012366Y002131D03*
X015416Y002511D03*
X016476Y002231D03*
X016496Y002761D03*
X016546Y003941D03*
X017296Y003851D03*
X018286Y004651D03*
X018826Y004771D03*
X018816Y004891D03*
X018816Y004901D03*
X019166Y003231D03*
X019246Y002411D03*
X020236Y002241D03*
X013986Y004821D03*
X013456Y004801D03*
X015346Y006761D03*
X015456Y008221D03*
X015536Y008551D03*
X015926Y008711D03*
X016086Y008711D03*
X016036Y008281D03*
X016286Y008321D03*
X016486Y008431D03*
X016506Y008421D03*
X014836Y008201D03*
D158*
X014076Y007291D03*
X015326Y005131D03*
X014526Y003061D03*
X014486Y002101D03*
X010966Y002171D03*
X010956Y002151D03*
X010956Y002141D03*
X017786Y007711D03*
X017786Y007721D03*
X017776Y007731D03*
X017776Y007741D03*
X017766Y007751D03*
X017756Y007771D03*
X017746Y007791D03*
X017796Y007701D03*
X016056Y010571D03*
X021236Y002031D03*
D159*
X017406Y003801D03*
X014496Y003101D03*
X012036Y003891D03*
X010906Y002041D03*
X014066Y007241D03*
X015466Y008071D03*
X015656Y008131D03*
X017096Y008831D03*
X017496Y008161D03*
X017866Y007561D03*
X017866Y007551D03*
X017876Y007541D03*
X017876Y007531D03*
X017886Y007521D03*
X016056Y010541D03*
D160*
X016061Y010941D03*
X016431Y007991D03*
X016911Y007471D03*
X017081Y006861D03*
X015681Y007391D03*
X015681Y007401D03*
X014961Y007271D03*
X015781Y005871D03*
X015421Y005091D03*
X012341Y004811D03*
X012331Y004791D03*
X012321Y004771D03*
X011211Y002941D03*
X015801Y003101D03*
X015781Y002071D03*
X015771Y002051D03*
X015761Y002041D03*
X020831Y003071D03*
X020981Y002811D03*
D161*
X021231Y002041D03*
X020081Y003931D03*
X016481Y006451D03*
X017761Y007761D03*
X017751Y007781D03*
X017741Y007801D03*
X017731Y007811D03*
X017731Y007821D03*
X017721Y007831D03*
X017721Y007841D03*
X017711Y007851D03*
X017701Y007871D03*
X017691Y007891D03*
X017681Y007901D03*
X017671Y007921D03*
X017661Y007931D03*
X017661Y007941D03*
X017531Y008141D03*
X016061Y010581D03*
X012031Y003931D03*
X014531Y003051D03*
X014501Y002121D03*
X014491Y002111D03*
X010971Y002181D03*
X010961Y002161D03*
D162*
X012341Y002051D03*
X012351Y002061D03*
X012351Y002071D03*
X012351Y002081D03*
X013851Y002501D03*
X013851Y002691D03*
X015411Y002691D03*
X015411Y002501D03*
X016481Y002241D03*
X018171Y002831D03*
X018171Y002841D03*
X016541Y003951D03*
X016531Y004091D03*
X016531Y004101D03*
X016531Y004111D03*
X017011Y004181D03*
X018821Y004781D03*
X018811Y004881D03*
X016541Y006301D03*
X015291Y006891D03*
X015241Y007011D03*
X015191Y007701D03*
X015801Y008311D03*
X016061Y011301D03*
X013461Y004991D03*
X013451Y004811D03*
X020251Y002761D03*
D163*
X021231Y002061D03*
X021231Y002051D03*
X020091Y003941D03*
X014521Y002151D03*
X014511Y002141D03*
X012031Y003941D03*
X010981Y002221D03*
X010981Y002211D03*
X014621Y007821D03*
X015421Y008041D03*
X017151Y008791D03*
X016061Y010591D03*
D164*
X016061Y011291D03*
X015721Y008681D03*
X015811Y008301D03*
X016291Y008311D03*
X016521Y008411D03*
X014731Y008041D03*
X015331Y006781D03*
X015341Y006771D03*
X015351Y006751D03*
X015181Y004741D03*
X016531Y004131D03*
X016531Y004121D03*
X017021Y004191D03*
X017211Y004191D03*
X018291Y004661D03*
X018831Y004761D03*
X019021Y004151D03*
X018171Y002851D03*
X017071Y002091D03*
X017061Y002071D03*
X017061Y002061D03*
X016471Y002211D03*
X016471Y002221D03*
X016501Y002771D03*
X015411Y002681D03*
X013861Y002681D03*
X013861Y002511D03*
X012871Y002411D03*
X012361Y002141D03*
X012361Y002121D03*
X012791Y003231D03*
X013121Y004741D03*
X013461Y004791D03*
X013461Y005001D03*
X020261Y002771D03*
X020231Y002231D03*
D165*
X021231Y002081D03*
X021231Y002071D03*
X020091Y003951D03*
X014531Y002161D03*
X011001Y002261D03*
X011001Y002271D03*
X010991Y002241D03*
X016431Y007921D03*
X017661Y007971D03*
X016061Y010611D03*
D166*
X016061Y010961D03*
X014291Y008041D03*
X014971Y007251D03*
X015671Y007361D03*
X016921Y007461D03*
X016931Y007451D03*
X017091Y006891D03*
X017091Y006881D03*
X012341Y004821D03*
X014311Y003941D03*
X015811Y003091D03*
X016901Y003171D03*
X015801Y002101D03*
X015791Y002091D03*
X011221Y002971D03*
X011221Y002981D03*
X020981Y002831D03*
D167*
X021096Y002311D03*
X021106Y002291D03*
X021116Y002271D03*
X021126Y002261D03*
X021126Y002251D03*
X021136Y002241D03*
X021136Y002231D03*
X021146Y002221D03*
X021156Y002211D03*
X021226Y002091D03*
X020096Y003961D03*
X014556Y003021D03*
X014536Y002171D03*
X012026Y003961D03*
X013366Y004361D03*
X011006Y002281D03*
X017576Y008111D03*
X016056Y010621D03*
D168*
X016061Y010631D03*
X017181Y008771D03*
X017591Y008101D03*
X017661Y007991D03*
X017661Y007981D03*
X016691Y007561D03*
X016481Y006431D03*
X018721Y005101D03*
X018741Y004191D03*
X019511Y003251D03*
X020971Y002521D03*
X020981Y002511D03*
X020981Y002501D03*
X020991Y002491D03*
X020991Y002481D03*
X021001Y002471D03*
X021011Y002461D03*
X021081Y002341D03*
X021091Y002321D03*
X021101Y002301D03*
X021111Y002281D03*
X021161Y002201D03*
X021171Y002191D03*
X021181Y002181D03*
X021221Y002111D03*
X021221Y002101D03*
X015831Y003291D03*
X014571Y003001D03*
X014571Y002991D03*
X014561Y003011D03*
X013131Y003251D03*
X012021Y003971D03*
X013361Y004351D03*
X013361Y004371D03*
X011011Y002291D03*
D169*
X011226Y002991D03*
X014306Y003951D03*
X015816Y003081D03*
X015826Y003071D03*
X015806Y002111D03*
X018816Y004431D03*
X018676Y005061D03*
X015906Y006741D03*
X015386Y006431D03*
X015666Y007341D03*
X015666Y007351D03*
X016446Y008001D03*
X016936Y007441D03*
X016946Y007431D03*
X014296Y008051D03*
X014066Y007671D03*
X012346Y004841D03*
X012346Y004831D03*
X020846Y003061D03*
X020986Y002841D03*
D170*
X021016Y002451D03*
X021026Y002441D03*
X021066Y002371D03*
X021076Y002361D03*
X021076Y002351D03*
X021086Y002331D03*
X021186Y002171D03*
X021196Y002161D03*
X021216Y002131D03*
X021216Y002121D03*
X020096Y003971D03*
X018716Y004181D03*
X015306Y005121D03*
X013356Y004391D03*
X013356Y004381D03*
X013366Y004341D03*
X013366Y004331D03*
X013366Y004321D03*
X013356Y004281D03*
X013346Y004261D03*
X013346Y004251D03*
X012026Y003981D03*
X011006Y002301D03*
X014546Y002181D03*
X014576Y002981D03*
X017656Y008001D03*
X017196Y008761D03*
D171*
X017136Y008801D03*
X017546Y008131D03*
X017656Y007951D03*
X017676Y007911D03*
X017696Y007881D03*
X017706Y007861D03*
X016426Y007911D03*
X015436Y008051D03*
X018726Y005111D03*
X017416Y003811D03*
X014536Y003041D03*
X014506Y002131D03*
X010976Y002191D03*
X010976Y002201D03*
D172*
X011241Y003041D03*
X013551Y004241D03*
X014301Y003981D03*
X015841Y003051D03*
X016921Y003141D03*
X015821Y002131D03*
X018821Y004441D03*
X017101Y006931D03*
X017101Y006941D03*
X016981Y007371D03*
X016971Y007381D03*
X015651Y007291D03*
X014301Y008091D03*
X016061Y010991D03*
X012351Y004871D03*
D173*
X013351Y004411D03*
X013351Y004401D03*
X013361Y004311D03*
X013361Y004301D03*
X013361Y004291D03*
X013351Y004271D03*
X014571Y002971D03*
X014551Y002191D03*
X011011Y002311D03*
X011011Y002321D03*
X018741Y004201D03*
X020091Y003981D03*
X020971Y002531D03*
X021031Y002431D03*
X021041Y002421D03*
X021051Y002411D03*
X021051Y002401D03*
X021061Y002391D03*
X021061Y002381D03*
X021201Y002151D03*
X021211Y002141D03*
X016701Y007551D03*
X017601Y008091D03*
X017611Y008081D03*
X017651Y008021D03*
X017651Y008011D03*
X016061Y010641D03*
D174*
X016061Y011011D03*
X014351Y008191D03*
X014341Y008181D03*
X014311Y008131D03*
X014311Y008121D03*
X015651Y007271D03*
X015651Y007261D03*
X017001Y007321D03*
X017001Y007331D03*
X017011Y007311D03*
X017011Y007301D03*
X017101Y006991D03*
X017101Y006981D03*
X017101Y006971D03*
X017101Y006961D03*
X019821Y004801D03*
X018821Y004451D03*
X016931Y003121D03*
X015861Y003031D03*
X015841Y002161D03*
X013561Y004231D03*
X012351Y004881D03*
X012351Y004891D03*
X011361Y003251D03*
X011251Y003071D03*
X020881Y003051D03*
X020971Y002901D03*
X020971Y002891D03*
D175*
X018401Y003201D03*
X018741Y004211D03*
X016851Y003251D03*
X014581Y002941D03*
X014571Y002231D03*
X014571Y002221D03*
X014561Y002201D03*
X013341Y004431D03*
X016481Y006421D03*
X016431Y007931D03*
X017221Y008741D03*
X017631Y008061D03*
X017641Y008051D03*
X017641Y008041D03*
X016061Y010661D03*
X011021Y002351D03*
X011021Y002341D03*
D176*
X010996Y002251D03*
X010986Y002231D03*
X012026Y003951D03*
X014546Y003031D03*
X016476Y006441D03*
X015396Y008031D03*
X016076Y008211D03*
X017166Y008781D03*
X017566Y008121D03*
X017656Y007961D03*
X016056Y010601D03*
D177*
X016061Y010681D03*
X013331Y004461D03*
X012031Y004031D03*
X012141Y003251D03*
X011031Y002381D03*
X014581Y002261D03*
X014591Y002911D03*
X015831Y003281D03*
X015321Y003811D03*
X018751Y004231D03*
D178*
X018271Y004631D03*
X018261Y004701D03*
X018811Y004801D03*
X018811Y004841D03*
X018811Y004851D03*
X018811Y004861D03*
X017191Y004741D03*
X016991Y004171D03*
X016531Y004081D03*
X016541Y003971D03*
X014971Y004191D03*
X013991Y004801D03*
X013451Y004821D03*
X013451Y004961D03*
X012911Y004191D03*
X015401Y002701D03*
X015401Y002491D03*
X016471Y002811D03*
X018171Y002811D03*
X018171Y002801D03*
X018171Y002781D03*
X018171Y002771D03*
X018171Y002761D03*
X018171Y002751D03*
X018171Y002821D03*
X020231Y002811D03*
X020241Y002751D03*
X020231Y002741D03*
X020241Y002261D03*
X013851Y002491D03*
X013031Y002301D03*
X014721Y008051D03*
X015271Y008201D03*
X015791Y008321D03*
X016041Y008301D03*
X016041Y008291D03*
X016271Y008341D03*
X016451Y008451D03*
X016061Y011321D03*
D179*
X017246Y008721D03*
X016736Y007531D03*
X016486Y006411D03*
X017556Y005111D03*
X020096Y004021D03*
X020536Y003291D03*
X020546Y003281D03*
X020976Y002561D03*
X014596Y002901D03*
X014586Y002281D03*
X014586Y002271D03*
X012036Y004041D03*
X012036Y004051D03*
X012046Y004061D03*
X012046Y004071D03*
X012056Y004081D03*
X012066Y004101D03*
X012076Y004121D03*
X013326Y004471D03*
X014746Y008521D03*
X014806Y008621D03*
D180*
X017261Y008711D03*
X016941Y006741D03*
X013321Y004481D03*
X013481Y003831D03*
X012091Y004151D03*
X012081Y004131D03*
X012071Y004111D03*
X012061Y004091D03*
X011031Y002401D03*
X011031Y002391D03*
X014591Y002291D03*
X015821Y003271D03*
X018511Y003791D03*
X018761Y004241D03*
X020091Y004041D03*
X020091Y004031D03*
X020551Y003271D03*
X016061Y010691D03*
D181*
X016126Y008701D03*
X016226Y008381D03*
X016236Y008371D03*
X016406Y008471D03*
X016036Y008321D03*
X014976Y008121D03*
X014876Y008181D03*
X014706Y008061D03*
X016996Y008381D03*
X017546Y006501D03*
X019356Y005111D03*
X018246Y004611D03*
X017306Y003861D03*
X016526Y004011D03*
X016526Y004021D03*
X016526Y004031D03*
X015386Y002721D03*
X016496Y002291D03*
X018176Y002641D03*
X018176Y002651D03*
X018176Y002661D03*
X019156Y003221D03*
X020206Y002831D03*
X020216Y002821D03*
X013996Y004791D03*
X013446Y004901D03*
X013446Y004911D03*
X013446Y004921D03*
X013436Y004851D03*
X013436Y004841D03*
X013826Y002721D03*
D182*
X013831Y002471D03*
X015391Y002471D03*
X015381Y002731D03*
X016451Y002721D03*
X016451Y002831D03*
X016501Y002301D03*
X018171Y002621D03*
X018171Y002631D03*
X020211Y002721D03*
X020251Y002291D03*
X018241Y004721D03*
X015311Y006901D03*
X014661Y008191D03*
X015761Y008341D03*
X015761Y008651D03*
X016231Y008831D03*
X016381Y008481D03*
X017001Y008391D03*
X016061Y011351D03*
X013991Y004781D03*
X013441Y004861D03*
X013441Y004871D03*
X013441Y004881D03*
X013441Y004891D03*
D183*
X013316Y004491D03*
X012106Y004181D03*
X012096Y004161D03*
X012086Y004141D03*
X014596Y002891D03*
X014596Y002301D03*
X015816Y003261D03*
X016836Y003241D03*
X018416Y003191D03*
X020566Y003261D03*
X020576Y003251D03*
X020986Y002571D03*
X014696Y008451D03*
X014696Y008461D03*
X014706Y008471D03*
X014716Y008491D03*
X014726Y008511D03*
X014746Y008531D03*
X014746Y008541D03*
X016056Y010701D03*
X011036Y002421D03*
X011036Y002411D03*
D184*
X013556Y003911D03*
X014466Y004531D03*
X014466Y004541D03*
X015166Y004711D03*
X014506Y005071D03*
X013946Y005061D03*
X013946Y005051D03*
X013946Y005041D03*
X013106Y004711D03*
X015776Y005851D03*
X015376Y006551D03*
X015206Y006821D03*
X015036Y006721D03*
X015086Y007141D03*
X015636Y007071D03*
X015636Y007061D03*
X015636Y007051D03*
X017706Y005051D03*
X018726Y004971D03*
X019816Y004911D03*
X018656Y003181D03*
X017676Y003201D03*
X017006Y002591D03*
X016986Y002431D03*
X017686Y002381D03*
X017686Y002371D03*
X017686Y002361D03*
X018646Y002361D03*
X018646Y002351D03*
X015906Y002311D03*
X015906Y002301D03*
X015916Y002871D03*
X016056Y011111D03*
D185*
X016061Y010711D03*
X017271Y008701D03*
X014791Y008611D03*
X014781Y008601D03*
X014771Y008591D03*
X014761Y008571D03*
X014751Y008551D03*
X014721Y008501D03*
X014711Y008481D03*
X016491Y006401D03*
X016331Y005121D03*
X018761Y004251D03*
X019951Y004291D03*
X019961Y004271D03*
X019971Y004261D03*
X019971Y004251D03*
X019981Y004241D03*
X019981Y004231D03*
X019991Y004221D03*
X020001Y004211D03*
X020001Y004201D03*
X020011Y004191D03*
X020091Y004061D03*
X020091Y004051D03*
X020581Y003241D03*
X014601Y002881D03*
X014601Y002311D03*
X012101Y004171D03*
X012111Y004191D03*
X012111Y004201D03*
X013311Y004501D03*
X011041Y002431D03*
D186*
X011176Y002851D03*
X011176Y002861D03*
X011186Y002871D03*
X011186Y002881D03*
X012156Y002321D03*
X013166Y002341D03*
X015776Y003141D03*
X018816Y004401D03*
X020796Y003091D03*
X020986Y002791D03*
X020986Y002781D03*
X019536Y002341D03*
X017066Y006831D03*
X016886Y007501D03*
X015696Y007441D03*
X014936Y007301D03*
X016056Y010921D03*
D187*
X016411Y007971D03*
X016851Y007521D03*
X015721Y007501D03*
X015391Y006371D03*
X015781Y005881D03*
X015321Y004671D03*
X015321Y004661D03*
X015411Y003821D03*
X015781Y003171D03*
X016311Y004211D03*
X016321Y004391D03*
X016321Y004401D03*
X014321Y003851D03*
X013121Y002811D03*
X013121Y002801D03*
X013121Y002791D03*
X012131Y002861D03*
X012131Y002871D03*
X012131Y002881D03*
X012131Y002891D03*
X012141Y003061D03*
X012141Y003071D03*
X012141Y003081D03*
X012121Y002701D03*
X012131Y002511D03*
X012121Y002341D03*
X011141Y002761D03*
X018521Y003971D03*
X018521Y003981D03*
X018521Y003991D03*
X018521Y004001D03*
X018521Y004011D03*
X018521Y004021D03*
X018541Y003881D03*
X018811Y004371D03*
X020741Y003141D03*
X020751Y003131D03*
X021021Y002691D03*
X021021Y002681D03*
D188*
X020996Y002591D03*
X020076Y004101D03*
X020076Y004111D03*
X020066Y004121D03*
X020056Y004131D03*
X019916Y004361D03*
X019916Y004371D03*
X019886Y004421D03*
X019876Y004431D03*
X019766Y004611D03*
X019756Y004631D03*
X019746Y004651D03*
X019706Y004721D03*
X019696Y004731D03*
X019686Y004741D03*
X018776Y004271D03*
X016836Y003231D03*
X015806Y003241D03*
X014606Y002341D03*
X012136Y003241D03*
X012136Y004261D03*
X013306Y004521D03*
X011066Y002501D03*
X011066Y002491D03*
X017306Y008671D03*
X016056Y010731D03*
D189*
X016056Y010751D03*
X017336Y008651D03*
X017536Y008321D03*
X019726Y004691D03*
X019896Y004411D03*
X020636Y003201D03*
X020996Y002601D03*
X015806Y003231D03*
X014616Y002841D03*
X014616Y002351D03*
X012146Y004291D03*
X013296Y004531D03*
X011086Y002551D03*
X011086Y002541D03*
X011076Y002521D03*
D190*
X011136Y002721D03*
X011136Y002731D03*
X012136Y002981D03*
X012136Y002991D03*
X012136Y003201D03*
X013116Y002371D03*
X013116Y002361D03*
X014666Y002431D03*
X014686Y002521D03*
X014686Y002531D03*
X014686Y002541D03*
X014686Y002551D03*
X014686Y002651D03*
X014686Y002661D03*
X014686Y002671D03*
X014686Y002681D03*
X014686Y002691D03*
X016846Y003191D03*
X018536Y003861D03*
X018526Y004081D03*
X018526Y004091D03*
X018806Y004341D03*
X019506Y002841D03*
X019506Y002831D03*
X019496Y002361D03*
X019496Y002351D03*
X021026Y002651D03*
X020716Y003171D03*
X016326Y004451D03*
X016326Y004461D03*
X016326Y004471D03*
X016326Y004481D03*
X016336Y004581D03*
X016336Y004591D03*
X016336Y004601D03*
X016336Y004611D03*
X016346Y004721D03*
X016346Y004931D03*
X016346Y004941D03*
X016346Y004951D03*
X016346Y004961D03*
X016356Y004991D03*
X016366Y005041D03*
X015326Y004611D03*
X015326Y004601D03*
X012246Y004561D03*
X012246Y004551D03*
X017036Y006791D03*
X015736Y007521D03*
X014686Y007811D03*
X016056Y010851D03*
D191*
X016061Y010761D03*
X017341Y008641D03*
X014651Y008441D03*
X013291Y004541D03*
X013461Y003841D03*
X012141Y004301D03*
X011091Y002561D03*
X014621Y002361D03*
X014621Y002831D03*
X015811Y003221D03*
X016831Y003221D03*
X018781Y004281D03*
D192*
X018526Y003811D03*
X019696Y004761D03*
X017556Y005091D03*
X016346Y005101D03*
X016506Y006381D03*
X015396Y006311D03*
X016396Y007941D03*
X017356Y008631D03*
X017536Y008331D03*
X014626Y008411D03*
X014536Y008261D03*
X014526Y008241D03*
X014516Y008221D03*
X016056Y010771D03*
X013296Y004561D03*
X013296Y004551D03*
X012146Y004311D03*
X012136Y003231D03*
X011096Y002581D03*
X011096Y002571D03*
X014626Y002371D03*
D193*
X014636Y002391D03*
X014626Y002811D03*
X012156Y004341D03*
X012156Y004351D03*
X013296Y004581D03*
X013296Y004591D03*
X011106Y002611D03*
X016346Y005091D03*
X019706Y004771D03*
X017536Y008341D03*
X017386Y008601D03*
X016056Y010781D03*
D194*
X016056Y010821D03*
X017446Y008521D03*
X017456Y008511D03*
X017466Y008501D03*
X017476Y008481D03*
X017526Y008401D03*
X017536Y008381D03*
X016396Y007951D03*
X015756Y007541D03*
X014556Y008331D03*
X014556Y008341D03*
X015396Y006331D03*
X016356Y005071D03*
X016346Y004831D03*
X016356Y004801D03*
X015316Y004531D03*
X015316Y004521D03*
X015316Y004511D03*
X015316Y004501D03*
X015306Y004381D03*
X015306Y004371D03*
X015306Y004361D03*
X015306Y004261D03*
X013296Y004631D03*
X012216Y004481D03*
X012216Y004471D03*
X011126Y002681D03*
X011126Y002671D03*
X014636Y002791D03*
X014646Y002411D03*
X018806Y004311D03*
X018636Y005091D03*
D195*
X019716Y004791D03*
X018806Y004331D03*
X018566Y004141D03*
X018556Y004131D03*
X018546Y004121D03*
X018536Y004111D03*
X018536Y003841D03*
X016346Y004741D03*
X016346Y004751D03*
X016346Y004761D03*
X016346Y004851D03*
X016346Y004861D03*
X016346Y004871D03*
X016346Y004881D03*
X016346Y004891D03*
X015316Y004571D03*
X015306Y004331D03*
X015306Y004321D03*
X015306Y004311D03*
X015306Y004301D03*
X015306Y004291D03*
X015306Y004281D03*
X015786Y003191D03*
X014646Y002781D03*
X014676Y002611D03*
X014676Y002601D03*
X014676Y002591D03*
X014656Y002421D03*
X012136Y003211D03*
X011126Y002701D03*
X011126Y002691D03*
X012226Y004501D03*
X012236Y004521D03*
X012236Y004531D03*
X013276Y004681D03*
X013276Y004691D03*
X013286Y004661D03*
X016516Y006361D03*
X015746Y007531D03*
X017516Y008421D03*
X016056Y010831D03*
D196*
X016061Y010741D03*
X017321Y008661D03*
X016971Y006751D03*
X016501Y006391D03*
X016341Y005111D03*
X018521Y003801D03*
X019751Y004641D03*
X019741Y004661D03*
X019741Y004671D03*
X019731Y004681D03*
X019721Y004701D03*
X019711Y004711D03*
X019901Y004401D03*
X019911Y004391D03*
X019911Y004381D03*
X020621Y003211D03*
X014611Y002851D03*
X012141Y004271D03*
X012141Y004281D03*
X011081Y002531D03*
X011071Y002511D03*
D197*
X011111Y002621D03*
X011111Y002631D03*
X012161Y004361D03*
X012171Y004371D03*
X012171Y004381D03*
X012181Y004391D03*
X012181Y004401D03*
X013291Y004601D03*
X016831Y003211D03*
X017531Y003821D03*
X018531Y003821D03*
X021011Y002621D03*
X015781Y007561D03*
X014541Y008281D03*
X014541Y008291D03*
X017391Y008591D03*
X017401Y008581D03*
X017541Y008351D03*
X016061Y010791D03*
D198*
X016056Y010981D03*
X014296Y008081D03*
X014296Y008071D03*
X014986Y007231D03*
X015656Y007301D03*
X015656Y007311D03*
X016956Y007411D03*
X016966Y007401D03*
X016966Y007391D03*
X017096Y006921D03*
X017096Y006911D03*
X015386Y006441D03*
X012346Y004861D03*
X012346Y004851D03*
X014306Y003971D03*
X014306Y003961D03*
X016136Y003811D03*
X016906Y003151D03*
X018686Y005051D03*
X020976Y002871D03*
X020976Y002861D03*
X011236Y003021D03*
X011236Y003031D03*
D199*
X014461Y003211D03*
X018101Y007051D03*
X018101Y007061D03*
X018091Y007081D03*
X015531Y008111D03*
X014981Y008651D03*
X014991Y008671D03*
X015001Y008681D03*
X016981Y008911D03*
X016061Y010431D03*
D200*
X016056Y010271D03*
X018236Y006681D03*
X018236Y006671D03*
X018346Y006501D03*
X018456Y006321D03*
X018846Y005161D03*
X018176Y003211D03*
D201*
X014471Y003231D03*
X018161Y006911D03*
X016061Y010381D03*
D202*
X017221Y008301D03*
X018261Y006581D03*
X018171Y003231D03*
D203*
X018831Y005131D03*
X018181Y006861D03*
X018171Y006871D03*
X018171Y006881D03*
X014101Y007141D03*
X012061Y003761D03*
X014481Y003241D03*
X016061Y010361D03*
D204*
X016056Y010321D03*
X016356Y007831D03*
X018206Y006781D03*
X018206Y006771D03*
X018406Y006451D03*
X018456Y006371D03*
X018456Y006361D03*
X018836Y005141D03*
X014496Y003251D03*
D205*
X018181Y003251D03*
X019871Y003821D03*
X016551Y006601D03*
X016271Y007771D03*
X014441Y007451D03*
X014441Y007441D03*
X014051Y006801D03*
X014041Y006791D03*
X014021Y006761D03*
X014021Y006751D03*
D206*
X016061Y009311D03*
X012391Y003261D03*
D207*
X014531Y003261D03*
X018331Y006511D03*
X018241Y006661D03*
X016331Y007811D03*
X014591Y007851D03*
X014131Y007091D03*
X016061Y010261D03*
D208*
X018186Y003261D03*
D209*
X018026Y006051D03*
X016056Y009301D03*
X012406Y003271D03*
D210*
X014621Y006021D03*
X018191Y003271D03*
D211*
X012421Y003281D03*
X016061Y009291D03*
D212*
X016061Y010231D03*
X018251Y006621D03*
X018251Y006611D03*
X016571Y006531D03*
X014541Y003281D03*
D213*
X018196Y003281D03*
X017676Y005701D03*
D214*
X018016Y006031D03*
X014016Y005891D03*
X014006Y005881D03*
X014006Y005871D03*
X012436Y003291D03*
D215*
X014686Y006081D03*
X018206Y003291D03*
D216*
X016061Y003301D03*
D217*
X016056Y003311D03*
D218*
X016056Y003321D03*
D219*
X016061Y003331D03*
D220*
X016056Y003341D03*
D221*
X016061Y003351D03*
D222*
X016056Y003361D03*
D223*
X016056Y003371D03*
D224*
X016061Y003381D03*
D225*
X016056Y003391D03*
D226*
X016061Y003401D03*
D227*
X016056Y003411D03*
D228*
X016056Y003421D03*
D229*
X016061Y003431D03*
D230*
X016056Y003441D03*
D231*
X016061Y003451D03*
D232*
X016061Y003461D03*
D233*
X016056Y003471D03*
D234*
X016061Y003481D03*
D235*
X016056Y003491D03*
D236*
X016061Y003501D03*
D237*
X016061Y003511D03*
D238*
X016056Y003521D03*
D239*
X016061Y003531D03*
D240*
X016056Y003541D03*
D241*
X016061Y003551D03*
D242*
X016061Y003561D03*
D243*
X016056Y003571D03*
D244*
X016061Y003581D03*
D245*
X016056Y003591D03*
D246*
X016056Y003601D03*
D247*
X016061Y003611D03*
D248*
X016056Y003621D03*
D249*
X016061Y003631D03*
D250*
X016056Y003641D03*
D251*
X016056Y003651D03*
D252*
X016061Y003661D03*
D253*
X016056Y003671D03*
D254*
X016061Y003681D03*
D255*
X016056Y003691D03*
D256*
X016056Y003701D03*
D257*
X016061Y003711D03*
D258*
X016056Y003721D03*
D259*
X016061Y003731D03*
D260*
X016056Y003741D03*
D261*
X016056Y003751D03*
D262*
X013721Y003761D03*
X018151Y006231D03*
X016061Y009691D03*
D263*
X016061Y009721D03*
X015791Y005151D03*
X015771Y003761D03*
D264*
X018736Y003761D03*
D265*
X013981Y006311D03*
X013741Y005141D03*
X013721Y003771D03*
D266*
X015766Y003771D03*
X015786Y005141D03*
X013976Y006331D03*
X014056Y006461D03*
X014066Y006481D03*
X014076Y006491D03*
X014086Y006501D03*
X014096Y006521D03*
X014106Y006531D03*
X014196Y006681D03*
X014196Y006691D03*
X014206Y006701D03*
X016056Y009761D03*
D267*
X018741Y003771D03*
D268*
X018181Y006261D03*
X014061Y006471D03*
X014051Y006451D03*
X014041Y006441D03*
X014031Y006431D03*
X013981Y006341D03*
X013741Y005131D03*
X013721Y003781D03*
X016061Y009771D03*
D269*
X016056Y009791D03*
X018196Y006271D03*
X015766Y003781D03*
D270*
X017891Y003781D03*
X018131Y006211D03*
X016061Y009641D03*
D271*
X016061Y010021D03*
X015341Y008831D03*
X015301Y008771D03*
X015301Y008761D03*
X016271Y007671D03*
X016271Y007661D03*
X016521Y006691D03*
X014181Y006911D03*
X013871Y005111D03*
X019841Y003781D03*
D272*
X013721Y003791D03*
X013751Y005121D03*
X016061Y009801D03*
D273*
X016056Y009831D03*
X014346Y007001D03*
X018206Y006281D03*
X015766Y003791D03*
D274*
X013876Y005101D03*
X014406Y007321D03*
X014786Y007941D03*
X016266Y007701D03*
X016056Y010041D03*
X019846Y003791D03*
D275*
X013731Y003801D03*
D276*
X015776Y003801D03*
X016056Y009861D03*
D277*
X016261Y007741D03*
X016541Y006641D03*
X014421Y007361D03*
X014421Y007371D03*
X019851Y003801D03*
D278*
X013746Y003811D03*
X016056Y009881D03*
D279*
X016061Y010081D03*
X014421Y007381D03*
X014091Y006841D03*
X016541Y006631D03*
X019861Y003811D03*
D280*
X016536Y006651D03*
X016256Y007731D03*
X014766Y007931D03*
X014416Y007351D03*
X014416Y007341D03*
X014126Y006871D03*
X013846Y003821D03*
X016056Y010061D03*
D281*
X015126Y008711D03*
X015116Y008701D03*
X014606Y007861D03*
X018246Y006651D03*
X018246Y006641D03*
X018446Y006311D03*
X019956Y003831D03*
D282*
X019966Y003841D03*
X018456Y006331D03*
X018356Y006491D03*
X018226Y006711D03*
X014126Y007101D03*
X016056Y010291D03*
D283*
X016061Y010311D03*
X014121Y007111D03*
X016531Y006521D03*
X018211Y006761D03*
X018391Y006461D03*
X019971Y003851D03*
D284*
X013741Y005151D03*
X016061Y009701D03*
D285*
X016061Y010301D03*
X016341Y007821D03*
X018221Y006731D03*
X018221Y006721D03*
X018371Y006481D03*
X018381Y006471D03*
X018841Y005151D03*
D286*
X015166Y005161D03*
D287*
X015176Y005171D03*
D288*
X016516Y006701D03*
X016516Y006711D03*
X018986Y005171D03*
X015296Y008751D03*
X016056Y010011D03*
D289*
X015196Y005181D03*
D290*
X016056Y005191D03*
D291*
X016061Y005201D03*
D292*
X016061Y005211D03*
D293*
X016056Y005221D03*
D294*
X016061Y005231D03*
D295*
X016056Y005241D03*
D296*
X016061Y005251D03*
D297*
X016061Y005261D03*
D298*
X016056Y005271D03*
D299*
X016061Y005281D03*
D300*
X016056Y005291D03*
D301*
X016056Y005301D03*
D302*
X016061Y005311D03*
D303*
X016056Y005321D03*
D304*
X016061Y005331D03*
D305*
X016056Y005341D03*
D306*
X016056Y005351D03*
D307*
X016061Y005361D03*
D308*
X016056Y005371D03*
D309*
X016061Y005381D03*
D310*
X016056Y005391D03*
D311*
X016056Y005401D03*
D312*
X016061Y005411D03*
D313*
X016056Y005421D03*
D314*
X016061Y005431D03*
D315*
X016056Y005441D03*
D316*
X016056Y005451D03*
D317*
X016061Y005461D03*
D318*
X016056Y005471D03*
D319*
X016061Y005481D03*
D320*
X016061Y005491D03*
D321*
X016056Y005501D03*
D322*
X016061Y005511D03*
D323*
X016056Y005521D03*
D324*
X016061Y005531D03*
D325*
X016061Y005541D03*
D326*
X016056Y005551D03*
D327*
X016061Y005561D03*
D328*
X016056Y005571D03*
D329*
X016061Y005581D03*
D330*
X016061Y005591D03*
D331*
X016056Y005601D03*
D332*
X016061Y005611D03*
D333*
X016056Y005621D03*
D334*
X016061Y005631D03*
D335*
X016061Y005641D03*
D336*
X016056Y005651D03*
D337*
X016061Y005661D03*
D338*
X016056Y005671D03*
D339*
X016056Y005681D03*
D340*
X016061Y005691D03*
D341*
X014431Y006191D03*
X014131Y005701D03*
X017901Y005831D03*
D342*
X014091Y005711D03*
X016061Y008961D03*
D343*
X014556Y005971D03*
X017726Y005711D03*
D344*
X017946Y005881D03*
X014396Y006251D03*
X014066Y005721D03*
X016056Y009001D03*
D345*
X017751Y005721D03*
D346*
X017961Y005901D03*
X014381Y006281D03*
X014051Y005731D03*
X016061Y009041D03*
D347*
X017771Y005731D03*
D348*
X017976Y005921D03*
X014036Y005741D03*
X016056Y009081D03*
D349*
X016061Y009111D03*
X014021Y005751D03*
D350*
X017806Y005751D03*
D351*
X017991Y005951D03*
X014011Y005761D03*
X016061Y009141D03*
D352*
X017826Y005761D03*
D353*
X013996Y005771D03*
X016056Y009171D03*
D354*
X017836Y005771D03*
D355*
X018001Y005981D03*
X013991Y005781D03*
X016061Y009191D03*
D356*
X017846Y005781D03*
D357*
X018011Y005991D03*
X013991Y005791D03*
X016061Y009211D03*
D358*
X014471Y006141D03*
X017861Y005791D03*
D359*
X013986Y005801D03*
D360*
X017871Y005801D03*
D361*
X013986Y005811D03*
X016056Y009231D03*
D362*
X017886Y005811D03*
D363*
X018011Y006011D03*
X013991Y005831D03*
X013991Y005821D03*
X016061Y009241D03*
D364*
X014436Y006181D03*
X017896Y005821D03*
D365*
X018016Y006021D03*
X013996Y005851D03*
X013996Y005841D03*
X016056Y009251D03*
D366*
X014426Y006201D03*
X017916Y005841D03*
D367*
X017921Y005851D03*
D368*
X014031Y005911D03*
X014021Y005901D03*
X014001Y005861D03*
X016061Y009261D03*
D369*
X016056Y008951D03*
X014406Y006231D03*
X017936Y005861D03*
D370*
X017941Y005871D03*
X014401Y006241D03*
X016061Y008981D03*
D371*
X016056Y009021D03*
X017956Y005891D03*
D372*
X017971Y005911D03*
X014381Y006291D03*
X016061Y009061D03*
D373*
X014481Y005921D03*
D374*
X014496Y005931D03*
D375*
X017976Y005931D03*
X016056Y009101D03*
D376*
X014511Y005941D03*
D377*
X017986Y005941D03*
X016056Y009121D03*
D378*
X014526Y005951D03*
D379*
X014541Y005961D03*
D380*
X017996Y005961D03*
X016056Y009151D03*
D381*
X018001Y005971D03*
D382*
X014566Y005981D03*
D383*
X014581Y005991D03*
D384*
X014591Y006001D03*
D385*
X018011Y006001D03*
X016061Y009221D03*
D386*
X014606Y006011D03*
D387*
X014631Y006031D03*
X014641Y006041D03*
D388*
X018026Y006041D03*
X016056Y009281D03*
D389*
X014651Y006051D03*
D390*
X014666Y006061D03*
X014676Y006071D03*
D391*
X018026Y006061D03*
D392*
X018031Y006071D03*
X016061Y009321D03*
D393*
X016061Y009341D03*
X018031Y006081D03*
D394*
X014571Y006091D03*
D395*
X018036Y006091D03*
X016056Y009351D03*
D396*
X014536Y006101D03*
D397*
X018036Y006101D03*
X016056Y009361D03*
D398*
X014516Y006111D03*
D399*
X018041Y006111D03*
X016061Y009391D03*
D400*
X014501Y006121D03*
D401*
X018046Y006121D03*
X016056Y009401D03*
D402*
X014481Y006131D03*
D403*
X018046Y006131D03*
X016056Y009411D03*
D404*
X016061Y009421D03*
X018051Y006141D03*
D405*
X014461Y006151D03*
D406*
X018056Y006151D03*
X016056Y009451D03*
D407*
X014451Y006161D03*
D408*
X018066Y006161D03*
X016056Y009481D03*
D409*
X014446Y006171D03*
D410*
X018081Y006171D03*
D411*
X018096Y006181D03*
X016056Y009551D03*
D412*
X016061Y009571D03*
X018111Y006191D03*
D413*
X018121Y006201D03*
X016061Y009601D03*
D414*
X014416Y006211D03*
D415*
X014411Y006221D03*
D416*
X018146Y006221D03*
X016056Y009661D03*
D417*
X016056Y009711D03*
X018166Y006241D03*
D418*
X018176Y006251D03*
X016056Y009741D03*
D419*
X016061Y009011D03*
X014391Y006261D03*
D420*
X014391Y006271D03*
D421*
X018216Y006291D03*
X016056Y009841D03*
D422*
X014381Y006301D03*
D423*
X014311Y006981D03*
X018221Y006301D03*
X016061Y009871D03*
D424*
X016061Y009751D03*
X014191Y006671D03*
X014181Y006661D03*
X014181Y006651D03*
X014171Y006641D03*
X014171Y006631D03*
X014161Y006621D03*
X014151Y006611D03*
X014151Y006601D03*
X014141Y006591D03*
X014141Y006581D03*
X014131Y006571D03*
X014121Y006561D03*
X014121Y006551D03*
X014111Y006541D03*
X014091Y006511D03*
X013981Y006321D03*
D425*
X014566Y007841D03*
X018216Y006751D03*
X018216Y006741D03*
X018456Y006351D03*
X018456Y006341D03*
D426*
X014026Y006421D03*
X014016Y006411D03*
X014006Y006391D03*
X013996Y006381D03*
X013986Y006361D03*
X013986Y006351D03*
X016056Y009781D03*
D427*
X014011Y006401D03*
X013991Y006371D03*
D428*
X014111Y007121D03*
X017341Y008211D03*
X018201Y006801D03*
X018201Y006791D03*
X018451Y006381D03*
X016061Y010331D03*
D429*
X016056Y010341D03*
X018196Y006811D03*
X018416Y006441D03*
X018426Y006431D03*
X018436Y006421D03*
X018446Y006401D03*
X018446Y006391D03*
D430*
X018166Y006891D03*
X018166Y006901D03*
X016506Y006511D03*
X016056Y010371D03*
D431*
X014481Y007561D03*
X014171Y007051D03*
X018271Y006521D03*
D432*
X016566Y006541D03*
X014516Y007661D03*
X017216Y008291D03*
X016056Y010211D03*
D433*
X016061Y010181D03*
X014491Y007601D03*
X014491Y007591D03*
X018261Y006541D03*
D434*
X018266Y006551D03*
X016566Y006551D03*
X016306Y007791D03*
X017216Y008281D03*
X014506Y007631D03*
X014496Y007611D03*
X016056Y010191D03*
D435*
X016061Y010201D03*
X014511Y007651D03*
X014511Y007641D03*
X014501Y007621D03*
X014161Y007061D03*
X018261Y006571D03*
X018261Y006561D03*
D436*
X016566Y006571D03*
X016286Y007781D03*
X014686Y007891D03*
X014476Y007551D03*
X014476Y007541D03*
X014466Y007531D03*
X014466Y007521D03*
X016056Y010161D03*
D437*
X016056Y010141D03*
X014456Y007501D03*
X014456Y007491D03*
X016556Y006581D03*
D438*
X016556Y006591D03*
X014446Y007461D03*
X014446Y007471D03*
X014036Y006781D03*
X014026Y006771D03*
X016056Y010121D03*
D439*
X016061Y010101D03*
X014431Y007421D03*
X014431Y007411D03*
X014201Y007031D03*
X014071Y006821D03*
X014061Y006811D03*
X014021Y006731D03*
X016551Y006611D03*
D440*
X016546Y006621D03*
X014426Y007391D03*
X014426Y007401D03*
X014746Y007921D03*
X014086Y006831D03*
X014016Y006721D03*
X016056Y010091D03*
D441*
X016056Y010241D03*
X014626Y007881D03*
X018246Y006631D03*
D442*
X016531Y006661D03*
X016261Y007711D03*
X016261Y007721D03*
X014411Y007331D03*
X014221Y007021D03*
X014141Y006881D03*
X016061Y010051D03*
D443*
X016061Y010031D03*
X015321Y008811D03*
X015311Y008801D03*
X016261Y007691D03*
X016531Y006671D03*
X014151Y006891D03*
D444*
X014166Y006901D03*
X014806Y007951D03*
X015306Y008781D03*
X015306Y008791D03*
X015326Y008821D03*
X016266Y007681D03*
X016526Y006681D03*
D445*
X018231Y006691D03*
X018231Y006701D03*
X016061Y010281D03*
D446*
X016056Y010071D03*
X016256Y007761D03*
X016256Y007751D03*
X014116Y006861D03*
X014106Y006851D03*
X014016Y006711D03*
D447*
X014211Y006931D03*
X014841Y007971D03*
X015391Y008881D03*
X015431Y008941D03*
X016061Y009981D03*
X016271Y007611D03*
X016511Y006731D03*
D448*
X014436Y007431D03*
X014726Y007911D03*
X014016Y006741D03*
X016056Y010111D03*
D449*
X014896Y008001D03*
X014266Y006961D03*
D450*
X014346Y006991D03*
X016056Y009811D03*
D451*
X016061Y010131D03*
X014711Y007901D03*
X014451Y007481D03*
X014181Y007041D03*
D452*
X014461Y007511D03*
X016061Y010151D03*
D453*
X016056Y009991D03*
X015416Y008931D03*
X015406Y008921D03*
X015406Y008911D03*
X015396Y008901D03*
X015396Y008891D03*
X015286Y008721D03*
X016276Y007621D03*
D454*
X014856Y007981D03*
X015376Y008841D03*
X016056Y009961D03*
D455*
X016061Y009901D03*
X014911Y008011D03*
D456*
X016796Y008221D03*
X016056Y009431D03*
D457*
X016801Y008231D03*
D458*
X016836Y008241D03*
X016056Y009531D03*
D459*
X016061Y009921D03*
X017071Y008251D03*
D460*
X016056Y008971D03*
D461*
X016061Y008991D03*
D462*
X016056Y009031D03*
D463*
X016056Y009051D03*
D464*
X016056Y009071D03*
D465*
X016061Y009091D03*
D466*
X016056Y009131D03*
D467*
X016061Y009161D03*
D468*
X016056Y009181D03*
D469*
X016056Y009201D03*
D470*
X016061Y009271D03*
D471*
X016056Y009331D03*
D472*
X016061Y009371D03*
D473*
X016056Y009381D03*
D474*
X016061Y009441D03*
D475*
X016056Y009461D03*
D476*
X016061Y009471D03*
D477*
X016061Y009491D03*
D478*
X016056Y009501D03*
D479*
X016056Y009511D03*
D480*
X016061Y009521D03*
D481*
X016061Y009541D03*
D482*
X016056Y009561D03*
D483*
X016056Y009581D03*
D484*
X016061Y009591D03*
D485*
X016056Y009611D03*
D486*
X016061Y009621D03*
D487*
X016056Y009631D03*
D488*
X016061Y009651D03*
D489*
X016061Y009671D03*
D490*
X016056Y009681D03*
D491*
X016056Y009731D03*
D492*
X016061Y009821D03*
D493*
X016061Y009851D03*
D494*
X016056Y009911D03*
D495*
X016061Y009931D03*
D496*
X003347Y003563D03*
X003347Y013402D03*
X003347Y018327D03*
X003347Y028166D03*
X050985Y028166D03*
X050985Y018327D03*
X050985Y013402D03*
X050985Y003563D03*
M02*
