%
M48
M72
T01C0.07795
T02C0.11811
T03C0.12992
T04C0.19685
T05C0.26575
T06C0.33465
T07C0.40551
T08C0.41339
T09C0.46063
%
T01
X390262Y58390
T02
X487892Y95161
X508892Y95161
X508892Y113154
X487892Y113154
T03
X49392Y35634
X49392Y134020
X49392Y173429
X49392Y271815
X525770Y271815
X525770Y173429
X525770Y134020
X525770Y35634
T04
X328955Y95319
T05
X453766Y99846
T06
X488656Y197957
T07
X390262Y95909
T08
X383892Y255043
X308892Y255043
T09
X164392Y238823
X97892Y238823
X77892Y101028
X143892Y101028
X209892Y101028
X275892Y101028
M30
