G75*
%MOIN*%
%OFA0B0*%
%FSLAX25Y25*%
%IPPOS*%
%LPD*%
%AMOC8*
5,1,8,0,0,1.08239X$1,22.5*
%
%ADD10C,0.46463*%
%ADD11C,0.20085*%
%ADD12C,0.26975*%
%ADD13C,0.12211*%
%ADD14C,0.41739*%
%ADD15C,0.33865*%
%ADD16R,0.23622X1.37795*%
%ADD17R,0.35433X0.35433*%
%ADD18R,0.35433X0.31496*%
%ADD19R,0.31496X0.31496*%
%ADD20R,0.31496X0.15748*%
%ADD21R,5.23622X0.07874*%
%ADD22C,0.40951*%
%ADD23C,0.08195*%
%ADD24C,0.22054*%
D10*
X0077892Y0101028D03*
X0143892Y0101028D03*
X0209892Y0101028D03*
X0275892Y0101028D03*
X0164392Y0238823D03*
X0097892Y0238823D03*
D11*
X0328955Y0095319D03*
D12*
X0453766Y0099846D03*
D13*
X0487892Y0095161D03*
X0508892Y0095161D03*
X0508892Y0113154D03*
X0487892Y0113154D03*
D14*
X0383892Y0255043D03*
X0308892Y0255043D03*
D15*
X0488656Y0197957D03*
D16*
X0537892Y0220004D03*
X0537892Y0082209D03*
X0037892Y0082209D03*
X0037892Y0220004D03*
D17*
X0043798Y0031028D03*
X0043798Y0168823D03*
X0531987Y0168823D03*
X0531987Y0031028D03*
D18*
X0043798Y0135358D03*
X0043798Y0273154D03*
D19*
X0533955Y0273154D03*
X0533955Y0135358D03*
D20*
X0392223Y0178665D03*
X0234743Y0178665D03*
X0175688Y0040870D03*
X0490648Y0040870D03*
D21*
X0287892Y0017248D03*
X0287892Y0147169D03*
X0287892Y0155043D03*
X0287892Y0284965D03*
D22*
X0390262Y0095909D03*
D23*
X0390262Y0058390D03*
D24*
X0525770Y0035634D03*
X0525770Y0134020D03*
X0525770Y0173429D03*
X0525770Y0271815D03*
X0049392Y0271815D03*
X0049392Y0173429D03*
X0049392Y0134020D03*
X0049392Y0035634D03*
M02*
