G75*
%MOIN*%
%OFA0B0*%
%FSLAX25Y25*%
%IPPOS*%
%LPD*%
%AMOC8*
5,1,8,0,0,1.08239X$1,22.5*
%
%ADD10C,0.46463*%
%ADD11C,0.20085*%
%ADD12C,0.26975*%
%ADD13C,0.12211*%
%ADD14C,0.41739*%
%ADD15C,0.33865*%
%ADD16R,1.20900X0.00100*%
%ADD17R,1.20800X0.00100*%
%ADD18R,1.20700X0.00100*%
%ADD19R,1.20500X0.00100*%
%ADD20R,1.20400X0.00100*%
%ADD21R,1.20300X0.00100*%
%ADD22R,1.20200X0.00100*%
%ADD23R,1.20000X0.00100*%
%ADD24R,1.19900X0.00100*%
%ADD25R,1.19800X0.00100*%
%ADD26R,1.19700X0.00100*%
%ADD27R,1.19500X0.00100*%
%ADD28R,1.19400X0.00100*%
%ADD29R,1.19300X0.00100*%
%ADD30R,1.19200X0.00100*%
%ADD31R,1.19100X0.00100*%
%ADD32R,1.18900X0.00100*%
%ADD33R,1.18800X0.00100*%
%ADD34R,1.18700X0.00100*%
%ADD35R,1.18600X0.00100*%
%ADD36R,1.18500X0.00100*%
%ADD37R,1.18300X0.00100*%
%ADD38R,1.18200X0.00100*%
%ADD39R,1.18100X0.00100*%
%ADD40R,1.18000X0.00100*%
%ADD41R,1.17900X0.00100*%
%ADD42R,1.17700X0.00100*%
%ADD43R,1.17600X0.00100*%
%ADD44R,1.17500X0.00100*%
%ADD45R,1.17400X0.00100*%
%ADD46R,1.17300X0.00100*%
%ADD47R,1.17100X0.00100*%
%ADD48R,1.17000X0.00100*%
%ADD49R,1.16900X0.00100*%
%ADD50R,1.16800X0.00100*%
%ADD51R,1.16700X0.00100*%
%ADD52R,1.16500X0.00100*%
%ADD53R,1.16400X0.00100*%
%ADD54R,1.16300X0.00100*%
%ADD55R,1.16200X0.00100*%
%ADD56R,1.16000X0.00100*%
%ADD57R,1.15900X0.00100*%
%ADD58R,1.15800X0.00100*%
%ADD59R,1.15700X0.00100*%
%ADD60R,1.15600X0.00100*%
%ADD61R,1.15400X0.00100*%
%ADD62R,1.15300X0.00100*%
%ADD63R,1.15200X0.00100*%
%ADD64R,1.15100X0.00100*%
%ADD65R,0.34300X0.00100*%
%ADD66R,0.14700X0.00100*%
%ADD67R,0.08000X0.00100*%
%ADD68R,0.17400X0.00100*%
%ADD69R,0.18100X0.00100*%
%ADD70R,0.17500X0.00100*%
%ADD71R,0.33800X0.00100*%
%ADD72R,0.14100X0.00100*%
%ADD73R,0.07400X0.00100*%
%ADD74R,0.16800X0.00100*%
%ADD75R,0.17200X0.00100*%
%ADD76R,0.17100X0.00100*%
%ADD77R,0.33600X0.00100*%
%ADD78R,0.13800X0.00100*%
%ADD79R,0.07100X0.00100*%
%ADD80R,0.03500X0.00100*%
%ADD81R,0.11400X0.00100*%
%ADD82R,0.03600X0.00100*%
%ADD83R,0.11900X0.00100*%
%ADD84R,0.12600X0.00100*%
%ADD85R,0.08700X0.00100*%
%ADD86R,0.08900X0.00100*%
%ADD87R,0.12500X0.00100*%
%ADD88R,0.06800X0.00100*%
%ADD89R,0.03100X0.00100*%
%ADD90R,0.04200X0.00100*%
%ADD91R,0.06000X0.00100*%
%ADD92R,0.07000X0.00100*%
%ADD93R,0.08100X0.00100*%
%ADD94R,0.03200X0.00100*%
%ADD95R,0.11700X0.00100*%
%ADD96R,0.12100X0.00100*%
%ADD97R,0.04500X0.00100*%
%ADD98R,0.02800X0.00100*%
%ADD99R,0.04400X0.00100*%
%ADD100R,0.03700X0.00100*%
%ADD101R,0.12000X0.00100*%
%ADD102R,0.06600X0.00100*%
%ADD103R,0.02900X0.00100*%
%ADD104R,0.05300X0.00100*%
%ADD105R,0.06400X0.00100*%
%ADD106R,0.04300X0.00100*%
%ADD107R,0.00900X0.00100*%
%ADD108R,0.02700X0.00100*%
%ADD109R,0.02500X0.00100*%
%ADD110R,0.03900X0.00100*%
%ADD111R,0.11800X0.00100*%
%ADD112R,0.05000X0.00100*%
%ADD113R,0.05500X0.00100*%
%ADD114R,0.03800X0.00100*%
%ADD115R,0.02600X0.00100*%
%ADD116R,0.11100X0.00100*%
%ADD117R,0.00300X0.00100*%
%ADD118R,0.01900X0.00100*%
%ADD119R,0.02200X0.00100*%
%ADD120R,0.03400X0.00100*%
%ADD121R,0.03000X0.00100*%
%ADD122R,0.11500X0.00100*%
%ADD123R,0.06300X0.00100*%
%ADD124R,0.04700X0.00100*%
%ADD125R,0.11000X0.00100*%
%ADD126R,0.11300X0.00100*%
%ADD127R,0.02000X0.00100*%
%ADD128R,0.00600X0.00100*%
%ADD129R,0.01400X0.00100*%
%ADD130R,0.06100X0.00100*%
%ADD131R,0.02400X0.00100*%
%ADD132R,0.00700X0.00100*%
%ADD133R,0.10700X0.00100*%
%ADD134R,0.01800X0.00100*%
%ADD135R,0.00100X0.00100*%
%ADD136R,0.11200X0.00100*%
%ADD137R,0.02300X0.00100*%
%ADD138R,0.00200X0.00100*%
%ADD139R,0.10600X0.00100*%
%ADD140R,0.01600X0.00100*%
%ADD141R,0.05900X0.00100*%
%ADD142R,0.02100X0.00100*%
%ADD143R,0.04100X0.00100*%
%ADD144R,0.10400X0.00100*%
%ADD145R,0.10800X0.00100*%
%ADD146R,0.01500X0.00100*%
%ADD147R,0.10900X0.00100*%
%ADD148R,0.05800X0.00100*%
%ADD149R,0.04000X0.00100*%
%ADD150R,0.10200X0.00100*%
%ADD151R,0.01300X0.00100*%
%ADD152R,0.05600X0.00100*%
%ADD153R,0.01700X0.00100*%
%ADD154R,0.10100X0.00100*%
%ADD155R,0.10500X0.00100*%
%ADD156R,0.10000X0.00100*%
%ADD157R,0.01100X0.00100*%
%ADD158R,0.09900X0.00100*%
%ADD159R,0.10300X0.00100*%
%ADD160R,0.05400X0.00100*%
%ADD161R,0.09800X0.00100*%
%ADD162R,0.01000X0.00100*%
%ADD163R,0.09600X0.00100*%
%ADD164R,0.01200X0.00100*%
%ADD165R,0.09400X0.00100*%
%ADD166R,0.05200X0.00100*%
%ADD167R,0.09300X0.00100*%
%ADD168R,0.09200X0.00100*%
%ADD169R,0.05100X0.00100*%
%ADD170R,0.09100X0.00100*%
%ADD171R,0.09700X0.00100*%
%ADD172R,0.04800X0.00100*%
%ADD173R,0.09000X0.00100*%
%ADD174R,0.04600X0.00100*%
%ADD175R,0.08800X0.00100*%
%ADD176R,0.09500X0.00100*%
%ADD177R,0.08600X0.00100*%
%ADD178R,0.00800X0.00100*%
%ADD179R,0.08500X0.00100*%
%ADD180R,0.08400X0.00100*%
%ADD181R,0.00500X0.00100*%
%ADD182R,0.00400X0.00100*%
%ADD183R,0.08300X0.00100*%
%ADD184R,0.03300X0.00100*%
%ADD185R,0.08200X0.00100*%
%ADD186R,0.05700X0.00100*%
%ADD187R,0.06200X0.00100*%
%ADD188R,0.07900X0.00100*%
%ADD189R,0.07700X0.00100*%
%ADD190R,0.06500X0.00100*%
%ADD191R,0.07600X0.00100*%
%ADD192R,0.07500X0.00100*%
%ADD193R,0.07300X0.00100*%
%ADD194R,0.06900X0.00100*%
%ADD195R,0.06700X0.00100*%
%ADD196R,0.07800X0.00100*%
%ADD197R,0.07200X0.00100*%
%ADD198R,0.04900X0.00100*%
%ADD199R,0.11600X0.00100*%
%ADD200R,0.13500X0.00100*%
%ADD201R,0.12200X0.00100*%
%ADD202R,0.14200X0.00100*%
%ADD203R,0.12400X0.00100*%
%ADD204R,0.12900X0.00100*%
%ADD205R,0.15400X0.00100*%
%ADD206R,0.25200X0.00100*%
%ADD207R,0.13600X0.00100*%
%ADD208R,0.35900X0.00100*%
%ADD209R,0.25300X0.00100*%
%ADD210R,0.36200X0.00100*%
%ADD211R,0.25400X0.00100*%
%ADD212R,0.14000X0.00100*%
%ADD213R,0.36500X0.00100*%
%ADD214R,0.25700X0.00100*%
%ADD215R,0.36900X0.00100*%
%ADD216R,0.98000X0.00100*%
%ADD217R,0.97900X0.00100*%
%ADD218R,0.97700X0.00100*%
%ADD219R,0.97600X0.00100*%
%ADD220R,0.97500X0.00100*%
%ADD221R,0.97400X0.00100*%
%ADD222R,0.97300X0.00100*%
%ADD223R,0.97100X0.00100*%
%ADD224R,0.97000X0.00100*%
%ADD225R,0.96900X0.00100*%
%ADD226R,0.96800X0.00100*%
%ADD227R,0.96700X0.00100*%
%ADD228R,0.96500X0.00100*%
%ADD229R,0.96400X0.00100*%
%ADD230R,0.96300X0.00100*%
%ADD231R,0.96200X0.00100*%
%ADD232R,0.96000X0.00100*%
%ADD233R,0.95900X0.00100*%
%ADD234R,0.95800X0.00100*%
%ADD235R,0.95700X0.00100*%
%ADD236R,0.95600X0.00100*%
%ADD237R,0.95400X0.00100*%
%ADD238R,0.95300X0.00100*%
%ADD239R,0.95200X0.00100*%
%ADD240R,0.95100X0.00100*%
%ADD241R,0.95000X0.00100*%
%ADD242R,0.94800X0.00100*%
%ADD243R,0.94700X0.00100*%
%ADD244R,0.94600X0.00100*%
%ADD245R,0.94500X0.00100*%
%ADD246R,0.94300X0.00100*%
%ADD247R,0.94200X0.00100*%
%ADD248R,0.94100X0.00100*%
%ADD249R,0.94000X0.00100*%
%ADD250R,0.93900X0.00100*%
%ADD251R,0.93700X0.00100*%
%ADD252R,0.93600X0.00100*%
%ADD253R,0.93500X0.00100*%
%ADD254R,0.93400X0.00100*%
%ADD255R,0.93300X0.00100*%
%ADD256R,0.93100X0.00100*%
%ADD257R,0.93000X0.00100*%
%ADD258R,0.92900X0.00100*%
%ADD259R,0.92800X0.00100*%
%ADD260R,0.92700X0.00100*%
%ADD261R,0.92500X0.00100*%
%ADD262R,0.20600X0.00100*%
%ADD263R,0.20200X0.00100*%
%ADD264R,0.38900X0.00100*%
%ADD265R,0.20000X0.00100*%
%ADD266R,0.19700X0.00100*%
%ADD267R,0.38600X0.00100*%
%ADD268R,0.19600X0.00100*%
%ADD269R,0.19300X0.00100*%
%ADD270R,0.21200X0.00100*%
%ADD271R,0.16600X0.00100*%
%ADD272R,0.19200X0.00100*%
%ADD273R,0.18900X0.00100*%
%ADD274R,0.16300X0.00100*%
%ADD275R,0.18800X0.00100*%
%ADD276R,0.18500X0.00100*%
%ADD277R,0.16000X0.00100*%
%ADD278R,0.18300X0.00100*%
%ADD279R,0.15800X0.00100*%
%ADD280R,0.16100X0.00100*%
%ADD281R,0.13700X0.00100*%
%ADD282R,0.13300X0.00100*%
%ADD283R,0.13000X0.00100*%
%ADD284R,0.20400X0.00100*%
%ADD285R,0.13200X0.00100*%
%ADD286R,0.57500X0.00100*%
%ADD287R,0.57700X0.00100*%
%ADD288R,0.16700X0.00100*%
%ADD289R,0.57900X0.00100*%
%ADD290R,0.75100X0.00100*%
%ADD291R,0.75000X0.00100*%
%ADD292R,0.74800X0.00100*%
%ADD293R,0.74700X0.00100*%
%ADD294R,0.74600X0.00100*%
%ADD295R,0.74500X0.00100*%
%ADD296R,0.74400X0.00100*%
%ADD297R,0.74200X0.00100*%
%ADD298R,0.74100X0.00100*%
%ADD299R,0.74000X0.00100*%
%ADD300R,0.73900X0.00100*%
%ADD301R,0.73700X0.00100*%
%ADD302R,0.73600X0.00100*%
%ADD303R,0.73500X0.00100*%
%ADD304R,0.73400X0.00100*%
%ADD305R,0.73300X0.00100*%
%ADD306R,0.73100X0.00100*%
%ADD307R,0.73000X0.00100*%
%ADD308R,0.72900X0.00100*%
%ADD309R,0.72800X0.00100*%
%ADD310R,0.72700X0.00100*%
%ADD311R,0.72500X0.00100*%
%ADD312R,0.72400X0.00100*%
%ADD313R,0.72300X0.00100*%
%ADD314R,0.72200X0.00100*%
%ADD315R,0.72100X0.00100*%
%ADD316R,0.71900X0.00100*%
%ADD317R,0.71800X0.00100*%
%ADD318R,0.71700X0.00100*%
%ADD319R,0.71600X0.00100*%
%ADD320R,0.71400X0.00100*%
%ADD321R,0.71300X0.00100*%
%ADD322R,0.71200X0.00100*%
%ADD323R,0.71100X0.00100*%
%ADD324R,0.71000X0.00100*%
%ADD325R,0.70800X0.00100*%
%ADD326R,0.70700X0.00100*%
%ADD327R,0.70600X0.00100*%
%ADD328R,0.70500X0.00100*%
%ADD329R,0.70400X0.00100*%
%ADD330R,0.70200X0.00100*%
%ADD331R,0.70100X0.00100*%
%ADD332R,0.70000X0.00100*%
%ADD333R,0.69900X0.00100*%
%ADD334R,0.69800X0.00100*%
%ADD335R,0.69600X0.00100*%
%ADD336R,0.69500X0.00100*%
%ADD337R,0.69400X0.00100*%
%ADD338R,0.69300X0.00100*%
%ADD339R,0.69100X0.00100*%
%ADD340R,0.69000X0.00100*%
%ADD341R,0.30400X0.00100*%
%ADD342R,0.29400X0.00100*%
%ADD343R,0.35500X0.00100*%
%ADD344R,0.28900X0.00100*%
%ADD345R,0.34800X0.00100*%
%ADD346R,0.28400X0.00100*%
%ADD347R,0.34200X0.00100*%
%ADD348R,0.27900X0.00100*%
%ADD349R,0.27600X0.00100*%
%ADD350R,0.33300X0.00100*%
%ADD351R,0.27200X0.00100*%
%ADD352R,0.32900X0.00100*%
%ADD353R,0.26900X0.00100*%
%ADD354R,0.32500X0.00100*%
%ADD355R,0.26600X0.00100*%
%ADD356R,0.32100X0.00100*%
%ADD357R,0.26400X0.00100*%
%ADD358R,0.31800X0.00100*%
%ADD359R,0.26300X0.00100*%
%ADD360R,0.31400X0.00100*%
%ADD361R,0.26100X0.00100*%
%ADD362R,0.31100X0.00100*%
%ADD363R,0.26000X0.00100*%
%ADD364R,0.30700X0.00100*%
%ADD365R,0.25900X0.00100*%
%ADD366R,0.30100X0.00100*%
%ADD367R,0.29800X0.00100*%
%ADD368R,0.25800X0.00100*%
%ADD369R,0.29500X0.00100*%
%ADD370R,0.29200X0.00100*%
%ADD371R,0.28700X0.00100*%
%ADD372R,0.28200X0.00100*%
%ADD373R,0.34600X0.00100*%
%ADD374R,0.34900X0.00100*%
%ADD375R,0.27700X0.00100*%
%ADD376R,0.35000X0.00100*%
%ADD377R,0.27500X0.00100*%
%ADD378R,0.35300X0.00100*%
%ADD379R,0.35400X0.00100*%
%ADD380R,0.27100X0.00100*%
%ADD381R,0.26800X0.00100*%
%ADD382R,0.35700X0.00100*%
%ADD383R,0.35800X0.00100*%
%ADD384R,0.36000X0.00100*%
%ADD385R,0.26200X0.00100*%
%ADD386R,0.36100X0.00100*%
%ADD387R,0.36400X0.00100*%
%ADD388R,0.25500X0.00100*%
%ADD389R,0.36600X0.00100*%
%ADD390R,0.36700X0.00100*%
%ADD391R,0.25100X0.00100*%
%ADD392R,0.25000X0.00100*%
%ADD393R,0.24800X0.00100*%
%ADD394R,0.34400X0.00100*%
%ADD395R,0.24700X0.00100*%
%ADD396R,0.33700X0.00100*%
%ADD397R,0.24500X0.00100*%
%ADD398R,0.33100X0.00100*%
%ADD399R,0.24200X0.00100*%
%ADD400R,0.32600X0.00100*%
%ADD401R,0.24100X0.00100*%
%ADD402R,0.32200X0.00100*%
%ADD403R,0.23900X0.00100*%
%ADD404R,0.23800X0.00100*%
%ADD405R,0.31600X0.00100*%
%ADD406R,0.23500X0.00100*%
%ADD407R,0.31200X0.00100*%
%ADD408R,0.23100X0.00100*%
%ADD409R,0.30900X0.00100*%
%ADD410R,0.22800X0.00100*%
%ADD411R,0.22300X0.00100*%
%ADD412R,0.22000X0.00100*%
%ADD413R,0.21600X0.00100*%
%ADD414R,0.29900X0.00100*%
%ADD415R,0.29600X0.00100*%
%ADD416R,0.20900X0.00100*%
%ADD417R,0.20300X0.00100*%
%ADD418R,0.19900X0.00100*%
%ADD419R,0.28800X0.00100*%
%ADD420R,0.28600X0.00100*%
%ADD421R,0.18700X0.00100*%
%ADD422R,0.28000X0.00100*%
%ADD423R,0.18400X0.00100*%
%ADD424R,0.19800X0.00100*%
%ADD425R,0.13100X0.00100*%
%ADD426R,0.19500X0.00100*%
%ADD427R,0.19400X0.00100*%
%ADD428R,0.12800X0.00100*%
%ADD429R,0.12700X0.00100*%
%ADD430R,0.12300X0.00100*%
%ADD431R,0.14800X0.00100*%
%ADD432R,0.14300X0.00100*%
%ADD433R,0.14600X0.00100*%
%ADD434R,0.14500X0.00100*%
%ADD435R,0.14400X0.00100*%
%ADD436R,0.14900X0.00100*%
%ADD437R,0.15100X0.00100*%
%ADD438R,0.15300X0.00100*%
%ADD439R,0.15600X0.00100*%
%ADD440R,0.15700X0.00100*%
%ADD441R,0.13900X0.00100*%
%ADD442R,0.16200X0.00100*%
%ADD443R,0.16400X0.00100*%
%ADD444R,0.16500X0.00100*%
%ADD445R,0.13400X0.00100*%
%ADD446R,0.15900X0.00100*%
%ADD447R,0.17000X0.00100*%
%ADD448R,0.15500X0.00100*%
%ADD449R,0.17700X0.00100*%
%ADD450R,0.19100X0.00100*%
%ADD451R,0.15200X0.00100*%
%ADD452R,0.15000X0.00100*%
%ADD453R,0.16900X0.00100*%
%ADD454R,0.17300X0.00100*%
%ADD455R,0.18000X0.00100*%
%ADD456R,0.23700X0.00100*%
%ADD457R,0.23400X0.00100*%
%ADD458R,0.22500X0.00100*%
%ADD459R,0.17800X0.00100*%
%ADD460R,0.29300X0.00100*%
%ADD461R,0.29000X0.00100*%
%ADD462R,0.28500X0.00100*%
%ADD463R,0.28300X0.00100*%
%ADD464R,0.28100X0.00100*%
%ADD465R,0.27800X0.00100*%
%ADD466R,0.27300X0.00100*%
%ADD467R,0.27000X0.00100*%
%ADD468R,0.26700X0.00100*%
%ADD469R,0.26500X0.00100*%
%ADD470R,0.25600X0.00100*%
%ADD471R,0.24900X0.00100*%
%ADD472R,0.24400X0.00100*%
%ADD473R,0.24300X0.00100*%
%ADD474R,0.23600X0.00100*%
%ADD475R,0.23300X0.00100*%
%ADD476R,0.23200X0.00100*%
%ADD477R,0.23000X0.00100*%
%ADD478R,0.22900X0.00100*%
%ADD479R,0.22700X0.00100*%
%ADD480R,0.22600X0.00100*%
%ADD481R,0.22400X0.00100*%
%ADD482R,0.22100X0.00100*%
%ADD483R,0.21900X0.00100*%
%ADD484R,0.21800X0.00100*%
%ADD485R,0.21500X0.00100*%
%ADD486R,0.21400X0.00100*%
%ADD487R,0.21300X0.00100*%
%ADD488R,0.21000X0.00100*%
%ADD489R,0.20800X0.00100*%
%ADD490R,0.20700X0.00100*%
%ADD491R,0.20100X0.00100*%
%ADD492R,0.19000X0.00100*%
%ADD493R,0.18600X0.00100*%
%ADD494R,0.17900X0.00100*%
%ADD495R,0.17600X0.00100*%
%ADD496C,0.40951*%
%ADD497C,0.08195*%
%ADD498C,0.08274*%
%ADD499C,0.02165*%
%ADD500C,0.01417*%
%ADD501C,0.22054*%
D10*
X0077892Y0101028D03*
X0143892Y0101028D03*
X0209892Y0101028D03*
X0275892Y0101028D03*
X0164392Y0238823D03*
X0097892Y0238823D03*
D11*
X0324900Y0095319D03*
D12*
X0453837Y0099846D03*
D13*
X0487892Y0095161D03*
X0508892Y0095161D03*
X0508892Y0113154D03*
X0487892Y0113154D03*
D14*
X0383892Y0255043D03*
X0308892Y0255043D03*
D15*
X0488656Y0197957D03*
D16*
X0176481Y0014111D03*
D17*
X0176531Y0014211D03*
D18*
X0176481Y0014311D03*
D19*
X0176481Y0014411D03*
D20*
X0176531Y0014511D03*
D21*
X0176481Y0014611D03*
D22*
X0176531Y0014711D03*
D23*
X0176531Y0014811D03*
D24*
X0176481Y0014911D03*
D25*
X0176531Y0015011D03*
D26*
X0176481Y0015111D03*
D27*
X0176481Y0015211D03*
D28*
X0176531Y0015311D03*
D29*
X0176481Y0015411D03*
D30*
X0176531Y0015511D03*
D31*
X0176481Y0015611D03*
D32*
X0176481Y0015711D03*
D33*
X0176531Y0015811D03*
D34*
X0176481Y0015911D03*
D35*
X0176531Y0016011D03*
D36*
X0176481Y0016111D03*
D37*
X0176481Y0016211D03*
D38*
X0176531Y0016311D03*
D39*
X0176481Y0016411D03*
D40*
X0176531Y0016511D03*
D41*
X0176481Y0016611D03*
D42*
X0176481Y0016711D03*
D43*
X0176531Y0016811D03*
D44*
X0176481Y0016911D03*
D45*
X0176531Y0017011D03*
D46*
X0176481Y0017111D03*
D47*
X0176481Y0017211D03*
D48*
X0176531Y0017311D03*
D49*
X0176481Y0017411D03*
D50*
X0176531Y0017511D03*
D51*
X0176481Y0017611D03*
D52*
X0176481Y0017711D03*
D53*
X0176531Y0017811D03*
D54*
X0176481Y0017911D03*
D55*
X0176531Y0018011D03*
D56*
X0176531Y0018111D03*
D57*
X0176481Y0018211D03*
D58*
X0176531Y0018311D03*
D59*
X0176481Y0018411D03*
D60*
X0176531Y0018511D03*
D61*
X0176531Y0018611D03*
D62*
X0176481Y0018711D03*
D63*
X0176531Y0018811D03*
D64*
X0176481Y0018911D03*
D65*
X0136181Y0019011D03*
D66*
X0161481Y0019011D03*
X0161381Y0032911D03*
X0197681Y0032411D03*
X0198581Y0065311D03*
X0181581Y0065611D03*
X0160781Y0075711D03*
X0160781Y0075811D03*
X0188081Y0082711D03*
X0176481Y0101711D03*
D67*
X0188931Y0086811D03*
X0212731Y0047511D03*
X0213531Y0046211D03*
X0213631Y0046011D03*
X0213731Y0045811D03*
X0213831Y0045611D03*
X0214331Y0044811D03*
X0214431Y0044611D03*
X0214531Y0044511D03*
X0214631Y0044411D03*
X0215131Y0043511D03*
X0215231Y0043411D03*
X0215231Y0043311D03*
X0215331Y0043111D03*
X0216331Y0041511D03*
X0216431Y0041411D03*
X0216731Y0040911D03*
X0216731Y0040811D03*
X0203631Y0042611D03*
X0222031Y0032211D03*
X0174031Y0032511D03*
X0162031Y0028611D03*
X0173731Y0019011D03*
X0137131Y0042211D03*
X0137231Y0042411D03*
X0137231Y0042511D03*
X0149031Y0045111D03*
X0126531Y0024811D03*
X0126531Y0024711D03*
X0126431Y0024611D03*
D68*
X0187631Y0019011D03*
X0158331Y0069511D03*
X0158731Y0070111D03*
X0176531Y0099511D03*
D69*
X0176481Y0098911D03*
X0158781Y0069711D03*
X0206181Y0019011D03*
D70*
X0225181Y0019011D03*
X0164681Y0079911D03*
X0186681Y0082611D03*
X0176481Y0099411D03*
D71*
X0193831Y0057411D03*
X0136031Y0019111D03*
D72*
X0161481Y0019111D03*
X0198481Y0065911D03*
X0198481Y0066011D03*
X0179081Y0078011D03*
X0157381Y0070711D03*
X0176481Y0102211D03*
D73*
X0189531Y0086211D03*
X0189631Y0086111D03*
X0162331Y0084311D03*
X0162231Y0084211D03*
X0162131Y0084011D03*
X0161331Y0082711D03*
X0161231Y0082511D03*
X0161131Y0082311D03*
X0185831Y0067611D03*
X0173731Y0059011D03*
X0148831Y0045711D03*
X0137431Y0043311D03*
X0137431Y0043211D03*
X0162131Y0028211D03*
X0162231Y0023811D03*
X0173631Y0019111D03*
X0173931Y0032111D03*
X0203831Y0042911D03*
X0222431Y0031911D03*
X0225931Y0026111D03*
X0126931Y0026011D03*
X0126931Y0025911D03*
D74*
X0187631Y0019111D03*
X0206231Y0019211D03*
X0205731Y0051811D03*
X0181031Y0067211D03*
X0178631Y0076311D03*
X0178631Y0076411D03*
X0178631Y0076511D03*
X0164131Y0079611D03*
X0168831Y0087311D03*
X0168831Y0087411D03*
X0176531Y0100011D03*
X0157831Y0069211D03*
D75*
X0158131Y0069411D03*
X0178731Y0075711D03*
X0178731Y0075811D03*
X0169731Y0088511D03*
X0176531Y0099711D03*
X0206231Y0019111D03*
D76*
X0225381Y0019111D03*
X0178681Y0075911D03*
X0178681Y0076011D03*
X0169781Y0088611D03*
X0169781Y0088711D03*
D77*
X0135931Y0019211D03*
D78*
X0161431Y0019211D03*
X0161231Y0032711D03*
X0197631Y0032211D03*
X0157331Y0070811D03*
X0162131Y0078711D03*
X0176531Y0102511D03*
D79*
X0176481Y0108011D03*
X0189981Y0085711D03*
X0190081Y0085611D03*
X0190181Y0085511D03*
X0191281Y0083611D03*
X0173581Y0075511D03*
X0161381Y0083011D03*
X0161381Y0083111D03*
X0169881Y0063211D03*
X0179481Y0050811D03*
X0158781Y0038311D03*
X0148881Y0046111D03*
X0137881Y0044311D03*
X0137881Y0044211D03*
X0137781Y0044111D03*
X0137281Y0032211D03*
X0127081Y0026511D03*
X0127081Y0026411D03*
X0173581Y0019211D03*
X0203881Y0043011D03*
X0222681Y0031811D03*
D80*
X0213581Y0032211D03*
X0212281Y0027111D03*
X0212381Y0026911D03*
X0212381Y0026811D03*
X0212381Y0026711D03*
X0212481Y0026611D03*
X0212481Y0026511D03*
X0212481Y0026411D03*
X0212481Y0026311D03*
X0212481Y0025311D03*
X0212481Y0025211D03*
X0212481Y0025111D03*
X0212481Y0025011D03*
X0202281Y0023211D03*
X0202281Y0023111D03*
X0201881Y0020611D03*
X0201881Y0020511D03*
X0201881Y0020411D03*
X0192781Y0023211D03*
X0192781Y0023311D03*
X0185681Y0024511D03*
X0185681Y0024611D03*
X0186581Y0019411D03*
X0181281Y0019211D03*
X0174881Y0022811D03*
X0174981Y0028911D03*
X0166981Y0042111D03*
X0160481Y0045011D03*
X0160481Y0045111D03*
X0151681Y0041511D03*
X0146381Y0042111D03*
X0149581Y0032411D03*
X0148681Y0026711D03*
X0148681Y0026611D03*
X0148781Y0026311D03*
X0148781Y0026211D03*
X0148781Y0026111D03*
X0148781Y0026011D03*
X0148781Y0025911D03*
X0148781Y0025811D03*
X0148781Y0025711D03*
X0148781Y0025611D03*
X0148781Y0025511D03*
X0148681Y0025211D03*
X0148681Y0025111D03*
X0148681Y0025011D03*
X0148581Y0024811D03*
X0148581Y0024711D03*
X0155381Y0050711D03*
X0172281Y0070911D03*
X0172281Y0071011D03*
X0181081Y0080411D03*
X0176481Y0111011D03*
X0203081Y0049811D03*
X0214181Y0048811D03*
X0197881Y0031811D03*
D81*
X0190031Y0019211D03*
X0160431Y0019711D03*
X0125131Y0019611D03*
X0196731Y0071011D03*
X0196631Y0071211D03*
X0196631Y0071311D03*
X0185831Y0089011D03*
X0228031Y0019411D03*
D82*
X0218831Y0019211D03*
X0212331Y0024611D03*
X0212331Y0024711D03*
X0212431Y0024811D03*
X0212431Y0024911D03*
X0212331Y0027011D03*
X0212231Y0027211D03*
X0201931Y0020711D03*
X0201931Y0020311D03*
X0201931Y0020211D03*
X0192831Y0023011D03*
X0192831Y0023111D03*
X0185631Y0024711D03*
X0185831Y0025711D03*
X0175031Y0029011D03*
X0174831Y0022711D03*
X0174831Y0022611D03*
X0148631Y0024911D03*
X0148531Y0024611D03*
X0148431Y0024411D03*
X0148731Y0026411D03*
X0148731Y0026511D03*
X0148631Y0026811D03*
X0148631Y0026911D03*
X0151531Y0038911D03*
X0151631Y0041611D03*
X0160331Y0044711D03*
X0160331Y0044811D03*
X0160431Y0044911D03*
X0160931Y0050811D03*
X0167731Y0047011D03*
X0147131Y0047011D03*
X0169731Y0065311D03*
X0167931Y0068111D03*
X0166631Y0071511D03*
X0172231Y0071111D03*
X0175131Y0082711D03*
X0176531Y0110911D03*
X0204231Y0044911D03*
D83*
X0197281Y0069711D03*
X0197281Y0069811D03*
X0197181Y0069911D03*
X0189881Y0082011D03*
X0185481Y0089311D03*
X0168381Y0080211D03*
X0166081Y0086911D03*
X0156881Y0071611D03*
X0176481Y0104011D03*
X0160581Y0032211D03*
X0227881Y0019211D03*
D84*
X0200331Y0064111D03*
X0197831Y0068211D03*
X0197831Y0068311D03*
X0161231Y0078311D03*
X0176531Y0103511D03*
X0125531Y0019311D03*
D85*
X0126181Y0023611D03*
X0126181Y0023711D03*
X0136981Y0019311D03*
X0161681Y0022411D03*
X0161681Y0022511D03*
X0161781Y0029211D03*
X0161781Y0029311D03*
X0149281Y0044411D03*
X0149281Y0044511D03*
X0136181Y0040211D03*
X0136181Y0040111D03*
X0183081Y0075411D03*
X0188281Y0087311D03*
X0176481Y0106711D03*
X0203381Y0042211D03*
X0202681Y0041611D03*
X0216881Y0040111D03*
X0216881Y0040011D03*
X0225681Y0025511D03*
D86*
X0225681Y0025411D03*
X0216881Y0039911D03*
X0202881Y0041711D03*
X0178981Y0051311D03*
X0149381Y0044211D03*
X0136181Y0040011D03*
X0136181Y0039911D03*
X0161681Y0029611D03*
X0161681Y0029511D03*
X0161581Y0022111D03*
X0146981Y0019311D03*
X0126081Y0023311D03*
X0192381Y0080311D03*
X0192181Y0080711D03*
X0187981Y0087511D03*
X0176481Y0106511D03*
D87*
X0179581Y0078411D03*
X0197781Y0068511D03*
X0197781Y0068411D03*
X0156981Y0071311D03*
X0160781Y0019311D03*
D88*
X0173531Y0019311D03*
X0184331Y0032011D03*
X0191231Y0038311D03*
X0201631Y0041511D03*
X0203931Y0043211D03*
X0179431Y0047711D03*
X0179431Y0047811D03*
X0179431Y0047911D03*
X0179431Y0048411D03*
X0179531Y0050611D03*
X0169131Y0045611D03*
X0169131Y0045511D03*
X0169131Y0045411D03*
X0169031Y0043511D03*
X0169031Y0043411D03*
X0168931Y0042711D03*
X0148831Y0046411D03*
X0148831Y0046511D03*
X0148731Y0046711D03*
X0138231Y0045111D03*
X0138131Y0044911D03*
X0169831Y0063411D03*
X0173731Y0058911D03*
X0186131Y0067811D03*
X0191231Y0083911D03*
X0191131Y0084111D03*
X0191031Y0084311D03*
X0190931Y0084411D03*
X0190931Y0084511D03*
X0190831Y0084611D03*
X0190731Y0084711D03*
X0190631Y0084911D03*
X0161731Y0083811D03*
X0161631Y0083711D03*
X0161531Y0083611D03*
X0161531Y0083511D03*
X0226131Y0026311D03*
D89*
X0212781Y0019411D03*
X0202481Y0024711D03*
X0202481Y0024811D03*
X0202481Y0024911D03*
X0202481Y0025011D03*
X0202481Y0025111D03*
X0202581Y0025611D03*
X0202581Y0025711D03*
X0202581Y0025811D03*
X0202581Y0025911D03*
X0192881Y0024411D03*
X0192881Y0024311D03*
X0192881Y0024211D03*
X0192781Y0024611D03*
X0192781Y0024711D03*
X0192681Y0025111D03*
X0192581Y0025411D03*
X0192581Y0025511D03*
X0192581Y0025611D03*
X0186081Y0026011D03*
X0185881Y0024111D03*
X0186481Y0019511D03*
X0181281Y0019311D03*
X0175081Y0023311D03*
X0175181Y0028511D03*
X0192881Y0038511D03*
X0187081Y0042011D03*
X0193181Y0047911D03*
X0193181Y0048011D03*
X0193181Y0048911D03*
X0193181Y0049011D03*
X0193181Y0049111D03*
X0192981Y0050411D03*
X0203281Y0049611D03*
X0214081Y0049311D03*
X0167481Y0047211D03*
X0161081Y0050611D03*
X0160681Y0045611D03*
X0155481Y0049911D03*
X0155481Y0050011D03*
X0155481Y0050111D03*
X0150981Y0050811D03*
X0146881Y0047211D03*
X0151581Y0041111D03*
X0151481Y0039211D03*
X0169681Y0065611D03*
X0168081Y0068311D03*
X0172281Y0070311D03*
X0172281Y0070411D03*
X0181281Y0080511D03*
X0169981Y0086211D03*
X0176481Y0111311D03*
D90*
X0176531Y0110411D03*
X0172331Y0072111D03*
X0172331Y0072011D03*
X0169731Y0064911D03*
X0181331Y0063211D03*
X0186731Y0071111D03*
X0186731Y0071211D03*
X0186631Y0071511D03*
X0186531Y0071811D03*
X0140831Y0051511D03*
X0139631Y0049611D03*
X0139631Y0049511D03*
X0159631Y0041911D03*
X0159731Y0042111D03*
X0174731Y0029911D03*
X0174731Y0029811D03*
X0185531Y0030911D03*
X0193031Y0021811D03*
X0193131Y0021311D03*
X0193131Y0020011D03*
X0193031Y0019911D03*
X0186731Y0019311D03*
X0225331Y0029811D03*
X0225431Y0029611D03*
X0148231Y0023911D03*
D91*
X0137231Y0023911D03*
X0137231Y0024611D03*
X0137231Y0024711D03*
X0137131Y0027411D03*
X0137131Y0027511D03*
X0137231Y0028311D03*
X0137231Y0028411D03*
X0137331Y0031011D03*
X0137331Y0031111D03*
X0137331Y0031211D03*
X0127331Y0027811D03*
X0127331Y0027711D03*
X0138531Y0046211D03*
X0138531Y0046311D03*
X0169831Y0063811D03*
X0173031Y0074811D03*
X0184631Y0075111D03*
X0179131Y0043511D03*
X0179131Y0043311D03*
X0179131Y0042811D03*
X0179131Y0042711D03*
X0179131Y0042611D03*
X0201231Y0039311D03*
X0201331Y0039111D03*
X0201331Y0039011D03*
X0204031Y0043811D03*
X0223631Y0031111D03*
X0226031Y0027211D03*
X0226031Y0027111D03*
X0192631Y0019311D03*
X0173431Y0019811D03*
X0176531Y0108911D03*
D92*
X0176531Y0108111D03*
X0190231Y0085411D03*
X0190331Y0085311D03*
X0191231Y0083711D03*
X0186031Y0067711D03*
X0181031Y0063711D03*
X0179431Y0048211D03*
X0179431Y0048111D03*
X0169031Y0044911D03*
X0169031Y0044811D03*
X0169031Y0044711D03*
X0169031Y0044611D03*
X0169031Y0044511D03*
X0169031Y0044411D03*
X0169031Y0044311D03*
X0169031Y0044211D03*
X0169031Y0044111D03*
X0169031Y0044011D03*
X0169031Y0043911D03*
X0168931Y0042511D03*
X0150531Y0038511D03*
X0138031Y0044611D03*
X0137931Y0044511D03*
X0137931Y0044411D03*
X0148831Y0046211D03*
X0173831Y0032011D03*
X0162231Y0028011D03*
X0162331Y0024011D03*
X0127131Y0026611D03*
X0201631Y0019311D03*
X0201231Y0038311D03*
X0213031Y0047811D03*
X0161431Y0083211D03*
X0161831Y0083911D03*
D93*
X0163481Y0085611D03*
X0163581Y0085811D03*
X0188781Y0086911D03*
X0176481Y0107211D03*
X0173781Y0059111D03*
X0191481Y0051011D03*
X0213681Y0045911D03*
X0213781Y0045711D03*
X0213881Y0045511D03*
X0213981Y0045411D03*
X0213981Y0045311D03*
X0214081Y0045211D03*
X0214081Y0045111D03*
X0214181Y0045011D03*
X0214281Y0044911D03*
X0214381Y0044711D03*
X0215281Y0043211D03*
X0215381Y0043011D03*
X0215481Y0042811D03*
X0216081Y0041811D03*
X0216181Y0041711D03*
X0216281Y0041611D03*
X0216781Y0040711D03*
X0221881Y0032311D03*
X0225781Y0025811D03*
X0210381Y0019311D03*
X0161981Y0023211D03*
X0161981Y0023311D03*
X0161981Y0028711D03*
X0137181Y0042311D03*
X0137081Y0042111D03*
X0126381Y0024511D03*
X0126381Y0024411D03*
D94*
X0149231Y0019511D03*
X0149531Y0032311D03*
X0151631Y0041211D03*
X0151631Y0041311D03*
X0146231Y0042011D03*
X0160631Y0045511D03*
X0155431Y0050211D03*
X0155431Y0050311D03*
X0166831Y0042011D03*
X0175131Y0028611D03*
X0175031Y0023211D03*
X0185831Y0024211D03*
X0192631Y0025211D03*
X0192631Y0025311D03*
X0192731Y0025011D03*
X0192731Y0024911D03*
X0192731Y0024811D03*
X0192831Y0024511D03*
X0192831Y0024111D03*
X0192831Y0024011D03*
X0192831Y0023911D03*
X0202431Y0023811D03*
X0202431Y0023711D03*
X0202531Y0025211D03*
X0202531Y0025311D03*
X0202531Y0025411D03*
X0202531Y0025511D03*
X0213531Y0032111D03*
X0218831Y0019311D03*
X0204431Y0045111D03*
X0214131Y0049211D03*
X0193131Y0048811D03*
X0193131Y0048711D03*
X0193131Y0048611D03*
X0193131Y0048511D03*
X0193131Y0048411D03*
X0193131Y0048311D03*
X0193131Y0048211D03*
X0193131Y0048111D03*
X0173831Y0067611D03*
X0166331Y0067311D03*
X0176531Y0111211D03*
D95*
X0176481Y0104211D03*
X0185581Y0089211D03*
X0174081Y0081911D03*
X0179781Y0078611D03*
X0165681Y0086311D03*
X0165681Y0086411D03*
X0156781Y0071711D03*
X0180881Y0065011D03*
X0196981Y0070411D03*
X0197081Y0070211D03*
X0136281Y0037911D03*
X0125181Y0019511D03*
X0227981Y0019311D03*
D96*
X0190081Y0051511D03*
X0197481Y0069211D03*
X0197481Y0069311D03*
X0197381Y0069411D03*
X0197381Y0069511D03*
X0179681Y0078511D03*
X0156881Y0071511D03*
X0176481Y0103911D03*
X0136381Y0037711D03*
X0125281Y0019411D03*
D97*
X0135381Y0019411D03*
X0128381Y0030811D03*
X0158881Y0040111D03*
X0158881Y0040211D03*
X0158881Y0040311D03*
X0158981Y0040611D03*
X0159081Y0040811D03*
X0159181Y0041011D03*
X0159281Y0041211D03*
X0159381Y0041411D03*
X0139481Y0049011D03*
X0139481Y0049111D03*
X0169781Y0064711D03*
X0173681Y0058611D03*
X0172381Y0072411D03*
X0172381Y0072511D03*
X0166081Y0072011D03*
X0159081Y0081411D03*
X0159181Y0081511D03*
X0159181Y0081611D03*
X0159281Y0081711D03*
X0186081Y0072911D03*
X0186181Y0072811D03*
X0186181Y0072711D03*
X0202781Y0050311D03*
X0185381Y0031111D03*
X0192981Y0019711D03*
X0225581Y0029111D03*
X0225581Y0029211D03*
D98*
X0213431Y0032011D03*
X0202731Y0026711D03*
X0202731Y0026611D03*
X0192431Y0026311D03*
X0192431Y0026211D03*
X0186131Y0023111D03*
X0186131Y0023011D03*
X0175131Y0023511D03*
X0186331Y0030511D03*
X0192931Y0038611D03*
X0187131Y0042411D03*
X0187131Y0042511D03*
X0193231Y0044711D03*
X0193231Y0044811D03*
X0193231Y0044911D03*
X0193231Y0045011D03*
X0193231Y0045111D03*
X0193231Y0045211D03*
X0193131Y0047311D03*
X0193131Y0049711D03*
X0193131Y0049811D03*
X0212831Y0051611D03*
X0212931Y0051511D03*
X0213931Y0049811D03*
X0213931Y0049711D03*
X0190831Y0063211D03*
X0172431Y0069611D03*
X0172431Y0069711D03*
X0168131Y0068411D03*
X0166731Y0067711D03*
X0166631Y0067611D03*
X0166831Y0076811D03*
X0170131Y0086111D03*
X0161131Y0050511D03*
X0160731Y0046511D03*
X0160731Y0046411D03*
X0160731Y0046311D03*
X0160731Y0046211D03*
X0155531Y0049611D03*
X0150531Y0047011D03*
X0146731Y0047311D03*
X0151531Y0040911D03*
X0151431Y0039511D03*
X0151431Y0039411D03*
X0149531Y0032211D03*
X0149031Y0023211D03*
X0139531Y0019411D03*
X0136331Y0023111D03*
X0167331Y0047311D03*
X0212831Y0019511D03*
X0218831Y0019411D03*
D99*
X0225531Y0029311D03*
X0209031Y0032411D03*
X0185431Y0031011D03*
X0174631Y0030211D03*
X0174431Y0021711D03*
X0145131Y0019411D03*
X0145231Y0032411D03*
X0151531Y0042211D03*
X0158931Y0040511D03*
X0158931Y0040411D03*
X0159031Y0040711D03*
X0159131Y0040911D03*
X0159231Y0041111D03*
X0159331Y0041311D03*
X0159431Y0041511D03*
X0159531Y0041711D03*
X0139531Y0049211D03*
X0128431Y0030911D03*
X0192831Y0050811D03*
X0186931Y0070011D03*
X0186931Y0070111D03*
X0186931Y0070211D03*
X0186931Y0070311D03*
X0186431Y0072111D03*
X0186331Y0072311D03*
X0186331Y0072411D03*
X0186231Y0072511D03*
X0186231Y0072611D03*
X0172331Y0072311D03*
X0176531Y0110211D03*
D100*
X0176481Y0110811D03*
X0172281Y0071311D03*
X0172281Y0071211D03*
X0174181Y0067511D03*
X0191081Y0063111D03*
X0192981Y0050611D03*
X0202981Y0049911D03*
X0214181Y0048711D03*
X0214181Y0048611D03*
X0192681Y0038411D03*
X0185781Y0030711D03*
X0185781Y0025611D03*
X0174981Y0029111D03*
X0174781Y0022511D03*
X0149281Y0019411D03*
X0148381Y0024311D03*
X0148481Y0024511D03*
X0148581Y0027011D03*
X0148581Y0027111D03*
X0148481Y0027211D03*
X0128681Y0031811D03*
X0146581Y0042211D03*
X0151681Y0041711D03*
X0159881Y0043311D03*
X0159881Y0043411D03*
X0159881Y0043511D03*
X0159981Y0043711D03*
X0159981Y0043811D03*
X0160081Y0044011D03*
X0160081Y0044111D03*
X0160181Y0044311D03*
X0160181Y0044411D03*
X0160281Y0044511D03*
X0160281Y0044611D03*
X0167181Y0042211D03*
X0140181Y0050811D03*
X0202281Y0023011D03*
X0202281Y0022911D03*
X0202281Y0022811D03*
X0201881Y0020811D03*
X0212281Y0024411D03*
X0212281Y0024511D03*
X0212181Y0027311D03*
X0213581Y0032311D03*
D101*
X0160631Y0019411D03*
X0197331Y0069611D03*
X0185331Y0089411D03*
D102*
X0179931Y0079611D03*
X0169831Y0063511D03*
X0179531Y0050511D03*
X0179331Y0049211D03*
X0179331Y0049111D03*
X0179331Y0049011D03*
X0179331Y0047311D03*
X0179231Y0045711D03*
X0179231Y0045611D03*
X0179231Y0045511D03*
X0179231Y0045411D03*
X0179231Y0045311D03*
X0179231Y0045211D03*
X0179231Y0045111D03*
X0179231Y0045011D03*
X0179231Y0044911D03*
X0169131Y0045811D03*
X0169131Y0045911D03*
X0138331Y0045411D03*
X0147131Y0028611D03*
X0147131Y0028511D03*
X0147131Y0023511D03*
X0162731Y0025611D03*
X0162731Y0025711D03*
X0162731Y0025811D03*
X0162731Y0026211D03*
X0162731Y0026311D03*
X0162731Y0026411D03*
X0162531Y0027711D03*
X0173431Y0019411D03*
X0201331Y0038511D03*
X0201231Y0041011D03*
X0210931Y0028611D03*
X0210931Y0028511D03*
X0226231Y0026411D03*
X0127231Y0027111D03*
X0176531Y0108411D03*
D103*
X0176481Y0111511D03*
X0172381Y0069911D03*
X0172381Y0069811D03*
X0173681Y0067711D03*
X0169681Y0065811D03*
X0155481Y0049811D03*
X0155481Y0049711D03*
X0160781Y0046111D03*
X0160781Y0046011D03*
X0151581Y0041011D03*
X0175181Y0028411D03*
X0175081Y0023411D03*
X0181281Y0019411D03*
X0186081Y0023211D03*
X0186081Y0023311D03*
X0186081Y0023411D03*
X0185981Y0023811D03*
X0185981Y0023911D03*
X0186181Y0026111D03*
X0192481Y0026011D03*
X0202681Y0026311D03*
X0202681Y0026411D03*
X0202681Y0026511D03*
X0202581Y0031711D03*
X0192581Y0031911D03*
X0181381Y0038111D03*
X0187081Y0042311D03*
X0193181Y0047411D03*
X0193181Y0047511D03*
X0193181Y0049611D03*
X0193081Y0050311D03*
X0213981Y0049611D03*
D104*
X0204081Y0044211D03*
X0225781Y0028211D03*
X0192781Y0019411D03*
X0173781Y0020811D03*
X0173681Y0020611D03*
X0170081Y0038411D03*
X0159081Y0039311D03*
X0139281Y0048011D03*
X0128081Y0029611D03*
X0128081Y0029511D03*
X0169781Y0064211D03*
X0165581Y0072611D03*
X0172681Y0073711D03*
X0172681Y0073811D03*
X0186781Y0068711D03*
X0176481Y0109511D03*
D105*
X0176531Y0108611D03*
X0169831Y0063611D03*
X0179531Y0050111D03*
X0179531Y0050011D03*
X0179431Y0049811D03*
X0179431Y0049711D03*
X0179331Y0047111D03*
X0179331Y0047011D03*
X0179231Y0046211D03*
X0179131Y0044411D03*
X0179131Y0044311D03*
X0179131Y0044211D03*
X0179131Y0044111D03*
X0169131Y0046211D03*
X0169131Y0046911D03*
X0159031Y0038411D03*
X0162631Y0027611D03*
X0162731Y0027311D03*
X0162831Y0025111D03*
X0173431Y0019511D03*
X0173731Y0031811D03*
X0201131Y0040511D03*
X0201131Y0040611D03*
X0201131Y0040711D03*
X0204031Y0043511D03*
X0202331Y0050811D03*
X0210931Y0028211D03*
X0210931Y0028111D03*
X0210931Y0028011D03*
X0210831Y0023711D03*
X0201531Y0019411D03*
X0226131Y0026611D03*
X0147131Y0028211D03*
X0147131Y0028311D03*
X0147131Y0028411D03*
X0137231Y0029111D03*
X0137231Y0029211D03*
X0137231Y0029311D03*
X0137231Y0029411D03*
X0137231Y0029511D03*
X0137231Y0029611D03*
X0137231Y0029711D03*
X0137331Y0030011D03*
X0147131Y0023811D03*
X0138431Y0045711D03*
X0138431Y0045811D03*
D106*
X0139581Y0049311D03*
X0139581Y0049411D03*
X0151581Y0042111D03*
X0151681Y0038611D03*
X0159481Y0041611D03*
X0159581Y0041811D03*
X0177281Y0038211D03*
X0174681Y0030111D03*
X0174681Y0030011D03*
X0174481Y0021811D03*
X0192981Y0019811D03*
X0201881Y0019811D03*
X0208881Y0019411D03*
X0225481Y0029411D03*
X0225481Y0029511D03*
X0225381Y0029711D03*
X0204181Y0044611D03*
X0214181Y0048111D03*
X0214181Y0048211D03*
X0202881Y0050211D03*
X0169781Y0064811D03*
X0172381Y0072211D03*
X0166181Y0071911D03*
X0180681Y0080211D03*
X0186381Y0072211D03*
X0186481Y0072011D03*
X0186481Y0071911D03*
X0186581Y0071711D03*
X0186581Y0071611D03*
X0186681Y0071411D03*
X0186681Y0071311D03*
X0186781Y0071011D03*
X0186781Y0070911D03*
X0186781Y0070811D03*
X0186881Y0070711D03*
X0186881Y0070611D03*
X0186881Y0070511D03*
X0186881Y0070411D03*
X0176481Y0110311D03*
X0129281Y0032411D03*
X0128481Y0031111D03*
X0128481Y0031011D03*
D107*
X0148281Y0038711D03*
X0155781Y0048111D03*
X0150481Y0049711D03*
X0150481Y0049811D03*
X0168881Y0038711D03*
X0181281Y0039611D03*
X0198681Y0046411D03*
X0204081Y0047911D03*
X0204081Y0048711D03*
X0180781Y0027511D03*
X0180781Y0022611D03*
X0180781Y0022511D03*
X0154381Y0027011D03*
X0133781Y0019511D03*
X0209981Y0023011D03*
X0218281Y0022511D03*
X0185781Y0083711D03*
X0180581Y0084411D03*
X0178681Y0083311D03*
X0173281Y0086711D03*
X0171681Y0085411D03*
X0176481Y0113111D03*
D108*
X0176481Y0111611D03*
X0155381Y0076811D03*
X0167181Y0071211D03*
X0166881Y0067811D03*
X0169681Y0066011D03*
X0169681Y0065911D03*
X0173481Y0067811D03*
X0172481Y0069411D03*
X0172481Y0069511D03*
X0171381Y0050811D03*
X0161181Y0050411D03*
X0161181Y0047811D03*
X0161181Y0047711D03*
X0161081Y0047611D03*
X0161081Y0047511D03*
X0160981Y0047411D03*
X0160981Y0047311D03*
X0160981Y0047211D03*
X0160881Y0047111D03*
X0160881Y0047011D03*
X0160781Y0046911D03*
X0160781Y0046811D03*
X0160781Y0046711D03*
X0160781Y0046611D03*
X0155581Y0049511D03*
X0151481Y0040811D03*
X0171081Y0042411D03*
X0187181Y0043711D03*
X0187181Y0043811D03*
X0187181Y0043911D03*
X0187181Y0044011D03*
X0187181Y0044111D03*
X0187181Y0044211D03*
X0187181Y0044311D03*
X0187181Y0044411D03*
X0187181Y0044511D03*
X0187181Y0044611D03*
X0187181Y0044711D03*
X0193181Y0045311D03*
X0193181Y0045411D03*
X0193181Y0045511D03*
X0193181Y0045611D03*
X0193181Y0045711D03*
X0193281Y0044611D03*
X0193281Y0044511D03*
X0193281Y0044411D03*
X0193281Y0044311D03*
X0193281Y0044211D03*
X0193181Y0047011D03*
X0193181Y0047111D03*
X0193181Y0047211D03*
X0193181Y0049911D03*
X0193081Y0050211D03*
X0203481Y0049511D03*
X0213781Y0050111D03*
X0213881Y0050011D03*
X0213881Y0049911D03*
X0204681Y0045311D03*
X0197781Y0031611D03*
X0202781Y0026811D03*
X0212781Y0023211D03*
X0192381Y0026411D03*
X0192381Y0026511D03*
X0186281Y0026211D03*
X0186181Y0022911D03*
X0186181Y0022811D03*
X0186281Y0022711D03*
X0186481Y0019611D03*
X0181281Y0019511D03*
X0175181Y0023611D03*
X0175281Y0028311D03*
X0149181Y0019711D03*
X0149081Y0023111D03*
X0135981Y0019511D03*
D109*
X0139481Y0019511D03*
X0149181Y0019811D03*
X0149181Y0022911D03*
X0149181Y0028711D03*
X0149281Y0028811D03*
X0149481Y0032111D03*
X0151381Y0039811D03*
X0151381Y0039911D03*
X0151381Y0040011D03*
X0151381Y0040111D03*
X0151381Y0040411D03*
X0151381Y0040511D03*
X0150581Y0047211D03*
X0155581Y0049211D03*
X0155581Y0049311D03*
X0161381Y0048211D03*
X0171381Y0050711D03*
X0187181Y0045211D03*
X0187181Y0045111D03*
X0187181Y0045011D03*
X0187181Y0043211D03*
X0187181Y0042911D03*
X0187181Y0042811D03*
X0193281Y0043911D03*
X0193181Y0046811D03*
X0193181Y0046911D03*
X0204581Y0046011D03*
X0204581Y0045911D03*
X0204581Y0045811D03*
X0213181Y0051211D03*
X0213281Y0051111D03*
X0213381Y0050911D03*
X0213481Y0050811D03*
X0213481Y0050711D03*
X0213581Y0050611D03*
X0213681Y0050411D03*
X0192981Y0038711D03*
X0192481Y0031811D03*
X0192281Y0026911D03*
X0192281Y0026811D03*
X0186381Y0026311D03*
X0186281Y0022511D03*
X0186281Y0022411D03*
X0186481Y0019711D03*
X0181381Y0019611D03*
X0175381Y0028111D03*
X0202781Y0027111D03*
X0202781Y0027011D03*
X0213081Y0028811D03*
X0213381Y0031911D03*
X0202781Y0031511D03*
X0212881Y0023011D03*
X0212981Y0022911D03*
X0218881Y0019611D03*
X0169681Y0066111D03*
X0168281Y0068511D03*
X0172581Y0069011D03*
X0172581Y0069111D03*
X0163181Y0078011D03*
X0155381Y0076911D03*
X0170281Y0086011D03*
X0176481Y0111811D03*
D110*
X0176481Y0110611D03*
X0180881Y0080311D03*
X0172281Y0071611D03*
X0172281Y0071511D03*
X0166381Y0071711D03*
X0140581Y0051311D03*
X0140481Y0051211D03*
X0140381Y0051111D03*
X0139881Y0050211D03*
X0139781Y0050011D03*
X0146681Y0042311D03*
X0159881Y0042611D03*
X0159881Y0042711D03*
X0159881Y0042811D03*
X0159881Y0042911D03*
X0159881Y0043011D03*
X0159881Y0043111D03*
X0167281Y0042311D03*
X0174881Y0029411D03*
X0174881Y0029311D03*
X0174681Y0022211D03*
X0174681Y0022111D03*
X0185581Y0024911D03*
X0185581Y0025011D03*
X0185681Y0025511D03*
X0192881Y0022711D03*
X0192881Y0022611D03*
X0192881Y0022511D03*
X0193281Y0020511D03*
X0193281Y0020411D03*
X0201981Y0021211D03*
X0201981Y0021311D03*
X0202081Y0021611D03*
X0202081Y0021711D03*
X0202081Y0021811D03*
X0202081Y0021911D03*
X0202081Y0022011D03*
X0202181Y0022311D03*
X0202181Y0022411D03*
X0212081Y0024111D03*
X0211981Y0027611D03*
X0213581Y0032411D03*
X0214181Y0048411D03*
X0214181Y0048511D03*
X0148381Y0027511D03*
X0148281Y0024111D03*
X0145081Y0019511D03*
X0128881Y0032111D03*
D111*
X0136331Y0037811D03*
X0160531Y0019511D03*
X0190131Y0051411D03*
X0197131Y0070011D03*
X0197131Y0070111D03*
X0197031Y0070311D03*
X0176531Y0104111D03*
D112*
X0176531Y0109711D03*
X0158831Y0080611D03*
X0172531Y0073311D03*
X0172531Y0073211D03*
X0165731Y0072411D03*
X0181331Y0063311D03*
X0186831Y0069011D03*
X0185431Y0074211D03*
X0170131Y0038511D03*
X0174231Y0030611D03*
X0184931Y0031611D03*
X0192831Y0019511D03*
X0201831Y0019611D03*
X0225731Y0028511D03*
X0174031Y0021211D03*
X0128231Y0030011D03*
X0128231Y0030111D03*
D113*
X0127981Y0029311D03*
X0127981Y0029211D03*
X0127881Y0029111D03*
X0127881Y0029011D03*
X0147681Y0023311D03*
X0159181Y0039111D03*
X0159181Y0039211D03*
X0173781Y0031211D03*
X0173881Y0031111D03*
X0173481Y0020311D03*
X0201781Y0019511D03*
X0211381Y0023311D03*
X0225781Y0028011D03*
X0204081Y0044111D03*
X0169781Y0064111D03*
X0165381Y0072811D03*
X0172781Y0074111D03*
X0158881Y0080311D03*
X0184981Y0074811D03*
X0186681Y0068511D03*
X0139181Y0047811D03*
X0139081Y0047611D03*
X0139081Y0047511D03*
X0138981Y0047411D03*
X0138881Y0047211D03*
X0138781Y0047011D03*
X0176481Y0109311D03*
D114*
X0176531Y0110711D03*
X0175131Y0082611D03*
X0172231Y0071411D03*
X0167831Y0068011D03*
X0169731Y0065211D03*
X0169731Y0065111D03*
X0166531Y0071611D03*
X0140331Y0051011D03*
X0140231Y0050911D03*
X0140131Y0050711D03*
X0140031Y0050611D03*
X0140031Y0050511D03*
X0139931Y0050411D03*
X0139931Y0050311D03*
X0151631Y0041811D03*
X0151531Y0038811D03*
X0159831Y0043211D03*
X0159931Y0043611D03*
X0160031Y0043911D03*
X0160131Y0044211D03*
X0148431Y0027411D03*
X0148431Y0027311D03*
X0148331Y0024211D03*
X0128831Y0032011D03*
X0128731Y0031911D03*
X0128631Y0031711D03*
X0128531Y0031611D03*
X0128531Y0031511D03*
X0174931Y0029211D03*
X0174731Y0022411D03*
X0174731Y0022311D03*
X0185631Y0024811D03*
X0192831Y0022911D03*
X0192831Y0022811D03*
X0201931Y0021111D03*
X0201931Y0021011D03*
X0201931Y0020911D03*
X0202031Y0021411D03*
X0202031Y0021511D03*
X0202131Y0022111D03*
X0202131Y0022211D03*
X0202231Y0022511D03*
X0202231Y0022611D03*
X0202231Y0022711D03*
X0201931Y0020111D03*
X0208831Y0019511D03*
X0212131Y0024211D03*
X0212231Y0024311D03*
X0212131Y0027411D03*
X0212031Y0027511D03*
X0204231Y0044811D03*
D115*
X0204631Y0045411D03*
X0204631Y0045511D03*
X0204631Y0045611D03*
X0204631Y0045711D03*
X0213031Y0051411D03*
X0213131Y0051311D03*
X0213331Y0051011D03*
X0213631Y0050511D03*
X0213731Y0050311D03*
X0213731Y0050211D03*
X0193131Y0050111D03*
X0193131Y0050011D03*
X0193131Y0046111D03*
X0193131Y0046011D03*
X0193131Y0045911D03*
X0193131Y0045811D03*
X0193331Y0044111D03*
X0193331Y0044011D03*
X0187231Y0043611D03*
X0187231Y0043511D03*
X0187231Y0043411D03*
X0187231Y0043311D03*
X0187131Y0042711D03*
X0187131Y0042611D03*
X0187131Y0044811D03*
X0187131Y0044911D03*
X0181431Y0038211D03*
X0171131Y0042311D03*
X0171031Y0047011D03*
X0171131Y0047111D03*
X0161331Y0048011D03*
X0161331Y0048111D03*
X0161231Y0047911D03*
X0155531Y0049411D03*
X0150831Y0050711D03*
X0150531Y0047111D03*
X0151431Y0040711D03*
X0151431Y0040611D03*
X0151431Y0039711D03*
X0151431Y0039611D03*
X0175331Y0028211D03*
X0175231Y0023711D03*
X0186231Y0022611D03*
X0192331Y0026611D03*
X0192331Y0026711D03*
X0202731Y0026911D03*
X0202631Y0031611D03*
X0213031Y0028711D03*
X0212831Y0023111D03*
X0212831Y0019611D03*
X0218831Y0019511D03*
X0149131Y0023011D03*
X0173331Y0067911D03*
X0172531Y0069211D03*
X0172531Y0069311D03*
X0181531Y0080611D03*
X0182331Y0083111D03*
X0176531Y0111711D03*
D116*
X0176481Y0104711D03*
X0189581Y0083111D03*
X0173481Y0081711D03*
X0156681Y0072011D03*
X0196181Y0072211D03*
X0196181Y0072311D03*
X0196281Y0072111D03*
X0196281Y0072011D03*
X0160481Y0031811D03*
X0125081Y0019811D03*
X0228081Y0019511D03*
D117*
X0218481Y0023011D03*
X0209481Y0019811D03*
X0197681Y0026011D03*
X0197681Y0026111D03*
X0210181Y0028911D03*
X0217881Y0028411D03*
X0185581Y0041611D03*
X0186381Y0047411D03*
X0198281Y0046011D03*
X0180381Y0028411D03*
X0169681Y0027411D03*
X0154181Y0027311D03*
X0146381Y0028911D03*
X0145681Y0019811D03*
X0133681Y0019611D03*
X0144681Y0041711D03*
X0145481Y0047411D03*
X0166081Y0047411D03*
X0165281Y0041711D03*
X0168181Y0077111D03*
X0170281Y0082411D03*
X0172481Y0085211D03*
X0175281Y0086911D03*
X0176281Y0083311D03*
X0178081Y0083911D03*
X0184681Y0083711D03*
X0166881Y0084411D03*
X0176481Y0113611D03*
D118*
X0176481Y0112311D03*
X0170581Y0085811D03*
X0178981Y0082711D03*
X0181981Y0083511D03*
X0163481Y0080311D03*
X0155881Y0078211D03*
X0155381Y0077511D03*
X0155381Y0077411D03*
X0168481Y0068711D03*
X0169581Y0066711D03*
X0169581Y0066611D03*
X0171381Y0050411D03*
X0171481Y0050211D03*
X0171481Y0050111D03*
X0171581Y0049911D03*
X0171581Y0049811D03*
X0171581Y0049711D03*
X0171681Y0049511D03*
X0171681Y0049411D03*
X0171681Y0049311D03*
X0171681Y0049211D03*
X0171681Y0049111D03*
X0171681Y0049011D03*
X0171681Y0048911D03*
X0171681Y0048811D03*
X0171681Y0048711D03*
X0171681Y0048611D03*
X0171681Y0048511D03*
X0161481Y0048711D03*
X0161381Y0049811D03*
X0155681Y0048711D03*
X0150581Y0047511D03*
X0148281Y0038611D03*
X0149381Y0031711D03*
X0149681Y0030411D03*
X0149681Y0030311D03*
X0149681Y0030211D03*
X0149681Y0030111D03*
X0154781Y0026211D03*
X0154781Y0025611D03*
X0149381Y0021811D03*
X0149381Y0021711D03*
X0149381Y0021611D03*
X0149381Y0021511D03*
X0149381Y0021411D03*
X0144881Y0023911D03*
X0139381Y0022911D03*
X0135981Y0019611D03*
X0170381Y0025711D03*
X0170381Y0026211D03*
X0175781Y0026011D03*
X0175581Y0027811D03*
X0186381Y0027911D03*
X0186381Y0027711D03*
X0186481Y0028211D03*
X0186581Y0028411D03*
X0186581Y0028511D03*
X0186681Y0028811D03*
X0186681Y0028911D03*
X0186681Y0029011D03*
X0186681Y0029111D03*
X0192381Y0031511D03*
X0197681Y0029411D03*
X0197681Y0029311D03*
X0203281Y0030111D03*
X0203281Y0030211D03*
X0203281Y0030611D03*
X0203281Y0030711D03*
X0203181Y0030811D03*
X0203181Y0030911D03*
X0213281Y0031511D03*
X0213381Y0030111D03*
X0213381Y0030011D03*
X0213381Y0029911D03*
X0213381Y0029811D03*
X0208681Y0023911D03*
X0213181Y0021711D03*
X0213181Y0021611D03*
X0213181Y0021511D03*
X0213181Y0021411D03*
X0213181Y0021311D03*
X0213181Y0021211D03*
X0212881Y0020111D03*
X0218581Y0021211D03*
X0218681Y0021011D03*
X0186581Y0021711D03*
X0186481Y0020011D03*
X0181081Y0021111D03*
X0181081Y0021211D03*
X0181481Y0038711D03*
X0181081Y0041911D03*
X0187181Y0046011D03*
X0187181Y0046811D03*
X0187181Y0046911D03*
X0193481Y0040111D03*
X0193481Y0040011D03*
X0193181Y0039111D03*
X0204381Y0046911D03*
X0204381Y0047011D03*
X0171581Y0041411D03*
X0171581Y0041311D03*
X0171581Y0041211D03*
X0171281Y0038911D03*
D119*
X0171431Y0041811D03*
X0171331Y0042011D03*
X0171431Y0047611D03*
X0171531Y0047811D03*
X0161331Y0050011D03*
X0161331Y0050111D03*
X0155631Y0049011D03*
X0155631Y0048911D03*
X0150731Y0050611D03*
X0150631Y0047311D03*
X0149431Y0031911D03*
X0149531Y0029411D03*
X0149431Y0029211D03*
X0149431Y0029111D03*
X0149331Y0022511D03*
X0149331Y0022411D03*
X0149331Y0022311D03*
X0149131Y0020011D03*
X0139431Y0019611D03*
X0175431Y0028011D03*
X0186531Y0026711D03*
X0186531Y0026611D03*
X0186531Y0026511D03*
X0186631Y0030211D03*
X0186631Y0030311D03*
X0192131Y0029511D03*
X0192131Y0029411D03*
X0192131Y0029311D03*
X0192231Y0028911D03*
X0192331Y0028411D03*
X0192331Y0028311D03*
X0197631Y0029911D03*
X0197631Y0030011D03*
X0197631Y0030111D03*
X0197631Y0030211D03*
X0197631Y0030911D03*
X0197631Y0031011D03*
X0197631Y0031111D03*
X0197631Y0031211D03*
X0197631Y0031311D03*
X0202931Y0031311D03*
X0203131Y0029611D03*
X0203131Y0029511D03*
X0202731Y0028011D03*
X0202731Y0027911D03*
X0202731Y0027811D03*
X0202731Y0027711D03*
X0213231Y0029111D03*
X0213231Y0029211D03*
X0213331Y0031711D03*
X0213131Y0022411D03*
X0213131Y0022311D03*
X0212831Y0019811D03*
X0218931Y0019911D03*
X0186431Y0022011D03*
X0186431Y0022111D03*
X0181431Y0020011D03*
X0181431Y0019911D03*
X0181431Y0038411D03*
X0193431Y0040411D03*
X0193431Y0040511D03*
X0193431Y0040611D03*
X0193331Y0042511D03*
X0193331Y0042611D03*
X0193331Y0042711D03*
X0193331Y0042811D03*
X0193331Y0042911D03*
X0187131Y0045611D03*
X0203731Y0049411D03*
X0204331Y0046711D03*
X0204431Y0046611D03*
X0204431Y0046511D03*
X0169631Y0066311D03*
X0169631Y0066411D03*
X0168331Y0068611D03*
X0155331Y0077111D03*
X0170431Y0085911D03*
X0182131Y0083311D03*
X0185431Y0083311D03*
D120*
X0172231Y0070811D03*
X0166131Y0067111D03*
X0169731Y0065411D03*
X0160531Y0045211D03*
X0151631Y0041411D03*
X0151531Y0039011D03*
X0148731Y0025411D03*
X0148731Y0025311D03*
X0145031Y0019611D03*
X0174931Y0022911D03*
X0175031Y0028811D03*
X0186031Y0030611D03*
X0185931Y0025811D03*
X0185731Y0024411D03*
X0192731Y0023511D03*
X0192731Y0023411D03*
X0202331Y0023411D03*
X0202331Y0023311D03*
X0208831Y0019611D03*
X0212531Y0025411D03*
X0212531Y0025511D03*
X0212531Y0025611D03*
X0212531Y0025711D03*
X0212531Y0025811D03*
X0212531Y0025911D03*
X0212531Y0026011D03*
X0212531Y0026111D03*
X0212531Y0026211D03*
X0204331Y0045011D03*
X0214131Y0048911D03*
X0214131Y0049011D03*
D121*
X0214031Y0049411D03*
X0214031Y0049511D03*
X0204531Y0045211D03*
X0193131Y0047611D03*
X0193131Y0047711D03*
X0193131Y0047811D03*
X0193131Y0049211D03*
X0193131Y0049311D03*
X0193131Y0049411D03*
X0193131Y0049511D03*
X0187131Y0042211D03*
X0187131Y0042111D03*
X0178231Y0041911D03*
X0160731Y0045711D03*
X0160731Y0045811D03*
X0160731Y0045911D03*
X0151431Y0039311D03*
X0149231Y0019611D03*
X0185931Y0024011D03*
X0186031Y0023711D03*
X0186031Y0023611D03*
X0186031Y0023511D03*
X0192531Y0025711D03*
X0192531Y0025811D03*
X0192531Y0025911D03*
X0192431Y0026111D03*
X0202431Y0024611D03*
X0202431Y0024511D03*
X0202431Y0024411D03*
X0202431Y0024311D03*
X0202431Y0024211D03*
X0202431Y0024111D03*
X0202431Y0024011D03*
X0202431Y0023911D03*
X0202631Y0026011D03*
X0202631Y0026111D03*
X0202631Y0026211D03*
X0197831Y0031711D03*
X0181331Y0063111D03*
X0169731Y0065711D03*
X0166531Y0067511D03*
X0166431Y0067411D03*
X0166931Y0071311D03*
X0172331Y0070211D03*
X0172331Y0070111D03*
X0172331Y0070011D03*
X0176531Y0111411D03*
D122*
X0176481Y0104411D03*
X0165781Y0086611D03*
X0156781Y0071811D03*
X0196681Y0071111D03*
X0196781Y0070911D03*
X0196881Y0070711D03*
X0136281Y0038011D03*
X0160481Y0032011D03*
X0160481Y0019611D03*
D123*
X0162681Y0024411D03*
X0162681Y0024511D03*
X0162781Y0024611D03*
X0162781Y0024711D03*
X0162781Y0024811D03*
X0162781Y0024911D03*
X0162781Y0025011D03*
X0162781Y0027011D03*
X0162781Y0027111D03*
X0162781Y0027211D03*
X0162681Y0027411D03*
X0162681Y0027511D03*
X0173381Y0019611D03*
X0147081Y0027811D03*
X0137281Y0029011D03*
X0137281Y0030111D03*
X0137281Y0030211D03*
X0137281Y0030311D03*
X0137281Y0030411D03*
X0137281Y0030511D03*
X0137281Y0031911D03*
X0137181Y0026911D03*
X0137181Y0026811D03*
X0137181Y0026711D03*
X0137181Y0026611D03*
X0137181Y0026511D03*
X0137181Y0026411D03*
X0137181Y0026311D03*
X0137181Y0026211D03*
X0137181Y0026111D03*
X0137181Y0026011D03*
X0137181Y0025911D03*
X0137181Y0025811D03*
X0137181Y0025711D03*
X0137181Y0025611D03*
X0137181Y0025511D03*
X0137181Y0025411D03*
X0137181Y0025311D03*
X0137181Y0025211D03*
X0127281Y0027411D03*
X0127281Y0027511D03*
X0138481Y0045911D03*
X0169081Y0046811D03*
X0169181Y0046511D03*
X0169181Y0046411D03*
X0169181Y0046311D03*
X0170081Y0051111D03*
X0179581Y0050311D03*
X0179581Y0050211D03*
X0179281Y0046911D03*
X0179281Y0046811D03*
X0179281Y0046711D03*
X0179281Y0046611D03*
X0179281Y0046511D03*
X0179281Y0046411D03*
X0179281Y0046311D03*
X0201081Y0040411D03*
X0201081Y0040311D03*
X0201281Y0038711D03*
X0203981Y0043611D03*
X0223181Y0031611D03*
X0223281Y0031511D03*
X0226181Y0026711D03*
X0210881Y0027811D03*
X0210881Y0027911D03*
X0210881Y0023811D03*
X0181181Y0063511D03*
X0186381Y0068011D03*
X0173181Y0075111D03*
X0176481Y0108711D03*
D124*
X0176481Y0110011D03*
X0180581Y0080111D03*
X0185781Y0073611D03*
X0185781Y0073511D03*
X0185881Y0073411D03*
X0186881Y0069511D03*
X0172481Y0072811D03*
X0165981Y0072111D03*
X0165881Y0072211D03*
X0165881Y0076711D03*
X0158981Y0081011D03*
X0158981Y0081111D03*
X0169781Y0064611D03*
X0169781Y0064511D03*
X0202781Y0050411D03*
X0185181Y0031311D03*
X0174381Y0030411D03*
X0174281Y0021511D03*
X0174181Y0021411D03*
X0192881Y0019611D03*
X0201881Y0019711D03*
X0225681Y0028811D03*
X0158881Y0039911D03*
X0158881Y0040011D03*
X0128381Y0030611D03*
X0128381Y0030511D03*
D125*
X0136231Y0038311D03*
X0125031Y0019911D03*
X0160431Y0019911D03*
X0190031Y0037911D03*
X0228131Y0019611D03*
X0196131Y0072411D03*
X0196031Y0072511D03*
X0196031Y0072611D03*
X0195931Y0072811D03*
X0186231Y0088711D03*
X0176531Y0104811D03*
D126*
X0176481Y0104511D03*
X0185981Y0088911D03*
X0190181Y0081911D03*
X0179881Y0078711D03*
X0173781Y0081811D03*
X0171081Y0081011D03*
X0196381Y0071811D03*
X0196481Y0071611D03*
X0196481Y0071511D03*
X0196581Y0071411D03*
X0180781Y0064911D03*
X0190181Y0051311D03*
X0160481Y0031911D03*
X0136281Y0038111D03*
X0125081Y0019711D03*
D127*
X0136331Y0023011D03*
X0139331Y0023011D03*
X0139431Y0019711D03*
X0149131Y0020111D03*
X0149131Y0020211D03*
X0149431Y0021911D03*
X0154831Y0025711D03*
X0154831Y0025811D03*
X0154831Y0026111D03*
X0149631Y0029711D03*
X0149631Y0029811D03*
X0149631Y0029911D03*
X0149631Y0030011D03*
X0149431Y0031811D03*
X0168931Y0038611D03*
X0171331Y0038811D03*
X0171531Y0041511D03*
X0171631Y0048111D03*
X0171631Y0048211D03*
X0171631Y0048311D03*
X0171631Y0048411D03*
X0171431Y0050311D03*
X0161331Y0049911D03*
X0161431Y0048611D03*
X0155631Y0048811D03*
X0150731Y0050511D03*
X0169631Y0066511D03*
X0155331Y0077211D03*
X0155331Y0077311D03*
X0185431Y0083411D03*
X0185431Y0083511D03*
X0176531Y0112211D03*
X0187231Y0047311D03*
X0187231Y0047211D03*
X0187231Y0047111D03*
X0187231Y0047011D03*
X0187131Y0045911D03*
X0193431Y0040311D03*
X0193431Y0040211D03*
X0193131Y0039011D03*
X0192431Y0031611D03*
X0192031Y0029911D03*
X0192031Y0029811D03*
X0186731Y0029811D03*
X0186731Y0029711D03*
X0186731Y0029611D03*
X0186731Y0029511D03*
X0186731Y0029411D03*
X0186731Y0029311D03*
X0186731Y0029211D03*
X0186731Y0029911D03*
X0186331Y0027811D03*
X0186431Y0027611D03*
X0186431Y0027511D03*
X0186431Y0027411D03*
X0186431Y0027311D03*
X0186531Y0021811D03*
X0181431Y0020211D03*
X0181331Y0020511D03*
X0181231Y0020711D03*
X0181231Y0020811D03*
X0181131Y0020911D03*
X0181131Y0021011D03*
X0175531Y0024111D03*
X0170431Y0025811D03*
X0170431Y0026111D03*
X0181431Y0038611D03*
X0197631Y0029511D03*
X0203231Y0029911D03*
X0203231Y0030011D03*
X0203131Y0031011D03*
X0213231Y0021811D03*
X0212831Y0020011D03*
X0218631Y0021111D03*
X0218731Y0020911D03*
X0218731Y0020811D03*
X0218831Y0020611D03*
X0218931Y0020311D03*
D128*
X0218431Y0022811D03*
X0218131Y0027311D03*
X0207931Y0028711D03*
X0197631Y0026911D03*
X0197631Y0026811D03*
X0197631Y0026711D03*
X0207931Y0023411D03*
X0180831Y0022811D03*
X0180531Y0027311D03*
X0180531Y0028211D03*
X0169931Y0024811D03*
X0154331Y0024811D03*
X0144131Y0023411D03*
X0143831Y0019711D03*
X0144131Y0028711D03*
X0143731Y0032211D03*
X0144831Y0041811D03*
X0150331Y0048311D03*
X0150431Y0049311D03*
X0150431Y0049411D03*
X0165431Y0041811D03*
X0181131Y0040511D03*
X0181131Y0040411D03*
X0181231Y0040011D03*
X0181231Y0039911D03*
X0188631Y0050711D03*
X0198431Y0047111D03*
X0206731Y0050811D03*
X0191431Y0065111D03*
X0178431Y0083611D03*
X0176331Y0083111D03*
X0173731Y0083311D03*
X0172031Y0085311D03*
X0175231Y0087011D03*
X0176531Y0113411D03*
D129*
X0176531Y0112711D03*
X0171031Y0085611D03*
X0174131Y0082911D03*
X0168631Y0068811D03*
X0169531Y0067211D03*
X0169531Y0067111D03*
X0204131Y0049211D03*
X0204231Y0047411D03*
X0206631Y0050911D03*
X0198931Y0046711D03*
X0181231Y0041411D03*
X0171431Y0039611D03*
X0171331Y0039411D03*
X0171331Y0039311D03*
X0175731Y0027611D03*
X0175831Y0027311D03*
X0175831Y0027211D03*
X0175831Y0027111D03*
X0175831Y0027011D03*
X0181031Y0027811D03*
X0181031Y0028011D03*
X0180731Y0021911D03*
X0186731Y0021411D03*
X0186731Y0021311D03*
X0197631Y0028711D03*
X0191931Y0030611D03*
X0208431Y0027511D03*
X0218231Y0022011D03*
X0218331Y0021911D03*
X0209431Y0019711D03*
X0170131Y0026711D03*
X0154631Y0025311D03*
X0144631Y0027511D03*
X0145631Y0019711D03*
X0145431Y0038211D03*
X0150531Y0047811D03*
X0155731Y0048411D03*
D130*
X0138481Y0046111D03*
X0138481Y0046011D03*
X0137281Y0031811D03*
X0137281Y0030911D03*
X0137181Y0028511D03*
X0137181Y0027311D03*
X0137181Y0027211D03*
X0137181Y0027111D03*
X0137181Y0025011D03*
X0137181Y0024911D03*
X0137181Y0024811D03*
X0137181Y0023811D03*
X0137181Y0023711D03*
X0137181Y0023611D03*
X0137181Y0023511D03*
X0173381Y0019711D03*
X0173681Y0031611D03*
X0179081Y0042211D03*
X0179081Y0042311D03*
X0179081Y0042411D03*
X0179081Y0042511D03*
X0179081Y0043611D03*
X0179081Y0043711D03*
X0179081Y0043811D03*
X0201181Y0039611D03*
X0201181Y0039511D03*
X0201181Y0039411D03*
X0201281Y0039211D03*
X0201281Y0038911D03*
X0223581Y0031211D03*
X0226081Y0027011D03*
X0186481Y0068111D03*
X0173081Y0074911D03*
X0176481Y0108811D03*
D131*
X0176531Y0111911D03*
X0182231Y0083211D03*
X0185431Y0083211D03*
X0172631Y0068911D03*
X0172631Y0068811D03*
X0172731Y0068711D03*
X0172831Y0068511D03*
X0173031Y0068211D03*
X0173131Y0068111D03*
X0173231Y0068011D03*
X0169631Y0066211D03*
X0155331Y0077011D03*
X0161231Y0050311D03*
X0171231Y0047211D03*
X0171231Y0042211D03*
X0181431Y0038311D03*
X0187231Y0043011D03*
X0187231Y0043111D03*
X0187131Y0045311D03*
X0193131Y0046211D03*
X0193131Y0046311D03*
X0193131Y0046411D03*
X0193131Y0046511D03*
X0193131Y0046611D03*
X0193131Y0046711D03*
X0193331Y0043811D03*
X0193331Y0043711D03*
X0193331Y0043611D03*
X0193331Y0042211D03*
X0193331Y0042111D03*
X0193331Y0042011D03*
X0193331Y0041911D03*
X0193331Y0041811D03*
X0193331Y0041711D03*
X0193331Y0041611D03*
X0193331Y0041511D03*
X0193331Y0041411D03*
X0193331Y0041311D03*
X0193331Y0041211D03*
X0193331Y0041111D03*
X0204531Y0046111D03*
X0204531Y0046211D03*
X0197731Y0031511D03*
X0203031Y0029211D03*
X0203031Y0029111D03*
X0202931Y0028911D03*
X0202931Y0028811D03*
X0202931Y0028711D03*
X0202831Y0028511D03*
X0202831Y0028411D03*
X0202831Y0027311D03*
X0202831Y0027211D03*
X0213131Y0028911D03*
X0213331Y0031811D03*
X0213031Y0022811D03*
X0213031Y0022711D03*
X0212831Y0019711D03*
X0218931Y0019711D03*
X0192331Y0027311D03*
X0192331Y0027411D03*
X0192331Y0027511D03*
X0192231Y0027111D03*
X0192231Y0027011D03*
X0186331Y0022311D03*
X0181331Y0019711D03*
X0175331Y0023811D03*
X0149231Y0022811D03*
X0149331Y0028911D03*
X0149431Y0032011D03*
X0151331Y0040211D03*
X0151331Y0040311D03*
D132*
X0150481Y0049511D03*
X0175681Y0038311D03*
X0181281Y0039811D03*
X0181181Y0040611D03*
X0181181Y0040711D03*
X0198481Y0046211D03*
X0203981Y0048111D03*
X0203981Y0048211D03*
X0203981Y0048311D03*
X0197581Y0027911D03*
X0197681Y0027411D03*
X0197681Y0027311D03*
X0197681Y0027211D03*
X0197681Y0027111D03*
X0197681Y0027011D03*
X0208181Y0024211D03*
X0207581Y0019711D03*
X0218381Y0022711D03*
X0180781Y0022711D03*
X0180681Y0027411D03*
X0169881Y0027111D03*
X0154281Y0027111D03*
X0144381Y0024211D03*
X0167281Y0071011D03*
X0164481Y0081911D03*
X0170381Y0082311D03*
X0173381Y0086611D03*
X0178481Y0083511D03*
X0180181Y0084611D03*
X0176481Y0113311D03*
D133*
X0176481Y0105011D03*
X0175081Y0082011D03*
X0195381Y0073911D03*
X0195481Y0073711D03*
X0195581Y0073511D03*
X0156581Y0072211D03*
X0136181Y0038511D03*
X0160581Y0031511D03*
X0160381Y0020111D03*
X0216681Y0038711D03*
X0228181Y0019711D03*
D134*
X0218531Y0021311D03*
X0218531Y0021411D03*
X0213131Y0021111D03*
X0213131Y0021011D03*
X0213131Y0020911D03*
X0213031Y0020811D03*
X0213031Y0020711D03*
X0213031Y0020611D03*
X0212931Y0020411D03*
X0212831Y0020211D03*
X0208631Y0027611D03*
X0213431Y0030211D03*
X0213431Y0030311D03*
X0213431Y0030411D03*
X0213431Y0030511D03*
X0213331Y0030911D03*
X0213231Y0031411D03*
X0203331Y0030511D03*
X0203331Y0030411D03*
X0203331Y0030311D03*
X0197631Y0029211D03*
X0197631Y0029111D03*
X0192031Y0030011D03*
X0192031Y0030111D03*
X0192331Y0031411D03*
X0186631Y0028711D03*
X0186631Y0028611D03*
X0186531Y0028311D03*
X0186431Y0028111D03*
X0186431Y0028011D03*
X0180931Y0021511D03*
X0180931Y0021411D03*
X0181031Y0021311D03*
X0175631Y0024211D03*
X0175831Y0025811D03*
X0175831Y0025911D03*
X0175831Y0026111D03*
X0175831Y0026211D03*
X0170331Y0026311D03*
X0170331Y0025611D03*
X0154731Y0026311D03*
X0149331Y0021311D03*
X0149331Y0021211D03*
X0149331Y0021111D03*
X0149131Y0020411D03*
X0149131Y0020311D03*
X0139431Y0019811D03*
X0139431Y0022811D03*
X0144831Y0027611D03*
X0149631Y0030511D03*
X0149631Y0030611D03*
X0149631Y0030711D03*
X0149631Y0030811D03*
X0149631Y0030911D03*
X0149531Y0031011D03*
X0149531Y0031111D03*
X0149531Y0031211D03*
X0149531Y0031311D03*
X0149431Y0031411D03*
X0149431Y0031511D03*
X0149431Y0031611D03*
X0171631Y0041011D03*
X0171631Y0041111D03*
X0181131Y0041811D03*
X0188931Y0038411D03*
X0193231Y0039211D03*
X0193331Y0039311D03*
X0193331Y0039411D03*
X0193431Y0039611D03*
X0193531Y0039911D03*
X0187131Y0046111D03*
X0187231Y0046611D03*
X0187231Y0046711D03*
X0171631Y0049611D03*
X0171531Y0050011D03*
X0161531Y0048811D03*
X0161431Y0049611D03*
X0161431Y0049711D03*
X0150631Y0050411D03*
X0155431Y0077611D03*
X0155631Y0078011D03*
X0155731Y0078111D03*
X0167431Y0076911D03*
X0185431Y0083611D03*
X0176531Y0112411D03*
X0204331Y0047111D03*
D135*
X0198081Y0047411D03*
X0175981Y0042011D03*
X0155781Y0047611D03*
X0154081Y0027611D03*
X0154081Y0027511D03*
X0143681Y0019811D03*
X0169681Y0024511D03*
X0169681Y0027511D03*
X0180281Y0028511D03*
X0180981Y0023111D03*
X0197681Y0025711D03*
X0197681Y0025811D03*
X0217781Y0028511D03*
X0165381Y0081411D03*
X0164881Y0081711D03*
X0162881Y0080711D03*
X0162581Y0081811D03*
X0165781Y0083911D03*
X0166981Y0084311D03*
X0172281Y0082411D03*
X0173381Y0083511D03*
X0172881Y0085111D03*
X0173681Y0086411D03*
X0176181Y0083511D03*
X0177781Y0084111D03*
X0181781Y0085711D03*
X0182081Y0085611D03*
X0182281Y0085511D03*
X0182481Y0085411D03*
X0184581Y0083811D03*
X0185881Y0084111D03*
D136*
X0186131Y0088811D03*
X0173131Y0081611D03*
X0156731Y0071911D03*
X0196331Y0071911D03*
X0196431Y0071711D03*
X0176531Y0104611D03*
X0136231Y0038211D03*
X0160431Y0019811D03*
D137*
X0149181Y0019911D03*
X0149281Y0022611D03*
X0149281Y0022711D03*
X0146281Y0023211D03*
X0146481Y0028711D03*
X0149381Y0029011D03*
X0171281Y0038611D03*
X0171381Y0041911D03*
X0171281Y0042111D03*
X0178281Y0041811D03*
X0177881Y0038311D03*
X0187181Y0045411D03*
X0187181Y0045511D03*
X0193381Y0043511D03*
X0193381Y0043411D03*
X0193281Y0042411D03*
X0193281Y0042311D03*
X0193381Y0041011D03*
X0193381Y0040911D03*
X0193381Y0040811D03*
X0193381Y0040711D03*
X0193081Y0038811D03*
X0192481Y0031711D03*
X0192181Y0029211D03*
X0192181Y0029111D03*
X0192181Y0029011D03*
X0192281Y0028811D03*
X0192281Y0028711D03*
X0192281Y0028611D03*
X0192281Y0028511D03*
X0192381Y0028211D03*
X0192381Y0028111D03*
X0192381Y0028011D03*
X0192381Y0027911D03*
X0192381Y0027811D03*
X0192381Y0027711D03*
X0192381Y0027611D03*
X0192281Y0027211D03*
X0186481Y0026411D03*
X0186381Y0022211D03*
X0186481Y0019811D03*
X0181381Y0019811D03*
X0175381Y0023911D03*
X0186581Y0030411D03*
X0197681Y0030411D03*
X0197681Y0030311D03*
X0197681Y0030511D03*
X0197681Y0030611D03*
X0197681Y0030711D03*
X0197681Y0030811D03*
X0197681Y0031411D03*
X0202881Y0031411D03*
X0203081Y0029411D03*
X0203081Y0029311D03*
X0202981Y0029011D03*
X0202881Y0028611D03*
X0202781Y0028311D03*
X0202781Y0028211D03*
X0202781Y0028111D03*
X0202781Y0027611D03*
X0202781Y0027511D03*
X0202781Y0027411D03*
X0210281Y0028711D03*
X0213181Y0029011D03*
X0213081Y0022611D03*
X0213081Y0022511D03*
X0210081Y0023211D03*
X0218981Y0019811D03*
X0204481Y0046311D03*
X0204481Y0046411D03*
X0171381Y0047411D03*
X0171381Y0047511D03*
X0171281Y0047311D03*
X0171381Y0050611D03*
X0161281Y0050211D03*
X0161381Y0048411D03*
X0161381Y0048311D03*
X0155581Y0049111D03*
X0172981Y0068311D03*
X0172881Y0068411D03*
X0172781Y0068611D03*
X0176481Y0112011D03*
D138*
X0176531Y0113711D03*
X0178431Y0088211D03*
X0177531Y0086911D03*
X0179531Y0084911D03*
X0177931Y0084011D03*
X0176231Y0083411D03*
X0168431Y0082111D03*
X0165531Y0081311D03*
X0185931Y0084011D03*
X0191431Y0064911D03*
X0198231Y0047311D03*
X0208831Y0047611D03*
X0217831Y0027111D03*
X0218531Y0023111D03*
X0207431Y0019811D03*
X0197631Y0025911D03*
X0180331Y0027111D03*
X0169731Y0024611D03*
X0154131Y0024611D03*
X0154131Y0027411D03*
X0136331Y0022911D03*
X0134131Y0023311D03*
X0155831Y0047711D03*
D139*
X0136231Y0038611D03*
X0160631Y0031411D03*
X0160431Y0020211D03*
X0125031Y0020111D03*
X0216731Y0038811D03*
X0228231Y0019811D03*
X0195431Y0073811D03*
X0195331Y0074011D03*
X0195331Y0074111D03*
X0195231Y0074211D03*
X0190731Y0081711D03*
X0180031Y0078911D03*
X0172731Y0081411D03*
X0170731Y0080811D03*
X0186531Y0088511D03*
X0176531Y0105111D03*
D140*
X0173031Y0086911D03*
X0170631Y0082111D03*
X0181731Y0083711D03*
X0181831Y0080711D03*
X0169531Y0067011D03*
X0190431Y0063311D03*
X0186031Y0051111D03*
X0171631Y0040611D03*
X0171631Y0040511D03*
X0171631Y0040411D03*
X0171331Y0039211D03*
X0171331Y0039111D03*
X0181531Y0039111D03*
X0181531Y0039011D03*
X0186631Y0038211D03*
X0192231Y0031311D03*
X0192131Y0031111D03*
X0191931Y0030411D03*
X0197631Y0028911D03*
X0208531Y0024011D03*
X0218431Y0021711D03*
X0218431Y0021611D03*
X0186631Y0021511D03*
X0180831Y0021711D03*
X0175931Y0025111D03*
X0175931Y0025211D03*
X0175931Y0025311D03*
X0175931Y0025411D03*
X0175831Y0026411D03*
X0175831Y0026511D03*
X0175631Y0027711D03*
X0170231Y0026511D03*
X0170231Y0025411D03*
X0154731Y0025511D03*
X0154631Y0026511D03*
X0146431Y0028811D03*
X0144731Y0024011D03*
X0139531Y0022511D03*
X0139531Y0022411D03*
X0139431Y0019911D03*
X0150531Y0047711D03*
X0150631Y0050311D03*
X0155731Y0048511D03*
X0161531Y0049011D03*
X0161531Y0049111D03*
X0161531Y0049211D03*
X0161531Y0049311D03*
X0165731Y0051111D03*
X0204331Y0047211D03*
X0209431Y0051211D03*
D141*
X0179181Y0043211D03*
X0179181Y0043111D03*
X0179181Y0043011D03*
X0179181Y0042911D03*
X0179081Y0043411D03*
X0170081Y0051011D03*
X0159181Y0038611D03*
X0173681Y0031511D03*
X0184581Y0031811D03*
X0173381Y0019911D03*
X0137181Y0024011D03*
X0137181Y0024111D03*
X0137181Y0024511D03*
X0137181Y0027611D03*
X0137181Y0027711D03*
X0137181Y0028111D03*
X0137181Y0028211D03*
X0137281Y0031711D03*
X0127481Y0028111D03*
X0127381Y0027911D03*
X0138581Y0046411D03*
X0186481Y0068211D03*
X0172981Y0074611D03*
X0172981Y0074711D03*
X0176481Y0109011D03*
X0223781Y0031011D03*
X0225981Y0027411D03*
X0225981Y0027311D03*
D142*
X0213381Y0029511D03*
X0213381Y0029611D03*
X0213381Y0029711D03*
X0213281Y0029411D03*
X0213281Y0029311D03*
X0213281Y0031611D03*
X0209881Y0032311D03*
X0208781Y0027711D03*
X0203181Y0029711D03*
X0203181Y0029811D03*
X0203081Y0031111D03*
X0202981Y0031211D03*
X0197681Y0029811D03*
X0197681Y0029711D03*
X0197681Y0029611D03*
X0192081Y0029611D03*
X0192081Y0029711D03*
X0186681Y0030011D03*
X0186681Y0030111D03*
X0186481Y0027211D03*
X0186481Y0027111D03*
X0186481Y0027011D03*
X0186481Y0026911D03*
X0186481Y0026811D03*
X0186481Y0021911D03*
X0186481Y0019911D03*
X0181481Y0020111D03*
X0181381Y0020311D03*
X0181381Y0020411D03*
X0181281Y0020611D03*
X0175481Y0024011D03*
X0170481Y0025911D03*
X0170481Y0026011D03*
X0175481Y0027911D03*
X0171281Y0038711D03*
X0171481Y0041611D03*
X0171481Y0041711D03*
X0171481Y0047711D03*
X0171581Y0047911D03*
X0171581Y0048011D03*
X0171381Y0050511D03*
X0168681Y0050811D03*
X0161381Y0048511D03*
X0150581Y0047411D03*
X0148081Y0050811D03*
X0146081Y0032311D03*
X0149581Y0029611D03*
X0149581Y0029511D03*
X0149481Y0029311D03*
X0144981Y0027711D03*
X0154881Y0026011D03*
X0154881Y0025911D03*
X0149381Y0022211D03*
X0149381Y0022111D03*
X0149381Y0022011D03*
X0139281Y0023111D03*
X0181481Y0038511D03*
X0193081Y0038911D03*
X0193381Y0043011D03*
X0193381Y0043111D03*
X0193381Y0043211D03*
X0193381Y0043311D03*
X0187181Y0045711D03*
X0187181Y0045811D03*
X0204381Y0046811D03*
X0213181Y0022211D03*
X0213181Y0022111D03*
X0213181Y0022011D03*
X0213181Y0021911D03*
X0212781Y0019911D03*
X0218781Y0020711D03*
X0218881Y0020511D03*
X0218881Y0020411D03*
X0218981Y0020211D03*
X0218981Y0020111D03*
X0218981Y0020011D03*
X0182081Y0083411D03*
X0176481Y0112111D03*
D143*
X0176481Y0110511D03*
X0175181Y0082511D03*
X0172281Y0071911D03*
X0172281Y0071811D03*
X0167781Y0067911D03*
X0166281Y0071811D03*
X0155381Y0050811D03*
X0151581Y0042011D03*
X0159681Y0042011D03*
X0159781Y0042211D03*
X0140681Y0051411D03*
X0139681Y0049711D03*
X0129181Y0032311D03*
X0128481Y0031211D03*
X0148181Y0027711D03*
X0148281Y0024011D03*
X0174581Y0021911D03*
X0174781Y0029611D03*
X0174781Y0029711D03*
X0185581Y0025311D03*
X0192981Y0022111D03*
X0192981Y0022011D03*
X0192981Y0021911D03*
X0193081Y0021711D03*
X0193081Y0021611D03*
X0193081Y0021511D03*
X0193081Y0021411D03*
X0193181Y0021211D03*
X0193181Y0021111D03*
X0193181Y0021011D03*
X0193181Y0020911D03*
X0193181Y0020111D03*
X0201881Y0019911D03*
X0211981Y0023911D03*
X0225081Y0030311D03*
X0225181Y0030211D03*
X0225181Y0030111D03*
X0225281Y0030011D03*
X0225281Y0029911D03*
X0204181Y0044711D03*
X0214181Y0048311D03*
X0202881Y0050111D03*
D144*
X0216731Y0038911D03*
X0228231Y0019911D03*
X0160431Y0020411D03*
X0160831Y0031111D03*
X0136231Y0038811D03*
X0125031Y0020311D03*
X0194931Y0074811D03*
X0194931Y0074911D03*
X0194831Y0075011D03*
X0194831Y0075111D03*
X0176531Y0105311D03*
D145*
X0186431Y0088611D03*
X0172931Y0081511D03*
X0170931Y0080911D03*
X0195531Y0073611D03*
X0195631Y0073411D03*
X0195731Y0073311D03*
X0195731Y0073211D03*
X0195831Y0073011D03*
X0216731Y0038611D03*
X0160531Y0031611D03*
X0136231Y0038411D03*
X0125031Y0020011D03*
D146*
X0139381Y0020011D03*
X0139581Y0022111D03*
X0139581Y0022211D03*
X0139581Y0022311D03*
X0154681Y0025411D03*
X0154581Y0026611D03*
X0170181Y0026611D03*
X0170181Y0025311D03*
X0175781Y0024411D03*
X0175881Y0024511D03*
X0175881Y0024611D03*
X0175881Y0024711D03*
X0175881Y0024811D03*
X0175881Y0024911D03*
X0175881Y0025011D03*
X0175881Y0026611D03*
X0175881Y0026711D03*
X0175881Y0026811D03*
X0175881Y0026911D03*
X0181081Y0027911D03*
X0180781Y0021811D03*
X0186481Y0020311D03*
X0186481Y0020211D03*
X0197681Y0028811D03*
X0191981Y0030711D03*
X0191981Y0030811D03*
X0191981Y0030911D03*
X0192081Y0031011D03*
X0191881Y0030511D03*
X0181481Y0039211D03*
X0181181Y0041511D03*
X0181181Y0041611D03*
X0171581Y0040311D03*
X0171581Y0040211D03*
X0171581Y0040111D03*
X0171581Y0040011D03*
X0171481Y0039911D03*
X0171481Y0039811D03*
X0171481Y0039711D03*
X0171381Y0039511D03*
X0166081Y0038211D03*
X0150581Y0050211D03*
X0173681Y0058411D03*
X0166981Y0071111D03*
X0164081Y0082111D03*
X0178881Y0082911D03*
X0181481Y0083911D03*
X0181681Y0083811D03*
X0176481Y0112611D03*
X0204081Y0049311D03*
X0204281Y0047311D03*
X0198981Y0046811D03*
X0210181Y0038611D03*
X0210181Y0028811D03*
X0218581Y0028011D03*
X0218581Y0027911D03*
X0218381Y0021811D03*
D147*
X0190281Y0051211D03*
X0180781Y0064811D03*
X0195981Y0072711D03*
X0195881Y0072911D03*
X0195781Y0073111D03*
X0190481Y0081811D03*
X0179981Y0078811D03*
X0156681Y0072111D03*
X0152181Y0050911D03*
X0160481Y0031711D03*
X0160381Y0020011D03*
X0176481Y0104911D03*
D148*
X0176531Y0109111D03*
X0160131Y0082111D03*
X0165231Y0073111D03*
X0172931Y0074511D03*
X0180131Y0079811D03*
X0169831Y0063911D03*
X0181331Y0063411D03*
X0202431Y0050711D03*
X0204031Y0043911D03*
X0225831Y0027711D03*
X0225831Y0027611D03*
X0225931Y0027511D03*
X0173431Y0020011D03*
X0170031Y0038311D03*
X0159231Y0038711D03*
X0138631Y0046511D03*
X0138631Y0046611D03*
X0137331Y0031611D03*
X0137331Y0031511D03*
X0137331Y0031411D03*
X0137331Y0031311D03*
X0137131Y0028011D03*
X0137131Y0027911D03*
X0137131Y0027811D03*
X0137231Y0024411D03*
X0137231Y0024311D03*
X0137231Y0024211D03*
X0137331Y0023311D03*
X0127531Y0028211D03*
X0127531Y0028311D03*
X0127631Y0028411D03*
X0127431Y0028011D03*
D149*
X0128531Y0031311D03*
X0128531Y0031411D03*
X0129031Y0032211D03*
X0148231Y0027611D03*
X0151631Y0038711D03*
X0151631Y0041911D03*
X0146831Y0042411D03*
X0159831Y0042411D03*
X0159831Y0042311D03*
X0159831Y0042511D03*
X0167431Y0042411D03*
X0160731Y0050911D03*
X0139831Y0050111D03*
X0139731Y0049911D03*
X0139731Y0049811D03*
X0169731Y0065011D03*
X0172331Y0071711D03*
X0192931Y0050711D03*
X0202931Y0050011D03*
X0185631Y0030811D03*
X0185631Y0025411D03*
X0185531Y0025211D03*
X0185531Y0025111D03*
X0192931Y0022411D03*
X0192931Y0022311D03*
X0192931Y0022211D03*
X0193231Y0020811D03*
X0193231Y0020711D03*
X0193231Y0020611D03*
X0193231Y0020311D03*
X0193231Y0020211D03*
X0201931Y0020011D03*
X0212031Y0024011D03*
X0211931Y0027711D03*
X0225031Y0030411D03*
X0174831Y0029511D03*
X0174631Y0022011D03*
D150*
X0160531Y0020611D03*
X0160431Y0020511D03*
X0161031Y0030811D03*
X0160931Y0030911D03*
X0136231Y0039011D03*
X0125131Y0020711D03*
X0125031Y0020511D03*
X0180731Y0064611D03*
X0194431Y0075811D03*
X0194431Y0075911D03*
X0194331Y0076111D03*
X0194531Y0075711D03*
X0180131Y0079011D03*
X0172231Y0081211D03*
X0156531Y0072511D03*
X0216731Y0039111D03*
X0216731Y0039011D03*
X0228231Y0020011D03*
D151*
X0218181Y0022111D03*
X0218181Y0022211D03*
X0218581Y0027811D03*
X0209881Y0032211D03*
X0197681Y0028611D03*
X0186681Y0021211D03*
X0186681Y0021111D03*
X0186681Y0021011D03*
X0186581Y0020811D03*
X0186481Y0020511D03*
X0186481Y0020411D03*
X0180681Y0022011D03*
X0175781Y0027411D03*
X0175781Y0027511D03*
X0170181Y0025211D03*
X0154581Y0025211D03*
X0154581Y0026711D03*
X0146081Y0032211D03*
X0146781Y0041911D03*
X0155781Y0048311D03*
X0150581Y0050111D03*
X0148081Y0050711D03*
X0168681Y0050711D03*
X0167381Y0041911D03*
X0178281Y0041711D03*
X0177881Y0038411D03*
X0181481Y0039311D03*
X0198781Y0046911D03*
X0204281Y0047511D03*
X0204081Y0049111D03*
X0210681Y0048011D03*
X0188581Y0050811D03*
X0169481Y0067311D03*
X0169481Y0067411D03*
X0178881Y0083011D03*
X0181281Y0084011D03*
X0176481Y0112811D03*
X0139581Y0022011D03*
X0139581Y0021911D03*
X0139581Y0021811D03*
X0139581Y0021711D03*
X0139581Y0021611D03*
X0139581Y0021511D03*
X0139381Y0020211D03*
X0139381Y0020111D03*
D152*
X0127831Y0028911D03*
X0159231Y0038811D03*
X0159231Y0038911D03*
X0159231Y0039011D03*
X0173731Y0031311D03*
X0179231Y0042011D03*
X0173431Y0020211D03*
X0173431Y0020111D03*
X0224031Y0030811D03*
X0169831Y0064011D03*
X0165331Y0072911D03*
X0172831Y0074211D03*
X0172831Y0074311D03*
X0184831Y0074911D03*
X0186631Y0068411D03*
X0160031Y0082011D03*
X0158931Y0080211D03*
X0138931Y0047311D03*
X0138831Y0047111D03*
X0138731Y0046911D03*
X0138631Y0046811D03*
X0138631Y0046711D03*
D153*
X0145081Y0051111D03*
X0150581Y0047611D03*
X0155681Y0048611D03*
X0161481Y0048911D03*
X0161481Y0049411D03*
X0161481Y0049511D03*
X0171581Y0040911D03*
X0171581Y0040811D03*
X0171581Y0040711D03*
X0171281Y0039011D03*
X0181481Y0038911D03*
X0181481Y0038811D03*
X0181181Y0041711D03*
X0187181Y0046211D03*
X0187181Y0046311D03*
X0187181Y0046411D03*
X0187181Y0046511D03*
X0193481Y0039811D03*
X0193481Y0039711D03*
X0193381Y0039511D03*
X0192181Y0031211D03*
X0191981Y0030311D03*
X0191981Y0030211D03*
X0197681Y0029011D03*
X0186581Y0021611D03*
X0186481Y0020111D03*
X0180881Y0021611D03*
X0175681Y0024311D03*
X0175881Y0025511D03*
X0175881Y0025611D03*
X0175881Y0025711D03*
X0175881Y0026311D03*
X0170281Y0026411D03*
X0170281Y0025511D03*
X0154681Y0026411D03*
X0146281Y0023111D03*
X0149281Y0021011D03*
X0149281Y0020911D03*
X0149281Y0020811D03*
X0149181Y0020711D03*
X0149181Y0020611D03*
X0149181Y0020511D03*
X0139481Y0022611D03*
X0139481Y0022711D03*
X0210081Y0023111D03*
X0212981Y0020511D03*
X0212881Y0020311D03*
X0218481Y0021511D03*
X0213381Y0030611D03*
X0213381Y0030711D03*
X0213381Y0030811D03*
X0213281Y0031011D03*
X0213281Y0031111D03*
X0213281Y0031211D03*
X0213281Y0031311D03*
X0169581Y0066811D03*
X0169581Y0066911D03*
X0155481Y0077711D03*
X0155481Y0077811D03*
X0155581Y0077911D03*
X0170781Y0085711D03*
X0174181Y0082811D03*
X0178981Y0082811D03*
X0181881Y0083611D03*
X0176481Y0112511D03*
D154*
X0176481Y0105511D03*
X0186981Y0088211D03*
X0191081Y0081511D03*
X0194081Y0076611D03*
X0194181Y0076411D03*
X0194181Y0076311D03*
X0194281Y0076211D03*
X0194381Y0076011D03*
X0156881Y0073111D03*
X0156581Y0072711D03*
X0156581Y0072611D03*
X0203181Y0051211D03*
X0161081Y0030711D03*
X0160581Y0020711D03*
X0125281Y0021011D03*
X0125181Y0020911D03*
X0125181Y0020811D03*
X0125081Y0020611D03*
X0136281Y0039111D03*
X0136281Y0039211D03*
X0228281Y0020111D03*
D155*
X0160381Y0020311D03*
X0160781Y0031211D03*
X0160681Y0031311D03*
X0136181Y0038711D03*
X0124981Y0020211D03*
X0180681Y0064711D03*
X0195181Y0074311D03*
X0195181Y0074411D03*
X0195081Y0074511D03*
X0195081Y0074611D03*
X0194981Y0074711D03*
X0186681Y0088411D03*
X0176481Y0105211D03*
X0156581Y0072311D03*
D156*
X0156631Y0072811D03*
X0156731Y0073011D03*
X0170431Y0080611D03*
X0187131Y0088111D03*
X0193931Y0076911D03*
X0193931Y0076811D03*
X0194031Y0076711D03*
X0194131Y0076511D03*
X0176531Y0105611D03*
X0216731Y0039211D03*
X0228231Y0020211D03*
X0160731Y0020911D03*
X0160631Y0020811D03*
X0125431Y0021311D03*
X0125331Y0021211D03*
X0125331Y0021111D03*
D157*
X0139381Y0020411D03*
X0139381Y0020311D03*
X0139481Y0020911D03*
X0139481Y0021011D03*
X0139481Y0021111D03*
X0139581Y0021311D03*
X0170081Y0025111D03*
X0180681Y0022311D03*
X0180881Y0027611D03*
X0181381Y0039411D03*
X0188881Y0038511D03*
X0198781Y0046511D03*
X0204181Y0047711D03*
X0204081Y0048911D03*
X0204081Y0049011D03*
X0207581Y0032311D03*
X0208381Y0024111D03*
X0218281Y0022411D03*
X0155781Y0048211D03*
X0150481Y0048011D03*
X0169381Y0067611D03*
X0170481Y0082211D03*
X0171281Y0085511D03*
X0175181Y0087111D03*
X0176781Y0087111D03*
X0176281Y0082811D03*
X0178781Y0083211D03*
X0180781Y0084311D03*
X0180981Y0084211D03*
X0164281Y0082011D03*
D158*
X0156681Y0072911D03*
X0193381Y0077911D03*
X0193481Y0077711D03*
X0193581Y0077511D03*
X0193681Y0077411D03*
X0193681Y0077311D03*
X0193781Y0077211D03*
X0193781Y0077111D03*
X0193881Y0077011D03*
X0176481Y0105711D03*
X0169181Y0051311D03*
X0161181Y0030611D03*
X0160781Y0021011D03*
X0125581Y0021711D03*
X0125481Y0021511D03*
X0125481Y0021411D03*
X0228281Y0020311D03*
D159*
X0189981Y0038011D03*
X0160881Y0031011D03*
X0136281Y0038911D03*
X0124981Y0020411D03*
X0156581Y0072411D03*
X0170581Y0080711D03*
X0172481Y0081311D03*
X0186881Y0088311D03*
X0190881Y0081611D03*
X0194581Y0075611D03*
X0194581Y0075511D03*
X0194681Y0075411D03*
X0194681Y0075311D03*
X0194781Y0075211D03*
X0176481Y0105411D03*
D160*
X0176531Y0109411D03*
X0180231Y0079911D03*
X0185031Y0074711D03*
X0186731Y0068611D03*
X0172731Y0073911D03*
X0172731Y0074011D03*
X0165531Y0072711D03*
X0173731Y0058711D03*
X0170131Y0050911D03*
X0139331Y0048111D03*
X0139231Y0047911D03*
X0139131Y0047711D03*
X0128031Y0029411D03*
X0173931Y0031011D03*
X0173731Y0020711D03*
X0173631Y0020511D03*
X0173531Y0020411D03*
X0224231Y0030711D03*
X0225731Y0028111D03*
D161*
X0228231Y0020411D03*
X0216731Y0039311D03*
X0180731Y0064511D03*
X0193531Y0077611D03*
X0193431Y0077811D03*
X0193331Y0078011D03*
X0193231Y0078111D03*
X0193231Y0078211D03*
X0193131Y0078311D03*
X0193131Y0078411D03*
X0193031Y0078511D03*
X0192931Y0078711D03*
X0192831Y0078911D03*
X0192731Y0079011D03*
X0192631Y0079211D03*
X0192531Y0079311D03*
X0192531Y0079411D03*
X0191231Y0081411D03*
X0176531Y0105811D03*
X0136231Y0039311D03*
X0125631Y0021811D03*
X0125531Y0021611D03*
X0160831Y0021111D03*
X0160931Y0021211D03*
X0161231Y0030511D03*
D162*
X0154431Y0026911D03*
X0154431Y0025011D03*
X0139431Y0020811D03*
X0139431Y0020711D03*
X0139431Y0020611D03*
X0139331Y0020511D03*
X0170031Y0025011D03*
X0170031Y0026911D03*
X0180731Y0022411D03*
X0197631Y0028311D03*
X0197631Y0028411D03*
X0218431Y0027611D03*
X0186031Y0041811D03*
X0181231Y0041111D03*
X0181231Y0041011D03*
X0181231Y0040911D03*
X0181331Y0039511D03*
X0204131Y0047811D03*
X0204031Y0048811D03*
X0181331Y0063011D03*
X0168831Y0068911D03*
X0168331Y0070111D03*
X0167831Y0077011D03*
X0173931Y0083111D03*
X0176531Y0113011D03*
X0150531Y0049911D03*
X0150431Y0048111D03*
D163*
X0136231Y0039411D03*
X0125731Y0022211D03*
X0125731Y0022111D03*
X0161031Y0021411D03*
X0161131Y0021511D03*
X0216831Y0039411D03*
X0228231Y0020611D03*
X0228231Y0020511D03*
X0162131Y0078211D03*
X0170131Y0080411D03*
X0187431Y0087911D03*
X0176531Y0105911D03*
D164*
X0176531Y0112911D03*
X0173131Y0086811D03*
X0174031Y0083011D03*
X0178831Y0083111D03*
X0181131Y0084111D03*
X0163231Y0080411D03*
X0169231Y0067811D03*
X0169331Y0067711D03*
X0169431Y0067511D03*
X0150531Y0050011D03*
X0150531Y0047911D03*
X0147131Y0047411D03*
X0167731Y0047411D03*
X0181231Y0041311D03*
X0181231Y0041211D03*
X0186131Y0041911D03*
X0188031Y0041911D03*
X0198831Y0046611D03*
X0204231Y0047611D03*
X0206131Y0041511D03*
X0197631Y0028511D03*
X0186631Y0020911D03*
X0186531Y0020711D03*
X0186531Y0020611D03*
X0180631Y0022111D03*
X0180631Y0022211D03*
X0180931Y0027711D03*
X0170031Y0026811D03*
X0154531Y0026811D03*
X0154531Y0025111D03*
X0144631Y0024111D03*
X0139531Y0021411D03*
X0139531Y0021211D03*
X0143831Y0032311D03*
X0218531Y0027711D03*
X0218231Y0022311D03*
D165*
X0228231Y0020811D03*
X0228231Y0020711D03*
X0216831Y0039511D03*
X0161231Y0021611D03*
X0125931Y0022611D03*
X0125931Y0022711D03*
X0125831Y0022411D03*
X0180231Y0079211D03*
X0192531Y0079711D03*
X0176531Y0106111D03*
D166*
X0176531Y0109611D03*
X0158831Y0080411D03*
X0172631Y0073611D03*
X0165631Y0072511D03*
X0185131Y0074611D03*
X0185231Y0074511D03*
X0186831Y0068911D03*
X0186831Y0068811D03*
X0139331Y0048211D03*
X0159031Y0039411D03*
X0174031Y0030911D03*
X0184931Y0031711D03*
X0173931Y0021011D03*
X0173831Y0020911D03*
X0128131Y0029711D03*
X0128131Y0029811D03*
X0225731Y0028311D03*
D167*
X0226881Y0023111D03*
X0226981Y0022911D03*
X0227081Y0022711D03*
X0227181Y0022611D03*
X0227181Y0022511D03*
X0227281Y0022411D03*
X0227281Y0022311D03*
X0227381Y0022211D03*
X0227481Y0022111D03*
X0228181Y0020911D03*
X0216881Y0039611D03*
X0161481Y0030211D03*
X0161281Y0021711D03*
X0136181Y0039611D03*
X0149581Y0043611D03*
X0125981Y0022811D03*
X0191681Y0081111D03*
X0176481Y0106211D03*
D168*
X0176531Y0106311D03*
X0187731Y0087711D03*
X0191831Y0081011D03*
X0192531Y0079911D03*
X0192531Y0079811D03*
X0182831Y0075611D03*
X0180731Y0064311D03*
X0203131Y0051011D03*
X0203331Y0041911D03*
X0211031Y0032511D03*
X0225631Y0025211D03*
X0225731Y0025111D03*
X0225731Y0025011D03*
X0225831Y0024911D03*
X0225831Y0024811D03*
X0225931Y0024711D03*
X0226031Y0024611D03*
X0226731Y0023411D03*
X0226831Y0023211D03*
X0226931Y0023011D03*
X0227031Y0022811D03*
X0227531Y0022011D03*
X0227631Y0021911D03*
X0227731Y0021811D03*
X0228131Y0021111D03*
X0228131Y0021011D03*
X0174231Y0032911D03*
X0161631Y0030011D03*
X0161631Y0029911D03*
X0161531Y0030111D03*
X0147231Y0032511D03*
X0136131Y0039711D03*
X0149531Y0043511D03*
X0149531Y0043711D03*
X0126031Y0022911D03*
D169*
X0128181Y0029911D03*
X0158981Y0039511D03*
X0174081Y0030811D03*
X0174181Y0030711D03*
X0173981Y0021111D03*
X0204081Y0044311D03*
X0202681Y0050611D03*
X0169781Y0064311D03*
X0174981Y0067411D03*
X0172581Y0073411D03*
X0172581Y0073511D03*
X0180381Y0080011D03*
X0185281Y0074411D03*
X0185381Y0074311D03*
X0158881Y0080511D03*
X0156581Y0076711D03*
X0139381Y0048411D03*
X0139381Y0048311D03*
X0224381Y0030611D03*
X0225781Y0028411D03*
D170*
X0226081Y0024511D03*
X0226181Y0024411D03*
X0226581Y0023711D03*
X0226681Y0023611D03*
X0226681Y0023511D03*
X0226781Y0023311D03*
X0227781Y0021711D03*
X0227881Y0021611D03*
X0228081Y0021311D03*
X0228081Y0021211D03*
X0216881Y0039711D03*
X0203081Y0041811D03*
X0168981Y0051211D03*
X0149481Y0043911D03*
X0149481Y0043811D03*
X0149581Y0043411D03*
X0149581Y0043311D03*
X0149581Y0043211D03*
X0149481Y0042811D03*
X0149381Y0042611D03*
X0149381Y0042511D03*
X0136181Y0039811D03*
X0161681Y0029811D03*
X0161381Y0021811D03*
X0125981Y0023011D03*
X0192481Y0080011D03*
X0187881Y0087611D03*
D171*
X0187281Y0088011D03*
X0191381Y0081311D03*
X0192481Y0079511D03*
X0192681Y0079111D03*
X0192881Y0078811D03*
X0192981Y0078611D03*
X0180181Y0079111D03*
X0170281Y0080511D03*
X0203181Y0051111D03*
X0190081Y0038111D03*
X0161281Y0030411D03*
X0160981Y0021311D03*
X0125681Y0021911D03*
X0125681Y0022011D03*
D172*
X0128331Y0030411D03*
X0151431Y0042411D03*
X0158931Y0039811D03*
X0174331Y0030511D03*
X0185131Y0031411D03*
X0174131Y0021311D03*
X0204131Y0044411D03*
X0186931Y0069311D03*
X0186931Y0069411D03*
X0185731Y0073711D03*
X0185631Y0073811D03*
X0172431Y0072911D03*
X0158931Y0080911D03*
X0176531Y0109911D03*
X0139431Y0048711D03*
D173*
X0149431Y0044111D03*
X0149431Y0044011D03*
X0149531Y0043111D03*
X0149531Y0043011D03*
X0149531Y0042911D03*
X0149431Y0042711D03*
X0161631Y0029711D03*
X0161431Y0021911D03*
X0126031Y0023111D03*
X0126031Y0023211D03*
X0203331Y0042011D03*
X0216831Y0039811D03*
X0225631Y0025311D03*
X0226231Y0024311D03*
X0226331Y0024211D03*
X0226431Y0024111D03*
X0226431Y0024011D03*
X0226531Y0023911D03*
X0226531Y0023811D03*
X0227931Y0021511D03*
X0228031Y0021411D03*
X0182931Y0075511D03*
X0191931Y0080911D03*
X0192031Y0080811D03*
X0192431Y0080211D03*
X0192431Y0080111D03*
X0176531Y0106411D03*
D174*
X0176531Y0110111D03*
X0159431Y0081911D03*
X0159331Y0081811D03*
X0159031Y0081311D03*
X0159031Y0081211D03*
X0172431Y0072711D03*
X0172431Y0072611D03*
X0185931Y0073211D03*
X0185931Y0073311D03*
X0186031Y0073111D03*
X0186031Y0073011D03*
X0186931Y0069911D03*
X0186931Y0069811D03*
X0186931Y0069711D03*
X0186931Y0069611D03*
X0214131Y0048011D03*
X0204131Y0044511D03*
X0185231Y0031211D03*
X0174531Y0030311D03*
X0174331Y0021611D03*
X0151531Y0042311D03*
X0139431Y0048811D03*
X0139431Y0048911D03*
X0129531Y0032511D03*
X0128431Y0030711D03*
X0224731Y0030511D03*
X0225631Y0029011D03*
X0225631Y0028911D03*
D175*
X0199931Y0032011D03*
X0203331Y0042111D03*
X0184431Y0032511D03*
X0161731Y0029411D03*
X0161631Y0022311D03*
X0161631Y0022211D03*
X0161531Y0022011D03*
X0126131Y0023411D03*
X0126131Y0023511D03*
X0149331Y0044311D03*
X0180731Y0064211D03*
X0180231Y0079311D03*
X0188131Y0087411D03*
X0192231Y0080611D03*
X0192331Y0080511D03*
X0192331Y0080411D03*
X0176531Y0106611D03*
D176*
X0176481Y0106011D03*
X0187581Y0087811D03*
X0191581Y0081211D03*
X0192481Y0079611D03*
X0176681Y0082111D03*
X0169881Y0080311D03*
X0180681Y0064411D03*
X0136181Y0039511D03*
X0161381Y0030311D03*
X0125881Y0022511D03*
X0125781Y0022311D03*
D177*
X0126231Y0023811D03*
X0137331Y0032511D03*
X0136231Y0040311D03*
X0149231Y0044611D03*
X0169131Y0038111D03*
X0174231Y0032811D03*
X0161831Y0029111D03*
X0161731Y0022611D03*
X0203431Y0042311D03*
X0176531Y0106811D03*
D178*
X0176531Y0113211D03*
X0180431Y0084511D03*
X0178631Y0083411D03*
X0176331Y0083011D03*
X0176331Y0082911D03*
X0173831Y0083211D03*
X0168631Y0082011D03*
X0163131Y0080511D03*
X0150431Y0049611D03*
X0150431Y0048211D03*
X0155831Y0048011D03*
X0165631Y0041911D03*
X0181231Y0040811D03*
X0181331Y0039711D03*
X0185831Y0041711D03*
X0187831Y0047411D03*
X0198531Y0047011D03*
X0198631Y0046311D03*
X0204031Y0048011D03*
X0204031Y0048411D03*
X0204031Y0048511D03*
X0204031Y0048611D03*
X0197631Y0028211D03*
X0197631Y0028111D03*
X0197631Y0028011D03*
X0197631Y0027811D03*
X0197631Y0027711D03*
X0197631Y0027611D03*
X0197631Y0027511D03*
X0180631Y0028111D03*
X0169931Y0027011D03*
X0169931Y0024911D03*
X0154431Y0024911D03*
X0146231Y0023011D03*
X0145031Y0041911D03*
X0218231Y0028111D03*
X0218331Y0027511D03*
X0218231Y0027411D03*
X0218331Y0022611D03*
D179*
X0225681Y0025611D03*
X0221381Y0032811D03*
X0221281Y0032911D03*
X0216881Y0040211D03*
X0191481Y0051111D03*
X0180781Y0064111D03*
X0183281Y0075311D03*
X0188381Y0087211D03*
X0163981Y0086211D03*
X0163381Y0085211D03*
X0149181Y0044711D03*
X0136681Y0041211D03*
X0136581Y0041011D03*
X0136481Y0040811D03*
X0136381Y0040711D03*
X0136381Y0040611D03*
X0136281Y0040511D03*
X0136281Y0040411D03*
X0161881Y0029011D03*
X0161781Y0022811D03*
X0161781Y0022711D03*
D180*
X0161831Y0022911D03*
X0174131Y0032711D03*
X0150731Y0038311D03*
X0149131Y0044811D03*
X0136831Y0041511D03*
X0136731Y0041311D03*
X0136631Y0041111D03*
X0136531Y0040911D03*
X0126231Y0024011D03*
X0126231Y0023911D03*
X0201031Y0037911D03*
X0203531Y0042411D03*
X0216831Y0040411D03*
X0216831Y0040311D03*
X0221431Y0032711D03*
X0185331Y0067411D03*
X0188531Y0087111D03*
X0176531Y0106911D03*
D181*
X0177181Y0087011D03*
X0178181Y0083811D03*
X0178281Y0083711D03*
X0179981Y0084711D03*
X0176281Y0083211D03*
X0185881Y0083811D03*
X0165681Y0081211D03*
X0164681Y0081811D03*
X0162981Y0080611D03*
X0191381Y0065011D03*
X0209481Y0051111D03*
X0198381Y0046111D03*
X0188981Y0038611D03*
X0181181Y0040111D03*
X0181181Y0040211D03*
X0181181Y0040311D03*
X0155881Y0047911D03*
X0150381Y0049011D03*
X0150381Y0049111D03*
X0150381Y0049211D03*
X0150281Y0048511D03*
X0150281Y0048411D03*
X0154181Y0027211D03*
X0169781Y0027211D03*
X0180881Y0022911D03*
X0197681Y0026411D03*
X0197681Y0026511D03*
X0197681Y0026611D03*
X0207481Y0032211D03*
X0217981Y0028311D03*
X0218081Y0028211D03*
D182*
X0218031Y0027211D03*
X0218431Y0022911D03*
X0197631Y0026211D03*
X0197631Y0026311D03*
X0180931Y0023011D03*
X0180431Y0027211D03*
X0180431Y0028311D03*
X0169731Y0027311D03*
X0169831Y0024711D03*
X0154231Y0024711D03*
X0155831Y0047811D03*
X0150331Y0048611D03*
X0150331Y0048711D03*
X0150331Y0048811D03*
X0150331Y0048911D03*
X0169031Y0069011D03*
X0162531Y0081911D03*
X0173531Y0083411D03*
X0173531Y0086511D03*
X0178231Y0088311D03*
X0179731Y0084811D03*
X0185931Y0083911D03*
X0176531Y0113511D03*
X0198331Y0047211D03*
D183*
X0200081Y0031911D03*
X0184281Y0032411D03*
X0174081Y0032611D03*
X0161881Y0028911D03*
X0161881Y0023011D03*
X0136781Y0041411D03*
X0136881Y0041611D03*
X0136981Y0041811D03*
X0149081Y0044911D03*
X0126281Y0024211D03*
X0126281Y0024111D03*
X0221581Y0032611D03*
X0221681Y0032511D03*
X0225781Y0025711D03*
X0162881Y0084511D03*
X0162881Y0084611D03*
X0162981Y0084711D03*
X0163081Y0084911D03*
X0163181Y0085111D03*
X0163381Y0085311D03*
X0163381Y0085411D03*
X0176481Y0107011D03*
D184*
X0176481Y0111111D03*
X0172281Y0070711D03*
X0172281Y0070611D03*
X0172281Y0070511D03*
X0167981Y0068211D03*
X0166281Y0067211D03*
X0169681Y0065511D03*
X0166781Y0071411D03*
X0173681Y0058511D03*
X0160981Y0050711D03*
X0155381Y0050611D03*
X0155381Y0050511D03*
X0155381Y0050411D03*
X0160581Y0045411D03*
X0160581Y0045311D03*
X0167581Y0047111D03*
X0151481Y0039111D03*
X0146981Y0047111D03*
X0175081Y0028711D03*
X0174981Y0023111D03*
X0174981Y0023011D03*
X0185781Y0024311D03*
X0185981Y0025911D03*
X0192781Y0023811D03*
X0192781Y0023711D03*
X0192781Y0023611D03*
X0202381Y0023611D03*
X0202381Y0023511D03*
X0202481Y0031811D03*
X0192681Y0032011D03*
X0192981Y0050511D03*
X0203181Y0049711D03*
X0214081Y0049111D03*
D185*
X0215431Y0042911D03*
X0215531Y0042711D03*
X0215631Y0042611D03*
X0215631Y0042511D03*
X0215731Y0042411D03*
X0215731Y0042311D03*
X0215831Y0042211D03*
X0215931Y0042111D03*
X0215931Y0042011D03*
X0216031Y0041911D03*
X0216831Y0040611D03*
X0216831Y0040511D03*
X0203531Y0042511D03*
X0221731Y0032411D03*
X0179231Y0051211D03*
X0180831Y0064011D03*
X0163031Y0084811D03*
X0163131Y0085011D03*
X0163431Y0085511D03*
X0163531Y0085711D03*
X0163631Y0085911D03*
X0163731Y0086011D03*
X0163831Y0086111D03*
X0188631Y0087011D03*
X0176531Y0107111D03*
X0149031Y0045011D03*
X0137031Y0042011D03*
X0137031Y0041911D03*
X0136931Y0041711D03*
X0126331Y0024311D03*
X0161931Y0023111D03*
X0161931Y0028811D03*
D186*
X0173681Y0031411D03*
X0147581Y0023411D03*
X0137481Y0023211D03*
X0127681Y0028511D03*
X0127681Y0028611D03*
X0127781Y0028711D03*
X0127781Y0028811D03*
X0186581Y0068311D03*
X0184781Y0075011D03*
X0172881Y0074411D03*
X0165281Y0073011D03*
X0204081Y0044011D03*
X0223881Y0030911D03*
X0225781Y0027911D03*
X0225781Y0027811D03*
X0211281Y0023411D03*
X0176481Y0109211D03*
D187*
X0180031Y0079711D03*
X0184431Y0075211D03*
X0173131Y0075011D03*
X0169831Y0063711D03*
X0173731Y0058811D03*
X0169131Y0046711D03*
X0169131Y0046611D03*
X0179131Y0044011D03*
X0179131Y0043911D03*
X0179031Y0042111D03*
X0170031Y0038211D03*
X0173731Y0031711D03*
X0159131Y0038511D03*
X0147131Y0028111D03*
X0147131Y0028011D03*
X0147131Y0027911D03*
X0137231Y0028611D03*
X0137231Y0028711D03*
X0137231Y0028811D03*
X0137231Y0028911D03*
X0137331Y0030611D03*
X0137331Y0030711D03*
X0137331Y0030811D03*
X0137131Y0027011D03*
X0137231Y0025111D03*
X0137131Y0023411D03*
X0127331Y0027611D03*
X0201131Y0039711D03*
X0201131Y0039811D03*
X0201131Y0039911D03*
X0201131Y0040011D03*
X0201131Y0040111D03*
X0201131Y0040211D03*
X0201331Y0038811D03*
X0204031Y0043711D03*
X0223331Y0031411D03*
X0223431Y0031311D03*
X0226131Y0026911D03*
X0226131Y0026811D03*
D188*
X0225881Y0025911D03*
X0216681Y0041011D03*
X0216681Y0041111D03*
X0216581Y0041211D03*
X0216481Y0041311D03*
X0215081Y0043611D03*
X0215081Y0043711D03*
X0214781Y0044211D03*
X0214681Y0044311D03*
X0213581Y0046111D03*
X0213481Y0046311D03*
X0213381Y0046511D03*
X0212981Y0047211D03*
X0212881Y0047311D03*
X0212781Y0047411D03*
X0203681Y0042711D03*
X0184281Y0032311D03*
X0173981Y0032411D03*
X0161981Y0023411D03*
X0137281Y0032411D03*
X0126581Y0025011D03*
X0126581Y0024911D03*
X0137281Y0042611D03*
X0148981Y0045211D03*
X0188981Y0086711D03*
X0176481Y0107311D03*
D189*
X0176481Y0107511D03*
X0189281Y0086511D03*
X0191281Y0083211D03*
X0213181Y0046911D03*
X0214881Y0044111D03*
X0222281Y0032011D03*
X0225881Y0026011D03*
X0173981Y0032311D03*
X0162081Y0028411D03*
X0162081Y0023511D03*
X0126781Y0025411D03*
X0126781Y0025511D03*
X0126681Y0025211D03*
X0137381Y0042911D03*
X0148881Y0045311D03*
D190*
X0138381Y0045511D03*
X0138381Y0045611D03*
X0137281Y0032011D03*
X0137281Y0029911D03*
X0137281Y0029811D03*
X0127281Y0027311D03*
X0127281Y0027211D03*
X0147081Y0023711D03*
X0147081Y0023611D03*
X0162581Y0024311D03*
X0162781Y0025211D03*
X0162781Y0025311D03*
X0162781Y0025411D03*
X0162781Y0025511D03*
X0162781Y0026511D03*
X0162781Y0026611D03*
X0162781Y0026711D03*
X0162781Y0026811D03*
X0162781Y0026911D03*
X0184381Y0031911D03*
X0201281Y0038611D03*
X0201181Y0040811D03*
X0201181Y0040911D03*
X0203981Y0043411D03*
X0223081Y0031711D03*
X0226181Y0026511D03*
X0210981Y0028311D03*
X0210981Y0028411D03*
X0210881Y0023611D03*
X0210881Y0023511D03*
X0179181Y0044511D03*
X0179181Y0044611D03*
X0179181Y0044711D03*
X0179181Y0044811D03*
X0179281Y0045811D03*
X0179281Y0045911D03*
X0179281Y0046011D03*
X0179281Y0046111D03*
X0179381Y0047211D03*
X0179381Y0049311D03*
X0179381Y0049411D03*
X0179381Y0049511D03*
X0179381Y0049611D03*
X0179481Y0049911D03*
X0179581Y0050411D03*
X0169181Y0046111D03*
X0169181Y0046011D03*
X0186281Y0067911D03*
X0173281Y0075211D03*
X0162781Y0078111D03*
X0176481Y0108511D03*
D191*
X0176531Y0107611D03*
X0189331Y0086411D03*
X0162431Y0084411D03*
X0148831Y0045411D03*
X0137331Y0043011D03*
X0150531Y0038411D03*
X0162131Y0028311D03*
X0162131Y0023611D03*
X0174031Y0032211D03*
X0184231Y0032211D03*
X0203731Y0042811D03*
X0126831Y0025611D03*
D192*
X0126881Y0025711D03*
X0126881Y0025811D03*
X0137281Y0032311D03*
X0137381Y0043111D03*
X0148881Y0045511D03*
X0148881Y0045611D03*
X0169881Y0063111D03*
X0180981Y0063811D03*
X0179381Y0051011D03*
X0191481Y0050911D03*
X0212881Y0047611D03*
X0201181Y0038111D03*
X0162181Y0023711D03*
X0179881Y0079411D03*
X0189481Y0086311D03*
X0191281Y0083311D03*
X0162181Y0084111D03*
X0161281Y0082611D03*
X0161181Y0082411D03*
X0161081Y0082211D03*
X0176481Y0107711D03*
D193*
X0176481Y0107811D03*
X0189781Y0086011D03*
X0191281Y0083411D03*
X0179381Y0050911D03*
X0212981Y0047711D03*
X0162181Y0028111D03*
X0162281Y0023911D03*
X0126981Y0026111D03*
X0137481Y0043411D03*
X0137481Y0043511D03*
X0148881Y0045811D03*
X0148881Y0045911D03*
D194*
X0148881Y0046311D03*
X0138081Y0044811D03*
X0138081Y0044711D03*
X0162281Y0027911D03*
X0162381Y0024111D03*
X0127181Y0026711D03*
X0127181Y0026811D03*
X0168981Y0042611D03*
X0168981Y0043611D03*
X0168981Y0043711D03*
X0168981Y0043811D03*
X0169081Y0045011D03*
X0169081Y0045111D03*
X0169081Y0045211D03*
X0169081Y0045311D03*
X0179381Y0048311D03*
X0179481Y0048011D03*
X0179481Y0050711D03*
X0202281Y0050911D03*
X0203981Y0043111D03*
X0169881Y0063311D03*
X0173481Y0075411D03*
X0179881Y0079511D03*
X0190681Y0084811D03*
X0190581Y0085011D03*
X0190481Y0085111D03*
X0190381Y0085211D03*
X0191181Y0084011D03*
X0191281Y0083811D03*
X0161481Y0083411D03*
X0161481Y0083311D03*
X0176481Y0108211D03*
D195*
X0176481Y0108311D03*
X0191081Y0084211D03*
X0173381Y0075311D03*
X0181081Y0063611D03*
X0179381Y0048911D03*
X0179381Y0048811D03*
X0179381Y0048711D03*
X0179381Y0048611D03*
X0179381Y0048511D03*
X0179381Y0047611D03*
X0179381Y0047511D03*
X0179381Y0047411D03*
X0169081Y0045711D03*
X0168981Y0043311D03*
X0168981Y0043211D03*
X0168981Y0043111D03*
X0168981Y0043011D03*
X0168981Y0042911D03*
X0168981Y0042811D03*
X0173781Y0031911D03*
X0162381Y0027811D03*
X0162681Y0026111D03*
X0162681Y0026011D03*
X0162681Y0025911D03*
X0162481Y0024211D03*
X0137281Y0032111D03*
X0127181Y0027011D03*
X0127181Y0026911D03*
X0138181Y0045011D03*
X0138281Y0045211D03*
X0138281Y0045311D03*
X0148681Y0046811D03*
X0148681Y0046911D03*
X0148781Y0046611D03*
X0201281Y0041111D03*
X0201381Y0041211D03*
X0201481Y0041311D03*
X0201581Y0041411D03*
X0201281Y0038411D03*
X0203981Y0043311D03*
X0213081Y0047911D03*
D196*
X0213031Y0047111D03*
X0213131Y0047011D03*
X0213231Y0046811D03*
X0213331Y0046711D03*
X0213331Y0046611D03*
X0213431Y0046411D03*
X0214931Y0044011D03*
X0215031Y0043911D03*
X0215031Y0043811D03*
X0201131Y0038011D03*
X0222131Y0032111D03*
X0179331Y0051111D03*
X0180931Y0063911D03*
X0185631Y0067511D03*
X0189131Y0086611D03*
X0176531Y0107411D03*
X0137331Y0042811D03*
X0137331Y0042711D03*
X0162031Y0028511D03*
X0126731Y0025311D03*
X0126631Y0025111D03*
D197*
X0127031Y0026211D03*
X0127031Y0026311D03*
X0137531Y0043611D03*
X0137631Y0043711D03*
X0137631Y0043811D03*
X0137731Y0043911D03*
X0137731Y0044011D03*
X0148831Y0046011D03*
X0184231Y0032111D03*
X0191231Y0038211D03*
X0201231Y0038211D03*
X0226031Y0026211D03*
X0173731Y0075611D03*
X0161331Y0082811D03*
X0161331Y0082911D03*
X0189831Y0085911D03*
X0189931Y0085811D03*
X0191331Y0083511D03*
X0176531Y0107911D03*
D198*
X0176481Y0109811D03*
X0158881Y0080811D03*
X0158881Y0080711D03*
X0172481Y0073111D03*
X0172481Y0073011D03*
X0165781Y0072311D03*
X0169781Y0064411D03*
X0186881Y0069111D03*
X0186881Y0069211D03*
X0185581Y0073911D03*
X0185581Y0074011D03*
X0185481Y0074111D03*
X0202781Y0050511D03*
X0177281Y0038111D03*
X0184981Y0031511D03*
X0158981Y0039611D03*
X0158981Y0039711D03*
X0139381Y0048511D03*
X0139381Y0048611D03*
X0128281Y0030311D03*
X0128281Y0030211D03*
X0225681Y0028711D03*
X0225681Y0028611D03*
D199*
X0160531Y0032111D03*
X0196931Y0070511D03*
X0196931Y0070611D03*
X0196831Y0070811D03*
X0171231Y0081111D03*
X0165731Y0086511D03*
X0165831Y0086711D03*
X0165931Y0086811D03*
X0185731Y0089111D03*
X0176531Y0104311D03*
D200*
X0176481Y0102711D03*
X0198281Y0066811D03*
X0198281Y0066711D03*
X0199381Y0065011D03*
X0200481Y0063211D03*
X0204381Y0051611D03*
X0197681Y0032111D03*
D201*
X0160631Y0032311D03*
X0197531Y0069111D03*
X0176531Y0103811D03*
D202*
X0188131Y0083011D03*
X0198531Y0065811D03*
X0197631Y0032311D03*
D203*
X0204231Y0051311D03*
X0197731Y0068611D03*
X0197631Y0068711D03*
X0197631Y0068811D03*
X0156931Y0071411D03*
X0176531Y0103611D03*
X0136531Y0037611D03*
X0160731Y0032411D03*
D204*
X0160881Y0032511D03*
X0204281Y0051411D03*
X0200481Y0063611D03*
X0200481Y0063711D03*
X0199981Y0064511D03*
X0197981Y0067711D03*
X0197981Y0067811D03*
X0179481Y0078311D03*
X0176481Y0103211D03*
D205*
X0178631Y0077711D03*
X0160331Y0074511D03*
X0160331Y0074411D03*
X0156431Y0068011D03*
X0156331Y0067911D03*
X0156131Y0067611D03*
X0156131Y0067511D03*
X0181431Y0066011D03*
X0214631Y0038211D03*
X0197731Y0032511D03*
D206*
X0139831Y0032611D03*
X0176531Y0093111D03*
D207*
X0176531Y0102611D03*
X0179231Y0078111D03*
X0161831Y0078511D03*
X0157231Y0070911D03*
X0198331Y0066611D03*
X0199231Y0065111D03*
X0161231Y0032611D03*
D208*
X0197781Y0032611D03*
D209*
X0196181Y0060511D03*
X0139981Y0032711D03*
X0176481Y0093011D03*
D210*
X0162131Y0060211D03*
X0197831Y0032711D03*
D211*
X0140131Y0032811D03*
X0176531Y0092911D03*
D212*
X0176531Y0102311D03*
X0181631Y0065311D03*
X0198431Y0066111D03*
X0198431Y0066211D03*
X0161331Y0032811D03*
D213*
X0197881Y0032811D03*
X0192681Y0057011D03*
D214*
X0196081Y0060311D03*
X0156081Y0058911D03*
X0155981Y0058811D03*
X0155981Y0058711D03*
X0140281Y0032911D03*
D215*
X0162781Y0060811D03*
X0197981Y0032911D03*
D216*
X0176531Y0033011D03*
D217*
X0176481Y0033111D03*
D218*
X0176481Y0033211D03*
D219*
X0176531Y0033311D03*
D220*
X0176481Y0033411D03*
D221*
X0176531Y0033511D03*
D222*
X0176481Y0033611D03*
D223*
X0176481Y0033711D03*
D224*
X0176531Y0033811D03*
D225*
X0176481Y0033911D03*
D226*
X0176531Y0034011D03*
D227*
X0176481Y0034111D03*
D228*
X0176481Y0034211D03*
D229*
X0176531Y0034311D03*
D230*
X0176481Y0034411D03*
D231*
X0176531Y0034511D03*
D232*
X0176531Y0034611D03*
D233*
X0176481Y0034711D03*
D234*
X0176531Y0034811D03*
D235*
X0176481Y0034911D03*
D236*
X0176531Y0035011D03*
D237*
X0176531Y0035111D03*
D238*
X0176481Y0035211D03*
D239*
X0176531Y0035311D03*
D240*
X0176481Y0035411D03*
D241*
X0176531Y0035511D03*
D242*
X0176531Y0035611D03*
D243*
X0176481Y0035711D03*
D244*
X0176531Y0035811D03*
D245*
X0176481Y0035911D03*
D246*
X0176481Y0036011D03*
D247*
X0176531Y0036111D03*
D248*
X0176481Y0036211D03*
D249*
X0176531Y0036311D03*
D250*
X0176481Y0036411D03*
D251*
X0176481Y0036511D03*
D252*
X0176531Y0036611D03*
D253*
X0176481Y0036711D03*
D254*
X0176531Y0036811D03*
D255*
X0176481Y0036911D03*
D256*
X0176481Y0037011D03*
D257*
X0176531Y0037111D03*
D258*
X0176481Y0037211D03*
D259*
X0176531Y0037311D03*
D260*
X0176481Y0037411D03*
D261*
X0176481Y0037511D03*
D262*
X0153131Y0037611D03*
X0197431Y0062311D03*
X0176531Y0096911D03*
D263*
X0176531Y0097211D03*
X0173831Y0051511D03*
X0173631Y0037611D03*
D264*
X0203281Y0037611D03*
D265*
X0155731Y0063111D03*
X0153331Y0051411D03*
X0153131Y0037711D03*
D266*
X0173581Y0037711D03*
X0173781Y0051411D03*
X0155681Y0063311D03*
X0156481Y0064611D03*
X0156581Y0064811D03*
X0156681Y0064911D03*
X0156781Y0065011D03*
X0156881Y0065211D03*
X0156981Y0065311D03*
X0157881Y0066811D03*
X0157881Y0066911D03*
X0157981Y0067011D03*
X0176481Y0097611D03*
D267*
X0203331Y0037711D03*
D268*
X0197731Y0062611D03*
X0156531Y0064711D03*
X0156431Y0064511D03*
X0156331Y0064411D03*
X0156231Y0064311D03*
X0155731Y0063411D03*
X0153331Y0051311D03*
X0153131Y0037811D03*
X0176531Y0097711D03*
D269*
X0176481Y0097911D03*
X0197881Y0062711D03*
X0173581Y0037811D03*
D270*
X0194831Y0037811D03*
X0197231Y0062111D03*
X0176531Y0096411D03*
D271*
X0176531Y0100211D03*
X0169331Y0088311D03*
X0168931Y0087711D03*
X0168931Y0087611D03*
X0178631Y0076711D03*
X0178631Y0076611D03*
X0181131Y0066911D03*
X0157731Y0069111D03*
X0154631Y0051111D03*
X0214331Y0037811D03*
D272*
X0153131Y0037911D03*
X0153431Y0051211D03*
X0176531Y0098011D03*
D273*
X0176481Y0098311D03*
X0159381Y0070011D03*
X0197981Y0062811D03*
X0173581Y0037911D03*
D274*
X0154681Y0051011D03*
X0159981Y0073211D03*
X0163781Y0079411D03*
X0178581Y0077011D03*
X0176481Y0100411D03*
X0214381Y0037911D03*
D275*
X0153231Y0038011D03*
D276*
X0173681Y0038011D03*
X0176481Y0098611D03*
D277*
X0178531Y0077411D03*
X0160131Y0073711D03*
X0160131Y0073611D03*
X0181331Y0066411D03*
X0214431Y0038011D03*
D278*
X0153381Y0038111D03*
X0176481Y0098811D03*
D279*
X0176531Y0100811D03*
X0160131Y0073811D03*
X0156831Y0068411D03*
X0181331Y0066311D03*
X0214531Y0038111D03*
D280*
X0181281Y0066511D03*
X0178481Y0077311D03*
X0163581Y0079311D03*
X0160081Y0073511D03*
X0160081Y0073411D03*
X0157181Y0068711D03*
X0154381Y0038211D03*
X0176481Y0100611D03*
D281*
X0167181Y0087111D03*
X0167081Y0087011D03*
X0161981Y0078611D03*
X0198381Y0066511D03*
X0198381Y0066411D03*
X0200381Y0063111D03*
X0215481Y0038311D03*
D282*
X0215581Y0038411D03*
X0200481Y0063311D03*
X0199481Y0064911D03*
X0198181Y0067111D03*
X0157181Y0071011D03*
X0176481Y0102911D03*
D283*
X0176531Y0103111D03*
X0157131Y0071111D03*
X0181231Y0065211D03*
X0198031Y0067611D03*
X0199831Y0064611D03*
X0215631Y0038511D03*
D284*
X0153331Y0051511D03*
X0176531Y0097011D03*
D285*
X0176531Y0103011D03*
X0179331Y0078211D03*
X0198131Y0067311D03*
X0198131Y0067211D03*
X0199631Y0064811D03*
X0199731Y0064711D03*
X0204331Y0051511D03*
D286*
X0167581Y0051611D03*
D287*
X0167681Y0051711D03*
D288*
X0181081Y0067011D03*
X0181081Y0067111D03*
X0205781Y0051711D03*
X0168881Y0087511D03*
X0176481Y0100111D03*
D289*
X0167881Y0051811D03*
D290*
X0176481Y0051911D03*
D291*
X0176531Y0052011D03*
D292*
X0176531Y0052111D03*
D293*
X0176481Y0052211D03*
D294*
X0176531Y0052311D03*
D295*
X0176481Y0052411D03*
D296*
X0176531Y0052511D03*
D297*
X0176531Y0052611D03*
D298*
X0176481Y0052711D03*
D299*
X0176531Y0052811D03*
D300*
X0176481Y0052911D03*
D301*
X0176481Y0053011D03*
D302*
X0176531Y0053111D03*
D303*
X0176481Y0053211D03*
D304*
X0176531Y0053311D03*
D305*
X0176481Y0053411D03*
D306*
X0176481Y0053511D03*
D307*
X0176531Y0053611D03*
D308*
X0176481Y0053711D03*
D309*
X0176531Y0053811D03*
D310*
X0176481Y0053911D03*
D311*
X0176481Y0054011D03*
D312*
X0176531Y0054111D03*
D313*
X0176481Y0054211D03*
D314*
X0176531Y0054311D03*
D315*
X0176481Y0054411D03*
D316*
X0176481Y0054511D03*
D317*
X0176531Y0054611D03*
D318*
X0176481Y0054711D03*
D319*
X0176531Y0054811D03*
D320*
X0176531Y0054911D03*
D321*
X0176481Y0055011D03*
D322*
X0176531Y0055111D03*
D323*
X0176481Y0055211D03*
D324*
X0176531Y0055311D03*
D325*
X0176531Y0055411D03*
D326*
X0176481Y0055511D03*
D327*
X0176531Y0055611D03*
D328*
X0176481Y0055711D03*
D329*
X0176531Y0055811D03*
D330*
X0176531Y0055911D03*
D331*
X0176481Y0056011D03*
D332*
X0176531Y0056111D03*
D333*
X0176481Y0056211D03*
D334*
X0176531Y0056311D03*
D335*
X0176531Y0056411D03*
D336*
X0176481Y0056511D03*
D337*
X0176531Y0056611D03*
D338*
X0176481Y0056711D03*
D339*
X0176481Y0056811D03*
D340*
X0176531Y0056911D03*
D341*
X0160231Y0061911D03*
X0157231Y0057011D03*
X0194931Y0058311D03*
D342*
X0156831Y0057111D03*
X0176531Y0089611D03*
D343*
X0161481Y0059711D03*
X0193181Y0057111D03*
D344*
X0195381Y0058811D03*
X0159881Y0062511D03*
X0156581Y0057211D03*
X0176481Y0090011D03*
D345*
X0193431Y0057211D03*
D346*
X0195531Y0059011D03*
X0159731Y0062811D03*
X0156431Y0057311D03*
X0176531Y0090411D03*
D347*
X0193631Y0057311D03*
D348*
X0195681Y0059211D03*
X0156281Y0057411D03*
X0176481Y0090811D03*
D349*
X0176531Y0091111D03*
X0156131Y0057511D03*
D350*
X0193981Y0057511D03*
D351*
X0195831Y0059511D03*
X0156031Y0057611D03*
X0176531Y0091411D03*
D352*
X0194181Y0057611D03*
D353*
X0155881Y0057711D03*
X0176481Y0091711D03*
D354*
X0194281Y0057711D03*
D355*
X0195931Y0059811D03*
X0155831Y0057811D03*
X0176531Y0091911D03*
D356*
X0194381Y0057811D03*
D357*
X0196031Y0059911D03*
X0155831Y0057911D03*
X0176531Y0092111D03*
D358*
X0160631Y0061411D03*
X0194531Y0057911D03*
D359*
X0155781Y0058011D03*
D360*
X0194631Y0058011D03*
D361*
X0155781Y0058111D03*
X0176481Y0092311D03*
D362*
X0194781Y0058111D03*
D363*
X0196031Y0060111D03*
X0155831Y0058311D03*
X0155831Y0058211D03*
X0176531Y0092411D03*
D364*
X0160281Y0061811D03*
X0194881Y0058211D03*
D365*
X0196081Y0060211D03*
X0155881Y0058511D03*
X0155881Y0058411D03*
X0176481Y0092511D03*
D366*
X0160181Y0062011D03*
X0195081Y0058411D03*
D367*
X0195131Y0058511D03*
D368*
X0156231Y0059111D03*
X0156131Y0059011D03*
X0155931Y0058611D03*
X0176531Y0092611D03*
D369*
X0176481Y0089511D03*
X0159981Y0062311D03*
X0195281Y0058611D03*
D370*
X0195331Y0058711D03*
X0159931Y0062411D03*
X0176531Y0089811D03*
D371*
X0176481Y0090211D03*
X0195481Y0058911D03*
D372*
X0195631Y0059111D03*
X0159731Y0062911D03*
X0176531Y0090611D03*
D373*
X0160731Y0059211D03*
D374*
X0160881Y0059311D03*
D375*
X0195681Y0059311D03*
X0176481Y0091011D03*
D376*
X0161031Y0059411D03*
D377*
X0195781Y0059411D03*
X0176481Y0091211D03*
D378*
X0161181Y0059511D03*
D379*
X0161331Y0059611D03*
D380*
X0195881Y0059611D03*
X0176481Y0091511D03*
D381*
X0195931Y0059711D03*
D382*
X0161581Y0059811D03*
D383*
X0161731Y0059911D03*
D384*
X0161831Y0060011D03*
D385*
X0196031Y0060011D03*
X0176531Y0092211D03*
D386*
X0161981Y0060111D03*
D387*
X0162231Y0060311D03*
X0162331Y0060411D03*
D388*
X0196181Y0060411D03*
X0176481Y0092811D03*
D389*
X0162431Y0060511D03*
D390*
X0162581Y0060611D03*
X0162681Y0060711D03*
D391*
X0196181Y0060611D03*
D392*
X0196231Y0060711D03*
X0176531Y0093211D03*
D393*
X0176531Y0093411D03*
X0196231Y0060811D03*
D394*
X0161631Y0060911D03*
D395*
X0196281Y0060911D03*
X0176481Y0093511D03*
D396*
X0161281Y0061011D03*
D397*
X0196281Y0061011D03*
X0176481Y0093611D03*
D398*
X0161081Y0061111D03*
D399*
X0196331Y0061111D03*
X0176531Y0093911D03*
D400*
X0160931Y0061211D03*
D401*
X0196381Y0061211D03*
X0176481Y0094011D03*
D402*
X0160731Y0061311D03*
D403*
X0196381Y0061311D03*
X0176481Y0094111D03*
D404*
X0176531Y0094211D03*
X0196431Y0061411D03*
D405*
X0160531Y0061511D03*
D406*
X0196481Y0061511D03*
X0176481Y0094511D03*
D407*
X0160431Y0061611D03*
D408*
X0196581Y0061611D03*
X0176481Y0094811D03*
D409*
X0160381Y0061711D03*
D410*
X0196731Y0061711D03*
D411*
X0196881Y0061811D03*
X0176481Y0095511D03*
D412*
X0176531Y0095711D03*
X0197031Y0061911D03*
D413*
X0197131Y0062011D03*
X0176531Y0096011D03*
D414*
X0160081Y0062111D03*
D415*
X0160031Y0062211D03*
D416*
X0197381Y0062211D03*
X0176481Y0096611D03*
D417*
X0176481Y0097111D03*
X0197581Y0062411D03*
D418*
X0197681Y0062511D03*
X0176481Y0097411D03*
D419*
X0176531Y0090111D03*
X0159831Y0062611D03*
D420*
X0159831Y0062711D03*
D421*
X0198081Y0062911D03*
X0176481Y0098411D03*
D422*
X0159731Y0063011D03*
D423*
X0159031Y0069811D03*
X0198131Y0063011D03*
X0176531Y0098711D03*
D424*
X0176531Y0097511D03*
X0157831Y0066711D03*
X0157731Y0066611D03*
X0157731Y0066511D03*
X0157631Y0066411D03*
X0157631Y0066311D03*
X0157531Y0066211D03*
X0157431Y0066111D03*
X0157431Y0066011D03*
X0157331Y0065911D03*
X0157331Y0065811D03*
X0157231Y0065711D03*
X0157131Y0065611D03*
X0157131Y0065511D03*
X0157031Y0065411D03*
X0156831Y0065111D03*
X0155731Y0063211D03*
D425*
X0161581Y0078411D03*
X0198081Y0067511D03*
X0198081Y0067411D03*
X0200481Y0063511D03*
X0200481Y0063411D03*
D426*
X0156181Y0064211D03*
X0156081Y0064111D03*
X0155981Y0063911D03*
X0155881Y0063811D03*
X0155781Y0063611D03*
X0155781Y0063511D03*
X0176481Y0097811D03*
D427*
X0156031Y0064011D03*
X0155831Y0063711D03*
D428*
X0157031Y0071211D03*
X0189331Y0082111D03*
X0197931Y0068011D03*
X0197931Y0067911D03*
X0200431Y0063811D03*
X0176531Y0103311D03*
D429*
X0176481Y0103411D03*
X0197881Y0068111D03*
X0200081Y0064411D03*
X0200181Y0064311D03*
X0200281Y0064211D03*
X0200381Y0064011D03*
X0200381Y0063911D03*
D430*
X0197581Y0068911D03*
X0197581Y0069011D03*
X0180981Y0065111D03*
X0176481Y0103711D03*
D431*
X0160731Y0075611D03*
X0157631Y0070511D03*
X0198631Y0065211D03*
D432*
X0181581Y0065411D03*
X0161081Y0076611D03*
X0188081Y0082911D03*
X0176481Y0102111D03*
D433*
X0176531Y0101811D03*
X0160831Y0076011D03*
X0160831Y0075911D03*
X0198531Y0065411D03*
D434*
X0198581Y0065511D03*
X0181581Y0065511D03*
X0178981Y0077911D03*
X0188081Y0082811D03*
X0160981Y0076311D03*
X0160881Y0076111D03*
X0176481Y0101911D03*
D435*
X0176531Y0102011D03*
X0161031Y0076511D03*
X0161031Y0076411D03*
X0160931Y0076211D03*
X0157531Y0070611D03*
X0198531Y0065711D03*
X0198531Y0065611D03*
D436*
X0181581Y0065711D03*
X0178781Y0077811D03*
X0162781Y0078911D03*
X0160681Y0075511D03*
X0160681Y0075411D03*
X0160581Y0075311D03*
X0160581Y0075211D03*
X0176481Y0101611D03*
D437*
X0176481Y0101411D03*
X0160481Y0075011D03*
X0160481Y0074911D03*
X0181481Y0065811D03*
D438*
X0181481Y0065911D03*
X0160381Y0074611D03*
X0160381Y0074711D03*
X0156281Y0067811D03*
X0156181Y0067711D03*
X0176481Y0101211D03*
D439*
X0176531Y0101011D03*
X0160231Y0074211D03*
X0160231Y0074111D03*
X0157931Y0070311D03*
X0156631Y0068211D03*
X0156531Y0068111D03*
X0156131Y0067311D03*
X0181431Y0066111D03*
D440*
X0181381Y0066211D03*
X0160181Y0073911D03*
X0160181Y0074011D03*
X0163381Y0079211D03*
X0156781Y0068311D03*
X0156081Y0067211D03*
X0176481Y0100911D03*
D441*
X0176481Y0102411D03*
X0162181Y0078811D03*
X0198381Y0066311D03*
D442*
X0181231Y0066611D03*
X0178531Y0077111D03*
X0178531Y0077211D03*
X0160031Y0073311D03*
X0158131Y0070211D03*
X0157331Y0068811D03*
X0176531Y0100511D03*
D443*
X0176531Y0100311D03*
X0169131Y0088111D03*
X0169031Y0088011D03*
X0178531Y0076911D03*
X0157431Y0068911D03*
X0181231Y0066711D03*
D444*
X0181181Y0066811D03*
X0178581Y0076811D03*
X0163981Y0079511D03*
X0168981Y0087811D03*
X0168981Y0087911D03*
X0169181Y0088211D03*
X0157581Y0069011D03*
D445*
X0198231Y0067011D03*
X0198231Y0066911D03*
X0176531Y0102811D03*
D446*
X0176481Y0100711D03*
X0178481Y0077611D03*
X0178481Y0077511D03*
X0157081Y0068611D03*
X0156981Y0068511D03*
X0156081Y0067111D03*
D447*
X0158031Y0069311D03*
X0178631Y0076111D03*
X0164331Y0079711D03*
X0169831Y0088811D03*
X0170231Y0089411D03*
X0176531Y0099811D03*
X0181031Y0067311D03*
D448*
X0163181Y0079111D03*
X0160281Y0074311D03*
X0156081Y0067411D03*
X0176481Y0101111D03*
D449*
X0164881Y0080011D03*
X0158581Y0069611D03*
D450*
X0159381Y0069911D03*
X0176481Y0098111D03*
D451*
X0176531Y0101311D03*
X0163031Y0079011D03*
X0160431Y0074811D03*
X0157731Y0070411D03*
D452*
X0160531Y0075111D03*
X0176531Y0101511D03*
D453*
X0176481Y0099911D03*
X0170081Y0089311D03*
X0169981Y0089211D03*
X0169981Y0089111D03*
X0169881Y0089011D03*
X0169881Y0088911D03*
X0168781Y0087211D03*
X0178681Y0076211D03*
D454*
X0164481Y0079811D03*
X0169681Y0088411D03*
X0176481Y0099611D03*
D455*
X0176531Y0099011D03*
X0165031Y0080111D03*
D456*
X0183881Y0082211D03*
X0176481Y0094311D03*
D457*
X0183931Y0082311D03*
D458*
X0184281Y0082411D03*
X0176481Y0095311D03*
D459*
X0176531Y0099211D03*
X0186631Y0082511D03*
D460*
X0176481Y0089711D03*
D461*
X0176531Y0089911D03*
D462*
X0176481Y0090311D03*
D463*
X0176481Y0090511D03*
D464*
X0176481Y0090711D03*
D465*
X0176531Y0090911D03*
D466*
X0176481Y0091311D03*
D467*
X0176531Y0091611D03*
D468*
X0176481Y0091811D03*
D469*
X0176481Y0092011D03*
D470*
X0176531Y0092711D03*
D471*
X0176481Y0093311D03*
D472*
X0176531Y0093711D03*
D473*
X0176481Y0093811D03*
D474*
X0176531Y0094411D03*
D475*
X0176481Y0094611D03*
D476*
X0176531Y0094711D03*
D477*
X0176531Y0094911D03*
D478*
X0176481Y0095011D03*
D479*
X0176481Y0095111D03*
D480*
X0176531Y0095211D03*
D481*
X0176531Y0095411D03*
D482*
X0176481Y0095611D03*
D483*
X0176481Y0095811D03*
D484*
X0176531Y0095911D03*
D485*
X0176481Y0096111D03*
D486*
X0176531Y0096211D03*
D487*
X0176481Y0096311D03*
D488*
X0176531Y0096511D03*
D489*
X0176531Y0096711D03*
D490*
X0176481Y0096811D03*
D491*
X0176481Y0097311D03*
D492*
X0176531Y0098211D03*
D493*
X0176531Y0098511D03*
D494*
X0176481Y0099111D03*
D495*
X0176531Y0099311D03*
D496*
X0390262Y0095909D03*
D497*
X0390262Y0058390D03*
D498*
X0360648Y0095909D03*
D499*
X0161121Y0178272D02*
X0146948Y0197957D01*
X0136711Y0188508D01*
X0163483Y0186146D01*
X0146948Y0197957D01*
X0156396Y0203469D02*
X0163483Y0186146D01*
X0161121Y0178272D01*
X0156396Y0203469D01*
X0136711Y0188508D02*
X0161121Y0178272D01*
D500*
X0163010Y0173075D02*
X0165373Y0173075D01*
X0165373Y0173074D02*
X0165447Y0173072D01*
X0165521Y0173066D01*
X0165595Y0173057D01*
X0165668Y0173043D01*
X0165740Y0173026D01*
X0165811Y0173005D01*
X0165881Y0172980D01*
X0165949Y0172951D01*
X0166016Y0172920D01*
X0166082Y0172884D01*
X0166145Y0172845D01*
X0166206Y0172803D01*
X0166265Y0172758D01*
X0166321Y0172710D01*
X0166375Y0172659D01*
X0166426Y0172605D01*
X0166474Y0172549D01*
X0166519Y0172490D01*
X0166561Y0172429D01*
X0166600Y0172366D01*
X0166636Y0172300D01*
X0166667Y0172233D01*
X0166696Y0172165D01*
X0166721Y0172095D01*
X0166742Y0172024D01*
X0166759Y0171952D01*
X0166773Y0171879D01*
X0166782Y0171805D01*
X0166788Y0171731D01*
X0166790Y0171657D01*
X0166790Y0167563D01*
X0166788Y0167489D01*
X0166782Y0167415D01*
X0166773Y0167341D01*
X0166759Y0167268D01*
X0166742Y0167196D01*
X0166721Y0167125D01*
X0166696Y0167055D01*
X0166667Y0166987D01*
X0166636Y0166920D01*
X0166600Y0166855D01*
X0166561Y0166791D01*
X0166519Y0166730D01*
X0166474Y0166671D01*
X0166426Y0166615D01*
X0166375Y0166561D01*
X0166321Y0166510D01*
X0166265Y0166462D01*
X0166206Y0166417D01*
X0166145Y0166375D01*
X0166082Y0166336D01*
X0166016Y0166300D01*
X0165949Y0166269D01*
X0165881Y0166240D01*
X0165811Y0166215D01*
X0165740Y0166194D01*
X0165668Y0166177D01*
X0165595Y0166163D01*
X0165521Y0166154D01*
X0165447Y0166148D01*
X0165373Y0166146D01*
X0163010Y0166146D01*
X0163010Y0173075D01*
X0160491Y0171500D02*
X0160491Y0169610D01*
X0157184Y0169610D01*
X0156711Y0171657D02*
X0156711Y0167563D01*
X0156712Y0167563D02*
X0156714Y0167489D01*
X0156720Y0167415D01*
X0156729Y0167341D01*
X0156743Y0167268D01*
X0156760Y0167196D01*
X0156781Y0167125D01*
X0156806Y0167055D01*
X0156835Y0166987D01*
X0156866Y0166920D01*
X0156902Y0166855D01*
X0156941Y0166791D01*
X0156983Y0166730D01*
X0157028Y0166671D01*
X0157076Y0166615D01*
X0157127Y0166561D01*
X0157181Y0166510D01*
X0157237Y0166462D01*
X0157296Y0166417D01*
X0157357Y0166375D01*
X0157421Y0166336D01*
X0157486Y0166300D01*
X0157553Y0166269D01*
X0157621Y0166240D01*
X0157691Y0166215D01*
X0157762Y0166194D01*
X0157834Y0166177D01*
X0157907Y0166163D01*
X0157981Y0166154D01*
X0158055Y0166148D01*
X0158129Y0166146D01*
X0159546Y0166146D01*
X0159592Y0166148D01*
X0159637Y0166154D01*
X0159681Y0166163D01*
X0159725Y0166176D01*
X0159767Y0166192D01*
X0159808Y0166212D01*
X0159847Y0166236D01*
X0159884Y0166262D01*
X0159919Y0166292D01*
X0159951Y0166324D01*
X0159981Y0166359D01*
X0160007Y0166396D01*
X0160031Y0166435D01*
X0160051Y0166476D01*
X0160067Y0166518D01*
X0160080Y0166562D01*
X0160089Y0166606D01*
X0160095Y0166651D01*
X0160097Y0166697D01*
X0163010Y0166067D02*
X0163010Y0161972D01*
X0169625Y0166224D02*
X0169625Y0177406D01*
X0170176Y0173075D02*
X0171987Y0173075D01*
X0171987Y0173074D02*
X0172061Y0173072D01*
X0172135Y0173066D01*
X0172209Y0173057D01*
X0172282Y0173043D01*
X0172354Y0173026D01*
X0172425Y0173005D01*
X0172495Y0172980D01*
X0172563Y0172951D01*
X0172630Y0172920D01*
X0172696Y0172884D01*
X0172759Y0172845D01*
X0172820Y0172803D01*
X0172879Y0172758D01*
X0172935Y0172710D01*
X0172989Y0172659D01*
X0173040Y0172605D01*
X0173088Y0172549D01*
X0173133Y0172490D01*
X0173175Y0172429D01*
X0173214Y0172366D01*
X0173250Y0172300D01*
X0173281Y0172233D01*
X0173310Y0172165D01*
X0173335Y0172095D01*
X0173356Y0172024D01*
X0173373Y0171952D01*
X0173387Y0171879D01*
X0173396Y0171805D01*
X0173402Y0171731D01*
X0173404Y0171657D01*
X0173483Y0166146D01*
X0177814Y0166224D02*
X0175215Y0173783D01*
X0180255Y0173783D02*
X0176948Y0163154D01*
X0176869Y0162996D02*
X0176318Y0162209D01*
X0175609Y0162051D01*
X0175215Y0162051D01*
X0182066Y0166539D02*
X0182066Y0166697D01*
X0182066Y0166539D02*
X0182223Y0166303D01*
X0182617Y0166067D01*
X0182932Y0165909D01*
X0183010Y0165909D02*
X0183955Y0165909D01*
X0183955Y0165910D02*
X0184029Y0165912D01*
X0184103Y0165918D01*
X0184177Y0165927D01*
X0184250Y0165941D01*
X0184322Y0165958D01*
X0184393Y0165979D01*
X0184463Y0166004D01*
X0184531Y0166033D01*
X0184598Y0166064D01*
X0184664Y0166100D01*
X0184727Y0166139D01*
X0184788Y0166181D01*
X0184847Y0166226D01*
X0184903Y0166274D01*
X0184957Y0166325D01*
X0185008Y0166379D01*
X0185056Y0166435D01*
X0185101Y0166494D01*
X0185143Y0166555D01*
X0185182Y0166619D01*
X0185218Y0166684D01*
X0185249Y0166751D01*
X0185278Y0166819D01*
X0185303Y0166889D01*
X0185324Y0166960D01*
X0185341Y0167032D01*
X0185355Y0167105D01*
X0185364Y0167179D01*
X0185370Y0167253D01*
X0185372Y0167327D01*
X0185373Y0167406D02*
X0185373Y0167799D01*
X0185294Y0168193D01*
X0184585Y0168902D01*
X0183325Y0169846D01*
X0183562Y0169689D02*
X0182302Y0170634D01*
X0181987Y0171106D01*
X0181908Y0171500D01*
X0181908Y0171894D01*
X0181908Y0171972D02*
X0181910Y0172046D01*
X0181916Y0172120D01*
X0181925Y0172194D01*
X0181939Y0172267D01*
X0181956Y0172339D01*
X0181977Y0172410D01*
X0182002Y0172480D01*
X0182031Y0172548D01*
X0182062Y0172615D01*
X0182098Y0172681D01*
X0182137Y0172744D01*
X0182179Y0172805D01*
X0182224Y0172864D01*
X0182272Y0172920D01*
X0182323Y0172974D01*
X0182377Y0173025D01*
X0182433Y0173073D01*
X0182492Y0173118D01*
X0182553Y0173160D01*
X0182617Y0173199D01*
X0182682Y0173235D01*
X0182749Y0173266D01*
X0182817Y0173295D01*
X0182887Y0173320D01*
X0182958Y0173341D01*
X0183030Y0173358D01*
X0183103Y0173372D01*
X0183177Y0173381D01*
X0183251Y0173387D01*
X0183325Y0173389D01*
X0183325Y0173390D02*
X0184270Y0173390D01*
X0184349Y0173390D02*
X0184664Y0173232D01*
X0185058Y0172996D01*
X0185215Y0172760D01*
X0185215Y0172602D01*
X0159073Y0173075D02*
X0158129Y0173075D01*
X0158129Y0173074D02*
X0158055Y0173072D01*
X0157981Y0173066D01*
X0157907Y0173057D01*
X0157834Y0173043D01*
X0157762Y0173026D01*
X0157691Y0173005D01*
X0157621Y0172980D01*
X0157553Y0172951D01*
X0157486Y0172920D01*
X0157421Y0172884D01*
X0157357Y0172845D01*
X0157296Y0172803D01*
X0157237Y0172758D01*
X0157181Y0172710D01*
X0157127Y0172659D01*
X0157076Y0172605D01*
X0157028Y0172549D01*
X0156983Y0172490D01*
X0156941Y0172429D01*
X0156902Y0172366D01*
X0156866Y0172300D01*
X0156835Y0172233D01*
X0156806Y0172165D01*
X0156781Y0172095D01*
X0156760Y0172024D01*
X0156743Y0171952D01*
X0156729Y0171879D01*
X0156720Y0171805D01*
X0156714Y0171731D01*
X0156712Y0171657D01*
X0159073Y0173074D02*
X0159147Y0173072D01*
X0159221Y0173066D01*
X0159295Y0173057D01*
X0159368Y0173043D01*
X0159440Y0173026D01*
X0159511Y0173005D01*
X0159581Y0172980D01*
X0159649Y0172951D01*
X0159716Y0172920D01*
X0159782Y0172884D01*
X0159845Y0172845D01*
X0159906Y0172803D01*
X0159965Y0172758D01*
X0160021Y0172710D01*
X0160075Y0172659D01*
X0160126Y0172605D01*
X0160174Y0172549D01*
X0160219Y0172490D01*
X0160261Y0172429D01*
X0160300Y0172366D01*
X0160336Y0172300D01*
X0160367Y0172233D01*
X0160396Y0172165D01*
X0160421Y0172095D01*
X0160442Y0172024D01*
X0160459Y0171952D01*
X0160473Y0171879D01*
X0160482Y0171805D01*
X0160488Y0171731D01*
X0160490Y0171657D01*
X0151042Y0171657D02*
X0151042Y0166146D01*
X0147262Y0166146D02*
X0147262Y0173075D01*
X0149625Y0173075D01*
X0149625Y0173074D02*
X0149699Y0173072D01*
X0149773Y0173066D01*
X0149847Y0173057D01*
X0149920Y0173043D01*
X0149992Y0173026D01*
X0150063Y0173005D01*
X0150133Y0172980D01*
X0150201Y0172951D01*
X0150268Y0172920D01*
X0150334Y0172884D01*
X0150397Y0172845D01*
X0150458Y0172803D01*
X0150517Y0172758D01*
X0150573Y0172710D01*
X0150627Y0172659D01*
X0150678Y0172605D01*
X0150726Y0172549D01*
X0150771Y0172490D01*
X0150813Y0172429D01*
X0150852Y0172366D01*
X0150888Y0172300D01*
X0150919Y0172233D01*
X0150948Y0172165D01*
X0150973Y0172095D01*
X0150994Y0172024D01*
X0151011Y0171952D01*
X0151025Y0171879D01*
X0151034Y0171805D01*
X0151040Y0171731D01*
X0151042Y0171657D01*
X0144585Y0171500D02*
X0144585Y0169610D01*
X0141278Y0169610D01*
X0140806Y0171657D02*
X0140806Y0167563D01*
X0140808Y0167489D01*
X0140814Y0167415D01*
X0140823Y0167341D01*
X0140837Y0167268D01*
X0140854Y0167196D01*
X0140875Y0167125D01*
X0140900Y0167055D01*
X0140929Y0166987D01*
X0140960Y0166920D01*
X0140996Y0166855D01*
X0141035Y0166791D01*
X0141077Y0166730D01*
X0141122Y0166671D01*
X0141170Y0166615D01*
X0141221Y0166561D01*
X0141275Y0166510D01*
X0141331Y0166462D01*
X0141390Y0166417D01*
X0141451Y0166375D01*
X0141515Y0166336D01*
X0141580Y0166300D01*
X0141647Y0166269D01*
X0141715Y0166240D01*
X0141785Y0166215D01*
X0141856Y0166194D01*
X0141928Y0166177D01*
X0142001Y0166163D01*
X0142075Y0166154D01*
X0142149Y0166148D01*
X0142223Y0166146D01*
X0143640Y0166146D01*
X0143686Y0166148D01*
X0143731Y0166154D01*
X0143775Y0166163D01*
X0143819Y0166176D01*
X0143861Y0166192D01*
X0143902Y0166212D01*
X0143941Y0166236D01*
X0143978Y0166262D01*
X0144013Y0166292D01*
X0144045Y0166324D01*
X0144075Y0166359D01*
X0144101Y0166396D01*
X0144125Y0166435D01*
X0144145Y0166476D01*
X0144161Y0166518D01*
X0144174Y0166562D01*
X0144183Y0166606D01*
X0144189Y0166651D01*
X0144191Y0166697D01*
X0138207Y0167563D02*
X0138207Y0171657D01*
X0138205Y0171731D01*
X0138199Y0171805D01*
X0138190Y0171879D01*
X0138176Y0171952D01*
X0138159Y0172024D01*
X0138138Y0172095D01*
X0138113Y0172165D01*
X0138084Y0172233D01*
X0138053Y0172300D01*
X0138017Y0172366D01*
X0137978Y0172429D01*
X0137936Y0172490D01*
X0137891Y0172549D01*
X0137843Y0172605D01*
X0137792Y0172659D01*
X0137738Y0172710D01*
X0137682Y0172758D01*
X0137623Y0172803D01*
X0137562Y0172845D01*
X0137499Y0172884D01*
X0137433Y0172920D01*
X0137366Y0172951D01*
X0137298Y0172980D01*
X0137228Y0173005D01*
X0137157Y0173026D01*
X0137085Y0173043D01*
X0137012Y0173057D01*
X0136938Y0173066D01*
X0136864Y0173072D01*
X0136790Y0173074D01*
X0136790Y0173075D02*
X0134428Y0173075D01*
X0134428Y0166146D01*
X0136790Y0166146D01*
X0136864Y0166148D01*
X0136938Y0166154D01*
X0137012Y0166163D01*
X0137085Y0166177D01*
X0137157Y0166194D01*
X0137228Y0166215D01*
X0137298Y0166240D01*
X0137366Y0166269D01*
X0137433Y0166300D01*
X0137499Y0166336D01*
X0137562Y0166375D01*
X0137623Y0166417D01*
X0137682Y0166462D01*
X0137738Y0166510D01*
X0137792Y0166561D01*
X0137843Y0166615D01*
X0137891Y0166671D01*
X0137936Y0166730D01*
X0137978Y0166791D01*
X0138017Y0166855D01*
X0138053Y0166920D01*
X0138084Y0166987D01*
X0138113Y0167055D01*
X0138138Y0167125D01*
X0138159Y0167196D01*
X0138176Y0167268D01*
X0138190Y0167341D01*
X0138199Y0167415D01*
X0138205Y0167489D01*
X0138207Y0167563D01*
X0134428Y0166067D02*
X0134428Y0161972D01*
X0130255Y0166146D02*
X0129507Y0166146D01*
X0129467Y0166146D02*
X0129393Y0166148D01*
X0129319Y0166154D01*
X0129245Y0166163D01*
X0129172Y0166177D01*
X0129100Y0166194D01*
X0129029Y0166215D01*
X0128959Y0166240D01*
X0128891Y0166269D01*
X0128824Y0166300D01*
X0128759Y0166336D01*
X0128695Y0166375D01*
X0128634Y0166417D01*
X0128575Y0166462D01*
X0128519Y0166510D01*
X0128465Y0166561D01*
X0128414Y0166615D01*
X0128366Y0166671D01*
X0128321Y0166730D01*
X0128279Y0166791D01*
X0128240Y0166855D01*
X0128204Y0166920D01*
X0128173Y0166987D01*
X0128144Y0167055D01*
X0128119Y0167125D01*
X0128098Y0167196D01*
X0128081Y0167268D01*
X0128067Y0167341D01*
X0128058Y0167415D01*
X0128052Y0167489D01*
X0128050Y0167563D01*
X0128050Y0171657D01*
X0128052Y0171731D01*
X0128058Y0171805D01*
X0128067Y0171879D01*
X0128081Y0171952D01*
X0128098Y0172024D01*
X0128119Y0172095D01*
X0128144Y0172165D01*
X0128173Y0172233D01*
X0128204Y0172300D01*
X0128240Y0172366D01*
X0128279Y0172429D01*
X0128321Y0172490D01*
X0128366Y0172549D01*
X0128414Y0172605D01*
X0128465Y0172659D01*
X0128519Y0172710D01*
X0128575Y0172758D01*
X0128634Y0172803D01*
X0128695Y0172845D01*
X0128759Y0172884D01*
X0128824Y0172920D01*
X0128891Y0172951D01*
X0128959Y0172980D01*
X0129029Y0173005D01*
X0129100Y0173026D01*
X0129172Y0173043D01*
X0129245Y0173057D01*
X0129319Y0173066D01*
X0129393Y0173072D01*
X0129467Y0173074D01*
X0129585Y0173075D02*
X0130373Y0173075D01*
X0130373Y0173074D02*
X0130447Y0173072D01*
X0130521Y0173066D01*
X0130595Y0173057D01*
X0130668Y0173043D01*
X0130740Y0173026D01*
X0130811Y0173005D01*
X0130881Y0172980D01*
X0130949Y0172951D01*
X0131016Y0172920D01*
X0131082Y0172884D01*
X0131145Y0172845D01*
X0131206Y0172803D01*
X0131265Y0172758D01*
X0131321Y0172710D01*
X0131375Y0172659D01*
X0131426Y0172605D01*
X0131474Y0172549D01*
X0131519Y0172490D01*
X0131561Y0172429D01*
X0131600Y0172366D01*
X0131636Y0172300D01*
X0131667Y0172233D01*
X0131696Y0172165D01*
X0131721Y0172095D01*
X0131742Y0172024D01*
X0131759Y0171952D01*
X0131773Y0171879D01*
X0131782Y0171805D01*
X0131788Y0171731D01*
X0131790Y0171657D01*
X0131790Y0167563D01*
X0131788Y0167489D01*
X0131782Y0167415D01*
X0131773Y0167341D01*
X0131759Y0167268D01*
X0131742Y0167196D01*
X0131721Y0167125D01*
X0131696Y0167055D01*
X0131667Y0166987D01*
X0131636Y0166920D01*
X0131600Y0166855D01*
X0131561Y0166791D01*
X0131519Y0166730D01*
X0131474Y0166671D01*
X0131426Y0166615D01*
X0131375Y0166561D01*
X0131321Y0166510D01*
X0131265Y0166462D01*
X0131206Y0166417D01*
X0131145Y0166375D01*
X0131082Y0166336D01*
X0131016Y0166300D01*
X0130949Y0166269D01*
X0130881Y0166240D01*
X0130811Y0166215D01*
X0130740Y0166194D01*
X0130668Y0166177D01*
X0130595Y0166163D01*
X0130521Y0166154D01*
X0130447Y0166148D01*
X0130373Y0166146D01*
X0140806Y0171657D02*
X0140808Y0171731D01*
X0140814Y0171805D01*
X0140823Y0171879D01*
X0140837Y0171952D01*
X0140854Y0172024D01*
X0140875Y0172095D01*
X0140900Y0172165D01*
X0140929Y0172233D01*
X0140960Y0172300D01*
X0140996Y0172366D01*
X0141035Y0172429D01*
X0141077Y0172490D01*
X0141122Y0172549D01*
X0141170Y0172605D01*
X0141221Y0172659D01*
X0141275Y0172710D01*
X0141331Y0172758D01*
X0141390Y0172803D01*
X0141451Y0172845D01*
X0141515Y0172884D01*
X0141580Y0172920D01*
X0141647Y0172951D01*
X0141715Y0172980D01*
X0141785Y0173005D01*
X0141856Y0173026D01*
X0141928Y0173043D01*
X0142001Y0173057D01*
X0142075Y0173066D01*
X0142149Y0173072D01*
X0142223Y0173074D01*
X0142223Y0173075D02*
X0143168Y0173075D01*
X0143168Y0173074D02*
X0143242Y0173072D01*
X0143316Y0173066D01*
X0143390Y0173057D01*
X0143463Y0173043D01*
X0143535Y0173026D01*
X0143606Y0173005D01*
X0143676Y0172980D01*
X0143744Y0172951D01*
X0143811Y0172920D01*
X0143877Y0172884D01*
X0143940Y0172845D01*
X0144001Y0172803D01*
X0144060Y0172758D01*
X0144116Y0172710D01*
X0144170Y0172659D01*
X0144221Y0172605D01*
X0144269Y0172549D01*
X0144314Y0172490D01*
X0144356Y0172429D01*
X0144395Y0172366D01*
X0144431Y0172300D01*
X0144462Y0172233D01*
X0144491Y0172165D01*
X0144516Y0172095D01*
X0144537Y0172024D01*
X0144554Y0171952D01*
X0144568Y0171879D01*
X0144577Y0171805D01*
X0144583Y0171731D01*
X0144585Y0171657D01*
D501*
X0049392Y0035634D03*
X0049392Y0134020D03*
X0049392Y0173429D03*
X0049392Y0271815D03*
X0525770Y0271815D03*
X0525770Y0173429D03*
X0525770Y0134020D03*
X0525770Y0035634D03*
M02*
