G75*
%MOIN*%
%OFA0B0*%
%FSLAX24Y24*%
%IPPOS*%
%LPD*%
%AMOC8*
5,1,8,0,0,1.08239X$1,22.5*
%
%ADD10C,0.4646*%
%ADD11C,0.2009*%
%ADD12C,0.2697*%
%ADD13C,0.1221*%
%ADD14C,0.4174*%
%ADD15C,0.3386*%
%ADD16R,0.2362X1.3780*%
%ADD17R,0.3543X0.3543*%
%ADD18R,0.3543X0.3150*%
%ADD19R,0.3150X0.3150*%
%ADD20R,0.3150X0.1575*%
%ADD21R,5.2362X0.0787*%
%ADD22C,0.2205*%
D10*
X006197Y010103D03*
X012797Y010103D03*
X019397Y010103D03*
X025997Y010103D03*
X014847Y024867D03*
X008197Y024867D03*
D11*
X031697Y009532D03*
D12*
X037097Y010319D03*
X042997Y009985D03*
D13*
X047197Y009516D03*
X049297Y009516D03*
X049297Y011315D03*
X047197Y011315D03*
D14*
X036797Y026489D03*
X029297Y026489D03*
D15*
X047274Y020780D03*
D16*
X052197Y022985D03*
X052197Y008221D03*
X002197Y008221D03*
X002197Y022985D03*
D17*
X002788Y003103D03*
X002788Y017867D03*
X051607Y017867D03*
X051607Y003103D03*
D18*
X002788Y013536D03*
X002788Y028300D03*
D19*
X051804Y028300D03*
X051804Y013536D03*
D20*
X037630Y018851D03*
X021882Y018851D03*
X015977Y004087D03*
X047473Y004087D03*
D21*
X027197Y001725D03*
X027197Y014717D03*
X027197Y016489D03*
X027197Y029481D03*
D22*
X050985Y028166D03*
X050985Y018327D03*
X050985Y013402D03*
X050985Y003563D03*
X003347Y003563D03*
X003347Y013402D03*
X003347Y018327D03*
X003347Y028166D03*
M02*
