G75*
%MOIN*%
%OFA0B0*%
%FSLAX24Y24*%
%IPPOS*%
%LPD*%
%AMOC8*
5,1,8,0,0,1.08239X$1,22.5*
%
%ADD10C,0.0000*%
D10*
X002237Y001331D02*
X052197Y001331D01*
X052263Y001333D01*
X052329Y001338D01*
X052395Y001348D01*
X052460Y001361D01*
X052524Y001377D01*
X052587Y001397D01*
X052649Y001421D01*
X052709Y001448D01*
X052768Y001478D01*
X052825Y001512D01*
X052880Y001549D01*
X052933Y001589D01*
X052984Y001631D01*
X053032Y001677D01*
X053078Y001725D01*
X053120Y001776D01*
X053160Y001829D01*
X053197Y001884D01*
X053231Y001941D01*
X053261Y002000D01*
X053288Y002060D01*
X053312Y002122D01*
X053332Y002185D01*
X053348Y002249D01*
X053361Y002314D01*
X053371Y002380D01*
X053376Y002446D01*
X053378Y002512D01*
X053378Y003693D01*
X052591Y003300D01*
X052591Y007040D01*
X053378Y006646D01*
X053378Y009894D01*
X052591Y009500D01*
X052591Y013241D01*
X053378Y012847D01*
X053378Y013930D01*
X053376Y013996D01*
X053371Y014062D01*
X053361Y014128D01*
X053348Y014193D01*
X053332Y014257D01*
X053312Y014320D01*
X053288Y014382D01*
X053261Y014442D01*
X053231Y014501D01*
X053197Y014558D01*
X053160Y014613D01*
X053120Y014666D01*
X053078Y014717D01*
X053032Y014765D01*
X052984Y014811D01*
X052933Y014853D01*
X052880Y014893D01*
X052825Y014930D01*
X052768Y014964D01*
X052709Y014994D01*
X052649Y015021D01*
X052587Y015045D01*
X052524Y015065D01*
X052460Y015081D01*
X052395Y015094D01*
X052329Y015104D01*
X052263Y015109D01*
X052197Y015111D01*
X002237Y015111D01*
X002237Y016095D02*
X052197Y016095D01*
X052263Y016097D01*
X052329Y016102D01*
X052395Y016112D01*
X052460Y016125D01*
X052524Y016141D01*
X052587Y016161D01*
X052649Y016185D01*
X052709Y016212D01*
X052768Y016242D01*
X052825Y016276D01*
X052880Y016313D01*
X052933Y016353D01*
X052984Y016395D01*
X053032Y016441D01*
X053078Y016489D01*
X053120Y016540D01*
X053160Y016593D01*
X053197Y016648D01*
X053231Y016705D01*
X053261Y016764D01*
X053288Y016824D01*
X053312Y016886D01*
X053332Y016949D01*
X053348Y017013D01*
X053361Y017078D01*
X053371Y017144D01*
X053376Y017210D01*
X053378Y017276D01*
X053378Y018457D01*
X052591Y018063D01*
X052591Y021804D01*
X053378Y021410D01*
X053378Y024658D01*
X052591Y024264D01*
X052591Y028004D01*
X053378Y027611D01*
X053378Y028693D01*
X053376Y028759D01*
X053371Y028825D01*
X053361Y028891D01*
X053348Y028956D01*
X053332Y029020D01*
X053312Y029083D01*
X053288Y029145D01*
X053261Y029205D01*
X053231Y029264D01*
X053197Y029321D01*
X053160Y029376D01*
X053120Y029429D01*
X053078Y029480D01*
X053032Y029528D01*
X052984Y029574D01*
X052933Y029616D01*
X052880Y029656D01*
X052825Y029693D01*
X052768Y029727D01*
X052709Y029757D01*
X052649Y029784D01*
X052587Y029808D01*
X052524Y029828D01*
X052460Y029844D01*
X052395Y029857D01*
X052329Y029867D01*
X052263Y029872D01*
X052197Y029874D01*
X002237Y029874D01*
X002171Y029872D01*
X002105Y029867D01*
X002039Y029857D01*
X001974Y029844D01*
X001910Y029828D01*
X001847Y029808D01*
X001785Y029784D01*
X001725Y029757D01*
X001666Y029727D01*
X001609Y029693D01*
X001554Y029656D01*
X001501Y029616D01*
X001450Y029574D01*
X001402Y029528D01*
X001356Y029480D01*
X001314Y029429D01*
X001274Y029376D01*
X001237Y029321D01*
X001203Y029264D01*
X001173Y029205D01*
X001146Y029145D01*
X001122Y029083D01*
X001102Y029020D01*
X001086Y028956D01*
X001073Y028891D01*
X001063Y028825D01*
X001058Y028759D01*
X001056Y028693D01*
X001056Y027611D01*
X001843Y028004D01*
X001843Y024264D01*
X001056Y024658D01*
X001056Y021410D01*
X001843Y021804D01*
X001843Y018063D01*
X001056Y018457D01*
X001056Y017276D01*
X001058Y017210D01*
X001063Y017144D01*
X001073Y017078D01*
X001086Y017013D01*
X001102Y016949D01*
X001122Y016886D01*
X001146Y016824D01*
X001173Y016764D01*
X001203Y016705D01*
X001237Y016648D01*
X001274Y016593D01*
X001314Y016540D01*
X001356Y016489D01*
X001402Y016441D01*
X001450Y016395D01*
X001501Y016353D01*
X001554Y016313D01*
X001609Y016276D01*
X001666Y016242D01*
X001725Y016212D01*
X001785Y016185D01*
X001847Y016161D01*
X001910Y016141D01*
X001974Y016125D01*
X002039Y016112D01*
X002105Y016102D01*
X002171Y016097D01*
X002237Y016095D01*
X002237Y015111D02*
X002171Y015109D01*
X002105Y015104D01*
X002039Y015094D01*
X001974Y015081D01*
X001910Y015065D01*
X001847Y015045D01*
X001785Y015021D01*
X001725Y014994D01*
X001666Y014964D01*
X001609Y014930D01*
X001554Y014893D01*
X001501Y014853D01*
X001450Y014811D01*
X001402Y014765D01*
X001356Y014717D01*
X001314Y014666D01*
X001274Y014613D01*
X001237Y014558D01*
X001203Y014501D01*
X001173Y014442D01*
X001146Y014382D01*
X001122Y014320D01*
X001102Y014257D01*
X001086Y014193D01*
X001073Y014128D01*
X001063Y014062D01*
X001058Y013996D01*
X001056Y013930D01*
X001056Y012847D01*
X001843Y013241D01*
X001843Y009500D01*
X001056Y009894D01*
X001056Y006646D01*
X001843Y007040D01*
X001843Y003300D01*
X001056Y003693D01*
X001056Y002512D01*
X001058Y002446D01*
X001063Y002380D01*
X001073Y002314D01*
X001086Y002249D01*
X001102Y002185D01*
X001122Y002122D01*
X001146Y002060D01*
X001173Y002000D01*
X001203Y001941D01*
X001237Y001884D01*
X001274Y001829D01*
X001314Y001776D01*
X001356Y001725D01*
X001402Y001677D01*
X001450Y001631D01*
X001501Y001589D01*
X001554Y001549D01*
X001609Y001512D01*
X001666Y001478D01*
X001725Y001448D01*
X001785Y001421D01*
X001847Y001397D01*
X001910Y001377D01*
X001974Y001361D01*
X002039Y001348D01*
X002105Y001338D01*
X002171Y001333D01*
X002237Y001331D01*
X008996Y004540D02*
X008996Y007256D01*
X008998Y007282D01*
X009003Y007307D01*
X009011Y007331D01*
X009022Y007355D01*
X009037Y007376D01*
X009054Y007395D01*
X009073Y007412D01*
X009095Y007427D01*
X009118Y007438D01*
X009142Y007446D01*
X009167Y007451D01*
X009193Y007453D01*
X009823Y007453D01*
X009849Y007451D01*
X009874Y007446D01*
X009898Y007438D01*
X009922Y007427D01*
X009943Y007412D01*
X009962Y007395D01*
X009979Y007376D01*
X009994Y007355D01*
X010005Y007331D01*
X010013Y007307D01*
X010018Y007282D01*
X010020Y007256D01*
X010020Y004540D01*
X010018Y004514D01*
X010013Y004489D01*
X010005Y004465D01*
X009994Y004442D01*
X009979Y004420D01*
X009962Y004401D01*
X009943Y004384D01*
X009922Y004369D01*
X009898Y004358D01*
X009874Y004350D01*
X009849Y004345D01*
X009823Y004343D01*
X009193Y004343D01*
X009167Y004345D01*
X009142Y004350D01*
X009118Y004358D01*
X009095Y004369D01*
X009073Y004384D01*
X009054Y004401D01*
X009037Y004420D01*
X009022Y004442D01*
X009011Y004465D01*
X009003Y004489D01*
X008998Y004514D01*
X008996Y004540D01*
X003894Y010103D02*
X003896Y010199D01*
X003902Y010294D01*
X003912Y010390D01*
X003926Y010485D01*
X003944Y010579D01*
X003965Y010672D01*
X003991Y010764D01*
X004020Y010856D01*
X004054Y010945D01*
X004091Y011034D01*
X004131Y011121D01*
X004175Y011206D01*
X004223Y011289D01*
X004274Y011370D01*
X004328Y011449D01*
X004386Y011525D01*
X004447Y011600D01*
X004510Y011671D01*
X004577Y011740D01*
X004647Y011806D01*
X004719Y011869D01*
X004793Y011929D01*
X004871Y011986D01*
X004950Y012039D01*
X005032Y012089D01*
X005115Y012136D01*
X005201Y012179D01*
X005288Y012219D01*
X005377Y012255D01*
X005467Y012287D01*
X005559Y012316D01*
X005651Y012340D01*
X005745Y012361D01*
X005839Y012378D01*
X005934Y012391D01*
X006029Y012400D01*
X006125Y012405D01*
X006221Y012406D01*
X006317Y012403D01*
X006412Y012396D01*
X006507Y012385D01*
X006602Y012370D01*
X006696Y012351D01*
X006789Y012329D01*
X006881Y012302D01*
X006972Y012272D01*
X007062Y012238D01*
X007150Y012200D01*
X007236Y012158D01*
X007321Y012113D01*
X007403Y012065D01*
X007484Y012013D01*
X007562Y011958D01*
X007638Y011899D01*
X007712Y011838D01*
X007783Y011773D01*
X007851Y011706D01*
X007916Y011636D01*
X007978Y011563D01*
X008037Y011487D01*
X008093Y011410D01*
X008146Y011330D01*
X008195Y011248D01*
X008241Y011163D01*
X008284Y011077D01*
X008322Y010990D01*
X008357Y010901D01*
X008389Y010810D01*
X008416Y010718D01*
X008440Y010625D01*
X008460Y010532D01*
X008476Y010437D01*
X008488Y010342D01*
X008496Y010247D01*
X008500Y010151D01*
X008500Y010055D01*
X008496Y009959D01*
X008488Y009864D01*
X008476Y009769D01*
X008460Y009674D01*
X008440Y009581D01*
X008416Y009488D01*
X008389Y009396D01*
X008357Y009305D01*
X008322Y009216D01*
X008284Y009129D01*
X008241Y009043D01*
X008195Y008958D01*
X008146Y008876D01*
X008093Y008796D01*
X008037Y008719D01*
X007978Y008643D01*
X007916Y008570D01*
X007851Y008500D01*
X007783Y008433D01*
X007712Y008368D01*
X007638Y008307D01*
X007562Y008248D01*
X007484Y008193D01*
X007403Y008141D01*
X007321Y008093D01*
X007236Y008048D01*
X007150Y008006D01*
X007062Y007968D01*
X006972Y007934D01*
X006881Y007904D01*
X006789Y007877D01*
X006696Y007855D01*
X006602Y007836D01*
X006507Y007821D01*
X006412Y007810D01*
X006317Y007803D01*
X006221Y007800D01*
X006125Y007801D01*
X006029Y007806D01*
X005934Y007815D01*
X005839Y007828D01*
X005745Y007845D01*
X005651Y007866D01*
X005559Y007890D01*
X005467Y007919D01*
X005377Y007951D01*
X005288Y007987D01*
X005201Y008027D01*
X005115Y008070D01*
X005032Y008117D01*
X004950Y008167D01*
X004871Y008220D01*
X004793Y008277D01*
X004719Y008337D01*
X004647Y008400D01*
X004577Y008466D01*
X004510Y008535D01*
X004447Y008606D01*
X004386Y008681D01*
X004328Y008757D01*
X004274Y008836D01*
X004223Y008917D01*
X004175Y009000D01*
X004131Y009085D01*
X004091Y009172D01*
X004054Y009261D01*
X004020Y009350D01*
X003991Y009442D01*
X003965Y009534D01*
X003944Y009627D01*
X003926Y009721D01*
X003912Y009816D01*
X003902Y009912D01*
X003896Y010007D01*
X003894Y010103D01*
X010494Y010103D02*
X010496Y010199D01*
X010502Y010294D01*
X010512Y010390D01*
X010526Y010485D01*
X010544Y010579D01*
X010565Y010672D01*
X010591Y010764D01*
X010620Y010856D01*
X010654Y010945D01*
X010691Y011034D01*
X010731Y011121D01*
X010775Y011206D01*
X010823Y011289D01*
X010874Y011370D01*
X010928Y011449D01*
X010986Y011525D01*
X011047Y011600D01*
X011110Y011671D01*
X011177Y011740D01*
X011247Y011806D01*
X011319Y011869D01*
X011393Y011929D01*
X011471Y011986D01*
X011550Y012039D01*
X011632Y012089D01*
X011715Y012136D01*
X011801Y012179D01*
X011888Y012219D01*
X011977Y012255D01*
X012067Y012287D01*
X012159Y012316D01*
X012251Y012340D01*
X012345Y012361D01*
X012439Y012378D01*
X012534Y012391D01*
X012629Y012400D01*
X012725Y012405D01*
X012821Y012406D01*
X012917Y012403D01*
X013012Y012396D01*
X013107Y012385D01*
X013202Y012370D01*
X013296Y012351D01*
X013389Y012329D01*
X013481Y012302D01*
X013572Y012272D01*
X013662Y012238D01*
X013750Y012200D01*
X013836Y012158D01*
X013921Y012113D01*
X014003Y012065D01*
X014084Y012013D01*
X014162Y011958D01*
X014238Y011899D01*
X014312Y011838D01*
X014383Y011773D01*
X014451Y011706D01*
X014516Y011636D01*
X014578Y011563D01*
X014637Y011487D01*
X014693Y011410D01*
X014746Y011330D01*
X014795Y011248D01*
X014841Y011163D01*
X014884Y011077D01*
X014922Y010990D01*
X014957Y010901D01*
X014989Y010810D01*
X015016Y010718D01*
X015040Y010625D01*
X015060Y010532D01*
X015076Y010437D01*
X015088Y010342D01*
X015096Y010247D01*
X015100Y010151D01*
X015100Y010055D01*
X015096Y009959D01*
X015088Y009864D01*
X015076Y009769D01*
X015060Y009674D01*
X015040Y009581D01*
X015016Y009488D01*
X014989Y009396D01*
X014957Y009305D01*
X014922Y009216D01*
X014884Y009129D01*
X014841Y009043D01*
X014795Y008958D01*
X014746Y008876D01*
X014693Y008796D01*
X014637Y008719D01*
X014578Y008643D01*
X014516Y008570D01*
X014451Y008500D01*
X014383Y008433D01*
X014312Y008368D01*
X014238Y008307D01*
X014162Y008248D01*
X014084Y008193D01*
X014003Y008141D01*
X013921Y008093D01*
X013836Y008048D01*
X013750Y008006D01*
X013662Y007968D01*
X013572Y007934D01*
X013481Y007904D01*
X013389Y007877D01*
X013296Y007855D01*
X013202Y007836D01*
X013107Y007821D01*
X013012Y007810D01*
X012917Y007803D01*
X012821Y007800D01*
X012725Y007801D01*
X012629Y007806D01*
X012534Y007815D01*
X012439Y007828D01*
X012345Y007845D01*
X012251Y007866D01*
X012159Y007890D01*
X012067Y007919D01*
X011977Y007951D01*
X011888Y007987D01*
X011801Y008027D01*
X011715Y008070D01*
X011632Y008117D01*
X011550Y008167D01*
X011471Y008220D01*
X011393Y008277D01*
X011319Y008337D01*
X011247Y008400D01*
X011177Y008466D01*
X011110Y008535D01*
X011047Y008606D01*
X010986Y008681D01*
X010928Y008757D01*
X010874Y008836D01*
X010823Y008917D01*
X010775Y009000D01*
X010731Y009085D01*
X010691Y009172D01*
X010654Y009261D01*
X010620Y009350D01*
X010591Y009442D01*
X010565Y009534D01*
X010544Y009627D01*
X010526Y009721D01*
X010512Y009816D01*
X010502Y009912D01*
X010496Y010007D01*
X010494Y010103D01*
X017094Y010103D02*
X017096Y010199D01*
X017102Y010294D01*
X017112Y010390D01*
X017126Y010485D01*
X017144Y010579D01*
X017165Y010672D01*
X017191Y010764D01*
X017220Y010856D01*
X017254Y010945D01*
X017291Y011034D01*
X017331Y011121D01*
X017375Y011206D01*
X017423Y011289D01*
X017474Y011370D01*
X017528Y011449D01*
X017586Y011525D01*
X017647Y011600D01*
X017710Y011671D01*
X017777Y011740D01*
X017847Y011806D01*
X017919Y011869D01*
X017993Y011929D01*
X018071Y011986D01*
X018150Y012039D01*
X018232Y012089D01*
X018315Y012136D01*
X018401Y012179D01*
X018488Y012219D01*
X018577Y012255D01*
X018667Y012287D01*
X018759Y012316D01*
X018851Y012340D01*
X018945Y012361D01*
X019039Y012378D01*
X019134Y012391D01*
X019229Y012400D01*
X019325Y012405D01*
X019421Y012406D01*
X019517Y012403D01*
X019612Y012396D01*
X019707Y012385D01*
X019802Y012370D01*
X019896Y012351D01*
X019989Y012329D01*
X020081Y012302D01*
X020172Y012272D01*
X020262Y012238D01*
X020350Y012200D01*
X020436Y012158D01*
X020521Y012113D01*
X020603Y012065D01*
X020684Y012013D01*
X020762Y011958D01*
X020838Y011899D01*
X020912Y011838D01*
X020983Y011773D01*
X021051Y011706D01*
X021116Y011636D01*
X021178Y011563D01*
X021237Y011487D01*
X021293Y011410D01*
X021346Y011330D01*
X021395Y011248D01*
X021441Y011163D01*
X021484Y011077D01*
X021522Y010990D01*
X021557Y010901D01*
X021589Y010810D01*
X021616Y010718D01*
X021640Y010625D01*
X021660Y010532D01*
X021676Y010437D01*
X021688Y010342D01*
X021696Y010247D01*
X021700Y010151D01*
X021700Y010055D01*
X021696Y009959D01*
X021688Y009864D01*
X021676Y009769D01*
X021660Y009674D01*
X021640Y009581D01*
X021616Y009488D01*
X021589Y009396D01*
X021557Y009305D01*
X021522Y009216D01*
X021484Y009129D01*
X021441Y009043D01*
X021395Y008958D01*
X021346Y008876D01*
X021293Y008796D01*
X021237Y008719D01*
X021178Y008643D01*
X021116Y008570D01*
X021051Y008500D01*
X020983Y008433D01*
X020912Y008368D01*
X020838Y008307D01*
X020762Y008248D01*
X020684Y008193D01*
X020603Y008141D01*
X020521Y008093D01*
X020436Y008048D01*
X020350Y008006D01*
X020262Y007968D01*
X020172Y007934D01*
X020081Y007904D01*
X019989Y007877D01*
X019896Y007855D01*
X019802Y007836D01*
X019707Y007821D01*
X019612Y007810D01*
X019517Y007803D01*
X019421Y007800D01*
X019325Y007801D01*
X019229Y007806D01*
X019134Y007815D01*
X019039Y007828D01*
X018945Y007845D01*
X018851Y007866D01*
X018759Y007890D01*
X018667Y007919D01*
X018577Y007951D01*
X018488Y007987D01*
X018401Y008027D01*
X018315Y008070D01*
X018232Y008117D01*
X018150Y008167D01*
X018071Y008220D01*
X017993Y008277D01*
X017919Y008337D01*
X017847Y008400D01*
X017777Y008466D01*
X017710Y008535D01*
X017647Y008606D01*
X017586Y008681D01*
X017528Y008757D01*
X017474Y008836D01*
X017423Y008917D01*
X017375Y009000D01*
X017331Y009085D01*
X017291Y009172D01*
X017254Y009261D01*
X017220Y009350D01*
X017191Y009442D01*
X017165Y009534D01*
X017144Y009627D01*
X017126Y009721D01*
X017112Y009816D01*
X017102Y009912D01*
X017096Y010007D01*
X017094Y010103D01*
X022185Y007256D02*
X022185Y004540D01*
X022187Y004514D01*
X022192Y004489D01*
X022200Y004465D01*
X022211Y004442D01*
X022226Y004420D01*
X022243Y004401D01*
X022262Y004384D01*
X022284Y004369D01*
X022307Y004358D01*
X022331Y004350D01*
X022356Y004345D01*
X022382Y004343D01*
X023012Y004343D01*
X023038Y004345D01*
X023063Y004350D01*
X023087Y004358D01*
X023111Y004369D01*
X023132Y004384D01*
X023151Y004401D01*
X023168Y004420D01*
X023183Y004442D01*
X023194Y004465D01*
X023202Y004489D01*
X023207Y004514D01*
X023209Y004540D01*
X023209Y007256D01*
X023207Y007282D01*
X023202Y007307D01*
X023194Y007331D01*
X023183Y007355D01*
X023168Y007376D01*
X023151Y007395D01*
X023132Y007412D01*
X023111Y007427D01*
X023087Y007438D01*
X023063Y007446D01*
X023038Y007451D01*
X023012Y007453D01*
X022382Y007453D01*
X022356Y007451D01*
X022331Y007446D01*
X022307Y007438D01*
X022284Y007427D01*
X022262Y007412D01*
X022243Y007395D01*
X022226Y007376D01*
X022211Y007355D01*
X022200Y007331D01*
X022192Y007307D01*
X022187Y007282D01*
X022185Y007256D01*
X023694Y010103D02*
X023696Y010199D01*
X023702Y010294D01*
X023712Y010390D01*
X023726Y010485D01*
X023744Y010579D01*
X023765Y010672D01*
X023791Y010764D01*
X023820Y010856D01*
X023854Y010945D01*
X023891Y011034D01*
X023931Y011121D01*
X023975Y011206D01*
X024023Y011289D01*
X024074Y011370D01*
X024128Y011449D01*
X024186Y011525D01*
X024247Y011600D01*
X024310Y011671D01*
X024377Y011740D01*
X024447Y011806D01*
X024519Y011869D01*
X024593Y011929D01*
X024671Y011986D01*
X024750Y012039D01*
X024832Y012089D01*
X024915Y012136D01*
X025001Y012179D01*
X025088Y012219D01*
X025177Y012255D01*
X025267Y012287D01*
X025359Y012316D01*
X025451Y012340D01*
X025545Y012361D01*
X025639Y012378D01*
X025734Y012391D01*
X025829Y012400D01*
X025925Y012405D01*
X026021Y012406D01*
X026117Y012403D01*
X026212Y012396D01*
X026307Y012385D01*
X026402Y012370D01*
X026496Y012351D01*
X026589Y012329D01*
X026681Y012302D01*
X026772Y012272D01*
X026862Y012238D01*
X026950Y012200D01*
X027036Y012158D01*
X027121Y012113D01*
X027203Y012065D01*
X027284Y012013D01*
X027362Y011958D01*
X027438Y011899D01*
X027512Y011838D01*
X027583Y011773D01*
X027651Y011706D01*
X027716Y011636D01*
X027778Y011563D01*
X027837Y011487D01*
X027893Y011410D01*
X027946Y011330D01*
X027995Y011248D01*
X028041Y011163D01*
X028084Y011077D01*
X028122Y010990D01*
X028157Y010901D01*
X028189Y010810D01*
X028216Y010718D01*
X028240Y010625D01*
X028260Y010532D01*
X028276Y010437D01*
X028288Y010342D01*
X028296Y010247D01*
X028300Y010151D01*
X028300Y010055D01*
X028296Y009959D01*
X028288Y009864D01*
X028276Y009769D01*
X028260Y009674D01*
X028240Y009581D01*
X028216Y009488D01*
X028189Y009396D01*
X028157Y009305D01*
X028122Y009216D01*
X028084Y009129D01*
X028041Y009043D01*
X027995Y008958D01*
X027946Y008876D01*
X027893Y008796D01*
X027837Y008719D01*
X027778Y008643D01*
X027716Y008570D01*
X027651Y008500D01*
X027583Y008433D01*
X027512Y008368D01*
X027438Y008307D01*
X027362Y008248D01*
X027284Y008193D01*
X027203Y008141D01*
X027121Y008093D01*
X027036Y008048D01*
X026950Y008006D01*
X026862Y007968D01*
X026772Y007934D01*
X026681Y007904D01*
X026589Y007877D01*
X026496Y007855D01*
X026402Y007836D01*
X026307Y007821D01*
X026212Y007810D01*
X026117Y007803D01*
X026021Y007800D01*
X025925Y007801D01*
X025829Y007806D01*
X025734Y007815D01*
X025639Y007828D01*
X025545Y007845D01*
X025451Y007866D01*
X025359Y007890D01*
X025267Y007919D01*
X025177Y007951D01*
X025088Y007987D01*
X025001Y008027D01*
X024915Y008070D01*
X024832Y008117D01*
X024750Y008167D01*
X024671Y008220D01*
X024593Y008277D01*
X024519Y008337D01*
X024447Y008400D01*
X024377Y008466D01*
X024310Y008535D01*
X024247Y008606D01*
X024186Y008681D01*
X024128Y008757D01*
X024074Y008836D01*
X024023Y008917D01*
X023975Y009000D01*
X023931Y009085D01*
X023891Y009172D01*
X023854Y009261D01*
X023820Y009350D01*
X023791Y009442D01*
X023765Y009534D01*
X023744Y009627D01*
X023726Y009721D01*
X023712Y009816D01*
X023702Y009912D01*
X023696Y010007D01*
X023694Y010103D01*
X030851Y009532D02*
X030853Y009590D01*
X030859Y009647D01*
X030869Y009704D01*
X030882Y009760D01*
X030900Y009815D01*
X030921Y009869D01*
X030946Y009921D01*
X030974Y009972D01*
X031006Y010020D01*
X031041Y010066D01*
X031079Y010109D01*
X031120Y010150D01*
X031163Y010188D01*
X031209Y010223D01*
X031257Y010255D01*
X031308Y010283D01*
X031360Y010308D01*
X031414Y010329D01*
X031469Y010347D01*
X031525Y010360D01*
X031582Y010370D01*
X031639Y010376D01*
X031697Y010378D01*
X031755Y010376D01*
X031812Y010370D01*
X031869Y010360D01*
X031925Y010347D01*
X031980Y010329D01*
X032034Y010308D01*
X032086Y010283D01*
X032137Y010255D01*
X032185Y010223D01*
X032231Y010188D01*
X032274Y010150D01*
X032315Y010109D01*
X032353Y010066D01*
X032388Y010020D01*
X032420Y009972D01*
X032448Y009921D01*
X032473Y009869D01*
X032494Y009815D01*
X032512Y009760D01*
X032525Y009704D01*
X032535Y009647D01*
X032541Y009590D01*
X032543Y009532D01*
X032541Y009474D01*
X032535Y009417D01*
X032525Y009360D01*
X032512Y009304D01*
X032494Y009249D01*
X032473Y009195D01*
X032448Y009143D01*
X032420Y009092D01*
X032388Y009044D01*
X032353Y008998D01*
X032315Y008955D01*
X032274Y008914D01*
X032231Y008876D01*
X032185Y008841D01*
X032137Y008809D01*
X032086Y008781D01*
X032034Y008756D01*
X031980Y008735D01*
X031925Y008717D01*
X031869Y008704D01*
X031812Y008694D01*
X031755Y008688D01*
X031697Y008686D01*
X031639Y008688D01*
X031582Y008694D01*
X031525Y008704D01*
X031469Y008717D01*
X031414Y008735D01*
X031360Y008756D01*
X031308Y008781D01*
X031257Y008809D01*
X031209Y008841D01*
X031163Y008876D01*
X031120Y008914D01*
X031079Y008955D01*
X031041Y008998D01*
X031006Y009044D01*
X030974Y009092D01*
X030946Y009143D01*
X030921Y009195D01*
X030900Y009249D01*
X030882Y009304D01*
X030869Y009360D01*
X030859Y009417D01*
X030853Y009474D01*
X030851Y009532D01*
X035768Y010319D02*
X035770Y010392D01*
X035776Y010464D01*
X035786Y010536D01*
X035800Y010607D01*
X035817Y010678D01*
X035839Y010747D01*
X035864Y010815D01*
X035893Y010882D01*
X035925Y010946D01*
X035961Y011010D01*
X036001Y011071D01*
X036044Y011129D01*
X036089Y011186D01*
X036138Y011239D01*
X036190Y011290D01*
X036244Y011338D01*
X036301Y011383D01*
X036361Y011425D01*
X036422Y011464D01*
X036486Y011499D01*
X036551Y011531D01*
X036618Y011559D01*
X036686Y011583D01*
X036756Y011603D01*
X036827Y011620D01*
X036898Y011633D01*
X036970Y011642D01*
X037043Y011647D01*
X037115Y011648D01*
X037188Y011645D01*
X037260Y011638D01*
X037332Y011627D01*
X037403Y011612D01*
X037473Y011594D01*
X037542Y011571D01*
X037610Y011545D01*
X037676Y011515D01*
X037740Y011482D01*
X037803Y011445D01*
X037863Y011405D01*
X037922Y011361D01*
X037977Y011315D01*
X038030Y011265D01*
X038081Y011213D01*
X038128Y011158D01*
X038172Y011100D01*
X038213Y011040D01*
X038251Y010978D01*
X038285Y010914D01*
X038316Y010848D01*
X038343Y010781D01*
X038366Y010712D01*
X038386Y010642D01*
X038402Y010572D01*
X038414Y010500D01*
X038422Y010428D01*
X038426Y010355D01*
X038426Y010283D01*
X038422Y010210D01*
X038414Y010138D01*
X038402Y010066D01*
X038386Y009996D01*
X038366Y009926D01*
X038343Y009857D01*
X038316Y009790D01*
X038285Y009724D01*
X038251Y009660D01*
X038213Y009598D01*
X038172Y009538D01*
X038128Y009480D01*
X038081Y009425D01*
X038030Y009373D01*
X037977Y009323D01*
X037922Y009277D01*
X037863Y009233D01*
X037803Y009193D01*
X037740Y009156D01*
X037676Y009123D01*
X037610Y009093D01*
X037542Y009067D01*
X037473Y009044D01*
X037403Y009026D01*
X037332Y009011D01*
X037260Y009000D01*
X037188Y008993D01*
X037115Y008990D01*
X037043Y008991D01*
X036970Y008996D01*
X036898Y009005D01*
X036827Y009018D01*
X036756Y009035D01*
X036686Y009055D01*
X036618Y009079D01*
X036551Y009107D01*
X036486Y009139D01*
X036422Y009174D01*
X036361Y009213D01*
X036301Y009255D01*
X036244Y009300D01*
X036190Y009348D01*
X036138Y009399D01*
X036089Y009452D01*
X036044Y009509D01*
X036001Y009567D01*
X035961Y009628D01*
X035925Y009692D01*
X035893Y009756D01*
X035864Y009823D01*
X035839Y009891D01*
X035817Y009960D01*
X035800Y010031D01*
X035786Y010102D01*
X035776Y010174D01*
X035770Y010246D01*
X035768Y010319D01*
X041668Y009985D02*
X041670Y010058D01*
X041676Y010130D01*
X041686Y010202D01*
X041700Y010273D01*
X041717Y010344D01*
X041739Y010413D01*
X041764Y010481D01*
X041793Y010548D01*
X041825Y010612D01*
X041861Y010676D01*
X041901Y010737D01*
X041944Y010795D01*
X041989Y010852D01*
X042038Y010905D01*
X042090Y010956D01*
X042144Y011004D01*
X042201Y011049D01*
X042261Y011091D01*
X042322Y011130D01*
X042386Y011165D01*
X042451Y011197D01*
X042518Y011225D01*
X042586Y011249D01*
X042656Y011269D01*
X042727Y011286D01*
X042798Y011299D01*
X042870Y011308D01*
X042943Y011313D01*
X043015Y011314D01*
X043088Y011311D01*
X043160Y011304D01*
X043232Y011293D01*
X043303Y011278D01*
X043373Y011260D01*
X043442Y011237D01*
X043510Y011211D01*
X043576Y011181D01*
X043640Y011148D01*
X043703Y011111D01*
X043763Y011071D01*
X043822Y011027D01*
X043877Y010981D01*
X043930Y010931D01*
X043981Y010879D01*
X044028Y010824D01*
X044072Y010766D01*
X044113Y010706D01*
X044151Y010644D01*
X044185Y010580D01*
X044216Y010514D01*
X044243Y010447D01*
X044266Y010378D01*
X044286Y010308D01*
X044302Y010238D01*
X044314Y010166D01*
X044322Y010094D01*
X044326Y010021D01*
X044326Y009949D01*
X044322Y009876D01*
X044314Y009804D01*
X044302Y009732D01*
X044286Y009662D01*
X044266Y009592D01*
X044243Y009523D01*
X044216Y009456D01*
X044185Y009390D01*
X044151Y009326D01*
X044113Y009264D01*
X044072Y009204D01*
X044028Y009146D01*
X043981Y009091D01*
X043930Y009039D01*
X043877Y008989D01*
X043822Y008943D01*
X043763Y008899D01*
X043703Y008859D01*
X043640Y008822D01*
X043576Y008789D01*
X043510Y008759D01*
X043442Y008733D01*
X043373Y008710D01*
X043303Y008692D01*
X043232Y008677D01*
X043160Y008666D01*
X043088Y008659D01*
X043015Y008656D01*
X042943Y008657D01*
X042870Y008662D01*
X042798Y008671D01*
X042727Y008684D01*
X042656Y008701D01*
X042586Y008721D01*
X042518Y008745D01*
X042451Y008773D01*
X042386Y008805D01*
X042322Y008840D01*
X042261Y008879D01*
X042201Y008921D01*
X042144Y008966D01*
X042090Y009014D01*
X042038Y009065D01*
X041989Y009118D01*
X041944Y009175D01*
X041901Y009233D01*
X041861Y009294D01*
X041825Y009358D01*
X041793Y009422D01*
X041764Y009489D01*
X041739Y009557D01*
X041717Y009626D01*
X041700Y009697D01*
X041686Y009768D01*
X041676Y009840D01*
X041670Y009912D01*
X041668Y009985D01*
X046606Y009516D02*
X046608Y009564D01*
X046614Y009612D01*
X046624Y009659D01*
X046637Y009705D01*
X046655Y009750D01*
X046675Y009794D01*
X046700Y009836D01*
X046728Y009875D01*
X046758Y009912D01*
X046792Y009946D01*
X046829Y009978D01*
X046867Y010007D01*
X046908Y010032D01*
X046951Y010054D01*
X046996Y010072D01*
X047042Y010086D01*
X047089Y010097D01*
X047137Y010104D01*
X047185Y010107D01*
X047233Y010106D01*
X047281Y010101D01*
X047329Y010092D01*
X047375Y010080D01*
X047420Y010063D01*
X047464Y010043D01*
X047506Y010020D01*
X047546Y009993D01*
X047584Y009963D01*
X047619Y009930D01*
X047651Y009894D01*
X047681Y009856D01*
X047707Y009815D01*
X047729Y009772D01*
X047749Y009728D01*
X047764Y009683D01*
X047776Y009636D01*
X047784Y009588D01*
X047788Y009540D01*
X047788Y009492D01*
X047784Y009444D01*
X047776Y009396D01*
X047764Y009349D01*
X047749Y009304D01*
X047729Y009260D01*
X047707Y009217D01*
X047681Y009176D01*
X047651Y009138D01*
X047619Y009102D01*
X047584Y009069D01*
X047546Y009039D01*
X047506Y009012D01*
X047464Y008989D01*
X047420Y008969D01*
X047375Y008952D01*
X047329Y008940D01*
X047281Y008931D01*
X047233Y008926D01*
X047185Y008925D01*
X047137Y008928D01*
X047089Y008935D01*
X047042Y008946D01*
X046996Y008960D01*
X046951Y008978D01*
X046908Y009000D01*
X046867Y009025D01*
X046829Y009054D01*
X046792Y009086D01*
X046758Y009120D01*
X046728Y009157D01*
X046700Y009196D01*
X046675Y009238D01*
X046655Y009282D01*
X046637Y009327D01*
X046624Y009373D01*
X046614Y009420D01*
X046608Y009468D01*
X046606Y009516D01*
X048706Y009516D02*
X048708Y009564D01*
X048714Y009612D01*
X048724Y009659D01*
X048737Y009705D01*
X048755Y009750D01*
X048775Y009794D01*
X048800Y009836D01*
X048828Y009875D01*
X048858Y009912D01*
X048892Y009946D01*
X048929Y009978D01*
X048967Y010007D01*
X049008Y010032D01*
X049051Y010054D01*
X049096Y010072D01*
X049142Y010086D01*
X049189Y010097D01*
X049237Y010104D01*
X049285Y010107D01*
X049333Y010106D01*
X049381Y010101D01*
X049429Y010092D01*
X049475Y010080D01*
X049520Y010063D01*
X049564Y010043D01*
X049606Y010020D01*
X049646Y009993D01*
X049684Y009963D01*
X049719Y009930D01*
X049751Y009894D01*
X049781Y009856D01*
X049807Y009815D01*
X049829Y009772D01*
X049849Y009728D01*
X049864Y009683D01*
X049876Y009636D01*
X049884Y009588D01*
X049888Y009540D01*
X049888Y009492D01*
X049884Y009444D01*
X049876Y009396D01*
X049864Y009349D01*
X049849Y009304D01*
X049829Y009260D01*
X049807Y009217D01*
X049781Y009176D01*
X049751Y009138D01*
X049719Y009102D01*
X049684Y009069D01*
X049646Y009039D01*
X049606Y009012D01*
X049564Y008989D01*
X049520Y008969D01*
X049475Y008952D01*
X049429Y008940D01*
X049381Y008931D01*
X049333Y008926D01*
X049285Y008925D01*
X049237Y008928D01*
X049189Y008935D01*
X049142Y008946D01*
X049096Y008960D01*
X049051Y008978D01*
X049008Y009000D01*
X048967Y009025D01*
X048929Y009054D01*
X048892Y009086D01*
X048858Y009120D01*
X048828Y009157D01*
X048800Y009196D01*
X048775Y009238D01*
X048755Y009282D01*
X048737Y009327D01*
X048724Y009373D01*
X048714Y009420D01*
X048708Y009468D01*
X048706Y009516D01*
X048706Y011315D02*
X048708Y011363D01*
X048714Y011411D01*
X048724Y011458D01*
X048737Y011504D01*
X048755Y011549D01*
X048775Y011593D01*
X048800Y011635D01*
X048828Y011674D01*
X048858Y011711D01*
X048892Y011745D01*
X048929Y011777D01*
X048967Y011806D01*
X049008Y011831D01*
X049051Y011853D01*
X049096Y011871D01*
X049142Y011885D01*
X049189Y011896D01*
X049237Y011903D01*
X049285Y011906D01*
X049333Y011905D01*
X049381Y011900D01*
X049429Y011891D01*
X049475Y011879D01*
X049520Y011862D01*
X049564Y011842D01*
X049606Y011819D01*
X049646Y011792D01*
X049684Y011762D01*
X049719Y011729D01*
X049751Y011693D01*
X049781Y011655D01*
X049807Y011614D01*
X049829Y011571D01*
X049849Y011527D01*
X049864Y011482D01*
X049876Y011435D01*
X049884Y011387D01*
X049888Y011339D01*
X049888Y011291D01*
X049884Y011243D01*
X049876Y011195D01*
X049864Y011148D01*
X049849Y011103D01*
X049829Y011059D01*
X049807Y011016D01*
X049781Y010975D01*
X049751Y010937D01*
X049719Y010901D01*
X049684Y010868D01*
X049646Y010838D01*
X049606Y010811D01*
X049564Y010788D01*
X049520Y010768D01*
X049475Y010751D01*
X049429Y010739D01*
X049381Y010730D01*
X049333Y010725D01*
X049285Y010724D01*
X049237Y010727D01*
X049189Y010734D01*
X049142Y010745D01*
X049096Y010759D01*
X049051Y010777D01*
X049008Y010799D01*
X048967Y010824D01*
X048929Y010853D01*
X048892Y010885D01*
X048858Y010919D01*
X048828Y010956D01*
X048800Y010995D01*
X048775Y011037D01*
X048755Y011081D01*
X048737Y011126D01*
X048724Y011172D01*
X048714Y011219D01*
X048708Y011267D01*
X048706Y011315D01*
X046606Y011315D02*
X046608Y011363D01*
X046614Y011411D01*
X046624Y011458D01*
X046637Y011504D01*
X046655Y011549D01*
X046675Y011593D01*
X046700Y011635D01*
X046728Y011674D01*
X046758Y011711D01*
X046792Y011745D01*
X046829Y011777D01*
X046867Y011806D01*
X046908Y011831D01*
X046951Y011853D01*
X046996Y011871D01*
X047042Y011885D01*
X047089Y011896D01*
X047137Y011903D01*
X047185Y011906D01*
X047233Y011905D01*
X047281Y011900D01*
X047329Y011891D01*
X047375Y011879D01*
X047420Y011862D01*
X047464Y011842D01*
X047506Y011819D01*
X047546Y011792D01*
X047584Y011762D01*
X047619Y011729D01*
X047651Y011693D01*
X047681Y011655D01*
X047707Y011614D01*
X047729Y011571D01*
X047749Y011527D01*
X047764Y011482D01*
X047776Y011435D01*
X047784Y011387D01*
X047788Y011339D01*
X047788Y011291D01*
X047784Y011243D01*
X047776Y011195D01*
X047764Y011148D01*
X047749Y011103D01*
X047729Y011059D01*
X047707Y011016D01*
X047681Y010975D01*
X047651Y010937D01*
X047619Y010901D01*
X047584Y010868D01*
X047546Y010838D01*
X047506Y010811D01*
X047464Y010788D01*
X047420Y010768D01*
X047375Y010751D01*
X047329Y010739D01*
X047281Y010730D01*
X047233Y010725D01*
X047185Y010724D01*
X047137Y010727D01*
X047089Y010734D01*
X047042Y010745D01*
X046996Y010759D01*
X046951Y010777D01*
X046908Y010799D01*
X046867Y010824D01*
X046829Y010853D01*
X046792Y010885D01*
X046758Y010919D01*
X046728Y010956D01*
X046700Y010995D01*
X046675Y011037D01*
X046655Y011081D01*
X046637Y011126D01*
X046624Y011172D01*
X046614Y011219D01*
X046608Y011267D01*
X046606Y011315D01*
X045601Y020780D02*
X045603Y020861D01*
X045609Y020943D01*
X045619Y021024D01*
X045633Y021104D01*
X045650Y021183D01*
X045672Y021262D01*
X045697Y021339D01*
X045726Y021416D01*
X045759Y021490D01*
X045796Y021563D01*
X045835Y021634D01*
X045879Y021703D01*
X045925Y021770D01*
X045975Y021834D01*
X046028Y021896D01*
X046084Y021956D01*
X046142Y022012D01*
X046204Y022066D01*
X046268Y022117D01*
X046334Y022164D01*
X046402Y022208D01*
X046473Y022249D01*
X046545Y022286D01*
X046620Y022320D01*
X046695Y022350D01*
X046773Y022376D01*
X046851Y022399D01*
X046930Y022417D01*
X047010Y022432D01*
X047091Y022443D01*
X047172Y022450D01*
X047254Y022453D01*
X047335Y022452D01*
X047416Y022447D01*
X047497Y022438D01*
X047578Y022425D01*
X047658Y022408D01*
X047736Y022388D01*
X047814Y022363D01*
X047891Y022335D01*
X047966Y022303D01*
X048039Y022268D01*
X048110Y022229D01*
X048180Y022186D01*
X048247Y022141D01*
X048313Y022092D01*
X048375Y022040D01*
X048435Y021984D01*
X048492Y021926D01*
X048547Y021866D01*
X048598Y021802D01*
X048646Y021737D01*
X048691Y021669D01*
X048733Y021599D01*
X048771Y021527D01*
X048806Y021453D01*
X048837Y021378D01*
X048864Y021301D01*
X048887Y021223D01*
X048907Y021144D01*
X048923Y021064D01*
X048935Y020983D01*
X048943Y020902D01*
X048947Y020821D01*
X048947Y020739D01*
X048943Y020658D01*
X048935Y020577D01*
X048923Y020496D01*
X048907Y020416D01*
X048887Y020337D01*
X048864Y020259D01*
X048837Y020182D01*
X048806Y020107D01*
X048771Y020033D01*
X048733Y019961D01*
X048691Y019891D01*
X048646Y019823D01*
X048598Y019758D01*
X048547Y019694D01*
X048492Y019634D01*
X048435Y019576D01*
X048375Y019520D01*
X048313Y019468D01*
X048247Y019419D01*
X048180Y019374D01*
X048111Y019331D01*
X048039Y019292D01*
X047966Y019257D01*
X047891Y019225D01*
X047814Y019197D01*
X047736Y019172D01*
X047658Y019152D01*
X047578Y019135D01*
X047497Y019122D01*
X047416Y019113D01*
X047335Y019108D01*
X047254Y019107D01*
X047172Y019110D01*
X047091Y019117D01*
X047010Y019128D01*
X046930Y019143D01*
X046851Y019161D01*
X046773Y019184D01*
X046695Y019210D01*
X046620Y019240D01*
X046545Y019274D01*
X046473Y019311D01*
X046402Y019352D01*
X046334Y019396D01*
X046268Y019443D01*
X046204Y019494D01*
X046142Y019548D01*
X046084Y019604D01*
X046028Y019664D01*
X045975Y019726D01*
X045925Y019790D01*
X045879Y019857D01*
X045835Y019926D01*
X045796Y019997D01*
X045759Y020070D01*
X045726Y020144D01*
X045697Y020221D01*
X045672Y020298D01*
X045650Y020377D01*
X045633Y020456D01*
X045619Y020536D01*
X045609Y020617D01*
X045603Y020699D01*
X045601Y020780D01*
X043504Y021433D02*
X043504Y021827D01*
X043502Y021853D01*
X043497Y021878D01*
X043489Y021902D01*
X043478Y021926D01*
X043463Y021947D01*
X043446Y021966D01*
X043427Y021983D01*
X043406Y021998D01*
X043382Y022009D01*
X043358Y022017D01*
X043333Y022022D01*
X043307Y022024D01*
X041339Y022024D01*
X041313Y022022D01*
X041288Y022017D01*
X041264Y022009D01*
X041241Y021998D01*
X041219Y021983D01*
X041200Y021966D01*
X041183Y021947D01*
X041168Y021926D01*
X041157Y021902D01*
X041149Y021878D01*
X041144Y021853D01*
X041142Y021827D01*
X041142Y021433D01*
X041144Y021407D01*
X041149Y021382D01*
X041157Y021358D01*
X041168Y021335D01*
X041183Y021313D01*
X041200Y021294D01*
X041219Y021277D01*
X041241Y021262D01*
X041264Y021251D01*
X041288Y021243D01*
X041313Y021238D01*
X041339Y021236D01*
X041339Y021237D02*
X043307Y021237D01*
X043307Y021236D02*
X043333Y021238D01*
X043358Y021243D01*
X043382Y021251D01*
X043406Y021262D01*
X043427Y021277D01*
X043446Y021294D01*
X043463Y021313D01*
X043478Y021335D01*
X043489Y021358D01*
X043497Y021382D01*
X043502Y021407D01*
X043504Y021433D01*
X041870Y023772D02*
X048918Y023772D01*
X048917Y023772D02*
X048935Y023751D01*
X048955Y023734D01*
X048978Y023719D01*
X049002Y023707D01*
X049028Y023699D01*
X049054Y023694D01*
X049081Y023693D01*
X049108Y023696D01*
X049134Y023702D01*
X049159Y023712D01*
X049183Y023725D01*
X049204Y023741D01*
X049224Y023761D01*
X049240Y023782D01*
X049253Y023806D01*
X049263Y023831D01*
X049269Y023857D01*
X049272Y023884D01*
X049271Y023911D01*
X049266Y023937D01*
X049258Y023963D01*
X049246Y023987D01*
X049231Y024010D01*
X049214Y024030D01*
X049193Y024048D01*
X049193Y028575D01*
X049214Y028593D01*
X049231Y028613D01*
X049246Y028636D01*
X049258Y028660D01*
X049266Y028686D01*
X049271Y028712D01*
X049272Y028739D01*
X049269Y028766D01*
X049263Y028792D01*
X049253Y028817D01*
X049240Y028841D01*
X049224Y028862D01*
X049204Y028882D01*
X049183Y028898D01*
X049159Y028911D01*
X049134Y028921D01*
X049108Y028927D01*
X049081Y028930D01*
X049054Y028929D01*
X049028Y028924D01*
X049002Y028916D01*
X048978Y028904D01*
X048955Y028889D01*
X048935Y028872D01*
X048917Y028851D01*
X048918Y028851D02*
X041870Y028851D01*
X041871Y028851D02*
X041853Y028872D01*
X041833Y028889D01*
X041810Y028904D01*
X041786Y028916D01*
X041760Y028924D01*
X041734Y028929D01*
X041707Y028930D01*
X041680Y028927D01*
X041654Y028921D01*
X041629Y028911D01*
X041605Y028898D01*
X041584Y028882D01*
X041564Y028862D01*
X041548Y028841D01*
X041535Y028817D01*
X041525Y028792D01*
X041519Y028766D01*
X041516Y028739D01*
X041517Y028712D01*
X041522Y028686D01*
X041530Y028660D01*
X041542Y028636D01*
X041557Y028613D01*
X041574Y028593D01*
X041595Y028575D01*
X041595Y024048D01*
X041574Y024030D01*
X041557Y024010D01*
X041542Y023987D01*
X041530Y023963D01*
X041522Y023937D01*
X041517Y023911D01*
X041516Y023884D01*
X041519Y023857D01*
X041525Y023831D01*
X041535Y023806D01*
X041548Y023782D01*
X041564Y023761D01*
X041584Y023741D01*
X041605Y023725D01*
X041629Y023712D01*
X041654Y023702D01*
X041680Y023696D01*
X041707Y023693D01*
X041734Y023694D01*
X041760Y023699D01*
X041786Y023707D01*
X041810Y023719D01*
X041833Y023734D01*
X041853Y023751D01*
X041871Y023772D01*
X034730Y026489D02*
X034732Y026580D01*
X034738Y026670D01*
X034748Y026761D01*
X034762Y026850D01*
X034780Y026939D01*
X034801Y027028D01*
X034827Y027115D01*
X034856Y027201D01*
X034890Y027285D01*
X034926Y027368D01*
X034967Y027450D01*
X035011Y027529D01*
X035058Y027607D01*
X035109Y027682D01*
X035163Y027755D01*
X035220Y027825D01*
X035280Y027893D01*
X035343Y027959D01*
X035409Y028021D01*
X035478Y028080D01*
X035549Y028137D01*
X035623Y028190D01*
X035699Y028240D01*
X035777Y028287D01*
X035857Y028330D01*
X035938Y028369D01*
X036022Y028405D01*
X036107Y028437D01*
X036193Y028466D01*
X036280Y028490D01*
X036369Y028511D01*
X036458Y028528D01*
X036548Y028541D01*
X036638Y028550D01*
X036729Y028555D01*
X036820Y028556D01*
X036910Y028553D01*
X037001Y028546D01*
X037091Y028535D01*
X037181Y028520D01*
X037270Y028501D01*
X037358Y028479D01*
X037444Y028452D01*
X037530Y028422D01*
X037614Y028388D01*
X037697Y028350D01*
X037778Y028309D01*
X037857Y028264D01*
X037934Y028215D01*
X038008Y028164D01*
X038081Y028109D01*
X038151Y028051D01*
X038218Y027990D01*
X038282Y027926D01*
X038344Y027860D01*
X038403Y027790D01*
X038458Y027719D01*
X038511Y027644D01*
X038560Y027568D01*
X038606Y027490D01*
X038648Y027409D01*
X038687Y027327D01*
X038722Y027243D01*
X038753Y027158D01*
X038780Y027071D01*
X038804Y026984D01*
X038824Y026895D01*
X038840Y026806D01*
X038852Y026716D01*
X038860Y026625D01*
X038864Y026534D01*
X038864Y026444D01*
X038860Y026353D01*
X038852Y026262D01*
X038840Y026172D01*
X038824Y026083D01*
X038804Y025994D01*
X038780Y025907D01*
X038753Y025820D01*
X038722Y025735D01*
X038687Y025651D01*
X038648Y025569D01*
X038606Y025488D01*
X038560Y025410D01*
X038511Y025334D01*
X038458Y025259D01*
X038403Y025188D01*
X038344Y025118D01*
X038282Y025052D01*
X038218Y024988D01*
X038151Y024927D01*
X038081Y024869D01*
X038008Y024814D01*
X037934Y024763D01*
X037857Y024714D01*
X037778Y024669D01*
X037697Y024628D01*
X037614Y024590D01*
X037530Y024556D01*
X037444Y024526D01*
X037358Y024499D01*
X037270Y024477D01*
X037181Y024458D01*
X037091Y024443D01*
X037001Y024432D01*
X036910Y024425D01*
X036820Y024422D01*
X036729Y024423D01*
X036638Y024428D01*
X036548Y024437D01*
X036458Y024450D01*
X036369Y024467D01*
X036280Y024488D01*
X036193Y024512D01*
X036107Y024541D01*
X036022Y024573D01*
X035938Y024609D01*
X035857Y024648D01*
X035777Y024691D01*
X035699Y024738D01*
X035623Y024788D01*
X035549Y024841D01*
X035478Y024898D01*
X035409Y024957D01*
X035343Y025019D01*
X035280Y025085D01*
X035220Y025153D01*
X035163Y025223D01*
X035109Y025296D01*
X035058Y025371D01*
X035011Y025449D01*
X034967Y025528D01*
X034926Y025610D01*
X034890Y025693D01*
X034856Y025777D01*
X034827Y025863D01*
X034801Y025950D01*
X034780Y026039D01*
X034762Y026128D01*
X034748Y026217D01*
X034738Y026308D01*
X034732Y026398D01*
X034730Y026489D01*
X027230Y026489D02*
X027232Y026580D01*
X027238Y026670D01*
X027248Y026761D01*
X027262Y026850D01*
X027280Y026939D01*
X027301Y027028D01*
X027327Y027115D01*
X027356Y027201D01*
X027390Y027285D01*
X027426Y027368D01*
X027467Y027450D01*
X027511Y027529D01*
X027558Y027607D01*
X027609Y027682D01*
X027663Y027755D01*
X027720Y027825D01*
X027780Y027893D01*
X027843Y027959D01*
X027909Y028021D01*
X027978Y028080D01*
X028049Y028137D01*
X028123Y028190D01*
X028199Y028240D01*
X028277Y028287D01*
X028357Y028330D01*
X028438Y028369D01*
X028522Y028405D01*
X028607Y028437D01*
X028693Y028466D01*
X028780Y028490D01*
X028869Y028511D01*
X028958Y028528D01*
X029048Y028541D01*
X029138Y028550D01*
X029229Y028555D01*
X029320Y028556D01*
X029410Y028553D01*
X029501Y028546D01*
X029591Y028535D01*
X029681Y028520D01*
X029770Y028501D01*
X029858Y028479D01*
X029944Y028452D01*
X030030Y028422D01*
X030114Y028388D01*
X030197Y028350D01*
X030278Y028309D01*
X030357Y028264D01*
X030434Y028215D01*
X030508Y028164D01*
X030581Y028109D01*
X030651Y028051D01*
X030718Y027990D01*
X030782Y027926D01*
X030844Y027860D01*
X030903Y027790D01*
X030958Y027719D01*
X031011Y027644D01*
X031060Y027568D01*
X031106Y027490D01*
X031148Y027409D01*
X031187Y027327D01*
X031222Y027243D01*
X031253Y027158D01*
X031280Y027071D01*
X031304Y026984D01*
X031324Y026895D01*
X031340Y026806D01*
X031352Y026716D01*
X031360Y026625D01*
X031364Y026534D01*
X031364Y026444D01*
X031360Y026353D01*
X031352Y026262D01*
X031340Y026172D01*
X031324Y026083D01*
X031304Y025994D01*
X031280Y025907D01*
X031253Y025820D01*
X031222Y025735D01*
X031187Y025651D01*
X031148Y025569D01*
X031106Y025488D01*
X031060Y025410D01*
X031011Y025334D01*
X030958Y025259D01*
X030903Y025188D01*
X030844Y025118D01*
X030782Y025052D01*
X030718Y024988D01*
X030651Y024927D01*
X030581Y024869D01*
X030508Y024814D01*
X030434Y024763D01*
X030357Y024714D01*
X030278Y024669D01*
X030197Y024628D01*
X030114Y024590D01*
X030030Y024556D01*
X029944Y024526D01*
X029858Y024499D01*
X029770Y024477D01*
X029681Y024458D01*
X029591Y024443D01*
X029501Y024432D01*
X029410Y024425D01*
X029320Y024422D01*
X029229Y024423D01*
X029138Y024428D01*
X029048Y024437D01*
X028958Y024450D01*
X028869Y024467D01*
X028780Y024488D01*
X028693Y024512D01*
X028607Y024541D01*
X028522Y024573D01*
X028438Y024609D01*
X028357Y024648D01*
X028277Y024691D01*
X028199Y024738D01*
X028123Y024788D01*
X028049Y024841D01*
X027978Y024898D01*
X027909Y024957D01*
X027843Y025019D01*
X027780Y025085D01*
X027720Y025153D01*
X027663Y025223D01*
X027609Y025296D01*
X027558Y025371D01*
X027511Y025449D01*
X027467Y025528D01*
X027426Y025610D01*
X027390Y025693D01*
X027356Y025777D01*
X027327Y025863D01*
X027301Y025950D01*
X027280Y026039D01*
X027262Y026128D01*
X027248Y026217D01*
X027238Y026308D01*
X027232Y026398D01*
X027230Y026489D01*
X026126Y027048D02*
X026126Y023504D01*
X026127Y023504D02*
X026125Y023478D01*
X026120Y023453D01*
X026112Y023429D01*
X026101Y023406D01*
X026086Y023384D01*
X026069Y023365D01*
X026050Y023348D01*
X026029Y023333D01*
X026005Y023322D01*
X025981Y023314D01*
X025956Y023309D01*
X025930Y023307D01*
X017662Y023307D01*
X017636Y023309D01*
X017611Y023314D01*
X017587Y023322D01*
X017564Y023333D01*
X017542Y023348D01*
X017523Y023365D01*
X017506Y023384D01*
X017491Y023406D01*
X017480Y023429D01*
X017472Y023453D01*
X017467Y023478D01*
X017465Y023504D01*
X017465Y027048D01*
X017467Y027074D01*
X017472Y027099D01*
X017480Y027123D01*
X017491Y027147D01*
X017506Y027168D01*
X017523Y027187D01*
X017542Y027204D01*
X017564Y027219D01*
X017587Y027230D01*
X017611Y027238D01*
X017636Y027243D01*
X017662Y027245D01*
X017662Y027244D02*
X025930Y027244D01*
X025930Y027245D02*
X025956Y027243D01*
X025981Y027238D01*
X026005Y027230D01*
X026029Y027219D01*
X026050Y027204D01*
X026069Y027187D01*
X026086Y027168D01*
X026101Y027147D01*
X026112Y027123D01*
X026120Y027099D01*
X026125Y027074D01*
X026127Y027048D01*
X032089Y022024D02*
X034057Y022024D01*
X034083Y022022D01*
X034108Y022017D01*
X034132Y022009D01*
X034156Y021998D01*
X034177Y021983D01*
X034196Y021966D01*
X034213Y021947D01*
X034228Y021926D01*
X034239Y021902D01*
X034247Y021878D01*
X034252Y021853D01*
X034254Y021827D01*
X034254Y021433D01*
X034252Y021407D01*
X034247Y021382D01*
X034239Y021358D01*
X034228Y021335D01*
X034213Y021313D01*
X034196Y021294D01*
X034177Y021277D01*
X034156Y021262D01*
X034132Y021251D01*
X034108Y021243D01*
X034083Y021238D01*
X034057Y021236D01*
X034057Y021237D02*
X032089Y021237D01*
X032089Y021236D02*
X032063Y021238D01*
X032038Y021243D01*
X032014Y021251D01*
X031991Y021262D01*
X031969Y021277D01*
X031950Y021294D01*
X031933Y021313D01*
X031918Y021335D01*
X031907Y021358D01*
X031899Y021382D01*
X031894Y021407D01*
X031892Y021433D01*
X031892Y021827D01*
X031894Y021853D01*
X031899Y021878D01*
X031907Y021902D01*
X031918Y021926D01*
X031933Y021947D01*
X031950Y021966D01*
X031969Y021983D01*
X031991Y021998D01*
X032014Y022009D01*
X032038Y022017D01*
X032063Y022022D01*
X032089Y022024D01*
X028788Y019877D02*
X028790Y019900D01*
X028796Y019923D01*
X028806Y019944D01*
X028819Y019964D01*
X028835Y019981D01*
X028854Y019995D01*
X028875Y020005D01*
X028897Y020012D01*
X028920Y020015D01*
X028944Y020014D01*
X028966Y020009D01*
X028988Y020000D01*
X029008Y019988D01*
X029026Y019972D01*
X029040Y019954D01*
X029052Y019934D01*
X029060Y019912D01*
X029064Y019889D01*
X029064Y019865D01*
X029060Y019842D01*
X029052Y019820D01*
X029040Y019800D01*
X029026Y019782D01*
X029008Y019766D01*
X028988Y019754D01*
X028966Y019745D01*
X028944Y019740D01*
X028920Y019739D01*
X028897Y019742D01*
X028875Y019749D01*
X028854Y019759D01*
X028835Y019773D01*
X028819Y019790D01*
X028806Y019810D01*
X028796Y019831D01*
X028790Y019854D01*
X028788Y019877D01*
X028237Y019877D02*
X028239Y019900D01*
X028245Y019923D01*
X028255Y019944D01*
X028268Y019964D01*
X028284Y019981D01*
X028303Y019995D01*
X028324Y020005D01*
X028346Y020012D01*
X028369Y020015D01*
X028393Y020014D01*
X028415Y020009D01*
X028437Y020000D01*
X028457Y019988D01*
X028475Y019972D01*
X028489Y019954D01*
X028501Y019934D01*
X028509Y019912D01*
X028513Y019889D01*
X028513Y019865D01*
X028509Y019842D01*
X028501Y019820D01*
X028489Y019800D01*
X028475Y019782D01*
X028457Y019766D01*
X028437Y019754D01*
X028415Y019745D01*
X028393Y019740D01*
X028369Y019739D01*
X028346Y019742D01*
X028324Y019749D01*
X028303Y019759D01*
X028284Y019773D01*
X028268Y019790D01*
X028255Y019810D01*
X028245Y019831D01*
X028239Y019854D01*
X028237Y019877D01*
X027764Y019640D02*
X027766Y019663D01*
X027772Y019686D01*
X027782Y019707D01*
X027795Y019727D01*
X027811Y019744D01*
X027830Y019758D01*
X027851Y019768D01*
X027873Y019775D01*
X027896Y019778D01*
X027920Y019777D01*
X027942Y019772D01*
X027964Y019763D01*
X027984Y019751D01*
X028002Y019735D01*
X028016Y019717D01*
X028028Y019697D01*
X028036Y019675D01*
X028040Y019652D01*
X028040Y019628D01*
X028036Y019605D01*
X028028Y019583D01*
X028016Y019563D01*
X028002Y019545D01*
X027984Y019529D01*
X027964Y019517D01*
X027942Y019508D01*
X027920Y019503D01*
X027896Y019502D01*
X027873Y019505D01*
X027851Y019512D01*
X027830Y019522D01*
X027811Y019536D01*
X027795Y019553D01*
X027782Y019573D01*
X027772Y019594D01*
X027766Y019617D01*
X027764Y019640D01*
X027370Y019325D02*
X027372Y019348D01*
X027378Y019371D01*
X027388Y019392D01*
X027401Y019412D01*
X027417Y019429D01*
X027436Y019443D01*
X027457Y019453D01*
X027479Y019460D01*
X027502Y019463D01*
X027526Y019462D01*
X027548Y019457D01*
X027570Y019448D01*
X027590Y019436D01*
X027608Y019420D01*
X027622Y019402D01*
X027634Y019382D01*
X027642Y019360D01*
X027646Y019337D01*
X027646Y019313D01*
X027642Y019290D01*
X027634Y019268D01*
X027622Y019248D01*
X027608Y019230D01*
X027590Y019214D01*
X027570Y019202D01*
X027548Y019193D01*
X027526Y019188D01*
X027502Y019187D01*
X027479Y019190D01*
X027457Y019197D01*
X027436Y019207D01*
X027417Y019221D01*
X027401Y019238D01*
X027388Y019258D01*
X027378Y019279D01*
X027372Y019302D01*
X027370Y019325D01*
X027370Y018774D02*
X027372Y018797D01*
X027378Y018820D01*
X027388Y018841D01*
X027401Y018861D01*
X027417Y018878D01*
X027436Y018892D01*
X027457Y018902D01*
X027479Y018909D01*
X027502Y018912D01*
X027526Y018911D01*
X027548Y018906D01*
X027570Y018897D01*
X027590Y018885D01*
X027608Y018869D01*
X027622Y018851D01*
X027634Y018831D01*
X027642Y018809D01*
X027646Y018786D01*
X027646Y018762D01*
X027642Y018739D01*
X027634Y018717D01*
X027622Y018697D01*
X027608Y018679D01*
X027590Y018663D01*
X027570Y018651D01*
X027548Y018642D01*
X027526Y018637D01*
X027502Y018636D01*
X027479Y018639D01*
X027457Y018646D01*
X027436Y018656D01*
X027417Y018670D01*
X027401Y018687D01*
X027388Y018707D01*
X027378Y018728D01*
X027372Y018751D01*
X027370Y018774D01*
X027370Y018144D02*
X027372Y018167D01*
X027378Y018190D01*
X027388Y018211D01*
X027401Y018231D01*
X027417Y018248D01*
X027436Y018262D01*
X027457Y018272D01*
X027479Y018279D01*
X027502Y018282D01*
X027526Y018281D01*
X027548Y018276D01*
X027570Y018267D01*
X027590Y018255D01*
X027608Y018239D01*
X027622Y018221D01*
X027634Y018201D01*
X027642Y018179D01*
X027646Y018156D01*
X027646Y018132D01*
X027642Y018109D01*
X027634Y018087D01*
X027622Y018067D01*
X027608Y018049D01*
X027590Y018033D01*
X027570Y018021D01*
X027548Y018012D01*
X027526Y018007D01*
X027502Y018006D01*
X027479Y018009D01*
X027457Y018016D01*
X027436Y018026D01*
X027417Y018040D01*
X027401Y018057D01*
X027388Y018077D01*
X027378Y018098D01*
X027372Y018121D01*
X027370Y018144D01*
X027370Y017593D02*
X027372Y017616D01*
X027378Y017639D01*
X027388Y017660D01*
X027401Y017680D01*
X027417Y017697D01*
X027436Y017711D01*
X027457Y017721D01*
X027479Y017728D01*
X027502Y017731D01*
X027526Y017730D01*
X027548Y017725D01*
X027570Y017716D01*
X027590Y017704D01*
X027608Y017688D01*
X027622Y017670D01*
X027634Y017650D01*
X027642Y017628D01*
X027646Y017605D01*
X027646Y017581D01*
X027642Y017558D01*
X027634Y017536D01*
X027622Y017516D01*
X027608Y017498D01*
X027590Y017482D01*
X027570Y017470D01*
X027548Y017461D01*
X027526Y017456D01*
X027502Y017455D01*
X027479Y017458D01*
X027457Y017465D01*
X027436Y017475D01*
X027417Y017489D01*
X027401Y017506D01*
X027388Y017526D01*
X027378Y017547D01*
X027372Y017570D01*
X027370Y017593D01*
X027685Y017278D02*
X027687Y017301D01*
X027693Y017324D01*
X027703Y017345D01*
X027716Y017365D01*
X027732Y017382D01*
X027751Y017396D01*
X027772Y017406D01*
X027794Y017413D01*
X027817Y017416D01*
X027841Y017415D01*
X027863Y017410D01*
X027885Y017401D01*
X027905Y017389D01*
X027923Y017373D01*
X027937Y017355D01*
X027949Y017335D01*
X027957Y017313D01*
X027961Y017290D01*
X027961Y017266D01*
X027957Y017243D01*
X027949Y017221D01*
X027937Y017201D01*
X027923Y017183D01*
X027905Y017167D01*
X027885Y017155D01*
X027863Y017146D01*
X027841Y017141D01*
X027817Y017140D01*
X027794Y017143D01*
X027772Y017150D01*
X027751Y017160D01*
X027732Y017174D01*
X027716Y017191D01*
X027703Y017211D01*
X027693Y017232D01*
X027687Y017255D01*
X027685Y017278D01*
X028237Y017042D02*
X028239Y017065D01*
X028245Y017088D01*
X028255Y017109D01*
X028268Y017129D01*
X028284Y017146D01*
X028303Y017160D01*
X028324Y017170D01*
X028346Y017177D01*
X028369Y017180D01*
X028393Y017179D01*
X028415Y017174D01*
X028437Y017165D01*
X028457Y017153D01*
X028475Y017137D01*
X028489Y017119D01*
X028501Y017099D01*
X028509Y017077D01*
X028513Y017054D01*
X028513Y017030D01*
X028509Y017007D01*
X028501Y016985D01*
X028489Y016965D01*
X028475Y016947D01*
X028457Y016931D01*
X028437Y016919D01*
X028415Y016910D01*
X028393Y016905D01*
X028369Y016904D01*
X028346Y016907D01*
X028324Y016914D01*
X028303Y016924D01*
X028284Y016938D01*
X028268Y016955D01*
X028255Y016975D01*
X028245Y016996D01*
X028239Y017019D01*
X028237Y017042D01*
X028788Y017042D02*
X028790Y017065D01*
X028796Y017088D01*
X028806Y017109D01*
X028819Y017129D01*
X028835Y017146D01*
X028854Y017160D01*
X028875Y017170D01*
X028897Y017177D01*
X028920Y017180D01*
X028944Y017179D01*
X028966Y017174D01*
X028988Y017165D01*
X029008Y017153D01*
X029026Y017137D01*
X029040Y017119D01*
X029052Y017099D01*
X029060Y017077D01*
X029064Y017054D01*
X029064Y017030D01*
X029060Y017007D01*
X029052Y016985D01*
X029040Y016965D01*
X029026Y016947D01*
X029008Y016931D01*
X028988Y016919D01*
X028966Y016910D01*
X028944Y016905D01*
X028920Y016904D01*
X028897Y016907D01*
X028875Y016914D01*
X028854Y016924D01*
X028835Y016938D01*
X028819Y016955D01*
X028806Y016975D01*
X028796Y016996D01*
X028790Y017019D01*
X028788Y017042D01*
X029260Y017278D02*
X029262Y017301D01*
X029268Y017324D01*
X029278Y017345D01*
X029291Y017365D01*
X029307Y017382D01*
X029326Y017396D01*
X029347Y017406D01*
X029369Y017413D01*
X029392Y017416D01*
X029416Y017415D01*
X029438Y017410D01*
X029460Y017401D01*
X029480Y017389D01*
X029498Y017373D01*
X029512Y017355D01*
X029524Y017335D01*
X029532Y017313D01*
X029536Y017290D01*
X029536Y017266D01*
X029532Y017243D01*
X029524Y017221D01*
X029512Y017201D01*
X029498Y017183D01*
X029480Y017167D01*
X029460Y017155D01*
X029438Y017146D01*
X029416Y017141D01*
X029392Y017140D01*
X029369Y017143D01*
X029347Y017150D01*
X029326Y017160D01*
X029307Y017174D01*
X029291Y017191D01*
X029278Y017211D01*
X029268Y017232D01*
X029262Y017255D01*
X029260Y017278D01*
X029733Y017593D02*
X029735Y017616D01*
X029741Y017639D01*
X029751Y017660D01*
X029764Y017680D01*
X029780Y017697D01*
X029799Y017711D01*
X029820Y017721D01*
X029842Y017728D01*
X029865Y017731D01*
X029889Y017730D01*
X029911Y017725D01*
X029933Y017716D01*
X029953Y017704D01*
X029971Y017688D01*
X029985Y017670D01*
X029997Y017650D01*
X030005Y017628D01*
X030009Y017605D01*
X030009Y017581D01*
X030005Y017558D01*
X029997Y017536D01*
X029985Y017516D01*
X029971Y017498D01*
X029953Y017482D01*
X029933Y017470D01*
X029911Y017461D01*
X029889Y017456D01*
X029865Y017455D01*
X029842Y017458D01*
X029820Y017465D01*
X029799Y017475D01*
X029780Y017489D01*
X029764Y017506D01*
X029751Y017526D01*
X029741Y017547D01*
X029735Y017570D01*
X029733Y017593D01*
X029733Y018144D02*
X029735Y018167D01*
X029741Y018190D01*
X029751Y018211D01*
X029764Y018231D01*
X029780Y018248D01*
X029799Y018262D01*
X029820Y018272D01*
X029842Y018279D01*
X029865Y018282D01*
X029889Y018281D01*
X029911Y018276D01*
X029933Y018267D01*
X029953Y018255D01*
X029971Y018239D01*
X029985Y018221D01*
X029997Y018201D01*
X030005Y018179D01*
X030009Y018156D01*
X030009Y018132D01*
X030005Y018109D01*
X029997Y018087D01*
X029985Y018067D01*
X029971Y018049D01*
X029953Y018033D01*
X029933Y018021D01*
X029911Y018012D01*
X029889Y018007D01*
X029865Y018006D01*
X029842Y018009D01*
X029820Y018016D01*
X029799Y018026D01*
X029780Y018040D01*
X029764Y018057D01*
X029751Y018077D01*
X029741Y018098D01*
X029735Y018121D01*
X029733Y018144D01*
X029733Y018774D02*
X029735Y018797D01*
X029741Y018820D01*
X029751Y018841D01*
X029764Y018861D01*
X029780Y018878D01*
X029799Y018892D01*
X029820Y018902D01*
X029842Y018909D01*
X029865Y018912D01*
X029889Y018911D01*
X029911Y018906D01*
X029933Y018897D01*
X029953Y018885D01*
X029971Y018869D01*
X029985Y018851D01*
X029997Y018831D01*
X030005Y018809D01*
X030009Y018786D01*
X030009Y018762D01*
X030005Y018739D01*
X029997Y018717D01*
X029985Y018697D01*
X029971Y018679D01*
X029953Y018663D01*
X029933Y018651D01*
X029911Y018642D01*
X029889Y018637D01*
X029865Y018636D01*
X029842Y018639D01*
X029820Y018646D01*
X029799Y018656D01*
X029780Y018670D01*
X029764Y018687D01*
X029751Y018707D01*
X029741Y018728D01*
X029735Y018751D01*
X029733Y018774D01*
X029733Y019325D02*
X029735Y019348D01*
X029741Y019371D01*
X029751Y019392D01*
X029764Y019412D01*
X029780Y019429D01*
X029799Y019443D01*
X029820Y019453D01*
X029842Y019460D01*
X029865Y019463D01*
X029889Y019462D01*
X029911Y019457D01*
X029933Y019448D01*
X029953Y019436D01*
X029971Y019420D01*
X029985Y019402D01*
X029997Y019382D01*
X030005Y019360D01*
X030009Y019337D01*
X030009Y019313D01*
X030005Y019290D01*
X029997Y019268D01*
X029985Y019248D01*
X029971Y019230D01*
X029953Y019214D01*
X029933Y019202D01*
X029911Y019193D01*
X029889Y019188D01*
X029865Y019187D01*
X029842Y019190D01*
X029820Y019197D01*
X029799Y019207D01*
X029780Y019221D01*
X029764Y019238D01*
X029751Y019258D01*
X029741Y019279D01*
X029735Y019302D01*
X029733Y019325D01*
X029339Y019640D02*
X029341Y019663D01*
X029347Y019686D01*
X029357Y019707D01*
X029370Y019727D01*
X029386Y019744D01*
X029405Y019758D01*
X029426Y019768D01*
X029448Y019775D01*
X029471Y019778D01*
X029495Y019777D01*
X029517Y019772D01*
X029539Y019763D01*
X029559Y019751D01*
X029577Y019735D01*
X029591Y019717D01*
X029603Y019697D01*
X029611Y019675D01*
X029615Y019652D01*
X029615Y019628D01*
X029611Y019605D01*
X029603Y019583D01*
X029591Y019563D01*
X029577Y019545D01*
X029559Y019529D01*
X029539Y019517D01*
X029517Y019508D01*
X029495Y019503D01*
X029471Y019502D01*
X029448Y019505D01*
X029426Y019512D01*
X029405Y019522D01*
X029386Y019536D01*
X029370Y019553D01*
X029357Y019573D01*
X029347Y019594D01*
X029341Y019617D01*
X029339Y019640D01*
X012544Y024867D02*
X012546Y024963D01*
X012552Y025058D01*
X012562Y025154D01*
X012576Y025249D01*
X012594Y025343D01*
X012615Y025436D01*
X012641Y025528D01*
X012670Y025620D01*
X012704Y025709D01*
X012741Y025798D01*
X012781Y025885D01*
X012825Y025970D01*
X012873Y026053D01*
X012924Y026134D01*
X012978Y026213D01*
X013036Y026289D01*
X013097Y026364D01*
X013160Y026435D01*
X013227Y026504D01*
X013297Y026570D01*
X013369Y026633D01*
X013443Y026693D01*
X013521Y026750D01*
X013600Y026803D01*
X013682Y026853D01*
X013765Y026900D01*
X013851Y026943D01*
X013938Y026983D01*
X014027Y027019D01*
X014117Y027051D01*
X014209Y027080D01*
X014301Y027104D01*
X014395Y027125D01*
X014489Y027142D01*
X014584Y027155D01*
X014679Y027164D01*
X014775Y027169D01*
X014871Y027170D01*
X014967Y027167D01*
X015062Y027160D01*
X015157Y027149D01*
X015252Y027134D01*
X015346Y027115D01*
X015439Y027093D01*
X015531Y027066D01*
X015622Y027036D01*
X015712Y027002D01*
X015800Y026964D01*
X015886Y026922D01*
X015971Y026877D01*
X016053Y026829D01*
X016134Y026777D01*
X016212Y026722D01*
X016288Y026663D01*
X016362Y026602D01*
X016433Y026537D01*
X016501Y026470D01*
X016566Y026400D01*
X016628Y026327D01*
X016687Y026251D01*
X016743Y026174D01*
X016796Y026094D01*
X016845Y026012D01*
X016891Y025927D01*
X016934Y025841D01*
X016972Y025754D01*
X017007Y025665D01*
X017039Y025574D01*
X017066Y025482D01*
X017090Y025389D01*
X017110Y025296D01*
X017126Y025201D01*
X017138Y025106D01*
X017146Y025011D01*
X017150Y024915D01*
X017150Y024819D01*
X017146Y024723D01*
X017138Y024628D01*
X017126Y024533D01*
X017110Y024438D01*
X017090Y024345D01*
X017066Y024252D01*
X017039Y024160D01*
X017007Y024069D01*
X016972Y023980D01*
X016934Y023893D01*
X016891Y023807D01*
X016845Y023722D01*
X016796Y023640D01*
X016743Y023560D01*
X016687Y023483D01*
X016628Y023407D01*
X016566Y023334D01*
X016501Y023264D01*
X016433Y023197D01*
X016362Y023132D01*
X016288Y023071D01*
X016212Y023012D01*
X016134Y022957D01*
X016053Y022905D01*
X015971Y022857D01*
X015886Y022812D01*
X015800Y022770D01*
X015712Y022732D01*
X015622Y022698D01*
X015531Y022668D01*
X015439Y022641D01*
X015346Y022619D01*
X015252Y022600D01*
X015157Y022585D01*
X015062Y022574D01*
X014967Y022567D01*
X014871Y022564D01*
X014775Y022565D01*
X014679Y022570D01*
X014584Y022579D01*
X014489Y022592D01*
X014395Y022609D01*
X014301Y022630D01*
X014209Y022654D01*
X014117Y022683D01*
X014027Y022715D01*
X013938Y022751D01*
X013851Y022791D01*
X013765Y022834D01*
X013682Y022881D01*
X013600Y022931D01*
X013521Y022984D01*
X013443Y023041D01*
X013369Y023101D01*
X013297Y023164D01*
X013227Y023230D01*
X013160Y023299D01*
X013097Y023370D01*
X013036Y023445D01*
X012978Y023521D01*
X012924Y023600D01*
X012873Y023681D01*
X012825Y023764D01*
X012781Y023849D01*
X012741Y023936D01*
X012704Y024025D01*
X012670Y024114D01*
X012641Y024206D01*
X012615Y024298D01*
X012594Y024391D01*
X012576Y024485D01*
X012562Y024580D01*
X012552Y024676D01*
X012546Y024771D01*
X012544Y024867D01*
X005894Y024867D02*
X005896Y024963D01*
X005902Y025058D01*
X005912Y025154D01*
X005926Y025249D01*
X005944Y025343D01*
X005965Y025436D01*
X005991Y025528D01*
X006020Y025620D01*
X006054Y025709D01*
X006091Y025798D01*
X006131Y025885D01*
X006175Y025970D01*
X006223Y026053D01*
X006274Y026134D01*
X006328Y026213D01*
X006386Y026289D01*
X006447Y026364D01*
X006510Y026435D01*
X006577Y026504D01*
X006647Y026570D01*
X006719Y026633D01*
X006793Y026693D01*
X006871Y026750D01*
X006950Y026803D01*
X007032Y026853D01*
X007115Y026900D01*
X007201Y026943D01*
X007288Y026983D01*
X007377Y027019D01*
X007467Y027051D01*
X007559Y027080D01*
X007651Y027104D01*
X007745Y027125D01*
X007839Y027142D01*
X007934Y027155D01*
X008029Y027164D01*
X008125Y027169D01*
X008221Y027170D01*
X008317Y027167D01*
X008412Y027160D01*
X008507Y027149D01*
X008602Y027134D01*
X008696Y027115D01*
X008789Y027093D01*
X008881Y027066D01*
X008972Y027036D01*
X009062Y027002D01*
X009150Y026964D01*
X009236Y026922D01*
X009321Y026877D01*
X009403Y026829D01*
X009484Y026777D01*
X009562Y026722D01*
X009638Y026663D01*
X009712Y026602D01*
X009783Y026537D01*
X009851Y026470D01*
X009916Y026400D01*
X009978Y026327D01*
X010037Y026251D01*
X010093Y026174D01*
X010146Y026094D01*
X010195Y026012D01*
X010241Y025927D01*
X010284Y025841D01*
X010322Y025754D01*
X010357Y025665D01*
X010389Y025574D01*
X010416Y025482D01*
X010440Y025389D01*
X010460Y025296D01*
X010476Y025201D01*
X010488Y025106D01*
X010496Y025011D01*
X010500Y024915D01*
X010500Y024819D01*
X010496Y024723D01*
X010488Y024628D01*
X010476Y024533D01*
X010460Y024438D01*
X010440Y024345D01*
X010416Y024252D01*
X010389Y024160D01*
X010357Y024069D01*
X010322Y023980D01*
X010284Y023893D01*
X010241Y023807D01*
X010195Y023722D01*
X010146Y023640D01*
X010093Y023560D01*
X010037Y023483D01*
X009978Y023407D01*
X009916Y023334D01*
X009851Y023264D01*
X009783Y023197D01*
X009712Y023132D01*
X009638Y023071D01*
X009562Y023012D01*
X009484Y022957D01*
X009403Y022905D01*
X009321Y022857D01*
X009236Y022812D01*
X009150Y022770D01*
X009062Y022732D01*
X008972Y022698D01*
X008881Y022668D01*
X008789Y022641D01*
X008696Y022619D01*
X008602Y022600D01*
X008507Y022585D01*
X008412Y022574D01*
X008317Y022567D01*
X008221Y022564D01*
X008125Y022565D01*
X008029Y022570D01*
X007934Y022579D01*
X007839Y022592D01*
X007745Y022609D01*
X007651Y022630D01*
X007559Y022654D01*
X007467Y022683D01*
X007377Y022715D01*
X007288Y022751D01*
X007201Y022791D01*
X007115Y022834D01*
X007032Y022881D01*
X006950Y022931D01*
X006871Y022984D01*
X006793Y023041D01*
X006719Y023101D01*
X006647Y023164D01*
X006577Y023230D01*
X006510Y023299D01*
X006447Y023370D01*
X006386Y023445D01*
X006328Y023521D01*
X006274Y023600D01*
X006223Y023681D01*
X006175Y023764D01*
X006131Y023849D01*
X006091Y023936D01*
X006054Y024025D01*
X006020Y024114D01*
X005991Y024206D01*
X005965Y024298D01*
X005944Y024391D01*
X005926Y024485D01*
X005912Y024580D01*
X005902Y024676D01*
X005896Y024771D01*
X005894Y024867D01*
X006575Y018260D02*
X010119Y018260D01*
X010145Y018258D01*
X010170Y018253D01*
X010194Y018245D01*
X010218Y018234D01*
X010239Y018219D01*
X010258Y018202D01*
X010275Y018183D01*
X010290Y018162D01*
X010301Y018138D01*
X010309Y018114D01*
X010314Y018089D01*
X010316Y018063D01*
X010315Y018063D02*
X010315Y016685D01*
X010316Y016685D02*
X010314Y016659D01*
X010309Y016634D01*
X010301Y016610D01*
X010290Y016587D01*
X010275Y016565D01*
X010258Y016546D01*
X010239Y016529D01*
X010218Y016514D01*
X010194Y016503D01*
X010170Y016495D01*
X010145Y016490D01*
X010119Y016488D01*
X010119Y016489D02*
X006575Y016489D01*
X006575Y016488D02*
X006549Y016490D01*
X006524Y016495D01*
X006500Y016503D01*
X006477Y016514D01*
X006455Y016529D01*
X006436Y016546D01*
X006419Y016565D01*
X006404Y016587D01*
X006393Y016610D01*
X006385Y016634D01*
X006380Y016659D01*
X006378Y016685D01*
X006378Y018063D01*
X006380Y018089D01*
X006385Y018114D01*
X006393Y018138D01*
X006404Y018162D01*
X006419Y018183D01*
X006436Y018202D01*
X006455Y018219D01*
X006477Y018234D01*
X006500Y018245D01*
X006524Y018253D01*
X006549Y018258D01*
X006575Y018260D01*
M02*
