G75*
%MOIN*%
%OFA0B0*%
%FSLAX25Y25*%
%IPPOS*%
%LPD*%
%AMOC8*
5,1,8,0,0,1.08239X$1,22.5*
%
%ADD10C,0.02165*%
%ADD11C,0.01417*%
%ADD12C,0.21654*%
%ADD13C,0.01000*%
D10*
X0136711Y0188508D02*
X0161121Y0178272D01*
X0146948Y0197957D01*
X0136711Y0188508D01*
X0163483Y0186146D01*
X0146948Y0197957D01*
X0156396Y0203469D02*
X0163483Y0186146D01*
X0161121Y0178272D01*
X0156396Y0203469D01*
D11*
X0169625Y0177406D02*
X0169625Y0166224D01*
X0166790Y0167563D02*
X0166790Y0171657D01*
X0166788Y0171731D01*
X0166782Y0171805D01*
X0166773Y0171879D01*
X0166759Y0171952D01*
X0166742Y0172024D01*
X0166721Y0172095D01*
X0166696Y0172165D01*
X0166667Y0172233D01*
X0166636Y0172300D01*
X0166600Y0172366D01*
X0166561Y0172429D01*
X0166519Y0172490D01*
X0166474Y0172549D01*
X0166426Y0172605D01*
X0166375Y0172659D01*
X0166321Y0172710D01*
X0166265Y0172758D01*
X0166206Y0172803D01*
X0166145Y0172845D01*
X0166082Y0172884D01*
X0166016Y0172920D01*
X0165949Y0172951D01*
X0165881Y0172980D01*
X0165811Y0173005D01*
X0165740Y0173026D01*
X0165668Y0173043D01*
X0165595Y0173057D01*
X0165521Y0173066D01*
X0165447Y0173072D01*
X0165373Y0173074D01*
X0165373Y0173075D02*
X0163010Y0173075D01*
X0163010Y0166146D01*
X0165373Y0166146D01*
X0165447Y0166148D01*
X0165521Y0166154D01*
X0165595Y0166163D01*
X0165668Y0166177D01*
X0165740Y0166194D01*
X0165811Y0166215D01*
X0165881Y0166240D01*
X0165949Y0166269D01*
X0166016Y0166300D01*
X0166082Y0166336D01*
X0166145Y0166375D01*
X0166206Y0166417D01*
X0166265Y0166462D01*
X0166321Y0166510D01*
X0166375Y0166561D01*
X0166426Y0166615D01*
X0166474Y0166671D01*
X0166519Y0166730D01*
X0166561Y0166791D01*
X0166600Y0166855D01*
X0166636Y0166920D01*
X0166667Y0166987D01*
X0166696Y0167055D01*
X0166721Y0167125D01*
X0166742Y0167196D01*
X0166759Y0167268D01*
X0166773Y0167341D01*
X0166782Y0167415D01*
X0166788Y0167489D01*
X0166790Y0167563D01*
X0163010Y0166067D02*
X0163010Y0161972D01*
X0159546Y0166146D02*
X0158129Y0166146D01*
X0158055Y0166148D01*
X0157981Y0166154D01*
X0157907Y0166163D01*
X0157834Y0166177D01*
X0157762Y0166194D01*
X0157691Y0166215D01*
X0157621Y0166240D01*
X0157553Y0166269D01*
X0157486Y0166300D01*
X0157421Y0166336D01*
X0157357Y0166375D01*
X0157296Y0166417D01*
X0157237Y0166462D01*
X0157181Y0166510D01*
X0157127Y0166561D01*
X0157076Y0166615D01*
X0157028Y0166671D01*
X0156983Y0166730D01*
X0156941Y0166791D01*
X0156902Y0166855D01*
X0156866Y0166920D01*
X0156835Y0166987D01*
X0156806Y0167055D01*
X0156781Y0167125D01*
X0156760Y0167196D01*
X0156743Y0167268D01*
X0156729Y0167341D01*
X0156720Y0167415D01*
X0156714Y0167489D01*
X0156712Y0167563D01*
X0156711Y0167563D02*
X0156711Y0171657D01*
X0156712Y0171657D02*
X0156714Y0171731D01*
X0156720Y0171805D01*
X0156729Y0171879D01*
X0156743Y0171952D01*
X0156760Y0172024D01*
X0156781Y0172095D01*
X0156806Y0172165D01*
X0156835Y0172233D01*
X0156866Y0172300D01*
X0156902Y0172366D01*
X0156941Y0172429D01*
X0156983Y0172490D01*
X0157028Y0172549D01*
X0157076Y0172605D01*
X0157127Y0172659D01*
X0157181Y0172710D01*
X0157237Y0172758D01*
X0157296Y0172803D01*
X0157357Y0172845D01*
X0157421Y0172884D01*
X0157486Y0172920D01*
X0157553Y0172951D01*
X0157621Y0172980D01*
X0157691Y0173005D01*
X0157762Y0173026D01*
X0157834Y0173043D01*
X0157907Y0173057D01*
X0157981Y0173066D01*
X0158055Y0173072D01*
X0158129Y0173074D01*
X0158129Y0173075D02*
X0159073Y0173075D01*
X0159073Y0173074D02*
X0159147Y0173072D01*
X0159221Y0173066D01*
X0159295Y0173057D01*
X0159368Y0173043D01*
X0159440Y0173026D01*
X0159511Y0173005D01*
X0159581Y0172980D01*
X0159649Y0172951D01*
X0159716Y0172920D01*
X0159782Y0172884D01*
X0159845Y0172845D01*
X0159906Y0172803D01*
X0159965Y0172758D01*
X0160021Y0172710D01*
X0160075Y0172659D01*
X0160126Y0172605D01*
X0160174Y0172549D01*
X0160219Y0172490D01*
X0160261Y0172429D01*
X0160300Y0172366D01*
X0160336Y0172300D01*
X0160367Y0172233D01*
X0160396Y0172165D01*
X0160421Y0172095D01*
X0160442Y0172024D01*
X0160459Y0171952D01*
X0160473Y0171879D01*
X0160482Y0171805D01*
X0160488Y0171731D01*
X0160490Y0171657D01*
X0160491Y0171500D02*
X0160491Y0169610D01*
X0157184Y0169610D01*
X0160097Y0166697D02*
X0160095Y0166651D01*
X0160089Y0166606D01*
X0160080Y0166562D01*
X0160067Y0166518D01*
X0160051Y0166476D01*
X0160031Y0166435D01*
X0160007Y0166396D01*
X0159981Y0166359D01*
X0159951Y0166324D01*
X0159919Y0166292D01*
X0159884Y0166262D01*
X0159847Y0166236D01*
X0159808Y0166212D01*
X0159767Y0166192D01*
X0159725Y0166176D01*
X0159681Y0166163D01*
X0159637Y0166154D01*
X0159592Y0166148D01*
X0159546Y0166146D01*
X0151042Y0166146D02*
X0151042Y0171657D01*
X0151040Y0171731D01*
X0151034Y0171805D01*
X0151025Y0171879D01*
X0151011Y0171952D01*
X0150994Y0172024D01*
X0150973Y0172095D01*
X0150948Y0172165D01*
X0150919Y0172233D01*
X0150888Y0172300D01*
X0150852Y0172366D01*
X0150813Y0172429D01*
X0150771Y0172490D01*
X0150726Y0172549D01*
X0150678Y0172605D01*
X0150627Y0172659D01*
X0150573Y0172710D01*
X0150517Y0172758D01*
X0150458Y0172803D01*
X0150397Y0172845D01*
X0150334Y0172884D01*
X0150268Y0172920D01*
X0150201Y0172951D01*
X0150133Y0172980D01*
X0150063Y0173005D01*
X0149992Y0173026D01*
X0149920Y0173043D01*
X0149847Y0173057D01*
X0149773Y0173066D01*
X0149699Y0173072D01*
X0149625Y0173074D01*
X0149625Y0173075D02*
X0147262Y0173075D01*
X0147262Y0166146D01*
X0143640Y0166146D02*
X0142223Y0166146D01*
X0142149Y0166148D01*
X0142075Y0166154D01*
X0142001Y0166163D01*
X0141928Y0166177D01*
X0141856Y0166194D01*
X0141785Y0166215D01*
X0141715Y0166240D01*
X0141647Y0166269D01*
X0141580Y0166300D01*
X0141515Y0166336D01*
X0141451Y0166375D01*
X0141390Y0166417D01*
X0141331Y0166462D01*
X0141275Y0166510D01*
X0141221Y0166561D01*
X0141170Y0166615D01*
X0141122Y0166671D01*
X0141077Y0166730D01*
X0141035Y0166791D01*
X0140996Y0166855D01*
X0140960Y0166920D01*
X0140929Y0166987D01*
X0140900Y0167055D01*
X0140875Y0167125D01*
X0140854Y0167196D01*
X0140837Y0167268D01*
X0140823Y0167341D01*
X0140814Y0167415D01*
X0140808Y0167489D01*
X0140806Y0167563D01*
X0140806Y0171657D01*
X0140808Y0171731D01*
X0140814Y0171805D01*
X0140823Y0171879D01*
X0140837Y0171952D01*
X0140854Y0172024D01*
X0140875Y0172095D01*
X0140900Y0172165D01*
X0140929Y0172233D01*
X0140960Y0172300D01*
X0140996Y0172366D01*
X0141035Y0172429D01*
X0141077Y0172490D01*
X0141122Y0172549D01*
X0141170Y0172605D01*
X0141221Y0172659D01*
X0141275Y0172710D01*
X0141331Y0172758D01*
X0141390Y0172803D01*
X0141451Y0172845D01*
X0141515Y0172884D01*
X0141580Y0172920D01*
X0141647Y0172951D01*
X0141715Y0172980D01*
X0141785Y0173005D01*
X0141856Y0173026D01*
X0141928Y0173043D01*
X0142001Y0173057D01*
X0142075Y0173066D01*
X0142149Y0173072D01*
X0142223Y0173074D01*
X0142223Y0173075D02*
X0143168Y0173075D01*
X0143168Y0173074D02*
X0143242Y0173072D01*
X0143316Y0173066D01*
X0143390Y0173057D01*
X0143463Y0173043D01*
X0143535Y0173026D01*
X0143606Y0173005D01*
X0143676Y0172980D01*
X0143744Y0172951D01*
X0143811Y0172920D01*
X0143877Y0172884D01*
X0143940Y0172845D01*
X0144001Y0172803D01*
X0144060Y0172758D01*
X0144116Y0172710D01*
X0144170Y0172659D01*
X0144221Y0172605D01*
X0144269Y0172549D01*
X0144314Y0172490D01*
X0144356Y0172429D01*
X0144395Y0172366D01*
X0144431Y0172300D01*
X0144462Y0172233D01*
X0144491Y0172165D01*
X0144516Y0172095D01*
X0144537Y0172024D01*
X0144554Y0171952D01*
X0144568Y0171879D01*
X0144577Y0171805D01*
X0144583Y0171731D01*
X0144585Y0171657D01*
X0144585Y0171500D02*
X0144585Y0169610D01*
X0141278Y0169610D01*
X0138207Y0167563D02*
X0138207Y0171657D01*
X0138205Y0171731D01*
X0138199Y0171805D01*
X0138190Y0171879D01*
X0138176Y0171952D01*
X0138159Y0172024D01*
X0138138Y0172095D01*
X0138113Y0172165D01*
X0138084Y0172233D01*
X0138053Y0172300D01*
X0138017Y0172366D01*
X0137978Y0172429D01*
X0137936Y0172490D01*
X0137891Y0172549D01*
X0137843Y0172605D01*
X0137792Y0172659D01*
X0137738Y0172710D01*
X0137682Y0172758D01*
X0137623Y0172803D01*
X0137562Y0172845D01*
X0137499Y0172884D01*
X0137433Y0172920D01*
X0137366Y0172951D01*
X0137298Y0172980D01*
X0137228Y0173005D01*
X0137157Y0173026D01*
X0137085Y0173043D01*
X0137012Y0173057D01*
X0136938Y0173066D01*
X0136864Y0173072D01*
X0136790Y0173074D01*
X0136790Y0173075D02*
X0134428Y0173075D01*
X0134428Y0166146D01*
X0136790Y0166146D01*
X0136864Y0166148D01*
X0136938Y0166154D01*
X0137012Y0166163D01*
X0137085Y0166177D01*
X0137157Y0166194D01*
X0137228Y0166215D01*
X0137298Y0166240D01*
X0137366Y0166269D01*
X0137433Y0166300D01*
X0137499Y0166336D01*
X0137562Y0166375D01*
X0137623Y0166417D01*
X0137682Y0166462D01*
X0137738Y0166510D01*
X0137792Y0166561D01*
X0137843Y0166615D01*
X0137891Y0166671D01*
X0137936Y0166730D01*
X0137978Y0166791D01*
X0138017Y0166855D01*
X0138053Y0166920D01*
X0138084Y0166987D01*
X0138113Y0167055D01*
X0138138Y0167125D01*
X0138159Y0167196D01*
X0138176Y0167268D01*
X0138190Y0167341D01*
X0138199Y0167415D01*
X0138205Y0167489D01*
X0138207Y0167563D01*
X0134428Y0166067D02*
X0134428Y0161972D01*
X0130176Y0166146D02*
X0129703Y0166146D01*
X0129467Y0166146D02*
X0129393Y0166148D01*
X0129319Y0166154D01*
X0129245Y0166163D01*
X0129172Y0166177D01*
X0129100Y0166194D01*
X0129029Y0166215D01*
X0128959Y0166240D01*
X0128891Y0166269D01*
X0128824Y0166300D01*
X0128759Y0166336D01*
X0128695Y0166375D01*
X0128634Y0166417D01*
X0128575Y0166462D01*
X0128519Y0166510D01*
X0128465Y0166561D01*
X0128414Y0166615D01*
X0128366Y0166671D01*
X0128321Y0166730D01*
X0128279Y0166791D01*
X0128240Y0166855D01*
X0128204Y0166920D01*
X0128173Y0166987D01*
X0128144Y0167055D01*
X0128119Y0167125D01*
X0128098Y0167196D01*
X0128081Y0167268D01*
X0128067Y0167341D01*
X0128058Y0167415D01*
X0128052Y0167489D01*
X0128050Y0167563D01*
X0128050Y0171657D01*
X0128052Y0171731D01*
X0128058Y0171805D01*
X0128067Y0171879D01*
X0128081Y0171952D01*
X0128098Y0172024D01*
X0128119Y0172095D01*
X0128144Y0172165D01*
X0128173Y0172233D01*
X0128204Y0172300D01*
X0128240Y0172366D01*
X0128279Y0172429D01*
X0128321Y0172490D01*
X0128366Y0172549D01*
X0128414Y0172605D01*
X0128465Y0172659D01*
X0128519Y0172710D01*
X0128575Y0172758D01*
X0128634Y0172803D01*
X0128695Y0172845D01*
X0128759Y0172884D01*
X0128824Y0172920D01*
X0128891Y0172951D01*
X0128959Y0172980D01*
X0129029Y0173005D01*
X0129100Y0173026D01*
X0129172Y0173043D01*
X0129245Y0173057D01*
X0129319Y0173066D01*
X0129393Y0173072D01*
X0129467Y0173074D01*
X0129585Y0173075D02*
X0130412Y0173075D01*
X0130373Y0173074D02*
X0130447Y0173072D01*
X0130521Y0173066D01*
X0130595Y0173057D01*
X0130668Y0173043D01*
X0130740Y0173026D01*
X0130811Y0173005D01*
X0130881Y0172980D01*
X0130949Y0172951D01*
X0131016Y0172920D01*
X0131082Y0172884D01*
X0131145Y0172845D01*
X0131206Y0172803D01*
X0131265Y0172758D01*
X0131321Y0172710D01*
X0131375Y0172659D01*
X0131426Y0172605D01*
X0131474Y0172549D01*
X0131519Y0172490D01*
X0131561Y0172429D01*
X0131600Y0172366D01*
X0131636Y0172300D01*
X0131667Y0172233D01*
X0131696Y0172165D01*
X0131721Y0172095D01*
X0131742Y0172024D01*
X0131759Y0171952D01*
X0131773Y0171879D01*
X0131782Y0171805D01*
X0131788Y0171731D01*
X0131790Y0171657D01*
X0131790Y0167563D01*
X0131788Y0167489D01*
X0131782Y0167415D01*
X0131773Y0167341D01*
X0131759Y0167268D01*
X0131742Y0167196D01*
X0131721Y0167125D01*
X0131696Y0167055D01*
X0131667Y0166987D01*
X0131636Y0166920D01*
X0131600Y0166855D01*
X0131561Y0166791D01*
X0131519Y0166730D01*
X0131474Y0166671D01*
X0131426Y0166615D01*
X0131375Y0166561D01*
X0131321Y0166510D01*
X0131265Y0166462D01*
X0131206Y0166417D01*
X0131145Y0166375D01*
X0131082Y0166336D01*
X0131016Y0166300D01*
X0130949Y0166269D01*
X0130881Y0166240D01*
X0130811Y0166215D01*
X0130740Y0166194D01*
X0130668Y0166177D01*
X0130595Y0166163D01*
X0130521Y0166154D01*
X0130447Y0166148D01*
X0130373Y0166146D01*
X0143640Y0166146D02*
X0143686Y0166148D01*
X0143731Y0166154D01*
X0143775Y0166163D01*
X0143819Y0166176D01*
X0143861Y0166192D01*
X0143902Y0166212D01*
X0143941Y0166236D01*
X0143978Y0166262D01*
X0144013Y0166292D01*
X0144045Y0166324D01*
X0144075Y0166359D01*
X0144101Y0166396D01*
X0144125Y0166435D01*
X0144145Y0166476D01*
X0144161Y0166518D01*
X0144174Y0166562D01*
X0144183Y0166606D01*
X0144189Y0166651D01*
X0144191Y0166697D01*
X0170176Y0173075D02*
X0171987Y0173075D01*
X0171987Y0173074D02*
X0172061Y0173072D01*
X0172135Y0173066D01*
X0172209Y0173057D01*
X0172282Y0173043D01*
X0172354Y0173026D01*
X0172425Y0173005D01*
X0172495Y0172980D01*
X0172563Y0172951D01*
X0172630Y0172920D01*
X0172696Y0172884D01*
X0172759Y0172845D01*
X0172820Y0172803D01*
X0172879Y0172758D01*
X0172935Y0172710D01*
X0172989Y0172659D01*
X0173040Y0172605D01*
X0173088Y0172549D01*
X0173133Y0172490D01*
X0173175Y0172429D01*
X0173214Y0172366D01*
X0173250Y0172300D01*
X0173281Y0172233D01*
X0173310Y0172165D01*
X0173335Y0172095D01*
X0173356Y0172024D01*
X0173373Y0171952D01*
X0173387Y0171879D01*
X0173396Y0171805D01*
X0173402Y0171731D01*
X0173404Y0171657D01*
X0173483Y0166146D01*
X0177814Y0166224D02*
X0175215Y0173783D01*
X0180255Y0173783D02*
X0176948Y0163154D01*
X0176869Y0162996D02*
X0176318Y0162209D01*
X0175609Y0162051D01*
X0175215Y0162051D01*
X0182066Y0166539D02*
X0182066Y0166697D01*
X0182066Y0166539D02*
X0182223Y0166303D01*
X0182617Y0166067D01*
X0182932Y0165909D01*
X0183010Y0165909D02*
X0183955Y0165909D01*
X0183955Y0165910D02*
X0184029Y0165912D01*
X0184103Y0165918D01*
X0184177Y0165927D01*
X0184250Y0165941D01*
X0184322Y0165958D01*
X0184393Y0165979D01*
X0184463Y0166004D01*
X0184531Y0166033D01*
X0184598Y0166064D01*
X0184664Y0166100D01*
X0184727Y0166139D01*
X0184788Y0166181D01*
X0184847Y0166226D01*
X0184903Y0166274D01*
X0184957Y0166325D01*
X0185008Y0166379D01*
X0185056Y0166435D01*
X0185101Y0166494D01*
X0185143Y0166555D01*
X0185182Y0166619D01*
X0185218Y0166684D01*
X0185249Y0166751D01*
X0185278Y0166819D01*
X0185303Y0166889D01*
X0185324Y0166960D01*
X0185341Y0167032D01*
X0185355Y0167105D01*
X0185364Y0167179D01*
X0185370Y0167253D01*
X0185372Y0167327D01*
X0185373Y0167406D02*
X0185373Y0167799D01*
X0185294Y0168193D01*
X0184585Y0168902D01*
X0183325Y0169846D01*
X0183562Y0169689D02*
X0182302Y0170634D01*
X0181987Y0171106D01*
X0181908Y0171500D01*
X0181908Y0171894D01*
X0181908Y0171972D02*
X0181910Y0172046D01*
X0181916Y0172120D01*
X0181925Y0172194D01*
X0181939Y0172267D01*
X0181956Y0172339D01*
X0181977Y0172410D01*
X0182002Y0172480D01*
X0182031Y0172548D01*
X0182062Y0172615D01*
X0182098Y0172681D01*
X0182137Y0172744D01*
X0182179Y0172805D01*
X0182224Y0172864D01*
X0182272Y0172920D01*
X0182323Y0172974D01*
X0182377Y0173025D01*
X0182433Y0173073D01*
X0182492Y0173118D01*
X0182553Y0173160D01*
X0182617Y0173199D01*
X0182682Y0173235D01*
X0182749Y0173266D01*
X0182817Y0173295D01*
X0182887Y0173320D01*
X0182958Y0173341D01*
X0183030Y0173358D01*
X0183103Y0173372D01*
X0183177Y0173381D01*
X0183251Y0173387D01*
X0183325Y0173389D01*
X0183325Y0173390D02*
X0184270Y0173390D01*
X0184349Y0173390D02*
X0184664Y0173232D01*
X0185058Y0172996D01*
X0185215Y0172760D01*
X0185215Y0172602D01*
D12*
X0049392Y0173429D03*
X0049392Y0134020D03*
X0049392Y0035634D03*
X0049392Y0271815D03*
X0525770Y0271815D03*
X0525770Y0173429D03*
X0525770Y0134020D03*
X0525770Y0035634D03*
D13*
X0030601Y0017831D02*
X0028705Y0020441D01*
X0027708Y0023509D01*
X0027581Y0025122D01*
X0027581Y0034506D01*
X0033067Y0031763D01*
X0033334Y0031496D01*
X0033601Y0031496D01*
X0033840Y0031377D01*
X0034199Y0031496D01*
X0034577Y0031496D01*
X0034766Y0031685D01*
X0035019Y0031770D01*
X0035188Y0032108D01*
X0035455Y0032375D01*
X0035455Y0032642D01*
X0035575Y0032881D01*
X0035455Y0033239D01*
X0035455Y0070154D01*
X0035575Y0070513D01*
X0035455Y0070752D01*
X0035455Y0071019D01*
X0035188Y0071286D01*
X0035019Y0071624D01*
X0034766Y0071709D01*
X0034577Y0071898D01*
X0034199Y0071898D01*
X0033840Y0072017D01*
X0033601Y0071898D01*
X0033334Y0071898D01*
X0033067Y0071630D01*
X0027581Y0068888D01*
X0027581Y0096514D01*
X0033067Y0093771D01*
X0033334Y0093504D01*
X0033601Y0093504D01*
X0033840Y0093384D01*
X0034199Y0093504D01*
X0034577Y0093504D01*
X0034766Y0093693D01*
X0035019Y0093777D01*
X0035188Y0094115D01*
X0035455Y0094383D01*
X0035455Y0094650D01*
X0035575Y0094889D01*
X0035455Y0095247D01*
X0035455Y0132162D01*
X0035575Y0132521D01*
X0035455Y0132760D01*
X0035455Y0133027D01*
X0035188Y0133294D01*
X0035019Y0133632D01*
X0034766Y0133717D01*
X0034577Y0133905D01*
X0034199Y0133905D01*
X0033840Y0134025D01*
X0033601Y0133905D01*
X0033334Y0133905D01*
X0033067Y0133638D01*
X0027581Y0130896D01*
X0027581Y0139295D01*
X0027708Y0140908D01*
X0028705Y0143976D01*
X0030601Y0146586D01*
X0033211Y0148482D01*
X0036279Y0149479D01*
X0037892Y0149606D01*
X0537271Y0149606D01*
X0537892Y0149606D01*
X0539505Y0149479D01*
X0542573Y0148482D01*
X0545183Y0146586D01*
X0547080Y0143976D01*
X0548076Y0140908D01*
X0548203Y0139295D01*
X0548203Y0130896D01*
X0542718Y0133638D01*
X0542451Y0133905D01*
X0542183Y0133905D01*
X0541944Y0134025D01*
X0541586Y0133905D01*
X0541208Y0133905D01*
X0541019Y0133717D01*
X0540766Y0133632D01*
X0540597Y0133294D01*
X0540329Y0133027D01*
X0540329Y0132760D01*
X0540210Y0132521D01*
X0540329Y0132162D01*
X0540329Y0095247D01*
X0540210Y0094889D01*
X0540329Y0094650D01*
X0540329Y0094383D01*
X0540597Y0094115D01*
X0540766Y0093777D01*
X0541019Y0093693D01*
X0541208Y0093504D01*
X0541586Y0093504D01*
X0541944Y0093384D01*
X0542183Y0093504D01*
X0542451Y0093504D01*
X0542718Y0093771D01*
X0548203Y0096514D01*
X0548203Y0068888D01*
X0542718Y0071630D01*
X0542451Y0071898D01*
X0542183Y0071898D01*
X0541944Y0072017D01*
X0541586Y0071898D01*
X0541208Y0071898D01*
X0541019Y0071709D01*
X0540766Y0071624D01*
X0540597Y0071286D01*
X0540329Y0071019D01*
X0540329Y0070752D01*
X0540210Y0070513D01*
X0540329Y0070154D01*
X0540329Y0033239D01*
X0540210Y0032881D01*
X0540329Y0032642D01*
X0540329Y0032375D01*
X0540597Y0032108D01*
X0540766Y0031770D01*
X0541019Y0031685D01*
X0541208Y0031496D01*
X0541586Y0031496D01*
X0541944Y0031377D01*
X0542183Y0031496D01*
X0542451Y0031496D01*
X0542718Y0031763D01*
X0548203Y0034506D01*
X0548203Y0025122D01*
X0548076Y0023509D01*
X0547080Y0020441D01*
X0545183Y0017831D01*
X0542573Y0015935D01*
X0539505Y0014938D01*
X0537892Y0014811D01*
X0037892Y0014811D01*
X0036279Y0014938D01*
X0033211Y0015935D01*
X0030601Y0017831D01*
X0030258Y0018304D02*
X0545527Y0018304D01*
X0546252Y0019302D02*
X0029533Y0019302D01*
X0028807Y0020301D02*
X0546978Y0020301D01*
X0547358Y0021299D02*
X0028426Y0021299D01*
X0028102Y0022298D02*
X0547683Y0022298D01*
X0548007Y0023296D02*
X0027777Y0023296D01*
X0027646Y0024295D02*
X0548138Y0024295D01*
X0548203Y0025293D02*
X0027581Y0025293D01*
X0027581Y0026292D02*
X0548203Y0026292D01*
X0548203Y0027290D02*
X0027581Y0027290D01*
X0027581Y0028289D02*
X0548203Y0028289D01*
X0548203Y0029287D02*
X0027581Y0029287D01*
X0027581Y0030286D02*
X0548203Y0030286D01*
X0548203Y0031284D02*
X0027581Y0031284D01*
X0027581Y0032283D02*
X0032028Y0032283D01*
X0030031Y0033281D02*
X0027581Y0033281D01*
X0027581Y0034280D02*
X0028034Y0034280D01*
X0035455Y0034280D02*
X0540329Y0034280D01*
X0540329Y0035278D02*
X0035455Y0035278D01*
X0035455Y0036277D02*
X0540329Y0036277D01*
X0540329Y0037275D02*
X0035455Y0037275D01*
X0035455Y0038274D02*
X0540329Y0038274D01*
X0540329Y0039272D02*
X0035455Y0039272D01*
X0035455Y0040271D02*
X0540329Y0040271D01*
X0540329Y0041269D02*
X0035455Y0041269D01*
X0035455Y0042268D02*
X0106337Y0042268D01*
X0106924Y0041929D02*
X0115082Y0041929D01*
X0116691Y0042859D01*
X0117621Y0044468D01*
X0117621Y0073492D01*
X0116691Y0075102D01*
X0115082Y0076031D01*
X0106924Y0076031D01*
X0105314Y0075102D01*
X0104385Y0073492D01*
X0104385Y0073184D01*
X0104385Y0044468D01*
X0105314Y0042859D01*
X0106924Y0041929D01*
X0105314Y0042859D02*
X0105314Y0042859D01*
X0105314Y0042859D01*
X0105078Y0043266D02*
X0035455Y0043266D01*
X0035455Y0044265D02*
X0104502Y0044265D01*
X0104385Y0045263D02*
X0035455Y0045263D01*
X0035455Y0046262D02*
X0104385Y0046262D01*
X0104385Y0047260D02*
X0035455Y0047260D01*
X0035455Y0048259D02*
X0104385Y0048259D01*
X0104385Y0049257D02*
X0035455Y0049257D01*
X0035455Y0050256D02*
X0104385Y0050256D01*
X0104385Y0051254D02*
X0035455Y0051254D01*
X0035455Y0052253D02*
X0104385Y0052253D01*
X0104385Y0053251D02*
X0035455Y0053251D01*
X0035455Y0054250D02*
X0104385Y0054250D01*
X0104385Y0055248D02*
X0035455Y0055248D01*
X0035455Y0056247D02*
X0104385Y0056247D01*
X0104385Y0057246D02*
X0035455Y0057246D01*
X0035455Y0058244D02*
X0104385Y0058244D01*
X0104385Y0059243D02*
X0035455Y0059243D01*
X0035455Y0060241D02*
X0104385Y0060241D01*
X0104385Y0061240D02*
X0035455Y0061240D01*
X0035455Y0062238D02*
X0104385Y0062238D01*
X0104385Y0063237D02*
X0035455Y0063237D01*
X0035455Y0064235D02*
X0104385Y0064235D01*
X0104385Y0065234D02*
X0035455Y0065234D01*
X0035455Y0066232D02*
X0104385Y0066232D01*
X0104385Y0067231D02*
X0035455Y0067231D01*
X0035455Y0068229D02*
X0104385Y0068229D01*
X0104385Y0069228D02*
X0035455Y0069228D01*
X0035479Y0070226D02*
X0104385Y0070226D01*
X0104385Y0071225D02*
X0035250Y0071225D01*
X0032255Y0071225D02*
X0027581Y0071225D01*
X0027581Y0072223D02*
X0104385Y0072223D01*
X0104385Y0073222D02*
X0027581Y0073222D01*
X0027581Y0074220D02*
X0104805Y0074220D01*
X0105314Y0075102D02*
X0105314Y0075102D01*
X0105314Y0075102D01*
X0105516Y0075219D02*
X0027581Y0075219D01*
X0027581Y0076217D02*
X0380819Y0076217D01*
X0381857Y0075618D02*
X0376892Y0078485D01*
X0372838Y0082539D01*
X0369971Y0087504D01*
X0368487Y0093043D01*
X0368487Y0098776D01*
X0369971Y0104315D01*
X0372838Y0109280D01*
X0376892Y0113334D01*
X0381857Y0116201D01*
X0387396Y0117685D01*
X0393129Y0117685D01*
X0398668Y0116201D01*
X0403633Y0113334D01*
X0407687Y0109280D01*
X0410554Y0104315D01*
X0412038Y0098776D01*
X0412038Y0093043D01*
X0410554Y0087504D01*
X0407687Y0082539D01*
X0403633Y0078485D01*
X0398668Y0075618D01*
X0393129Y0074134D01*
X0387396Y0074134D01*
X0381857Y0075618D01*
X0383347Y0075219D02*
X0248379Y0075219D01*
X0248581Y0075102D02*
X0246971Y0076031D01*
X0238813Y0076031D01*
X0237204Y0075102D01*
X0236274Y0073492D01*
X0236274Y0073184D01*
X0236274Y0044468D01*
X0237204Y0042859D01*
X0238813Y0041929D01*
X0246971Y0041929D01*
X0248581Y0042859D01*
X0249510Y0044468D01*
X0249510Y0073492D01*
X0248581Y0075102D01*
X0248581Y0075102D01*
X0248581Y0075102D01*
X0249090Y0074220D02*
X0387073Y0074220D01*
X0393452Y0074220D02*
X0548203Y0074220D01*
X0548203Y0073222D02*
X0249510Y0073222D01*
X0249510Y0072223D02*
X0548203Y0072223D01*
X0548203Y0071225D02*
X0543529Y0071225D01*
X0545526Y0070226D02*
X0548203Y0070226D01*
X0548203Y0069228D02*
X0547523Y0069228D01*
X0540329Y0069228D02*
X0249510Y0069228D01*
X0249510Y0070226D02*
X0540305Y0070226D01*
X0540535Y0071225D02*
X0249510Y0071225D01*
X0249510Y0068229D02*
X0540329Y0068229D01*
X0540329Y0067231D02*
X0249510Y0067231D01*
X0249510Y0066232D02*
X0540329Y0066232D01*
X0540329Y0065234D02*
X0249510Y0065234D01*
X0249510Y0064235D02*
X0540329Y0064235D01*
X0540329Y0063237D02*
X0392666Y0063237D01*
X0393320Y0062966D02*
X0391336Y0063787D01*
X0389189Y0063787D01*
X0387205Y0062966D01*
X0385687Y0061447D01*
X0384865Y0059463D01*
X0384865Y0057316D01*
X0385687Y0055332D01*
X0387205Y0053814D01*
X0389189Y0052992D01*
X0391336Y0052992D01*
X0393320Y0053814D01*
X0394838Y0055332D01*
X0395660Y0057316D01*
X0395660Y0059463D01*
X0394838Y0061447D01*
X0393320Y0062966D01*
X0394048Y0062238D02*
X0540329Y0062238D01*
X0540329Y0061240D02*
X0394924Y0061240D01*
X0395338Y0060241D02*
X0540329Y0060241D01*
X0540329Y0059243D02*
X0395660Y0059243D01*
X0395660Y0058244D02*
X0540329Y0058244D01*
X0540329Y0057246D02*
X0395631Y0057246D01*
X0395217Y0056247D02*
X0540329Y0056247D01*
X0540329Y0055248D02*
X0394755Y0055248D01*
X0393756Y0054250D02*
X0540329Y0054250D01*
X0540329Y0053251D02*
X0391962Y0053251D01*
X0388563Y0053251D02*
X0249510Y0053251D01*
X0249510Y0052253D02*
X0540329Y0052253D01*
X0540329Y0051254D02*
X0249510Y0051254D01*
X0249510Y0050256D02*
X0540329Y0050256D01*
X0540329Y0049257D02*
X0249510Y0049257D01*
X0249510Y0048259D02*
X0540329Y0048259D01*
X0540329Y0047260D02*
X0249510Y0047260D01*
X0249510Y0046262D02*
X0540329Y0046262D01*
X0540329Y0045263D02*
X0249510Y0045263D01*
X0249393Y0044265D02*
X0540329Y0044265D01*
X0540329Y0043266D02*
X0248817Y0043266D01*
X0248581Y0042859D02*
X0248581Y0042859D01*
X0248581Y0042859D01*
X0247558Y0042268D02*
X0540329Y0042268D01*
X0547751Y0034280D02*
X0548203Y0034280D01*
X0548203Y0033281D02*
X0545754Y0033281D01*
X0543757Y0032283D02*
X0548203Y0032283D01*
X0540421Y0032283D02*
X0035363Y0032283D01*
X0035455Y0033281D02*
X0540329Y0033281D01*
X0544459Y0017305D02*
X0031325Y0017305D01*
X0032700Y0016307D02*
X0543085Y0016307D01*
X0540644Y0015308D02*
X0035140Y0015308D01*
X0115668Y0042268D02*
X0238227Y0042268D01*
X0237204Y0042859D02*
X0237204Y0042859D01*
X0237204Y0042859D01*
X0236968Y0043266D02*
X0116927Y0043266D01*
X0116691Y0042859D02*
X0116691Y0042859D01*
X0116691Y0042859D01*
X0117503Y0044265D02*
X0236392Y0044265D01*
X0236274Y0045263D02*
X0117621Y0045263D01*
X0117621Y0046262D02*
X0236274Y0046262D01*
X0236274Y0047260D02*
X0117621Y0047260D01*
X0117621Y0048259D02*
X0236274Y0048259D01*
X0236274Y0049257D02*
X0117621Y0049257D01*
X0117621Y0050256D02*
X0236274Y0050256D01*
X0236274Y0051254D02*
X0117621Y0051254D01*
X0117621Y0052253D02*
X0236274Y0052253D01*
X0236274Y0053251D02*
X0117621Y0053251D01*
X0117621Y0054250D02*
X0236274Y0054250D01*
X0236274Y0055248D02*
X0117621Y0055248D01*
X0117621Y0056247D02*
X0236274Y0056247D01*
X0236274Y0057246D02*
X0117621Y0057246D01*
X0117621Y0058244D02*
X0236274Y0058244D01*
X0236274Y0059243D02*
X0117621Y0059243D01*
X0117621Y0060241D02*
X0236274Y0060241D01*
X0236274Y0061240D02*
X0117621Y0061240D01*
X0117621Y0062238D02*
X0236274Y0062238D01*
X0236274Y0063237D02*
X0117621Y0063237D01*
X0117621Y0064235D02*
X0236274Y0064235D01*
X0236274Y0065234D02*
X0117621Y0065234D01*
X0117621Y0066232D02*
X0236274Y0066232D01*
X0236274Y0067231D02*
X0117621Y0067231D01*
X0117621Y0068229D02*
X0236274Y0068229D01*
X0236274Y0069228D02*
X0117621Y0069228D01*
X0117621Y0070226D02*
X0236274Y0070226D01*
X0236274Y0071225D02*
X0117621Y0071225D01*
X0117621Y0072223D02*
X0236274Y0072223D01*
X0236274Y0073222D02*
X0117621Y0073222D01*
X0117201Y0074220D02*
X0236695Y0074220D01*
X0237204Y0075102D02*
X0237204Y0075102D01*
X0237204Y0075102D01*
X0237406Y0075219D02*
X0116489Y0075219D01*
X0116691Y0075102D02*
X0116691Y0075102D01*
X0116691Y0075102D01*
X0129396Y0081210D02*
X0092389Y0081210D01*
X0093530Y0081973D02*
X0089512Y0079288D01*
X0085048Y0077439D01*
X0080309Y0076496D01*
X0075476Y0076496D01*
X0070737Y0077439D01*
X0066272Y0079288D01*
X0062254Y0081973D01*
X0058838Y0085390D01*
X0056153Y0089408D01*
X0054304Y0093872D01*
X0053361Y0098611D01*
X0053361Y0103444D01*
X0054304Y0108183D01*
X0056153Y0112648D01*
X0058838Y0116665D01*
X0062254Y0120082D01*
X0066272Y0122767D01*
X0070737Y0124616D01*
X0075476Y0125559D01*
X0080309Y0125559D01*
X0085048Y0124616D01*
X0089512Y0122767D01*
X0093530Y0120082D01*
X0096947Y0116665D01*
X0099632Y0112648D01*
X0101481Y0108183D01*
X0102424Y0103444D01*
X0102424Y0098611D01*
X0101481Y0093872D01*
X0099632Y0089408D01*
X0096947Y0085390D01*
X0093530Y0081973D01*
X0093766Y0082208D02*
X0128019Y0082208D01*
X0128254Y0081973D02*
X0132272Y0079288D01*
X0136737Y0077439D01*
X0141476Y0076496D01*
X0146309Y0076496D01*
X0151048Y0077439D01*
X0155512Y0079288D01*
X0159530Y0081973D01*
X0162947Y0085390D01*
X0165632Y0089408D01*
X0167481Y0093872D01*
X0168424Y0098611D01*
X0168424Y0103444D01*
X0167481Y0108183D01*
X0165632Y0112648D01*
X0162947Y0116665D01*
X0159530Y0120082D01*
X0155512Y0122767D01*
X0151048Y0124616D01*
X0146309Y0125559D01*
X0141476Y0125559D01*
X0136737Y0124616D01*
X0132272Y0122767D01*
X0128254Y0120082D01*
X0124838Y0116665D01*
X0122153Y0112648D01*
X0120304Y0108183D01*
X0119361Y0103444D01*
X0119361Y0098611D01*
X0120304Y0093872D01*
X0122153Y0089408D01*
X0124838Y0085390D01*
X0128254Y0081973D01*
X0127020Y0083207D02*
X0094764Y0083207D01*
X0095763Y0084205D02*
X0126022Y0084205D01*
X0125023Y0085204D02*
X0096761Y0085204D01*
X0097490Y0086202D02*
X0124294Y0086202D01*
X0123627Y0087201D02*
X0098157Y0087201D01*
X0098825Y0088199D02*
X0122960Y0088199D01*
X0122293Y0089198D02*
X0099492Y0089198D01*
X0099959Y0090196D02*
X0121826Y0090196D01*
X0121412Y0091195D02*
X0100372Y0091195D01*
X0100786Y0092193D02*
X0120999Y0092193D01*
X0120585Y0093192D02*
X0101199Y0093192D01*
X0101544Y0094190D02*
X0120240Y0094190D01*
X0120042Y0095189D02*
X0101743Y0095189D01*
X0101942Y0096187D02*
X0119843Y0096187D01*
X0119644Y0097186D02*
X0102140Y0097186D01*
X0102339Y0098184D02*
X0119446Y0098184D01*
X0119361Y0099183D02*
X0102424Y0099183D01*
X0102424Y0100182D02*
X0119361Y0100182D01*
X0119361Y0101180D02*
X0102424Y0101180D01*
X0102424Y0102179D02*
X0119361Y0102179D01*
X0119361Y0103177D02*
X0102424Y0103177D01*
X0102278Y0104176D02*
X0119506Y0104176D01*
X0119705Y0105174D02*
X0102080Y0105174D01*
X0101881Y0106173D02*
X0119904Y0106173D01*
X0120102Y0107171D02*
X0101682Y0107171D01*
X0101484Y0108170D02*
X0120301Y0108170D01*
X0120712Y0109168D02*
X0101073Y0109168D01*
X0100660Y0110167D02*
X0121125Y0110167D01*
X0121539Y0111165D02*
X0100246Y0111165D01*
X0099832Y0112164D02*
X0121952Y0112164D01*
X0122497Y0113162D02*
X0099288Y0113162D01*
X0098621Y0114161D02*
X0123164Y0114161D01*
X0123831Y0115159D02*
X0097954Y0115159D01*
X0097287Y0116158D02*
X0124498Y0116158D01*
X0125328Y0117156D02*
X0096456Y0117156D01*
X0095458Y0118155D02*
X0126327Y0118155D01*
X0127325Y0119153D02*
X0094459Y0119153D01*
X0093427Y0120152D02*
X0128358Y0120152D01*
X0129853Y0121150D02*
X0091932Y0121150D01*
X0090438Y0122149D02*
X0131347Y0122149D01*
X0133190Y0123147D02*
X0088595Y0123147D01*
X0086184Y0124146D02*
X0135601Y0124146D01*
X0139391Y0125144D02*
X0082394Y0125144D01*
X0073391Y0125144D02*
X0035455Y0125144D01*
X0035455Y0124146D02*
X0069601Y0124146D01*
X0067190Y0123147D02*
X0035455Y0123147D01*
X0035455Y0122149D02*
X0065347Y0122149D01*
X0063853Y0121150D02*
X0035455Y0121150D01*
X0035455Y0120152D02*
X0062358Y0120152D01*
X0061325Y0119153D02*
X0035455Y0119153D01*
X0035455Y0118155D02*
X0060327Y0118155D01*
X0059328Y0117156D02*
X0035455Y0117156D01*
X0035455Y0116158D02*
X0058498Y0116158D01*
X0057831Y0115159D02*
X0035455Y0115159D01*
X0035455Y0114161D02*
X0057164Y0114161D01*
X0056497Y0113162D02*
X0035455Y0113162D01*
X0035455Y0112164D02*
X0055952Y0112164D01*
X0055539Y0111165D02*
X0035455Y0111165D01*
X0035455Y0110167D02*
X0055125Y0110167D01*
X0054712Y0109168D02*
X0035455Y0109168D01*
X0035455Y0108170D02*
X0054301Y0108170D01*
X0054102Y0107171D02*
X0035455Y0107171D01*
X0035455Y0106173D02*
X0053904Y0106173D01*
X0053705Y0105174D02*
X0035455Y0105174D01*
X0035455Y0104176D02*
X0053506Y0104176D01*
X0053361Y0103177D02*
X0035455Y0103177D01*
X0035455Y0102179D02*
X0053361Y0102179D01*
X0053361Y0101180D02*
X0035455Y0101180D01*
X0035455Y0100182D02*
X0053361Y0100182D01*
X0053361Y0099183D02*
X0035455Y0099183D01*
X0035455Y0098184D02*
X0053446Y0098184D01*
X0053644Y0097186D02*
X0035455Y0097186D01*
X0035455Y0096187D02*
X0053843Y0096187D01*
X0054042Y0095189D02*
X0035475Y0095189D01*
X0035263Y0094190D02*
X0054240Y0094190D01*
X0054585Y0093192D02*
X0027581Y0093192D01*
X0027581Y0094190D02*
X0032228Y0094190D01*
X0030231Y0095189D02*
X0027581Y0095189D01*
X0027581Y0096187D02*
X0028234Y0096187D01*
X0027581Y0092193D02*
X0054999Y0092193D01*
X0055412Y0091195D02*
X0027581Y0091195D01*
X0027581Y0090196D02*
X0055826Y0090196D01*
X0056293Y0089198D02*
X0027581Y0089198D01*
X0027581Y0088199D02*
X0056960Y0088199D01*
X0057627Y0087201D02*
X0027581Y0087201D01*
X0027581Y0086202D02*
X0058294Y0086202D01*
X0059023Y0085204D02*
X0027581Y0085204D01*
X0027581Y0084205D02*
X0060022Y0084205D01*
X0061020Y0083207D02*
X0027581Y0083207D01*
X0027581Y0082208D02*
X0062019Y0082208D01*
X0063396Y0081210D02*
X0027581Y0081210D01*
X0027581Y0080211D02*
X0064891Y0080211D01*
X0066454Y0079213D02*
X0027581Y0079213D01*
X0027581Y0078214D02*
X0068865Y0078214D01*
X0071858Y0077216D02*
X0027581Y0077216D01*
X0027581Y0070226D02*
X0030258Y0070226D01*
X0028261Y0069228D02*
X0027581Y0069228D01*
X0083927Y0077216D02*
X0137858Y0077216D01*
X0134865Y0078214D02*
X0086920Y0078214D01*
X0089331Y0079213D02*
X0132454Y0079213D01*
X0130891Y0080211D02*
X0090894Y0080211D01*
X0149927Y0077216D02*
X0203858Y0077216D01*
X0202737Y0077439D02*
X0207476Y0076496D01*
X0212309Y0076496D01*
X0217048Y0077439D01*
X0221512Y0079288D01*
X0225530Y0081973D01*
X0228947Y0085390D01*
X0231632Y0089408D01*
X0233481Y0093872D01*
X0234424Y0098611D01*
X0234424Y0103444D01*
X0233481Y0108183D01*
X0231632Y0112648D01*
X0228947Y0116665D01*
X0225530Y0120082D01*
X0221512Y0122767D01*
X0217048Y0124616D01*
X0212309Y0125559D01*
X0207476Y0125559D01*
X0202737Y0124616D01*
X0198272Y0122767D01*
X0194254Y0120082D01*
X0190838Y0116665D01*
X0188153Y0112648D01*
X0186304Y0108183D01*
X0185361Y0103444D01*
X0185361Y0098611D01*
X0186304Y0093872D01*
X0188153Y0089408D01*
X0190838Y0085390D01*
X0194254Y0081973D01*
X0198272Y0079288D01*
X0202737Y0077439D01*
X0200865Y0078214D02*
X0152920Y0078214D01*
X0155331Y0079213D02*
X0198454Y0079213D01*
X0196891Y0080211D02*
X0156894Y0080211D01*
X0158389Y0081210D02*
X0195396Y0081210D01*
X0194019Y0082208D02*
X0159766Y0082208D01*
X0160764Y0083207D02*
X0193020Y0083207D01*
X0192022Y0084205D02*
X0161763Y0084205D01*
X0162761Y0085204D02*
X0191023Y0085204D01*
X0190294Y0086202D02*
X0163490Y0086202D01*
X0164157Y0087201D02*
X0189627Y0087201D01*
X0188960Y0088199D02*
X0164825Y0088199D01*
X0165492Y0089198D02*
X0188293Y0089198D01*
X0187826Y0090196D02*
X0165959Y0090196D01*
X0166372Y0091195D02*
X0187412Y0091195D01*
X0186999Y0092193D02*
X0166786Y0092193D01*
X0167199Y0093192D02*
X0186585Y0093192D01*
X0186240Y0094190D02*
X0167544Y0094190D01*
X0167743Y0095189D02*
X0186042Y0095189D01*
X0185843Y0096187D02*
X0167942Y0096187D01*
X0168140Y0097186D02*
X0185644Y0097186D01*
X0185446Y0098184D02*
X0168339Y0098184D01*
X0168424Y0099183D02*
X0185361Y0099183D01*
X0185361Y0100182D02*
X0168424Y0100182D01*
X0168424Y0101180D02*
X0185361Y0101180D01*
X0185361Y0102179D02*
X0168424Y0102179D01*
X0168424Y0103177D02*
X0185361Y0103177D01*
X0185506Y0104176D02*
X0168278Y0104176D01*
X0168080Y0105174D02*
X0185705Y0105174D01*
X0185904Y0106173D02*
X0167881Y0106173D01*
X0167682Y0107171D02*
X0186102Y0107171D01*
X0186301Y0108170D02*
X0167484Y0108170D01*
X0167073Y0109168D02*
X0186712Y0109168D01*
X0187125Y0110167D02*
X0166660Y0110167D01*
X0166246Y0111165D02*
X0187539Y0111165D01*
X0187952Y0112164D02*
X0165832Y0112164D01*
X0165288Y0113162D02*
X0188497Y0113162D01*
X0189164Y0114161D02*
X0164621Y0114161D01*
X0163954Y0115159D02*
X0189831Y0115159D01*
X0190498Y0116158D02*
X0163287Y0116158D01*
X0162456Y0117156D02*
X0191328Y0117156D01*
X0192327Y0118155D02*
X0161458Y0118155D01*
X0160459Y0119153D02*
X0193325Y0119153D01*
X0194358Y0120152D02*
X0159427Y0120152D01*
X0157932Y0121150D02*
X0195853Y0121150D01*
X0197347Y0122149D02*
X0156438Y0122149D01*
X0154595Y0123147D02*
X0199190Y0123147D01*
X0201601Y0124146D02*
X0152184Y0124146D01*
X0148394Y0125144D02*
X0205391Y0125144D01*
X0214394Y0125144D02*
X0271391Y0125144D01*
X0273476Y0125559D02*
X0268737Y0124616D01*
X0264272Y0122767D01*
X0260254Y0120082D01*
X0256838Y0116665D01*
X0254153Y0112648D01*
X0252304Y0108183D01*
X0251361Y0103444D01*
X0251361Y0098611D01*
X0252304Y0093872D01*
X0254153Y0089408D01*
X0256838Y0085390D01*
X0260254Y0081973D01*
X0264272Y0079288D01*
X0268737Y0077439D01*
X0273476Y0076496D01*
X0278309Y0076496D01*
X0283048Y0077439D01*
X0287512Y0079288D01*
X0291530Y0081973D01*
X0294947Y0085390D01*
X0297632Y0089408D01*
X0299481Y0093872D01*
X0300424Y0098611D01*
X0300424Y0103444D01*
X0299481Y0108183D01*
X0297632Y0112648D01*
X0294947Y0116665D01*
X0291530Y0120082D01*
X0287512Y0122767D01*
X0283048Y0124616D01*
X0278309Y0125559D01*
X0273476Y0125559D01*
X0267601Y0124146D02*
X0218184Y0124146D01*
X0220595Y0123147D02*
X0265190Y0123147D01*
X0263347Y0122149D02*
X0222438Y0122149D01*
X0223932Y0121150D02*
X0261853Y0121150D01*
X0260358Y0120152D02*
X0225427Y0120152D01*
X0226459Y0119153D02*
X0259325Y0119153D01*
X0258327Y0118155D02*
X0227458Y0118155D01*
X0228456Y0117156D02*
X0257328Y0117156D01*
X0256498Y0116158D02*
X0229287Y0116158D01*
X0229954Y0115159D02*
X0255831Y0115159D01*
X0255164Y0114161D02*
X0230621Y0114161D01*
X0231288Y0113162D02*
X0254497Y0113162D01*
X0253952Y0112164D02*
X0231832Y0112164D01*
X0232246Y0111165D02*
X0253539Y0111165D01*
X0253125Y0110167D02*
X0232660Y0110167D01*
X0233073Y0109168D02*
X0252712Y0109168D01*
X0252301Y0108170D02*
X0233484Y0108170D01*
X0233682Y0107171D02*
X0252102Y0107171D01*
X0251904Y0106173D02*
X0233881Y0106173D01*
X0234080Y0105174D02*
X0251705Y0105174D01*
X0251506Y0104176D02*
X0234278Y0104176D01*
X0234424Y0103177D02*
X0251361Y0103177D01*
X0251361Y0102179D02*
X0234424Y0102179D01*
X0234424Y0101180D02*
X0251361Y0101180D01*
X0251361Y0100182D02*
X0234424Y0100182D01*
X0234424Y0099183D02*
X0251361Y0099183D01*
X0251446Y0098184D02*
X0234339Y0098184D01*
X0234140Y0097186D02*
X0251644Y0097186D01*
X0251843Y0096187D02*
X0233942Y0096187D01*
X0233743Y0095189D02*
X0252042Y0095189D01*
X0252240Y0094190D02*
X0233544Y0094190D01*
X0233199Y0093192D02*
X0252585Y0093192D01*
X0252999Y0092193D02*
X0232786Y0092193D01*
X0232372Y0091195D02*
X0253412Y0091195D01*
X0253826Y0090196D02*
X0231959Y0090196D01*
X0231492Y0089198D02*
X0254293Y0089198D01*
X0254960Y0088199D02*
X0230825Y0088199D01*
X0230157Y0087201D02*
X0255627Y0087201D01*
X0256294Y0086202D02*
X0229490Y0086202D01*
X0228761Y0085204D02*
X0257023Y0085204D01*
X0258022Y0084205D02*
X0227763Y0084205D01*
X0226764Y0083207D02*
X0259020Y0083207D01*
X0260019Y0082208D02*
X0225766Y0082208D01*
X0224389Y0081210D02*
X0261396Y0081210D01*
X0262891Y0080211D02*
X0222894Y0080211D01*
X0221331Y0079213D02*
X0264454Y0079213D01*
X0266865Y0078214D02*
X0218920Y0078214D01*
X0215927Y0077216D02*
X0269858Y0077216D01*
X0281927Y0077216D02*
X0379090Y0077216D01*
X0377360Y0078214D02*
X0284920Y0078214D01*
X0287331Y0079213D02*
X0376164Y0079213D01*
X0375165Y0080211D02*
X0288894Y0080211D01*
X0290389Y0081210D02*
X0374167Y0081210D01*
X0373168Y0082208D02*
X0291766Y0082208D01*
X0292764Y0083207D02*
X0372452Y0083207D01*
X0371876Y0084205D02*
X0331303Y0084205D01*
X0330449Y0083976D02*
X0333333Y0084749D01*
X0335920Y0086243D01*
X0338032Y0088354D01*
X0339525Y0090941D01*
X0340298Y0093826D01*
X0340298Y0096812D01*
X0339525Y0099697D01*
X0338032Y0102283D01*
X0335920Y0104395D01*
X0333333Y0105888D01*
X0330449Y0106661D01*
X0327462Y0106661D01*
X0324577Y0105888D01*
X0321991Y0104395D01*
X0319879Y0102283D01*
X0318386Y0099697D01*
X0317613Y0096812D01*
X0317613Y0093826D01*
X0318386Y0090941D01*
X0319879Y0088354D01*
X0321991Y0086243D01*
X0324577Y0084749D01*
X0327462Y0083976D01*
X0330449Y0083976D01*
X0326608Y0084205D02*
X0293763Y0084205D01*
X0294761Y0085204D02*
X0323790Y0085204D01*
X0322061Y0086202D02*
X0295490Y0086202D01*
X0296157Y0087201D02*
X0321033Y0087201D01*
X0320034Y0088199D02*
X0296825Y0088199D01*
X0297492Y0089198D02*
X0319392Y0089198D01*
X0318816Y0090196D02*
X0297959Y0090196D01*
X0298372Y0091195D02*
X0318318Y0091195D01*
X0318050Y0092193D02*
X0298786Y0092193D01*
X0299199Y0093192D02*
X0317783Y0093192D01*
X0317613Y0094190D02*
X0299544Y0094190D01*
X0299743Y0095189D02*
X0317613Y0095189D01*
X0317613Y0096187D02*
X0299942Y0096187D01*
X0300140Y0097186D02*
X0317713Y0097186D01*
X0317981Y0098184D02*
X0300339Y0098184D01*
X0300424Y0099183D02*
X0318248Y0099183D01*
X0318666Y0100182D02*
X0300424Y0100182D01*
X0300424Y0101180D02*
X0319242Y0101180D01*
X0319819Y0102179D02*
X0300424Y0102179D01*
X0300424Y0103177D02*
X0320773Y0103177D01*
X0321771Y0104176D02*
X0300278Y0104176D01*
X0300080Y0105174D02*
X0323340Y0105174D01*
X0325638Y0106173D02*
X0299881Y0106173D01*
X0299682Y0107171D02*
X0371620Y0107171D01*
X0371044Y0106173D02*
X0332273Y0106173D01*
X0334571Y0105174D02*
X0370467Y0105174D01*
X0369934Y0104176D02*
X0336139Y0104176D01*
X0337138Y0103177D02*
X0369666Y0103177D01*
X0369399Y0102179D02*
X0338092Y0102179D01*
X0338669Y0101180D02*
X0369131Y0101180D01*
X0368863Y0100182D02*
X0339245Y0100182D01*
X0339663Y0099183D02*
X0368596Y0099183D01*
X0368487Y0098184D02*
X0339930Y0098184D01*
X0340198Y0097186D02*
X0368487Y0097186D01*
X0368487Y0096187D02*
X0340298Y0096187D01*
X0340298Y0095189D02*
X0368487Y0095189D01*
X0368487Y0094190D02*
X0340298Y0094190D01*
X0340128Y0093192D02*
X0368487Y0093192D01*
X0368714Y0092193D02*
X0339861Y0092193D01*
X0339593Y0091195D02*
X0368982Y0091195D01*
X0369250Y0090196D02*
X0339095Y0090196D01*
X0338519Y0089198D02*
X0369517Y0089198D01*
X0369785Y0088199D02*
X0337877Y0088199D01*
X0336878Y0087201D02*
X0370146Y0087201D01*
X0370723Y0086202D02*
X0335850Y0086202D01*
X0334121Y0085204D02*
X0371299Y0085204D01*
X0397178Y0075219D02*
X0548203Y0075219D01*
X0548203Y0076217D02*
X0399706Y0076217D01*
X0401435Y0077216D02*
X0548203Y0077216D01*
X0548203Y0078214D02*
X0403165Y0078214D01*
X0404361Y0079213D02*
X0548203Y0079213D01*
X0548203Y0080211D02*
X0405360Y0080211D01*
X0406358Y0081210D02*
X0548203Y0081210D01*
X0548203Y0082208D02*
X0407357Y0082208D01*
X0408073Y0083207D02*
X0548203Y0083207D01*
X0548203Y0084205D02*
X0408649Y0084205D01*
X0409226Y0085204D02*
X0451279Y0085204D01*
X0451820Y0085059D02*
X0455713Y0085059D01*
X0459474Y0086067D01*
X0462846Y0088014D01*
X0465599Y0090767D01*
X0467546Y0094139D01*
X0468554Y0097900D01*
X0468554Y0101793D01*
X0467546Y0105554D01*
X0465599Y0108926D01*
X0462846Y0111679D01*
X0459474Y0113626D01*
X0455713Y0114634D01*
X0451820Y0114634D01*
X0448059Y0113626D01*
X0444687Y0111679D01*
X0441934Y0108926D01*
X0439987Y0105554D01*
X0438979Y0101793D01*
X0438979Y0097900D01*
X0439987Y0094139D01*
X0441934Y0090767D01*
X0444687Y0088014D01*
X0448059Y0086067D01*
X0451820Y0085059D01*
X0447824Y0086202D02*
X0409802Y0086202D01*
X0410379Y0087201D02*
X0446094Y0087201D01*
X0444501Y0088199D02*
X0410740Y0088199D01*
X0411008Y0089198D02*
X0443502Y0089198D01*
X0442504Y0090196D02*
X0411275Y0090196D01*
X0411543Y0091195D02*
X0441686Y0091195D01*
X0441110Y0092193D02*
X0411810Y0092193D01*
X0412038Y0093192D02*
X0440533Y0093192D01*
X0439973Y0094190D02*
X0412038Y0094190D01*
X0412038Y0095189D02*
X0439705Y0095189D01*
X0439438Y0096187D02*
X0412038Y0096187D01*
X0412038Y0097186D02*
X0439170Y0097186D01*
X0438979Y0098184D02*
X0412038Y0098184D01*
X0411929Y0099183D02*
X0438979Y0099183D01*
X0438979Y0100182D02*
X0411662Y0100182D01*
X0411394Y0101180D02*
X0438979Y0101180D01*
X0439082Y0102179D02*
X0411126Y0102179D01*
X0410859Y0103177D02*
X0439350Y0103177D01*
X0439617Y0104176D02*
X0410591Y0104176D01*
X0410058Y0105174D02*
X0439885Y0105174D01*
X0440344Y0106173D02*
X0409481Y0106173D01*
X0408905Y0107171D02*
X0440920Y0107171D01*
X0441497Y0108170D02*
X0408328Y0108170D01*
X0407752Y0109168D02*
X0442176Y0109168D01*
X0443174Y0110167D02*
X0406801Y0110167D01*
X0405802Y0111165D02*
X0444173Y0111165D01*
X0445526Y0112164D02*
X0404804Y0112164D01*
X0403805Y0113162D02*
X0447255Y0113162D01*
X0450054Y0114161D02*
X0402202Y0114161D01*
X0400472Y0115159D02*
X0480707Y0115159D01*
X0480487Y0114627D02*
X0480487Y0111680D01*
X0481614Y0108959D01*
X0483697Y0106875D01*
X0486419Y0105748D01*
X0489365Y0105748D01*
X0492087Y0106875D01*
X0494170Y0108959D01*
X0495298Y0111680D01*
X0495298Y0114627D01*
X0494170Y0117348D01*
X0492087Y0119432D01*
X0489365Y0120559D01*
X0486419Y0120559D01*
X0483697Y0119432D01*
X0481614Y0117348D01*
X0480487Y0114627D01*
X0480487Y0114161D02*
X0457479Y0114161D01*
X0460278Y0113162D02*
X0480487Y0113162D01*
X0480487Y0112164D02*
X0462007Y0112164D01*
X0463360Y0111165D02*
X0480700Y0111165D01*
X0481114Y0110167D02*
X0464359Y0110167D01*
X0465357Y0109168D02*
X0481528Y0109168D01*
X0482403Y0108170D02*
X0466036Y0108170D01*
X0466613Y0107171D02*
X0483402Y0107171D01*
X0485394Y0106173D02*
X0467189Y0106173D01*
X0467648Y0105174D02*
X0540329Y0105174D01*
X0540329Y0104176D02*
X0467915Y0104176D01*
X0468183Y0103177D02*
X0540329Y0103177D01*
X0540329Y0102179D02*
X0511303Y0102179D01*
X0510365Y0102567D02*
X0507419Y0102567D01*
X0504697Y0101439D01*
X0502614Y0099356D01*
X0501487Y0096634D01*
X0501487Y0093688D01*
X0502614Y0090967D01*
X0504697Y0088883D01*
X0507419Y0087756D01*
X0510365Y0087756D01*
X0513087Y0088883D01*
X0515170Y0090967D01*
X0516298Y0093688D01*
X0516298Y0096634D01*
X0515170Y0099356D01*
X0513087Y0101439D01*
X0510365Y0102567D01*
X0510365Y0105748D02*
X0513087Y0106875D01*
X0515170Y0108959D01*
X0516298Y0111680D01*
X0516298Y0114627D01*
X0515170Y0117348D01*
X0513087Y0119432D01*
X0510365Y0120559D01*
X0507419Y0120559D01*
X0504697Y0119432D01*
X0502614Y0117348D01*
X0501487Y0114627D01*
X0501487Y0111680D01*
X0502614Y0108959D01*
X0504697Y0106875D01*
X0507419Y0105748D01*
X0510365Y0105748D01*
X0511390Y0106173D02*
X0540329Y0106173D01*
X0540329Y0107171D02*
X0513383Y0107171D01*
X0514381Y0108170D02*
X0540329Y0108170D01*
X0540329Y0109168D02*
X0515257Y0109168D01*
X0515671Y0110167D02*
X0540329Y0110167D01*
X0540329Y0111165D02*
X0516084Y0111165D01*
X0516298Y0112164D02*
X0540329Y0112164D01*
X0540329Y0113162D02*
X0516298Y0113162D01*
X0516298Y0114161D02*
X0540329Y0114161D01*
X0540329Y0115159D02*
X0516077Y0115159D01*
X0515664Y0116158D02*
X0540329Y0116158D01*
X0540329Y0117156D02*
X0515250Y0117156D01*
X0514364Y0118155D02*
X0540329Y0118155D01*
X0540329Y0119153D02*
X0513366Y0119153D01*
X0511349Y0120152D02*
X0540329Y0120152D01*
X0540329Y0121150D02*
X0289932Y0121150D01*
X0291427Y0120152D02*
X0485436Y0120152D01*
X0483419Y0119153D02*
X0292459Y0119153D01*
X0293458Y0118155D02*
X0482421Y0118155D01*
X0481535Y0117156D02*
X0395103Y0117156D01*
X0398743Y0116158D02*
X0481121Y0116158D01*
X0490349Y0120152D02*
X0506436Y0120152D01*
X0504419Y0119153D02*
X0492366Y0119153D01*
X0493364Y0118155D02*
X0503421Y0118155D01*
X0502535Y0117156D02*
X0494250Y0117156D01*
X0494664Y0116158D02*
X0502121Y0116158D01*
X0501707Y0115159D02*
X0495077Y0115159D01*
X0495298Y0114161D02*
X0501487Y0114161D01*
X0501487Y0113162D02*
X0495298Y0113162D01*
X0495298Y0112164D02*
X0501487Y0112164D01*
X0501700Y0111165D02*
X0495084Y0111165D01*
X0494671Y0110167D02*
X0502114Y0110167D01*
X0502528Y0109168D02*
X0494257Y0109168D01*
X0493381Y0108170D02*
X0503403Y0108170D01*
X0504402Y0107171D02*
X0492383Y0107171D01*
X0490390Y0106173D02*
X0506394Y0106173D01*
X0506482Y0102179D02*
X0490303Y0102179D01*
X0489365Y0102567D02*
X0486419Y0102567D01*
X0483697Y0101439D01*
X0481614Y0099356D01*
X0480487Y0096634D01*
X0480487Y0093688D01*
X0481614Y0090967D01*
X0483697Y0088883D01*
X0486419Y0087756D01*
X0489365Y0087756D01*
X0492087Y0088883D01*
X0494170Y0090967D01*
X0495298Y0093688D01*
X0495298Y0096634D01*
X0494170Y0099356D01*
X0492087Y0101439D01*
X0489365Y0102567D01*
X0492347Y0101180D02*
X0504438Y0101180D01*
X0503440Y0100182D02*
X0493345Y0100182D01*
X0494242Y0099183D02*
X0502543Y0099183D01*
X0502129Y0098184D02*
X0494656Y0098184D01*
X0495069Y0097186D02*
X0501715Y0097186D01*
X0501487Y0096187D02*
X0495298Y0096187D01*
X0495298Y0095189D02*
X0501487Y0095189D01*
X0501487Y0094190D02*
X0495298Y0094190D01*
X0495092Y0093192D02*
X0501692Y0093192D01*
X0502106Y0092193D02*
X0494679Y0092193D01*
X0494265Y0091195D02*
X0502520Y0091195D01*
X0503384Y0090196D02*
X0493400Y0090196D01*
X0492402Y0089198D02*
X0504383Y0089198D01*
X0506349Y0088199D02*
X0490436Y0088199D01*
X0485349Y0088199D02*
X0463032Y0088199D01*
X0464030Y0089198D02*
X0483383Y0089198D01*
X0482384Y0090196D02*
X0465029Y0090196D01*
X0465846Y0091195D02*
X0481520Y0091195D01*
X0481106Y0092193D02*
X0466423Y0092193D01*
X0466999Y0093192D02*
X0480692Y0093192D01*
X0480487Y0094190D02*
X0467560Y0094190D01*
X0467827Y0095189D02*
X0480487Y0095189D01*
X0480487Y0096187D02*
X0468095Y0096187D01*
X0468363Y0097186D02*
X0480715Y0097186D01*
X0481129Y0098184D02*
X0468554Y0098184D01*
X0468554Y0099183D02*
X0481543Y0099183D01*
X0482440Y0100182D02*
X0468554Y0100182D01*
X0468554Y0101180D02*
X0483438Y0101180D01*
X0485482Y0102179D02*
X0468451Y0102179D01*
X0461438Y0087201D02*
X0548203Y0087201D01*
X0548203Y0088199D02*
X0511436Y0088199D01*
X0513402Y0089198D02*
X0548203Y0089198D01*
X0548203Y0090196D02*
X0514400Y0090196D01*
X0515265Y0091195D02*
X0548203Y0091195D01*
X0548203Y0092193D02*
X0515679Y0092193D01*
X0516092Y0093192D02*
X0548203Y0093192D01*
X0548203Y0094190D02*
X0543556Y0094190D01*
X0545554Y0095189D02*
X0548203Y0095189D01*
X0548203Y0096187D02*
X0547551Y0096187D01*
X0540329Y0096187D02*
X0516298Y0096187D01*
X0516298Y0095189D02*
X0540310Y0095189D01*
X0540522Y0094190D02*
X0516298Y0094190D01*
X0516069Y0097186D02*
X0540329Y0097186D01*
X0540329Y0098184D02*
X0515656Y0098184D01*
X0515242Y0099183D02*
X0540329Y0099183D01*
X0540329Y0100182D02*
X0514345Y0100182D01*
X0513347Y0101180D02*
X0540329Y0101180D01*
X0548203Y0086202D02*
X0459709Y0086202D01*
X0456254Y0085204D02*
X0548203Y0085204D01*
X0540329Y0122149D02*
X0288438Y0122149D01*
X0286595Y0123147D02*
X0540329Y0123147D01*
X0540329Y0124146D02*
X0284184Y0124146D01*
X0280394Y0125144D02*
X0540329Y0125144D01*
X0540329Y0126143D02*
X0035455Y0126143D01*
X0035455Y0127141D02*
X0540329Y0127141D01*
X0540329Y0128140D02*
X0035455Y0128140D01*
X0035455Y0129138D02*
X0540329Y0129138D01*
X0540329Y0130137D02*
X0035455Y0130137D01*
X0035455Y0131135D02*
X0540329Y0131135D01*
X0540329Y0132134D02*
X0035455Y0132134D01*
X0035350Y0133132D02*
X0540435Y0133132D01*
X0543730Y0133132D02*
X0548203Y0133132D01*
X0548203Y0132134D02*
X0545727Y0132134D01*
X0547724Y0131135D02*
X0548203Y0131135D01*
X0548203Y0134131D02*
X0027581Y0134131D01*
X0027581Y0135129D02*
X0548203Y0135129D01*
X0548203Y0136128D02*
X0027581Y0136128D01*
X0027581Y0137126D02*
X0548203Y0137126D01*
X0548203Y0138125D02*
X0027581Y0138125D01*
X0027581Y0139123D02*
X0548203Y0139123D01*
X0548138Y0140122D02*
X0027646Y0140122D01*
X0027777Y0141120D02*
X0548008Y0141120D01*
X0547683Y0142119D02*
X0028102Y0142119D01*
X0028426Y0143117D02*
X0547359Y0143117D01*
X0546978Y0144116D02*
X0028807Y0144116D01*
X0029532Y0145115D02*
X0546253Y0145115D01*
X0545527Y0146113D02*
X0030258Y0146113D01*
X0031324Y0147112D02*
X0544460Y0147112D01*
X0543086Y0148110D02*
X0032699Y0148110D01*
X0035138Y0149109D02*
X0540647Y0149109D01*
X0539505Y0152733D02*
X0537892Y0152606D01*
X0037892Y0152606D01*
X0036279Y0152733D01*
X0033211Y0153730D01*
X0030601Y0155626D01*
X0028705Y0158236D01*
X0027708Y0161304D01*
X0027581Y0162917D01*
X0027581Y0172301D01*
X0033067Y0169559D01*
X0033334Y0169291D01*
X0033601Y0169291D01*
X0033840Y0169172D01*
X0034199Y0169291D01*
X0034577Y0169291D01*
X0034766Y0169480D01*
X0035019Y0169565D01*
X0035188Y0169903D01*
X0035455Y0170170D01*
X0035455Y0170437D01*
X0035575Y0170676D01*
X0035455Y0171035D01*
X0035455Y0207949D01*
X0035575Y0208308D01*
X0035455Y0208547D01*
X0035455Y0208814D01*
X0035188Y0209081D01*
X0035019Y0209419D01*
X0034766Y0209504D01*
X0034577Y0209693D01*
X0034199Y0209693D01*
X0033840Y0209812D01*
X0033601Y0209693D01*
X0033334Y0209693D01*
X0033067Y0209426D01*
X0027581Y0206683D01*
X0027581Y0234309D01*
X0033067Y0231566D01*
X0033334Y0231299D01*
X0033601Y0231299D01*
X0033840Y0231180D01*
X0034199Y0231299D01*
X0034577Y0231299D01*
X0034766Y0231488D01*
X0035019Y0231573D01*
X0035188Y0231911D01*
X0035455Y0232178D01*
X0035455Y0232445D01*
X0035575Y0232684D01*
X0035455Y0233043D01*
X0035455Y0269957D01*
X0035575Y0270316D01*
X0035455Y0270555D01*
X0035455Y0270822D01*
X0035188Y0271089D01*
X0035019Y0271427D01*
X0034766Y0271512D01*
X0034577Y0271701D01*
X0034199Y0271701D01*
X0033840Y0271820D01*
X0033601Y0271701D01*
X0033334Y0271701D01*
X0033067Y0271434D01*
X0027581Y0268691D01*
X0027581Y0277091D01*
X0027708Y0278704D01*
X0028705Y0281772D01*
X0030601Y0284382D01*
X0033211Y0286278D01*
X0036279Y0287275D01*
X0037892Y0287402D01*
X0537892Y0287402D01*
X0539505Y0287275D01*
X0542573Y0286278D01*
X0545183Y0284382D01*
X0547080Y0281772D01*
X0548076Y0278704D01*
X0548203Y0277091D01*
X0548203Y0268691D01*
X0542718Y0271434D01*
X0542451Y0271701D01*
X0542183Y0271701D01*
X0541944Y0271820D01*
X0541586Y0271701D01*
X0541208Y0271701D01*
X0541019Y0271512D01*
X0540766Y0271427D01*
X0540597Y0271089D01*
X0540329Y0270822D01*
X0540329Y0270555D01*
X0540210Y0270316D01*
X0540329Y0269957D01*
X0540329Y0233043D01*
X0540210Y0232684D01*
X0540329Y0232445D01*
X0540329Y0232178D01*
X0540597Y0231911D01*
X0540766Y0231573D01*
X0541019Y0231488D01*
X0541208Y0231299D01*
X0541586Y0231299D01*
X0541944Y0231180D01*
X0542183Y0231299D01*
X0542451Y0231299D01*
X0542718Y0231566D01*
X0548203Y0234309D01*
X0548203Y0206683D01*
X0542718Y0209426D01*
X0542451Y0209693D01*
X0542183Y0209693D01*
X0541944Y0209812D01*
X0541586Y0209693D01*
X0541208Y0209693D01*
X0541019Y0209504D01*
X0540766Y0209419D01*
X0540597Y0209081D01*
X0540329Y0208814D01*
X0540329Y0208547D01*
X0540210Y0208308D01*
X0540329Y0207949D01*
X0540329Y0171035D01*
X0540210Y0170676D01*
X0540329Y0170437D01*
X0540329Y0170170D01*
X0540597Y0169903D01*
X0540766Y0169565D01*
X0541019Y0169480D01*
X0541208Y0169291D01*
X0541586Y0169291D01*
X0541944Y0169172D01*
X0542183Y0169291D01*
X0542451Y0169291D01*
X0542718Y0169559D01*
X0548203Y0172301D01*
X0548203Y0163539D01*
X0548203Y0162917D01*
X0548076Y0161304D01*
X0547080Y0158236D01*
X0545183Y0155626D01*
X0542573Y0153730D01*
X0539505Y0152733D01*
X0540642Y0153103D02*
X0035143Y0153103D01*
X0032701Y0154101D02*
X0079776Y0154101D01*
X0079133Y0154473D02*
X0080743Y0153543D01*
X0118034Y0153543D01*
X0119644Y0154473D01*
X0120573Y0156082D01*
X0120573Y0156390D01*
X0120573Y0175658D01*
X0119644Y0177267D01*
X0119644Y0177267D01*
X0118034Y0178197D01*
X0080743Y0178197D01*
X0079133Y0177267D01*
X0078203Y0175658D01*
X0078203Y0156082D01*
X0079133Y0154473D01*
X0079133Y0154473D01*
X0079133Y0154473D01*
X0078771Y0155100D02*
X0031326Y0155100D01*
X0030259Y0156098D02*
X0078203Y0156098D01*
X0078203Y0157097D02*
X0029533Y0157097D01*
X0028808Y0158095D02*
X0078203Y0158095D01*
X0078203Y0159094D02*
X0028427Y0159094D01*
X0028102Y0160092D02*
X0078203Y0160092D01*
X0078203Y0161091D02*
X0027778Y0161091D01*
X0027647Y0162089D02*
X0078203Y0162089D01*
X0078203Y0163088D02*
X0027581Y0163088D01*
X0027581Y0164086D02*
X0078203Y0164086D01*
X0078203Y0165085D02*
X0027581Y0165085D01*
X0027581Y0166083D02*
X0078203Y0166083D01*
X0078203Y0167082D02*
X0027581Y0167082D01*
X0027581Y0168080D02*
X0078203Y0168080D01*
X0078203Y0169079D02*
X0027581Y0169079D01*
X0027581Y0170077D02*
X0032029Y0170077D01*
X0030032Y0171076D02*
X0027581Y0171076D01*
X0027581Y0172074D02*
X0028035Y0172074D01*
X0035455Y0172074D02*
X0078203Y0172074D01*
X0078203Y0171076D02*
X0035455Y0171076D01*
X0035363Y0170077D02*
X0078203Y0170077D01*
X0078203Y0173073D02*
X0035455Y0173073D01*
X0035455Y0174071D02*
X0078203Y0174071D01*
X0078203Y0175070D02*
X0035455Y0175070D01*
X0035455Y0176068D02*
X0078441Y0176068D01*
X0078203Y0175658D02*
X0078203Y0175658D01*
X0079017Y0177067D02*
X0035455Y0177067D01*
X0035455Y0178065D02*
X0080515Y0178065D01*
X0079133Y0177267D02*
X0079133Y0177267D01*
X0118262Y0178065D02*
X0155969Y0178065D01*
X0158350Y0177067D02*
X0119760Y0177067D01*
X0119644Y0177267D02*
X0119644Y0177267D01*
X0120336Y0176068D02*
X0160476Y0176068D01*
X0160634Y0175960D02*
X0160880Y0176006D01*
X0161110Y0175909D01*
X0161233Y0175959D01*
X0161360Y0175921D01*
X0161502Y0175998D01*
X0161662Y0175972D01*
X0162001Y0176216D01*
X0162412Y0176293D01*
X0162553Y0176499D01*
X0162784Y0176594D01*
X0162835Y0176716D01*
X0162952Y0176778D01*
X0162998Y0176934D01*
X0163130Y0177029D01*
X0163197Y0177441D01*
X0163433Y0177785D01*
X0163387Y0178031D01*
X0163483Y0178261D01*
X0163433Y0178384D01*
X0165386Y0184892D01*
X0165578Y0185053D01*
X0165605Y0185361D01*
X0165785Y0185613D01*
X0165740Y0185883D01*
X0165845Y0186135D01*
X0165795Y0186258D01*
X0165833Y0186384D01*
X0165715Y0186605D01*
X0165737Y0186854D01*
X0165538Y0187091D01*
X0165487Y0187396D01*
X0165264Y0187555D01*
X0158501Y0204089D01*
X0158375Y0204759D01*
X0158169Y0204900D01*
X0158074Y0205132D01*
X0157445Y0205395D01*
X0156883Y0205780D01*
X0156637Y0205734D01*
X0156407Y0205831D01*
X0155776Y0205573D01*
X0155105Y0205447D01*
X0154964Y0205241D01*
X0154733Y0205146D01*
X0154469Y0204518D01*
X0154084Y0203955D01*
X0154130Y0203709D01*
X0154034Y0203479D01*
X0154292Y0202848D01*
X0155906Y0194240D01*
X0148509Y0199524D01*
X0148191Y0199966D01*
X0148041Y0199990D01*
X0147938Y0200101D01*
X0147686Y0200112D01*
X0147480Y0200258D01*
X0146943Y0200169D01*
X0146406Y0200256D01*
X0146283Y0200168D01*
X0146131Y0200174D01*
X0145946Y0200003D01*
X0145697Y0199961D01*
X0145380Y0199518D01*
X0144938Y0199200D01*
X0144914Y0199050D01*
X0135520Y0190379D01*
X0135048Y0190186D01*
X0134903Y0189841D01*
X0134617Y0189600D01*
X0134611Y0189540D01*
X0134566Y0189498D01*
X0134546Y0188989D01*
X0134349Y0188518D01*
X0134490Y0188172D01*
X0134458Y0187799D01*
X0134497Y0187752D01*
X0134494Y0187692D01*
X0134840Y0187317D01*
X0135033Y0186845D01*
X0135379Y0186700D01*
X0135619Y0186413D01*
X0135679Y0186408D01*
X0135721Y0186363D01*
X0136230Y0186343D01*
X0159565Y0176557D01*
X0159628Y0176441D01*
X0159783Y0176394D01*
X0159878Y0176263D01*
X0160290Y0176196D01*
X0160634Y0175960D01*
X0161796Y0176068D02*
X0167816Y0176068D01*
X0167816Y0175070D02*
X0120573Y0175070D01*
X0120573Y0174071D02*
X0127196Y0174071D01*
X0127106Y0174019D02*
X0127106Y0174019D01*
X0128603Y0174883D01*
X0130216Y0174883D01*
X0131237Y0174883D01*
X0132734Y0174019D01*
X0132734Y0174019D01*
X0132734Y0174019D01*
X0132764Y0173968D01*
X0133679Y0174883D01*
X0137654Y0174883D01*
X0139152Y0174019D01*
X0139152Y0174019D01*
X0139152Y0174019D01*
X0139507Y0173404D01*
X0139862Y0174019D01*
X0139862Y0174019D01*
X0141359Y0174883D01*
X0144032Y0174883D01*
X0145530Y0174019D01*
X0145530Y0174019D01*
X0145530Y0174019D01*
X0145573Y0173943D01*
X0146513Y0174883D01*
X0150489Y0174883D01*
X0151986Y0174019D01*
X0151986Y0174019D01*
X0151986Y0174019D01*
X0152851Y0172522D01*
X0152851Y0165396D01*
X0151791Y0164337D01*
X0150293Y0164337D01*
X0149233Y0165396D01*
X0149233Y0171266D01*
X0149071Y0171266D01*
X0149071Y0165396D01*
X0148012Y0164337D01*
X0146513Y0164337D01*
X0145556Y0165295D01*
X0145368Y0164969D01*
X0145368Y0164969D01*
X0144549Y0164497D01*
X0144390Y0164337D01*
X0141359Y0164337D01*
X0139862Y0165201D01*
X0139862Y0165201D01*
X0139862Y0165201D01*
X0139507Y0165816D01*
X0139152Y0165201D01*
X0139152Y0165201D01*
X0139152Y0165201D01*
X0137654Y0164337D01*
X0136236Y0164337D01*
X0136236Y0161223D01*
X0135177Y0160164D01*
X0133679Y0160164D01*
X0132619Y0161223D01*
X0132619Y0165135D01*
X0131237Y0164337D01*
X0128603Y0164337D01*
X0127106Y0165201D01*
X0127106Y0165201D01*
X0126241Y0166699D01*
X0126241Y0172522D01*
X0127106Y0174019D01*
X0127106Y0174019D01*
X0126559Y0173073D02*
X0120573Y0173073D01*
X0120573Y0172074D02*
X0126241Y0172074D01*
X0126241Y0171076D02*
X0120573Y0171076D01*
X0120573Y0170077D02*
X0126241Y0170077D01*
X0126241Y0169079D02*
X0120573Y0169079D01*
X0120573Y0168080D02*
X0126241Y0168080D01*
X0126241Y0167082D02*
X0120573Y0167082D01*
X0120573Y0166083D02*
X0126596Y0166083D01*
X0127308Y0165085D02*
X0120573Y0165085D01*
X0120573Y0164086D02*
X0132619Y0164086D01*
X0132619Y0163088D02*
X0120573Y0163088D01*
X0120573Y0162089D02*
X0132619Y0162089D01*
X0132752Y0161091D02*
X0120573Y0161091D01*
X0120573Y0160092D02*
X0291846Y0160092D01*
X0292488Y0159511D02*
X0290874Y0160971D01*
X0290432Y0161303D01*
X0290421Y0161381D01*
X0290362Y0161434D01*
X0290335Y0161986D01*
X0290257Y0162533D01*
X0290304Y0162596D01*
X0290300Y0162676D01*
X0290671Y0163085D01*
X0291782Y0164567D01*
X0290113Y0164567D01*
X0288503Y0165496D01*
X0288503Y0165496D01*
X0288503Y0165496D01*
X0287573Y0167106D01*
X0287573Y0182744D01*
X0288503Y0184354D01*
X0288503Y0184354D01*
X0290113Y0185283D01*
X0291969Y0185283D01*
X0290709Y0186723D01*
X0290300Y0187175D01*
X0290301Y0187189D01*
X0290291Y0187200D01*
X0290332Y0187808D01*
X0290362Y0188416D01*
X0290373Y0188426D01*
X0290374Y0188440D01*
X0290833Y0188841D01*
X0292488Y0190339D01*
X0292488Y0190339D01*
X0296449Y0192453D01*
X0296449Y0192453D01*
X0300805Y0193543D01*
X0305295Y0193543D01*
X0309651Y0192453D01*
X0309651Y0192453D01*
X0313612Y0190339D01*
X0313612Y0190339D01*
X0315225Y0188879D01*
X0315667Y0188548D01*
X0315679Y0188469D01*
X0315737Y0188416D01*
X0315765Y0187864D01*
X0315843Y0187318D01*
X0315796Y0187254D01*
X0315799Y0187175D01*
X0315429Y0186765D01*
X0314318Y0185283D01*
X0315987Y0185283D01*
X0317597Y0184354D01*
X0317597Y0184354D01*
X0317597Y0184354D01*
X0318526Y0182744D01*
X0318526Y0167106D01*
X0317597Y0165496D01*
X0317597Y0165496D01*
X0317597Y0165496D01*
X0315987Y0164567D01*
X0314131Y0164567D01*
X0315391Y0163127D01*
X0315799Y0162676D01*
X0315799Y0162661D01*
X0315808Y0162650D01*
X0315768Y0162043D01*
X0315737Y0161434D01*
X0315727Y0161425D01*
X0315726Y0161410D01*
X0315267Y0161009D01*
X0313612Y0159511D01*
X0313612Y0159511D01*
X0309651Y0157397D01*
X0309651Y0157397D01*
X0305295Y0156307D01*
X0300805Y0156307D01*
X0296449Y0157397D01*
X0292488Y0159511D01*
X0292488Y0159511D01*
X0293270Y0159094D02*
X0120573Y0159094D01*
X0120573Y0158095D02*
X0295141Y0158095D01*
X0297650Y0157097D02*
X0120573Y0157097D01*
X0120573Y0156098D02*
X0545526Y0156098D01*
X0546252Y0157097D02*
X0308450Y0157097D01*
X0310959Y0158095D02*
X0546977Y0158095D01*
X0547358Y0159094D02*
X0312829Y0159094D01*
X0314254Y0160092D02*
X0547683Y0160092D01*
X0548007Y0161091D02*
X0315361Y0161091D01*
X0315771Y0162089D02*
X0548138Y0162089D01*
X0548203Y0163088D02*
X0315427Y0163088D01*
X0314552Y0164086D02*
X0548203Y0164086D01*
X0548203Y0165085D02*
X0316884Y0165085D01*
X0317936Y0166083D02*
X0548203Y0166083D01*
X0548203Y0167082D02*
X0318512Y0167082D01*
X0318526Y0168080D02*
X0548203Y0168080D01*
X0548203Y0169079D02*
X0318526Y0169079D01*
X0318526Y0170077D02*
X0540422Y0170077D01*
X0540329Y0171076D02*
X0318526Y0171076D01*
X0318526Y0172074D02*
X0540329Y0172074D01*
X0540329Y0173073D02*
X0318526Y0173073D01*
X0318526Y0174071D02*
X0540329Y0174071D01*
X0540329Y0175070D02*
X0318526Y0175070D01*
X0318526Y0176068D02*
X0540329Y0176068D01*
X0540329Y0177067D02*
X0318526Y0177067D01*
X0318526Y0178065D02*
X0540329Y0178065D01*
X0540329Y0179064D02*
X0318526Y0179064D01*
X0318526Y0180062D02*
X0484994Y0180062D01*
X0486256Y0179724D02*
X0491056Y0179724D01*
X0495694Y0180967D01*
X0499851Y0183367D01*
X0503246Y0186762D01*
X0505646Y0190919D01*
X0506888Y0195556D01*
X0506888Y0200357D01*
X0505646Y0204994D01*
X0503246Y0209152D01*
X0499851Y0212546D01*
X0495694Y0214946D01*
X0491056Y0216189D01*
X0486256Y0216189D01*
X0481619Y0214946D01*
X0477461Y0212546D01*
X0474067Y0209152D01*
X0471666Y0204994D01*
X0470424Y0200357D01*
X0470424Y0195556D01*
X0471666Y0190919D01*
X0474067Y0186762D01*
X0477461Y0183367D01*
X0481619Y0180967D01*
X0486256Y0179724D01*
X0481456Y0181061D02*
X0318526Y0181061D01*
X0318526Y0182059D02*
X0479726Y0182059D01*
X0477997Y0183058D02*
X0318345Y0183058D01*
X0317769Y0184056D02*
X0476772Y0184056D01*
X0475774Y0185055D02*
X0316383Y0185055D01*
X0314895Y0186053D02*
X0474775Y0186053D01*
X0473899Y0187052D02*
X0315688Y0187052D01*
X0315756Y0188051D02*
X0473323Y0188051D01*
X0472746Y0189049D02*
X0315038Y0189049D01*
X0313934Y0190048D02*
X0472170Y0190048D01*
X0471632Y0191046D02*
X0312287Y0191046D01*
X0310417Y0192045D02*
X0471365Y0192045D01*
X0471097Y0193043D02*
X0307293Y0193043D01*
X0298806Y0193043D02*
X0163020Y0193043D01*
X0163428Y0192045D02*
X0295683Y0192045D01*
X0293812Y0191046D02*
X0163836Y0191046D01*
X0164245Y0190048D02*
X0292166Y0190048D01*
X0291062Y0189049D02*
X0164653Y0189049D01*
X0165062Y0188051D02*
X0290344Y0188051D01*
X0290411Y0187052D02*
X0165571Y0187052D01*
X0165811Y0186053D02*
X0291295Y0186053D01*
X0289717Y0185055D02*
X0165578Y0185055D01*
X0165135Y0184056D02*
X0288331Y0184056D01*
X0288503Y0184354D02*
X0288503Y0184354D01*
X0287755Y0183058D02*
X0164835Y0183058D01*
X0164536Y0182059D02*
X0287573Y0182059D01*
X0287573Y0181061D02*
X0164236Y0181061D01*
X0163937Y0180062D02*
X0287573Y0180062D01*
X0287573Y0179064D02*
X0170524Y0179064D01*
X0170374Y0179214D02*
X0168875Y0179214D01*
X0167816Y0178155D01*
X0167816Y0173877D01*
X0167734Y0174019D01*
X0166237Y0174883D01*
X0162261Y0174883D01*
X0161411Y0174033D01*
X0159938Y0174883D01*
X0157264Y0174883D01*
X0155767Y0174019D01*
X0154903Y0172522D01*
X0154903Y0166699D01*
X0155767Y0165201D01*
X0157264Y0164337D01*
X0160295Y0164337D01*
X0160455Y0164497D01*
X0161202Y0164928D01*
X0161202Y0161223D01*
X0162261Y0160164D01*
X0163760Y0160164D01*
X0164819Y0161223D01*
X0164819Y0164337D01*
X0166237Y0164337D01*
X0167734Y0165201D01*
X0167734Y0165201D01*
X0167734Y0165201D01*
X0167864Y0165427D01*
X0168875Y0164416D01*
X0170374Y0164416D01*
X0171433Y0165475D01*
X0171433Y0171266D01*
X0171596Y0171266D01*
X0171596Y0170908D01*
X0171606Y0170898D01*
X0171685Y0165371D01*
X0172760Y0164326D01*
X0174258Y0164348D01*
X0175302Y0165422D01*
X0175264Y0168077D01*
X0175958Y0166060D01*
X0175279Y0163879D01*
X0175266Y0163860D01*
X0174466Y0163860D01*
X0173407Y0162800D01*
X0173407Y0161302D01*
X0174466Y0160243D01*
X0175082Y0160243D01*
X0175270Y0160123D01*
X0175807Y0160243D01*
X0176358Y0160243D01*
X0176515Y0160400D01*
X0176671Y0160434D01*
X0177370Y0160558D01*
X0177396Y0160596D01*
X0177441Y0160606D01*
X0177822Y0161204D01*
X0178227Y0161783D01*
X0178452Y0161901D01*
X0178566Y0162266D01*
X0178780Y0162573D01*
X0178737Y0162817D01*
X0179745Y0166058D01*
X0179768Y0166104D01*
X0179763Y0166116D01*
X0180813Y0169490D01*
X0180969Y0169373D01*
X0181212Y0169007D01*
X0181545Y0168941D01*
X0181638Y0168871D01*
X0181641Y0168849D01*
X0182099Y0168505D01*
X0181316Y0168505D01*
X0180441Y0167630D01*
X0180439Y0167629D01*
X0180439Y0167628D01*
X0180257Y0167446D01*
X0180257Y0166718D01*
X0180145Y0166159D01*
X0180257Y0165992D01*
X0180257Y0165790D01*
X0180564Y0165483D01*
X0180650Y0165138D01*
X0180944Y0164961D01*
X0181134Y0164677D01*
X0181500Y0164603D01*
X0181746Y0164480D01*
X0182086Y0164276D01*
X0182261Y0164101D01*
X0182505Y0164101D01*
X0182793Y0163957D01*
X0183225Y0164101D01*
X0184820Y0164101D01*
X0186317Y0164965D01*
X0186317Y0164965D01*
X0186317Y0164965D01*
X0187181Y0166462D01*
X0187181Y0167252D01*
X0187293Y0167419D01*
X0187181Y0167978D01*
X0187181Y0168548D01*
X0187103Y0168627D01*
X0187103Y0168942D01*
X0186960Y0169085D01*
X0186921Y0169282D01*
X0186446Y0169598D01*
X0186291Y0169754D01*
X0186270Y0169899D01*
X0185773Y0170271D01*
X0185334Y0170710D01*
X0185214Y0170710D01*
X0185103Y0170794D01*
X0185964Y0170794D01*
X0186840Y0171669D01*
X0186842Y0171671D01*
X0187024Y0171853D01*
X0187024Y0172581D01*
X0187136Y0173140D01*
X0187024Y0173307D01*
X0187024Y0173509D01*
X0186717Y0173816D01*
X0186631Y0174162D01*
X0186337Y0174338D01*
X0186147Y0174623D01*
X0185781Y0174696D01*
X0185535Y0174819D01*
X0185195Y0175023D01*
X0185020Y0175198D01*
X0184776Y0175198D01*
X0184488Y0175343D01*
X0184056Y0175198D01*
X0182461Y0175198D01*
X0181765Y0174797D01*
X0181507Y0175288D01*
X0180077Y0175733D01*
X0178750Y0175036D01*
X0177775Y0171901D01*
X0176682Y0175080D01*
X0175336Y0175737D01*
X0173919Y0175250D01*
X0173544Y0174483D01*
X0172851Y0174883D01*
X0171433Y0174883D01*
X0171433Y0178155D01*
X0170374Y0179214D01*
X0171433Y0178065D02*
X0287573Y0178065D01*
X0287573Y0177067D02*
X0171433Y0177067D01*
X0171433Y0176068D02*
X0287573Y0176068D01*
X0287573Y0175070D02*
X0185148Y0175070D01*
X0186653Y0174071D02*
X0287573Y0174071D01*
X0287573Y0173073D02*
X0187122Y0173073D01*
X0187024Y0172074D02*
X0287573Y0172074D01*
X0287573Y0171076D02*
X0186246Y0171076D01*
X0186842Y0171671D02*
X0186842Y0171671D01*
X0186032Y0170077D02*
X0287573Y0170077D01*
X0287573Y0169079D02*
X0186966Y0169079D01*
X0187181Y0168080D02*
X0287573Y0168080D01*
X0287588Y0167082D02*
X0187181Y0167082D01*
X0186962Y0166083D02*
X0288164Y0166083D01*
X0289216Y0165085D02*
X0186386Y0165085D01*
X0183182Y0164086D02*
X0291422Y0164086D01*
X0290673Y0163088D02*
X0178821Y0163088D01*
X0179132Y0164086D02*
X0182534Y0164086D01*
X0180738Y0165085D02*
X0179442Y0165085D01*
X0179758Y0166083D02*
X0180196Y0166083D01*
X0180257Y0167082D02*
X0180064Y0167082D01*
X0180374Y0168080D02*
X0180891Y0168080D01*
X0180685Y0169079D02*
X0181165Y0169079D01*
X0177829Y0172074D02*
X0177715Y0172074D01*
X0177372Y0173073D02*
X0178139Y0173073D01*
X0178450Y0174071D02*
X0177029Y0174071D01*
X0176686Y0175070D02*
X0178814Y0175070D01*
X0181622Y0175070D02*
X0182238Y0175070D01*
X0173831Y0175070D02*
X0171433Y0175070D01*
X0167816Y0174071D02*
X0167644Y0174071D01*
X0167734Y0174019D02*
X0167734Y0174019D01*
X0167734Y0174019D01*
X0167816Y0177067D02*
X0163136Y0177067D01*
X0163401Y0178065D02*
X0167816Y0178065D01*
X0168725Y0179064D02*
X0163637Y0179064D01*
X0161449Y0174071D02*
X0161344Y0174071D01*
X0157264Y0174883D02*
X0157264Y0174883D01*
X0155858Y0174071D02*
X0151896Y0174071D01*
X0152533Y0173073D02*
X0155221Y0173073D01*
X0154903Y0172074D02*
X0152851Y0172074D01*
X0152851Y0171076D02*
X0154903Y0171076D01*
X0154903Y0170077D02*
X0152851Y0170077D01*
X0152851Y0169079D02*
X0154903Y0169079D01*
X0154903Y0168080D02*
X0152851Y0168080D01*
X0152851Y0167082D02*
X0154903Y0167082D01*
X0155258Y0166083D02*
X0152851Y0166083D01*
X0152539Y0165085D02*
X0155969Y0165085D01*
X0155767Y0165201D02*
X0155767Y0165201D01*
X0155767Y0165201D01*
X0161202Y0164086D02*
X0136236Y0164086D01*
X0136236Y0163088D02*
X0161202Y0163088D01*
X0161202Y0162089D02*
X0136236Y0162089D01*
X0136104Y0161091D02*
X0161334Y0161091D01*
X0164687Y0161091D02*
X0173618Y0161091D01*
X0173407Y0162089D02*
X0164819Y0162089D01*
X0164819Y0163088D02*
X0173694Y0163088D01*
X0175344Y0164086D02*
X0164819Y0164086D01*
X0167532Y0165085D02*
X0168206Y0165085D01*
X0171043Y0165085D02*
X0171979Y0165085D01*
X0171675Y0166083D02*
X0171433Y0166083D01*
X0171433Y0167082D02*
X0171661Y0167082D01*
X0171646Y0168080D02*
X0171433Y0168080D01*
X0171433Y0169079D02*
X0171632Y0169079D01*
X0171618Y0170077D02*
X0171433Y0170077D01*
X0171433Y0171076D02*
X0171596Y0171076D01*
X0175278Y0167082D02*
X0175606Y0167082D01*
X0175293Y0166083D02*
X0175950Y0166083D01*
X0175654Y0165085D02*
X0174974Y0165085D01*
X0178511Y0162089D02*
X0290320Y0162089D01*
X0290715Y0161091D02*
X0177750Y0161091D01*
X0155767Y0174019D02*
X0155767Y0174019D01*
X0149233Y0171076D02*
X0149071Y0171076D01*
X0149071Y0170077D02*
X0149233Y0170077D01*
X0149233Y0169079D02*
X0149071Y0169079D01*
X0149071Y0168080D02*
X0149233Y0168080D01*
X0149233Y0167082D02*
X0149071Y0167082D01*
X0149071Y0166083D02*
X0149233Y0166083D01*
X0149545Y0165085D02*
X0148759Y0165085D01*
X0145766Y0165085D02*
X0145435Y0165085D01*
X0140064Y0165085D02*
X0138950Y0165085D01*
X0132619Y0165085D02*
X0132532Y0165085D01*
X0132644Y0174071D02*
X0132867Y0174071D01*
X0139061Y0174071D02*
X0139952Y0174071D01*
X0139862Y0174019D02*
X0139862Y0174019D01*
X0145439Y0174071D02*
X0145701Y0174071D01*
X0148825Y0181061D02*
X0035455Y0181061D01*
X0035455Y0182059D02*
X0146444Y0182059D01*
X0144063Y0183058D02*
X0035455Y0183058D01*
X0035455Y0184056D02*
X0141682Y0184056D01*
X0139301Y0185055D02*
X0035455Y0185055D01*
X0035455Y0186053D02*
X0136920Y0186053D01*
X0134949Y0187052D02*
X0035455Y0187052D01*
X0035455Y0188051D02*
X0134480Y0188051D01*
X0134549Y0189049D02*
X0035455Y0189049D01*
X0035455Y0190048D02*
X0134990Y0190048D01*
X0136243Y0191046D02*
X0035455Y0191046D01*
X0035455Y0192045D02*
X0137325Y0192045D01*
X0138406Y0193043D02*
X0035455Y0193043D01*
X0035455Y0194042D02*
X0139488Y0194042D01*
X0140570Y0195040D02*
X0035455Y0195040D01*
X0035455Y0196039D02*
X0141652Y0196039D01*
X0142733Y0197037D02*
X0035455Y0197037D01*
X0035455Y0198036D02*
X0143815Y0198036D01*
X0144897Y0199034D02*
X0035455Y0199034D01*
X0035455Y0200033D02*
X0145979Y0200033D01*
X0148002Y0200033D02*
X0154820Y0200033D01*
X0154633Y0201031D02*
X0035455Y0201031D01*
X0035455Y0202030D02*
X0154445Y0202030D01*
X0154218Y0203028D02*
X0035455Y0203028D01*
X0035455Y0204027D02*
X0154134Y0204027D01*
X0154682Y0205025D02*
X0035455Y0205025D01*
X0035455Y0206024D02*
X0333341Y0206024D01*
X0333341Y0207022D02*
X0035455Y0207022D01*
X0035479Y0208021D02*
X0333341Y0208021D01*
X0333341Y0209019D02*
X0035250Y0209019D01*
X0032254Y0209019D02*
X0027581Y0209019D01*
X0027581Y0208021D02*
X0030257Y0208021D01*
X0028260Y0207022D02*
X0027581Y0207022D01*
X0027581Y0210018D02*
X0333722Y0210018D01*
X0333341Y0209359D02*
X0333341Y0209050D01*
X0333341Y0203563D01*
X0334271Y0201953D01*
X0335880Y0201024D01*
X0357424Y0201024D01*
X0359034Y0201953D01*
X0359963Y0203563D01*
X0359963Y0209359D01*
X0359034Y0210968D01*
X0359034Y0210968D01*
X0357424Y0211898D01*
X0335880Y0211898D01*
X0334271Y0210968D01*
X0333341Y0209359D01*
X0334271Y0210968D02*
X0334271Y0210968D01*
X0334271Y0210968D01*
X0334354Y0211016D02*
X0027581Y0211016D01*
X0027581Y0212015D02*
X0476930Y0212015D01*
X0475931Y0211016D02*
X0451451Y0211016D01*
X0451534Y0210968D02*
X0449924Y0211898D01*
X0449616Y0211898D01*
X0428380Y0211898D01*
X0426771Y0210968D01*
X0425841Y0209359D01*
X0425841Y0203563D01*
X0426771Y0201953D01*
X0428380Y0201024D01*
X0449924Y0201024D01*
X0451534Y0201953D01*
X0452463Y0203563D01*
X0452463Y0209359D01*
X0451534Y0210968D01*
X0451534Y0210968D01*
X0451534Y0210968D01*
X0452083Y0210018D02*
X0474933Y0210018D01*
X0473990Y0209019D02*
X0452463Y0209019D01*
X0452463Y0208021D02*
X0473414Y0208021D01*
X0472837Y0207022D02*
X0452463Y0207022D01*
X0452463Y0206024D02*
X0472261Y0206024D01*
X0471684Y0205025D02*
X0452463Y0205025D01*
X0452463Y0204027D02*
X0471407Y0204027D01*
X0471140Y0203028D02*
X0452155Y0203028D01*
X0451578Y0202030D02*
X0470872Y0202030D01*
X0470605Y0201031D02*
X0449937Y0201031D01*
X0451534Y0201953D02*
X0451534Y0201953D01*
X0451534Y0201953D01*
X0470424Y0200033D02*
X0160160Y0200033D01*
X0159752Y0201031D02*
X0335867Y0201031D01*
X0334271Y0201953D02*
X0334271Y0201953D01*
X0334271Y0201953D01*
X0334226Y0202030D02*
X0159343Y0202030D01*
X0158935Y0203028D02*
X0333650Y0203028D01*
X0333341Y0204027D02*
X0158526Y0204027D01*
X0158118Y0205025D02*
X0333341Y0205025D01*
X0357437Y0201031D02*
X0428367Y0201031D01*
X0426771Y0201953D02*
X0426771Y0201953D01*
X0426771Y0201953D01*
X0426726Y0202030D02*
X0359078Y0202030D01*
X0359034Y0201953D02*
X0359034Y0201953D01*
X0359034Y0201953D01*
X0359655Y0203028D02*
X0426150Y0203028D01*
X0425841Y0204027D02*
X0359963Y0204027D01*
X0359963Y0205025D02*
X0425841Y0205025D01*
X0425841Y0206024D02*
X0359963Y0206024D01*
X0359963Y0207022D02*
X0425841Y0207022D01*
X0425841Y0208021D02*
X0359963Y0208021D01*
X0359963Y0209019D02*
X0425841Y0209019D01*
X0426222Y0210018D02*
X0359583Y0210018D01*
X0359034Y0210968D02*
X0359034Y0210968D01*
X0358951Y0211016D02*
X0426854Y0211016D01*
X0426771Y0210968D02*
X0426771Y0210968D01*
X0426771Y0210968D01*
X0431317Y0225887D02*
X0433306Y0225453D01*
X0435214Y0226164D01*
X0435375Y0226378D01*
X0504347Y0226378D01*
X0504508Y0226164D01*
X0506416Y0225453D01*
X0508405Y0225887D01*
X0509844Y0227326D01*
X0509844Y0227326D01*
X0510278Y0229315D01*
X0510278Y0229315D01*
X0509567Y0231223D01*
X0509567Y0231223D01*
X0509353Y0231384D01*
X0509353Y0275159D01*
X0509567Y0275320D01*
X0509567Y0275320D01*
X0510278Y0277228D01*
X0509844Y0279217D01*
X0508405Y0280657D01*
X0506416Y0281090D01*
X0506416Y0281090D01*
X0504508Y0280380D01*
X0504508Y0280380D01*
X0504347Y0280165D01*
X0435375Y0280165D01*
X0435214Y0280380D01*
X0433306Y0281090D01*
X0431317Y0280657D01*
X0429878Y0279217D01*
X0429444Y0277228D01*
X0430154Y0275320D01*
X0430369Y0275159D01*
X0430369Y0231384D01*
X0430154Y0231223D01*
X0429444Y0229315D01*
X0429878Y0227326D01*
X0431317Y0225887D01*
X0431317Y0225887D01*
X0431210Y0225994D02*
X0278684Y0225994D01*
X0278684Y0226992D02*
X0430211Y0226992D01*
X0429878Y0227326D02*
X0429878Y0227326D01*
X0429733Y0227991D02*
X0278684Y0227991D01*
X0278684Y0228989D02*
X0429515Y0228989D01*
X0429444Y0229315D02*
X0429444Y0229315D01*
X0429695Y0229988D02*
X0278684Y0229988D01*
X0278684Y0230986D02*
X0430066Y0230986D01*
X0430154Y0231223D02*
X0430154Y0231223D01*
X0430154Y0231223D01*
X0430369Y0231985D02*
X0278684Y0231985D01*
X0278684Y0232984D02*
X0305565Y0232984D01*
X0305974Y0232874D02*
X0311811Y0232874D01*
X0317449Y0234385D01*
X0322505Y0237303D01*
X0326632Y0241431D01*
X0329551Y0246486D01*
X0331062Y0252125D01*
X0331062Y0257962D01*
X0329551Y0263600D01*
X0326632Y0268656D01*
X0322505Y0272783D01*
X0317449Y0275702D01*
X0311811Y0277213D01*
X0305974Y0277213D01*
X0300335Y0275702D01*
X0295280Y0272783D01*
X0291153Y0268656D01*
X0288234Y0263600D01*
X0286723Y0257962D01*
X0286723Y0252125D01*
X0288234Y0246486D01*
X0291153Y0241431D01*
X0295280Y0237303D01*
X0300335Y0234385D01*
X0305974Y0232874D01*
X0301839Y0233982D02*
X0278684Y0233982D01*
X0278684Y0234981D02*
X0299304Y0234981D01*
X0297574Y0235979D02*
X0278684Y0235979D01*
X0278684Y0236978D02*
X0295845Y0236978D01*
X0294608Y0237976D02*
X0278684Y0237976D01*
X0278684Y0238975D02*
X0293609Y0238975D01*
X0292610Y0239973D02*
X0278684Y0239973D01*
X0278684Y0240972D02*
X0291612Y0240972D01*
X0290841Y0241970D02*
X0278684Y0241970D01*
X0278684Y0242969D02*
X0290265Y0242969D01*
X0289688Y0243967D02*
X0278684Y0243967D01*
X0278684Y0244966D02*
X0289112Y0244966D01*
X0288535Y0245964D02*
X0278684Y0245964D01*
X0278684Y0246963D02*
X0288106Y0246963D01*
X0287839Y0247961D02*
X0278684Y0247961D01*
X0278684Y0248960D02*
X0287571Y0248960D01*
X0287304Y0249958D02*
X0278684Y0249958D01*
X0278684Y0250957D02*
X0287036Y0250957D01*
X0286768Y0251955D02*
X0278684Y0251955D01*
X0278684Y0252954D02*
X0286723Y0252954D01*
X0286723Y0253952D02*
X0278684Y0253952D01*
X0278684Y0254951D02*
X0286723Y0254951D01*
X0286723Y0255949D02*
X0278684Y0255949D01*
X0278684Y0256948D02*
X0286723Y0256948D01*
X0286723Y0257946D02*
X0278684Y0257946D01*
X0278684Y0258945D02*
X0286986Y0258945D01*
X0287254Y0259943D02*
X0278684Y0259943D01*
X0278684Y0260942D02*
X0287522Y0260942D01*
X0287789Y0261940D02*
X0278466Y0261940D01*
X0278684Y0261563D02*
X0277754Y0263173D01*
X0276145Y0264102D01*
X0191609Y0264102D01*
X0189999Y0263173D01*
X0189999Y0263173D01*
X0189070Y0261563D01*
X0189070Y0224271D01*
X0189999Y0222662D01*
X0189999Y0222662D01*
X0191609Y0221732D01*
X0276145Y0221732D01*
X0277754Y0222662D01*
X0278684Y0224271D01*
X0278684Y0224579D01*
X0278684Y0261563D01*
X0277889Y0262939D02*
X0288057Y0262939D01*
X0288428Y0263937D02*
X0276430Y0263937D01*
X0277754Y0263173D02*
X0277754Y0263173D01*
X0277754Y0263173D01*
X0289005Y0264936D02*
X0035455Y0264936D01*
X0035455Y0265934D02*
X0289581Y0265934D01*
X0290158Y0266933D02*
X0035455Y0266933D01*
X0035455Y0267931D02*
X0290734Y0267931D01*
X0291427Y0268930D02*
X0035455Y0268930D01*
X0035455Y0269928D02*
X0292425Y0269928D01*
X0293424Y0270927D02*
X0035351Y0270927D01*
X0032054Y0270927D02*
X0027581Y0270927D01*
X0027581Y0271925D02*
X0294422Y0271925D01*
X0295524Y0272924D02*
X0027581Y0272924D01*
X0027581Y0273922D02*
X0297254Y0273922D01*
X0298983Y0274921D02*
X0027581Y0274921D01*
X0027581Y0275920D02*
X0301148Y0275920D01*
X0304874Y0276918D02*
X0027581Y0276918D01*
X0027646Y0277917D02*
X0429594Y0277917D01*
X0429444Y0277228D02*
X0429444Y0277228D01*
X0429560Y0276918D02*
X0387910Y0276918D01*
X0386811Y0277213D02*
X0392449Y0275702D01*
X0397505Y0272783D01*
X0401632Y0268656D01*
X0404551Y0263600D01*
X0406062Y0257962D01*
X0406062Y0252125D01*
X0404551Y0246486D01*
X0401632Y0241431D01*
X0397505Y0237303D01*
X0392449Y0234385D01*
X0386811Y0232874D01*
X0380974Y0232874D01*
X0375335Y0234385D01*
X0370280Y0237303D01*
X0366153Y0241431D01*
X0363234Y0246486D01*
X0361723Y0252125D01*
X0361723Y0257962D01*
X0363234Y0263600D01*
X0366153Y0268656D01*
X0370280Y0272783D01*
X0375335Y0275702D01*
X0380974Y0277213D01*
X0386811Y0277213D01*
X0391637Y0275920D02*
X0429931Y0275920D01*
X0430154Y0275320D02*
X0430154Y0275320D01*
X0430369Y0274921D02*
X0393802Y0274921D01*
X0395531Y0273922D02*
X0430369Y0273922D01*
X0430369Y0272924D02*
X0397261Y0272924D01*
X0398362Y0271925D02*
X0430369Y0271925D01*
X0430369Y0270927D02*
X0399361Y0270927D01*
X0400359Y0269928D02*
X0430369Y0269928D01*
X0430369Y0268930D02*
X0401358Y0268930D01*
X0402050Y0267931D02*
X0430369Y0267931D01*
X0430369Y0266933D02*
X0402627Y0266933D01*
X0403203Y0265934D02*
X0430369Y0265934D01*
X0430369Y0264936D02*
X0403780Y0264936D01*
X0404356Y0263937D02*
X0430369Y0263937D01*
X0430369Y0262939D02*
X0404728Y0262939D01*
X0404996Y0261940D02*
X0430369Y0261940D01*
X0430369Y0260942D02*
X0405263Y0260942D01*
X0405531Y0259943D02*
X0430369Y0259943D01*
X0430369Y0258945D02*
X0405798Y0258945D01*
X0406062Y0257946D02*
X0430369Y0257946D01*
X0430369Y0256948D02*
X0406062Y0256948D01*
X0406062Y0255949D02*
X0430369Y0255949D01*
X0430369Y0254951D02*
X0406062Y0254951D01*
X0406062Y0253952D02*
X0430369Y0253952D01*
X0430369Y0252954D02*
X0406062Y0252954D01*
X0406016Y0251955D02*
X0430369Y0251955D01*
X0430369Y0250957D02*
X0405749Y0250957D01*
X0405481Y0249958D02*
X0430369Y0249958D01*
X0430369Y0248960D02*
X0405214Y0248960D01*
X0404946Y0247961D02*
X0430369Y0247961D01*
X0430369Y0246963D02*
X0404679Y0246963D01*
X0404249Y0245964D02*
X0430369Y0245964D01*
X0430369Y0244966D02*
X0403673Y0244966D01*
X0403096Y0243967D02*
X0430369Y0243967D01*
X0430369Y0242969D02*
X0402520Y0242969D01*
X0401943Y0241970D02*
X0430369Y0241970D01*
X0430369Y0240972D02*
X0401173Y0240972D01*
X0400174Y0239973D02*
X0430369Y0239973D01*
X0430369Y0238975D02*
X0399176Y0238975D01*
X0398177Y0237976D02*
X0430369Y0237976D01*
X0430369Y0236978D02*
X0396940Y0236978D01*
X0395211Y0235979D02*
X0430369Y0235979D01*
X0430369Y0234981D02*
X0393481Y0234981D01*
X0390946Y0233982D02*
X0430369Y0233982D01*
X0430369Y0232984D02*
X0387220Y0232984D01*
X0380565Y0232984D02*
X0312220Y0232984D01*
X0315946Y0233982D02*
X0376839Y0233982D01*
X0374304Y0234981D02*
X0318481Y0234981D01*
X0320211Y0235979D02*
X0372574Y0235979D01*
X0370845Y0236978D02*
X0321940Y0236978D01*
X0323177Y0237976D02*
X0369608Y0237976D01*
X0368609Y0238975D02*
X0324176Y0238975D01*
X0325174Y0239973D02*
X0367610Y0239973D01*
X0366612Y0240972D02*
X0326173Y0240972D01*
X0326943Y0241970D02*
X0365841Y0241970D01*
X0365265Y0242969D02*
X0327520Y0242969D01*
X0328096Y0243967D02*
X0364688Y0243967D01*
X0364112Y0244966D02*
X0328673Y0244966D01*
X0329249Y0245964D02*
X0363535Y0245964D01*
X0363106Y0246963D02*
X0329679Y0246963D01*
X0329946Y0247961D02*
X0362839Y0247961D01*
X0362571Y0248960D02*
X0330214Y0248960D01*
X0330481Y0249958D02*
X0362304Y0249958D01*
X0362036Y0250957D02*
X0330749Y0250957D01*
X0331016Y0251955D02*
X0361768Y0251955D01*
X0361723Y0252954D02*
X0331062Y0252954D01*
X0331062Y0253952D02*
X0361723Y0253952D01*
X0361723Y0254951D02*
X0331062Y0254951D01*
X0331062Y0255949D02*
X0361723Y0255949D01*
X0361723Y0256948D02*
X0331062Y0256948D01*
X0331062Y0257946D02*
X0361723Y0257946D01*
X0361986Y0258945D02*
X0330798Y0258945D01*
X0330531Y0259943D02*
X0362254Y0259943D01*
X0362522Y0260942D02*
X0330263Y0260942D01*
X0329996Y0261940D02*
X0362789Y0261940D01*
X0363057Y0262939D02*
X0329728Y0262939D01*
X0329356Y0263937D02*
X0363428Y0263937D01*
X0364005Y0264936D02*
X0328780Y0264936D01*
X0328203Y0265934D02*
X0364581Y0265934D01*
X0365158Y0266933D02*
X0327627Y0266933D01*
X0327050Y0267931D02*
X0365734Y0267931D01*
X0366427Y0268930D02*
X0326358Y0268930D01*
X0325359Y0269928D02*
X0367425Y0269928D01*
X0368424Y0270927D02*
X0324361Y0270927D01*
X0323362Y0271925D02*
X0369422Y0271925D01*
X0370524Y0272924D02*
X0322261Y0272924D01*
X0320531Y0273922D02*
X0372254Y0273922D01*
X0373983Y0274921D02*
X0318802Y0274921D01*
X0316637Y0275920D02*
X0376148Y0275920D01*
X0379874Y0276918D02*
X0312910Y0276918D01*
X0278684Y0224995D02*
X0548203Y0224995D01*
X0548203Y0223997D02*
X0278525Y0223997D01*
X0277949Y0222998D02*
X0548203Y0222998D01*
X0548203Y0222000D02*
X0276608Y0222000D01*
X0277754Y0222662D02*
X0277754Y0222662D01*
X0277754Y0222662D01*
X0191145Y0222000D02*
X0182262Y0222000D01*
X0181264Y0221001D02*
X0548203Y0221001D01*
X0548203Y0220003D02*
X0180265Y0220003D01*
X0180030Y0219768D02*
X0183447Y0223185D01*
X0186132Y0227203D01*
X0187981Y0231667D01*
X0188924Y0236407D01*
X0188924Y0241239D01*
X0187981Y0245978D01*
X0186132Y0250443D01*
X0183447Y0254461D01*
X0180030Y0257878D01*
X0176012Y0260562D01*
X0171548Y0262412D01*
X0166809Y0263354D01*
X0161976Y0263354D01*
X0157237Y0262412D01*
X0152772Y0260562D01*
X0148754Y0257878D01*
X0145338Y0254461D01*
X0142653Y0250443D01*
X0140804Y0245978D01*
X0139861Y0241239D01*
X0139861Y0236407D01*
X0140804Y0231667D01*
X0142653Y0227203D01*
X0145338Y0223185D01*
X0148754Y0219768D01*
X0152772Y0217083D01*
X0157237Y0215234D01*
X0161976Y0214291D01*
X0166809Y0214291D01*
X0171548Y0215234D01*
X0176012Y0217083D01*
X0180030Y0219768D01*
X0178887Y0219004D02*
X0548203Y0219004D01*
X0548203Y0218006D02*
X0177393Y0218006D01*
X0175829Y0217007D02*
X0548203Y0217007D01*
X0548203Y0216009D02*
X0491729Y0216009D01*
X0495455Y0215010D02*
X0548203Y0215010D01*
X0548203Y0214012D02*
X0497312Y0214012D01*
X0499042Y0213013D02*
X0548203Y0213013D01*
X0548203Y0212015D02*
X0500382Y0212015D01*
X0501381Y0211016D02*
X0548203Y0211016D01*
X0548203Y0210018D02*
X0502379Y0210018D01*
X0503322Y0209019D02*
X0540534Y0209019D01*
X0540306Y0208021D02*
X0503899Y0208021D01*
X0504475Y0207022D02*
X0540329Y0207022D01*
X0540329Y0206024D02*
X0505051Y0206024D01*
X0505628Y0205025D02*
X0540329Y0205025D01*
X0540329Y0204027D02*
X0505905Y0204027D01*
X0506173Y0203028D02*
X0540329Y0203028D01*
X0540329Y0202030D02*
X0506440Y0202030D01*
X0506708Y0201031D02*
X0540329Y0201031D01*
X0540329Y0200033D02*
X0506888Y0200033D01*
X0506888Y0199034D02*
X0540329Y0199034D01*
X0540329Y0198036D02*
X0506888Y0198036D01*
X0506888Y0197037D02*
X0540329Y0197037D01*
X0540329Y0196039D02*
X0506888Y0196039D01*
X0506750Y0195040D02*
X0540329Y0195040D01*
X0540329Y0194042D02*
X0506483Y0194042D01*
X0506215Y0193043D02*
X0540329Y0193043D01*
X0540329Y0192045D02*
X0505947Y0192045D01*
X0505680Y0191046D02*
X0540329Y0191046D01*
X0540329Y0190048D02*
X0505143Y0190048D01*
X0504566Y0189049D02*
X0540329Y0189049D01*
X0540329Y0188051D02*
X0503990Y0188051D01*
X0503413Y0187052D02*
X0540329Y0187052D01*
X0540329Y0186053D02*
X0502537Y0186053D01*
X0501539Y0185055D02*
X0540329Y0185055D01*
X0540329Y0184056D02*
X0500540Y0184056D01*
X0499315Y0183058D02*
X0540329Y0183058D01*
X0540329Y0182059D02*
X0497586Y0182059D01*
X0495856Y0181061D02*
X0540329Y0181061D01*
X0540329Y0180062D02*
X0492318Y0180062D01*
X0470830Y0194042D02*
X0162611Y0194042D01*
X0162203Y0195040D02*
X0470562Y0195040D01*
X0470424Y0196039D02*
X0161794Y0196039D01*
X0161386Y0197037D02*
X0470424Y0197037D01*
X0470424Y0198036D02*
X0160977Y0198036D01*
X0160569Y0199034D02*
X0470424Y0199034D01*
X0478270Y0213013D02*
X0027581Y0213013D01*
X0027581Y0214012D02*
X0480000Y0214012D01*
X0481857Y0215010D02*
X0170423Y0215010D01*
X0173418Y0216009D02*
X0485584Y0216009D01*
X0504508Y0226164D02*
X0504508Y0226164D01*
X0504508Y0226164D01*
X0504964Y0225994D02*
X0434758Y0225994D01*
X0435214Y0226164D02*
X0435214Y0226164D01*
X0433306Y0225453D02*
X0433306Y0225453D01*
X0506416Y0225453D02*
X0506416Y0225453D01*
X0508405Y0225887D02*
X0508405Y0225887D01*
X0508512Y0225994D02*
X0548203Y0225994D01*
X0548203Y0226992D02*
X0509511Y0226992D01*
X0509989Y0227991D02*
X0548203Y0227991D01*
X0548203Y0228989D02*
X0510207Y0228989D01*
X0510027Y0229988D02*
X0548203Y0229988D01*
X0548203Y0230986D02*
X0509655Y0230986D01*
X0509353Y0231985D02*
X0540522Y0231985D01*
X0540310Y0232984D02*
X0509353Y0232984D01*
X0509353Y0233982D02*
X0540329Y0233982D01*
X0540329Y0234981D02*
X0509353Y0234981D01*
X0509353Y0235979D02*
X0540329Y0235979D01*
X0540329Y0236978D02*
X0509353Y0236978D01*
X0509353Y0237976D02*
X0540329Y0237976D01*
X0540329Y0238975D02*
X0509353Y0238975D01*
X0509353Y0239973D02*
X0540329Y0239973D01*
X0540329Y0240972D02*
X0509353Y0240972D01*
X0509353Y0241970D02*
X0540329Y0241970D01*
X0540329Y0242969D02*
X0509353Y0242969D01*
X0509353Y0243967D02*
X0540329Y0243967D01*
X0540329Y0244966D02*
X0509353Y0244966D01*
X0509353Y0245964D02*
X0540329Y0245964D01*
X0540329Y0246963D02*
X0509353Y0246963D01*
X0509353Y0247961D02*
X0540329Y0247961D01*
X0540329Y0248960D02*
X0509353Y0248960D01*
X0509353Y0249958D02*
X0540329Y0249958D01*
X0540329Y0250957D02*
X0509353Y0250957D01*
X0509353Y0251955D02*
X0540329Y0251955D01*
X0540329Y0252954D02*
X0509353Y0252954D01*
X0509353Y0253952D02*
X0540329Y0253952D01*
X0540329Y0254951D02*
X0509353Y0254951D01*
X0509353Y0255949D02*
X0540329Y0255949D01*
X0540329Y0256948D02*
X0509353Y0256948D01*
X0509353Y0257946D02*
X0540329Y0257946D01*
X0540329Y0258945D02*
X0509353Y0258945D01*
X0509353Y0259943D02*
X0540329Y0259943D01*
X0540329Y0260942D02*
X0509353Y0260942D01*
X0509353Y0261940D02*
X0540329Y0261940D01*
X0540329Y0262939D02*
X0509353Y0262939D01*
X0509353Y0263937D02*
X0540329Y0263937D01*
X0540329Y0264936D02*
X0509353Y0264936D01*
X0509353Y0265934D02*
X0540329Y0265934D01*
X0540329Y0266933D02*
X0509353Y0266933D01*
X0509353Y0267931D02*
X0540329Y0267931D01*
X0540329Y0268930D02*
X0509353Y0268930D01*
X0509353Y0269928D02*
X0540329Y0269928D01*
X0540434Y0270927D02*
X0509353Y0270927D01*
X0509353Y0271925D02*
X0548203Y0271925D01*
X0548203Y0270927D02*
X0543731Y0270927D01*
X0545728Y0269928D02*
X0548203Y0269928D01*
X0548203Y0268930D02*
X0547725Y0268930D01*
X0548203Y0272924D02*
X0509353Y0272924D01*
X0509353Y0273922D02*
X0548203Y0273922D01*
X0548203Y0274921D02*
X0509353Y0274921D01*
X0509567Y0275320D02*
X0509567Y0275320D01*
X0509790Y0275920D02*
X0548203Y0275920D01*
X0548203Y0276918D02*
X0510162Y0276918D01*
X0510278Y0277228D02*
X0510278Y0277228D01*
X0510128Y0277917D02*
X0548138Y0277917D01*
X0548008Y0278915D02*
X0509910Y0278915D01*
X0509844Y0279217D02*
X0509844Y0279217D01*
X0509148Y0279914D02*
X0547683Y0279914D01*
X0547359Y0280912D02*
X0507232Y0280912D01*
X0508405Y0280657D02*
X0508405Y0280657D01*
X0505938Y0280912D02*
X0433784Y0280912D01*
X0433306Y0281090D02*
X0433306Y0281090D01*
X0432490Y0280912D02*
X0028426Y0280912D01*
X0028101Y0279914D02*
X0430574Y0279914D01*
X0429878Y0279217D02*
X0429878Y0279217D01*
X0429812Y0278915D02*
X0027777Y0278915D01*
X0028806Y0281911D02*
X0546979Y0281911D01*
X0546253Y0282909D02*
X0029532Y0282909D01*
X0030257Y0283908D02*
X0545528Y0283908D01*
X0544461Y0284906D02*
X0031323Y0284906D01*
X0032698Y0285905D02*
X0543087Y0285905D01*
X0540649Y0286903D02*
X0035136Y0286903D01*
X0030057Y0269928D02*
X0027581Y0269928D01*
X0027581Y0268930D02*
X0028060Y0268930D01*
X0035455Y0263937D02*
X0191323Y0263937D01*
X0189864Y0262939D02*
X0168897Y0262939D01*
X0172686Y0261940D02*
X0189287Y0261940D01*
X0189070Y0260942D02*
X0175096Y0260942D01*
X0176939Y0259943D02*
X0189070Y0259943D01*
X0189070Y0258945D02*
X0178433Y0258945D01*
X0179928Y0257946D02*
X0189070Y0257946D01*
X0189070Y0256948D02*
X0180960Y0256948D01*
X0181959Y0255949D02*
X0189070Y0255949D01*
X0189070Y0254951D02*
X0182957Y0254951D01*
X0183787Y0253952D02*
X0189070Y0253952D01*
X0189070Y0252954D02*
X0184454Y0252954D01*
X0185121Y0251955D02*
X0189070Y0251955D01*
X0189070Y0250957D02*
X0185789Y0250957D01*
X0186333Y0249958D02*
X0189070Y0249958D01*
X0189070Y0248960D02*
X0186746Y0248960D01*
X0187160Y0247961D02*
X0189070Y0247961D01*
X0189070Y0246963D02*
X0187573Y0246963D01*
X0187984Y0245964D02*
X0189070Y0245964D01*
X0189070Y0244966D02*
X0188183Y0244966D01*
X0188381Y0243967D02*
X0189070Y0243967D01*
X0189070Y0242969D02*
X0188580Y0242969D01*
X0188778Y0241970D02*
X0189070Y0241970D01*
X0189070Y0240972D02*
X0188924Y0240972D01*
X0188924Y0239973D02*
X0189070Y0239973D01*
X0189070Y0238975D02*
X0188924Y0238975D01*
X0188924Y0237976D02*
X0189070Y0237976D01*
X0189070Y0236978D02*
X0188924Y0236978D01*
X0188839Y0235979D02*
X0189070Y0235979D01*
X0189070Y0234981D02*
X0188640Y0234981D01*
X0188442Y0233982D02*
X0189070Y0233982D01*
X0189070Y0232984D02*
X0188243Y0232984D01*
X0188044Y0231985D02*
X0189070Y0231985D01*
X0189070Y0230986D02*
X0187699Y0230986D01*
X0187286Y0229988D02*
X0189070Y0229988D01*
X0189070Y0228989D02*
X0186872Y0228989D01*
X0186458Y0227991D02*
X0189070Y0227991D01*
X0189070Y0226992D02*
X0185991Y0226992D01*
X0185324Y0225994D02*
X0189070Y0225994D01*
X0189070Y0224995D02*
X0184657Y0224995D01*
X0183990Y0223997D02*
X0189228Y0223997D01*
X0189805Y0222998D02*
X0183261Y0222998D01*
X0189999Y0222662D02*
X0189999Y0222662D01*
X0158362Y0215010D02*
X0103923Y0215010D01*
X0105048Y0215234D02*
X0109512Y0217083D01*
X0113530Y0219768D01*
X0116947Y0223185D01*
X0119632Y0227203D01*
X0121481Y0231667D01*
X0122424Y0236407D01*
X0122424Y0241239D01*
X0121481Y0245978D01*
X0119632Y0250443D01*
X0116947Y0254461D01*
X0113530Y0257878D01*
X0109512Y0260562D01*
X0105048Y0262412D01*
X0100309Y0263354D01*
X0095476Y0263354D01*
X0090737Y0262412D01*
X0086272Y0260562D01*
X0082254Y0257878D01*
X0078838Y0254461D01*
X0076153Y0250443D01*
X0074304Y0245978D01*
X0073361Y0241239D01*
X0073361Y0236407D01*
X0074304Y0231667D01*
X0076153Y0227203D01*
X0078838Y0223185D01*
X0082254Y0219768D01*
X0086272Y0217083D01*
X0090737Y0215234D01*
X0095476Y0214291D01*
X0100309Y0214291D01*
X0105048Y0215234D01*
X0106918Y0216009D02*
X0155366Y0216009D01*
X0152956Y0217007D02*
X0109329Y0217007D01*
X0110893Y0218006D02*
X0151392Y0218006D01*
X0149897Y0219004D02*
X0112387Y0219004D01*
X0113765Y0220003D02*
X0148520Y0220003D01*
X0147521Y0221001D02*
X0114764Y0221001D01*
X0115762Y0222000D02*
X0146523Y0222000D01*
X0145524Y0222998D02*
X0116761Y0222998D01*
X0117490Y0223997D02*
X0144795Y0223997D01*
X0144128Y0224995D02*
X0118157Y0224995D01*
X0118824Y0225994D02*
X0143461Y0225994D01*
X0142793Y0226992D02*
X0119491Y0226992D01*
X0119958Y0227991D02*
X0142326Y0227991D01*
X0141913Y0228989D02*
X0120372Y0228989D01*
X0120786Y0229988D02*
X0141499Y0229988D01*
X0141086Y0230986D02*
X0121199Y0230986D01*
X0121544Y0231985D02*
X0140740Y0231985D01*
X0140542Y0232984D02*
X0121743Y0232984D01*
X0121942Y0233982D02*
X0140343Y0233982D01*
X0140145Y0234981D02*
X0122140Y0234981D01*
X0122339Y0235979D02*
X0139946Y0235979D01*
X0139861Y0236978D02*
X0122424Y0236978D01*
X0122424Y0237976D02*
X0139861Y0237976D01*
X0139861Y0238975D02*
X0122424Y0238975D01*
X0122424Y0239973D02*
X0139861Y0239973D01*
X0139861Y0240972D02*
X0122424Y0240972D01*
X0122278Y0241970D02*
X0140006Y0241970D01*
X0140205Y0242969D02*
X0122080Y0242969D01*
X0121881Y0243967D02*
X0140404Y0243967D01*
X0140602Y0244966D02*
X0121683Y0244966D01*
X0121484Y0245964D02*
X0140801Y0245964D01*
X0141211Y0246963D02*
X0121073Y0246963D01*
X0120660Y0247961D02*
X0141625Y0247961D01*
X0142039Y0248960D02*
X0120246Y0248960D01*
X0119833Y0249958D02*
X0142452Y0249958D01*
X0142996Y0250957D02*
X0119289Y0250957D01*
X0118621Y0251955D02*
X0143663Y0251955D01*
X0144331Y0252954D02*
X0117954Y0252954D01*
X0117287Y0253952D02*
X0144998Y0253952D01*
X0145828Y0254951D02*
X0116457Y0254951D01*
X0115459Y0255949D02*
X0146826Y0255949D01*
X0147825Y0256948D02*
X0114460Y0256948D01*
X0113428Y0257946D02*
X0148857Y0257946D01*
X0150352Y0258945D02*
X0111933Y0258945D01*
X0110439Y0259943D02*
X0151846Y0259943D01*
X0153688Y0260942D02*
X0108596Y0260942D01*
X0106186Y0261940D02*
X0156099Y0261940D01*
X0159888Y0262939D02*
X0102397Y0262939D01*
X0093388Y0262939D02*
X0035455Y0262939D01*
X0035455Y0261940D02*
X0089599Y0261940D01*
X0087188Y0260942D02*
X0035455Y0260942D01*
X0035455Y0259943D02*
X0085346Y0259943D01*
X0083852Y0258945D02*
X0035455Y0258945D01*
X0035455Y0257946D02*
X0082357Y0257946D01*
X0081325Y0256948D02*
X0035455Y0256948D01*
X0035455Y0255949D02*
X0080326Y0255949D01*
X0079328Y0254951D02*
X0035455Y0254951D01*
X0035455Y0253952D02*
X0078498Y0253952D01*
X0077831Y0252954D02*
X0035455Y0252954D01*
X0035455Y0251955D02*
X0077163Y0251955D01*
X0076496Y0250957D02*
X0035455Y0250957D01*
X0035455Y0249958D02*
X0075952Y0249958D01*
X0075539Y0248960D02*
X0035455Y0248960D01*
X0035455Y0247961D02*
X0075125Y0247961D01*
X0074711Y0246963D02*
X0035455Y0246963D01*
X0035455Y0245964D02*
X0074301Y0245964D01*
X0074102Y0244966D02*
X0035455Y0244966D01*
X0035455Y0243967D02*
X0073904Y0243967D01*
X0073705Y0242969D02*
X0035455Y0242969D01*
X0035455Y0241970D02*
X0073506Y0241970D01*
X0073361Y0240972D02*
X0035455Y0240972D01*
X0035455Y0239973D02*
X0073361Y0239973D01*
X0073361Y0238975D02*
X0035455Y0238975D01*
X0035455Y0237976D02*
X0073361Y0237976D01*
X0073361Y0236978D02*
X0035455Y0236978D01*
X0035455Y0235979D02*
X0073446Y0235979D01*
X0073645Y0234981D02*
X0035455Y0234981D01*
X0035455Y0233982D02*
X0073843Y0233982D01*
X0074042Y0232984D02*
X0035475Y0232984D01*
X0035262Y0231985D02*
X0074240Y0231985D01*
X0074586Y0230986D02*
X0027581Y0230986D01*
X0027581Y0229988D02*
X0074999Y0229988D01*
X0075413Y0228989D02*
X0027581Y0228989D01*
X0027581Y0227991D02*
X0075826Y0227991D01*
X0076293Y0226992D02*
X0027581Y0226992D01*
X0027581Y0225994D02*
X0076961Y0225994D01*
X0077628Y0224995D02*
X0027581Y0224995D01*
X0027581Y0223997D02*
X0078295Y0223997D01*
X0079024Y0222998D02*
X0027581Y0222998D01*
X0027581Y0222000D02*
X0080023Y0222000D01*
X0081021Y0221001D02*
X0027581Y0221001D01*
X0027581Y0220003D02*
X0082020Y0220003D01*
X0083397Y0219004D02*
X0027581Y0219004D01*
X0027581Y0218006D02*
X0084892Y0218006D01*
X0086456Y0217007D02*
X0027581Y0217007D01*
X0027581Y0216009D02*
X0088866Y0216009D01*
X0091862Y0215010D02*
X0027581Y0215010D01*
X0027581Y0231985D02*
X0032230Y0231985D01*
X0030233Y0232984D02*
X0027581Y0232984D01*
X0027581Y0233982D02*
X0028236Y0233982D01*
X0035455Y0180062D02*
X0151206Y0180062D01*
X0153588Y0179064D02*
X0035455Y0179064D01*
X0119001Y0154101D02*
X0543084Y0154101D01*
X0544458Y0155100D02*
X0120006Y0155100D01*
X0119644Y0154473D02*
X0119644Y0154473D01*
X0119644Y0154473D01*
X0151990Y0197037D02*
X0155381Y0197037D01*
X0155569Y0196039D02*
X0153388Y0196039D01*
X0154786Y0195040D02*
X0155756Y0195040D01*
X0155194Y0198036D02*
X0150592Y0198036D01*
X0149194Y0199034D02*
X0155007Y0199034D01*
X0032055Y0133132D02*
X0027581Y0133132D01*
X0027581Y0132134D02*
X0030058Y0132134D01*
X0028061Y0131135D02*
X0027581Y0131135D01*
X0249510Y0063237D02*
X0387859Y0063237D01*
X0386477Y0062238D02*
X0249510Y0062238D01*
X0249510Y0061240D02*
X0385601Y0061240D01*
X0385187Y0060241D02*
X0249510Y0060241D01*
X0249510Y0059243D02*
X0384865Y0059243D01*
X0384865Y0058244D02*
X0249510Y0058244D01*
X0249510Y0057246D02*
X0384894Y0057246D01*
X0385308Y0056247D02*
X0249510Y0056247D01*
X0249510Y0055248D02*
X0385770Y0055248D01*
X0386769Y0054250D02*
X0249510Y0054250D01*
X0299484Y0108170D02*
X0372197Y0108170D01*
X0372773Y0109168D02*
X0299073Y0109168D01*
X0298660Y0110167D02*
X0373724Y0110167D01*
X0374723Y0111165D02*
X0298246Y0111165D01*
X0297832Y0112164D02*
X0375721Y0112164D01*
X0376720Y0113162D02*
X0297288Y0113162D01*
X0296621Y0114161D02*
X0378323Y0114161D01*
X0380053Y0115159D02*
X0295954Y0115159D01*
X0295287Y0116158D02*
X0381782Y0116158D01*
X0385422Y0117156D02*
X0294456Y0117156D01*
X0543755Y0170077D02*
X0548203Y0170077D01*
X0548203Y0171076D02*
X0545752Y0171076D01*
X0547749Y0172074D02*
X0548203Y0172074D01*
X0548203Y0207022D02*
X0547525Y0207022D01*
X0548203Y0208021D02*
X0545528Y0208021D01*
X0543531Y0209019D02*
X0548203Y0209019D01*
X0548203Y0231985D02*
X0543555Y0231985D01*
X0545552Y0232984D02*
X0548203Y0232984D01*
X0548203Y0233982D02*
X0547549Y0233982D01*
X0435214Y0280380D02*
X0435214Y0280380D01*
X0435214Y0280380D01*
X0431317Y0280657D02*
X0431317Y0280657D01*
M02*
