G75*
%MOIN*%
%OFA0B0*%
%FSLAX24Y24*%
%IPPOS*%
%LPD*%
%AMOC8*
5,1,8,0,0,1.08239X$1,22.5*
%
%ADD10C,0.2165*%
%ADD11C,0.0100*%
D10*
X003347Y003563D03*
X003347Y013402D03*
X003347Y018327D03*
X003347Y028166D03*
X050985Y028166D03*
X050985Y018327D03*
X050985Y013402D03*
X050985Y003563D03*
D11*
X002075Y001494D02*
X001769Y001593D01*
X001508Y001783D01*
X001318Y002044D01*
X001218Y002351D01*
X001206Y002512D01*
X001206Y003451D01*
X001754Y003176D01*
X001781Y003150D01*
X001808Y003150D01*
X001831Y003138D01*
X001867Y003150D01*
X001905Y003150D01*
X001924Y003169D01*
X001949Y003177D01*
X001966Y003211D01*
X001993Y003237D01*
X001993Y003264D01*
X002005Y003288D01*
X001993Y003324D01*
X001993Y007015D01*
X002005Y007051D01*
X001993Y007075D01*
X001993Y007102D01*
X001966Y007129D01*
X001949Y007162D01*
X001924Y007171D01*
X001905Y007190D01*
X001867Y007190D01*
X001831Y007202D01*
X001808Y007190D01*
X001781Y007190D01*
X001754Y007163D01*
X001206Y006889D01*
X001206Y009651D01*
X001754Y009377D01*
X001781Y009350D01*
X001808Y009350D01*
X001831Y009338D01*
X001867Y009350D01*
X001905Y009350D01*
X001924Y009369D01*
X001949Y009378D01*
X001966Y009412D01*
X001993Y009438D01*
X001993Y009465D01*
X002005Y009489D01*
X001993Y009525D01*
X001993Y013216D01*
X002005Y013252D01*
X001993Y013276D01*
X001993Y013303D01*
X001966Y013329D01*
X001949Y013363D01*
X001924Y013372D01*
X001905Y013391D01*
X001867Y013391D01*
X001831Y013403D01*
X001808Y013391D01*
X001781Y013391D01*
X001754Y013364D01*
X001206Y013090D01*
X001206Y013930D01*
X001218Y014091D01*
X001318Y014398D01*
X001508Y014659D01*
X001769Y014848D01*
X002075Y014948D01*
X002237Y014961D01*
X052197Y014961D01*
X052359Y014948D01*
X052665Y014848D01*
X052926Y014659D01*
X053116Y014398D01*
X053216Y014091D01*
X053228Y013930D01*
X053228Y013090D01*
X052680Y013364D01*
X052653Y013391D01*
X052626Y013391D01*
X052602Y013403D01*
X052567Y013391D01*
X052529Y013391D01*
X052510Y013372D01*
X052485Y013363D01*
X052468Y013329D01*
X052441Y013303D01*
X052441Y013276D01*
X052429Y013252D01*
X052441Y013216D01*
X052441Y009525D01*
X052429Y009489D01*
X052441Y009465D01*
X052441Y009438D01*
X052468Y009412D01*
X052485Y009378D01*
X052510Y009369D01*
X052529Y009350D01*
X052567Y009350D01*
X052602Y009338D01*
X052626Y009350D01*
X052653Y009350D01*
X052680Y009377D01*
X053228Y009651D01*
X053228Y006889D01*
X052680Y007163D01*
X052653Y007190D01*
X052626Y007190D01*
X052602Y007202D01*
X052567Y007190D01*
X052529Y007190D01*
X052510Y007171D01*
X052485Y007162D01*
X052468Y007129D01*
X052441Y007102D01*
X052441Y007075D01*
X052429Y007051D01*
X052441Y007015D01*
X052441Y003324D01*
X052429Y003288D01*
X052441Y003264D01*
X052441Y003237D01*
X052468Y003211D01*
X052485Y003177D01*
X052510Y003169D01*
X052529Y003150D01*
X052567Y003150D01*
X052602Y003138D01*
X052626Y003150D01*
X052653Y003150D01*
X052680Y003176D01*
X053228Y003451D01*
X053228Y002574D01*
X053228Y002512D01*
X053216Y002351D01*
X053116Y002044D01*
X052926Y001783D01*
X052665Y001593D01*
X052359Y001494D01*
X052197Y001481D01*
X002237Y001481D01*
X002075Y001494D01*
X001970Y001528D02*
X052464Y001528D01*
X052711Y001627D02*
X001723Y001627D01*
X001587Y001725D02*
X052847Y001725D01*
X052956Y001824D02*
X001478Y001824D01*
X001407Y001922D02*
X053027Y001922D01*
X053099Y002021D02*
X001335Y002021D01*
X001294Y002119D02*
X053140Y002119D01*
X053172Y002218D02*
X001262Y002218D01*
X001230Y002316D02*
X053204Y002316D01*
X053221Y002415D02*
X001213Y002415D01*
X001206Y002513D02*
X053228Y002513D01*
X053228Y002612D02*
X001206Y002612D01*
X001206Y002710D02*
X053228Y002710D01*
X053228Y002809D02*
X001206Y002809D01*
X001206Y002907D02*
X053228Y002907D01*
X053228Y003006D02*
X001206Y003006D01*
X001206Y003104D02*
X053228Y003104D01*
X053228Y003203D02*
X052732Y003203D01*
X052929Y003301D02*
X053228Y003301D01*
X053228Y003400D02*
X053126Y003400D01*
X052472Y003203D02*
X001962Y003203D01*
X002001Y003301D02*
X052433Y003301D01*
X052441Y003400D02*
X001993Y003400D01*
X001993Y003498D02*
X052441Y003498D01*
X052441Y003597D02*
X001993Y003597D01*
X001993Y003695D02*
X052441Y003695D01*
X052441Y003794D02*
X001993Y003794D01*
X001993Y003892D02*
X052441Y003892D01*
X052441Y003991D02*
X001993Y003991D01*
X001993Y004089D02*
X052441Y004089D01*
X052441Y004188D02*
X001993Y004188D01*
X001993Y004286D02*
X008939Y004286D01*
X008939Y004286D01*
X008846Y004447D01*
X008846Y007318D01*
X008846Y007349D01*
X008939Y007510D01*
X008939Y007510D01*
X008939Y007510D01*
X009100Y007603D01*
X009916Y007603D01*
X010077Y007510D01*
X010077Y007510D01*
X010077Y007510D01*
X010170Y007349D01*
X010170Y004447D01*
X010077Y004286D01*
X010077Y004286D01*
X009916Y004193D01*
X009916Y004193D01*
X009100Y004193D01*
X008939Y004286D01*
X008939Y004286D01*
X008882Y004385D02*
X001993Y004385D01*
X001993Y004483D02*
X008846Y004483D01*
X008846Y004582D02*
X001993Y004582D01*
X001993Y004680D02*
X008846Y004680D01*
X008846Y004779D02*
X001993Y004779D01*
X001993Y004877D02*
X008846Y004877D01*
X008846Y004976D02*
X001993Y004976D01*
X001993Y005074D02*
X008846Y005074D01*
X008846Y005173D02*
X001993Y005173D01*
X001993Y005271D02*
X008846Y005271D01*
X008846Y005370D02*
X001993Y005370D01*
X001993Y005468D02*
X008846Y005468D01*
X008846Y005567D02*
X001993Y005567D01*
X001993Y005665D02*
X008846Y005665D01*
X008846Y005764D02*
X001993Y005764D01*
X001993Y005862D02*
X008846Y005862D01*
X008846Y005961D02*
X001993Y005961D01*
X001993Y006059D02*
X008846Y006059D01*
X008846Y006158D02*
X001993Y006158D01*
X001993Y006256D02*
X008846Y006256D01*
X008846Y006355D02*
X001993Y006355D01*
X001993Y006453D02*
X008846Y006453D01*
X008846Y006552D02*
X001993Y006552D01*
X001993Y006650D02*
X008846Y006650D01*
X008846Y006749D02*
X001993Y006749D01*
X001993Y006847D02*
X008846Y006847D01*
X008846Y006946D02*
X001993Y006946D01*
X002002Y007044D02*
X008846Y007044D01*
X008846Y007143D02*
X001959Y007143D01*
X001713Y007143D02*
X001206Y007143D01*
X001206Y007241D02*
X008846Y007241D01*
X008846Y007340D02*
X001206Y007340D01*
X001206Y007438D02*
X008898Y007438D01*
X008985Y007537D02*
X001206Y007537D01*
X001206Y007635D02*
X053228Y007635D01*
X053228Y007537D02*
X023220Y007537D01*
X023266Y007510D02*
X023105Y007603D01*
X023105Y007603D01*
X022289Y007603D01*
X022128Y007510D01*
X022035Y007349D01*
X022035Y007318D01*
X022035Y004447D01*
X022128Y004286D01*
X010077Y004286D01*
X010134Y004385D02*
X022071Y004385D01*
X022035Y004483D02*
X010170Y004483D01*
X010170Y004582D02*
X022035Y004582D01*
X022035Y004680D02*
X010170Y004680D01*
X010170Y004779D02*
X022035Y004779D01*
X022035Y004877D02*
X010170Y004877D01*
X010170Y004976D02*
X022035Y004976D01*
X022035Y005074D02*
X010170Y005074D01*
X010170Y005173D02*
X022035Y005173D01*
X022035Y005271D02*
X010170Y005271D01*
X010170Y005370D02*
X022035Y005370D01*
X022035Y005468D02*
X010170Y005468D01*
X010170Y005567D02*
X022035Y005567D01*
X022035Y005665D02*
X010170Y005665D01*
X010170Y005764D02*
X022035Y005764D01*
X022035Y005862D02*
X010170Y005862D01*
X010170Y005961D02*
X022035Y005961D01*
X022035Y006059D02*
X010170Y006059D01*
X010170Y006158D02*
X022035Y006158D01*
X022035Y006256D02*
X010170Y006256D01*
X010170Y006355D02*
X022035Y006355D01*
X022035Y006453D02*
X010170Y006453D01*
X010170Y006552D02*
X022035Y006552D01*
X022035Y006650D02*
X010170Y006650D01*
X010170Y006749D02*
X022035Y006749D01*
X022035Y006847D02*
X010170Y006847D01*
X010170Y006946D02*
X022035Y006946D01*
X022035Y007044D02*
X010170Y007044D01*
X010170Y007143D02*
X022035Y007143D01*
X022035Y007241D02*
X010170Y007241D01*
X010170Y007340D02*
X022035Y007340D01*
X022087Y007438D02*
X010119Y007438D01*
X010031Y007537D02*
X022174Y007537D01*
X022128Y007510D02*
X022128Y007510D01*
X022128Y007510D01*
X023266Y007510D02*
X023266Y007510D01*
X023359Y007349D01*
X023359Y004447D01*
X023266Y004286D01*
X023266Y004286D01*
X023266Y004286D01*
X023105Y004193D01*
X022289Y004193D01*
X022128Y004286D01*
X022128Y004286D01*
X022128Y004286D01*
X023266Y004286D02*
X052441Y004286D01*
X052441Y004385D02*
X023323Y004385D01*
X023359Y004483D02*
X052441Y004483D01*
X052441Y004582D02*
X023359Y004582D01*
X023359Y004680D02*
X052441Y004680D01*
X052441Y004779D02*
X023359Y004779D01*
X023359Y004877D02*
X052441Y004877D01*
X052441Y004976D02*
X023359Y004976D01*
X023359Y005074D02*
X052441Y005074D01*
X052441Y005173D02*
X023359Y005173D01*
X023359Y005271D02*
X052441Y005271D01*
X052441Y005370D02*
X023359Y005370D01*
X023359Y005468D02*
X052441Y005468D01*
X052441Y005567D02*
X023359Y005567D01*
X023359Y005665D02*
X052441Y005665D01*
X052441Y005764D02*
X023359Y005764D01*
X023359Y005862D02*
X052441Y005862D01*
X052441Y005961D02*
X023359Y005961D01*
X023359Y006059D02*
X052441Y006059D01*
X052441Y006158D02*
X023359Y006158D01*
X023359Y006256D02*
X052441Y006256D01*
X052441Y006355D02*
X023359Y006355D01*
X023359Y006453D02*
X052441Y006453D01*
X052441Y006552D02*
X023359Y006552D01*
X023359Y006650D02*
X052441Y006650D01*
X052441Y006749D02*
X023359Y006749D01*
X023359Y006847D02*
X052441Y006847D01*
X052441Y006946D02*
X023359Y006946D01*
X023359Y007044D02*
X052431Y007044D01*
X052475Y007143D02*
X023359Y007143D01*
X023359Y007241D02*
X053228Y007241D01*
X053228Y007143D02*
X052721Y007143D01*
X052918Y007044D02*
X053228Y007044D01*
X053228Y006946D02*
X053115Y006946D01*
X053228Y007340D02*
X023359Y007340D01*
X023308Y007438D02*
X053228Y007438D01*
X053228Y007734D02*
X026661Y007734D01*
X026713Y007744D02*
X027159Y007929D01*
X027561Y008197D01*
X027903Y008539D01*
X028171Y008941D01*
X028356Y009387D01*
X028450Y009861D01*
X028450Y010344D01*
X028356Y010818D01*
X028171Y011265D01*
X027903Y011667D01*
X027561Y012008D01*
X027159Y012277D01*
X026713Y012462D01*
X052441Y012462D01*
X052441Y012560D02*
X001993Y012560D01*
X001993Y012462D02*
X005482Y012462D01*
X005035Y012277D01*
X004633Y012008D01*
X004292Y011667D01*
X004023Y011265D01*
X003838Y010818D01*
X003744Y010344D01*
X003744Y009861D01*
X003838Y009387D01*
X004023Y008941D01*
X004292Y008539D01*
X004633Y008197D01*
X005035Y007929D01*
X005482Y007744D01*
X005956Y007650D01*
X006439Y007650D01*
X006913Y007744D01*
X007359Y007929D01*
X007761Y008197D01*
X008103Y008539D01*
X008371Y008941D01*
X008556Y009387D01*
X008650Y009861D01*
X008650Y010344D01*
X008556Y010818D01*
X008371Y011265D01*
X008103Y011667D01*
X007761Y012008D01*
X007359Y012277D01*
X006913Y012462D01*
X012082Y012462D01*
X011635Y012277D01*
X011233Y012008D01*
X010892Y011667D01*
X010623Y011265D01*
X010438Y010818D01*
X010344Y010344D01*
X010344Y009861D01*
X010438Y009387D01*
X010623Y008941D01*
X010892Y008539D01*
X011233Y008197D01*
X011635Y007929D01*
X012082Y007744D01*
X012556Y007650D01*
X013039Y007650D01*
X013513Y007744D01*
X013959Y007929D01*
X014361Y008197D01*
X014703Y008539D01*
X014971Y008941D01*
X015156Y009387D01*
X015250Y009861D01*
X015250Y010344D01*
X015156Y010818D01*
X014971Y011265D01*
X014703Y011667D01*
X014361Y012008D01*
X013959Y012277D01*
X013513Y012462D01*
X018682Y012462D01*
X018235Y012277D01*
X017833Y012008D01*
X017492Y011667D01*
X017223Y011265D01*
X017038Y010818D01*
X016944Y010344D01*
X016944Y009861D01*
X017038Y009387D01*
X017223Y008941D01*
X017492Y008539D01*
X017833Y008197D01*
X018235Y007929D01*
X018682Y007744D01*
X019156Y007650D01*
X019639Y007650D01*
X020113Y007744D01*
X020559Y007929D01*
X020961Y008197D01*
X021303Y008539D01*
X021571Y008941D01*
X021756Y009387D01*
X021850Y009861D01*
X021850Y010344D01*
X021756Y010818D01*
X021571Y011265D01*
X021303Y011667D01*
X020961Y012008D01*
X020559Y012277D01*
X020113Y012462D01*
X025282Y012462D01*
X024835Y012277D01*
X024433Y012008D01*
X024092Y011667D01*
X023823Y011265D01*
X023638Y010818D01*
X023544Y010344D01*
X023544Y009861D01*
X023638Y009387D01*
X023823Y008941D01*
X024092Y008539D01*
X024433Y008197D01*
X024835Y007929D01*
X025282Y007744D01*
X025756Y007650D01*
X026239Y007650D01*
X026713Y007744D01*
X026926Y007832D02*
X053228Y007832D01*
X053228Y007931D02*
X027162Y007931D01*
X027309Y008029D02*
X053228Y008029D01*
X053228Y008128D02*
X027457Y008128D01*
X027590Y008226D02*
X053228Y008226D01*
X053228Y008325D02*
X027688Y008325D01*
X027787Y008423D02*
X053228Y008423D01*
X053228Y008522D02*
X043251Y008522D01*
X043192Y008506D02*
X043568Y008607D01*
X043905Y008801D01*
X044181Y009077D01*
X044375Y009414D01*
X044476Y009790D01*
X044476Y010179D01*
X044375Y010555D01*
X044181Y010893D01*
X043905Y011168D01*
X043568Y011363D01*
X043192Y011463D01*
X042803Y011463D01*
X042426Y011363D01*
X042089Y011168D01*
X041814Y010893D01*
X041619Y010555D01*
X041519Y010179D01*
X041519Y009790D01*
X041619Y009414D01*
X041814Y009077D01*
X042089Y008801D01*
X042426Y008607D01*
X042803Y008506D01*
X043192Y008506D01*
X043591Y008620D02*
X053228Y008620D01*
X053228Y008719D02*
X043762Y008719D01*
X043921Y008817D02*
X046950Y008817D01*
X047050Y008776D02*
X047345Y008776D01*
X047617Y008888D01*
X047825Y009097D01*
X047938Y009369D01*
X047938Y009663D01*
X047825Y009936D01*
X047617Y010144D01*
X047345Y010257D01*
X047050Y010257D01*
X046778Y010144D01*
X046569Y009936D01*
X046457Y009663D01*
X046457Y009369D01*
X046569Y009097D01*
X046778Y008888D01*
X047050Y008776D01*
X046750Y008916D02*
X044019Y008916D01*
X044118Y009014D02*
X046652Y009014D01*
X046563Y009113D02*
X044201Y009113D01*
X044258Y009211D02*
X046522Y009211D01*
X046481Y009310D02*
X044315Y009310D01*
X044372Y009408D02*
X046457Y009408D01*
X046457Y009507D02*
X044400Y009507D01*
X044426Y009605D02*
X046457Y009605D01*
X046473Y009704D02*
X044453Y009704D01*
X044476Y009802D02*
X046514Y009802D01*
X046555Y009901D02*
X044476Y009901D01*
X044476Y009999D02*
X046633Y009999D01*
X046731Y010098D02*
X044476Y010098D01*
X044471Y010196D02*
X046904Y010196D01*
X047050Y010575D02*
X047345Y010575D01*
X047617Y010688D01*
X047825Y010896D01*
X047938Y011168D01*
X047938Y011463D01*
X047825Y011735D01*
X047617Y011943D01*
X047345Y012056D01*
X047050Y012056D01*
X046778Y011943D01*
X046569Y011735D01*
X046457Y011463D01*
X046457Y011168D01*
X046569Y010896D01*
X046778Y010688D01*
X047050Y010575D01*
X047013Y010590D02*
X044355Y010590D01*
X044392Y010492D02*
X052441Y010492D01*
X052441Y010590D02*
X049482Y010590D01*
X049445Y010575D02*
X049717Y010688D01*
X049925Y010896D01*
X050038Y011168D01*
X050038Y011463D01*
X049925Y011735D01*
X049717Y011943D01*
X049445Y012056D01*
X049150Y012056D01*
X048878Y011943D01*
X048669Y011735D01*
X048557Y011463D01*
X048557Y011168D01*
X048669Y010896D01*
X048878Y010688D01*
X049150Y010575D01*
X049445Y010575D01*
X049718Y010689D02*
X052441Y010689D01*
X052441Y010787D02*
X049816Y010787D01*
X049915Y010886D02*
X052441Y010886D01*
X052441Y010984D02*
X049962Y010984D01*
X050002Y011083D02*
X052441Y011083D01*
X052441Y011181D02*
X050038Y011181D01*
X050038Y011280D02*
X052441Y011280D01*
X052441Y011378D02*
X050038Y011378D01*
X050032Y011477D02*
X052441Y011477D01*
X052441Y011575D02*
X049991Y011575D01*
X049950Y011674D02*
X052441Y011674D01*
X052441Y011772D02*
X049888Y011772D01*
X049789Y011871D02*
X052441Y011871D01*
X052441Y011969D02*
X049654Y011969D01*
X048940Y011969D02*
X047554Y011969D01*
X047689Y011871D02*
X048805Y011871D01*
X048707Y011772D02*
X047788Y011772D01*
X047850Y011674D02*
X048644Y011674D01*
X048603Y011575D02*
X047891Y011575D01*
X047932Y011477D02*
X048562Y011477D01*
X048557Y011378D02*
X047938Y011378D01*
X047938Y011280D02*
X048557Y011280D01*
X048557Y011181D02*
X047938Y011181D01*
X047902Y011083D02*
X048592Y011083D01*
X048633Y010984D02*
X047862Y010984D01*
X047815Y010886D02*
X048680Y010886D01*
X048778Y010787D02*
X047716Y010787D01*
X047618Y010689D02*
X048877Y010689D01*
X049113Y010590D02*
X047382Y010590D01*
X047491Y010196D02*
X049004Y010196D01*
X048878Y010144D02*
X048669Y009936D01*
X048557Y009663D01*
X048557Y009369D01*
X048669Y009097D01*
X048878Y008888D01*
X049150Y008776D01*
X049445Y008776D01*
X049717Y008888D01*
X049925Y009097D01*
X050038Y009369D01*
X050038Y009663D01*
X049925Y009936D01*
X049717Y010144D01*
X049445Y010257D01*
X049150Y010257D01*
X048878Y010144D01*
X048831Y010098D02*
X047663Y010098D01*
X047762Y009999D02*
X048733Y009999D01*
X048655Y009901D02*
X047840Y009901D01*
X047880Y009802D02*
X048614Y009802D01*
X048573Y009704D02*
X047921Y009704D01*
X047938Y009605D02*
X048557Y009605D01*
X048557Y009507D02*
X047938Y009507D01*
X047938Y009408D02*
X048557Y009408D01*
X048581Y009310D02*
X047913Y009310D01*
X047872Y009211D02*
X048622Y009211D01*
X048663Y009113D02*
X047832Y009113D01*
X047743Y009014D02*
X048752Y009014D01*
X048850Y008916D02*
X047644Y008916D01*
X047445Y008817D02*
X049050Y008817D01*
X049545Y008817D02*
X053228Y008817D01*
X053228Y008916D02*
X049744Y008916D01*
X049843Y009014D02*
X053228Y009014D01*
X053228Y009113D02*
X049932Y009113D01*
X049972Y009211D02*
X053228Y009211D01*
X053228Y009310D02*
X050013Y009310D01*
X050038Y009408D02*
X052469Y009408D01*
X052435Y009507D02*
X050038Y009507D01*
X050038Y009605D02*
X052441Y009605D01*
X052441Y009704D02*
X050021Y009704D01*
X049980Y009802D02*
X052441Y009802D01*
X052441Y009901D02*
X049940Y009901D01*
X049862Y009999D02*
X052441Y009999D01*
X052441Y010098D02*
X049763Y010098D01*
X049591Y010196D02*
X052441Y010196D01*
X052441Y010295D02*
X044445Y010295D01*
X044419Y010393D02*
X052441Y010393D01*
X052939Y009507D02*
X053228Y009507D01*
X053228Y009605D02*
X053136Y009605D01*
X053228Y009408D02*
X052742Y009408D01*
X052441Y012068D02*
X027472Y012068D01*
X027600Y011969D02*
X046840Y011969D01*
X046705Y011871D02*
X027699Y011871D01*
X027797Y011772D02*
X036806Y011772D01*
X036903Y011798D02*
X036526Y011697D01*
X036189Y011503D01*
X035914Y011227D01*
X035719Y010890D01*
X035619Y010514D01*
X035619Y010125D01*
X035719Y009749D01*
X035914Y009411D01*
X036189Y009136D01*
X036526Y008941D01*
X036903Y008841D01*
X037292Y008841D01*
X037668Y008941D01*
X038005Y009136D01*
X038281Y009411D01*
X038475Y009749D01*
X038576Y010125D01*
X038576Y010514D01*
X038475Y010890D01*
X038281Y011227D01*
X038005Y011503D01*
X037668Y011697D01*
X037292Y011798D01*
X036903Y011798D01*
X036486Y011674D02*
X027896Y011674D01*
X027964Y011575D02*
X036315Y011575D01*
X036163Y011477D02*
X028030Y011477D01*
X028095Y011378D02*
X036065Y011378D01*
X035966Y011280D02*
X028161Y011280D01*
X028206Y011181D02*
X035887Y011181D01*
X035830Y011083D02*
X028247Y011083D01*
X028287Y010984D02*
X035774Y010984D01*
X035718Y010886D02*
X028328Y010886D01*
X028362Y010787D02*
X035692Y010787D01*
X035665Y010689D02*
X028382Y010689D01*
X028402Y010590D02*
X035639Y010590D01*
X035619Y010492D02*
X031984Y010492D01*
X031895Y010528D02*
X031499Y010528D01*
X031133Y010377D01*
X030852Y010096D01*
X030701Y009730D01*
X030701Y009334D01*
X030852Y008967D01*
X031133Y008687D01*
X031499Y008535D01*
X031895Y008535D01*
X032262Y008687D01*
X032542Y008967D01*
X032694Y009334D01*
X032694Y009730D01*
X032542Y010096D01*
X032262Y010377D01*
X031895Y010528D01*
X032222Y010393D02*
X035619Y010393D01*
X035619Y010295D02*
X032344Y010295D01*
X032442Y010196D02*
X035619Y010196D01*
X035626Y010098D02*
X032541Y010098D01*
X032582Y009999D02*
X035652Y009999D01*
X035679Y009901D02*
X032623Y009901D01*
X032664Y009802D02*
X035705Y009802D01*
X035745Y009704D02*
X032694Y009704D01*
X032694Y009605D02*
X035802Y009605D01*
X035859Y009507D02*
X032694Y009507D01*
X032694Y009408D02*
X035917Y009408D01*
X036016Y009310D02*
X032684Y009310D01*
X032643Y009211D02*
X036114Y009211D01*
X036230Y009113D02*
X032602Y009113D01*
X032561Y009014D02*
X036400Y009014D01*
X036622Y008916D02*
X032490Y008916D01*
X032392Y008817D02*
X042074Y008817D01*
X041975Y008916D02*
X037572Y008916D01*
X037794Y009014D02*
X041877Y009014D01*
X041793Y009113D02*
X037965Y009113D01*
X038080Y009211D02*
X041736Y009211D01*
X041679Y009310D02*
X038179Y009310D01*
X038277Y009408D02*
X041623Y009408D01*
X041594Y009507D02*
X038336Y009507D01*
X038392Y009605D02*
X041568Y009605D01*
X041542Y009704D02*
X038449Y009704D01*
X038490Y009802D02*
X041519Y009802D01*
X041519Y009901D02*
X038516Y009901D01*
X038542Y009999D02*
X041519Y009999D01*
X041519Y010098D02*
X038569Y010098D01*
X038576Y010196D02*
X041523Y010196D01*
X041549Y010295D02*
X038576Y010295D01*
X038576Y010393D02*
X041576Y010393D01*
X041602Y010492D02*
X038576Y010492D01*
X038556Y010590D02*
X041639Y010590D01*
X041696Y010689D02*
X038529Y010689D01*
X038503Y010787D02*
X041753Y010787D01*
X041810Y010886D02*
X038476Y010886D01*
X038421Y010984D02*
X041905Y010984D01*
X042004Y011083D02*
X038364Y011083D01*
X038307Y011181D02*
X042112Y011181D01*
X042283Y011280D02*
X038228Y011280D01*
X038130Y011378D02*
X042484Y011378D01*
X043510Y011378D02*
X046457Y011378D01*
X046457Y011280D02*
X043712Y011280D01*
X043882Y011181D02*
X046457Y011181D01*
X046492Y011083D02*
X043991Y011083D01*
X044089Y010984D02*
X046533Y010984D01*
X046580Y010886D02*
X044185Y010886D01*
X044241Y010787D02*
X046678Y010787D01*
X046777Y010689D02*
X044298Y010689D01*
X046462Y011477D02*
X038031Y011477D01*
X037880Y011575D02*
X046503Y011575D01*
X046544Y011674D02*
X037709Y011674D01*
X037389Y011772D02*
X046607Y011772D01*
X042744Y008522D02*
X027885Y008522D01*
X027957Y008620D02*
X031295Y008620D01*
X031101Y008719D02*
X028023Y008719D01*
X028089Y008817D02*
X031003Y008817D01*
X030904Y008916D02*
X028154Y008916D01*
X028202Y009014D02*
X030833Y009014D01*
X030792Y009113D02*
X028242Y009113D01*
X028283Y009211D02*
X030752Y009211D01*
X030711Y009310D02*
X028324Y009310D01*
X028360Y009408D02*
X030701Y009408D01*
X030701Y009507D02*
X028380Y009507D01*
X028399Y009605D02*
X030701Y009605D01*
X030701Y009704D02*
X028419Y009704D01*
X028439Y009802D02*
X030731Y009802D01*
X030771Y009901D02*
X028450Y009901D01*
X028450Y009999D02*
X030812Y009999D01*
X030854Y010098D02*
X028450Y010098D01*
X028450Y010196D02*
X030952Y010196D01*
X031051Y010295D02*
X028450Y010295D01*
X028441Y010393D02*
X031173Y010393D01*
X031410Y010492D02*
X028421Y010492D01*
X027325Y012166D02*
X052441Y012166D01*
X052441Y012265D02*
X027177Y012265D01*
X026951Y012363D02*
X052441Y012363D01*
X052441Y012659D02*
X001993Y012659D01*
X001993Y012757D02*
X052441Y012757D01*
X052441Y012856D02*
X001993Y012856D01*
X001993Y012954D02*
X052441Y012954D01*
X052441Y013053D02*
X001993Y013053D01*
X001993Y013151D02*
X052441Y013151D01*
X052430Y013250D02*
X002004Y013250D01*
X001957Y013348D02*
X052477Y013348D01*
X052711Y013348D02*
X053228Y013348D01*
X053228Y013250D02*
X052908Y013250D01*
X053105Y013151D02*
X053228Y013151D01*
X053228Y013447D02*
X001206Y013447D01*
X001206Y013545D02*
X053228Y013545D01*
X053228Y013644D02*
X001206Y013644D01*
X001206Y013742D02*
X053228Y013742D01*
X053228Y013841D02*
X001206Y013841D01*
X001206Y013939D02*
X053228Y013939D01*
X053220Y014038D02*
X001214Y014038D01*
X001233Y014136D02*
X053201Y014136D01*
X053169Y014235D02*
X001265Y014235D01*
X001297Y014333D02*
X053137Y014333D01*
X053091Y014432D02*
X001343Y014432D01*
X001414Y014530D02*
X053020Y014530D01*
X052948Y014629D02*
X001486Y014629D01*
X001602Y014727D02*
X052832Y014727D01*
X052696Y014826D02*
X001737Y014826D01*
X002002Y014924D02*
X052432Y014924D01*
X052359Y016258D02*
X052197Y016245D01*
X002237Y016245D01*
X002075Y016258D01*
X001769Y016357D01*
X001508Y016547D01*
X001318Y016808D01*
X001218Y017115D01*
X001206Y017276D01*
X001206Y018214D01*
X001754Y017940D01*
X001781Y017913D01*
X001808Y017913D01*
X001831Y017901D01*
X001867Y017913D01*
X001905Y017913D01*
X001924Y017932D01*
X001949Y017941D01*
X001966Y017975D01*
X001993Y018001D01*
X001993Y018028D01*
X002005Y018052D01*
X001993Y018088D01*
X001993Y021779D01*
X002005Y021815D01*
X001993Y021839D01*
X001993Y021866D01*
X001966Y021892D01*
X001949Y021926D01*
X001924Y021935D01*
X001905Y021954D01*
X001867Y021954D01*
X001831Y021965D01*
X001808Y021954D01*
X001781Y021954D01*
X001754Y021927D01*
X001206Y021653D01*
X001206Y024415D01*
X001754Y024141D01*
X001781Y024114D01*
X001808Y024114D01*
X001831Y024102D01*
X001867Y024114D01*
X001905Y024114D01*
X001924Y024133D01*
X001949Y024142D01*
X001966Y024175D01*
X001993Y024202D01*
X001993Y024229D01*
X002005Y024253D01*
X001993Y024289D01*
X001993Y027980D01*
X002005Y028016D01*
X001993Y028040D01*
X001993Y028066D01*
X001966Y028093D01*
X001949Y028127D01*
X001924Y028135D01*
X001905Y028154D01*
X001867Y028154D01*
X001831Y028166D01*
X001808Y028154D01*
X001781Y028154D01*
X001754Y028128D01*
X001206Y027853D01*
X001206Y028693D01*
X001218Y028855D01*
X001318Y029161D01*
X001508Y029422D01*
X001769Y029612D01*
X002075Y029712D01*
X002237Y029724D01*
X052197Y029724D01*
X052359Y029712D01*
X052665Y029612D01*
X052926Y029422D01*
X053116Y029161D01*
X053216Y028855D01*
X053228Y028693D01*
X053228Y027853D01*
X052680Y028128D01*
X052653Y028154D01*
X052626Y028154D01*
X052602Y028166D01*
X052567Y028154D01*
X052529Y028154D01*
X052510Y028135D01*
X052485Y028127D01*
X052468Y028093D01*
X052441Y028066D01*
X052441Y028040D01*
X052429Y028016D01*
X052441Y027980D01*
X052441Y024289D01*
X052429Y024253D01*
X052441Y024229D01*
X052441Y024202D01*
X052468Y024175D01*
X052485Y024142D01*
X052510Y024133D01*
X052529Y024114D01*
X052567Y024114D01*
X052602Y024102D01*
X052626Y024114D01*
X052653Y024114D01*
X052680Y024141D01*
X053228Y024415D01*
X053228Y021653D01*
X052680Y021927D01*
X052653Y021954D01*
X052626Y021954D01*
X052602Y021965D01*
X052567Y021954D01*
X052529Y021954D01*
X052510Y021935D01*
X052485Y021926D01*
X052468Y021892D01*
X052441Y021866D01*
X052441Y021839D01*
X052429Y021815D01*
X052441Y021779D01*
X052441Y018088D01*
X052429Y018052D01*
X052441Y018028D01*
X052441Y018001D01*
X052468Y017975D01*
X052485Y017941D01*
X052510Y017932D01*
X052529Y017913D01*
X052567Y017913D01*
X052602Y017901D01*
X052626Y017913D01*
X052653Y017913D01*
X052680Y017940D01*
X053228Y018214D01*
X053228Y017338D01*
X053228Y017276D01*
X053216Y017115D01*
X053116Y016808D01*
X052926Y016547D01*
X052665Y016357D01*
X052359Y016258D01*
X052499Y016303D02*
X001935Y016303D01*
X001707Y016402D02*
X006373Y016402D01*
X006321Y016432D02*
X006482Y016339D01*
X010211Y016339D01*
X010372Y016432D01*
X010465Y016592D01*
X010465Y016623D01*
X010465Y018156D01*
X010372Y018317D01*
X010211Y018410D01*
X006482Y018410D01*
X006321Y018317D01*
X006228Y018156D01*
X006228Y016592D01*
X006321Y016432D01*
X006321Y016432D01*
X006321Y016432D01*
X006282Y016500D02*
X001572Y016500D01*
X001470Y016599D02*
X006228Y016599D01*
X006228Y016697D02*
X001398Y016697D01*
X001327Y016796D02*
X006228Y016796D01*
X006228Y016894D02*
X001290Y016894D01*
X001258Y016993D02*
X006228Y016993D01*
X006228Y017091D02*
X001226Y017091D01*
X001212Y017190D02*
X006228Y017190D01*
X006228Y017288D02*
X001206Y017288D01*
X001206Y017387D02*
X006228Y017387D01*
X006228Y017485D02*
X001206Y017485D01*
X001206Y017584D02*
X006228Y017584D01*
X006228Y017682D02*
X001206Y017682D01*
X001206Y017781D02*
X006228Y017781D01*
X006228Y017879D02*
X001206Y017879D01*
X001206Y017978D02*
X001679Y017978D01*
X001482Y018076D02*
X001206Y018076D01*
X001206Y018175D02*
X001285Y018175D01*
X001993Y018175D02*
X006239Y018175D01*
X006228Y018076D02*
X001997Y018076D01*
X001969Y017978D02*
X006228Y017978D01*
X006296Y018273D02*
X001993Y018273D01*
X001993Y018372D02*
X006415Y018372D01*
X006321Y018317D02*
X006321Y018317D01*
X010278Y018372D02*
X027329Y018372D01*
X027345Y018388D02*
X027264Y018307D01*
X027221Y018202D01*
X027221Y018087D01*
X027264Y017981D01*
X027345Y017900D01*
X027422Y017869D01*
X027345Y017837D01*
X027264Y017756D01*
X027221Y017650D01*
X027221Y017536D01*
X027264Y017430D01*
X027345Y017349D01*
X027451Y017305D01*
X027536Y017305D01*
X027536Y017221D01*
X027579Y017115D01*
X027660Y017034D01*
X027766Y016990D01*
X027881Y016990D01*
X027986Y017034D01*
X028067Y017115D01*
X028111Y017221D01*
X028111Y017335D01*
X028067Y017441D01*
X027986Y017522D01*
X027881Y017566D01*
X027796Y017566D01*
X027796Y017650D01*
X027752Y017756D01*
X027671Y017837D01*
X027595Y017869D01*
X027671Y017900D01*
X027752Y017981D01*
X027796Y018087D01*
X027796Y018202D01*
X027752Y018307D01*
X027671Y018388D01*
X027566Y018432D01*
X027451Y018432D01*
X027345Y018388D01*
X027345Y018530D02*
X027451Y018486D01*
X027566Y018486D01*
X027671Y018530D01*
X027752Y018611D01*
X027796Y018717D01*
X027796Y018831D01*
X027752Y018937D01*
X027671Y019018D01*
X027595Y019050D01*
X027671Y019081D01*
X027752Y019162D01*
X027796Y019268D01*
X027796Y019373D01*
X027845Y019353D01*
X027959Y019353D01*
X028065Y019396D01*
X028146Y019477D01*
X028190Y019583D01*
X028190Y019654D01*
X028212Y019633D01*
X028317Y019589D01*
X028432Y019589D01*
X028538Y019633D01*
X028619Y019714D01*
X028650Y019790D01*
X028682Y019714D01*
X028763Y019633D01*
X028869Y019589D01*
X028983Y019589D01*
X029089Y019633D01*
X029170Y019714D01*
X029214Y019819D01*
X029214Y019934D01*
X029170Y020040D01*
X029089Y020121D01*
X028983Y020164D01*
X028869Y020164D01*
X028763Y020121D01*
X028682Y020040D01*
X028650Y019963D01*
X028619Y020040D01*
X028538Y020121D01*
X028432Y020164D01*
X028317Y020164D01*
X028212Y020121D01*
X028131Y020040D01*
X028087Y019934D01*
X028087Y019863D01*
X028065Y019884D01*
X027959Y019928D01*
X027845Y019928D01*
X027739Y019884D01*
X027658Y019803D01*
X027614Y019698D01*
X027614Y019593D01*
X027566Y019613D01*
X027451Y019613D01*
X027345Y019569D01*
X027264Y019488D01*
X027221Y019383D01*
X027221Y019268D01*
X027264Y019162D01*
X027345Y019081D01*
X027422Y019050D01*
X027345Y019018D01*
X027264Y018937D01*
X027221Y018831D01*
X027221Y018717D01*
X027264Y018611D01*
X027345Y018530D01*
X027307Y018569D02*
X001993Y018569D01*
X001993Y018667D02*
X027241Y018667D01*
X027221Y018766D02*
X001993Y018766D01*
X001993Y018864D02*
X027234Y018864D01*
X027290Y018963D02*
X001993Y018963D01*
X001993Y019061D02*
X027394Y019061D01*
X027267Y019160D02*
X001993Y019160D01*
X001993Y019258D02*
X027225Y019258D01*
X027221Y019357D02*
X001993Y019357D01*
X001993Y019455D02*
X027251Y019455D01*
X027330Y019554D02*
X001993Y019554D01*
X001993Y019652D02*
X027614Y019652D01*
X027636Y019751D02*
X001993Y019751D01*
X001993Y019849D02*
X027704Y019849D01*
X028092Y019948D02*
X001993Y019948D01*
X001993Y020046D02*
X028137Y020046D01*
X028270Y020145D02*
X001993Y020145D01*
X001993Y020243D02*
X045530Y020243D01*
X045556Y020145D02*
X029031Y020145D01*
X029163Y020046D02*
X045592Y020046D01*
X045575Y020076D02*
X045815Y019660D01*
X046154Y019321D01*
X046570Y019081D01*
X047034Y018957D01*
X047514Y018957D01*
X047977Y019081D01*
X048393Y019321D01*
X048733Y019660D01*
X048973Y020076D01*
X049097Y020540D01*
X049097Y021020D01*
X048973Y021484D01*
X048733Y021899D01*
X048393Y022239D01*
X047977Y022479D01*
X047514Y022603D01*
X047034Y022603D01*
X046570Y022479D01*
X046154Y022239D01*
X045815Y021899D01*
X045575Y021484D01*
X045450Y021020D01*
X045450Y020540D01*
X045575Y020076D01*
X045649Y019948D02*
X029208Y019948D01*
X029214Y019849D02*
X029279Y019849D01*
X029314Y019884D02*
X029233Y019803D01*
X029189Y019698D01*
X029189Y019583D01*
X029233Y019477D01*
X029314Y019396D01*
X029420Y019353D01*
X029534Y019353D01*
X029583Y019373D01*
X029583Y019268D01*
X029627Y019162D01*
X029708Y019081D01*
X029784Y019050D01*
X029708Y019018D01*
X029627Y018937D01*
X029583Y018831D01*
X029583Y018717D01*
X029627Y018611D01*
X029708Y018530D01*
X029813Y018486D01*
X029928Y018486D01*
X030034Y018530D01*
X030115Y018611D01*
X030158Y018717D01*
X030158Y018831D01*
X030115Y018937D01*
X030034Y019018D01*
X029957Y019050D01*
X030034Y019081D01*
X030115Y019162D01*
X030158Y019268D01*
X030158Y019383D01*
X030115Y019488D01*
X030034Y019569D01*
X029928Y019613D01*
X029813Y019613D01*
X029765Y019593D01*
X029765Y019698D01*
X029721Y019803D01*
X029640Y019884D01*
X029534Y019928D01*
X029420Y019928D01*
X029314Y019884D01*
X029211Y019751D02*
X029185Y019751D01*
X029189Y019652D02*
X029108Y019652D01*
X029201Y019554D02*
X028178Y019554D01*
X028190Y019652D02*
X028192Y019652D01*
X028124Y019455D02*
X029255Y019455D01*
X029410Y019357D02*
X027969Y019357D01*
X027835Y019357D02*
X027796Y019357D01*
X027792Y019258D02*
X029587Y019258D01*
X029583Y019357D02*
X029544Y019357D01*
X029629Y019160D02*
X027750Y019160D01*
X027622Y019061D02*
X029757Y019061D01*
X029652Y018963D02*
X027727Y018963D01*
X027783Y018864D02*
X029596Y018864D01*
X029583Y018766D02*
X027796Y018766D01*
X027776Y018667D02*
X029603Y018667D01*
X029669Y018569D02*
X027710Y018569D01*
X027688Y018372D02*
X029691Y018372D01*
X029708Y018388D02*
X029627Y018307D01*
X029583Y018202D01*
X029583Y018087D01*
X029627Y017981D01*
X029708Y017900D01*
X029784Y017869D01*
X029708Y017837D01*
X029627Y017756D01*
X029583Y017650D01*
X029583Y017536D01*
X029608Y017476D01*
X029561Y017522D01*
X029455Y017566D01*
X029341Y017566D01*
X029235Y017522D01*
X029154Y017441D01*
X029110Y017335D01*
X029110Y017264D01*
X029089Y017286D01*
X028983Y017330D01*
X028869Y017330D01*
X028763Y017286D01*
X028682Y017205D01*
X028650Y017129D01*
X028619Y017205D01*
X028538Y017286D01*
X028432Y017330D01*
X028317Y017330D01*
X028212Y017286D01*
X028131Y017205D01*
X028087Y017099D01*
X028087Y016985D01*
X028131Y016879D01*
X028212Y016798D01*
X028317Y016754D01*
X028432Y016754D01*
X028538Y016798D01*
X028619Y016879D01*
X028650Y016955D01*
X028682Y016879D01*
X028763Y016798D01*
X028869Y016754D01*
X028983Y016754D01*
X029089Y016798D01*
X029170Y016879D01*
X029214Y016985D01*
X029214Y017056D01*
X029235Y017034D01*
X029341Y016990D01*
X029455Y016990D01*
X029561Y017034D01*
X029642Y017115D01*
X029686Y017221D01*
X029686Y017335D01*
X029661Y017396D01*
X029708Y017349D01*
X029813Y017305D01*
X029928Y017305D01*
X030034Y017349D01*
X030115Y017430D01*
X030158Y017536D01*
X030158Y017650D01*
X030115Y017756D01*
X030034Y017837D01*
X029957Y017869D01*
X030034Y017900D01*
X030115Y017981D01*
X030158Y018087D01*
X030158Y018202D01*
X030115Y018307D01*
X030034Y018388D01*
X029928Y018432D01*
X029813Y018432D01*
X029708Y018388D01*
X029612Y018273D02*
X027767Y018273D01*
X027796Y018175D02*
X029583Y018175D01*
X029587Y018076D02*
X027792Y018076D01*
X027749Y017978D02*
X029630Y017978D01*
X029759Y017879D02*
X027620Y017879D01*
X027728Y017781D02*
X029651Y017781D01*
X029596Y017682D02*
X027783Y017682D01*
X027796Y017584D02*
X029583Y017584D01*
X029598Y017485D02*
X029604Y017485D01*
X029665Y017387D02*
X029670Y017387D01*
X029686Y017288D02*
X053228Y017288D01*
X053222Y017190D02*
X029673Y017190D01*
X029618Y017091D02*
X053208Y017091D01*
X053176Y016993D02*
X029461Y016993D01*
X029336Y016993D02*
X029214Y016993D01*
X029176Y016894D02*
X053144Y016894D01*
X053107Y016796D02*
X029083Y016796D01*
X028768Y016796D02*
X028532Y016796D01*
X028625Y016894D02*
X028675Y016894D01*
X028675Y017190D02*
X028625Y017190D01*
X028532Y017288D02*
X028768Y017288D01*
X029083Y017288D02*
X029110Y017288D01*
X029132Y017387D02*
X028090Y017387D01*
X028111Y017288D02*
X028217Y017288D01*
X028124Y017190D02*
X028098Y017190D01*
X028087Y017091D02*
X028043Y017091D01*
X028087Y016993D02*
X027886Y016993D01*
X027761Y016993D02*
X010465Y016993D01*
X010465Y017091D02*
X027603Y017091D01*
X027549Y017190D02*
X010465Y017190D01*
X010465Y017288D02*
X027536Y017288D01*
X027308Y017387D02*
X010465Y017387D01*
X010465Y017485D02*
X027242Y017485D01*
X027221Y017584D02*
X010465Y017584D01*
X010465Y017682D02*
X027234Y017682D01*
X027289Y017781D02*
X010465Y017781D01*
X010465Y017879D02*
X027397Y017879D01*
X027268Y017978D02*
X010465Y017978D01*
X010465Y018076D02*
X027225Y018076D01*
X027221Y018175D02*
X010455Y018175D01*
X010398Y018273D02*
X027250Y018273D01*
X028023Y017485D02*
X029198Y017485D01*
X029982Y017879D02*
X053228Y017879D01*
X053228Y017781D02*
X030090Y017781D01*
X030145Y017682D02*
X053228Y017682D01*
X053228Y017584D02*
X030158Y017584D01*
X030137Y017485D02*
X053228Y017485D01*
X053228Y017387D02*
X030071Y017387D01*
X030111Y017978D02*
X052465Y017978D01*
X052437Y018076D02*
X030154Y018076D01*
X030158Y018175D02*
X052441Y018175D01*
X052441Y018273D02*
X030129Y018273D01*
X030050Y018372D02*
X052441Y018372D01*
X052441Y018470D02*
X001993Y018470D01*
X001993Y020342D02*
X045504Y020342D01*
X045477Y020440D02*
X001993Y020440D01*
X001993Y020539D02*
X045451Y020539D01*
X045450Y020637D02*
X001993Y020637D01*
X001993Y020736D02*
X045450Y020736D01*
X045450Y020834D02*
X001993Y020834D01*
X001993Y020933D02*
X045450Y020933D01*
X045453Y021031D02*
X001993Y021031D01*
X001993Y021130D02*
X031921Y021130D01*
X031996Y021087D02*
X034150Y021087D01*
X034311Y021180D01*
X034404Y021341D01*
X034404Y021920D01*
X034311Y022081D01*
X034150Y022174D01*
X034120Y022174D01*
X031996Y022174D01*
X031835Y022081D01*
X031742Y021920D01*
X031742Y021341D01*
X031835Y021180D01*
X031835Y021180D01*
X031996Y021087D01*
X031835Y021180D02*
X031835Y021180D01*
X031807Y021228D02*
X001993Y021228D01*
X001993Y021327D02*
X031750Y021327D01*
X031742Y021425D02*
X001993Y021425D01*
X001993Y021524D02*
X031742Y021524D01*
X031742Y021622D02*
X001993Y021622D01*
X001993Y021721D02*
X031742Y021721D01*
X031742Y021819D02*
X002003Y021819D01*
X001954Y021918D02*
X031742Y021918D01*
X031742Y021920D02*
X031742Y021920D01*
X031798Y022016D02*
X001206Y022016D01*
X001206Y021918D02*
X001736Y021918D01*
X001539Y021819D02*
X001206Y021819D01*
X001206Y021721D02*
X001342Y021721D01*
X001206Y022115D02*
X031893Y022115D01*
X031835Y022081D02*
X031835Y022081D01*
X034253Y022115D02*
X041143Y022115D01*
X041085Y022081D02*
X041085Y022081D01*
X040992Y021920D01*
X040992Y021341D01*
X041085Y021180D01*
X041085Y021180D01*
X041246Y021087D01*
X043400Y021087D01*
X043561Y021180D01*
X043654Y021341D01*
X043654Y021920D01*
X043561Y022081D01*
X043400Y022174D01*
X043370Y022174D01*
X041246Y022174D01*
X041085Y022081D01*
X041085Y022081D01*
X041048Y022016D02*
X034349Y022016D01*
X034311Y022081D02*
X034311Y022081D01*
X034311Y022081D01*
X034404Y021918D02*
X040992Y021918D01*
X040992Y021819D02*
X034404Y021819D01*
X034404Y021721D02*
X040992Y021721D01*
X040992Y021622D02*
X034404Y021622D01*
X034404Y021524D02*
X040992Y021524D01*
X040992Y021425D02*
X034404Y021425D01*
X034396Y021327D02*
X041000Y021327D01*
X040992Y021341D02*
X040992Y021341D01*
X041057Y021228D02*
X034339Y021228D01*
X034311Y021180D02*
X034311Y021180D01*
X034311Y021180D01*
X034225Y021130D02*
X041171Y021130D01*
X043475Y021130D02*
X045480Y021130D01*
X045506Y021228D02*
X043589Y021228D01*
X043561Y021180D02*
X043561Y021180D01*
X043561Y021180D01*
X043646Y021327D02*
X045533Y021327D01*
X045559Y021425D02*
X043654Y021425D01*
X043654Y021524D02*
X045598Y021524D01*
X045655Y021622D02*
X043654Y021622D01*
X043654Y021721D02*
X045711Y021721D01*
X045768Y021819D02*
X043654Y021819D01*
X043654Y021918D02*
X045833Y021918D01*
X045931Y022016D02*
X043599Y022016D01*
X043561Y022081D02*
X043561Y022081D01*
X043561Y022081D01*
X043503Y022115D02*
X046030Y022115D01*
X046128Y022213D02*
X001206Y022213D01*
X001206Y022312D02*
X046280Y022312D01*
X046451Y022410D02*
X001206Y022410D01*
X001206Y022509D02*
X007479Y022509D01*
X007482Y022508D02*
X007956Y022413D01*
X008439Y022413D01*
X008913Y022508D01*
X009359Y022693D01*
X009761Y022961D01*
X010103Y023303D01*
X010371Y023705D01*
X010556Y024151D01*
X010650Y024625D01*
X010650Y025108D01*
X010556Y025582D01*
X010371Y026029D01*
X010103Y026430D01*
X009761Y026772D01*
X009359Y027040D01*
X008913Y027225D01*
X008439Y027320D01*
X007956Y027320D01*
X007482Y027225D01*
X007035Y027040D01*
X006633Y026772D01*
X006292Y026430D01*
X006023Y026029D01*
X005838Y025582D01*
X005744Y025108D01*
X005744Y024625D01*
X005838Y024151D01*
X006023Y023705D01*
X006292Y023303D01*
X006633Y022961D01*
X007035Y022693D01*
X007482Y022508D01*
X007241Y022607D02*
X001206Y022607D01*
X001206Y022706D02*
X007016Y022706D01*
X006868Y022804D02*
X001206Y022804D01*
X001206Y022903D02*
X006721Y022903D01*
X006593Y023001D02*
X001206Y023001D01*
X001206Y023100D02*
X006495Y023100D01*
X006396Y023198D02*
X001206Y023198D01*
X001206Y023297D02*
X006298Y023297D01*
X006230Y023395D02*
X001206Y023395D01*
X001206Y023494D02*
X006164Y023494D01*
X006098Y023592D02*
X001206Y023592D01*
X001206Y023691D02*
X006033Y023691D01*
X005988Y023789D02*
X001206Y023789D01*
X001206Y023888D02*
X005947Y023888D01*
X005907Y023986D02*
X001206Y023986D01*
X001206Y024085D02*
X005866Y024085D01*
X005832Y024183D02*
X001974Y024183D01*
X001995Y024282D02*
X005812Y024282D01*
X005793Y024380D02*
X001993Y024380D01*
X001993Y024479D02*
X005773Y024479D01*
X005754Y024577D02*
X001993Y024577D01*
X001993Y024676D02*
X005744Y024676D01*
X005744Y024774D02*
X001993Y024774D01*
X001993Y024873D02*
X005744Y024873D01*
X005744Y024971D02*
X001993Y024971D01*
X001993Y025070D02*
X005744Y025070D01*
X005756Y025168D02*
X001993Y025168D01*
X001993Y025267D02*
X005776Y025267D01*
X005795Y025365D02*
X001993Y025365D01*
X001993Y025464D02*
X005815Y025464D01*
X005834Y025562D02*
X001993Y025562D01*
X001993Y025661D02*
X005871Y025661D01*
X005912Y025759D02*
X001993Y025759D01*
X001993Y025858D02*
X005953Y025858D01*
X005993Y025956D02*
X001993Y025956D01*
X001993Y026055D02*
X006041Y026055D01*
X006107Y026153D02*
X001993Y026153D01*
X001993Y026252D02*
X006172Y026252D01*
X006238Y026350D02*
X001993Y026350D01*
X001993Y026449D02*
X006310Y026449D01*
X006409Y026547D02*
X001993Y026547D01*
X001993Y026646D02*
X006507Y026646D01*
X006606Y026744D02*
X001993Y026744D01*
X001993Y026843D02*
X006739Y026843D01*
X006887Y026941D02*
X001993Y026941D01*
X001993Y027040D02*
X007034Y027040D01*
X007271Y027138D02*
X001993Y027138D01*
X001993Y027237D02*
X007538Y027237D01*
X008856Y027237D02*
X014188Y027237D01*
X014132Y027225D02*
X013685Y027040D01*
X013283Y026772D01*
X012942Y026430D01*
X012673Y026029D01*
X012488Y025582D01*
X012394Y025108D01*
X012394Y024625D01*
X012488Y024151D01*
X012673Y023705D01*
X012942Y023303D01*
X013283Y022961D01*
X013685Y022693D01*
X014132Y022508D01*
X014606Y022413D01*
X015089Y022413D01*
X015563Y022508D01*
X016009Y022693D01*
X016411Y022961D01*
X016753Y023303D01*
X017021Y023705D01*
X017206Y024151D01*
X017300Y024625D01*
X017300Y025108D01*
X017206Y025582D01*
X017021Y026029D01*
X016753Y026430D01*
X016411Y026772D01*
X016009Y027040D01*
X015563Y027225D01*
X015089Y027320D01*
X014606Y027320D01*
X014132Y027225D01*
X013921Y027138D02*
X009123Y027138D01*
X009360Y027040D02*
X013684Y027040D01*
X013537Y026941D02*
X009508Y026941D01*
X009655Y026843D02*
X013389Y026843D01*
X013256Y026744D02*
X009789Y026744D01*
X009887Y026646D02*
X013157Y026646D01*
X013059Y026547D02*
X009986Y026547D01*
X010084Y026449D02*
X012960Y026449D01*
X012888Y026350D02*
X010156Y026350D01*
X010222Y026252D02*
X012822Y026252D01*
X012757Y026153D02*
X010288Y026153D01*
X010354Y026055D02*
X012691Y026055D01*
X012643Y025956D02*
X010401Y025956D01*
X010442Y025858D02*
X012603Y025858D01*
X012562Y025759D02*
X010483Y025759D01*
X010524Y025661D02*
X012521Y025661D01*
X012484Y025562D02*
X010560Y025562D01*
X010580Y025464D02*
X012465Y025464D01*
X012445Y025365D02*
X010599Y025365D01*
X010619Y025267D02*
X012426Y025267D01*
X012406Y025168D02*
X010638Y025168D01*
X010650Y025070D02*
X012394Y025070D01*
X012394Y024971D02*
X010650Y024971D01*
X010650Y024873D02*
X012394Y024873D01*
X012394Y024774D02*
X010650Y024774D01*
X010650Y024676D02*
X012394Y024676D01*
X012404Y024577D02*
X010641Y024577D01*
X010621Y024479D02*
X012423Y024479D01*
X012443Y024380D02*
X010602Y024380D01*
X010582Y024282D02*
X012462Y024282D01*
X012482Y024183D02*
X010563Y024183D01*
X010529Y024085D02*
X012516Y024085D01*
X012557Y023986D02*
X010488Y023986D01*
X010447Y023888D02*
X012597Y023888D01*
X012638Y023789D02*
X010406Y023789D01*
X010362Y023691D02*
X012683Y023691D01*
X012748Y023592D02*
X010296Y023592D01*
X010230Y023494D02*
X012814Y023494D01*
X012880Y023395D02*
X010164Y023395D01*
X010097Y023297D02*
X012948Y023297D01*
X013046Y023198D02*
X009998Y023198D01*
X009900Y023100D02*
X013145Y023100D01*
X013243Y023001D02*
X009801Y023001D01*
X009674Y022903D02*
X013371Y022903D01*
X013518Y022804D02*
X009526Y022804D01*
X009379Y022706D02*
X013666Y022706D01*
X013891Y022607D02*
X009153Y022607D01*
X008915Y022509D02*
X014129Y022509D01*
X015565Y022509D02*
X046681Y022509D01*
X047866Y022509D02*
X053228Y022509D01*
X053228Y022607D02*
X015803Y022607D01*
X016029Y022706D02*
X053228Y022706D01*
X053228Y022804D02*
X016176Y022804D01*
X016324Y022903D02*
X053228Y022903D01*
X053228Y023001D02*
X016451Y023001D01*
X016550Y023100D02*
X053228Y023100D01*
X053228Y023198D02*
X026093Y023198D01*
X026022Y023157D02*
X026183Y023250D01*
X026183Y023250D01*
X026276Y023411D01*
X026276Y023442D01*
X026276Y027141D01*
X026183Y027302D01*
X026022Y027394D01*
X017569Y027394D01*
X017408Y027302D01*
X017408Y027302D01*
X017408Y027302D01*
X017315Y027141D01*
X017315Y023411D01*
X017408Y023250D01*
X017569Y023157D01*
X026022Y023157D01*
X026183Y023250D02*
X026183Y023250D01*
X026210Y023297D02*
X053228Y023297D01*
X053228Y023395D02*
X026267Y023395D01*
X026276Y023494D02*
X053228Y023494D01*
X053228Y023592D02*
X049268Y023592D01*
X049248Y023573D02*
X049392Y023717D01*
X049436Y023916D01*
X049365Y024107D01*
X049365Y024107D01*
X049343Y024123D01*
X049343Y028500D01*
X049365Y028516D01*
X049365Y028516D01*
X049365Y028516D01*
X049436Y028707D01*
X049392Y028906D01*
X049248Y029050D01*
X049050Y029093D01*
X049050Y029093D01*
X048859Y029022D01*
X048859Y029022D01*
X048843Y029001D01*
X041945Y029001D01*
X041929Y029022D01*
X041739Y029093D01*
X041739Y029093D01*
X041540Y029050D01*
X041540Y029050D01*
X041396Y028906D01*
X041352Y028707D01*
X041423Y028516D01*
X041445Y028500D01*
X041445Y024123D01*
X041423Y024107D01*
X041423Y024107D01*
X041423Y024107D01*
X041352Y023916D01*
X041352Y023916D01*
X041396Y023717D01*
X041396Y023717D01*
X041540Y023573D01*
X041739Y023530D01*
X041929Y023601D01*
X041929Y023601D01*
X041945Y023622D01*
X048843Y023622D01*
X048859Y023601D01*
X049050Y023530D01*
X049248Y023573D01*
X049248Y023573D01*
X049366Y023691D02*
X053228Y023691D01*
X053228Y023789D02*
X049408Y023789D01*
X049392Y023717D02*
X049392Y023717D01*
X049430Y023888D02*
X053228Y023888D01*
X053228Y023986D02*
X049410Y023986D01*
X049436Y023916D02*
X049436Y023916D01*
X049373Y024085D02*
X053228Y024085D01*
X053228Y024183D02*
X052764Y024183D01*
X052961Y024282D02*
X053228Y024282D01*
X053228Y024380D02*
X053158Y024380D01*
X052441Y024380D02*
X049343Y024380D01*
X049343Y024282D02*
X052439Y024282D01*
X052460Y024183D02*
X049343Y024183D01*
X049343Y024479D02*
X052441Y024479D01*
X052441Y024577D02*
X049343Y024577D01*
X049343Y024676D02*
X052441Y024676D01*
X052441Y024774D02*
X049343Y024774D01*
X049343Y024873D02*
X052441Y024873D01*
X052441Y024971D02*
X049343Y024971D01*
X049343Y025070D02*
X052441Y025070D01*
X052441Y025168D02*
X049343Y025168D01*
X049343Y025267D02*
X052441Y025267D01*
X052441Y025365D02*
X049343Y025365D01*
X049343Y025464D02*
X052441Y025464D01*
X052441Y025562D02*
X049343Y025562D01*
X049343Y025661D02*
X052441Y025661D01*
X052441Y025759D02*
X049343Y025759D01*
X049343Y025858D02*
X052441Y025858D01*
X052441Y025956D02*
X049343Y025956D01*
X049343Y026055D02*
X052441Y026055D01*
X052441Y026153D02*
X049343Y026153D01*
X049343Y026252D02*
X052441Y026252D01*
X052441Y026350D02*
X049343Y026350D01*
X049343Y026449D02*
X052441Y026449D01*
X052441Y026547D02*
X049343Y026547D01*
X049343Y026646D02*
X052441Y026646D01*
X052441Y026744D02*
X049343Y026744D01*
X049343Y026843D02*
X052441Y026843D01*
X052441Y026941D02*
X049343Y026941D01*
X049343Y027040D02*
X052441Y027040D01*
X052441Y027138D02*
X049343Y027138D01*
X049343Y027237D02*
X052441Y027237D01*
X052441Y027335D02*
X049343Y027335D01*
X049343Y027434D02*
X052441Y027434D01*
X052441Y027532D02*
X049343Y027532D01*
X049343Y027631D02*
X052441Y027631D01*
X052441Y027729D02*
X049343Y027729D01*
X049343Y027828D02*
X052441Y027828D01*
X052441Y027926D02*
X049343Y027926D01*
X049343Y028025D02*
X052433Y028025D01*
X052483Y028123D02*
X049343Y028123D01*
X049343Y028222D02*
X053228Y028222D01*
X053228Y028320D02*
X049343Y028320D01*
X049343Y028419D02*
X053228Y028419D01*
X053228Y028517D02*
X049365Y028517D01*
X049402Y028616D02*
X053228Y028616D01*
X053227Y028714D02*
X049434Y028714D01*
X049436Y028707D02*
X049436Y028707D01*
X049413Y028813D02*
X053219Y028813D01*
X053197Y028911D02*
X049387Y028911D01*
X049392Y028906D02*
X049392Y028906D01*
X049289Y029010D02*
X053165Y029010D01*
X053133Y029108D02*
X001301Y029108D01*
X001269Y029010D02*
X041499Y029010D01*
X041401Y028911D02*
X001237Y028911D01*
X001215Y028813D02*
X041375Y028813D01*
X041396Y028906D02*
X041396Y028906D01*
X041354Y028714D02*
X001207Y028714D01*
X001206Y028616D02*
X028670Y028616D01*
X028442Y028554D02*
X027936Y028263D01*
X027523Y027850D01*
X027231Y027344D01*
X027080Y026780D01*
X027080Y026197D01*
X027231Y025633D01*
X027523Y025127D01*
X027936Y024715D01*
X028442Y024423D01*
X029005Y024272D01*
X029589Y024272D01*
X030153Y024423D01*
X030658Y024715D01*
X031071Y025127D01*
X031363Y025633D01*
X031514Y026197D01*
X031514Y026780D01*
X031363Y027344D01*
X031071Y027850D01*
X030658Y028263D01*
X030153Y028554D01*
X029589Y028706D01*
X029005Y028706D01*
X028442Y028554D01*
X028377Y028517D02*
X001206Y028517D01*
X001206Y028419D02*
X028206Y028419D01*
X028036Y028320D02*
X001206Y028320D01*
X001206Y028222D02*
X027895Y028222D01*
X027797Y028123D02*
X001951Y028123D01*
X002000Y028025D02*
X027698Y028025D01*
X027600Y027926D02*
X001993Y027926D01*
X001993Y027828D02*
X027510Y027828D01*
X027454Y027729D02*
X001993Y027729D01*
X001993Y027631D02*
X027397Y027631D01*
X027340Y027532D02*
X001993Y027532D01*
X001993Y027434D02*
X027283Y027434D01*
X027229Y027335D02*
X026125Y027335D01*
X026183Y027302D02*
X026183Y027302D01*
X026183Y027302D01*
X026221Y027237D02*
X027203Y027237D01*
X027176Y027138D02*
X026276Y027138D01*
X026276Y027040D02*
X027150Y027040D01*
X027123Y026941D02*
X026276Y026941D01*
X026276Y026843D02*
X027097Y026843D01*
X027080Y026744D02*
X026276Y026744D01*
X026276Y026646D02*
X027080Y026646D01*
X027080Y026547D02*
X026276Y026547D01*
X026276Y026449D02*
X027080Y026449D01*
X027080Y026350D02*
X026276Y026350D01*
X026276Y026252D02*
X027080Y026252D01*
X027092Y026153D02*
X026276Y026153D01*
X026276Y026055D02*
X027118Y026055D01*
X027145Y025956D02*
X026276Y025956D01*
X026276Y025858D02*
X027171Y025858D01*
X027198Y025759D02*
X026276Y025759D01*
X026276Y025661D02*
X027224Y025661D01*
X027272Y025562D02*
X026276Y025562D01*
X026276Y025464D02*
X027329Y025464D01*
X027386Y025365D02*
X026276Y025365D01*
X026276Y025267D02*
X027443Y025267D01*
X027500Y025168D02*
X026276Y025168D01*
X026276Y025070D02*
X027581Y025070D01*
X027679Y024971D02*
X026276Y024971D01*
X026276Y024873D02*
X027778Y024873D01*
X027876Y024774D02*
X026276Y024774D01*
X026276Y024676D02*
X028003Y024676D01*
X028174Y024577D02*
X026276Y024577D01*
X026276Y024479D02*
X028345Y024479D01*
X028600Y024380D02*
X026276Y024380D01*
X026276Y024282D02*
X028968Y024282D01*
X029626Y024282D02*
X036468Y024282D01*
X036505Y024272D02*
X037089Y024272D01*
X037653Y024423D01*
X038158Y024715D01*
X038571Y025127D01*
X038863Y025633D01*
X039014Y026197D01*
X039014Y026780D01*
X038863Y027344D01*
X038571Y027850D01*
X038158Y028263D01*
X037653Y028554D01*
X037089Y028706D01*
X036505Y028706D01*
X035942Y028554D01*
X035436Y028263D01*
X035023Y027850D01*
X034731Y027344D01*
X034580Y026780D01*
X034580Y026197D01*
X034731Y025633D01*
X035023Y025127D01*
X035436Y024715D01*
X035942Y024423D01*
X036505Y024272D01*
X036100Y024380D02*
X029994Y024380D01*
X030250Y024479D02*
X035845Y024479D01*
X035674Y024577D02*
X030420Y024577D01*
X030591Y024676D02*
X035503Y024676D01*
X035376Y024774D02*
X030718Y024774D01*
X030817Y024873D02*
X035278Y024873D01*
X035179Y024971D02*
X030915Y024971D01*
X031014Y025070D02*
X035081Y025070D01*
X035000Y025168D02*
X031095Y025168D01*
X031152Y025267D02*
X034943Y025267D01*
X034886Y025365D02*
X031209Y025365D01*
X031265Y025464D02*
X034829Y025464D01*
X034772Y025562D02*
X031322Y025562D01*
X031371Y025661D02*
X034724Y025661D01*
X034698Y025759D02*
X031397Y025759D01*
X031423Y025858D02*
X034671Y025858D01*
X034645Y025956D02*
X031450Y025956D01*
X031476Y026055D02*
X034618Y026055D01*
X034592Y026153D02*
X031503Y026153D01*
X031514Y026252D02*
X034580Y026252D01*
X034580Y026350D02*
X031514Y026350D01*
X031514Y026449D02*
X034580Y026449D01*
X034580Y026547D02*
X031514Y026547D01*
X031514Y026646D02*
X034580Y026646D01*
X034580Y026744D02*
X031514Y026744D01*
X031498Y026843D02*
X034597Y026843D01*
X034623Y026941D02*
X031471Y026941D01*
X031445Y027040D02*
X034650Y027040D01*
X034676Y027138D02*
X031418Y027138D01*
X031392Y027237D02*
X034703Y027237D01*
X034729Y027335D02*
X031366Y027335D01*
X031311Y027434D02*
X034783Y027434D01*
X034840Y027532D02*
X031255Y027532D01*
X031198Y027631D02*
X034897Y027631D01*
X034954Y027729D02*
X031141Y027729D01*
X031084Y027828D02*
X035010Y027828D01*
X035100Y027926D02*
X030995Y027926D01*
X030896Y028025D02*
X035198Y028025D01*
X035297Y028123D02*
X030798Y028123D01*
X030699Y028222D02*
X035395Y028222D01*
X035536Y028320D02*
X030559Y028320D01*
X030388Y028419D02*
X035706Y028419D01*
X035877Y028517D02*
X030217Y028517D01*
X029924Y028616D02*
X036170Y028616D01*
X037424Y028616D02*
X041386Y028616D01*
X041352Y028707D02*
X041352Y028707D01*
X041423Y028517D02*
X037717Y028517D01*
X037888Y028419D02*
X041445Y028419D01*
X041445Y028320D02*
X038059Y028320D01*
X038199Y028222D02*
X041445Y028222D01*
X041445Y028123D02*
X038298Y028123D01*
X038396Y028025D02*
X041445Y028025D01*
X041445Y027926D02*
X038495Y027926D01*
X038584Y027828D02*
X041445Y027828D01*
X041445Y027729D02*
X038641Y027729D01*
X038698Y027631D02*
X041445Y027631D01*
X041445Y027532D02*
X038755Y027532D01*
X038811Y027434D02*
X041445Y027434D01*
X041445Y027335D02*
X038866Y027335D01*
X038892Y027237D02*
X041445Y027237D01*
X041445Y027138D02*
X038918Y027138D01*
X038945Y027040D02*
X041445Y027040D01*
X041445Y026941D02*
X038971Y026941D01*
X038998Y026843D02*
X041445Y026843D01*
X041445Y026744D02*
X039014Y026744D01*
X039014Y026646D02*
X041445Y026646D01*
X041445Y026547D02*
X039014Y026547D01*
X039014Y026449D02*
X041445Y026449D01*
X041445Y026350D02*
X039014Y026350D01*
X039014Y026252D02*
X041445Y026252D01*
X041445Y026153D02*
X039003Y026153D01*
X038976Y026055D02*
X041445Y026055D01*
X041445Y025956D02*
X038950Y025956D01*
X038923Y025858D02*
X041445Y025858D01*
X041445Y025759D02*
X038897Y025759D01*
X038871Y025661D02*
X041445Y025661D01*
X041445Y025562D02*
X038822Y025562D01*
X038765Y025464D02*
X041445Y025464D01*
X041445Y025365D02*
X038709Y025365D01*
X038652Y025267D02*
X041445Y025267D01*
X041445Y025168D02*
X038595Y025168D01*
X038514Y025070D02*
X041445Y025070D01*
X041445Y024971D02*
X038415Y024971D01*
X038317Y024873D02*
X041445Y024873D01*
X041445Y024774D02*
X038218Y024774D01*
X038091Y024676D02*
X041445Y024676D01*
X041445Y024577D02*
X037920Y024577D01*
X037750Y024479D02*
X041445Y024479D01*
X041445Y024380D02*
X037494Y024380D01*
X037126Y024282D02*
X041445Y024282D01*
X041445Y024183D02*
X026276Y024183D01*
X026276Y024085D02*
X041415Y024085D01*
X041379Y023986D02*
X026276Y023986D01*
X026276Y023888D02*
X041359Y023888D01*
X041380Y023789D02*
X026276Y023789D01*
X026276Y023691D02*
X041422Y023691D01*
X041520Y023592D02*
X026276Y023592D01*
X028480Y020145D02*
X028821Y020145D01*
X028688Y020046D02*
X028612Y020046D01*
X028634Y019751D02*
X028666Y019751D01*
X028743Y019652D02*
X028557Y019652D01*
X029675Y019849D02*
X045706Y019849D01*
X045763Y019751D02*
X029743Y019751D01*
X029765Y019652D02*
X045823Y019652D01*
X045921Y019554D02*
X030049Y019554D01*
X030128Y019455D02*
X046020Y019455D01*
X046118Y019357D02*
X030158Y019357D01*
X030154Y019258D02*
X046263Y019258D01*
X046434Y019160D02*
X030112Y019160D01*
X029985Y019061D02*
X046644Y019061D01*
X047011Y018963D02*
X030089Y018963D01*
X030145Y018864D02*
X052441Y018864D01*
X052441Y018766D02*
X030158Y018766D01*
X030138Y018667D02*
X052441Y018667D01*
X052441Y018569D02*
X030072Y018569D01*
X028217Y016796D02*
X010465Y016796D01*
X010465Y016894D02*
X028124Y016894D01*
X026713Y012462D02*
X026239Y012556D01*
X025756Y012556D01*
X025282Y012462D01*
X025044Y012363D02*
X020351Y012363D01*
X020577Y012265D02*
X024817Y012265D01*
X024670Y012166D02*
X020725Y012166D01*
X020872Y012068D02*
X024522Y012068D01*
X024394Y011969D02*
X021000Y011969D01*
X021099Y011871D02*
X024296Y011871D01*
X024197Y011772D02*
X021197Y011772D01*
X021296Y011674D02*
X024099Y011674D01*
X024031Y011575D02*
X021364Y011575D01*
X021430Y011477D02*
X023965Y011477D01*
X023899Y011378D02*
X021495Y011378D01*
X021561Y011280D02*
X023833Y011280D01*
X023789Y011181D02*
X021606Y011181D01*
X021647Y011083D02*
X023748Y011083D01*
X023707Y010984D02*
X021687Y010984D01*
X021728Y010886D02*
X023666Y010886D01*
X023632Y010787D02*
X021762Y010787D01*
X021782Y010689D02*
X023613Y010689D01*
X023593Y010590D02*
X021802Y010590D01*
X021821Y010492D02*
X023573Y010492D01*
X023554Y010393D02*
X021841Y010393D01*
X021850Y010295D02*
X023544Y010295D01*
X023544Y010196D02*
X021850Y010196D01*
X021850Y010098D02*
X023544Y010098D01*
X023544Y009999D02*
X021850Y009999D01*
X021850Y009901D02*
X023544Y009901D01*
X023556Y009802D02*
X021839Y009802D01*
X021819Y009704D02*
X023575Y009704D01*
X023595Y009605D02*
X021799Y009605D01*
X021780Y009507D02*
X023615Y009507D01*
X023634Y009408D02*
X021760Y009408D01*
X021724Y009310D02*
X023670Y009310D01*
X023711Y009211D02*
X021683Y009211D01*
X021642Y009113D02*
X023752Y009113D01*
X023793Y009014D02*
X021602Y009014D01*
X021554Y008916D02*
X023840Y008916D01*
X023906Y008817D02*
X021489Y008817D01*
X021423Y008719D02*
X023972Y008719D01*
X024038Y008620D02*
X021357Y008620D01*
X021285Y008522D02*
X024109Y008522D01*
X024208Y008423D02*
X021187Y008423D01*
X021088Y008325D02*
X024306Y008325D01*
X024405Y008226D02*
X020990Y008226D01*
X020857Y008128D02*
X024538Y008128D01*
X024685Y008029D02*
X020709Y008029D01*
X020562Y007931D02*
X024833Y007931D01*
X025069Y007832D02*
X020326Y007832D01*
X020061Y007734D02*
X025333Y007734D01*
X018733Y007734D02*
X013461Y007734D01*
X013726Y007832D02*
X018469Y007832D01*
X018233Y007931D02*
X013962Y007931D01*
X014109Y008029D02*
X018085Y008029D01*
X017938Y008128D02*
X014257Y008128D01*
X014390Y008226D02*
X017805Y008226D01*
X017706Y008325D02*
X014488Y008325D01*
X014587Y008423D02*
X017608Y008423D01*
X017509Y008522D02*
X014685Y008522D01*
X014757Y008620D02*
X017438Y008620D01*
X017372Y008719D02*
X014823Y008719D01*
X014889Y008817D02*
X017306Y008817D01*
X017240Y008916D02*
X014954Y008916D01*
X015002Y009014D02*
X017193Y009014D01*
X017152Y009113D02*
X015042Y009113D01*
X015083Y009211D02*
X017111Y009211D01*
X017070Y009310D02*
X015124Y009310D01*
X015160Y009408D02*
X017034Y009408D01*
X017015Y009507D02*
X015180Y009507D01*
X015199Y009605D02*
X016995Y009605D01*
X016975Y009704D02*
X015219Y009704D01*
X015239Y009802D02*
X016956Y009802D01*
X016944Y009901D02*
X015250Y009901D01*
X015250Y009999D02*
X016944Y009999D01*
X016944Y010098D02*
X015250Y010098D01*
X015250Y010196D02*
X016944Y010196D01*
X016944Y010295D02*
X015250Y010295D01*
X015241Y010393D02*
X016954Y010393D01*
X016973Y010492D02*
X015221Y010492D01*
X015202Y010590D02*
X016993Y010590D01*
X017013Y010689D02*
X015182Y010689D01*
X015162Y010787D02*
X017032Y010787D01*
X017066Y010886D02*
X015128Y010886D01*
X015087Y010984D02*
X017107Y010984D01*
X017148Y011083D02*
X015047Y011083D01*
X015006Y011181D02*
X017189Y011181D01*
X017233Y011280D02*
X014961Y011280D01*
X014895Y011378D02*
X017299Y011378D01*
X017365Y011477D02*
X014830Y011477D01*
X014764Y011575D02*
X017431Y011575D01*
X017499Y011674D02*
X014696Y011674D01*
X014597Y011772D02*
X017597Y011772D01*
X017696Y011871D02*
X014499Y011871D01*
X014400Y011969D02*
X017794Y011969D01*
X017922Y012068D02*
X014272Y012068D01*
X014125Y012166D02*
X018070Y012166D01*
X018217Y012265D02*
X013977Y012265D01*
X013751Y012363D02*
X018444Y012363D01*
X018682Y012462D02*
X019156Y012556D01*
X019639Y012556D01*
X020113Y012462D01*
X013513Y012462D02*
X013039Y012556D01*
X012556Y012556D01*
X012082Y012462D01*
X011844Y012363D02*
X007151Y012363D01*
X007377Y012265D02*
X011617Y012265D01*
X011470Y012166D02*
X007525Y012166D01*
X007672Y012068D02*
X011322Y012068D01*
X011194Y011969D02*
X007800Y011969D01*
X007899Y011871D02*
X011096Y011871D01*
X010997Y011772D02*
X007997Y011772D01*
X008096Y011674D02*
X010899Y011674D01*
X010831Y011575D02*
X008164Y011575D01*
X008230Y011477D02*
X010765Y011477D01*
X010699Y011378D02*
X008295Y011378D01*
X008361Y011280D02*
X010633Y011280D01*
X010589Y011181D02*
X008406Y011181D01*
X008447Y011083D02*
X010548Y011083D01*
X010507Y010984D02*
X008487Y010984D01*
X008528Y010886D02*
X010466Y010886D01*
X010432Y010787D02*
X008562Y010787D01*
X008582Y010689D02*
X010413Y010689D01*
X010393Y010590D02*
X008602Y010590D01*
X008621Y010492D02*
X010373Y010492D01*
X010354Y010393D02*
X008641Y010393D01*
X008650Y010295D02*
X010344Y010295D01*
X010344Y010196D02*
X008650Y010196D01*
X008650Y010098D02*
X010344Y010098D01*
X010344Y009999D02*
X008650Y009999D01*
X008650Y009901D02*
X010344Y009901D01*
X010356Y009802D02*
X008639Y009802D01*
X008619Y009704D02*
X010375Y009704D01*
X010395Y009605D02*
X008599Y009605D01*
X008580Y009507D02*
X010415Y009507D01*
X010434Y009408D02*
X008560Y009408D01*
X008524Y009310D02*
X010470Y009310D01*
X010511Y009211D02*
X008483Y009211D01*
X008442Y009113D02*
X010552Y009113D01*
X010593Y009014D02*
X008402Y009014D01*
X008354Y008916D02*
X010640Y008916D01*
X010706Y008817D02*
X008289Y008817D01*
X008223Y008719D02*
X010772Y008719D01*
X010838Y008620D02*
X008157Y008620D01*
X008085Y008522D02*
X010909Y008522D01*
X011008Y008423D02*
X007987Y008423D01*
X007888Y008325D02*
X011106Y008325D01*
X011205Y008226D02*
X007790Y008226D01*
X007657Y008128D02*
X011338Y008128D01*
X011485Y008029D02*
X007509Y008029D01*
X007362Y007931D02*
X011633Y007931D01*
X011869Y007832D02*
X007126Y007832D01*
X006861Y007734D02*
X012133Y007734D01*
X005533Y007734D02*
X001206Y007734D01*
X001206Y007832D02*
X005269Y007832D01*
X005033Y007931D02*
X001206Y007931D01*
X001206Y008029D02*
X004885Y008029D01*
X004738Y008128D02*
X001206Y008128D01*
X001206Y008226D02*
X004605Y008226D01*
X004506Y008325D02*
X001206Y008325D01*
X001206Y008423D02*
X004408Y008423D01*
X004309Y008522D02*
X001206Y008522D01*
X001206Y008620D02*
X004238Y008620D01*
X004172Y008719D02*
X001206Y008719D01*
X001206Y008817D02*
X004106Y008817D01*
X004040Y008916D02*
X001206Y008916D01*
X001206Y009014D02*
X003993Y009014D01*
X003952Y009113D02*
X001206Y009113D01*
X001206Y009211D02*
X003911Y009211D01*
X003870Y009310D02*
X001206Y009310D01*
X001206Y009408D02*
X001692Y009408D01*
X001495Y009507D02*
X001206Y009507D01*
X001206Y009605D02*
X001298Y009605D01*
X001993Y009605D02*
X003795Y009605D01*
X003815Y009507D02*
X001999Y009507D01*
X001964Y009408D02*
X003834Y009408D01*
X003775Y009704D02*
X001993Y009704D01*
X001993Y009802D02*
X003756Y009802D01*
X003744Y009901D02*
X001993Y009901D01*
X001993Y009999D02*
X003744Y009999D01*
X003744Y010098D02*
X001993Y010098D01*
X001993Y010196D02*
X003744Y010196D01*
X003744Y010295D02*
X001993Y010295D01*
X001993Y010393D02*
X003754Y010393D01*
X003773Y010492D02*
X001993Y010492D01*
X001993Y010590D02*
X003793Y010590D01*
X003813Y010689D02*
X001993Y010689D01*
X001993Y010787D02*
X003832Y010787D01*
X003866Y010886D02*
X001993Y010886D01*
X001993Y010984D02*
X003907Y010984D01*
X003948Y011083D02*
X001993Y011083D01*
X001993Y011181D02*
X003989Y011181D01*
X004033Y011280D02*
X001993Y011280D01*
X001993Y011378D02*
X004099Y011378D01*
X004165Y011477D02*
X001993Y011477D01*
X001993Y011575D02*
X004231Y011575D01*
X004299Y011674D02*
X001993Y011674D01*
X001993Y011772D02*
X004397Y011772D01*
X004496Y011871D02*
X001993Y011871D01*
X001993Y011969D02*
X004594Y011969D01*
X004722Y012068D02*
X001993Y012068D01*
X001993Y012166D02*
X004870Y012166D01*
X005017Y012265D02*
X001993Y012265D01*
X001993Y012363D02*
X005244Y012363D01*
X005482Y012462D02*
X005956Y012556D01*
X006439Y012556D01*
X006913Y012462D01*
X001723Y013348D02*
X001206Y013348D01*
X001206Y013250D02*
X001526Y013250D01*
X001329Y013151D02*
X001206Y013151D01*
X010321Y016402D02*
X052726Y016402D01*
X052862Y016500D02*
X010412Y016500D01*
X010372Y016432D02*
X010372Y016432D01*
X010372Y016432D01*
X010465Y016599D02*
X052964Y016599D01*
X053036Y016697D02*
X010465Y016697D01*
X010372Y018317D02*
X010372Y018317D01*
X010372Y018317D01*
X016648Y023198D02*
X017498Y023198D01*
X017408Y023250D02*
X017408Y023250D01*
X017408Y023250D01*
X017381Y023297D02*
X016747Y023297D01*
X016814Y023395D02*
X017324Y023395D01*
X017315Y023494D02*
X016880Y023494D01*
X016946Y023592D02*
X017315Y023592D01*
X017315Y023691D02*
X017012Y023691D01*
X017056Y023789D02*
X017315Y023789D01*
X017315Y023888D02*
X017097Y023888D01*
X017138Y023986D02*
X017315Y023986D01*
X017315Y024085D02*
X017179Y024085D01*
X017213Y024183D02*
X017315Y024183D01*
X017315Y024282D02*
X017232Y024282D01*
X017252Y024380D02*
X017315Y024380D01*
X017315Y024479D02*
X017271Y024479D01*
X017291Y024577D02*
X017315Y024577D01*
X017315Y024676D02*
X017300Y024676D01*
X017300Y024774D02*
X017315Y024774D01*
X017315Y024873D02*
X017300Y024873D01*
X017300Y024971D02*
X017315Y024971D01*
X017315Y025070D02*
X017300Y025070D01*
X017288Y025168D02*
X017315Y025168D01*
X017315Y025267D02*
X017269Y025267D01*
X017249Y025365D02*
X017315Y025365D01*
X017315Y025464D02*
X017230Y025464D01*
X017210Y025562D02*
X017315Y025562D01*
X017315Y025661D02*
X017174Y025661D01*
X017133Y025759D02*
X017315Y025759D01*
X017315Y025858D02*
X017092Y025858D01*
X017051Y025956D02*
X017315Y025956D01*
X017315Y026055D02*
X017004Y026055D01*
X016938Y026153D02*
X017315Y026153D01*
X017315Y026252D02*
X016872Y026252D01*
X016806Y026350D02*
X017315Y026350D01*
X017315Y026449D02*
X016734Y026449D01*
X016636Y026547D02*
X017315Y026547D01*
X017315Y026646D02*
X016537Y026646D01*
X016439Y026744D02*
X017315Y026744D01*
X017315Y026843D02*
X016305Y026843D01*
X016158Y026941D02*
X017315Y026941D01*
X017315Y027040D02*
X016010Y027040D01*
X015773Y027138D02*
X017315Y027138D01*
X017370Y027237D02*
X015506Y027237D01*
X017466Y027335D02*
X001993Y027335D01*
X001548Y028025D02*
X001206Y028025D01*
X001206Y028123D02*
X001745Y028123D01*
X001351Y027926D02*
X001206Y027926D01*
X001351Y029207D02*
X053083Y029207D01*
X053012Y029305D02*
X001422Y029305D01*
X001494Y029404D02*
X052940Y029404D01*
X052817Y029502D02*
X001617Y029502D01*
X001753Y029601D02*
X052681Y029601D01*
X052397Y029699D02*
X002037Y029699D01*
X001276Y024380D02*
X001206Y024380D01*
X001206Y024282D02*
X001473Y024282D01*
X001670Y024183D02*
X001206Y024183D01*
X001206Y007044D02*
X001516Y007044D01*
X001319Y006946D02*
X001206Y006946D01*
X001206Y003400D02*
X001308Y003400D01*
X001206Y003301D02*
X001505Y003301D01*
X001702Y003203D02*
X001206Y003203D01*
X032100Y008620D02*
X042403Y008620D01*
X042233Y008719D02*
X032293Y008719D01*
X047536Y018963D02*
X052441Y018963D01*
X052441Y019061D02*
X047903Y019061D01*
X048114Y019160D02*
X052441Y019160D01*
X052441Y019258D02*
X048284Y019258D01*
X048429Y019357D02*
X052441Y019357D01*
X052441Y019455D02*
X048527Y019455D01*
X048626Y019554D02*
X052441Y019554D01*
X052441Y019652D02*
X048724Y019652D01*
X048785Y019751D02*
X052441Y019751D01*
X052441Y019849D02*
X048842Y019849D01*
X048898Y019948D02*
X052441Y019948D01*
X052441Y020046D02*
X048955Y020046D01*
X048991Y020145D02*
X052441Y020145D01*
X052441Y020243D02*
X049017Y020243D01*
X049044Y020342D02*
X052441Y020342D01*
X052441Y020440D02*
X049070Y020440D01*
X049097Y020539D02*
X052441Y020539D01*
X052441Y020637D02*
X049097Y020637D01*
X049097Y020736D02*
X052441Y020736D01*
X052441Y020834D02*
X049097Y020834D01*
X049097Y020933D02*
X052441Y020933D01*
X052441Y021031D02*
X049094Y021031D01*
X049067Y021130D02*
X052441Y021130D01*
X052441Y021228D02*
X049041Y021228D01*
X049015Y021327D02*
X052441Y021327D01*
X052441Y021425D02*
X048988Y021425D01*
X048950Y021524D02*
X052441Y021524D01*
X052441Y021622D02*
X048893Y021622D01*
X048836Y021721D02*
X052441Y021721D01*
X052431Y021819D02*
X048779Y021819D01*
X048714Y021918D02*
X052480Y021918D01*
X052698Y021918D02*
X053228Y021918D01*
X053228Y022016D02*
X048616Y022016D01*
X048517Y022115D02*
X053228Y022115D01*
X053228Y022213D02*
X048419Y022213D01*
X048267Y022312D02*
X053228Y022312D01*
X053228Y022410D02*
X048096Y022410D01*
X048859Y023601D02*
X048859Y023601D01*
X048859Y023601D01*
X048882Y023592D02*
X041907Y023592D01*
X041739Y023530D02*
X041739Y023530D01*
X041540Y023573D02*
X041540Y023573D01*
X049050Y023530D02*
X049050Y023530D01*
X052895Y021819D02*
X053228Y021819D01*
X053228Y021721D02*
X053092Y021721D01*
X053149Y018175D02*
X053228Y018175D01*
X053228Y018076D02*
X052952Y018076D01*
X052755Y017978D02*
X053228Y017978D01*
X053228Y027926D02*
X053083Y027926D01*
X053228Y028025D02*
X052886Y028025D01*
X052689Y028123D02*
X053228Y028123D01*
X052359Y029712D02*
X052359Y029712D01*
X049248Y029050D02*
X049248Y029050D01*
X048849Y029010D02*
X041939Y029010D01*
X041929Y029022D02*
X041929Y029022D01*
X041929Y029022D01*
X041423Y028516D02*
X041423Y028516D01*
M02*
