%
M48
M72
T01C0.1181
T02C0.1299
T03C0.1693
T04C0.2657
T05C0.3346
T06C0.4134
T07C0.4606
%
T01
X47197Y9516
X49297Y9516
X49297Y11315
X47197Y11315
T02
X3347Y3563
X3347Y13402
X3347Y18327
X3347Y28166
X50985Y28166
X50985Y18327
X50985Y13402
X50985Y3563
T03
X31697Y9532
T04
X37097Y10319
X42997Y9985
T05
X47274Y20780
T06
X36797Y26489
X29297Y26489
T07
X14847Y24867
X8197Y24867
X6197Y10103
X12797Y10103
X19397Y10103
X25997Y10103
M30
