G75*
G70*
%OFA0B0*%
%FSLAX24Y24*%
%IPPOS*%
%LPD*%
%AMOC8*
5,1,8,0,0,1.08239X$1,22.5*
%
%ADD10C,0.0591*%
%ADD11C,0.0650*%
%ADD12C,0.1210*%
%ADD13C,0.0337*%
%ADD14C,0.0160*%
%ADD15C,0.0270*%
%ADD16C,0.0945*%
%ADD17C,0.0416*%
%ADD18C,0.0376*%
%ADD19C,0.0531*%
D10*
X012971Y001500D03*
X013971Y001500D03*
X014971Y001500D03*
X015971Y001500D03*
X016971Y001500D03*
X017971Y001500D03*
X018971Y001500D03*
X019971Y001500D03*
X018471Y002600D03*
X021771Y002600D03*
X021971Y001500D03*
X022971Y001500D03*
X023971Y001500D03*
X024971Y001500D03*
X025971Y001500D03*
X026971Y001500D03*
X020971Y005300D03*
X018471Y005900D03*
X027021Y010500D03*
X028021Y010500D03*
X028021Y011500D03*
X027021Y011500D03*
X027021Y012500D03*
X028021Y012500D03*
X026971Y020500D03*
X025971Y020500D03*
X024971Y020500D03*
X023971Y020500D03*
X022971Y020500D03*
X021971Y020500D03*
X020971Y020500D03*
X019971Y020500D03*
X018371Y020500D03*
X017371Y020500D03*
X016371Y020500D03*
X015371Y020500D03*
X014371Y020500D03*
X013371Y020500D03*
X012371Y020500D03*
X011371Y020500D03*
X010371Y020500D03*
X009371Y020500D03*
D11*
X003371Y010400D03*
X003371Y009400D03*
X003371Y008400D03*
X003371Y007400D03*
X003371Y006400D03*
X003371Y005400D03*
X003371Y004400D03*
X003371Y003400D03*
X003371Y002400D03*
X003371Y001400D03*
D12*
X008059Y002860D03*
X012084Y002860D03*
D13*
X014221Y002650D03*
X016421Y002250D03*
X016671Y002700D03*
X016471Y003600D03*
X018871Y008100D03*
X019071Y008600D03*
X018771Y009200D03*
X019171Y009500D03*
X020771Y009500D03*
X020871Y008600D03*
X023771Y009000D03*
X025371Y008650D03*
X025571Y009150D03*
X025321Y009700D03*
X024971Y011300D03*
X025871Y011300D03*
X022782Y012000D03*
X022171Y013500D03*
X020571Y014000D03*
X022171Y014700D03*
X024871Y013900D03*
X020071Y011100D03*
X019171Y012400D03*
X016671Y011750D03*
X017171Y009400D03*
X017071Y008500D03*
X017271Y014250D03*
X016471Y016200D03*
X018021Y016450D03*
X019021Y017550D03*
X017021Y017650D03*
X016071Y017650D03*
X015271Y017800D03*
X012671Y017000D03*
X012321Y017450D03*
X011421Y017000D03*
X009771Y016150D03*
X008821Y016050D03*
X007671Y015950D03*
X006671Y016000D03*
X005571Y015500D03*
X005071Y014400D03*
X004471Y014400D03*
X004071Y013700D03*
X002771Y012900D03*
X004721Y011300D03*
X004171Y011100D03*
X004671Y010600D03*
X006371Y011700D03*
X007521Y017750D03*
X005771Y018400D03*
X004371Y019500D03*
X002271Y019700D03*
X009271Y019500D03*
X009421Y017800D03*
X012671Y019000D03*
X022171Y017900D03*
X024971Y005200D03*
X002471Y002500D03*
D14*
X001971Y000730D02*
X001971Y019514D01*
X001976Y019503D01*
X002074Y019405D01*
X002202Y019352D01*
X002341Y019352D01*
X002469Y019405D01*
X002567Y019503D01*
X002620Y019631D01*
X002620Y019769D01*
X002567Y019897D01*
X002469Y019995D01*
X002341Y020048D01*
X002202Y020048D01*
X002074Y019995D01*
X001976Y019897D01*
X001971Y019886D01*
X001971Y021270D01*
X007416Y021270D01*
X007177Y021031D01*
X007034Y020686D01*
X007034Y020314D01*
X007177Y019969D01*
X007441Y019706D01*
X007785Y019563D01*
X008158Y019563D01*
X008502Y019706D01*
X008766Y019969D01*
X008840Y020147D01*
X009007Y019980D01*
X009103Y019940D01*
X022258Y019940D01*
X022911Y019286D01*
X022911Y014802D01*
X022911Y014752D01*
X022911Y014750D01*
X022911Y014748D01*
X022931Y014702D01*
X022949Y014656D01*
X022950Y014654D01*
X022951Y014653D01*
X022986Y014617D01*
X023021Y014582D01*
X023023Y014581D01*
X023024Y014580D01*
X023070Y014560D01*
X023116Y014541D01*
X023118Y014541D01*
X023120Y014540D01*
X023170Y014540D01*
X024211Y014526D01*
X024211Y010609D01*
X024251Y010513D01*
X024324Y010440D01*
X024685Y010080D01*
X024780Y010040D01*
X025232Y010040D01*
X025124Y009995D01*
X025026Y009897D01*
X024973Y009769D01*
X024973Y009631D01*
X025026Y009503D01*
X025124Y009405D01*
X025252Y009352D01*
X025280Y009352D01*
X025276Y009347D01*
X025223Y009219D01*
X025223Y009081D01*
X025264Y008982D01*
X025174Y008945D01*
X025076Y008847D01*
X025023Y008719D01*
X025023Y008581D01*
X025076Y008453D01*
X025174Y008355D01*
X025302Y008302D01*
X025441Y008302D01*
X025569Y008355D01*
X025667Y008453D01*
X025720Y008581D01*
X025720Y008719D01*
X025679Y008818D01*
X025769Y008855D01*
X025867Y008953D01*
X025911Y009060D01*
X025911Y002829D01*
X025343Y002260D01*
X022104Y002260D01*
X022174Y002331D01*
X022247Y002505D01*
X022247Y002695D01*
X022174Y002869D01*
X022041Y003003D01*
X021866Y003075D01*
X021677Y003075D01*
X021502Y003003D01*
X021369Y002869D01*
X021296Y002695D01*
X021296Y002505D01*
X021369Y002331D01*
X021439Y002260D01*
X018804Y002260D01*
X018874Y002331D01*
X018947Y002505D01*
X018947Y002695D01*
X018874Y002869D01*
X018741Y003003D01*
X018566Y003075D01*
X018377Y003075D01*
X018202Y003003D01*
X018069Y002869D01*
X017996Y002695D01*
X017996Y002505D01*
X018069Y002331D01*
X018139Y002260D01*
X016770Y002260D01*
X016770Y002319D01*
X016754Y002357D01*
X016869Y002405D01*
X016967Y002503D01*
X017020Y002631D01*
X017020Y002769D01*
X016967Y002897D01*
X016869Y002995D01*
X016741Y003048D01*
X016602Y003048D01*
X016474Y002995D01*
X016376Y002897D01*
X016323Y002769D01*
X016323Y002631D01*
X016339Y002593D01*
X016224Y002545D01*
X016126Y002447D01*
X016073Y002319D01*
X016073Y002260D01*
X012736Y002260D01*
X012640Y002220D01*
X012251Y001831D01*
X012211Y001735D01*
X012211Y000730D01*
X001971Y000730D01*
X001971Y000817D02*
X012211Y000817D01*
X012211Y000976D02*
X003661Y000976D01*
X003657Y000972D02*
X003799Y001114D01*
X003876Y001300D01*
X003876Y001500D01*
X003799Y001686D01*
X003657Y001828D01*
X003483Y001900D01*
X003657Y001972D01*
X003799Y002114D01*
X003876Y002300D01*
X003876Y002500D01*
X003799Y002686D01*
X003657Y002828D01*
X003483Y002900D01*
X003657Y002972D01*
X003799Y003114D01*
X003876Y003300D01*
X003876Y003500D01*
X003799Y003686D01*
X003657Y003828D01*
X003483Y003900D01*
X003657Y003972D01*
X003799Y004114D01*
X003876Y004300D01*
X003876Y004500D01*
X003799Y004686D01*
X003657Y004828D01*
X003483Y004900D01*
X003657Y004972D01*
X003799Y005114D01*
X003876Y005300D01*
X003876Y005500D01*
X003799Y005686D01*
X003657Y005828D01*
X003483Y005900D01*
X003657Y005972D01*
X003799Y006114D01*
X003876Y006300D01*
X003876Y006500D01*
X003799Y006686D01*
X003657Y006828D01*
X003483Y006900D01*
X003657Y006972D01*
X003799Y007114D01*
X003876Y007300D01*
X003876Y007500D01*
X003799Y007686D01*
X003657Y007828D01*
X003483Y007900D01*
X003657Y007972D01*
X003799Y008114D01*
X003876Y008300D01*
X003876Y008500D01*
X003799Y008686D01*
X003657Y008828D01*
X003483Y008900D01*
X003657Y008972D01*
X003799Y009114D01*
X003876Y009300D01*
X003876Y009500D01*
X003799Y009686D01*
X003657Y009828D01*
X003483Y009900D01*
X003657Y009972D01*
X003799Y010114D01*
X003876Y010300D01*
X003876Y010500D01*
X003799Y010686D01*
X003657Y010828D01*
X003472Y010905D01*
X003271Y010905D01*
X003086Y010828D01*
X002944Y010686D01*
X002867Y010500D01*
X002867Y010300D01*
X002944Y010114D01*
X003086Y009972D01*
X003259Y009900D01*
X003086Y009828D01*
X002944Y009686D01*
X002867Y009500D01*
X002867Y009300D01*
X002944Y009114D01*
X003086Y008972D01*
X003259Y008900D01*
X003086Y008828D01*
X002944Y008686D01*
X002867Y008500D01*
X002867Y008300D01*
X002944Y008114D01*
X003086Y007972D01*
X003259Y007900D01*
X003086Y007828D01*
X002944Y007686D01*
X002867Y007500D01*
X002867Y007300D01*
X002944Y007114D01*
X003086Y006972D01*
X003259Y006900D01*
X003086Y006828D01*
X002944Y006686D01*
X002867Y006500D01*
X002867Y006300D01*
X002944Y006114D01*
X003086Y005972D01*
X003259Y005900D01*
X003086Y005828D01*
X002944Y005686D01*
X002867Y005500D01*
X002867Y005300D01*
X002944Y005114D01*
X003086Y004972D01*
X003259Y004900D01*
X003086Y004828D01*
X002944Y004686D01*
X002867Y004500D01*
X002867Y004300D01*
X002944Y004114D01*
X003086Y003972D01*
X003259Y003900D01*
X003086Y003828D01*
X002944Y003686D01*
X002867Y003500D01*
X002867Y003300D01*
X002944Y003114D01*
X003086Y002972D01*
X003259Y002900D01*
X003086Y002828D01*
X002944Y002686D01*
X002867Y002500D01*
X002867Y002300D01*
X002944Y002114D01*
X003086Y001972D01*
X003259Y001900D01*
X003086Y001828D01*
X002944Y001686D01*
X002867Y001500D01*
X002867Y001300D01*
X002944Y001114D01*
X003086Y000972D01*
X003271Y000895D01*
X003472Y000895D01*
X003657Y000972D01*
X003808Y001134D02*
X012211Y001134D01*
X012211Y001293D02*
X003873Y001293D01*
X003876Y001451D02*
X012211Y001451D01*
X012211Y001610D02*
X003831Y001610D01*
X003717Y001768D02*
X012225Y001768D01*
X012346Y001927D02*
X003547Y001927D01*
X003770Y002085D02*
X007879Y002085D01*
X007903Y002075D02*
X008215Y002075D01*
X008504Y002195D01*
X008724Y002415D01*
X008844Y002704D01*
X008844Y003016D01*
X008724Y003305D01*
X008504Y003525D01*
X008215Y003645D01*
X007903Y003645D01*
X007614Y003525D01*
X007393Y003305D01*
X007274Y003016D01*
X007274Y002704D01*
X007393Y002415D01*
X007614Y002195D01*
X007903Y002075D01*
X008239Y002085D02*
X011904Y002085D01*
X011928Y002075D02*
X012240Y002075D01*
X012529Y002195D01*
X012749Y002415D01*
X012869Y002704D01*
X012869Y003016D01*
X012749Y003305D01*
X012529Y003525D01*
X012240Y003645D01*
X011928Y003645D01*
X011639Y003525D01*
X011418Y003305D01*
X011299Y003016D01*
X011299Y002704D01*
X011418Y002415D01*
X011639Y002195D01*
X011928Y002075D01*
X012264Y002085D02*
X012505Y002085D01*
X012578Y002244D02*
X012696Y002244D01*
X012736Y002402D02*
X013977Y002402D01*
X014024Y002355D02*
X014152Y002302D01*
X014291Y002302D01*
X014419Y002355D01*
X014517Y002453D01*
X014570Y002581D01*
X014570Y002719D01*
X016323Y002719D01*
X016368Y002878D02*
X014487Y002878D01*
X014517Y002847D02*
X014419Y002945D01*
X014291Y002998D01*
X014152Y002998D01*
X014024Y002945D01*
X013926Y002847D01*
X013873Y002719D01*
X012869Y002719D01*
X012869Y002878D02*
X013956Y002878D01*
X013873Y002719D02*
X013873Y002581D01*
X013926Y002453D01*
X014024Y002355D01*
X013881Y002561D02*
X012810Y002561D01*
X012861Y003036D02*
X016572Y003036D01*
X016771Y003036D02*
X018282Y003036D01*
X018077Y002878D02*
X016975Y002878D01*
X017020Y002719D02*
X018006Y002719D01*
X017996Y002561D02*
X016991Y002561D01*
X016863Y002402D02*
X018039Y002402D01*
X018066Y001975D02*
X017877Y001975D01*
X017702Y001903D01*
X017569Y001769D01*
X017496Y001595D01*
X017496Y001405D01*
X017569Y001231D01*
X017702Y001097D01*
X017877Y001025D01*
X018066Y001025D01*
X018241Y001097D01*
X018374Y001231D01*
X018447Y001405D01*
X018447Y001595D01*
X018374Y001769D01*
X018241Y001903D01*
X018066Y001975D01*
X018184Y001927D02*
X018759Y001927D01*
X018702Y001903D02*
X018569Y001769D01*
X018496Y001595D01*
X018496Y001405D01*
X018569Y001231D01*
X018702Y001097D01*
X018877Y001025D01*
X019066Y001025D01*
X019241Y001097D01*
X019374Y001231D01*
X019447Y001405D01*
X019447Y001595D01*
X019374Y001769D01*
X019241Y001903D01*
X019066Y001975D01*
X018877Y001975D01*
X018702Y001903D01*
X018568Y001768D02*
X018375Y001768D01*
X018441Y001610D02*
X018502Y001610D01*
X018496Y001451D02*
X018447Y001451D01*
X018400Y001293D02*
X018543Y001293D01*
X018665Y001134D02*
X018278Y001134D01*
X017665Y001134D02*
X016278Y001134D01*
X016241Y001097D02*
X016374Y001231D01*
X016447Y001405D01*
X016447Y001595D01*
X016374Y001769D01*
X016241Y001903D01*
X016066Y001975D01*
X015877Y001975D01*
X015702Y001903D01*
X015569Y001769D01*
X015496Y001595D01*
X015496Y001405D01*
X015569Y001231D01*
X015702Y001097D01*
X015877Y001025D01*
X016066Y001025D01*
X016241Y001097D01*
X016400Y001293D02*
X017543Y001293D01*
X017496Y001451D02*
X016447Y001451D01*
X016441Y001610D02*
X017502Y001610D01*
X017568Y001768D02*
X016375Y001768D01*
X016352Y001902D02*
X016491Y001902D01*
X016619Y001955D01*
X016664Y002000D01*
X025450Y002000D01*
X026171Y002721D01*
X026171Y009629D01*
X025501Y010300D01*
X024832Y010300D01*
X024471Y010661D01*
X024471Y014783D01*
X023171Y014800D01*
X023171Y019394D01*
X022365Y020200D01*
X022344Y020200D01*
X022374Y020231D01*
X022447Y020405D01*
X022447Y020595D01*
X022374Y020769D01*
X022241Y020903D01*
X022066Y020975D01*
X021877Y020975D01*
X021702Y020903D01*
X021569Y020769D01*
X021496Y020595D01*
X021496Y020405D01*
X021569Y020231D01*
X021599Y020200D01*
X021344Y020200D01*
X021374Y020231D01*
X021447Y020405D01*
X021447Y020595D01*
X021374Y020769D01*
X021241Y020903D01*
X021066Y020975D01*
X020877Y020975D01*
X020702Y020903D01*
X020569Y020769D01*
X020496Y020595D01*
X020496Y020405D01*
X020569Y020231D01*
X020599Y020200D01*
X020344Y020200D01*
X020374Y020231D01*
X020447Y020405D01*
X020447Y020595D01*
X020374Y020769D01*
X020241Y020903D01*
X020066Y020975D01*
X019877Y020975D01*
X019702Y020903D01*
X019569Y020769D01*
X019496Y020595D01*
X019496Y020405D01*
X019569Y020231D01*
X019599Y020200D01*
X018744Y020200D01*
X018774Y020231D01*
X018847Y020405D01*
X018847Y020595D01*
X018774Y020769D01*
X018641Y020903D01*
X018466Y020975D01*
X018277Y020975D01*
X018102Y020903D01*
X017969Y020769D01*
X017896Y020595D01*
X017896Y020405D01*
X017969Y020231D01*
X017999Y020200D01*
X017744Y020200D01*
X017774Y020231D01*
X017847Y020405D01*
X017847Y020595D01*
X017774Y020769D01*
X017641Y020903D01*
X017466Y020975D01*
X017277Y020975D01*
X017102Y020903D01*
X016969Y020769D01*
X016896Y020595D01*
X016896Y020405D01*
X016969Y020231D01*
X016999Y020200D01*
X016744Y020200D01*
X016774Y020231D01*
X016847Y020405D01*
X016847Y020595D01*
X016774Y020769D01*
X016641Y020903D01*
X016466Y020975D01*
X016277Y020975D01*
X016102Y020903D01*
X015969Y020769D01*
X015896Y020595D01*
X015896Y020405D01*
X015969Y020231D01*
X015999Y020200D01*
X015744Y020200D01*
X015774Y020231D01*
X015847Y020405D01*
X015847Y020595D01*
X015774Y020769D01*
X015641Y020903D01*
X015466Y020975D01*
X015277Y020975D01*
X015102Y020903D01*
X014969Y020769D01*
X014896Y020595D01*
X014896Y020405D01*
X014969Y020231D01*
X014999Y020200D01*
X014744Y020200D01*
X014774Y020231D01*
X014847Y020405D01*
X014847Y020595D01*
X014774Y020769D01*
X014641Y020903D01*
X014466Y020975D01*
X014277Y020975D01*
X014102Y020903D01*
X013969Y020769D01*
X013896Y020595D01*
X013896Y020405D01*
X013969Y020231D01*
X013999Y020200D01*
X013744Y020200D01*
X013774Y020231D01*
X013847Y020405D01*
X013847Y020595D01*
X013774Y020769D01*
X013641Y020903D01*
X013466Y020975D01*
X013277Y020975D01*
X013102Y020903D01*
X012969Y020769D01*
X012896Y020595D01*
X012896Y020405D01*
X012969Y020231D01*
X012999Y020200D01*
X012744Y020200D01*
X012774Y020231D01*
X012847Y020405D01*
X012847Y020595D01*
X012774Y020769D01*
X012641Y020903D01*
X012466Y020975D01*
X012277Y020975D01*
X012102Y020903D01*
X011969Y020769D01*
X011896Y020595D01*
X011896Y020405D01*
X011969Y020231D01*
X011999Y020200D01*
X011744Y020200D01*
X011774Y020231D01*
X011847Y020405D01*
X011847Y020595D01*
X011774Y020769D01*
X011641Y020903D01*
X011466Y020975D01*
X011277Y020975D01*
X011102Y020903D01*
X010969Y020769D01*
X010896Y020595D01*
X010896Y020405D01*
X010969Y020231D01*
X010999Y020200D01*
X010744Y020200D01*
X010774Y020231D01*
X010847Y020405D01*
X010847Y020595D01*
X010774Y020769D01*
X010641Y020903D01*
X010466Y020975D01*
X010277Y020975D01*
X010102Y020903D01*
X009969Y020769D01*
X009896Y020595D01*
X009896Y020405D01*
X009969Y020231D01*
X009999Y020200D01*
X009744Y020200D01*
X009774Y020231D01*
X009847Y020405D01*
X009847Y020595D01*
X009774Y020769D01*
X009641Y020903D01*
X009466Y020975D01*
X009277Y020975D01*
X009102Y020903D01*
X008969Y020769D01*
X008909Y020624D01*
X008909Y020686D01*
X008871Y020776D01*
X008871Y021270D01*
X027276Y021270D01*
X027741Y020805D01*
X027741Y016305D01*
X027876Y016170D01*
X028741Y015305D01*
X028741Y015055D01*
X028502Y015294D01*
X028158Y015437D01*
X027785Y015437D01*
X027441Y015294D01*
X027177Y015031D01*
X027034Y014686D01*
X027034Y014314D01*
X027177Y013969D01*
X027441Y013706D01*
X027785Y013563D01*
X028158Y013563D01*
X028502Y013706D01*
X028741Y013945D01*
X028741Y004055D01*
X028502Y004294D01*
X028158Y004437D01*
X027785Y004437D01*
X027441Y004294D01*
X027177Y004031D01*
X027034Y003686D01*
X027034Y003314D01*
X027177Y002969D01*
X027441Y002706D01*
X027785Y002563D01*
X028158Y002563D01*
X028502Y002706D01*
X028741Y002945D01*
X028741Y002595D01*
X027741Y001595D01*
X027741Y000730D01*
X012471Y000730D01*
X012471Y001684D01*
X012788Y002000D01*
X016179Y002000D01*
X016224Y001955D01*
X016352Y001902D01*
X016292Y001927D02*
X016184Y001927D01*
X016551Y001927D02*
X017759Y001927D01*
X018904Y002402D02*
X021339Y002402D01*
X021296Y002561D02*
X018947Y002561D01*
X018937Y002719D02*
X021306Y002719D01*
X021377Y002878D02*
X018866Y002878D01*
X018661Y003036D02*
X021582Y003036D01*
X021961Y003036D02*
X024316Y003036D01*
X024318Y003030D02*
X024502Y002847D01*
X024742Y002748D01*
X025001Y002748D01*
X025241Y002847D01*
X025425Y003030D01*
X025524Y003270D01*
X025524Y003530D01*
X025425Y003770D01*
X025241Y003953D01*
X025001Y004052D01*
X024742Y004052D01*
X024502Y003953D01*
X024318Y003770D01*
X024219Y003530D01*
X024219Y003270D01*
X024318Y003030D01*
X024250Y003195D02*
X012795Y003195D01*
X012701Y003353D02*
X016226Y003353D01*
X016274Y003305D02*
X016402Y003252D01*
X016541Y003252D01*
X016669Y003305D01*
X016767Y003403D01*
X016820Y003531D01*
X016820Y003669D01*
X016767Y003797D01*
X016669Y003895D01*
X016541Y003948D01*
X016402Y003948D01*
X016274Y003895D01*
X016176Y003797D01*
X016123Y003669D01*
X016123Y003531D01*
X016176Y003403D01*
X016274Y003305D01*
X016131Y003512D02*
X012543Y003512D01*
X012434Y004185D02*
X012550Y004233D01*
X012571Y004255D01*
X012593Y004233D01*
X012709Y004185D01*
X012834Y004185D01*
X012950Y004233D01*
X012971Y004255D01*
X012993Y004233D01*
X013109Y004185D01*
X013234Y004185D01*
X013350Y004233D01*
X013439Y004322D01*
X013486Y004437D01*
X013486Y004563D01*
X013439Y004678D01*
X013417Y004700D01*
X013439Y004722D01*
X013486Y004837D01*
X013486Y004963D01*
X013439Y005078D01*
X013417Y005100D01*
X013439Y005122D01*
X013486Y005237D01*
X013486Y005363D01*
X013439Y005478D01*
X013417Y005500D01*
X013439Y005522D01*
X013486Y005637D01*
X013486Y005763D01*
X013439Y005878D01*
X013417Y005900D01*
X013439Y005922D01*
X013486Y006037D01*
X013486Y006163D01*
X013439Y006278D01*
X013417Y006300D01*
X013439Y006322D01*
X013486Y006437D01*
X013486Y006563D01*
X013439Y006678D01*
X013417Y006700D01*
X013439Y006722D01*
X013486Y006837D01*
X013486Y006963D01*
X013439Y007078D01*
X013417Y007100D01*
X013439Y007122D01*
X013486Y007237D01*
X013486Y007363D01*
X013439Y007478D01*
X013417Y007500D01*
X013439Y007522D01*
X013486Y007637D01*
X013486Y007763D01*
X013439Y007878D01*
X013417Y007900D01*
X013439Y007922D01*
X013486Y008037D01*
X013486Y008163D01*
X013439Y008278D01*
X013417Y008300D01*
X013439Y008322D01*
X013486Y008437D01*
X013486Y008563D01*
X013439Y008678D01*
X013350Y008767D01*
X013234Y008815D01*
X013109Y008815D01*
X012993Y008767D01*
X012971Y008745D01*
X012950Y008767D01*
X012834Y008815D01*
X012709Y008815D01*
X012593Y008767D01*
X012571Y008745D01*
X012550Y008767D01*
X012434Y008815D01*
X012309Y008815D01*
X012193Y008767D01*
X012171Y008745D01*
X012150Y008767D01*
X012034Y008815D01*
X011909Y008815D01*
X011793Y008767D01*
X011771Y008745D01*
X011750Y008767D01*
X011634Y008815D01*
X011509Y008815D01*
X011393Y008767D01*
X011371Y008745D01*
X011350Y008767D01*
X011234Y008815D01*
X011109Y008815D01*
X010993Y008767D01*
X010971Y008745D01*
X010950Y008767D01*
X010834Y008815D01*
X010709Y008815D01*
X010593Y008767D01*
X010571Y008745D01*
X010550Y008767D01*
X010434Y008815D01*
X010309Y008815D01*
X010193Y008767D01*
X010171Y008745D01*
X010150Y008767D01*
X010034Y008815D01*
X009909Y008815D01*
X009793Y008767D01*
X009704Y008678D01*
X009656Y008563D01*
X009656Y008437D01*
X009704Y008322D01*
X009726Y008300D01*
X009704Y008278D01*
X009656Y008163D01*
X009656Y008037D01*
X009704Y007922D01*
X009726Y007900D01*
X009704Y007878D01*
X009656Y007763D01*
X009656Y007637D01*
X009704Y007522D01*
X009726Y007500D01*
X009704Y007478D01*
X009656Y007363D01*
X009656Y007237D01*
X009704Y007122D01*
X009726Y007100D01*
X009704Y007078D01*
X009656Y006963D01*
X009656Y006837D01*
X009704Y006722D01*
X009726Y006700D01*
X009704Y006678D01*
X009656Y006563D01*
X009656Y006437D01*
X009704Y006322D01*
X009726Y006300D01*
X009704Y006278D01*
X009656Y006163D01*
X009656Y006037D01*
X009704Y005922D01*
X009726Y005900D01*
X009704Y005878D01*
X009656Y005763D01*
X009656Y005637D01*
X009704Y005522D01*
X009726Y005500D01*
X009704Y005478D01*
X009656Y005363D01*
X009656Y005237D01*
X009704Y005122D01*
X009726Y005100D01*
X009704Y005078D01*
X009656Y004963D01*
X009656Y004837D01*
X009704Y004722D01*
X009726Y004700D01*
X009704Y004678D01*
X009656Y004563D01*
X009656Y004437D01*
X009704Y004322D01*
X009793Y004233D01*
X009909Y004185D01*
X010034Y004185D01*
X010150Y004233D01*
X010171Y004255D01*
X010193Y004233D01*
X010309Y004185D01*
X010434Y004185D01*
X010550Y004233D01*
X010571Y004255D01*
X010593Y004233D01*
X010709Y004185D01*
X010834Y004185D01*
X010950Y004233D01*
X010971Y004255D01*
X010993Y004233D01*
X011109Y004185D01*
X011234Y004185D01*
X011350Y004233D01*
X011371Y004255D01*
X011393Y004233D01*
X011509Y004185D01*
X011634Y004185D01*
X011750Y004233D01*
X011771Y004255D01*
X011793Y004233D01*
X011909Y004185D01*
X012034Y004185D01*
X012150Y004233D01*
X012171Y004255D01*
X012193Y004233D01*
X012309Y004185D01*
X012434Y004185D01*
X011625Y003512D02*
X008518Y003512D01*
X008676Y003353D02*
X011467Y003353D01*
X011373Y003195D02*
X008770Y003195D01*
X008836Y003036D02*
X011307Y003036D01*
X011299Y002878D02*
X008844Y002878D01*
X008844Y002719D02*
X011299Y002719D01*
X011358Y002561D02*
X008785Y002561D01*
X008711Y002402D02*
X011432Y002402D01*
X011590Y002244D02*
X008553Y002244D01*
X007565Y002244D02*
X003853Y002244D01*
X003876Y002402D02*
X007407Y002402D01*
X007333Y002561D02*
X003851Y002561D01*
X003766Y002719D02*
X007274Y002719D01*
X007274Y002878D02*
X003538Y002878D01*
X003721Y003036D02*
X007282Y003036D01*
X007348Y003195D02*
X003833Y003195D01*
X003876Y003353D02*
X007442Y003353D01*
X007600Y003512D02*
X003872Y003512D01*
X003806Y003670D02*
X016123Y003670D01*
X016207Y003829D02*
X009139Y003829D01*
X009150Y003833D02*
X009239Y003922D01*
X009286Y004037D01*
X009286Y004163D01*
X009239Y004278D01*
X009217Y004300D01*
X009239Y004322D01*
X009286Y004437D01*
X009286Y004563D01*
X009239Y004678D01*
X009217Y004700D01*
X009239Y004722D01*
X009286Y004837D01*
X009286Y004963D01*
X009239Y005078D01*
X009217Y005100D01*
X009239Y005122D01*
X009286Y005237D01*
X009286Y005363D01*
X009239Y005478D01*
X009217Y005500D01*
X009239Y005522D01*
X009286Y005637D01*
X009286Y005763D01*
X009239Y005878D01*
X009217Y005900D01*
X009239Y005922D01*
X009286Y006037D01*
X009286Y006163D01*
X009239Y006278D01*
X009217Y006300D01*
X009239Y006322D01*
X009286Y006437D01*
X009286Y006563D01*
X009239Y006678D01*
X009217Y006700D01*
X009239Y006722D01*
X009286Y006837D01*
X009286Y006963D01*
X009239Y007078D01*
X009217Y007100D01*
X009239Y007122D01*
X009286Y007237D01*
X009286Y007363D01*
X009239Y007478D01*
X009150Y007567D01*
X009034Y007615D01*
X008909Y007615D01*
X008793Y007567D01*
X008771Y007545D01*
X008750Y007567D01*
X008634Y007615D01*
X008509Y007615D01*
X008393Y007567D01*
X008371Y007545D01*
X008350Y007567D01*
X008234Y007615D01*
X008109Y007615D01*
X007993Y007567D01*
X007971Y007545D01*
X007950Y007567D01*
X007834Y007615D01*
X007709Y007615D01*
X007593Y007567D01*
X007571Y007545D01*
X007550Y007567D01*
X007434Y007615D01*
X007309Y007615D01*
X007193Y007567D01*
X007171Y007545D01*
X007150Y007567D01*
X007034Y007615D01*
X006909Y007615D01*
X006793Y007567D01*
X006771Y007545D01*
X006750Y007567D01*
X006634Y007615D01*
X006509Y007615D01*
X006393Y007567D01*
X006371Y007545D01*
X006350Y007567D01*
X006234Y007615D01*
X006109Y007615D01*
X005993Y007567D01*
X005971Y007545D01*
X005950Y007567D01*
X005834Y007615D01*
X005709Y007615D01*
X005593Y007567D01*
X005571Y007545D01*
X005550Y007567D01*
X005434Y007615D01*
X005309Y007615D01*
X005193Y007567D01*
X005171Y007545D01*
X005150Y007567D01*
X005034Y007615D01*
X004909Y007615D01*
X004793Y007567D01*
X004704Y007478D01*
X004656Y007363D01*
X004656Y007237D01*
X004704Y007122D01*
X004726Y007100D01*
X004704Y007078D01*
X004656Y006963D01*
X004656Y006837D01*
X004704Y006722D01*
X004726Y006700D01*
X004704Y006678D01*
X004656Y006563D01*
X004656Y006437D01*
X004704Y006322D01*
X004726Y006300D01*
X004704Y006278D01*
X004656Y006163D01*
X004656Y006037D01*
X004704Y005922D01*
X004726Y005900D01*
X004704Y005878D01*
X004656Y005763D01*
X004656Y005637D01*
X004704Y005522D01*
X004726Y005500D01*
X004704Y005478D01*
X004656Y005363D01*
X004656Y005237D01*
X004704Y005122D01*
X004726Y005100D01*
X004704Y005078D01*
X004656Y004963D01*
X004656Y004837D01*
X004704Y004722D01*
X004726Y004700D01*
X004704Y004678D01*
X004656Y004563D01*
X004656Y004437D01*
X004704Y004322D01*
X004726Y004300D01*
X004704Y004278D01*
X004656Y004163D01*
X004656Y004037D01*
X004704Y003922D01*
X004793Y003833D01*
X004909Y003785D01*
X005034Y003785D01*
X005150Y003833D01*
X005171Y003855D01*
X005193Y003833D01*
X005309Y003785D01*
X005434Y003785D01*
X005550Y003833D01*
X005571Y003855D01*
X005593Y003833D01*
X005709Y003785D01*
X005834Y003785D01*
X005950Y003833D01*
X005971Y003855D01*
X005993Y003833D01*
X006109Y003785D01*
X006234Y003785D01*
X006350Y003833D01*
X006371Y003855D01*
X006393Y003833D01*
X006509Y003785D01*
X006634Y003785D01*
X006750Y003833D01*
X006771Y003855D01*
X006793Y003833D01*
X006909Y003785D01*
X007034Y003785D01*
X007150Y003833D01*
X007171Y003855D01*
X007193Y003833D01*
X007309Y003785D01*
X007434Y003785D01*
X007550Y003833D01*
X007571Y003855D01*
X007593Y003833D01*
X007709Y003785D01*
X007834Y003785D01*
X007950Y003833D01*
X007971Y003855D01*
X007993Y003833D01*
X008109Y003785D01*
X008234Y003785D01*
X008350Y003833D01*
X008371Y003855D01*
X008393Y003833D01*
X008509Y003785D01*
X008634Y003785D01*
X008750Y003833D01*
X008771Y003855D01*
X008793Y003833D01*
X008909Y003785D01*
X009034Y003785D01*
X009150Y003833D01*
X009266Y003987D02*
X024584Y003987D01*
X024377Y003829D02*
X016736Y003829D01*
X016820Y003670D02*
X024277Y003670D01*
X024219Y003512D02*
X016812Y003512D01*
X016717Y003353D02*
X024219Y003353D01*
X024471Y002878D02*
X022166Y002878D01*
X022237Y002719D02*
X025802Y002719D01*
X025911Y002878D02*
X025272Y002878D01*
X025427Y003036D02*
X025911Y003036D01*
X025911Y003195D02*
X025493Y003195D01*
X025524Y003353D02*
X025911Y003353D01*
X025911Y003512D02*
X025524Y003512D01*
X025466Y003670D02*
X025911Y003670D01*
X025911Y003829D02*
X025366Y003829D01*
X025159Y003987D02*
X025911Y003987D01*
X025911Y004146D02*
X009286Y004146D01*
X009221Y004304D02*
X009722Y004304D01*
X009656Y004463D02*
X009286Y004463D01*
X009262Y004621D02*
X009681Y004621D01*
X009680Y004780D02*
X009262Y004780D01*
X009286Y004938D02*
X009656Y004938D01*
X009722Y005097D02*
X009220Y005097D01*
X009286Y005255D02*
X009656Y005255D01*
X009678Y005414D02*
X009265Y005414D01*
X009259Y005572D02*
X009684Y005572D01*
X009656Y005731D02*
X009286Y005731D01*
X009228Y005889D02*
X009715Y005889D01*
X009656Y006048D02*
X009286Y006048D01*
X009268Y006206D02*
X009674Y006206D01*
X009687Y006365D02*
X009256Y006365D01*
X009286Y006523D02*
X009656Y006523D01*
X009707Y006682D02*
X009235Y006682D01*
X009286Y006840D02*
X009656Y006840D01*
X009671Y006999D02*
X009272Y006999D01*
X009253Y007157D02*
X009690Y007157D01*
X009656Y007316D02*
X009286Y007316D01*
X009240Y007474D02*
X009703Y007474D01*
X009658Y007633D02*
X003822Y007633D01*
X003876Y007474D02*
X004703Y007474D01*
X004656Y007316D02*
X003876Y007316D01*
X003817Y007157D02*
X004690Y007157D01*
X004671Y006999D02*
X003684Y006999D01*
X003628Y006840D02*
X004656Y006840D01*
X004707Y006682D02*
X003801Y006682D01*
X003867Y006523D02*
X004656Y006523D01*
X004687Y006365D02*
X003876Y006365D01*
X003837Y006206D02*
X004674Y006206D01*
X004656Y006048D02*
X003733Y006048D01*
X003510Y005889D02*
X004715Y005889D01*
X004656Y005731D02*
X003755Y005731D01*
X003847Y005572D02*
X004684Y005572D01*
X004678Y005414D02*
X003876Y005414D01*
X003858Y005255D02*
X004656Y005255D01*
X004722Y005097D02*
X003782Y005097D01*
X003575Y004938D02*
X004656Y004938D01*
X004680Y004780D02*
X003706Y004780D01*
X003826Y004621D02*
X004681Y004621D01*
X004656Y004463D02*
X003876Y004463D01*
X003876Y004304D02*
X004722Y004304D01*
X004656Y004146D02*
X003812Y004146D01*
X003672Y003987D02*
X004677Y003987D01*
X004804Y003829D02*
X003656Y003829D01*
X003087Y003829D02*
X001971Y003829D01*
X001971Y003987D02*
X003071Y003987D01*
X002930Y004146D02*
X001971Y004146D01*
X001971Y004304D02*
X002867Y004304D01*
X002867Y004463D02*
X001971Y004463D01*
X001971Y004621D02*
X002917Y004621D01*
X003037Y004780D02*
X001971Y004780D01*
X001971Y004938D02*
X003168Y004938D01*
X002961Y005097D02*
X001971Y005097D01*
X001971Y005255D02*
X002885Y005255D01*
X002867Y005414D02*
X001971Y005414D01*
X001971Y005572D02*
X002896Y005572D01*
X002988Y005731D02*
X001971Y005731D01*
X001971Y005889D02*
X003233Y005889D01*
X003010Y006048D02*
X001971Y006048D01*
X001971Y006206D02*
X002905Y006206D01*
X002867Y006365D02*
X001971Y006365D01*
X001971Y006523D02*
X002876Y006523D01*
X002942Y006682D02*
X001971Y006682D01*
X001971Y006840D02*
X003115Y006840D01*
X003059Y006999D02*
X001971Y006999D01*
X001971Y007157D02*
X002926Y007157D01*
X002867Y007316D02*
X001971Y007316D01*
X001971Y007474D02*
X002867Y007474D01*
X002921Y007633D02*
X001971Y007633D01*
X001971Y007791D02*
X003049Y007791D01*
X003140Y007950D02*
X001971Y007950D01*
X001971Y008108D02*
X002950Y008108D01*
X002880Y008267D02*
X001971Y008267D01*
X001971Y008425D02*
X002867Y008425D01*
X002901Y008584D02*
X001971Y008584D01*
X001971Y008742D02*
X003000Y008742D01*
X003258Y008901D02*
X001971Y008901D01*
X001971Y009059D02*
X002999Y009059D01*
X002901Y009218D02*
X001971Y009218D01*
X001971Y009376D02*
X002867Y009376D01*
X002881Y009535D02*
X001971Y009535D01*
X001971Y009693D02*
X002951Y009693D01*
X003142Y009852D02*
X001971Y009852D01*
X001971Y010010D02*
X003048Y010010D01*
X002921Y010169D02*
X001971Y010169D01*
X001971Y010327D02*
X002867Y010327D01*
X002867Y010486D02*
X001971Y010486D01*
X001971Y010644D02*
X002926Y010644D01*
X003060Y010803D02*
X001971Y010803D01*
X001971Y010961D02*
X003852Y010961D01*
X003876Y010903D02*
X003823Y011031D01*
X003823Y011169D01*
X003876Y011297D01*
X003974Y011395D01*
X004102Y011448D01*
X004241Y011448D01*
X004369Y011395D01*
X004467Y011297D01*
X004520Y011169D01*
X004520Y011031D01*
X004467Y010903D01*
X004369Y010805D01*
X004241Y010752D01*
X004102Y010752D01*
X003974Y010805D01*
X003876Y010903D01*
X003979Y010803D02*
X003683Y010803D01*
X003817Y010644D02*
X004323Y010644D01*
X004323Y010669D02*
X004323Y010531D01*
X004376Y010403D01*
X004474Y010305D01*
X004602Y010252D01*
X004741Y010252D01*
X004869Y010305D01*
X004967Y010403D01*
X005020Y010531D01*
X005020Y010669D01*
X004967Y010797D01*
X004869Y010895D01*
X004741Y010948D01*
X004602Y010948D01*
X004474Y010895D01*
X004376Y010797D01*
X004323Y010669D01*
X004364Y010803D02*
X004381Y010803D01*
X004491Y010961D02*
X019752Y010961D01*
X019776Y010903D02*
X019723Y011031D01*
X019723Y011169D01*
X019776Y011297D01*
X019874Y011395D01*
X020002Y011448D01*
X020141Y011448D01*
X020269Y011395D01*
X020367Y011297D01*
X020420Y011169D01*
X020420Y011031D01*
X020367Y010903D01*
X020269Y010805D01*
X020141Y010752D01*
X020002Y010752D01*
X019874Y010805D01*
X019776Y010903D01*
X019879Y010803D02*
X004962Y010803D01*
X005020Y010644D02*
X024211Y010644D01*
X024211Y010803D02*
X020264Y010803D01*
X020391Y010961D02*
X024211Y010961D01*
X024211Y011120D02*
X020420Y011120D01*
X020375Y011278D02*
X024211Y011278D01*
X024211Y011437D02*
X020170Y011437D01*
X019973Y011437D02*
X016825Y011437D01*
X016869Y011455D02*
X016967Y011553D01*
X017020Y011681D01*
X017020Y011819D01*
X016967Y011947D01*
X016869Y012045D01*
X016741Y012098D01*
X016602Y012098D01*
X016474Y012045D01*
X016376Y011947D01*
X016323Y011819D01*
X016323Y011681D01*
X016376Y011553D01*
X016474Y011455D01*
X016602Y011402D01*
X016741Y011402D01*
X016869Y011455D01*
X016984Y011595D02*
X024211Y011595D01*
X024211Y011754D02*
X023028Y011754D01*
X022979Y011705D02*
X023077Y011803D01*
X023130Y011931D01*
X023130Y012069D01*
X023077Y012197D01*
X022979Y012295D01*
X022851Y012348D01*
X022713Y012348D01*
X022585Y012295D01*
X022487Y012197D01*
X022434Y012069D01*
X022434Y011931D01*
X022487Y011803D01*
X022585Y011705D01*
X022713Y011652D01*
X022851Y011652D01*
X022979Y011705D01*
X023123Y011912D02*
X024211Y011912D01*
X024211Y012071D02*
X023130Y012071D01*
X023046Y012229D02*
X024211Y012229D01*
X024211Y012388D02*
X019520Y012388D01*
X019520Y012331D02*
X019467Y012203D01*
X019369Y012105D01*
X019241Y012052D01*
X019102Y012052D01*
X018974Y012105D01*
X018876Y012203D01*
X018823Y012331D01*
X018823Y012469D01*
X018876Y012597D01*
X018974Y012695D01*
X019102Y012748D01*
X019241Y012748D01*
X019369Y012695D01*
X019467Y012597D01*
X019520Y012469D01*
X019520Y012331D01*
X019478Y012229D02*
X022518Y012229D01*
X022434Y012071D02*
X019286Y012071D01*
X019056Y012071D02*
X016808Y012071D01*
X016981Y011912D02*
X022441Y011912D01*
X022536Y011754D02*
X017020Y011754D01*
X016535Y012071D02*
X001971Y012071D01*
X001971Y012229D02*
X018865Y012229D01*
X018823Y012388D02*
X001971Y012388D01*
X001971Y012546D02*
X018855Y012546D01*
X018996Y012705D02*
X003068Y012705D01*
X003067Y012703D02*
X003120Y012831D01*
X003120Y012969D01*
X003067Y013097D01*
X002969Y013195D01*
X002841Y013248D01*
X002702Y013248D01*
X002574Y013195D01*
X002476Y013097D01*
X002423Y012969D01*
X002423Y012831D01*
X002476Y012703D01*
X002574Y012605D01*
X002702Y012552D01*
X002841Y012552D01*
X002969Y012605D01*
X003067Y012703D01*
X003120Y012863D02*
X024211Y012863D01*
X024211Y012705D02*
X019347Y012705D01*
X019488Y012546D02*
X024211Y012546D01*
X024471Y012546D02*
X026546Y012546D01*
X026546Y012595D02*
X026546Y012405D01*
X026619Y012231D01*
X026752Y012097D01*
X026927Y012025D01*
X027116Y012025D01*
X027291Y012097D01*
X027424Y012231D01*
X027497Y012405D01*
X027497Y012595D01*
X027424Y012769D01*
X027291Y012903D01*
X027116Y012975D01*
X026927Y012975D01*
X026752Y012903D01*
X026619Y012769D01*
X026546Y012595D01*
X026592Y012705D02*
X024471Y012705D01*
X024471Y012863D02*
X026712Y012863D01*
X026554Y012388D02*
X024471Y012388D01*
X024471Y012229D02*
X026620Y012229D01*
X026816Y012071D02*
X024471Y012071D01*
X024471Y011912D02*
X026774Y011912D01*
X026752Y011903D02*
X026619Y011769D01*
X026546Y011595D01*
X025169Y011595D01*
X025041Y011648D01*
X024902Y011648D01*
X024774Y011595D01*
X024471Y011595D01*
X024471Y011437D02*
X024651Y011437D01*
X024676Y011497D02*
X024623Y011369D01*
X024623Y011231D01*
X024676Y011103D01*
X024774Y011005D01*
X024902Y010952D01*
X025041Y010952D01*
X025169Y011005D01*
X025267Y011103D01*
X025320Y011231D01*
X025320Y011369D01*
X025267Y011497D01*
X025169Y011595D01*
X025292Y011437D02*
X026546Y011437D01*
X026546Y011405D02*
X026619Y011231D01*
X026752Y011097D01*
X026927Y011025D01*
X027116Y011025D01*
X027291Y011097D01*
X027424Y011231D01*
X027497Y011405D01*
X027497Y011595D01*
X027546Y011595D01*
X027546Y011405D01*
X027619Y011231D01*
X027752Y011097D01*
X027927Y011025D01*
X028116Y011025D01*
X028291Y011097D01*
X028424Y011231D01*
X028497Y011405D01*
X028497Y011595D01*
X028741Y011595D01*
X028741Y011437D02*
X028497Y011437D01*
X028497Y011595D02*
X028424Y011769D01*
X028291Y011903D01*
X028116Y011975D01*
X027927Y011975D01*
X027752Y011903D01*
X027619Y011769D01*
X027546Y011595D01*
X027497Y011595D02*
X027424Y011769D01*
X027291Y011903D01*
X027116Y011975D01*
X026927Y011975D01*
X026752Y011903D01*
X026612Y011754D02*
X024471Y011754D01*
X024676Y011497D02*
X024774Y011595D01*
X024623Y011278D02*
X024471Y011278D01*
X024471Y011120D02*
X024669Y011120D01*
X024471Y010961D02*
X024879Y010961D01*
X025064Y010961D02*
X026892Y010961D01*
X026927Y010975D02*
X026752Y010903D01*
X026619Y010769D01*
X026546Y010595D01*
X026546Y010405D01*
X026619Y010231D01*
X026752Y010097D01*
X026927Y010025D01*
X027116Y010025D01*
X027291Y010097D01*
X027424Y010231D01*
X027497Y010405D01*
X027497Y010595D01*
X027424Y010769D01*
X027291Y010903D01*
X027116Y010975D01*
X026927Y010975D01*
X027150Y010961D02*
X027892Y010961D01*
X027927Y010975D02*
X027752Y010903D01*
X027619Y010769D01*
X027546Y010595D01*
X027546Y010405D01*
X027619Y010231D01*
X027752Y010097D01*
X027927Y010025D01*
X028116Y010025D01*
X028291Y010097D01*
X028424Y010231D01*
X028497Y010405D01*
X028497Y010595D01*
X028424Y010769D01*
X028291Y010903D01*
X028116Y010975D01*
X027927Y010975D01*
X028150Y010961D02*
X028741Y010961D01*
X028741Y010803D02*
X028391Y010803D01*
X028476Y010644D02*
X028741Y010644D01*
X028741Y010486D02*
X028497Y010486D01*
X028464Y010327D02*
X028741Y010327D01*
X028741Y010169D02*
X028362Y010169D01*
X028741Y010010D02*
X025791Y010010D01*
X025949Y009852D02*
X028741Y009852D01*
X028741Y009693D02*
X026108Y009693D01*
X026171Y009535D02*
X028741Y009535D01*
X028741Y009376D02*
X026171Y009376D01*
X026171Y009218D02*
X028741Y009218D01*
X028741Y009059D02*
X026171Y009059D01*
X026171Y008901D02*
X028741Y008901D01*
X028741Y008742D02*
X026171Y008742D01*
X026171Y008584D02*
X028741Y008584D01*
X028741Y008425D02*
X026171Y008425D01*
X026171Y008267D02*
X028741Y008267D01*
X028741Y008108D02*
X026171Y008108D01*
X026171Y007950D02*
X028741Y007950D01*
X028741Y007791D02*
X026171Y007791D01*
X026171Y007633D02*
X028741Y007633D01*
X028741Y007474D02*
X026171Y007474D01*
X026171Y007316D02*
X028741Y007316D01*
X028741Y007157D02*
X026171Y007157D01*
X026171Y006999D02*
X028741Y006999D01*
X028741Y006840D02*
X026171Y006840D01*
X026171Y006682D02*
X028741Y006682D01*
X028741Y006523D02*
X026171Y006523D01*
X026171Y006365D02*
X028741Y006365D01*
X028741Y006206D02*
X026171Y006206D01*
X026171Y006048D02*
X028741Y006048D01*
X028741Y005889D02*
X026171Y005889D01*
X026171Y005731D02*
X028741Y005731D01*
X028741Y005572D02*
X026171Y005572D01*
X026171Y005414D02*
X028741Y005414D01*
X028741Y005255D02*
X026171Y005255D01*
X026171Y005097D02*
X028741Y005097D01*
X028741Y004938D02*
X026171Y004938D01*
X026171Y004780D02*
X028741Y004780D01*
X028741Y004621D02*
X026171Y004621D01*
X026171Y004463D02*
X028741Y004463D01*
X028741Y004304D02*
X028479Y004304D01*
X028651Y004146D02*
X028741Y004146D01*
X027464Y004304D02*
X026171Y004304D01*
X026171Y004146D02*
X027292Y004146D01*
X027159Y003987D02*
X026171Y003987D01*
X026171Y003829D02*
X027093Y003829D01*
X027034Y003670D02*
X026171Y003670D01*
X026171Y003512D02*
X027034Y003512D01*
X027034Y003353D02*
X026171Y003353D01*
X026171Y003195D02*
X027084Y003195D01*
X027149Y003036D02*
X026171Y003036D01*
X026171Y002878D02*
X027269Y002878D01*
X027427Y002719D02*
X026169Y002719D01*
X026011Y002561D02*
X028707Y002561D01*
X028741Y002719D02*
X028516Y002719D01*
X028674Y002878D02*
X028741Y002878D01*
X028548Y002402D02*
X025852Y002402D01*
X025694Y002244D02*
X028390Y002244D01*
X028231Y002085D02*
X025535Y002085D01*
X025702Y001903D02*
X025569Y001769D01*
X025496Y001595D01*
X025496Y001405D01*
X025569Y001231D01*
X025702Y001097D01*
X025877Y001025D01*
X026066Y001025D01*
X026241Y001097D01*
X026374Y001231D01*
X026447Y001405D01*
X026447Y001595D01*
X026374Y001769D01*
X026241Y001903D01*
X026066Y001975D01*
X025877Y001975D01*
X025702Y001903D01*
X025759Y001927D02*
X025184Y001927D01*
X025241Y001903D02*
X025066Y001975D01*
X024877Y001975D01*
X024702Y001903D01*
X024569Y001769D01*
X024496Y001595D01*
X024496Y001405D01*
X024569Y001231D01*
X024702Y001097D01*
X024877Y001025D01*
X025066Y001025D01*
X025241Y001097D01*
X025374Y001231D01*
X025447Y001405D01*
X025447Y001595D01*
X025374Y001769D01*
X025241Y001903D01*
X025375Y001768D02*
X025568Y001768D01*
X025502Y001610D02*
X025441Y001610D01*
X025447Y001451D02*
X025496Y001451D01*
X025543Y001293D02*
X025400Y001293D01*
X025278Y001134D02*
X025665Y001134D01*
X026278Y001134D02*
X026665Y001134D01*
X026702Y001097D02*
X026569Y001231D01*
X026496Y001405D01*
X026496Y001595D01*
X026569Y001769D01*
X026702Y001903D01*
X026877Y001975D01*
X027066Y001975D01*
X027241Y001903D01*
X027374Y001769D01*
X027447Y001595D01*
X027447Y001405D01*
X027374Y001231D01*
X027241Y001097D01*
X027066Y001025D01*
X026877Y001025D01*
X026702Y001097D01*
X026543Y001293D02*
X026400Y001293D01*
X026447Y001451D02*
X026496Y001451D01*
X026502Y001610D02*
X026441Y001610D01*
X026375Y001768D02*
X026568Y001768D01*
X026759Y001927D02*
X026184Y001927D01*
X025643Y002561D02*
X022247Y002561D01*
X022204Y002402D02*
X025485Y002402D01*
X024759Y001927D02*
X024184Y001927D01*
X024241Y001903D02*
X024066Y001975D01*
X023877Y001975D01*
X023702Y001903D01*
X023569Y001769D01*
X023496Y001595D01*
X023496Y001405D01*
X023569Y001231D01*
X023702Y001097D01*
X023877Y001025D01*
X024066Y001025D01*
X024241Y001097D01*
X024374Y001231D01*
X024447Y001405D01*
X024447Y001595D01*
X024374Y001769D01*
X024241Y001903D01*
X024375Y001768D02*
X024568Y001768D01*
X024502Y001610D02*
X024441Y001610D01*
X024447Y001451D02*
X024496Y001451D01*
X024543Y001293D02*
X024400Y001293D01*
X024278Y001134D02*
X024665Y001134D01*
X023759Y001927D02*
X023184Y001927D01*
X023241Y001903D02*
X023066Y001975D01*
X022877Y001975D01*
X022702Y001903D01*
X022569Y001769D01*
X022496Y001595D01*
X022496Y001405D01*
X022569Y001231D01*
X022702Y001097D01*
X022877Y001025D01*
X023066Y001025D01*
X023241Y001097D01*
X023374Y001231D01*
X023447Y001405D01*
X023447Y001595D01*
X023374Y001769D01*
X023241Y001903D01*
X023375Y001768D02*
X023568Y001768D01*
X023502Y001610D02*
X023441Y001610D01*
X023447Y001451D02*
X023496Y001451D01*
X023543Y001293D02*
X023400Y001293D01*
X023278Y001134D02*
X023665Y001134D01*
X022665Y001134D02*
X022278Y001134D01*
X022241Y001097D02*
X022374Y001231D01*
X022447Y001405D01*
X022447Y001595D01*
X022374Y001769D01*
X022241Y001903D01*
X022066Y001975D01*
X021877Y001975D01*
X021702Y001903D01*
X021569Y001769D01*
X021496Y001595D01*
X021496Y001405D01*
X021569Y001231D01*
X021702Y001097D01*
X021877Y001025D01*
X022066Y001025D01*
X022241Y001097D01*
X022400Y001293D02*
X022543Y001293D01*
X022496Y001451D02*
X022447Y001451D01*
X022441Y001610D02*
X022502Y001610D01*
X022568Y001768D02*
X022375Y001768D01*
X022184Y001927D02*
X022759Y001927D01*
X021759Y001927D02*
X020184Y001927D01*
X020241Y001903D02*
X020066Y001975D01*
X019877Y001975D01*
X019702Y001903D01*
X019569Y001769D01*
X019496Y001595D01*
X019496Y001405D01*
X019569Y001231D01*
X019702Y001097D01*
X019877Y001025D01*
X020066Y001025D01*
X020241Y001097D01*
X020374Y001231D01*
X020447Y001405D01*
X020447Y001595D01*
X020374Y001769D01*
X020241Y001903D01*
X020375Y001768D02*
X021568Y001768D01*
X021502Y001610D02*
X020441Y001610D01*
X020447Y001451D02*
X021496Y001451D01*
X021543Y001293D02*
X020400Y001293D01*
X020278Y001134D02*
X021665Y001134D01*
X019665Y001134D02*
X019278Y001134D01*
X019400Y001293D02*
X019543Y001293D01*
X019496Y001451D02*
X019447Y001451D01*
X019441Y001610D02*
X019502Y001610D01*
X019568Y001768D02*
X019375Y001768D01*
X019184Y001927D02*
X019759Y001927D01*
X016261Y002561D02*
X014562Y002561D01*
X014570Y002719D02*
X014517Y002847D01*
X014466Y002402D02*
X016107Y002402D01*
X015759Y001927D02*
X015184Y001927D01*
X015241Y001903D02*
X015066Y001975D01*
X014877Y001975D01*
X014702Y001903D01*
X014569Y001769D01*
X014496Y001595D01*
X014496Y001405D01*
X014569Y001231D01*
X014702Y001097D01*
X014877Y001025D01*
X015066Y001025D01*
X015241Y001097D01*
X015374Y001231D01*
X015447Y001405D01*
X015447Y001595D01*
X015374Y001769D01*
X015241Y001903D01*
X015375Y001768D02*
X015568Y001768D01*
X015502Y001610D02*
X015441Y001610D01*
X015447Y001451D02*
X015496Y001451D01*
X015543Y001293D02*
X015400Y001293D01*
X015278Y001134D02*
X015665Y001134D01*
X014665Y001134D02*
X014278Y001134D01*
X014241Y001097D02*
X014374Y001231D01*
X014447Y001405D01*
X014447Y001595D01*
X014374Y001769D01*
X014241Y001903D01*
X014066Y001975D01*
X013877Y001975D01*
X013702Y001903D01*
X013569Y001769D01*
X013496Y001595D01*
X013496Y001405D01*
X013569Y001231D01*
X013702Y001097D01*
X013877Y001025D01*
X014066Y001025D01*
X014241Y001097D01*
X014400Y001293D02*
X014543Y001293D01*
X014496Y001451D02*
X014447Y001451D01*
X014441Y001610D02*
X014502Y001610D01*
X014568Y001768D02*
X014375Y001768D01*
X014184Y001927D02*
X014759Y001927D01*
X013759Y001927D02*
X013184Y001927D01*
X013241Y001903D02*
X013066Y001975D01*
X012877Y001975D01*
X012702Y001903D01*
X012569Y001769D01*
X012496Y001595D01*
X012496Y001405D01*
X012569Y001231D01*
X012702Y001097D01*
X012877Y001025D01*
X013066Y001025D01*
X013241Y001097D01*
X013374Y001231D01*
X013447Y001405D01*
X013447Y001595D01*
X013374Y001769D01*
X013241Y001903D01*
X013375Y001768D02*
X013568Y001768D01*
X013502Y001610D02*
X013441Y001610D01*
X013447Y001451D02*
X013496Y001451D01*
X013543Y001293D02*
X013400Y001293D01*
X013278Y001134D02*
X013665Y001134D01*
X012759Y001927D02*
X012714Y001927D01*
X012568Y001768D02*
X012556Y001768D01*
X012502Y001610D02*
X012471Y001610D01*
X012471Y001451D02*
X012496Y001451D01*
X012471Y001293D02*
X012543Y001293D01*
X012471Y001134D02*
X012665Y001134D01*
X012471Y000976D02*
X027741Y000976D01*
X027741Y001134D02*
X027278Y001134D01*
X027400Y001293D02*
X027741Y001293D01*
X027741Y001451D02*
X027447Y001451D01*
X027441Y001610D02*
X027756Y001610D01*
X027914Y001768D02*
X027375Y001768D01*
X027184Y001927D02*
X028073Y001927D01*
X027741Y000817D02*
X012471Y000817D01*
X008804Y003829D02*
X008739Y003829D01*
X008404Y003829D02*
X008339Y003829D01*
X008004Y003829D02*
X007939Y003829D01*
X007604Y003829D02*
X007539Y003829D01*
X007204Y003829D02*
X007139Y003829D01*
X006804Y003829D02*
X006739Y003829D01*
X006404Y003829D02*
X006339Y003829D01*
X006004Y003829D02*
X005939Y003829D01*
X005604Y003829D02*
X005539Y003829D01*
X005204Y003829D02*
X005139Y003829D01*
X003205Y002878D02*
X001971Y002878D01*
X001971Y003036D02*
X003022Y003036D01*
X002910Y003195D02*
X001971Y003195D01*
X001971Y003353D02*
X002867Y003353D01*
X002871Y003512D02*
X001971Y003512D01*
X001971Y003670D02*
X002937Y003670D01*
X002541Y002848D02*
X002402Y002848D01*
X002274Y002795D01*
X002176Y002697D01*
X002123Y002569D01*
X002123Y002431D01*
X002176Y002303D01*
X002274Y002205D01*
X002402Y002152D01*
X002541Y002152D01*
X002669Y002205D01*
X002767Y002303D01*
X002820Y002431D01*
X002820Y002569D01*
X002767Y002697D01*
X002669Y002795D01*
X002541Y002848D01*
X002745Y002719D02*
X002977Y002719D01*
X002892Y002561D02*
X002820Y002561D01*
X002808Y002402D02*
X002867Y002402D01*
X002890Y002244D02*
X002708Y002244D01*
X002973Y002085D02*
X001971Y002085D01*
X001971Y001927D02*
X003195Y001927D01*
X003026Y001768D02*
X001971Y001768D01*
X001971Y001610D02*
X002912Y001610D01*
X002867Y001451D02*
X001971Y001451D01*
X001971Y001293D02*
X002870Y001293D01*
X002935Y001134D02*
X001971Y001134D01*
X001971Y000976D02*
X003082Y000976D01*
X002235Y002244D02*
X001971Y002244D01*
X001971Y002402D02*
X002135Y002402D01*
X002123Y002561D02*
X001971Y002561D01*
X001971Y002719D02*
X002198Y002719D01*
X003694Y007791D02*
X009668Y007791D01*
X009693Y007950D02*
X003603Y007950D01*
X003793Y008108D02*
X009656Y008108D01*
X009699Y008267D02*
X003863Y008267D01*
X003876Y008425D02*
X009662Y008425D01*
X009665Y008584D02*
X003842Y008584D01*
X003743Y008742D02*
X009768Y008742D01*
X006569Y011405D02*
X006441Y011352D01*
X006302Y011352D01*
X006174Y011405D01*
X006076Y011503D01*
X006023Y011631D01*
X006023Y011769D01*
X006076Y011897D01*
X006174Y011995D01*
X006302Y012048D01*
X006441Y012048D01*
X006569Y011995D01*
X006667Y011897D01*
X006720Y011769D01*
X006720Y011631D01*
X006667Y011503D01*
X006569Y011405D01*
X006601Y011437D02*
X016518Y011437D01*
X016359Y011595D02*
X006705Y011595D01*
X006720Y011754D02*
X016323Y011754D01*
X016361Y011912D02*
X006652Y011912D01*
X006091Y011912D02*
X001971Y011912D01*
X001971Y011754D02*
X006023Y011754D01*
X006038Y011595D02*
X001971Y011595D01*
X001971Y011437D02*
X004073Y011437D01*
X004270Y011437D02*
X006142Y011437D01*
X005001Y010486D02*
X024279Y010486D01*
X024437Y010327D02*
X004891Y010327D01*
X004452Y010327D02*
X003876Y010327D01*
X003876Y010486D02*
X004342Y010486D01*
X003822Y010169D02*
X023792Y010169D01*
X023743Y010120D02*
X023684Y009977D01*
X023684Y009823D01*
X023743Y009680D01*
X023852Y009571D01*
X023994Y009512D01*
X024149Y009512D01*
X024291Y009571D01*
X024400Y009680D01*
X024459Y009823D01*
X024459Y009977D01*
X024400Y010120D01*
X024291Y010229D01*
X024149Y010288D01*
X023994Y010288D01*
X023852Y010229D01*
X023743Y010120D01*
X023697Y010010D02*
X003695Y010010D01*
X003601Y009852D02*
X023684Y009852D01*
X023737Y009693D02*
X019469Y009693D01*
X019467Y009697D02*
X019369Y009795D01*
X019241Y009848D01*
X019102Y009848D01*
X018974Y009795D01*
X018876Y009697D01*
X018823Y009569D01*
X018823Y009431D01*
X018876Y009303D01*
X018974Y009205D01*
X019102Y009152D01*
X019241Y009152D01*
X019369Y009205D01*
X019467Y009303D01*
X019520Y009431D01*
X019520Y009569D01*
X019467Y009697D01*
X019520Y009535D02*
X023940Y009535D01*
X024202Y009535D02*
X025013Y009535D01*
X024973Y009693D02*
X024405Y009693D01*
X024459Y009852D02*
X025007Y009852D01*
X025159Y010010D02*
X024446Y010010D01*
X024351Y010169D02*
X024596Y010169D01*
X024805Y010327D02*
X026579Y010327D01*
X026546Y010486D02*
X024646Y010486D01*
X024488Y010644D02*
X026567Y010644D01*
X026652Y010803D02*
X024471Y010803D01*
X025274Y011120D02*
X026730Y011120D01*
X026599Y011278D02*
X025320Y011278D01*
X026546Y011405D02*
X026546Y011595D01*
X027269Y011912D02*
X027774Y011912D01*
X027612Y011754D02*
X027431Y011754D01*
X027497Y011437D02*
X027546Y011437D01*
X027599Y011278D02*
X027444Y011278D01*
X027313Y011120D02*
X027730Y011120D01*
X027652Y010803D02*
X027391Y010803D01*
X027476Y010644D02*
X027567Y010644D01*
X027546Y010486D02*
X027497Y010486D01*
X027464Y010327D02*
X027579Y010327D01*
X027681Y010169D02*
X027362Y010169D01*
X026681Y010169D02*
X025632Y010169D01*
X025193Y009376D02*
X019497Y009376D01*
X019382Y009218D02*
X025223Y009218D01*
X025232Y009059D02*
X017259Y009059D01*
X017241Y009052D02*
X017369Y009105D01*
X017467Y009203D01*
X017520Y009331D01*
X017520Y009469D01*
X017467Y009597D01*
X017369Y009695D01*
X017241Y009748D01*
X017102Y009748D01*
X016974Y009695D01*
X016876Y009597D01*
X016823Y009469D01*
X016823Y009331D01*
X016876Y009203D01*
X016974Y009105D01*
X017102Y009052D01*
X017241Y009052D01*
X017084Y009059D02*
X003744Y009059D01*
X003842Y009218D02*
X016870Y009218D01*
X016823Y009376D02*
X003876Y009376D01*
X003862Y009535D02*
X016850Y009535D01*
X016972Y009693D02*
X003792Y009693D01*
X003485Y008901D02*
X018886Y008901D01*
X018874Y008895D02*
X018776Y008797D01*
X018723Y008669D01*
X018723Y008531D01*
X018776Y008403D01*
X018874Y008305D01*
X019002Y008252D01*
X019141Y008252D01*
X019269Y008305D01*
X019367Y008403D01*
X019420Y008531D01*
X019420Y008669D01*
X019367Y008797D01*
X019269Y008895D01*
X019141Y008948D01*
X019002Y008948D01*
X018874Y008895D01*
X018753Y008742D02*
X017322Y008742D01*
X017367Y008697D02*
X017269Y008795D01*
X017141Y008848D01*
X017002Y008848D01*
X016874Y008795D01*
X016776Y008697D01*
X016723Y008569D01*
X016723Y008431D01*
X016776Y008303D01*
X016874Y008205D01*
X017002Y008152D01*
X017141Y008152D01*
X017269Y008205D01*
X017367Y008303D01*
X017420Y008431D01*
X017420Y008569D01*
X017367Y008697D01*
X017414Y008584D02*
X018723Y008584D01*
X018767Y008425D02*
X017418Y008425D01*
X017331Y008267D02*
X018966Y008267D01*
X019177Y008267D02*
X025911Y008267D01*
X025911Y008425D02*
X025639Y008425D01*
X025720Y008584D02*
X025911Y008584D01*
X025911Y008742D02*
X025710Y008742D01*
X025815Y008901D02*
X025911Y008901D01*
X025911Y009059D02*
X025911Y009059D01*
X025129Y008901D02*
X019256Y008901D01*
X019390Y008742D02*
X025032Y008742D01*
X025023Y008584D02*
X019420Y008584D01*
X019376Y008425D02*
X025104Y008425D01*
X025911Y008108D02*
X013486Y008108D01*
X013450Y007950D02*
X025911Y007950D01*
X025911Y007791D02*
X016801Y007791D01*
X016780Y007812D02*
X016645Y007868D01*
X016498Y007868D01*
X016363Y007812D01*
X016259Y007709D01*
X016203Y007573D01*
X016203Y007427D01*
X016259Y007291D01*
X016363Y007188D01*
X016498Y007132D01*
X016645Y007132D01*
X016780Y007188D01*
X016884Y007291D01*
X016940Y007427D01*
X016940Y007573D01*
X016884Y007709D01*
X016780Y007812D01*
X016915Y007633D02*
X024694Y007633D01*
X024742Y007652D02*
X024502Y007553D01*
X024318Y007370D01*
X024219Y007130D01*
X024219Y006870D01*
X024318Y006630D01*
X024502Y006447D01*
X024742Y006348D01*
X025001Y006348D01*
X025241Y006447D01*
X025425Y006630D01*
X025524Y006870D01*
X025524Y007130D01*
X025425Y007370D01*
X025241Y007553D01*
X025001Y007652D01*
X024742Y007652D01*
X025049Y007633D02*
X025911Y007633D01*
X025911Y007474D02*
X025320Y007474D01*
X025447Y007316D02*
X025911Y007316D01*
X025911Y007157D02*
X025513Y007157D01*
X025524Y006999D02*
X025911Y006999D01*
X025911Y006840D02*
X025511Y006840D01*
X025446Y006682D02*
X025911Y006682D01*
X025911Y006523D02*
X025317Y006523D01*
X025042Y006365D02*
X025911Y006365D01*
X025911Y006206D02*
X018838Y006206D01*
X018874Y006169D02*
X018741Y006303D01*
X018566Y006375D01*
X018377Y006375D01*
X018202Y006303D01*
X018069Y006169D01*
X017996Y005995D01*
X017996Y005805D01*
X018069Y005631D01*
X018202Y005497D01*
X018377Y005425D01*
X018566Y005425D01*
X018741Y005497D01*
X018874Y005631D01*
X018947Y005805D01*
X018947Y005995D01*
X018874Y006169D01*
X018925Y006048D02*
X025911Y006048D01*
X025911Y005889D02*
X018947Y005889D01*
X018916Y005731D02*
X025911Y005731D01*
X025911Y005572D02*
X018816Y005572D01*
X018127Y005572D02*
X017017Y005572D01*
X017017Y005589D02*
X016949Y005752D01*
X016824Y005878D01*
X016660Y005946D01*
X016483Y005946D01*
X016319Y005878D01*
X016194Y005752D01*
X016126Y005589D01*
X016126Y005411D01*
X016194Y005248D01*
X016319Y005122D01*
X016483Y005054D01*
X016660Y005054D01*
X016824Y005122D01*
X016949Y005248D01*
X017017Y005411D01*
X017017Y005589D01*
X016958Y005731D02*
X018027Y005731D01*
X017996Y005889D02*
X016797Y005889D01*
X016346Y005889D02*
X013428Y005889D01*
X013486Y005731D02*
X016184Y005731D01*
X016126Y005572D02*
X013459Y005572D01*
X013465Y005414D02*
X016126Y005414D01*
X016190Y005255D02*
X013486Y005255D01*
X013420Y005097D02*
X016381Y005097D01*
X016762Y005097D02*
X024637Y005097D01*
X024623Y005131D02*
X024676Y005003D01*
X024774Y004905D01*
X024902Y004852D01*
X025041Y004852D01*
X025169Y004905D01*
X025267Y005003D01*
X025320Y005131D01*
X025320Y005269D01*
X025267Y005397D01*
X025169Y005495D01*
X025041Y005548D01*
X024902Y005548D01*
X024774Y005495D01*
X024676Y005397D01*
X024623Y005269D01*
X024623Y005131D01*
X024623Y005255D02*
X016952Y005255D01*
X017017Y005414D02*
X024692Y005414D01*
X024741Y004938D02*
X013486Y004938D01*
X013462Y004780D02*
X025911Y004780D01*
X025911Y004938D02*
X025202Y004938D01*
X025306Y005097D02*
X025911Y005097D01*
X025911Y005255D02*
X025320Y005255D01*
X025251Y005414D02*
X025911Y005414D01*
X025911Y004621D02*
X013462Y004621D01*
X013486Y004463D02*
X025911Y004463D01*
X025911Y004304D02*
X013421Y004304D01*
X013486Y006048D02*
X018018Y006048D01*
X018105Y006206D02*
X013468Y006206D01*
X013456Y006365D02*
X018351Y006365D01*
X018592Y006365D02*
X024701Y006365D01*
X024426Y006523D02*
X013486Y006523D01*
X013435Y006682D02*
X024297Y006682D01*
X024232Y006840D02*
X013486Y006840D01*
X013472Y006999D02*
X024219Y006999D01*
X024230Y007157D02*
X016705Y007157D01*
X016893Y007316D02*
X024296Y007316D01*
X024423Y007474D02*
X016940Y007474D01*
X016438Y007157D02*
X013453Y007157D01*
X013486Y007316D02*
X016249Y007316D01*
X016203Y007474D02*
X013440Y007474D01*
X013484Y007633D02*
X016228Y007633D01*
X016342Y007791D02*
X013475Y007791D01*
X013443Y008267D02*
X016812Y008267D01*
X016725Y008425D02*
X013481Y008425D01*
X013478Y008584D02*
X016729Y008584D01*
X016821Y008742D02*
X013375Y008742D01*
X017371Y009693D02*
X018874Y009693D01*
X018823Y009535D02*
X017493Y009535D01*
X017520Y009376D02*
X018846Y009376D01*
X018961Y009218D02*
X017473Y009218D01*
X019723Y011120D02*
X004520Y011120D01*
X004475Y011278D02*
X019768Y011278D01*
X021876Y013303D02*
X021974Y013205D01*
X022102Y013152D01*
X022241Y013152D01*
X022369Y013205D01*
X022467Y013303D01*
X022520Y013431D01*
X022520Y013569D01*
X022467Y013697D01*
X022369Y013795D01*
X022241Y013848D01*
X022102Y013848D01*
X021974Y013795D01*
X021876Y013697D01*
X021823Y013569D01*
X021823Y013431D01*
X021876Y013303D01*
X021861Y013339D02*
X001971Y013339D01*
X001971Y013497D02*
X003782Y013497D01*
X003776Y013503D02*
X003874Y013405D01*
X004002Y013352D01*
X004141Y013352D01*
X004269Y013405D01*
X004367Y013503D01*
X004420Y013631D01*
X004420Y013769D01*
X004367Y013897D01*
X004269Y013995D01*
X004141Y014048D01*
X004002Y014048D01*
X003874Y013995D01*
X003776Y013897D01*
X003723Y013769D01*
X003723Y013631D01*
X003776Y013503D01*
X003723Y013656D02*
X001971Y013656D01*
X001971Y013814D02*
X003742Y013814D01*
X003851Y013973D02*
X001971Y013973D01*
X001971Y014131D02*
X002474Y014131D01*
X002426Y014179D02*
X002541Y014064D01*
X002690Y014002D01*
X002852Y014002D01*
X003002Y014064D01*
X003117Y014179D01*
X003179Y014328D01*
X003179Y014490D01*
X003117Y014640D01*
X003002Y014755D01*
X002852Y014817D01*
X002690Y014817D01*
X002541Y014755D01*
X002426Y014640D01*
X002364Y014490D01*
X002364Y014328D01*
X002426Y014179D01*
X002380Y014290D02*
X001971Y014290D01*
X001971Y014448D02*
X002364Y014448D01*
X002412Y014607D02*
X001971Y014607D01*
X001971Y014765D02*
X002566Y014765D01*
X002977Y014765D02*
X006175Y014765D01*
X006218Y014870D02*
X006119Y014630D01*
X006119Y014370D01*
X006218Y014130D01*
X006402Y013947D01*
X006642Y013848D01*
X006901Y013848D01*
X007141Y013947D01*
X007325Y014130D01*
X007424Y014370D01*
X007424Y014630D01*
X007325Y014870D01*
X007141Y015053D01*
X006901Y015152D01*
X006642Y015152D01*
X006402Y015053D01*
X006218Y014870D01*
X006272Y014924D02*
X001971Y014924D01*
X001971Y015082D02*
X006472Y015082D01*
X006119Y014607D02*
X005358Y014607D01*
X005367Y014597D02*
X005269Y014695D01*
X005141Y014748D01*
X005002Y014748D01*
X004874Y014695D01*
X004776Y014597D01*
X004771Y014586D01*
X004767Y014597D01*
X004669Y014695D01*
X004541Y014748D01*
X004402Y014748D01*
X004274Y014695D01*
X004176Y014597D01*
X004123Y014469D01*
X004123Y014331D01*
X004176Y014203D01*
X004274Y014105D01*
X004402Y014052D01*
X004541Y014052D01*
X004669Y014105D01*
X004767Y014203D01*
X004771Y014214D01*
X004776Y014203D01*
X004874Y014105D01*
X005002Y014052D01*
X005141Y014052D01*
X005269Y014105D01*
X005367Y014203D01*
X005420Y014331D01*
X005420Y014469D01*
X005367Y014597D01*
X005420Y014448D02*
X006119Y014448D01*
X006152Y014290D02*
X005403Y014290D01*
X005295Y014131D02*
X006218Y014131D01*
X006376Y013973D02*
X004292Y013973D01*
X004248Y014131D02*
X003069Y014131D01*
X003162Y014290D02*
X004140Y014290D01*
X004123Y014448D02*
X003179Y014448D01*
X003131Y014607D02*
X004185Y014607D01*
X004758Y014607D02*
X004785Y014607D01*
X004848Y014131D02*
X004695Y014131D01*
X004401Y013814D02*
X020271Y013814D01*
X020276Y013803D02*
X020223Y013931D01*
X020223Y014069D01*
X020276Y014197D01*
X020374Y014295D01*
X020502Y014348D01*
X020641Y014348D01*
X020769Y014295D01*
X020867Y014197D01*
X020920Y014069D01*
X020920Y013931D01*
X020867Y013803D01*
X020769Y013705D01*
X020641Y013652D01*
X020502Y013652D01*
X020374Y013705D01*
X020276Y013803D01*
X020223Y013973D02*
X017487Y013973D01*
X017469Y013955D02*
X017567Y014053D01*
X017620Y014181D01*
X017620Y014319D01*
X017567Y014447D01*
X017469Y014545D01*
X017341Y014598D01*
X017202Y014598D01*
X017074Y014545D01*
X016976Y014447D01*
X016923Y014319D01*
X016923Y014181D01*
X016976Y014053D01*
X017074Y013955D01*
X017202Y013902D01*
X017341Y013902D01*
X017469Y013955D01*
X017599Y014131D02*
X020249Y014131D01*
X020368Y014290D02*
X017620Y014290D01*
X017566Y014448D02*
X021931Y014448D01*
X021974Y014405D02*
X021876Y014503D01*
X021823Y014631D01*
X021823Y014769D01*
X021876Y014897D01*
X021974Y014995D01*
X022102Y015048D01*
X022241Y015048D01*
X022369Y014995D01*
X022467Y014897D01*
X022520Y014769D01*
X022520Y014631D01*
X022467Y014503D01*
X022369Y014405D01*
X022241Y014352D01*
X022102Y014352D01*
X021974Y014405D01*
X021833Y014607D02*
X007424Y014607D01*
X007424Y014448D02*
X016977Y014448D01*
X016923Y014290D02*
X007390Y014290D01*
X007325Y014131D02*
X016944Y014131D01*
X017056Y013973D02*
X007167Y013973D01*
X007368Y014765D02*
X021823Y014765D01*
X021902Y014924D02*
X007271Y014924D01*
X007071Y015082D02*
X021746Y015082D01*
X021794Y015062D02*
X021949Y015062D01*
X022091Y015121D01*
X022200Y015230D01*
X022259Y015373D01*
X022259Y015527D01*
X022200Y015670D01*
X022091Y015779D01*
X021949Y015838D01*
X021794Y015838D01*
X021652Y015779D01*
X021543Y015670D01*
X021484Y015527D01*
X021484Y015373D01*
X021543Y015230D01*
X021652Y015121D01*
X021794Y015062D01*
X021996Y015082D02*
X022911Y015082D01*
X022911Y014924D02*
X022441Y014924D01*
X022520Y014765D02*
X022911Y014765D01*
X022997Y014607D02*
X022510Y014607D01*
X022412Y014448D02*
X024211Y014448D01*
X024211Y014290D02*
X020775Y014290D01*
X020894Y014131D02*
X024211Y014131D01*
X024211Y013973D02*
X020920Y013973D01*
X020872Y013814D02*
X022019Y013814D01*
X021859Y013656D02*
X020650Y013656D01*
X020493Y013656D02*
X004420Y013656D01*
X004361Y013497D02*
X021823Y013497D01*
X022033Y013180D02*
X002984Y013180D01*
X003098Y013022D02*
X024211Y013022D01*
X024211Y013180D02*
X022309Y013180D01*
X022482Y013339D02*
X024211Y013339D01*
X024211Y013497D02*
X022520Y013497D01*
X022484Y013656D02*
X024211Y013656D01*
X024211Y013814D02*
X022324Y013814D01*
X023171Y014924D02*
X027133Y014924D01*
X027067Y014765D02*
X024471Y014765D01*
X024471Y014607D02*
X027034Y014607D01*
X027034Y014448D02*
X024471Y014448D01*
X024471Y014290D02*
X027044Y014290D01*
X027110Y014131D02*
X025133Y014131D01*
X025167Y014097D02*
X025069Y014195D01*
X024941Y014248D01*
X024802Y014248D01*
X024674Y014195D01*
X024576Y014097D01*
X024523Y013969D01*
X024523Y013831D01*
X024576Y013703D01*
X024674Y013605D01*
X024802Y013552D01*
X024941Y013552D01*
X025069Y013605D01*
X025167Y013703D01*
X025220Y013831D01*
X025220Y013969D01*
X025167Y014097D01*
X025219Y013973D02*
X027176Y013973D01*
X027332Y013814D02*
X025213Y013814D01*
X025120Y013656D02*
X027561Y013656D01*
X028381Y013656D02*
X028741Y013656D01*
X028741Y013814D02*
X028611Y013814D01*
X028741Y013497D02*
X024471Y013497D01*
X024471Y013339D02*
X028741Y013339D01*
X028741Y013180D02*
X024471Y013180D01*
X024471Y013022D02*
X028741Y013022D01*
X028741Y012863D02*
X027331Y012863D01*
X027451Y012705D02*
X028741Y012705D01*
X028741Y012546D02*
X027497Y012546D01*
X027489Y012388D02*
X028741Y012388D01*
X028741Y012229D02*
X027423Y012229D01*
X027227Y012071D02*
X028741Y012071D01*
X028741Y011912D02*
X028269Y011912D01*
X028431Y011754D02*
X028741Y011754D01*
X028741Y011278D02*
X028444Y011278D01*
X028313Y011120D02*
X028741Y011120D01*
X024623Y013656D02*
X024471Y013656D01*
X024471Y013814D02*
X024530Y013814D01*
X024524Y013973D02*
X024471Y013973D01*
X024471Y014131D02*
X024610Y014131D01*
X023171Y015082D02*
X027228Y015082D01*
X027387Y015241D02*
X023171Y015241D01*
X023171Y015399D02*
X027693Y015399D01*
X028250Y015399D02*
X028647Y015399D01*
X028556Y015241D02*
X028741Y015241D01*
X028741Y015082D02*
X028715Y015082D01*
X028489Y015558D02*
X023171Y015558D01*
X023171Y015716D02*
X028330Y015716D01*
X028172Y015875D02*
X023171Y015875D01*
X023171Y016033D02*
X028013Y016033D01*
X027855Y016192D02*
X023171Y016192D01*
X023171Y016350D02*
X027741Y016350D01*
X027741Y016509D02*
X023171Y016509D01*
X023171Y016667D02*
X027741Y016667D01*
X027741Y016826D02*
X023171Y016826D01*
X023171Y016984D02*
X027741Y016984D01*
X027741Y017143D02*
X023171Y017143D01*
X023171Y017301D02*
X027741Y017301D01*
X027741Y017460D02*
X023171Y017460D01*
X023171Y017618D02*
X027741Y017618D01*
X027741Y017777D02*
X023171Y017777D01*
X023171Y017935D02*
X027741Y017935D01*
X027741Y018094D02*
X023171Y018094D01*
X023171Y018252D02*
X027741Y018252D01*
X027741Y018411D02*
X023171Y018411D01*
X023171Y018569D02*
X027741Y018569D01*
X027741Y018728D02*
X023171Y018728D01*
X023171Y018886D02*
X027741Y018886D01*
X027741Y019045D02*
X023171Y019045D01*
X023171Y019203D02*
X027741Y019203D01*
X027741Y019362D02*
X023171Y019362D01*
X023045Y019520D02*
X027741Y019520D01*
X027741Y019679D02*
X022887Y019679D01*
X022728Y019837D02*
X027741Y019837D01*
X027741Y019996D02*
X022570Y019996D01*
X022702Y020097D02*
X022877Y020025D01*
X023066Y020025D01*
X023241Y020097D01*
X023374Y020231D01*
X023447Y020405D01*
X023447Y020595D01*
X023374Y020769D01*
X023241Y020903D01*
X023066Y020975D01*
X022877Y020975D01*
X022702Y020903D01*
X022569Y020769D01*
X022496Y020595D01*
X022496Y020405D01*
X022569Y020231D01*
X022702Y020097D01*
X022645Y020154D02*
X022411Y020154D01*
X022408Y020313D02*
X022535Y020313D01*
X022496Y020471D02*
X022447Y020471D01*
X022432Y020630D02*
X022511Y020630D01*
X022587Y020788D02*
X022356Y020788D01*
X022135Y020947D02*
X022808Y020947D01*
X023135Y020947D02*
X023808Y020947D01*
X023877Y020975D02*
X023702Y020903D01*
X023569Y020769D01*
X023496Y020595D01*
X023496Y020405D01*
X023569Y020231D01*
X023702Y020097D01*
X023877Y020025D01*
X024066Y020025D01*
X024241Y020097D01*
X024374Y020231D01*
X024447Y020405D01*
X024447Y020595D01*
X024374Y020769D01*
X024241Y020903D01*
X024066Y020975D01*
X023877Y020975D01*
X024135Y020947D02*
X024808Y020947D01*
X024877Y020975D02*
X024702Y020903D01*
X024569Y020769D01*
X024496Y020595D01*
X024496Y020405D01*
X024569Y020231D01*
X024702Y020097D01*
X024877Y020025D01*
X025066Y020025D01*
X025241Y020097D01*
X025374Y020231D01*
X025447Y020405D01*
X025447Y020595D01*
X025374Y020769D01*
X025241Y020903D01*
X025066Y020975D01*
X024877Y020975D01*
X025135Y020947D02*
X025808Y020947D01*
X025877Y020975D02*
X025702Y020903D01*
X025569Y020769D01*
X025496Y020595D01*
X025496Y020405D01*
X025569Y020231D01*
X025702Y020097D01*
X025877Y020025D01*
X026066Y020025D01*
X026241Y020097D01*
X026374Y020231D01*
X026447Y020405D01*
X026447Y020595D01*
X026374Y020769D01*
X026241Y020903D01*
X026066Y020975D01*
X025877Y020975D01*
X026135Y020947D02*
X026808Y020947D01*
X026877Y020975D02*
X026702Y020903D01*
X026569Y020769D01*
X026496Y020595D01*
X026496Y020405D01*
X026569Y020231D01*
X026702Y020097D01*
X026877Y020025D01*
X027066Y020025D01*
X027241Y020097D01*
X027374Y020231D01*
X027447Y020405D01*
X027447Y020595D01*
X027374Y020769D01*
X027241Y020903D01*
X027066Y020975D01*
X026877Y020975D01*
X027135Y020947D02*
X027600Y020947D01*
X027741Y020788D02*
X027356Y020788D01*
X027432Y020630D02*
X027741Y020630D01*
X027741Y020471D02*
X027447Y020471D01*
X027408Y020313D02*
X027741Y020313D01*
X027741Y020154D02*
X027298Y020154D01*
X026645Y020154D02*
X026298Y020154D01*
X026408Y020313D02*
X026535Y020313D01*
X026496Y020471D02*
X026447Y020471D01*
X026432Y020630D02*
X026511Y020630D01*
X026587Y020788D02*
X026356Y020788D01*
X025587Y020788D02*
X025356Y020788D01*
X025432Y020630D02*
X025511Y020630D01*
X025496Y020471D02*
X025447Y020471D01*
X025408Y020313D02*
X025535Y020313D01*
X025645Y020154D02*
X025298Y020154D01*
X024645Y020154D02*
X024298Y020154D01*
X024408Y020313D02*
X024535Y020313D01*
X024496Y020471D02*
X024447Y020471D01*
X024432Y020630D02*
X024511Y020630D01*
X024587Y020788D02*
X024356Y020788D01*
X023587Y020788D02*
X023356Y020788D01*
X023432Y020630D02*
X023511Y020630D01*
X023496Y020471D02*
X023447Y020471D01*
X023408Y020313D02*
X023535Y020313D01*
X023645Y020154D02*
X023298Y020154D01*
X022678Y019520D02*
X009620Y019520D01*
X009620Y019569D02*
X009567Y019697D01*
X009469Y019795D01*
X009341Y019848D01*
X009202Y019848D01*
X009074Y019795D01*
X008976Y019697D01*
X008923Y019569D01*
X008923Y019431D01*
X008976Y019303D01*
X009074Y019205D01*
X009202Y019152D01*
X009341Y019152D01*
X009469Y019205D01*
X009567Y019303D01*
X009620Y019431D01*
X009620Y019569D01*
X009575Y019679D02*
X022519Y019679D01*
X022361Y019837D02*
X009368Y019837D01*
X009175Y019837D02*
X008634Y019837D01*
X008777Y019996D02*
X008991Y019996D01*
X008968Y019679D02*
X008437Y019679D01*
X008923Y019520D02*
X004720Y019520D01*
X004720Y019569D02*
X004667Y019697D01*
X004569Y019795D01*
X004441Y019848D01*
X004302Y019848D01*
X004174Y019795D01*
X004076Y019697D01*
X004023Y019569D01*
X004023Y019431D01*
X004076Y019303D01*
X004174Y019205D01*
X004302Y019152D01*
X004441Y019152D01*
X004569Y019205D01*
X004667Y019303D01*
X004720Y019431D01*
X004720Y019569D01*
X004675Y019679D02*
X007506Y019679D01*
X007309Y019837D02*
X004468Y019837D01*
X004275Y019837D02*
X002592Y019837D01*
X002690Y019883D02*
X002541Y019945D01*
X002426Y020060D01*
X002364Y020210D01*
X002364Y020372D01*
X002426Y020521D01*
X002541Y020636D01*
X002690Y020698D01*
X002852Y020698D01*
X003002Y020636D01*
X003117Y020521D01*
X003179Y020372D01*
X003179Y020210D01*
X003117Y020060D01*
X003002Y019945D01*
X002852Y019883D01*
X002690Y019883D01*
X002620Y019679D02*
X004068Y019679D01*
X004023Y019520D02*
X002574Y019520D01*
X002541Y019455D02*
X002426Y019340D01*
X002364Y019190D01*
X002364Y019028D01*
X002426Y018879D01*
X002541Y018764D01*
X002690Y018702D01*
X002852Y018702D01*
X003002Y018764D01*
X003117Y018879D01*
X003179Y019028D01*
X003179Y019190D01*
X003117Y019340D01*
X003002Y019455D01*
X002852Y019517D01*
X002690Y019517D01*
X002541Y019455D01*
X002448Y019362D02*
X002365Y019362D01*
X002370Y019203D02*
X001971Y019203D01*
X001971Y019045D02*
X002364Y019045D01*
X002423Y018886D02*
X001971Y018886D01*
X001971Y018728D02*
X002630Y018728D01*
X002913Y018728D02*
X005652Y018728D01*
X005702Y018748D02*
X005574Y018695D01*
X005476Y018597D01*
X005423Y018469D01*
X005423Y018331D01*
X005476Y018203D01*
X005574Y018105D01*
X005702Y018052D01*
X005841Y018052D01*
X005969Y018105D01*
X006067Y018203D01*
X006120Y018331D01*
X006120Y018469D01*
X006067Y018597D01*
X005969Y018695D01*
X005841Y018748D01*
X005702Y018748D01*
X005891Y018728D02*
X022911Y018728D01*
X022911Y018886D02*
X003120Y018886D01*
X003179Y019045D02*
X022911Y019045D01*
X022911Y019203D02*
X009465Y019203D01*
X009591Y019362D02*
X022836Y019362D01*
X022911Y018569D02*
X006079Y018569D01*
X006120Y018411D02*
X022911Y018411D01*
X022911Y018252D02*
X006087Y018252D01*
X005942Y018094D02*
X007440Y018094D01*
X007452Y018098D02*
X007324Y018045D01*
X007226Y017947D01*
X007173Y017819D01*
X007173Y017681D01*
X007226Y017553D01*
X007324Y017455D01*
X007452Y017402D01*
X007591Y017402D01*
X007719Y017455D01*
X007817Y017553D01*
X007870Y017681D01*
X007870Y017819D01*
X007817Y017947D01*
X007719Y018045D01*
X007591Y018098D01*
X007452Y018098D01*
X007603Y018094D02*
X009222Y018094D01*
X009224Y018095D02*
X009126Y017997D01*
X009073Y017869D01*
X009073Y017731D01*
X009126Y017603D01*
X009224Y017505D01*
X009352Y017452D01*
X009491Y017452D01*
X009619Y017505D01*
X009717Y017603D01*
X009770Y017731D01*
X009770Y017869D01*
X009717Y017997D01*
X009619Y018095D01*
X009491Y018148D01*
X009352Y018148D01*
X009224Y018095D01*
X009100Y017935D02*
X007822Y017935D01*
X007870Y017777D02*
X009073Y017777D01*
X009120Y017618D02*
X007844Y017618D01*
X007724Y017460D02*
X009333Y017460D01*
X009510Y017460D02*
X011973Y017460D01*
X011973Y017519D02*
X011973Y017381D01*
X012026Y017253D01*
X012124Y017155D01*
X012252Y017102D01*
X012336Y017102D01*
X012323Y017069D01*
X012323Y016931D01*
X012376Y016803D01*
X012474Y016705D01*
X012602Y016652D01*
X012741Y016652D01*
X012869Y016705D01*
X012967Y016803D01*
X013020Y016931D01*
X013020Y017069D01*
X012967Y017197D01*
X012869Y017295D01*
X012741Y017348D01*
X012657Y017348D01*
X012670Y017381D01*
X012670Y017519D01*
X012617Y017647D01*
X012519Y017745D01*
X012391Y017798D01*
X012252Y017798D01*
X012124Y017745D01*
X012026Y017647D01*
X011973Y017519D01*
X012014Y017618D02*
X009723Y017618D01*
X009770Y017777D02*
X012199Y017777D01*
X012444Y017777D02*
X014923Y017777D01*
X014923Y017731D02*
X014923Y017869D01*
X014976Y017997D01*
X015074Y018095D01*
X015202Y018148D01*
X015341Y018148D01*
X015469Y018095D01*
X015567Y017997D01*
X015620Y017869D01*
X015620Y017731D01*
X015567Y017603D01*
X015469Y017505D01*
X015341Y017452D01*
X015202Y017452D01*
X015074Y017505D01*
X014976Y017603D01*
X014923Y017731D01*
X014970Y017618D02*
X012629Y017618D01*
X012670Y017460D02*
X015183Y017460D01*
X015360Y017460D02*
X015773Y017460D01*
X015776Y017453D02*
X015874Y017355D01*
X016002Y017302D01*
X016141Y017302D01*
X016269Y017355D01*
X016367Y017453D01*
X016420Y017581D01*
X016420Y017719D01*
X016367Y017847D01*
X016269Y017945D01*
X016141Y017998D01*
X016002Y017998D01*
X015874Y017945D01*
X015776Y017847D01*
X015723Y017719D01*
X015723Y017581D01*
X015776Y017453D01*
X015723Y017618D02*
X015573Y017618D01*
X015620Y017777D02*
X015747Y017777D01*
X015864Y017935D02*
X015593Y017935D01*
X015471Y018094D02*
X017787Y018094D01*
X017752Y018079D02*
X017643Y017970D01*
X017584Y017827D01*
X017584Y017673D01*
X017643Y017530D01*
X017752Y017421D01*
X017894Y017362D01*
X018049Y017362D01*
X018191Y017421D01*
X018300Y017530D01*
X018359Y017673D01*
X018359Y017827D01*
X018300Y017970D01*
X018191Y018079D01*
X018049Y018138D01*
X017894Y018138D01*
X017752Y018079D01*
X017628Y017935D02*
X016279Y017935D01*
X016396Y017777D02*
X017584Y017777D01*
X017606Y017618D02*
X016420Y017618D01*
X016370Y017460D02*
X017714Y017460D01*
X018229Y017460D02*
X018682Y017460D01*
X018673Y017481D02*
X018726Y017353D01*
X018824Y017255D01*
X018952Y017202D01*
X019091Y017202D01*
X019219Y017255D01*
X019317Y017353D01*
X019370Y017481D01*
X019370Y017619D01*
X019317Y017747D01*
X019219Y017845D01*
X019091Y017898D01*
X018952Y017898D01*
X018824Y017845D01*
X018726Y017747D01*
X018673Y017619D01*
X018673Y017481D01*
X018673Y017618D02*
X018337Y017618D01*
X018359Y017777D02*
X018755Y017777D01*
X018315Y017935D02*
X021823Y017935D01*
X021823Y017969D02*
X021823Y017831D01*
X021876Y017703D01*
X021974Y017605D01*
X022102Y017552D01*
X022241Y017552D01*
X022369Y017605D01*
X022467Y017703D01*
X022520Y017831D01*
X022520Y017969D01*
X022467Y018097D01*
X022369Y018195D01*
X022241Y018248D01*
X022102Y018248D01*
X021974Y018195D01*
X021876Y018097D01*
X021823Y017969D01*
X021874Y018094D02*
X018155Y018094D01*
X018778Y017301D02*
X012855Y017301D01*
X012990Y017143D02*
X022911Y017143D01*
X022911Y017301D02*
X019265Y017301D01*
X019361Y017460D02*
X022911Y017460D01*
X022911Y017618D02*
X022382Y017618D01*
X022497Y017777D02*
X022911Y017777D01*
X022911Y017935D02*
X022520Y017935D01*
X022468Y018094D02*
X022911Y018094D01*
X021961Y017618D02*
X019370Y017618D01*
X019288Y017777D02*
X021845Y017777D01*
X022911Y016984D02*
X013020Y016984D01*
X012976Y016826D02*
X022911Y016826D01*
X022911Y016667D02*
X018297Y016667D01*
X018317Y016647D02*
X018219Y016745D01*
X018091Y016798D01*
X017952Y016798D01*
X017824Y016745D01*
X017726Y016647D01*
X017673Y016519D01*
X017673Y016381D01*
X017726Y016253D01*
X017824Y016155D01*
X017952Y016102D01*
X018091Y016102D01*
X018219Y016155D01*
X018317Y016253D01*
X018370Y016381D01*
X018370Y016519D01*
X018317Y016647D01*
X018370Y016509D02*
X022911Y016509D01*
X022911Y016350D02*
X018357Y016350D01*
X018256Y016192D02*
X022911Y016192D01*
X022911Y016033D02*
X016779Y016033D01*
X016767Y016003D02*
X016820Y016131D01*
X016820Y016269D01*
X016767Y016397D01*
X016669Y016495D01*
X016541Y016548D01*
X016402Y016548D01*
X016274Y016495D01*
X016176Y016397D01*
X016123Y016269D01*
X016123Y016131D01*
X016176Y016003D01*
X016274Y015905D01*
X016402Y015852D01*
X016541Y015852D01*
X016669Y015905D01*
X016767Y016003D01*
X016820Y016192D02*
X017787Y016192D01*
X017686Y016350D02*
X016786Y016350D01*
X016637Y016509D02*
X017673Y016509D01*
X017746Y016667D02*
X012778Y016667D01*
X012565Y016667D02*
X011528Y016667D01*
X011491Y016652D02*
X011619Y016705D01*
X011717Y016803D01*
X011770Y016931D01*
X011770Y017069D01*
X011717Y017197D01*
X011619Y017295D01*
X011491Y017348D01*
X011352Y017348D01*
X011224Y017295D01*
X011126Y017197D01*
X011073Y017069D01*
X011073Y016931D01*
X011126Y016803D01*
X011224Y016705D01*
X011352Y016652D01*
X011491Y016652D01*
X011315Y016667D02*
X001971Y016667D01*
X001971Y016509D02*
X016306Y016509D01*
X016156Y016350D02*
X009008Y016350D01*
X009019Y016345D02*
X008891Y016398D01*
X008752Y016398D01*
X008624Y016345D01*
X008526Y016247D01*
X008473Y016119D01*
X008473Y015981D01*
X008526Y015853D01*
X008624Y015755D01*
X008752Y015702D01*
X008891Y015702D01*
X009019Y015755D01*
X009117Y015853D01*
X009170Y015981D01*
X009170Y016119D01*
X009117Y016247D01*
X009019Y016345D01*
X009140Y016192D02*
X016123Y016192D01*
X016163Y016033D02*
X009170Y016033D01*
X009126Y015875D02*
X016347Y015875D01*
X016596Y015875D02*
X022911Y015875D01*
X022911Y015716D02*
X022154Y015716D01*
X022247Y015558D02*
X022911Y015558D01*
X022911Y015399D02*
X022259Y015399D01*
X022204Y015241D02*
X022911Y015241D01*
X021538Y015241D02*
X005805Y015241D01*
X005769Y015205D02*
X005867Y015303D01*
X005920Y015431D01*
X005920Y015569D01*
X005867Y015697D01*
X005769Y015795D01*
X005641Y015848D01*
X005502Y015848D01*
X005374Y015795D01*
X005276Y015697D01*
X005223Y015569D01*
X005223Y015431D01*
X005276Y015303D01*
X005374Y015205D01*
X005502Y015152D01*
X005641Y015152D01*
X005769Y015205D01*
X005907Y015399D02*
X021484Y015399D01*
X021496Y015558D02*
X005920Y015558D01*
X005848Y015716D02*
X006463Y015716D01*
X006474Y015705D02*
X006602Y015652D01*
X006741Y015652D01*
X006869Y015705D01*
X006967Y015803D01*
X007020Y015931D01*
X007020Y016069D01*
X006967Y016197D01*
X006869Y016295D01*
X006741Y016348D01*
X006602Y016348D01*
X006474Y016295D01*
X006376Y016197D01*
X006323Y016069D01*
X006323Y015931D01*
X006376Y015803D01*
X006474Y015705D01*
X006346Y015875D02*
X003063Y015875D01*
X003117Y015821D02*
X003002Y015936D01*
X002852Y015998D01*
X002690Y015998D01*
X002541Y015936D01*
X002426Y015821D01*
X002364Y015672D01*
X002364Y015510D01*
X002426Y015360D01*
X002541Y015245D01*
X002690Y015183D01*
X002852Y015183D01*
X003002Y015245D01*
X003117Y015360D01*
X003179Y015510D01*
X003179Y015672D01*
X003117Y015821D01*
X003160Y015716D02*
X005295Y015716D01*
X005223Y015558D02*
X003179Y015558D01*
X003133Y015399D02*
X005236Y015399D01*
X005338Y015241D02*
X002990Y015241D01*
X002553Y015241D02*
X001971Y015241D01*
X001971Y015399D02*
X002410Y015399D01*
X002364Y015558D02*
X001971Y015558D01*
X001971Y015716D02*
X002383Y015716D01*
X002480Y015875D02*
X001971Y015875D01*
X001971Y016033D02*
X006323Y016033D01*
X006374Y016192D02*
X001971Y016192D01*
X001971Y016350D02*
X008635Y016350D01*
X008503Y016192D02*
X006969Y016192D01*
X007020Y016033D02*
X008473Y016033D01*
X008517Y015875D02*
X006997Y015875D01*
X006880Y015716D02*
X008717Y015716D01*
X008926Y015716D02*
X021589Y015716D01*
X021535Y020313D02*
X021408Y020313D01*
X021447Y020471D02*
X021496Y020471D01*
X021511Y020630D02*
X021432Y020630D01*
X021356Y020788D02*
X021587Y020788D01*
X021808Y020947D02*
X021135Y020947D01*
X020808Y020947D02*
X020135Y020947D01*
X020356Y020788D02*
X020587Y020788D01*
X020511Y020630D02*
X020432Y020630D01*
X020447Y020471D02*
X020496Y020471D01*
X020535Y020313D02*
X020408Y020313D01*
X019587Y020788D02*
X018756Y020788D01*
X018832Y020630D02*
X019511Y020630D01*
X019496Y020471D02*
X018847Y020471D01*
X018808Y020313D02*
X019535Y020313D01*
X019808Y020947D02*
X018535Y020947D01*
X018208Y020947D02*
X017535Y020947D01*
X017756Y020788D02*
X017987Y020788D01*
X017911Y020630D02*
X017832Y020630D01*
X017847Y020471D02*
X017896Y020471D01*
X017935Y020313D02*
X017808Y020313D01*
X017208Y020947D02*
X016535Y020947D01*
X016756Y020788D02*
X016987Y020788D01*
X016911Y020630D02*
X016832Y020630D01*
X016847Y020471D02*
X016896Y020471D01*
X016935Y020313D02*
X016808Y020313D01*
X016208Y020947D02*
X015535Y020947D01*
X015756Y020788D02*
X015987Y020788D01*
X015911Y020630D02*
X015832Y020630D01*
X015847Y020471D02*
X015896Y020471D01*
X015935Y020313D02*
X015808Y020313D01*
X015208Y020947D02*
X014535Y020947D01*
X014756Y020788D02*
X014987Y020788D01*
X014911Y020630D02*
X014832Y020630D01*
X014847Y020471D02*
X014896Y020471D01*
X014935Y020313D02*
X014808Y020313D01*
X013987Y020788D02*
X013756Y020788D01*
X013832Y020630D02*
X013911Y020630D01*
X013896Y020471D02*
X013847Y020471D01*
X013808Y020313D02*
X013935Y020313D01*
X014208Y020947D02*
X013535Y020947D01*
X013208Y020947D02*
X012535Y020947D01*
X012756Y020788D02*
X012987Y020788D01*
X012911Y020630D02*
X012832Y020630D01*
X012847Y020471D02*
X012896Y020471D01*
X012935Y020313D02*
X012808Y020313D01*
X012208Y020947D02*
X011535Y020947D01*
X011756Y020788D02*
X011987Y020788D01*
X011911Y020630D02*
X011832Y020630D01*
X011847Y020471D02*
X011896Y020471D01*
X011935Y020313D02*
X011808Y020313D01*
X010987Y020788D02*
X010756Y020788D01*
X010832Y020630D02*
X010911Y020630D01*
X010896Y020471D02*
X010847Y020471D01*
X010808Y020313D02*
X010935Y020313D01*
X011208Y020947D02*
X010535Y020947D01*
X010208Y020947D02*
X009535Y020947D01*
X009756Y020788D02*
X009987Y020788D01*
X009911Y020630D02*
X009832Y020630D01*
X009847Y020471D02*
X009896Y020471D01*
X009935Y020313D02*
X009808Y020313D01*
X009208Y020947D02*
X008871Y020947D01*
X008871Y021105D02*
X027441Y021105D01*
X027283Y021264D02*
X008871Y021264D01*
X008871Y020788D02*
X008987Y020788D01*
X008911Y020630D02*
X008909Y020630D01*
X008952Y019362D02*
X004691Y019362D01*
X004565Y019203D02*
X009078Y019203D01*
X009621Y018094D02*
X015072Y018094D01*
X014950Y017935D02*
X009743Y017935D01*
X011103Y017143D02*
X001971Y017143D01*
X001971Y017301D02*
X011238Y017301D01*
X011073Y016984D02*
X001971Y016984D01*
X001971Y016826D02*
X011117Y016826D01*
X011726Y016826D02*
X012367Y016826D01*
X012323Y016984D02*
X011770Y016984D01*
X011740Y017143D02*
X012153Y017143D01*
X012006Y017301D02*
X011605Y017301D01*
X007319Y017460D02*
X001971Y017460D01*
X001971Y017618D02*
X007199Y017618D01*
X007173Y017777D02*
X001971Y017777D01*
X001971Y017935D02*
X007221Y017935D01*
X005601Y018094D02*
X001971Y018094D01*
X001971Y018252D02*
X005456Y018252D01*
X005423Y018411D02*
X001971Y018411D01*
X001971Y018569D02*
X005464Y018569D01*
X004178Y019203D02*
X003173Y019203D01*
X003095Y019362D02*
X004052Y019362D01*
X003052Y019996D02*
X007166Y019996D01*
X007100Y020154D02*
X003156Y020154D01*
X003179Y020313D02*
X007035Y020313D01*
X007034Y020471D02*
X003137Y020471D01*
X003008Y020630D02*
X007034Y020630D01*
X007076Y020788D02*
X001971Y020788D01*
X001971Y020630D02*
X002535Y020630D01*
X002406Y020471D02*
X001971Y020471D01*
X001971Y020313D02*
X002364Y020313D01*
X002387Y020154D02*
X001971Y020154D01*
X001971Y019996D02*
X002074Y019996D01*
X002468Y019996D02*
X002491Y019996D01*
X002178Y019362D02*
X001971Y019362D01*
X001971Y020947D02*
X007142Y020947D01*
X007251Y021105D02*
X001971Y021105D01*
X001971Y021264D02*
X007410Y021264D01*
X002559Y013180D02*
X001971Y013180D01*
X001971Y013022D02*
X002445Y013022D01*
X002423Y012863D02*
X001971Y012863D01*
X001971Y012705D02*
X002475Y012705D01*
X001971Y011278D02*
X003868Y011278D01*
X003823Y011120D02*
X001971Y011120D01*
D15*
X004971Y007300D03*
X004971Y006900D03*
X004971Y006500D03*
X004971Y006100D03*
X004971Y005700D03*
X004971Y005300D03*
X004971Y004900D03*
X004971Y004500D03*
X004971Y004100D03*
X005371Y004100D03*
X005771Y004100D03*
X006171Y004100D03*
X006171Y004500D03*
X005771Y004500D03*
X005371Y004500D03*
X005371Y004900D03*
X005771Y004900D03*
X006171Y004900D03*
X006171Y005300D03*
X005771Y005300D03*
X005371Y005300D03*
X005371Y005700D03*
X005371Y006100D03*
X005771Y006100D03*
X005771Y005700D03*
X006171Y005700D03*
X006171Y006100D03*
X006171Y006500D03*
X005771Y006500D03*
X005371Y006500D03*
X005371Y006900D03*
X005771Y006900D03*
X006171Y006900D03*
X006171Y007300D03*
X005771Y007300D03*
X005371Y007300D03*
X006571Y007300D03*
X006971Y007300D03*
X007371Y007300D03*
X007371Y006900D03*
X006971Y006900D03*
X006571Y006900D03*
X006571Y006500D03*
X006971Y006500D03*
X007371Y006500D03*
X007371Y006100D03*
X006971Y006100D03*
X006571Y006100D03*
X006571Y005700D03*
X006971Y005700D03*
X007371Y005700D03*
X007371Y005300D03*
X006971Y005300D03*
X006571Y005300D03*
X006571Y004900D03*
X006971Y004900D03*
X007371Y004900D03*
X007371Y004500D03*
X006971Y004500D03*
X006571Y004500D03*
X006571Y004100D03*
X006971Y004100D03*
X007371Y004100D03*
X007771Y004100D03*
X008171Y004100D03*
X008571Y004100D03*
X008571Y004500D03*
X008171Y004500D03*
X007771Y004500D03*
X007771Y004900D03*
X008171Y004900D03*
X008571Y004900D03*
X008571Y005300D03*
X008171Y005300D03*
X007771Y005300D03*
X007771Y005700D03*
X007771Y006100D03*
X008171Y006100D03*
X008171Y005700D03*
X008571Y005700D03*
X008571Y006100D03*
X008571Y006500D03*
X008171Y006500D03*
X007771Y006500D03*
X007771Y006900D03*
X008171Y006900D03*
X008571Y006900D03*
X008571Y007300D03*
X008171Y007300D03*
X007771Y007300D03*
X008971Y007300D03*
X008971Y006900D03*
X008971Y006500D03*
X008971Y006100D03*
X008971Y005700D03*
X008971Y005300D03*
X008971Y004900D03*
X008971Y004500D03*
X008971Y004100D03*
X009971Y004500D03*
X010371Y004500D03*
X010371Y004900D03*
X009971Y004900D03*
X009971Y005300D03*
X010371Y005300D03*
X010371Y005700D03*
X009971Y005700D03*
X009971Y006100D03*
X010371Y006100D03*
X010371Y006500D03*
X009971Y006500D03*
X009971Y006900D03*
X010371Y006900D03*
X010371Y007300D03*
X009971Y007300D03*
X009971Y007700D03*
X009971Y008100D03*
X010371Y008100D03*
X010371Y007700D03*
X010771Y007700D03*
X010771Y008100D03*
X011171Y008100D03*
X011171Y007700D03*
X011171Y007300D03*
X010771Y007300D03*
X010771Y006900D03*
X011171Y006900D03*
X011171Y006500D03*
X010771Y006500D03*
X010771Y006100D03*
X010771Y005700D03*
X011171Y005700D03*
X011171Y006100D03*
X011571Y006100D03*
X011571Y005700D03*
X011971Y005700D03*
X011971Y006100D03*
X012371Y006100D03*
X012371Y005700D03*
X012371Y005300D03*
X011971Y005300D03*
X011571Y005300D03*
X011171Y005300D03*
X010771Y005300D03*
X010771Y004900D03*
X011171Y004900D03*
X011171Y004500D03*
X010771Y004500D03*
X011571Y004500D03*
X011971Y004500D03*
X012371Y004500D03*
X012371Y004900D03*
X011971Y004900D03*
X011571Y004900D03*
X012771Y004900D03*
X013171Y004900D03*
X013171Y004500D03*
X012771Y004500D03*
X012771Y005300D03*
X013171Y005300D03*
X013171Y005700D03*
X012771Y005700D03*
X012771Y006100D03*
X013171Y006100D03*
X013171Y006500D03*
X012771Y006500D03*
X012371Y006500D03*
X011971Y006500D03*
X011571Y006500D03*
X011571Y006900D03*
X011971Y006900D03*
X012371Y006900D03*
X012371Y007300D03*
X011971Y007300D03*
X011571Y007300D03*
X011571Y007700D03*
X011571Y008100D03*
X011971Y008100D03*
X011971Y007700D03*
X012371Y007700D03*
X012371Y008100D03*
X012371Y008500D03*
X011971Y008500D03*
X011571Y008500D03*
X011171Y008500D03*
X010771Y008500D03*
X010371Y008500D03*
X009971Y008500D03*
X009921Y009400D03*
X010321Y009400D03*
X010321Y009800D03*
X009921Y009800D03*
X009921Y010200D03*
X010321Y010200D03*
X010321Y010600D03*
X009921Y010600D03*
X009921Y011000D03*
X010321Y011000D03*
X010321Y011400D03*
X009921Y011400D03*
X009921Y011800D03*
X010321Y011800D03*
X010321Y012200D03*
X009921Y012200D03*
X009921Y012600D03*
X010321Y012600D03*
X010321Y013000D03*
X009921Y013000D03*
X009921Y013400D03*
X010321Y013400D03*
X010721Y013000D03*
X011121Y013000D03*
X011521Y013000D03*
X011521Y012600D03*
X011121Y012600D03*
X010721Y012600D03*
X010721Y012200D03*
X011121Y012200D03*
X011521Y012200D03*
X011521Y011800D03*
X011121Y011800D03*
X010721Y011800D03*
X010721Y011400D03*
X011121Y011400D03*
X011521Y011400D03*
X011521Y011000D03*
X011121Y011000D03*
X010721Y011000D03*
X010721Y010600D03*
X011121Y010600D03*
X011521Y010600D03*
X011521Y010200D03*
X011121Y010200D03*
X010721Y010200D03*
X010721Y009800D03*
X011121Y009800D03*
X011521Y009800D03*
X011921Y009800D03*
X012321Y009800D03*
X012721Y009800D03*
X012721Y010200D03*
X012321Y010200D03*
X011921Y010200D03*
X011921Y010600D03*
X012321Y010600D03*
X012721Y010600D03*
X012721Y011000D03*
X012321Y011000D03*
X011921Y011000D03*
X011921Y011400D03*
X011921Y011800D03*
X012321Y011800D03*
X012321Y011400D03*
X012721Y011400D03*
X012721Y011800D03*
X012721Y012200D03*
X012321Y012200D03*
X011921Y012200D03*
X011921Y012600D03*
X012321Y012600D03*
X012721Y012600D03*
X012721Y013000D03*
X012321Y013000D03*
X011921Y013000D03*
X012771Y008500D03*
X013171Y008500D03*
X013171Y008100D03*
X012771Y008100D03*
X012771Y007700D03*
X013171Y007700D03*
X013171Y007300D03*
X012771Y007300D03*
X012771Y006900D03*
X013171Y006900D03*
D16*
X022471Y007000D03*
X024871Y007000D03*
X024871Y003400D03*
X022471Y003400D03*
X006771Y014500D03*
D17*
X017971Y017750D03*
X021871Y015450D03*
X022671Y009900D03*
X024071Y009900D03*
D18*
X016571Y007500D03*
D19*
X016571Y005500D03*
M02*
