G75*
%MOIN*%
%OFA0B0*%
%FSLAX24Y24*%
%IPPOS*%
%LPD*%
%AMOC8*
5,1,8,0,0,1.08239X$1,22.5*
%
%ADD10OC8,0.0660*%
%ADD11OC8,0.0700*%
%ADD12R,0.0700X0.0700*%
%ADD13R,0.0472X0.0984*%
%ADD14OC8,0.1210*%
%ADD15OC8,0.0531*%
%ADD16OC8,0.1095*%
%ADD17OC8,0.0945*%
%ADD18OC8,0.1620*%
%ADD19OC8,0.1325*%
%ADD20OC8,0.1424*%
%ADD21C,0.0270*%
%ADD22C,0.0120*%
%ADD23C,0.0376*%
%ADD24C,0.0320*%
%ADD25C,0.0531*%
%ADD26C,0.0100*%
%ADD27OC8,0.1181*%
%ADD28C,0.0472*%
%ADD29OC8,0.1660*%
%ADD30C,0.1000*%
%ADD31C,0.0416*%
%ADD32C,0.0400*%
%ADD33C,0.0560*%
%ADD34C,0.0240*%
%ADD35C,0.0070*%
D10*
X008341Y013125D03*
X008341Y014125D03*
X008341Y015125D03*
X008341Y016125D03*
X008341Y017125D03*
X008341Y018125D03*
X008341Y019125D03*
X008341Y020125D03*
X008341Y021125D03*
X008341Y022125D03*
X008341Y023725D03*
X008341Y024725D03*
X008341Y025725D03*
X008341Y026725D03*
X008341Y027725D03*
X008341Y028725D03*
X008341Y029725D03*
X008341Y030725D03*
X027341Y030725D03*
X027341Y029725D03*
X027341Y028725D03*
X027341Y027725D03*
X027341Y026725D03*
X027341Y025725D03*
X027341Y023725D03*
X027341Y022725D03*
X027341Y021725D03*
X027341Y020725D03*
X027341Y019725D03*
X027341Y018725D03*
X027341Y017725D03*
X027341Y016725D03*
X026043Y010175D03*
X025043Y010175D03*
X024043Y010175D03*
X023043Y010175D03*
X022043Y010175D03*
X022043Y009175D03*
X023043Y009175D03*
X024043Y009175D03*
X025043Y009175D03*
X026043Y009175D03*
X050582Y028548D03*
X050582Y029548D03*
X050582Y030548D03*
X051582Y030548D03*
X051582Y029548D03*
X051582Y028548D03*
X051582Y031548D03*
X050582Y031548D03*
D11*
X018341Y031775D03*
X018341Y030775D03*
X017341Y030775D03*
X017341Y031775D03*
X016341Y031775D03*
D12*
X016341Y030775D03*
D13*
X044109Y007508D03*
X045093Y007508D03*
X046078Y007508D03*
D14*
X008531Y008735D03*
X012556Y008735D03*
X014731Y008735D03*
X018756Y008735D03*
X030381Y034165D03*
X034406Y034165D03*
X036581Y034165D03*
X040606Y034165D03*
X042781Y034165D03*
X046806Y034165D03*
X048981Y034165D03*
X053006Y034165D03*
D15*
X019843Y035325D03*
X018843Y035325D03*
X017843Y035325D03*
D16*
X011123Y031225D03*
X009273Y031225D03*
X007423Y031225D03*
X008273Y036225D03*
X010273Y036225D03*
D17*
X031593Y012725D03*
X031593Y006725D03*
X039093Y006725D03*
X039093Y012725D03*
D18*
X050070Y010449D03*
D19*
X050070Y008087D03*
D20*
X051841Y008087D03*
X048298Y008087D03*
D21*
X046043Y008375D03*
X045093Y008375D03*
X045093Y014625D03*
X044593Y014625D03*
X044093Y014625D03*
X043593Y014625D03*
X043093Y014625D03*
X042593Y014625D03*
X042093Y014625D03*
X042093Y015125D03*
X042093Y015625D03*
X042093Y016125D03*
X042093Y016625D03*
X042093Y017125D03*
X042093Y017625D03*
X042093Y018125D03*
X042593Y018125D03*
X042593Y017625D03*
X042593Y017125D03*
X042593Y016625D03*
X042593Y016125D03*
X042593Y015625D03*
X042593Y015125D03*
X043093Y015125D03*
X043093Y015625D03*
X043093Y016125D03*
X043093Y016625D03*
X043093Y017125D03*
X043093Y017625D03*
X043093Y018125D03*
X043093Y018625D03*
X042593Y018625D03*
X042593Y019125D03*
X042593Y019625D03*
X043093Y019625D03*
X043093Y019125D03*
X043593Y019125D03*
X043593Y019625D03*
X043593Y020125D03*
X043093Y020125D03*
X043043Y021075D03*
X043093Y021575D03*
X043543Y021575D03*
X042593Y021875D03*
X042293Y022225D03*
X042293Y023625D03*
X042393Y024025D03*
X043093Y024925D03*
X043993Y024775D03*
X044093Y023875D03*
X045493Y023875D03*
X046193Y024775D03*
X047343Y026225D03*
X045093Y028250D03*
X043343Y028425D03*
X042843Y028425D03*
X042343Y028425D03*
X041843Y028425D03*
X041343Y028425D03*
X040843Y028425D03*
X040343Y028425D03*
X040343Y028925D03*
X040343Y029425D03*
X040343Y029925D03*
X040843Y029925D03*
X040843Y029425D03*
X040843Y028925D03*
X041343Y028925D03*
X041343Y029425D03*
X041343Y029925D03*
X041843Y029925D03*
X041843Y029425D03*
X041843Y028925D03*
X042343Y028925D03*
X042343Y029425D03*
X042343Y029925D03*
X042843Y029925D03*
X042843Y029425D03*
X042843Y028925D03*
X043343Y028925D03*
X043343Y029425D03*
X043343Y029925D03*
X043343Y027925D03*
X042843Y027925D03*
X042343Y027925D03*
X041843Y027925D03*
X041343Y027925D03*
X040843Y027925D03*
X040343Y027925D03*
X040343Y027425D03*
X040343Y026925D03*
X040343Y026425D03*
X040843Y026425D03*
X040843Y026925D03*
X040843Y027425D03*
X041343Y027425D03*
X041343Y026925D03*
X041343Y026425D03*
X041843Y026425D03*
X041843Y026925D03*
X041843Y027425D03*
X042343Y027425D03*
X042343Y026925D03*
X042343Y026425D03*
X042843Y026425D03*
X042843Y026925D03*
X042843Y027425D03*
X043343Y027425D03*
X043343Y026925D03*
X043343Y026425D03*
X040843Y023325D03*
X040843Y022525D03*
X040843Y021125D03*
X041893Y020375D03*
X044093Y020125D03*
X044093Y019625D03*
X044093Y019125D03*
X044593Y019125D03*
X044593Y019625D03*
X044593Y020125D03*
X044593Y020625D03*
X044593Y021125D03*
X045093Y021125D03*
X045093Y020625D03*
X045093Y020125D03*
X045093Y019625D03*
X045093Y019125D03*
X045593Y019125D03*
X045593Y019625D03*
X045593Y020125D03*
X045593Y020625D03*
X045593Y021125D03*
X045593Y021625D03*
X045093Y021625D03*
X045593Y022125D03*
X046093Y022125D03*
X046093Y021625D03*
X046093Y021125D03*
X046093Y020625D03*
X046093Y020125D03*
X046093Y019625D03*
X046093Y019125D03*
X046593Y019125D03*
X046593Y019625D03*
X046593Y020125D03*
X046593Y020625D03*
X046593Y021125D03*
X046593Y021625D03*
X046593Y022125D03*
X047093Y022125D03*
X047093Y021625D03*
X047093Y021125D03*
X047093Y020625D03*
X047093Y020125D03*
X047093Y019625D03*
X047093Y019125D03*
X047593Y019125D03*
X047593Y019625D03*
X047593Y020125D03*
X047593Y020625D03*
X047593Y021125D03*
X047593Y021625D03*
X047593Y022125D03*
X048093Y022125D03*
X048093Y021625D03*
X048093Y021125D03*
X048093Y020625D03*
X048093Y020125D03*
X048093Y019625D03*
X048093Y019125D03*
X048593Y019125D03*
X048593Y019625D03*
X048593Y020125D03*
X048593Y020625D03*
X048593Y021125D03*
X048593Y021625D03*
X048593Y022125D03*
X049093Y022125D03*
X049093Y021625D03*
X049093Y021125D03*
X049093Y020625D03*
X049093Y020125D03*
X049093Y019625D03*
X049093Y019125D03*
X049593Y019125D03*
X049593Y019625D03*
X049593Y020125D03*
X049593Y020625D03*
X049593Y021125D03*
X049593Y021625D03*
X049593Y022125D03*
X049593Y018625D03*
X049093Y018625D03*
X048593Y018625D03*
X048093Y018625D03*
X047593Y018625D03*
X047093Y018625D03*
X046593Y018625D03*
X046093Y018625D03*
X045593Y018625D03*
X045093Y018625D03*
X044593Y018625D03*
X044093Y018625D03*
X043593Y018625D03*
X043593Y018125D03*
X043593Y017625D03*
X043593Y017125D03*
X043593Y016625D03*
X043593Y016125D03*
X043593Y015625D03*
X043593Y015125D03*
X044093Y015125D03*
X044093Y015625D03*
X044093Y016125D03*
X044093Y016625D03*
X044093Y017125D03*
X044093Y017625D03*
X044093Y018125D03*
X044593Y018125D03*
X044593Y017625D03*
X044593Y017125D03*
X044593Y016625D03*
X044593Y016125D03*
X044593Y015625D03*
X044593Y015125D03*
X045093Y015125D03*
X045093Y015625D03*
X045093Y016125D03*
X045093Y016625D03*
X045093Y017125D03*
X045093Y017625D03*
X045093Y018125D03*
X045593Y018125D03*
X045593Y017625D03*
X045593Y017125D03*
X045593Y016625D03*
X045593Y016125D03*
X045593Y015625D03*
X045593Y015125D03*
X046093Y015125D03*
X046093Y015625D03*
X046093Y016125D03*
X046093Y016625D03*
X046093Y017125D03*
X046093Y017625D03*
X046093Y018125D03*
X046593Y018125D03*
X046593Y017625D03*
X046593Y017125D03*
X046593Y016625D03*
X046593Y016125D03*
X046593Y015625D03*
X046593Y015125D03*
X047093Y015125D03*
X047093Y015625D03*
X047093Y016125D03*
X047093Y016625D03*
X047093Y017125D03*
X047093Y017625D03*
X047093Y018125D03*
X047593Y018125D03*
X047593Y017625D03*
X047593Y017125D03*
X047593Y016625D03*
X047593Y016125D03*
X047593Y015625D03*
X047593Y015125D03*
X048093Y015125D03*
X048093Y015625D03*
X048093Y016125D03*
X048093Y016625D03*
X048093Y017125D03*
X048093Y017625D03*
X048093Y018125D03*
X048593Y018125D03*
X048593Y017625D03*
X048593Y017125D03*
X048593Y016625D03*
X048593Y016125D03*
X048593Y015625D03*
X048593Y015125D03*
X049093Y015125D03*
X049093Y015625D03*
X049093Y016125D03*
X049093Y016625D03*
X049093Y017125D03*
X049093Y017625D03*
X049093Y018125D03*
X049593Y018125D03*
X049593Y017625D03*
X049593Y017125D03*
X049593Y016625D03*
X049593Y016125D03*
X049593Y015625D03*
X049593Y015125D03*
X049593Y014625D03*
X049093Y014625D03*
X048593Y014625D03*
X048093Y014625D03*
X047593Y014625D03*
X047093Y014625D03*
X046593Y014625D03*
X046093Y014625D03*
X045593Y014625D03*
X039093Y018475D03*
X038443Y018475D03*
X038043Y018425D03*
X037143Y018325D03*
X036593Y018775D03*
X035793Y018675D03*
X037143Y017525D03*
X036593Y017075D03*
X036693Y016725D03*
X037243Y016325D03*
X037243Y015425D03*
X036693Y015025D03*
X035893Y015125D03*
X035893Y016625D03*
X035793Y017175D03*
X033243Y017225D03*
X032693Y017425D03*
X033243Y020175D03*
X033893Y021425D03*
X031643Y021475D03*
X031243Y020825D03*
X031343Y022325D03*
X030493Y022325D03*
X029993Y022775D03*
X029993Y023575D03*
X030543Y024025D03*
X031343Y023825D03*
X033893Y024375D03*
X035693Y023825D03*
X036493Y024025D03*
X036493Y023175D03*
X036993Y022825D03*
X038143Y023425D03*
X038443Y021525D03*
X037743Y021525D03*
X037043Y021725D03*
X038143Y020725D03*
X037043Y025375D03*
X033493Y026825D03*
X032593Y026825D03*
X031343Y026325D03*
X033393Y028275D03*
X032943Y029375D03*
X032043Y030075D03*
X031643Y030325D03*
X030993Y029475D03*
X033393Y031175D03*
X035643Y030775D03*
X036693Y032325D03*
X037093Y029575D03*
X035743Y029025D03*
X029093Y036875D03*
X021593Y036425D03*
X021593Y035875D03*
X020501Y032825D03*
X020493Y030225D03*
X018693Y030025D03*
X018693Y029325D03*
X017743Y029025D03*
X016443Y028725D03*
X016443Y027875D03*
X016993Y027425D03*
X017693Y027425D03*
X022293Y029025D03*
X024193Y028275D03*
X014293Y036125D03*
X014643Y036425D03*
X012243Y036425D03*
X012243Y035875D03*
X018093Y036875D03*
X010393Y018125D03*
X011743Y017225D03*
X011743Y015725D03*
X010093Y015725D03*
X009993Y014125D03*
X009993Y013075D03*
X015593Y009875D03*
X021243Y016925D03*
X021243Y017325D03*
X021243Y017725D03*
X021643Y017725D03*
X021643Y017325D03*
X021643Y016925D03*
D22*
X030993Y021075D02*
X031243Y020825D01*
X030993Y021075D02*
X030993Y029475D01*
X031643Y030325D02*
X031643Y021475D01*
X038043Y020625D02*
X038043Y018425D01*
X038043Y020625D02*
X038143Y020725D01*
X036693Y032325D02*
X035893Y033125D01*
X029793Y033125D01*
X028593Y034325D01*
X028593Y035725D01*
X028093Y036225D01*
X021793Y036225D01*
X021593Y036425D01*
X018093Y036875D02*
X029093Y036875D01*
X022293Y031032D02*
X022293Y029025D01*
X020493Y030225D02*
X020493Y032225D01*
X017793Y034925D01*
X017793Y035275D01*
X017843Y035325D01*
X014293Y036125D02*
X014293Y036425D01*
X013793Y036925D01*
X006193Y036925D01*
X005793Y036525D01*
X005793Y029325D01*
X006393Y028725D01*
X008341Y028725D01*
X020501Y032825D02*
X022293Y031032D01*
X045093Y008375D02*
X045093Y007508D01*
X046078Y007508D02*
X046078Y008375D01*
X046043Y008375D01*
D23*
X036443Y009675D03*
X035993Y009675D03*
X035543Y009675D03*
X035093Y009675D03*
X034643Y009675D03*
X034193Y009675D03*
X034193Y010125D03*
X034193Y010575D03*
X034193Y011025D03*
X036443Y011025D03*
X036443Y010575D03*
X036443Y010125D03*
X030943Y015375D03*
X023243Y026725D03*
X019943Y027775D03*
X010093Y017425D03*
X014793Y015125D03*
X014693Y011825D03*
D24*
X018443Y011425D02*
X018943Y010925D01*
X023643Y010925D01*
X024043Y010525D01*
X024043Y010175D01*
X030343Y015375D02*
X028243Y017475D01*
X028243Y024225D01*
X027743Y024725D01*
X025243Y024725D01*
X023243Y026725D01*
X031893Y021025D02*
X031893Y019925D01*
X030893Y018925D01*
X028743Y018925D01*
X027341Y017725D02*
X024393Y017725D01*
X023193Y016525D01*
X016793Y016525D01*
X015593Y017725D01*
X010393Y017725D01*
X010093Y017425D01*
X030343Y015375D02*
X030943Y015375D01*
D25*
X023243Y014975D03*
X023243Y012575D03*
X025193Y023025D03*
X025193Y023725D03*
X042643Y031225D03*
X048693Y031225D03*
X048393Y028025D03*
X048493Y025875D03*
X048543Y023475D03*
D26*
X049793Y023455D02*
X044793Y023455D01*
X044793Y023516D02*
X044735Y023575D01*
X044043Y023575D01*
X044043Y023675D01*
X044044Y023757D01*
X044043Y023757D01*
X044043Y023758D01*
X043985Y023816D01*
X043927Y023875D01*
X043926Y023875D01*
X043844Y023875D01*
X036705Y023905D01*
X036728Y023928D01*
X036728Y024122D01*
X036591Y024260D01*
X036396Y024260D01*
X036258Y024122D01*
X036258Y023928D01*
X036280Y023906D01*
X035928Y023908D01*
X035928Y023922D01*
X035791Y024060D01*
X035596Y024060D01*
X035458Y023922D01*
X035458Y023910D01*
X031876Y023925D01*
X031803Y023925D01*
X031803Y030153D01*
X031878Y030228D01*
X031878Y030422D01*
X031793Y030507D01*
X031793Y032475D01*
X036317Y032475D01*
X036458Y032334D01*
X036458Y032228D01*
X036596Y032090D01*
X036791Y032090D01*
X036928Y032228D01*
X036928Y032422D01*
X036876Y032475D01*
X049793Y032475D01*
X049793Y014425D01*
X031793Y014475D01*
X031793Y019457D01*
X032041Y019705D01*
X032114Y019778D01*
X032153Y019873D01*
X032153Y020625D01*
X037883Y020625D01*
X037883Y018597D01*
X037808Y018522D01*
X037808Y018328D01*
X037946Y018190D01*
X038141Y018190D01*
X038226Y018275D01*
X038276Y018275D01*
X038311Y018275D01*
X038346Y018240D01*
X038541Y018240D01*
X038576Y018275D01*
X038961Y018275D01*
X038996Y018240D01*
X039191Y018240D01*
X039226Y018275D01*
X039376Y018275D01*
X039493Y018392D01*
X039493Y020625D01*
X043926Y020625D01*
X044043Y020742D01*
X044043Y022275D01*
X044735Y022275D01*
X044793Y022334D01*
X044793Y023516D01*
X044756Y023554D02*
X049793Y023554D01*
X049793Y023652D02*
X045603Y023652D01*
X045591Y023640D02*
X045728Y023778D01*
X045728Y023972D01*
X045591Y024110D01*
X045396Y024110D01*
X045258Y023972D01*
X045258Y023778D01*
X045396Y023640D01*
X045591Y023640D01*
X045701Y023751D02*
X049793Y023751D01*
X049793Y023849D02*
X045728Y023849D01*
X045728Y023948D02*
X049793Y023948D01*
X049793Y024046D02*
X045655Y024046D01*
X045332Y024046D02*
X036728Y024046D01*
X036728Y023948D02*
X045258Y023948D01*
X045258Y023849D02*
X043952Y023849D01*
X043926Y023875D02*
X043926Y023875D01*
X044044Y023751D02*
X045285Y023751D01*
X045384Y023652D02*
X044043Y023652D01*
X043843Y023652D02*
X035923Y023652D01*
X035935Y023664D02*
X035953Y023708D01*
X043843Y023675D01*
X043843Y023575D01*
X043052Y023575D01*
X042993Y023516D01*
X042993Y023434D01*
X042993Y022416D01*
X042993Y022334D01*
X043052Y022275D01*
X043843Y022275D01*
X043843Y020825D01*
X039293Y020825D01*
X039293Y018678D01*
X039255Y018717D01*
X039150Y018760D01*
X039037Y018760D01*
X038932Y018717D01*
X038852Y018636D01*
X038808Y018532D01*
X038808Y018475D01*
X038328Y018475D01*
X038328Y018482D01*
X038285Y018586D01*
X038253Y018618D01*
X038253Y020462D01*
X038305Y020483D01*
X038385Y020564D01*
X038428Y020668D01*
X038428Y020782D01*
X038385Y020886D01*
X038305Y020967D01*
X038200Y021010D01*
X038087Y021010D01*
X037982Y020967D01*
X037902Y020886D01*
X037876Y020825D01*
X031793Y020825D01*
X031793Y021229D01*
X031805Y021233D01*
X031885Y021314D01*
X031928Y021418D01*
X031928Y021532D01*
X031885Y021636D01*
X031853Y021668D01*
X031853Y023725D01*
X035433Y023710D01*
X035452Y023664D01*
X035532Y023583D01*
X035637Y023540D01*
X035750Y023540D01*
X035855Y023583D01*
X035935Y023664D01*
X035783Y023554D02*
X043030Y023554D01*
X042993Y023455D02*
X031853Y023455D01*
X031853Y023357D02*
X042993Y023357D01*
X042993Y023258D02*
X031853Y023258D01*
X031853Y023160D02*
X042993Y023160D01*
X042993Y023061D02*
X031853Y023061D01*
X031853Y022963D02*
X042993Y022963D01*
X042993Y022864D02*
X031853Y022864D01*
X031853Y022766D02*
X040681Y022766D01*
X040682Y022767D02*
X040602Y022686D01*
X040558Y022582D01*
X040558Y022468D01*
X040602Y022364D01*
X040682Y022283D01*
X040787Y022240D01*
X040900Y022240D01*
X041005Y022283D01*
X041085Y022364D01*
X041128Y022468D01*
X041128Y022582D01*
X041085Y022686D01*
X041005Y022767D01*
X040900Y022810D01*
X040787Y022810D01*
X040682Y022767D01*
X040594Y022667D02*
X031853Y022667D01*
X031853Y022569D02*
X040558Y022569D01*
X040558Y022470D02*
X031853Y022470D01*
X031853Y022372D02*
X040598Y022372D01*
X040707Y022273D02*
X031853Y022273D01*
X031853Y022175D02*
X042008Y022175D01*
X042008Y022168D02*
X042052Y022064D01*
X042132Y021983D01*
X042237Y021940D01*
X042350Y021940D01*
X042455Y021983D01*
X042535Y022064D01*
X042578Y022168D01*
X042578Y022282D01*
X042535Y022386D01*
X042455Y022467D01*
X042350Y022510D01*
X042237Y022510D01*
X042132Y022467D01*
X042052Y022386D01*
X042008Y022282D01*
X042008Y022168D01*
X042047Y022076D02*
X031853Y022076D01*
X031853Y021978D02*
X036908Y021978D01*
X036882Y021967D02*
X036802Y021886D01*
X036758Y021782D01*
X036758Y021668D01*
X036802Y021564D01*
X036882Y021483D01*
X036987Y021440D01*
X037100Y021440D01*
X037205Y021483D01*
X037285Y021564D01*
X037328Y021668D01*
X037328Y021782D01*
X037285Y021886D01*
X037205Y021967D01*
X037100Y022010D01*
X036987Y022010D01*
X036882Y021967D01*
X036799Y021879D02*
X031853Y021879D01*
X031853Y021781D02*
X036758Y021781D01*
X036758Y021682D02*
X034017Y021682D01*
X034055Y021667D02*
X033950Y021710D01*
X033837Y021710D01*
X033732Y021667D01*
X033652Y021586D01*
X033608Y021482D01*
X033608Y021368D01*
X033652Y021264D01*
X033732Y021183D01*
X033837Y021140D01*
X033950Y021140D01*
X034055Y021183D01*
X034135Y021264D01*
X034178Y021368D01*
X034178Y021482D01*
X034135Y021586D01*
X034055Y021667D01*
X034136Y021584D02*
X036793Y021584D01*
X036880Y021485D02*
X034177Y021485D01*
X034178Y021387D02*
X037492Y021387D01*
X037502Y021364D02*
X037582Y021283D01*
X037687Y021240D01*
X037800Y021240D01*
X037905Y021283D01*
X037985Y021364D01*
X038028Y021468D01*
X038028Y021582D01*
X037985Y021686D01*
X037905Y021767D01*
X037800Y021810D01*
X037687Y021810D01*
X037582Y021767D01*
X037502Y021686D01*
X037458Y021582D01*
X037458Y021468D01*
X037502Y021364D01*
X037577Y021288D02*
X034145Y021288D01*
X034061Y021190D02*
X040562Y021190D01*
X040558Y021182D02*
X040558Y021068D01*
X040602Y020964D01*
X040682Y020883D01*
X040787Y020840D01*
X040900Y020840D01*
X041005Y020883D01*
X041085Y020964D01*
X041128Y021068D01*
X041128Y021182D01*
X041085Y021286D01*
X041005Y021367D01*
X040900Y021410D01*
X040787Y021410D01*
X040682Y021367D01*
X040602Y021286D01*
X040558Y021182D01*
X040558Y021091D02*
X031793Y021091D01*
X031793Y020993D02*
X038044Y020993D01*
X037909Y020894D02*
X031793Y020894D01*
X031583Y020894D02*
X031523Y020894D01*
X031528Y020882D02*
X031485Y020986D01*
X031405Y021067D01*
X031300Y021110D01*
X031255Y021110D01*
X031203Y021162D01*
X031203Y022075D01*
X031287Y022040D01*
X031400Y022040D01*
X031433Y022054D01*
X031433Y021668D01*
X031402Y021636D01*
X031358Y021532D01*
X031358Y021418D01*
X031402Y021314D01*
X031482Y021233D01*
X031587Y021190D01*
X031593Y021190D01*
X031593Y021111D01*
X031583Y021087D01*
X031583Y020053D01*
X030765Y019235D01*
X028980Y019235D01*
X028962Y019252D01*
X028820Y019311D01*
X028666Y019311D01*
X028553Y019264D01*
X028553Y024287D01*
X028506Y024401D01*
X028419Y024488D01*
X027919Y024988D01*
X027805Y025035D01*
X025372Y025035D01*
X023558Y026849D01*
X023530Y026917D01*
X023435Y027012D01*
X023311Y027063D01*
X023176Y027063D01*
X023052Y027012D01*
X022957Y026917D01*
X022905Y026792D01*
X022905Y026658D01*
X022957Y026533D01*
X023052Y026438D01*
X023120Y026410D01*
X021314Y026410D01*
X021415Y026312D02*
X023218Y026312D01*
X023120Y026410D02*
X024981Y024549D01*
X025068Y024462D01*
X025182Y024415D01*
X026293Y024415D01*
X026293Y022825D01*
X024993Y022825D01*
X021093Y026625D01*
X021093Y029225D01*
X020193Y029225D01*
X020193Y032228D01*
X020283Y032138D01*
X020283Y030418D01*
X020252Y030386D01*
X020208Y030282D01*
X020208Y030168D01*
X020252Y030064D01*
X020332Y029983D01*
X020437Y029940D01*
X020550Y029940D01*
X020655Y029983D01*
X020735Y030064D01*
X020778Y030168D01*
X020778Y030282D01*
X020735Y030386D01*
X020703Y030418D01*
X020703Y032312D01*
X020475Y032540D01*
X020489Y032540D01*
X022083Y030945D01*
X022083Y029218D01*
X022052Y029186D01*
X022008Y029082D01*
X022008Y028968D01*
X022052Y028864D01*
X022132Y028783D01*
X022237Y028740D01*
X022350Y028740D01*
X022455Y028783D01*
X022535Y028864D01*
X022578Y028968D01*
X022578Y029082D01*
X022535Y029186D01*
X022503Y029218D01*
X022503Y031119D01*
X022380Y031242D01*
X020786Y032837D01*
X020786Y032882D01*
X020742Y032986D01*
X020662Y033067D01*
X020557Y033110D01*
X020444Y033110D01*
X020339Y033067D01*
X020259Y032986D01*
X020216Y032882D01*
X020216Y032800D01*
X018061Y034955D01*
X018259Y035153D01*
X018259Y035497D01*
X018016Y035741D01*
X017671Y035741D01*
X017428Y035497D01*
X017428Y035153D01*
X017583Y034997D01*
X017583Y034838D01*
X017706Y034715D01*
X019896Y032525D01*
X015293Y032525D01*
X015293Y030625D01*
X011510Y030625D01*
X011821Y030936D01*
X011821Y031514D01*
X011412Y031922D01*
X010834Y031922D01*
X010426Y031514D01*
X010426Y030936D01*
X010737Y030625D01*
X009660Y030625D01*
X009971Y030936D01*
X009971Y031514D01*
X009562Y031922D01*
X008984Y031922D01*
X008576Y031514D01*
X008576Y031425D01*
X008121Y031425D01*
X008121Y031514D01*
X007712Y031922D01*
X007134Y031922D01*
X006726Y031514D01*
X006726Y031425D01*
X006003Y031425D01*
X006003Y036438D01*
X006280Y036715D01*
X007777Y036715D01*
X007576Y036514D01*
X007576Y035936D01*
X007984Y035528D01*
X008562Y035528D01*
X008971Y035936D01*
X008971Y036514D01*
X008770Y036715D01*
X009777Y036715D01*
X009576Y036514D01*
X009576Y035936D01*
X009984Y035528D01*
X010562Y035528D01*
X010971Y035936D01*
X010971Y036514D01*
X010770Y036715D01*
X013703Y036715D01*
X014043Y036375D01*
X014043Y036266D01*
X014008Y036182D01*
X014008Y036068D01*
X014043Y035984D01*
X014043Y035925D01*
X014090Y035925D01*
X014132Y035883D01*
X014237Y035840D01*
X014350Y035840D01*
X014455Y035883D01*
X014496Y035925D01*
X016143Y035925D01*
X016143Y036975D01*
X017826Y036975D01*
X017808Y036932D01*
X017808Y036818D01*
X017852Y036714D01*
X017932Y036633D01*
X018037Y036590D01*
X018150Y036590D01*
X018255Y036633D01*
X018286Y036665D01*
X021430Y036665D01*
X021352Y036586D01*
X021308Y036482D01*
X021308Y036368D01*
X021352Y036264D01*
X021432Y036183D01*
X021512Y036150D01*
X021432Y036117D01*
X021352Y036036D01*
X021308Y035932D01*
X021308Y035818D01*
X021352Y035714D01*
X021432Y035633D01*
X021537Y035590D01*
X021650Y035590D01*
X021755Y035633D01*
X021835Y035714D01*
X021878Y035818D01*
X021878Y035932D01*
X021844Y036015D01*
X028006Y036015D01*
X028383Y035638D01*
X028383Y034238D01*
X029706Y032915D01*
X035806Y032915D01*
X036046Y032675D01*
X031710Y032675D01*
X031593Y032558D01*
X031593Y030610D01*
X031587Y030610D01*
X031482Y030567D01*
X031402Y030486D01*
X031358Y030382D01*
X031358Y030268D01*
X031402Y030164D01*
X031433Y030132D01*
X031433Y022596D01*
X031400Y022610D01*
X031287Y022610D01*
X031203Y022575D01*
X031203Y029282D01*
X031235Y029314D01*
X031278Y029418D01*
X031278Y029532D01*
X031235Y029636D01*
X031155Y029717D01*
X031050Y029760D01*
X030937Y029760D01*
X030832Y029717D01*
X030752Y029636D01*
X030708Y029532D01*
X030708Y029418D01*
X030752Y029314D01*
X030783Y029282D01*
X030783Y020988D01*
X030958Y020813D01*
X030958Y020768D01*
X031002Y020664D01*
X031082Y020583D01*
X031187Y020540D01*
X031300Y020540D01*
X031405Y020583D01*
X031485Y020664D01*
X031528Y020768D01*
X031528Y020882D01*
X031528Y020796D02*
X031583Y020796D01*
X031583Y020697D02*
X031499Y020697D01*
X031420Y020599D02*
X031583Y020599D01*
X031583Y020500D02*
X028553Y020500D01*
X028553Y020402D02*
X031583Y020402D01*
X031583Y020303D02*
X028553Y020303D01*
X028553Y020205D02*
X031583Y020205D01*
X031583Y020106D02*
X028553Y020106D01*
X028553Y020008D02*
X031537Y020008D01*
X031439Y019909D02*
X028553Y019909D01*
X028553Y019811D02*
X031340Y019811D01*
X031242Y019712D02*
X028553Y019712D01*
X028553Y019614D02*
X031143Y019614D01*
X031045Y019515D02*
X028553Y019515D01*
X028553Y019417D02*
X030946Y019417D01*
X030848Y019318D02*
X028553Y019318D01*
X028553Y018586D02*
X028666Y018539D01*
X028820Y018539D01*
X028962Y018598D01*
X028980Y018615D01*
X030955Y018615D01*
X031069Y018662D01*
X031593Y019187D01*
X031593Y014475D01*
X031593Y014393D01*
X013693Y014393D01*
X013693Y014295D02*
X031691Y014295D01*
X031710Y014275D02*
X031710Y014275D01*
X031652Y014334D01*
X031593Y014392D01*
X031593Y014392D01*
X031593Y014393D01*
X031593Y014492D02*
X013693Y014492D01*
X013693Y014590D02*
X031593Y014590D01*
X031593Y014689D02*
X013693Y014689D01*
X013693Y014787D02*
X031593Y014787D01*
X031593Y014886D02*
X013693Y014886D01*
X013693Y014984D02*
X031593Y014984D01*
X031593Y015083D02*
X031121Y015083D01*
X031135Y015088D02*
X031011Y015037D01*
X030876Y015037D01*
X030808Y015065D01*
X030282Y015065D01*
X030168Y015112D01*
X027993Y017287D01*
X027993Y016175D01*
X017079Y016175D01*
X017130Y016052D01*
X017130Y015898D01*
X017071Y015756D01*
X016962Y015648D01*
X016820Y015589D01*
X016666Y015589D01*
X016525Y015648D01*
X016416Y015756D01*
X016357Y015898D01*
X016357Y016052D01*
X016408Y016175D01*
X014455Y016175D01*
X013693Y015413D01*
X013693Y007025D01*
X019593Y007025D01*
X020393Y006225D01*
X022243Y006225D01*
X022843Y006825D01*
X022843Y008696D01*
X022563Y008976D01*
X022563Y009374D01*
X022844Y009655D01*
X023242Y009655D01*
X023522Y009375D01*
X023564Y009375D01*
X023844Y009655D01*
X024242Y009655D01*
X024443Y009454D01*
X024443Y009896D01*
X024242Y009695D01*
X023844Y009695D01*
X023563Y009976D01*
X023563Y010374D01*
X023660Y010470D01*
X023515Y010615D01*
X023282Y010615D01*
X023523Y010374D01*
X023523Y009976D01*
X023242Y009695D01*
X022844Y009695D01*
X022563Y009976D01*
X022563Y010374D01*
X022804Y010615D01*
X018882Y010615D01*
X018768Y010662D01*
X018391Y011039D01*
X018366Y011039D01*
X018225Y011098D01*
X018116Y011206D01*
X018057Y011348D01*
X018057Y011502D01*
X018116Y011644D01*
X018225Y011752D01*
X018366Y011811D01*
X018520Y011811D01*
X018662Y011752D01*
X018771Y011644D01*
X018830Y011502D01*
X018830Y011477D01*
X019072Y011235D01*
X023705Y011235D01*
X023819Y011188D01*
X023906Y011101D01*
X024306Y010701D01*
X024353Y010587D01*
X024353Y010544D01*
X024443Y010454D01*
X024443Y010608D01*
X024560Y010725D01*
X025526Y010725D01*
X025543Y010708D01*
X025560Y010725D01*
X026526Y010725D01*
X026643Y010608D01*
X026643Y009394D01*
X027163Y008875D01*
X037723Y008875D01*
X037962Y008776D01*
X038144Y008593D01*
X039644Y007093D01*
X039672Y007027D01*
X039716Y006983D01*
X039716Y006921D01*
X039743Y006854D01*
X039743Y006596D01*
X039716Y006529D01*
X039716Y006467D01*
X039672Y006423D01*
X039644Y006357D01*
X039462Y006174D01*
X039395Y006146D01*
X039351Y006103D01*
X039289Y006103D01*
X039223Y006075D01*
X038964Y006075D01*
X038897Y006103D01*
X038835Y006103D01*
X038792Y006146D01*
X038725Y006174D01*
X037324Y007575D01*
X035691Y007575D01*
X036034Y007232D01*
X036034Y006618D01*
X035600Y006184D01*
X034987Y006184D01*
X034553Y006618D01*
X034553Y007232D01*
X034896Y007575D01*
X026764Y007575D01*
X026525Y007674D01*
X026342Y007857D01*
X026342Y007857D01*
X025693Y008506D01*
X025693Y008375D01*
X025715Y008322D01*
X026663Y007375D01*
X031723Y007375D01*
X031789Y007347D01*
X031851Y007347D01*
X031895Y007304D01*
X031962Y007276D01*
X032144Y007093D01*
X032172Y007027D01*
X032216Y006983D01*
X032216Y006921D01*
X032243Y006854D01*
X032243Y006596D01*
X032216Y006529D01*
X032216Y006467D01*
X032172Y006423D01*
X032144Y006357D01*
X031962Y006174D01*
X031895Y006146D01*
X031851Y006103D01*
X031789Y006103D01*
X031723Y006075D01*
X026264Y006075D01*
X026025Y006174D01*
X024725Y007474D01*
X024542Y007657D01*
X024443Y007896D01*
X024443Y007925D01*
X024393Y008046D01*
X024393Y008654D01*
X024443Y008775D01*
X024443Y008896D01*
X024243Y008696D01*
X024243Y007575D01*
X022638Y005925D01*
X053910Y005925D01*
X054293Y006308D01*
X054293Y035942D01*
X053910Y036325D01*
X029810Y036325D01*
X029360Y036775D01*
X029335Y036714D01*
X029255Y036633D01*
X029150Y036590D01*
X029037Y036590D01*
X028932Y036633D01*
X028900Y036665D01*
X021756Y036665D01*
X021835Y036586D01*
X021878Y036482D01*
X021878Y036437D01*
X021880Y036435D01*
X028180Y036435D01*
X028303Y036312D01*
X028803Y035812D01*
X028803Y034412D01*
X029880Y033335D01*
X035980Y033335D01*
X036103Y033212D01*
X036640Y032675D01*
X049876Y032675D01*
X049993Y032558D01*
X049993Y014508D01*
X049994Y014507D01*
X049993Y014425D01*
X049993Y014342D01*
X049993Y014342D01*
X049993Y014342D01*
X049935Y014284D01*
X049876Y014225D01*
X049876Y014225D01*
X049876Y014225D01*
X049793Y014225D01*
X049710Y014225D01*
X049710Y014225D01*
X031793Y014275D01*
X031710Y014275D01*
X031710Y014275D01*
X031793Y014492D02*
X049793Y014492D01*
X049793Y014590D02*
X031793Y014590D01*
X031793Y014689D02*
X049793Y014689D01*
X049793Y014787D02*
X031793Y014787D01*
X031793Y014886D02*
X036500Y014886D01*
X036458Y014928D02*
X036596Y014790D01*
X036791Y014790D01*
X036928Y014928D01*
X036928Y015122D01*
X036791Y015260D01*
X036596Y015260D01*
X036458Y015122D01*
X036458Y014928D01*
X036458Y014984D02*
X036085Y014984D01*
X036128Y015028D02*
X035991Y014890D01*
X035796Y014890D01*
X035658Y015028D01*
X035658Y015222D01*
X035796Y015360D01*
X035991Y015360D01*
X036128Y015222D01*
X036128Y015028D01*
X036128Y015083D02*
X036458Y015083D01*
X036517Y015181D02*
X036128Y015181D01*
X036071Y015280D02*
X037056Y015280D01*
X037008Y015328D02*
X037146Y015190D01*
X037341Y015190D01*
X037478Y015328D01*
X037478Y015522D01*
X037341Y015660D01*
X037146Y015660D01*
X037008Y015522D01*
X037008Y015328D01*
X037008Y015378D02*
X031793Y015378D01*
X031793Y015280D02*
X035715Y015280D01*
X035658Y015181D02*
X031793Y015181D01*
X031793Y015083D02*
X035658Y015083D01*
X035702Y014984D02*
X031793Y014984D01*
X031593Y015181D02*
X031227Y015181D01*
X031230Y015183D02*
X031281Y015308D01*
X031281Y015442D01*
X031230Y015567D01*
X031135Y015662D01*
X031011Y015713D01*
X030876Y015713D01*
X030808Y015685D01*
X030472Y015685D01*
X028553Y017603D01*
X028553Y018586D01*
X028553Y018530D02*
X031593Y018530D01*
X031593Y018432D02*
X028553Y018432D01*
X028553Y018333D02*
X031593Y018333D01*
X031593Y018235D02*
X028553Y018235D01*
X028553Y018136D02*
X031593Y018136D01*
X031593Y018038D02*
X028553Y018038D01*
X028553Y017939D02*
X031593Y017939D01*
X031593Y017841D02*
X028553Y017841D01*
X028553Y017742D02*
X031593Y017742D01*
X031593Y017644D02*
X028553Y017644D01*
X028612Y017545D02*
X031593Y017545D01*
X031593Y017447D02*
X028710Y017447D01*
X028809Y017348D02*
X031593Y017348D01*
X031593Y017250D02*
X028907Y017250D01*
X029006Y017151D02*
X031593Y017151D01*
X031593Y017053D02*
X029104Y017053D01*
X029203Y016954D02*
X031593Y016954D01*
X031593Y016856D02*
X029301Y016856D01*
X029400Y016757D02*
X031593Y016757D01*
X031593Y016659D02*
X029498Y016659D01*
X029597Y016560D02*
X031593Y016560D01*
X031593Y016462D02*
X029695Y016462D01*
X029794Y016363D02*
X031593Y016363D01*
X031593Y016265D02*
X029892Y016265D01*
X029991Y016166D02*
X031593Y016166D01*
X031593Y016068D02*
X030089Y016068D01*
X030188Y015969D02*
X031593Y015969D01*
X031593Y015871D02*
X030286Y015871D01*
X030385Y015772D02*
X031593Y015772D01*
X031593Y015674D02*
X031106Y015674D01*
X031221Y015575D02*
X031593Y015575D01*
X031593Y015477D02*
X031267Y015477D01*
X031281Y015378D02*
X031593Y015378D01*
X031593Y015280D02*
X031270Y015280D01*
X031230Y015183D02*
X031135Y015088D01*
X031793Y015477D02*
X037008Y015477D01*
X037061Y015575D02*
X031793Y015575D01*
X031793Y015674D02*
X049793Y015674D01*
X049793Y015772D02*
X031793Y015772D01*
X031793Y015871D02*
X049793Y015871D01*
X049793Y015969D02*
X031793Y015969D01*
X031793Y016068D02*
X049793Y016068D01*
X049793Y016166D02*
X031793Y016166D01*
X031793Y016265D02*
X049793Y016265D01*
X049793Y016363D02*
X031793Y016363D01*
X031793Y016462D02*
X049793Y016462D01*
X049793Y016560D02*
X031793Y016560D01*
X031793Y016659D02*
X049793Y016659D01*
X049793Y016757D02*
X031793Y016757D01*
X031793Y016856D02*
X036480Y016856D01*
X036496Y016840D02*
X036691Y016840D01*
X036828Y016978D01*
X036828Y017172D01*
X036691Y017310D01*
X036496Y017310D01*
X036358Y017172D01*
X036358Y016978D01*
X036496Y016840D01*
X036382Y016954D02*
X035905Y016954D01*
X035891Y016940D02*
X036028Y017078D01*
X036028Y017272D01*
X035891Y017410D01*
X035696Y017410D01*
X035558Y017272D01*
X035558Y017078D01*
X035696Y016940D01*
X035891Y016940D01*
X036003Y017053D02*
X036358Y017053D01*
X036358Y017151D02*
X036028Y017151D01*
X036028Y017250D02*
X036435Y017250D01*
X036751Y017250D02*
X049793Y017250D01*
X049793Y017348D02*
X037299Y017348D01*
X037241Y017290D02*
X037378Y017428D01*
X037378Y017622D01*
X037241Y017760D01*
X037046Y017760D01*
X036908Y017622D01*
X036908Y017428D01*
X037046Y017290D01*
X037241Y017290D01*
X037378Y017447D02*
X049793Y017447D01*
X049793Y017545D02*
X037378Y017545D01*
X037357Y017644D02*
X049793Y017644D01*
X049793Y017742D02*
X037259Y017742D01*
X037028Y017742D02*
X031793Y017742D01*
X031793Y017644D02*
X032579Y017644D01*
X032596Y017660D02*
X032458Y017522D01*
X032458Y017328D01*
X032596Y017190D01*
X032791Y017190D01*
X032928Y017328D01*
X032928Y017522D01*
X032791Y017660D01*
X032596Y017660D01*
X032481Y017545D02*
X031793Y017545D01*
X031793Y017447D02*
X032458Y017447D01*
X032458Y017348D02*
X031793Y017348D01*
X031793Y017250D02*
X032536Y017250D01*
X032850Y017250D02*
X033008Y017250D01*
X033008Y017322D02*
X033008Y017128D01*
X033146Y016990D01*
X033341Y016990D01*
X033478Y017128D01*
X033478Y017322D01*
X033341Y017460D01*
X033146Y017460D01*
X033008Y017322D01*
X033034Y017348D02*
X032928Y017348D01*
X032928Y017447D02*
X033132Y017447D01*
X033354Y017447D02*
X036908Y017447D01*
X036908Y017545D02*
X032906Y017545D01*
X032807Y017644D02*
X036929Y017644D01*
X036988Y017348D02*
X035953Y017348D01*
X035634Y017348D02*
X033453Y017348D01*
X033478Y017250D02*
X035558Y017250D01*
X035558Y017151D02*
X033478Y017151D01*
X033403Y017053D02*
X035583Y017053D01*
X035682Y016954D02*
X031793Y016954D01*
X031793Y017053D02*
X033083Y017053D01*
X033008Y017151D02*
X031793Y017151D01*
X031793Y017841D02*
X049793Y017841D01*
X049793Y017939D02*
X031793Y017939D01*
X031793Y018038D02*
X049793Y018038D01*
X049793Y018136D02*
X031793Y018136D01*
X031793Y018235D02*
X037901Y018235D01*
X037808Y018333D02*
X031793Y018333D01*
X031793Y018432D02*
X037808Y018432D01*
X037816Y018530D02*
X031793Y018530D01*
X031793Y018629D02*
X037883Y018629D01*
X037883Y018727D02*
X031793Y018727D01*
X031793Y018826D02*
X037883Y018826D01*
X037883Y018924D02*
X031793Y018924D01*
X031793Y019023D02*
X037883Y019023D01*
X037883Y019121D02*
X031793Y019121D01*
X031793Y019220D02*
X037883Y019220D01*
X037883Y019318D02*
X031793Y019318D01*
X031793Y019417D02*
X037883Y019417D01*
X037883Y019515D02*
X031851Y019515D01*
X031950Y019614D02*
X037883Y019614D01*
X037883Y019712D02*
X032048Y019712D01*
X032127Y019811D02*
X037883Y019811D01*
X037883Y019909D02*
X032153Y019909D01*
X032153Y020008D02*
X033078Y020008D01*
X033146Y019940D02*
X033008Y020078D01*
X033008Y020272D01*
X033146Y020410D01*
X033341Y020410D01*
X033478Y020272D01*
X033478Y020078D01*
X033341Y019940D01*
X033146Y019940D01*
X033008Y020106D02*
X032153Y020106D01*
X032153Y020205D02*
X033008Y020205D01*
X033039Y020303D02*
X032153Y020303D01*
X032153Y020402D02*
X033138Y020402D01*
X033349Y020402D02*
X037883Y020402D01*
X037883Y020500D02*
X032153Y020500D01*
X032153Y020599D02*
X037883Y020599D01*
X037883Y020303D02*
X033448Y020303D01*
X033478Y020205D02*
X037883Y020205D01*
X037883Y020106D02*
X033478Y020106D01*
X033408Y020008D02*
X037883Y020008D01*
X038253Y020008D02*
X039293Y020008D01*
X039293Y020106D02*
X038253Y020106D01*
X038253Y020205D02*
X039293Y020205D01*
X039293Y020303D02*
X038253Y020303D01*
X038253Y020402D02*
X039293Y020402D01*
X039293Y020500D02*
X038321Y020500D01*
X038399Y020599D02*
X039293Y020599D01*
X039293Y020697D02*
X038428Y020697D01*
X038423Y020796D02*
X039293Y020796D01*
X039493Y020599D02*
X041785Y020599D01*
X041796Y020610D02*
X041658Y020472D01*
X041658Y020278D01*
X041796Y020140D01*
X041991Y020140D01*
X042128Y020278D01*
X042128Y020472D01*
X041991Y020610D01*
X041796Y020610D01*
X041686Y020500D02*
X039493Y020500D01*
X039493Y020402D02*
X041658Y020402D01*
X041658Y020303D02*
X039493Y020303D01*
X039493Y020205D02*
X041731Y020205D01*
X042055Y020205D02*
X049793Y020205D01*
X049793Y020303D02*
X042128Y020303D01*
X042128Y020402D02*
X049793Y020402D01*
X049793Y020500D02*
X042101Y020500D01*
X042002Y020599D02*
X049793Y020599D01*
X049793Y020697D02*
X043998Y020697D01*
X044043Y020796D02*
X049793Y020796D01*
X049793Y020894D02*
X044043Y020894D01*
X044043Y020993D02*
X049793Y020993D01*
X049793Y021091D02*
X044043Y021091D01*
X044043Y021190D02*
X049793Y021190D01*
X049793Y021288D02*
X044043Y021288D01*
X044043Y021387D02*
X049793Y021387D01*
X049793Y021485D02*
X044043Y021485D01*
X044043Y021584D02*
X049793Y021584D01*
X049793Y021682D02*
X044043Y021682D01*
X044043Y021781D02*
X049793Y021781D01*
X049793Y021879D02*
X044043Y021879D01*
X044043Y021978D02*
X049793Y021978D01*
X049793Y022076D02*
X044043Y022076D01*
X044043Y022175D02*
X049793Y022175D01*
X049793Y022273D02*
X044043Y022273D01*
X043843Y022273D02*
X042578Y022273D01*
X042578Y022175D02*
X043843Y022175D01*
X043843Y022076D02*
X042540Y022076D01*
X042441Y021978D02*
X043843Y021978D01*
X043843Y021879D02*
X037288Y021879D01*
X037328Y021781D02*
X037615Y021781D01*
X037500Y021682D02*
X037328Y021682D01*
X037293Y021584D02*
X037459Y021584D01*
X037458Y021485D02*
X037206Y021485D01*
X037178Y021978D02*
X042146Y021978D01*
X042008Y022273D02*
X040980Y022273D01*
X041088Y022372D02*
X042046Y022372D01*
X042140Y022470D02*
X041128Y022470D01*
X041128Y022569D02*
X042993Y022569D01*
X042993Y022667D02*
X041093Y022667D01*
X041006Y022766D02*
X042993Y022766D01*
X042993Y022470D02*
X042446Y022470D01*
X042541Y022372D02*
X042993Y022372D01*
X043382Y021817D02*
X043302Y021736D01*
X043258Y021632D01*
X043258Y021518D01*
X043302Y021414D01*
X043382Y021333D01*
X043487Y021290D01*
X043600Y021290D01*
X043705Y021333D01*
X043785Y021414D01*
X043828Y021518D01*
X043828Y021632D01*
X043785Y021736D01*
X043705Y021817D01*
X043600Y021860D01*
X043487Y021860D01*
X043382Y021817D01*
X043346Y021781D02*
X038571Y021781D01*
X038605Y021767D02*
X038500Y021810D01*
X038387Y021810D01*
X038282Y021767D01*
X038202Y021686D01*
X038158Y021582D01*
X038158Y021468D01*
X038202Y021364D01*
X038282Y021283D01*
X038387Y021240D01*
X038500Y021240D01*
X038605Y021283D01*
X038685Y021364D01*
X038728Y021468D01*
X038728Y021582D01*
X038685Y021686D01*
X038605Y021767D01*
X038687Y021682D02*
X043279Y021682D01*
X043258Y021584D02*
X038728Y021584D01*
X038728Y021485D02*
X043272Y021485D01*
X043329Y021387D02*
X040957Y021387D01*
X041083Y021288D02*
X043843Y021288D01*
X043843Y021190D02*
X041125Y021190D01*
X041128Y021091D02*
X043843Y021091D01*
X043843Y020993D02*
X041097Y020993D01*
X041015Y020894D02*
X043843Y020894D01*
X043843Y021387D02*
X043758Y021387D01*
X043815Y021485D02*
X043843Y021485D01*
X043843Y021584D02*
X043828Y021584D01*
X043843Y021682D02*
X043807Y021682D01*
X043843Y021781D02*
X043741Y021781D01*
X044793Y022372D02*
X049793Y022372D01*
X049793Y022470D02*
X044793Y022470D01*
X044793Y022569D02*
X049793Y022569D01*
X049793Y022667D02*
X044793Y022667D01*
X044793Y022766D02*
X049793Y022766D01*
X049793Y022864D02*
X044793Y022864D01*
X044793Y022963D02*
X049793Y022963D01*
X049793Y023061D02*
X044793Y023061D01*
X044793Y023160D02*
X049793Y023160D01*
X049793Y023258D02*
X044793Y023258D01*
X044793Y023357D02*
X049793Y023357D01*
X049993Y023357D02*
X054293Y023357D01*
X054293Y023455D02*
X049993Y023455D01*
X049993Y023554D02*
X054293Y023554D01*
X054293Y023652D02*
X049993Y023652D01*
X049993Y023751D02*
X054293Y023751D01*
X054293Y023849D02*
X049993Y023849D01*
X049993Y023948D02*
X054293Y023948D01*
X054293Y024046D02*
X049993Y024046D01*
X049993Y024145D02*
X054293Y024145D01*
X054293Y024243D02*
X049993Y024243D01*
X049993Y024342D02*
X054293Y024342D01*
X054293Y024440D02*
X049993Y024440D01*
X049993Y024539D02*
X054293Y024539D01*
X054293Y024637D02*
X049993Y024637D01*
X049993Y024736D02*
X054293Y024736D01*
X054293Y024834D02*
X049993Y024834D01*
X049993Y024933D02*
X054293Y024933D01*
X054293Y025031D02*
X049993Y025031D01*
X049993Y025130D02*
X054293Y025130D01*
X054293Y025228D02*
X049993Y025228D01*
X049993Y025327D02*
X054293Y025327D01*
X054293Y025425D02*
X049993Y025425D01*
X049993Y025524D02*
X054293Y025524D01*
X054293Y025622D02*
X049993Y025622D01*
X049993Y025721D02*
X054293Y025721D01*
X054293Y025819D02*
X049993Y025819D01*
X049993Y025918D02*
X054293Y025918D01*
X054293Y026016D02*
X049993Y026016D01*
X049993Y026115D02*
X054293Y026115D01*
X054293Y026213D02*
X049993Y026213D01*
X049993Y026312D02*
X054293Y026312D01*
X054293Y026410D02*
X049993Y026410D01*
X049993Y026509D02*
X054293Y026509D01*
X054293Y026607D02*
X049993Y026607D01*
X049993Y026706D02*
X054293Y026706D01*
X054293Y026804D02*
X049993Y026804D01*
X049993Y026903D02*
X054293Y026903D01*
X054293Y027001D02*
X049993Y027001D01*
X049993Y027100D02*
X054293Y027100D01*
X054293Y027198D02*
X049993Y027198D01*
X049993Y027297D02*
X054293Y027297D01*
X054293Y027395D02*
X049993Y027395D01*
X049993Y027494D02*
X054293Y027494D01*
X054293Y027592D02*
X049993Y027592D01*
X049993Y027691D02*
X054293Y027691D01*
X054293Y027789D02*
X049993Y027789D01*
X049993Y027888D02*
X054293Y027888D01*
X054293Y027986D02*
X049993Y027986D01*
X049993Y028085D02*
X050367Y028085D01*
X050383Y028068D02*
X050781Y028068D01*
X051062Y028349D01*
X051062Y028747D01*
X050781Y029028D01*
X050383Y029028D01*
X050102Y028747D01*
X050102Y028349D01*
X050383Y028068D01*
X050268Y028183D02*
X049993Y028183D01*
X049993Y028282D02*
X050170Y028282D01*
X050102Y028380D02*
X049993Y028380D01*
X049993Y028479D02*
X050102Y028479D01*
X050102Y028577D02*
X049993Y028577D01*
X049993Y028676D02*
X050102Y028676D01*
X050130Y028774D02*
X049993Y028774D01*
X049993Y028873D02*
X050228Y028873D01*
X050327Y028971D02*
X049993Y028971D01*
X049993Y029070D02*
X050382Y029070D01*
X050383Y029068D02*
X050781Y029068D01*
X051062Y029349D01*
X051062Y029747D01*
X050781Y030028D01*
X050383Y030028D01*
X050102Y029747D01*
X050102Y029349D01*
X050383Y029068D01*
X050283Y029168D02*
X049993Y029168D01*
X049993Y029267D02*
X050185Y029267D01*
X050102Y029365D02*
X049993Y029365D01*
X049993Y029464D02*
X050102Y029464D01*
X050102Y029562D02*
X049993Y029562D01*
X049993Y029661D02*
X050102Y029661D01*
X050115Y029759D02*
X049993Y029759D01*
X049993Y029858D02*
X050213Y029858D01*
X050312Y029956D02*
X049993Y029956D01*
X049993Y030055D02*
X054293Y030055D01*
X054293Y030153D02*
X049993Y030153D01*
X049993Y030252D02*
X054293Y030252D01*
X054293Y030350D02*
X049993Y030350D01*
X049993Y030449D02*
X054293Y030449D01*
X054293Y030547D02*
X049993Y030547D01*
X049993Y030646D02*
X054293Y030646D01*
X054293Y030744D02*
X049993Y030744D01*
X049993Y030843D02*
X054293Y030843D01*
X054293Y030941D02*
X049993Y030941D01*
X049993Y031040D02*
X054293Y031040D01*
X054293Y031138D02*
X049993Y031138D01*
X049993Y031237D02*
X054293Y031237D01*
X054293Y031335D02*
X049993Y031335D01*
X049993Y031434D02*
X054293Y031434D01*
X054293Y031532D02*
X049993Y031532D01*
X049993Y031631D02*
X054293Y031631D01*
X054293Y031729D02*
X049993Y031729D01*
X049993Y031828D02*
X054293Y031828D01*
X054293Y031926D02*
X049993Y031926D01*
X049993Y032025D02*
X054293Y032025D01*
X054293Y032123D02*
X049993Y032123D01*
X049993Y032222D02*
X054293Y032222D01*
X054293Y032320D02*
X049993Y032320D01*
X049993Y032419D02*
X054293Y032419D01*
X054293Y032517D02*
X049993Y032517D01*
X049936Y032616D02*
X054293Y032616D01*
X054293Y032714D02*
X036601Y032714D01*
X036503Y032813D02*
X054293Y032813D01*
X054293Y032911D02*
X036404Y032911D01*
X036306Y033010D02*
X054293Y033010D01*
X054293Y033108D02*
X036207Y033108D01*
X036109Y033207D02*
X054293Y033207D01*
X054293Y033305D02*
X036010Y033305D01*
X035810Y032911D02*
X020773Y032911D01*
X020810Y032813D02*
X030292Y032813D01*
X030338Y032832D02*
X030026Y032702D01*
X029787Y032463D01*
X029657Y032151D01*
X029657Y031813D01*
X029787Y031500D01*
X030026Y031261D01*
X030338Y031132D01*
X030677Y031132D01*
X030989Y031261D01*
X031228Y031500D01*
X031357Y031813D01*
X031357Y032151D01*
X031228Y032463D01*
X030989Y032702D01*
X030677Y032832D01*
X030338Y032832D01*
X030054Y032714D02*
X020908Y032714D01*
X021007Y032616D02*
X029939Y032616D01*
X029841Y032517D02*
X021105Y032517D01*
X021204Y032419D02*
X029768Y032419D01*
X029728Y032320D02*
X021302Y032320D01*
X021401Y032222D02*
X029687Y032222D01*
X029657Y032123D02*
X021499Y032123D01*
X021598Y032025D02*
X029657Y032025D01*
X029657Y031926D02*
X021696Y031926D01*
X021795Y031828D02*
X029657Y031828D01*
X029692Y031729D02*
X021893Y031729D01*
X021992Y031631D02*
X029733Y031631D01*
X029774Y031532D02*
X022090Y031532D01*
X022189Y031434D02*
X029854Y031434D01*
X029952Y031335D02*
X022287Y031335D01*
X022386Y031237D02*
X026521Y031237D01*
X026539Y031255D02*
X026463Y031179D01*
X026463Y025321D01*
X026539Y025245D01*
X026647Y025245D01*
X028797Y025245D01*
X028873Y025321D01*
X028873Y029129D01*
X028797Y029205D01*
X028697Y029305D01*
X028397Y029305D01*
X028023Y029679D01*
X028023Y031179D01*
X027947Y031255D01*
X026539Y031255D01*
X026463Y031138D02*
X022484Y031138D01*
X022503Y031040D02*
X026463Y031040D01*
X026463Y030941D02*
X022503Y030941D01*
X022503Y030843D02*
X026463Y030843D01*
X026463Y030744D02*
X022503Y030744D01*
X022503Y030646D02*
X026463Y030646D01*
X026463Y030547D02*
X022503Y030547D01*
X022503Y030449D02*
X026463Y030449D01*
X026463Y030350D02*
X022503Y030350D01*
X022503Y030252D02*
X026463Y030252D01*
X026463Y030153D02*
X022503Y030153D01*
X022503Y030055D02*
X026463Y030055D01*
X026463Y029956D02*
X022503Y029956D01*
X022503Y029858D02*
X026463Y029858D01*
X026463Y029759D02*
X022503Y029759D01*
X022503Y029661D02*
X026463Y029661D01*
X026463Y029562D02*
X022503Y029562D01*
X022503Y029464D02*
X026463Y029464D01*
X026463Y029365D02*
X022503Y029365D01*
X022503Y029267D02*
X026463Y029267D01*
X026463Y029168D02*
X022543Y029168D01*
X022578Y029070D02*
X026463Y029070D01*
X026463Y028971D02*
X022578Y028971D01*
X022539Y028873D02*
X026463Y028873D01*
X026463Y028774D02*
X022432Y028774D01*
X022154Y028774D02*
X021093Y028774D01*
X021093Y028676D02*
X026463Y028676D01*
X026463Y028577D02*
X021093Y028577D01*
X021093Y028479D02*
X026463Y028479D01*
X026463Y028380D02*
X021093Y028380D01*
X021093Y028282D02*
X026463Y028282D01*
X026463Y028183D02*
X021093Y028183D01*
X021093Y028085D02*
X026463Y028085D01*
X026463Y027986D02*
X021093Y027986D01*
X021093Y027888D02*
X026463Y027888D01*
X026463Y027789D02*
X021093Y027789D01*
X021093Y027691D02*
X026463Y027691D01*
X026463Y027592D02*
X021093Y027592D01*
X021093Y027494D02*
X026463Y027494D01*
X026463Y027395D02*
X021093Y027395D01*
X021093Y027297D02*
X026463Y027297D01*
X026463Y027198D02*
X021093Y027198D01*
X021093Y027100D02*
X026463Y027100D01*
X026463Y027001D02*
X023445Y027001D01*
X023536Y026903D02*
X026463Y026903D01*
X026463Y026804D02*
X023603Y026804D01*
X023701Y026706D02*
X026463Y026706D01*
X026463Y026607D02*
X023800Y026607D01*
X023898Y026509D02*
X026463Y026509D01*
X026463Y026410D02*
X023997Y026410D01*
X024095Y026312D02*
X026463Y026312D01*
X026463Y026213D02*
X024194Y026213D01*
X024292Y026115D02*
X026463Y026115D01*
X026463Y026016D02*
X024391Y026016D01*
X024489Y025918D02*
X026463Y025918D01*
X026463Y025819D02*
X024588Y025819D01*
X024686Y025721D02*
X026463Y025721D01*
X026463Y025622D02*
X024785Y025622D01*
X024883Y025524D02*
X026463Y025524D01*
X026463Y025425D02*
X024982Y025425D01*
X025080Y025327D02*
X026463Y025327D01*
X025277Y025130D02*
X030783Y025130D01*
X030783Y025228D02*
X025179Y025228D01*
X024696Y024834D02*
X022931Y024834D01*
X022830Y024933D02*
X024597Y024933D01*
X024499Y025031D02*
X022729Y025031D01*
X022628Y025130D02*
X024400Y025130D01*
X024302Y025228D02*
X022527Y025228D01*
X022426Y025327D02*
X024203Y025327D01*
X024105Y025425D02*
X022325Y025425D01*
X022224Y025524D02*
X024006Y025524D01*
X023908Y025622D02*
X022123Y025622D01*
X022022Y025721D02*
X023809Y025721D01*
X023711Y025819D02*
X021920Y025819D01*
X021819Y025918D02*
X023612Y025918D01*
X023514Y026016D02*
X021718Y026016D01*
X021617Y026115D02*
X023415Y026115D01*
X023317Y026213D02*
X021516Y026213D01*
X021213Y026509D02*
X022982Y026509D01*
X022926Y026607D02*
X021112Y026607D01*
X021093Y026706D02*
X022905Y026706D01*
X022910Y026804D02*
X021093Y026804D01*
X021093Y026903D02*
X022951Y026903D01*
X023041Y027001D02*
X021093Y027001D01*
X021093Y028873D02*
X022048Y028873D01*
X022008Y028971D02*
X021093Y028971D01*
X021093Y029070D02*
X022008Y029070D01*
X022044Y029168D02*
X021093Y029168D01*
X020193Y029267D02*
X022083Y029267D01*
X022083Y029365D02*
X020193Y029365D01*
X020193Y029464D02*
X022083Y029464D01*
X022083Y029562D02*
X020193Y029562D01*
X020193Y029661D02*
X022083Y029661D01*
X022083Y029759D02*
X020193Y029759D01*
X020193Y029858D02*
X022083Y029858D01*
X022083Y029956D02*
X020589Y029956D01*
X020726Y030055D02*
X022083Y030055D01*
X022083Y030153D02*
X020772Y030153D01*
X020778Y030252D02*
X022083Y030252D01*
X022083Y030350D02*
X020750Y030350D01*
X020703Y030449D02*
X022083Y030449D01*
X022083Y030547D02*
X020703Y030547D01*
X020703Y030646D02*
X022083Y030646D01*
X022083Y030744D02*
X020703Y030744D01*
X020703Y030843D02*
X022083Y030843D01*
X022083Y030941D02*
X020703Y030941D01*
X020703Y031040D02*
X021989Y031040D01*
X021891Y031138D02*
X020703Y031138D01*
X020703Y031237D02*
X021792Y031237D01*
X021694Y031335D02*
X020703Y031335D01*
X020703Y031434D02*
X021595Y031434D01*
X021497Y031532D02*
X020703Y031532D01*
X020703Y031631D02*
X021398Y031631D01*
X021300Y031729D02*
X020703Y031729D01*
X020703Y031828D02*
X021201Y031828D01*
X021103Y031926D02*
X020703Y031926D01*
X020703Y032025D02*
X021004Y032025D01*
X020905Y032123D02*
X020703Y032123D01*
X020703Y032222D02*
X020807Y032222D01*
X020708Y032320D02*
X020695Y032320D01*
X020610Y032419D02*
X020597Y032419D01*
X020511Y032517D02*
X020498Y032517D01*
X020216Y032813D02*
X020203Y032813D01*
X020228Y032911D02*
X020104Y032911D01*
X020006Y033010D02*
X020282Y033010D01*
X020439Y033108D02*
X019907Y033108D01*
X019809Y033207D02*
X029415Y033207D01*
X029316Y033305D02*
X019710Y033305D01*
X019612Y033404D02*
X029218Y033404D01*
X029119Y033502D02*
X019513Y033502D01*
X019415Y033601D02*
X029021Y033601D01*
X028922Y033699D02*
X019316Y033699D01*
X019218Y033798D02*
X028824Y033798D01*
X028725Y033896D02*
X019119Y033896D01*
X019021Y033995D02*
X028627Y033995D01*
X028528Y034093D02*
X018922Y034093D01*
X018824Y034192D02*
X028430Y034192D01*
X028383Y034290D02*
X018725Y034290D01*
X018627Y034389D02*
X028383Y034389D01*
X028383Y034487D02*
X018528Y034487D01*
X018430Y034586D02*
X028383Y034586D01*
X028383Y034684D02*
X023023Y034684D01*
X023087Y034710D02*
X022929Y034645D01*
X022758Y034645D01*
X022600Y034710D01*
X022479Y034831D01*
X022413Y034989D01*
X022413Y035161D01*
X022479Y035319D01*
X022600Y035440D01*
X022758Y035505D01*
X022929Y035505D01*
X023087Y035440D01*
X023208Y035319D01*
X023273Y035161D01*
X023273Y034989D01*
X023208Y034831D01*
X023087Y034710D01*
X023159Y034783D02*
X028383Y034783D01*
X028383Y034881D02*
X023228Y034881D01*
X023269Y034980D02*
X028383Y034980D01*
X028383Y035078D02*
X023273Y035078D01*
X023267Y035177D02*
X028383Y035177D01*
X028383Y035275D02*
X023226Y035275D01*
X023153Y035374D02*
X028383Y035374D01*
X028383Y035472D02*
X023008Y035472D01*
X022678Y035472D02*
X022008Y035472D01*
X022087Y035440D02*
X021929Y035505D01*
X021758Y035505D01*
X021600Y035440D01*
X021479Y035319D01*
X021413Y035161D01*
X021413Y034989D01*
X021479Y034831D01*
X021600Y034710D01*
X021758Y034645D01*
X021929Y034645D01*
X022087Y034710D01*
X022208Y034831D01*
X022273Y034989D01*
X022273Y035161D01*
X022208Y035319D01*
X022087Y035440D01*
X022153Y035374D02*
X022534Y035374D01*
X022461Y035275D02*
X022226Y035275D01*
X022267Y035177D02*
X022420Y035177D01*
X022413Y035078D02*
X022273Y035078D01*
X022269Y034980D02*
X022417Y034980D01*
X022458Y034881D02*
X022228Y034881D01*
X022159Y034783D02*
X022528Y034783D01*
X022663Y034684D02*
X022023Y034684D01*
X021663Y034684D02*
X018331Y034684D01*
X018233Y034783D02*
X021528Y034783D01*
X021458Y034881D02*
X018134Y034881D01*
X018086Y034980D02*
X018601Y034980D01*
X018671Y034909D02*
X018428Y035153D01*
X018428Y035497D01*
X018671Y035741D01*
X019016Y035741D01*
X019259Y035497D01*
X019259Y035153D01*
X019016Y034909D01*
X018671Y034909D01*
X018502Y035078D02*
X018184Y035078D01*
X018259Y035177D02*
X018428Y035177D01*
X018428Y035275D02*
X018259Y035275D01*
X018259Y035374D02*
X018428Y035374D01*
X018428Y035472D02*
X018259Y035472D01*
X018186Y035571D02*
X018501Y035571D01*
X018599Y035669D02*
X018087Y035669D01*
X017599Y035669D02*
X012440Y035669D01*
X012405Y035633D02*
X012485Y035714D01*
X012528Y035818D01*
X012528Y035932D01*
X012485Y036036D01*
X012405Y036117D01*
X012300Y036160D01*
X012187Y036160D01*
X012082Y036117D01*
X012002Y036036D01*
X011958Y035932D01*
X011958Y035818D01*
X012002Y035714D01*
X012082Y035633D01*
X012187Y035590D01*
X012300Y035590D01*
X012405Y035633D01*
X012408Y035505D02*
X012250Y035440D01*
X012129Y035319D01*
X012063Y035161D01*
X012063Y034989D01*
X012129Y034831D01*
X012250Y034710D01*
X012408Y034645D01*
X012579Y034645D01*
X012737Y034710D01*
X012858Y034831D01*
X012923Y034989D01*
X012923Y035161D01*
X012858Y035319D01*
X012737Y035440D01*
X012579Y035505D01*
X012408Y035505D01*
X012328Y035472D02*
X006003Y035472D01*
X006003Y035374D02*
X012184Y035374D01*
X012111Y035275D02*
X006003Y035275D01*
X006003Y035177D02*
X012070Y035177D01*
X012063Y035078D02*
X006003Y035078D01*
X006003Y034980D02*
X012067Y034980D01*
X012108Y034881D02*
X006003Y034881D01*
X006003Y034783D02*
X012178Y034783D01*
X012313Y034684D02*
X006003Y034684D01*
X006003Y034586D02*
X017836Y034586D01*
X017737Y034684D02*
X016098Y034684D01*
X016162Y034710D02*
X016283Y034831D01*
X016348Y034989D01*
X016348Y035161D01*
X016283Y035319D01*
X016162Y035440D01*
X016004Y035505D01*
X015833Y035505D01*
X015675Y035440D01*
X015554Y035319D01*
X015488Y035161D01*
X015488Y034989D01*
X015554Y034831D01*
X015675Y034710D01*
X015833Y034645D01*
X016004Y034645D01*
X016162Y034710D01*
X016234Y034783D02*
X017639Y034783D01*
X017583Y034881D02*
X016303Y034881D01*
X016344Y034980D02*
X017583Y034980D01*
X017502Y035078D02*
X016348Y035078D01*
X016342Y035177D02*
X017428Y035177D01*
X017428Y035275D02*
X016301Y035275D01*
X016228Y035374D02*
X017428Y035374D01*
X017428Y035472D02*
X016083Y035472D01*
X015753Y035472D02*
X015083Y035472D01*
X015162Y035440D02*
X015004Y035505D01*
X014833Y035505D01*
X014675Y035440D01*
X014554Y035319D01*
X014488Y035161D01*
X014488Y034989D01*
X014554Y034831D01*
X014675Y034710D01*
X014833Y034645D01*
X015004Y034645D01*
X015162Y034710D01*
X015283Y034831D01*
X015348Y034989D01*
X015348Y035161D01*
X015283Y035319D01*
X015162Y035440D01*
X015228Y035374D02*
X015609Y035374D01*
X015536Y035275D02*
X015301Y035275D01*
X015342Y035177D02*
X015495Y035177D01*
X015488Y035078D02*
X015348Y035078D01*
X015344Y034980D02*
X015492Y034980D01*
X015533Y034881D02*
X015303Y034881D01*
X015234Y034783D02*
X015603Y034783D01*
X015738Y034684D02*
X015098Y034684D01*
X014738Y034684D02*
X013673Y034684D01*
X013737Y034710D02*
X013579Y034645D01*
X013408Y034645D01*
X013250Y034710D01*
X013129Y034831D01*
X013063Y034989D01*
X013063Y035161D01*
X013129Y035319D01*
X013250Y035440D01*
X013408Y035505D01*
X013579Y035505D01*
X013737Y035440D01*
X013858Y035319D01*
X013923Y035161D01*
X013923Y034989D01*
X013858Y034831D01*
X013737Y034710D01*
X013809Y034783D02*
X014603Y034783D01*
X014533Y034881D02*
X013878Y034881D01*
X013919Y034980D02*
X014492Y034980D01*
X014488Y035078D02*
X013923Y035078D01*
X013917Y035177D02*
X014495Y035177D01*
X014536Y035275D02*
X013876Y035275D01*
X013803Y035374D02*
X014609Y035374D01*
X014753Y035472D02*
X013658Y035472D01*
X013328Y035472D02*
X012658Y035472D01*
X012803Y035374D02*
X013184Y035374D01*
X013111Y035275D02*
X012876Y035275D01*
X012917Y035177D02*
X013070Y035177D01*
X013063Y035078D02*
X012923Y035078D01*
X012919Y034980D02*
X013067Y034980D01*
X013108Y034881D02*
X012878Y034881D01*
X012809Y034783D02*
X013178Y034783D01*
X013313Y034684D02*
X012673Y034684D01*
X012507Y035768D02*
X021329Y035768D01*
X021308Y035866D02*
X014413Y035866D01*
X014174Y035866D02*
X012528Y035866D01*
X012515Y035965D02*
X014043Y035965D01*
X014010Y036063D02*
X012458Y036063D01*
X012028Y036063D02*
X010971Y036063D01*
X010971Y035965D02*
X011972Y035965D01*
X011958Y035866D02*
X010901Y035866D01*
X010802Y035768D02*
X011979Y035768D01*
X012046Y035669D02*
X010704Y035669D01*
X010605Y035571D02*
X017501Y035571D01*
X017911Y036654D02*
X016143Y036654D01*
X016143Y036556D02*
X021339Y036556D01*
X021308Y036457D02*
X016143Y036457D01*
X016143Y036359D02*
X021312Y036359D01*
X021355Y036260D02*
X016143Y036260D01*
X016143Y036162D02*
X021485Y036162D01*
X021378Y036063D02*
X016143Y036063D01*
X016143Y035965D02*
X021322Y035965D01*
X021396Y035669D02*
X019087Y035669D01*
X019186Y035571D02*
X028383Y035571D01*
X028352Y035669D02*
X021790Y035669D01*
X021857Y035768D02*
X028254Y035768D01*
X028155Y035866D02*
X021878Y035866D01*
X021865Y035965D02*
X028057Y035965D01*
X028355Y036260D02*
X053975Y036260D01*
X054074Y036162D02*
X028454Y036162D01*
X028552Y036063D02*
X054172Y036063D01*
X054271Y035965D02*
X028651Y035965D01*
X028749Y035866D02*
X054293Y035866D01*
X054293Y035768D02*
X028803Y035768D01*
X028803Y035669D02*
X054293Y035669D01*
X054293Y035571D02*
X028803Y035571D01*
X028803Y035472D02*
X054293Y035472D01*
X054293Y035374D02*
X028803Y035374D01*
X028803Y035275D02*
X054293Y035275D01*
X054293Y035177D02*
X028803Y035177D01*
X028803Y035078D02*
X054293Y035078D01*
X054293Y034980D02*
X028803Y034980D01*
X028803Y034881D02*
X054293Y034881D01*
X054293Y034783D02*
X028803Y034783D01*
X028803Y034684D02*
X054293Y034684D01*
X054293Y034586D02*
X028803Y034586D01*
X028803Y034487D02*
X054293Y034487D01*
X054293Y034389D02*
X028827Y034389D01*
X028925Y034290D02*
X054293Y034290D01*
X054293Y034192D02*
X029024Y034192D01*
X029122Y034093D02*
X054293Y034093D01*
X054293Y033995D02*
X029221Y033995D01*
X029319Y033896D02*
X054293Y033896D01*
X054293Y033798D02*
X029418Y033798D01*
X029516Y033699D02*
X054293Y033699D01*
X054293Y033601D02*
X029615Y033601D01*
X029713Y033502D02*
X054293Y033502D01*
X054293Y033404D02*
X029812Y033404D01*
X029513Y033108D02*
X020562Y033108D01*
X020719Y033010D02*
X029612Y033010D01*
X030723Y032813D02*
X035909Y032813D01*
X036007Y032714D02*
X030961Y032714D01*
X031076Y032616D02*
X031651Y032616D01*
X031593Y032517D02*
X031174Y032517D01*
X031247Y032419D02*
X031593Y032419D01*
X031593Y032320D02*
X031287Y032320D01*
X031328Y032222D02*
X031593Y032222D01*
X031593Y032123D02*
X031357Y032123D01*
X031357Y032025D02*
X031593Y032025D01*
X031593Y031926D02*
X031357Y031926D01*
X031357Y031828D02*
X031593Y031828D01*
X031593Y031729D02*
X031323Y031729D01*
X031282Y031631D02*
X031593Y031631D01*
X031593Y031532D02*
X031241Y031532D01*
X031161Y031434D02*
X031593Y031434D01*
X031593Y031335D02*
X031063Y031335D01*
X030930Y031237D02*
X031593Y031237D01*
X031593Y031138D02*
X030692Y031138D01*
X030323Y031138D02*
X028023Y031138D01*
X028023Y031040D02*
X031593Y031040D01*
X031593Y030941D02*
X028023Y030941D01*
X028023Y030843D02*
X031593Y030843D01*
X031593Y030744D02*
X028023Y030744D01*
X028023Y030646D02*
X031593Y030646D01*
X031462Y030547D02*
X028023Y030547D01*
X028023Y030449D02*
X031386Y030449D01*
X031358Y030350D02*
X028023Y030350D01*
X028023Y030252D02*
X031365Y030252D01*
X031412Y030153D02*
X028023Y030153D01*
X028023Y030055D02*
X031433Y030055D01*
X031433Y029956D02*
X028023Y029956D01*
X028023Y029858D02*
X031433Y029858D01*
X031433Y029759D02*
X031052Y029759D01*
X030934Y029759D02*
X028023Y029759D01*
X028042Y029661D02*
X030776Y029661D01*
X030721Y029562D02*
X028140Y029562D01*
X028239Y029464D02*
X030708Y029464D01*
X030730Y029365D02*
X028337Y029365D01*
X028736Y029267D02*
X030783Y029267D01*
X030783Y029168D02*
X028834Y029168D01*
X028873Y029070D02*
X030783Y029070D01*
X030783Y028971D02*
X028873Y028971D01*
X028873Y028873D02*
X030783Y028873D01*
X030783Y028774D02*
X028873Y028774D01*
X028873Y028676D02*
X030783Y028676D01*
X030783Y028577D02*
X028873Y028577D01*
X028873Y028479D02*
X030783Y028479D01*
X030783Y028380D02*
X028873Y028380D01*
X028873Y028282D02*
X030783Y028282D01*
X030783Y028183D02*
X028873Y028183D01*
X028873Y028085D02*
X030783Y028085D01*
X030783Y027986D02*
X028873Y027986D01*
X028873Y027888D02*
X030783Y027888D01*
X030783Y027789D02*
X028873Y027789D01*
X028873Y027691D02*
X030783Y027691D01*
X030783Y027592D02*
X028873Y027592D01*
X028873Y027494D02*
X030783Y027494D01*
X030783Y027395D02*
X028873Y027395D01*
X028873Y027297D02*
X030783Y027297D01*
X030783Y027198D02*
X028873Y027198D01*
X028873Y027100D02*
X030783Y027100D01*
X030783Y027001D02*
X028873Y027001D01*
X028873Y026903D02*
X030783Y026903D01*
X030783Y026804D02*
X028873Y026804D01*
X028873Y026706D02*
X030783Y026706D01*
X030783Y026607D02*
X028873Y026607D01*
X028873Y026509D02*
X030783Y026509D01*
X030783Y026410D02*
X028873Y026410D01*
X028873Y026312D02*
X030783Y026312D01*
X030783Y026213D02*
X028873Y026213D01*
X028873Y026115D02*
X030783Y026115D01*
X030783Y026016D02*
X028873Y026016D01*
X028873Y025918D02*
X030783Y025918D01*
X030783Y025819D02*
X028873Y025819D01*
X028873Y025721D02*
X030783Y025721D01*
X030783Y025622D02*
X028873Y025622D01*
X028873Y025524D02*
X030783Y025524D01*
X030783Y025425D02*
X028873Y025425D01*
X028873Y025327D02*
X030783Y025327D01*
X030783Y025031D02*
X027815Y025031D01*
X027974Y024933D02*
X030783Y024933D01*
X030783Y024834D02*
X028073Y024834D01*
X028171Y024736D02*
X030783Y024736D01*
X030783Y024637D02*
X028270Y024637D01*
X028368Y024539D02*
X030783Y024539D01*
X030783Y024440D02*
X028467Y024440D01*
X028531Y024342D02*
X030783Y024342D01*
X030783Y024243D02*
X028553Y024243D01*
X028553Y024145D02*
X030783Y024145D01*
X030783Y024046D02*
X028553Y024046D01*
X028553Y023948D02*
X030783Y023948D01*
X030783Y023849D02*
X028553Y023849D01*
X028553Y023751D02*
X030783Y023751D01*
X030783Y023652D02*
X028553Y023652D01*
X028553Y023554D02*
X030783Y023554D01*
X030783Y023455D02*
X028553Y023455D01*
X028553Y023357D02*
X030783Y023357D01*
X030783Y023258D02*
X028553Y023258D01*
X028553Y023160D02*
X030783Y023160D01*
X030783Y023061D02*
X028553Y023061D01*
X028553Y022963D02*
X029778Y022963D01*
X029752Y022936D02*
X029708Y022832D01*
X029708Y022718D01*
X029752Y022614D01*
X029832Y022533D01*
X029937Y022490D01*
X030050Y022490D01*
X030155Y022533D01*
X030235Y022614D01*
X030278Y022718D01*
X030278Y022832D01*
X030235Y022936D01*
X030155Y023017D01*
X030050Y023060D01*
X029937Y023060D01*
X029832Y023017D01*
X029752Y022936D01*
X029722Y022864D02*
X028553Y022864D01*
X028553Y022766D02*
X029708Y022766D01*
X029730Y022667D02*
X028553Y022667D01*
X028553Y022569D02*
X029797Y022569D01*
X030190Y022569D02*
X030337Y022569D01*
X030332Y022567D02*
X030252Y022486D01*
X030208Y022382D01*
X030208Y022268D01*
X030252Y022164D01*
X030332Y022083D01*
X030437Y022040D01*
X030550Y022040D01*
X030655Y022083D01*
X030735Y022164D01*
X030778Y022268D01*
X030778Y022382D01*
X030735Y022486D01*
X030655Y022567D01*
X030550Y022610D01*
X030437Y022610D01*
X030332Y022567D01*
X030257Y022667D02*
X030783Y022667D01*
X030783Y022569D02*
X030650Y022569D01*
X030742Y022470D02*
X030783Y022470D01*
X030778Y022372D02*
X030783Y022372D01*
X030778Y022273D02*
X030783Y022273D01*
X030783Y022175D02*
X030739Y022175D01*
X030783Y022076D02*
X030637Y022076D01*
X030783Y021978D02*
X028553Y021978D01*
X028553Y022076D02*
X030350Y022076D01*
X030247Y022175D02*
X028553Y022175D01*
X028553Y022273D02*
X030208Y022273D01*
X030208Y022372D02*
X028553Y022372D01*
X028553Y022470D02*
X030245Y022470D01*
X030278Y022766D02*
X030783Y022766D01*
X030783Y022864D02*
X030265Y022864D01*
X030209Y022963D02*
X030783Y022963D01*
X031203Y022963D02*
X031433Y022963D01*
X031433Y023061D02*
X031203Y023061D01*
X031203Y023160D02*
X031433Y023160D01*
X031433Y023258D02*
X031203Y023258D01*
X031203Y023357D02*
X031433Y023357D01*
X031433Y023455D02*
X031203Y023455D01*
X031203Y023554D02*
X031433Y023554D01*
X031433Y023652D02*
X031203Y023652D01*
X031203Y023751D02*
X031433Y023751D01*
X031433Y023849D02*
X031203Y023849D01*
X031203Y023948D02*
X031433Y023948D01*
X031433Y024046D02*
X031203Y024046D01*
X031203Y024145D02*
X031433Y024145D01*
X031433Y024243D02*
X031203Y024243D01*
X031203Y024342D02*
X031433Y024342D01*
X031433Y024440D02*
X031203Y024440D01*
X031203Y024539D02*
X031433Y024539D01*
X031433Y024637D02*
X031203Y024637D01*
X031203Y024736D02*
X031433Y024736D01*
X031433Y024834D02*
X031203Y024834D01*
X031203Y024933D02*
X031433Y024933D01*
X031433Y025031D02*
X031203Y025031D01*
X031203Y025130D02*
X031433Y025130D01*
X031433Y025228D02*
X031203Y025228D01*
X031203Y025327D02*
X031433Y025327D01*
X031433Y025425D02*
X031203Y025425D01*
X031203Y025524D02*
X031433Y025524D01*
X031433Y025622D02*
X031203Y025622D01*
X031203Y025721D02*
X031433Y025721D01*
X031433Y025819D02*
X031203Y025819D01*
X031203Y025918D02*
X031433Y025918D01*
X031433Y026016D02*
X031203Y026016D01*
X031203Y026115D02*
X031433Y026115D01*
X031433Y026213D02*
X031203Y026213D01*
X031203Y026312D02*
X031433Y026312D01*
X031433Y026410D02*
X031203Y026410D01*
X031203Y026509D02*
X031433Y026509D01*
X031433Y026607D02*
X031203Y026607D01*
X031203Y026706D02*
X031433Y026706D01*
X031433Y026804D02*
X031203Y026804D01*
X031203Y026903D02*
X031433Y026903D01*
X031433Y027001D02*
X031203Y027001D01*
X031203Y027100D02*
X031433Y027100D01*
X031433Y027198D02*
X031203Y027198D01*
X031203Y027297D02*
X031433Y027297D01*
X031433Y027395D02*
X031203Y027395D01*
X031203Y027494D02*
X031433Y027494D01*
X031433Y027592D02*
X031203Y027592D01*
X031203Y027691D02*
X031433Y027691D01*
X031433Y027789D02*
X031203Y027789D01*
X031203Y027888D02*
X031433Y027888D01*
X031433Y027986D02*
X031203Y027986D01*
X031203Y028085D02*
X031433Y028085D01*
X031433Y028183D02*
X031203Y028183D01*
X031203Y028282D02*
X031433Y028282D01*
X031433Y028380D02*
X031203Y028380D01*
X031203Y028479D02*
X031433Y028479D01*
X031433Y028577D02*
X031203Y028577D01*
X031203Y028676D02*
X031433Y028676D01*
X031433Y028774D02*
X031203Y028774D01*
X031203Y028873D02*
X031433Y028873D01*
X031433Y028971D02*
X031203Y028971D01*
X031203Y029070D02*
X031433Y029070D01*
X031433Y029168D02*
X031203Y029168D01*
X031203Y029267D02*
X031433Y029267D01*
X031433Y029365D02*
X031256Y029365D01*
X031278Y029464D02*
X031433Y029464D01*
X031433Y029562D02*
X031266Y029562D01*
X031211Y029661D02*
X031433Y029661D01*
X031803Y029661D02*
X036858Y029661D01*
X036858Y029672D02*
X036858Y029478D01*
X036996Y029340D01*
X037191Y029340D01*
X037328Y029478D01*
X037328Y029672D01*
X037191Y029810D01*
X036996Y029810D01*
X036858Y029672D01*
X036858Y029562D02*
X033089Y029562D01*
X033041Y029610D02*
X032846Y029610D01*
X032708Y029472D01*
X032708Y029278D01*
X032846Y029140D01*
X033041Y029140D01*
X033178Y029278D01*
X033178Y029472D01*
X033041Y029610D01*
X033178Y029464D02*
X036872Y029464D01*
X036971Y029365D02*
X033178Y029365D01*
X033167Y029267D02*
X049793Y029267D01*
X049793Y029365D02*
X037216Y029365D01*
X037314Y029464D02*
X049793Y029464D01*
X049793Y029562D02*
X037328Y029562D01*
X037328Y029661D02*
X049793Y029661D01*
X049793Y029759D02*
X037242Y029759D01*
X036945Y029759D02*
X031803Y029759D01*
X031803Y029858D02*
X049793Y029858D01*
X049793Y029956D02*
X031803Y029956D01*
X031803Y030055D02*
X049793Y030055D01*
X049793Y030153D02*
X031804Y030153D01*
X031878Y030252D02*
X049793Y030252D01*
X049793Y030350D02*
X031878Y030350D01*
X031852Y030449D02*
X049793Y030449D01*
X049793Y030547D02*
X035748Y030547D01*
X035741Y030540D02*
X035878Y030678D01*
X035878Y030872D01*
X035741Y031010D01*
X035546Y031010D01*
X035408Y030872D01*
X035408Y030678D01*
X035546Y030540D01*
X035741Y030540D01*
X035846Y030646D02*
X049793Y030646D01*
X049793Y030744D02*
X035878Y030744D01*
X035878Y030843D02*
X049793Y030843D01*
X049793Y030941D02*
X048927Y030941D01*
X048900Y030915D02*
X049003Y031018D01*
X049059Y031152D01*
X049059Y031298D01*
X049003Y031432D01*
X048900Y031535D01*
X048766Y031591D01*
X048621Y031591D01*
X048486Y031535D01*
X048383Y031432D01*
X048328Y031298D01*
X048328Y031152D01*
X048383Y031018D01*
X048486Y030915D01*
X048621Y030859D01*
X048766Y030859D01*
X048900Y030915D01*
X049012Y031040D02*
X049793Y031040D01*
X049793Y031138D02*
X049053Y031138D01*
X049059Y031237D02*
X049793Y031237D01*
X049793Y031335D02*
X049044Y031335D01*
X049002Y031434D02*
X049793Y031434D01*
X049793Y031532D02*
X048903Y031532D01*
X048483Y031532D02*
X042853Y031532D01*
X042850Y031535D02*
X042716Y031591D01*
X042571Y031591D01*
X042436Y031535D01*
X042333Y031432D01*
X042278Y031298D01*
X042278Y031152D01*
X042333Y031018D01*
X042436Y030915D01*
X042571Y030859D01*
X042716Y030859D01*
X042850Y030915D01*
X042953Y031018D01*
X043009Y031152D01*
X043009Y031298D01*
X042953Y031432D01*
X042850Y031535D01*
X042952Y031434D02*
X048385Y031434D01*
X048343Y031335D02*
X042994Y031335D01*
X043009Y031237D02*
X048328Y031237D01*
X048333Y031138D02*
X043003Y031138D01*
X042962Y031040D02*
X048374Y031040D01*
X048460Y030941D02*
X042877Y030941D01*
X042410Y030941D02*
X035810Y030941D01*
X035477Y030941D02*
X033492Y030941D01*
X033491Y030940D02*
X033628Y031078D01*
X033628Y031272D01*
X033491Y031410D01*
X033296Y031410D01*
X033158Y031272D01*
X033158Y031078D01*
X033296Y030940D01*
X033491Y030940D01*
X033590Y031040D02*
X042324Y031040D01*
X042283Y031138D02*
X033628Y031138D01*
X033628Y031237D02*
X042278Y031237D01*
X042293Y031335D02*
X033566Y031335D01*
X033221Y031335D02*
X031793Y031335D01*
X031793Y031237D02*
X033158Y031237D01*
X033158Y031138D02*
X031793Y031138D01*
X031793Y031040D02*
X033196Y031040D01*
X033295Y030941D02*
X031793Y030941D01*
X031793Y030843D02*
X035408Y030843D01*
X035408Y030744D02*
X031793Y030744D01*
X031793Y030646D02*
X035440Y030646D01*
X035539Y030547D02*
X031793Y030547D01*
X031793Y031434D02*
X042335Y031434D01*
X042433Y031532D02*
X031793Y031532D01*
X031793Y031631D02*
X049793Y031631D01*
X049793Y031729D02*
X031793Y031729D01*
X031793Y031828D02*
X049793Y031828D01*
X049793Y031926D02*
X031793Y031926D01*
X031793Y032025D02*
X049793Y032025D01*
X049793Y032123D02*
X036824Y032123D01*
X036922Y032222D02*
X049793Y032222D01*
X049793Y032320D02*
X036928Y032320D01*
X036928Y032419D02*
X049793Y032419D01*
X050853Y029956D02*
X051312Y029956D01*
X051383Y030028D02*
X051102Y029747D01*
X051102Y029349D01*
X051383Y029068D01*
X051781Y029068D01*
X052062Y029349D01*
X052062Y029747D01*
X051781Y030028D01*
X051383Y030028D01*
X051213Y029858D02*
X050951Y029858D01*
X051050Y029759D02*
X051115Y029759D01*
X051102Y029661D02*
X051062Y029661D01*
X051062Y029562D02*
X051102Y029562D01*
X051102Y029464D02*
X051062Y029464D01*
X051062Y029365D02*
X051102Y029365D01*
X051185Y029267D02*
X050980Y029267D01*
X050881Y029168D02*
X051283Y029168D01*
X051382Y029070D02*
X050783Y029070D01*
X050838Y028971D02*
X051327Y028971D01*
X051383Y029028D02*
X051102Y028747D01*
X051102Y028349D01*
X051383Y028068D01*
X051781Y028068D01*
X052062Y028349D01*
X052062Y028747D01*
X051781Y029028D01*
X051383Y029028D01*
X051228Y028873D02*
X050936Y028873D01*
X051035Y028774D02*
X051130Y028774D01*
X051102Y028676D02*
X051062Y028676D01*
X051062Y028577D02*
X051102Y028577D01*
X051102Y028479D02*
X051062Y028479D01*
X051062Y028380D02*
X051102Y028380D01*
X051170Y028282D02*
X050995Y028282D01*
X050896Y028183D02*
X051268Y028183D01*
X051367Y028085D02*
X050798Y028085D01*
X051798Y028085D02*
X054293Y028085D01*
X054293Y028183D02*
X051896Y028183D01*
X051995Y028282D02*
X054293Y028282D01*
X054293Y028380D02*
X052062Y028380D01*
X052062Y028479D02*
X054293Y028479D01*
X054293Y028577D02*
X052062Y028577D01*
X052062Y028676D02*
X054293Y028676D01*
X054293Y028774D02*
X052035Y028774D01*
X051936Y028873D02*
X054293Y028873D01*
X054293Y028971D02*
X051838Y028971D01*
X051783Y029070D02*
X054293Y029070D01*
X054293Y029168D02*
X051881Y029168D01*
X051980Y029267D02*
X054293Y029267D01*
X054293Y029365D02*
X052062Y029365D01*
X052062Y029464D02*
X054293Y029464D01*
X054293Y029562D02*
X052062Y029562D01*
X052062Y029661D02*
X054293Y029661D01*
X054293Y029759D02*
X052050Y029759D01*
X051951Y029858D02*
X054293Y029858D01*
X054293Y029956D02*
X051853Y029956D01*
X049793Y029168D02*
X035933Y029168D01*
X035978Y029122D02*
X035841Y029260D01*
X035646Y029260D01*
X035508Y029122D01*
X035508Y028928D01*
X035646Y028790D01*
X035841Y028790D01*
X035978Y028928D01*
X035978Y029122D01*
X035978Y029070D02*
X049793Y029070D01*
X049793Y028971D02*
X035978Y028971D01*
X035923Y028873D02*
X049793Y028873D01*
X049793Y028774D02*
X031803Y028774D01*
X031803Y028676D02*
X049793Y028676D01*
X049793Y028577D02*
X031803Y028577D01*
X031803Y028479D02*
X049793Y028479D01*
X049793Y028380D02*
X048492Y028380D01*
X048466Y028391D02*
X048321Y028391D01*
X048186Y028335D01*
X048083Y028232D01*
X048028Y028098D01*
X048028Y027952D01*
X048083Y027818D01*
X048186Y027715D01*
X048321Y027659D01*
X048466Y027659D01*
X048600Y027715D01*
X048703Y027818D01*
X048759Y027952D01*
X048759Y028098D01*
X048703Y028232D01*
X048600Y028335D01*
X048466Y028391D01*
X048295Y028380D02*
X031803Y028380D01*
X031803Y028282D02*
X048133Y028282D01*
X048063Y028183D02*
X031803Y028183D01*
X031803Y028085D02*
X048028Y028085D01*
X048028Y027986D02*
X031803Y027986D01*
X031803Y027888D02*
X048054Y027888D01*
X048112Y027789D02*
X031803Y027789D01*
X031803Y027691D02*
X048245Y027691D01*
X048542Y027691D02*
X049793Y027691D01*
X049793Y027789D02*
X048675Y027789D01*
X048732Y027888D02*
X049793Y027888D01*
X049793Y027986D02*
X048759Y027986D01*
X048759Y028085D02*
X049793Y028085D01*
X049793Y028183D02*
X048724Y028183D01*
X048654Y028282D02*
X049793Y028282D01*
X049793Y027592D02*
X031803Y027592D01*
X031803Y027494D02*
X049793Y027494D01*
X049793Y027395D02*
X031803Y027395D01*
X031803Y027297D02*
X049793Y027297D01*
X049793Y027198D02*
X031803Y027198D01*
X031803Y027100D02*
X049793Y027100D01*
X049793Y027001D02*
X033650Y027001D01*
X033591Y027060D02*
X033396Y027060D01*
X033258Y026922D01*
X033258Y026728D01*
X033396Y026590D01*
X033591Y026590D01*
X033728Y026728D01*
X033728Y026922D01*
X033591Y027060D01*
X033728Y026903D02*
X049793Y026903D01*
X049793Y026804D02*
X033728Y026804D01*
X033706Y026706D02*
X049793Y026706D01*
X049793Y026607D02*
X033608Y026607D01*
X033379Y026607D02*
X031803Y026607D01*
X031803Y026509D02*
X049793Y026509D01*
X049793Y026410D02*
X047491Y026410D01*
X047441Y026460D02*
X047246Y026460D01*
X047108Y026322D01*
X047108Y026128D01*
X047246Y025990D01*
X047441Y025990D01*
X047578Y026128D01*
X047578Y026322D01*
X047441Y026460D01*
X047578Y026312D02*
X049793Y026312D01*
X049793Y026213D02*
X048633Y026213D01*
X048566Y026241D02*
X048421Y026241D01*
X048286Y026185D01*
X048183Y026082D01*
X048128Y025948D01*
X048128Y025802D01*
X048183Y025668D01*
X048286Y025565D01*
X048421Y025509D01*
X048566Y025509D01*
X048700Y025565D01*
X048803Y025668D01*
X048859Y025802D01*
X048859Y025948D01*
X048803Y026082D01*
X048700Y026185D01*
X048566Y026241D01*
X048354Y026213D02*
X047578Y026213D01*
X047565Y026115D02*
X048216Y026115D01*
X048156Y026016D02*
X047467Y026016D01*
X047220Y026016D02*
X031803Y026016D01*
X031803Y025918D02*
X048128Y025918D01*
X048128Y025819D02*
X031803Y025819D01*
X031803Y025721D02*
X048161Y025721D01*
X048229Y025622D02*
X031803Y025622D01*
X031803Y025524D02*
X036860Y025524D01*
X036808Y025472D02*
X036808Y025278D01*
X036946Y025140D01*
X037141Y025140D01*
X037278Y025278D01*
X037278Y025472D01*
X037141Y025610D01*
X036946Y025610D01*
X036808Y025472D01*
X036808Y025425D02*
X031803Y025425D01*
X031803Y025327D02*
X036808Y025327D01*
X036858Y025228D02*
X031803Y025228D01*
X031803Y025130D02*
X042966Y025130D01*
X042996Y025160D02*
X042858Y025022D01*
X042858Y024828D01*
X042996Y024690D01*
X043191Y024690D01*
X043328Y024828D01*
X043328Y025022D01*
X043191Y025160D01*
X042996Y025160D01*
X042867Y025031D02*
X031803Y025031D01*
X031803Y024933D02*
X042858Y024933D01*
X042858Y024834D02*
X031803Y024834D01*
X031803Y024736D02*
X042950Y024736D01*
X043236Y024736D02*
X045958Y024736D01*
X045958Y024678D02*
X046096Y024540D01*
X046291Y024540D01*
X046428Y024678D01*
X046428Y024872D01*
X046291Y025010D01*
X046096Y025010D01*
X045958Y024872D01*
X045958Y024678D01*
X045999Y024637D02*
X031803Y024637D01*
X031803Y024539D02*
X033725Y024539D01*
X033658Y024472D02*
X033658Y024278D01*
X033796Y024140D01*
X033991Y024140D01*
X034128Y024278D01*
X034128Y024472D01*
X033991Y024610D01*
X033796Y024610D01*
X033658Y024472D01*
X033658Y024440D02*
X031803Y024440D01*
X031803Y024342D02*
X033658Y024342D01*
X033693Y024243D02*
X031803Y024243D01*
X031803Y024145D02*
X033791Y024145D01*
X033995Y024145D02*
X036281Y024145D01*
X036258Y024046D02*
X035805Y024046D01*
X035903Y023948D02*
X036258Y023948D01*
X036379Y024243D02*
X034094Y024243D01*
X034128Y024342D02*
X049793Y024342D01*
X049793Y024440D02*
X034128Y024440D01*
X034062Y024539D02*
X049793Y024539D01*
X049793Y024637D02*
X046388Y024637D01*
X046428Y024736D02*
X049793Y024736D01*
X049793Y024834D02*
X046428Y024834D01*
X046368Y024933D02*
X049793Y024933D01*
X049793Y025031D02*
X043320Y025031D01*
X043328Y024933D02*
X046019Y024933D01*
X045958Y024834D02*
X043328Y024834D01*
X043221Y025130D02*
X049793Y025130D01*
X049793Y025228D02*
X037229Y025228D01*
X037278Y025327D02*
X049793Y025327D01*
X049793Y025425D02*
X037278Y025425D01*
X037227Y025524D02*
X048386Y025524D01*
X048601Y025524D02*
X049793Y025524D01*
X049793Y025622D02*
X048758Y025622D01*
X048825Y025721D02*
X049793Y025721D01*
X049793Y025819D02*
X048859Y025819D01*
X048859Y025918D02*
X049793Y025918D01*
X049793Y026016D02*
X048831Y026016D01*
X048771Y026115D02*
X049793Y026115D01*
X049793Y024243D02*
X036608Y024243D01*
X036706Y024145D02*
X049793Y024145D01*
X049993Y023258D02*
X054293Y023258D01*
X054293Y023160D02*
X049993Y023160D01*
X049993Y023061D02*
X054293Y023061D01*
X054293Y022963D02*
X049993Y022963D01*
X049993Y022864D02*
X054293Y022864D01*
X054293Y022766D02*
X049993Y022766D01*
X049993Y022667D02*
X054293Y022667D01*
X054293Y022569D02*
X049993Y022569D01*
X049993Y022470D02*
X054293Y022470D01*
X054293Y022372D02*
X049993Y022372D01*
X049993Y022273D02*
X054293Y022273D01*
X054293Y022175D02*
X049993Y022175D01*
X049993Y022076D02*
X054293Y022076D01*
X054293Y021978D02*
X049993Y021978D01*
X049993Y021879D02*
X054293Y021879D01*
X054293Y021781D02*
X049993Y021781D01*
X049993Y021682D02*
X054293Y021682D01*
X054293Y021584D02*
X049993Y021584D01*
X049993Y021485D02*
X054293Y021485D01*
X054293Y021387D02*
X049993Y021387D01*
X049993Y021288D02*
X054293Y021288D01*
X054293Y021190D02*
X049993Y021190D01*
X049993Y021091D02*
X054293Y021091D01*
X054293Y020993D02*
X049993Y020993D01*
X049993Y020894D02*
X054293Y020894D01*
X054293Y020796D02*
X049993Y020796D01*
X049993Y020697D02*
X054293Y020697D01*
X054293Y020599D02*
X049993Y020599D01*
X049993Y020500D02*
X054293Y020500D01*
X054293Y020402D02*
X049993Y020402D01*
X049993Y020303D02*
X054293Y020303D01*
X054293Y020205D02*
X049993Y020205D01*
X049993Y020106D02*
X054293Y020106D01*
X054293Y020008D02*
X049993Y020008D01*
X049993Y019909D02*
X054293Y019909D01*
X054293Y019811D02*
X049993Y019811D01*
X049993Y019712D02*
X054293Y019712D01*
X054293Y019614D02*
X049993Y019614D01*
X049993Y019515D02*
X054293Y019515D01*
X054293Y019417D02*
X049993Y019417D01*
X049993Y019318D02*
X054293Y019318D01*
X054293Y019220D02*
X049993Y019220D01*
X049993Y019121D02*
X054293Y019121D01*
X054293Y019023D02*
X049993Y019023D01*
X049993Y018924D02*
X054293Y018924D01*
X054293Y018826D02*
X049993Y018826D01*
X049993Y018727D02*
X054293Y018727D01*
X054293Y018629D02*
X049993Y018629D01*
X049993Y018530D02*
X054293Y018530D01*
X054293Y018432D02*
X049993Y018432D01*
X049993Y018333D02*
X054293Y018333D01*
X054293Y018235D02*
X049993Y018235D01*
X049993Y018136D02*
X054293Y018136D01*
X054293Y018038D02*
X049993Y018038D01*
X049993Y017939D02*
X054293Y017939D01*
X054293Y017841D02*
X049993Y017841D01*
X049993Y017742D02*
X054293Y017742D01*
X054293Y017644D02*
X049993Y017644D01*
X049993Y017545D02*
X054293Y017545D01*
X054293Y017447D02*
X049993Y017447D01*
X049993Y017348D02*
X054293Y017348D01*
X054293Y017250D02*
X049993Y017250D01*
X049993Y017151D02*
X054293Y017151D01*
X054293Y017053D02*
X049993Y017053D01*
X049993Y016954D02*
X054293Y016954D01*
X054293Y016856D02*
X049993Y016856D01*
X049993Y016757D02*
X054293Y016757D01*
X054293Y016659D02*
X049993Y016659D01*
X049993Y016560D02*
X054293Y016560D01*
X054293Y016462D02*
X049993Y016462D01*
X049993Y016363D02*
X054293Y016363D01*
X054293Y016265D02*
X049993Y016265D01*
X049993Y016166D02*
X054293Y016166D01*
X054293Y016068D02*
X049993Y016068D01*
X049993Y015969D02*
X054293Y015969D01*
X054293Y015871D02*
X049993Y015871D01*
X049993Y015772D02*
X054293Y015772D01*
X054293Y015674D02*
X049993Y015674D01*
X049993Y015575D02*
X054293Y015575D01*
X054293Y015477D02*
X049993Y015477D01*
X049993Y015378D02*
X054293Y015378D01*
X054293Y015280D02*
X049993Y015280D01*
X049993Y015181D02*
X054293Y015181D01*
X054293Y015083D02*
X049993Y015083D01*
X049993Y014984D02*
X054293Y014984D01*
X054293Y014886D02*
X049993Y014886D01*
X049993Y014787D02*
X054293Y014787D01*
X054293Y014689D02*
X049993Y014689D01*
X049993Y014590D02*
X054293Y014590D01*
X054293Y014492D02*
X049993Y014492D01*
X049993Y014393D02*
X054293Y014393D01*
X054293Y014295D02*
X049946Y014295D01*
X049793Y014886D02*
X036886Y014886D01*
X036928Y014984D02*
X049793Y014984D01*
X049793Y015083D02*
X036928Y015083D01*
X036870Y015181D02*
X049793Y015181D01*
X049793Y015280D02*
X037430Y015280D01*
X037478Y015378D02*
X049793Y015378D01*
X049793Y015477D02*
X037478Y015477D01*
X037426Y015575D02*
X049793Y015575D01*
X049793Y016856D02*
X036706Y016856D01*
X036805Y016954D02*
X049793Y016954D01*
X049793Y017053D02*
X036828Y017053D01*
X036828Y017151D02*
X049793Y017151D01*
X049793Y018235D02*
X038185Y018235D01*
X038308Y018530D02*
X038808Y018530D01*
X038848Y018629D02*
X038253Y018629D01*
X038253Y018727D02*
X038957Y018727D01*
X039230Y018727D02*
X039293Y018727D01*
X039293Y018826D02*
X038253Y018826D01*
X038253Y018924D02*
X039293Y018924D01*
X039293Y019023D02*
X038253Y019023D01*
X038253Y019121D02*
X039293Y019121D01*
X039293Y019220D02*
X038253Y019220D01*
X038253Y019318D02*
X039293Y019318D01*
X039293Y019417D02*
X038253Y019417D01*
X038253Y019515D02*
X039293Y019515D01*
X039293Y019614D02*
X038253Y019614D01*
X038253Y019712D02*
X039293Y019712D01*
X039293Y019811D02*
X038253Y019811D01*
X038253Y019909D02*
X039293Y019909D01*
X039493Y019909D02*
X049793Y019909D01*
X049793Y019811D02*
X039493Y019811D01*
X039493Y019712D02*
X049793Y019712D01*
X049793Y019614D02*
X039493Y019614D01*
X039493Y019515D02*
X049793Y019515D01*
X049793Y019417D02*
X039493Y019417D01*
X039493Y019318D02*
X049793Y019318D01*
X049793Y019220D02*
X039493Y019220D01*
X039493Y019121D02*
X049793Y019121D01*
X049793Y019023D02*
X039493Y019023D01*
X039493Y018924D02*
X049793Y018924D01*
X049793Y018826D02*
X039493Y018826D01*
X039493Y018727D02*
X049793Y018727D01*
X049793Y018629D02*
X039493Y018629D01*
X039493Y018530D02*
X049793Y018530D01*
X049793Y018432D02*
X039493Y018432D01*
X039434Y018333D02*
X049793Y018333D01*
X049793Y020008D02*
X039493Y020008D01*
X039493Y020106D02*
X049793Y020106D01*
X047121Y026115D02*
X031803Y026115D01*
X031803Y026213D02*
X047108Y026213D01*
X047108Y026312D02*
X031803Y026312D01*
X031803Y026410D02*
X047196Y026410D01*
X040730Y021387D02*
X038694Y021387D01*
X038609Y021288D02*
X040603Y021288D01*
X040590Y020993D02*
X038242Y020993D01*
X038377Y020894D02*
X040671Y020894D01*
X038277Y021288D02*
X037909Y021288D01*
X037994Y021387D02*
X038192Y021387D01*
X038158Y021485D02*
X038028Y021485D01*
X038028Y021584D02*
X038159Y021584D01*
X038200Y021682D02*
X037987Y021682D01*
X037871Y021781D02*
X038315Y021781D01*
X035604Y023554D02*
X031853Y023554D01*
X031853Y023652D02*
X035463Y023652D01*
X035484Y023948D02*
X031803Y023948D01*
X031876Y023925D02*
X031876Y023925D01*
X031803Y024046D02*
X035582Y024046D01*
X033769Y021682D02*
X031853Y021682D01*
X031907Y021584D02*
X033650Y021584D01*
X033610Y021485D02*
X031928Y021485D01*
X031915Y021387D02*
X033608Y021387D01*
X033642Y021288D02*
X031859Y021288D01*
X031793Y021190D02*
X033726Y021190D01*
X031593Y021190D02*
X031203Y021190D01*
X031203Y021288D02*
X031427Y021288D01*
X031371Y021387D02*
X031203Y021387D01*
X031203Y021485D02*
X031358Y021485D01*
X031380Y021584D02*
X031203Y021584D01*
X031203Y021682D02*
X031433Y021682D01*
X031433Y021781D02*
X031203Y021781D01*
X031203Y021879D02*
X031433Y021879D01*
X031433Y021978D02*
X031203Y021978D01*
X030783Y021879D02*
X028553Y021879D01*
X028553Y021781D02*
X030783Y021781D01*
X030783Y021682D02*
X028553Y021682D01*
X028553Y021584D02*
X030783Y021584D01*
X030783Y021485D02*
X028553Y021485D01*
X028553Y021387D02*
X030783Y021387D01*
X030783Y021288D02*
X028553Y021288D01*
X028553Y021190D02*
X030783Y021190D01*
X030783Y021091D02*
X028553Y021091D01*
X028553Y020993D02*
X030783Y020993D01*
X030877Y020894D02*
X028553Y020894D01*
X028553Y020796D02*
X030958Y020796D01*
X030988Y020697D02*
X028553Y020697D01*
X028553Y020599D02*
X031067Y020599D01*
X031346Y021091D02*
X031585Y021091D01*
X031583Y020993D02*
X031479Y020993D01*
X031433Y022667D02*
X031203Y022667D01*
X031203Y022766D02*
X031433Y022766D01*
X031433Y022864D02*
X031203Y022864D01*
X031528Y019121D02*
X031593Y019121D01*
X031593Y019023D02*
X031429Y019023D01*
X031331Y018924D02*
X031593Y018924D01*
X031593Y018826D02*
X031232Y018826D01*
X031134Y018727D02*
X031593Y018727D01*
X031593Y018629D02*
X030988Y018629D01*
X028818Y016462D02*
X027993Y016462D01*
X027993Y016560D02*
X028720Y016560D01*
X028621Y016659D02*
X027993Y016659D01*
X027993Y016757D02*
X028523Y016757D01*
X028424Y016856D02*
X027993Y016856D01*
X027993Y016954D02*
X028326Y016954D01*
X028227Y017053D02*
X027993Y017053D01*
X027993Y017151D02*
X028129Y017151D01*
X028030Y017250D02*
X027993Y017250D01*
X027993Y016363D02*
X028917Y016363D01*
X029015Y016265D02*
X027993Y016265D01*
X029114Y016166D02*
X017082Y016166D01*
X017123Y016068D02*
X029212Y016068D01*
X029311Y015969D02*
X017130Y015969D01*
X017118Y015871D02*
X029409Y015871D01*
X029508Y015772D02*
X017077Y015772D01*
X016988Y015674D02*
X029606Y015674D01*
X029705Y015575D02*
X013855Y015575D01*
X013953Y015674D02*
X016499Y015674D01*
X016409Y015772D02*
X014052Y015772D01*
X014150Y015871D02*
X016369Y015871D01*
X016357Y015969D02*
X014249Y015969D01*
X014347Y016068D02*
X016364Y016068D01*
X016404Y016166D02*
X014446Y016166D01*
X013756Y015477D02*
X029803Y015477D01*
X029902Y015378D02*
X013693Y015378D01*
X013693Y015280D02*
X030000Y015280D01*
X030099Y015181D02*
X013693Y015181D01*
X013693Y015083D02*
X030239Y015083D01*
X031335Y013347D02*
X030971Y012983D01*
X030971Y012467D01*
X031335Y012103D01*
X031851Y012103D01*
X032216Y012467D01*
X032216Y012983D01*
X031851Y013347D01*
X031335Y013347D01*
X031298Y013310D02*
X013693Y013310D01*
X013693Y013408D02*
X043341Y013408D01*
X043313Y013381D02*
X043313Y012569D01*
X043887Y011995D01*
X044699Y011995D01*
X045273Y012569D01*
X045273Y013381D01*
X044699Y013955D01*
X043887Y013955D01*
X043313Y013381D01*
X043313Y013310D02*
X039389Y013310D01*
X039351Y013347D02*
X038835Y013347D01*
X038471Y012983D01*
X038471Y012467D01*
X038835Y012103D01*
X039351Y012103D01*
X039716Y012467D01*
X039716Y012983D01*
X039351Y013347D01*
X039488Y013211D02*
X043313Y013211D01*
X043313Y013113D02*
X039586Y013113D01*
X039685Y013014D02*
X043313Y013014D01*
X043313Y012916D02*
X039716Y012916D01*
X039716Y012817D02*
X043313Y012817D01*
X043313Y012719D02*
X039716Y012719D01*
X039716Y012620D02*
X043313Y012620D01*
X043361Y012522D02*
X039716Y012522D01*
X039672Y012423D02*
X043459Y012423D01*
X043558Y012325D02*
X039573Y012325D01*
X039475Y012226D02*
X043656Y012226D01*
X043755Y012128D02*
X039376Y012128D01*
X038811Y012128D02*
X031876Y012128D01*
X031975Y012226D02*
X038712Y012226D01*
X038614Y012325D02*
X032073Y012325D01*
X032172Y012423D02*
X038515Y012423D01*
X038471Y012522D02*
X032216Y012522D01*
X032216Y012620D02*
X038471Y012620D01*
X038471Y012719D02*
X032216Y012719D01*
X032216Y012817D02*
X038471Y012817D01*
X038471Y012916D02*
X032216Y012916D01*
X032185Y013014D02*
X038502Y013014D01*
X038601Y013113D02*
X032086Y013113D01*
X031988Y013211D02*
X038699Y013211D01*
X038798Y013310D02*
X031889Y013310D01*
X031199Y013211D02*
X013693Y013211D01*
X013693Y013113D02*
X031101Y013113D01*
X031002Y013014D02*
X013693Y013014D01*
X013693Y012916D02*
X022996Y012916D01*
X023008Y012927D02*
X022891Y012811D01*
X022828Y012658D01*
X022828Y012492D01*
X022891Y012339D01*
X023008Y012223D01*
X023161Y012159D01*
X023326Y012159D01*
X023479Y012223D01*
X023596Y012339D01*
X023659Y012492D01*
X023659Y012658D01*
X023596Y012811D01*
X023479Y012927D01*
X023326Y012991D01*
X023161Y012991D01*
X023008Y012927D01*
X022897Y012817D02*
X013693Y012817D01*
X013693Y012719D02*
X022853Y012719D01*
X022828Y012620D02*
X013693Y012620D01*
X013693Y012522D02*
X022828Y012522D01*
X022856Y012423D02*
X013693Y012423D01*
X013693Y012325D02*
X022906Y012325D01*
X023004Y012226D02*
X013693Y012226D01*
X013693Y012128D02*
X031311Y012128D01*
X031212Y012226D02*
X023482Y012226D01*
X023581Y012325D02*
X031114Y012325D01*
X031015Y012423D02*
X023630Y012423D01*
X023659Y012522D02*
X030971Y012522D01*
X030971Y012620D02*
X023659Y012620D01*
X023634Y012719D02*
X030971Y012719D01*
X030971Y012817D02*
X023589Y012817D01*
X023491Y012916D02*
X030971Y012916D01*
X026601Y010650D02*
X049109Y010650D01*
X049109Y010552D02*
X026643Y010552D01*
X026643Y010453D02*
X049109Y010453D01*
X049109Y010355D02*
X026643Y010355D01*
X026643Y010256D02*
X049109Y010256D01*
X049109Y010158D02*
X026643Y010158D01*
X026643Y010059D02*
X049109Y010059D01*
X049109Y010052D02*
X049672Y009489D01*
X050467Y009489D01*
X051030Y010052D01*
X051030Y010847D01*
X054293Y010847D01*
X054293Y010749D02*
X051030Y010749D01*
X051030Y010847D02*
X050467Y011410D01*
X049672Y011410D01*
X049109Y010847D01*
X024160Y010847D01*
X024258Y010749D02*
X049109Y010749D01*
X049109Y010847D02*
X049109Y010052D01*
X049201Y009961D02*
X026643Y009961D01*
X026643Y009862D02*
X049299Y009862D01*
X049398Y009764D02*
X043361Y009764D01*
X043212Y009825D02*
X043525Y009696D01*
X043764Y009456D01*
X043893Y009144D01*
X043893Y008806D01*
X043764Y008494D01*
X043525Y008254D01*
X043212Y008125D01*
X042874Y008125D01*
X042562Y008254D01*
X042323Y008494D01*
X042193Y008806D01*
X042193Y009144D01*
X042323Y009456D01*
X042562Y009696D01*
X042874Y009825D01*
X043212Y009825D01*
X043555Y009665D02*
X049496Y009665D01*
X049595Y009567D02*
X043654Y009567D01*
X043752Y009468D02*
X054293Y009468D01*
X054293Y009370D02*
X043800Y009370D01*
X043841Y009271D02*
X054293Y009271D01*
X054293Y009173D02*
X043882Y009173D01*
X043893Y009074D02*
X054293Y009074D01*
X054293Y008976D02*
X043893Y008976D01*
X043893Y008877D02*
X047869Y008877D01*
X047941Y008949D02*
X047436Y008444D01*
X047436Y007730D01*
X047941Y007225D01*
X048655Y007225D01*
X049160Y007730D01*
X049160Y008444D01*
X048655Y008949D01*
X047941Y008949D01*
X047771Y008779D02*
X043882Y008779D01*
X043841Y008680D02*
X047672Y008680D01*
X047574Y008582D02*
X046240Y008582D01*
X046205Y008617D02*
X046100Y008660D01*
X045987Y008660D01*
X045882Y008617D01*
X045802Y008536D01*
X045758Y008432D01*
X045758Y008318D01*
X045802Y008214D01*
X045865Y008150D01*
X045779Y008150D01*
X045691Y008062D01*
X045691Y006953D01*
X045779Y006866D01*
X046376Y006866D01*
X046464Y006953D01*
X046464Y008062D01*
X046376Y008150D01*
X046288Y008150D01*
X046288Y008220D01*
X046328Y008318D01*
X046328Y008432D01*
X046285Y008536D01*
X046205Y008617D01*
X046307Y008483D02*
X047475Y008483D01*
X047436Y008385D02*
X046328Y008385D01*
X046315Y008286D02*
X047436Y008286D01*
X047436Y008188D02*
X046288Y008188D01*
X046437Y008089D02*
X047436Y008089D01*
X047436Y007991D02*
X046464Y007991D01*
X046464Y007892D02*
X047436Y007892D01*
X047436Y007794D02*
X046464Y007794D01*
X046464Y007695D02*
X047471Y007695D01*
X047570Y007597D02*
X046464Y007597D01*
X046464Y007498D02*
X047668Y007498D01*
X047767Y007400D02*
X046464Y007400D01*
X046464Y007301D02*
X047865Y007301D01*
X048731Y007301D02*
X049736Y007301D01*
X049778Y007343D02*
X049633Y007198D01*
X049555Y007009D01*
X049555Y006804D01*
X049633Y006614D01*
X049778Y006470D01*
X049967Y006391D01*
X050172Y006391D01*
X050361Y006470D01*
X050506Y006614D01*
X050585Y006804D01*
X050585Y007009D01*
X050506Y007198D01*
X050361Y007343D01*
X050172Y007421D01*
X049967Y007421D01*
X049778Y007343D01*
X049915Y007400D02*
X048829Y007400D01*
X048928Y007498D02*
X051212Y007498D01*
X051310Y007400D02*
X050224Y007400D01*
X050403Y007301D02*
X051409Y007301D01*
X051484Y007225D02*
X052198Y007225D01*
X052703Y007730D01*
X052703Y008444D01*
X052198Y008949D01*
X051484Y008949D01*
X050980Y008444D01*
X050980Y007730D01*
X051484Y007225D01*
X051113Y007597D02*
X049026Y007597D01*
X049125Y007695D02*
X051015Y007695D01*
X050980Y007794D02*
X049160Y007794D01*
X049160Y007892D02*
X050980Y007892D01*
X050980Y007991D02*
X049160Y007991D01*
X049160Y008089D02*
X050980Y008089D01*
X050980Y008188D02*
X049160Y008188D01*
X049160Y008286D02*
X050980Y008286D01*
X050980Y008385D02*
X049160Y008385D01*
X049121Y008483D02*
X051018Y008483D01*
X051117Y008582D02*
X049023Y008582D01*
X048924Y008680D02*
X051215Y008680D01*
X051314Y008779D02*
X048826Y008779D01*
X048727Y008877D02*
X051412Y008877D01*
X050643Y009665D02*
X054293Y009665D01*
X054293Y009567D02*
X050545Y009567D01*
X050742Y009764D02*
X054293Y009764D01*
X054293Y009862D02*
X050840Y009862D01*
X050939Y009961D02*
X054293Y009961D01*
X054293Y010059D02*
X051030Y010059D01*
X051030Y010158D02*
X054293Y010158D01*
X054293Y010256D02*
X051030Y010256D01*
X051030Y010355D02*
X054293Y010355D01*
X054293Y010453D02*
X051030Y010453D01*
X051030Y010552D02*
X054293Y010552D01*
X054293Y010650D02*
X051030Y010650D01*
X050932Y010946D02*
X054293Y010946D01*
X054293Y011044D02*
X050833Y011044D01*
X050735Y011143D02*
X054293Y011143D01*
X054293Y011241D02*
X050636Y011241D01*
X050538Y011340D02*
X054293Y011340D01*
X054293Y011438D02*
X018869Y011438D01*
X018815Y011537D02*
X054293Y011537D01*
X054293Y011635D02*
X018774Y011635D01*
X018681Y011734D02*
X054293Y011734D01*
X054293Y011832D02*
X013693Y011832D01*
X013693Y011734D02*
X018206Y011734D01*
X018112Y011635D02*
X013693Y011635D01*
X013693Y011537D02*
X018071Y011537D01*
X018057Y011438D02*
X013693Y011438D01*
X013693Y011340D02*
X018061Y011340D01*
X018101Y011241D02*
X013693Y011241D01*
X013693Y011143D02*
X018180Y011143D01*
X018354Y011044D02*
X013693Y011044D01*
X013693Y010946D02*
X018484Y010946D01*
X018583Y010847D02*
X013693Y010847D01*
X013693Y010749D02*
X018681Y010749D01*
X018797Y010650D02*
X013693Y010650D01*
X013693Y010552D02*
X022741Y010552D01*
X022642Y010453D02*
X013693Y010453D01*
X013693Y010355D02*
X022563Y010355D01*
X022563Y010256D02*
X013693Y010256D01*
X013693Y010158D02*
X015531Y010158D01*
X015537Y010160D02*
X015432Y010117D01*
X015352Y010036D01*
X015308Y009932D01*
X015308Y009818D01*
X015352Y009714D01*
X015432Y009633D01*
X015537Y009590D01*
X015650Y009590D01*
X015755Y009633D01*
X015835Y009714D01*
X015878Y009818D01*
X015878Y009932D01*
X015835Y010036D01*
X015755Y010117D01*
X015650Y010160D01*
X015537Y010160D01*
X015656Y010158D02*
X022563Y010158D01*
X022563Y010059D02*
X015812Y010059D01*
X015866Y009961D02*
X022579Y009961D01*
X022677Y009862D02*
X015878Y009862D01*
X015856Y009764D02*
X022776Y009764D01*
X022756Y009567D02*
X022331Y009567D01*
X022242Y009655D02*
X021844Y009655D01*
X021563Y009374D01*
X021563Y008976D01*
X021844Y008695D01*
X022242Y008695D01*
X022523Y008976D01*
X022523Y009374D01*
X022242Y009655D01*
X022429Y009468D02*
X022657Y009468D01*
X022563Y009370D02*
X022523Y009370D01*
X022523Y009271D02*
X022563Y009271D01*
X022563Y009173D02*
X022523Y009173D01*
X022523Y009074D02*
X022563Y009074D01*
X022564Y008976D02*
X022523Y008976D01*
X022424Y008877D02*
X022662Y008877D01*
X022761Y008779D02*
X022326Y008779D01*
X022843Y008680D02*
X013693Y008680D01*
X013693Y008582D02*
X022843Y008582D01*
X022843Y008483D02*
X013693Y008483D01*
X013693Y008385D02*
X022843Y008385D01*
X022843Y008286D02*
X013693Y008286D01*
X013693Y008188D02*
X022843Y008188D01*
X022843Y008089D02*
X013693Y008089D01*
X013693Y007991D02*
X022843Y007991D01*
X022843Y007892D02*
X013693Y007892D01*
X013693Y007794D02*
X022843Y007794D01*
X022843Y007695D02*
X013693Y007695D01*
X013693Y007597D02*
X022843Y007597D01*
X022843Y007498D02*
X013693Y007498D01*
X013693Y007400D02*
X022843Y007400D01*
X022843Y007301D02*
X013693Y007301D01*
X013693Y007203D02*
X022843Y007203D01*
X022843Y007104D02*
X013693Y007104D01*
X013693Y008779D02*
X021761Y008779D01*
X021662Y008877D02*
X013693Y008877D01*
X013693Y008976D02*
X021564Y008976D01*
X021563Y009074D02*
X013693Y009074D01*
X013693Y009173D02*
X021563Y009173D01*
X021563Y009271D02*
X013693Y009271D01*
X013693Y009370D02*
X021563Y009370D01*
X021657Y009468D02*
X013693Y009468D01*
X013693Y009567D02*
X021756Y009567D01*
X023311Y009764D02*
X023776Y009764D01*
X023677Y009862D02*
X023409Y009862D01*
X023508Y009961D02*
X023579Y009961D01*
X023563Y010059D02*
X023523Y010059D01*
X023523Y010158D02*
X023563Y010158D01*
X023563Y010256D02*
X023523Y010256D01*
X023523Y010355D02*
X023563Y010355D01*
X023642Y010453D02*
X023444Y010453D01*
X023346Y010552D02*
X023578Y010552D01*
X024061Y010946D02*
X049208Y010946D01*
X049306Y011044D02*
X023963Y011044D01*
X023864Y011143D02*
X049405Y011143D01*
X049503Y011241D02*
X019066Y011241D01*
X018967Y011340D02*
X049602Y011340D01*
X048529Y012325D02*
X054293Y012325D01*
X054293Y012423D02*
X048627Y012423D01*
X048723Y012519D02*
X048149Y011945D01*
X047337Y011945D01*
X046763Y012519D01*
X046763Y013331D01*
X047337Y013905D01*
X048149Y013905D01*
X048723Y013331D01*
X048723Y012519D01*
X048723Y012522D02*
X054293Y012522D01*
X054293Y012620D02*
X048723Y012620D01*
X048723Y012719D02*
X054293Y012719D01*
X054293Y012817D02*
X048723Y012817D01*
X048723Y012916D02*
X054293Y012916D01*
X054293Y013014D02*
X048723Y013014D01*
X048723Y013113D02*
X054293Y013113D01*
X054293Y013211D02*
X048723Y013211D01*
X048723Y013310D02*
X054293Y013310D01*
X054293Y013408D02*
X048646Y013408D01*
X048548Y013507D02*
X054293Y013507D01*
X054293Y013605D02*
X048449Y013605D01*
X048351Y013704D02*
X054293Y013704D01*
X054293Y013802D02*
X048252Y013802D01*
X048154Y013901D02*
X054293Y013901D01*
X054293Y013999D02*
X013693Y013999D01*
X013693Y013901D02*
X043833Y013901D01*
X043735Y013802D02*
X013693Y013802D01*
X013693Y013704D02*
X043636Y013704D01*
X043538Y013605D02*
X013693Y013605D01*
X013693Y013507D02*
X043439Y013507D01*
X044754Y013901D02*
X047333Y013901D01*
X047235Y013802D02*
X044852Y013802D01*
X044951Y013704D02*
X047136Y013704D01*
X047038Y013605D02*
X045049Y013605D01*
X045148Y013507D02*
X046939Y013507D01*
X046841Y013408D02*
X045246Y013408D01*
X045273Y013310D02*
X046763Y013310D01*
X046763Y013211D02*
X045273Y013211D01*
X045273Y013113D02*
X046763Y013113D01*
X046763Y013014D02*
X045273Y013014D01*
X045273Y012916D02*
X046763Y012916D01*
X046763Y012817D02*
X045273Y012817D01*
X045273Y012719D02*
X046763Y012719D01*
X046763Y012620D02*
X045273Y012620D01*
X045226Y012522D02*
X046763Y012522D01*
X046859Y012423D02*
X045127Y012423D01*
X045029Y012325D02*
X046958Y012325D01*
X047056Y012226D02*
X044930Y012226D01*
X044832Y012128D02*
X047155Y012128D01*
X047253Y012029D02*
X044733Y012029D01*
X043853Y012029D02*
X013693Y012029D01*
X013693Y011931D02*
X054293Y011931D01*
X054293Y012029D02*
X048233Y012029D01*
X048332Y012128D02*
X054293Y012128D01*
X054293Y012226D02*
X048430Y012226D01*
X052270Y008877D02*
X054293Y008877D01*
X054293Y008779D02*
X052369Y008779D01*
X052467Y008680D02*
X054293Y008680D01*
X054293Y008582D02*
X052566Y008582D01*
X052664Y008483D02*
X054293Y008483D01*
X054293Y008385D02*
X052703Y008385D01*
X052703Y008286D02*
X054293Y008286D01*
X054293Y008188D02*
X052703Y008188D01*
X052703Y008089D02*
X054293Y008089D01*
X054293Y007991D02*
X052703Y007991D01*
X052703Y007892D02*
X054293Y007892D01*
X054293Y007794D02*
X052703Y007794D01*
X052668Y007695D02*
X054293Y007695D01*
X054293Y007597D02*
X052569Y007597D01*
X052471Y007498D02*
X054293Y007498D01*
X054293Y007400D02*
X052372Y007400D01*
X052274Y007301D02*
X054293Y007301D01*
X054293Y007203D02*
X050502Y007203D01*
X050545Y007104D02*
X054293Y007104D01*
X054293Y007006D02*
X050585Y007006D01*
X050585Y006907D02*
X054293Y006907D01*
X054293Y006809D02*
X050585Y006809D01*
X050546Y006710D02*
X054293Y006710D01*
X054293Y006612D02*
X050503Y006612D01*
X050405Y006513D02*
X054293Y006513D01*
X054293Y006415D02*
X050229Y006415D01*
X049911Y006415D02*
X046809Y006415D01*
X046809Y006350D02*
X046752Y006211D01*
X046646Y006105D01*
X046507Y006048D01*
X046357Y006048D01*
X046218Y006105D01*
X046112Y006211D01*
X046055Y006350D01*
X046055Y006500D01*
X046112Y006639D01*
X046218Y006745D01*
X046357Y006802D01*
X046507Y006802D01*
X046646Y006745D01*
X046752Y006639D01*
X046809Y006500D01*
X046809Y006350D01*
X046795Y006316D02*
X054293Y006316D01*
X054203Y006218D02*
X046754Y006218D01*
X046659Y006119D02*
X054104Y006119D01*
X054006Y006021D02*
X022731Y006021D01*
X022827Y006119D02*
X026158Y006119D01*
X025982Y006218D02*
X022922Y006218D01*
X023018Y006316D02*
X025883Y006316D01*
X025785Y006415D02*
X023114Y006415D01*
X023210Y006513D02*
X025686Y006513D01*
X025588Y006612D02*
X023306Y006612D01*
X023402Y006710D02*
X025489Y006710D01*
X025391Y006809D02*
X023498Y006809D01*
X023593Y006907D02*
X025292Y006907D01*
X025194Y007006D02*
X023689Y007006D01*
X023785Y007104D02*
X025095Y007104D01*
X024997Y007203D02*
X023881Y007203D01*
X023977Y007301D02*
X024898Y007301D01*
X024800Y007400D02*
X024073Y007400D01*
X024168Y007498D02*
X024701Y007498D01*
X024603Y007597D02*
X024243Y007597D01*
X024243Y007695D02*
X024526Y007695D01*
X024486Y007794D02*
X024243Y007794D01*
X024243Y007892D02*
X024445Y007892D01*
X024416Y007991D02*
X024243Y007991D01*
X024243Y008089D02*
X024393Y008089D01*
X024393Y008188D02*
X024243Y008188D01*
X024243Y008286D02*
X024393Y008286D01*
X024393Y008385D02*
X024243Y008385D01*
X024243Y008483D02*
X024393Y008483D01*
X024393Y008582D02*
X024243Y008582D01*
X024243Y008680D02*
X024404Y008680D01*
X024443Y008779D02*
X024326Y008779D01*
X024424Y008877D02*
X024443Y008877D01*
X024643Y008877D02*
X025443Y008877D01*
X025443Y008779D02*
X024643Y008779D01*
X024643Y008725D02*
X024643Y010525D01*
X025443Y010525D01*
X025443Y008725D01*
X024643Y008725D01*
X024643Y008976D02*
X025443Y008976D01*
X025443Y009074D02*
X024643Y009074D01*
X024643Y009173D02*
X025443Y009173D01*
X025443Y009271D02*
X024643Y009271D01*
X024643Y009370D02*
X025443Y009370D01*
X025443Y009468D02*
X024643Y009468D01*
X024643Y009567D02*
X025443Y009567D01*
X025443Y009665D02*
X024643Y009665D01*
X024643Y009764D02*
X025443Y009764D01*
X025443Y009862D02*
X024643Y009862D01*
X024643Y009961D02*
X025443Y009961D01*
X025443Y010059D02*
X024643Y010059D01*
X024643Y010158D02*
X025443Y010158D01*
X025443Y010256D02*
X024643Y010256D01*
X024643Y010355D02*
X025443Y010355D01*
X025443Y010453D02*
X024643Y010453D01*
X024443Y010552D02*
X024353Y010552D01*
X024327Y010650D02*
X024485Y010650D01*
X024443Y009862D02*
X024409Y009862D01*
X024443Y009764D02*
X024311Y009764D01*
X024443Y009665D02*
X015786Y009665D01*
X015400Y009665D02*
X013693Y009665D01*
X013693Y009764D02*
X015331Y009764D01*
X015308Y009862D02*
X013693Y009862D01*
X013693Y009961D02*
X015320Y009961D01*
X015374Y010059D02*
X013693Y010059D01*
X013693Y014098D02*
X054293Y014098D01*
X054293Y014196D02*
X013693Y014196D01*
X019613Y007006D02*
X022843Y007006D01*
X022843Y006907D02*
X019711Y006907D01*
X019810Y006809D02*
X022827Y006809D01*
X022728Y006710D02*
X019908Y006710D01*
X020007Y006612D02*
X022630Y006612D01*
X022531Y006513D02*
X020105Y006513D01*
X020204Y006415D02*
X022433Y006415D01*
X022334Y006316D02*
X020302Y006316D01*
X023429Y009468D02*
X023657Y009468D01*
X023756Y009567D02*
X023331Y009567D01*
X024331Y009567D02*
X024443Y009567D01*
X024429Y009468D02*
X024443Y009468D01*
X025643Y009468D02*
X026443Y009468D01*
X026443Y009370D02*
X025643Y009370D01*
X025643Y009271D02*
X026443Y009271D01*
X026443Y009173D02*
X025643Y009173D01*
X025643Y009074D02*
X026443Y009074D01*
X026443Y008976D02*
X025643Y008976D01*
X025643Y008877D02*
X026443Y008877D01*
X026443Y008779D02*
X025643Y008779D01*
X025643Y008725D02*
X025643Y010525D01*
X026443Y010525D01*
X026443Y008725D01*
X025643Y008725D01*
X025693Y008483D02*
X025716Y008483D01*
X025693Y008385D02*
X025815Y008385D01*
X025752Y008286D02*
X025913Y008286D01*
X025850Y008188D02*
X026012Y008188D01*
X025949Y008089D02*
X026110Y008089D01*
X026047Y007991D02*
X026209Y007991D01*
X026146Y007892D02*
X026307Y007892D01*
X026244Y007794D02*
X026406Y007794D01*
X026343Y007695D02*
X026504Y007695D01*
X026441Y007597D02*
X026712Y007597D01*
X026540Y007498D02*
X034819Y007498D01*
X034721Y007400D02*
X026638Y007400D01*
X027161Y008877D02*
X042193Y008877D01*
X042193Y008976D02*
X027062Y008976D01*
X026964Y009074D02*
X042193Y009074D01*
X042205Y009173D02*
X026865Y009173D01*
X026767Y009271D02*
X042246Y009271D01*
X042287Y009370D02*
X026668Y009370D01*
X026643Y009468D02*
X042334Y009468D01*
X042433Y009567D02*
X026643Y009567D01*
X026643Y009665D02*
X042531Y009665D01*
X042726Y009764D02*
X026643Y009764D01*
X026443Y009764D02*
X025643Y009764D01*
X025643Y009862D02*
X026443Y009862D01*
X026443Y009961D02*
X025643Y009961D01*
X025643Y010059D02*
X026443Y010059D01*
X026443Y010158D02*
X025643Y010158D01*
X025643Y010256D02*
X026443Y010256D01*
X026443Y010355D02*
X025643Y010355D01*
X025643Y010453D02*
X026443Y010453D01*
X026443Y009665D02*
X025643Y009665D01*
X025643Y009567D02*
X026443Y009567D01*
X031901Y007301D02*
X034622Y007301D01*
X034553Y007203D02*
X032035Y007203D01*
X032134Y007104D02*
X034553Y007104D01*
X034553Y007006D02*
X032193Y007006D01*
X032221Y006907D02*
X034553Y006907D01*
X034553Y006809D02*
X032243Y006809D01*
X032243Y006710D02*
X034553Y006710D01*
X034560Y006612D02*
X032243Y006612D01*
X032216Y006513D02*
X034658Y006513D01*
X034757Y006415D02*
X032168Y006415D01*
X032104Y006316D02*
X034855Y006316D01*
X034954Y006218D02*
X032005Y006218D01*
X031868Y006119D02*
X038819Y006119D01*
X038682Y006218D02*
X035633Y006218D01*
X035732Y006316D02*
X038583Y006316D01*
X038485Y006415D02*
X035830Y006415D01*
X035929Y006513D02*
X038386Y006513D01*
X038288Y006612D02*
X036027Y006612D01*
X036034Y006710D02*
X038189Y006710D01*
X038091Y006809D02*
X036034Y006809D01*
X036034Y006907D02*
X037992Y006907D01*
X037894Y007006D02*
X036034Y007006D01*
X036034Y007104D02*
X037795Y007104D01*
X037697Y007203D02*
X036034Y007203D01*
X035965Y007301D02*
X037598Y007301D01*
X037500Y007400D02*
X035866Y007400D01*
X035768Y007498D02*
X037401Y007498D01*
X038353Y008385D02*
X042432Y008385D01*
X042333Y008483D02*
X038255Y008483D01*
X038156Y008582D02*
X042286Y008582D01*
X042245Y008680D02*
X038058Y008680D01*
X037956Y008779D02*
X042205Y008779D01*
X042530Y008286D02*
X038452Y008286D01*
X038550Y008188D02*
X042723Y008188D01*
X043363Y008188D02*
X044878Y008188D01*
X044883Y008182D02*
X044883Y008150D01*
X044795Y008150D01*
X044707Y008062D01*
X044707Y006953D01*
X044795Y006866D01*
X045392Y006866D01*
X045480Y006953D01*
X045480Y008062D01*
X045392Y008150D01*
X045303Y008150D01*
X045303Y008182D01*
X045335Y008214D01*
X045378Y008318D01*
X045378Y008432D01*
X045335Y008536D01*
X045255Y008617D01*
X045150Y008660D01*
X045037Y008660D01*
X044932Y008617D01*
X044852Y008536D01*
X044808Y008432D01*
X044808Y008318D01*
X044852Y008214D01*
X044883Y008182D01*
X044822Y008286D02*
X043556Y008286D01*
X043655Y008385D02*
X044808Y008385D01*
X044830Y008483D02*
X043753Y008483D01*
X043800Y008582D02*
X044897Y008582D01*
X045290Y008582D02*
X045847Y008582D01*
X045780Y008483D02*
X045357Y008483D01*
X045378Y008385D02*
X045758Y008385D01*
X045772Y008286D02*
X045365Y008286D01*
X045309Y008188D02*
X045828Y008188D01*
X045718Y008089D02*
X045452Y008089D01*
X045480Y007991D02*
X045691Y007991D01*
X045691Y007892D02*
X045480Y007892D01*
X045480Y007794D02*
X045691Y007794D01*
X045691Y007695D02*
X045480Y007695D01*
X045480Y007597D02*
X045691Y007597D01*
X045691Y007498D02*
X045480Y007498D01*
X045480Y007400D02*
X045691Y007400D01*
X045691Y007301D02*
X045480Y007301D01*
X045480Y007203D02*
X045691Y007203D01*
X045691Y007104D02*
X045480Y007104D01*
X045480Y007006D02*
X045691Y007006D01*
X045738Y006907D02*
X045433Y006907D01*
X044754Y006907D02*
X039721Y006907D01*
X039743Y006809D02*
X049555Y006809D01*
X049555Y006907D02*
X046417Y006907D01*
X046464Y007006D02*
X049555Y007006D01*
X049594Y007104D02*
X046464Y007104D01*
X046464Y007203D02*
X049638Y007203D01*
X049594Y006710D02*
X046680Y006710D01*
X046763Y006612D02*
X049636Y006612D01*
X049735Y006513D02*
X046804Y006513D01*
X046184Y006710D02*
X044003Y006710D01*
X043968Y006745D02*
X043830Y006802D01*
X043680Y006802D01*
X043541Y006745D01*
X043435Y006639D01*
X043378Y006500D01*
X043378Y006350D01*
X043435Y006211D01*
X043541Y006105D01*
X043680Y006048D01*
X043830Y006048D01*
X043968Y006105D01*
X044074Y006211D01*
X044132Y006350D01*
X044132Y006500D01*
X044074Y006639D01*
X043968Y006745D01*
X044086Y006612D02*
X046101Y006612D01*
X046060Y006513D02*
X044127Y006513D01*
X044132Y006415D02*
X046055Y006415D01*
X046069Y006316D02*
X044118Y006316D01*
X044077Y006218D02*
X046110Y006218D01*
X046204Y006119D02*
X043982Y006119D01*
X043527Y006119D02*
X039368Y006119D01*
X039505Y006218D02*
X043432Y006218D01*
X043392Y006316D02*
X039604Y006316D01*
X039668Y006415D02*
X043378Y006415D01*
X043383Y006513D02*
X039716Y006513D01*
X039743Y006612D02*
X043424Y006612D01*
X043506Y006710D02*
X039743Y006710D01*
X039693Y007006D02*
X044707Y007006D01*
X044707Y007104D02*
X039634Y007104D01*
X039535Y007203D02*
X044707Y007203D01*
X044707Y007301D02*
X039437Y007301D01*
X039338Y007400D02*
X044707Y007400D01*
X044707Y007498D02*
X039240Y007498D01*
X039141Y007597D02*
X044707Y007597D01*
X044707Y007695D02*
X039043Y007695D01*
X038944Y007794D02*
X044707Y007794D01*
X044707Y007892D02*
X038846Y007892D01*
X038747Y007991D02*
X044707Y007991D01*
X044734Y008089D02*
X038649Y008089D01*
X026293Y022864D02*
X024953Y022864D01*
X024852Y022963D02*
X026293Y022963D01*
X026293Y023061D02*
X024751Y023061D01*
X024650Y023160D02*
X026293Y023160D01*
X026293Y023258D02*
X024549Y023258D01*
X024448Y023357D02*
X024996Y023357D01*
X024958Y023373D02*
X025111Y023309D01*
X025276Y023309D01*
X025429Y023373D01*
X025546Y023489D01*
X025609Y023642D01*
X025609Y023808D01*
X025546Y023961D01*
X025429Y024077D01*
X025276Y024141D01*
X025111Y024141D01*
X024958Y024077D01*
X024841Y023961D01*
X024778Y023808D01*
X024778Y023642D01*
X024841Y023489D01*
X024958Y023373D01*
X024875Y023455D02*
X024347Y023455D01*
X024246Y023554D02*
X024814Y023554D01*
X024778Y023652D02*
X024144Y023652D01*
X024043Y023751D02*
X024778Y023751D01*
X024795Y023849D02*
X023942Y023849D01*
X023841Y023948D02*
X024835Y023948D01*
X024926Y024046D02*
X023740Y024046D01*
X023639Y024145D02*
X026293Y024145D01*
X026293Y024243D02*
X023538Y024243D01*
X023437Y024342D02*
X026293Y024342D01*
X026293Y024046D02*
X025460Y024046D01*
X025551Y023948D02*
X026293Y023948D01*
X026293Y023849D02*
X025592Y023849D01*
X025609Y023751D02*
X026293Y023751D01*
X026293Y023652D02*
X025609Y023652D01*
X025572Y023554D02*
X026293Y023554D01*
X026293Y023455D02*
X025511Y023455D01*
X025390Y023357D02*
X026293Y023357D01*
X025121Y024440D02*
X023336Y024440D01*
X023235Y024539D02*
X024991Y024539D01*
X024893Y024637D02*
X023134Y024637D01*
X023032Y024736D02*
X024794Y024736D01*
X020398Y029956D02*
X020193Y029956D01*
X020193Y030055D02*
X020261Y030055D01*
X020215Y030153D02*
X020193Y030153D01*
X020193Y030252D02*
X020208Y030252D01*
X020193Y030350D02*
X020237Y030350D01*
X020193Y030449D02*
X020283Y030449D01*
X020283Y030547D02*
X020193Y030547D01*
X020193Y030646D02*
X020283Y030646D01*
X020283Y030744D02*
X020193Y030744D01*
X020193Y030843D02*
X020283Y030843D01*
X020283Y030941D02*
X020193Y030941D01*
X020193Y031040D02*
X020283Y031040D01*
X020283Y031138D02*
X020193Y031138D01*
X020193Y031237D02*
X020283Y031237D01*
X020283Y031335D02*
X020193Y031335D01*
X020193Y031434D02*
X020283Y031434D01*
X020283Y031532D02*
X020193Y031532D01*
X020193Y031631D02*
X020283Y031631D01*
X020283Y031729D02*
X020193Y031729D01*
X020193Y031828D02*
X020283Y031828D01*
X020283Y031926D02*
X020193Y031926D01*
X020193Y032025D02*
X020283Y032025D01*
X020283Y032123D02*
X020193Y032123D01*
X020193Y032222D02*
X020200Y032222D01*
X019806Y032616D02*
X006003Y032616D01*
X006003Y032714D02*
X019707Y032714D01*
X019609Y032813D02*
X006003Y032813D01*
X006003Y032911D02*
X019510Y032911D01*
X019412Y033010D02*
X006003Y033010D01*
X006003Y033108D02*
X019313Y033108D01*
X019215Y033207D02*
X006003Y033207D01*
X006003Y033305D02*
X019116Y033305D01*
X019018Y033404D02*
X006003Y033404D01*
X006003Y033502D02*
X018919Y033502D01*
X018821Y033601D02*
X006003Y033601D01*
X006003Y033699D02*
X018722Y033699D01*
X018624Y033798D02*
X006003Y033798D01*
X006003Y033896D02*
X018525Y033896D01*
X018427Y033995D02*
X006003Y033995D01*
X006003Y034093D02*
X018328Y034093D01*
X018230Y034192D02*
X006003Y034192D01*
X006003Y034290D02*
X018131Y034290D01*
X018033Y034389D02*
X006003Y034389D01*
X006003Y034487D02*
X017934Y034487D01*
X019086Y034980D02*
X021417Y034980D01*
X021413Y035078D02*
X019184Y035078D01*
X019259Y035177D02*
X021420Y035177D01*
X021461Y035275D02*
X019259Y035275D01*
X019259Y035374D02*
X021534Y035374D01*
X021678Y035472D02*
X019259Y035472D01*
X018275Y036654D02*
X021419Y036654D01*
X021767Y036654D02*
X028911Y036654D01*
X029275Y036654D02*
X029481Y036654D01*
X029383Y036753D02*
X029351Y036753D01*
X029580Y036556D02*
X021848Y036556D01*
X021878Y036457D02*
X029678Y036457D01*
X029777Y036359D02*
X028257Y036359D01*
X031793Y032419D02*
X036373Y032419D01*
X036458Y032320D02*
X031793Y032320D01*
X031793Y032222D02*
X036464Y032222D01*
X036563Y032123D02*
X031793Y032123D01*
X030085Y031237D02*
X027966Y031237D01*
X031803Y029562D02*
X032798Y029562D01*
X032708Y029464D02*
X031803Y029464D01*
X031803Y029365D02*
X032708Y029365D01*
X032719Y029267D02*
X031803Y029267D01*
X031803Y029168D02*
X032818Y029168D01*
X033069Y029168D02*
X035554Y029168D01*
X035508Y029070D02*
X031803Y029070D01*
X031803Y028971D02*
X035508Y028971D01*
X035563Y028873D02*
X031803Y028873D01*
X031803Y027001D02*
X033337Y027001D01*
X033258Y026903D02*
X031803Y026903D01*
X031803Y026804D02*
X033258Y026804D01*
X033280Y026706D02*
X031803Y026706D01*
X017836Y036753D02*
X016143Y036753D01*
X016143Y036851D02*
X017808Y036851D01*
X017816Y036950D02*
X016143Y036950D01*
X014043Y036359D02*
X010971Y036359D01*
X010971Y036457D02*
X013961Y036457D01*
X013863Y036556D02*
X010929Y036556D01*
X010831Y036654D02*
X013764Y036654D01*
X014041Y036260D02*
X010971Y036260D01*
X010971Y036162D02*
X014008Y036162D01*
X009941Y035571D02*
X008605Y035571D01*
X008704Y035669D02*
X009843Y035669D01*
X009744Y035768D02*
X008802Y035768D01*
X008901Y035866D02*
X009646Y035866D01*
X009576Y035965D02*
X008971Y035965D01*
X008971Y036063D02*
X009576Y036063D01*
X009576Y036162D02*
X008971Y036162D01*
X008971Y036260D02*
X009576Y036260D01*
X009576Y036359D02*
X008971Y036359D01*
X008971Y036457D02*
X009576Y036457D01*
X009617Y036556D02*
X008929Y036556D01*
X008831Y036654D02*
X009716Y036654D01*
X007716Y036654D02*
X006219Y036654D01*
X006121Y036556D02*
X007617Y036556D01*
X007576Y036457D02*
X006022Y036457D01*
X006003Y036359D02*
X007576Y036359D01*
X007576Y036260D02*
X006003Y036260D01*
X006003Y036162D02*
X007576Y036162D01*
X007576Y036063D02*
X006003Y036063D01*
X006003Y035965D02*
X007576Y035965D01*
X007646Y035866D02*
X006003Y035866D01*
X006003Y035768D02*
X007744Y035768D01*
X007843Y035669D02*
X006003Y035669D01*
X006003Y035571D02*
X007941Y035571D01*
X006003Y032517D02*
X015293Y032517D01*
X015293Y032419D02*
X006003Y032419D01*
X006003Y032320D02*
X015293Y032320D01*
X015293Y032222D02*
X006003Y032222D01*
X006003Y032123D02*
X015293Y032123D01*
X015293Y032025D02*
X006003Y032025D01*
X006003Y031926D02*
X015293Y031926D01*
X015293Y031828D02*
X011507Y031828D01*
X011606Y031729D02*
X015293Y031729D01*
X015293Y031631D02*
X011704Y031631D01*
X011803Y031532D02*
X015293Y031532D01*
X015293Y031434D02*
X011821Y031434D01*
X011821Y031335D02*
X015293Y031335D01*
X015293Y031237D02*
X011821Y031237D01*
X011821Y031138D02*
X015293Y031138D01*
X015293Y031040D02*
X011821Y031040D01*
X011821Y030941D02*
X015293Y030941D01*
X015293Y030843D02*
X011727Y030843D01*
X011629Y030744D02*
X015293Y030744D01*
X015293Y030646D02*
X011530Y030646D01*
X010716Y030646D02*
X009680Y030646D01*
X009779Y030744D02*
X010618Y030744D01*
X010519Y030843D02*
X009877Y030843D01*
X009971Y030941D02*
X010426Y030941D01*
X010426Y031040D02*
X009971Y031040D01*
X009971Y031138D02*
X010426Y031138D01*
X010426Y031237D02*
X009971Y031237D01*
X009971Y031335D02*
X010426Y031335D01*
X010426Y031434D02*
X009971Y031434D01*
X009953Y031532D02*
X010444Y031532D01*
X010542Y031631D02*
X009854Y031631D01*
X009756Y031729D02*
X010641Y031729D01*
X010739Y031828D02*
X009657Y031828D01*
X008889Y031828D02*
X007807Y031828D01*
X007906Y031729D02*
X008791Y031729D01*
X008692Y031631D02*
X008004Y031631D01*
X008103Y031532D02*
X008594Y031532D01*
X008576Y031434D02*
X008121Y031434D01*
X007039Y031828D02*
X006003Y031828D01*
X006003Y031729D02*
X006941Y031729D01*
X006842Y031631D02*
X006003Y031631D01*
X006003Y031532D02*
X006744Y031532D01*
X006726Y031434D02*
X006003Y031434D01*
D27*
X035293Y006925D03*
X042043Y006775D03*
D28*
X028743Y018925D03*
X018443Y011425D03*
X016743Y015975D03*
D29*
X044293Y012975D03*
X047743Y012925D03*
D30*
X039093Y006725D02*
X037593Y008225D01*
X026893Y008225D01*
X026193Y008925D01*
X025043Y008525D02*
X025043Y008175D01*
X025093Y008125D01*
X025093Y008025D01*
X026393Y006725D01*
X031593Y006725D01*
D31*
X026693Y022225D03*
D32*
X026693Y023078D01*
X027341Y023725D01*
D33*
X025043Y009175D02*
X025043Y008525D01*
D34*
X018493Y028825D03*
D35*
X017993Y029325D01*
X016693Y029325D01*
X015593Y028225D01*
X007193Y028225D01*
X006793Y027825D01*
X006793Y018525D01*
X007193Y018125D01*
X008341Y018125D01*
M02*
