G75*
%MOIN*%
%OFA0B0*%
%FSLAX24Y24*%
%IPPOS*%
%LPD*%
%AMOC8*
5,1,8,0,0,1.08239X$1,22.5*
%
%ADD10C,0.0591*%
%ADD11C,0.1210*%
%ADD12C,0.0600*%
%ADD13C,0.0531*%
%ADD14C,0.1095*%
%ADD15C,0.0945*%
%ADD16C,0.1620*%
%ADD17C,0.1325*%
%ADD18C,0.1424*%
%ADD19C,0.0100*%
%ADD20C,0.0270*%
%ADD21C,0.0376*%
%ADD22C,0.0120*%
%ADD23C,0.1181*%
%ADD24C,0.0472*%
%ADD25C,0.0320*%
%ADD26C,0.1660*%
%ADD27C,0.0416*%
%ADD28C,0.0240*%
D10*
X008341Y013125D03*
X008341Y014125D03*
X008341Y015125D03*
X008341Y016125D03*
X008341Y017125D03*
X008341Y018125D03*
X008341Y019125D03*
X008341Y020125D03*
X008341Y021125D03*
X008341Y022125D03*
X008341Y023725D03*
X008341Y024725D03*
X008341Y025725D03*
X008341Y026725D03*
X008341Y027725D03*
X008341Y028725D03*
X008341Y029725D03*
X008341Y030725D03*
X016341Y030775D03*
X017341Y030775D03*
X018341Y030775D03*
X018341Y031775D03*
X017341Y031775D03*
X016341Y031775D03*
X027341Y030725D03*
X027341Y029725D03*
X027341Y028725D03*
X027341Y027725D03*
X027341Y026725D03*
X027341Y025725D03*
X027341Y023725D03*
X027341Y022725D03*
X027341Y021725D03*
X027341Y020725D03*
X027341Y019725D03*
X027341Y018725D03*
X027341Y017725D03*
X027341Y016725D03*
D11*
X018756Y008735D03*
X014731Y008735D03*
X012556Y008735D03*
X008531Y008735D03*
X030381Y034165D03*
X034406Y034165D03*
X036581Y034165D03*
X040606Y034165D03*
X042781Y034165D03*
X046806Y034165D03*
X048981Y034165D03*
X053006Y034165D03*
D12*
X051582Y031548D03*
X050582Y031548D03*
X050582Y030548D03*
X050582Y029548D03*
X050582Y028548D03*
X051582Y028548D03*
X051582Y029548D03*
X051582Y030548D03*
X026043Y010175D03*
X025043Y010175D03*
X024043Y010175D03*
X023043Y010175D03*
X022043Y010175D03*
X022043Y009175D03*
X023043Y009175D03*
X024043Y009175D03*
X025043Y009175D03*
X026043Y009175D03*
D13*
X023243Y012575D03*
X023243Y014975D03*
X025193Y023025D03*
X025193Y023725D03*
X019843Y035325D03*
X018843Y035325D03*
X017843Y035325D03*
X042643Y031225D03*
X048693Y031225D03*
X048393Y028025D03*
X048493Y025875D03*
X048543Y023475D03*
D14*
X011123Y031225D03*
X009273Y031225D03*
X007423Y031225D03*
X008273Y036225D03*
X010273Y036225D03*
D15*
X031593Y012725D03*
X031593Y006725D03*
X039093Y006725D03*
X039093Y012725D03*
D16*
X050070Y010449D03*
D17*
X050070Y008087D03*
D18*
X051841Y008087D03*
X048298Y008087D03*
D19*
X006076Y006575D02*
X005693Y006958D01*
X005693Y031225D01*
X006726Y031225D01*
X006726Y031086D01*
X006832Y030830D01*
X007028Y030634D01*
X007285Y030528D01*
X007562Y030528D01*
X007818Y030634D01*
X007895Y030711D01*
X007895Y030636D01*
X007963Y030473D01*
X008088Y030348D01*
X008252Y030280D01*
X008429Y030280D01*
X008593Y030348D01*
X008693Y030448D01*
X008693Y030425D01*
X015493Y030425D01*
X015493Y032325D01*
X019993Y032325D01*
X019993Y029025D01*
X020893Y029025D01*
X020893Y026525D01*
X024893Y022625D01*
X025073Y022625D01*
X025111Y022609D01*
X025276Y022609D01*
X025314Y022625D01*
X026493Y022625D01*
X026493Y024225D01*
X027743Y024225D01*
X027793Y024175D01*
X027793Y016375D01*
X027620Y016375D01*
X027718Y016473D01*
X027786Y016636D01*
X027786Y016814D01*
X027718Y016977D01*
X027593Y017102D01*
X027429Y017170D01*
X027252Y017170D01*
X027088Y017102D01*
X026963Y016977D01*
X026895Y016814D01*
X026895Y016636D01*
X026963Y016473D01*
X027061Y016375D01*
X014313Y016375D01*
X013493Y015555D01*
X013493Y006575D01*
X006076Y006575D01*
X006040Y006612D02*
X013493Y006612D01*
X013493Y006710D02*
X005941Y006710D01*
X005843Y006809D02*
X013493Y006809D01*
X013493Y006907D02*
X005744Y006907D01*
X005693Y007006D02*
X013493Y007006D01*
X013493Y007104D02*
X005693Y007104D01*
X005693Y007203D02*
X013493Y007203D01*
X013493Y007301D02*
X005693Y007301D01*
X005693Y007400D02*
X013493Y007400D01*
X013493Y007498D02*
X005693Y007498D01*
X005693Y007597D02*
X013493Y007597D01*
X013493Y007695D02*
X005693Y007695D01*
X005693Y007794D02*
X013493Y007794D01*
X013493Y007892D02*
X005693Y007892D01*
X005693Y007991D02*
X008355Y007991D01*
X008381Y007980D02*
X008681Y007980D01*
X008958Y008095D01*
X009171Y008307D01*
X009286Y008585D01*
X009286Y008885D01*
X009171Y009163D01*
X008958Y009375D01*
X008681Y009490D01*
X008381Y009490D01*
X008103Y009375D01*
X007891Y009163D01*
X007776Y008885D01*
X007776Y008585D01*
X007891Y008307D01*
X008103Y008095D01*
X008381Y007980D01*
X008117Y008089D02*
X005693Y008089D01*
X005693Y008188D02*
X008011Y008188D01*
X007912Y008286D02*
X005693Y008286D01*
X005693Y008385D02*
X007859Y008385D01*
X007818Y008483D02*
X005693Y008483D01*
X005693Y008582D02*
X007777Y008582D01*
X007776Y008680D02*
X005693Y008680D01*
X005693Y008779D02*
X007776Y008779D01*
X007776Y008877D02*
X005693Y008877D01*
X005693Y008976D02*
X007813Y008976D01*
X007854Y009074D02*
X005693Y009074D01*
X005693Y009173D02*
X007901Y009173D01*
X007999Y009271D02*
X005693Y009271D01*
X005693Y009370D02*
X008098Y009370D01*
X008328Y009468D02*
X005693Y009468D01*
X005693Y009567D02*
X013493Y009567D01*
X013493Y009665D02*
X005693Y009665D01*
X005693Y009764D02*
X013493Y009764D01*
X013493Y009862D02*
X005693Y009862D01*
X005693Y009961D02*
X013493Y009961D01*
X013493Y010059D02*
X005693Y010059D01*
X005693Y010158D02*
X013493Y010158D01*
X013493Y010256D02*
X005693Y010256D01*
X005693Y010355D02*
X013493Y010355D01*
X013493Y010453D02*
X005693Y010453D01*
X005693Y010552D02*
X013493Y010552D01*
X013493Y010650D02*
X005693Y010650D01*
X005693Y010749D02*
X013493Y010749D01*
X013493Y010847D02*
X005693Y010847D01*
X005693Y010946D02*
X013493Y010946D01*
X013493Y011044D02*
X005693Y011044D01*
X005693Y011143D02*
X013493Y011143D01*
X013493Y011241D02*
X005693Y011241D01*
X005693Y011340D02*
X013493Y011340D01*
X013493Y011438D02*
X005693Y011438D01*
X005693Y011537D02*
X013493Y011537D01*
X013493Y011635D02*
X012437Y011635D01*
X012412Y011625D02*
X012725Y011754D01*
X012964Y011994D01*
X013093Y012306D01*
X013093Y012644D01*
X012964Y012956D01*
X012725Y013196D01*
X012412Y013325D01*
X012074Y013325D01*
X011762Y013196D01*
X011523Y012956D01*
X011393Y012644D01*
X011393Y012306D01*
X011523Y011994D01*
X011762Y011754D01*
X012074Y011625D01*
X012412Y011625D01*
X012674Y011734D02*
X013493Y011734D01*
X013493Y011832D02*
X012802Y011832D01*
X012901Y011931D02*
X013493Y011931D01*
X013493Y012029D02*
X012979Y012029D01*
X013019Y012128D02*
X013493Y012128D01*
X013493Y012226D02*
X013060Y012226D01*
X013093Y012325D02*
X013493Y012325D01*
X013493Y012423D02*
X013093Y012423D01*
X013093Y012522D02*
X013493Y012522D01*
X013493Y012620D02*
X013093Y012620D01*
X013062Y012719D02*
X013493Y012719D01*
X013493Y012817D02*
X013022Y012817D01*
X012981Y012916D02*
X013493Y012916D01*
X013493Y013014D02*
X012906Y013014D01*
X012808Y013113D02*
X013493Y013113D01*
X013493Y013211D02*
X012688Y013211D01*
X012450Y013310D02*
X013493Y013310D01*
X013493Y013408D02*
X008687Y013408D01*
X008718Y013377D02*
X008593Y013502D01*
X008429Y013570D01*
X008252Y013570D01*
X008088Y013502D01*
X007963Y013377D01*
X007895Y013214D01*
X007895Y013036D01*
X007963Y012873D01*
X008088Y012748D01*
X008252Y012680D01*
X008429Y012680D01*
X008593Y012748D01*
X008718Y012873D01*
X008786Y013036D01*
X008786Y013214D01*
X008718Y013377D01*
X008746Y013310D02*
X012037Y013310D01*
X011799Y013211D02*
X008786Y013211D01*
X008786Y013113D02*
X011679Y013113D01*
X011580Y013014D02*
X008777Y013014D01*
X008736Y012916D02*
X011506Y012916D01*
X011465Y012817D02*
X008662Y012817D01*
X008523Y012719D02*
X011424Y012719D01*
X011393Y012620D02*
X005693Y012620D01*
X005693Y012522D02*
X011393Y012522D01*
X011393Y012423D02*
X005693Y012423D01*
X005693Y012325D02*
X011393Y012325D01*
X011426Y012226D02*
X005693Y012226D01*
X005693Y012128D02*
X011467Y012128D01*
X011508Y012029D02*
X005693Y012029D01*
X005693Y011931D02*
X011586Y011931D01*
X011684Y011832D02*
X005693Y011832D01*
X005693Y011734D02*
X011812Y011734D01*
X012050Y011635D02*
X005693Y011635D01*
X005693Y012719D02*
X008158Y012719D01*
X008019Y012817D02*
X005693Y012817D01*
X005693Y012916D02*
X007945Y012916D01*
X007905Y013014D02*
X005693Y013014D01*
X005693Y013113D02*
X007895Y013113D01*
X007895Y013211D02*
X005693Y013211D01*
X005693Y013310D02*
X007935Y013310D01*
X007994Y013408D02*
X005693Y013408D01*
X005693Y013507D02*
X008098Y013507D01*
X008195Y013704D02*
X005693Y013704D01*
X005693Y013802D02*
X008034Y013802D01*
X008088Y013748D02*
X007963Y013873D01*
X007895Y014036D01*
X007895Y014214D01*
X007963Y014377D01*
X008088Y014502D01*
X008252Y014570D01*
X008429Y014570D01*
X008593Y014502D01*
X008718Y014377D01*
X008786Y014214D01*
X008786Y014036D01*
X008718Y013873D01*
X008593Y013748D01*
X008429Y013680D01*
X008252Y013680D01*
X008088Y013748D01*
X007952Y013901D02*
X005693Y013901D01*
X005693Y013999D02*
X007911Y013999D01*
X007895Y014098D02*
X005693Y014098D01*
X005693Y014196D02*
X007895Y014196D01*
X007929Y014295D02*
X005693Y014295D01*
X005693Y014393D02*
X007979Y014393D01*
X008077Y014492D02*
X005693Y014492D01*
X005693Y014590D02*
X013493Y014590D01*
X013493Y014492D02*
X008604Y014492D01*
X008702Y014393D02*
X013493Y014393D01*
X013493Y014295D02*
X008752Y014295D01*
X008786Y014196D02*
X013493Y014196D01*
X013493Y014098D02*
X008786Y014098D01*
X008770Y013999D02*
X013493Y013999D01*
X013493Y013901D02*
X008730Y013901D01*
X008647Y013802D02*
X013493Y013802D01*
X013493Y013704D02*
X008487Y013704D01*
X008583Y013507D02*
X013493Y013507D01*
X013493Y013605D02*
X005693Y013605D01*
X005693Y014689D02*
X008231Y014689D01*
X008252Y014680D02*
X008429Y014680D01*
X008593Y014748D01*
X008718Y014873D01*
X008786Y015036D01*
X008786Y015214D01*
X008718Y015377D01*
X008593Y015502D01*
X008429Y015570D01*
X008252Y015570D01*
X008088Y015502D01*
X007963Y015377D01*
X007895Y015214D01*
X007895Y015036D01*
X007963Y014873D01*
X008088Y014748D01*
X008252Y014680D01*
X008450Y014689D02*
X013493Y014689D01*
X013493Y014787D02*
X008632Y014787D01*
X008723Y014886D02*
X013493Y014886D01*
X013493Y014984D02*
X008764Y014984D01*
X008786Y015083D02*
X013493Y015083D01*
X013493Y015181D02*
X008786Y015181D01*
X008759Y015280D02*
X013493Y015280D01*
X013493Y015378D02*
X008717Y015378D01*
X008619Y015477D02*
X009948Y015477D01*
X009932Y015483D02*
X010037Y015440D01*
X010150Y015440D01*
X010255Y015483D01*
X010335Y015564D01*
X010378Y015668D01*
X010378Y015782D01*
X010335Y015886D01*
X010255Y015967D01*
X010150Y016010D01*
X010037Y016010D01*
X009932Y015967D01*
X009852Y015886D01*
X009808Y015782D01*
X009808Y015668D01*
X009852Y015564D01*
X009932Y015483D01*
X009847Y015575D02*
X005693Y015575D01*
X005693Y015477D02*
X008062Y015477D01*
X007964Y015378D02*
X005693Y015378D01*
X005693Y015280D02*
X007923Y015280D01*
X007895Y015181D02*
X005693Y015181D01*
X005693Y015083D02*
X007895Y015083D01*
X007917Y014984D02*
X005693Y014984D01*
X005693Y014886D02*
X007958Y014886D01*
X008049Y014787D02*
X005693Y014787D01*
X005693Y015674D02*
X009808Y015674D01*
X009808Y015772D02*
X008617Y015772D01*
X008593Y015748D02*
X008718Y015873D01*
X008786Y016036D01*
X008786Y016214D01*
X008718Y016377D01*
X008593Y016502D01*
X008429Y016570D01*
X008252Y016570D01*
X008088Y016502D01*
X007963Y016377D01*
X007895Y016214D01*
X007895Y016036D01*
X007963Y015873D01*
X008088Y015748D01*
X008252Y015680D01*
X008429Y015680D01*
X008593Y015748D01*
X008716Y015871D02*
X009845Y015871D01*
X009938Y015969D02*
X008758Y015969D01*
X008786Y016068D02*
X014006Y016068D01*
X014104Y016166D02*
X008786Y016166D01*
X008765Y016265D02*
X014203Y016265D01*
X014301Y016363D02*
X008724Y016363D01*
X008634Y016462D02*
X026974Y016462D01*
X026927Y016560D02*
X008454Y016560D01*
X008429Y016680D02*
X008593Y016748D01*
X008718Y016873D01*
X008786Y017036D01*
X008786Y017214D01*
X008718Y017377D01*
X008593Y017502D01*
X008429Y017570D01*
X008252Y017570D01*
X008088Y017502D01*
X007963Y017377D01*
X007895Y017214D01*
X007895Y017036D01*
X007963Y016873D01*
X008088Y016748D01*
X008252Y016680D01*
X008429Y016680D01*
X008602Y016757D02*
X021008Y016757D01*
X021002Y016764D02*
X021082Y016683D01*
X021187Y016640D01*
X021300Y016640D01*
X021405Y016683D01*
X021443Y016722D01*
X021482Y016683D01*
X021587Y016640D01*
X021700Y016640D01*
X021805Y016683D01*
X021885Y016764D01*
X021928Y016868D01*
X021928Y016982D01*
X021885Y017086D01*
X021846Y017125D01*
X021885Y017164D01*
X021928Y017268D01*
X021928Y017382D01*
X021885Y017486D01*
X021846Y017525D01*
X021885Y017564D01*
X021928Y017668D01*
X021928Y017782D01*
X021885Y017886D01*
X021805Y017967D01*
X021700Y018010D01*
X021587Y018010D01*
X021482Y017967D01*
X021443Y017928D01*
X021405Y017967D01*
X021300Y018010D01*
X021187Y018010D01*
X021082Y017967D01*
X021002Y017886D01*
X020958Y017782D01*
X020958Y017668D01*
X021002Y017564D01*
X021040Y017525D01*
X021002Y017486D01*
X020958Y017382D01*
X020958Y017268D01*
X021002Y017164D01*
X021040Y017125D01*
X021002Y017086D01*
X020958Y016982D01*
X020958Y016868D01*
X021002Y016764D01*
X020964Y016856D02*
X008701Y016856D01*
X008752Y016954D02*
X020958Y016954D01*
X020988Y017053D02*
X008786Y017053D01*
X008786Y017151D02*
X009889Y017151D01*
X009902Y017138D02*
X010026Y017087D01*
X010161Y017087D01*
X010285Y017138D01*
X010380Y017233D01*
X010431Y017358D01*
X010431Y017492D01*
X010380Y017617D01*
X010285Y017712D01*
X010161Y017763D01*
X010026Y017763D01*
X009902Y017712D01*
X009807Y017617D01*
X009755Y017492D01*
X009755Y017358D01*
X009807Y017233D01*
X009902Y017138D01*
X009800Y017250D02*
X008771Y017250D01*
X008730Y017348D02*
X009759Y017348D01*
X009755Y017447D02*
X008649Y017447D01*
X008490Y017545D02*
X009777Y017545D01*
X009834Y017644D02*
X005693Y017644D01*
X005693Y017742D02*
X008102Y017742D01*
X008088Y017748D02*
X008252Y017680D01*
X008429Y017680D01*
X008593Y017748D01*
X008718Y017873D01*
X008786Y018036D01*
X008786Y018214D01*
X008718Y018377D01*
X008593Y018502D01*
X008429Y018570D01*
X008252Y018570D01*
X008088Y018502D01*
X007963Y018377D01*
X007895Y018214D01*
X007895Y018036D01*
X007963Y017873D01*
X008088Y017748D01*
X007995Y017841D02*
X005693Y017841D01*
X005693Y017939D02*
X007936Y017939D01*
X007895Y018038D02*
X005693Y018038D01*
X005693Y018136D02*
X007895Y018136D01*
X007904Y018235D02*
X005693Y018235D01*
X005693Y018333D02*
X007945Y018333D01*
X008017Y018432D02*
X005693Y018432D01*
X005693Y018530D02*
X008155Y018530D01*
X008252Y018680D02*
X008088Y018748D01*
X007963Y018873D01*
X007895Y019036D01*
X007895Y019214D01*
X007963Y019377D01*
X008088Y019502D01*
X008252Y019570D01*
X008429Y019570D01*
X008593Y019502D01*
X008718Y019377D01*
X008786Y019214D01*
X008786Y019036D01*
X008718Y018873D01*
X008593Y018748D01*
X008429Y018680D01*
X008252Y018680D01*
X008138Y018727D02*
X005693Y018727D01*
X005693Y018629D02*
X026899Y018629D01*
X026895Y018636D02*
X026963Y018473D01*
X027088Y018348D01*
X027252Y018280D01*
X027429Y018280D01*
X027593Y018348D01*
X027718Y018473D01*
X027786Y018636D01*
X027786Y018814D01*
X027718Y018977D01*
X027593Y019102D01*
X027429Y019170D01*
X027252Y019170D01*
X027088Y019102D01*
X026963Y018977D01*
X026895Y018814D01*
X026895Y018636D01*
X026895Y018727D02*
X008543Y018727D01*
X008671Y018826D02*
X026900Y018826D01*
X026941Y018924D02*
X008739Y018924D01*
X008780Y019023D02*
X027008Y019023D01*
X027133Y019121D02*
X008786Y019121D01*
X008783Y019220D02*
X027793Y019220D01*
X027793Y019318D02*
X027522Y019318D01*
X027593Y019348D02*
X027718Y019473D01*
X027786Y019636D01*
X027786Y019814D01*
X027718Y019977D01*
X027593Y020102D01*
X027429Y020170D01*
X027252Y020170D01*
X027088Y020102D01*
X026963Y019977D01*
X026895Y019814D01*
X026895Y019636D01*
X026963Y019473D01*
X027088Y019348D01*
X027252Y019280D01*
X027429Y019280D01*
X027593Y019348D01*
X027662Y019417D02*
X027793Y019417D01*
X027793Y019515D02*
X027736Y019515D01*
X027776Y019614D02*
X027793Y019614D01*
X027786Y019712D02*
X027793Y019712D01*
X027786Y019811D02*
X027793Y019811D01*
X027793Y019909D02*
X027746Y019909D01*
X027793Y020008D02*
X027688Y020008D01*
X027584Y020106D02*
X027793Y020106D01*
X027793Y020205D02*
X008786Y020205D01*
X008786Y020214D02*
X008718Y020377D01*
X008593Y020502D01*
X008429Y020570D01*
X008252Y020570D01*
X008088Y020502D01*
X007963Y020377D01*
X007895Y020214D01*
X007895Y020036D01*
X007963Y019873D01*
X008088Y019748D01*
X008252Y019680D01*
X008429Y019680D01*
X008593Y019748D01*
X008718Y019873D01*
X008786Y020036D01*
X008786Y020214D01*
X008749Y020303D02*
X027793Y020303D01*
X027793Y020402D02*
X008694Y020402D01*
X008595Y020500D02*
X027793Y020500D01*
X027793Y020599D02*
X005693Y020599D01*
X005693Y020697D02*
X008210Y020697D01*
X008252Y020680D02*
X008088Y020748D01*
X007963Y020873D01*
X007895Y021036D01*
X007895Y021214D01*
X007963Y021377D01*
X008088Y021502D01*
X008252Y021570D01*
X008429Y021570D01*
X008593Y021502D01*
X008718Y021377D01*
X008786Y021214D01*
X008786Y021036D01*
X008718Y020873D01*
X008593Y020748D01*
X008429Y020680D01*
X008252Y020680D01*
X008471Y020697D02*
X027793Y020697D01*
X027793Y020796D02*
X008641Y020796D01*
X008727Y020894D02*
X027793Y020894D01*
X027793Y020993D02*
X008768Y020993D01*
X008786Y021091D02*
X027793Y021091D01*
X027793Y021190D02*
X008786Y021190D01*
X008755Y021288D02*
X027232Y021288D01*
X027252Y021280D02*
X027429Y021280D01*
X027593Y021348D01*
X027718Y021473D01*
X027786Y021636D01*
X027786Y021814D01*
X027718Y021977D01*
X027593Y022102D01*
X027429Y022170D01*
X027252Y022170D01*
X027088Y022102D01*
X026963Y021977D01*
X026895Y021814D01*
X026895Y021636D01*
X026963Y021473D01*
X027088Y021348D01*
X027252Y021280D01*
X027449Y021288D02*
X027793Y021288D01*
X027793Y021387D02*
X027632Y021387D01*
X027723Y021485D02*
X027793Y021485D01*
X027793Y021584D02*
X027764Y021584D01*
X027786Y021682D02*
X027793Y021682D01*
X027786Y021781D02*
X027793Y021781D01*
X027793Y021879D02*
X027759Y021879D01*
X027793Y021978D02*
X027718Y021978D01*
X027793Y022076D02*
X027619Y022076D01*
X027793Y022175D02*
X027051Y022175D01*
X027051Y022154D02*
X026997Y022022D01*
X026896Y021922D01*
X026764Y021867D01*
X026622Y021867D01*
X026491Y021922D01*
X026390Y022022D01*
X026336Y022154D01*
X026336Y022296D01*
X026390Y022428D01*
X026491Y022528D01*
X026622Y022583D01*
X026764Y022583D01*
X026896Y022528D01*
X026997Y022428D01*
X027051Y022296D01*
X027051Y022154D01*
X027062Y022076D02*
X027019Y022076D01*
X026963Y021978D02*
X026952Y021978D01*
X026922Y021879D02*
X026793Y021879D01*
X026895Y021781D02*
X008626Y021781D01*
X008593Y021748D02*
X008718Y021873D01*
X008786Y022036D01*
X008786Y022214D01*
X008718Y022377D01*
X008593Y022502D01*
X008429Y022570D01*
X008252Y022570D01*
X008088Y022502D01*
X007963Y022377D01*
X007895Y022214D01*
X007895Y022036D01*
X007963Y021873D01*
X008088Y021748D01*
X008252Y021680D01*
X008429Y021680D01*
X008593Y021748D01*
X008435Y021682D02*
X026895Y021682D01*
X026917Y021584D02*
X005693Y021584D01*
X005693Y021682D02*
X008246Y021682D01*
X008055Y021781D02*
X005693Y021781D01*
X005693Y021879D02*
X007960Y021879D01*
X007920Y021978D02*
X005693Y021978D01*
X005693Y022076D02*
X007895Y022076D01*
X007895Y022175D02*
X005693Y022175D01*
X005693Y022273D02*
X007920Y022273D01*
X007961Y022372D02*
X005693Y022372D01*
X005693Y022470D02*
X008056Y022470D01*
X008248Y022569D02*
X005693Y022569D01*
X005693Y022667D02*
X024850Y022667D01*
X024749Y022766D02*
X005693Y022766D01*
X005693Y022864D02*
X024648Y022864D01*
X024547Y022963D02*
X005693Y022963D01*
X005693Y023061D02*
X024446Y023061D01*
X024345Y023160D02*
X005693Y023160D01*
X005693Y023258D02*
X024244Y023258D01*
X024143Y023357D02*
X008602Y023357D01*
X008593Y023348D02*
X008718Y023473D01*
X008786Y023636D01*
X008786Y023814D01*
X008718Y023977D01*
X008593Y024102D01*
X008429Y024170D01*
X008252Y024170D01*
X008088Y024102D01*
X007963Y023977D01*
X007895Y023814D01*
X007895Y023636D01*
X007963Y023473D01*
X008088Y023348D01*
X008252Y023280D01*
X008429Y023280D01*
X008593Y023348D01*
X008700Y023455D02*
X024042Y023455D01*
X023941Y023554D02*
X008751Y023554D01*
X008786Y023652D02*
X023840Y023652D01*
X023739Y023751D02*
X008786Y023751D01*
X008771Y023849D02*
X023638Y023849D01*
X023537Y023948D02*
X008730Y023948D01*
X008649Y024046D02*
X023436Y024046D01*
X023335Y024145D02*
X008491Y024145D01*
X008429Y024280D02*
X008593Y024348D01*
X008718Y024473D01*
X008786Y024636D01*
X008786Y024814D01*
X008718Y024977D01*
X008593Y025102D01*
X008429Y025170D01*
X008252Y025170D01*
X008088Y025102D01*
X007963Y024977D01*
X007895Y024814D01*
X007895Y024636D01*
X007963Y024473D01*
X008088Y024348D01*
X008252Y024280D01*
X008429Y024280D01*
X008578Y024342D02*
X023133Y024342D01*
X023032Y024440D02*
X008685Y024440D01*
X008745Y024539D02*
X022931Y024539D01*
X022830Y024637D02*
X008786Y024637D01*
X008786Y024736D02*
X022729Y024736D01*
X022628Y024834D02*
X008777Y024834D01*
X008737Y024933D02*
X022527Y024933D01*
X022426Y025031D02*
X008664Y025031D01*
X008527Y025130D02*
X022325Y025130D01*
X022224Y025228D02*
X005693Y025228D01*
X005693Y025130D02*
X008154Y025130D01*
X008017Y025031D02*
X005693Y025031D01*
X005693Y024933D02*
X007945Y024933D01*
X007904Y024834D02*
X005693Y024834D01*
X005693Y024736D02*
X007895Y024736D01*
X007895Y024637D02*
X005693Y024637D01*
X005693Y024539D02*
X007936Y024539D01*
X007996Y024440D02*
X005693Y024440D01*
X005693Y024342D02*
X008103Y024342D01*
X008190Y024145D02*
X005693Y024145D01*
X005693Y024243D02*
X023234Y024243D01*
X023336Y024440D02*
X033612Y024440D01*
X033608Y024432D02*
X033608Y024318D01*
X033652Y024214D01*
X033683Y024182D01*
X033683Y021618D01*
X033652Y021586D01*
X033608Y021482D01*
X033608Y021368D01*
X033652Y021264D01*
X033732Y021183D01*
X033837Y021140D01*
X033950Y021140D01*
X034055Y021183D01*
X034135Y021264D01*
X034178Y021368D01*
X034178Y021482D01*
X034135Y021586D01*
X034103Y021618D01*
X034103Y024182D01*
X034135Y024214D01*
X034178Y024318D01*
X034178Y024432D01*
X034135Y024536D01*
X034055Y024617D01*
X033950Y024660D01*
X033837Y024660D01*
X033732Y024617D01*
X033652Y024536D01*
X033608Y024432D01*
X033608Y024342D02*
X027910Y024342D01*
X027943Y024308D02*
X027826Y024425D01*
X027793Y024425D01*
X026293Y024425D01*
X026293Y022825D01*
X025560Y022825D01*
X025609Y022942D01*
X025609Y023108D01*
X025546Y023261D01*
X025429Y023377D01*
X025276Y023441D01*
X025111Y023441D01*
X024958Y023377D01*
X024841Y023261D01*
X024778Y023108D01*
X024778Y023035D01*
X021093Y026625D01*
X021093Y029225D01*
X020193Y029225D01*
X020193Y032525D01*
X015293Y032525D01*
X015293Y030625D01*
X011497Y030625D01*
X011518Y030634D01*
X011715Y030830D01*
X011821Y031086D01*
X011821Y031364D01*
X011715Y031620D01*
X011518Y031816D01*
X011262Y031922D01*
X010985Y031922D01*
X010728Y031816D01*
X010532Y031620D01*
X010426Y031364D01*
X010426Y031086D01*
X010532Y030830D01*
X010728Y030634D01*
X010749Y030625D01*
X009647Y030625D01*
X009668Y030634D01*
X009865Y030830D01*
X009971Y031086D01*
X009971Y031364D01*
X009865Y031620D01*
X009668Y031816D01*
X009412Y031922D01*
X009135Y031922D01*
X008878Y031816D01*
X008682Y031620D01*
X008601Y031425D01*
X008095Y031425D01*
X008015Y031620D01*
X007818Y031816D01*
X007562Y031922D01*
X007285Y031922D01*
X007028Y031816D01*
X006832Y031620D01*
X006751Y031425D01*
X005993Y031425D01*
X005993Y036442D01*
X006276Y036725D01*
X007787Y036725D01*
X007682Y036620D01*
X007576Y036364D01*
X007576Y036086D01*
X007682Y035830D01*
X007878Y035634D01*
X008135Y035528D01*
X008412Y035528D01*
X008668Y035634D01*
X008865Y035830D01*
X008971Y036086D01*
X008971Y036364D01*
X008865Y036620D01*
X008760Y036725D01*
X009787Y036725D01*
X009682Y036620D01*
X009576Y036364D01*
X009576Y036086D01*
X009682Y035830D01*
X009878Y035634D01*
X010135Y035528D01*
X010412Y035528D01*
X010668Y035634D01*
X010865Y035830D01*
X010971Y036086D01*
X010971Y036364D01*
X010865Y036620D01*
X010760Y036725D01*
X013693Y036725D01*
X014043Y036375D01*
X014043Y036266D01*
X014008Y036182D01*
X014008Y036068D01*
X014043Y035984D01*
X014043Y035925D01*
X014090Y035925D01*
X014132Y035883D01*
X014237Y035840D01*
X014350Y035840D01*
X014455Y035883D01*
X014496Y035925D01*
X016143Y035925D01*
X016143Y036975D01*
X017826Y036975D01*
X017808Y036932D01*
X017808Y036818D01*
X017852Y036714D01*
X017932Y036633D01*
X018037Y036590D01*
X018150Y036590D01*
X018255Y036633D01*
X018335Y036714D01*
X018378Y036818D01*
X018378Y036932D01*
X018360Y036975D01*
X028826Y036975D01*
X028808Y036932D01*
X028808Y036818D01*
X028852Y036714D01*
X028932Y036633D01*
X029037Y036590D01*
X029150Y036590D01*
X029255Y036633D01*
X029335Y036714D01*
X029360Y036775D01*
X029810Y036325D01*
X053910Y036325D01*
X054293Y035942D01*
X054293Y006308D01*
X053910Y005925D01*
X022638Y005925D01*
X024243Y007575D01*
X024243Y008771D01*
X024298Y008794D01*
X024425Y008920D01*
X024493Y009085D01*
X024493Y009265D01*
X024425Y009430D01*
X024298Y009556D01*
X024133Y009625D01*
X023954Y009625D01*
X023788Y009556D01*
X023662Y009430D01*
X023639Y009375D01*
X023448Y009375D01*
X023425Y009430D01*
X023298Y009556D01*
X023133Y009625D01*
X022954Y009625D01*
X022788Y009556D01*
X022662Y009430D01*
X022593Y009265D01*
X022593Y009085D01*
X022662Y008920D01*
X022788Y008794D01*
X022843Y008771D01*
X022843Y006825D01*
X022243Y006225D01*
X020393Y006225D01*
X019593Y007025D01*
X013693Y007025D01*
X013693Y015413D01*
X014455Y016175D01*
X016408Y016175D01*
X016357Y016052D01*
X016357Y015898D01*
X016416Y015756D01*
X016525Y015648D01*
X016666Y015589D01*
X016820Y015589D01*
X016962Y015648D01*
X016980Y015665D01*
X028005Y015665D01*
X028119Y015712D01*
X028369Y015962D01*
X028456Y016049D01*
X028503Y016163D01*
X028503Y018247D01*
X028795Y018539D01*
X028820Y018539D01*
X028962Y018598D01*
X029071Y018706D01*
X029130Y018848D01*
X029130Y019002D01*
X029071Y019144D01*
X028962Y019252D01*
X028820Y019311D01*
X028666Y019311D01*
X028525Y019252D01*
X028416Y019144D01*
X028357Y019002D01*
X028357Y018977D01*
X027993Y018613D01*
X027993Y024225D01*
X027993Y024258D01*
X027943Y024308D01*
X027993Y024243D02*
X030358Y024243D01*
X030382Y024267D02*
X030302Y024186D01*
X030258Y024082D01*
X030258Y023968D01*
X030302Y023864D01*
X030382Y023783D01*
X030487Y023740D01*
X030600Y023740D01*
X030705Y023783D01*
X030785Y023864D01*
X030828Y023968D01*
X030828Y024082D01*
X030785Y024186D01*
X030705Y024267D01*
X030600Y024310D01*
X030487Y024310D01*
X030382Y024267D01*
X030284Y024145D02*
X027993Y024145D01*
X027993Y024225D02*
X027993Y024225D01*
X027993Y024046D02*
X030258Y024046D01*
X030267Y023948D02*
X027993Y023948D01*
X027993Y023849D02*
X029910Y023849D01*
X029937Y023860D02*
X029832Y023817D01*
X029752Y023736D01*
X029708Y023632D01*
X029708Y023518D01*
X029752Y023414D01*
X029832Y023333D01*
X029937Y023290D01*
X030050Y023290D01*
X030155Y023333D01*
X030235Y023414D01*
X030278Y023518D01*
X030278Y023632D01*
X030235Y023736D01*
X030155Y023817D01*
X030050Y023860D01*
X029937Y023860D01*
X030076Y023849D02*
X030316Y023849D01*
X030221Y023751D02*
X030461Y023751D01*
X030625Y023751D02*
X031066Y023751D01*
X031058Y023768D02*
X031102Y023664D01*
X031182Y023583D01*
X031287Y023540D01*
X031400Y023540D01*
X031505Y023583D01*
X031585Y023664D01*
X031628Y023768D01*
X031628Y023882D01*
X031585Y023986D01*
X031505Y024067D01*
X031400Y024110D01*
X031287Y024110D01*
X031182Y024067D01*
X031102Y023986D01*
X031058Y023882D01*
X031058Y023768D01*
X031058Y023849D02*
X030770Y023849D01*
X030820Y023948D02*
X031086Y023948D01*
X031161Y024046D02*
X030828Y024046D01*
X030802Y024145D02*
X033683Y024145D01*
X033683Y024046D02*
X031525Y024046D01*
X031601Y023948D02*
X033683Y023948D01*
X033683Y023849D02*
X031628Y023849D01*
X031621Y023751D02*
X033683Y023751D01*
X033683Y023652D02*
X031573Y023652D01*
X031433Y023554D02*
X033683Y023554D01*
X033683Y023455D02*
X030252Y023455D01*
X030278Y023554D02*
X031254Y023554D01*
X031113Y023652D02*
X030270Y023652D01*
X030178Y023357D02*
X033683Y023357D01*
X033683Y023258D02*
X027993Y023258D01*
X027993Y023160D02*
X033683Y023160D01*
X033683Y023061D02*
X027993Y023061D01*
X027993Y022963D02*
X033683Y022963D01*
X033683Y022864D02*
X027993Y022864D01*
X027993Y022766D02*
X033683Y022766D01*
X033683Y022667D02*
X027993Y022667D01*
X027993Y022569D02*
X033683Y022569D01*
X033683Y022470D02*
X027993Y022470D01*
X027993Y022372D02*
X033683Y022372D01*
X033683Y022273D02*
X027993Y022273D01*
X027993Y022175D02*
X033683Y022175D01*
X033683Y022076D02*
X027993Y022076D01*
X027993Y021978D02*
X033683Y021978D01*
X033683Y021879D02*
X027993Y021879D01*
X027993Y021781D02*
X033683Y021781D01*
X033683Y021682D02*
X031839Y021682D01*
X031805Y021717D02*
X031885Y021636D01*
X031928Y021532D01*
X031928Y021418D01*
X031885Y021314D01*
X031805Y021233D01*
X031700Y021190D01*
X031587Y021190D01*
X031482Y021233D01*
X031402Y021314D01*
X031358Y021418D01*
X031358Y021532D01*
X031402Y021636D01*
X031482Y021717D01*
X031587Y021760D01*
X031700Y021760D01*
X031805Y021717D01*
X031907Y021584D02*
X033650Y021584D01*
X033610Y021485D02*
X031928Y021485D01*
X031915Y021387D02*
X033608Y021387D01*
X033642Y021288D02*
X031859Y021288D01*
X031427Y021288D02*
X027993Y021288D01*
X027993Y021190D02*
X033726Y021190D01*
X034061Y021190D02*
X040562Y021190D01*
X040558Y021182D02*
X040558Y021068D01*
X040602Y020964D01*
X040682Y020883D01*
X040787Y020840D01*
X040900Y020840D01*
X041005Y020883D01*
X041085Y020964D01*
X041128Y021068D01*
X041128Y021182D01*
X041085Y021286D01*
X041005Y021367D01*
X040900Y021410D01*
X040787Y021410D01*
X040682Y021367D01*
X040602Y021286D01*
X040558Y021182D01*
X040558Y021091D02*
X031346Y021091D01*
X031300Y021110D02*
X031187Y021110D01*
X031082Y021067D01*
X031002Y020986D01*
X030958Y020882D01*
X030958Y020768D01*
X031002Y020664D01*
X031082Y020583D01*
X031187Y020540D01*
X031300Y020540D01*
X031405Y020583D01*
X031485Y020664D01*
X031528Y020768D01*
X031528Y020882D01*
X031485Y020986D01*
X031405Y021067D01*
X031300Y021110D01*
X031141Y021091D02*
X027993Y021091D01*
X027993Y020993D02*
X031008Y020993D01*
X030963Y020894D02*
X027993Y020894D01*
X027993Y020796D02*
X030958Y020796D01*
X030988Y020697D02*
X027993Y020697D01*
X027993Y020599D02*
X031067Y020599D01*
X031420Y020599D02*
X037887Y020599D01*
X037902Y020564D02*
X037982Y020483D01*
X038087Y020440D01*
X038200Y020440D01*
X038305Y020483D01*
X038385Y020564D01*
X038428Y020668D01*
X038428Y020782D01*
X038385Y020886D01*
X038305Y020967D01*
X038200Y021010D01*
X038087Y021010D01*
X037982Y020967D01*
X037902Y020886D01*
X037858Y020782D01*
X037858Y020668D01*
X037902Y020564D01*
X037965Y020500D02*
X027993Y020500D01*
X027993Y020402D02*
X033067Y020402D01*
X033082Y020417D02*
X033002Y020336D01*
X032958Y020232D01*
X032958Y020118D01*
X033002Y020014D01*
X033082Y019933D01*
X033187Y019890D01*
X033300Y019890D01*
X033405Y019933D01*
X033485Y020014D01*
X033528Y020118D01*
X033528Y020232D01*
X033485Y020336D01*
X033405Y020417D01*
X033300Y020460D01*
X033187Y020460D01*
X033082Y020417D01*
X032988Y020303D02*
X027993Y020303D01*
X027993Y020205D02*
X032958Y020205D01*
X032963Y020106D02*
X027993Y020106D01*
X027993Y020008D02*
X033008Y020008D01*
X033141Y019909D02*
X027993Y019909D01*
X027993Y019811D02*
X054293Y019811D01*
X054293Y019909D02*
X033346Y019909D01*
X033479Y020008D02*
X054293Y020008D01*
X054293Y020106D02*
X041989Y020106D01*
X041950Y020090D02*
X042055Y020133D01*
X042135Y020214D01*
X042178Y020318D01*
X042178Y020432D01*
X042135Y020536D01*
X042055Y020617D01*
X041950Y020660D01*
X041837Y020660D01*
X041732Y020617D01*
X041652Y020536D01*
X041608Y020432D01*
X041608Y020318D01*
X041652Y020214D01*
X041732Y020133D01*
X041837Y020090D01*
X041950Y020090D01*
X041798Y020106D02*
X033523Y020106D01*
X033528Y020205D02*
X041661Y020205D01*
X041615Y020303D02*
X033499Y020303D01*
X033420Y020402D02*
X041608Y020402D01*
X041637Y020500D02*
X038321Y020500D01*
X038399Y020599D02*
X041714Y020599D01*
X042073Y020599D02*
X054293Y020599D01*
X054293Y020697D02*
X038428Y020697D01*
X038423Y020796D02*
X042973Y020796D01*
X042987Y020790D02*
X043100Y020790D01*
X043205Y020833D01*
X043285Y020914D01*
X043328Y021018D01*
X043328Y021132D01*
X043285Y021236D01*
X043208Y021314D01*
X043255Y021333D01*
X043318Y021397D01*
X043382Y021333D01*
X043487Y021290D01*
X043600Y021290D01*
X043705Y021333D01*
X043785Y021414D01*
X043828Y021518D01*
X043828Y021632D01*
X043785Y021736D01*
X043705Y021817D01*
X043600Y021860D01*
X043487Y021860D01*
X043382Y021817D01*
X043318Y021753D01*
X043255Y021817D01*
X043150Y021860D01*
X043037Y021860D01*
X042932Y021817D01*
X042852Y021736D01*
X042808Y021632D01*
X042808Y021518D01*
X042852Y021414D01*
X042929Y021336D01*
X042882Y021317D01*
X042802Y021236D01*
X042758Y021132D01*
X042758Y021018D01*
X042802Y020914D01*
X042882Y020833D01*
X042987Y020790D01*
X043113Y020796D02*
X054293Y020796D01*
X054293Y020894D02*
X043265Y020894D01*
X043318Y020993D02*
X054293Y020993D01*
X054293Y021091D02*
X043328Y021091D01*
X043304Y021190D02*
X054293Y021190D01*
X054293Y021288D02*
X043233Y021288D01*
X043308Y021387D02*
X043329Y021387D01*
X043346Y021781D02*
X043291Y021781D01*
X042896Y021781D02*
X042863Y021781D01*
X042878Y021818D02*
X042835Y021714D01*
X042755Y021633D01*
X042650Y021590D01*
X042537Y021590D01*
X042432Y021633D01*
X042352Y021714D01*
X042308Y021818D01*
X042308Y021932D01*
X042352Y022036D01*
X042432Y022117D01*
X042537Y022160D01*
X042650Y022160D01*
X042755Y022117D01*
X042835Y022036D01*
X042878Y021932D01*
X042878Y021818D01*
X042878Y021879D02*
X054293Y021879D01*
X054293Y021781D02*
X043741Y021781D01*
X043807Y021682D02*
X054293Y021682D01*
X054293Y021584D02*
X043828Y021584D01*
X043815Y021485D02*
X054293Y021485D01*
X054293Y021387D02*
X043758Y021387D01*
X042879Y021387D02*
X040957Y021387D01*
X041083Y021288D02*
X042853Y021288D01*
X042782Y021190D02*
X041125Y021190D01*
X041128Y021091D02*
X042758Y021091D01*
X042769Y020993D02*
X041097Y020993D01*
X041015Y020894D02*
X042821Y020894D01*
X042822Y021485D02*
X038028Y021485D01*
X038028Y021468D02*
X037985Y021364D01*
X037905Y021283D01*
X037800Y021240D01*
X037687Y021240D01*
X037582Y021283D01*
X037502Y021364D01*
X037458Y021468D01*
X037458Y021582D01*
X037502Y021686D01*
X037582Y021767D01*
X037687Y021810D01*
X037800Y021810D01*
X037905Y021767D01*
X037985Y021686D01*
X038028Y021582D01*
X038028Y021468D01*
X037994Y021387D02*
X040730Y021387D01*
X040603Y021288D02*
X037909Y021288D01*
X038028Y021584D02*
X042808Y021584D01*
X042803Y021682D02*
X042829Y021682D01*
X042859Y021978D02*
X054293Y021978D01*
X054293Y022076D02*
X042795Y022076D01*
X043052Y022275D02*
X044735Y022275D01*
X044793Y022334D01*
X044793Y023516D01*
X044735Y023575D01*
X043135Y023575D01*
X043052Y023575D01*
X042993Y023516D01*
X042993Y022334D01*
X043052Y022275D01*
X042993Y022372D02*
X034103Y022372D01*
X034103Y022470D02*
X042993Y022470D01*
X042993Y022569D02*
X037119Y022569D01*
X037155Y022583D02*
X037235Y022664D01*
X037278Y022768D01*
X037278Y022882D01*
X037235Y022986D01*
X037155Y023067D01*
X037050Y023110D01*
X036937Y023110D01*
X036832Y023067D01*
X036752Y022986D01*
X036708Y022882D01*
X036708Y022768D01*
X036752Y022664D01*
X036832Y022583D01*
X036937Y022540D01*
X037050Y022540D01*
X037155Y022583D01*
X037236Y022667D02*
X042993Y022667D01*
X042993Y022766D02*
X037277Y022766D01*
X037278Y022864D02*
X042993Y022864D01*
X042993Y022963D02*
X037245Y022963D01*
X037160Y023061D02*
X040736Y023061D01*
X040787Y023040D02*
X040900Y023040D01*
X041005Y023083D01*
X041085Y023164D01*
X041128Y023268D01*
X041128Y023382D01*
X041085Y023486D01*
X041005Y023567D01*
X040900Y023610D01*
X040787Y023610D01*
X040682Y023567D01*
X040602Y023486D01*
X040558Y023382D01*
X040558Y023268D01*
X040602Y023164D01*
X040682Y023083D01*
X040787Y023040D01*
X040951Y023061D02*
X042993Y023061D01*
X042993Y023160D02*
X041081Y023160D01*
X041124Y023258D02*
X042993Y023258D01*
X042993Y023357D02*
X042390Y023357D01*
X042350Y023340D02*
X042455Y023383D01*
X042535Y023464D01*
X042578Y023568D01*
X042578Y023682D01*
X042535Y023786D01*
X042455Y023867D01*
X042350Y023910D01*
X042237Y023910D01*
X042132Y023867D01*
X042052Y023786D01*
X042008Y023682D01*
X042008Y023568D01*
X042052Y023464D01*
X042132Y023383D01*
X042237Y023340D01*
X042350Y023340D01*
X042197Y023357D02*
X041128Y023357D01*
X041098Y023455D02*
X042060Y023455D01*
X042014Y023554D02*
X041018Y023554D01*
X040669Y023554D02*
X038399Y023554D01*
X038385Y023586D02*
X038305Y023667D01*
X038200Y023710D01*
X038087Y023710D01*
X037982Y023667D01*
X037902Y023586D01*
X037858Y023482D01*
X037858Y023368D01*
X037902Y023264D01*
X037982Y023183D01*
X038087Y023140D01*
X038200Y023140D01*
X038305Y023183D01*
X038385Y023264D01*
X038428Y023368D01*
X038428Y023482D01*
X038385Y023586D01*
X038319Y023652D02*
X042008Y023652D01*
X042037Y023751D02*
X036575Y023751D01*
X036550Y023740D02*
X036655Y023783D01*
X036735Y023864D01*
X036778Y023968D01*
X036778Y024082D01*
X036735Y024186D01*
X036655Y024267D01*
X036550Y024310D01*
X036437Y024310D01*
X036332Y024267D01*
X036252Y024186D01*
X036208Y024082D01*
X036208Y023968D01*
X036252Y023864D01*
X036332Y023783D01*
X036437Y023740D01*
X036550Y023740D01*
X036411Y023751D02*
X035971Y023751D01*
X035978Y023768D02*
X035935Y023664D01*
X035855Y023583D01*
X035750Y023540D01*
X035637Y023540D01*
X035532Y023583D01*
X035452Y023664D01*
X035408Y023768D01*
X035408Y023882D01*
X035452Y023986D01*
X035532Y024067D01*
X035637Y024110D01*
X035750Y024110D01*
X035855Y024067D01*
X035935Y023986D01*
X035978Y023882D01*
X035978Y023768D01*
X035978Y023849D02*
X036266Y023849D01*
X036217Y023948D02*
X035951Y023948D01*
X035875Y024046D02*
X036208Y024046D01*
X036234Y024145D02*
X034103Y024145D01*
X034103Y024046D02*
X035511Y024046D01*
X035436Y023948D02*
X034103Y023948D01*
X034103Y023849D02*
X035408Y023849D01*
X035416Y023751D02*
X034103Y023751D01*
X034103Y023652D02*
X035463Y023652D01*
X035604Y023554D02*
X034103Y023554D01*
X034103Y023455D02*
X036425Y023455D01*
X036437Y023460D02*
X036332Y023417D01*
X036252Y023336D01*
X036208Y023232D01*
X036208Y023118D01*
X036252Y023014D01*
X036332Y022933D01*
X036437Y022890D01*
X036550Y022890D01*
X036655Y022933D01*
X036735Y023014D01*
X036778Y023118D01*
X036778Y023232D01*
X036735Y023336D01*
X036655Y023417D01*
X036550Y023460D01*
X036437Y023460D01*
X036562Y023455D02*
X037858Y023455D01*
X037863Y023357D02*
X036715Y023357D01*
X036767Y023258D02*
X037907Y023258D01*
X038039Y023160D02*
X036778Y023160D01*
X036755Y023061D02*
X036826Y023061D01*
X036742Y022963D02*
X036684Y022963D01*
X036708Y022864D02*
X034103Y022864D01*
X034103Y022766D02*
X036709Y022766D01*
X036750Y022667D02*
X034103Y022667D01*
X034103Y022569D02*
X036868Y022569D01*
X036987Y022010D02*
X036882Y021967D01*
X036802Y021886D01*
X036758Y021782D01*
X036758Y021668D01*
X036802Y021564D01*
X036882Y021483D01*
X036987Y021440D01*
X037100Y021440D01*
X037205Y021483D01*
X037285Y021564D01*
X037328Y021668D01*
X037328Y021782D01*
X037285Y021886D01*
X037205Y021967D01*
X037100Y022010D01*
X036987Y022010D01*
X036908Y021978D02*
X034103Y021978D01*
X034103Y022076D02*
X042391Y022076D01*
X042327Y021978D02*
X037178Y021978D01*
X037288Y021879D02*
X042308Y021879D01*
X042324Y021781D02*
X037871Y021781D01*
X037987Y021682D02*
X042383Y021682D01*
X042150Y020500D02*
X054293Y020500D01*
X054293Y020402D02*
X042178Y020402D01*
X042172Y020303D02*
X054293Y020303D01*
X054293Y020205D02*
X042126Y020205D01*
X040671Y020894D02*
X038377Y020894D01*
X038242Y020993D02*
X040590Y020993D01*
X038044Y020993D02*
X031479Y020993D01*
X031523Y020894D02*
X037909Y020894D01*
X037864Y020796D02*
X031528Y020796D01*
X031499Y020697D02*
X037858Y020697D01*
X037577Y021288D02*
X034145Y021288D01*
X034178Y021387D02*
X037492Y021387D01*
X037458Y021485D02*
X037206Y021485D01*
X037293Y021584D02*
X037459Y021584D01*
X037500Y021682D02*
X037328Y021682D01*
X037328Y021781D02*
X037615Y021781D01*
X036880Y021485D02*
X034177Y021485D01*
X034136Y021584D02*
X036793Y021584D01*
X036758Y021682D02*
X034103Y021682D01*
X034103Y021781D02*
X036758Y021781D01*
X036799Y021879D02*
X034103Y021879D01*
X034103Y022175D02*
X054293Y022175D01*
X054293Y022273D02*
X034103Y022273D01*
X034103Y022963D02*
X036303Y022963D01*
X036232Y023061D02*
X034103Y023061D01*
X034103Y023160D02*
X036208Y023160D01*
X036219Y023258D02*
X034103Y023258D01*
X034103Y023357D02*
X036272Y023357D01*
X035923Y023652D02*
X037967Y023652D01*
X037888Y023554D02*
X035783Y023554D01*
X036308Y024243D02*
X034147Y024243D01*
X034178Y024342D02*
X054293Y024342D01*
X054293Y024440D02*
X034175Y024440D01*
X034133Y024539D02*
X046027Y024539D01*
X046032Y024533D02*
X046137Y024490D01*
X046250Y024490D01*
X046355Y024533D01*
X046435Y024614D01*
X046478Y024718D01*
X046478Y024832D01*
X046435Y024936D01*
X046355Y025017D01*
X046250Y025060D01*
X046137Y025060D01*
X046032Y025017D01*
X045952Y024936D01*
X045908Y024832D01*
X045908Y024718D01*
X045952Y024614D01*
X046032Y024533D01*
X045942Y024637D02*
X034005Y024637D01*
X033781Y024637D02*
X023134Y024637D01*
X023235Y024539D02*
X033654Y024539D01*
X033639Y024243D02*
X030728Y024243D01*
X029766Y023751D02*
X027993Y023751D01*
X027993Y023652D02*
X029717Y023652D01*
X029708Y023554D02*
X027993Y023554D01*
X027993Y023455D02*
X029735Y023455D01*
X029809Y023357D02*
X027993Y023357D01*
X027793Y023357D02*
X027602Y023357D01*
X027593Y023348D02*
X027718Y023473D01*
X027786Y023636D01*
X027786Y023814D01*
X027718Y023977D01*
X027593Y024102D01*
X027429Y024170D01*
X027252Y024170D01*
X027088Y024102D01*
X026963Y023977D01*
X026895Y023814D01*
X026895Y023636D01*
X026963Y023473D01*
X027088Y023348D01*
X027252Y023280D01*
X027429Y023280D01*
X027593Y023348D01*
X027700Y023455D02*
X027793Y023455D01*
X027793Y023554D02*
X027751Y023554D01*
X027786Y023652D02*
X027793Y023652D01*
X027786Y023751D02*
X027793Y023751D01*
X027793Y023849D02*
X027771Y023849D01*
X027793Y023948D02*
X027730Y023948D01*
X027793Y024046D02*
X027649Y024046D01*
X027793Y024145D02*
X027491Y024145D01*
X027190Y024145D02*
X026493Y024145D01*
X026493Y024046D02*
X027032Y024046D01*
X026951Y023948D02*
X026493Y023948D01*
X026493Y023849D02*
X026910Y023849D01*
X026895Y023751D02*
X026493Y023751D01*
X026493Y023652D02*
X026895Y023652D01*
X026930Y023554D02*
X026493Y023554D01*
X026493Y023455D02*
X026981Y023455D01*
X027079Y023357D02*
X026493Y023357D01*
X026493Y023258D02*
X027793Y023258D01*
X027793Y023160D02*
X027455Y023160D01*
X027429Y023170D02*
X027593Y023102D01*
X027718Y022977D01*
X027786Y022814D01*
X027786Y022636D01*
X027718Y022473D01*
X027593Y022348D01*
X027429Y022280D01*
X027252Y022280D01*
X027088Y022348D01*
X026963Y022473D01*
X026895Y022636D01*
X026895Y022814D01*
X026963Y022977D01*
X027088Y023102D01*
X027252Y023170D01*
X027429Y023170D01*
X027226Y023160D02*
X026493Y023160D01*
X026493Y023061D02*
X027047Y023061D01*
X026957Y022963D02*
X026493Y022963D01*
X026493Y022864D02*
X026916Y022864D01*
X026895Y022766D02*
X026493Y022766D01*
X026493Y022667D02*
X026895Y022667D01*
X026923Y022569D02*
X026799Y022569D01*
X026954Y022470D02*
X026966Y022470D01*
X027020Y022372D02*
X027064Y022372D01*
X027051Y022273D02*
X027793Y022273D01*
X027793Y022372D02*
X027617Y022372D01*
X027715Y022470D02*
X027793Y022470D01*
X027793Y022569D02*
X027758Y022569D01*
X027786Y022667D02*
X027793Y022667D01*
X027786Y022766D02*
X027793Y022766D01*
X027793Y022864D02*
X027765Y022864D01*
X027793Y022963D02*
X027724Y022963D01*
X027793Y023061D02*
X027634Y023061D01*
X026588Y022569D02*
X008433Y022569D01*
X008625Y022470D02*
X026432Y022470D01*
X026367Y022372D02*
X008720Y022372D01*
X008761Y022273D02*
X026336Y022273D01*
X026336Y022175D02*
X008786Y022175D01*
X008786Y022076D02*
X026368Y022076D01*
X026435Y021978D02*
X008761Y021978D01*
X008721Y021879D02*
X026594Y021879D01*
X026958Y021485D02*
X008610Y021485D01*
X008709Y021387D02*
X027049Y021387D01*
X027993Y021387D02*
X031371Y021387D01*
X031358Y021485D02*
X027993Y021485D01*
X027993Y021584D02*
X031380Y021584D01*
X031447Y021682D02*
X027993Y021682D01*
X027097Y020106D02*
X008786Y020106D01*
X008774Y020008D02*
X026993Y020008D01*
X026935Y019909D02*
X008733Y019909D01*
X008656Y019811D02*
X026895Y019811D01*
X026895Y019712D02*
X008507Y019712D01*
X008562Y019515D02*
X026946Y019515D01*
X026905Y019614D02*
X005693Y019614D01*
X005693Y019712D02*
X008174Y019712D01*
X008025Y019811D02*
X005693Y019811D01*
X005693Y019909D02*
X007948Y019909D01*
X007907Y020008D02*
X005693Y020008D01*
X005693Y020106D02*
X007895Y020106D01*
X007895Y020205D02*
X005693Y020205D01*
X005693Y020303D02*
X007932Y020303D01*
X007987Y020402D02*
X005693Y020402D01*
X005693Y020500D02*
X008086Y020500D01*
X008040Y020796D02*
X005693Y020796D01*
X005693Y020894D02*
X007954Y020894D01*
X007913Y020993D02*
X005693Y020993D01*
X005693Y021091D02*
X007895Y021091D01*
X007895Y021190D02*
X005693Y021190D01*
X005693Y021288D02*
X007926Y021288D01*
X007972Y021387D02*
X005693Y021387D01*
X005693Y021485D02*
X008071Y021485D01*
X008079Y023357D02*
X005693Y023357D01*
X005693Y023455D02*
X007981Y023455D01*
X007930Y023554D02*
X005693Y023554D01*
X005693Y023652D02*
X007895Y023652D01*
X007895Y023751D02*
X005693Y023751D01*
X005693Y023849D02*
X007910Y023849D01*
X007951Y023948D02*
X005693Y023948D01*
X005693Y024046D02*
X008032Y024046D01*
X008252Y025280D02*
X008429Y025280D01*
X008593Y025348D01*
X008718Y025473D01*
X008786Y025636D01*
X008786Y025814D01*
X008718Y025977D01*
X008593Y026102D01*
X008429Y026170D01*
X008252Y026170D01*
X008088Y026102D01*
X007963Y025977D01*
X007895Y025814D01*
X007895Y025636D01*
X007963Y025473D01*
X008088Y025348D01*
X008252Y025280D01*
X008139Y025327D02*
X005693Y025327D01*
X005693Y025425D02*
X008011Y025425D01*
X007942Y025524D02*
X005693Y025524D01*
X005693Y025622D02*
X007901Y025622D01*
X007895Y025721D02*
X005693Y025721D01*
X005693Y025819D02*
X007898Y025819D01*
X007938Y025918D02*
X005693Y025918D01*
X005693Y026016D02*
X008002Y026016D01*
X008117Y026115D02*
X005693Y026115D01*
X005693Y026213D02*
X021213Y026213D01*
X021112Y026312D02*
X008506Y026312D01*
X008429Y026280D02*
X008593Y026348D01*
X008718Y026473D01*
X008786Y026636D01*
X008786Y026814D01*
X008718Y026977D01*
X008593Y027102D01*
X008429Y027170D01*
X008252Y027170D01*
X008088Y027102D01*
X007963Y026977D01*
X007895Y026814D01*
X007895Y026636D01*
X007963Y026473D01*
X008088Y026348D01*
X008252Y026280D01*
X008429Y026280D01*
X008564Y026115D02*
X021314Y026115D01*
X021415Y026016D02*
X008679Y026016D01*
X008743Y025918D02*
X021516Y025918D01*
X021617Y025819D02*
X008784Y025819D01*
X008786Y025721D02*
X021718Y025721D01*
X021819Y025622D02*
X008780Y025622D01*
X008739Y025524D02*
X021920Y025524D01*
X022021Y025425D02*
X008670Y025425D01*
X008542Y025327D02*
X022122Y025327D01*
X022224Y025524D02*
X026463Y025524D01*
X026463Y025622D02*
X022123Y025622D01*
X022022Y025721D02*
X026463Y025721D01*
X026463Y025819D02*
X021920Y025819D01*
X021819Y025918D02*
X026463Y025918D01*
X026463Y026016D02*
X021718Y026016D01*
X021617Y026115D02*
X026463Y026115D01*
X026463Y026213D02*
X021516Y026213D01*
X021415Y026312D02*
X026463Y026312D01*
X026463Y026410D02*
X023366Y026410D01*
X023311Y026387D02*
X023435Y026438D01*
X023530Y026533D01*
X023581Y026658D01*
X023581Y026792D01*
X023530Y026917D01*
X023435Y027012D01*
X023311Y027063D01*
X023176Y027063D01*
X023052Y027012D01*
X022957Y026917D01*
X022905Y026792D01*
X022905Y026658D01*
X022957Y026533D01*
X023052Y026438D01*
X023176Y026387D01*
X023311Y026387D01*
X023120Y026410D02*
X021314Y026410D01*
X021213Y026509D02*
X022982Y026509D01*
X022926Y026607D02*
X021112Y026607D01*
X021093Y026706D02*
X022905Y026706D01*
X022910Y026804D02*
X021093Y026804D01*
X021093Y026903D02*
X022951Y026903D01*
X023041Y027001D02*
X021093Y027001D01*
X021093Y027100D02*
X026463Y027100D01*
X026463Y027198D02*
X021093Y027198D01*
X021093Y027297D02*
X026463Y027297D01*
X026463Y027395D02*
X021093Y027395D01*
X021093Y027494D02*
X026463Y027494D01*
X026463Y027592D02*
X021093Y027592D01*
X021093Y027691D02*
X026463Y027691D01*
X026463Y027789D02*
X021093Y027789D01*
X021093Y027888D02*
X026463Y027888D01*
X026463Y027986D02*
X021093Y027986D01*
X021093Y028085D02*
X023981Y028085D01*
X023952Y028114D02*
X024032Y028033D01*
X024137Y027990D01*
X024250Y027990D01*
X024355Y028033D01*
X024435Y028114D01*
X024478Y028218D01*
X024478Y028332D01*
X024435Y028436D01*
X024355Y028517D01*
X024250Y028560D01*
X024137Y028560D01*
X024032Y028517D01*
X023952Y028436D01*
X023908Y028332D01*
X023908Y028218D01*
X023952Y028114D01*
X023923Y028183D02*
X021093Y028183D01*
X021093Y028282D02*
X023908Y028282D01*
X023928Y028380D02*
X021093Y028380D01*
X021093Y028479D02*
X023994Y028479D01*
X024393Y028479D02*
X026463Y028479D01*
X026463Y028577D02*
X021093Y028577D01*
X021093Y028676D02*
X026463Y028676D01*
X026463Y028774D02*
X022432Y028774D01*
X022455Y028783D02*
X022535Y028864D01*
X022578Y028968D01*
X022578Y029082D01*
X022535Y029186D01*
X022455Y029267D01*
X022350Y029310D01*
X022237Y029310D01*
X022132Y029267D01*
X022052Y029186D01*
X022008Y029082D01*
X022008Y028968D01*
X022052Y028864D01*
X022132Y028783D01*
X022237Y028740D01*
X022350Y028740D01*
X022455Y028783D01*
X022539Y028873D02*
X026463Y028873D01*
X026463Y028971D02*
X022578Y028971D01*
X022578Y029070D02*
X026463Y029070D01*
X026463Y029168D02*
X022543Y029168D01*
X022455Y029267D02*
X026463Y029267D01*
X026463Y029365D02*
X020193Y029365D01*
X020193Y029267D02*
X022132Y029267D01*
X022044Y029168D02*
X021093Y029168D01*
X021093Y029070D02*
X022008Y029070D01*
X022008Y028971D02*
X021093Y028971D01*
X021093Y028873D02*
X022048Y028873D01*
X022154Y028774D02*
X021093Y028774D01*
X020893Y028774D02*
X018763Y028774D01*
X018763Y028771D02*
X018763Y028879D01*
X018722Y028978D01*
X018660Y029040D01*
X018750Y029040D01*
X018855Y029083D01*
X018935Y029164D01*
X018978Y029268D01*
X018978Y029382D01*
X018935Y029486D01*
X018855Y029567D01*
X018750Y029610D01*
X018637Y029610D01*
X018532Y029567D01*
X018452Y029486D01*
X018408Y029382D01*
X018408Y029268D01*
X018452Y029164D01*
X018520Y029095D01*
X018440Y029095D01*
X018340Y029054D01*
X018264Y028978D01*
X018223Y028879D01*
X018223Y028771D01*
X018264Y028672D01*
X018340Y028596D01*
X018440Y028555D01*
X018547Y028555D01*
X018646Y028596D01*
X018722Y028672D01*
X018763Y028771D01*
X018763Y028873D02*
X020893Y028873D01*
X020893Y028971D02*
X018725Y028971D01*
X018821Y029070D02*
X019993Y029070D01*
X019993Y029168D02*
X018937Y029168D01*
X018978Y029267D02*
X019993Y029267D01*
X019993Y029365D02*
X018978Y029365D01*
X018944Y029464D02*
X019993Y029464D01*
X019993Y029562D02*
X018859Y029562D01*
X018527Y029562D02*
X015024Y029562D01*
X015065Y029464D02*
X018442Y029464D01*
X018408Y029365D02*
X015093Y029365D01*
X015093Y029394D02*
X014964Y029706D01*
X014725Y029946D01*
X014412Y030075D01*
X014074Y030075D01*
X013762Y029946D01*
X013523Y029706D01*
X013393Y029394D01*
X013393Y029056D01*
X013523Y028744D01*
X013762Y028504D01*
X014074Y028375D01*
X014412Y028375D01*
X014725Y028504D01*
X014964Y028744D01*
X015093Y029056D01*
X015093Y029394D01*
X015093Y029267D02*
X018409Y029267D01*
X018450Y029168D02*
X015093Y029168D01*
X015093Y029070D02*
X018378Y029070D01*
X018262Y028971D02*
X015058Y028971D01*
X015017Y028873D02*
X018223Y028873D01*
X018223Y028774D02*
X014977Y028774D01*
X014896Y028676D02*
X018263Y028676D01*
X018386Y028577D02*
X014797Y028577D01*
X014662Y028479D02*
X020893Y028479D01*
X020893Y028577D02*
X018600Y028577D01*
X018724Y028676D02*
X020893Y028676D01*
X020893Y028380D02*
X014425Y028380D01*
X014062Y028380D02*
X008625Y028380D01*
X008593Y028348D02*
X008718Y028473D01*
X008786Y028636D01*
X008786Y028814D01*
X008718Y028977D01*
X008593Y029102D01*
X008429Y029170D01*
X008252Y029170D01*
X008088Y029102D01*
X007963Y028977D01*
X007895Y028814D01*
X007895Y028636D01*
X007963Y028473D01*
X008088Y028348D01*
X008252Y028280D01*
X008429Y028280D01*
X008593Y028348D01*
X008434Y028282D02*
X020893Y028282D01*
X020893Y028183D02*
X005693Y028183D01*
X005693Y028085D02*
X008070Y028085D01*
X008088Y028102D02*
X007963Y027977D01*
X007895Y027814D01*
X007895Y027636D01*
X007963Y027473D01*
X008088Y027348D01*
X008252Y027280D01*
X008429Y027280D01*
X008593Y027348D01*
X008718Y027473D01*
X008786Y027636D01*
X008786Y027814D01*
X008718Y027977D01*
X008593Y028102D01*
X008429Y028170D01*
X008252Y028170D01*
X008088Y028102D01*
X007972Y027986D02*
X005693Y027986D01*
X005693Y027888D02*
X007926Y027888D01*
X007895Y027789D02*
X005693Y027789D01*
X005693Y027691D02*
X007895Y027691D01*
X007914Y027592D02*
X005693Y027592D01*
X005693Y027494D02*
X007954Y027494D01*
X008041Y027395D02*
X005693Y027395D01*
X005693Y027297D02*
X008211Y027297D01*
X008085Y027100D02*
X005693Y027100D01*
X005693Y027198D02*
X016817Y027198D01*
X016832Y027183D02*
X016937Y027140D01*
X017050Y027140D01*
X017155Y027183D01*
X017235Y027264D01*
X017278Y027368D01*
X017278Y027482D01*
X017235Y027586D01*
X017155Y027667D01*
X017050Y027710D01*
X016937Y027710D01*
X016832Y027667D01*
X016752Y027586D01*
X016708Y027482D01*
X016708Y027368D01*
X016752Y027264D01*
X016832Y027183D01*
X016738Y027297D02*
X008470Y027297D01*
X008640Y027395D02*
X016708Y027395D01*
X016713Y027494D02*
X008727Y027494D01*
X008767Y027592D02*
X016382Y027592D01*
X016387Y027590D02*
X016500Y027590D01*
X016605Y027633D01*
X016685Y027714D01*
X016728Y027818D01*
X016728Y027932D01*
X016685Y028036D01*
X016605Y028117D01*
X016500Y028160D01*
X016387Y028160D01*
X016282Y028117D01*
X016202Y028036D01*
X016158Y027932D01*
X016158Y027818D01*
X016202Y027714D01*
X016282Y027633D01*
X016387Y027590D01*
X016505Y027592D02*
X016757Y027592D01*
X016662Y027691D02*
X016890Y027691D01*
X016716Y027789D02*
X019605Y027789D01*
X019605Y027842D02*
X019605Y027708D01*
X019657Y027583D01*
X019752Y027488D01*
X019876Y027437D01*
X020011Y027437D01*
X020135Y027488D01*
X020230Y027583D01*
X020281Y027708D01*
X020281Y027842D01*
X020230Y027967D01*
X020135Y028062D01*
X020011Y028113D01*
X019876Y028113D01*
X019752Y028062D01*
X019657Y027967D01*
X019605Y027842D01*
X019624Y027888D02*
X016728Y027888D01*
X016706Y027986D02*
X019676Y027986D01*
X019807Y028085D02*
X016637Y028085D01*
X016250Y028085D02*
X008611Y028085D01*
X008709Y027986D02*
X016181Y027986D01*
X016158Y027888D02*
X008755Y027888D01*
X008786Y027789D02*
X016170Y027789D01*
X016225Y027691D02*
X008786Y027691D01*
X008596Y027100D02*
X020893Y027100D01*
X020893Y027198D02*
X017869Y027198D01*
X017855Y027183D02*
X017935Y027264D01*
X017978Y027368D01*
X017978Y027482D01*
X017935Y027586D01*
X017855Y027667D01*
X017750Y027710D01*
X017637Y027710D01*
X017532Y027667D01*
X017452Y027586D01*
X017408Y027482D01*
X017408Y027368D01*
X017452Y027264D01*
X017532Y027183D01*
X017637Y027140D01*
X017750Y027140D01*
X017855Y027183D01*
X017949Y027297D02*
X020893Y027297D01*
X020893Y027395D02*
X017978Y027395D01*
X017973Y027494D02*
X019747Y027494D01*
X019653Y027592D02*
X017929Y027592D01*
X017797Y027691D02*
X019612Y027691D01*
X020140Y027494D02*
X020893Y027494D01*
X020893Y027592D02*
X020233Y027592D01*
X020274Y027691D02*
X020893Y027691D01*
X020893Y027789D02*
X020281Y027789D01*
X020263Y027888D02*
X020893Y027888D01*
X020893Y027986D02*
X020210Y027986D01*
X020079Y028085D02*
X020893Y028085D01*
X020893Y027001D02*
X008694Y027001D01*
X008749Y026903D02*
X020893Y026903D01*
X020893Y026804D02*
X008786Y026804D01*
X008786Y026706D02*
X020893Y026706D01*
X020893Y026607D02*
X008774Y026607D01*
X008733Y026509D02*
X020910Y026509D01*
X021011Y026410D02*
X008655Y026410D01*
X008175Y026312D02*
X005693Y026312D01*
X005693Y026410D02*
X008026Y026410D01*
X007948Y026509D02*
X005693Y026509D01*
X005693Y026607D02*
X007907Y026607D01*
X007895Y026706D02*
X005693Y026706D01*
X005693Y026804D02*
X007895Y026804D01*
X007932Y026903D02*
X005693Y026903D01*
X005693Y027001D02*
X007987Y027001D01*
X008248Y028282D02*
X005693Y028282D01*
X005693Y028380D02*
X008056Y028380D01*
X007961Y028479D02*
X005693Y028479D01*
X005693Y028577D02*
X007920Y028577D01*
X007895Y028676D02*
X005693Y028676D01*
X005693Y028774D02*
X007895Y028774D01*
X007920Y028873D02*
X005693Y028873D01*
X005693Y028971D02*
X007961Y028971D01*
X008055Y029070D02*
X005693Y029070D01*
X005693Y029168D02*
X008247Y029168D01*
X008252Y029280D02*
X008429Y029280D01*
X008593Y029348D01*
X008718Y029473D01*
X008786Y029636D01*
X008786Y029814D01*
X008718Y029977D01*
X008593Y030102D01*
X008429Y030170D01*
X008252Y030170D01*
X008088Y030102D01*
X007963Y029977D01*
X007895Y029814D01*
X007895Y029636D01*
X007963Y029473D01*
X008088Y029348D01*
X008252Y029280D01*
X008071Y029365D02*
X005693Y029365D01*
X005693Y029267D02*
X013393Y029267D01*
X013393Y029365D02*
X008610Y029365D01*
X008709Y029464D02*
X013422Y029464D01*
X013463Y029562D02*
X008755Y029562D01*
X008786Y029661D02*
X013504Y029661D01*
X013575Y029759D02*
X008786Y029759D01*
X008768Y029858D02*
X013674Y029858D01*
X013787Y029956D02*
X008727Y029956D01*
X008641Y030055D02*
X014025Y030055D01*
X014462Y030055D02*
X019993Y030055D01*
X019993Y030153D02*
X008471Y030153D01*
X008595Y030350D02*
X016203Y030350D01*
X016252Y030330D02*
X016429Y030330D01*
X016593Y030398D01*
X016718Y030523D01*
X016786Y030686D01*
X016786Y030864D01*
X016718Y031027D01*
X016593Y031152D01*
X016429Y031220D01*
X016252Y031220D01*
X016088Y031152D01*
X015963Y031027D01*
X015895Y030864D01*
X015895Y030686D01*
X015963Y030523D01*
X016088Y030398D01*
X016252Y030330D01*
X016478Y030350D02*
X017203Y030350D01*
X017252Y030330D02*
X017429Y030330D01*
X017593Y030398D01*
X017718Y030523D01*
X017786Y030686D01*
X017786Y030864D01*
X017718Y031027D01*
X017593Y031152D01*
X017429Y031220D01*
X017252Y031220D01*
X017088Y031152D01*
X016963Y031027D01*
X016895Y030864D01*
X016895Y030686D01*
X016963Y030523D01*
X017088Y030398D01*
X017252Y030330D01*
X017478Y030350D02*
X018203Y030350D01*
X018252Y030330D02*
X018429Y030330D01*
X018593Y030398D01*
X018718Y030523D01*
X018786Y030686D01*
X018786Y030864D01*
X018718Y031027D01*
X018593Y031152D01*
X018429Y031220D01*
X018252Y031220D01*
X018088Y031152D01*
X017963Y031027D01*
X017895Y030864D01*
X017895Y030686D01*
X017963Y030523D01*
X018088Y030398D01*
X018252Y030330D01*
X018478Y030350D02*
X019993Y030350D01*
X019993Y030252D02*
X005693Y030252D01*
X005693Y030350D02*
X008086Y030350D01*
X007987Y030449D02*
X005693Y030449D01*
X005693Y030547D02*
X007237Y030547D01*
X007016Y030646D02*
X005693Y030646D01*
X005693Y030744D02*
X006918Y030744D01*
X006827Y030843D02*
X005693Y030843D01*
X005693Y030941D02*
X006786Y030941D01*
X006745Y031040D02*
X005693Y031040D01*
X005693Y031138D02*
X006726Y031138D01*
X006755Y031434D02*
X005993Y031434D01*
X005993Y031532D02*
X006796Y031532D01*
X006842Y031631D02*
X005993Y031631D01*
X005993Y031729D02*
X006941Y031729D01*
X007055Y031828D02*
X005993Y031828D01*
X005993Y031926D02*
X015293Y031926D01*
X015293Y031828D02*
X011491Y031828D01*
X011606Y031729D02*
X015293Y031729D01*
X015293Y031631D02*
X011704Y031631D01*
X011751Y031532D02*
X015293Y031532D01*
X015293Y031434D02*
X011792Y031434D01*
X011821Y031335D02*
X015293Y031335D01*
X015293Y031237D02*
X011821Y031237D01*
X011821Y031138D02*
X015293Y031138D01*
X015293Y031040D02*
X011801Y031040D01*
X011761Y030941D02*
X015293Y030941D01*
X015293Y030843D02*
X011720Y030843D01*
X011629Y030744D02*
X015293Y030744D01*
X015293Y030646D02*
X011530Y030646D01*
X010716Y030646D02*
X009680Y030646D01*
X009779Y030744D02*
X010618Y030744D01*
X010527Y030843D02*
X009870Y030843D01*
X009911Y030941D02*
X010486Y030941D01*
X010445Y031040D02*
X009951Y031040D01*
X009971Y031138D02*
X010426Y031138D01*
X010426Y031237D02*
X009971Y031237D01*
X009971Y031335D02*
X010426Y031335D01*
X010455Y031434D02*
X009942Y031434D01*
X009901Y031532D02*
X010496Y031532D01*
X010542Y031631D02*
X009854Y031631D01*
X009756Y031729D02*
X010641Y031729D01*
X010755Y031828D02*
X009641Y031828D01*
X008905Y031828D02*
X007791Y031828D01*
X007906Y031729D02*
X008791Y031729D01*
X008692Y031631D02*
X008004Y031631D01*
X008051Y031532D02*
X008646Y031532D01*
X008605Y031434D02*
X008092Y031434D01*
X007895Y030646D02*
X007830Y030646D01*
X007932Y030547D02*
X007609Y030547D01*
X008040Y030055D02*
X005693Y030055D01*
X005693Y030153D02*
X008210Y030153D01*
X007954Y029956D02*
X005693Y029956D01*
X005693Y029858D02*
X007913Y029858D01*
X007895Y029759D02*
X005693Y029759D01*
X005693Y029661D02*
X007895Y029661D01*
X007926Y029562D02*
X005693Y029562D01*
X005693Y029464D02*
X007972Y029464D01*
X008434Y029168D02*
X013393Y029168D01*
X013393Y029070D02*
X008626Y029070D01*
X008721Y028971D02*
X013428Y028971D01*
X013469Y028873D02*
X008761Y028873D01*
X008786Y028774D02*
X013510Y028774D01*
X013591Y028676D02*
X008786Y028676D01*
X008761Y028577D02*
X013689Y028577D01*
X013824Y028479D02*
X008720Y028479D01*
X005993Y032025D02*
X015293Y032025D01*
X015293Y032123D02*
X005993Y032123D01*
X005993Y032222D02*
X015293Y032222D01*
X015293Y032320D02*
X005993Y032320D01*
X005993Y032419D02*
X015293Y032419D01*
X015293Y032517D02*
X005993Y032517D01*
X005993Y032616D02*
X020307Y032616D01*
X020339Y032583D02*
X020444Y032540D01*
X020557Y032540D01*
X020662Y032583D01*
X020742Y032664D01*
X020786Y032768D01*
X020786Y032882D01*
X020742Y032986D01*
X020662Y033067D01*
X020557Y033110D01*
X020444Y033110D01*
X020339Y033067D01*
X020259Y032986D01*
X020216Y032882D01*
X020216Y032768D01*
X020259Y032664D01*
X020339Y032583D01*
X020193Y032517D02*
X029841Y032517D01*
X029787Y032463D02*
X029657Y032151D01*
X029657Y031813D01*
X029787Y031500D01*
X030026Y031261D01*
X030338Y031132D01*
X030677Y031132D01*
X030989Y031261D01*
X031228Y031500D01*
X031357Y031813D01*
X031357Y032151D01*
X031228Y032463D01*
X030989Y032702D01*
X030677Y032832D01*
X030338Y032832D01*
X030026Y032702D01*
X029787Y032463D01*
X029768Y032419D02*
X020193Y032419D01*
X020193Y032320D02*
X029728Y032320D01*
X029687Y032222D02*
X020193Y032222D01*
X020193Y032123D02*
X029657Y032123D01*
X029657Y032025D02*
X020193Y032025D01*
X020193Y031926D02*
X029657Y031926D01*
X029657Y031828D02*
X020193Y031828D01*
X020193Y031729D02*
X029692Y031729D01*
X029733Y031631D02*
X020193Y031631D01*
X020193Y031532D02*
X029774Y031532D01*
X029854Y031434D02*
X020193Y031434D01*
X020193Y031335D02*
X029952Y031335D01*
X030085Y031237D02*
X027966Y031237D01*
X027947Y031255D02*
X026539Y031255D01*
X026463Y031179D01*
X026463Y025321D01*
X026539Y025245D01*
X026647Y025245D01*
X028797Y025245D01*
X028873Y025321D01*
X028873Y029129D01*
X028797Y029205D01*
X028697Y029305D01*
X028397Y029305D01*
X028023Y029679D01*
X028023Y031179D01*
X027947Y031255D01*
X028023Y031138D02*
X030323Y031138D01*
X030692Y031138D02*
X033108Y031138D01*
X033108Y031118D02*
X033152Y031014D01*
X033232Y030933D01*
X033337Y030890D01*
X033450Y030890D01*
X033555Y030933D01*
X033635Y031014D01*
X033678Y031118D01*
X033678Y031232D01*
X033635Y031336D01*
X033555Y031417D01*
X033450Y031460D01*
X033337Y031460D01*
X033232Y031417D01*
X033152Y031336D01*
X033108Y031232D01*
X033108Y031118D01*
X033141Y031040D02*
X028023Y031040D01*
X028023Y030941D02*
X033224Y030941D01*
X033110Y031237D02*
X030930Y031237D01*
X031063Y031335D02*
X033151Y031335D01*
X033273Y031434D02*
X031161Y031434D01*
X031241Y031532D02*
X042362Y031532D01*
X042408Y031577D02*
X042291Y031461D01*
X042228Y031308D01*
X042228Y031142D01*
X042291Y030989D01*
X042408Y030873D01*
X042561Y030809D01*
X042726Y030809D01*
X042879Y030873D01*
X042996Y030989D01*
X043059Y031142D01*
X043059Y031308D01*
X042996Y031461D01*
X042879Y031577D01*
X042726Y031641D01*
X042561Y031641D01*
X042408Y031577D01*
X042536Y031631D02*
X031282Y031631D01*
X031323Y031729D02*
X050170Y031729D01*
X050201Y031803D02*
X050132Y031637D01*
X050132Y031458D01*
X050201Y031293D01*
X050327Y031166D01*
X050493Y031098D01*
X050672Y031098D01*
X050837Y031166D01*
X050964Y031293D01*
X051032Y031458D01*
X051032Y031637D01*
X050964Y031803D01*
X050837Y031929D01*
X050672Y031998D01*
X050493Y031998D01*
X050327Y031929D01*
X050201Y031803D01*
X050226Y031828D02*
X031357Y031828D01*
X031357Y031926D02*
X050324Y031926D01*
X050132Y031631D02*
X048801Y031631D01*
X048776Y031641D02*
X048611Y031641D01*
X048458Y031577D01*
X048341Y031461D01*
X048278Y031308D01*
X048278Y031142D01*
X048341Y030989D01*
X048458Y030873D01*
X048611Y030809D01*
X048776Y030809D01*
X048929Y030873D01*
X049046Y030989D01*
X049109Y031142D01*
X049109Y031308D01*
X049046Y031461D01*
X048929Y031577D01*
X048776Y031641D01*
X048586Y031631D02*
X042751Y031631D01*
X042924Y031532D02*
X048412Y031532D01*
X048330Y031434D02*
X043007Y031434D01*
X043048Y031335D02*
X048289Y031335D01*
X048278Y031237D02*
X043059Y031237D01*
X043057Y031138D02*
X048279Y031138D01*
X048320Y031040D02*
X043016Y031040D01*
X042947Y030941D02*
X048389Y030941D01*
X048530Y030843D02*
X042806Y030843D01*
X042480Y030843D02*
X035924Y030843D01*
X035928Y030832D02*
X035885Y030936D01*
X035805Y031017D01*
X035700Y031060D01*
X035587Y031060D01*
X035482Y031017D01*
X035402Y030936D01*
X035358Y030832D01*
X035358Y030718D01*
X035402Y030614D01*
X035482Y030533D01*
X035587Y030490D01*
X035700Y030490D01*
X035805Y030533D01*
X035885Y030614D01*
X035928Y030718D01*
X035928Y030832D01*
X035928Y030744D02*
X050176Y030744D01*
X050201Y030803D02*
X050132Y030637D01*
X050132Y030458D01*
X050201Y030293D01*
X050327Y030166D01*
X050493Y030098D01*
X050672Y030098D01*
X050837Y030166D01*
X050964Y030293D01*
X051032Y030458D01*
X051032Y030637D01*
X050964Y030803D01*
X050837Y030929D01*
X050672Y030998D01*
X050493Y030998D01*
X050327Y030929D01*
X050201Y030803D01*
X050241Y030843D02*
X048856Y030843D01*
X048997Y030941D02*
X050356Y030941D01*
X050396Y031138D02*
X049107Y031138D01*
X049109Y031237D02*
X050257Y031237D01*
X050183Y031335D02*
X049098Y031335D01*
X049057Y031434D02*
X050143Y031434D01*
X050132Y031532D02*
X048974Y031532D01*
X049066Y031040D02*
X054293Y031040D01*
X054293Y031138D02*
X051769Y031138D01*
X051837Y031166D02*
X051964Y031293D01*
X052032Y031458D01*
X052032Y031637D01*
X051964Y031803D01*
X051837Y031929D01*
X051672Y031998D01*
X051493Y031998D01*
X051327Y031929D01*
X051201Y031803D01*
X051132Y031637D01*
X051132Y031458D01*
X051201Y031293D01*
X051327Y031166D01*
X051493Y031098D01*
X051672Y031098D01*
X051837Y031166D01*
X051907Y031237D02*
X054293Y031237D01*
X054293Y031335D02*
X051981Y031335D01*
X052022Y031434D02*
X054293Y031434D01*
X054293Y031532D02*
X052032Y031532D01*
X052032Y031631D02*
X054293Y031631D01*
X054293Y031729D02*
X051994Y031729D01*
X051939Y031828D02*
X054293Y031828D01*
X054293Y031926D02*
X051840Y031926D01*
X051324Y031926D02*
X050840Y031926D01*
X050939Y031828D02*
X051226Y031828D01*
X051170Y031729D02*
X050994Y031729D01*
X051032Y031631D02*
X051132Y031631D01*
X051132Y031532D02*
X051032Y031532D01*
X051022Y031434D02*
X051143Y031434D01*
X051183Y031335D02*
X050981Y031335D01*
X050907Y031237D02*
X051257Y031237D01*
X051396Y031138D02*
X050769Y031138D01*
X050809Y030941D02*
X051356Y030941D01*
X051327Y030929D02*
X051201Y030803D01*
X051132Y030637D01*
X051132Y030458D01*
X051201Y030293D01*
X051327Y030166D01*
X051493Y030098D01*
X051672Y030098D01*
X051837Y030166D01*
X051964Y030293D01*
X052032Y030458D01*
X052032Y030637D01*
X051964Y030803D01*
X051837Y030929D01*
X051672Y030998D01*
X051493Y030998D01*
X051327Y030929D01*
X051241Y030843D02*
X050924Y030843D01*
X050988Y030744D02*
X051176Y030744D01*
X051136Y030646D02*
X051029Y030646D01*
X051032Y030547D02*
X051132Y030547D01*
X051136Y030449D02*
X051028Y030449D01*
X050987Y030350D02*
X051177Y030350D01*
X051242Y030252D02*
X050922Y030252D01*
X050805Y030153D02*
X051359Y030153D01*
X051392Y029956D02*
X050773Y029956D01*
X050837Y029929D02*
X050672Y029998D01*
X050493Y029998D01*
X050327Y029929D01*
X050201Y029803D01*
X050132Y029637D01*
X050132Y029458D01*
X050201Y029293D01*
X050327Y029166D01*
X050493Y029098D01*
X050672Y029098D01*
X050837Y029166D01*
X050964Y029293D01*
X051032Y029458D01*
X051032Y029637D01*
X050964Y029803D01*
X050837Y029929D01*
X050909Y029858D02*
X051256Y029858D01*
X051201Y029803D02*
X051132Y029637D01*
X051132Y029458D01*
X051201Y029293D01*
X051327Y029166D01*
X051493Y029098D01*
X051672Y029098D01*
X051837Y029166D01*
X051964Y029293D01*
X052032Y029458D01*
X052032Y029637D01*
X051964Y029803D01*
X051837Y029929D01*
X051672Y029998D01*
X051493Y029998D01*
X051327Y029929D01*
X051201Y029803D01*
X051183Y029759D02*
X050982Y029759D01*
X051023Y029661D02*
X051142Y029661D01*
X051132Y029562D02*
X051032Y029562D01*
X051032Y029464D02*
X051132Y029464D01*
X051171Y029365D02*
X050994Y029365D01*
X050937Y029267D02*
X051227Y029267D01*
X051326Y029168D02*
X050839Y029168D01*
X050736Y028971D02*
X051428Y028971D01*
X051493Y028998D02*
X051327Y028929D01*
X051201Y028803D01*
X051132Y028637D01*
X051132Y028458D01*
X051201Y028293D01*
X051327Y028166D01*
X051493Y028098D01*
X051672Y028098D01*
X051837Y028166D01*
X051964Y028293D01*
X052032Y028458D01*
X052032Y028637D01*
X051964Y028803D01*
X051837Y028929D01*
X051672Y028998D01*
X051493Y028998D01*
X051736Y028971D02*
X054293Y028971D01*
X054293Y028873D02*
X051894Y028873D01*
X051976Y028774D02*
X054293Y028774D01*
X054293Y028676D02*
X052016Y028676D01*
X052032Y028577D02*
X054293Y028577D01*
X054293Y028479D02*
X052032Y028479D01*
X052000Y028380D02*
X054293Y028380D01*
X054293Y028282D02*
X051952Y028282D01*
X051854Y028183D02*
X054293Y028183D01*
X054293Y028085D02*
X048809Y028085D01*
X048809Y028108D02*
X048746Y028261D01*
X048629Y028377D01*
X048476Y028441D01*
X048311Y028441D01*
X048158Y028377D01*
X048041Y028261D01*
X047978Y028108D01*
X047978Y027942D01*
X048041Y027789D01*
X028873Y027789D01*
X028873Y027691D02*
X048140Y027691D01*
X048158Y027673D02*
X048311Y027609D01*
X048476Y027609D01*
X048629Y027673D01*
X048746Y027789D01*
X048809Y027942D01*
X048809Y028108D01*
X048778Y028183D02*
X050311Y028183D01*
X050327Y028166D02*
X050493Y028098D01*
X050672Y028098D01*
X050837Y028166D01*
X050964Y028293D01*
X051032Y028458D01*
X051032Y028637D01*
X050964Y028803D01*
X050837Y028929D01*
X050672Y028998D01*
X050493Y028998D01*
X050327Y028929D01*
X050201Y028803D01*
X050132Y028637D01*
X050132Y028458D01*
X050201Y028293D01*
X050327Y028166D01*
X050212Y028282D02*
X048725Y028282D01*
X048623Y028380D02*
X050165Y028380D01*
X050132Y028479D02*
X028873Y028479D01*
X028873Y028577D02*
X050132Y028577D01*
X050148Y028676D02*
X028873Y028676D01*
X028873Y028774D02*
X035604Y028774D01*
X035582Y028783D02*
X035687Y028740D01*
X035800Y028740D01*
X035905Y028783D01*
X035985Y028864D01*
X036028Y028968D01*
X036028Y029082D01*
X035985Y029186D01*
X035905Y029267D01*
X035800Y029310D01*
X035687Y029310D01*
X035582Y029267D01*
X035502Y029186D01*
X035458Y029082D01*
X035458Y028968D01*
X035502Y028864D01*
X035582Y028783D01*
X035498Y028873D02*
X028873Y028873D01*
X028873Y028971D02*
X035458Y028971D01*
X035458Y029070D02*
X028873Y029070D01*
X028834Y029168D02*
X032747Y029168D01*
X032782Y029133D02*
X032887Y029090D01*
X033000Y029090D01*
X033105Y029133D01*
X033185Y029214D01*
X033228Y029318D01*
X033228Y029432D01*
X033185Y029536D01*
X033105Y029617D01*
X033000Y029660D01*
X032887Y029660D01*
X032782Y029617D01*
X032702Y029536D01*
X032658Y029432D01*
X032658Y029318D01*
X032702Y029214D01*
X032782Y029133D01*
X032680Y029267D02*
X031188Y029267D01*
X031155Y029233D02*
X031235Y029314D01*
X031278Y029418D01*
X031278Y029532D01*
X031235Y029636D01*
X031155Y029717D01*
X031050Y029760D01*
X030937Y029760D01*
X030832Y029717D01*
X030752Y029636D01*
X030708Y029532D01*
X030708Y029418D01*
X030752Y029314D01*
X030832Y029233D01*
X030937Y029190D01*
X031050Y029190D01*
X031155Y029233D01*
X031256Y029365D02*
X032658Y029365D01*
X032672Y029464D02*
X031278Y029464D01*
X031266Y029562D02*
X032727Y029562D01*
X033159Y029562D02*
X036808Y029562D01*
X036808Y029518D02*
X036852Y029414D01*
X036932Y029333D01*
X037037Y029290D01*
X037150Y029290D01*
X037255Y029333D01*
X037335Y029414D01*
X037378Y029518D01*
X037378Y029632D01*
X037335Y029736D01*
X037255Y029817D01*
X037150Y029860D01*
X037037Y029860D01*
X036932Y029817D01*
X036852Y029736D01*
X036808Y029632D01*
X036808Y029518D01*
X036831Y029464D02*
X033215Y029464D01*
X033228Y029365D02*
X036900Y029365D01*
X036820Y029661D02*
X031211Y029661D01*
X031052Y029759D02*
X036874Y029759D01*
X037031Y029858D02*
X028023Y029858D01*
X028023Y029956D02*
X050392Y029956D01*
X050256Y029858D02*
X037156Y029858D01*
X037312Y029759D02*
X050183Y029759D01*
X050142Y029661D02*
X037366Y029661D01*
X037378Y029562D02*
X050132Y029562D01*
X050132Y029464D02*
X037356Y029464D01*
X037286Y029365D02*
X050171Y029365D01*
X050227Y029267D02*
X035905Y029267D01*
X035993Y029168D02*
X050326Y029168D01*
X050428Y028971D02*
X036028Y028971D01*
X036028Y029070D02*
X054293Y029070D01*
X054293Y029168D02*
X051839Y029168D01*
X051937Y029267D02*
X054293Y029267D01*
X054293Y029365D02*
X051994Y029365D01*
X052032Y029464D02*
X054293Y029464D01*
X054293Y029562D02*
X052032Y029562D01*
X052023Y029661D02*
X054293Y029661D01*
X054293Y029759D02*
X051982Y029759D01*
X051909Y029858D02*
X054293Y029858D01*
X054293Y029956D02*
X051773Y029956D01*
X051805Y030153D02*
X054293Y030153D01*
X054293Y030055D02*
X031735Y030055D01*
X031700Y030040D02*
X031805Y030083D01*
X031885Y030164D01*
X031928Y030268D01*
X031928Y030382D01*
X031885Y030486D01*
X031805Y030567D01*
X031700Y030610D01*
X031587Y030610D01*
X031482Y030567D01*
X031402Y030486D01*
X031358Y030382D01*
X031358Y030268D01*
X031402Y030164D01*
X031482Y030083D01*
X031587Y030040D01*
X031700Y030040D01*
X031551Y030055D02*
X028023Y030055D01*
X028023Y030153D02*
X031412Y030153D01*
X031365Y030252D02*
X028023Y030252D01*
X028023Y030350D02*
X031358Y030350D01*
X031386Y030449D02*
X028023Y030449D01*
X028023Y030547D02*
X031462Y030547D01*
X031824Y030547D02*
X035468Y030547D01*
X035388Y030646D02*
X028023Y030646D01*
X028023Y030744D02*
X035358Y030744D01*
X035363Y030843D02*
X028023Y030843D01*
X028023Y029759D02*
X030934Y029759D01*
X030776Y029661D02*
X028042Y029661D01*
X028140Y029562D02*
X030721Y029562D01*
X030708Y029464D02*
X028239Y029464D01*
X028337Y029365D02*
X030730Y029365D01*
X030799Y029267D02*
X028736Y029267D01*
X028873Y028380D02*
X048164Y028380D01*
X048062Y028282D02*
X028873Y028282D01*
X028873Y028183D02*
X048009Y028183D01*
X047978Y028085D02*
X028873Y028085D01*
X028873Y027986D02*
X047978Y027986D01*
X048000Y027888D02*
X028873Y027888D01*
X028873Y027592D02*
X054293Y027592D01*
X054293Y027494D02*
X028873Y027494D01*
X028873Y027395D02*
X054293Y027395D01*
X054293Y027297D02*
X028873Y027297D01*
X028873Y027198D02*
X054293Y027198D01*
X054293Y027100D02*
X033575Y027100D01*
X033550Y027110D02*
X033437Y027110D01*
X033332Y027067D01*
X033252Y026986D01*
X033208Y026882D01*
X033208Y026768D01*
X033252Y026664D01*
X033332Y026583D01*
X033437Y026540D01*
X033550Y026540D01*
X033655Y026583D01*
X033735Y026664D01*
X033778Y026768D01*
X033778Y026882D01*
X033735Y026986D01*
X033655Y027067D01*
X033550Y027110D01*
X033411Y027100D02*
X028873Y027100D01*
X028873Y027001D02*
X033266Y027001D01*
X033217Y026903D02*
X028873Y026903D01*
X028873Y026804D02*
X033208Y026804D01*
X033234Y026706D02*
X028873Y026706D01*
X028873Y026607D02*
X031280Y026607D01*
X031287Y026610D02*
X031182Y026567D01*
X031102Y026486D01*
X031058Y026382D01*
X031058Y026268D01*
X031102Y026164D01*
X031182Y026083D01*
X031287Y026040D01*
X031400Y026040D01*
X031505Y026083D01*
X031585Y026164D01*
X031628Y026268D01*
X031628Y026382D01*
X031585Y026486D01*
X031505Y026567D01*
X031400Y026610D01*
X031287Y026610D01*
X031407Y026607D02*
X033308Y026607D01*
X033678Y026607D02*
X054293Y026607D01*
X054293Y026509D02*
X047403Y026509D01*
X047400Y026510D02*
X047287Y026510D01*
X047182Y026467D01*
X047102Y026386D01*
X047058Y026282D01*
X047058Y026168D01*
X047102Y026064D01*
X047182Y025983D01*
X047287Y025940D01*
X047400Y025940D01*
X047505Y025983D01*
X047585Y026064D01*
X047628Y026168D01*
X047628Y026282D01*
X047585Y026386D01*
X047505Y026467D01*
X047400Y026510D01*
X047283Y026509D02*
X031563Y026509D01*
X031617Y026410D02*
X047125Y026410D01*
X047071Y026312D02*
X031628Y026312D01*
X031605Y026213D02*
X047058Y026213D01*
X047081Y026115D02*
X031536Y026115D01*
X031151Y026115D02*
X028873Y026115D01*
X028873Y026213D02*
X031081Y026213D01*
X031058Y026312D02*
X028873Y026312D01*
X028873Y026410D02*
X031070Y026410D01*
X031124Y026509D02*
X028873Y026509D01*
X028873Y026016D02*
X047149Y026016D01*
X047537Y026016D02*
X048102Y026016D01*
X048078Y025958D02*
X048078Y025792D01*
X048141Y025639D01*
X048258Y025523D01*
X048411Y025459D01*
X048576Y025459D01*
X048729Y025523D01*
X048846Y025639D01*
X048909Y025792D01*
X048909Y025958D01*
X048846Y026111D01*
X048729Y026227D01*
X048576Y026291D01*
X048411Y026291D01*
X048258Y026227D01*
X048141Y026111D01*
X048078Y025958D01*
X048078Y025918D02*
X028873Y025918D01*
X028873Y025819D02*
X048078Y025819D01*
X048107Y025721D02*
X028873Y025721D01*
X028873Y025622D02*
X036895Y025622D01*
X036882Y025617D02*
X036802Y025536D01*
X036758Y025432D01*
X036758Y025318D01*
X036802Y025214D01*
X036882Y025133D01*
X036987Y025090D01*
X037100Y025090D01*
X037205Y025133D01*
X037285Y025214D01*
X037328Y025318D01*
X037328Y025432D01*
X037285Y025536D01*
X037205Y025617D01*
X037100Y025660D01*
X036987Y025660D01*
X036882Y025617D01*
X036796Y025524D02*
X028873Y025524D01*
X028873Y025425D02*
X036758Y025425D01*
X036758Y025327D02*
X028873Y025327D01*
X027793Y024425D02*
X027793Y024425D01*
X026463Y025327D02*
X022426Y025327D01*
X022325Y025425D02*
X026463Y025425D01*
X026463Y026509D02*
X023505Y026509D01*
X023560Y026607D02*
X026463Y026607D01*
X026463Y026706D02*
X023581Y026706D01*
X023577Y026804D02*
X026463Y026804D01*
X026463Y026903D02*
X023536Y026903D01*
X023445Y027001D02*
X026463Y027001D01*
X026463Y028085D02*
X024406Y028085D01*
X024464Y028183D02*
X026463Y028183D01*
X026463Y028282D02*
X024478Y028282D01*
X024458Y028380D02*
X026463Y028380D01*
X026463Y029464D02*
X020193Y029464D01*
X020193Y029562D02*
X026463Y029562D01*
X026463Y029661D02*
X020193Y029661D01*
X020193Y029759D02*
X026463Y029759D01*
X026463Y029858D02*
X020193Y029858D01*
X020193Y029956D02*
X020398Y029956D01*
X020437Y029940D02*
X020550Y029940D01*
X020655Y029983D01*
X020735Y030064D01*
X020778Y030168D01*
X020778Y030282D01*
X020735Y030386D01*
X020655Y030467D01*
X020550Y030510D01*
X020437Y030510D01*
X020332Y030467D01*
X020252Y030386D01*
X020208Y030282D01*
X020208Y030168D01*
X020252Y030064D01*
X020332Y029983D01*
X020437Y029940D01*
X020589Y029956D02*
X026463Y029956D01*
X026463Y030055D02*
X020726Y030055D01*
X020772Y030153D02*
X026463Y030153D01*
X026463Y030252D02*
X020778Y030252D01*
X020750Y030350D02*
X026463Y030350D01*
X026463Y030449D02*
X020673Y030449D01*
X020314Y030449D02*
X020193Y030449D01*
X020193Y030547D02*
X026463Y030547D01*
X026463Y030646D02*
X020193Y030646D01*
X020193Y030744D02*
X026463Y030744D01*
X026463Y030843D02*
X020193Y030843D01*
X020193Y030941D02*
X026463Y030941D01*
X026463Y031040D02*
X020193Y031040D01*
X020193Y031138D02*
X026463Y031138D01*
X026521Y031237D02*
X020193Y031237D01*
X019993Y031237D02*
X015493Y031237D01*
X015493Y031335D02*
X017239Y031335D01*
X017252Y031330D02*
X017429Y031330D01*
X017593Y031398D01*
X017718Y031523D01*
X017786Y031686D01*
X017786Y031864D01*
X017718Y032027D01*
X017593Y032152D01*
X017429Y032220D01*
X017252Y032220D01*
X017088Y032152D01*
X016963Y032027D01*
X016895Y031864D01*
X016895Y031686D01*
X016963Y031523D01*
X017088Y031398D01*
X017252Y031330D01*
X017442Y031335D02*
X018239Y031335D01*
X018252Y031330D02*
X018429Y031330D01*
X018593Y031398D01*
X018718Y031523D01*
X018786Y031686D01*
X018786Y031864D01*
X018718Y032027D01*
X018593Y032152D01*
X018429Y032220D01*
X018252Y032220D01*
X018088Y032152D01*
X017963Y032027D01*
X017895Y031864D01*
X017895Y031686D01*
X017963Y031523D01*
X018088Y031398D01*
X018252Y031330D01*
X018442Y031335D02*
X019993Y031335D01*
X019993Y031434D02*
X018629Y031434D01*
X018722Y031532D02*
X019993Y031532D01*
X019993Y031631D02*
X018763Y031631D01*
X018786Y031729D02*
X019993Y031729D01*
X019993Y031828D02*
X018786Y031828D01*
X018760Y031926D02*
X019993Y031926D01*
X019993Y032025D02*
X018719Y032025D01*
X018622Y032123D02*
X019993Y032123D01*
X019993Y032222D02*
X015493Y032222D01*
X015493Y032320D02*
X019993Y032320D01*
X020238Y032714D02*
X005993Y032714D01*
X005993Y032813D02*
X020216Y032813D01*
X020228Y032911D02*
X005993Y032911D01*
X005993Y033010D02*
X020282Y033010D01*
X020439Y033108D02*
X005993Y033108D01*
X005993Y033207D02*
X054293Y033207D01*
X054293Y033305D02*
X005993Y033305D01*
X005993Y033404D02*
X054293Y033404D01*
X054293Y033502D02*
X053378Y033502D01*
X053433Y033525D02*
X053646Y033737D01*
X053761Y034015D01*
X053761Y034315D01*
X053646Y034593D01*
X053433Y034805D01*
X053156Y034920D01*
X052856Y034920D01*
X052578Y034805D01*
X052366Y034593D01*
X052251Y034315D01*
X052251Y034015D01*
X052366Y033737D01*
X052578Y033525D01*
X052856Y033410D01*
X053156Y033410D01*
X053433Y033525D01*
X053509Y033601D02*
X054293Y033601D01*
X054293Y033699D02*
X053608Y033699D01*
X053671Y033798D02*
X054293Y033798D01*
X054293Y033896D02*
X053712Y033896D01*
X053752Y033995D02*
X054293Y033995D01*
X054293Y034093D02*
X053761Y034093D01*
X053761Y034192D02*
X054293Y034192D01*
X054293Y034290D02*
X053761Y034290D01*
X053730Y034389D02*
X054293Y034389D01*
X054293Y034487D02*
X053690Y034487D01*
X053649Y034586D02*
X054293Y034586D01*
X054293Y034684D02*
X053554Y034684D01*
X053456Y034783D02*
X054293Y034783D01*
X054293Y034881D02*
X053250Y034881D01*
X052762Y034881D02*
X049225Y034881D01*
X049131Y034920D02*
X048831Y034920D01*
X048553Y034805D01*
X048341Y034593D01*
X048226Y034315D01*
X048226Y034015D01*
X048341Y033737D01*
X048553Y033525D01*
X048831Y033410D01*
X049131Y033410D01*
X049408Y033525D01*
X049621Y033737D01*
X049736Y034015D01*
X049736Y034315D01*
X049621Y034593D01*
X049408Y034805D01*
X049131Y034920D01*
X049431Y034783D02*
X052556Y034783D01*
X052457Y034684D02*
X049529Y034684D01*
X049624Y034586D02*
X052363Y034586D01*
X052322Y034487D02*
X049665Y034487D01*
X049705Y034389D02*
X052281Y034389D01*
X052251Y034290D02*
X049736Y034290D01*
X049736Y034192D02*
X052251Y034192D01*
X052251Y034093D02*
X049736Y034093D01*
X049727Y033995D02*
X052259Y033995D01*
X052300Y033896D02*
X049687Y033896D01*
X049646Y033798D02*
X052341Y033798D01*
X052404Y033699D02*
X049583Y033699D01*
X049484Y033601D02*
X052503Y033601D01*
X052633Y033502D02*
X049353Y033502D01*
X048608Y033502D02*
X047178Y033502D01*
X047233Y033525D02*
X046956Y033410D01*
X046656Y033410D01*
X046378Y033525D01*
X046166Y033737D01*
X046051Y034015D01*
X046051Y034315D01*
X046166Y034593D01*
X046378Y034805D01*
X046656Y034920D01*
X046956Y034920D01*
X047233Y034805D01*
X047446Y034593D01*
X047561Y034315D01*
X047561Y034015D01*
X047446Y033737D01*
X047233Y033525D01*
X047309Y033601D02*
X048478Y033601D01*
X048379Y033699D02*
X047408Y033699D01*
X047471Y033798D02*
X048316Y033798D01*
X048275Y033896D02*
X047512Y033896D01*
X047552Y033995D02*
X048234Y033995D01*
X048226Y034093D02*
X047561Y034093D01*
X047561Y034192D02*
X048226Y034192D01*
X048226Y034290D02*
X047561Y034290D01*
X047530Y034389D02*
X048256Y034389D01*
X048297Y034487D02*
X047490Y034487D01*
X047449Y034586D02*
X048338Y034586D01*
X048432Y034684D02*
X047354Y034684D01*
X047256Y034783D02*
X048531Y034783D01*
X048737Y034881D02*
X047050Y034881D01*
X046562Y034881D02*
X043025Y034881D01*
X042931Y034920D02*
X042631Y034920D01*
X042353Y034805D01*
X042141Y034593D01*
X042026Y034315D01*
X042026Y034015D01*
X042141Y033737D01*
X042353Y033525D01*
X042631Y033410D01*
X042931Y033410D01*
X043208Y033525D01*
X043421Y033737D01*
X043536Y034015D01*
X043536Y034315D01*
X043421Y034593D01*
X043208Y034805D01*
X042931Y034920D01*
X043231Y034783D02*
X046356Y034783D01*
X046257Y034684D02*
X043329Y034684D01*
X043424Y034586D02*
X046163Y034586D01*
X046122Y034487D02*
X043465Y034487D01*
X043505Y034389D02*
X046081Y034389D01*
X046051Y034290D02*
X043536Y034290D01*
X043536Y034192D02*
X046051Y034192D01*
X046051Y034093D02*
X043536Y034093D01*
X043527Y033995D02*
X046059Y033995D01*
X046100Y033896D02*
X043487Y033896D01*
X043446Y033798D02*
X046141Y033798D01*
X046204Y033699D02*
X043383Y033699D01*
X043284Y033601D02*
X046303Y033601D01*
X046433Y033502D02*
X043153Y033502D01*
X042408Y033502D02*
X040978Y033502D01*
X041033Y033525D02*
X041246Y033737D01*
X041361Y034015D01*
X041361Y034315D01*
X041246Y034593D01*
X041033Y034805D01*
X040756Y034920D01*
X040456Y034920D01*
X040178Y034805D01*
X039966Y034593D01*
X039851Y034315D01*
X039851Y034015D01*
X039966Y033737D01*
X040178Y033525D01*
X040456Y033410D01*
X040756Y033410D01*
X041033Y033525D01*
X041109Y033601D02*
X042278Y033601D01*
X042179Y033699D02*
X041208Y033699D01*
X041271Y033798D02*
X042116Y033798D01*
X042075Y033896D02*
X041312Y033896D01*
X041352Y033995D02*
X042034Y033995D01*
X042026Y034093D02*
X041361Y034093D01*
X041361Y034192D02*
X042026Y034192D01*
X042026Y034290D02*
X041361Y034290D01*
X041330Y034389D02*
X042056Y034389D01*
X042097Y034487D02*
X041290Y034487D01*
X041249Y034586D02*
X042138Y034586D01*
X042232Y034684D02*
X041154Y034684D01*
X041056Y034783D02*
X042331Y034783D01*
X042537Y034881D02*
X040850Y034881D01*
X040362Y034881D02*
X036825Y034881D01*
X036731Y034920D02*
X037008Y034805D01*
X037221Y034593D01*
X037336Y034315D01*
X037336Y034015D01*
X037221Y033737D01*
X037008Y033525D01*
X036731Y033410D01*
X036431Y033410D01*
X036153Y033525D01*
X035941Y033737D01*
X035826Y034015D01*
X035826Y034315D01*
X035941Y034593D01*
X036153Y034805D01*
X036431Y034920D01*
X036731Y034920D01*
X037031Y034783D02*
X040156Y034783D01*
X040057Y034684D02*
X037129Y034684D01*
X037224Y034586D02*
X039963Y034586D01*
X039922Y034487D02*
X037265Y034487D01*
X037305Y034389D02*
X039881Y034389D01*
X039851Y034290D02*
X037336Y034290D01*
X037336Y034192D02*
X039851Y034192D01*
X039851Y034093D02*
X037336Y034093D01*
X037327Y033995D02*
X039859Y033995D01*
X039900Y033896D02*
X037287Y033896D01*
X037246Y033798D02*
X039941Y033798D01*
X040004Y033699D02*
X037183Y033699D01*
X037084Y033601D02*
X040103Y033601D01*
X040233Y033502D02*
X036953Y033502D01*
X036208Y033502D02*
X034778Y033502D01*
X034833Y033525D02*
X035046Y033737D01*
X035161Y034015D01*
X035161Y034315D01*
X035046Y034593D01*
X034833Y034805D01*
X034556Y034920D01*
X034256Y034920D01*
X033978Y034805D01*
X033766Y034593D01*
X033651Y034315D01*
X033651Y034015D01*
X033766Y033737D01*
X033978Y033525D01*
X034256Y033410D01*
X034556Y033410D01*
X034833Y033525D01*
X034909Y033601D02*
X036078Y033601D01*
X035979Y033699D02*
X035008Y033699D01*
X035071Y033798D02*
X035916Y033798D01*
X035875Y033896D02*
X035112Y033896D01*
X035152Y033995D02*
X035834Y033995D01*
X035826Y034093D02*
X035161Y034093D01*
X035161Y034192D02*
X035826Y034192D01*
X035826Y034290D02*
X035161Y034290D01*
X035130Y034389D02*
X035856Y034389D01*
X035897Y034487D02*
X035090Y034487D01*
X035049Y034586D02*
X035938Y034586D01*
X036032Y034684D02*
X034954Y034684D01*
X034856Y034783D02*
X036131Y034783D01*
X036337Y034881D02*
X034650Y034881D01*
X034162Y034881D02*
X030625Y034881D01*
X030531Y034920D02*
X030231Y034920D01*
X029953Y034805D01*
X029741Y034593D01*
X029626Y034315D01*
X029626Y034015D01*
X029741Y033737D01*
X029953Y033525D01*
X030231Y033410D01*
X030531Y033410D01*
X030808Y033525D01*
X031021Y033737D01*
X031136Y034015D01*
X031136Y034315D01*
X031021Y034593D01*
X030808Y034805D01*
X030531Y034920D01*
X030831Y034783D02*
X033956Y034783D01*
X033857Y034684D02*
X030929Y034684D01*
X031024Y034586D02*
X033763Y034586D01*
X033722Y034487D02*
X031065Y034487D01*
X031105Y034389D02*
X033681Y034389D01*
X033651Y034290D02*
X031136Y034290D01*
X031136Y034192D02*
X033651Y034192D01*
X033651Y034093D02*
X031136Y034093D01*
X031127Y033995D02*
X033659Y033995D01*
X033700Y033896D02*
X031087Y033896D01*
X031046Y033798D02*
X033741Y033798D01*
X033804Y033699D02*
X030983Y033699D01*
X030884Y033601D02*
X033903Y033601D01*
X034033Y033502D02*
X030753Y033502D01*
X030723Y032813D02*
X054293Y032813D01*
X054293Y032911D02*
X020773Y032911D01*
X020786Y032813D02*
X030292Y032813D01*
X030054Y032714D02*
X020763Y032714D01*
X020694Y032616D02*
X029939Y032616D01*
X030008Y033502D02*
X005993Y033502D01*
X005993Y033601D02*
X029878Y033601D01*
X029779Y033699D02*
X005993Y033699D01*
X005993Y033798D02*
X029716Y033798D01*
X029675Y033896D02*
X005993Y033896D01*
X005993Y033995D02*
X029634Y033995D01*
X029626Y034093D02*
X005993Y034093D01*
X005993Y034192D02*
X029626Y034192D01*
X029626Y034290D02*
X005993Y034290D01*
X005993Y034389D02*
X029656Y034389D01*
X029697Y034487D02*
X005993Y034487D01*
X005993Y034586D02*
X029738Y034586D01*
X029832Y034684D02*
X023023Y034684D01*
X023087Y034710D02*
X022929Y034645D01*
X022758Y034645D01*
X022600Y034710D01*
X022479Y034831D01*
X022413Y034989D01*
X022413Y035161D01*
X022479Y035319D01*
X022600Y035440D01*
X022758Y035505D01*
X022929Y035505D01*
X023087Y035440D01*
X023208Y035319D01*
X023273Y035161D01*
X023273Y034989D01*
X023208Y034831D01*
X023087Y034710D01*
X023159Y034783D02*
X029931Y034783D01*
X030137Y034881D02*
X023228Y034881D01*
X023269Y034980D02*
X054293Y034980D01*
X054293Y035078D02*
X023273Y035078D01*
X023267Y035177D02*
X054293Y035177D01*
X054293Y035275D02*
X023226Y035275D01*
X023153Y035374D02*
X054293Y035374D01*
X054293Y035472D02*
X023008Y035472D01*
X022678Y035472D02*
X022008Y035472D01*
X022087Y035440D02*
X021929Y035505D01*
X021758Y035505D01*
X021600Y035440D01*
X021479Y035319D01*
X021413Y035161D01*
X021413Y034989D01*
X021479Y034831D01*
X021600Y034710D01*
X021758Y034645D01*
X021929Y034645D01*
X022087Y034710D01*
X022208Y034831D01*
X022273Y034989D01*
X022273Y035161D01*
X022208Y035319D01*
X022087Y035440D01*
X022153Y035374D02*
X022534Y035374D01*
X022461Y035275D02*
X022226Y035275D01*
X022267Y035177D02*
X022420Y035177D01*
X022413Y035078D02*
X022273Y035078D01*
X022269Y034980D02*
X022417Y034980D01*
X022458Y034881D02*
X022228Y034881D01*
X022159Y034783D02*
X022528Y034783D01*
X022663Y034684D02*
X022023Y034684D01*
X021663Y034684D02*
X016098Y034684D01*
X016162Y034710D02*
X016283Y034831D01*
X016348Y034989D01*
X016348Y035161D01*
X016283Y035319D01*
X016162Y035440D01*
X016004Y035505D01*
X015833Y035505D01*
X015675Y035440D01*
X015554Y035319D01*
X015488Y035161D01*
X015488Y034989D01*
X015554Y034831D01*
X015675Y034710D01*
X015833Y034645D01*
X016004Y034645D01*
X016162Y034710D01*
X016234Y034783D02*
X021528Y034783D01*
X021458Y034881D02*
X016303Y034881D01*
X016344Y034980D02*
X017601Y034980D01*
X017608Y034973D02*
X017761Y034909D01*
X017926Y034909D01*
X018079Y034973D01*
X018196Y035089D01*
X018259Y035242D01*
X018259Y035408D01*
X018196Y035561D01*
X018079Y035677D01*
X017926Y035741D01*
X017761Y035741D01*
X017608Y035677D01*
X017491Y035561D01*
X017428Y035408D01*
X017428Y035242D01*
X017491Y035089D01*
X017608Y034973D01*
X017502Y035078D02*
X016348Y035078D01*
X016342Y035177D02*
X017455Y035177D01*
X017428Y035275D02*
X016301Y035275D01*
X016228Y035374D02*
X017428Y035374D01*
X017454Y035472D02*
X016083Y035472D01*
X015753Y035472D02*
X015083Y035472D01*
X015162Y035440D02*
X015004Y035505D01*
X014833Y035505D01*
X014675Y035440D01*
X014554Y035319D01*
X014488Y035161D01*
X014488Y034989D01*
X014554Y034831D01*
X014675Y034710D01*
X014833Y034645D01*
X015004Y034645D01*
X015162Y034710D01*
X015283Y034831D01*
X015348Y034989D01*
X015348Y035161D01*
X015283Y035319D01*
X015162Y035440D01*
X015228Y035374D02*
X015609Y035374D01*
X015536Y035275D02*
X015301Y035275D01*
X015342Y035177D02*
X015495Y035177D01*
X015488Y035078D02*
X015348Y035078D01*
X015344Y034980D02*
X015492Y034980D01*
X015533Y034881D02*
X015303Y034881D01*
X015234Y034783D02*
X015603Y034783D01*
X015738Y034684D02*
X015098Y034684D01*
X014738Y034684D02*
X013673Y034684D01*
X013737Y034710D02*
X013579Y034645D01*
X013408Y034645D01*
X013250Y034710D01*
X013129Y034831D01*
X013063Y034989D01*
X013063Y035161D01*
X013129Y035319D01*
X013250Y035440D01*
X013408Y035505D01*
X013579Y035505D01*
X013737Y035440D01*
X013858Y035319D01*
X013923Y035161D01*
X013923Y034989D01*
X013858Y034831D01*
X013737Y034710D01*
X013809Y034783D02*
X014603Y034783D01*
X014533Y034881D02*
X013878Y034881D01*
X013919Y034980D02*
X014492Y034980D01*
X014488Y035078D02*
X013923Y035078D01*
X013917Y035177D02*
X014495Y035177D01*
X014536Y035275D02*
X013876Y035275D01*
X013803Y035374D02*
X014609Y035374D01*
X014753Y035472D02*
X013658Y035472D01*
X013328Y035472D02*
X012658Y035472D01*
X012737Y035440D02*
X012579Y035505D01*
X012408Y035505D01*
X012250Y035440D01*
X012129Y035319D01*
X012063Y035161D01*
X012063Y034989D01*
X012129Y034831D01*
X012250Y034710D01*
X012408Y034645D01*
X012579Y034645D01*
X012737Y034710D01*
X012858Y034831D01*
X012923Y034989D01*
X012923Y035161D01*
X012858Y035319D01*
X012737Y035440D01*
X012803Y035374D02*
X013184Y035374D01*
X013111Y035275D02*
X012876Y035275D01*
X012917Y035177D02*
X013070Y035177D01*
X013063Y035078D02*
X012923Y035078D01*
X012919Y034980D02*
X013067Y034980D01*
X013108Y034881D02*
X012878Y034881D01*
X012809Y034783D02*
X013178Y034783D01*
X013313Y034684D02*
X012673Y034684D01*
X012313Y034684D02*
X005993Y034684D01*
X005993Y034783D02*
X012178Y034783D01*
X012108Y034881D02*
X005993Y034881D01*
X005993Y034980D02*
X012067Y034980D01*
X012063Y035078D02*
X005993Y035078D01*
X005993Y035177D02*
X012070Y035177D01*
X012111Y035275D02*
X005993Y035275D01*
X005993Y035374D02*
X012184Y035374D01*
X012328Y035472D02*
X005993Y035472D01*
X005993Y035571D02*
X008031Y035571D01*
X007843Y035669D02*
X005993Y035669D01*
X005993Y035768D02*
X007744Y035768D01*
X007667Y035866D02*
X005993Y035866D01*
X005993Y035965D02*
X007626Y035965D01*
X007585Y036063D02*
X005993Y036063D01*
X005993Y036162D02*
X007576Y036162D01*
X007576Y036260D02*
X005993Y036260D01*
X005993Y036359D02*
X007576Y036359D01*
X007614Y036457D02*
X006008Y036457D01*
X006107Y036556D02*
X007655Y036556D01*
X007716Y036654D02*
X006205Y036654D01*
X008516Y035571D02*
X010031Y035571D01*
X009843Y035669D02*
X008704Y035669D01*
X008802Y035768D02*
X009744Y035768D01*
X009667Y035866D02*
X008880Y035866D01*
X008920Y035965D02*
X009626Y035965D01*
X009585Y036063D02*
X008961Y036063D01*
X008971Y036162D02*
X009576Y036162D01*
X009576Y036260D02*
X008971Y036260D01*
X008971Y036359D02*
X009576Y036359D01*
X009614Y036457D02*
X008932Y036457D01*
X008891Y036556D02*
X009655Y036556D01*
X009716Y036654D02*
X008831Y036654D01*
X010831Y036654D02*
X012069Y036654D01*
X012082Y036667D02*
X012002Y036586D01*
X011958Y036482D01*
X011958Y036368D01*
X012002Y036264D01*
X012082Y036183D01*
X012187Y036140D01*
X012300Y036140D01*
X012405Y036183D01*
X012485Y036264D01*
X012528Y036368D01*
X012528Y036482D01*
X012485Y036586D01*
X012405Y036667D01*
X012300Y036710D01*
X012187Y036710D01*
X012082Y036667D01*
X011989Y036556D02*
X010891Y036556D01*
X010932Y036457D02*
X011958Y036457D01*
X011962Y036359D02*
X010971Y036359D01*
X010971Y036260D02*
X012005Y036260D01*
X012135Y036162D02*
X010971Y036162D01*
X010961Y036063D02*
X014010Y036063D01*
X014008Y036162D02*
X012352Y036162D01*
X012481Y036260D02*
X014041Y036260D01*
X014043Y036359D02*
X012524Y036359D01*
X012528Y036457D02*
X013961Y036457D01*
X013863Y036556D02*
X012498Y036556D01*
X012417Y036654D02*
X013764Y036654D01*
X014043Y035965D02*
X010920Y035965D01*
X010880Y035866D02*
X014174Y035866D01*
X014413Y035866D02*
X054293Y035866D01*
X054293Y035768D02*
X010802Y035768D01*
X010704Y035669D02*
X017599Y035669D01*
X017501Y035571D02*
X010516Y035571D01*
X015493Y032123D02*
X017059Y032123D01*
X016962Y032025D02*
X015493Y032025D01*
X015493Y031926D02*
X016921Y031926D01*
X016895Y031828D02*
X015493Y031828D01*
X015493Y031729D02*
X016895Y031729D01*
X016918Y031631D02*
X015493Y031631D01*
X015493Y031532D02*
X016959Y031532D01*
X017052Y031434D02*
X015493Y031434D01*
X015493Y031138D02*
X016074Y031138D01*
X015975Y031040D02*
X015493Y031040D01*
X015493Y030941D02*
X015927Y030941D01*
X015895Y030843D02*
X015493Y030843D01*
X015493Y030744D02*
X015895Y030744D01*
X015912Y030646D02*
X015493Y030646D01*
X015493Y030547D02*
X015953Y030547D01*
X016037Y030449D02*
X015493Y030449D01*
X014911Y029759D02*
X019993Y029759D01*
X019993Y029661D02*
X014983Y029661D01*
X014813Y029858D02*
X019993Y029858D01*
X019993Y029956D02*
X014700Y029956D01*
X016644Y030449D02*
X017037Y030449D01*
X016953Y030547D02*
X016728Y030547D01*
X016769Y030646D02*
X016912Y030646D01*
X016895Y030744D02*
X016786Y030744D01*
X016786Y030843D02*
X016895Y030843D01*
X016927Y030941D02*
X016754Y030941D01*
X016706Y031040D02*
X016975Y031040D01*
X017074Y031138D02*
X016607Y031138D01*
X017607Y031138D02*
X018074Y031138D01*
X017975Y031040D02*
X017706Y031040D01*
X017754Y030941D02*
X017927Y030941D01*
X017895Y030843D02*
X017786Y030843D01*
X017786Y030744D02*
X017895Y030744D01*
X017912Y030646D02*
X017769Y030646D01*
X017728Y030547D02*
X017953Y030547D01*
X018037Y030449D02*
X017644Y030449D01*
X018644Y030449D02*
X019993Y030449D01*
X019993Y030547D02*
X018728Y030547D01*
X018769Y030646D02*
X019993Y030646D01*
X019993Y030744D02*
X018786Y030744D01*
X018786Y030843D02*
X019993Y030843D01*
X019993Y030941D02*
X018754Y030941D01*
X018706Y031040D02*
X019993Y031040D01*
X019993Y031138D02*
X018607Y031138D01*
X018052Y031434D02*
X017629Y031434D01*
X017722Y031532D02*
X017959Y031532D01*
X017918Y031631D02*
X017763Y031631D01*
X017786Y031729D02*
X017895Y031729D01*
X017895Y031828D02*
X017786Y031828D01*
X017760Y031926D02*
X017921Y031926D01*
X017962Y032025D02*
X017719Y032025D01*
X017622Y032123D02*
X018059Y032123D01*
X020193Y030350D02*
X020237Y030350D01*
X020208Y030252D02*
X020193Y030252D01*
X020193Y030153D02*
X020215Y030153D01*
X020193Y030055D02*
X020261Y030055D01*
X017590Y027691D02*
X017097Y027691D01*
X017229Y027592D02*
X017457Y027592D01*
X017413Y027494D02*
X017273Y027494D01*
X017278Y027395D02*
X017408Y027395D01*
X017438Y027297D02*
X017249Y027297D01*
X017169Y027198D02*
X017517Y027198D01*
X022527Y025228D02*
X036796Y025228D01*
X036891Y025130D02*
X022628Y025130D01*
X022729Y025031D02*
X042829Y025031D01*
X042808Y024982D02*
X042808Y024868D01*
X042852Y024764D01*
X042932Y024683D01*
X043037Y024640D01*
X043150Y024640D01*
X043255Y024683D01*
X043335Y024764D01*
X043378Y024868D01*
X043378Y024982D01*
X043335Y025086D01*
X043255Y025167D01*
X043150Y025210D01*
X043037Y025210D01*
X042932Y025167D01*
X042852Y025086D01*
X042808Y024982D01*
X042808Y024933D02*
X022830Y024933D01*
X022931Y024834D02*
X042822Y024834D01*
X042880Y024736D02*
X023032Y024736D01*
X023437Y024342D02*
X026293Y024342D01*
X026293Y024243D02*
X023538Y024243D01*
X023639Y024145D02*
X026293Y024145D01*
X026293Y024046D02*
X023740Y024046D01*
X023841Y023948D02*
X026293Y023948D01*
X026293Y023849D02*
X023942Y023849D01*
X024043Y023751D02*
X026293Y023751D01*
X026293Y023652D02*
X024144Y023652D01*
X024246Y023554D02*
X026293Y023554D01*
X026293Y023455D02*
X024347Y023455D01*
X024448Y023357D02*
X024937Y023357D01*
X024840Y023258D02*
X024549Y023258D01*
X024650Y023160D02*
X024799Y023160D01*
X024778Y023061D02*
X024751Y023061D01*
X025450Y023357D02*
X026293Y023357D01*
X026293Y023258D02*
X025547Y023258D01*
X025588Y023160D02*
X026293Y023160D01*
X026293Y023061D02*
X025609Y023061D01*
X025609Y022963D02*
X026293Y022963D01*
X026293Y022864D02*
X025577Y022864D01*
X027993Y019712D02*
X054293Y019712D01*
X054293Y019614D02*
X027993Y019614D01*
X027993Y019515D02*
X054293Y019515D01*
X054293Y019417D02*
X027993Y019417D01*
X027993Y019318D02*
X054293Y019318D01*
X054293Y019220D02*
X028995Y019220D01*
X029080Y019121D02*
X054293Y019121D01*
X054293Y019023D02*
X029121Y019023D01*
X029130Y018924D02*
X054293Y018924D01*
X054293Y018826D02*
X029120Y018826D01*
X029079Y018727D02*
X038307Y018727D01*
X038282Y018717D02*
X038218Y018653D01*
X038205Y018667D01*
X038100Y018710D01*
X037987Y018710D01*
X037882Y018667D01*
X037802Y018586D01*
X037758Y018482D01*
X037758Y018368D01*
X037802Y018264D01*
X037882Y018183D01*
X037987Y018140D01*
X038100Y018140D01*
X038205Y018183D01*
X038268Y018247D01*
X038282Y018233D01*
X038387Y018190D01*
X038500Y018190D01*
X038605Y018233D01*
X038685Y018314D01*
X038728Y018418D01*
X038728Y018532D01*
X038685Y018636D01*
X038605Y018717D01*
X038500Y018760D01*
X038387Y018760D01*
X038282Y018717D01*
X038580Y018727D02*
X038957Y018727D01*
X038932Y018717D02*
X039037Y018760D01*
X039150Y018760D01*
X039255Y018717D01*
X039335Y018636D01*
X039378Y018532D01*
X039378Y018418D01*
X039335Y018314D01*
X039255Y018233D01*
X039150Y018190D01*
X039037Y018190D01*
X038932Y018233D01*
X038852Y018314D01*
X038808Y018418D01*
X038808Y018532D01*
X038852Y018636D01*
X038932Y018717D01*
X038848Y018629D02*
X038688Y018629D01*
X038728Y018530D02*
X038808Y018530D01*
X038808Y018432D02*
X038728Y018432D01*
X038693Y018333D02*
X038844Y018333D01*
X038931Y018235D02*
X038606Y018235D01*
X038281Y018235D02*
X038256Y018235D01*
X037831Y018235D02*
X028503Y018235D01*
X028503Y018136D02*
X054293Y018136D01*
X054293Y018038D02*
X028503Y018038D01*
X028503Y017939D02*
X054293Y017939D01*
X054293Y017841D02*
X028503Y017841D01*
X028503Y017742D02*
X036957Y017742D01*
X036982Y017767D02*
X036902Y017686D01*
X036858Y017582D01*
X036858Y017468D01*
X036902Y017364D01*
X036982Y017283D01*
X037087Y017240D01*
X037200Y017240D01*
X037305Y017283D01*
X037385Y017364D01*
X037428Y017468D01*
X037428Y017582D01*
X037385Y017686D01*
X037305Y017767D01*
X037200Y017810D01*
X037087Y017810D01*
X036982Y017767D01*
X036884Y017644D02*
X032878Y017644D01*
X032855Y017667D02*
X032750Y017710D01*
X032637Y017710D01*
X032532Y017667D01*
X032452Y017586D01*
X032408Y017482D01*
X032408Y017368D01*
X032452Y017264D01*
X032532Y017183D01*
X032637Y017140D01*
X032750Y017140D01*
X032855Y017183D01*
X032935Y017264D01*
X032978Y017368D01*
X032978Y017482D01*
X032935Y017586D01*
X032855Y017667D01*
X032952Y017545D02*
X036858Y017545D01*
X036867Y017447D02*
X035883Y017447D01*
X035850Y017460D02*
X035737Y017460D01*
X035632Y017417D01*
X035552Y017336D01*
X035508Y017232D01*
X035508Y017118D01*
X035552Y017014D01*
X035632Y016933D01*
X035737Y016890D01*
X035850Y016890D01*
X035955Y016933D01*
X036035Y017014D01*
X036078Y017118D01*
X036078Y017232D01*
X036035Y017336D01*
X035955Y017417D01*
X035850Y017460D01*
X035704Y017447D02*
X033425Y017447D01*
X033405Y017467D02*
X033300Y017510D01*
X033187Y017510D01*
X033082Y017467D01*
X033002Y017386D01*
X032958Y017282D01*
X032958Y017168D01*
X033002Y017064D01*
X033082Y016983D01*
X033187Y016940D01*
X033300Y016940D01*
X033405Y016983D01*
X033485Y017064D01*
X033528Y017168D01*
X033528Y017282D01*
X033485Y017386D01*
X033405Y017467D01*
X033501Y017348D02*
X035563Y017348D01*
X035516Y017250D02*
X033528Y017250D01*
X033521Y017151D02*
X035508Y017151D01*
X035536Y017053D02*
X033474Y017053D01*
X033334Y016954D02*
X035611Y016954D01*
X035975Y016954D02*
X036335Y016954D01*
X036352Y016914D02*
X036432Y016833D01*
X036537Y016790D01*
X036650Y016790D01*
X036755Y016833D01*
X036835Y016914D01*
X036878Y017018D01*
X036878Y017132D01*
X036835Y017236D01*
X036755Y017317D01*
X036650Y017360D01*
X036537Y017360D01*
X036432Y017317D01*
X036352Y017236D01*
X036308Y017132D01*
X036308Y017018D01*
X036352Y016914D01*
X036410Y016856D02*
X028503Y016856D01*
X028503Y016954D02*
X033153Y016954D01*
X033013Y017053D02*
X028503Y017053D01*
X028503Y017151D02*
X032610Y017151D01*
X032777Y017151D02*
X032965Y017151D01*
X032958Y017250D02*
X032921Y017250D01*
X032970Y017348D02*
X032986Y017348D01*
X032978Y017447D02*
X033062Y017447D01*
X032509Y017644D02*
X028503Y017644D01*
X028503Y017545D02*
X032435Y017545D01*
X032408Y017447D02*
X028503Y017447D01*
X028503Y017348D02*
X032417Y017348D01*
X032466Y017250D02*
X028503Y017250D01*
X028503Y016757D02*
X054293Y016757D01*
X054293Y016659D02*
X028503Y016659D01*
X028503Y016560D02*
X054293Y016560D01*
X054293Y016462D02*
X028503Y016462D01*
X028503Y016363D02*
X054293Y016363D01*
X054293Y016265D02*
X028503Y016265D01*
X028503Y016166D02*
X054293Y016166D01*
X054293Y016068D02*
X028464Y016068D01*
X028376Y015969D02*
X054293Y015969D01*
X054293Y015871D02*
X028277Y015871D01*
X028369Y015962D02*
X028369Y015962D01*
X028179Y015772D02*
X054293Y015772D01*
X054293Y015674D02*
X037388Y015674D01*
X037405Y015667D02*
X037300Y015710D01*
X037187Y015710D01*
X037082Y015667D01*
X037002Y015586D01*
X036958Y015482D01*
X036958Y015368D01*
X037002Y015264D01*
X037082Y015183D01*
X037187Y015140D01*
X037300Y015140D01*
X037405Y015183D01*
X037485Y015264D01*
X037528Y015368D01*
X037528Y015482D01*
X037485Y015586D01*
X037405Y015667D01*
X037490Y015575D02*
X054293Y015575D01*
X054293Y015477D02*
X037528Y015477D01*
X037528Y015378D02*
X054293Y015378D01*
X054293Y015280D02*
X037492Y015280D01*
X037399Y015181D02*
X054293Y015181D01*
X054293Y015083D02*
X036978Y015083D01*
X036978Y015082D02*
X036935Y015186D01*
X036855Y015267D01*
X036750Y015310D01*
X036637Y015310D01*
X036532Y015267D01*
X036452Y015186D01*
X036408Y015082D01*
X036408Y014968D01*
X036452Y014864D01*
X036532Y014783D01*
X036637Y014740D01*
X036750Y014740D01*
X036855Y014783D01*
X036935Y014864D01*
X036978Y014968D01*
X036978Y015082D01*
X036978Y014984D02*
X054293Y014984D01*
X054293Y014886D02*
X036944Y014886D01*
X036858Y014787D02*
X054293Y014787D01*
X054293Y014689D02*
X023545Y014689D01*
X023596Y014739D02*
X023479Y014623D01*
X023326Y014559D01*
X023161Y014559D01*
X023008Y014623D01*
X022891Y014739D01*
X022828Y014892D01*
X022828Y015058D01*
X022891Y015211D01*
X023008Y015327D01*
X023161Y015391D01*
X023326Y015391D01*
X023479Y015327D01*
X023596Y015211D01*
X023659Y015058D01*
X023659Y014892D01*
X023596Y014739D01*
X023615Y014787D02*
X036528Y014787D01*
X036443Y014886D02*
X036057Y014886D01*
X036055Y014883D02*
X036135Y014964D01*
X036178Y015068D01*
X036178Y015182D01*
X036135Y015286D01*
X036055Y015367D01*
X035950Y015410D01*
X035837Y015410D01*
X035732Y015367D01*
X035652Y015286D01*
X035608Y015182D01*
X035608Y015068D01*
X035652Y014964D01*
X035732Y014883D01*
X035837Y014840D01*
X035950Y014840D01*
X036055Y014883D01*
X036143Y014984D02*
X036408Y014984D01*
X036409Y015083D02*
X036178Y015083D01*
X036178Y015181D02*
X036449Y015181D01*
X036563Y015280D02*
X036138Y015280D01*
X036027Y015378D02*
X036958Y015378D01*
X036958Y015477D02*
X031267Y015477D01*
X031281Y015442D02*
X031230Y015567D01*
X031135Y015662D01*
X031011Y015713D01*
X030876Y015713D01*
X030752Y015662D01*
X030657Y015567D01*
X030605Y015442D01*
X030605Y015308D01*
X030657Y015183D01*
X030752Y015088D01*
X030876Y015037D01*
X031011Y015037D01*
X031135Y015088D01*
X031230Y015183D01*
X031281Y015308D01*
X031281Y015442D01*
X031281Y015378D02*
X035759Y015378D01*
X035649Y015280D02*
X031270Y015280D01*
X031227Y015181D02*
X035608Y015181D01*
X035608Y015083D02*
X031121Y015083D01*
X030766Y015083D02*
X023649Y015083D01*
X023659Y014984D02*
X035643Y014984D01*
X035730Y014886D02*
X023656Y014886D01*
X023608Y015181D02*
X030659Y015181D01*
X030617Y015280D02*
X023527Y015280D01*
X023357Y015378D02*
X030605Y015378D01*
X030619Y015477D02*
X013756Y015477D01*
X013693Y015378D02*
X014568Y015378D01*
X014602Y015412D02*
X014507Y015317D01*
X014455Y015192D01*
X014455Y015058D01*
X014507Y014933D01*
X014602Y014838D01*
X014726Y014787D01*
X014861Y014787D01*
X022871Y014787D01*
X022830Y014886D02*
X015032Y014886D01*
X014985Y014838D02*
X015080Y014933D01*
X015131Y015058D01*
X015131Y015192D01*
X015080Y015317D01*
X014985Y015412D01*
X014861Y015463D01*
X014726Y015463D01*
X014602Y015412D01*
X014491Y015280D02*
X013693Y015280D01*
X013693Y015181D02*
X014455Y015181D01*
X014455Y015083D02*
X013693Y015083D01*
X013693Y014984D02*
X014486Y014984D01*
X014555Y014886D02*
X013693Y014886D01*
X013693Y014787D02*
X014726Y014787D01*
X014861Y014787D02*
X014985Y014838D01*
X015101Y014984D02*
X022828Y014984D01*
X022838Y015083D02*
X015131Y015083D01*
X015131Y015181D02*
X022879Y015181D01*
X022960Y015280D02*
X015095Y015280D01*
X015018Y015378D02*
X023130Y015378D01*
X022942Y014689D02*
X013693Y014689D01*
X013693Y014590D02*
X023086Y014590D01*
X023400Y014590D02*
X054293Y014590D01*
X054293Y014492D02*
X013693Y014492D01*
X013693Y014393D02*
X054293Y014393D01*
X054293Y014295D02*
X013693Y014295D01*
X013693Y014196D02*
X054293Y014196D01*
X054293Y014098D02*
X013693Y014098D01*
X013693Y013999D02*
X054293Y013999D01*
X054293Y013901D02*
X047949Y013901D01*
X047938Y013905D02*
X047548Y013905D01*
X047188Y013756D01*
X046913Y013480D01*
X046763Y013120D01*
X046763Y012730D01*
X046913Y012370D01*
X047188Y012094D01*
X047548Y011945D01*
X047938Y011945D01*
X048298Y012094D01*
X048574Y012370D01*
X048723Y012730D01*
X048723Y013120D01*
X048574Y013480D01*
X048298Y013756D01*
X047938Y013905D01*
X048187Y013802D02*
X054293Y013802D01*
X054293Y013704D02*
X048351Y013704D01*
X048449Y013605D02*
X054293Y013605D01*
X054293Y013507D02*
X048548Y013507D01*
X048604Y013408D02*
X054293Y013408D01*
X054293Y013310D02*
X048645Y013310D01*
X048685Y013211D02*
X054293Y013211D01*
X054293Y013113D02*
X048723Y013113D01*
X048723Y013014D02*
X054293Y013014D01*
X054293Y012916D02*
X048723Y012916D01*
X048723Y012817D02*
X054293Y012817D01*
X054293Y012719D02*
X048718Y012719D01*
X048678Y012620D02*
X054293Y012620D01*
X054293Y012522D02*
X048637Y012522D01*
X048596Y012423D02*
X054293Y012423D01*
X054293Y012325D02*
X048529Y012325D01*
X048430Y012226D02*
X054293Y012226D01*
X054293Y012128D02*
X048332Y012128D01*
X048141Y012029D02*
X054293Y012029D01*
X054293Y011931D02*
X015016Y011931D01*
X015031Y011892D02*
X014980Y012017D01*
X014885Y012112D01*
X014761Y012163D01*
X014626Y012163D01*
X014502Y012112D01*
X014407Y012017D01*
X014355Y011892D01*
X014355Y011758D01*
X014407Y011633D01*
X014502Y011538D01*
X014626Y011487D01*
X014761Y011487D01*
X014885Y011538D01*
X014980Y011633D01*
X015031Y011758D01*
X015031Y011892D01*
X015031Y011832D02*
X054293Y011832D01*
X054293Y011734D02*
X018681Y011734D01*
X018662Y011752D02*
X018520Y011811D01*
X018366Y011811D01*
X018225Y011752D01*
X018116Y011644D01*
X018057Y011502D01*
X018057Y011348D01*
X018116Y011206D01*
X018225Y011098D01*
X018366Y011039D01*
X018520Y011039D01*
X018662Y011098D01*
X018771Y011206D01*
X018830Y011348D01*
X018830Y011502D01*
X018771Y011644D01*
X018662Y011752D01*
X018774Y011635D02*
X054293Y011635D01*
X054293Y011537D02*
X018815Y011537D01*
X018830Y011438D02*
X054293Y011438D01*
X054293Y011340D02*
X050430Y011340D01*
X050261Y011410D02*
X049879Y011410D01*
X049526Y011263D01*
X049256Y010993D01*
X049109Y010640D01*
X049109Y010258D01*
X049256Y009905D01*
X049526Y009635D01*
X049879Y009489D01*
X050261Y009489D01*
X050614Y009635D01*
X050884Y009905D01*
X051030Y010258D01*
X051030Y010640D01*
X050884Y010993D01*
X050614Y011263D01*
X050261Y011410D01*
X050636Y011241D02*
X054293Y011241D01*
X054293Y011143D02*
X050735Y011143D01*
X050833Y011044D02*
X054293Y011044D01*
X054293Y010946D02*
X050904Y010946D01*
X050944Y010847D02*
X054293Y010847D01*
X054293Y010749D02*
X050985Y010749D01*
X051026Y010650D02*
X054293Y010650D01*
X054293Y010552D02*
X051030Y010552D01*
X051030Y010453D02*
X054293Y010453D01*
X054293Y010355D02*
X051030Y010355D01*
X051029Y010256D02*
X054293Y010256D01*
X054293Y010158D02*
X050988Y010158D01*
X050947Y010059D02*
X054293Y010059D01*
X054293Y009961D02*
X050907Y009961D01*
X050840Y009862D02*
X054293Y009862D01*
X054293Y009764D02*
X050742Y009764D01*
X050643Y009665D02*
X054293Y009665D01*
X054293Y009567D02*
X050447Y009567D01*
X050231Y008900D02*
X049908Y008900D01*
X049609Y008776D01*
X049381Y008548D01*
X049257Y008249D01*
X049257Y007926D01*
X049381Y007627D01*
X049609Y007398D01*
X049768Y007333D01*
X049633Y007198D01*
X049555Y007009D01*
X049555Y006804D01*
X049633Y006614D01*
X049778Y006470D01*
X049967Y006391D01*
X050172Y006391D01*
X050361Y006470D01*
X050506Y006614D01*
X050585Y006804D01*
X050585Y007009D01*
X050506Y007198D01*
X050371Y007333D01*
X050530Y007398D01*
X050759Y007627D01*
X050882Y007926D01*
X050882Y008249D01*
X050759Y008548D01*
X050530Y008776D01*
X050231Y008900D01*
X050286Y008877D02*
X051496Y008877D01*
X051353Y008818D02*
X051111Y008575D01*
X050980Y008259D01*
X050980Y007916D01*
X051111Y007599D01*
X051353Y007357D01*
X051670Y007225D01*
X052013Y007225D01*
X052330Y007357D01*
X052572Y007599D01*
X052703Y007916D01*
X052703Y008259D01*
X052572Y008575D01*
X052330Y008818D01*
X052013Y008949D01*
X051670Y008949D01*
X051353Y008818D01*
X051314Y008779D02*
X050524Y008779D01*
X050626Y008680D02*
X051215Y008680D01*
X051117Y008582D02*
X050725Y008582D01*
X050785Y008483D02*
X051072Y008483D01*
X051032Y008385D02*
X050826Y008385D01*
X050867Y008286D02*
X050991Y008286D01*
X050980Y008188D02*
X050882Y008188D01*
X050882Y008089D02*
X050980Y008089D01*
X050980Y007991D02*
X050882Y007991D01*
X050868Y007892D02*
X050989Y007892D01*
X051030Y007794D02*
X050828Y007794D01*
X050787Y007695D02*
X051071Y007695D01*
X051113Y007597D02*
X050728Y007597D01*
X050630Y007498D02*
X051212Y007498D01*
X051310Y007400D02*
X050531Y007400D01*
X050403Y007301D02*
X051487Y007301D01*
X050585Y007006D02*
X054293Y007006D01*
X054293Y007104D02*
X050545Y007104D01*
X050502Y007203D02*
X054293Y007203D01*
X054293Y007301D02*
X052195Y007301D01*
X052372Y007400D02*
X054293Y007400D01*
X054293Y007498D02*
X052471Y007498D01*
X052569Y007597D02*
X054293Y007597D01*
X054293Y007695D02*
X052612Y007695D01*
X052653Y007794D02*
X054293Y007794D01*
X054293Y007892D02*
X052693Y007892D01*
X052703Y007991D02*
X054293Y007991D01*
X054293Y008089D02*
X052703Y008089D01*
X052703Y008188D02*
X054293Y008188D01*
X054293Y008286D02*
X052692Y008286D01*
X052651Y008385D02*
X054293Y008385D01*
X054293Y008483D02*
X052610Y008483D01*
X052566Y008582D02*
X054293Y008582D01*
X054293Y008680D02*
X052467Y008680D01*
X052369Y008779D02*
X054293Y008779D01*
X054293Y008877D02*
X052187Y008877D01*
X054293Y008976D02*
X043893Y008976D01*
X043893Y009074D02*
X054293Y009074D01*
X054293Y009173D02*
X043882Y009173D01*
X043893Y009144D02*
X043764Y009456D01*
X043525Y009696D01*
X043212Y009825D01*
X042874Y009825D01*
X042562Y009696D01*
X042323Y009456D01*
X042193Y009144D01*
X042193Y008806D01*
X042323Y008494D01*
X042562Y008254D01*
X042874Y008125D01*
X043212Y008125D01*
X043525Y008254D01*
X043764Y008494D01*
X043893Y008806D01*
X043893Y009144D01*
X043841Y009271D02*
X054293Y009271D01*
X054293Y009370D02*
X043800Y009370D01*
X043752Y009468D02*
X054293Y009468D01*
X054293Y006907D02*
X050585Y006907D01*
X050585Y006809D02*
X054293Y006809D01*
X054293Y006710D02*
X050546Y006710D01*
X050503Y006612D02*
X054293Y006612D01*
X054293Y006513D02*
X050405Y006513D01*
X050229Y006415D02*
X054293Y006415D01*
X054293Y006316D02*
X046795Y006316D01*
X046809Y006350D02*
X046752Y006211D01*
X046646Y006105D01*
X046507Y006048D01*
X046357Y006048D01*
X046218Y006105D01*
X046112Y006211D01*
X046055Y006350D01*
X046055Y006500D01*
X046112Y006639D01*
X046218Y006745D01*
X046357Y006802D01*
X046507Y006802D01*
X046646Y006745D01*
X046752Y006639D01*
X046809Y006500D01*
X046809Y006350D01*
X046809Y006415D02*
X049911Y006415D01*
X049735Y006513D02*
X046804Y006513D01*
X046763Y006612D02*
X049636Y006612D01*
X049594Y006710D02*
X046680Y006710D01*
X046184Y006710D02*
X044003Y006710D01*
X043968Y006745D02*
X043830Y006802D01*
X043680Y006802D01*
X043541Y006745D01*
X043435Y006639D01*
X043378Y006500D01*
X043378Y006350D01*
X043435Y006211D01*
X043541Y006105D01*
X043680Y006048D01*
X043830Y006048D01*
X043968Y006105D01*
X044074Y006211D01*
X044132Y006350D01*
X044132Y006500D01*
X044074Y006639D01*
X043968Y006745D01*
X044086Y006612D02*
X046101Y006612D01*
X046060Y006513D02*
X044127Y006513D01*
X044132Y006415D02*
X046055Y006415D01*
X046069Y006316D02*
X044118Y006316D01*
X044077Y006218D02*
X046110Y006218D01*
X046204Y006119D02*
X043982Y006119D01*
X043527Y006119D02*
X042395Y006119D01*
X042463Y006147D02*
X042671Y006356D01*
X042784Y006628D01*
X042784Y006922D01*
X042671Y007194D01*
X042463Y007403D01*
X042191Y007516D01*
X041896Y007516D01*
X041624Y007403D01*
X041415Y007194D01*
X041303Y006922D01*
X041303Y006628D01*
X041415Y006356D01*
X041624Y006147D01*
X041896Y006034D01*
X042191Y006034D01*
X042463Y006147D01*
X042533Y006218D02*
X043432Y006218D01*
X043392Y006316D02*
X042632Y006316D01*
X042696Y006415D02*
X043378Y006415D01*
X043383Y006513D02*
X042736Y006513D01*
X042777Y006612D02*
X043424Y006612D01*
X043506Y006710D02*
X042784Y006710D01*
X042784Y006809D02*
X049555Y006809D01*
X049555Y006907D02*
X042784Y006907D01*
X042749Y007006D02*
X049555Y007006D01*
X049594Y007104D02*
X042709Y007104D01*
X042663Y007203D02*
X049638Y007203D01*
X049736Y007301D02*
X048652Y007301D01*
X048786Y007357D02*
X049029Y007599D01*
X049160Y007916D01*
X049160Y008259D01*
X049029Y008575D01*
X048786Y008818D01*
X048469Y008949D01*
X048127Y008949D01*
X047810Y008818D01*
X047567Y008575D01*
X047436Y008259D01*
X047436Y007916D01*
X047567Y007599D01*
X047810Y007357D01*
X048127Y007225D01*
X048469Y007225D01*
X048786Y007357D01*
X048829Y007400D02*
X049608Y007400D01*
X049510Y007498D02*
X048928Y007498D01*
X049026Y007597D02*
X049411Y007597D01*
X049353Y007695D02*
X049068Y007695D01*
X049109Y007794D02*
X049312Y007794D01*
X049271Y007892D02*
X049150Y007892D01*
X049160Y007991D02*
X049257Y007991D01*
X049257Y008089D02*
X049160Y008089D01*
X049160Y008188D02*
X049257Y008188D01*
X049272Y008286D02*
X049149Y008286D01*
X049108Y008385D02*
X049313Y008385D01*
X049354Y008483D02*
X049067Y008483D01*
X049023Y008582D02*
X049415Y008582D01*
X049513Y008680D02*
X048924Y008680D01*
X048826Y008779D02*
X049615Y008779D01*
X049853Y008877D02*
X048643Y008877D01*
X047953Y008877D02*
X043893Y008877D01*
X043882Y008779D02*
X047771Y008779D01*
X047672Y008680D02*
X043841Y008680D01*
X043800Y008582D02*
X044897Y008582D01*
X044932Y008617D02*
X044852Y008536D01*
X044808Y008432D01*
X044808Y008318D01*
X044852Y008214D01*
X044932Y008133D01*
X045037Y008090D01*
X045150Y008090D01*
X045255Y008133D01*
X045335Y008214D01*
X045378Y008318D01*
X045378Y008432D01*
X045335Y008536D01*
X045255Y008617D01*
X045150Y008660D01*
X045037Y008660D01*
X044932Y008617D01*
X044830Y008483D02*
X043753Y008483D01*
X043655Y008385D02*
X044808Y008385D01*
X044822Y008286D02*
X043556Y008286D01*
X043363Y008188D02*
X044878Y008188D01*
X045309Y008188D02*
X047436Y008188D01*
X047448Y008286D02*
X045365Y008286D01*
X045378Y008385D02*
X047488Y008385D01*
X047529Y008483D02*
X045357Y008483D01*
X045290Y008582D02*
X047574Y008582D01*
X047436Y008089D02*
X024243Y008089D01*
X024243Y007991D02*
X047436Y007991D01*
X047446Y007892D02*
X024243Y007892D01*
X024243Y007794D02*
X047487Y007794D01*
X047528Y007695D02*
X024243Y007695D01*
X024243Y007597D02*
X047570Y007597D01*
X047668Y007498D02*
X042233Y007498D01*
X042466Y007400D02*
X047767Y007400D01*
X047944Y007301D02*
X042565Y007301D01*
X041854Y007498D02*
X024168Y007498D01*
X024073Y007400D02*
X041621Y007400D01*
X041522Y007301D02*
X039329Y007301D01*
X039217Y007347D02*
X038969Y007347D01*
X038741Y007253D01*
X038566Y007078D01*
X038471Y006849D01*
X038471Y006601D01*
X038566Y006372D01*
X038741Y006197D01*
X038969Y006103D01*
X039217Y006103D01*
X039446Y006197D01*
X039621Y006372D01*
X039716Y006601D01*
X039716Y006849D01*
X039621Y007078D01*
X039446Y007253D01*
X039217Y007347D01*
X039496Y007203D02*
X041424Y007203D01*
X041378Y007104D02*
X039595Y007104D01*
X039651Y007006D02*
X041337Y007006D01*
X041303Y006907D02*
X039692Y006907D01*
X039716Y006809D02*
X041303Y006809D01*
X041303Y006710D02*
X039716Y006710D01*
X039716Y006612D02*
X041309Y006612D01*
X041350Y006513D02*
X039679Y006513D01*
X039638Y006415D02*
X041391Y006415D01*
X041455Y006316D02*
X039565Y006316D01*
X039466Y006218D02*
X041554Y006218D01*
X041692Y006119D02*
X039257Y006119D01*
X038930Y006119D02*
X031757Y006119D01*
X031717Y006103D02*
X031946Y006197D01*
X032121Y006372D01*
X032216Y006601D01*
X032216Y006849D01*
X032121Y007078D01*
X031946Y007253D01*
X031717Y007347D01*
X031469Y007347D01*
X031241Y007253D01*
X031066Y007078D01*
X030971Y006849D01*
X030971Y006601D01*
X031066Y006372D01*
X031241Y006197D01*
X031469Y006103D01*
X031717Y006103D01*
X031966Y006218D02*
X038721Y006218D01*
X038622Y006316D02*
X032065Y006316D01*
X032138Y006415D02*
X038548Y006415D01*
X038507Y006513D02*
X032179Y006513D01*
X032216Y006612D02*
X038471Y006612D01*
X038471Y006710D02*
X032216Y006710D01*
X032216Y006809D02*
X038471Y006809D01*
X038495Y006907D02*
X032192Y006907D01*
X032151Y007006D02*
X038536Y007006D01*
X038592Y007104D02*
X032095Y007104D01*
X031996Y007203D02*
X038691Y007203D01*
X038857Y007301D02*
X031829Y007301D01*
X031357Y007301D02*
X023977Y007301D01*
X023881Y007203D02*
X031191Y007203D01*
X031092Y007104D02*
X023785Y007104D01*
X023689Y007006D02*
X031036Y007006D01*
X030995Y006907D02*
X023593Y006907D01*
X023498Y006809D02*
X030971Y006809D01*
X030971Y006710D02*
X023402Y006710D01*
X023306Y006612D02*
X030971Y006612D01*
X031007Y006513D02*
X023210Y006513D01*
X023114Y006415D02*
X031048Y006415D01*
X031122Y006316D02*
X023018Y006316D01*
X022922Y006218D02*
X031221Y006218D01*
X031430Y006119D02*
X022827Y006119D01*
X022731Y006021D02*
X054006Y006021D01*
X054104Y006119D02*
X046659Y006119D01*
X046754Y006218D02*
X054203Y006218D01*
X049692Y009567D02*
X043654Y009567D01*
X043555Y009665D02*
X049496Y009665D01*
X049398Y009764D02*
X043361Y009764D01*
X042726Y009764D02*
X036773Y009764D01*
X036781Y009742D02*
X036730Y009867D01*
X036696Y009900D01*
X036730Y009933D01*
X036781Y010058D01*
X036781Y010192D01*
X036730Y010317D01*
X036696Y010350D01*
X036730Y010383D01*
X036781Y010508D01*
X036781Y010642D01*
X036730Y010767D01*
X036696Y010800D01*
X036730Y010833D01*
X036781Y010958D01*
X036781Y011092D01*
X036730Y011217D01*
X036635Y011312D01*
X036511Y011363D01*
X036376Y011363D01*
X036252Y011312D01*
X036157Y011217D01*
X036105Y011092D01*
X036105Y010958D01*
X036157Y010833D01*
X036190Y010800D01*
X036157Y010767D01*
X036105Y010642D01*
X036105Y010508D01*
X036157Y010383D01*
X036190Y010350D01*
X036157Y010317D01*
X036105Y010192D01*
X036105Y010058D01*
X036137Y009982D01*
X036061Y010013D01*
X035926Y010013D01*
X035802Y009962D01*
X035768Y009928D01*
X035735Y009962D01*
X035611Y010013D01*
X035476Y010013D01*
X035352Y009962D01*
X035318Y009928D01*
X035285Y009962D01*
X035161Y010013D01*
X035026Y010013D01*
X034902Y009962D01*
X034868Y009928D01*
X034835Y009962D01*
X034711Y010013D01*
X034576Y010013D01*
X034500Y009982D01*
X034531Y010058D01*
X034531Y010192D01*
X034480Y010317D01*
X034446Y010350D01*
X034480Y010383D01*
X034531Y010508D01*
X034531Y010642D01*
X034480Y010767D01*
X034446Y010800D01*
X034480Y010833D01*
X034531Y010958D01*
X034531Y011092D01*
X034480Y011217D01*
X034385Y011312D01*
X034261Y011363D01*
X034126Y011363D01*
X034002Y011312D01*
X033907Y011217D01*
X033855Y011092D01*
X033855Y010958D01*
X033907Y010833D01*
X033940Y010800D01*
X033907Y010767D01*
X033855Y010642D01*
X033855Y010508D01*
X033907Y010383D01*
X033940Y010350D01*
X033907Y010317D01*
X033855Y010192D01*
X033855Y010058D01*
X033907Y009933D01*
X033940Y009900D01*
X033907Y009867D01*
X033855Y009742D01*
X033855Y009608D01*
X033907Y009483D01*
X034002Y009388D01*
X034126Y009337D01*
X034261Y009337D01*
X034385Y009388D01*
X034418Y009422D01*
X034452Y009388D01*
X034576Y009337D01*
X034711Y009337D01*
X034835Y009388D01*
X034868Y009422D01*
X034902Y009388D01*
X035026Y009337D01*
X035161Y009337D01*
X035285Y009388D01*
X035318Y009422D01*
X035352Y009388D01*
X035476Y009337D01*
X035611Y009337D01*
X035735Y009388D01*
X035768Y009422D01*
X035802Y009388D01*
X035926Y009337D01*
X036061Y009337D01*
X036185Y009388D01*
X036218Y009422D01*
X036252Y009388D01*
X036376Y009337D01*
X036511Y009337D01*
X036635Y009388D01*
X036730Y009483D01*
X036781Y009608D01*
X036781Y009742D01*
X036781Y009665D02*
X042531Y009665D01*
X042433Y009567D02*
X036764Y009567D01*
X036714Y009468D02*
X042334Y009468D01*
X042287Y009370D02*
X036589Y009370D01*
X036297Y009370D02*
X036139Y009370D01*
X035847Y009370D02*
X035689Y009370D01*
X035397Y009370D02*
X035239Y009370D01*
X034947Y009370D02*
X034789Y009370D01*
X034497Y009370D02*
X034339Y009370D01*
X034047Y009370D02*
X026450Y009370D01*
X026425Y009430D02*
X026298Y009556D01*
X026133Y009625D01*
X025954Y009625D01*
X025788Y009556D01*
X025662Y009430D01*
X025593Y009265D01*
X025593Y009085D01*
X025662Y008920D01*
X025788Y008794D01*
X025954Y008725D01*
X026133Y008725D01*
X026298Y008794D01*
X026425Y008920D01*
X026493Y009085D01*
X026493Y009265D01*
X026425Y009430D01*
X026387Y009468D02*
X033922Y009468D01*
X033872Y009567D02*
X026274Y009567D01*
X026226Y009764D02*
X033864Y009764D01*
X033855Y009665D02*
X013693Y009665D01*
X013693Y009567D02*
X021813Y009567D01*
X021788Y009556D02*
X021662Y009430D01*
X021593Y009265D01*
X021593Y009085D01*
X021662Y008920D01*
X021788Y008794D01*
X021954Y008725D01*
X022133Y008725D01*
X022298Y008794D01*
X022425Y008920D01*
X022493Y009085D01*
X022493Y009265D01*
X022425Y009430D01*
X022298Y009556D01*
X022133Y009625D01*
X021954Y009625D01*
X021788Y009556D01*
X021700Y009468D02*
X018959Y009468D01*
X018906Y009490D02*
X018606Y009490D01*
X018328Y009375D01*
X018116Y009163D01*
X018001Y008885D01*
X018001Y008585D01*
X018116Y008307D01*
X018328Y008095D01*
X018606Y007980D01*
X018906Y007980D01*
X019183Y008095D01*
X019396Y008307D01*
X019511Y008585D01*
X019511Y008885D01*
X019396Y009163D01*
X019183Y009375D01*
X018906Y009490D01*
X019189Y009370D02*
X021637Y009370D01*
X021596Y009271D02*
X019288Y009271D01*
X019386Y009173D02*
X021593Y009173D01*
X021598Y009074D02*
X019433Y009074D01*
X019473Y008976D02*
X021639Y008976D01*
X021705Y008877D02*
X019511Y008877D01*
X019511Y008779D02*
X021825Y008779D01*
X022262Y008779D02*
X022825Y008779D01*
X022843Y008680D02*
X019511Y008680D01*
X019509Y008582D02*
X022843Y008582D01*
X022843Y008483D02*
X019469Y008483D01*
X019428Y008385D02*
X022843Y008385D01*
X022843Y008286D02*
X019375Y008286D01*
X019276Y008188D02*
X022843Y008188D01*
X022843Y008089D02*
X019169Y008089D01*
X018931Y007991D02*
X022843Y007991D01*
X022843Y007892D02*
X013693Y007892D01*
X013693Y007794D02*
X022843Y007794D01*
X022843Y007695D02*
X013693Y007695D01*
X013693Y007597D02*
X022843Y007597D01*
X022843Y007498D02*
X013693Y007498D01*
X013693Y007400D02*
X022843Y007400D01*
X022843Y007301D02*
X013693Y007301D01*
X013693Y007203D02*
X022843Y007203D01*
X022843Y007104D02*
X013693Y007104D01*
X012983Y008095D02*
X012706Y007980D01*
X012406Y007980D01*
X012128Y008095D01*
X011916Y008307D01*
X011801Y008585D01*
X011801Y008885D01*
X011916Y009163D01*
X012128Y009375D01*
X012406Y009490D01*
X012706Y009490D01*
X012983Y009375D01*
X013196Y009163D01*
X013311Y008885D01*
X013311Y008585D01*
X013196Y008307D01*
X012983Y008095D01*
X012969Y008089D02*
X013493Y008089D01*
X013493Y007991D02*
X012731Y007991D01*
X012380Y007991D02*
X008706Y007991D01*
X008944Y008089D02*
X012142Y008089D01*
X012036Y008188D02*
X009051Y008188D01*
X009150Y008286D02*
X011937Y008286D01*
X011884Y008385D02*
X009203Y008385D01*
X009244Y008483D02*
X011843Y008483D01*
X011802Y008582D02*
X009284Y008582D01*
X009286Y008680D02*
X011801Y008680D01*
X011801Y008779D02*
X009286Y008779D01*
X009286Y008877D02*
X011801Y008877D01*
X011838Y008976D02*
X009248Y008976D01*
X009208Y009074D02*
X011879Y009074D01*
X011926Y009173D02*
X009161Y009173D01*
X009063Y009271D02*
X012024Y009271D01*
X012123Y009370D02*
X008964Y009370D01*
X008734Y009468D02*
X012353Y009468D01*
X012759Y009468D02*
X013493Y009468D01*
X013493Y009370D02*
X012989Y009370D01*
X013088Y009271D02*
X013493Y009271D01*
X013493Y009173D02*
X013186Y009173D01*
X013233Y009074D02*
X013493Y009074D01*
X013493Y008976D02*
X013273Y008976D01*
X013311Y008877D02*
X013493Y008877D01*
X013493Y008779D02*
X013311Y008779D01*
X013311Y008680D02*
X013493Y008680D01*
X013493Y008582D02*
X013309Y008582D01*
X013269Y008483D02*
X013493Y008483D01*
X013493Y008385D02*
X013228Y008385D01*
X013175Y008286D02*
X013493Y008286D01*
X013493Y008188D02*
X013076Y008188D01*
X013693Y008188D02*
X014211Y008188D01*
X014303Y008095D02*
X014091Y008307D01*
X013976Y008585D01*
X013976Y008885D01*
X014091Y009163D01*
X014303Y009375D01*
X014581Y009490D01*
X014881Y009490D01*
X015158Y009375D01*
X015371Y009163D01*
X015486Y008885D01*
X015486Y008585D01*
X015371Y008307D01*
X015158Y008095D01*
X014881Y007980D01*
X014581Y007980D01*
X014303Y008095D01*
X014317Y008089D02*
X013693Y008089D01*
X013693Y007991D02*
X014555Y007991D01*
X014906Y007991D02*
X018580Y007991D01*
X018342Y008089D02*
X015144Y008089D01*
X015251Y008188D02*
X018236Y008188D01*
X018137Y008286D02*
X015350Y008286D01*
X015403Y008385D02*
X018084Y008385D01*
X018043Y008483D02*
X015444Y008483D01*
X015484Y008582D02*
X018002Y008582D01*
X018001Y008680D02*
X015486Y008680D01*
X015486Y008779D02*
X018001Y008779D01*
X018001Y008877D02*
X015486Y008877D01*
X015448Y008976D02*
X018038Y008976D01*
X018079Y009074D02*
X015408Y009074D01*
X015361Y009173D02*
X018126Y009173D01*
X018224Y009271D02*
X015263Y009271D01*
X015164Y009370D02*
X018323Y009370D01*
X018553Y009468D02*
X014934Y009468D01*
X014528Y009468D02*
X013693Y009468D01*
X013693Y009370D02*
X014298Y009370D01*
X014199Y009271D02*
X013693Y009271D01*
X013693Y009173D02*
X014101Y009173D01*
X014054Y009074D02*
X013693Y009074D01*
X013693Y008976D02*
X014013Y008976D01*
X013976Y008877D02*
X013693Y008877D01*
X013693Y008779D02*
X013976Y008779D01*
X013976Y008680D02*
X013693Y008680D01*
X013693Y008582D02*
X013977Y008582D01*
X014018Y008483D02*
X013693Y008483D01*
X013693Y008385D02*
X014059Y008385D01*
X014112Y008286D02*
X013693Y008286D01*
X013693Y009764D02*
X021861Y009764D01*
X021788Y009794D02*
X021954Y009725D01*
X022133Y009725D01*
X022298Y009794D01*
X022425Y009920D01*
X022493Y010085D01*
X022493Y010265D01*
X022425Y010430D01*
X022298Y010556D01*
X022133Y010625D01*
X021954Y010625D01*
X021788Y010556D01*
X021662Y010430D01*
X021593Y010265D01*
X021593Y010085D01*
X021662Y009920D01*
X021788Y009794D01*
X021720Y009862D02*
X013693Y009862D01*
X013693Y009961D02*
X021645Y009961D01*
X021604Y010059D02*
X013693Y010059D01*
X013693Y010158D02*
X021593Y010158D01*
X021593Y010256D02*
X013693Y010256D01*
X013693Y010355D02*
X021631Y010355D01*
X021685Y010453D02*
X013693Y010453D01*
X013693Y010552D02*
X021783Y010552D01*
X022303Y010552D02*
X023783Y010552D01*
X023788Y010556D02*
X023662Y010430D01*
X023593Y010265D01*
X023593Y010085D01*
X023662Y009920D01*
X023788Y009794D01*
X023954Y009725D01*
X024133Y009725D01*
X024298Y009794D01*
X024425Y009920D01*
X024493Y010085D01*
X024493Y010265D01*
X024425Y010430D01*
X024298Y010556D01*
X024133Y010625D01*
X023954Y010625D01*
X023788Y010556D01*
X023685Y010453D02*
X022402Y010453D01*
X022456Y010355D02*
X023631Y010355D01*
X023593Y010256D02*
X022493Y010256D01*
X022493Y010158D02*
X023593Y010158D01*
X023604Y010059D02*
X022482Y010059D01*
X022442Y009961D02*
X023645Y009961D01*
X023720Y009862D02*
X022367Y009862D01*
X022226Y009764D02*
X023861Y009764D01*
X023813Y009567D02*
X023274Y009567D01*
X023387Y009468D02*
X023700Y009468D01*
X024274Y009567D02*
X024813Y009567D01*
X024788Y009556D02*
X024662Y009430D01*
X024593Y009265D01*
X024593Y009085D01*
X024662Y008920D01*
X024788Y008794D01*
X024954Y008725D01*
X025133Y008725D01*
X025298Y008794D01*
X025425Y008920D01*
X025493Y009085D01*
X025493Y009265D01*
X025425Y009430D01*
X025298Y009556D01*
X025133Y009625D01*
X024954Y009625D01*
X024788Y009556D01*
X024700Y009468D02*
X024387Y009468D01*
X024450Y009370D02*
X024637Y009370D01*
X024596Y009271D02*
X024491Y009271D01*
X024493Y009173D02*
X024593Y009173D01*
X024598Y009074D02*
X024489Y009074D01*
X024448Y008976D02*
X024639Y008976D01*
X024705Y008877D02*
X024382Y008877D01*
X024262Y008779D02*
X024825Y008779D01*
X025262Y008779D02*
X025825Y008779D01*
X025705Y008877D02*
X025382Y008877D01*
X025448Y008976D02*
X025639Y008976D01*
X025598Y009074D02*
X025489Y009074D01*
X025493Y009173D02*
X025593Y009173D01*
X025596Y009271D02*
X025491Y009271D01*
X025450Y009370D02*
X025637Y009370D01*
X025700Y009468D02*
X025387Y009468D01*
X025274Y009567D02*
X025813Y009567D01*
X025861Y009764D02*
X025226Y009764D01*
X025298Y009794D02*
X025133Y009725D01*
X024954Y009725D01*
X024788Y009794D01*
X024662Y009920D01*
X024593Y010085D01*
X024593Y010265D01*
X024662Y010430D01*
X024788Y010556D01*
X024954Y010625D01*
X025133Y010625D01*
X025298Y010556D01*
X025425Y010430D01*
X025493Y010265D01*
X025493Y010085D01*
X025425Y009920D01*
X025298Y009794D01*
X025367Y009862D02*
X025720Y009862D01*
X025662Y009920D02*
X025788Y009794D01*
X025954Y009725D01*
X026133Y009725D01*
X026298Y009794D01*
X026425Y009920D01*
X026493Y010085D01*
X026493Y010265D01*
X026425Y010430D01*
X026298Y010556D01*
X026133Y010625D01*
X025954Y010625D01*
X025788Y010556D01*
X025662Y010430D01*
X025593Y010265D01*
X025593Y010085D01*
X025662Y009920D01*
X025645Y009961D02*
X025442Y009961D01*
X025482Y010059D02*
X025604Y010059D01*
X025593Y010158D02*
X025493Y010158D01*
X025493Y010256D02*
X025593Y010256D01*
X025631Y010355D02*
X025456Y010355D01*
X025402Y010453D02*
X025685Y010453D01*
X025783Y010552D02*
X025303Y010552D01*
X024783Y010552D02*
X024303Y010552D01*
X024402Y010453D02*
X024685Y010453D01*
X024631Y010355D02*
X024456Y010355D01*
X024493Y010256D02*
X024593Y010256D01*
X024593Y010158D02*
X024493Y010158D01*
X024482Y010059D02*
X024604Y010059D01*
X024645Y009961D02*
X024442Y009961D01*
X024367Y009862D02*
X024720Y009862D01*
X024861Y009764D02*
X024226Y009764D01*
X024243Y008680D02*
X042245Y008680D01*
X042205Y008779D02*
X026262Y008779D01*
X026382Y008877D02*
X042193Y008877D01*
X042193Y008976D02*
X026448Y008976D01*
X026489Y009074D02*
X042193Y009074D01*
X042205Y009173D02*
X026493Y009173D01*
X026491Y009271D02*
X042246Y009271D01*
X042286Y008582D02*
X024243Y008582D01*
X024243Y008483D02*
X042333Y008483D01*
X042432Y008385D02*
X024243Y008385D01*
X024243Y008286D02*
X042530Y008286D01*
X042723Y008188D02*
X024243Y008188D01*
X022705Y008877D02*
X022382Y008877D01*
X022448Y008976D02*
X022639Y008976D01*
X022598Y009074D02*
X022489Y009074D01*
X022493Y009173D02*
X022593Y009173D01*
X022596Y009271D02*
X022491Y009271D01*
X022450Y009370D02*
X022637Y009370D01*
X022700Y009468D02*
X022387Y009468D01*
X022274Y009567D02*
X022813Y009567D01*
X022843Y007006D02*
X019613Y007006D01*
X019711Y006907D02*
X022843Y006907D01*
X022827Y006809D02*
X019810Y006809D01*
X019908Y006710D02*
X022728Y006710D01*
X022630Y006612D02*
X020007Y006612D01*
X020105Y006513D02*
X022531Y006513D01*
X022433Y006415D02*
X020204Y006415D01*
X020302Y006316D02*
X022334Y006316D01*
X026367Y009862D02*
X033905Y009862D01*
X033895Y009961D02*
X026442Y009961D01*
X026482Y010059D02*
X033855Y010059D01*
X033855Y010158D02*
X026493Y010158D01*
X026493Y010256D02*
X033882Y010256D01*
X033936Y010355D02*
X026456Y010355D01*
X026402Y010453D02*
X033878Y010453D01*
X033855Y010552D02*
X026303Y010552D01*
X031004Y012522D02*
X013693Y012522D01*
X013693Y012620D02*
X030971Y012620D01*
X030971Y012601D02*
X031066Y012372D01*
X031241Y012197D01*
X031469Y012103D01*
X031717Y012103D01*
X031946Y012197D01*
X032121Y012372D01*
X032216Y012601D01*
X032216Y012849D01*
X032121Y013078D01*
X031946Y013253D01*
X031717Y013347D01*
X031469Y013347D01*
X031241Y013253D01*
X031066Y013078D01*
X030971Y012849D01*
X030971Y012601D01*
X030971Y012719D02*
X013693Y012719D01*
X013693Y012817D02*
X030971Y012817D01*
X030998Y012916D02*
X013693Y012916D01*
X013693Y013014D02*
X031039Y013014D01*
X031101Y013113D02*
X013693Y013113D01*
X013693Y013211D02*
X031199Y013211D01*
X031378Y013310D02*
X013693Y013310D01*
X013693Y013408D02*
X043412Y013408D01*
X043371Y013310D02*
X039309Y013310D01*
X039217Y013347D02*
X038969Y013347D01*
X038741Y013253D01*
X038566Y013078D01*
X038471Y012849D01*
X038471Y012601D01*
X038566Y012372D01*
X038741Y012197D01*
X038969Y012103D01*
X039217Y012103D01*
X039446Y012197D01*
X039621Y012372D01*
X039716Y012601D01*
X039716Y012849D01*
X039621Y013078D01*
X039446Y013253D01*
X039217Y013347D01*
X039488Y013211D02*
X043330Y013211D01*
X043313Y013170D02*
X043313Y012780D01*
X043463Y012420D01*
X043738Y012144D01*
X044098Y011995D01*
X044488Y011995D01*
X044848Y012144D01*
X045124Y012420D01*
X045273Y012780D01*
X045273Y013170D01*
X045124Y013530D01*
X044848Y013806D01*
X044488Y013955D01*
X044098Y013955D01*
X043738Y013806D01*
X043463Y013530D01*
X043313Y013170D01*
X043313Y013113D02*
X039586Y013113D01*
X039647Y013014D02*
X043313Y013014D01*
X043313Y012916D02*
X039688Y012916D01*
X039716Y012817D02*
X043313Y012817D01*
X043339Y012719D02*
X039716Y012719D01*
X039716Y012620D02*
X043380Y012620D01*
X043420Y012522D02*
X039683Y012522D01*
X039642Y012423D02*
X043461Y012423D01*
X043558Y012325D02*
X039573Y012325D01*
X039475Y012226D02*
X043656Y012226D01*
X043779Y012128D02*
X039277Y012128D01*
X038909Y012128D02*
X031777Y012128D01*
X031975Y012226D02*
X038712Y012226D01*
X038614Y012325D02*
X032073Y012325D01*
X032142Y012423D02*
X038545Y012423D01*
X038504Y012522D02*
X032183Y012522D01*
X032216Y012620D02*
X038471Y012620D01*
X038471Y012719D02*
X032216Y012719D01*
X032216Y012817D02*
X038471Y012817D01*
X038498Y012916D02*
X032188Y012916D01*
X032147Y013014D02*
X038539Y013014D01*
X038601Y013113D02*
X032086Y013113D01*
X031988Y013211D02*
X038699Y013211D01*
X038878Y013310D02*
X031809Y013310D01*
X031045Y012423D02*
X013693Y012423D01*
X013693Y012325D02*
X031114Y012325D01*
X031212Y012226D02*
X013693Y012226D01*
X013693Y012128D02*
X014540Y012128D01*
X014419Y012029D02*
X013693Y012029D01*
X013693Y011931D02*
X014371Y011931D01*
X014355Y011832D02*
X013693Y011832D01*
X013693Y011734D02*
X014365Y011734D01*
X014406Y011635D02*
X013693Y011635D01*
X013693Y011537D02*
X014506Y011537D01*
X014880Y011537D02*
X018071Y011537D01*
X018057Y011438D02*
X013693Y011438D01*
X013693Y011340D02*
X018061Y011340D01*
X018101Y011241D02*
X013693Y011241D01*
X013693Y011143D02*
X018180Y011143D01*
X018354Y011044D02*
X013693Y011044D01*
X013693Y010946D02*
X033860Y010946D01*
X033855Y011044D02*
X018533Y011044D01*
X018707Y011143D02*
X033876Y011143D01*
X033931Y011241D02*
X018785Y011241D01*
X018826Y011340D02*
X034069Y011340D01*
X034318Y011340D02*
X036319Y011340D01*
X036181Y011241D02*
X034455Y011241D01*
X034511Y011143D02*
X036126Y011143D01*
X036105Y011044D02*
X034531Y011044D01*
X034526Y010946D02*
X036110Y010946D01*
X036151Y010847D02*
X034486Y010847D01*
X034487Y010749D02*
X036149Y010749D01*
X036108Y010650D02*
X034528Y010650D01*
X034531Y010552D02*
X036105Y010552D01*
X036128Y010453D02*
X034509Y010453D01*
X034451Y010355D02*
X036186Y010355D01*
X036132Y010256D02*
X034505Y010256D01*
X034531Y010158D02*
X036105Y010158D01*
X036105Y010059D02*
X034531Y010059D01*
X034836Y009961D02*
X034901Y009961D01*
X035286Y009961D02*
X035351Y009961D01*
X035736Y009961D02*
X035801Y009961D01*
X036732Y009862D02*
X049299Y009862D01*
X049233Y009961D02*
X036741Y009961D01*
X036781Y010059D02*
X049192Y010059D01*
X049151Y010158D02*
X036781Y010158D01*
X036755Y010256D02*
X049110Y010256D01*
X049109Y010355D02*
X036701Y010355D01*
X036759Y010453D02*
X049109Y010453D01*
X049109Y010552D02*
X036781Y010552D01*
X036778Y010650D02*
X049113Y010650D01*
X049154Y010749D02*
X036737Y010749D01*
X036736Y010847D02*
X049195Y010847D01*
X049236Y010946D02*
X036776Y010946D01*
X036781Y011044D02*
X049306Y011044D01*
X049405Y011143D02*
X036761Y011143D01*
X036705Y011241D02*
X049503Y011241D01*
X049709Y011340D02*
X036568Y011340D01*
X033901Y010847D02*
X013693Y010847D01*
X013693Y010749D02*
X033899Y010749D01*
X033858Y010650D02*
X013693Y010650D01*
X014981Y011635D02*
X018112Y011635D01*
X018206Y011734D02*
X015021Y011734D01*
X014967Y012029D02*
X044016Y012029D01*
X044570Y012029D02*
X047346Y012029D01*
X047155Y012128D02*
X044808Y012128D01*
X044930Y012226D02*
X047056Y012226D01*
X046958Y012325D02*
X045029Y012325D01*
X045125Y012423D02*
X046891Y012423D01*
X046850Y012522D02*
X045166Y012522D01*
X045207Y012620D02*
X046809Y012620D01*
X046768Y012719D02*
X045248Y012719D01*
X045273Y012817D02*
X046763Y012817D01*
X046763Y012916D02*
X045273Y012916D01*
X045273Y013014D02*
X046763Y013014D01*
X046763Y013113D02*
X045273Y013113D01*
X045256Y013211D02*
X046801Y013211D01*
X046842Y013310D02*
X045215Y013310D01*
X045175Y013408D02*
X046883Y013408D01*
X046939Y013507D02*
X045134Y013507D01*
X045049Y013605D02*
X047038Y013605D01*
X047136Y013704D02*
X044951Y013704D01*
X044852Y013802D02*
X047300Y013802D01*
X047538Y013901D02*
X044620Y013901D01*
X043967Y013901D02*
X013693Y013901D01*
X013693Y013802D02*
X043735Y013802D01*
X043636Y013704D02*
X013693Y013704D01*
X013693Y013605D02*
X043538Y013605D01*
X043453Y013507D02*
X013693Y013507D01*
X014846Y012128D02*
X031409Y012128D01*
X031221Y015575D02*
X036997Y015575D01*
X037099Y015674D02*
X031106Y015674D01*
X030780Y015674D02*
X028026Y015674D01*
X027793Y016462D02*
X027707Y016462D01*
X027754Y016560D02*
X027793Y016560D01*
X027786Y016659D02*
X027793Y016659D01*
X027786Y016757D02*
X027793Y016757D01*
X027793Y016856D02*
X027768Y016856D01*
X027793Y016954D02*
X027728Y016954D01*
X027793Y017053D02*
X027643Y017053D01*
X027793Y017151D02*
X027476Y017151D01*
X027429Y017280D02*
X027593Y017348D01*
X027793Y017348D01*
X027793Y017250D02*
X021921Y017250D01*
X021928Y017348D02*
X027088Y017348D01*
X027252Y017280D01*
X027429Y017280D01*
X027593Y017348D02*
X027718Y017473D01*
X027786Y017636D01*
X027786Y017814D01*
X027718Y017977D01*
X027593Y018102D01*
X027429Y018170D01*
X027252Y018170D01*
X027088Y018102D01*
X026963Y017977D01*
X026895Y017814D01*
X026895Y017636D01*
X026963Y017473D01*
X027088Y017348D01*
X026989Y017447D02*
X021901Y017447D01*
X021866Y017545D02*
X026933Y017545D01*
X026895Y017644D02*
X021918Y017644D01*
X021928Y017742D02*
X026895Y017742D01*
X026906Y017841D02*
X021904Y017841D01*
X021832Y017939D02*
X026947Y017939D01*
X027023Y018038D02*
X010666Y018038D01*
X010678Y018068D02*
X010635Y017964D01*
X010555Y017883D01*
X010450Y017840D01*
X010337Y017840D01*
X010232Y017883D01*
X010152Y017964D01*
X010108Y018068D01*
X010108Y018182D01*
X010152Y018286D01*
X010232Y018367D01*
X010337Y018410D01*
X010450Y018410D01*
X010555Y018367D01*
X010635Y018286D01*
X010678Y018182D01*
X010678Y018068D01*
X010678Y018136D02*
X027169Y018136D01*
X027123Y018333D02*
X010588Y018333D01*
X010656Y018235D02*
X027793Y018235D01*
X027793Y018333D02*
X027558Y018333D01*
X027677Y018432D02*
X027793Y018432D01*
X027793Y018530D02*
X027742Y018530D01*
X027783Y018629D02*
X027793Y018629D01*
X027786Y018727D02*
X027793Y018727D01*
X027781Y018826D02*
X027793Y018826D01*
X027793Y018924D02*
X027740Y018924D01*
X027793Y019023D02*
X027673Y019023D01*
X027793Y019121D02*
X027548Y019121D01*
X027159Y019318D02*
X008743Y019318D01*
X008679Y019417D02*
X027019Y019417D01*
X026939Y018530D02*
X008526Y018530D01*
X008664Y018432D02*
X027004Y018432D01*
X027512Y018136D02*
X027793Y018136D01*
X027793Y018038D02*
X027658Y018038D01*
X027734Y017939D02*
X027793Y017939D01*
X027793Y017841D02*
X027775Y017841D01*
X027786Y017742D02*
X027793Y017742D01*
X027786Y017644D02*
X027793Y017644D01*
X027793Y017545D02*
X027748Y017545D01*
X027793Y017447D02*
X027692Y017447D01*
X027206Y017151D02*
X021872Y017151D01*
X021899Y017053D02*
X027038Y017053D01*
X026953Y016954D02*
X021928Y016954D01*
X021923Y016856D02*
X026913Y016856D01*
X026895Y016757D02*
X021878Y016757D01*
X021745Y016659D02*
X026895Y016659D01*
X027993Y018629D02*
X028008Y018629D01*
X027993Y018727D02*
X028107Y018727D01*
X028205Y018826D02*
X027993Y018826D01*
X027993Y018924D02*
X028304Y018924D01*
X028366Y019023D02*
X027993Y019023D01*
X027993Y019121D02*
X028406Y019121D01*
X028492Y019220D02*
X027993Y019220D01*
X028688Y018432D02*
X037758Y018432D01*
X037773Y018333D02*
X028590Y018333D01*
X028787Y018530D02*
X037778Y018530D01*
X037844Y018629D02*
X028993Y018629D01*
X030665Y015575D02*
X013855Y015575D01*
X013953Y015674D02*
X016499Y015674D01*
X016409Y015772D02*
X014052Y015772D01*
X014150Y015871D02*
X016369Y015871D01*
X016357Y015969D02*
X014249Y015969D01*
X014347Y016068D02*
X016364Y016068D01*
X016404Y016166D02*
X014446Y016166D01*
X013907Y015969D02*
X011899Y015969D01*
X011905Y015967D02*
X011800Y016010D01*
X011687Y016010D01*
X011582Y015967D01*
X011502Y015886D01*
X011458Y015782D01*
X011458Y015668D01*
X011502Y015564D01*
X011582Y015483D01*
X011687Y015440D01*
X011800Y015440D01*
X011905Y015483D01*
X011985Y015564D01*
X012028Y015668D01*
X012028Y015782D01*
X011985Y015886D01*
X011905Y015967D01*
X011992Y015871D02*
X013809Y015871D01*
X013710Y015772D02*
X012028Y015772D01*
X012028Y015674D02*
X013612Y015674D01*
X013513Y015575D02*
X011990Y015575D01*
X011888Y015477D02*
X013493Y015477D01*
X011598Y015477D02*
X010238Y015477D01*
X010340Y015575D02*
X011497Y015575D01*
X011458Y015674D02*
X010378Y015674D01*
X010378Y015772D02*
X011458Y015772D01*
X011495Y015871D02*
X010342Y015871D01*
X010249Y015969D02*
X011588Y015969D01*
X010297Y017151D02*
X021014Y017151D01*
X020966Y017250D02*
X010387Y017250D01*
X010427Y017348D02*
X020958Y017348D01*
X020985Y017447D02*
X010431Y017447D01*
X010410Y017545D02*
X021020Y017545D01*
X020969Y017644D02*
X010353Y017644D01*
X010211Y017742D02*
X020958Y017742D01*
X020983Y017841D02*
X010451Y017841D01*
X010335Y017841D02*
X008686Y017841D01*
X008745Y017939D02*
X010176Y017939D01*
X010121Y018038D02*
X008786Y018038D01*
X008786Y018136D02*
X010108Y018136D01*
X010130Y018235D02*
X008777Y018235D01*
X008736Y018333D02*
X010198Y018333D01*
X010610Y017939D02*
X021054Y017939D01*
X021432Y017939D02*
X021454Y017939D01*
X021542Y016659D02*
X021345Y016659D01*
X021142Y016659D02*
X005693Y016659D01*
X005693Y016757D02*
X008079Y016757D01*
X007980Y016856D02*
X005693Y016856D01*
X005693Y016954D02*
X007929Y016954D01*
X007895Y017053D02*
X005693Y017053D01*
X005693Y017151D02*
X007895Y017151D01*
X007910Y017250D02*
X005693Y017250D01*
X005693Y017348D02*
X007951Y017348D01*
X008032Y017447D02*
X005693Y017447D01*
X005693Y017545D02*
X008191Y017545D01*
X008580Y017742D02*
X009975Y017742D01*
X008227Y016560D02*
X005693Y016560D01*
X005693Y016462D02*
X008047Y016462D01*
X007957Y016363D02*
X005693Y016363D01*
X005693Y016265D02*
X007916Y016265D01*
X007895Y016166D02*
X005693Y016166D01*
X005693Y016068D02*
X007895Y016068D01*
X007923Y015969D02*
X005693Y015969D01*
X005693Y015871D02*
X007965Y015871D01*
X008064Y015772D02*
X005693Y015772D01*
X005693Y018826D02*
X008010Y018826D01*
X007942Y018924D02*
X005693Y018924D01*
X005693Y019023D02*
X007901Y019023D01*
X007895Y019121D02*
X005693Y019121D01*
X005693Y019220D02*
X007898Y019220D01*
X007939Y019318D02*
X005693Y019318D01*
X005693Y019417D02*
X008002Y019417D01*
X008119Y019515D02*
X005693Y019515D01*
X020562Y033108D02*
X054293Y033108D01*
X054293Y033010D02*
X020719Y033010D01*
X019926Y034909D02*
X020079Y034973D01*
X020196Y035089D01*
X020259Y035242D01*
X020259Y035408D01*
X020196Y035561D01*
X020079Y035677D01*
X019926Y035741D01*
X019761Y035741D01*
X019608Y035677D01*
X019491Y035561D01*
X019428Y035408D01*
X019428Y035242D01*
X019491Y035089D01*
X019608Y034973D01*
X019761Y034909D01*
X019926Y034909D01*
X020086Y034980D02*
X021417Y034980D01*
X021413Y035078D02*
X020184Y035078D01*
X020232Y035177D02*
X021420Y035177D01*
X021461Y035275D02*
X020259Y035275D01*
X020259Y035374D02*
X021534Y035374D01*
X021678Y035472D02*
X020232Y035472D01*
X020186Y035571D02*
X054293Y035571D01*
X054293Y035669D02*
X020087Y035669D01*
X019599Y035669D02*
X019087Y035669D01*
X019079Y035677D02*
X018926Y035741D01*
X018761Y035741D01*
X018608Y035677D01*
X018491Y035561D01*
X018428Y035408D01*
X018428Y035242D01*
X018491Y035089D01*
X018608Y034973D01*
X018761Y034909D01*
X018926Y034909D01*
X019079Y034973D01*
X019196Y035089D01*
X019259Y035242D01*
X019259Y035408D01*
X019196Y035561D01*
X019079Y035677D01*
X019186Y035571D02*
X019501Y035571D01*
X019454Y035472D02*
X019232Y035472D01*
X019259Y035374D02*
X019428Y035374D01*
X019428Y035275D02*
X019259Y035275D01*
X019232Y035177D02*
X019455Y035177D01*
X019502Y035078D02*
X019184Y035078D01*
X019086Y034980D02*
X019601Y034980D01*
X018601Y034980D02*
X018086Y034980D01*
X018184Y035078D02*
X018502Y035078D01*
X018455Y035177D02*
X018232Y035177D01*
X018259Y035275D02*
X018428Y035275D01*
X018428Y035374D02*
X018259Y035374D01*
X018232Y035472D02*
X018454Y035472D01*
X018501Y035571D02*
X018186Y035571D01*
X018087Y035669D02*
X018599Y035669D01*
X018275Y036654D02*
X021419Y036654D01*
X021432Y036667D02*
X021352Y036586D01*
X021308Y036482D01*
X021308Y036368D01*
X021352Y036264D01*
X021432Y036183D01*
X021537Y036140D01*
X021650Y036140D01*
X021755Y036183D01*
X021835Y036264D01*
X021878Y036368D01*
X021878Y036482D01*
X021835Y036586D01*
X021755Y036667D01*
X021650Y036710D01*
X021537Y036710D01*
X021432Y036667D01*
X021339Y036556D02*
X016143Y036556D01*
X016143Y036654D02*
X017911Y036654D01*
X017836Y036753D02*
X016143Y036753D01*
X016143Y036851D02*
X017808Y036851D01*
X017816Y036950D02*
X016143Y036950D01*
X016143Y036457D02*
X021308Y036457D01*
X021312Y036359D02*
X016143Y036359D01*
X016143Y036260D02*
X021355Y036260D01*
X021485Y036162D02*
X016143Y036162D01*
X016143Y036063D02*
X054172Y036063D01*
X054074Y036162D02*
X021702Y036162D01*
X021831Y036260D02*
X053975Y036260D01*
X054271Y035965D02*
X016143Y035965D01*
X018351Y036753D02*
X028836Y036753D01*
X028808Y036851D02*
X018378Y036851D01*
X018371Y036950D02*
X028816Y036950D01*
X028911Y036654D02*
X021767Y036654D01*
X021848Y036556D02*
X029580Y036556D01*
X029481Y036654D02*
X029275Y036654D01*
X029351Y036753D02*
X029383Y036753D01*
X029678Y036457D02*
X021878Y036457D01*
X021874Y036359D02*
X029777Y036359D01*
X030961Y032714D02*
X054293Y032714D01*
X054293Y032616D02*
X031076Y032616D01*
X031174Y032517D02*
X036482Y032517D01*
X036452Y032486D02*
X036408Y032382D01*
X036408Y032268D01*
X036452Y032164D01*
X036532Y032083D01*
X036637Y032040D01*
X036750Y032040D01*
X036855Y032083D01*
X036935Y032164D01*
X036978Y032268D01*
X036978Y032382D01*
X036935Y032486D01*
X036855Y032567D01*
X036750Y032610D01*
X036637Y032610D01*
X036532Y032567D01*
X036452Y032486D01*
X036424Y032419D02*
X031247Y032419D01*
X031287Y032320D02*
X036408Y032320D01*
X036428Y032222D02*
X031328Y032222D01*
X031357Y032123D02*
X036492Y032123D01*
X036894Y032123D02*
X054293Y032123D01*
X054293Y032025D02*
X031357Y032025D01*
X031901Y030449D02*
X050136Y030449D01*
X050132Y030547D02*
X035818Y030547D01*
X035898Y030646D02*
X050136Y030646D01*
X050177Y030350D02*
X031928Y030350D01*
X031921Y030252D02*
X050242Y030252D01*
X050359Y030153D02*
X031874Y030153D01*
X033207Y029267D02*
X035582Y029267D01*
X035494Y029168D02*
X033139Y029168D01*
X033562Y030941D02*
X035406Y030941D01*
X035537Y031040D02*
X033646Y031040D01*
X033678Y031138D02*
X042229Y031138D01*
X042228Y031237D02*
X033676Y031237D01*
X033635Y031335D02*
X042239Y031335D01*
X042280Y031434D02*
X033514Y031434D01*
X035749Y031040D02*
X042270Y031040D01*
X042339Y030941D02*
X035880Y030941D01*
X036959Y032222D02*
X054293Y032222D01*
X054293Y032320D02*
X036978Y032320D01*
X036963Y032419D02*
X054293Y032419D01*
X054293Y032517D02*
X036904Y032517D01*
X035989Y028873D02*
X050271Y028873D01*
X050189Y028774D02*
X035882Y028774D01*
X033720Y027001D02*
X054293Y027001D01*
X054293Y026903D02*
X033770Y026903D01*
X033778Y026804D02*
X054293Y026804D01*
X054293Y026706D02*
X033752Y026706D01*
X037192Y025622D02*
X048158Y025622D01*
X048257Y025524D02*
X037290Y025524D01*
X037328Y025425D02*
X054293Y025425D01*
X054293Y025327D02*
X037328Y025327D01*
X037291Y025228D02*
X054293Y025228D01*
X054293Y025130D02*
X043292Y025130D01*
X043358Y025031D02*
X046067Y025031D01*
X045950Y024933D02*
X043378Y024933D01*
X043364Y024834D02*
X045909Y024834D01*
X045908Y024736D02*
X043307Y024736D01*
X042895Y025130D02*
X037195Y025130D01*
X036678Y024243D02*
X054293Y024243D01*
X054293Y024145D02*
X045587Y024145D01*
X045550Y024160D02*
X045437Y024160D01*
X045332Y024117D01*
X045252Y024036D01*
X045208Y023932D01*
X045208Y023818D01*
X045252Y023714D01*
X045332Y023633D01*
X045437Y023590D01*
X045550Y023590D01*
X045655Y023633D01*
X045735Y023714D01*
X045778Y023818D01*
X045778Y023932D01*
X045735Y024036D01*
X045655Y024117D01*
X045550Y024160D01*
X045399Y024145D02*
X036752Y024145D01*
X036778Y024046D02*
X045261Y024046D01*
X045215Y023948D02*
X036770Y023948D01*
X036720Y023849D02*
X042114Y023849D01*
X042472Y023849D02*
X045208Y023849D01*
X045236Y023751D02*
X042550Y023751D01*
X042578Y023652D02*
X045313Y023652D01*
X045673Y023652D02*
X054293Y023652D01*
X054293Y023554D02*
X044756Y023554D01*
X044793Y023455D02*
X054293Y023455D01*
X054293Y023357D02*
X044793Y023357D01*
X044793Y023258D02*
X054293Y023258D01*
X054293Y023160D02*
X044793Y023160D01*
X044793Y023061D02*
X054293Y023061D01*
X054293Y022963D02*
X044793Y022963D01*
X044793Y022864D02*
X054293Y022864D01*
X054293Y022766D02*
X044793Y022766D01*
X044793Y022667D02*
X054293Y022667D01*
X054293Y022569D02*
X044793Y022569D01*
X044793Y022470D02*
X054293Y022470D01*
X054293Y022372D02*
X044793Y022372D01*
X045750Y023751D02*
X054293Y023751D01*
X054293Y023849D02*
X045778Y023849D01*
X045772Y023948D02*
X054293Y023948D01*
X054293Y024046D02*
X045725Y024046D01*
X046360Y024539D02*
X054293Y024539D01*
X054293Y024637D02*
X046445Y024637D01*
X046478Y024736D02*
X054293Y024736D01*
X054293Y024834D02*
X046477Y024834D01*
X046437Y024933D02*
X054293Y024933D01*
X054293Y025031D02*
X046320Y025031D01*
X047606Y026115D02*
X048145Y026115D01*
X048243Y026213D02*
X047628Y026213D01*
X047616Y026312D02*
X054293Y026312D01*
X054293Y026410D02*
X047561Y026410D01*
X048743Y026213D02*
X054293Y026213D01*
X054293Y026115D02*
X048842Y026115D01*
X048885Y026016D02*
X054293Y026016D01*
X054293Y025918D02*
X048909Y025918D01*
X048909Y025819D02*
X054293Y025819D01*
X054293Y025721D02*
X048879Y025721D01*
X048828Y025622D02*
X054293Y025622D01*
X054293Y025524D02*
X048730Y025524D01*
X048647Y027691D02*
X054293Y027691D01*
X054293Y027789D02*
X048745Y027789D01*
X048786Y027888D02*
X054293Y027888D01*
X054293Y027986D02*
X048809Y027986D01*
X048158Y027673D02*
X048041Y027789D01*
X050854Y028183D02*
X051311Y028183D01*
X051212Y028282D02*
X050952Y028282D01*
X051000Y028380D02*
X051165Y028380D01*
X051132Y028479D02*
X051032Y028479D01*
X051032Y028577D02*
X051132Y028577D01*
X051148Y028676D02*
X051016Y028676D01*
X050976Y028774D02*
X051189Y028774D01*
X051271Y028873D02*
X050894Y028873D01*
X051922Y030252D02*
X054293Y030252D01*
X054293Y030350D02*
X051987Y030350D01*
X052028Y030449D02*
X054293Y030449D01*
X054293Y030547D02*
X052032Y030547D01*
X052029Y030646D02*
X054293Y030646D01*
X054293Y030744D02*
X051988Y030744D01*
X051924Y030843D02*
X054293Y030843D01*
X054293Y030941D02*
X051809Y030941D01*
X043030Y023554D02*
X042572Y023554D01*
X042526Y023455D02*
X042993Y023455D01*
X040606Y023160D02*
X038247Y023160D01*
X038379Y023258D02*
X040563Y023258D01*
X040558Y023357D02*
X038423Y023357D01*
X038428Y023455D02*
X040589Y023455D01*
X039230Y018727D02*
X054293Y018727D01*
X054293Y018629D02*
X039338Y018629D01*
X039378Y018530D02*
X054293Y018530D01*
X054293Y018432D02*
X039378Y018432D01*
X039343Y018333D02*
X054293Y018333D01*
X054293Y018235D02*
X039256Y018235D01*
X037403Y017644D02*
X054293Y017644D01*
X054293Y017742D02*
X037329Y017742D01*
X037428Y017545D02*
X054293Y017545D01*
X054293Y017447D02*
X037419Y017447D01*
X037369Y017348D02*
X054293Y017348D01*
X054293Y017250D02*
X037223Y017250D01*
X037064Y017250D02*
X036822Y017250D01*
X036870Y017151D02*
X054293Y017151D01*
X054293Y017053D02*
X036878Y017053D01*
X036852Y016954D02*
X054293Y016954D01*
X054293Y016856D02*
X036777Y016856D01*
X036308Y017053D02*
X036051Y017053D01*
X036078Y017151D02*
X036316Y017151D01*
X036365Y017250D02*
X036071Y017250D01*
X036023Y017348D02*
X036508Y017348D01*
X036679Y017348D02*
X036917Y017348D01*
X036995Y015280D02*
X036824Y015280D01*
X036937Y015181D02*
X037088Y015181D01*
D20*
X037243Y015425D03*
X036693Y015025D03*
X035893Y015125D03*
X037243Y016325D03*
X036693Y016725D03*
X036593Y017075D03*
X037143Y017525D03*
X037143Y018325D03*
X036593Y018775D03*
X035793Y018675D03*
X035793Y017175D03*
X035893Y016625D03*
X038043Y018425D03*
X038443Y018475D03*
X039093Y018475D03*
X038143Y020725D03*
X038443Y021525D03*
X037743Y021525D03*
X037043Y021725D03*
X036993Y022825D03*
X036493Y023175D03*
X035693Y023825D03*
X036493Y024025D03*
X037043Y025375D03*
X038143Y023425D03*
X040843Y023325D03*
X040843Y022525D03*
X040843Y021125D03*
X041893Y020375D03*
X042593Y019625D03*
X042593Y019125D03*
X043093Y019125D03*
X043093Y019625D03*
X043093Y020125D03*
X043593Y020125D03*
X043593Y019625D03*
X043593Y019125D03*
X044093Y019125D03*
X044093Y019625D03*
X044093Y020125D03*
X044593Y020125D03*
X044593Y019625D03*
X044593Y019125D03*
X045093Y019125D03*
X045093Y019625D03*
X045093Y020125D03*
X045093Y020625D03*
X044593Y020625D03*
X044593Y021125D03*
X045093Y021125D03*
X045093Y021625D03*
X045593Y021625D03*
X045593Y021125D03*
X045593Y020625D03*
X045593Y020125D03*
X045593Y019625D03*
X045593Y019125D03*
X046093Y019125D03*
X046093Y019625D03*
X046093Y020125D03*
X046093Y020625D03*
X046093Y021125D03*
X046093Y021625D03*
X046093Y022125D03*
X045593Y022125D03*
X046593Y022125D03*
X046593Y021625D03*
X046593Y021125D03*
X046593Y020625D03*
X046593Y020125D03*
X046593Y019625D03*
X046593Y019125D03*
X047093Y019125D03*
X047093Y019625D03*
X047093Y020125D03*
X047093Y020625D03*
X047093Y021125D03*
X047093Y021625D03*
X047093Y022125D03*
X047593Y022125D03*
X047593Y021625D03*
X047593Y021125D03*
X047593Y020625D03*
X047593Y020125D03*
X047593Y019625D03*
X047593Y019125D03*
X048093Y019125D03*
X048093Y019625D03*
X048093Y020125D03*
X048093Y020625D03*
X048093Y021125D03*
X048093Y021625D03*
X048093Y022125D03*
X048593Y022125D03*
X048593Y021625D03*
X048593Y021125D03*
X048593Y020625D03*
X048593Y020125D03*
X048593Y019625D03*
X048593Y019125D03*
X049093Y019125D03*
X049093Y019625D03*
X049093Y020125D03*
X049093Y020625D03*
X049093Y021125D03*
X049093Y021625D03*
X049093Y022125D03*
X049593Y022125D03*
X049593Y021625D03*
X049593Y021125D03*
X049593Y020625D03*
X049593Y020125D03*
X049593Y019625D03*
X049593Y019125D03*
X049593Y018625D03*
X049093Y018625D03*
X048593Y018625D03*
X048093Y018625D03*
X047593Y018625D03*
X047093Y018625D03*
X046593Y018625D03*
X046093Y018625D03*
X045593Y018625D03*
X045093Y018625D03*
X044593Y018625D03*
X044093Y018625D03*
X043593Y018625D03*
X043093Y018625D03*
X042593Y018625D03*
X042593Y018125D03*
X042093Y018125D03*
X042093Y017625D03*
X042093Y017125D03*
X042093Y016625D03*
X042093Y016125D03*
X042093Y015625D03*
X042093Y015125D03*
X042593Y015125D03*
X042593Y015625D03*
X042593Y016125D03*
X042593Y016625D03*
X042593Y017125D03*
X042593Y017625D03*
X043093Y017625D03*
X043093Y017125D03*
X043093Y016625D03*
X043093Y016125D03*
X043093Y015625D03*
X043093Y015125D03*
X043593Y015125D03*
X043593Y015625D03*
X043593Y016125D03*
X043593Y016625D03*
X043593Y017125D03*
X043593Y017625D03*
X043593Y018125D03*
X043093Y018125D03*
X044093Y018125D03*
X044093Y017625D03*
X044093Y017125D03*
X044093Y016625D03*
X044093Y016125D03*
X044093Y015625D03*
X044093Y015125D03*
X044593Y015125D03*
X044593Y015625D03*
X044593Y016125D03*
X044593Y016625D03*
X044593Y017125D03*
X044593Y017625D03*
X044593Y018125D03*
X045093Y018125D03*
X045093Y017625D03*
X045093Y017125D03*
X045093Y016625D03*
X045093Y016125D03*
X045093Y015625D03*
X045093Y015125D03*
X045593Y015125D03*
X045593Y015625D03*
X045593Y016125D03*
X045593Y016625D03*
X045593Y017125D03*
X045593Y017625D03*
X045593Y018125D03*
X046093Y018125D03*
X046093Y017625D03*
X046093Y017125D03*
X046093Y016625D03*
X046093Y016125D03*
X046093Y015625D03*
X046093Y015125D03*
X046593Y015125D03*
X046593Y015625D03*
X046593Y016125D03*
X046593Y016625D03*
X046593Y017125D03*
X046593Y017625D03*
X046593Y018125D03*
X047093Y018125D03*
X047093Y017625D03*
X047093Y017125D03*
X047093Y016625D03*
X047093Y016125D03*
X047093Y015625D03*
X047093Y015125D03*
X047593Y015125D03*
X047593Y015625D03*
X047593Y016125D03*
X047593Y016625D03*
X047593Y017125D03*
X047593Y017625D03*
X047593Y018125D03*
X048093Y018125D03*
X048093Y017625D03*
X048093Y017125D03*
X048093Y016625D03*
X048093Y016125D03*
X048093Y015625D03*
X048093Y015125D03*
X048593Y015125D03*
X048593Y015625D03*
X048593Y016125D03*
X048593Y016625D03*
X048593Y017125D03*
X048593Y017625D03*
X048593Y018125D03*
X049093Y018125D03*
X049093Y017625D03*
X049093Y017125D03*
X049093Y016625D03*
X049093Y016125D03*
X049093Y015625D03*
X049093Y015125D03*
X049593Y015125D03*
X049593Y015625D03*
X049593Y016125D03*
X049593Y016625D03*
X049593Y017125D03*
X049593Y017625D03*
X049593Y018125D03*
X049593Y014625D03*
X049093Y014625D03*
X048593Y014625D03*
X048093Y014625D03*
X047593Y014625D03*
X047093Y014625D03*
X046593Y014625D03*
X046093Y014625D03*
X045593Y014625D03*
X045093Y014625D03*
X044593Y014625D03*
X044093Y014625D03*
X043593Y014625D03*
X043093Y014625D03*
X042593Y014625D03*
X042093Y014625D03*
X045093Y008375D03*
X046043Y008375D03*
X033243Y017225D03*
X032693Y017425D03*
X033243Y020175D03*
X033893Y021425D03*
X031643Y021475D03*
X031243Y020825D03*
X031343Y022325D03*
X030493Y022325D03*
X029993Y022775D03*
X029993Y023575D03*
X030543Y024025D03*
X031343Y023825D03*
X033893Y024375D03*
X031343Y026325D03*
X032593Y026825D03*
X033493Y026825D03*
X033393Y028275D03*
X032943Y029375D03*
X032043Y030075D03*
X031643Y030325D03*
X030993Y029475D03*
X033393Y031175D03*
X035643Y030775D03*
X036693Y032325D03*
X037093Y029575D03*
X035743Y029025D03*
X040343Y028925D03*
X040343Y028425D03*
X040843Y028425D03*
X040843Y028925D03*
X040843Y029425D03*
X040343Y029425D03*
X040343Y029925D03*
X040843Y029925D03*
X041343Y029925D03*
X041343Y029425D03*
X041343Y028925D03*
X041343Y028425D03*
X041843Y028425D03*
X041843Y028925D03*
X041843Y029425D03*
X041843Y029925D03*
X042343Y029925D03*
X042343Y029425D03*
X042343Y028925D03*
X042343Y028425D03*
X042843Y028425D03*
X042843Y028925D03*
X042843Y029425D03*
X042843Y029925D03*
X043343Y029925D03*
X043343Y029425D03*
X043343Y028925D03*
X043343Y028425D03*
X043343Y027925D03*
X042843Y027925D03*
X042343Y027925D03*
X041843Y027925D03*
X041343Y027925D03*
X040843Y027925D03*
X040343Y027925D03*
X040343Y027425D03*
X040343Y026925D03*
X040343Y026425D03*
X040843Y026425D03*
X040843Y026925D03*
X040843Y027425D03*
X041343Y027425D03*
X041343Y026925D03*
X041343Y026425D03*
X041843Y026425D03*
X041843Y026925D03*
X041843Y027425D03*
X042343Y027425D03*
X042343Y026925D03*
X042343Y026425D03*
X042843Y026425D03*
X042843Y026925D03*
X042843Y027425D03*
X043343Y027425D03*
X043343Y026925D03*
X043343Y026425D03*
X043093Y024925D03*
X043993Y024775D03*
X044093Y023875D03*
X045493Y023875D03*
X046193Y024775D03*
X047343Y026225D03*
X045093Y028250D03*
X042393Y024025D03*
X042293Y023625D03*
X042293Y022225D03*
X042593Y021875D03*
X043093Y021575D03*
X043543Y021575D03*
X043043Y021075D03*
X024193Y028275D03*
X022293Y029025D03*
X020493Y030225D03*
X018693Y030025D03*
X018693Y029325D03*
X017743Y029025D03*
X016443Y028725D03*
X016443Y027875D03*
X016993Y027425D03*
X017693Y027425D03*
X020501Y032825D03*
X021593Y035875D03*
X021593Y036425D03*
X018093Y036875D03*
X014643Y036425D03*
X014293Y036125D03*
X012243Y035875D03*
X012243Y036425D03*
X029093Y036875D03*
X010393Y018125D03*
X011743Y017225D03*
X011743Y015725D03*
X010093Y015725D03*
X009993Y014125D03*
X009993Y013075D03*
X015593Y009875D03*
X021243Y016925D03*
X021243Y017325D03*
X021243Y017725D03*
X021643Y017725D03*
X021643Y017325D03*
X021643Y016925D03*
D21*
X014793Y015125D03*
X014693Y011825D03*
X010093Y017425D03*
X019943Y027775D03*
X023243Y026725D03*
X030943Y015375D03*
X034193Y011025D03*
X034193Y010575D03*
X034193Y010125D03*
X034193Y009675D03*
X034643Y009675D03*
X035093Y009675D03*
X035543Y009675D03*
X035993Y009675D03*
X036443Y009675D03*
X036443Y010125D03*
X036443Y010575D03*
X036443Y011025D03*
D22*
X033893Y021425D02*
X033893Y024375D01*
D23*
X035293Y006925D03*
X042043Y006775D03*
D24*
X028743Y018925D03*
X018443Y011425D03*
X016743Y015975D03*
D25*
X027943Y015975D01*
X028193Y016225D01*
X028193Y018375D01*
X028743Y018925D01*
D26*
X044293Y012975D03*
X047743Y012925D03*
D27*
X026693Y022225D03*
D28*
X018493Y028825D03*
M02*
