G75*
%MOIN*%
%OFA0B0*%
%FSLAX24Y24*%
%IPPOS*%
%LPD*%
%AMOC8*
5,1,8,0,0,1.08239X$1,22.5*
%
%ADD10C,0.1380*%
%ADD11R,0.0946X0.0316*%
%ADD12R,0.0592X0.0710*%
%ADD13R,0.0867X0.0710*%
%ADD14OC8,0.0740*%
%ADD15OC8,0.0780*%
%ADD16R,0.0780X0.0780*%
%ADD17R,0.1430X0.0580*%
%ADD18R,0.0986X0.1064*%
%ADD19R,0.0430X0.0500*%
%ADD20R,0.0560X0.0820*%
%ADD21R,0.0710X0.1655*%
%ADD22R,0.0680X0.0460*%
%ADD23R,0.0500X0.0430*%
%ADD24R,0.1537X0.1045*%
%ADD25R,0.0540X0.0220*%
%ADD26R,0.0670X0.0250*%
%ADD27R,0.0560X0.0440*%
%ADD28R,0.0552X0.1064*%
%ADD29C,0.0434*%
%ADD30R,0.0356X0.0749*%
%ADD31R,0.0690X0.0513*%
%ADD32R,0.0497X0.0336*%
%ADD33R,0.3700X0.4400*%
%ADD34R,0.1080X0.2380*%
%ADD35OC8,0.1290*%
%ADD36C,0.0710*%
%ADD37R,0.0580X0.0300*%
%ADD38R,0.0860X0.0300*%
%ADD39R,0.0540X0.0710*%
%ADD40R,0.0060X0.0720*%
%ADD41R,0.0474X0.0631*%
%ADD42OC8,0.0611*%
%ADD43OC8,0.1175*%
%ADD44OC8,0.1025*%
%ADD45C,0.0540*%
%ADD46R,0.0220X0.0480*%
%ADD47R,0.0474X0.0297*%
%ADD48R,0.0297X0.0474*%
%ADD49R,0.0820X0.0560*%
%ADD50R,0.0730X0.1180*%
%ADD51R,0.0440X0.0560*%
%ADD52R,0.0592X0.0552*%
%ADD53OC8,0.1700*%
%ADD54OC8,0.1405*%
%ADD55OC8,0.1504*%
%ADD56R,0.0710X0.0540*%
%ADD57OC8,0.1261*%
%ADD58OC8,0.1740*%
D10*
X012243Y012475D03*
X014243Y029225D03*
X044243Y010225D03*
X051743Y031475D03*
D11*
X034564Y024225D03*
X034564Y023725D03*
X034564Y023225D03*
X034564Y022725D03*
X034564Y022225D03*
X034564Y021725D03*
X034564Y021225D03*
X032517Y021225D03*
X032517Y021725D03*
X032517Y022225D03*
X032517Y022725D03*
X032517Y023225D03*
X032517Y023725D03*
X032517Y024225D03*
X020817Y026775D03*
X020817Y027275D03*
X020817Y027775D03*
X020817Y028275D03*
X018770Y028275D03*
X018770Y027775D03*
X018770Y027275D03*
X018770Y026775D03*
D12*
X032191Y015946D03*
X033191Y015946D03*
D13*
X032691Y014804D03*
D14*
X027341Y016725D03*
X027341Y017725D03*
X027341Y018725D03*
X027341Y019725D03*
X027341Y020725D03*
X027341Y021725D03*
X027341Y022725D03*
X027341Y023725D03*
X027341Y025725D03*
X027341Y026725D03*
X027341Y027725D03*
X027341Y028725D03*
X027341Y029725D03*
X027341Y030725D03*
X008341Y030725D03*
X008341Y029725D03*
X008341Y028725D03*
X008341Y027725D03*
X008341Y026725D03*
X008341Y025725D03*
X008341Y024725D03*
X008341Y023725D03*
X008341Y022125D03*
X008341Y021125D03*
X008341Y020125D03*
X008341Y019125D03*
X008341Y018125D03*
X008341Y017125D03*
X008341Y016125D03*
X008341Y015125D03*
X008341Y014125D03*
X008341Y013125D03*
X022043Y010175D03*
X023043Y010175D03*
X023043Y009175D03*
X022043Y009175D03*
X024043Y009175D03*
X024043Y010175D03*
X025043Y010175D03*
X025043Y009175D03*
X026043Y009175D03*
X026043Y010175D03*
X043493Y012125D03*
X043493Y013125D03*
X044493Y013125D03*
X045493Y013125D03*
X045493Y012125D03*
X044493Y012125D03*
X046493Y012125D03*
X046493Y013125D03*
X047493Y013125D03*
X047493Y012125D03*
X048493Y012125D03*
X048493Y013125D03*
D15*
X018341Y030775D03*
X018341Y031775D03*
X017341Y031775D03*
X017341Y030775D03*
X016341Y031775D03*
D16*
X016341Y030775D03*
D17*
X040788Y018725D03*
X040788Y016725D03*
X045973Y027247D03*
X045973Y028247D03*
X045973Y029247D03*
D18*
X045331Y031222D03*
X043756Y031222D03*
D19*
X044906Y026225D03*
X045586Y026225D03*
X046301Y026225D03*
X046981Y026225D03*
X045133Y023875D03*
X044453Y023875D03*
X043733Y021975D03*
X043053Y021975D03*
X041933Y021925D03*
X041253Y021925D03*
X041253Y023925D03*
X041933Y023925D03*
X038433Y021125D03*
X037753Y021125D03*
X036631Y020975D03*
X035951Y020975D03*
X035951Y021725D03*
X036631Y021725D03*
X034383Y020175D03*
X034383Y019575D03*
X033703Y019575D03*
X033703Y020175D03*
X033703Y018975D03*
X034383Y018975D03*
X038403Y018875D03*
X039083Y018875D03*
X034931Y014825D03*
X034251Y014825D03*
X026583Y023025D03*
X025903Y023025D03*
X025903Y023725D03*
X026583Y023725D03*
X028403Y025725D03*
X029083Y025725D03*
X029083Y026725D03*
X028403Y026725D03*
X028403Y027725D03*
X029083Y027725D03*
X029083Y028725D03*
X028403Y028725D03*
X032703Y027375D03*
X033383Y027375D03*
X035953Y026125D03*
X036633Y026125D03*
X036633Y025375D03*
X035953Y025375D03*
X023731Y028275D03*
X023051Y028275D03*
X022381Y028275D03*
X021701Y028275D03*
X022753Y022325D03*
X023433Y022325D03*
X023433Y021725D03*
X022753Y021725D03*
X009583Y014125D03*
X008903Y014125D03*
X008903Y013075D03*
X009583Y013075D03*
X016003Y009875D03*
X016683Y009875D03*
X015733Y035875D03*
X015053Y035875D03*
X015053Y036425D03*
X015733Y036425D03*
X013333Y036425D03*
X012653Y036425D03*
X012653Y035875D03*
X013333Y035875D03*
X022003Y035875D03*
X022683Y035875D03*
X022683Y036425D03*
X022003Y036425D03*
D20*
X040743Y031228D03*
X042043Y031228D03*
X046796Y031225D03*
X048096Y031225D03*
X047791Y027325D03*
X049091Y027325D03*
X045743Y024775D03*
X044443Y024775D03*
X042593Y021125D03*
X041293Y021125D03*
X016643Y015125D03*
X015343Y015125D03*
X015246Y011825D03*
X016546Y011825D03*
D21*
X023991Y012574D03*
X023991Y014976D03*
X049241Y023474D03*
X049241Y025876D03*
D22*
X036493Y023585D03*
X036493Y022765D03*
X036591Y018335D03*
X036591Y017515D03*
X036691Y016285D03*
X036691Y015465D03*
X030543Y022762D03*
X030543Y023582D03*
X021796Y026815D03*
X021796Y027635D03*
X017041Y027915D03*
X017041Y028735D03*
X018693Y023535D03*
X018693Y022715D03*
D23*
X022193Y021665D03*
X022193Y020985D03*
X017893Y016565D03*
X017893Y015885D03*
X011743Y016135D03*
X011743Y016815D03*
X010093Y016815D03*
X010093Y016135D03*
X017841Y027885D03*
X017841Y028565D03*
X019193Y029385D03*
X019193Y030065D03*
X021593Y029965D03*
X021593Y029285D03*
X031343Y027415D03*
X031343Y026735D03*
X033393Y028685D03*
X033393Y029365D03*
X033393Y030085D03*
X032493Y030085D03*
X032493Y030765D03*
X033393Y030765D03*
X034293Y030765D03*
X034293Y030085D03*
X035193Y030085D03*
X035193Y030765D03*
X036346Y029365D03*
X036346Y028685D03*
X038143Y024465D03*
X038143Y023785D03*
X035693Y023415D03*
X035693Y022735D03*
X033143Y019615D03*
X033143Y018935D03*
X032191Y017415D03*
X032191Y016735D03*
X035791Y017585D03*
X035791Y018265D03*
X035891Y016215D03*
X035891Y015535D03*
X039893Y019685D03*
X039893Y020365D03*
X040693Y020365D03*
X040693Y019685D03*
X041493Y019685D03*
X041493Y020365D03*
X043093Y023885D03*
X043093Y024565D03*
X031343Y023415D03*
X031343Y022735D03*
D24*
X035343Y012692D03*
X035343Y010664D03*
D25*
X035201Y015615D03*
X035201Y015875D03*
X035201Y016135D03*
X034381Y016135D03*
X034381Y015615D03*
D26*
X034951Y017545D03*
X034951Y017795D03*
X034951Y018055D03*
X034951Y018305D03*
X033231Y018305D03*
X033231Y018055D03*
X033231Y017795D03*
X033231Y017545D03*
D27*
X033493Y024969D03*
X032593Y024969D03*
X032593Y026386D03*
X033493Y026386D03*
D28*
X044109Y007508D03*
X045093Y007508D03*
X046078Y007508D03*
D29*
X046432Y006425D03*
X043755Y006425D03*
D30*
X026244Y034359D03*
X025244Y034359D03*
X024244Y034359D03*
D31*
X023577Y035125D03*
X023577Y036625D03*
X027415Y036625D03*
X027415Y035125D03*
D32*
X020626Y029599D03*
X020626Y029225D03*
X020626Y028851D03*
X019760Y028851D03*
X019760Y029225D03*
X019760Y029599D03*
X039560Y023299D03*
X039560Y022925D03*
X039560Y022551D03*
X040426Y022551D03*
X040426Y022925D03*
X040426Y023299D03*
X041460Y023299D03*
X041460Y022925D03*
X041460Y022551D03*
X042326Y022551D03*
X042326Y022925D03*
X042326Y023299D03*
D33*
X044643Y017725D03*
D34*
X044793Y034625D03*
X038593Y034625D03*
X032393Y034625D03*
X050993Y034625D03*
X016743Y008275D03*
X010543Y008275D03*
D35*
X008531Y008735D03*
X012556Y008735D03*
X014731Y008735D03*
X018756Y008735D03*
X030381Y034165D03*
X034406Y034165D03*
X036581Y034165D03*
X040606Y034165D03*
X042781Y034165D03*
X046806Y034165D03*
X048981Y034165D03*
X053006Y034165D03*
D36*
X031241Y020225D03*
X030941Y016225D03*
X049893Y006906D03*
D37*
X035256Y028655D03*
X035256Y029025D03*
X035256Y029395D03*
X034236Y029395D03*
X034236Y028655D03*
D38*
X017513Y014222D03*
X017513Y013722D03*
X017513Y013222D03*
X017513Y012722D03*
X015573Y012722D03*
X015573Y013222D03*
X015573Y013722D03*
X015573Y014222D03*
D39*
X009893Y019125D03*
X009293Y019125D03*
X009293Y020125D03*
X009893Y020125D03*
X009893Y021125D03*
X009293Y021125D03*
X009293Y022125D03*
X009893Y022125D03*
X009893Y024725D03*
X009293Y024725D03*
X009293Y025725D03*
X009893Y025725D03*
X009893Y026725D03*
X009293Y026725D03*
X009293Y027725D03*
X009893Y027725D03*
D40*
X009593Y027725D03*
X009593Y026725D03*
X009593Y025725D03*
X009593Y024725D03*
X009593Y022125D03*
X009593Y021125D03*
X009593Y020125D03*
X009593Y019125D03*
D41*
X036319Y030095D03*
X037067Y030095D03*
X036693Y030961D03*
D42*
X019843Y035325D03*
X018843Y035325D03*
X017843Y035325D03*
D43*
X011123Y031225D03*
X009273Y031225D03*
X007423Y031225D03*
X008273Y036225D03*
X010273Y036225D03*
D44*
X031593Y012725D03*
X031593Y006725D03*
X039093Y006725D03*
X039093Y012725D03*
D45*
X022843Y035075D03*
X021843Y035075D03*
X015918Y035075D03*
X014918Y035075D03*
X013493Y035075D03*
X012493Y035075D03*
D46*
X011203Y017915D03*
X010943Y017915D03*
X010683Y017915D03*
X010683Y017035D03*
X010943Y017035D03*
X011203Y017035D03*
X038377Y019535D03*
X038633Y019535D03*
X038893Y019535D03*
X039153Y019535D03*
X039153Y020415D03*
X038893Y020415D03*
X038633Y020415D03*
X038377Y020415D03*
D47*
X043362Y022551D03*
X043362Y022925D03*
X043362Y023299D03*
X044425Y023299D03*
X044425Y022551D03*
D48*
X020667Y022656D03*
X019919Y022656D03*
X019919Y021594D03*
X020293Y021594D03*
X020667Y021594D03*
D49*
X019493Y020875D03*
X019493Y019575D03*
D50*
X019543Y017325D03*
X020643Y017325D03*
D51*
X020802Y018725D03*
X019385Y018725D03*
D52*
X018674Y019536D03*
X018674Y020914D03*
X016312Y020914D03*
X016312Y019536D03*
D53*
X049893Y010449D03*
D54*
X049893Y008087D03*
D55*
X048122Y008087D03*
X051665Y008087D03*
D56*
X025993Y020825D03*
X025993Y021425D03*
X025993Y022025D03*
D57*
X035293Y006925D03*
X042043Y006775D03*
D58*
X047293Y010325D03*
X050593Y012625D03*
M02*
