G75*
%MOIN*%
%OFA0B0*%
%FSLAX24Y24*%
%IPPOS*%
%LPD*%
%AMOC8*
5,1,8,0,0,1.08239X$1,22.5*
%
%ADD10R,0.0866X0.0236*%
%ADD11R,0.0512X0.0630*%
%ADD12R,0.0787X0.0630*%
%ADD13OC8,0.0660*%
%ADD14OC8,0.0700*%
%ADD15R,0.0700X0.0700*%
%ADD16R,0.1350X0.0500*%
%ADD17R,0.3550X0.4200*%
%ADD18R,0.0906X0.0984*%
%ADD19R,0.0350X0.0420*%
%ADD20R,0.0480X0.0740*%
%ADD21R,0.0630X0.1575*%
%ADD22R,0.0600X0.0380*%
%ADD23R,0.0420X0.0350*%
%ADD24R,0.1457X0.0965*%
%ADD25R,0.0460X0.0140*%
%ADD26R,0.0590X0.0170*%
%ADD27R,0.0480X0.0360*%
%ADD28R,0.0276X0.0669*%
%ADD29R,0.0610X0.0433*%
%ADD30R,0.0417X0.0256*%
%ADD31R,0.1000X0.2300*%
%ADD32OC8,0.1210*%
%ADD33C,0.0630*%
%ADD34R,0.0500X0.0220*%
%ADD35R,0.0780X0.0220*%
%ADD36R,0.0460X0.0630*%
%ADD37R,0.0394X0.0551*%
%ADD38OC8,0.0531*%
%ADD39OC8,0.1095*%
%ADD40OC8,0.0945*%
%ADD41R,0.0140X0.0400*%
%ADD42R,0.0394X0.0217*%
%ADD43R,0.0217X0.0394*%
%ADD44R,0.0740X0.0480*%
%ADD45R,0.0650X0.1100*%
%ADD46R,0.0360X0.0480*%
%ADD47R,0.0512X0.0472*%
%ADD48OC8,0.1620*%
%ADD49OC8,0.1325*%
%ADD50OC8,0.1424*%
%ADD51R,0.0630X0.0460*%
%ADD52C,0.0120*%
%ADD53C,0.0270*%
%ADD54C,0.0240*%
%ADD55C,0.0160*%
%ADD56C,0.0070*%
%ADD57C,0.0400*%
%ADD58C,0.0100*%
%ADD59C,0.0050*%
%ADD60C,0.0472*%
%ADD61C,0.0320*%
%ADD62C,0.0376*%
%ADD63C,0.0531*%
%ADD64OC8,0.1181*%
%ADD65C,0.0500*%
%ADD66C,0.0560*%
%ADD67C,0.1000*%
%ADD68OC8,0.1502*%
%ADD69C,0.2000*%
%ADD70C,0.1500*%
%ADD71C,0.0416*%
%ADD72C,0.0240*%
%ADD73C,0.0700*%
D10*
X020470Y026775D03*
X020470Y027275D03*
X020470Y027775D03*
X020470Y028275D03*
X022517Y028275D03*
X022517Y027775D03*
X022517Y027275D03*
X022517Y026775D03*
X034217Y024225D03*
X034217Y023725D03*
X034217Y023225D03*
X034217Y022725D03*
X034217Y022225D03*
X034217Y021725D03*
X034217Y021225D03*
X036264Y021225D03*
X036264Y021725D03*
X036264Y022225D03*
X036264Y022725D03*
X036264Y023225D03*
X036264Y023725D03*
X036264Y024225D03*
D11*
X034891Y015946D03*
X033891Y015946D03*
D12*
X034391Y014804D03*
D13*
X029041Y016725D03*
X029041Y017725D03*
X029041Y018725D03*
X029041Y019725D03*
X029041Y020725D03*
X029041Y021725D03*
X029041Y022725D03*
X029041Y023725D03*
X029041Y025725D03*
X029041Y026725D03*
X029041Y027725D03*
X029041Y028725D03*
X029041Y029725D03*
X029041Y030725D03*
X010041Y030725D03*
X010041Y029725D03*
X010041Y028725D03*
X010041Y027725D03*
X010041Y026725D03*
X010041Y025725D03*
X010041Y024725D03*
X010041Y023725D03*
X010041Y022125D03*
X010041Y021125D03*
X010041Y020125D03*
X010041Y019125D03*
X010041Y018125D03*
X010041Y017125D03*
X010041Y016125D03*
X010041Y015125D03*
X010041Y014125D03*
X010041Y013125D03*
X023743Y010175D03*
X023743Y009175D03*
X024743Y009175D03*
X024743Y010175D03*
X025743Y010175D03*
X025743Y009175D03*
X026743Y009175D03*
X026743Y010175D03*
X027743Y010175D03*
X027743Y009175D03*
X052282Y028548D03*
X052282Y029548D03*
X052282Y030548D03*
X052282Y031548D03*
X053282Y031548D03*
X053282Y030548D03*
X053282Y029548D03*
X053282Y028548D03*
D14*
X020041Y030775D03*
X020041Y031775D03*
X019041Y031775D03*
X019041Y030775D03*
X018041Y031775D03*
D15*
X018041Y030775D03*
D16*
X042488Y018725D03*
X042488Y016725D03*
X047673Y027247D03*
X047673Y028247D03*
X047673Y029247D03*
D17*
X043618Y028247D03*
X046368Y017725D03*
D18*
X047031Y031222D03*
X045456Y031222D03*
D19*
X046606Y026225D03*
X047286Y026225D03*
X048001Y026225D03*
X048681Y026225D03*
X046833Y023875D03*
X046153Y023875D03*
X045433Y021975D03*
X044753Y021975D03*
X043633Y021925D03*
X042953Y021925D03*
X042953Y023925D03*
X043633Y023925D03*
X040133Y021125D03*
X039453Y021125D03*
X038331Y020975D03*
X037651Y020975D03*
X037651Y021725D03*
X038331Y021725D03*
X036083Y020175D03*
X036083Y019575D03*
X036083Y018975D03*
X035403Y018975D03*
X035403Y019575D03*
X035403Y020175D03*
X040103Y018875D03*
X040783Y018875D03*
X036631Y014825D03*
X035951Y014825D03*
X028283Y023025D03*
X027603Y023025D03*
X027603Y023725D03*
X028283Y023725D03*
X030103Y025725D03*
X030783Y025725D03*
X030783Y026725D03*
X030103Y026725D03*
X030103Y027725D03*
X030783Y027725D03*
X030783Y028725D03*
X030103Y028725D03*
X034403Y027375D03*
X035083Y027375D03*
X037653Y026125D03*
X038333Y026125D03*
X038333Y025375D03*
X037653Y025375D03*
X025431Y028275D03*
X024751Y028275D03*
X024081Y028275D03*
X023401Y028275D03*
X024453Y022325D03*
X024453Y021725D03*
X025133Y021725D03*
X025133Y022325D03*
X011283Y014125D03*
X010603Y014125D03*
X010603Y013075D03*
X011283Y013075D03*
X017703Y009875D03*
X018383Y009875D03*
X017433Y035875D03*
X017433Y036425D03*
X016753Y036425D03*
X016753Y035875D03*
X015033Y035875D03*
X015033Y036425D03*
X014353Y036425D03*
X014353Y035875D03*
X023703Y035875D03*
X023703Y036425D03*
X024383Y036425D03*
X024383Y035875D03*
D20*
X042443Y031228D03*
X043743Y031228D03*
X048496Y031225D03*
X049796Y031225D03*
X049491Y027325D03*
X050791Y027325D03*
X047443Y024775D03*
X046143Y024775D03*
X044293Y021125D03*
X042993Y021125D03*
X018343Y015125D03*
X017043Y015125D03*
X016946Y011825D03*
X018246Y011825D03*
D21*
X025691Y012574D03*
X025691Y014976D03*
X050941Y023474D03*
X050941Y025876D03*
D22*
X038193Y023585D03*
X038193Y022765D03*
X038291Y018335D03*
X038291Y017515D03*
X038391Y016285D03*
X038391Y015465D03*
X032243Y022762D03*
X032243Y023582D03*
X023496Y026815D03*
X023496Y027635D03*
X018741Y027915D03*
X018741Y028735D03*
X020393Y023535D03*
X020393Y022715D03*
D23*
X023893Y021665D03*
X023893Y020985D03*
X019593Y016565D03*
X019593Y015885D03*
X013443Y016135D03*
X013443Y016815D03*
X011793Y016815D03*
X011793Y016135D03*
X019541Y027885D03*
X019541Y028565D03*
X020893Y029385D03*
X020893Y030065D03*
X023293Y029965D03*
X023293Y029285D03*
X033043Y027415D03*
X033043Y026735D03*
X035093Y028685D03*
X035093Y029365D03*
X035093Y030085D03*
X035993Y030085D03*
X035993Y030765D03*
X035093Y030765D03*
X034193Y030765D03*
X034193Y030085D03*
X036893Y030085D03*
X036893Y030765D03*
X038046Y029365D03*
X038046Y028685D03*
X039843Y024465D03*
X039843Y023785D03*
X037393Y023415D03*
X037393Y022735D03*
X034843Y019615D03*
X034843Y018935D03*
X033891Y017415D03*
X033891Y016735D03*
X037491Y017585D03*
X037491Y018265D03*
X037591Y016215D03*
X037591Y015535D03*
X041593Y019685D03*
X042393Y019685D03*
X042393Y020365D03*
X041593Y020365D03*
X043193Y020365D03*
X043193Y019685D03*
X044793Y023885D03*
X044793Y024565D03*
X033043Y023415D03*
X033043Y022735D03*
D24*
X037043Y012692D03*
X037043Y010664D03*
D25*
X036901Y015615D03*
X036901Y015875D03*
X036901Y016135D03*
X036081Y016135D03*
X036081Y015615D03*
D26*
X036651Y017545D03*
X036651Y017795D03*
X036651Y018055D03*
X036651Y018305D03*
X034931Y018305D03*
X034931Y018055D03*
X034931Y017795D03*
X034931Y017545D03*
D27*
X035193Y024969D03*
X034293Y024969D03*
X034293Y026386D03*
X035193Y026386D03*
D28*
X027944Y034359D03*
X026944Y034359D03*
X025944Y034359D03*
D29*
X025277Y035125D03*
X025277Y036625D03*
X029115Y036625D03*
X029115Y035125D03*
D30*
X022326Y029599D03*
X022326Y029225D03*
X022326Y028851D03*
X021460Y028851D03*
X021460Y029225D03*
X021460Y029599D03*
X041260Y023299D03*
X041260Y022925D03*
X041260Y022551D03*
X042126Y022551D03*
X042126Y022925D03*
X042126Y023299D03*
X043160Y023299D03*
X043160Y022925D03*
X043160Y022551D03*
X044026Y022551D03*
X044026Y022925D03*
X044026Y023299D03*
D31*
X046493Y034625D03*
X040293Y034625D03*
X034093Y034625D03*
X052693Y034625D03*
X018443Y008275D03*
X012243Y008275D03*
D32*
X010231Y008735D03*
X014256Y008735D03*
X016431Y008735D03*
X020456Y008735D03*
X032081Y034165D03*
X036106Y034165D03*
X038281Y034165D03*
X042306Y034165D03*
X044481Y034165D03*
X048506Y034165D03*
X050681Y034165D03*
X054706Y034165D03*
D33*
X032941Y020225D03*
X032641Y016225D03*
D34*
X035936Y028655D03*
X035936Y029395D03*
X036956Y029395D03*
X036956Y029025D03*
X036956Y028655D03*
D35*
X019213Y014222D03*
X019213Y013722D03*
X019213Y013222D03*
X019213Y012722D03*
X017273Y012722D03*
X017273Y013222D03*
X017273Y013722D03*
X017273Y014222D03*
D36*
X011593Y019125D03*
X010993Y019125D03*
X010993Y020125D03*
X011593Y020125D03*
X011593Y021125D03*
X010993Y021125D03*
X010993Y022125D03*
X011593Y022125D03*
X011593Y024725D03*
X010993Y024725D03*
X010993Y025725D03*
X011593Y025725D03*
X011593Y026725D03*
X010993Y026725D03*
X010993Y027725D03*
X011593Y027725D03*
D37*
X038019Y030095D03*
X038767Y030095D03*
X038393Y030961D03*
D38*
X021543Y035325D03*
X020543Y035325D03*
X019543Y035325D03*
D39*
X012823Y031225D03*
X010973Y031225D03*
X009123Y031225D03*
X009973Y036225D03*
X011973Y036225D03*
D40*
X033293Y012725D03*
X033293Y006725D03*
X040793Y006725D03*
X040793Y012725D03*
D41*
X040853Y019535D03*
X040593Y019535D03*
X040333Y019535D03*
X040077Y019535D03*
X040077Y020415D03*
X040333Y020415D03*
X040593Y020415D03*
X040853Y020415D03*
X012903Y017915D03*
X012643Y017915D03*
X012383Y017915D03*
X012383Y017035D03*
X012643Y017035D03*
X012903Y017035D03*
D42*
X045062Y022551D03*
X045062Y022925D03*
X045062Y023299D03*
X046125Y023299D03*
X046125Y022551D03*
D43*
X022367Y022656D03*
X021619Y022656D03*
X021619Y021594D03*
X021993Y021594D03*
X022367Y021594D03*
D44*
X021193Y020875D03*
X021193Y019575D03*
D45*
X021243Y017325D03*
X022343Y017325D03*
D46*
X022502Y018725D03*
X021085Y018725D03*
D47*
X020374Y019536D03*
X020374Y020914D03*
X018012Y020914D03*
X018012Y019536D03*
D48*
X051770Y010449D03*
D49*
X051770Y008087D03*
D50*
X053541Y008087D03*
X049998Y008087D03*
D51*
X027693Y020825D03*
X027693Y021425D03*
X027693Y022025D03*
D52*
X029041Y025725D02*
X030103Y025725D01*
X030783Y025725D02*
X030783Y026725D01*
X030783Y027725D01*
X030783Y028725D01*
X030103Y028725D02*
X029041Y028725D01*
X029041Y027725D02*
X030103Y027725D01*
X030783Y027725D02*
X030783Y027425D01*
X030793Y027425D01*
X030793Y027415D01*
X033043Y027415D01*
X033043Y027375D01*
X034403Y027375D01*
X034743Y027975D02*
X028393Y034325D01*
X028393Y034625D01*
X028093Y034925D01*
X025793Y034925D01*
X025293Y034425D01*
X021393Y034425D01*
X020543Y035275D01*
X020543Y035325D01*
X019793Y036875D02*
X018943Y036025D01*
X018943Y034275D01*
X017993Y033325D01*
X011223Y033325D01*
X009123Y031225D01*
X010973Y031225D02*
X012823Y033075D01*
X024660Y033075D01*
X025944Y034359D01*
X026944Y034359D02*
X026944Y033616D01*
X023293Y029965D01*
X022927Y029599D01*
X022326Y029599D01*
X022386Y029285D02*
X023293Y029285D01*
X023993Y029025D02*
X023401Y028432D01*
X023401Y028275D01*
X022517Y028275D01*
X022326Y029225D02*
X022386Y029285D01*
X022326Y029225D02*
X022093Y029225D01*
X021893Y029425D01*
X021893Y029925D01*
X022193Y030225D01*
X022201Y032825D02*
X014423Y032825D01*
X012823Y031225D01*
X015993Y036125D02*
X016493Y036125D01*
X016543Y036075D01*
X016753Y035875D01*
X016753Y036425D02*
X016343Y036425D01*
X017433Y036425D02*
X017433Y035875D01*
X014353Y036425D02*
X013943Y036425D01*
X023293Y036425D02*
X023703Y036425D01*
X023703Y035875D02*
X023496Y035872D01*
X023293Y035875D01*
X024383Y035875D02*
X024383Y036425D01*
X026944Y034574D02*
X026944Y034359D01*
X027944Y034359D02*
X027944Y034224D01*
X032693Y029475D01*
X033343Y030325D02*
X033343Y032175D01*
X034093Y032925D01*
X039943Y032925D01*
X040293Y033275D01*
X040293Y034625D01*
X039950Y032325D02*
X051783Y032325D01*
X052743Y033285D01*
X052743Y033563D01*
X052477Y033829D01*
X052585Y033992D01*
X052693Y034253D01*
X052693Y034625D01*
X052282Y029548D02*
X052282Y029062D01*
X052469Y028875D01*
X052956Y028875D01*
X053000Y028831D01*
X053000Y028831D01*
X053282Y028548D01*
X053282Y028351D01*
X053256Y028325D01*
X047673Y028247D02*
X046866Y028247D01*
X046793Y028250D01*
X045043Y025275D02*
X045393Y024925D01*
X045393Y022675D01*
X045269Y022551D01*
X045062Y022551D01*
X044567Y023299D02*
X044193Y022925D01*
X044026Y022925D01*
X043160Y022925D01*
X043160Y022551D02*
X043093Y022484D01*
X043093Y022325D01*
X042993Y022225D01*
X042953Y021925D01*
X041893Y021925D01*
X041693Y022125D01*
X041693Y022642D01*
X041410Y022925D01*
X041260Y022925D01*
X041260Y022551D02*
X041260Y021958D01*
X042393Y020825D01*
X042393Y020365D01*
X041593Y020365D02*
X041593Y021025D01*
X040793Y021825D01*
X040793Y023125D01*
X040993Y023325D01*
X041234Y023325D01*
X041260Y023299D01*
X041693Y023208D02*
X041693Y023725D01*
X041893Y023925D01*
X042953Y023925D01*
X043033Y023925D01*
X042993Y023925D02*
X042953Y023925D01*
X042993Y023625D01*
X043093Y023525D01*
X043093Y023366D01*
X043160Y023299D01*
X042543Y023325D02*
X042152Y023325D01*
X042126Y023299D01*
X042126Y022925D02*
X041976Y022925D01*
X041693Y023208D01*
X042126Y022551D02*
X042152Y022525D01*
X042543Y022525D01*
X043019Y022551D02*
X043160Y022551D01*
X043633Y021925D02*
X043683Y021875D01*
X044293Y021875D01*
X043993Y022225D02*
X043993Y022518D01*
X044026Y022551D01*
X044026Y023299D02*
X043993Y023332D01*
X043993Y023625D01*
X044093Y024025D02*
X043733Y024025D01*
X043633Y023925D01*
X044567Y023299D02*
X044793Y023299D01*
X044793Y023885D01*
X044793Y023299D02*
X045062Y023299D01*
X046125Y022551D02*
X046125Y021656D01*
X045993Y021525D01*
X045593Y021525D01*
X043793Y019725D01*
X043793Y018657D01*
X043161Y018025D01*
X041793Y018025D01*
X041493Y018325D01*
X041493Y018925D01*
X040883Y019535D01*
X040853Y019535D01*
X040593Y019535D02*
X040593Y019325D01*
X040643Y019275D01*
X040343Y019275D02*
X040333Y019285D01*
X040333Y019535D01*
X040768Y020075D02*
X040843Y020150D01*
X040843Y020405D01*
X040853Y020415D01*
X040843Y020425D01*
X040843Y020725D01*
X040593Y020775D02*
X040543Y020825D01*
X040593Y020775D02*
X040593Y020415D01*
X040333Y020415D02*
X040333Y020635D01*
X040243Y020725D01*
X039843Y020725D01*
X038331Y020975D02*
X037651Y021655D01*
X037651Y021725D01*
X036264Y021725D01*
X036264Y021225D02*
X035793Y021225D01*
X035593Y021425D01*
X034893Y020825D02*
X035193Y020525D01*
X035743Y020525D01*
X036083Y020185D01*
X036083Y020175D01*
X036083Y019575D01*
X036083Y018975D02*
X036003Y018975D01*
X035403Y019575D01*
X034843Y019615D02*
X034843Y020075D01*
X034943Y020175D01*
X035403Y020175D01*
X034893Y020825D02*
X032943Y020825D01*
X032941Y020822D01*
X032941Y020225D01*
X033593Y021225D02*
X033343Y021475D01*
X033593Y021225D02*
X034217Y021225D01*
X034217Y021725D01*
X034217Y022225D02*
X033693Y022225D01*
X035193Y023625D02*
X035193Y024969D01*
X035243Y024919D01*
X035193Y024969D02*
X034743Y024969D01*
X034743Y027975D01*
X035083Y027375D02*
X036743Y027375D01*
X036743Y028025D01*
X036443Y028325D01*
X036443Y029575D01*
X036343Y029675D01*
X035755Y029675D01*
X035543Y029887D01*
X035543Y030575D01*
X035693Y030725D01*
X035953Y030725D01*
X035993Y030765D01*
X035993Y031925D01*
X036693Y032625D01*
X045793Y032625D01*
X046493Y033325D01*
X046493Y034625D01*
X039950Y032325D02*
X039243Y031618D01*
X039243Y028675D01*
X038743Y028175D01*
X037634Y028175D01*
X036993Y027535D01*
X036993Y026125D01*
X037653Y026125D01*
X036993Y026125D02*
X036993Y025325D01*
X036293Y024625D01*
X036293Y024254D01*
X036264Y024225D01*
X036264Y023725D02*
X036743Y023725D01*
X036843Y023825D01*
X036843Y024325D01*
X037243Y024725D01*
X037243Y025125D01*
X037493Y025375D01*
X037653Y025375D01*
X038333Y026055D01*
X038333Y026125D01*
X038333Y025375D02*
X038743Y025375D01*
X039843Y024525D02*
X039843Y024465D01*
X039843Y024525D02*
X040593Y025275D01*
X045043Y025275D01*
X044793Y024925D02*
X044793Y024565D01*
X043593Y020375D02*
X043583Y020365D01*
X043193Y020365D01*
X043193Y019685D02*
X042393Y019685D01*
X042488Y019590D01*
X042488Y018725D01*
X042393Y019685D02*
X041593Y019685D01*
X039743Y018425D02*
X040743Y017425D01*
X043093Y017425D01*
X043393Y017125D01*
X043393Y013425D01*
X046793Y010025D01*
X046793Y008375D01*
X037593Y015525D02*
X037591Y015528D01*
X037591Y015535D01*
X038393Y016275D02*
X038393Y016282D01*
X038391Y016285D01*
X038291Y017515D02*
X038291Y017522D01*
X038293Y017525D01*
X037493Y018268D02*
X037491Y018265D01*
X037493Y018268D02*
X037493Y018275D01*
X036651Y017795D02*
X036183Y017795D01*
X036083Y017895D01*
X036083Y018975D01*
X035403Y018975D02*
X035363Y018935D01*
X034843Y018935D01*
X035403Y018975D02*
X035403Y018185D01*
X035393Y018175D01*
X035393Y018155D01*
X035293Y018055D01*
X034931Y018055D01*
X034931Y017795D02*
X034911Y017775D01*
X035393Y017775D01*
X035493Y017675D01*
X035493Y016235D01*
X035593Y016135D01*
X036043Y016135D02*
X036081Y016135D01*
X036081Y015615D02*
X036081Y015375D01*
X036631Y014825D01*
X035951Y014825D02*
X035930Y014804D01*
X034391Y014804D01*
X034891Y015946D02*
X035080Y016135D01*
X034383Y017415D02*
X034393Y017425D01*
X034383Y017415D02*
X033891Y017415D01*
X033891Y016735D02*
X033891Y015946D01*
X032641Y016225D02*
X032641Y015378D01*
X032643Y015375D01*
X034931Y017495D02*
X034931Y017545D01*
X034931Y017495D02*
X034943Y017482D01*
X036514Y020975D02*
X037651Y020975D01*
X037651Y021725D02*
X037601Y021775D01*
X036514Y020975D02*
X036264Y021225D01*
X036243Y021204D01*
X036264Y023225D02*
X035593Y023225D01*
X035193Y023625D01*
X035593Y024375D02*
X036743Y025525D01*
X036743Y027375D01*
X036956Y028655D02*
X038016Y028655D01*
X038046Y028685D01*
X038046Y029365D02*
X038046Y030068D01*
X038019Y030095D01*
X038767Y030095D02*
X038767Y029649D01*
X038793Y029575D01*
X038393Y030961D02*
X038393Y032325D01*
X036893Y030085D02*
X035993Y030085D01*
X035936Y029395D02*
X035753Y029395D01*
X035093Y030054D01*
X035093Y030085D01*
X035246Y030085D01*
X035193Y026825D02*
X035193Y026386D01*
X034293Y026386D02*
X034293Y026825D01*
X033043Y026735D02*
X033043Y026325D01*
X034293Y024969D02*
X034743Y024969D01*
X036264Y023225D02*
X036843Y023225D01*
X037043Y023425D01*
X037043Y024075D01*
X037493Y024525D01*
X039843Y024525D01*
X039843Y023785D02*
X039843Y023425D01*
X030103Y026725D02*
X029041Y026725D01*
X034093Y034625D02*
X034193Y034725D01*
X034193Y035525D01*
X033943Y035775D01*
X031893Y035775D01*
X030793Y036875D01*
X018383Y009875D02*
X018383Y009865D01*
X017703Y009875D02*
X017293Y009875D01*
X018383Y008335D02*
X018443Y008275D01*
D53*
X017293Y009875D03*
X011693Y013075D03*
X011693Y014125D03*
X011793Y015725D03*
X013443Y015725D03*
X013443Y017225D03*
X012093Y018125D03*
X022943Y017725D03*
X022943Y017325D03*
X022943Y016925D03*
X023343Y016925D03*
X023343Y017325D03*
X023343Y017725D03*
X031693Y022775D03*
X032193Y022325D03*
X033043Y022325D03*
X033343Y021475D03*
X032943Y020825D03*
X034943Y020175D03*
X035593Y021425D03*
X037393Y023825D03*
X038193Y024025D03*
X038193Y023175D03*
X038693Y022825D03*
X038743Y021725D03*
X039443Y021525D03*
X040143Y021525D03*
X039843Y020725D03*
X040143Y018475D03*
X039743Y018425D03*
X038843Y018325D03*
X038293Y018775D03*
X037493Y018675D03*
X038843Y017525D03*
X038293Y017075D03*
X038393Y016725D03*
X038943Y016325D03*
X038943Y015425D03*
X038393Y015025D03*
X037593Y015125D03*
X037593Y016625D03*
X037493Y017175D03*
X034943Y017225D03*
X034393Y017425D03*
X040793Y018475D03*
X043793Y018125D03*
X043793Y017625D03*
X043793Y017125D03*
X043793Y016625D03*
X043793Y016125D03*
X043793Y015625D03*
X043793Y015125D03*
X043793Y014625D03*
X044293Y014625D03*
X044293Y015125D03*
X044293Y015625D03*
X044293Y016125D03*
X044293Y016625D03*
X044293Y017125D03*
X044293Y017625D03*
X044293Y018125D03*
X044293Y018625D03*
X044293Y019125D03*
X044293Y019625D03*
X044793Y019625D03*
X044793Y019125D03*
X044793Y018625D03*
X044793Y018125D03*
X044793Y017625D03*
X044793Y017125D03*
X044793Y016625D03*
X044793Y016125D03*
X044793Y015625D03*
X044793Y015125D03*
X044793Y014625D03*
X045293Y014625D03*
X045293Y015125D03*
X045293Y015625D03*
X045293Y016125D03*
X045293Y016625D03*
X045293Y017125D03*
X045293Y017625D03*
X045293Y018125D03*
X045293Y018625D03*
X045293Y019125D03*
X045293Y019625D03*
X045293Y020125D03*
X044793Y020125D03*
X045793Y020125D03*
X045793Y019625D03*
X045793Y019125D03*
X045793Y018625D03*
X045793Y018125D03*
X045793Y017625D03*
X045793Y017125D03*
X045793Y016625D03*
X045793Y016125D03*
X045793Y015625D03*
X045793Y015125D03*
X045793Y014625D03*
X046293Y014625D03*
X046293Y015125D03*
X046293Y015625D03*
X046293Y016125D03*
X046293Y016625D03*
X046293Y017125D03*
X046293Y017625D03*
X046293Y018125D03*
X046293Y018625D03*
X046293Y019125D03*
X046293Y019625D03*
X046293Y020125D03*
X046293Y020625D03*
X046293Y021125D03*
X046793Y021125D03*
X046793Y020625D03*
X046793Y020125D03*
X046793Y019625D03*
X046793Y019125D03*
X046793Y018625D03*
X046793Y018125D03*
X046793Y017625D03*
X046793Y017125D03*
X046793Y016625D03*
X046793Y016125D03*
X046793Y015625D03*
X046793Y015125D03*
X046793Y014625D03*
X047293Y014625D03*
X047293Y015125D03*
X047293Y015625D03*
X047293Y016125D03*
X047293Y016625D03*
X047293Y017125D03*
X047293Y017625D03*
X047293Y018125D03*
X047293Y018625D03*
X047293Y019125D03*
X047293Y019625D03*
X047293Y020125D03*
X047293Y020625D03*
X047293Y021125D03*
X047293Y021625D03*
X046793Y021625D03*
X047293Y022125D03*
X047793Y022125D03*
X047793Y021625D03*
X047793Y021125D03*
X047793Y020625D03*
X047793Y020125D03*
X047793Y019625D03*
X047793Y019125D03*
X047793Y018625D03*
X047793Y018125D03*
X047793Y017625D03*
X047793Y017125D03*
X047793Y016625D03*
X047793Y016125D03*
X047793Y015625D03*
X047793Y015125D03*
X047793Y014625D03*
X048293Y014625D03*
X048293Y015125D03*
X048293Y015625D03*
X048293Y016125D03*
X048293Y016625D03*
X048293Y017125D03*
X048293Y017625D03*
X048293Y018125D03*
X048293Y018625D03*
X048293Y019125D03*
X048293Y019625D03*
X048293Y020125D03*
X048293Y020625D03*
X048293Y021125D03*
X048293Y021625D03*
X048293Y022125D03*
X048793Y022125D03*
X048793Y021625D03*
X048793Y021125D03*
X048793Y020625D03*
X048793Y020125D03*
X048793Y019625D03*
X048793Y019125D03*
X048793Y018625D03*
X048793Y018125D03*
X048793Y017625D03*
X048793Y017125D03*
X048793Y016625D03*
X048793Y016125D03*
X048793Y015625D03*
X048793Y015125D03*
X048793Y014625D03*
X049293Y014625D03*
X049293Y015125D03*
X049293Y015625D03*
X049293Y016125D03*
X049293Y016625D03*
X049293Y017125D03*
X049293Y017625D03*
X049293Y018125D03*
X049293Y018625D03*
X049293Y019125D03*
X049293Y019625D03*
X049293Y020125D03*
X049293Y020625D03*
X049293Y021125D03*
X049293Y021625D03*
X049293Y022125D03*
X049793Y022125D03*
X049793Y021625D03*
X049793Y021125D03*
X049793Y020625D03*
X049793Y020125D03*
X049793Y019625D03*
X049793Y019125D03*
X049793Y018625D03*
X049793Y018125D03*
X049793Y017625D03*
X049793Y017125D03*
X049793Y016625D03*
X049793Y016125D03*
X049793Y015625D03*
X049793Y015125D03*
X049793Y014625D03*
X050293Y014625D03*
X050293Y015125D03*
X050293Y015625D03*
X050293Y016125D03*
X050293Y016625D03*
X050293Y017125D03*
X050293Y017625D03*
X050293Y018125D03*
X050293Y018625D03*
X050293Y019125D03*
X050293Y019625D03*
X050293Y020125D03*
X050293Y020625D03*
X050293Y021125D03*
X050293Y021625D03*
X050293Y022125D03*
X050793Y022125D03*
X050793Y021625D03*
X050793Y021125D03*
X050793Y020625D03*
X050793Y020125D03*
X050793Y019625D03*
X050793Y019125D03*
X050793Y018625D03*
X050793Y018125D03*
X050793Y017625D03*
X050793Y017125D03*
X050793Y016625D03*
X050793Y016125D03*
X050793Y015625D03*
X050793Y015125D03*
X050793Y014625D03*
X051293Y014625D03*
X051293Y015125D03*
X051293Y015625D03*
X051293Y016125D03*
X051293Y016625D03*
X051293Y017125D03*
X051293Y017625D03*
X051293Y018125D03*
X051293Y018625D03*
X051293Y019125D03*
X051293Y019625D03*
X051293Y020125D03*
X051293Y020625D03*
X051293Y021125D03*
X051293Y021625D03*
X051293Y022125D03*
X047893Y024775D03*
X047193Y023875D03*
X045793Y023875D03*
X045693Y024775D03*
X044793Y024925D03*
X044093Y024025D03*
X043993Y023625D03*
X042543Y023325D03*
X042543Y022525D03*
X043993Y022225D03*
X044293Y021875D03*
X044793Y021575D03*
X045243Y021575D03*
X044743Y021075D03*
X043593Y020375D03*
X042543Y021125D03*
X039843Y023425D03*
X038743Y025375D03*
X035593Y024375D03*
X033043Y023825D03*
X032243Y024025D03*
X031693Y023575D03*
X033043Y026325D03*
X034293Y026825D03*
X035193Y026825D03*
X035093Y028275D03*
X034643Y029375D03*
X033743Y030075D03*
X033343Y030325D03*
X032693Y029475D03*
X035093Y031175D03*
X037343Y030775D03*
X038393Y032325D03*
X038793Y029575D03*
X037443Y029025D03*
X042043Y028925D03*
X042043Y028425D03*
X042043Y027925D03*
X042043Y027425D03*
X042043Y026925D03*
X042043Y026425D03*
X042543Y026425D03*
X042543Y026925D03*
X042543Y027425D03*
X042543Y027925D03*
X042543Y028425D03*
X042543Y028925D03*
X042543Y029425D03*
X042043Y029425D03*
X042043Y029925D03*
X042543Y029925D03*
X043043Y029925D03*
X043043Y029425D03*
X043043Y028925D03*
X043043Y028425D03*
X043043Y027925D03*
X043043Y027425D03*
X043043Y026925D03*
X043043Y026425D03*
X043543Y026425D03*
X043543Y026925D03*
X043543Y027425D03*
X043543Y027925D03*
X043543Y028425D03*
X043543Y028925D03*
X043543Y029425D03*
X043543Y029925D03*
X044043Y029925D03*
X044043Y029425D03*
X044043Y028925D03*
X044043Y028425D03*
X044043Y027925D03*
X044043Y027425D03*
X044043Y026925D03*
X044043Y026425D03*
X044543Y026425D03*
X044543Y026925D03*
X044543Y027425D03*
X044543Y027925D03*
X044543Y028425D03*
X044543Y028925D03*
X044543Y029425D03*
X044543Y029925D03*
X045043Y029925D03*
X045043Y029425D03*
X045043Y028925D03*
X045043Y028425D03*
X045043Y027925D03*
X045043Y027425D03*
X045043Y026925D03*
X045043Y026425D03*
X046793Y028250D03*
X049043Y026225D03*
X030793Y036875D03*
X023293Y036425D03*
X023293Y035875D03*
X022201Y032825D03*
X022193Y030225D03*
X020393Y030025D03*
X020393Y029325D03*
X019443Y029025D03*
X018143Y028725D03*
X018143Y027875D03*
X018693Y027425D03*
X019393Y027425D03*
X023993Y029025D03*
X025893Y028275D03*
X016343Y036425D03*
X015993Y036125D03*
X013943Y035875D03*
X013943Y036425D03*
X019793Y036875D03*
X045843Y008375D03*
X046793Y008375D03*
D54*
X038943Y015425D02*
X038393Y015425D01*
X038393Y015025D01*
X038391Y015465D02*
X037661Y015465D01*
X037591Y015535D01*
X037593Y015525D02*
X037593Y015125D01*
X037551Y016175D02*
X037591Y016215D01*
X037661Y016285D01*
X038391Y016285D01*
X038393Y016275D02*
X038393Y016725D01*
X038293Y017075D02*
X038293Y017525D01*
X038193Y017525D01*
X038291Y017515D02*
X037561Y017515D01*
X037491Y017585D01*
X037493Y017525D02*
X037493Y017175D01*
X037593Y016625D02*
X037593Y016225D01*
X038443Y016325D02*
X038943Y016325D01*
X038843Y017525D02*
X038293Y017525D01*
X038293Y017575D01*
X038293Y018325D02*
X038843Y018325D01*
X038293Y018325D02*
X038293Y018775D01*
X038291Y018335D02*
X037561Y018335D01*
X037491Y018265D01*
X037281Y018055D01*
X037043Y018055D01*
X037493Y018275D02*
X037493Y018675D01*
X040103Y018875D02*
X040143Y018835D01*
X040143Y018475D01*
X040103Y018875D02*
X040343Y019115D01*
X040343Y019275D01*
X040693Y019175D02*
X040783Y019085D01*
X040783Y018875D01*
X040783Y018485D01*
X040793Y018475D01*
X040843Y020725D02*
X040843Y021325D01*
X039943Y022225D01*
X036264Y022225D01*
X037343Y022765D02*
X037393Y022735D01*
X037343Y022765D02*
X038193Y022765D01*
X038193Y022825D01*
X038693Y022825D01*
X038193Y022825D02*
X038193Y023175D01*
X038193Y023585D02*
X038193Y024025D01*
X037393Y023825D02*
X037393Y023415D01*
X039443Y021525D02*
X039443Y021135D01*
X039453Y021125D01*
X040133Y021125D02*
X040143Y021135D01*
X040143Y021525D01*
X040133Y021125D02*
X040293Y021125D01*
X040543Y020825D01*
X042543Y021125D02*
X042993Y021125D01*
X044293Y021125D02*
X044693Y021125D01*
X044743Y021075D01*
X044793Y021575D02*
X044793Y021925D01*
X044743Y021975D01*
X044753Y021975D01*
X044743Y021975D02*
X044693Y021975D01*
X044593Y021875D01*
X044293Y021875D01*
X044593Y021925D02*
X044643Y021875D01*
X044593Y021925D02*
X044593Y021975D01*
X044693Y021975D01*
X044593Y021975D02*
X044593Y022775D01*
X044743Y022925D01*
X045062Y022925D01*
X045433Y021975D02*
X045243Y021785D01*
X045243Y021575D01*
X046125Y023299D02*
X046153Y023328D01*
X046153Y023875D01*
X045793Y023875D01*
X046143Y023885D02*
X046143Y024775D01*
X046093Y024775D02*
X045693Y024775D01*
X046143Y023885D02*
X046153Y023875D01*
X046833Y023875D02*
X047193Y023875D01*
X047443Y024775D02*
X047893Y024775D01*
X047993Y026218D02*
X048001Y026225D01*
X047993Y026232D01*
X048001Y026225D02*
X047643Y026225D01*
X047673Y026255D01*
X047673Y027247D01*
X049474Y027247D01*
X049491Y027325D01*
X050093Y028025D02*
X050493Y028025D01*
X050793Y027725D01*
X050793Y027328D01*
X050791Y027325D01*
X049043Y026225D02*
X048681Y026225D01*
X047643Y026225D02*
X047286Y026225D01*
X046606Y026225D02*
X045193Y026225D01*
X045043Y026375D01*
X045043Y026425D01*
X044021Y028425D02*
X043618Y028247D01*
X044021Y028425D02*
X044043Y028425D01*
X035936Y028655D02*
X035123Y028655D01*
X035093Y028685D01*
X035093Y028275D01*
X035093Y029365D02*
X034643Y029375D01*
X033043Y023825D02*
X033043Y023425D01*
X032393Y023425D01*
X032243Y023575D01*
X031693Y023575D01*
X032243Y023582D02*
X032243Y024025D01*
X033043Y023425D02*
X033043Y023415D01*
X033043Y022735D02*
X032271Y022735D01*
X032243Y022762D01*
X032193Y022762D02*
X032193Y022325D01*
X032193Y022775D02*
X031693Y022775D01*
X033043Y022735D02*
X033043Y022325D01*
X033043Y022735D02*
X033643Y022725D01*
X034217Y022725D01*
X034943Y017482D02*
X034943Y017225D01*
X035080Y016135D02*
X035593Y016135D01*
X036081Y016135D01*
X034891Y015946D02*
X034891Y015872D01*
X034393Y015375D01*
X032643Y015375D01*
X018343Y015125D02*
X018343Y014875D01*
X017693Y014225D01*
X017276Y014225D01*
X017273Y014222D01*
X017043Y015125D02*
X016493Y015125D01*
X017273Y012722D02*
X017273Y012152D01*
X016946Y011825D01*
X016393Y011825D01*
X018693Y027425D02*
X018693Y027868D01*
X018741Y027915D01*
X018693Y027875D02*
X018143Y027875D01*
X018143Y028725D02*
X018731Y028725D01*
X018741Y028735D01*
X019443Y028662D02*
X019443Y029025D01*
X019443Y028662D02*
X019541Y028565D01*
X019551Y028575D01*
X019541Y027885D02*
X019541Y027572D01*
X019393Y027425D01*
D55*
X019593Y027925D02*
X018693Y027925D01*
X018703Y027915D01*
X018741Y027915D01*
X018993Y028525D02*
X018783Y028735D01*
X018741Y028735D01*
X018993Y028525D02*
X019493Y028525D01*
X019541Y028565D02*
X019831Y028275D01*
X020470Y028275D01*
X020393Y029325D02*
X020833Y029325D01*
X020893Y029385D01*
X020953Y029385D01*
X021113Y029225D01*
X021460Y029225D01*
X021460Y029599D02*
X020994Y030065D01*
X020893Y030065D01*
X020833Y030025D01*
X020393Y030025D01*
X021643Y027775D02*
X022517Y027775D01*
X023356Y027775D01*
X023496Y027635D01*
X023036Y027275D02*
X022517Y027275D01*
X023036Y027275D02*
X023496Y026815D01*
X030893Y020425D02*
X032193Y021725D01*
X033193Y021725D01*
X033693Y022225D01*
X034217Y022225D02*
X034693Y022225D01*
X034793Y022125D01*
X034793Y021425D01*
X035493Y020725D01*
X036393Y020725D01*
X036703Y020415D01*
X040077Y020415D01*
X039818Y020075D02*
X039818Y020050D01*
X039768Y020000D01*
X039743Y020000D02*
X039818Y020075D01*
X040768Y020075D01*
X040643Y019275D02*
X040693Y019225D01*
X040693Y019175D01*
X038743Y021725D02*
X038331Y021725D01*
X037393Y022735D02*
X037343Y022725D01*
X036264Y022725D01*
X036651Y018055D02*
X037043Y018055D01*
X037591Y016215D02*
X037511Y016135D01*
X036901Y016135D01*
X036901Y015875D02*
X037291Y015875D01*
X037591Y015575D01*
X037591Y015535D01*
X030893Y012776D02*
X030893Y020425D01*
X030893Y012776D02*
X029543Y011425D01*
X024993Y011425D01*
X023743Y010175D01*
X018683Y010175D01*
X018383Y009875D01*
X018383Y009865D02*
X018383Y008335D01*
X013443Y015725D02*
X013443Y016135D01*
X013443Y016815D02*
X013433Y016825D01*
X013143Y016825D01*
X012933Y017035D01*
X012903Y017035D01*
X012393Y017025D02*
X012193Y016825D01*
X011793Y016825D01*
X012383Y017035D02*
X012393Y017025D01*
X012383Y017915D02*
X012173Y018125D01*
X012093Y018125D01*
X013443Y017225D02*
X013443Y016815D01*
X011793Y016135D02*
X011793Y015725D01*
X053256Y029225D02*
X053282Y029251D01*
X053282Y029548D01*
D56*
X009543Y006675D02*
X009093Y007125D01*
X009093Y013425D01*
X009793Y014125D01*
X010041Y014125D01*
X010603Y014125D01*
X011283Y014125D02*
X011693Y014125D01*
X011693Y013075D02*
X011283Y013075D01*
X010603Y013075D02*
X010553Y013125D01*
X010041Y013125D01*
X009893Y013125D01*
X009293Y012525D01*
X009293Y007225D01*
X009693Y006825D01*
X021143Y006825D01*
X021913Y006055D01*
X024023Y006055D01*
X024743Y006775D01*
X024743Y009175D01*
X025743Y009175D02*
X025743Y007575D01*
X024093Y005925D01*
X021843Y005925D01*
X021093Y006675D01*
X009543Y006675D01*
X012243Y008275D02*
X012243Y015025D01*
X012643Y015425D01*
X012643Y017035D01*
X012383Y017035D02*
X012383Y017365D01*
X012493Y017475D01*
X012843Y017475D01*
X012903Y017535D01*
X012903Y017915D01*
X012643Y017915D02*
X012643Y018075D01*
X011593Y019125D01*
X011593Y020125D01*
X011593Y021125D01*
X011593Y022125D01*
X010993Y022125D02*
X010041Y022125D01*
X010041Y021125D02*
X010993Y021125D01*
X011593Y021125D02*
X011593Y019125D01*
X010993Y019125D02*
X010041Y019125D01*
X010041Y020125D02*
X010993Y020125D01*
X011793Y023725D02*
X010041Y023725D01*
X010041Y024725D02*
X010993Y024725D01*
X011593Y024725D02*
X011593Y025725D01*
X011593Y026725D01*
X011593Y026525D01*
X011693Y026425D01*
X020893Y026425D01*
X020993Y026525D01*
X020993Y027625D01*
X020843Y027775D01*
X020843Y027875D01*
X021093Y028125D01*
X021093Y028425D01*
X021293Y028625D01*
X022100Y028625D01*
X022326Y028851D01*
X021434Y028825D02*
X020193Y028825D01*
X020843Y027875D02*
X020793Y027825D01*
X020470Y027275D02*
X020420Y027225D01*
X019993Y027225D01*
X019693Y026925D01*
X017793Y026925D01*
X017343Y027375D01*
X017343Y028925D01*
X019041Y030622D01*
X019041Y030775D01*
X018543Y030375D02*
X018543Y031325D01*
X018993Y031775D01*
X019041Y031775D01*
X018543Y030375D02*
X017193Y029025D01*
X017193Y027225D01*
X017693Y026725D01*
X020420Y026725D01*
X020470Y026775D01*
X021867Y026125D02*
X012776Y026125D01*
X012193Y025542D01*
X012193Y024125D01*
X011793Y023725D01*
X010993Y025725D02*
X010041Y025725D01*
X010041Y026725D02*
X010993Y026725D01*
X011593Y026725D02*
X011593Y027725D01*
X010993Y027725D02*
X010041Y027725D01*
X021867Y026125D02*
X022517Y026775D01*
X040077Y019759D02*
X040193Y019875D01*
X040493Y019875D01*
X040593Y019775D01*
X040593Y019535D01*
X040077Y019535D02*
X040077Y019759D01*
D57*
X029041Y020725D02*
X028941Y020825D01*
X027693Y020825D01*
X027693Y022025D02*
X028193Y022025D01*
X028393Y022225D01*
X028283Y023025D02*
X028693Y023025D01*
X029041Y022725D01*
X029041Y023725D02*
X028283Y023725D01*
X027603Y023725D02*
X026893Y023725D01*
X026893Y023025D02*
X027603Y023025D01*
X044543Y029425D02*
X044693Y029275D01*
X044743Y029275D01*
X044793Y029325D01*
D58*
X046893Y029365D02*
X049493Y029365D01*
X049493Y029267D02*
X046893Y029267D01*
X046893Y029168D02*
X049493Y029168D01*
X049493Y029070D02*
X046893Y029070D01*
X046893Y028971D02*
X049493Y028971D01*
X049493Y028873D02*
X046893Y028873D01*
X046893Y028774D02*
X049493Y028774D01*
X049493Y028725D02*
X046893Y028725D01*
X046893Y029725D01*
X049493Y029725D01*
X049493Y028725D01*
X049493Y029464D02*
X046893Y029464D01*
X046893Y029562D02*
X049493Y029562D01*
X049493Y029661D02*
X046893Y029661D01*
X047243Y022275D02*
X051493Y022275D01*
X051493Y014425D01*
X043693Y014425D01*
X043693Y018175D01*
X044243Y018725D01*
X044243Y019725D01*
X044793Y020275D01*
X045243Y020275D01*
X047243Y022275D01*
X047241Y022273D02*
X051493Y022273D01*
X051493Y022175D02*
X047143Y022175D01*
X047044Y022076D02*
X051493Y022076D01*
X051493Y021978D02*
X046946Y021978D01*
X046847Y021879D02*
X051493Y021879D01*
X051493Y021781D02*
X046749Y021781D01*
X046650Y021682D02*
X051493Y021682D01*
X051493Y021584D02*
X046552Y021584D01*
X046453Y021485D02*
X051493Y021485D01*
X051493Y021387D02*
X046355Y021387D01*
X046256Y021288D02*
X051493Y021288D01*
X051493Y021190D02*
X046158Y021190D01*
X046059Y021091D02*
X051493Y021091D01*
X051493Y020993D02*
X045961Y020993D01*
X045862Y020894D02*
X051493Y020894D01*
X051493Y020796D02*
X045764Y020796D01*
X045665Y020697D02*
X051493Y020697D01*
X051493Y020599D02*
X045567Y020599D01*
X045468Y020500D02*
X051493Y020500D01*
X051493Y020402D02*
X045370Y020402D01*
X045271Y020303D02*
X051493Y020303D01*
X051493Y020205D02*
X044723Y020205D01*
X044624Y020106D02*
X051493Y020106D01*
X051493Y020008D02*
X044526Y020008D01*
X044427Y019909D02*
X051493Y019909D01*
X051493Y019811D02*
X044329Y019811D01*
X044243Y019712D02*
X051493Y019712D01*
X051493Y019614D02*
X044243Y019614D01*
X044243Y019515D02*
X051493Y019515D01*
X051493Y019417D02*
X044243Y019417D01*
X044243Y019318D02*
X051493Y019318D01*
X051493Y019220D02*
X044243Y019220D01*
X044243Y019121D02*
X051493Y019121D01*
X051493Y019023D02*
X044243Y019023D01*
X044243Y018924D02*
X051493Y018924D01*
X051493Y018826D02*
X044243Y018826D01*
X044243Y018727D02*
X051493Y018727D01*
X051493Y018629D02*
X044147Y018629D01*
X044048Y018530D02*
X051493Y018530D01*
X051493Y018432D02*
X043950Y018432D01*
X043851Y018333D02*
X051493Y018333D01*
X051493Y018235D02*
X043753Y018235D01*
X043693Y018136D02*
X051493Y018136D01*
X051493Y018038D02*
X043693Y018038D01*
X043693Y017939D02*
X051493Y017939D01*
X051493Y017841D02*
X043693Y017841D01*
X043693Y017742D02*
X051493Y017742D01*
X051493Y017644D02*
X043693Y017644D01*
X043693Y017545D02*
X051493Y017545D01*
X051493Y017447D02*
X043693Y017447D01*
X043693Y017348D02*
X051493Y017348D01*
X051493Y017250D02*
X043693Y017250D01*
X043693Y017151D02*
X051493Y017151D01*
X051493Y017053D02*
X043693Y017053D01*
X043693Y016954D02*
X051493Y016954D01*
X051493Y016856D02*
X043693Y016856D01*
X043693Y016757D02*
X051493Y016757D01*
X051493Y016659D02*
X043693Y016659D01*
X043693Y016560D02*
X051493Y016560D01*
X051493Y016462D02*
X043693Y016462D01*
X043693Y016363D02*
X051493Y016363D01*
X051493Y016265D02*
X043693Y016265D01*
X043693Y016166D02*
X051493Y016166D01*
X051493Y016068D02*
X043693Y016068D01*
X043693Y015969D02*
X051493Y015969D01*
X051493Y015871D02*
X043693Y015871D01*
X043693Y015772D02*
X051493Y015772D01*
X051493Y015674D02*
X043693Y015674D01*
X043693Y015575D02*
X051493Y015575D01*
X051493Y015477D02*
X043693Y015477D01*
X043693Y015378D02*
X051493Y015378D01*
X051493Y015280D02*
X043693Y015280D01*
X043693Y015181D02*
X051493Y015181D01*
X051493Y015083D02*
X043693Y015083D01*
X043693Y014984D02*
X051493Y014984D01*
X051493Y014886D02*
X043693Y014886D01*
X043693Y014787D02*
X051493Y014787D01*
X051493Y014689D02*
X043693Y014689D01*
X043693Y014590D02*
X051493Y014590D01*
X051493Y014492D02*
X043693Y014492D01*
X038443Y016225D02*
X038393Y016275D01*
X038343Y011425D02*
X035743Y011425D01*
X035743Y009425D01*
X038343Y009425D01*
X038343Y011425D01*
X038343Y011340D02*
X035743Y011340D01*
X035743Y011241D02*
X038343Y011241D01*
X038343Y011143D02*
X035743Y011143D01*
X035743Y011044D02*
X038343Y011044D01*
X038343Y010946D02*
X035743Y010946D01*
X035743Y010847D02*
X038343Y010847D01*
X038343Y010749D02*
X035743Y010749D01*
X035743Y010650D02*
X038343Y010650D01*
X038343Y010552D02*
X035743Y010552D01*
X035743Y010453D02*
X038343Y010453D01*
X038343Y010355D02*
X035743Y010355D01*
X035743Y010256D02*
X038343Y010256D01*
X038343Y010158D02*
X035743Y010158D01*
X035743Y010059D02*
X038343Y010059D01*
X038343Y009961D02*
X035743Y009961D01*
X035743Y009862D02*
X038343Y009862D01*
X038343Y009764D02*
X035743Y009764D01*
X035743Y009665D02*
X038343Y009665D01*
X038343Y009567D02*
X035743Y009567D01*
X035743Y009468D02*
X038343Y009468D01*
X020393Y011225D02*
X020393Y015025D01*
X019793Y015625D01*
X018603Y015625D01*
X018603Y015595D01*
X018625Y015595D01*
X018683Y015536D01*
X018683Y014714D01*
X018625Y014655D01*
X018434Y014655D01*
X017913Y014134D01*
X017784Y014005D01*
X017367Y014005D01*
X017364Y014002D01*
X017182Y014002D01*
X017172Y014012D01*
X016842Y014012D01*
X016783Y014071D01*
X016783Y014374D01*
X016842Y014432D01*
X017172Y014432D01*
X017185Y014445D01*
X017602Y014445D01*
X018003Y014846D01*
X018003Y015536D01*
X018062Y015595D01*
X018083Y015595D01*
X018083Y015625D01*
X016193Y015625D01*
X015593Y015025D01*
X015593Y011225D01*
X020393Y011225D01*
X020393Y011241D02*
X015593Y011241D01*
X015593Y011340D02*
X020393Y011340D01*
X020393Y011438D02*
X017286Y011438D01*
X017286Y011414D02*
X017227Y011355D01*
X016665Y011355D01*
X016606Y011414D01*
X016606Y011605D01*
X016581Y011605D01*
X016557Y011581D01*
X016451Y011537D01*
X016336Y011537D01*
X016230Y011581D01*
X016149Y011662D01*
X016105Y011768D01*
X016105Y011882D01*
X016149Y011988D01*
X016230Y012069D01*
X016336Y012113D01*
X016451Y012113D01*
X016557Y012069D01*
X016581Y012045D01*
X016606Y012045D01*
X016606Y012236D01*
X016665Y012295D01*
X017053Y012295D01*
X017053Y012512D01*
X016842Y012512D01*
X016783Y012571D01*
X016783Y012874D01*
X016842Y012932D01*
X017172Y012932D01*
X017182Y012942D01*
X017364Y012942D01*
X017374Y012932D01*
X017705Y012932D01*
X017763Y012874D01*
X017763Y012571D01*
X017705Y012512D01*
X017493Y012512D01*
X017493Y012061D01*
X017286Y011854D01*
X017286Y011414D01*
X017286Y011537D02*
X020393Y011537D01*
X020393Y011635D02*
X017286Y011635D01*
X017286Y011734D02*
X020393Y011734D01*
X020393Y011832D02*
X017286Y011832D01*
X017363Y011931D02*
X020393Y011931D01*
X020393Y012029D02*
X017461Y012029D01*
X017493Y012128D02*
X020393Y012128D01*
X020393Y012226D02*
X017493Y012226D01*
X017493Y012325D02*
X020393Y012325D01*
X020393Y012423D02*
X017493Y012423D01*
X017714Y012522D02*
X018773Y012522D01*
X018782Y012512D02*
X019645Y012512D01*
X019703Y012571D01*
X019703Y012874D01*
X019645Y012932D01*
X018782Y012932D01*
X018723Y012874D01*
X018723Y012571D01*
X018782Y012512D01*
X018723Y012620D02*
X017763Y012620D01*
X017763Y012719D02*
X018723Y012719D01*
X018723Y012817D02*
X017763Y012817D01*
X017721Y012916D02*
X018765Y012916D01*
X019661Y012916D02*
X020393Y012916D01*
X020393Y013014D02*
X015593Y013014D01*
X015593Y012916D02*
X016825Y012916D01*
X016783Y012817D02*
X015593Y012817D01*
X015593Y012719D02*
X016783Y012719D01*
X016783Y012620D02*
X015593Y012620D01*
X015593Y012522D02*
X016833Y012522D01*
X017053Y012423D02*
X015593Y012423D01*
X015593Y012325D02*
X017053Y012325D01*
X016606Y012226D02*
X015593Y012226D01*
X015593Y012128D02*
X016606Y012128D01*
X016190Y012029D02*
X015593Y012029D01*
X015593Y011931D02*
X016125Y011931D01*
X016105Y011832D02*
X015593Y011832D01*
X015593Y011734D02*
X016119Y011734D01*
X016176Y011635D02*
X015593Y011635D01*
X015593Y011537D02*
X016606Y011537D01*
X016606Y011438D02*
X015593Y011438D01*
X015593Y013113D02*
X020393Y013113D01*
X020393Y013211D02*
X015593Y013211D01*
X015593Y013310D02*
X020393Y013310D01*
X020393Y013408D02*
X015593Y013408D01*
X015593Y013507D02*
X020393Y013507D01*
X020393Y013605D02*
X015593Y013605D01*
X015593Y013704D02*
X020393Y013704D01*
X020393Y013802D02*
X015593Y013802D01*
X015593Y013901D02*
X020393Y013901D01*
X020393Y013999D02*
X015593Y013999D01*
X015593Y014098D02*
X016783Y014098D01*
X016783Y014196D02*
X015593Y014196D01*
X015593Y014295D02*
X016783Y014295D01*
X016803Y014393D02*
X015593Y014393D01*
X015593Y014492D02*
X017649Y014492D01*
X017747Y014590D02*
X015593Y014590D01*
X015593Y014689D02*
X016728Y014689D01*
X016703Y014714D02*
X016762Y014655D01*
X017325Y014655D01*
X017383Y014714D01*
X017383Y015536D01*
X017325Y015595D01*
X016762Y015595D01*
X016703Y015536D01*
X016703Y015345D01*
X016681Y015345D01*
X016657Y015369D01*
X016551Y015413D01*
X016436Y015413D01*
X016330Y015369D01*
X016249Y015288D01*
X016205Y015182D01*
X016205Y015068D01*
X016249Y014962D01*
X016330Y014881D01*
X016436Y014837D01*
X016551Y014837D01*
X016657Y014881D01*
X016681Y014905D01*
X016703Y014905D01*
X016703Y014714D01*
X016703Y014787D02*
X015593Y014787D01*
X015593Y014886D02*
X016325Y014886D01*
X016240Y014984D02*
X015593Y014984D01*
X015651Y015083D02*
X016205Y015083D01*
X016205Y015181D02*
X015749Y015181D01*
X015848Y015280D02*
X016245Y015280D01*
X016351Y015378D02*
X015946Y015378D01*
X016045Y015477D02*
X016703Y015477D01*
X016703Y015378D02*
X016635Y015378D01*
X016742Y015575D02*
X016143Y015575D01*
X016661Y014886D02*
X016703Y014886D01*
X017383Y014886D02*
X018003Y014886D01*
X018003Y014984D02*
X017383Y014984D01*
X017383Y015083D02*
X018003Y015083D01*
X018003Y015181D02*
X017383Y015181D01*
X017383Y015280D02*
X018003Y015280D01*
X018003Y015378D02*
X017383Y015378D01*
X017383Y015477D02*
X018003Y015477D01*
X018042Y015575D02*
X017345Y015575D01*
X017383Y014787D02*
X017944Y014787D01*
X017846Y014689D02*
X017358Y014689D01*
X017975Y014196D02*
X018723Y014196D01*
X018723Y014098D02*
X017877Y014098D01*
X018074Y014295D02*
X018723Y014295D01*
X018723Y014374D02*
X018723Y014071D01*
X018782Y014012D01*
X019645Y014012D01*
X019703Y014071D01*
X019703Y014374D01*
X019645Y014432D01*
X018782Y014432D01*
X018723Y014374D01*
X018743Y014393D02*
X018172Y014393D01*
X018271Y014492D02*
X020393Y014492D01*
X020393Y014590D02*
X018369Y014590D01*
X018658Y014689D02*
X020393Y014689D01*
X020393Y014787D02*
X018683Y014787D01*
X018683Y014886D02*
X020393Y014886D01*
X020393Y014984D02*
X018683Y014984D01*
X018683Y015083D02*
X020336Y015083D01*
X020237Y015181D02*
X018683Y015181D01*
X018683Y015280D02*
X020139Y015280D01*
X020040Y015378D02*
X018683Y015378D01*
X018683Y015477D02*
X019942Y015477D01*
X019843Y015575D02*
X018645Y015575D01*
X019684Y014393D02*
X020393Y014393D01*
X020393Y014295D02*
X019703Y014295D01*
X019703Y014196D02*
X020393Y014196D01*
X020393Y014098D02*
X019703Y014098D01*
X019703Y012817D02*
X020393Y012817D01*
X020393Y012719D02*
X019703Y012719D01*
X019703Y012620D02*
X020393Y012620D01*
X020393Y012522D02*
X019654Y012522D01*
X020470Y026701D02*
X020470Y026775D01*
X020491Y026822D01*
X020470Y027775D02*
X020472Y027825D01*
X024081Y028275D02*
X024751Y028275D01*
X025431Y028275D02*
X025893Y028275D01*
X033743Y030075D02*
X034183Y030075D01*
X034193Y030085D01*
X034193Y030765D02*
X034873Y030085D01*
X035093Y030085D01*
X035936Y029395D02*
X036123Y029395D01*
X036893Y029458D02*
X036893Y030085D01*
X036893Y029458D02*
X036956Y029395D01*
X036956Y029025D02*
X037443Y029025D01*
X037333Y030765D02*
X036893Y030765D01*
X037333Y030765D02*
X037343Y030775D01*
X035093Y030765D02*
X035093Y031175D01*
X015033Y035875D02*
X015033Y036425D01*
X014353Y035875D02*
X013943Y035875D01*
D59*
X021434Y028825D02*
X021460Y028851D01*
X020793Y027825D02*
X020472Y027825D01*
X022493Y024625D02*
X017593Y024625D01*
X017593Y020325D01*
X019093Y020325D01*
X019093Y023225D01*
X021393Y023225D01*
X021393Y022425D01*
X022493Y022425D01*
X022493Y024625D01*
X022493Y024592D02*
X017593Y024592D01*
X017593Y024543D02*
X022493Y024543D01*
X022493Y024495D02*
X017593Y024495D01*
X017593Y024446D02*
X022493Y024446D01*
X022493Y024398D02*
X017593Y024398D01*
X017593Y024349D02*
X022493Y024349D01*
X022493Y024301D02*
X017593Y024301D01*
X017593Y024252D02*
X022493Y024252D01*
X022493Y024204D02*
X017593Y024204D01*
X017593Y024155D02*
X022493Y024155D01*
X022493Y024107D02*
X017593Y024107D01*
X017593Y024058D02*
X022493Y024058D01*
X022493Y024010D02*
X017593Y024010D01*
X017593Y023961D02*
X022493Y023961D01*
X022493Y023913D02*
X017593Y023913D01*
X017593Y023864D02*
X022493Y023864D01*
X022493Y023816D02*
X017593Y023816D01*
X017593Y023767D02*
X022493Y023767D01*
X022493Y023719D02*
X017593Y023719D01*
X017593Y023670D02*
X022493Y023670D01*
X022493Y023622D02*
X017593Y023622D01*
X017593Y023573D02*
X022493Y023573D01*
X022493Y023525D02*
X017593Y023525D01*
X017593Y023476D02*
X022493Y023476D01*
X022493Y023428D02*
X017593Y023428D01*
X017593Y023379D02*
X022493Y023379D01*
X022493Y023331D02*
X017593Y023331D01*
X017593Y023282D02*
X022493Y023282D01*
X022493Y023234D02*
X017593Y023234D01*
X017593Y023185D02*
X019093Y023185D01*
X019093Y023137D02*
X017593Y023137D01*
X017593Y023088D02*
X019093Y023088D01*
X019093Y023040D02*
X017593Y023040D01*
X017593Y022991D02*
X019093Y022991D01*
X019093Y022943D02*
X017593Y022943D01*
X017593Y022894D02*
X019093Y022894D01*
X019093Y022846D02*
X017593Y022846D01*
X017593Y022797D02*
X019093Y022797D01*
X019093Y022749D02*
X017593Y022749D01*
X017593Y022700D02*
X019093Y022700D01*
X019093Y022652D02*
X017593Y022652D01*
X017593Y022603D02*
X019093Y022603D01*
X019093Y022555D02*
X017593Y022555D01*
X017593Y022506D02*
X019093Y022506D01*
X019093Y022458D02*
X017593Y022458D01*
X017593Y022409D02*
X019093Y022409D01*
X019093Y022361D02*
X017593Y022361D01*
X017593Y022312D02*
X019093Y022312D01*
X019093Y022264D02*
X017593Y022264D01*
X017593Y022215D02*
X019093Y022215D01*
X019093Y022167D02*
X017593Y022167D01*
X017593Y022118D02*
X019093Y022118D01*
X019093Y022070D02*
X017593Y022070D01*
X017593Y022021D02*
X019093Y022021D01*
X019093Y021973D02*
X017593Y021973D01*
X017593Y021924D02*
X019093Y021924D01*
X019093Y021876D02*
X017593Y021876D01*
X017593Y021827D02*
X019093Y021827D01*
X019093Y021779D02*
X017593Y021779D01*
X017593Y021730D02*
X019093Y021730D01*
X019093Y021682D02*
X017593Y021682D01*
X017593Y021633D02*
X019093Y021633D01*
X019093Y021585D02*
X017593Y021585D01*
X017593Y021536D02*
X019093Y021536D01*
X019093Y021488D02*
X017593Y021488D01*
X017593Y021439D02*
X019093Y021439D01*
X019093Y021391D02*
X017593Y021391D01*
X017593Y021342D02*
X019093Y021342D01*
X019093Y021294D02*
X017593Y021294D01*
X017593Y021245D02*
X019093Y021245D01*
X019093Y021197D02*
X017593Y021197D01*
X017593Y021148D02*
X019093Y021148D01*
X019093Y021100D02*
X017593Y021100D01*
X017593Y021051D02*
X019093Y021051D01*
X019093Y021003D02*
X017593Y021003D01*
X017593Y020954D02*
X019093Y020954D01*
X019093Y020906D02*
X017593Y020906D01*
X017593Y020857D02*
X019093Y020857D01*
X019093Y020809D02*
X017593Y020809D01*
X017593Y020760D02*
X019093Y020760D01*
X019093Y020712D02*
X017593Y020712D01*
X017593Y020663D02*
X019093Y020663D01*
X019093Y020615D02*
X017593Y020615D01*
X017593Y020566D02*
X019093Y020566D01*
X019093Y020518D02*
X017593Y020518D01*
X017593Y020469D02*
X019093Y020469D01*
X019093Y020421D02*
X017593Y020421D01*
X017593Y020372D02*
X019093Y020372D01*
X019293Y020372D02*
X021693Y020372D01*
X021693Y020325D02*
X021693Y021725D01*
X019293Y021725D01*
X019293Y020325D01*
X021693Y020325D01*
X021693Y020421D02*
X019293Y020421D01*
X019293Y020469D02*
X021693Y020469D01*
X021693Y020518D02*
X019293Y020518D01*
X019293Y020566D02*
X021693Y020566D01*
X021693Y020615D02*
X019293Y020615D01*
X019293Y020663D02*
X021693Y020663D01*
X021693Y020712D02*
X019293Y020712D01*
X019293Y020760D02*
X021693Y020760D01*
X021693Y020809D02*
X019293Y020809D01*
X019293Y020857D02*
X021693Y020857D01*
X021693Y020906D02*
X019293Y020906D01*
X019293Y020954D02*
X021693Y020954D01*
X021693Y021003D02*
X019293Y021003D01*
X019293Y021051D02*
X021693Y021051D01*
X021693Y021100D02*
X019293Y021100D01*
X019293Y021148D02*
X021693Y021148D01*
X021693Y021197D02*
X019293Y021197D01*
X019293Y021245D02*
X021693Y021245D01*
X021693Y021294D02*
X019293Y021294D01*
X019293Y021342D02*
X021693Y021342D01*
X021693Y021391D02*
X019293Y021391D01*
X019293Y021439D02*
X021693Y021439D01*
X021693Y021488D02*
X019293Y021488D01*
X019293Y021536D02*
X021693Y021536D01*
X021693Y021585D02*
X019293Y021585D01*
X019293Y021633D02*
X021693Y021633D01*
X021693Y021682D02*
X019293Y021682D01*
X019293Y021925D02*
X019293Y023025D01*
X021193Y023025D01*
X021193Y022325D01*
X022193Y022325D01*
X022193Y021831D01*
X022184Y021821D01*
X022184Y021366D01*
X022193Y021356D01*
X022193Y021125D01*
X023193Y021125D01*
X023493Y021225D01*
X024898Y021225D01*
X024898Y016862D01*
X024796Y016760D01*
X021893Y016760D01*
X021893Y017925D01*
X023193Y017925D01*
X023193Y020325D01*
X022993Y020325D01*
X022993Y018125D01*
X021893Y018125D01*
X021893Y021925D01*
X019293Y021925D01*
X019293Y021973D02*
X022193Y021973D01*
X022193Y022021D02*
X019293Y022021D01*
X019293Y022070D02*
X022193Y022070D01*
X022193Y022118D02*
X019293Y022118D01*
X019293Y022167D02*
X022193Y022167D01*
X022193Y022215D02*
X019293Y022215D01*
X019293Y022264D02*
X022193Y022264D01*
X022193Y022312D02*
X019293Y022312D01*
X019293Y022361D02*
X021193Y022361D01*
X021193Y022409D02*
X019293Y022409D01*
X019293Y022458D02*
X021193Y022458D01*
X021193Y022506D02*
X019293Y022506D01*
X019293Y022555D02*
X021193Y022555D01*
X021193Y022603D02*
X019293Y022603D01*
X019293Y022652D02*
X021193Y022652D01*
X021193Y022700D02*
X019293Y022700D01*
X019293Y022749D02*
X021193Y022749D01*
X021193Y022797D02*
X019293Y022797D01*
X019293Y022846D02*
X021193Y022846D01*
X021193Y022894D02*
X019293Y022894D01*
X019293Y022943D02*
X021193Y022943D01*
X021193Y022991D02*
X019293Y022991D01*
X021393Y022991D02*
X022493Y022991D01*
X022493Y022943D02*
X021393Y022943D01*
X021393Y022894D02*
X022493Y022894D01*
X022493Y022846D02*
X021393Y022846D01*
X021393Y022797D02*
X022493Y022797D01*
X022493Y022749D02*
X021393Y022749D01*
X021393Y022700D02*
X022493Y022700D01*
X022493Y022652D02*
X021393Y022652D01*
X021393Y022603D02*
X022493Y022603D01*
X022493Y022555D02*
X021393Y022555D01*
X021393Y022506D02*
X022493Y022506D01*
X022493Y022458D02*
X021393Y022458D01*
X021393Y023040D02*
X022493Y023040D01*
X022493Y023088D02*
X021393Y023088D01*
X021393Y023137D02*
X022493Y023137D01*
X022493Y023185D02*
X021393Y023185D01*
X021893Y021924D02*
X022193Y021924D01*
X022193Y021876D02*
X021893Y021876D01*
X021893Y021827D02*
X022190Y021827D01*
X022184Y021779D02*
X021893Y021779D01*
X021893Y021730D02*
X022184Y021730D01*
X022184Y021682D02*
X021893Y021682D01*
X021893Y021633D02*
X022184Y021633D01*
X022184Y021585D02*
X021893Y021585D01*
X021893Y021536D02*
X022184Y021536D01*
X022184Y021488D02*
X021893Y021488D01*
X021893Y021439D02*
X022184Y021439D01*
X022184Y021391D02*
X021893Y021391D01*
X021893Y021342D02*
X022193Y021342D01*
X022193Y021294D02*
X021893Y021294D01*
X021893Y021245D02*
X022193Y021245D01*
X022193Y021197D02*
X021893Y021197D01*
X021893Y021148D02*
X022193Y021148D01*
X022293Y021325D02*
X022293Y021925D01*
X023193Y021925D01*
X024193Y022625D01*
X024793Y022625D01*
X024793Y021425D01*
X023493Y021425D01*
X023193Y021325D01*
X022293Y021325D01*
X022293Y021342D02*
X023245Y021342D01*
X023390Y021391D02*
X022293Y021391D01*
X022293Y021439D02*
X024793Y021439D01*
X024793Y021488D02*
X022293Y021488D01*
X022293Y021536D02*
X024793Y021536D01*
X024793Y021585D02*
X022293Y021585D01*
X022293Y021633D02*
X024793Y021633D01*
X024793Y021682D02*
X022293Y021682D01*
X022293Y021730D02*
X024793Y021730D01*
X024793Y021779D02*
X022293Y021779D01*
X022293Y021827D02*
X024793Y021827D01*
X024793Y021876D02*
X022293Y021876D01*
X022293Y021924D02*
X024793Y021924D01*
X024793Y021973D02*
X023261Y021973D01*
X023331Y022021D02*
X024793Y022021D01*
X024793Y022070D02*
X023400Y022070D01*
X023469Y022118D02*
X024793Y022118D01*
X024793Y022167D02*
X023538Y022167D01*
X023608Y022215D02*
X024793Y022215D01*
X024793Y022264D02*
X023677Y022264D01*
X023746Y022312D02*
X024793Y022312D01*
X024793Y022361D02*
X023816Y022361D01*
X023885Y022409D02*
X024793Y022409D01*
X024793Y022458D02*
X023954Y022458D01*
X024023Y022506D02*
X024793Y022506D01*
X024793Y022555D02*
X024093Y022555D01*
X024162Y022603D02*
X024793Y022603D01*
X024898Y021197D02*
X023408Y021197D01*
X023263Y021148D02*
X024898Y021148D01*
X024898Y021100D02*
X021893Y021100D01*
X021893Y021051D02*
X024898Y021051D01*
X024898Y021003D02*
X021893Y021003D01*
X021893Y020954D02*
X024898Y020954D01*
X024898Y020906D02*
X021893Y020906D01*
X021893Y020857D02*
X024898Y020857D01*
X024898Y020809D02*
X021893Y020809D01*
X021893Y020760D02*
X024898Y020760D01*
X024898Y020712D02*
X021893Y020712D01*
X021893Y020663D02*
X024898Y020663D01*
X024898Y020615D02*
X021893Y020615D01*
X021893Y020566D02*
X024898Y020566D01*
X024898Y020518D02*
X021893Y020518D01*
X021893Y020469D02*
X024898Y020469D01*
X024898Y020421D02*
X021893Y020421D01*
X021893Y020372D02*
X024898Y020372D01*
X024898Y020324D02*
X023193Y020324D01*
X023193Y020275D02*
X024898Y020275D01*
X024898Y020227D02*
X023193Y020227D01*
X023193Y020178D02*
X024898Y020178D01*
X024898Y020130D02*
X023193Y020130D01*
X023193Y020081D02*
X024898Y020081D01*
X024898Y020033D02*
X023193Y020033D01*
X023193Y019984D02*
X024898Y019984D01*
X024898Y019936D02*
X023193Y019936D01*
X023193Y019887D02*
X024898Y019887D01*
X024898Y019839D02*
X023193Y019839D01*
X023193Y019790D02*
X024898Y019790D01*
X024898Y019742D02*
X023193Y019742D01*
X023193Y019693D02*
X024898Y019693D01*
X024898Y019645D02*
X023193Y019645D01*
X023193Y019596D02*
X024898Y019596D01*
X024898Y019548D02*
X023193Y019548D01*
X023193Y019499D02*
X024898Y019499D01*
X024898Y019451D02*
X023193Y019451D01*
X023193Y019402D02*
X024898Y019402D01*
X024898Y019354D02*
X023193Y019354D01*
X023193Y019305D02*
X024898Y019305D01*
X024898Y019257D02*
X023193Y019257D01*
X023193Y019208D02*
X024898Y019208D01*
X024898Y019160D02*
X023193Y019160D01*
X023193Y019111D02*
X024898Y019111D01*
X024898Y019063D02*
X023193Y019063D01*
X023193Y019014D02*
X024898Y019014D01*
X024898Y018966D02*
X023193Y018966D01*
X023193Y018917D02*
X024898Y018917D01*
X024898Y018869D02*
X023193Y018869D01*
X023193Y018820D02*
X024898Y018820D01*
X024898Y018772D02*
X023193Y018772D01*
X023193Y018723D02*
X024898Y018723D01*
X024898Y018675D02*
X023193Y018675D01*
X023193Y018626D02*
X024898Y018626D01*
X024898Y018578D02*
X023193Y018578D01*
X023193Y018529D02*
X024898Y018529D01*
X024898Y018481D02*
X023193Y018481D01*
X023193Y018432D02*
X024898Y018432D01*
X024898Y018384D02*
X023193Y018384D01*
X023193Y018335D02*
X024898Y018335D01*
X024898Y018287D02*
X023193Y018287D01*
X023193Y018238D02*
X024898Y018238D01*
X024898Y018190D02*
X023193Y018190D01*
X023193Y018141D02*
X024898Y018141D01*
X024898Y018093D02*
X023193Y018093D01*
X023193Y018044D02*
X024898Y018044D01*
X024898Y017996D02*
X023193Y017996D01*
X023193Y017947D02*
X024898Y017947D01*
X024898Y017899D02*
X021893Y017899D01*
X021893Y017850D02*
X024898Y017850D01*
X024898Y017802D02*
X021893Y017802D01*
X021893Y017753D02*
X024898Y017753D01*
X024898Y017705D02*
X021893Y017705D01*
X021893Y017656D02*
X024898Y017656D01*
X024898Y017608D02*
X021893Y017608D01*
X021893Y017559D02*
X024898Y017559D01*
X024898Y017511D02*
X021893Y017511D01*
X021893Y017462D02*
X024898Y017462D01*
X024898Y017414D02*
X021893Y017414D01*
X021893Y017365D02*
X024898Y017365D01*
X024898Y017317D02*
X021893Y017317D01*
X021893Y017268D02*
X024898Y017268D01*
X024898Y017220D02*
X021893Y017220D01*
X021893Y017171D02*
X024898Y017171D01*
X024898Y017123D02*
X021893Y017123D01*
X021893Y017074D02*
X024898Y017074D01*
X024898Y017026D02*
X021893Y017026D01*
X021893Y016977D02*
X024898Y016977D01*
X024898Y016929D02*
X021893Y016929D01*
X021893Y016880D02*
X024898Y016880D01*
X024868Y016832D02*
X021893Y016832D01*
X021893Y016783D02*
X024819Y016783D01*
X022993Y018141D02*
X021893Y018141D01*
X021893Y018190D02*
X022993Y018190D01*
X022993Y018238D02*
X021893Y018238D01*
X021893Y018287D02*
X022993Y018287D01*
X022993Y018335D02*
X021893Y018335D01*
X021893Y018384D02*
X022993Y018384D01*
X022993Y018432D02*
X021893Y018432D01*
X021893Y018481D02*
X022993Y018481D01*
X022993Y018529D02*
X021893Y018529D01*
X021893Y018578D02*
X022993Y018578D01*
X022993Y018626D02*
X021893Y018626D01*
X021893Y018675D02*
X022993Y018675D01*
X022993Y018723D02*
X021893Y018723D01*
X021893Y018772D02*
X022993Y018772D01*
X022993Y018820D02*
X021893Y018820D01*
X021893Y018869D02*
X022993Y018869D01*
X022993Y018917D02*
X021893Y018917D01*
X021893Y018966D02*
X022993Y018966D01*
X022993Y019014D02*
X021893Y019014D01*
X021893Y019063D02*
X022993Y019063D01*
X022993Y019111D02*
X021893Y019111D01*
X021893Y019160D02*
X022993Y019160D01*
X022993Y019208D02*
X021893Y019208D01*
X021893Y019257D02*
X022993Y019257D01*
X022993Y019305D02*
X021893Y019305D01*
X021893Y019354D02*
X022993Y019354D01*
X022993Y019402D02*
X021893Y019402D01*
X021893Y019451D02*
X022993Y019451D01*
X022993Y019499D02*
X021893Y019499D01*
X021893Y019548D02*
X022993Y019548D01*
X022993Y019596D02*
X021893Y019596D01*
X021893Y019645D02*
X022993Y019645D01*
X022993Y019693D02*
X021893Y019693D01*
X021893Y019742D02*
X022993Y019742D01*
X022993Y019790D02*
X021893Y019790D01*
X021893Y019839D02*
X022993Y019839D01*
X022993Y019887D02*
X021893Y019887D01*
X021893Y019936D02*
X022993Y019936D01*
X022993Y019984D02*
X021893Y019984D01*
X021893Y020033D02*
X022993Y020033D01*
X022993Y020081D02*
X021893Y020081D01*
X021893Y020130D02*
X022993Y020130D01*
X022993Y020178D02*
X021893Y020178D01*
X021893Y020227D02*
X022993Y020227D01*
X022993Y020275D02*
X021893Y020275D01*
X021893Y020324D02*
X022993Y020324D01*
X021693Y020125D02*
X021693Y018125D01*
X019293Y018125D01*
X019293Y020125D01*
X021693Y020125D01*
X021693Y020081D02*
X019293Y020081D01*
X019293Y020033D02*
X021693Y020033D01*
X021693Y019984D02*
X019293Y019984D01*
X019293Y019936D02*
X021693Y019936D01*
X021693Y019887D02*
X019293Y019887D01*
X019293Y019839D02*
X021693Y019839D01*
X021693Y019790D02*
X019293Y019790D01*
X019293Y019742D02*
X021693Y019742D01*
X021693Y019693D02*
X019293Y019693D01*
X019293Y019645D02*
X021693Y019645D01*
X021693Y019596D02*
X019293Y019596D01*
X019293Y019548D02*
X021693Y019548D01*
X021693Y019499D02*
X019293Y019499D01*
X019293Y019451D02*
X021693Y019451D01*
X021693Y019402D02*
X019293Y019402D01*
X019293Y019354D02*
X021693Y019354D01*
X021693Y019305D02*
X019293Y019305D01*
X019293Y019257D02*
X021693Y019257D01*
X021693Y019208D02*
X019293Y019208D01*
X019293Y019160D02*
X021693Y019160D01*
X021693Y019111D02*
X019293Y019111D01*
X019293Y019063D02*
X021693Y019063D01*
X021693Y019014D02*
X019293Y019014D01*
X019293Y018966D02*
X021693Y018966D01*
X021693Y018917D02*
X019293Y018917D01*
X019293Y018869D02*
X021693Y018869D01*
X021693Y018820D02*
X019293Y018820D01*
X019293Y018772D02*
X021693Y018772D01*
X021693Y018723D02*
X019293Y018723D01*
X019293Y018675D02*
X021693Y018675D01*
X021693Y018626D02*
X019293Y018626D01*
X019293Y018578D02*
X021693Y018578D01*
X021693Y018529D02*
X019293Y018529D01*
X019293Y018481D02*
X021693Y018481D01*
X021693Y018432D02*
X019293Y018432D01*
X019293Y018384D02*
X021693Y018384D01*
X021693Y018335D02*
X019293Y018335D01*
X019293Y018287D02*
X021693Y018287D01*
X021693Y018238D02*
X019293Y018238D01*
X019293Y018190D02*
X021693Y018190D01*
X021693Y018141D02*
X019293Y018141D01*
X019093Y018141D02*
X017593Y018141D01*
X017593Y018093D02*
X019093Y018093D01*
X019093Y018044D02*
X017593Y018044D01*
X017593Y017996D02*
X019093Y017996D01*
X019093Y017947D02*
X017593Y017947D01*
X017593Y017899D02*
X021693Y017899D01*
X021693Y017925D02*
X021693Y016325D01*
X017593Y016325D01*
X017593Y020125D01*
X019093Y020125D01*
X019093Y017925D01*
X021693Y017925D01*
X021693Y017850D02*
X017593Y017850D01*
X017593Y017802D02*
X021693Y017802D01*
X021693Y017753D02*
X017593Y017753D01*
X017593Y017705D02*
X021693Y017705D01*
X021693Y017656D02*
X017593Y017656D01*
X017593Y017608D02*
X021693Y017608D01*
X021693Y017559D02*
X017593Y017559D01*
X017593Y017511D02*
X021693Y017511D01*
X021693Y017462D02*
X017593Y017462D01*
X017593Y017414D02*
X021693Y017414D01*
X021693Y017365D02*
X017593Y017365D01*
X017593Y017317D02*
X021693Y017317D01*
X021693Y017268D02*
X017593Y017268D01*
X017593Y017220D02*
X021693Y017220D01*
X021693Y017171D02*
X017593Y017171D01*
X017593Y017123D02*
X021693Y017123D01*
X021693Y017074D02*
X017593Y017074D01*
X017593Y017026D02*
X021693Y017026D01*
X021693Y016977D02*
X017593Y016977D01*
X017593Y016929D02*
X021693Y016929D01*
X021693Y016880D02*
X017593Y016880D01*
X017593Y016832D02*
X021693Y016832D01*
X021693Y016783D02*
X017593Y016783D01*
X017593Y016735D02*
X021693Y016735D01*
X021693Y016686D02*
X017593Y016686D01*
X017593Y016638D02*
X021693Y016638D01*
X021693Y016589D02*
X017593Y016589D01*
X017593Y016541D02*
X021693Y016541D01*
X021693Y016492D02*
X017593Y016492D01*
X017593Y016444D02*
X021693Y016444D01*
X021693Y016395D02*
X017593Y016395D01*
X017593Y016347D02*
X021693Y016347D01*
X019093Y018190D02*
X017593Y018190D01*
X017593Y018238D02*
X019093Y018238D01*
X019093Y018287D02*
X017593Y018287D01*
X017593Y018335D02*
X019093Y018335D01*
X019093Y018384D02*
X017593Y018384D01*
X017593Y018432D02*
X019093Y018432D01*
X019093Y018481D02*
X017593Y018481D01*
X017593Y018529D02*
X019093Y018529D01*
X019093Y018578D02*
X017593Y018578D01*
X017593Y018626D02*
X019093Y018626D01*
X019093Y018675D02*
X017593Y018675D01*
X017593Y018723D02*
X019093Y018723D01*
X019093Y018772D02*
X017593Y018772D01*
X017593Y018820D02*
X019093Y018820D01*
X019093Y018869D02*
X017593Y018869D01*
X017593Y018917D02*
X019093Y018917D01*
X019093Y018966D02*
X017593Y018966D01*
X017593Y019014D02*
X019093Y019014D01*
X019093Y019063D02*
X017593Y019063D01*
X017593Y019111D02*
X019093Y019111D01*
X019093Y019160D02*
X017593Y019160D01*
X017593Y019208D02*
X019093Y019208D01*
X019093Y019257D02*
X017593Y019257D01*
X017593Y019305D02*
X019093Y019305D01*
X019093Y019354D02*
X017593Y019354D01*
X017593Y019402D02*
X019093Y019402D01*
X019093Y019451D02*
X017593Y019451D01*
X017593Y019499D02*
X019093Y019499D01*
X019093Y019548D02*
X017593Y019548D01*
X017593Y019596D02*
X019093Y019596D01*
X019093Y019645D02*
X017593Y019645D01*
X017593Y019693D02*
X019093Y019693D01*
X019093Y019742D02*
X017593Y019742D01*
X017593Y019790D02*
X019093Y019790D01*
X019093Y019839D02*
X017593Y019839D01*
X017593Y019887D02*
X019093Y019887D01*
X019093Y019936D02*
X017593Y019936D01*
X017593Y019984D02*
X019093Y019984D01*
X019093Y020033D02*
X017593Y020033D01*
X017593Y020081D02*
X019093Y020081D01*
D60*
X018443Y015975D03*
X020143Y011425D03*
X029943Y019775D03*
X031443Y018925D03*
X032643Y015375D03*
D61*
X037043Y012692D02*
X037560Y012692D01*
X039393Y014525D01*
X039393Y019625D01*
X039768Y020000D01*
X039793Y020025D01*
X029943Y019775D02*
X029943Y024225D01*
X029443Y024725D01*
X026943Y024725D01*
X024853Y026815D01*
X023496Y026815D01*
X025133Y022325D02*
X025133Y021725D01*
X025133Y016765D01*
X024893Y016525D01*
X021293Y016525D01*
X021193Y016625D01*
X021193Y017275D01*
X021243Y017325D01*
X018443Y015975D02*
X018343Y015875D01*
X018343Y015125D01*
X019343Y011475D02*
X019393Y011425D01*
X020143Y011425D01*
X011793Y016815D02*
X011793Y016825D01*
X011793Y017425D01*
D62*
X011793Y017425D03*
X016493Y015125D03*
X016393Y011825D03*
X021643Y027775D03*
X035893Y011025D03*
X035893Y010575D03*
X035893Y010125D03*
X035893Y009675D03*
X036343Y009675D03*
X036793Y009675D03*
X037243Y009675D03*
X037693Y009675D03*
X038143Y009675D03*
X038143Y010125D03*
X038143Y010575D03*
X038143Y011025D03*
D63*
X024943Y012575D03*
X024943Y014975D03*
X026893Y023025D03*
X026893Y023725D03*
X044343Y031225D03*
X050093Y028025D03*
X050193Y025875D03*
X050243Y023475D03*
X050393Y031225D03*
D64*
X043743Y006775D03*
X036993Y006925D03*
D65*
X025691Y012574D02*
X025690Y012575D01*
X024943Y012575D01*
X024943Y014975D02*
X025690Y014975D01*
X025691Y014976D01*
X019593Y015175D02*
X019593Y015885D01*
X027393Y021425D02*
X027693Y021425D01*
X050243Y023475D02*
X050940Y023475D01*
X050941Y023474D01*
X050940Y025875D02*
X050193Y025875D01*
X050940Y025875D02*
X050941Y025876D01*
D66*
X050393Y031225D02*
X049796Y031225D01*
X048496Y031225D02*
X047033Y031225D01*
X047031Y031222D01*
X044343Y031225D02*
X043746Y031225D01*
X043743Y031228D01*
X042443Y031228D02*
X042443Y030025D01*
X042543Y029925D01*
X027393Y021425D02*
X027093Y021425D01*
D67*
X033293Y012725D02*
X033327Y012692D01*
X037043Y012692D01*
X033293Y012725D02*
X033293Y006725D01*
X040793Y006725D02*
X040793Y012725D01*
X040793Y016025D01*
X041493Y016725D01*
X042488Y016725D01*
X044543Y029425D02*
X045456Y030338D01*
X045456Y031222D01*
X047031Y031222D02*
X047193Y031060D01*
X047193Y029525D01*
X047471Y029247D01*
X047673Y029247D01*
D68*
X045993Y012925D03*
X049443Y012925D03*
D69*
X051956Y012930D01*
X052953Y013925D01*
X053000Y028831D01*
X045993Y012925D02*
X048469Y010449D01*
X051770Y010449D01*
D70*
X053256Y028166D02*
X053256Y028325D01*
X053256Y029225D01*
X048993Y029225D01*
X052282Y028548D02*
X052469Y028548D01*
X052469Y028875D01*
X052469Y028953D01*
D71*
X028393Y022225D03*
D72*
X020193Y028825D03*
D73*
X021993Y023525D02*
X024993Y023525D01*
X027093Y021425D01*
M02*
