G75*
%MOIN*%
%OFA0B0*%
%FSLAX24Y24*%
%IPPOS*%
%LPD*%
%AMOC8*
5,1,8,0,0,1.08239X$1,22.5*
%
%ADD10R,0.0866X0.0236*%
%ADD11R,0.0512X0.0630*%
%ADD12R,0.0787X0.0630*%
%ADD13OC8,0.0660*%
%ADD14OC8,0.0700*%
%ADD15R,0.0700X0.0700*%
%ADD16R,0.1350X0.0500*%
%ADD17R,0.3550X0.4200*%
%ADD18R,0.0906X0.0984*%
%ADD19R,0.0350X0.0420*%
%ADD20R,0.0480X0.0740*%
%ADD21R,0.0630X0.1575*%
%ADD22R,0.0600X0.0380*%
%ADD23R,0.0420X0.0350*%
%ADD24R,0.1457X0.0965*%
%ADD25R,0.0460X0.0140*%
%ADD26R,0.0590X0.0170*%
%ADD27R,0.0480X0.0360*%
%ADD28R,0.0472X0.0984*%
%ADD29R,0.0276X0.0669*%
%ADD30R,0.0610X0.0433*%
%ADD31R,0.0417X0.0256*%
%ADD32R,0.1000X0.2300*%
%ADD33OC8,0.1210*%
%ADD34C,0.0630*%
%ADD35R,0.0500X0.0220*%
%ADD36R,0.0780X0.0220*%
%ADD37R,0.0460X0.0630*%
%ADD38R,0.0394X0.0551*%
%ADD39OC8,0.0531*%
%ADD40OC8,0.1095*%
%ADD41OC8,0.0945*%
%ADD42R,0.0140X0.0400*%
%ADD43R,0.0394X0.0217*%
%ADD44R,0.0217X0.0394*%
%ADD45R,0.0740X0.0480*%
%ADD46R,0.0650X0.1100*%
%ADD47R,0.0360X0.0480*%
%ADD48R,0.0512X0.0472*%
%ADD49OC8,0.1620*%
%ADD50OC8,0.1325*%
%ADD51OC8,0.1424*%
%ADD52R,0.0630X0.0460*%
%ADD53C,0.0120*%
%ADD54C,0.0270*%
%ADD55C,0.0240*%
%ADD56C,0.0160*%
%ADD57C,0.0070*%
%ADD58C,0.0400*%
%ADD59C,0.0100*%
%ADD60C,0.0050*%
%ADD61C,0.0376*%
%ADD62C,0.0320*%
%ADD63C,0.0531*%
%ADD64OC8,0.1181*%
%ADD65C,0.0500*%
%ADD66C,0.0560*%
%ADD67C,0.0472*%
%ADD68C,0.0660*%
%ADD69C,0.1000*%
%ADD70OC8,0.1660*%
%ADD71C,0.1500*%
%ADD72C,0.0416*%
%ADD73C,0.0240*%
%ADD74C,0.0700*%
D10*
X032517Y021225D03*
X032517Y021725D03*
X032517Y022225D03*
X032517Y022725D03*
X032517Y023225D03*
X032517Y023725D03*
X032517Y024225D03*
X034564Y024225D03*
X034564Y023725D03*
X034564Y023225D03*
X034564Y022725D03*
X034564Y022225D03*
X034564Y021725D03*
X034564Y021225D03*
X020817Y026775D03*
X020817Y027275D03*
X020817Y027775D03*
X020817Y028275D03*
X018770Y028275D03*
X018770Y027775D03*
X018770Y027275D03*
X018770Y026775D03*
D11*
X032191Y015946D03*
X033191Y015946D03*
D12*
X032691Y014804D03*
D13*
X027341Y016725D03*
X027341Y017725D03*
X027341Y018725D03*
X027341Y019725D03*
X027341Y020725D03*
X027341Y021725D03*
X027341Y022725D03*
X027341Y023725D03*
X027341Y025725D03*
X027341Y026725D03*
X027341Y027725D03*
X027341Y028725D03*
X027341Y029725D03*
X027341Y030725D03*
X008341Y030725D03*
X008341Y029725D03*
X008341Y028725D03*
X008341Y027725D03*
X008341Y026725D03*
X008341Y025725D03*
X008341Y024725D03*
X008341Y023725D03*
X008341Y022125D03*
X008341Y021125D03*
X008341Y020125D03*
X008341Y019125D03*
X008341Y018125D03*
X008341Y017125D03*
X008341Y016125D03*
X008341Y015125D03*
X008341Y014125D03*
X008341Y013125D03*
X022043Y010175D03*
X023043Y010175D03*
X023043Y009175D03*
X022043Y009175D03*
X024043Y009175D03*
X024043Y010175D03*
X025043Y010175D03*
X025043Y009175D03*
X026043Y009175D03*
X026043Y010175D03*
X043493Y012125D03*
X043493Y013125D03*
X044493Y013125D03*
X045493Y013125D03*
X045493Y012125D03*
X044493Y012125D03*
X046493Y012125D03*
X046493Y013125D03*
X047493Y013125D03*
X047493Y012125D03*
X048493Y012125D03*
X048493Y013125D03*
D14*
X018341Y030775D03*
X018341Y031775D03*
X017341Y031775D03*
X017341Y030775D03*
X016341Y031775D03*
D15*
X016341Y030775D03*
D16*
X040788Y018725D03*
X040788Y016725D03*
X045973Y027247D03*
X045973Y028247D03*
X045973Y029247D03*
D17*
X041918Y028247D03*
X044668Y017725D03*
D18*
X045331Y031222D03*
X043756Y031222D03*
D19*
X044906Y026225D03*
X045586Y026225D03*
X046301Y026225D03*
X046981Y026225D03*
X045133Y023875D03*
X044453Y023875D03*
X043733Y021975D03*
X043053Y021975D03*
X041933Y021925D03*
X041253Y021925D03*
X041253Y023925D03*
X041933Y023925D03*
X038433Y021125D03*
X037753Y021125D03*
X036631Y020975D03*
X035951Y020975D03*
X035951Y021725D03*
X036631Y021725D03*
X034383Y020175D03*
X034383Y019575D03*
X033703Y019575D03*
X033703Y020175D03*
X033703Y018975D03*
X034383Y018975D03*
X038403Y018875D03*
X039083Y018875D03*
X034931Y014825D03*
X034251Y014825D03*
X026583Y023025D03*
X025903Y023025D03*
X025903Y023725D03*
X026583Y023725D03*
X028403Y025725D03*
X029083Y025725D03*
X029083Y026725D03*
X028403Y026725D03*
X028403Y027725D03*
X029083Y027725D03*
X029083Y028725D03*
X028403Y028725D03*
X032703Y027375D03*
X033383Y027375D03*
X035953Y026125D03*
X036633Y026125D03*
X036633Y025375D03*
X035953Y025375D03*
X023731Y028275D03*
X023051Y028275D03*
X022381Y028275D03*
X021701Y028275D03*
X022753Y022325D03*
X023433Y022325D03*
X023433Y021725D03*
X022753Y021725D03*
X009583Y014125D03*
X008903Y014125D03*
X008903Y013075D03*
X009583Y013075D03*
X016003Y009875D03*
X016683Y009875D03*
X015733Y035875D03*
X015053Y035875D03*
X015053Y036425D03*
X015733Y036425D03*
X013333Y036425D03*
X012653Y036425D03*
X012653Y035875D03*
X013333Y035875D03*
X022003Y035875D03*
X022683Y035875D03*
X022683Y036425D03*
X022003Y036425D03*
D20*
X040743Y031228D03*
X042043Y031228D03*
X046796Y031225D03*
X048096Y031225D03*
X047791Y027325D03*
X049091Y027325D03*
X045743Y024775D03*
X044443Y024775D03*
X042593Y021125D03*
X041293Y021125D03*
X016643Y015125D03*
X015343Y015125D03*
X015246Y011825D03*
X016546Y011825D03*
D21*
X023991Y012574D03*
X023991Y014976D03*
X049241Y023474D03*
X049241Y025876D03*
D22*
X036493Y023585D03*
X036493Y022765D03*
X036591Y018335D03*
X036591Y017515D03*
X036691Y016285D03*
X036691Y015465D03*
X030543Y022762D03*
X030543Y023582D03*
X021796Y026815D03*
X021796Y027635D03*
X017041Y027915D03*
X017041Y028735D03*
X018693Y023535D03*
X018693Y022715D03*
D23*
X022193Y021665D03*
X022193Y020985D03*
X017893Y016565D03*
X017893Y015885D03*
X011743Y016135D03*
X011743Y016815D03*
X010093Y016815D03*
X010093Y016135D03*
X017841Y027885D03*
X017841Y028565D03*
X019193Y029385D03*
X019193Y030065D03*
X021593Y029965D03*
X021593Y029285D03*
X031343Y027415D03*
X031343Y026735D03*
X033393Y028685D03*
X033393Y029365D03*
X033393Y030085D03*
X032493Y030085D03*
X032493Y030765D03*
X033393Y030765D03*
X034293Y030765D03*
X034293Y030085D03*
X035193Y030085D03*
X035193Y030765D03*
X036346Y029365D03*
X036346Y028685D03*
X038143Y024465D03*
X038143Y023785D03*
X035693Y023415D03*
X035693Y022735D03*
X033143Y019615D03*
X033143Y018935D03*
X032191Y017415D03*
X032191Y016735D03*
X035791Y017585D03*
X035791Y018265D03*
X035891Y016215D03*
X035891Y015535D03*
X039893Y019685D03*
X039893Y020365D03*
X040693Y020365D03*
X040693Y019685D03*
X041493Y019685D03*
X041493Y020365D03*
X043093Y023885D03*
X043093Y024565D03*
X031343Y023415D03*
X031343Y022735D03*
D24*
X035343Y012692D03*
X035343Y010664D03*
D25*
X035201Y015615D03*
X035201Y015875D03*
X035201Y016135D03*
X034381Y016135D03*
X034381Y015615D03*
D26*
X034951Y017545D03*
X034951Y017795D03*
X034951Y018055D03*
X034951Y018305D03*
X033231Y018305D03*
X033231Y018055D03*
X033231Y017795D03*
X033231Y017545D03*
D27*
X033493Y024969D03*
X032593Y024969D03*
X032593Y026386D03*
X033493Y026386D03*
D28*
X044109Y007508D03*
X045093Y007508D03*
X046078Y007508D03*
D29*
X026244Y034359D03*
X025244Y034359D03*
X024244Y034359D03*
D30*
X023577Y035125D03*
X023577Y036625D03*
X027415Y036625D03*
X027415Y035125D03*
D31*
X020626Y029599D03*
X020626Y029225D03*
X020626Y028851D03*
X019760Y028851D03*
X019760Y029225D03*
X019760Y029599D03*
X039560Y023299D03*
X039560Y022925D03*
X039560Y022551D03*
X040426Y022551D03*
X040426Y022925D03*
X040426Y023299D03*
X041460Y023299D03*
X041460Y022925D03*
X041460Y022551D03*
X042326Y022551D03*
X042326Y022925D03*
X042326Y023299D03*
D32*
X044793Y034625D03*
X038593Y034625D03*
X032393Y034625D03*
X050993Y034625D03*
X016743Y008275D03*
X010543Y008275D03*
D33*
X012556Y008735D03*
X014731Y008735D03*
X018756Y008735D03*
X008531Y008735D03*
X030381Y034165D03*
X034406Y034165D03*
X036581Y034165D03*
X040606Y034165D03*
X042781Y034165D03*
X046806Y034165D03*
X048981Y034165D03*
X053006Y034165D03*
D34*
X031241Y020225D03*
X030941Y016225D03*
D35*
X034236Y028655D03*
X034236Y029395D03*
X035256Y029395D03*
X035256Y029025D03*
X035256Y028655D03*
D36*
X017513Y014222D03*
X017513Y013722D03*
X017513Y013222D03*
X017513Y012722D03*
X015573Y012722D03*
X015573Y013222D03*
X015573Y013722D03*
X015573Y014222D03*
D37*
X009893Y019125D03*
X009293Y019125D03*
X009293Y020125D03*
X009893Y020125D03*
X009893Y021125D03*
X009293Y021125D03*
X009293Y022125D03*
X009893Y022125D03*
X009893Y024725D03*
X009293Y024725D03*
X009293Y025725D03*
X009893Y025725D03*
X009893Y026725D03*
X009293Y026725D03*
X009293Y027725D03*
X009893Y027725D03*
D38*
X036319Y030095D03*
X037067Y030095D03*
X036693Y030961D03*
D39*
X019843Y035325D03*
X018843Y035325D03*
X017843Y035325D03*
D40*
X011123Y031225D03*
X009273Y031225D03*
X007423Y031225D03*
X008273Y036225D03*
X010273Y036225D03*
D41*
X031593Y012725D03*
X031593Y006725D03*
X039093Y006725D03*
X039093Y012725D03*
D42*
X039153Y019535D03*
X038893Y019535D03*
X038633Y019535D03*
X038377Y019535D03*
X038377Y020415D03*
X038633Y020415D03*
X038893Y020415D03*
X039153Y020415D03*
X011203Y017915D03*
X010943Y017915D03*
X010683Y017915D03*
X010683Y017035D03*
X010943Y017035D03*
X011203Y017035D03*
D43*
X043362Y022551D03*
X043362Y022925D03*
X043362Y023299D03*
X044425Y023299D03*
X044425Y022551D03*
D44*
X020667Y022656D03*
X019919Y022656D03*
X019919Y021594D03*
X020293Y021594D03*
X020667Y021594D03*
D45*
X019493Y020875D03*
X019493Y019575D03*
D46*
X019543Y017325D03*
X020643Y017325D03*
D47*
X020802Y018725D03*
X019385Y018725D03*
D48*
X018674Y019536D03*
X018674Y020914D03*
X016312Y020914D03*
X016312Y019536D03*
D49*
X049893Y010449D03*
D50*
X049893Y008087D03*
D51*
X048122Y008087D03*
X051665Y008087D03*
D52*
X025993Y020825D03*
X025993Y021425D03*
X025993Y022025D03*
D53*
X027341Y025725D02*
X028403Y025725D01*
X029083Y025725D02*
X029083Y026725D01*
X029083Y027725D01*
X029083Y028725D01*
X028403Y028725D02*
X027341Y028725D01*
X027341Y027725D02*
X028403Y027725D01*
X029083Y027725D02*
X029083Y027425D01*
X029093Y027425D01*
X029093Y027415D01*
X031343Y027415D01*
X031343Y027375D01*
X032703Y027375D01*
X032593Y026825D02*
X032593Y026386D01*
X033493Y026386D02*
X033493Y026825D01*
X033383Y027375D02*
X035043Y027375D01*
X035043Y028025D01*
X034743Y028325D01*
X034743Y029575D01*
X034643Y029675D01*
X034055Y029675D01*
X033843Y029887D01*
X033843Y030575D01*
X033993Y030725D01*
X034253Y030725D01*
X034293Y030765D01*
X034293Y031925D01*
X034993Y032625D01*
X044093Y032625D01*
X044793Y033325D01*
X044793Y034625D01*
X050083Y032325D02*
X051043Y033285D01*
X051043Y033563D01*
X050777Y033829D01*
X050885Y033992D01*
X050993Y034253D01*
X050993Y034625D01*
X050083Y032325D02*
X038250Y032325D01*
X037543Y031618D01*
X037543Y028675D01*
X037043Y028175D01*
X035934Y028175D01*
X035293Y027535D01*
X035293Y026125D01*
X035953Y026125D01*
X035293Y026125D02*
X035293Y025325D01*
X034593Y024625D01*
X034593Y024254D01*
X034564Y024225D01*
X034564Y023725D02*
X035043Y023725D01*
X035143Y023825D01*
X035143Y024325D01*
X035543Y024725D01*
X035543Y025125D01*
X035793Y025375D01*
X035953Y025375D01*
X036633Y026055D01*
X036633Y026125D01*
X036633Y025375D02*
X037043Y025375D01*
X038143Y024525D02*
X035793Y024525D01*
X035343Y024075D01*
X035343Y023425D01*
X035143Y023225D01*
X034564Y023225D01*
X033893Y023225D01*
X033493Y023625D01*
X033493Y024969D01*
X033543Y024919D01*
X033493Y024969D02*
X033043Y024969D01*
X033043Y027975D01*
X026693Y034325D01*
X026693Y034625D01*
X026393Y034925D01*
X024093Y034925D01*
X023593Y034425D01*
X019693Y034425D01*
X018843Y035275D01*
X018843Y035325D01*
X018093Y036875D02*
X017243Y036025D01*
X017243Y034275D01*
X016293Y033325D01*
X009523Y033325D01*
X007423Y031225D01*
X009273Y031225D02*
X011123Y033075D01*
X022960Y033075D01*
X024244Y034359D01*
X025244Y034359D02*
X025244Y033616D01*
X021593Y029965D01*
X021227Y029599D01*
X020626Y029599D01*
X020686Y029285D02*
X021593Y029285D01*
X022293Y029025D02*
X021701Y028432D01*
X021701Y028275D01*
X020817Y028275D01*
X020626Y029225D02*
X020686Y029285D01*
X020626Y029225D02*
X020393Y029225D01*
X020193Y029425D01*
X020193Y029925D01*
X020493Y030225D01*
X020501Y032825D02*
X012723Y032825D01*
X011123Y031225D01*
X015053Y035875D02*
X014843Y036075D01*
X014793Y036125D01*
X014293Y036125D01*
X014643Y036425D02*
X015053Y036425D01*
X015733Y036425D02*
X015733Y035875D01*
X012653Y036425D02*
X012243Y036425D01*
X021593Y036425D02*
X022003Y036425D01*
X022683Y036425D02*
X022683Y035875D01*
X022003Y035875D02*
X021796Y035872D01*
X021593Y035875D01*
X025244Y034574D02*
X025244Y034359D01*
X026244Y034359D02*
X026244Y034224D01*
X030993Y029475D01*
X031643Y030325D02*
X031643Y032175D01*
X032393Y032925D01*
X038243Y032925D01*
X038593Y033275D01*
X038593Y034625D01*
X036693Y032325D02*
X036693Y030961D01*
X036319Y030095D02*
X036346Y030068D01*
X036346Y029365D01*
X037067Y029649D02*
X037067Y030095D01*
X037067Y029649D02*
X037093Y029575D01*
X036346Y028685D02*
X036316Y028655D01*
X035256Y028655D01*
X034236Y029395D02*
X034053Y029395D01*
X033393Y030054D01*
X033393Y030085D01*
X033546Y030085D01*
X034293Y030085D02*
X035193Y030085D01*
X035043Y027375D02*
X035043Y025525D01*
X033893Y024375D01*
X033043Y024969D02*
X032593Y024969D01*
X031343Y026325D02*
X031343Y026735D01*
X028403Y026725D02*
X027341Y026725D01*
X031993Y022225D02*
X032517Y022225D01*
X032517Y021725D02*
X032517Y021225D01*
X031893Y021225D01*
X031643Y021475D01*
X031243Y020825D02*
X031241Y020822D01*
X031241Y020225D01*
X031243Y020825D02*
X033193Y020825D01*
X033493Y020525D01*
X034043Y020525D01*
X034383Y020185D01*
X034383Y020175D01*
X034383Y019575D01*
X034303Y018975D02*
X033703Y019575D01*
X033143Y019615D02*
X033143Y020075D01*
X033243Y020175D01*
X033703Y020175D01*
X034093Y021225D02*
X033893Y021425D01*
X034093Y021225D02*
X034564Y021225D01*
X034814Y020975D01*
X035951Y020975D01*
X036631Y020975D02*
X035951Y021655D01*
X035951Y021725D01*
X034564Y021725D01*
X034564Y021225D02*
X034543Y021204D01*
X035901Y021775D02*
X035951Y021725D01*
X038143Y020725D02*
X038543Y020725D01*
X038633Y020635D01*
X038633Y020415D01*
X038893Y020415D02*
X038893Y020775D01*
X038843Y020825D01*
X039143Y020725D02*
X039143Y020425D01*
X039153Y020415D01*
X039143Y020405D01*
X039143Y020150D01*
X039068Y020075D01*
X039153Y019535D02*
X039183Y019535D01*
X039793Y018925D01*
X039793Y018325D01*
X040093Y018025D01*
X041461Y018025D01*
X042093Y018657D01*
X042093Y019725D01*
X043893Y021525D01*
X044293Y021525D01*
X044425Y021656D01*
X044425Y022551D01*
X043693Y022675D02*
X043693Y024925D01*
X043343Y025275D01*
X038893Y025275D01*
X038143Y024525D01*
X038143Y024465D01*
X038143Y023785D02*
X038143Y023425D01*
X039093Y023125D02*
X039093Y021825D01*
X039893Y021025D01*
X039893Y020365D01*
X039893Y019685D02*
X040693Y019685D01*
X040788Y019590D01*
X040788Y018725D01*
X040693Y019685D02*
X041493Y019685D01*
X041493Y020365D02*
X041883Y020365D01*
X041893Y020375D01*
X040693Y020365D02*
X040693Y020825D01*
X039560Y021958D01*
X039560Y022551D01*
X039560Y022925D02*
X039710Y022925D01*
X039993Y022642D01*
X039993Y022125D01*
X040193Y021925D01*
X041253Y021925D01*
X041293Y022225D01*
X041393Y022325D01*
X041393Y022484D01*
X041460Y022551D01*
X041319Y022551D01*
X041460Y022925D02*
X042326Y022925D01*
X042493Y022925D01*
X042867Y023299D01*
X043093Y023299D01*
X043093Y023885D01*
X043093Y023299D02*
X043362Y023299D01*
X043693Y022675D02*
X043569Y022551D01*
X043362Y022551D01*
X042593Y021875D02*
X041983Y021875D01*
X041933Y021925D01*
X042293Y022225D02*
X042293Y022518D01*
X042326Y022551D01*
X042326Y023299D02*
X042293Y023332D01*
X042293Y023625D01*
X042393Y024025D02*
X042033Y024025D01*
X041933Y023925D01*
X041333Y023925D02*
X041253Y023925D01*
X041293Y023925D01*
X041253Y023925D02*
X040193Y023925D01*
X039993Y023725D01*
X039993Y023208D01*
X040276Y022925D01*
X040426Y022925D01*
X040426Y022551D02*
X040452Y022525D01*
X040843Y022525D01*
X040843Y023325D02*
X040452Y023325D01*
X040426Y023299D01*
X039560Y023299D02*
X039534Y023325D01*
X039293Y023325D01*
X039093Y023125D01*
X041293Y023625D02*
X041393Y023525D01*
X041393Y023366D01*
X041460Y023299D01*
X041293Y023625D02*
X041253Y023925D01*
X043093Y024565D02*
X043093Y024925D01*
X045093Y028250D02*
X045166Y028247D01*
X045973Y028247D01*
X038893Y019535D02*
X038893Y019325D01*
X038943Y019275D01*
X038643Y019275D02*
X038633Y019285D01*
X038633Y019535D01*
X038043Y018425D02*
X039043Y017425D01*
X041393Y017425D01*
X041693Y017125D01*
X041693Y009227D01*
X042196Y008725D01*
X044743Y008725D01*
X045093Y008375D01*
X045093Y007508D01*
X046078Y007508D02*
X046078Y008191D01*
X046043Y008225D01*
X046593Y009225D02*
X050610Y009225D01*
X050993Y009608D01*
X050993Y011042D01*
X050710Y011325D01*
X046593Y011325D01*
X046193Y010925D01*
X046193Y009625D01*
X046593Y009225D01*
X046538Y009280D02*
X050665Y009280D01*
X050784Y009399D02*
X046420Y009399D01*
X046301Y009517D02*
X050902Y009517D01*
X050993Y009636D02*
X046193Y009636D01*
X046193Y009754D02*
X050993Y009754D01*
X050993Y009873D02*
X046193Y009873D01*
X046193Y009991D02*
X050993Y009991D01*
X050993Y010110D02*
X046193Y010110D01*
X046193Y010228D02*
X050993Y010228D01*
X050993Y010347D02*
X046193Y010347D01*
X046193Y010465D02*
X050993Y010465D01*
X050993Y010584D02*
X046193Y010584D01*
X046193Y010702D02*
X050993Y010702D01*
X050993Y010821D02*
X046193Y010821D01*
X046207Y010939D02*
X050993Y010939D01*
X050978Y011058D02*
X046326Y011058D01*
X046444Y011176D02*
X050859Y011176D01*
X050741Y011295D02*
X046563Y011295D01*
X044093Y008225D02*
X044109Y008209D01*
X044109Y007508D01*
X034931Y014825D02*
X034381Y015375D01*
X034381Y015615D01*
X034381Y016135D02*
X034343Y016135D01*
X033893Y016135D02*
X033793Y016235D01*
X033793Y017675D01*
X033693Y017775D01*
X033211Y017775D01*
X033231Y017795D01*
X033231Y017545D02*
X033231Y017495D01*
X033243Y017482D01*
X032693Y017425D02*
X032683Y017415D01*
X032191Y017415D01*
X032191Y016735D02*
X032191Y015946D01*
X033191Y015946D02*
X033380Y016135D01*
X032691Y014804D02*
X034230Y014804D01*
X034251Y014825D01*
X035891Y015528D02*
X035893Y015525D01*
X035891Y015528D02*
X035891Y015535D01*
X036693Y016275D02*
X036693Y016282D01*
X036691Y016285D01*
X036591Y017515D02*
X036591Y017522D01*
X036593Y017525D01*
X035793Y018268D02*
X035791Y018265D01*
X035793Y018268D02*
X035793Y018275D01*
X034951Y017795D02*
X034483Y017795D01*
X034383Y017895D01*
X034383Y018975D01*
X034303Y018975D01*
X033703Y018975D02*
X033663Y018935D01*
X033143Y018935D01*
X033703Y018975D02*
X033703Y018185D01*
X033693Y018175D01*
X033693Y018155D01*
X033593Y018055D01*
X033231Y018055D01*
X030941Y016225D02*
X030941Y015378D01*
X030943Y015375D01*
X016683Y009875D02*
X016683Y009865D01*
X016003Y009875D02*
X015593Y009875D01*
X016683Y008335D02*
X016743Y008275D01*
X032393Y034625D02*
X032493Y034725D01*
X032493Y035525D01*
X032243Y035775D01*
X030193Y035775D01*
X029093Y036875D01*
D54*
X029093Y036875D03*
X033393Y031175D03*
X032043Y030075D03*
X031643Y030325D03*
X030993Y029475D03*
X032943Y029375D03*
X033393Y028275D03*
X033493Y026825D03*
X032593Y026825D03*
X031343Y026325D03*
X030543Y024025D03*
X029993Y023575D03*
X029993Y022775D03*
X030493Y022325D03*
X031343Y022325D03*
X031643Y021475D03*
X031243Y020825D03*
X033243Y020175D03*
X033893Y021425D03*
X035693Y023825D03*
X036493Y024025D03*
X036493Y023175D03*
X036993Y022825D03*
X038143Y023425D03*
X038443Y021525D03*
X037743Y021525D03*
X037043Y021725D03*
X038143Y020725D03*
X036593Y018775D03*
X037143Y018325D03*
X037143Y017525D03*
X036593Y017075D03*
X036693Y016725D03*
X037243Y016325D03*
X037243Y015425D03*
X036693Y015025D03*
X035893Y015125D03*
X035893Y016625D03*
X035793Y017175D03*
X035793Y018675D03*
X038043Y018425D03*
X038443Y018475D03*
X039093Y018475D03*
X042093Y018125D03*
X042093Y017625D03*
X042093Y017125D03*
X042093Y016625D03*
X042093Y016125D03*
X042093Y015625D03*
X042093Y015125D03*
X042593Y015125D03*
X042593Y015625D03*
X042593Y016125D03*
X042593Y016625D03*
X042593Y017125D03*
X042593Y017625D03*
X042593Y018125D03*
X042593Y018625D03*
X043093Y018625D03*
X043093Y018125D03*
X043093Y017625D03*
X043093Y017125D03*
X043093Y016625D03*
X043093Y016125D03*
X043093Y015625D03*
X043093Y015125D03*
X043593Y015125D03*
X043593Y015625D03*
X043593Y016125D03*
X043593Y016625D03*
X043593Y017125D03*
X043593Y017625D03*
X043593Y018125D03*
X043593Y018625D03*
X044093Y018625D03*
X044093Y018125D03*
X044093Y017625D03*
X044093Y017125D03*
X044093Y016625D03*
X044093Y016125D03*
X044093Y015625D03*
X044093Y015125D03*
X044593Y015125D03*
X044593Y015625D03*
X044593Y016125D03*
X044593Y016625D03*
X044593Y017125D03*
X044593Y017625D03*
X044593Y018125D03*
X044593Y018625D03*
X045093Y018625D03*
X045093Y018125D03*
X045093Y017625D03*
X045093Y017125D03*
X045093Y016625D03*
X045093Y016125D03*
X045093Y015625D03*
X045093Y015125D03*
X045593Y015125D03*
X045593Y015625D03*
X045593Y016125D03*
X045593Y016625D03*
X045593Y017125D03*
X045593Y017625D03*
X045593Y018125D03*
X045593Y018625D03*
X046093Y018625D03*
X046093Y018125D03*
X046093Y017625D03*
X046093Y017125D03*
X046093Y016625D03*
X046093Y016125D03*
X046093Y015625D03*
X046093Y015125D03*
X046593Y015125D03*
X046593Y015625D03*
X046593Y016125D03*
X046593Y016625D03*
X046593Y017125D03*
X046593Y017625D03*
X046593Y018125D03*
X046593Y018625D03*
X047093Y018625D03*
X047093Y018125D03*
X047093Y017625D03*
X047093Y017125D03*
X047093Y016625D03*
X047093Y016125D03*
X047093Y015625D03*
X047093Y015125D03*
X047593Y015125D03*
X047593Y015625D03*
X047593Y016125D03*
X047593Y016625D03*
X047593Y017125D03*
X047593Y017625D03*
X047593Y018125D03*
X047593Y018625D03*
X048093Y018625D03*
X048093Y018125D03*
X048093Y017625D03*
X048093Y017125D03*
X048093Y016625D03*
X048093Y016125D03*
X048093Y015625D03*
X048093Y015125D03*
X048593Y015125D03*
X048593Y015625D03*
X048593Y016125D03*
X048593Y016625D03*
X048593Y017125D03*
X048593Y017625D03*
X048593Y018125D03*
X048593Y018625D03*
X049093Y018625D03*
X049093Y018125D03*
X049093Y017625D03*
X049093Y017125D03*
X049093Y016625D03*
X049093Y016125D03*
X049093Y015625D03*
X049093Y015125D03*
X049593Y015125D03*
X049593Y015625D03*
X049593Y016125D03*
X049593Y016625D03*
X049593Y017125D03*
X049593Y017625D03*
X049593Y018125D03*
X049593Y018625D03*
X049593Y019125D03*
X049093Y019125D03*
X048593Y019125D03*
X048093Y019125D03*
X047593Y019125D03*
X047093Y019125D03*
X046593Y019125D03*
X046093Y019125D03*
X045593Y019125D03*
X045093Y019125D03*
X044593Y019125D03*
X044093Y019125D03*
X043593Y019125D03*
X043093Y019125D03*
X042593Y019125D03*
X042593Y019625D03*
X043093Y019625D03*
X043093Y020125D03*
X043593Y020125D03*
X043593Y019625D03*
X044093Y019625D03*
X044093Y020125D03*
X044593Y020125D03*
X044593Y019625D03*
X045093Y019625D03*
X045093Y020125D03*
X045093Y020625D03*
X044593Y020625D03*
X044593Y021125D03*
X045093Y021125D03*
X045093Y021625D03*
X045593Y021625D03*
X045593Y021125D03*
X045593Y020625D03*
X045593Y020125D03*
X045593Y019625D03*
X046093Y019625D03*
X046093Y020125D03*
X046093Y020625D03*
X046093Y021125D03*
X046093Y021625D03*
X046093Y022125D03*
X045593Y022125D03*
X046593Y022125D03*
X046593Y021625D03*
X046593Y021125D03*
X046593Y020625D03*
X046593Y020125D03*
X046593Y019625D03*
X047093Y019625D03*
X047093Y020125D03*
X047093Y020625D03*
X047093Y021125D03*
X047093Y021625D03*
X047093Y022125D03*
X047593Y022125D03*
X047593Y021625D03*
X047593Y021125D03*
X047593Y020625D03*
X047593Y020125D03*
X047593Y019625D03*
X048093Y019625D03*
X048093Y020125D03*
X048093Y020625D03*
X048093Y021125D03*
X048093Y021625D03*
X048093Y022125D03*
X048593Y022125D03*
X048593Y021625D03*
X048593Y021125D03*
X048593Y020625D03*
X048593Y020125D03*
X048593Y019625D03*
X049093Y019625D03*
X049093Y020125D03*
X049093Y020625D03*
X049093Y021125D03*
X049093Y021625D03*
X049093Y022125D03*
X049593Y022125D03*
X049593Y021625D03*
X049593Y021125D03*
X049593Y020625D03*
X049593Y020125D03*
X049593Y019625D03*
X045493Y023875D03*
X046193Y024775D03*
X047343Y026225D03*
X045093Y028250D03*
X043343Y028425D03*
X042843Y028425D03*
X042343Y028425D03*
X041843Y028425D03*
X041343Y028425D03*
X040843Y028425D03*
X040343Y028425D03*
X040343Y028925D03*
X040343Y029425D03*
X040343Y029925D03*
X040843Y029925D03*
X040843Y029425D03*
X040843Y028925D03*
X041343Y028925D03*
X041343Y029425D03*
X041343Y029925D03*
X041843Y029925D03*
X041843Y029425D03*
X041843Y028925D03*
X042343Y028925D03*
X042343Y029425D03*
X042343Y029925D03*
X042843Y029925D03*
X042843Y029425D03*
X042843Y028925D03*
X043343Y028925D03*
X043343Y029425D03*
X043343Y029925D03*
X043343Y027925D03*
X042843Y027925D03*
X042343Y027925D03*
X041843Y027925D03*
X041343Y027925D03*
X040843Y027925D03*
X040343Y027925D03*
X040343Y027425D03*
X040343Y026925D03*
X040343Y026425D03*
X040843Y026425D03*
X040843Y026925D03*
X040843Y027425D03*
X041343Y027425D03*
X041343Y026925D03*
X041343Y026425D03*
X041843Y026425D03*
X041843Y026925D03*
X041843Y027425D03*
X042343Y027425D03*
X042343Y026925D03*
X042343Y026425D03*
X042843Y026425D03*
X042843Y026925D03*
X042843Y027425D03*
X043343Y027425D03*
X043343Y026925D03*
X043343Y026425D03*
X043093Y024925D03*
X043993Y024775D03*
X044093Y023875D03*
X042393Y024025D03*
X042293Y023625D03*
X042293Y022225D03*
X042593Y021875D03*
X043093Y021575D03*
X043543Y021575D03*
X043043Y021075D03*
X041893Y020375D03*
X040843Y021125D03*
X040843Y022525D03*
X040843Y023325D03*
X037043Y025375D03*
X033893Y024375D03*
X031343Y023825D03*
X035743Y029025D03*
X037093Y029575D03*
X035643Y030775D03*
X036693Y032325D03*
X024193Y028275D03*
X022293Y029025D03*
X020493Y030225D03*
X018693Y030025D03*
X018693Y029325D03*
X017743Y029025D03*
X016443Y028725D03*
X016443Y027875D03*
X016993Y027425D03*
X017693Y027425D03*
X020501Y032825D03*
X021593Y035875D03*
X021593Y036425D03*
X018093Y036875D03*
X014643Y036425D03*
X014293Y036125D03*
X012243Y035875D03*
X012243Y036425D03*
X010393Y018125D03*
X011743Y017225D03*
X011743Y015725D03*
X010093Y015725D03*
X009993Y014125D03*
X009993Y013075D03*
X015593Y009875D03*
X021243Y016925D03*
X021243Y017325D03*
X021243Y017725D03*
X021643Y017725D03*
X021643Y017325D03*
X021643Y016925D03*
X032693Y017425D03*
X033243Y017225D03*
X042093Y014625D03*
X042593Y014625D03*
X043093Y014625D03*
X043593Y014625D03*
X044093Y014625D03*
X044593Y014625D03*
X045093Y014625D03*
X045593Y014625D03*
X046093Y014625D03*
X046593Y014625D03*
X047093Y014625D03*
X047593Y014625D03*
X048093Y014625D03*
X048593Y014625D03*
X049093Y014625D03*
X049593Y014625D03*
X046043Y008225D03*
X044093Y008225D03*
D55*
X036693Y015025D02*
X036693Y015425D01*
X037243Y015425D01*
X036691Y015465D02*
X035961Y015465D01*
X035891Y015535D01*
X035893Y015525D02*
X035893Y015125D01*
X035851Y016175D02*
X035891Y016215D01*
X035961Y016285D01*
X036691Y016285D01*
X036693Y016275D02*
X036693Y016725D01*
X036593Y017075D02*
X036593Y017525D01*
X036493Y017525D01*
X036591Y017515D02*
X035861Y017515D01*
X035791Y017585D01*
X035793Y017525D02*
X035793Y017175D01*
X035893Y016625D02*
X035893Y016225D01*
X036743Y016325D02*
X037243Y016325D01*
X037143Y017525D02*
X036593Y017525D01*
X036593Y017575D01*
X036593Y018325D02*
X037143Y018325D01*
X036593Y018325D02*
X036593Y018775D01*
X036591Y018335D02*
X035861Y018335D01*
X035791Y018265D01*
X035581Y018055D01*
X035343Y018055D01*
X035793Y018275D02*
X035793Y018675D01*
X038403Y018875D02*
X038443Y018835D01*
X038443Y018475D01*
X038403Y018875D02*
X038643Y019115D01*
X038643Y019275D01*
X038993Y019175D02*
X039083Y019085D01*
X039083Y018875D01*
X039083Y018485D01*
X039093Y018475D01*
X039143Y020725D02*
X039143Y021325D01*
X038243Y022225D01*
X034564Y022225D01*
X035643Y022765D02*
X035693Y022735D01*
X035643Y022765D02*
X036493Y022765D01*
X036493Y022825D01*
X036993Y022825D01*
X036493Y022825D02*
X036493Y023175D01*
X036493Y023585D02*
X036493Y024025D01*
X035693Y023825D02*
X035693Y023415D01*
X037743Y021525D02*
X037743Y021135D01*
X037753Y021125D01*
X038433Y021125D02*
X038443Y021135D01*
X038443Y021525D01*
X038433Y021125D02*
X038593Y021125D01*
X038843Y020825D01*
X040843Y021125D02*
X041293Y021125D01*
X042593Y021125D02*
X042993Y021125D01*
X043043Y021075D01*
X043093Y021575D02*
X043093Y021925D01*
X043043Y021975D01*
X043053Y021975D01*
X043043Y021975D02*
X042993Y021975D01*
X042893Y021875D01*
X042593Y021875D01*
X042893Y021925D02*
X042943Y021875D01*
X042893Y021925D02*
X042893Y021975D01*
X042993Y021975D01*
X042893Y021975D02*
X042893Y022775D01*
X043043Y022925D01*
X043362Y022925D01*
X044425Y023299D02*
X044453Y023328D01*
X044453Y023875D01*
X044093Y023875D01*
X044443Y023885D02*
X044443Y024775D01*
X044393Y024775D02*
X043993Y024775D01*
X044443Y023885D02*
X044453Y023875D01*
X045133Y023875D02*
X045493Y023875D01*
X045743Y024775D02*
X046193Y024775D01*
X046293Y026218D02*
X046301Y026225D01*
X046293Y026232D01*
X046301Y026225D02*
X045943Y026225D01*
X045973Y026255D01*
X045973Y027247D01*
X047774Y027247D01*
X047791Y027325D01*
X048393Y028025D02*
X048793Y028025D01*
X049093Y027725D01*
X049093Y027328D01*
X049091Y027325D01*
X047343Y026225D02*
X046981Y026225D01*
X045943Y026225D02*
X045586Y026225D01*
X044906Y026225D02*
X043493Y026225D01*
X043343Y026375D01*
X043343Y026425D01*
X042321Y028425D02*
X041918Y028247D01*
X042321Y028425D02*
X042343Y028425D01*
X043733Y021975D02*
X043543Y021785D01*
X043543Y021575D01*
X034381Y016135D02*
X033893Y016135D01*
X033380Y016135D01*
X033191Y015946D02*
X033191Y015872D01*
X032693Y015375D01*
X030943Y015375D01*
X033243Y017225D02*
X033243Y017482D01*
X031343Y022325D02*
X031343Y022735D01*
X030571Y022735D01*
X030543Y022762D01*
X030493Y022762D02*
X030493Y022325D01*
X030493Y022775D02*
X029993Y022775D01*
X030693Y023425D02*
X030543Y023575D01*
X029993Y023575D01*
X030543Y023582D02*
X030543Y024025D01*
X030693Y023425D02*
X031343Y023425D01*
X031343Y023415D01*
X031343Y023425D02*
X031343Y023825D01*
X031343Y022735D02*
X031943Y022725D01*
X032517Y022725D01*
X033393Y028275D02*
X033393Y028685D01*
X033423Y028655D01*
X034236Y028655D01*
X033393Y029365D02*
X032943Y029375D01*
X017851Y028575D02*
X017841Y028565D01*
X017743Y028662D01*
X017743Y029025D01*
X017041Y028735D02*
X017031Y028725D01*
X016443Y028725D01*
X016443Y027875D02*
X016993Y027875D01*
X016993Y027868D02*
X016993Y027425D01*
X016993Y027868D02*
X017041Y027915D01*
X017841Y027885D02*
X017841Y027572D01*
X017693Y027425D01*
X016643Y015125D02*
X016643Y014875D01*
X015993Y014225D01*
X015576Y014225D01*
X015573Y014222D01*
X015343Y015125D02*
X014793Y015125D01*
X015573Y012722D02*
X015573Y012152D01*
X015246Y011825D01*
X014693Y011825D01*
D56*
X016683Y009865D02*
X017193Y010375D01*
X020843Y010375D01*
X022043Y009175D01*
X022543Y009675D01*
X022543Y010575D01*
X022893Y010925D01*
X027343Y010925D01*
X029193Y012776D01*
X029193Y020425D01*
X030493Y021725D01*
X031493Y021725D01*
X031993Y022225D01*
X032517Y022225D02*
X032993Y022225D01*
X033093Y022125D01*
X033093Y021425D01*
X033793Y020725D01*
X034693Y020725D01*
X035003Y020415D01*
X038377Y020415D01*
X038118Y020075D02*
X038118Y020050D01*
X038068Y020000D01*
X038043Y020000D02*
X038118Y020075D01*
X039068Y020075D01*
X038943Y019275D02*
X038993Y019225D01*
X038993Y019175D01*
X037043Y021725D02*
X036631Y021725D01*
X035693Y022735D02*
X035643Y022725D01*
X034564Y022725D01*
X034951Y018055D02*
X035343Y018055D01*
X035891Y016215D02*
X035811Y016135D01*
X035201Y016135D01*
X035201Y015875D02*
X035591Y015875D01*
X035891Y015575D01*
X035891Y015535D01*
X021796Y026815D02*
X021336Y027275D01*
X020817Y027275D01*
X020817Y027775D02*
X019943Y027775D01*
X020817Y027775D02*
X021656Y027775D01*
X021796Y027635D01*
X019760Y029225D02*
X019413Y029225D01*
X019253Y029385D01*
X019193Y029385D01*
X019133Y029325D01*
X018693Y029325D01*
X018693Y030025D02*
X019133Y030025D01*
X019193Y030065D01*
X019294Y030065D01*
X019760Y029599D01*
X018770Y028275D02*
X018131Y028275D01*
X017841Y028565D01*
X017793Y028525D02*
X017293Y028525D01*
X017083Y028735D01*
X017041Y028735D01*
X016993Y027925D02*
X017003Y027915D01*
X017041Y027915D01*
X016993Y027925D02*
X017893Y027925D01*
X010473Y018125D02*
X010393Y018125D01*
X010473Y018125D02*
X010683Y017915D01*
X010683Y017035D02*
X010693Y017025D01*
X010493Y016825D01*
X010093Y016825D01*
X010093Y016135D02*
X010093Y015725D01*
X011233Y017035D02*
X011443Y016825D01*
X011733Y016825D01*
X011743Y016815D01*
X011743Y017225D01*
X011233Y017035D02*
X011203Y017035D01*
X011743Y016135D02*
X011743Y015725D01*
X016683Y009865D02*
X016683Y008335D01*
D57*
X007843Y006675D02*
X007393Y007125D01*
X007393Y013425D01*
X008093Y014125D01*
X008341Y014125D01*
X008903Y014125D01*
X009583Y014125D02*
X009993Y014125D01*
X009993Y013075D02*
X009583Y013075D01*
X008903Y013075D02*
X008853Y013125D01*
X008341Y013125D01*
X008193Y013125D01*
X007593Y012525D01*
X007593Y007225D01*
X007993Y006825D01*
X019443Y006825D01*
X020213Y006055D01*
X022323Y006055D01*
X023043Y006775D01*
X023043Y009175D01*
X024043Y009175D02*
X024043Y007575D01*
X022393Y005925D01*
X020143Y005925D01*
X019393Y006675D01*
X007843Y006675D01*
X010543Y008275D02*
X010543Y015025D01*
X010943Y015425D01*
X010943Y017035D01*
X010683Y017035D02*
X010683Y017365D01*
X010793Y017475D01*
X011143Y017475D01*
X011203Y017535D01*
X011203Y017915D01*
X010943Y017915D02*
X010943Y018075D01*
X009893Y019125D01*
X009893Y020125D01*
X009893Y021125D01*
X009893Y022125D01*
X009293Y022125D02*
X008341Y022125D01*
X008341Y021125D02*
X009293Y021125D01*
X009893Y021125D02*
X009893Y019125D01*
X009293Y019125D02*
X008341Y019125D01*
X008341Y020125D02*
X009293Y020125D01*
X010093Y023725D02*
X008341Y023725D01*
X008341Y024725D02*
X009293Y024725D01*
X009893Y024725D02*
X009893Y025725D01*
X009893Y026725D01*
X009893Y026525D01*
X009993Y026425D01*
X019193Y026425D01*
X019293Y026525D01*
X019293Y027625D01*
X019143Y027775D01*
X019143Y027875D01*
X019393Y028125D01*
X019393Y028425D01*
X019593Y028625D01*
X020400Y028625D01*
X020626Y028851D01*
X019734Y028825D02*
X018493Y028825D01*
X019143Y027875D02*
X019093Y027825D01*
X018770Y027275D02*
X018720Y027225D01*
X018293Y027225D01*
X017993Y026925D01*
X016093Y026925D01*
X015643Y027375D01*
X015643Y028925D01*
X017341Y030622D01*
X017341Y030775D01*
X016843Y030375D02*
X016843Y031325D01*
X017293Y031775D01*
X017341Y031775D01*
X016843Y030375D02*
X015493Y029025D01*
X015493Y027225D01*
X015993Y026725D01*
X018720Y026725D01*
X018770Y026775D01*
X020167Y026125D02*
X011076Y026125D01*
X010493Y025542D01*
X010493Y024125D01*
X010093Y023725D01*
X009293Y025725D02*
X008341Y025725D01*
X008341Y026725D02*
X009293Y026725D01*
X009893Y026725D02*
X009893Y027725D01*
X009293Y027725D02*
X008341Y027725D01*
X020167Y026125D02*
X020817Y026775D01*
X038377Y019759D02*
X038493Y019875D01*
X038793Y019875D01*
X038893Y019775D01*
X038893Y019535D01*
X038377Y019535D02*
X038377Y019759D01*
D58*
X027341Y020725D02*
X027241Y020825D01*
X025993Y020825D01*
X025993Y022025D02*
X026493Y022025D01*
X026693Y022225D01*
X026583Y023025D02*
X026993Y023025D01*
X027341Y022725D01*
X027341Y023725D02*
X026583Y023725D01*
X025903Y023725D02*
X025193Y023725D01*
X025193Y023025D02*
X025903Y023025D01*
X042843Y029425D02*
X042993Y029275D01*
X043043Y029275D01*
X043093Y029325D01*
D59*
X045193Y029365D02*
X047793Y029365D01*
X047793Y029267D02*
X045193Y029267D01*
X045193Y029168D02*
X047793Y029168D01*
X047793Y029070D02*
X045193Y029070D01*
X045193Y028971D02*
X047793Y028971D01*
X047793Y028873D02*
X045193Y028873D01*
X045193Y028774D02*
X047793Y028774D01*
X047793Y028725D02*
X045193Y028725D01*
X045193Y029725D01*
X047793Y029725D01*
X047793Y028725D01*
X047793Y029464D02*
X045193Y029464D01*
X045193Y029562D02*
X047793Y029562D01*
X047793Y029661D02*
X045193Y029661D01*
X045543Y022275D02*
X049793Y022275D01*
X049793Y014425D01*
X041993Y014425D01*
X041993Y018175D01*
X042543Y018725D01*
X042543Y019725D01*
X043093Y020275D01*
X043543Y020275D01*
X045543Y022275D01*
X045541Y022273D02*
X049793Y022273D01*
X049793Y022175D02*
X045443Y022175D01*
X045344Y022076D02*
X049793Y022076D01*
X049793Y021978D02*
X045246Y021978D01*
X045147Y021879D02*
X049793Y021879D01*
X049793Y021781D02*
X045049Y021781D01*
X044950Y021682D02*
X049793Y021682D01*
X049793Y021584D02*
X044852Y021584D01*
X044753Y021485D02*
X049793Y021485D01*
X049793Y021387D02*
X044655Y021387D01*
X044556Y021288D02*
X049793Y021288D01*
X049793Y021190D02*
X044458Y021190D01*
X044359Y021091D02*
X049793Y021091D01*
X049793Y020993D02*
X044261Y020993D01*
X044162Y020894D02*
X049793Y020894D01*
X049793Y020796D02*
X044064Y020796D01*
X043965Y020697D02*
X049793Y020697D01*
X049793Y020599D02*
X043867Y020599D01*
X043768Y020500D02*
X049793Y020500D01*
X049793Y020402D02*
X043670Y020402D01*
X043571Y020303D02*
X049793Y020303D01*
X049793Y020205D02*
X043023Y020205D01*
X042924Y020106D02*
X049793Y020106D01*
X049793Y020008D02*
X042826Y020008D01*
X042727Y019909D02*
X049793Y019909D01*
X049793Y019811D02*
X042629Y019811D01*
X042543Y019712D02*
X049793Y019712D01*
X049793Y019614D02*
X042543Y019614D01*
X042543Y019515D02*
X049793Y019515D01*
X049793Y019417D02*
X042543Y019417D01*
X042543Y019318D02*
X049793Y019318D01*
X049793Y019220D02*
X042543Y019220D01*
X042543Y019121D02*
X049793Y019121D01*
X049793Y019023D02*
X042543Y019023D01*
X042543Y018924D02*
X049793Y018924D01*
X049793Y018826D02*
X042543Y018826D01*
X042543Y018727D02*
X049793Y018727D01*
X049793Y018629D02*
X042447Y018629D01*
X042348Y018530D02*
X049793Y018530D01*
X049793Y018432D02*
X042250Y018432D01*
X042151Y018333D02*
X049793Y018333D01*
X049793Y018235D02*
X042053Y018235D01*
X041993Y018136D02*
X049793Y018136D01*
X049793Y018038D02*
X041993Y018038D01*
X041993Y017939D02*
X049793Y017939D01*
X049793Y017841D02*
X041993Y017841D01*
X041993Y017742D02*
X049793Y017742D01*
X049793Y017644D02*
X041993Y017644D01*
X041993Y017545D02*
X049793Y017545D01*
X049793Y017447D02*
X041993Y017447D01*
X041993Y017348D02*
X049793Y017348D01*
X049793Y017250D02*
X041993Y017250D01*
X041993Y017151D02*
X049793Y017151D01*
X049793Y017053D02*
X041993Y017053D01*
X041993Y016954D02*
X049793Y016954D01*
X049793Y016856D02*
X041993Y016856D01*
X041993Y016757D02*
X049793Y016757D01*
X049793Y016659D02*
X041993Y016659D01*
X041993Y016560D02*
X049793Y016560D01*
X049793Y016462D02*
X041993Y016462D01*
X041993Y016363D02*
X049793Y016363D01*
X049793Y016265D02*
X041993Y016265D01*
X041993Y016166D02*
X049793Y016166D01*
X049793Y016068D02*
X041993Y016068D01*
X041993Y015969D02*
X049793Y015969D01*
X049793Y015871D02*
X041993Y015871D01*
X041993Y015772D02*
X049793Y015772D01*
X049793Y015674D02*
X041993Y015674D01*
X041993Y015575D02*
X049793Y015575D01*
X049793Y015477D02*
X041993Y015477D01*
X041993Y015378D02*
X049793Y015378D01*
X049793Y015280D02*
X041993Y015280D01*
X041993Y015181D02*
X049793Y015181D01*
X049793Y015083D02*
X041993Y015083D01*
X041993Y014984D02*
X049793Y014984D01*
X049793Y014886D02*
X041993Y014886D01*
X041993Y014787D02*
X049793Y014787D01*
X049793Y014689D02*
X041993Y014689D01*
X041993Y014590D02*
X049793Y014590D01*
X049793Y014492D02*
X041993Y014492D01*
X045993Y013342D02*
X045993Y011849D01*
X046217Y011625D01*
X051693Y011625D01*
X051893Y011825D01*
X051893Y013625D01*
X046276Y013625D01*
X045993Y013342D01*
X045993Y013310D02*
X051893Y013310D01*
X051893Y013408D02*
X046059Y013408D01*
X046158Y013507D02*
X051893Y013507D01*
X051893Y013605D02*
X046256Y013605D01*
X045993Y013211D02*
X051893Y013211D01*
X051893Y013113D02*
X045993Y013113D01*
X045993Y013014D02*
X051893Y013014D01*
X051893Y012916D02*
X045993Y012916D01*
X045993Y012817D02*
X051893Y012817D01*
X051893Y012719D02*
X045993Y012719D01*
X045993Y012620D02*
X051893Y012620D01*
X051893Y012522D02*
X045993Y012522D01*
X045993Y012423D02*
X051893Y012423D01*
X051893Y012325D02*
X045993Y012325D01*
X045993Y012226D02*
X051893Y012226D01*
X051893Y012128D02*
X045993Y012128D01*
X045993Y012029D02*
X051893Y012029D01*
X051893Y011931D02*
X045993Y011931D01*
X046010Y011832D02*
X051893Y011832D01*
X051802Y011734D02*
X046108Y011734D01*
X046207Y011635D02*
X051703Y011635D01*
X036643Y011425D02*
X036643Y009425D01*
X034043Y009425D01*
X034043Y011425D01*
X036643Y011425D01*
X036643Y011340D02*
X034043Y011340D01*
X034043Y011241D02*
X036643Y011241D01*
X036643Y011143D02*
X034043Y011143D01*
X034043Y011044D02*
X036643Y011044D01*
X036643Y010946D02*
X034043Y010946D01*
X034043Y010847D02*
X036643Y010847D01*
X036643Y010749D02*
X034043Y010749D01*
X034043Y010650D02*
X036643Y010650D01*
X036643Y010552D02*
X034043Y010552D01*
X034043Y010453D02*
X036643Y010453D01*
X036643Y010355D02*
X034043Y010355D01*
X034043Y010256D02*
X036643Y010256D01*
X036643Y010158D02*
X034043Y010158D01*
X034043Y010059D02*
X036643Y010059D01*
X036643Y009961D02*
X034043Y009961D01*
X034043Y009862D02*
X036643Y009862D01*
X036643Y009764D02*
X034043Y009764D01*
X034043Y009665D02*
X036643Y009665D01*
X036643Y009567D02*
X034043Y009567D01*
X034043Y009468D02*
X036643Y009468D01*
X036743Y016225D02*
X036693Y016275D01*
X024193Y028275D02*
X023731Y028275D01*
X023051Y028275D02*
X022381Y028275D01*
X018772Y027825D02*
X018770Y027775D01*
X018791Y026822D02*
X018770Y026775D01*
X018770Y026701D01*
X013333Y035875D02*
X013333Y036425D01*
X012653Y035875D02*
X012243Y035875D01*
X032043Y030075D02*
X032483Y030075D01*
X032493Y030085D01*
X032493Y030765D02*
X033173Y030085D01*
X033393Y030085D01*
X033393Y030765D02*
X033393Y031175D01*
X035193Y030765D02*
X035633Y030765D01*
X035643Y030775D01*
X035193Y030085D02*
X035193Y029458D01*
X035256Y029395D01*
X035256Y029025D02*
X035743Y029025D01*
X034423Y029395D02*
X034236Y029395D01*
X018693Y015025D02*
X018093Y015625D01*
X016903Y015625D01*
X016903Y015595D01*
X016925Y015595D01*
X016983Y015536D01*
X016983Y014714D01*
X016925Y014655D01*
X016734Y014655D01*
X016213Y014134D01*
X016084Y014005D01*
X015667Y014005D01*
X015664Y014002D01*
X015482Y014002D01*
X015472Y014012D01*
X015142Y014012D01*
X015083Y014071D01*
X015083Y014374D01*
X015142Y014432D01*
X015472Y014432D01*
X015485Y014445D01*
X015902Y014445D01*
X016303Y014846D01*
X016303Y015536D01*
X016362Y015595D01*
X016383Y015595D01*
X016383Y015625D01*
X014493Y015625D01*
X013893Y015025D01*
X013893Y011225D01*
X018693Y011225D01*
X018693Y015025D01*
X018693Y014984D02*
X016983Y014984D01*
X016983Y014886D02*
X018693Y014886D01*
X018693Y014787D02*
X016983Y014787D01*
X016958Y014689D02*
X018693Y014689D01*
X018693Y014590D02*
X016669Y014590D01*
X016571Y014492D02*
X018693Y014492D01*
X018693Y014393D02*
X017984Y014393D01*
X018003Y014374D02*
X017945Y014432D01*
X017082Y014432D01*
X017023Y014374D01*
X017023Y014071D01*
X017082Y014012D01*
X017945Y014012D01*
X018003Y014071D01*
X018003Y014374D01*
X018003Y014295D02*
X018693Y014295D01*
X018693Y014196D02*
X018003Y014196D01*
X018003Y014098D02*
X018693Y014098D01*
X018693Y013999D02*
X013893Y013999D01*
X013893Y013901D02*
X018693Y013901D01*
X018693Y013802D02*
X013893Y013802D01*
X013893Y013704D02*
X018693Y013704D01*
X018693Y013605D02*
X013893Y013605D01*
X013893Y013507D02*
X018693Y013507D01*
X018693Y013408D02*
X013893Y013408D01*
X013893Y013310D02*
X018693Y013310D01*
X018693Y013211D02*
X013893Y013211D01*
X013893Y013113D02*
X018693Y013113D01*
X018693Y013014D02*
X013893Y013014D01*
X013893Y012916D02*
X015125Y012916D01*
X015142Y012932D02*
X015083Y012874D01*
X015083Y012571D01*
X015142Y012512D01*
X015353Y012512D01*
X015353Y012295D01*
X014965Y012295D01*
X014906Y012236D01*
X014906Y012045D01*
X014881Y012045D01*
X014857Y012069D01*
X014751Y012113D01*
X014636Y012113D01*
X014530Y012069D01*
X014449Y011988D01*
X014405Y011882D01*
X014405Y011768D01*
X014449Y011662D01*
X014530Y011581D01*
X014636Y011537D01*
X014751Y011537D01*
X014857Y011581D01*
X014881Y011605D01*
X014906Y011605D01*
X014906Y011414D01*
X014965Y011355D01*
X015527Y011355D01*
X015586Y011414D01*
X015586Y011854D01*
X015793Y012061D01*
X015793Y012512D01*
X016005Y012512D01*
X016063Y012571D01*
X016063Y012874D01*
X016005Y012932D01*
X015674Y012932D01*
X015664Y012942D01*
X015482Y012942D01*
X015472Y012932D01*
X015142Y012932D01*
X015083Y012817D02*
X013893Y012817D01*
X013893Y012719D02*
X015083Y012719D01*
X015083Y012620D02*
X013893Y012620D01*
X013893Y012522D02*
X015133Y012522D01*
X015353Y012423D02*
X013893Y012423D01*
X013893Y012325D02*
X015353Y012325D01*
X015793Y012325D02*
X018693Y012325D01*
X018693Y012423D02*
X015793Y012423D01*
X015793Y012226D02*
X018693Y012226D01*
X018693Y012128D02*
X015793Y012128D01*
X015761Y012029D02*
X018693Y012029D01*
X018693Y011931D02*
X015663Y011931D01*
X015586Y011832D02*
X018693Y011832D01*
X018693Y011734D02*
X015586Y011734D01*
X015586Y011635D02*
X018693Y011635D01*
X018693Y011537D02*
X015586Y011537D01*
X015586Y011438D02*
X018693Y011438D01*
X018693Y011340D02*
X013893Y011340D01*
X013893Y011438D02*
X014906Y011438D01*
X014906Y011537D02*
X013893Y011537D01*
X013893Y011635D02*
X014476Y011635D01*
X014419Y011734D02*
X013893Y011734D01*
X013893Y011832D02*
X014405Y011832D01*
X014425Y011931D02*
X013893Y011931D01*
X013893Y012029D02*
X014490Y012029D01*
X014906Y012128D02*
X013893Y012128D01*
X013893Y012226D02*
X014906Y012226D01*
X016014Y012522D02*
X017073Y012522D01*
X017082Y012512D02*
X017945Y012512D01*
X018003Y012571D01*
X018003Y012874D01*
X017945Y012932D01*
X017082Y012932D01*
X017023Y012874D01*
X017023Y012571D01*
X017082Y012512D01*
X017023Y012620D02*
X016063Y012620D01*
X016063Y012719D02*
X017023Y012719D01*
X017023Y012817D02*
X016063Y012817D01*
X016021Y012916D02*
X017065Y012916D01*
X017961Y012916D02*
X018693Y012916D01*
X018693Y012817D02*
X018003Y012817D01*
X018003Y012719D02*
X018693Y012719D01*
X018693Y012620D02*
X018003Y012620D01*
X017954Y012522D02*
X018693Y012522D01*
X018693Y011241D02*
X013893Y011241D01*
X013893Y014098D02*
X015083Y014098D01*
X015083Y014196D02*
X013893Y014196D01*
X013893Y014295D02*
X015083Y014295D01*
X015103Y014393D02*
X013893Y014393D01*
X013893Y014492D02*
X015949Y014492D01*
X016047Y014590D02*
X013893Y014590D01*
X013893Y014689D02*
X015028Y014689D01*
X015003Y014714D02*
X015062Y014655D01*
X015625Y014655D01*
X015683Y014714D01*
X015683Y015536D01*
X015625Y015595D01*
X015062Y015595D01*
X015003Y015536D01*
X015003Y015345D01*
X014981Y015345D01*
X014957Y015369D01*
X014851Y015413D01*
X014736Y015413D01*
X014630Y015369D01*
X014549Y015288D01*
X014505Y015182D01*
X014505Y015068D01*
X014549Y014962D01*
X014630Y014881D01*
X014736Y014837D01*
X014851Y014837D01*
X014957Y014881D01*
X014981Y014905D01*
X015003Y014905D01*
X015003Y014714D01*
X015003Y014787D02*
X013893Y014787D01*
X013893Y014886D02*
X014625Y014886D01*
X014540Y014984D02*
X013893Y014984D01*
X013951Y015083D02*
X014505Y015083D01*
X014505Y015181D02*
X014049Y015181D01*
X014148Y015280D02*
X014545Y015280D01*
X014651Y015378D02*
X014246Y015378D01*
X014345Y015477D02*
X015003Y015477D01*
X015003Y015378D02*
X014935Y015378D01*
X015042Y015575D02*
X014443Y015575D01*
X014961Y014886D02*
X015003Y014886D01*
X015683Y014886D02*
X016303Y014886D01*
X016303Y014984D02*
X015683Y014984D01*
X015683Y015083D02*
X016303Y015083D01*
X016303Y015181D02*
X015683Y015181D01*
X015683Y015280D02*
X016303Y015280D01*
X016303Y015378D02*
X015683Y015378D01*
X015683Y015477D02*
X016303Y015477D01*
X016342Y015575D02*
X015645Y015575D01*
X015683Y014787D02*
X016244Y014787D01*
X016146Y014689D02*
X015658Y014689D01*
X016374Y014295D02*
X017023Y014295D01*
X017023Y014196D02*
X016275Y014196D01*
X016177Y014098D02*
X017023Y014098D01*
X017043Y014393D02*
X016472Y014393D01*
X016983Y015083D02*
X018636Y015083D01*
X018537Y015181D02*
X016983Y015181D01*
X016983Y015280D02*
X018439Y015280D01*
X018340Y015378D02*
X016983Y015378D01*
X016983Y015477D02*
X018242Y015477D01*
X018143Y015575D02*
X016945Y015575D01*
D60*
X015893Y016325D02*
X015893Y020125D01*
X017393Y020125D01*
X017393Y017925D01*
X019993Y017925D01*
X019993Y016325D01*
X015893Y016325D01*
X015893Y016347D02*
X019993Y016347D01*
X019993Y016395D02*
X015893Y016395D01*
X015893Y016444D02*
X019993Y016444D01*
X019993Y016492D02*
X015893Y016492D01*
X015893Y016541D02*
X019993Y016541D01*
X019993Y016589D02*
X015893Y016589D01*
X015893Y016638D02*
X019993Y016638D01*
X019993Y016686D02*
X015893Y016686D01*
X015893Y016735D02*
X019993Y016735D01*
X019993Y016783D02*
X015893Y016783D01*
X015893Y016832D02*
X019993Y016832D01*
X019993Y016880D02*
X015893Y016880D01*
X015893Y016929D02*
X019993Y016929D01*
X019993Y016977D02*
X015893Y016977D01*
X015893Y017026D02*
X019993Y017026D01*
X019993Y017074D02*
X015893Y017074D01*
X015893Y017123D02*
X019993Y017123D01*
X019993Y017171D02*
X015893Y017171D01*
X015893Y017220D02*
X019993Y017220D01*
X019993Y017268D02*
X015893Y017268D01*
X015893Y017317D02*
X019993Y017317D01*
X019993Y017365D02*
X015893Y017365D01*
X015893Y017414D02*
X019993Y017414D01*
X019993Y017462D02*
X015893Y017462D01*
X015893Y017511D02*
X019993Y017511D01*
X019993Y017559D02*
X015893Y017559D01*
X015893Y017608D02*
X019993Y017608D01*
X019993Y017656D02*
X015893Y017656D01*
X015893Y017705D02*
X019993Y017705D01*
X019993Y017753D02*
X015893Y017753D01*
X015893Y017802D02*
X019993Y017802D01*
X019993Y017850D02*
X015893Y017850D01*
X015893Y017899D02*
X019993Y017899D01*
X020193Y017899D02*
X023198Y017899D01*
X023198Y017947D02*
X021493Y017947D01*
X021493Y017925D02*
X021493Y020325D01*
X021293Y020325D01*
X021293Y018125D01*
X020193Y018125D01*
X020193Y021925D01*
X017593Y021925D01*
X017593Y023025D01*
X019493Y023025D01*
X019493Y022325D01*
X020493Y022325D01*
X020493Y021831D01*
X020484Y021821D01*
X020484Y021366D01*
X020493Y021356D01*
X020493Y021125D01*
X021493Y021125D01*
X021793Y021225D01*
X023198Y021225D01*
X023198Y016862D01*
X023096Y016760D01*
X020193Y016760D01*
X020193Y017925D01*
X021493Y017925D01*
X021493Y017996D02*
X023198Y017996D01*
X023198Y018044D02*
X021493Y018044D01*
X021493Y018093D02*
X023198Y018093D01*
X023198Y018141D02*
X021493Y018141D01*
X021493Y018190D02*
X023198Y018190D01*
X023198Y018238D02*
X021493Y018238D01*
X021493Y018287D02*
X023198Y018287D01*
X023198Y018335D02*
X021493Y018335D01*
X021493Y018384D02*
X023198Y018384D01*
X023198Y018432D02*
X021493Y018432D01*
X021493Y018481D02*
X023198Y018481D01*
X023198Y018529D02*
X021493Y018529D01*
X021493Y018578D02*
X023198Y018578D01*
X023198Y018626D02*
X021493Y018626D01*
X021493Y018675D02*
X023198Y018675D01*
X023198Y018723D02*
X021493Y018723D01*
X021493Y018772D02*
X023198Y018772D01*
X023198Y018820D02*
X021493Y018820D01*
X021493Y018869D02*
X023198Y018869D01*
X023198Y018917D02*
X021493Y018917D01*
X021493Y018966D02*
X023198Y018966D01*
X023198Y019014D02*
X021493Y019014D01*
X021493Y019063D02*
X023198Y019063D01*
X023198Y019111D02*
X021493Y019111D01*
X021493Y019160D02*
X023198Y019160D01*
X023198Y019208D02*
X021493Y019208D01*
X021493Y019257D02*
X023198Y019257D01*
X023198Y019305D02*
X021493Y019305D01*
X021493Y019354D02*
X023198Y019354D01*
X023198Y019402D02*
X021493Y019402D01*
X021493Y019451D02*
X023198Y019451D01*
X023198Y019499D02*
X021493Y019499D01*
X021493Y019548D02*
X023198Y019548D01*
X023198Y019596D02*
X021493Y019596D01*
X021493Y019645D02*
X023198Y019645D01*
X023198Y019693D02*
X021493Y019693D01*
X021493Y019742D02*
X023198Y019742D01*
X023198Y019790D02*
X021493Y019790D01*
X021493Y019839D02*
X023198Y019839D01*
X023198Y019887D02*
X021493Y019887D01*
X021493Y019936D02*
X023198Y019936D01*
X023198Y019984D02*
X021493Y019984D01*
X021493Y020033D02*
X023198Y020033D01*
X023198Y020081D02*
X021493Y020081D01*
X021493Y020130D02*
X023198Y020130D01*
X023198Y020178D02*
X021493Y020178D01*
X021493Y020227D02*
X023198Y020227D01*
X023198Y020275D02*
X021493Y020275D01*
X021493Y020324D02*
X023198Y020324D01*
X023198Y020372D02*
X020193Y020372D01*
X020193Y020324D02*
X021293Y020324D01*
X021293Y020275D02*
X020193Y020275D01*
X020193Y020227D02*
X021293Y020227D01*
X021293Y020178D02*
X020193Y020178D01*
X020193Y020130D02*
X021293Y020130D01*
X021293Y020081D02*
X020193Y020081D01*
X020193Y020033D02*
X021293Y020033D01*
X021293Y019984D02*
X020193Y019984D01*
X020193Y019936D02*
X021293Y019936D01*
X021293Y019887D02*
X020193Y019887D01*
X020193Y019839D02*
X021293Y019839D01*
X021293Y019790D02*
X020193Y019790D01*
X020193Y019742D02*
X021293Y019742D01*
X021293Y019693D02*
X020193Y019693D01*
X020193Y019645D02*
X021293Y019645D01*
X021293Y019596D02*
X020193Y019596D01*
X020193Y019548D02*
X021293Y019548D01*
X021293Y019499D02*
X020193Y019499D01*
X020193Y019451D02*
X021293Y019451D01*
X021293Y019402D02*
X020193Y019402D01*
X020193Y019354D02*
X021293Y019354D01*
X021293Y019305D02*
X020193Y019305D01*
X020193Y019257D02*
X021293Y019257D01*
X021293Y019208D02*
X020193Y019208D01*
X020193Y019160D02*
X021293Y019160D01*
X021293Y019111D02*
X020193Y019111D01*
X020193Y019063D02*
X021293Y019063D01*
X021293Y019014D02*
X020193Y019014D01*
X020193Y018966D02*
X021293Y018966D01*
X021293Y018917D02*
X020193Y018917D01*
X020193Y018869D02*
X021293Y018869D01*
X021293Y018820D02*
X020193Y018820D01*
X020193Y018772D02*
X021293Y018772D01*
X021293Y018723D02*
X020193Y018723D01*
X020193Y018675D02*
X021293Y018675D01*
X021293Y018626D02*
X020193Y018626D01*
X020193Y018578D02*
X021293Y018578D01*
X021293Y018529D02*
X020193Y018529D01*
X020193Y018481D02*
X021293Y018481D01*
X021293Y018432D02*
X020193Y018432D01*
X020193Y018384D02*
X021293Y018384D01*
X021293Y018335D02*
X020193Y018335D01*
X020193Y018287D02*
X021293Y018287D01*
X021293Y018238D02*
X020193Y018238D01*
X020193Y018190D02*
X021293Y018190D01*
X021293Y018141D02*
X020193Y018141D01*
X019993Y018141D02*
X017593Y018141D01*
X017593Y018125D02*
X017593Y020125D01*
X019993Y020125D01*
X019993Y018125D01*
X017593Y018125D01*
X017593Y018190D02*
X019993Y018190D01*
X019993Y018238D02*
X017593Y018238D01*
X017593Y018287D02*
X019993Y018287D01*
X019993Y018335D02*
X017593Y018335D01*
X017593Y018384D02*
X019993Y018384D01*
X019993Y018432D02*
X017593Y018432D01*
X017593Y018481D02*
X019993Y018481D01*
X019993Y018529D02*
X017593Y018529D01*
X017593Y018578D02*
X019993Y018578D01*
X019993Y018626D02*
X017593Y018626D01*
X017593Y018675D02*
X019993Y018675D01*
X019993Y018723D02*
X017593Y018723D01*
X017593Y018772D02*
X019993Y018772D01*
X019993Y018820D02*
X017593Y018820D01*
X017593Y018869D02*
X019993Y018869D01*
X019993Y018917D02*
X017593Y018917D01*
X017593Y018966D02*
X019993Y018966D01*
X019993Y019014D02*
X017593Y019014D01*
X017593Y019063D02*
X019993Y019063D01*
X019993Y019111D02*
X017593Y019111D01*
X017593Y019160D02*
X019993Y019160D01*
X019993Y019208D02*
X017593Y019208D01*
X017593Y019257D02*
X019993Y019257D01*
X019993Y019305D02*
X017593Y019305D01*
X017593Y019354D02*
X019993Y019354D01*
X019993Y019402D02*
X017593Y019402D01*
X017593Y019451D02*
X019993Y019451D01*
X019993Y019499D02*
X017593Y019499D01*
X017593Y019548D02*
X019993Y019548D01*
X019993Y019596D02*
X017593Y019596D01*
X017593Y019645D02*
X019993Y019645D01*
X019993Y019693D02*
X017593Y019693D01*
X017593Y019742D02*
X019993Y019742D01*
X019993Y019790D02*
X017593Y019790D01*
X017593Y019839D02*
X019993Y019839D01*
X019993Y019887D02*
X017593Y019887D01*
X017593Y019936D02*
X019993Y019936D01*
X019993Y019984D02*
X017593Y019984D01*
X017593Y020033D02*
X019993Y020033D01*
X019993Y020081D02*
X017593Y020081D01*
X017393Y020081D02*
X015893Y020081D01*
X015893Y020033D02*
X017393Y020033D01*
X017393Y019984D02*
X015893Y019984D01*
X015893Y019936D02*
X017393Y019936D01*
X017393Y019887D02*
X015893Y019887D01*
X015893Y019839D02*
X017393Y019839D01*
X017393Y019790D02*
X015893Y019790D01*
X015893Y019742D02*
X017393Y019742D01*
X017393Y019693D02*
X015893Y019693D01*
X015893Y019645D02*
X017393Y019645D01*
X017393Y019596D02*
X015893Y019596D01*
X015893Y019548D02*
X017393Y019548D01*
X017393Y019499D02*
X015893Y019499D01*
X015893Y019451D02*
X017393Y019451D01*
X017393Y019402D02*
X015893Y019402D01*
X015893Y019354D02*
X017393Y019354D01*
X017393Y019305D02*
X015893Y019305D01*
X015893Y019257D02*
X017393Y019257D01*
X017393Y019208D02*
X015893Y019208D01*
X015893Y019160D02*
X017393Y019160D01*
X017393Y019111D02*
X015893Y019111D01*
X015893Y019063D02*
X017393Y019063D01*
X017393Y019014D02*
X015893Y019014D01*
X015893Y018966D02*
X017393Y018966D01*
X017393Y018917D02*
X015893Y018917D01*
X015893Y018869D02*
X017393Y018869D01*
X017393Y018820D02*
X015893Y018820D01*
X015893Y018772D02*
X017393Y018772D01*
X017393Y018723D02*
X015893Y018723D01*
X015893Y018675D02*
X017393Y018675D01*
X017393Y018626D02*
X015893Y018626D01*
X015893Y018578D02*
X017393Y018578D01*
X017393Y018529D02*
X015893Y018529D01*
X015893Y018481D02*
X017393Y018481D01*
X017393Y018432D02*
X015893Y018432D01*
X015893Y018384D02*
X017393Y018384D01*
X017393Y018335D02*
X015893Y018335D01*
X015893Y018287D02*
X017393Y018287D01*
X017393Y018238D02*
X015893Y018238D01*
X015893Y018190D02*
X017393Y018190D01*
X017393Y018141D02*
X015893Y018141D01*
X015893Y018093D02*
X017393Y018093D01*
X017393Y018044D02*
X015893Y018044D01*
X015893Y017996D02*
X017393Y017996D01*
X017393Y017947D02*
X015893Y017947D01*
X015893Y020325D02*
X017393Y020325D01*
X017393Y023225D01*
X019693Y023225D01*
X019693Y022425D01*
X020793Y022425D01*
X020793Y024625D01*
X015893Y024625D01*
X015893Y020325D01*
X015893Y020372D02*
X017393Y020372D01*
X017393Y020421D02*
X015893Y020421D01*
X015893Y020469D02*
X017393Y020469D01*
X017393Y020518D02*
X015893Y020518D01*
X015893Y020566D02*
X017393Y020566D01*
X017393Y020615D02*
X015893Y020615D01*
X015893Y020663D02*
X017393Y020663D01*
X017393Y020712D02*
X015893Y020712D01*
X015893Y020760D02*
X017393Y020760D01*
X017393Y020809D02*
X015893Y020809D01*
X015893Y020857D02*
X017393Y020857D01*
X017393Y020906D02*
X015893Y020906D01*
X015893Y020954D02*
X017393Y020954D01*
X017393Y021003D02*
X015893Y021003D01*
X015893Y021051D02*
X017393Y021051D01*
X017393Y021100D02*
X015893Y021100D01*
X015893Y021148D02*
X017393Y021148D01*
X017393Y021197D02*
X015893Y021197D01*
X015893Y021245D02*
X017393Y021245D01*
X017393Y021294D02*
X015893Y021294D01*
X015893Y021342D02*
X017393Y021342D01*
X017393Y021391D02*
X015893Y021391D01*
X015893Y021439D02*
X017393Y021439D01*
X017393Y021488D02*
X015893Y021488D01*
X015893Y021536D02*
X017393Y021536D01*
X017393Y021585D02*
X015893Y021585D01*
X015893Y021633D02*
X017393Y021633D01*
X017393Y021682D02*
X015893Y021682D01*
X015893Y021730D02*
X017393Y021730D01*
X017393Y021779D02*
X015893Y021779D01*
X015893Y021827D02*
X017393Y021827D01*
X017393Y021876D02*
X015893Y021876D01*
X015893Y021924D02*
X017393Y021924D01*
X017393Y021973D02*
X015893Y021973D01*
X015893Y022021D02*
X017393Y022021D01*
X017393Y022070D02*
X015893Y022070D01*
X015893Y022118D02*
X017393Y022118D01*
X017393Y022167D02*
X015893Y022167D01*
X015893Y022215D02*
X017393Y022215D01*
X017393Y022264D02*
X015893Y022264D01*
X015893Y022312D02*
X017393Y022312D01*
X017393Y022361D02*
X015893Y022361D01*
X015893Y022409D02*
X017393Y022409D01*
X017393Y022458D02*
X015893Y022458D01*
X015893Y022506D02*
X017393Y022506D01*
X017393Y022555D02*
X015893Y022555D01*
X015893Y022603D02*
X017393Y022603D01*
X017393Y022652D02*
X015893Y022652D01*
X015893Y022700D02*
X017393Y022700D01*
X017393Y022749D02*
X015893Y022749D01*
X015893Y022797D02*
X017393Y022797D01*
X017393Y022846D02*
X015893Y022846D01*
X015893Y022894D02*
X017393Y022894D01*
X017393Y022943D02*
X015893Y022943D01*
X015893Y022991D02*
X017393Y022991D01*
X017393Y023040D02*
X015893Y023040D01*
X015893Y023088D02*
X017393Y023088D01*
X017393Y023137D02*
X015893Y023137D01*
X015893Y023185D02*
X017393Y023185D01*
X017593Y022991D02*
X019493Y022991D01*
X019493Y022943D02*
X017593Y022943D01*
X017593Y022894D02*
X019493Y022894D01*
X019493Y022846D02*
X017593Y022846D01*
X017593Y022797D02*
X019493Y022797D01*
X019493Y022749D02*
X017593Y022749D01*
X017593Y022700D02*
X019493Y022700D01*
X019493Y022652D02*
X017593Y022652D01*
X017593Y022603D02*
X019493Y022603D01*
X019493Y022555D02*
X017593Y022555D01*
X017593Y022506D02*
X019493Y022506D01*
X019493Y022458D02*
X017593Y022458D01*
X017593Y022409D02*
X019493Y022409D01*
X019493Y022361D02*
X017593Y022361D01*
X017593Y022312D02*
X020493Y022312D01*
X020493Y022264D02*
X017593Y022264D01*
X017593Y022215D02*
X020493Y022215D01*
X020493Y022167D02*
X017593Y022167D01*
X017593Y022118D02*
X020493Y022118D01*
X020493Y022070D02*
X017593Y022070D01*
X017593Y022021D02*
X020493Y022021D01*
X020493Y021973D02*
X017593Y021973D01*
X017593Y021725D02*
X019993Y021725D01*
X019993Y020325D01*
X017593Y020325D01*
X017593Y021725D01*
X017593Y021682D02*
X019993Y021682D01*
X019993Y021633D02*
X017593Y021633D01*
X017593Y021585D02*
X019993Y021585D01*
X019993Y021536D02*
X017593Y021536D01*
X017593Y021488D02*
X019993Y021488D01*
X019993Y021439D02*
X017593Y021439D01*
X017593Y021391D02*
X019993Y021391D01*
X019993Y021342D02*
X017593Y021342D01*
X017593Y021294D02*
X019993Y021294D01*
X019993Y021245D02*
X017593Y021245D01*
X017593Y021197D02*
X019993Y021197D01*
X019993Y021148D02*
X017593Y021148D01*
X017593Y021100D02*
X019993Y021100D01*
X019993Y021051D02*
X017593Y021051D01*
X017593Y021003D02*
X019993Y021003D01*
X019993Y020954D02*
X017593Y020954D01*
X017593Y020906D02*
X019993Y020906D01*
X019993Y020857D02*
X017593Y020857D01*
X017593Y020809D02*
X019993Y020809D01*
X019993Y020760D02*
X017593Y020760D01*
X017593Y020712D02*
X019993Y020712D01*
X019993Y020663D02*
X017593Y020663D01*
X017593Y020615D02*
X019993Y020615D01*
X019993Y020566D02*
X017593Y020566D01*
X017593Y020518D02*
X019993Y020518D01*
X019993Y020469D02*
X017593Y020469D01*
X017593Y020421D02*
X019993Y020421D01*
X019993Y020372D02*
X017593Y020372D01*
X020193Y020421D02*
X023198Y020421D01*
X023198Y020469D02*
X020193Y020469D01*
X020193Y020518D02*
X023198Y020518D01*
X023198Y020566D02*
X020193Y020566D01*
X020193Y020615D02*
X023198Y020615D01*
X023198Y020663D02*
X020193Y020663D01*
X020193Y020712D02*
X023198Y020712D01*
X023198Y020760D02*
X020193Y020760D01*
X020193Y020809D02*
X023198Y020809D01*
X023198Y020857D02*
X020193Y020857D01*
X020193Y020906D02*
X023198Y020906D01*
X023198Y020954D02*
X020193Y020954D01*
X020193Y021003D02*
X023198Y021003D01*
X023198Y021051D02*
X020193Y021051D01*
X020193Y021100D02*
X023198Y021100D01*
X023198Y021148D02*
X021563Y021148D01*
X021708Y021197D02*
X023198Y021197D01*
X023093Y021425D02*
X021793Y021425D01*
X021493Y021325D01*
X020593Y021325D01*
X020593Y021925D01*
X021493Y021925D01*
X022493Y022625D01*
X023093Y022625D01*
X023093Y021425D01*
X023093Y021439D02*
X020593Y021439D01*
X020593Y021391D02*
X021690Y021391D01*
X021545Y021342D02*
X020593Y021342D01*
X020493Y021342D02*
X020193Y021342D01*
X020193Y021294D02*
X020493Y021294D01*
X020493Y021245D02*
X020193Y021245D01*
X020193Y021197D02*
X020493Y021197D01*
X020493Y021148D02*
X020193Y021148D01*
X020193Y021391D02*
X020484Y021391D01*
X020484Y021439D02*
X020193Y021439D01*
X020193Y021488D02*
X020484Y021488D01*
X020484Y021536D02*
X020193Y021536D01*
X020193Y021585D02*
X020484Y021585D01*
X020484Y021633D02*
X020193Y021633D01*
X020193Y021682D02*
X020484Y021682D01*
X020484Y021730D02*
X020193Y021730D01*
X020193Y021779D02*
X020484Y021779D01*
X020490Y021827D02*
X020193Y021827D01*
X020193Y021876D02*
X020493Y021876D01*
X020493Y021924D02*
X020193Y021924D01*
X020593Y021924D02*
X023093Y021924D01*
X023093Y021876D02*
X020593Y021876D01*
X020593Y021827D02*
X023093Y021827D01*
X023093Y021779D02*
X020593Y021779D01*
X020593Y021730D02*
X023093Y021730D01*
X023093Y021682D02*
X020593Y021682D01*
X020593Y021633D02*
X023093Y021633D01*
X023093Y021585D02*
X020593Y021585D01*
X020593Y021536D02*
X023093Y021536D01*
X023093Y021488D02*
X020593Y021488D01*
X020793Y022458D02*
X019693Y022458D01*
X019693Y022506D02*
X020793Y022506D01*
X020793Y022555D02*
X019693Y022555D01*
X019693Y022603D02*
X020793Y022603D01*
X020793Y022652D02*
X019693Y022652D01*
X019693Y022700D02*
X020793Y022700D01*
X020793Y022749D02*
X019693Y022749D01*
X019693Y022797D02*
X020793Y022797D01*
X020793Y022846D02*
X019693Y022846D01*
X019693Y022894D02*
X020793Y022894D01*
X020793Y022943D02*
X019693Y022943D01*
X019693Y022991D02*
X020793Y022991D01*
X020793Y023040D02*
X019693Y023040D01*
X019693Y023088D02*
X020793Y023088D01*
X020793Y023137D02*
X019693Y023137D01*
X019693Y023185D02*
X020793Y023185D01*
X020793Y023234D02*
X015893Y023234D01*
X015893Y023282D02*
X020793Y023282D01*
X020793Y023331D02*
X015893Y023331D01*
X015893Y023379D02*
X020793Y023379D01*
X020793Y023428D02*
X015893Y023428D01*
X015893Y023476D02*
X020793Y023476D01*
X020793Y023525D02*
X015893Y023525D01*
X015893Y023573D02*
X020793Y023573D01*
X020793Y023622D02*
X015893Y023622D01*
X015893Y023670D02*
X020793Y023670D01*
X020793Y023719D02*
X015893Y023719D01*
X015893Y023767D02*
X020793Y023767D01*
X020793Y023816D02*
X015893Y023816D01*
X015893Y023864D02*
X020793Y023864D01*
X020793Y023913D02*
X015893Y023913D01*
X015893Y023961D02*
X020793Y023961D01*
X020793Y024010D02*
X015893Y024010D01*
X015893Y024058D02*
X020793Y024058D01*
X020793Y024107D02*
X015893Y024107D01*
X015893Y024155D02*
X020793Y024155D01*
X020793Y024204D02*
X015893Y024204D01*
X015893Y024252D02*
X020793Y024252D01*
X020793Y024301D02*
X015893Y024301D01*
X015893Y024349D02*
X020793Y024349D01*
X020793Y024398D02*
X015893Y024398D01*
X015893Y024446D02*
X020793Y024446D01*
X020793Y024495D02*
X015893Y024495D01*
X015893Y024543D02*
X020793Y024543D01*
X020793Y024592D02*
X015893Y024592D01*
X018772Y027825D02*
X019093Y027825D01*
X019734Y028825D02*
X019760Y028851D01*
X022462Y022603D02*
X023093Y022603D01*
X023093Y022555D02*
X022393Y022555D01*
X022323Y022506D02*
X023093Y022506D01*
X023093Y022458D02*
X022254Y022458D01*
X022185Y022409D02*
X023093Y022409D01*
X023093Y022361D02*
X022116Y022361D01*
X022046Y022312D02*
X023093Y022312D01*
X023093Y022264D02*
X021977Y022264D01*
X021908Y022215D02*
X023093Y022215D01*
X023093Y022167D02*
X021838Y022167D01*
X021769Y022118D02*
X023093Y022118D01*
X023093Y022070D02*
X021700Y022070D01*
X021631Y022021D02*
X023093Y022021D01*
X023093Y021973D02*
X021561Y021973D01*
X020193Y017850D02*
X023198Y017850D01*
X023198Y017802D02*
X020193Y017802D01*
X020193Y017753D02*
X023198Y017753D01*
X023198Y017705D02*
X020193Y017705D01*
X020193Y017656D02*
X023198Y017656D01*
X023198Y017608D02*
X020193Y017608D01*
X020193Y017559D02*
X023198Y017559D01*
X023198Y017511D02*
X020193Y017511D01*
X020193Y017462D02*
X023198Y017462D01*
X023198Y017414D02*
X020193Y017414D01*
X020193Y017365D02*
X023198Y017365D01*
X023198Y017317D02*
X020193Y017317D01*
X020193Y017268D02*
X023198Y017268D01*
X023198Y017220D02*
X020193Y017220D01*
X020193Y017171D02*
X023198Y017171D01*
X023198Y017123D02*
X020193Y017123D01*
X020193Y017074D02*
X023198Y017074D01*
X023198Y017026D02*
X020193Y017026D01*
X020193Y016977D02*
X023198Y016977D01*
X023198Y016929D02*
X020193Y016929D01*
X020193Y016880D02*
X023198Y016880D01*
X023168Y016832D02*
X020193Y016832D01*
X020193Y016783D02*
X023119Y016783D01*
D61*
X030943Y015375D03*
X034193Y011025D03*
X034193Y010575D03*
X034193Y010125D03*
X034193Y009675D03*
X034643Y009675D03*
X035093Y009675D03*
X035543Y009675D03*
X035993Y009675D03*
X036443Y009675D03*
X036443Y010125D03*
X036443Y010575D03*
X036443Y011025D03*
X023243Y026725D03*
X019943Y027775D03*
X010093Y017425D03*
X014793Y015125D03*
X014693Y011825D03*
D62*
X017643Y011475D02*
X017693Y011425D01*
X018443Y011425D01*
X016643Y015125D02*
X016643Y015875D01*
X016743Y015975D01*
X019493Y016625D02*
X019493Y017275D01*
X019543Y017325D01*
X019493Y016625D02*
X019593Y016525D01*
X023193Y016525D01*
X023433Y016765D01*
X023433Y021725D01*
X023433Y022325D01*
X023243Y026725D02*
X023153Y026815D01*
X021796Y026815D01*
X010093Y017425D02*
X010093Y016825D01*
X010093Y016815D01*
X035343Y012692D02*
X035860Y012692D01*
X037693Y014525D01*
X037693Y019625D01*
X038068Y020000D01*
X038093Y020025D01*
D63*
X048543Y023475D03*
X048493Y025875D03*
X048393Y028025D03*
X048693Y031225D03*
X042643Y031225D03*
X025193Y023725D03*
X025193Y023025D03*
X023243Y014975D03*
X023243Y012575D03*
D64*
X035293Y006925D03*
X042043Y006775D03*
D65*
X023991Y012574D02*
X023990Y012575D01*
X023243Y012575D01*
X023243Y014975D02*
X023990Y014975D01*
X023991Y014976D01*
X017893Y015175D02*
X017893Y015885D01*
X025693Y021425D02*
X025993Y021425D01*
X048543Y023475D02*
X049240Y023475D01*
X049241Y023474D01*
X049240Y025875D02*
X048493Y025875D01*
X049240Y025875D02*
X049241Y025876D01*
D66*
X048693Y031225D02*
X048096Y031225D01*
X046796Y031225D02*
X045333Y031225D01*
X045331Y031222D01*
X042643Y031225D02*
X042046Y031225D01*
X042043Y031228D01*
X040743Y031228D02*
X040743Y030025D01*
X040843Y029925D01*
X025693Y021425D02*
X025393Y021425D01*
D67*
X028743Y018925D03*
X018443Y011425D03*
X016743Y015975D03*
D68*
X047493Y013125D02*
X047493Y012125D01*
X048493Y012125D02*
X048493Y013125D01*
D69*
X040788Y016725D02*
X039793Y016725D01*
X039093Y016025D01*
X039093Y012725D01*
X039093Y006725D01*
X035343Y012692D02*
X031627Y012692D01*
X031593Y012725D01*
X031593Y006725D01*
X045771Y029247D02*
X045493Y029525D01*
X045493Y031060D01*
X045331Y031222D01*
X043756Y031222D02*
X043756Y030338D01*
X042843Y029425D01*
X045771Y029247D02*
X045973Y029247D01*
D70*
X050593Y012625D03*
X047293Y010325D03*
D71*
X050593Y012625D02*
X051693Y013725D01*
X051693Y027225D01*
X049693Y029225D01*
X047293Y029225D01*
D72*
X026693Y022225D03*
D73*
X018493Y028825D03*
D74*
X020293Y023525D02*
X023293Y023525D01*
X025393Y021425D01*
M02*
