G75*
%MOIN*%
%OFA0B0*%
%FSLAX24Y24*%
%IPPOS*%
%LPD*%
%AMOC8*
5,1,8,0,0,1.08239X$1,22.5*
%
%ADD10C,0.0000*%
D10*
X005993Y006375D02*
X019343Y006375D01*
X019993Y005725D01*
X053993Y005725D01*
X054493Y006225D01*
X054493Y036025D01*
X053993Y036525D01*
X029893Y036525D01*
X029243Y037175D01*
X005993Y037175D01*
X005493Y036675D01*
X005493Y006875D01*
X005993Y006375D01*
X011593Y012475D02*
X011595Y012525D01*
X011601Y012575D01*
X011611Y012625D01*
X011624Y012673D01*
X011641Y012721D01*
X011662Y012767D01*
X011686Y012811D01*
X011714Y012853D01*
X011745Y012893D01*
X011779Y012930D01*
X011816Y012965D01*
X011855Y012996D01*
X011896Y013025D01*
X011940Y013050D01*
X011986Y013072D01*
X012033Y013090D01*
X012081Y013104D01*
X012130Y013115D01*
X012180Y013122D01*
X012230Y013125D01*
X012281Y013124D01*
X012331Y013119D01*
X012381Y013110D01*
X012429Y013098D01*
X012477Y013081D01*
X012523Y013061D01*
X012568Y013038D01*
X012611Y013011D01*
X012651Y012981D01*
X012689Y012948D01*
X012724Y012912D01*
X012757Y012873D01*
X012786Y012832D01*
X012812Y012789D01*
X012835Y012744D01*
X012854Y012697D01*
X012869Y012649D01*
X012881Y012600D01*
X012889Y012550D01*
X012893Y012500D01*
X012893Y012450D01*
X012889Y012400D01*
X012881Y012350D01*
X012869Y012301D01*
X012854Y012253D01*
X012835Y012206D01*
X012812Y012161D01*
X012786Y012118D01*
X012757Y012077D01*
X012724Y012038D01*
X012689Y012002D01*
X012651Y011969D01*
X012611Y011939D01*
X012568Y011912D01*
X012523Y011889D01*
X012477Y011869D01*
X012429Y011852D01*
X012381Y011840D01*
X012331Y011831D01*
X012281Y011826D01*
X012230Y011825D01*
X012180Y011828D01*
X012130Y011835D01*
X012081Y011846D01*
X012033Y011860D01*
X011986Y011878D01*
X011940Y011900D01*
X011896Y011925D01*
X011855Y011954D01*
X011816Y011985D01*
X011779Y012020D01*
X011745Y012057D01*
X011714Y012097D01*
X011686Y012139D01*
X011662Y012183D01*
X011641Y012229D01*
X011624Y012277D01*
X011611Y012325D01*
X011601Y012375D01*
X011595Y012425D01*
X011593Y012475D01*
X013593Y029225D02*
X013595Y029275D01*
X013601Y029325D01*
X013611Y029375D01*
X013624Y029423D01*
X013641Y029471D01*
X013662Y029517D01*
X013686Y029561D01*
X013714Y029603D01*
X013745Y029643D01*
X013779Y029680D01*
X013816Y029715D01*
X013855Y029746D01*
X013896Y029775D01*
X013940Y029800D01*
X013986Y029822D01*
X014033Y029840D01*
X014081Y029854D01*
X014130Y029865D01*
X014180Y029872D01*
X014230Y029875D01*
X014281Y029874D01*
X014331Y029869D01*
X014381Y029860D01*
X014429Y029848D01*
X014477Y029831D01*
X014523Y029811D01*
X014568Y029788D01*
X014611Y029761D01*
X014651Y029731D01*
X014689Y029698D01*
X014724Y029662D01*
X014757Y029623D01*
X014786Y029582D01*
X014812Y029539D01*
X014835Y029494D01*
X014854Y029447D01*
X014869Y029399D01*
X014881Y029350D01*
X014889Y029300D01*
X014893Y029250D01*
X014893Y029200D01*
X014889Y029150D01*
X014881Y029100D01*
X014869Y029051D01*
X014854Y029003D01*
X014835Y028956D01*
X014812Y028911D01*
X014786Y028868D01*
X014757Y028827D01*
X014724Y028788D01*
X014689Y028752D01*
X014651Y028719D01*
X014611Y028689D01*
X014568Y028662D01*
X014523Y028639D01*
X014477Y028619D01*
X014429Y028602D01*
X014381Y028590D01*
X014331Y028581D01*
X014281Y028576D01*
X014230Y028575D01*
X014180Y028578D01*
X014130Y028585D01*
X014081Y028596D01*
X014033Y028610D01*
X013986Y028628D01*
X013940Y028650D01*
X013896Y028675D01*
X013855Y028704D01*
X013816Y028735D01*
X013779Y028770D01*
X013745Y028807D01*
X013714Y028847D01*
X013686Y028889D01*
X013662Y028933D01*
X013641Y028979D01*
X013624Y029027D01*
X013611Y029075D01*
X013601Y029125D01*
X013595Y029175D01*
X013593Y029225D01*
X013263Y035075D02*
X013265Y035105D01*
X013271Y035135D01*
X013281Y035163D01*
X013294Y035190D01*
X013311Y035215D01*
X013330Y035238D01*
X013353Y035257D01*
X013378Y035274D01*
X013405Y035287D01*
X013433Y035297D01*
X013463Y035303D01*
X013493Y035305D01*
X013523Y035303D01*
X013553Y035297D01*
X013581Y035287D01*
X013608Y035274D01*
X013633Y035257D01*
X013656Y035238D01*
X013675Y035215D01*
X013692Y035190D01*
X013705Y035163D01*
X013715Y035135D01*
X013721Y035105D01*
X013723Y035075D01*
X013721Y035045D01*
X013715Y035015D01*
X013705Y034987D01*
X013692Y034960D01*
X013675Y034935D01*
X013656Y034912D01*
X013633Y034893D01*
X013608Y034876D01*
X013581Y034863D01*
X013553Y034853D01*
X013523Y034847D01*
X013493Y034845D01*
X013463Y034847D01*
X013433Y034853D01*
X013405Y034863D01*
X013378Y034876D01*
X013353Y034893D01*
X013330Y034912D01*
X013311Y034935D01*
X013294Y034960D01*
X013281Y034987D01*
X013271Y035015D01*
X013265Y035045D01*
X013263Y035075D01*
X012263Y035075D02*
X012265Y035105D01*
X012271Y035135D01*
X012281Y035163D01*
X012294Y035190D01*
X012311Y035215D01*
X012330Y035238D01*
X012353Y035257D01*
X012378Y035274D01*
X012405Y035287D01*
X012433Y035297D01*
X012463Y035303D01*
X012493Y035305D01*
X012523Y035303D01*
X012553Y035297D01*
X012581Y035287D01*
X012608Y035274D01*
X012633Y035257D01*
X012656Y035238D01*
X012675Y035215D01*
X012692Y035190D01*
X012705Y035163D01*
X012715Y035135D01*
X012721Y035105D01*
X012723Y035075D01*
X012721Y035045D01*
X012715Y035015D01*
X012705Y034987D01*
X012692Y034960D01*
X012675Y034935D01*
X012656Y034912D01*
X012633Y034893D01*
X012608Y034876D01*
X012581Y034863D01*
X012553Y034853D01*
X012523Y034847D01*
X012493Y034845D01*
X012463Y034847D01*
X012433Y034853D01*
X012405Y034863D01*
X012378Y034876D01*
X012353Y034893D01*
X012330Y034912D01*
X012311Y034935D01*
X012294Y034960D01*
X012281Y034987D01*
X012271Y035015D01*
X012265Y035045D01*
X012263Y035075D01*
X014688Y035075D02*
X014690Y035105D01*
X014696Y035135D01*
X014706Y035163D01*
X014719Y035190D01*
X014736Y035215D01*
X014755Y035238D01*
X014778Y035257D01*
X014803Y035274D01*
X014830Y035287D01*
X014858Y035297D01*
X014888Y035303D01*
X014918Y035305D01*
X014948Y035303D01*
X014978Y035297D01*
X015006Y035287D01*
X015033Y035274D01*
X015058Y035257D01*
X015081Y035238D01*
X015100Y035215D01*
X015117Y035190D01*
X015130Y035163D01*
X015140Y035135D01*
X015146Y035105D01*
X015148Y035075D01*
X015146Y035045D01*
X015140Y035015D01*
X015130Y034987D01*
X015117Y034960D01*
X015100Y034935D01*
X015081Y034912D01*
X015058Y034893D01*
X015033Y034876D01*
X015006Y034863D01*
X014978Y034853D01*
X014948Y034847D01*
X014918Y034845D01*
X014888Y034847D01*
X014858Y034853D01*
X014830Y034863D01*
X014803Y034876D01*
X014778Y034893D01*
X014755Y034912D01*
X014736Y034935D01*
X014719Y034960D01*
X014706Y034987D01*
X014696Y035015D01*
X014690Y035045D01*
X014688Y035075D01*
X015688Y035075D02*
X015690Y035105D01*
X015696Y035135D01*
X015706Y035163D01*
X015719Y035190D01*
X015736Y035215D01*
X015755Y035238D01*
X015778Y035257D01*
X015803Y035274D01*
X015830Y035287D01*
X015858Y035297D01*
X015888Y035303D01*
X015918Y035305D01*
X015948Y035303D01*
X015978Y035297D01*
X016006Y035287D01*
X016033Y035274D01*
X016058Y035257D01*
X016081Y035238D01*
X016100Y035215D01*
X016117Y035190D01*
X016130Y035163D01*
X016140Y035135D01*
X016146Y035105D01*
X016148Y035075D01*
X016146Y035045D01*
X016140Y035015D01*
X016130Y034987D01*
X016117Y034960D01*
X016100Y034935D01*
X016081Y034912D01*
X016058Y034893D01*
X016033Y034876D01*
X016006Y034863D01*
X015978Y034853D01*
X015948Y034847D01*
X015918Y034845D01*
X015888Y034847D01*
X015858Y034853D01*
X015830Y034863D01*
X015803Y034876D01*
X015778Y034893D01*
X015755Y034912D01*
X015736Y034935D01*
X015719Y034960D01*
X015706Y034987D01*
X015696Y035015D01*
X015690Y035045D01*
X015688Y035075D01*
X021613Y035075D02*
X021615Y035105D01*
X021621Y035135D01*
X021631Y035163D01*
X021644Y035190D01*
X021661Y035215D01*
X021680Y035238D01*
X021703Y035257D01*
X021728Y035274D01*
X021755Y035287D01*
X021783Y035297D01*
X021813Y035303D01*
X021843Y035305D01*
X021873Y035303D01*
X021903Y035297D01*
X021931Y035287D01*
X021958Y035274D01*
X021983Y035257D01*
X022006Y035238D01*
X022025Y035215D01*
X022042Y035190D01*
X022055Y035163D01*
X022065Y035135D01*
X022071Y035105D01*
X022073Y035075D01*
X022071Y035045D01*
X022065Y035015D01*
X022055Y034987D01*
X022042Y034960D01*
X022025Y034935D01*
X022006Y034912D01*
X021983Y034893D01*
X021958Y034876D01*
X021931Y034863D01*
X021903Y034853D01*
X021873Y034847D01*
X021843Y034845D01*
X021813Y034847D01*
X021783Y034853D01*
X021755Y034863D01*
X021728Y034876D01*
X021703Y034893D01*
X021680Y034912D01*
X021661Y034935D01*
X021644Y034960D01*
X021631Y034987D01*
X021621Y035015D01*
X021615Y035045D01*
X021613Y035075D01*
X022613Y035075D02*
X022615Y035105D01*
X022621Y035135D01*
X022631Y035163D01*
X022644Y035190D01*
X022661Y035215D01*
X022680Y035238D01*
X022703Y035257D01*
X022728Y035274D01*
X022755Y035287D01*
X022783Y035297D01*
X022813Y035303D01*
X022843Y035305D01*
X022873Y035303D01*
X022903Y035297D01*
X022931Y035287D01*
X022958Y035274D01*
X022983Y035257D01*
X023006Y035238D01*
X023025Y035215D01*
X023042Y035190D01*
X023055Y035163D01*
X023065Y035135D01*
X023071Y035105D01*
X023073Y035075D01*
X023071Y035045D01*
X023065Y035015D01*
X023055Y034987D01*
X023042Y034960D01*
X023025Y034935D01*
X023006Y034912D01*
X022983Y034893D01*
X022958Y034876D01*
X022931Y034863D01*
X022903Y034853D01*
X022873Y034847D01*
X022843Y034845D01*
X022813Y034847D01*
X022783Y034853D01*
X022755Y034863D01*
X022728Y034876D01*
X022703Y034893D01*
X022680Y034912D01*
X022661Y034935D01*
X022644Y034960D01*
X022631Y034987D01*
X022621Y035015D01*
X022615Y035045D01*
X022613Y035075D01*
X029857Y031982D02*
X029859Y032032D01*
X029865Y032082D01*
X029875Y032132D01*
X029888Y032180D01*
X029905Y032228D01*
X029926Y032274D01*
X029950Y032318D01*
X029978Y032360D01*
X030009Y032400D01*
X030043Y032437D01*
X030080Y032472D01*
X030119Y032503D01*
X030160Y032532D01*
X030204Y032557D01*
X030250Y032579D01*
X030297Y032597D01*
X030345Y032611D01*
X030394Y032622D01*
X030444Y032629D01*
X030494Y032632D01*
X030545Y032631D01*
X030595Y032626D01*
X030645Y032617D01*
X030693Y032605D01*
X030741Y032588D01*
X030787Y032568D01*
X030832Y032545D01*
X030875Y032518D01*
X030915Y032488D01*
X030953Y032455D01*
X030988Y032419D01*
X031021Y032380D01*
X031050Y032339D01*
X031076Y032296D01*
X031099Y032251D01*
X031118Y032204D01*
X031133Y032156D01*
X031145Y032107D01*
X031153Y032057D01*
X031157Y032007D01*
X031157Y031957D01*
X031153Y031907D01*
X031145Y031857D01*
X031133Y031808D01*
X031118Y031760D01*
X031099Y031713D01*
X031076Y031668D01*
X031050Y031625D01*
X031021Y031584D01*
X030988Y031545D01*
X030953Y031509D01*
X030915Y031476D01*
X030875Y031446D01*
X030832Y031419D01*
X030787Y031396D01*
X030741Y031376D01*
X030693Y031359D01*
X030645Y031347D01*
X030595Y031338D01*
X030545Y031333D01*
X030494Y031332D01*
X030444Y031335D01*
X030394Y031342D01*
X030345Y031353D01*
X030297Y031367D01*
X030250Y031385D01*
X030204Y031407D01*
X030160Y031432D01*
X030119Y031461D01*
X030080Y031492D01*
X030043Y031527D01*
X030009Y031564D01*
X029978Y031604D01*
X029950Y031646D01*
X029926Y031690D01*
X029905Y031736D01*
X029888Y031784D01*
X029875Y031832D01*
X029865Y031882D01*
X029859Y031932D01*
X029857Y031982D01*
X042393Y008975D02*
X042395Y009025D01*
X042401Y009075D01*
X042411Y009125D01*
X042424Y009173D01*
X042441Y009221D01*
X042462Y009267D01*
X042486Y009311D01*
X042514Y009353D01*
X042545Y009393D01*
X042579Y009430D01*
X042616Y009465D01*
X042655Y009496D01*
X042696Y009525D01*
X042740Y009550D01*
X042786Y009572D01*
X042833Y009590D01*
X042881Y009604D01*
X042930Y009615D01*
X042980Y009622D01*
X043030Y009625D01*
X043081Y009624D01*
X043131Y009619D01*
X043181Y009610D01*
X043229Y009598D01*
X043277Y009581D01*
X043323Y009561D01*
X043368Y009538D01*
X043411Y009511D01*
X043451Y009481D01*
X043489Y009448D01*
X043524Y009412D01*
X043557Y009373D01*
X043586Y009332D01*
X043612Y009289D01*
X043635Y009244D01*
X043654Y009197D01*
X043669Y009149D01*
X043681Y009100D01*
X043689Y009050D01*
X043693Y009000D01*
X043693Y008950D01*
X043689Y008900D01*
X043681Y008850D01*
X043669Y008801D01*
X043654Y008753D01*
X043635Y008706D01*
X043612Y008661D01*
X043586Y008618D01*
X043557Y008577D01*
X043524Y008538D01*
X043489Y008502D01*
X043451Y008469D01*
X043411Y008439D01*
X043368Y008412D01*
X043323Y008389D01*
X043277Y008369D01*
X043229Y008352D01*
X043181Y008340D01*
X043131Y008331D01*
X043081Y008326D01*
X043030Y008325D01*
X042980Y008328D01*
X042930Y008335D01*
X042881Y008346D01*
X042833Y008360D01*
X042786Y008378D01*
X042740Y008400D01*
X042696Y008425D01*
X042655Y008454D01*
X042616Y008485D01*
X042579Y008520D01*
X042545Y008557D01*
X042514Y008597D01*
X042486Y008639D01*
X042462Y008683D01*
X042441Y008729D01*
X042424Y008777D01*
X042411Y008825D01*
X042401Y008875D01*
X042395Y008925D01*
X042393Y008975D01*
X043578Y006425D02*
X043580Y006451D01*
X043586Y006477D01*
X043596Y006502D01*
X043609Y006525D01*
X043625Y006545D01*
X043645Y006563D01*
X043667Y006578D01*
X043690Y006590D01*
X043716Y006598D01*
X043742Y006602D01*
X043768Y006602D01*
X043794Y006598D01*
X043820Y006590D01*
X043844Y006578D01*
X043865Y006563D01*
X043885Y006545D01*
X043901Y006525D01*
X043914Y006502D01*
X043924Y006477D01*
X043930Y006451D01*
X043932Y006425D01*
X043930Y006399D01*
X043924Y006373D01*
X043914Y006348D01*
X043901Y006325D01*
X043885Y006305D01*
X043865Y006287D01*
X043843Y006272D01*
X043820Y006260D01*
X043794Y006252D01*
X043768Y006248D01*
X043742Y006248D01*
X043716Y006252D01*
X043690Y006260D01*
X043666Y006272D01*
X043645Y006287D01*
X043625Y006305D01*
X043609Y006325D01*
X043596Y006348D01*
X043586Y006373D01*
X043580Y006399D01*
X043578Y006425D01*
X046255Y006425D02*
X046257Y006451D01*
X046263Y006477D01*
X046273Y006502D01*
X046286Y006525D01*
X046302Y006545D01*
X046322Y006563D01*
X046344Y006578D01*
X046367Y006590D01*
X046393Y006598D01*
X046419Y006602D01*
X046445Y006602D01*
X046471Y006598D01*
X046497Y006590D01*
X046521Y006578D01*
X046542Y006563D01*
X046562Y006545D01*
X046578Y006525D01*
X046591Y006502D01*
X046601Y006477D01*
X046607Y006451D01*
X046609Y006425D01*
X046607Y006399D01*
X046601Y006373D01*
X046591Y006348D01*
X046578Y006325D01*
X046562Y006305D01*
X046542Y006287D01*
X046520Y006272D01*
X046497Y006260D01*
X046471Y006252D01*
X046445Y006248D01*
X046419Y006248D01*
X046393Y006252D01*
X046367Y006260D01*
X046343Y006272D01*
X046322Y006287D01*
X046302Y006305D01*
X046286Y006325D01*
X046273Y006348D01*
X046263Y006373D01*
X046257Y006399D01*
X046255Y006425D01*
X049755Y006906D02*
X049757Y006941D01*
X049763Y006976D01*
X049773Y007010D01*
X049786Y007043D01*
X049803Y007074D01*
X049824Y007102D01*
X049847Y007129D01*
X049874Y007152D01*
X049902Y007173D01*
X049933Y007190D01*
X049966Y007203D01*
X050000Y007213D01*
X050035Y007219D01*
X050070Y007221D01*
X050105Y007219D01*
X050140Y007213D01*
X050174Y007203D01*
X050207Y007190D01*
X050238Y007173D01*
X050266Y007152D01*
X050293Y007129D01*
X050316Y007102D01*
X050337Y007074D01*
X050354Y007043D01*
X050367Y007010D01*
X050377Y006976D01*
X050383Y006941D01*
X050385Y006906D01*
X050383Y006871D01*
X050377Y006836D01*
X050367Y006802D01*
X050354Y006769D01*
X050337Y006738D01*
X050316Y006710D01*
X050293Y006683D01*
X050266Y006660D01*
X050238Y006639D01*
X050207Y006622D01*
X050174Y006609D01*
X050140Y006599D01*
X050105Y006593D01*
X050070Y006591D01*
X050035Y006593D01*
X050000Y006599D01*
X049966Y006609D01*
X049933Y006622D01*
X049902Y006639D01*
X049874Y006660D01*
X049847Y006683D01*
X049824Y006710D01*
X049803Y006738D01*
X049786Y006769D01*
X049773Y006802D01*
X049763Y006836D01*
X049757Y006871D01*
X049755Y006906D01*
M02*
