G75*
%MOIN*%
%OFA0B0*%
%FSLAX24Y24*%
%IPPOS*%
%LPD*%
%AMOC8*
5,1,8,0,0,1.08239X$1,22.5*
%
%ADD10OC8,0.0660*%
%ADD11OC8,0.0700*%
%ADD12R,0.0700X0.0700*%
%ADD13R,0.0472X0.0984*%
%ADD14OC8,0.1210*%
%ADD15OC8,0.0531*%
%ADD16OC8,0.1095*%
%ADD17OC8,0.1620*%
%ADD18OC8,0.1325*%
%ADD19OC8,0.1424*%
%ADD20C,0.0270*%
%ADD21C,0.0120*%
%ADD22C,0.0472*%
%ADD23C,0.0320*%
%ADD24C,0.0376*%
%ADD25C,0.0100*%
%ADD26C,0.0531*%
%ADD27OC8,0.1181*%
%ADD28C,0.0945*%
%ADD29C,0.0070*%
%ADD30OC8,0.1502*%
%ADD31C,0.1000*%
%ADD32C,0.0416*%
%ADD33C,0.0400*%
%ADD34C,0.0337*%
%ADD35C,0.0560*%
%ADD36C,0.0240*%
D10*
X010041Y013125D03*
X010041Y014125D03*
X010041Y015125D03*
X010041Y016125D03*
X010041Y017125D03*
X010041Y018125D03*
X010041Y019125D03*
X010041Y020125D03*
X010041Y021125D03*
X010041Y022125D03*
X010041Y023725D03*
X010041Y024725D03*
X010041Y025725D03*
X010041Y026725D03*
X010041Y027725D03*
X010041Y028725D03*
X010041Y029725D03*
X010041Y030725D03*
X029041Y030725D03*
X029041Y029725D03*
X029041Y028725D03*
X029041Y027725D03*
X029041Y026725D03*
X029041Y025725D03*
X029041Y023725D03*
X029041Y022725D03*
X029041Y021725D03*
X029041Y020725D03*
X029041Y019725D03*
X029041Y018725D03*
X029041Y017725D03*
X029041Y016725D03*
X027743Y010175D03*
X026743Y010175D03*
X025743Y010175D03*
X024743Y010175D03*
X023743Y010175D03*
X023743Y009175D03*
X024743Y009175D03*
X025743Y009175D03*
X026743Y009175D03*
X027743Y009175D03*
X052282Y026648D03*
X052282Y027648D03*
X052282Y028648D03*
X052282Y029648D03*
X053282Y029648D03*
X053282Y028648D03*
X053282Y027648D03*
X053282Y026648D03*
D11*
X020041Y030775D03*
X020041Y031775D03*
X019041Y031775D03*
X019041Y030775D03*
X018041Y031775D03*
D12*
X018041Y030775D03*
D13*
X045809Y007508D03*
X046793Y007508D03*
X047778Y007508D03*
D14*
X010231Y008735D03*
X014256Y008735D03*
X016431Y008735D03*
X020456Y008735D03*
X032081Y034165D03*
X036106Y034165D03*
X038281Y034165D03*
X042306Y034165D03*
X044481Y034165D03*
X048506Y034165D03*
X050681Y034165D03*
X054706Y034165D03*
D15*
X021543Y035325D03*
X020543Y035325D03*
X019543Y035325D03*
D16*
X012823Y031225D03*
X010973Y031225D03*
X009123Y031225D03*
X009973Y036225D03*
X011973Y036225D03*
X033293Y012725D03*
X033293Y006725D03*
X040793Y006725D03*
X040793Y012725D03*
D17*
X051770Y010449D03*
D18*
X051770Y008087D03*
D19*
X053541Y007695D03*
X049998Y007695D03*
D20*
X046793Y008375D03*
X045843Y008375D03*
X045793Y014625D03*
X045293Y014625D03*
X044793Y014625D03*
X044293Y014625D03*
X043793Y014625D03*
X043793Y015125D03*
X043793Y015625D03*
X043793Y016125D03*
X043793Y016625D03*
X043793Y017125D03*
X043793Y017625D03*
X043793Y018125D03*
X044293Y018125D03*
X044293Y017625D03*
X044293Y017125D03*
X044293Y016625D03*
X044293Y016125D03*
X044293Y015625D03*
X044293Y015125D03*
X044793Y015125D03*
X044793Y015625D03*
X044793Y016125D03*
X044793Y016625D03*
X044793Y017125D03*
X044793Y017625D03*
X044793Y018125D03*
X044793Y018625D03*
X044293Y018625D03*
X044293Y019125D03*
X044293Y019625D03*
X044793Y019625D03*
X044793Y019125D03*
X045293Y019125D03*
X045293Y018625D03*
X045293Y018125D03*
X045293Y017625D03*
X045293Y017125D03*
X045293Y016625D03*
X045293Y016125D03*
X045293Y015625D03*
X045293Y015125D03*
X045793Y015125D03*
X045793Y015625D03*
X045793Y016125D03*
X045793Y016625D03*
X045793Y017125D03*
X045793Y017625D03*
X045793Y018125D03*
X045793Y018625D03*
X045793Y019125D03*
X045793Y019625D03*
X045293Y019625D03*
X045293Y020125D03*
X044793Y020125D03*
X045793Y020125D03*
X046293Y020125D03*
X046293Y019625D03*
X046293Y019125D03*
X046293Y018625D03*
X046293Y018125D03*
X046293Y017625D03*
X046293Y017125D03*
X046293Y016625D03*
X046293Y016125D03*
X046293Y015625D03*
X046293Y015125D03*
X046293Y014625D03*
X046793Y014625D03*
X046793Y015125D03*
X046793Y015625D03*
X046793Y016125D03*
X046793Y016625D03*
X046793Y017125D03*
X046793Y017625D03*
X046793Y018125D03*
X046793Y018625D03*
X046793Y019125D03*
X046793Y019625D03*
X046793Y020125D03*
X046793Y020625D03*
X046293Y020625D03*
X046293Y021125D03*
X046793Y021125D03*
X046793Y021625D03*
X047293Y021625D03*
X047293Y021125D03*
X047293Y020625D03*
X047293Y020125D03*
X047293Y019625D03*
X047293Y019125D03*
X047293Y018625D03*
X047293Y018125D03*
X047293Y017625D03*
X047293Y017125D03*
X047293Y016625D03*
X047293Y016125D03*
X047293Y015625D03*
X047293Y015125D03*
X047293Y014625D03*
X047793Y014625D03*
X047793Y015125D03*
X047793Y015625D03*
X047793Y016125D03*
X047793Y016625D03*
X047793Y017125D03*
X047793Y017625D03*
X047793Y018125D03*
X047793Y018625D03*
X047793Y019125D03*
X047793Y019625D03*
X047793Y020125D03*
X047793Y020625D03*
X047793Y021125D03*
X047793Y021625D03*
X047793Y022125D03*
X047293Y022125D03*
X048293Y022125D03*
X048293Y021625D03*
X048293Y021125D03*
X048293Y020625D03*
X048293Y020125D03*
X048293Y019625D03*
X048293Y019125D03*
X048293Y018625D03*
X048293Y018125D03*
X048293Y017625D03*
X048293Y017125D03*
X048293Y016625D03*
X048293Y016125D03*
X048293Y015625D03*
X048293Y015125D03*
X048293Y014625D03*
X048793Y014625D03*
X048793Y015125D03*
X048793Y015625D03*
X048793Y016125D03*
X048793Y016625D03*
X048793Y017125D03*
X048793Y017625D03*
X048793Y018125D03*
X048793Y018625D03*
X048793Y019125D03*
X048793Y019625D03*
X048793Y020125D03*
X048793Y020625D03*
X048793Y021125D03*
X048793Y021625D03*
X048793Y022125D03*
X049293Y022125D03*
X049293Y021625D03*
X049293Y021125D03*
X049293Y020625D03*
X049293Y020125D03*
X049293Y019625D03*
X049293Y019125D03*
X049293Y018625D03*
X049293Y018125D03*
X049293Y017625D03*
X049293Y017125D03*
X049293Y016625D03*
X049293Y016125D03*
X049293Y015625D03*
X049293Y015125D03*
X049293Y014625D03*
X049793Y014625D03*
X049793Y015125D03*
X049793Y015625D03*
X049793Y016125D03*
X049793Y016625D03*
X049793Y017125D03*
X049793Y017625D03*
X049793Y018125D03*
X049793Y018625D03*
X049793Y019125D03*
X049793Y019625D03*
X049793Y020125D03*
X049793Y020625D03*
X049793Y021125D03*
X049793Y021625D03*
X049793Y022125D03*
X050293Y022125D03*
X050293Y021625D03*
X050293Y021125D03*
X050293Y020625D03*
X050293Y020125D03*
X050293Y019625D03*
X050293Y019125D03*
X050293Y018625D03*
X050293Y018125D03*
X050293Y017625D03*
X050293Y017125D03*
X050293Y016625D03*
X050293Y016125D03*
X050293Y015625D03*
X050293Y015125D03*
X050293Y014625D03*
X050793Y014625D03*
X050793Y015125D03*
X050793Y015625D03*
X050793Y016125D03*
X050793Y016625D03*
X050793Y017125D03*
X050793Y017625D03*
X050793Y018125D03*
X050793Y018625D03*
X050793Y019125D03*
X050793Y019625D03*
X050793Y020125D03*
X050793Y020625D03*
X050793Y021125D03*
X050793Y021625D03*
X050793Y022125D03*
X051293Y022125D03*
X051293Y021625D03*
X051293Y021125D03*
X051293Y020625D03*
X051293Y020125D03*
X051293Y019625D03*
X051293Y019125D03*
X051293Y018625D03*
X051293Y018125D03*
X051293Y017625D03*
X051293Y017125D03*
X051293Y016625D03*
X051293Y016125D03*
X051293Y015625D03*
X051293Y015125D03*
X051293Y014625D03*
X044743Y021075D03*
X044793Y021575D03*
X045243Y021575D03*
X044293Y021875D03*
X043993Y022225D03*
X042543Y022525D03*
X042543Y023325D03*
X043993Y023625D03*
X044093Y024025D03*
X044793Y024925D03*
X045693Y024775D03*
X045793Y023875D03*
X047193Y023875D03*
X047893Y024775D03*
X044793Y026475D03*
X044293Y026475D03*
X043793Y026475D03*
X043293Y026475D03*
X042793Y026475D03*
X042293Y026475D03*
X041793Y026475D03*
X041793Y026975D03*
X041793Y027475D03*
X041793Y027975D03*
X041793Y028475D03*
X041793Y028975D03*
X041793Y029475D03*
X041793Y029975D03*
X042293Y029975D03*
X042293Y029475D03*
X042293Y028975D03*
X042293Y028475D03*
X042293Y027975D03*
X042293Y027475D03*
X042293Y026975D03*
X042793Y026975D03*
X042793Y027475D03*
X042793Y027975D03*
X042793Y028475D03*
X042793Y028975D03*
X042793Y029475D03*
X042793Y029975D03*
X043293Y029975D03*
X043293Y029475D03*
X043293Y028975D03*
X043293Y028475D03*
X043293Y027975D03*
X043293Y027475D03*
X043293Y026975D03*
X043793Y026975D03*
X043793Y027475D03*
X043793Y027975D03*
X043793Y028475D03*
X043793Y028975D03*
X043793Y029475D03*
X043793Y029975D03*
X044293Y029975D03*
X044293Y029475D03*
X044293Y028975D03*
X044293Y028475D03*
X044293Y027975D03*
X044293Y027475D03*
X044293Y026975D03*
X044793Y026975D03*
X044793Y027475D03*
X044793Y027975D03*
X044793Y028475D03*
X044793Y028975D03*
X044793Y029475D03*
X044793Y029975D03*
X044593Y031025D03*
X038793Y029575D03*
X037443Y029025D03*
X037343Y030775D03*
X038393Y032325D03*
X035093Y031175D03*
X033743Y030075D03*
X033343Y030325D03*
X032693Y029475D03*
X034643Y029375D03*
X035093Y028275D03*
X031943Y026125D03*
X032243Y024025D03*
X031693Y023575D03*
X031693Y022775D03*
X032193Y022325D03*
X033043Y022325D03*
X033343Y021475D03*
X032943Y020825D03*
X034943Y020175D03*
X035593Y021425D03*
X037393Y023825D03*
X038193Y024025D03*
X038193Y023175D03*
X038693Y022825D03*
X038743Y021725D03*
X039443Y021525D03*
X040143Y021525D03*
X039843Y020725D03*
X040143Y018475D03*
X039743Y018425D03*
X038843Y018325D03*
X038293Y018775D03*
X037493Y018675D03*
X038843Y017525D03*
X038293Y017075D03*
X038393Y016725D03*
X038943Y016325D03*
X038943Y015425D03*
X038393Y015025D03*
X037593Y015125D03*
X037593Y016625D03*
X037493Y017175D03*
X034943Y017225D03*
X034393Y017425D03*
X040793Y018475D03*
X042543Y021125D03*
X043593Y020375D03*
X039843Y023425D03*
X038743Y025375D03*
X035593Y024375D03*
X033043Y023825D03*
X025893Y028275D03*
X023993Y029025D03*
X020393Y029325D03*
X020393Y030025D03*
X019443Y029025D03*
X018143Y028725D03*
X018143Y027875D03*
X018693Y027425D03*
X019393Y027425D03*
X022201Y032825D03*
X023293Y035875D03*
X023293Y036425D03*
X019793Y036875D03*
X016343Y036425D03*
X015993Y036125D03*
X013943Y035875D03*
X013943Y036425D03*
X028843Y032875D03*
X030793Y036875D03*
X012093Y018125D03*
X013443Y017225D03*
X013443Y015725D03*
X011793Y015725D03*
X011693Y014125D03*
X011693Y013075D03*
X017293Y009875D03*
X022943Y016925D03*
X022943Y017325D03*
X022943Y017725D03*
X023343Y017725D03*
X023343Y017325D03*
X023343Y016925D03*
D21*
X032693Y021075D02*
X032943Y020825D01*
X032693Y021075D02*
X032693Y029475D01*
X033343Y030325D02*
X033343Y021475D01*
X039743Y020625D02*
X039743Y018425D01*
X039743Y020625D02*
X039843Y020725D01*
X045443Y023275D02*
X045793Y022925D01*
X046143Y022925D01*
X038393Y032325D02*
X037593Y033125D01*
X031493Y033125D01*
X030293Y034325D01*
X030293Y035725D01*
X029793Y036225D01*
X023493Y036225D01*
X023293Y036425D01*
X019793Y036875D02*
X030793Y036875D01*
X023993Y031032D02*
X023993Y029025D01*
X022293Y030325D02*
X022293Y032125D01*
X019493Y034925D01*
X019493Y035275D01*
X019543Y035325D01*
X022201Y032825D02*
X023993Y031032D01*
X015993Y036125D02*
X015993Y036425D01*
X015493Y036925D01*
X007893Y036925D01*
X007493Y036525D01*
X007493Y029325D01*
X008093Y028725D01*
X010041Y028725D01*
X045809Y008375D02*
X045809Y007508D01*
X045843Y008375D02*
X045809Y008375D01*
X046793Y008375D02*
X046793Y007508D01*
D22*
X032643Y015375D03*
X031443Y018925D03*
X029943Y019775D03*
X020143Y011425D03*
X018443Y015975D03*
D23*
X018493Y016525D02*
X017293Y017725D01*
X012093Y017725D01*
X011793Y017425D01*
X018493Y016525D02*
X024893Y016525D01*
X026093Y017725D01*
X029041Y017725D01*
X029943Y017475D02*
X032043Y015375D01*
X032643Y015375D01*
X029943Y017475D02*
X029943Y019775D01*
X031443Y018925D02*
X032593Y018925D01*
X033593Y019925D01*
X033593Y021025D01*
X025343Y010925D02*
X020643Y010925D01*
X020143Y011425D01*
X025343Y010925D02*
X025743Y010525D01*
X025743Y010175D01*
D24*
X016493Y015125D03*
X016393Y011825D03*
X011793Y017425D03*
X021643Y027775D03*
X035893Y011025D03*
X035893Y010575D03*
X035893Y010125D03*
X035893Y009675D03*
X036343Y009675D03*
X036793Y009675D03*
X037243Y009675D03*
X037693Y009675D03*
X038143Y009675D03*
X038143Y010125D03*
X038143Y010575D03*
X038143Y011025D03*
D25*
X040096Y012436D02*
X040504Y012028D01*
X041082Y012028D01*
X041491Y012436D01*
X041491Y013014D01*
X041082Y013422D01*
X040504Y013422D01*
X040096Y013014D01*
X033991Y013014D01*
X033582Y013422D01*
X033004Y013422D01*
X032596Y013014D01*
X015393Y013014D01*
X015393Y012916D02*
X032596Y012916D01*
X032596Y013014D02*
X032596Y012436D01*
X033004Y012028D01*
X033582Y012028D01*
X033991Y012436D01*
X033991Y013014D01*
X033991Y012916D02*
X040096Y012916D01*
X040096Y013014D02*
X040096Y012436D01*
X040109Y012423D02*
X033978Y012423D01*
X033991Y012522D02*
X040096Y012522D01*
X040096Y012620D02*
X033991Y012620D01*
X033991Y012719D02*
X040096Y012719D01*
X040096Y012817D02*
X033991Y012817D01*
X033892Y013113D02*
X040194Y013113D01*
X040293Y013211D02*
X033794Y013211D01*
X033695Y013310D02*
X040391Y013310D01*
X040490Y013408D02*
X033597Y013408D01*
X032990Y013408D02*
X015393Y013408D01*
X015393Y013310D02*
X032891Y013310D01*
X032793Y013211D02*
X015393Y013211D01*
X015393Y013113D02*
X032694Y013113D01*
X032596Y012817D02*
X015393Y012817D01*
X015393Y012719D02*
X032596Y012719D01*
X032596Y012620D02*
X015393Y012620D01*
X015393Y012522D02*
X032596Y012522D01*
X032609Y012423D02*
X015393Y012423D01*
X015393Y012325D02*
X032707Y012325D01*
X032806Y012226D02*
X015393Y012226D01*
X015393Y012128D02*
X032904Y012128D01*
X033003Y012029D02*
X015393Y012029D01*
X015393Y011931D02*
X055993Y011931D01*
X055993Y012029D02*
X049822Y012029D01*
X049817Y012024D02*
X050344Y012552D01*
X050344Y013298D01*
X049817Y013826D01*
X049070Y013826D01*
X048542Y013298D01*
X048542Y012552D01*
X049070Y012024D01*
X049817Y012024D01*
X049920Y012128D02*
X055993Y012128D01*
X055993Y012226D02*
X050019Y012226D01*
X050117Y012325D02*
X055993Y012325D01*
X055993Y012423D02*
X050216Y012423D01*
X050314Y012522D02*
X055993Y012522D01*
X055993Y012620D02*
X050344Y012620D01*
X050344Y012719D02*
X055993Y012719D01*
X055993Y012817D02*
X050344Y012817D01*
X050344Y012916D02*
X055993Y012916D01*
X055993Y013014D02*
X050344Y013014D01*
X050344Y013113D02*
X055993Y013113D01*
X055993Y013211D02*
X050344Y013211D01*
X050333Y013310D02*
X055993Y013310D01*
X055993Y013408D02*
X050235Y013408D01*
X050136Y013507D02*
X055993Y013507D01*
X055993Y013605D02*
X050038Y013605D01*
X049939Y013704D02*
X055993Y013704D01*
X055993Y013802D02*
X049841Y013802D01*
X049046Y013802D02*
X046391Y013802D01*
X046367Y013826D02*
X046894Y013298D01*
X046894Y012552D01*
X046367Y012024D01*
X045620Y012024D01*
X045092Y012552D01*
X045092Y013298D01*
X045620Y013826D01*
X046367Y013826D01*
X046489Y013704D02*
X048947Y013704D01*
X048849Y013605D02*
X046588Y013605D01*
X046686Y013507D02*
X048750Y013507D01*
X048652Y013408D02*
X046785Y013408D01*
X046883Y013310D02*
X048553Y013310D01*
X048542Y013211D02*
X046894Y013211D01*
X046894Y013113D02*
X048542Y013113D01*
X048542Y013014D02*
X046894Y013014D01*
X046894Y012916D02*
X048542Y012916D01*
X048542Y012817D02*
X046894Y012817D01*
X046894Y012719D02*
X048542Y012719D01*
X048542Y012620D02*
X046894Y012620D01*
X046864Y012522D02*
X048572Y012522D01*
X048671Y012423D02*
X046766Y012423D01*
X046667Y012325D02*
X048769Y012325D01*
X048868Y012226D02*
X046569Y012226D01*
X046470Y012128D02*
X048966Y012128D01*
X049065Y012029D02*
X046372Y012029D01*
X045615Y012029D02*
X041084Y012029D01*
X041182Y012128D02*
X045516Y012128D01*
X045418Y012226D02*
X041281Y012226D01*
X041379Y012325D02*
X045319Y012325D01*
X045221Y012423D02*
X041478Y012423D01*
X041491Y012522D02*
X045122Y012522D01*
X045092Y012620D02*
X041491Y012620D01*
X041491Y012719D02*
X045092Y012719D01*
X045092Y012817D02*
X041491Y012817D01*
X041491Y012916D02*
X045092Y012916D01*
X045092Y013014D02*
X041491Y013014D01*
X041392Y013113D02*
X045092Y013113D01*
X045092Y013211D02*
X041294Y013211D01*
X041195Y013310D02*
X045103Y013310D01*
X045202Y013408D02*
X041097Y013408D01*
X040207Y012325D02*
X033879Y012325D01*
X033781Y012226D02*
X040306Y012226D01*
X040404Y012128D02*
X033682Y012128D01*
X033584Y012029D02*
X040503Y012029D01*
X038555Y014783D02*
X038450Y014740D01*
X038337Y014740D01*
X038232Y014783D01*
X038152Y014864D01*
X038108Y014968D01*
X038108Y015082D01*
X038152Y015186D01*
X038232Y015267D01*
X038337Y015310D01*
X038450Y015310D01*
X038555Y015267D01*
X038635Y015186D01*
X038678Y015082D01*
X038678Y014968D01*
X038635Y014864D01*
X038555Y014783D01*
X038558Y014787D02*
X051493Y014787D01*
X051493Y014689D02*
X033493Y014689D01*
X033493Y014787D02*
X038228Y014787D01*
X038143Y014886D02*
X037757Y014886D01*
X037755Y014883D02*
X037835Y014964D01*
X037878Y015068D01*
X037878Y015182D01*
X037835Y015286D01*
X037755Y015367D01*
X037650Y015410D01*
X037537Y015410D01*
X037432Y015367D01*
X037352Y015286D01*
X037308Y015182D01*
X037308Y015068D01*
X037352Y014964D01*
X037432Y014883D01*
X037537Y014840D01*
X037650Y014840D01*
X037755Y014883D01*
X037843Y014984D02*
X038108Y014984D01*
X038109Y015083D02*
X037878Y015083D01*
X037878Y015181D02*
X038149Y015181D01*
X038263Y015280D02*
X037838Y015280D01*
X037727Y015378D02*
X038658Y015378D01*
X038658Y015368D02*
X038702Y015264D01*
X038782Y015183D01*
X038887Y015140D01*
X039000Y015140D01*
X039105Y015183D01*
X039185Y015264D01*
X039228Y015368D01*
X039228Y015482D01*
X039185Y015586D01*
X039105Y015667D01*
X039000Y015710D01*
X038887Y015710D01*
X038782Y015667D01*
X038702Y015586D01*
X038658Y015482D01*
X038658Y015368D01*
X038695Y015280D02*
X038524Y015280D01*
X038637Y015181D02*
X038788Y015181D01*
X038678Y015083D02*
X051493Y015083D01*
X051493Y015181D02*
X039099Y015181D01*
X039192Y015280D02*
X051493Y015280D01*
X051493Y015378D02*
X039228Y015378D01*
X039228Y015477D02*
X051493Y015477D01*
X051493Y015575D02*
X039190Y015575D01*
X039088Y015674D02*
X051493Y015674D01*
X051493Y015772D02*
X033493Y015772D01*
X033493Y015674D02*
X038799Y015674D01*
X038697Y015575D02*
X033493Y015575D01*
X033493Y015477D02*
X038658Y015477D01*
X038678Y014984D02*
X051493Y014984D01*
X051493Y014886D02*
X038644Y014886D01*
X037430Y014886D02*
X033493Y014886D01*
X033493Y014984D02*
X037343Y014984D01*
X037308Y015083D02*
X033493Y015083D01*
X033493Y015181D02*
X037308Y015181D01*
X037349Y015280D02*
X033493Y015280D01*
X033493Y015378D02*
X037459Y015378D01*
X037437Y016890D02*
X037332Y016933D01*
X037252Y017014D01*
X037208Y017118D01*
X037208Y017232D01*
X037252Y017336D01*
X037332Y017417D01*
X037437Y017460D01*
X037550Y017460D01*
X037655Y017417D01*
X037735Y017336D01*
X037778Y017232D01*
X037778Y017118D01*
X037735Y017014D01*
X037655Y016933D01*
X037550Y016890D01*
X037437Y016890D01*
X037311Y016954D02*
X035034Y016954D01*
X035000Y016940D02*
X035105Y016983D01*
X035185Y017064D01*
X035228Y017168D01*
X035228Y017282D01*
X035185Y017386D01*
X035105Y017467D01*
X035000Y017510D01*
X034887Y017510D01*
X034782Y017467D01*
X034702Y017386D01*
X034658Y017282D01*
X034658Y017168D01*
X034702Y017064D01*
X034782Y016983D01*
X034887Y016940D01*
X035000Y016940D01*
X034853Y016954D02*
X033493Y016954D01*
X033493Y016856D02*
X038110Y016856D01*
X038132Y016833D02*
X038237Y016790D01*
X038350Y016790D01*
X038455Y016833D01*
X038535Y016914D01*
X038578Y017018D01*
X038578Y017132D01*
X038535Y017236D01*
X038455Y017317D01*
X038350Y017360D01*
X038237Y017360D01*
X038132Y017317D01*
X038052Y017236D01*
X038008Y017132D01*
X038008Y017018D01*
X038052Y016914D01*
X038132Y016833D01*
X038035Y016954D02*
X037675Y016954D01*
X037751Y017053D02*
X038008Y017053D01*
X038016Y017151D02*
X037778Y017151D01*
X037771Y017250D02*
X038065Y017250D01*
X038208Y017348D02*
X037723Y017348D01*
X037583Y017447D02*
X038567Y017447D01*
X038558Y017468D02*
X038602Y017364D01*
X038682Y017283D01*
X038787Y017240D01*
X038900Y017240D01*
X039005Y017283D01*
X039085Y017364D01*
X039128Y017468D01*
X039128Y017582D01*
X039085Y017686D01*
X039005Y017767D01*
X038900Y017810D01*
X038787Y017810D01*
X038682Y017767D01*
X038602Y017686D01*
X038558Y017582D01*
X038558Y017468D01*
X038558Y017545D02*
X034652Y017545D01*
X034635Y017586D02*
X034555Y017667D01*
X034450Y017710D01*
X034337Y017710D01*
X034232Y017667D01*
X034152Y017586D01*
X034108Y017482D01*
X034108Y017368D01*
X034152Y017264D01*
X034232Y017183D01*
X034337Y017140D01*
X034450Y017140D01*
X034555Y017183D01*
X034635Y017264D01*
X034678Y017368D01*
X034678Y017482D01*
X034635Y017586D01*
X034578Y017644D02*
X038584Y017644D01*
X038657Y017742D02*
X033493Y017742D01*
X033493Y017644D02*
X034209Y017644D01*
X034135Y017545D02*
X033493Y017545D01*
X033493Y017447D02*
X034108Y017447D01*
X034117Y017348D02*
X033493Y017348D01*
X033493Y017250D02*
X034166Y017250D01*
X034310Y017151D02*
X033493Y017151D01*
X033493Y017053D02*
X034713Y017053D01*
X034665Y017151D02*
X034477Y017151D01*
X034621Y017250D02*
X034658Y017250D01*
X034670Y017348D02*
X034686Y017348D01*
X034678Y017447D02*
X034762Y017447D01*
X035125Y017447D02*
X037404Y017447D01*
X037263Y017348D02*
X035201Y017348D01*
X035228Y017250D02*
X037216Y017250D01*
X037208Y017151D02*
X035221Y017151D01*
X035174Y017053D02*
X037236Y017053D01*
X038379Y017348D02*
X038617Y017348D01*
X038522Y017250D02*
X038764Y017250D01*
X038923Y017250D02*
X051493Y017250D01*
X051493Y017348D02*
X039069Y017348D01*
X039119Y017447D02*
X051493Y017447D01*
X051493Y017545D02*
X039128Y017545D01*
X039103Y017644D02*
X051493Y017644D01*
X051493Y017742D02*
X039029Y017742D01*
X039531Y018235D02*
X033493Y018235D01*
X033493Y018333D02*
X039473Y018333D01*
X039458Y018368D02*
X039502Y018264D01*
X039582Y018183D01*
X039687Y018140D01*
X039800Y018140D01*
X039905Y018183D01*
X039968Y018247D01*
X039982Y018233D01*
X040087Y018190D01*
X040200Y018190D01*
X040305Y018233D01*
X040346Y018275D01*
X040590Y018275D01*
X040632Y018233D01*
X040737Y018190D01*
X040850Y018190D01*
X040955Y018233D01*
X040996Y018275D01*
X041076Y018275D01*
X041193Y018392D01*
X041193Y020625D01*
X043452Y020625D01*
X043432Y020617D01*
X043352Y020536D01*
X043308Y020432D01*
X043308Y020318D01*
X043352Y020214D01*
X043432Y020133D01*
X043537Y020090D01*
X043650Y020090D01*
X043755Y020133D01*
X043835Y020214D01*
X043878Y020318D01*
X043878Y020432D01*
X043835Y020536D01*
X043755Y020617D01*
X043734Y020625D01*
X045626Y020625D01*
X045743Y020742D01*
X045743Y022275D01*
X046435Y022275D01*
X046493Y022334D01*
X046493Y023516D01*
X046435Y023575D01*
X045743Y023575D01*
X045743Y023675D01*
X045744Y023757D01*
X045743Y023757D01*
X045743Y023758D01*
X045685Y023816D01*
X045627Y023875D01*
X045626Y023875D01*
X045544Y023875D01*
X044120Y023881D01*
X044050Y023910D01*
X043937Y023910D01*
X043869Y023882D01*
X038452Y023904D01*
X038478Y023968D01*
X038478Y024082D01*
X038435Y024186D01*
X038355Y024267D01*
X038250Y024310D01*
X038137Y024310D01*
X038032Y024267D01*
X037952Y024186D01*
X037908Y024082D01*
X037908Y023968D01*
X037934Y023907D01*
X037668Y023908D01*
X037635Y023986D01*
X037555Y024067D01*
X037450Y024110D01*
X037337Y024110D01*
X037232Y024067D01*
X037152Y023986D01*
X037120Y023910D01*
X033576Y023925D01*
X033553Y023925D01*
X033553Y030132D01*
X033585Y030164D01*
X033628Y030268D01*
X033628Y030382D01*
X033585Y030486D01*
X033505Y030567D01*
X033493Y030571D01*
X033493Y032475D01*
X037946Y032475D01*
X038108Y032313D01*
X038108Y032268D01*
X038152Y032164D01*
X038232Y032083D01*
X038337Y032040D01*
X038450Y032040D01*
X038555Y032083D01*
X038635Y032164D01*
X038678Y032268D01*
X038678Y032382D01*
X038640Y032475D01*
X051493Y032475D01*
X051493Y014425D01*
X033493Y014475D01*
X033493Y019387D01*
X033769Y019662D01*
X033856Y019749D01*
X033903Y019863D01*
X033903Y020625D01*
X039533Y020625D01*
X039533Y018618D01*
X039502Y018586D01*
X039458Y018482D01*
X039458Y018368D01*
X039458Y018432D02*
X033493Y018432D01*
X033493Y018530D02*
X039478Y018530D01*
X039533Y018629D02*
X033493Y018629D01*
X033493Y018727D02*
X039533Y018727D01*
X039533Y018826D02*
X033493Y018826D01*
X033493Y018924D02*
X039533Y018924D01*
X039533Y019023D02*
X033493Y019023D01*
X033493Y019121D02*
X039533Y019121D01*
X039533Y019220D02*
X033493Y019220D01*
X033493Y019318D02*
X039533Y019318D01*
X039533Y019417D02*
X033523Y019417D01*
X033622Y019515D02*
X039533Y019515D01*
X039533Y019614D02*
X033720Y019614D01*
X033819Y019712D02*
X039533Y019712D01*
X039533Y019811D02*
X033881Y019811D01*
X033903Y019909D02*
X034841Y019909D01*
X034887Y019890D02*
X035000Y019890D01*
X035105Y019933D01*
X035185Y020014D01*
X035228Y020118D01*
X035228Y020232D01*
X035185Y020336D01*
X035105Y020417D01*
X035000Y020460D01*
X034887Y020460D01*
X034782Y020417D01*
X034702Y020336D01*
X034658Y020232D01*
X034658Y020118D01*
X034702Y020014D01*
X034782Y019933D01*
X034887Y019890D01*
X035046Y019909D02*
X039533Y019909D01*
X039533Y020008D02*
X035179Y020008D01*
X035223Y020106D02*
X039533Y020106D01*
X039533Y020205D02*
X035228Y020205D01*
X035199Y020303D02*
X039533Y020303D01*
X039533Y020402D02*
X035120Y020402D01*
X034767Y020402D02*
X033903Y020402D01*
X033903Y020500D02*
X039533Y020500D01*
X039533Y020599D02*
X033903Y020599D01*
X033903Y020303D02*
X034688Y020303D01*
X034658Y020205D02*
X033903Y020205D01*
X033903Y020106D02*
X034663Y020106D01*
X034708Y020008D02*
X033903Y020008D01*
X033283Y020053D02*
X032465Y019235D01*
X031680Y019235D01*
X031662Y019252D01*
X031520Y019311D01*
X031366Y019311D01*
X031225Y019252D01*
X031116Y019144D01*
X031057Y019002D01*
X031057Y018848D01*
X031116Y018706D01*
X031225Y018598D01*
X031366Y018539D01*
X031520Y018539D01*
X031662Y018598D01*
X031680Y018615D01*
X032655Y018615D01*
X032769Y018662D01*
X033293Y019187D01*
X033293Y014475D01*
X033293Y014393D01*
X015393Y014393D01*
X015393Y014295D02*
X033391Y014295D01*
X033410Y014275D02*
X033410Y014275D01*
X033352Y014334D01*
X033293Y014392D01*
X033293Y014392D01*
X033293Y014393D01*
X033293Y014492D02*
X015393Y014492D01*
X015393Y014590D02*
X033293Y014590D01*
X033293Y014689D02*
X015393Y014689D01*
X015393Y014787D02*
X033293Y014787D01*
X033293Y014886D02*
X015393Y014886D01*
X015393Y014984D02*
X033293Y014984D01*
X033293Y015083D02*
X032897Y015083D01*
X032862Y015048D02*
X032971Y015156D01*
X033030Y015298D01*
X033030Y015452D01*
X032971Y015594D01*
X032862Y015702D01*
X032720Y015761D01*
X032566Y015761D01*
X032425Y015702D01*
X032407Y015685D01*
X032172Y015685D01*
X030253Y017603D01*
X030253Y019539D01*
X030271Y019556D01*
X030330Y019698D01*
X030330Y019852D01*
X030271Y019994D01*
X030162Y020102D01*
X030020Y020161D01*
X029866Y020161D01*
X029725Y020102D01*
X029693Y020071D01*
X029693Y024225D01*
X029493Y024425D01*
X027993Y024425D01*
X027993Y022825D01*
X026693Y022825D01*
X022793Y026625D01*
X022793Y029225D01*
X021893Y029225D01*
X021893Y032228D01*
X022083Y032038D01*
X022083Y030565D01*
X022023Y030505D01*
X021975Y030388D01*
X021975Y030262D01*
X022023Y030145D01*
X022113Y030055D01*
X022230Y030007D01*
X022357Y030007D01*
X022474Y030055D01*
X022563Y030145D01*
X022612Y030262D01*
X022612Y030388D01*
X022563Y030505D01*
X022503Y030565D01*
X022503Y032212D01*
X022175Y032540D01*
X022189Y032540D01*
X023783Y030945D01*
X023783Y029218D01*
X023752Y029186D01*
X023708Y029082D01*
X023708Y028968D01*
X023752Y028864D01*
X023832Y028783D01*
X023937Y028740D01*
X024050Y028740D01*
X024155Y028783D01*
X024235Y028864D01*
X024278Y028968D01*
X024278Y029082D01*
X024235Y029186D01*
X024203Y029218D01*
X024203Y031119D01*
X024080Y031242D01*
X022486Y032837D01*
X022486Y032882D01*
X022442Y032986D01*
X022362Y033067D01*
X022257Y033110D01*
X022144Y033110D01*
X022039Y033067D01*
X021959Y032986D01*
X021916Y032882D01*
X021916Y032800D01*
X019761Y034955D01*
X019959Y035153D01*
X019959Y035497D01*
X019716Y035741D01*
X019371Y035741D01*
X019128Y035497D01*
X019128Y035153D01*
X019283Y034997D01*
X019283Y034838D01*
X019406Y034715D01*
X021596Y032525D01*
X016993Y032525D01*
X016993Y030625D01*
X013210Y030625D01*
X013521Y030936D01*
X013521Y031514D01*
X013112Y031922D01*
X012534Y031922D01*
X012126Y031514D01*
X012126Y030936D01*
X012437Y030625D01*
X011360Y030625D01*
X011671Y030936D01*
X011671Y031514D01*
X011262Y031922D01*
X010684Y031922D01*
X010276Y031514D01*
X010276Y031425D01*
X009821Y031425D01*
X009821Y031514D01*
X009412Y031922D01*
X008834Y031922D01*
X008426Y031514D01*
X008426Y031425D01*
X007703Y031425D01*
X007703Y036438D01*
X007980Y036715D01*
X009477Y036715D01*
X009276Y036514D01*
X009276Y035936D01*
X009684Y035528D01*
X010262Y035528D01*
X010671Y035936D01*
X010671Y036514D01*
X010470Y036715D01*
X011477Y036715D01*
X011276Y036514D01*
X011276Y035936D01*
X011684Y035528D01*
X012262Y035528D01*
X012671Y035936D01*
X012671Y036514D01*
X012470Y036715D01*
X015403Y036715D01*
X015743Y036375D01*
X015743Y036266D01*
X015708Y036182D01*
X015708Y036068D01*
X015743Y035984D01*
X015743Y035925D01*
X015790Y035925D01*
X015832Y035883D01*
X015937Y035840D01*
X016050Y035840D01*
X016155Y035883D01*
X016196Y035925D01*
X017843Y035925D01*
X017843Y036975D01*
X019526Y036975D01*
X019508Y036932D01*
X019508Y036818D01*
X019552Y036714D01*
X019632Y036633D01*
X019737Y036590D01*
X019850Y036590D01*
X019955Y036633D01*
X019986Y036665D01*
X023130Y036665D01*
X023052Y036586D01*
X023008Y036482D01*
X023008Y036368D01*
X023052Y036264D01*
X023132Y036183D01*
X023212Y036150D01*
X023132Y036117D01*
X023052Y036036D01*
X023008Y035932D01*
X023008Y035818D01*
X023052Y035714D01*
X023132Y035633D01*
X023237Y035590D01*
X023350Y035590D01*
X023455Y035633D01*
X023535Y035714D01*
X023578Y035818D01*
X023578Y035932D01*
X023544Y036015D01*
X029706Y036015D01*
X030083Y035638D01*
X030083Y034238D01*
X031406Y032915D01*
X037506Y032915D01*
X037746Y032675D01*
X033410Y032675D01*
X033293Y032558D01*
X033293Y030610D01*
X033287Y030610D01*
X033182Y030567D01*
X033102Y030486D01*
X033058Y030382D01*
X033058Y030268D01*
X033102Y030164D01*
X033133Y030132D01*
X033133Y022596D01*
X033100Y022610D01*
X032987Y022610D01*
X032903Y022575D01*
X032903Y029282D01*
X032935Y029314D01*
X032978Y029418D01*
X032978Y029532D01*
X032935Y029636D01*
X032855Y029717D01*
X032750Y029760D01*
X032637Y029760D01*
X032532Y029717D01*
X032452Y029636D01*
X032408Y029532D01*
X032408Y029418D01*
X032452Y029314D01*
X032483Y029282D01*
X032483Y020988D01*
X032606Y020865D01*
X032606Y020865D01*
X032658Y020813D01*
X032658Y020768D01*
X032702Y020664D01*
X032782Y020583D01*
X032887Y020540D01*
X033000Y020540D01*
X033105Y020583D01*
X033185Y020664D01*
X033228Y020768D01*
X033228Y020882D01*
X033185Y020986D01*
X033105Y021067D01*
X033000Y021110D01*
X032955Y021110D01*
X032903Y021162D01*
X032903Y022075D01*
X032987Y022040D01*
X033100Y022040D01*
X033133Y022054D01*
X033133Y021668D01*
X033102Y021636D01*
X033058Y021532D01*
X033058Y021418D01*
X033102Y021314D01*
X033182Y021233D01*
X033287Y021190D01*
X033293Y021190D01*
X033293Y021111D01*
X033283Y021087D01*
X033283Y020053D01*
X033283Y020106D02*
X030153Y020106D01*
X030257Y020008D02*
X033237Y020008D01*
X033139Y019909D02*
X030306Y019909D01*
X030330Y019811D02*
X033040Y019811D01*
X032942Y019712D02*
X030330Y019712D01*
X030294Y019614D02*
X032843Y019614D01*
X032745Y019515D02*
X030253Y019515D01*
X030253Y019417D02*
X032646Y019417D01*
X032548Y019318D02*
X030253Y019318D01*
X030253Y019220D02*
X031192Y019220D01*
X031106Y019121D02*
X030253Y019121D01*
X030253Y019023D02*
X031066Y019023D01*
X031057Y018924D02*
X030253Y018924D01*
X030253Y018826D02*
X031066Y018826D01*
X031107Y018727D02*
X030253Y018727D01*
X030253Y018629D02*
X031194Y018629D01*
X030253Y018530D02*
X033293Y018530D01*
X033293Y018432D02*
X030253Y018432D01*
X030253Y018333D02*
X033293Y018333D01*
X033293Y018235D02*
X030253Y018235D01*
X030253Y018136D02*
X033293Y018136D01*
X033293Y018038D02*
X030253Y018038D01*
X030253Y017939D02*
X033293Y017939D01*
X033293Y017841D02*
X030253Y017841D01*
X030253Y017742D02*
X033293Y017742D01*
X033293Y017644D02*
X030253Y017644D01*
X030312Y017545D02*
X033293Y017545D01*
X033293Y017447D02*
X030410Y017447D01*
X030509Y017348D02*
X033293Y017348D01*
X033293Y017250D02*
X030607Y017250D01*
X030706Y017151D02*
X033293Y017151D01*
X033293Y017053D02*
X030804Y017053D01*
X030903Y016954D02*
X033293Y016954D01*
X033293Y016856D02*
X031001Y016856D01*
X031100Y016757D02*
X033293Y016757D01*
X033293Y016659D02*
X031198Y016659D01*
X031297Y016560D02*
X033293Y016560D01*
X033293Y016462D02*
X031395Y016462D01*
X031494Y016363D02*
X033293Y016363D01*
X033293Y016265D02*
X031592Y016265D01*
X031691Y016166D02*
X033293Y016166D01*
X033293Y016068D02*
X031789Y016068D01*
X031888Y015969D02*
X033293Y015969D01*
X033293Y015871D02*
X031986Y015871D01*
X032085Y015772D02*
X033293Y015772D01*
X033293Y015674D02*
X032891Y015674D01*
X032978Y015575D02*
X033293Y015575D01*
X033293Y015477D02*
X033019Y015477D01*
X033030Y015378D02*
X033293Y015378D01*
X033293Y015280D02*
X033022Y015280D01*
X032981Y015181D02*
X033293Y015181D01*
X032862Y015048D02*
X032720Y014989D01*
X032566Y014989D01*
X032425Y015048D01*
X032407Y015065D01*
X031982Y015065D01*
X031868Y015112D01*
X029693Y017287D01*
X029693Y016175D01*
X018779Y016175D01*
X018830Y016052D01*
X018830Y015898D01*
X018771Y015756D01*
X018662Y015648D01*
X018520Y015589D01*
X018366Y015589D01*
X018225Y015648D01*
X018116Y015756D01*
X018057Y015898D01*
X018057Y016052D01*
X018108Y016175D01*
X016155Y016175D01*
X015393Y015413D01*
X015393Y007025D01*
X021293Y007025D01*
X022093Y006225D01*
X023943Y006225D01*
X024543Y006825D01*
X024543Y008696D01*
X024263Y008976D01*
X024263Y009374D01*
X024544Y009655D01*
X024942Y009655D01*
X025222Y009375D01*
X025264Y009375D01*
X025544Y009655D01*
X025942Y009655D01*
X026143Y009454D01*
X026143Y009896D01*
X025942Y009695D01*
X025544Y009695D01*
X025263Y009976D01*
X025263Y010374D01*
X025360Y010470D01*
X025215Y010615D01*
X024982Y010615D01*
X025223Y010374D01*
X025223Y009976D01*
X024942Y009695D01*
X024544Y009695D01*
X024263Y009976D01*
X024263Y010374D01*
X024504Y010615D01*
X023982Y010615D01*
X024223Y010374D01*
X024223Y009976D01*
X023942Y009695D01*
X023544Y009695D01*
X023263Y009976D01*
X023263Y010374D01*
X023504Y010615D01*
X020582Y010615D01*
X020468Y010662D01*
X020091Y011039D01*
X020066Y011039D01*
X019925Y011098D01*
X019816Y011206D01*
X019757Y011348D01*
X019757Y011502D01*
X019816Y011644D01*
X019925Y011752D01*
X020066Y011811D01*
X020220Y011811D01*
X020362Y011752D01*
X020471Y011644D01*
X020530Y011502D01*
X020530Y011477D01*
X020772Y011235D01*
X025405Y011235D01*
X025519Y011188D01*
X025606Y011101D01*
X026006Y010701D01*
X026053Y010587D01*
X026053Y010544D01*
X026143Y010454D01*
X026143Y010608D01*
X026260Y010725D01*
X027226Y010725D01*
X027243Y010708D01*
X027260Y010725D01*
X028226Y010725D01*
X028343Y010608D01*
X028343Y009394D01*
X028863Y008875D01*
X039423Y008875D01*
X039662Y008776D01*
X039844Y008593D01*
X041015Y007422D01*
X041082Y007422D01*
X041491Y007014D01*
X041491Y006436D01*
X041082Y006028D01*
X040504Y006028D01*
X040096Y006436D01*
X040096Y006503D01*
X039024Y007575D01*
X028464Y007575D01*
X028225Y007674D01*
X027393Y008506D01*
X027393Y008375D01*
X027415Y008322D01*
X028363Y007375D01*
X032957Y007375D01*
X033004Y007422D01*
X033582Y007422D01*
X033991Y007014D01*
X033991Y006436D01*
X033582Y006028D01*
X033004Y006028D01*
X032957Y006075D01*
X027964Y006075D01*
X027725Y006174D01*
X026242Y007657D01*
X026143Y007896D01*
X026143Y007925D01*
X026093Y008046D01*
X026093Y008654D01*
X026143Y008775D01*
X026143Y008896D01*
X025943Y008696D01*
X025943Y007575D01*
X024338Y005925D01*
X043496Y005925D01*
X043203Y006218D01*
X043203Y006832D01*
X043637Y007266D01*
X044250Y007266D01*
X044684Y006832D01*
X044684Y006218D01*
X044391Y005925D01*
X055610Y005925D01*
X055993Y006308D01*
X055993Y035942D01*
X055610Y036325D01*
X031510Y036325D01*
X031060Y036775D01*
X031035Y036714D01*
X030955Y036633D01*
X030850Y036590D01*
X030737Y036590D01*
X030632Y036633D01*
X030600Y036665D01*
X023456Y036665D01*
X023535Y036586D01*
X023578Y036482D01*
X023578Y036437D01*
X023580Y036435D01*
X029880Y036435D01*
X030003Y036312D01*
X030503Y035812D01*
X030503Y034412D01*
X031580Y033335D01*
X037680Y033335D01*
X037803Y033212D01*
X038340Y032675D01*
X051576Y032675D01*
X051693Y032558D01*
X051693Y014508D01*
X051694Y014507D01*
X051693Y014425D01*
X051693Y014342D01*
X051693Y014342D01*
X051693Y014342D01*
X051635Y014284D01*
X051576Y014225D01*
X051576Y014225D01*
X051576Y014225D01*
X051493Y014225D01*
X051410Y014225D01*
X051410Y014225D01*
X033493Y014275D01*
X033410Y014275D01*
X033410Y014275D01*
X033493Y014492D02*
X051493Y014492D01*
X051493Y014590D02*
X033493Y014590D01*
X033493Y015871D02*
X051493Y015871D01*
X051493Y015969D02*
X033493Y015969D01*
X033493Y016068D02*
X051493Y016068D01*
X051493Y016166D02*
X033493Y016166D01*
X033493Y016265D02*
X051493Y016265D01*
X051493Y016363D02*
X033493Y016363D01*
X033493Y016462D02*
X051493Y016462D01*
X051493Y016560D02*
X033493Y016560D01*
X033493Y016659D02*
X051493Y016659D01*
X051493Y016757D02*
X033493Y016757D01*
X033493Y017841D02*
X051493Y017841D01*
X051493Y017939D02*
X033493Y017939D01*
X033493Y018038D02*
X051493Y018038D01*
X051493Y018136D02*
X033493Y018136D01*
X033293Y018629D02*
X032688Y018629D01*
X032834Y018727D02*
X033293Y018727D01*
X033293Y018826D02*
X032932Y018826D01*
X033031Y018924D02*
X033293Y018924D01*
X033293Y019023D02*
X033129Y019023D01*
X033228Y019121D02*
X033293Y019121D01*
X033283Y020205D02*
X029693Y020205D01*
X029693Y020303D02*
X033283Y020303D01*
X033283Y020402D02*
X029693Y020402D01*
X029693Y020500D02*
X033283Y020500D01*
X033283Y020599D02*
X033120Y020599D01*
X033199Y020697D02*
X033283Y020697D01*
X033283Y020796D02*
X033228Y020796D01*
X033223Y020894D02*
X033283Y020894D01*
X033283Y020993D02*
X033179Y020993D01*
X033285Y021091D02*
X033046Y021091D01*
X032903Y021190D02*
X033293Y021190D01*
X033127Y021288D02*
X032903Y021288D01*
X032903Y021387D02*
X033071Y021387D01*
X033058Y021485D02*
X032903Y021485D01*
X032903Y021584D02*
X033080Y021584D01*
X033133Y021682D02*
X032903Y021682D01*
X032903Y021781D02*
X033133Y021781D01*
X033133Y021879D02*
X032903Y021879D01*
X032903Y021978D02*
X033133Y021978D01*
X033553Y021978D02*
X038608Y021978D01*
X038582Y021967D02*
X038502Y021886D01*
X038458Y021782D01*
X038458Y021668D01*
X038502Y021564D01*
X038582Y021483D01*
X038687Y021440D01*
X038800Y021440D01*
X038905Y021483D01*
X038985Y021564D01*
X039028Y021668D01*
X039028Y021782D01*
X038985Y021886D01*
X038905Y021967D01*
X038800Y022010D01*
X038687Y022010D01*
X038582Y021967D01*
X038499Y021879D02*
X033553Y021879D01*
X033553Y021781D02*
X038458Y021781D01*
X038458Y021682D02*
X035717Y021682D01*
X035755Y021667D02*
X035650Y021710D01*
X035537Y021710D01*
X035432Y021667D01*
X035352Y021586D01*
X035308Y021482D01*
X035308Y021368D01*
X035352Y021264D01*
X035432Y021183D01*
X035537Y021140D01*
X035650Y021140D01*
X035755Y021183D01*
X035835Y021264D01*
X035878Y021368D01*
X035878Y021482D01*
X035835Y021586D01*
X035755Y021667D01*
X035836Y021584D02*
X038493Y021584D01*
X038580Y021485D02*
X035877Y021485D01*
X035878Y021387D02*
X039192Y021387D01*
X039202Y021364D02*
X039282Y021283D01*
X039387Y021240D01*
X039500Y021240D01*
X039605Y021283D01*
X039685Y021364D01*
X039728Y021468D01*
X039728Y021582D01*
X039685Y021686D01*
X039605Y021767D01*
X039500Y021810D01*
X039387Y021810D01*
X039282Y021767D01*
X039202Y021686D01*
X039158Y021582D01*
X039158Y021468D01*
X039202Y021364D01*
X039277Y021288D02*
X035845Y021288D01*
X035761Y021190D02*
X042262Y021190D01*
X042258Y021182D02*
X042258Y021068D01*
X042302Y020964D01*
X042382Y020883D01*
X042487Y020840D01*
X042600Y020840D01*
X042705Y020883D01*
X042785Y020964D01*
X042828Y021068D01*
X042828Y021182D01*
X042785Y021286D01*
X042705Y021367D01*
X042600Y021410D01*
X042487Y021410D01*
X042382Y021367D01*
X042302Y021286D01*
X042258Y021182D01*
X042258Y021091D02*
X033493Y021091D01*
X033493Y020993D02*
X039744Y020993D01*
X039787Y021010D02*
X039682Y020967D01*
X039602Y020886D01*
X039576Y020825D01*
X033493Y020825D01*
X033493Y021229D01*
X033505Y021233D01*
X033585Y021314D01*
X033628Y021418D01*
X033628Y021532D01*
X033585Y021636D01*
X033553Y021668D01*
X033553Y023725D01*
X037133Y023710D01*
X037152Y023664D01*
X037232Y023583D01*
X037337Y023540D01*
X037450Y023540D01*
X037555Y023583D01*
X037635Y023664D01*
X037653Y023708D01*
X045543Y023675D01*
X045543Y023575D01*
X044752Y023575D01*
X044693Y023516D01*
X044693Y023434D01*
X044693Y022416D01*
X044693Y022334D01*
X044752Y022275D01*
X045543Y022275D01*
X045543Y020825D01*
X040993Y020825D01*
X040993Y018678D01*
X040955Y018717D01*
X040850Y018760D01*
X040737Y018760D01*
X040632Y018717D01*
X040552Y018636D01*
X040508Y018532D01*
X040508Y018475D01*
X040028Y018475D01*
X040028Y018482D01*
X039985Y018586D01*
X039953Y018618D01*
X039953Y020462D01*
X040005Y020483D01*
X040085Y020564D01*
X040128Y020668D01*
X040128Y020782D01*
X040085Y020886D01*
X040005Y020967D01*
X039900Y021010D01*
X039787Y021010D01*
X039942Y020993D02*
X042290Y020993D01*
X042371Y020894D02*
X040077Y020894D01*
X040123Y020796D02*
X040993Y020796D01*
X040993Y020697D02*
X040128Y020697D01*
X040099Y020599D02*
X040993Y020599D01*
X040993Y020500D02*
X040021Y020500D01*
X039953Y020402D02*
X040993Y020402D01*
X040993Y020303D02*
X039953Y020303D01*
X039953Y020205D02*
X040993Y020205D01*
X040993Y020106D02*
X039953Y020106D01*
X039953Y020008D02*
X040993Y020008D01*
X040993Y019909D02*
X039953Y019909D01*
X039953Y019811D02*
X040993Y019811D01*
X040993Y019712D02*
X039953Y019712D01*
X039953Y019614D02*
X040993Y019614D01*
X040993Y019515D02*
X039953Y019515D01*
X039953Y019417D02*
X040993Y019417D01*
X040993Y019318D02*
X039953Y019318D01*
X039953Y019220D02*
X040993Y019220D01*
X040993Y019121D02*
X039953Y019121D01*
X039953Y019023D02*
X040993Y019023D01*
X040993Y018924D02*
X039953Y018924D01*
X039953Y018826D02*
X040993Y018826D01*
X040993Y018727D02*
X040930Y018727D01*
X041193Y018727D02*
X051493Y018727D01*
X051493Y018629D02*
X041193Y018629D01*
X041193Y018530D02*
X051493Y018530D01*
X051493Y018432D02*
X041193Y018432D01*
X041134Y018333D02*
X051493Y018333D01*
X051493Y018235D02*
X040956Y018235D01*
X040631Y018235D02*
X040306Y018235D01*
X039981Y018235D02*
X039956Y018235D01*
X040008Y018530D02*
X040508Y018530D01*
X040548Y018629D02*
X039953Y018629D01*
X039953Y018727D02*
X040657Y018727D01*
X041193Y018826D02*
X051493Y018826D01*
X051493Y018924D02*
X041193Y018924D01*
X041193Y019023D02*
X051493Y019023D01*
X051493Y019121D02*
X041193Y019121D01*
X041193Y019220D02*
X051493Y019220D01*
X051493Y019318D02*
X041193Y019318D01*
X041193Y019417D02*
X051493Y019417D01*
X051493Y019515D02*
X041193Y019515D01*
X041193Y019614D02*
X051493Y019614D01*
X051493Y019712D02*
X041193Y019712D01*
X041193Y019811D02*
X051493Y019811D01*
X051493Y019909D02*
X041193Y019909D01*
X041193Y020008D02*
X051493Y020008D01*
X051493Y020106D02*
X043689Y020106D01*
X043826Y020205D02*
X051493Y020205D01*
X051493Y020303D02*
X043872Y020303D01*
X043878Y020402D02*
X051493Y020402D01*
X051493Y020500D02*
X043850Y020500D01*
X043773Y020599D02*
X051493Y020599D01*
X051493Y020697D02*
X045698Y020697D01*
X045743Y020796D02*
X051493Y020796D01*
X051493Y020894D02*
X045743Y020894D01*
X045743Y020993D02*
X051493Y020993D01*
X051493Y021091D02*
X045743Y021091D01*
X045743Y021190D02*
X051493Y021190D01*
X051493Y021288D02*
X045743Y021288D01*
X045743Y021387D02*
X051493Y021387D01*
X051493Y021485D02*
X045743Y021485D01*
X045743Y021584D02*
X051493Y021584D01*
X051493Y021682D02*
X045743Y021682D01*
X045743Y021781D02*
X051493Y021781D01*
X051493Y021879D02*
X045743Y021879D01*
X045743Y021978D02*
X051493Y021978D01*
X051493Y022076D02*
X045743Y022076D01*
X045743Y022175D02*
X051493Y022175D01*
X051493Y022273D02*
X045743Y022273D01*
X045543Y022273D02*
X044278Y022273D01*
X044278Y022282D02*
X044235Y022386D01*
X044155Y022467D01*
X044050Y022510D01*
X043937Y022510D01*
X043832Y022467D01*
X043752Y022386D01*
X043708Y022282D01*
X043708Y022168D01*
X043752Y022064D01*
X043832Y021983D01*
X043937Y021940D01*
X044050Y021940D01*
X044155Y021983D01*
X044235Y022064D01*
X044278Y022168D01*
X044278Y022282D01*
X044241Y022372D02*
X044693Y022372D01*
X044693Y022470D02*
X044146Y022470D01*
X043840Y022470D02*
X042828Y022470D01*
X042828Y022468D02*
X042785Y022364D01*
X042705Y022283D01*
X042600Y022240D01*
X042487Y022240D01*
X042382Y022283D01*
X042302Y022364D01*
X042258Y022468D01*
X042258Y022582D01*
X042302Y022686D01*
X042382Y022767D01*
X042487Y022810D01*
X042600Y022810D01*
X042705Y022767D01*
X042785Y022686D01*
X042828Y022582D01*
X042828Y022468D01*
X042828Y022569D02*
X044693Y022569D01*
X044693Y022667D02*
X042793Y022667D01*
X042706Y022766D02*
X044693Y022766D01*
X044693Y022864D02*
X033553Y022864D01*
X033553Y022766D02*
X042381Y022766D01*
X042294Y022667D02*
X033553Y022667D01*
X033553Y022569D02*
X042258Y022569D01*
X042258Y022470D02*
X033553Y022470D01*
X033553Y022372D02*
X042298Y022372D01*
X042407Y022273D02*
X033553Y022273D01*
X033553Y022175D02*
X043708Y022175D01*
X043708Y022273D02*
X042680Y022273D01*
X042788Y022372D02*
X043746Y022372D01*
X043747Y022076D02*
X033553Y022076D01*
X033553Y021682D02*
X035469Y021682D01*
X035350Y021584D02*
X033607Y021584D01*
X033628Y021485D02*
X035310Y021485D01*
X035308Y021387D02*
X033615Y021387D01*
X033559Y021288D02*
X035342Y021288D01*
X035426Y021190D02*
X033493Y021190D01*
X033493Y020894D02*
X039609Y020894D01*
X039609Y021288D02*
X039977Y021288D01*
X039982Y021283D02*
X040087Y021240D01*
X040200Y021240D01*
X040305Y021283D01*
X040385Y021364D01*
X040428Y021468D01*
X040428Y021582D01*
X040385Y021686D01*
X040305Y021767D01*
X040200Y021810D01*
X040087Y021810D01*
X039982Y021767D01*
X039902Y021686D01*
X039858Y021582D01*
X039858Y021468D01*
X039902Y021364D01*
X039982Y021283D01*
X039892Y021387D02*
X039694Y021387D01*
X039728Y021485D02*
X039858Y021485D01*
X039859Y021584D02*
X039728Y021584D01*
X039687Y021682D02*
X039900Y021682D01*
X040015Y021781D02*
X039571Y021781D01*
X039315Y021781D02*
X039028Y021781D01*
X039028Y021682D02*
X039200Y021682D01*
X039159Y021584D02*
X038993Y021584D01*
X038906Y021485D02*
X039158Y021485D01*
X038988Y021879D02*
X045543Y021879D01*
X045543Y021781D02*
X045441Y021781D01*
X045405Y021817D02*
X045300Y021860D01*
X045187Y021860D01*
X045082Y021817D01*
X045002Y021736D01*
X044958Y021632D01*
X044958Y021518D01*
X045002Y021414D01*
X045082Y021333D01*
X045187Y021290D01*
X045300Y021290D01*
X045405Y021333D01*
X045485Y021414D01*
X045528Y021518D01*
X045528Y021632D01*
X045485Y021736D01*
X045405Y021817D01*
X045507Y021682D02*
X045543Y021682D01*
X045543Y021584D02*
X045528Y021584D01*
X045515Y021485D02*
X045543Y021485D01*
X045543Y021387D02*
X045458Y021387D01*
X045543Y021288D02*
X042783Y021288D01*
X042825Y021190D02*
X045543Y021190D01*
X045543Y021091D02*
X042828Y021091D01*
X042797Y020993D02*
X045543Y020993D01*
X045543Y020894D02*
X042715Y020894D01*
X042657Y021387D02*
X045029Y021387D01*
X044972Y021485D02*
X040428Y021485D01*
X040428Y021584D02*
X044958Y021584D01*
X044979Y021682D02*
X040387Y021682D01*
X040271Y021781D02*
X045046Y021781D01*
X045543Y021978D02*
X044141Y021978D01*
X044240Y022076D02*
X045543Y022076D01*
X045543Y022175D02*
X044278Y022175D01*
X043846Y021978D02*
X038878Y021978D01*
X040309Y021288D02*
X042303Y021288D01*
X042430Y021387D02*
X040394Y021387D01*
X041193Y020599D02*
X043414Y020599D01*
X043337Y020500D02*
X041193Y020500D01*
X041193Y020402D02*
X043308Y020402D01*
X043315Y020303D02*
X041193Y020303D01*
X041193Y020205D02*
X043361Y020205D01*
X043498Y020106D02*
X041193Y020106D01*
X038570Y017151D02*
X051493Y017151D01*
X051493Y017053D02*
X038578Y017053D01*
X038552Y016954D02*
X051493Y016954D01*
X051493Y016856D02*
X038477Y016856D01*
X032767Y020599D02*
X029693Y020599D01*
X029693Y020697D02*
X032688Y020697D01*
X032658Y020796D02*
X029693Y020796D01*
X029693Y020894D02*
X032577Y020894D01*
X032483Y020993D02*
X029693Y020993D01*
X029693Y021091D02*
X032483Y021091D01*
X032483Y021190D02*
X029693Y021190D01*
X029693Y021288D02*
X032483Y021288D01*
X032483Y021387D02*
X029693Y021387D01*
X029693Y021485D02*
X032483Y021485D01*
X032483Y021584D02*
X029693Y021584D01*
X029693Y021682D02*
X032483Y021682D01*
X032483Y021781D02*
X029693Y021781D01*
X029693Y021879D02*
X032483Y021879D01*
X032483Y021978D02*
X029693Y021978D01*
X029693Y022076D02*
X032050Y022076D01*
X032032Y022083D02*
X032137Y022040D01*
X032250Y022040D01*
X032355Y022083D01*
X032435Y022164D01*
X032478Y022268D01*
X032478Y022382D01*
X032435Y022486D01*
X032355Y022567D01*
X032250Y022610D01*
X032137Y022610D01*
X032032Y022567D01*
X031952Y022486D01*
X031908Y022382D01*
X031908Y022268D01*
X031952Y022164D01*
X032032Y022083D01*
X031947Y022175D02*
X029693Y022175D01*
X029693Y022273D02*
X031908Y022273D01*
X031908Y022372D02*
X029693Y022372D01*
X029693Y022470D02*
X031945Y022470D01*
X031855Y022533D02*
X031935Y022614D01*
X031978Y022718D01*
X031978Y022832D01*
X031935Y022936D01*
X031855Y023017D01*
X031750Y023060D01*
X031637Y023060D01*
X031532Y023017D01*
X031452Y022936D01*
X031408Y022832D01*
X031408Y022718D01*
X031452Y022614D01*
X031532Y022533D01*
X031637Y022490D01*
X031750Y022490D01*
X031855Y022533D01*
X031890Y022569D02*
X032037Y022569D01*
X031957Y022667D02*
X032483Y022667D01*
X032483Y022569D02*
X032350Y022569D01*
X032442Y022470D02*
X032483Y022470D01*
X032478Y022372D02*
X032483Y022372D01*
X032478Y022273D02*
X032483Y022273D01*
X032483Y022175D02*
X032439Y022175D01*
X032483Y022076D02*
X032337Y022076D01*
X032483Y022766D02*
X031978Y022766D01*
X031965Y022864D02*
X032483Y022864D01*
X032483Y022963D02*
X031909Y022963D01*
X031478Y022963D02*
X029693Y022963D01*
X029693Y023061D02*
X032483Y023061D01*
X032483Y023160D02*
X029693Y023160D01*
X029693Y023258D02*
X032483Y023258D01*
X032483Y023357D02*
X029693Y023357D01*
X029693Y023455D02*
X032483Y023455D01*
X032483Y023554D02*
X029693Y023554D01*
X029693Y023652D02*
X032483Y023652D01*
X032483Y023751D02*
X029693Y023751D01*
X029693Y023849D02*
X032483Y023849D01*
X032483Y023948D02*
X029693Y023948D01*
X029693Y024046D02*
X032483Y024046D01*
X032483Y024145D02*
X029693Y024145D01*
X029675Y024243D02*
X032483Y024243D01*
X032483Y024342D02*
X029577Y024342D01*
X030497Y025245D02*
X028347Y025245D01*
X028239Y025245D01*
X028163Y025321D01*
X028163Y031179D01*
X028239Y031255D01*
X029647Y031255D01*
X029723Y031179D01*
X029723Y029679D01*
X030097Y029305D01*
X030397Y029305D01*
X030497Y029205D01*
X030573Y029129D01*
X030573Y025321D01*
X030497Y025245D01*
X030573Y025327D02*
X032483Y025327D01*
X032483Y025425D02*
X030573Y025425D01*
X030573Y025524D02*
X032483Y025524D01*
X032483Y025622D02*
X030573Y025622D01*
X030573Y025721D02*
X032483Y025721D01*
X032483Y025819D02*
X030573Y025819D01*
X030573Y025918D02*
X032483Y025918D01*
X032483Y026016D02*
X030573Y026016D01*
X030573Y026115D02*
X032483Y026115D01*
X032483Y026213D02*
X030573Y026213D01*
X030573Y026312D02*
X032483Y026312D01*
X032483Y026410D02*
X030573Y026410D01*
X030573Y026509D02*
X032483Y026509D01*
X032483Y026607D02*
X030573Y026607D01*
X030573Y026706D02*
X032483Y026706D01*
X032483Y026804D02*
X030573Y026804D01*
X030573Y026903D02*
X032483Y026903D01*
X032483Y027001D02*
X030573Y027001D01*
X030573Y027100D02*
X032483Y027100D01*
X032483Y027198D02*
X030573Y027198D01*
X030573Y027297D02*
X032483Y027297D01*
X032483Y027395D02*
X030573Y027395D01*
X030573Y027494D02*
X032483Y027494D01*
X032483Y027592D02*
X030573Y027592D01*
X030573Y027691D02*
X032483Y027691D01*
X032483Y027789D02*
X030573Y027789D01*
X030573Y027888D02*
X032483Y027888D01*
X032483Y027986D02*
X030573Y027986D01*
X030573Y028085D02*
X032483Y028085D01*
X032483Y028183D02*
X030573Y028183D01*
X030573Y028282D02*
X032483Y028282D01*
X032483Y028380D02*
X030573Y028380D01*
X030573Y028479D02*
X032483Y028479D01*
X032483Y028577D02*
X030573Y028577D01*
X030573Y028676D02*
X032483Y028676D01*
X032483Y028774D02*
X030573Y028774D01*
X030573Y028873D02*
X032483Y028873D01*
X032483Y028971D02*
X030573Y028971D01*
X030573Y029070D02*
X032483Y029070D01*
X032483Y029168D02*
X030534Y029168D01*
X030436Y029267D02*
X032483Y029267D01*
X032430Y029365D02*
X030037Y029365D01*
X029939Y029464D02*
X032408Y029464D01*
X032421Y029562D02*
X029840Y029562D01*
X029742Y029661D02*
X032476Y029661D01*
X032634Y029759D02*
X029723Y029759D01*
X029723Y029858D02*
X033133Y029858D01*
X033133Y029956D02*
X029723Y029956D01*
X029723Y030055D02*
X033133Y030055D01*
X033112Y030153D02*
X029723Y030153D01*
X029723Y030252D02*
X033065Y030252D01*
X033058Y030350D02*
X029723Y030350D01*
X029723Y030449D02*
X033086Y030449D01*
X033162Y030547D02*
X029723Y030547D01*
X029723Y030646D02*
X033293Y030646D01*
X033293Y030744D02*
X029723Y030744D01*
X029723Y030843D02*
X033293Y030843D01*
X033293Y030941D02*
X029723Y030941D01*
X029723Y031040D02*
X033293Y031040D01*
X033293Y031138D02*
X032392Y031138D01*
X032377Y031132D02*
X032689Y031261D01*
X032928Y031500D01*
X033057Y031813D01*
X033057Y032151D01*
X032928Y032463D01*
X032689Y032702D01*
X032377Y032832D01*
X032038Y032832D01*
X031726Y032702D01*
X031487Y032463D01*
X031357Y032151D01*
X031357Y031813D01*
X031487Y031500D01*
X031726Y031261D01*
X032038Y031132D01*
X032377Y031132D01*
X032630Y031237D02*
X033293Y031237D01*
X033293Y031335D02*
X032763Y031335D01*
X032861Y031434D02*
X033293Y031434D01*
X033293Y031532D02*
X032941Y031532D01*
X032982Y031631D02*
X033293Y031631D01*
X033293Y031729D02*
X033023Y031729D01*
X033057Y031828D02*
X033293Y031828D01*
X033293Y031926D02*
X033057Y031926D01*
X033057Y032025D02*
X033293Y032025D01*
X033293Y032123D02*
X033057Y032123D01*
X033028Y032222D02*
X033293Y032222D01*
X033293Y032320D02*
X032987Y032320D01*
X032947Y032419D02*
X033293Y032419D01*
X033293Y032517D02*
X032874Y032517D01*
X032776Y032616D02*
X033351Y032616D01*
X033493Y032419D02*
X038003Y032419D01*
X038101Y032320D02*
X033493Y032320D01*
X033493Y032222D02*
X038128Y032222D01*
X038192Y032123D02*
X033493Y032123D01*
X033493Y032025D02*
X051493Y032025D01*
X051493Y032123D02*
X038594Y032123D01*
X038659Y032222D02*
X051493Y032222D01*
X051493Y032320D02*
X038678Y032320D01*
X038663Y032419D02*
X051493Y032419D01*
X051693Y032419D02*
X055993Y032419D01*
X055993Y032517D02*
X051693Y032517D01*
X051636Y032616D02*
X055993Y032616D01*
X055993Y032714D02*
X038301Y032714D01*
X038203Y032813D02*
X055993Y032813D01*
X055993Y032911D02*
X038104Y032911D01*
X038006Y033010D02*
X055993Y033010D01*
X055993Y033108D02*
X037907Y033108D01*
X037809Y033207D02*
X055993Y033207D01*
X055993Y033305D02*
X037710Y033305D01*
X037510Y032911D02*
X022473Y032911D01*
X022510Y032813D02*
X031992Y032813D01*
X031754Y032714D02*
X022608Y032714D01*
X022707Y032616D02*
X031639Y032616D01*
X031541Y032517D02*
X022805Y032517D01*
X022904Y032419D02*
X031468Y032419D01*
X031428Y032320D02*
X023002Y032320D01*
X023101Y032222D02*
X031387Y032222D01*
X031357Y032123D02*
X023199Y032123D01*
X023298Y032025D02*
X031357Y032025D01*
X031357Y031926D02*
X023396Y031926D01*
X023495Y031828D02*
X031357Y031828D01*
X031392Y031729D02*
X023593Y031729D01*
X023692Y031631D02*
X031433Y031631D01*
X031474Y031532D02*
X023790Y031532D01*
X023889Y031434D02*
X031554Y031434D01*
X031652Y031335D02*
X023987Y031335D01*
X024086Y031237D02*
X028221Y031237D01*
X028163Y031138D02*
X024184Y031138D01*
X024203Y031040D02*
X028163Y031040D01*
X028163Y030941D02*
X024203Y030941D01*
X024203Y030843D02*
X028163Y030843D01*
X028163Y030744D02*
X024203Y030744D01*
X024203Y030646D02*
X028163Y030646D01*
X028163Y030547D02*
X024203Y030547D01*
X024203Y030449D02*
X028163Y030449D01*
X028163Y030350D02*
X024203Y030350D01*
X024203Y030252D02*
X028163Y030252D01*
X028163Y030153D02*
X024203Y030153D01*
X024203Y030055D02*
X028163Y030055D01*
X028163Y029956D02*
X024203Y029956D01*
X024203Y029858D02*
X028163Y029858D01*
X028163Y029759D02*
X024203Y029759D01*
X024203Y029661D02*
X028163Y029661D01*
X028163Y029562D02*
X024203Y029562D01*
X024203Y029464D02*
X028163Y029464D01*
X028163Y029365D02*
X024203Y029365D01*
X024203Y029267D02*
X028163Y029267D01*
X028163Y029168D02*
X024243Y029168D01*
X024278Y029070D02*
X028163Y029070D01*
X028163Y028971D02*
X024278Y028971D01*
X024239Y028873D02*
X028163Y028873D01*
X028163Y028774D02*
X024132Y028774D01*
X023854Y028774D02*
X022793Y028774D01*
X022793Y028676D02*
X028163Y028676D01*
X028163Y028577D02*
X022793Y028577D01*
X022793Y028479D02*
X028163Y028479D01*
X028163Y028380D02*
X022793Y028380D01*
X022793Y028282D02*
X028163Y028282D01*
X028163Y028183D02*
X022793Y028183D01*
X022793Y028085D02*
X028163Y028085D01*
X028163Y027986D02*
X022793Y027986D01*
X022793Y027888D02*
X028163Y027888D01*
X028163Y027789D02*
X022793Y027789D01*
X022793Y027691D02*
X028163Y027691D01*
X028163Y027592D02*
X022793Y027592D01*
X022793Y027494D02*
X028163Y027494D01*
X028163Y027395D02*
X022793Y027395D01*
X022793Y027297D02*
X028163Y027297D01*
X028163Y027198D02*
X022793Y027198D01*
X022793Y027100D02*
X028163Y027100D01*
X028163Y027001D02*
X022793Y027001D01*
X022793Y026903D02*
X028163Y026903D01*
X028163Y026804D02*
X022793Y026804D01*
X022793Y026706D02*
X028163Y026706D01*
X028163Y026607D02*
X022812Y026607D01*
X022913Y026509D02*
X028163Y026509D01*
X028163Y026410D02*
X023014Y026410D01*
X023115Y026312D02*
X028163Y026312D01*
X028163Y026213D02*
X023216Y026213D01*
X023317Y026115D02*
X028163Y026115D01*
X028163Y026016D02*
X023418Y026016D01*
X023519Y025918D02*
X028163Y025918D01*
X028163Y025819D02*
X023620Y025819D01*
X023722Y025721D02*
X028163Y025721D01*
X028163Y025622D02*
X023823Y025622D01*
X023924Y025524D02*
X028163Y025524D01*
X028163Y025425D02*
X024025Y025425D01*
X024126Y025327D02*
X028163Y025327D01*
X027993Y024342D02*
X025137Y024342D01*
X025036Y024440D02*
X032483Y024440D01*
X032483Y024539D02*
X024935Y024539D01*
X024834Y024637D02*
X032483Y024637D01*
X032483Y024736D02*
X024732Y024736D01*
X024631Y024834D02*
X032483Y024834D01*
X032483Y024933D02*
X024530Y024933D01*
X024429Y025031D02*
X032483Y025031D01*
X032483Y025130D02*
X024328Y025130D01*
X024227Y025228D02*
X032483Y025228D01*
X032903Y025228D02*
X033133Y025228D01*
X033133Y025130D02*
X032903Y025130D01*
X032903Y025031D02*
X033133Y025031D01*
X033133Y024933D02*
X032903Y024933D01*
X032903Y024834D02*
X033133Y024834D01*
X033133Y024736D02*
X032903Y024736D01*
X032903Y024637D02*
X033133Y024637D01*
X033133Y024539D02*
X032903Y024539D01*
X032903Y024440D02*
X033133Y024440D01*
X033133Y024342D02*
X032903Y024342D01*
X032903Y024243D02*
X033133Y024243D01*
X033133Y024145D02*
X032903Y024145D01*
X032903Y024046D02*
X033133Y024046D01*
X033133Y023948D02*
X032903Y023948D01*
X032903Y023849D02*
X033133Y023849D01*
X033133Y023751D02*
X032903Y023751D01*
X032903Y023652D02*
X033133Y023652D01*
X033133Y023554D02*
X032903Y023554D01*
X032903Y023455D02*
X033133Y023455D01*
X033133Y023357D02*
X032903Y023357D01*
X032903Y023258D02*
X033133Y023258D01*
X033133Y023160D02*
X032903Y023160D01*
X032903Y023061D02*
X033133Y023061D01*
X033133Y022963D02*
X032903Y022963D01*
X032903Y022864D02*
X033133Y022864D01*
X033133Y022766D02*
X032903Y022766D01*
X032903Y022667D02*
X033133Y022667D01*
X033553Y022963D02*
X044693Y022963D01*
X044693Y023061D02*
X033553Y023061D01*
X033553Y023160D02*
X044693Y023160D01*
X044693Y023258D02*
X033553Y023258D01*
X033553Y023357D02*
X044693Y023357D01*
X044693Y023455D02*
X033553Y023455D01*
X033553Y023554D02*
X037304Y023554D01*
X037163Y023652D02*
X033553Y023652D01*
X033576Y023925D02*
X033576Y023925D01*
X033553Y023948D02*
X037136Y023948D01*
X037211Y024046D02*
X033553Y024046D01*
X033553Y024145D02*
X035421Y024145D01*
X035432Y024133D02*
X035537Y024090D01*
X035650Y024090D01*
X035755Y024133D01*
X035835Y024214D01*
X035878Y024318D01*
X035878Y024432D01*
X035835Y024536D01*
X035755Y024617D01*
X035650Y024660D01*
X035537Y024660D01*
X035432Y024617D01*
X035352Y024536D01*
X035308Y024432D01*
X035308Y024318D01*
X035352Y024214D01*
X035432Y024133D01*
X035339Y024243D02*
X033553Y024243D01*
X033553Y024342D02*
X035308Y024342D01*
X035312Y024440D02*
X033553Y024440D01*
X033553Y024539D02*
X035354Y024539D01*
X035481Y024637D02*
X033553Y024637D01*
X033553Y024736D02*
X044580Y024736D01*
X044552Y024764D02*
X044632Y024683D01*
X044737Y024640D01*
X044850Y024640D01*
X044955Y024683D01*
X045035Y024764D01*
X045078Y024868D01*
X045078Y024982D01*
X045035Y025086D01*
X044955Y025167D01*
X044850Y025210D01*
X044737Y025210D01*
X044632Y025167D01*
X044552Y025086D01*
X044508Y024982D01*
X044508Y024868D01*
X044552Y024764D01*
X044522Y024834D02*
X033553Y024834D01*
X033553Y024933D02*
X044508Y024933D01*
X044529Y025031D02*
X033553Y025031D01*
X033553Y025130D02*
X038591Y025130D01*
X038582Y025133D02*
X038687Y025090D01*
X038800Y025090D01*
X038905Y025133D01*
X038985Y025214D01*
X039028Y025318D01*
X039028Y025432D01*
X038985Y025536D01*
X038905Y025617D01*
X038800Y025660D01*
X038687Y025660D01*
X038582Y025617D01*
X038502Y025536D01*
X038458Y025432D01*
X038458Y025318D01*
X038502Y025214D01*
X038582Y025133D01*
X038496Y025228D02*
X033553Y025228D01*
X033553Y025327D02*
X038458Y025327D01*
X038458Y025425D02*
X033553Y025425D01*
X033553Y025524D02*
X038496Y025524D01*
X038595Y025622D02*
X033553Y025622D01*
X033553Y025721D02*
X051493Y025721D01*
X051493Y025819D02*
X045549Y025819D01*
X045578Y025848D02*
X045578Y030652D01*
X045470Y030760D01*
X044698Y030760D01*
X044755Y030783D01*
X044835Y030864D01*
X044878Y030968D01*
X044878Y031082D01*
X044835Y031186D01*
X044755Y031267D01*
X044650Y031310D01*
X044537Y031310D01*
X044432Y031267D01*
X044352Y031186D01*
X044308Y031082D01*
X044308Y030968D01*
X044352Y030864D01*
X044432Y030783D01*
X044488Y030760D01*
X040867Y030760D01*
X040758Y030652D01*
X040758Y030498D01*
X040758Y025848D01*
X040867Y025740D01*
X045470Y025740D01*
X045578Y025848D01*
X045578Y025918D02*
X051493Y025918D01*
X051493Y026016D02*
X045578Y026016D01*
X045578Y026115D02*
X051493Y026115D01*
X051493Y026213D02*
X045578Y026213D01*
X045578Y026312D02*
X051493Y026312D01*
X051493Y026410D02*
X045578Y026410D01*
X045578Y026509D02*
X051493Y026509D01*
X051493Y026607D02*
X045578Y026607D01*
X045578Y026706D02*
X051493Y026706D01*
X051493Y026804D02*
X045578Y026804D01*
X045578Y026903D02*
X051493Y026903D01*
X051493Y027001D02*
X045578Y027001D01*
X045578Y027100D02*
X051493Y027100D01*
X051493Y027198D02*
X045578Y027198D01*
X045578Y027297D02*
X051493Y027297D01*
X051493Y027395D02*
X045578Y027395D01*
X045578Y027494D02*
X051493Y027494D01*
X051493Y027592D02*
X045578Y027592D01*
X045578Y027691D02*
X051493Y027691D01*
X051493Y027789D02*
X045578Y027789D01*
X045578Y027888D02*
X051493Y027888D01*
X051493Y027986D02*
X045578Y027986D01*
X045578Y028085D02*
X051493Y028085D01*
X051493Y028183D02*
X045578Y028183D01*
X045578Y028282D02*
X051493Y028282D01*
X051493Y028380D02*
X045578Y028380D01*
X045578Y028479D02*
X051493Y028479D01*
X051493Y028577D02*
X045578Y028577D01*
X045578Y028676D02*
X051493Y028676D01*
X051493Y028774D02*
X045578Y028774D01*
X045578Y028873D02*
X051493Y028873D01*
X051493Y028971D02*
X045578Y028971D01*
X045578Y029070D02*
X051493Y029070D01*
X051493Y029168D02*
X045578Y029168D01*
X045578Y029267D02*
X051493Y029267D01*
X051493Y029365D02*
X045578Y029365D01*
X045578Y029464D02*
X051493Y029464D01*
X051493Y029562D02*
X045578Y029562D01*
X045578Y029661D02*
X051493Y029661D01*
X051493Y029759D02*
X045578Y029759D01*
X045578Y029858D02*
X051493Y029858D01*
X051493Y029956D02*
X045578Y029956D01*
X045578Y030055D02*
X051493Y030055D01*
X051493Y030153D02*
X045578Y030153D01*
X045578Y030252D02*
X051493Y030252D01*
X051493Y030350D02*
X045578Y030350D01*
X045578Y030449D02*
X050558Y030449D01*
X050669Y030403D02*
X050917Y030403D01*
X051146Y030497D01*
X051321Y030672D01*
X051416Y030901D01*
X051416Y031149D01*
X051321Y031378D01*
X051146Y031553D01*
X050917Y031647D01*
X050669Y031647D01*
X050441Y031553D01*
X050266Y031378D01*
X050171Y031149D01*
X050171Y030901D01*
X050266Y030672D01*
X050441Y030497D01*
X050669Y030403D01*
X050391Y030547D02*
X045578Y030547D01*
X045578Y030646D02*
X050292Y030646D01*
X050236Y030744D02*
X045486Y030744D01*
X044867Y030941D02*
X050171Y030941D01*
X050171Y031040D02*
X044878Y031040D01*
X044855Y031138D02*
X050171Y031138D01*
X050207Y031237D02*
X044785Y031237D01*
X044402Y031237D02*
X035376Y031237D01*
X035378Y031232D02*
X035335Y031336D01*
X035255Y031417D01*
X035150Y031460D01*
X035037Y031460D01*
X034932Y031417D01*
X034852Y031336D01*
X034808Y031232D01*
X034808Y031118D01*
X034852Y031014D01*
X034932Y030933D01*
X035037Y030890D01*
X035150Y030890D01*
X035255Y030933D01*
X035335Y031014D01*
X035378Y031118D01*
X035378Y031232D01*
X035378Y031138D02*
X044332Y031138D01*
X044308Y031040D02*
X037449Y031040D01*
X037400Y031060D02*
X037287Y031060D01*
X037182Y031017D01*
X037102Y030936D01*
X037058Y030832D01*
X037058Y030718D01*
X037102Y030614D01*
X037182Y030533D01*
X037287Y030490D01*
X037400Y030490D01*
X037505Y030533D01*
X037585Y030614D01*
X037628Y030718D01*
X037628Y030832D01*
X037585Y030936D01*
X037505Y031017D01*
X037400Y031060D01*
X037237Y031040D02*
X035346Y031040D01*
X035262Y030941D02*
X037106Y030941D01*
X037063Y030843D02*
X033493Y030843D01*
X033493Y030941D02*
X034924Y030941D01*
X034841Y031040D02*
X033493Y031040D01*
X033493Y031138D02*
X034808Y031138D01*
X034810Y031237D02*
X033493Y031237D01*
X033493Y031335D02*
X034851Y031335D01*
X034973Y031434D02*
X033493Y031434D01*
X033493Y031532D02*
X050420Y031532D01*
X050322Y031434D02*
X035214Y031434D01*
X035335Y031335D02*
X050248Y031335D01*
X050629Y031631D02*
X033493Y031631D01*
X033493Y031729D02*
X051493Y031729D01*
X051493Y031631D02*
X050958Y031631D01*
X051167Y031532D02*
X051493Y031532D01*
X051493Y031434D02*
X051265Y031434D01*
X051339Y031335D02*
X051493Y031335D01*
X051493Y031237D02*
X051379Y031237D01*
X051416Y031138D02*
X051493Y031138D01*
X051493Y031040D02*
X051416Y031040D01*
X051416Y030941D02*
X051493Y030941D01*
X051493Y030843D02*
X051391Y030843D01*
X051351Y030744D02*
X051493Y030744D01*
X051493Y030646D02*
X051294Y030646D01*
X051196Y030547D02*
X051493Y030547D01*
X051493Y030449D02*
X051028Y030449D01*
X051693Y030449D02*
X055993Y030449D01*
X055993Y030547D02*
X051693Y030547D01*
X051693Y030646D02*
X055993Y030646D01*
X055993Y030744D02*
X051693Y030744D01*
X051693Y030843D02*
X055993Y030843D01*
X055993Y030941D02*
X051693Y030941D01*
X051693Y031040D02*
X055993Y031040D01*
X055993Y031138D02*
X051693Y031138D01*
X051693Y031237D02*
X055993Y031237D01*
X055993Y031335D02*
X051693Y031335D01*
X051693Y031434D02*
X055993Y031434D01*
X055993Y031532D02*
X051693Y031532D01*
X051693Y031631D02*
X055993Y031631D01*
X055993Y031729D02*
X051693Y031729D01*
X051693Y031828D02*
X055993Y031828D01*
X055993Y031926D02*
X051693Y031926D01*
X051693Y032025D02*
X055993Y032025D01*
X055993Y032123D02*
X051693Y032123D01*
X051693Y032222D02*
X055993Y032222D01*
X055993Y032320D02*
X051693Y032320D01*
X051493Y031926D02*
X033493Y031926D01*
X033493Y031828D02*
X051493Y031828D01*
X051693Y030350D02*
X055993Y030350D01*
X055993Y030252D02*
X051693Y030252D01*
X051693Y030153D02*
X055993Y030153D01*
X055993Y030055D02*
X051693Y030055D01*
X051693Y029956D02*
X055993Y029956D01*
X055993Y029858D02*
X051693Y029858D01*
X051693Y029759D02*
X055993Y029759D01*
X055993Y029661D02*
X051693Y029661D01*
X051693Y029562D02*
X055993Y029562D01*
X055993Y029464D02*
X051693Y029464D01*
X051693Y029365D02*
X055993Y029365D01*
X055993Y029267D02*
X051693Y029267D01*
X051693Y029168D02*
X055993Y029168D01*
X055993Y029070D02*
X051693Y029070D01*
X051693Y028971D02*
X055993Y028971D01*
X055993Y028873D02*
X051693Y028873D01*
X051693Y028774D02*
X055993Y028774D01*
X055993Y028676D02*
X051693Y028676D01*
X051693Y028577D02*
X055993Y028577D01*
X055993Y028479D02*
X051693Y028479D01*
X051693Y028380D02*
X055993Y028380D01*
X055993Y028282D02*
X051693Y028282D01*
X051693Y028183D02*
X055993Y028183D01*
X055993Y028085D02*
X053524Y028085D01*
X053481Y028128D02*
X053083Y028128D01*
X052802Y027847D01*
X052802Y027449D01*
X053083Y027168D01*
X053481Y027168D01*
X053762Y027449D01*
X053762Y027847D01*
X053481Y028128D01*
X053623Y027986D02*
X055993Y027986D01*
X055993Y027888D02*
X053721Y027888D01*
X053762Y027789D02*
X055993Y027789D01*
X055993Y027691D02*
X053762Y027691D01*
X053762Y027592D02*
X055993Y027592D01*
X055993Y027494D02*
X053762Y027494D01*
X053708Y027395D02*
X055993Y027395D01*
X055993Y027297D02*
X053610Y027297D01*
X053511Y027198D02*
X055993Y027198D01*
X055993Y027100D02*
X053509Y027100D01*
X053481Y027128D02*
X053083Y027128D01*
X052802Y026847D01*
X052802Y026449D01*
X053083Y026168D01*
X053481Y026168D01*
X053762Y026449D01*
X053762Y026847D01*
X053481Y027128D01*
X053608Y027001D02*
X055993Y027001D01*
X055993Y026903D02*
X053706Y026903D01*
X053762Y026804D02*
X055993Y026804D01*
X055993Y026706D02*
X053762Y026706D01*
X053762Y026607D02*
X055993Y026607D01*
X055993Y026509D02*
X053762Y026509D01*
X053723Y026410D02*
X055993Y026410D01*
X055993Y026312D02*
X053625Y026312D01*
X053526Y026213D02*
X055993Y026213D01*
X055993Y026115D02*
X051693Y026115D01*
X051693Y026213D02*
X052038Y026213D01*
X052083Y026168D02*
X051802Y026449D01*
X051802Y026847D01*
X052083Y027128D01*
X052481Y027128D01*
X052762Y026847D01*
X052762Y026449D01*
X052481Y026168D01*
X052083Y026168D01*
X051940Y026312D02*
X051693Y026312D01*
X051693Y026410D02*
X051841Y026410D01*
X051802Y026509D02*
X051693Y026509D01*
X051693Y026607D02*
X051802Y026607D01*
X051802Y026706D02*
X051693Y026706D01*
X051693Y026804D02*
X051802Y026804D01*
X051858Y026903D02*
X051693Y026903D01*
X051693Y027001D02*
X051957Y027001D01*
X052055Y027100D02*
X051693Y027100D01*
X051693Y027198D02*
X052053Y027198D01*
X052083Y027168D02*
X052481Y027168D01*
X052762Y027449D01*
X052762Y027847D01*
X052481Y028128D01*
X052083Y028128D01*
X051802Y027847D01*
X051802Y027449D01*
X052083Y027168D01*
X051955Y027297D02*
X051693Y027297D01*
X051693Y027395D02*
X051856Y027395D01*
X051802Y027494D02*
X051693Y027494D01*
X051693Y027592D02*
X051802Y027592D01*
X051802Y027691D02*
X051693Y027691D01*
X051693Y027789D02*
X051802Y027789D01*
X051843Y027888D02*
X051693Y027888D01*
X051693Y027986D02*
X051942Y027986D01*
X052040Y028085D02*
X051693Y028085D01*
X052524Y028085D02*
X053040Y028085D01*
X052942Y027986D02*
X052623Y027986D01*
X052721Y027888D02*
X052843Y027888D01*
X052802Y027789D02*
X052762Y027789D01*
X052762Y027691D02*
X052802Y027691D01*
X052802Y027592D02*
X052762Y027592D01*
X052762Y027494D02*
X052802Y027494D01*
X052856Y027395D02*
X052708Y027395D01*
X052610Y027297D02*
X052955Y027297D01*
X053053Y027198D02*
X052511Y027198D01*
X052509Y027100D02*
X053055Y027100D01*
X052957Y027001D02*
X052608Y027001D01*
X052706Y026903D02*
X052858Y026903D01*
X052802Y026804D02*
X052762Y026804D01*
X052762Y026706D02*
X052802Y026706D01*
X052802Y026607D02*
X052762Y026607D01*
X052762Y026509D02*
X052802Y026509D01*
X052841Y026410D02*
X052723Y026410D01*
X052625Y026312D02*
X052940Y026312D01*
X053038Y026213D02*
X052526Y026213D01*
X051693Y026016D02*
X055993Y026016D01*
X055993Y025918D02*
X051693Y025918D01*
X051693Y025819D02*
X055993Y025819D01*
X055993Y025721D02*
X051693Y025721D01*
X051693Y025622D02*
X055993Y025622D01*
X055993Y025524D02*
X051693Y025524D01*
X051693Y025425D02*
X055993Y025425D01*
X055993Y025327D02*
X051693Y025327D01*
X051693Y025228D02*
X055993Y025228D01*
X055993Y025130D02*
X051693Y025130D01*
X051693Y025031D02*
X055993Y025031D01*
X055993Y024933D02*
X051693Y024933D01*
X051693Y024834D02*
X055993Y024834D01*
X055993Y024736D02*
X051693Y024736D01*
X051693Y024637D02*
X055993Y024637D01*
X055993Y024539D02*
X051693Y024539D01*
X051693Y024440D02*
X055993Y024440D01*
X055993Y024342D02*
X051693Y024342D01*
X051693Y024243D02*
X055993Y024243D01*
X055993Y024145D02*
X051693Y024145D01*
X051693Y024046D02*
X055993Y024046D01*
X055993Y023948D02*
X051693Y023948D01*
X051693Y023849D02*
X055993Y023849D01*
X055993Y023751D02*
X051693Y023751D01*
X051693Y023652D02*
X055993Y023652D01*
X055993Y023554D02*
X051693Y023554D01*
X051693Y023455D02*
X055993Y023455D01*
X055993Y023357D02*
X051693Y023357D01*
X051693Y023258D02*
X055993Y023258D01*
X055993Y023160D02*
X051693Y023160D01*
X051693Y023061D02*
X055993Y023061D01*
X055993Y022963D02*
X051693Y022963D01*
X051693Y022864D02*
X055993Y022864D01*
X055993Y022766D02*
X051693Y022766D01*
X051693Y022667D02*
X055993Y022667D01*
X055993Y022569D02*
X051693Y022569D01*
X051693Y022470D02*
X055993Y022470D01*
X055993Y022372D02*
X051693Y022372D01*
X051693Y022273D02*
X055993Y022273D01*
X055993Y022175D02*
X051693Y022175D01*
X051693Y022076D02*
X055993Y022076D01*
X055993Y021978D02*
X051693Y021978D01*
X051693Y021879D02*
X055993Y021879D01*
X055993Y021781D02*
X051693Y021781D01*
X051693Y021682D02*
X055993Y021682D01*
X055993Y021584D02*
X051693Y021584D01*
X051693Y021485D02*
X055993Y021485D01*
X055993Y021387D02*
X051693Y021387D01*
X051693Y021288D02*
X055993Y021288D01*
X055993Y021190D02*
X051693Y021190D01*
X051693Y021091D02*
X055993Y021091D01*
X055993Y020993D02*
X051693Y020993D01*
X051693Y020894D02*
X055993Y020894D01*
X055993Y020796D02*
X051693Y020796D01*
X051693Y020697D02*
X055993Y020697D01*
X055993Y020599D02*
X051693Y020599D01*
X051693Y020500D02*
X055993Y020500D01*
X055993Y020402D02*
X051693Y020402D01*
X051693Y020303D02*
X055993Y020303D01*
X055993Y020205D02*
X051693Y020205D01*
X051693Y020106D02*
X055993Y020106D01*
X055993Y020008D02*
X051693Y020008D01*
X051693Y019909D02*
X055993Y019909D01*
X055993Y019811D02*
X051693Y019811D01*
X051693Y019712D02*
X055993Y019712D01*
X055993Y019614D02*
X051693Y019614D01*
X051693Y019515D02*
X055993Y019515D01*
X055993Y019417D02*
X051693Y019417D01*
X051693Y019318D02*
X055993Y019318D01*
X055993Y019220D02*
X051693Y019220D01*
X051693Y019121D02*
X055993Y019121D01*
X055993Y019023D02*
X051693Y019023D01*
X051693Y018924D02*
X055993Y018924D01*
X055993Y018826D02*
X051693Y018826D01*
X051693Y018727D02*
X055993Y018727D01*
X055993Y018629D02*
X051693Y018629D01*
X051693Y018530D02*
X055993Y018530D01*
X055993Y018432D02*
X051693Y018432D01*
X051693Y018333D02*
X055993Y018333D01*
X055993Y018235D02*
X051693Y018235D01*
X051693Y018136D02*
X055993Y018136D01*
X055993Y018038D02*
X051693Y018038D01*
X051693Y017939D02*
X055993Y017939D01*
X055993Y017841D02*
X051693Y017841D01*
X051693Y017742D02*
X055993Y017742D01*
X055993Y017644D02*
X051693Y017644D01*
X051693Y017545D02*
X055993Y017545D01*
X055993Y017447D02*
X051693Y017447D01*
X051693Y017348D02*
X055993Y017348D01*
X055993Y017250D02*
X051693Y017250D01*
X051693Y017151D02*
X055993Y017151D01*
X055993Y017053D02*
X051693Y017053D01*
X051693Y016954D02*
X055993Y016954D01*
X055993Y016856D02*
X051693Y016856D01*
X051693Y016757D02*
X055993Y016757D01*
X055993Y016659D02*
X051693Y016659D01*
X051693Y016560D02*
X055993Y016560D01*
X055993Y016462D02*
X051693Y016462D01*
X051693Y016363D02*
X055993Y016363D01*
X055993Y016265D02*
X051693Y016265D01*
X051693Y016166D02*
X055993Y016166D01*
X055993Y016068D02*
X051693Y016068D01*
X051693Y015969D02*
X055993Y015969D01*
X055993Y015871D02*
X051693Y015871D01*
X051693Y015772D02*
X055993Y015772D01*
X055993Y015674D02*
X051693Y015674D01*
X051693Y015575D02*
X055993Y015575D01*
X055993Y015477D02*
X051693Y015477D01*
X051693Y015378D02*
X055993Y015378D01*
X055993Y015280D02*
X051693Y015280D01*
X051693Y015181D02*
X055993Y015181D01*
X055993Y015083D02*
X051693Y015083D01*
X051693Y014984D02*
X055993Y014984D01*
X055993Y014886D02*
X051693Y014886D01*
X051693Y014787D02*
X055993Y014787D01*
X055993Y014689D02*
X051693Y014689D01*
X051693Y014590D02*
X055993Y014590D01*
X055993Y014492D02*
X051693Y014492D01*
X051693Y014393D02*
X055993Y014393D01*
X055993Y014295D02*
X051646Y014295D01*
X051372Y011410D02*
X050809Y010847D01*
X025860Y010847D01*
X025958Y010749D02*
X050809Y010749D01*
X050809Y010847D02*
X050809Y010052D01*
X051372Y009489D01*
X052167Y009489D01*
X052730Y010052D01*
X052730Y010847D01*
X055993Y010847D01*
X055993Y010749D02*
X052730Y010749D01*
X052730Y010847D02*
X052167Y011410D01*
X051372Y011410D01*
X051302Y011340D02*
X020667Y011340D01*
X020569Y011438D02*
X055993Y011438D01*
X055993Y011340D02*
X052238Y011340D01*
X052336Y011241D02*
X055993Y011241D01*
X055993Y011143D02*
X052435Y011143D01*
X052533Y011044D02*
X055993Y011044D01*
X055993Y010946D02*
X052632Y010946D01*
X052730Y010650D02*
X055993Y010650D01*
X055993Y010552D02*
X052730Y010552D01*
X052730Y010453D02*
X055993Y010453D01*
X055993Y010355D02*
X052730Y010355D01*
X052730Y010256D02*
X055993Y010256D01*
X055993Y010158D02*
X052730Y010158D01*
X052730Y010059D02*
X055993Y010059D01*
X055993Y009961D02*
X052639Y009961D01*
X052540Y009862D02*
X055993Y009862D01*
X055993Y009764D02*
X052442Y009764D01*
X052343Y009665D02*
X055993Y009665D01*
X055993Y009567D02*
X052245Y009567D01*
X051295Y009567D02*
X045354Y009567D01*
X045255Y009665D02*
X051196Y009665D01*
X051098Y009764D02*
X045061Y009764D01*
X044912Y009825D02*
X044574Y009825D01*
X044262Y009696D01*
X044023Y009456D01*
X043893Y009144D01*
X043893Y008806D01*
X044023Y008494D01*
X044262Y008254D01*
X044574Y008125D01*
X044912Y008125D01*
X045225Y008254D01*
X045464Y008494D01*
X045593Y008806D01*
X045593Y009144D01*
X045464Y009456D01*
X045225Y009696D01*
X044912Y009825D01*
X044426Y009764D02*
X028343Y009764D01*
X028343Y009862D02*
X050999Y009862D01*
X050901Y009961D02*
X028343Y009961D01*
X028343Y010059D02*
X050809Y010059D01*
X050809Y010158D02*
X028343Y010158D01*
X028343Y010256D02*
X050809Y010256D01*
X050809Y010355D02*
X028343Y010355D01*
X028343Y010453D02*
X050809Y010453D01*
X050809Y010552D02*
X028343Y010552D01*
X028301Y010650D02*
X050809Y010650D01*
X050908Y010946D02*
X025761Y010946D01*
X025663Y011044D02*
X051006Y011044D01*
X051105Y011143D02*
X025564Y011143D01*
X025278Y010552D02*
X025046Y010552D01*
X025144Y010453D02*
X025342Y010453D01*
X025263Y010355D02*
X025223Y010355D01*
X025223Y010256D02*
X025263Y010256D01*
X025263Y010158D02*
X025223Y010158D01*
X025223Y010059D02*
X025263Y010059D01*
X025279Y009961D02*
X025208Y009961D01*
X025109Y009862D02*
X025377Y009862D01*
X025476Y009764D02*
X025011Y009764D01*
X025031Y009567D02*
X025456Y009567D01*
X025357Y009468D02*
X025129Y009468D01*
X024456Y009567D02*
X015393Y009567D01*
X015393Y009665D02*
X017100Y009665D01*
X017132Y009633D02*
X017237Y009590D01*
X017350Y009590D01*
X017455Y009633D01*
X017535Y009714D01*
X017578Y009818D01*
X017578Y009932D01*
X017535Y010036D01*
X017455Y010117D01*
X017350Y010160D01*
X017237Y010160D01*
X017132Y010117D01*
X017052Y010036D01*
X017008Y009932D01*
X017008Y009818D01*
X017052Y009714D01*
X017132Y009633D01*
X017031Y009764D02*
X015393Y009764D01*
X015393Y009862D02*
X017008Y009862D01*
X017020Y009961D02*
X015393Y009961D01*
X015393Y010059D02*
X017074Y010059D01*
X017231Y010158D02*
X015393Y010158D01*
X015393Y010256D02*
X023263Y010256D01*
X023263Y010158D02*
X017356Y010158D01*
X017512Y010059D02*
X023263Y010059D01*
X023279Y009961D02*
X017566Y009961D01*
X017578Y009862D02*
X023377Y009862D01*
X023476Y009764D02*
X017556Y009764D01*
X017486Y009665D02*
X026143Y009665D01*
X026143Y009567D02*
X026031Y009567D01*
X026129Y009468D02*
X026143Y009468D01*
X026343Y009468D02*
X027143Y009468D01*
X027143Y009370D02*
X026343Y009370D01*
X026343Y009271D02*
X027143Y009271D01*
X027143Y009173D02*
X026343Y009173D01*
X026343Y009074D02*
X027143Y009074D01*
X027143Y008976D02*
X026343Y008976D01*
X026343Y008877D02*
X027143Y008877D01*
X027143Y008779D02*
X026343Y008779D01*
X026343Y008725D02*
X026343Y010525D01*
X027143Y010525D01*
X027143Y008725D01*
X026343Y008725D01*
X026143Y008779D02*
X026026Y008779D01*
X026104Y008680D02*
X025943Y008680D01*
X025943Y008582D02*
X026093Y008582D01*
X026093Y008483D02*
X025943Y008483D01*
X025943Y008385D02*
X026093Y008385D01*
X026093Y008286D02*
X025943Y008286D01*
X025943Y008188D02*
X026093Y008188D01*
X026093Y008089D02*
X025943Y008089D01*
X025943Y007991D02*
X026116Y007991D01*
X026145Y007892D02*
X025943Y007892D01*
X025943Y007794D02*
X026186Y007794D01*
X026226Y007695D02*
X025943Y007695D01*
X025943Y007597D02*
X026303Y007597D01*
X026401Y007498D02*
X025868Y007498D01*
X025773Y007400D02*
X026500Y007400D01*
X026598Y007301D02*
X025677Y007301D01*
X025581Y007203D02*
X026697Y007203D01*
X026795Y007104D02*
X025485Y007104D01*
X025389Y007006D02*
X026894Y007006D01*
X026992Y006907D02*
X025293Y006907D01*
X025198Y006809D02*
X027091Y006809D01*
X027189Y006710D02*
X025102Y006710D01*
X025006Y006612D02*
X027288Y006612D01*
X027386Y006513D02*
X024910Y006513D01*
X024814Y006415D02*
X027485Y006415D01*
X027583Y006316D02*
X024718Y006316D01*
X024622Y006218D02*
X027682Y006218D01*
X027858Y006119D02*
X024527Y006119D01*
X024431Y006021D02*
X043401Y006021D01*
X043302Y006119D02*
X041174Y006119D01*
X041272Y006218D02*
X043204Y006218D01*
X043203Y006316D02*
X041371Y006316D01*
X041469Y006415D02*
X043203Y006415D01*
X043203Y006513D02*
X041491Y006513D01*
X041491Y006612D02*
X043203Y006612D01*
X043203Y006710D02*
X041491Y006710D01*
X041491Y006809D02*
X043203Y006809D01*
X043278Y006907D02*
X041491Y006907D01*
X041491Y007006D02*
X043377Y007006D01*
X043475Y007104D02*
X041401Y007104D01*
X041302Y007203D02*
X043574Y007203D01*
X044313Y007203D02*
X045423Y007203D01*
X045423Y007301D02*
X041204Y007301D01*
X041105Y007400D02*
X045423Y007400D01*
X045423Y007498D02*
X040940Y007498D01*
X040841Y007597D02*
X045423Y007597D01*
X045423Y007695D02*
X040743Y007695D01*
X040644Y007794D02*
X045423Y007794D01*
X045423Y007892D02*
X040546Y007892D01*
X040447Y007991D02*
X045423Y007991D01*
X045423Y008062D02*
X045423Y006953D01*
X045511Y006866D01*
X046107Y006866D01*
X046195Y006953D01*
X046195Y008062D01*
X046107Y008150D01*
X046021Y008150D01*
X046085Y008214D01*
X046128Y008318D01*
X046128Y008432D01*
X046085Y008536D01*
X046005Y008617D01*
X045900Y008660D01*
X045787Y008660D01*
X045682Y008617D01*
X045602Y008536D01*
X045558Y008432D01*
X045558Y008318D01*
X045599Y008220D01*
X045599Y008150D01*
X045511Y008150D01*
X045423Y008062D01*
X045450Y008089D02*
X040349Y008089D01*
X040250Y008188D02*
X044423Y008188D01*
X044230Y008286D02*
X040152Y008286D01*
X040053Y008385D02*
X044132Y008385D01*
X044033Y008483D02*
X039955Y008483D01*
X039856Y008582D02*
X043986Y008582D01*
X043945Y008680D02*
X039758Y008680D01*
X039656Y008779D02*
X043905Y008779D01*
X043893Y008877D02*
X028861Y008877D01*
X028762Y008976D02*
X043893Y008976D01*
X043893Y009074D02*
X028664Y009074D01*
X028565Y009173D02*
X043905Y009173D01*
X043946Y009271D02*
X028467Y009271D01*
X028368Y009370D02*
X043987Y009370D01*
X044034Y009468D02*
X028343Y009468D01*
X028343Y009567D02*
X044133Y009567D01*
X044231Y009665D02*
X028343Y009665D01*
X028143Y009665D02*
X027343Y009665D01*
X027343Y009567D02*
X028143Y009567D01*
X028143Y009468D02*
X027343Y009468D01*
X027343Y009370D02*
X028143Y009370D01*
X028143Y009271D02*
X027343Y009271D01*
X027343Y009173D02*
X028143Y009173D01*
X028143Y009074D02*
X027343Y009074D01*
X027343Y008976D02*
X028143Y008976D01*
X028143Y008877D02*
X027343Y008877D01*
X027343Y008779D02*
X028143Y008779D01*
X028143Y008725D02*
X027343Y008725D01*
X027343Y010525D01*
X028143Y010525D01*
X028143Y008725D01*
X027613Y008286D02*
X027452Y008286D01*
X027393Y008385D02*
X027515Y008385D01*
X027416Y008483D02*
X027393Y008483D01*
X027550Y008188D02*
X027712Y008188D01*
X027649Y008089D02*
X027810Y008089D01*
X027747Y007991D02*
X027909Y007991D01*
X027846Y007892D02*
X028007Y007892D01*
X027944Y007794D02*
X028106Y007794D01*
X028043Y007695D02*
X028204Y007695D01*
X028141Y007597D02*
X028412Y007597D01*
X028240Y007498D02*
X039101Y007498D01*
X039200Y007400D02*
X033605Y007400D01*
X033704Y007301D02*
X039298Y007301D01*
X039397Y007203D02*
X033802Y007203D01*
X033901Y007104D02*
X039495Y007104D01*
X039594Y007006D02*
X033991Y007006D01*
X033991Y006907D02*
X039692Y006907D01*
X039791Y006809D02*
X033991Y006809D01*
X033991Y006710D02*
X039889Y006710D01*
X039988Y006612D02*
X033991Y006612D01*
X033991Y006513D02*
X040086Y006513D01*
X040117Y006415D02*
X033969Y006415D01*
X033871Y006316D02*
X040216Y006316D01*
X040314Y006218D02*
X033772Y006218D01*
X033674Y006119D02*
X040413Y006119D01*
X044486Y006021D02*
X055706Y006021D01*
X055804Y006119D02*
X048359Y006119D01*
X048346Y006105D02*
X048452Y006211D01*
X048509Y006350D01*
X048509Y006500D01*
X048452Y006639D01*
X048346Y006745D01*
X048207Y006802D01*
X048057Y006802D01*
X047918Y006745D01*
X047812Y006639D01*
X047755Y006500D01*
X047755Y006350D01*
X047812Y006211D01*
X047918Y006105D01*
X048057Y006048D01*
X048207Y006048D01*
X048346Y006105D01*
X048454Y006218D02*
X055903Y006218D01*
X055993Y006316D02*
X048495Y006316D01*
X048509Y006415D02*
X051611Y006415D01*
X051667Y006391D02*
X051872Y006391D01*
X052061Y006470D01*
X052206Y006614D01*
X052285Y006804D01*
X052285Y007009D01*
X052206Y007198D01*
X052061Y007343D01*
X051872Y007421D01*
X051667Y007421D01*
X051478Y007343D01*
X051333Y007198D01*
X051255Y007009D01*
X051255Y006804D01*
X051333Y006614D01*
X051478Y006470D01*
X051667Y006391D01*
X051435Y006513D02*
X048504Y006513D01*
X048463Y006612D02*
X051336Y006612D01*
X051294Y006710D02*
X048380Y006710D01*
X047884Y006710D02*
X045703Y006710D01*
X045668Y006745D02*
X045530Y006802D01*
X045380Y006802D01*
X045241Y006745D01*
X045135Y006639D01*
X045078Y006500D01*
X045078Y006350D01*
X045135Y006211D01*
X045241Y006105D01*
X045380Y006048D01*
X045530Y006048D01*
X045668Y006105D01*
X045774Y006211D01*
X045832Y006350D01*
X045832Y006500D01*
X045774Y006639D01*
X045668Y006745D01*
X045786Y006612D02*
X047801Y006612D01*
X047760Y006513D02*
X045827Y006513D01*
X045832Y006415D02*
X047755Y006415D01*
X047769Y006316D02*
X045818Y006316D01*
X045777Y006218D02*
X047810Y006218D01*
X047904Y006119D02*
X045682Y006119D01*
X045227Y006119D02*
X044585Y006119D01*
X044683Y006218D02*
X045132Y006218D01*
X045092Y006316D02*
X044684Y006316D01*
X044684Y006415D02*
X045078Y006415D01*
X045083Y006513D02*
X044684Y006513D01*
X044684Y006612D02*
X045124Y006612D01*
X045206Y006710D02*
X044684Y006710D01*
X044684Y006809D02*
X051255Y006809D01*
X051255Y006907D02*
X050429Y006907D01*
X050355Y006833D02*
X050860Y007338D01*
X050860Y008052D01*
X050355Y008557D01*
X049641Y008557D01*
X049136Y008052D01*
X049136Y007338D01*
X049641Y006833D01*
X050355Y006833D01*
X050527Y007006D02*
X051255Y007006D01*
X051294Y007104D02*
X050626Y007104D01*
X050724Y007203D02*
X051338Y007203D01*
X051436Y007301D02*
X050823Y007301D01*
X050860Y007400D02*
X051615Y007400D01*
X051924Y007400D02*
X052680Y007400D01*
X052680Y007338D02*
X053184Y006833D01*
X053898Y006833D01*
X054403Y007338D01*
X054403Y008052D01*
X053898Y008557D01*
X053184Y008557D01*
X052680Y008052D01*
X052680Y007338D01*
X052717Y007301D02*
X052103Y007301D01*
X052202Y007203D02*
X052815Y007203D01*
X052914Y007104D02*
X052245Y007104D01*
X052285Y007006D02*
X053012Y007006D01*
X053111Y006907D02*
X052285Y006907D01*
X052285Y006809D02*
X055993Y006809D01*
X055993Y006907D02*
X053972Y006907D01*
X054071Y007006D02*
X055993Y007006D01*
X055993Y007104D02*
X054169Y007104D01*
X054268Y007203D02*
X055993Y007203D01*
X055993Y007301D02*
X054366Y007301D01*
X054403Y007400D02*
X055993Y007400D01*
X055993Y007498D02*
X054403Y007498D01*
X054403Y007597D02*
X055993Y007597D01*
X055993Y007695D02*
X054403Y007695D01*
X054403Y007794D02*
X055993Y007794D01*
X055993Y007892D02*
X054403Y007892D01*
X054403Y007991D02*
X055993Y007991D01*
X055993Y008089D02*
X054366Y008089D01*
X054268Y008188D02*
X055993Y008188D01*
X055993Y008286D02*
X054169Y008286D01*
X054071Y008385D02*
X055993Y008385D01*
X055993Y008483D02*
X053972Y008483D01*
X053111Y008483D02*
X050429Y008483D01*
X050527Y008385D02*
X053012Y008385D01*
X052914Y008286D02*
X050626Y008286D01*
X050724Y008188D02*
X052815Y008188D01*
X052717Y008089D02*
X050823Y008089D01*
X050860Y007991D02*
X052680Y007991D01*
X052680Y007892D02*
X050860Y007892D01*
X050860Y007794D02*
X052680Y007794D01*
X052680Y007695D02*
X050860Y007695D01*
X050860Y007597D02*
X052680Y007597D01*
X052680Y007498D02*
X050860Y007498D01*
X049567Y006907D02*
X047133Y006907D01*
X047092Y006866D02*
X047180Y006953D01*
X047180Y008062D01*
X047092Y008150D01*
X047003Y008150D01*
X047003Y008182D01*
X047035Y008214D01*
X047078Y008318D01*
X047078Y008432D01*
X047035Y008536D01*
X046955Y008617D01*
X046850Y008660D01*
X046737Y008660D01*
X046632Y008617D01*
X046552Y008536D01*
X046508Y008432D01*
X046508Y008318D01*
X046552Y008214D01*
X046583Y008182D01*
X046583Y008150D01*
X046495Y008150D01*
X046407Y008062D01*
X046407Y006953D01*
X046495Y006866D01*
X047092Y006866D01*
X047180Y007006D02*
X049469Y007006D01*
X049370Y007104D02*
X047180Y007104D01*
X047180Y007203D02*
X049272Y007203D01*
X049173Y007301D02*
X047180Y007301D01*
X047180Y007400D02*
X049136Y007400D01*
X049136Y007498D02*
X047180Y007498D01*
X047180Y007597D02*
X049136Y007597D01*
X049136Y007695D02*
X047180Y007695D01*
X047180Y007794D02*
X049136Y007794D01*
X049136Y007892D02*
X047180Y007892D01*
X047180Y007991D02*
X049136Y007991D01*
X049173Y008089D02*
X047152Y008089D01*
X047009Y008188D02*
X049272Y008188D01*
X049370Y008286D02*
X047065Y008286D01*
X047078Y008385D02*
X049469Y008385D01*
X049567Y008483D02*
X047057Y008483D01*
X046990Y008582D02*
X055993Y008582D01*
X055993Y008680D02*
X045541Y008680D01*
X045500Y008582D02*
X045647Y008582D01*
X045580Y008483D02*
X045453Y008483D01*
X045355Y008385D02*
X045558Y008385D01*
X045572Y008286D02*
X045256Y008286D01*
X045063Y008188D02*
X045599Y008188D01*
X046059Y008188D02*
X046578Y008188D01*
X046522Y008286D02*
X046115Y008286D01*
X046128Y008385D02*
X046508Y008385D01*
X046530Y008483D02*
X046107Y008483D01*
X046040Y008582D02*
X046597Y008582D01*
X046434Y008089D02*
X046168Y008089D01*
X046195Y007991D02*
X046407Y007991D01*
X046407Y007892D02*
X046195Y007892D01*
X046195Y007794D02*
X046407Y007794D01*
X046407Y007695D02*
X046195Y007695D01*
X046195Y007597D02*
X046407Y007597D01*
X046407Y007498D02*
X046195Y007498D01*
X046195Y007400D02*
X046407Y007400D01*
X046407Y007301D02*
X046195Y007301D01*
X046195Y007203D02*
X046407Y007203D01*
X046407Y007104D02*
X046195Y007104D01*
X046195Y007006D02*
X046407Y007006D01*
X046454Y006907D02*
X046149Y006907D01*
X045469Y006907D02*
X044609Y006907D01*
X044510Y007006D02*
X045423Y007006D01*
X045423Y007104D02*
X044412Y007104D01*
X045582Y008779D02*
X055993Y008779D01*
X055993Y008877D02*
X045593Y008877D01*
X045593Y008976D02*
X055993Y008976D01*
X055993Y009074D02*
X045593Y009074D01*
X045582Y009173D02*
X055993Y009173D01*
X055993Y009271D02*
X045541Y009271D01*
X045500Y009370D02*
X055993Y009370D01*
X055993Y009468D02*
X045452Y009468D01*
X045300Y013507D02*
X015393Y013507D01*
X015393Y013605D02*
X045399Y013605D01*
X045497Y013704D02*
X015393Y013704D01*
X015393Y013802D02*
X045596Y013802D01*
X051203Y011241D02*
X020766Y011241D01*
X020515Y011537D02*
X055993Y011537D01*
X055993Y011635D02*
X020474Y011635D01*
X020381Y011734D02*
X055993Y011734D01*
X055993Y011832D02*
X015393Y011832D01*
X015393Y011734D02*
X019906Y011734D01*
X019812Y011635D02*
X015393Y011635D01*
X015393Y011537D02*
X019771Y011537D01*
X019757Y011438D02*
X015393Y011438D01*
X015393Y011340D02*
X019761Y011340D01*
X019801Y011241D02*
X015393Y011241D01*
X015393Y011143D02*
X019880Y011143D01*
X020054Y011044D02*
X015393Y011044D01*
X015393Y010946D02*
X020184Y010946D01*
X020283Y010847D02*
X015393Y010847D01*
X015393Y010749D02*
X020381Y010749D01*
X020497Y010650D02*
X015393Y010650D01*
X015393Y010552D02*
X023441Y010552D01*
X023342Y010453D02*
X015393Y010453D01*
X015393Y010355D02*
X023263Y010355D01*
X024046Y010552D02*
X024441Y010552D01*
X024342Y010453D02*
X024144Y010453D01*
X024223Y010355D02*
X024263Y010355D01*
X024263Y010256D02*
X024223Y010256D01*
X024223Y010158D02*
X024263Y010158D01*
X024263Y010059D02*
X024223Y010059D01*
X024208Y009961D02*
X024279Y009961D01*
X024377Y009862D02*
X024109Y009862D01*
X024011Y009764D02*
X024476Y009764D01*
X024357Y009468D02*
X015393Y009468D01*
X015393Y009370D02*
X024263Y009370D01*
X024263Y009271D02*
X015393Y009271D01*
X015393Y009173D02*
X024263Y009173D01*
X024263Y009074D02*
X015393Y009074D01*
X015393Y008976D02*
X024264Y008976D01*
X024362Y008877D02*
X015393Y008877D01*
X015393Y008779D02*
X024461Y008779D01*
X024543Y008680D02*
X015393Y008680D01*
X015393Y008582D02*
X024543Y008582D01*
X024543Y008483D02*
X015393Y008483D01*
X015393Y008385D02*
X024543Y008385D01*
X024543Y008286D02*
X015393Y008286D01*
X015393Y008188D02*
X024543Y008188D01*
X024543Y008089D02*
X015393Y008089D01*
X015393Y007991D02*
X024543Y007991D01*
X024543Y007892D02*
X015393Y007892D01*
X015393Y007794D02*
X024543Y007794D01*
X024543Y007695D02*
X015393Y007695D01*
X015393Y007597D02*
X024543Y007597D01*
X024543Y007498D02*
X015393Y007498D01*
X015393Y007400D02*
X024543Y007400D01*
X024543Y007301D02*
X015393Y007301D01*
X015393Y007203D02*
X024543Y007203D01*
X024543Y007104D02*
X015393Y007104D01*
X021313Y007006D02*
X024543Y007006D01*
X024543Y006907D02*
X021411Y006907D01*
X021510Y006809D02*
X024527Y006809D01*
X024428Y006710D02*
X021608Y006710D01*
X021707Y006612D02*
X024330Y006612D01*
X024231Y006513D02*
X021805Y006513D01*
X021904Y006415D02*
X024133Y006415D01*
X024034Y006316D02*
X022002Y006316D01*
X026011Y009764D02*
X026143Y009764D01*
X026143Y009862D02*
X026109Y009862D01*
X026343Y009862D02*
X027143Y009862D01*
X027143Y009764D02*
X026343Y009764D01*
X026343Y009665D02*
X027143Y009665D01*
X027143Y009567D02*
X026343Y009567D01*
X026343Y009961D02*
X027143Y009961D01*
X027143Y010059D02*
X026343Y010059D01*
X026343Y010158D02*
X027143Y010158D01*
X027143Y010256D02*
X026343Y010256D01*
X026343Y010355D02*
X027143Y010355D01*
X027143Y010453D02*
X026343Y010453D01*
X026143Y010552D02*
X026053Y010552D01*
X026027Y010650D02*
X026185Y010650D01*
X027343Y010453D02*
X028143Y010453D01*
X028143Y010355D02*
X027343Y010355D01*
X027343Y010256D02*
X028143Y010256D01*
X028143Y010158D02*
X027343Y010158D01*
X027343Y010059D02*
X028143Y010059D01*
X028143Y009961D02*
X027343Y009961D01*
X027343Y009862D02*
X028143Y009862D01*
X028143Y009764D02*
X027343Y009764D01*
X026143Y008877D02*
X026124Y008877D01*
X028338Y007400D02*
X032981Y007400D01*
X031939Y015083D02*
X015393Y015083D01*
X015393Y015181D02*
X031799Y015181D01*
X031700Y015280D02*
X015393Y015280D01*
X015393Y015378D02*
X031602Y015378D01*
X031503Y015477D02*
X015456Y015477D01*
X015555Y015575D02*
X031405Y015575D01*
X031306Y015674D02*
X018688Y015674D01*
X018777Y015772D02*
X031208Y015772D01*
X031109Y015871D02*
X018818Y015871D01*
X018830Y015969D02*
X031011Y015969D01*
X030912Y016068D02*
X018823Y016068D01*
X018782Y016166D02*
X030814Y016166D01*
X030715Y016265D02*
X029693Y016265D01*
X029693Y016363D02*
X030617Y016363D01*
X030518Y016462D02*
X029693Y016462D01*
X029693Y016560D02*
X030420Y016560D01*
X030321Y016659D02*
X029693Y016659D01*
X029693Y016757D02*
X030223Y016757D01*
X030124Y016856D02*
X029693Y016856D01*
X029693Y016954D02*
X030026Y016954D01*
X029927Y017053D02*
X029693Y017053D01*
X029693Y017151D02*
X029829Y017151D01*
X029730Y017250D02*
X029693Y017250D01*
X029693Y020106D02*
X029733Y020106D01*
X029693Y022569D02*
X031497Y022569D01*
X031430Y022667D02*
X029693Y022667D01*
X029693Y022766D02*
X031408Y022766D01*
X031422Y022864D02*
X029693Y022864D01*
X027993Y022864D02*
X026653Y022864D01*
X026552Y022963D02*
X027993Y022963D01*
X027993Y023061D02*
X026451Y023061D01*
X026350Y023160D02*
X027993Y023160D01*
X027993Y023258D02*
X026249Y023258D01*
X026148Y023357D02*
X026696Y023357D01*
X026658Y023373D02*
X026811Y023309D01*
X026976Y023309D01*
X027129Y023373D01*
X027246Y023489D01*
X027309Y023642D01*
X027309Y023808D01*
X027246Y023961D01*
X027129Y024077D01*
X026976Y024141D01*
X026811Y024141D01*
X026658Y024077D01*
X026541Y023961D01*
X026478Y023808D01*
X026478Y023642D01*
X026541Y023489D01*
X026658Y023373D01*
X026575Y023455D02*
X026047Y023455D01*
X025946Y023554D02*
X026514Y023554D01*
X026478Y023652D02*
X025844Y023652D01*
X025743Y023751D02*
X026478Y023751D01*
X026495Y023849D02*
X025642Y023849D01*
X025541Y023948D02*
X026535Y023948D01*
X026626Y024046D02*
X025440Y024046D01*
X025339Y024145D02*
X027993Y024145D01*
X027993Y024243D02*
X025238Y024243D01*
X027090Y023357D02*
X027993Y023357D01*
X027993Y023455D02*
X027211Y023455D01*
X027272Y023554D02*
X027993Y023554D01*
X027993Y023652D02*
X027309Y023652D01*
X027309Y023751D02*
X027993Y023751D01*
X027993Y023849D02*
X027292Y023849D01*
X027251Y023948D02*
X027993Y023948D01*
X027993Y024046D02*
X027160Y024046D01*
X032903Y025327D02*
X033133Y025327D01*
X033133Y025425D02*
X032903Y025425D01*
X032903Y025524D02*
X033133Y025524D01*
X033133Y025622D02*
X032903Y025622D01*
X032903Y025721D02*
X033133Y025721D01*
X033133Y025819D02*
X032903Y025819D01*
X032903Y025918D02*
X033133Y025918D01*
X033133Y026016D02*
X032903Y026016D01*
X032903Y026115D02*
X033133Y026115D01*
X033133Y026213D02*
X032903Y026213D01*
X032903Y026312D02*
X033133Y026312D01*
X033133Y026410D02*
X032903Y026410D01*
X032903Y026509D02*
X033133Y026509D01*
X033133Y026607D02*
X032903Y026607D01*
X032903Y026706D02*
X033133Y026706D01*
X033133Y026804D02*
X032903Y026804D01*
X032903Y026903D02*
X033133Y026903D01*
X033133Y027001D02*
X032903Y027001D01*
X032903Y027100D02*
X033133Y027100D01*
X033133Y027198D02*
X032903Y027198D01*
X032903Y027297D02*
X033133Y027297D01*
X033133Y027395D02*
X032903Y027395D01*
X032903Y027494D02*
X033133Y027494D01*
X033133Y027592D02*
X032903Y027592D01*
X032903Y027691D02*
X033133Y027691D01*
X033133Y027789D02*
X032903Y027789D01*
X032903Y027888D02*
X033133Y027888D01*
X033133Y027986D02*
X032903Y027986D01*
X032903Y028085D02*
X033133Y028085D01*
X033133Y028183D02*
X032903Y028183D01*
X032903Y028282D02*
X033133Y028282D01*
X033133Y028380D02*
X032903Y028380D01*
X032903Y028479D02*
X033133Y028479D01*
X033133Y028577D02*
X032903Y028577D01*
X032903Y028676D02*
X033133Y028676D01*
X033133Y028774D02*
X032903Y028774D01*
X032903Y028873D02*
X033133Y028873D01*
X033133Y028971D02*
X032903Y028971D01*
X032903Y029070D02*
X033133Y029070D01*
X033133Y029168D02*
X032903Y029168D01*
X032903Y029267D02*
X033133Y029267D01*
X033133Y029365D02*
X032956Y029365D01*
X032978Y029464D02*
X033133Y029464D01*
X033133Y029562D02*
X032966Y029562D01*
X032911Y029661D02*
X033133Y029661D01*
X033133Y029759D02*
X032752Y029759D01*
X033553Y029759D02*
X038574Y029759D01*
X038552Y029736D02*
X038508Y029632D01*
X038508Y029518D01*
X038552Y029414D01*
X038632Y029333D01*
X038737Y029290D01*
X038850Y029290D01*
X038955Y029333D01*
X039035Y029414D01*
X039078Y029518D01*
X039078Y029632D01*
X039035Y029736D01*
X038955Y029817D01*
X038850Y029860D01*
X038737Y029860D01*
X038632Y029817D01*
X038552Y029736D01*
X038520Y029661D02*
X033553Y029661D01*
X033553Y029562D02*
X034427Y029562D01*
X034402Y029536D02*
X034358Y029432D01*
X034358Y029318D01*
X034402Y029214D01*
X034482Y029133D01*
X034587Y029090D01*
X034700Y029090D01*
X034805Y029133D01*
X034885Y029214D01*
X034928Y029318D01*
X034928Y029432D01*
X034885Y029536D01*
X034805Y029617D01*
X034700Y029660D01*
X034587Y029660D01*
X034482Y029617D01*
X034402Y029536D01*
X034372Y029464D02*
X033553Y029464D01*
X033553Y029365D02*
X034358Y029365D01*
X034380Y029267D02*
X033553Y029267D01*
X033553Y029168D02*
X034447Y029168D01*
X034839Y029168D02*
X037194Y029168D01*
X037202Y029186D02*
X037158Y029082D01*
X037158Y028968D01*
X037202Y028864D01*
X037282Y028783D01*
X037387Y028740D01*
X037500Y028740D01*
X037605Y028783D01*
X037685Y028864D01*
X037728Y028968D01*
X037728Y029082D01*
X037685Y029186D01*
X037605Y029267D01*
X037500Y029310D01*
X037387Y029310D01*
X037282Y029267D01*
X037202Y029186D01*
X037282Y029267D02*
X034907Y029267D01*
X034928Y029365D02*
X038600Y029365D01*
X038531Y029464D02*
X034915Y029464D01*
X034859Y029562D02*
X038508Y029562D01*
X038731Y029858D02*
X033553Y029858D01*
X033553Y029956D02*
X040758Y029956D01*
X040758Y029858D02*
X038856Y029858D01*
X039012Y029759D02*
X040758Y029759D01*
X040758Y029661D02*
X039066Y029661D01*
X039078Y029562D02*
X040758Y029562D01*
X040758Y029464D02*
X039056Y029464D01*
X038986Y029365D02*
X040758Y029365D01*
X040758Y029267D02*
X037605Y029267D01*
X037693Y029168D02*
X040758Y029168D01*
X040758Y029070D02*
X037728Y029070D01*
X037728Y028971D02*
X040758Y028971D01*
X040758Y028873D02*
X037689Y028873D01*
X037582Y028774D02*
X040758Y028774D01*
X040758Y028676D02*
X033553Y028676D01*
X033553Y028774D02*
X037304Y028774D01*
X037198Y028873D02*
X033553Y028873D01*
X033553Y028971D02*
X037158Y028971D01*
X037158Y029070D02*
X033553Y029070D01*
X033553Y028577D02*
X040758Y028577D01*
X040758Y028479D02*
X033553Y028479D01*
X033553Y028380D02*
X040758Y028380D01*
X040758Y028282D02*
X033553Y028282D01*
X033553Y028183D02*
X040758Y028183D01*
X040758Y028085D02*
X033553Y028085D01*
X033553Y027986D02*
X040758Y027986D01*
X040758Y027888D02*
X033553Y027888D01*
X033553Y027789D02*
X040758Y027789D01*
X040758Y027691D02*
X033553Y027691D01*
X033553Y027592D02*
X040758Y027592D01*
X040758Y027494D02*
X033553Y027494D01*
X033553Y027395D02*
X040758Y027395D01*
X040758Y027297D02*
X033553Y027297D01*
X033553Y027198D02*
X040758Y027198D01*
X040758Y027100D02*
X033553Y027100D01*
X033553Y027001D02*
X040758Y027001D01*
X040758Y026903D02*
X033553Y026903D01*
X033553Y026804D02*
X040758Y026804D01*
X040758Y026706D02*
X033553Y026706D01*
X033553Y026607D02*
X040758Y026607D01*
X040758Y026509D02*
X033553Y026509D01*
X033553Y026410D02*
X040758Y026410D01*
X040758Y026312D02*
X033553Y026312D01*
X033553Y026213D02*
X040758Y026213D01*
X040758Y026115D02*
X033553Y026115D01*
X033553Y026016D02*
X040758Y026016D01*
X040758Y025918D02*
X033553Y025918D01*
X033553Y025819D02*
X040788Y025819D01*
X039028Y025425D02*
X048615Y025425D01*
X048669Y025447D02*
X048441Y025353D01*
X048266Y025178D01*
X048171Y024949D01*
X048171Y024850D01*
X048135Y024936D01*
X048055Y025017D01*
X047950Y025060D01*
X047837Y025060D01*
X047732Y025017D01*
X047652Y024936D01*
X047608Y024832D01*
X047608Y024718D01*
X047652Y024614D01*
X047732Y024533D01*
X047837Y024490D01*
X047950Y024490D01*
X048055Y024533D01*
X048135Y024614D01*
X048171Y024701D01*
X048266Y024472D01*
X048441Y024297D01*
X048669Y024203D01*
X048917Y024203D01*
X049146Y024297D01*
X049321Y024472D01*
X049416Y024701D01*
X049416Y024949D01*
X049321Y025178D01*
X049146Y025353D01*
X048917Y025447D01*
X048669Y025447D01*
X048415Y025327D02*
X039028Y025327D01*
X038991Y025228D02*
X048316Y025228D01*
X048246Y025130D02*
X044992Y025130D01*
X045058Y025031D02*
X047767Y025031D01*
X047650Y024933D02*
X045078Y024933D01*
X045064Y024834D02*
X047609Y024834D01*
X047608Y024736D02*
X045007Y024736D01*
X044595Y025130D02*
X038895Y025130D01*
X038990Y025524D02*
X051493Y025524D01*
X051493Y025622D02*
X038892Y025622D01*
X038378Y024243D02*
X048572Y024243D01*
X048396Y024342D02*
X035878Y024342D01*
X035875Y024440D02*
X048298Y024440D01*
X048238Y024539D02*
X048060Y024539D01*
X048145Y024637D02*
X048197Y024637D01*
X048171Y024933D02*
X048137Y024933D01*
X048205Y025031D02*
X048020Y025031D01*
X047642Y024637D02*
X035705Y024637D01*
X035833Y024539D02*
X047727Y024539D01*
X047355Y024117D02*
X047250Y024160D01*
X047137Y024160D01*
X047032Y024117D01*
X046952Y024036D01*
X046908Y023932D01*
X046908Y023818D01*
X046952Y023714D01*
X047032Y023633D01*
X047137Y023590D01*
X047250Y023590D01*
X047355Y023633D01*
X047435Y023714D01*
X047478Y023818D01*
X047478Y023932D01*
X047435Y024036D01*
X047355Y024117D01*
X047287Y024145D02*
X051493Y024145D01*
X051493Y024243D02*
X049015Y024243D01*
X049190Y024342D02*
X051493Y024342D01*
X051493Y024440D02*
X049289Y024440D01*
X049348Y024539D02*
X051493Y024539D01*
X051493Y024637D02*
X049389Y024637D01*
X049416Y024736D02*
X051493Y024736D01*
X051493Y024834D02*
X049416Y024834D01*
X049416Y024933D02*
X051493Y024933D01*
X051493Y025031D02*
X049382Y025031D01*
X049341Y025130D02*
X051493Y025130D01*
X051493Y025228D02*
X049271Y025228D01*
X049172Y025327D02*
X051493Y025327D01*
X051493Y025425D02*
X048971Y025425D01*
X047425Y024046D02*
X051493Y024046D01*
X051493Y023948D02*
X047472Y023948D01*
X047478Y023849D02*
X051493Y023849D01*
X051493Y023751D02*
X047450Y023751D01*
X047373Y023652D02*
X051493Y023652D01*
X051493Y023554D02*
X046456Y023554D01*
X046493Y023455D02*
X051493Y023455D01*
X051493Y023357D02*
X046493Y023357D01*
X046493Y023258D02*
X051493Y023258D01*
X051493Y023160D02*
X046493Y023160D01*
X046493Y023061D02*
X051493Y023061D01*
X051493Y022963D02*
X046493Y022963D01*
X046493Y022864D02*
X051493Y022864D01*
X051493Y022766D02*
X046493Y022766D01*
X046493Y022667D02*
X051493Y022667D01*
X051493Y022569D02*
X046493Y022569D01*
X046493Y022470D02*
X051493Y022470D01*
X051493Y022372D02*
X046493Y022372D01*
X047013Y023652D02*
X045743Y023652D01*
X045744Y023751D02*
X046936Y023751D01*
X046908Y023849D02*
X045652Y023849D01*
X045626Y023875D02*
X045626Y023875D01*
X045543Y023652D02*
X037623Y023652D01*
X037483Y023554D02*
X044730Y023554D01*
X046915Y023948D02*
X038470Y023948D01*
X038478Y024046D02*
X046961Y024046D01*
X047099Y024145D02*
X038452Y024145D01*
X038008Y024243D02*
X035847Y024243D01*
X035766Y024145D02*
X037934Y024145D01*
X037908Y024046D02*
X037575Y024046D01*
X037651Y023948D02*
X037917Y023948D01*
X040758Y030055D02*
X033553Y030055D01*
X033574Y030153D02*
X040758Y030153D01*
X040758Y030252D02*
X033621Y030252D01*
X033628Y030350D02*
X040758Y030350D01*
X040758Y030449D02*
X033601Y030449D01*
X033524Y030547D02*
X037168Y030547D01*
X037088Y030646D02*
X033493Y030646D01*
X033493Y030744D02*
X037058Y030744D01*
X037518Y030547D02*
X040758Y030547D01*
X040758Y030646D02*
X037598Y030646D01*
X037628Y030744D02*
X040851Y030744D01*
X037624Y030843D02*
X044373Y030843D01*
X044320Y030941D02*
X037580Y030941D01*
X037707Y032714D02*
X032661Y032714D01*
X032423Y032813D02*
X037609Y032813D01*
X032023Y031138D02*
X029723Y031138D01*
X029666Y031237D02*
X031785Y031237D01*
X031312Y033010D02*
X022419Y033010D01*
X022262Y033108D02*
X031213Y033108D01*
X031115Y033207D02*
X021509Y033207D01*
X021410Y033305D02*
X031016Y033305D01*
X030918Y033404D02*
X021312Y033404D01*
X021213Y033502D02*
X030819Y033502D01*
X030721Y033601D02*
X021115Y033601D01*
X021016Y033699D02*
X030622Y033699D01*
X030524Y033798D02*
X020918Y033798D01*
X020819Y033896D02*
X030425Y033896D01*
X030327Y033995D02*
X020721Y033995D01*
X020622Y034093D02*
X030228Y034093D01*
X030130Y034192D02*
X020524Y034192D01*
X020425Y034290D02*
X030083Y034290D01*
X030083Y034389D02*
X020327Y034389D01*
X020228Y034487D02*
X030083Y034487D01*
X030083Y034586D02*
X020130Y034586D01*
X020031Y034684D02*
X023363Y034684D01*
X023300Y034710D02*
X023458Y034645D01*
X023629Y034645D01*
X023787Y034710D01*
X023908Y034831D01*
X023973Y034989D01*
X023973Y035161D01*
X023908Y035319D01*
X023787Y035440D01*
X023629Y035505D01*
X023458Y035505D01*
X023300Y035440D01*
X023179Y035319D01*
X023113Y035161D01*
X023113Y034989D01*
X023179Y034831D01*
X023300Y034710D01*
X023228Y034783D02*
X019933Y034783D01*
X019834Y034881D02*
X023158Y034881D01*
X023117Y034980D02*
X020786Y034980D01*
X020716Y034909D02*
X020959Y035153D01*
X020959Y035497D01*
X020716Y035741D01*
X020371Y035741D01*
X020128Y035497D01*
X020128Y035153D01*
X020371Y034909D01*
X020716Y034909D01*
X020884Y035078D02*
X023113Y035078D01*
X023120Y035177D02*
X020959Y035177D01*
X020959Y035275D02*
X023161Y035275D01*
X023234Y035374D02*
X020959Y035374D01*
X020959Y035472D02*
X023378Y035472D01*
X023490Y035669D02*
X030052Y035669D01*
X030083Y035571D02*
X020886Y035571D01*
X020787Y035669D02*
X023096Y035669D01*
X023029Y035768D02*
X014207Y035768D01*
X014228Y035818D02*
X014185Y035714D01*
X014105Y035633D01*
X014000Y035590D01*
X013887Y035590D01*
X013782Y035633D01*
X013702Y035714D01*
X013658Y035818D01*
X013658Y035932D01*
X013702Y036036D01*
X013782Y036117D01*
X013887Y036160D01*
X014000Y036160D01*
X014105Y036117D01*
X014185Y036036D01*
X014228Y035932D01*
X014228Y035818D01*
X014228Y035866D02*
X015874Y035866D01*
X015743Y035965D02*
X014215Y035965D01*
X014158Y036063D02*
X015710Y036063D01*
X015708Y036162D02*
X012671Y036162D01*
X012671Y036260D02*
X015741Y036260D01*
X015743Y036359D02*
X012671Y036359D01*
X012671Y036457D02*
X015661Y036457D01*
X015563Y036556D02*
X012629Y036556D01*
X012531Y036654D02*
X015464Y036654D01*
X016113Y035866D02*
X023008Y035866D01*
X023022Y035965D02*
X017843Y035965D01*
X017843Y036063D02*
X023078Y036063D01*
X023185Y036162D02*
X017843Y036162D01*
X017843Y036260D02*
X023055Y036260D01*
X023012Y036359D02*
X017843Y036359D01*
X017843Y036457D02*
X023008Y036457D01*
X023039Y036556D02*
X017843Y036556D01*
X017843Y036654D02*
X019611Y036654D01*
X019536Y036753D02*
X017843Y036753D01*
X017843Y036851D02*
X019508Y036851D01*
X019516Y036950D02*
X017843Y036950D01*
X017704Y035505D02*
X017533Y035505D01*
X017375Y035440D01*
X017254Y035319D01*
X017188Y035161D01*
X017188Y034989D01*
X017254Y034831D01*
X017375Y034710D01*
X017533Y034645D01*
X017704Y034645D01*
X017862Y034710D01*
X017983Y034831D01*
X018048Y034989D01*
X018048Y035161D01*
X017983Y035319D01*
X017862Y035440D01*
X017704Y035505D01*
X017783Y035472D02*
X019128Y035472D01*
X019128Y035374D02*
X017928Y035374D01*
X018001Y035275D02*
X019128Y035275D01*
X019128Y035177D02*
X018042Y035177D01*
X018048Y035078D02*
X019202Y035078D01*
X019283Y034980D02*
X018044Y034980D01*
X018003Y034881D02*
X019283Y034881D01*
X019339Y034783D02*
X017934Y034783D01*
X017798Y034684D02*
X019437Y034684D01*
X019536Y034586D02*
X007703Y034586D01*
X007703Y034684D02*
X014013Y034684D01*
X013950Y034710D02*
X014108Y034645D01*
X014279Y034645D01*
X014437Y034710D01*
X014558Y034831D01*
X014623Y034989D01*
X014623Y035161D01*
X014558Y035319D01*
X014437Y035440D01*
X014279Y035505D01*
X014108Y035505D01*
X013950Y035440D01*
X013829Y035319D01*
X013763Y035161D01*
X013763Y034989D01*
X013829Y034831D01*
X013950Y034710D01*
X013878Y034783D02*
X007703Y034783D01*
X007703Y034881D02*
X013808Y034881D01*
X013767Y034980D02*
X007703Y034980D01*
X007703Y035078D02*
X013763Y035078D01*
X013770Y035177D02*
X007703Y035177D01*
X007703Y035275D02*
X013811Y035275D01*
X013884Y035374D02*
X007703Y035374D01*
X007703Y035472D02*
X014028Y035472D01*
X014140Y035669D02*
X019299Y035669D01*
X019201Y035571D02*
X012305Y035571D01*
X012404Y035669D02*
X013746Y035669D01*
X013679Y035768D02*
X012502Y035768D01*
X012601Y035866D02*
X013658Y035866D01*
X013672Y035965D02*
X012671Y035965D01*
X012671Y036063D02*
X013728Y036063D01*
X014358Y035472D02*
X015028Y035472D01*
X014950Y035440D02*
X014829Y035319D01*
X014763Y035161D01*
X014763Y034989D01*
X014829Y034831D01*
X014950Y034710D01*
X015108Y034645D01*
X015279Y034645D01*
X015437Y034710D01*
X015558Y034831D01*
X015623Y034989D01*
X015623Y035161D01*
X015558Y035319D01*
X015437Y035440D01*
X015279Y035505D01*
X015108Y035505D01*
X014950Y035440D01*
X014884Y035374D02*
X014503Y035374D01*
X014576Y035275D02*
X014811Y035275D01*
X014770Y035177D02*
X014617Y035177D01*
X014623Y035078D02*
X014763Y035078D01*
X014767Y034980D02*
X014619Y034980D01*
X014578Y034881D02*
X014808Y034881D01*
X014878Y034783D02*
X014509Y034783D01*
X014373Y034684D02*
X015013Y034684D01*
X015373Y034684D02*
X016438Y034684D01*
X016375Y034710D02*
X016533Y034645D01*
X016704Y034645D01*
X016862Y034710D01*
X016983Y034831D01*
X017048Y034989D01*
X017048Y035161D01*
X016983Y035319D01*
X016862Y035440D01*
X016704Y035505D01*
X016533Y035505D01*
X016375Y035440D01*
X016254Y035319D01*
X016188Y035161D01*
X016188Y034989D01*
X016254Y034831D01*
X016375Y034710D01*
X016303Y034783D02*
X015509Y034783D01*
X015578Y034881D02*
X016233Y034881D01*
X016192Y034980D02*
X015619Y034980D01*
X015623Y035078D02*
X016188Y035078D01*
X016195Y035177D02*
X015617Y035177D01*
X015576Y035275D02*
X016236Y035275D01*
X016309Y035374D02*
X015503Y035374D01*
X015358Y035472D02*
X016453Y035472D01*
X016783Y035472D02*
X017453Y035472D01*
X017309Y035374D02*
X016928Y035374D01*
X017001Y035275D02*
X017236Y035275D01*
X017195Y035177D02*
X017042Y035177D01*
X017048Y035078D02*
X017188Y035078D01*
X017192Y034980D02*
X017044Y034980D01*
X017003Y034881D02*
X017233Y034881D01*
X017303Y034783D02*
X016934Y034783D01*
X016798Y034684D02*
X017438Y034684D01*
X019634Y034487D02*
X007703Y034487D01*
X007703Y034389D02*
X019733Y034389D01*
X019831Y034290D02*
X007703Y034290D01*
X007703Y034192D02*
X019930Y034192D01*
X020028Y034093D02*
X007703Y034093D01*
X007703Y033995D02*
X020127Y033995D01*
X020225Y033896D02*
X007703Y033896D01*
X007703Y033798D02*
X020324Y033798D01*
X020422Y033699D02*
X007703Y033699D01*
X007703Y033601D02*
X020521Y033601D01*
X020619Y033502D02*
X007703Y033502D01*
X007703Y033404D02*
X020718Y033404D01*
X020816Y033305D02*
X007703Y033305D01*
X007703Y033207D02*
X020915Y033207D01*
X021013Y033108D02*
X007703Y033108D01*
X007703Y033010D02*
X021112Y033010D01*
X021210Y032911D02*
X007703Y032911D01*
X007703Y032813D02*
X021309Y032813D01*
X021407Y032714D02*
X007703Y032714D01*
X007703Y032616D02*
X021506Y032616D01*
X021804Y032911D02*
X021928Y032911D01*
X021916Y032813D02*
X021903Y032813D01*
X021982Y033010D02*
X021706Y033010D01*
X021607Y033108D02*
X022139Y033108D01*
X022198Y032517D02*
X022211Y032517D01*
X022297Y032419D02*
X022310Y032419D01*
X022395Y032320D02*
X022408Y032320D01*
X022494Y032222D02*
X022507Y032222D01*
X022503Y032123D02*
X022605Y032123D01*
X022704Y032025D02*
X022503Y032025D01*
X022503Y031926D02*
X022803Y031926D01*
X022901Y031828D02*
X022503Y031828D01*
X022503Y031729D02*
X023000Y031729D01*
X023098Y031631D02*
X022503Y031631D01*
X022503Y031532D02*
X023197Y031532D01*
X023295Y031434D02*
X022503Y031434D01*
X022503Y031335D02*
X023394Y031335D01*
X023492Y031237D02*
X022503Y031237D01*
X022503Y031138D02*
X023591Y031138D01*
X023689Y031040D02*
X022503Y031040D01*
X022503Y030941D02*
X023783Y030941D01*
X023783Y030843D02*
X022503Y030843D01*
X022503Y030744D02*
X023783Y030744D01*
X023783Y030646D02*
X022503Y030646D01*
X022522Y030547D02*
X023783Y030547D01*
X023783Y030449D02*
X022587Y030449D01*
X022612Y030350D02*
X023783Y030350D01*
X023783Y030252D02*
X022608Y030252D01*
X022567Y030153D02*
X023783Y030153D01*
X023783Y030055D02*
X022472Y030055D01*
X022114Y030055D02*
X021893Y030055D01*
X021893Y030153D02*
X022020Y030153D01*
X021979Y030252D02*
X021893Y030252D01*
X021893Y030350D02*
X021975Y030350D01*
X022000Y030449D02*
X021893Y030449D01*
X021893Y030547D02*
X022065Y030547D01*
X022083Y030646D02*
X021893Y030646D01*
X021893Y030744D02*
X022083Y030744D01*
X022083Y030843D02*
X021893Y030843D01*
X021893Y030941D02*
X022083Y030941D01*
X022083Y031040D02*
X021893Y031040D01*
X021893Y031138D02*
X022083Y031138D01*
X022083Y031237D02*
X021893Y031237D01*
X021893Y031335D02*
X022083Y031335D01*
X022083Y031434D02*
X021893Y031434D01*
X021893Y031532D02*
X022083Y031532D01*
X022083Y031631D02*
X021893Y031631D01*
X021893Y031729D02*
X022083Y031729D01*
X022083Y031828D02*
X021893Y031828D01*
X021893Y031926D02*
X022083Y031926D01*
X022083Y032025D02*
X021893Y032025D01*
X021893Y032123D02*
X021998Y032123D01*
X021900Y032222D02*
X021893Y032222D01*
X021893Y029956D02*
X023783Y029956D01*
X023783Y029858D02*
X021893Y029858D01*
X021893Y029759D02*
X023783Y029759D01*
X023783Y029661D02*
X021893Y029661D01*
X021893Y029562D02*
X023783Y029562D01*
X023783Y029464D02*
X021893Y029464D01*
X021893Y029365D02*
X023783Y029365D01*
X023783Y029267D02*
X021893Y029267D01*
X022793Y029168D02*
X023744Y029168D01*
X023708Y029070D02*
X022793Y029070D01*
X022793Y028971D02*
X023708Y028971D01*
X023748Y028873D02*
X022793Y028873D01*
X016993Y030646D02*
X013230Y030646D01*
X013329Y030744D02*
X016993Y030744D01*
X016993Y030843D02*
X013427Y030843D01*
X013521Y030941D02*
X016993Y030941D01*
X016993Y031040D02*
X013521Y031040D01*
X013521Y031138D02*
X016993Y031138D01*
X016993Y031237D02*
X013521Y031237D01*
X013521Y031335D02*
X016993Y031335D01*
X016993Y031434D02*
X013521Y031434D01*
X013503Y031532D02*
X016993Y031532D01*
X016993Y031631D02*
X013404Y031631D01*
X013306Y031729D02*
X016993Y031729D01*
X016993Y031828D02*
X013207Y031828D01*
X012439Y031828D02*
X011357Y031828D01*
X011456Y031729D02*
X012341Y031729D01*
X012242Y031631D02*
X011554Y031631D01*
X011653Y031532D02*
X012144Y031532D01*
X012126Y031434D02*
X011671Y031434D01*
X011671Y031335D02*
X012126Y031335D01*
X012126Y031237D02*
X011671Y031237D01*
X011671Y031138D02*
X012126Y031138D01*
X012126Y031040D02*
X011671Y031040D01*
X011671Y030941D02*
X012126Y030941D01*
X012219Y030843D02*
X011577Y030843D01*
X011479Y030744D02*
X012318Y030744D01*
X012416Y030646D02*
X011380Y030646D01*
X010276Y031434D02*
X009821Y031434D01*
X009803Y031532D02*
X010294Y031532D01*
X010392Y031631D02*
X009704Y031631D01*
X009606Y031729D02*
X010491Y031729D01*
X010589Y031828D02*
X009507Y031828D01*
X008739Y031828D02*
X007703Y031828D01*
X007703Y031926D02*
X016993Y031926D01*
X016993Y032025D02*
X007703Y032025D01*
X007703Y032123D02*
X016993Y032123D01*
X016993Y032222D02*
X007703Y032222D01*
X007703Y032320D02*
X016993Y032320D01*
X016993Y032419D02*
X007703Y032419D01*
X007703Y032517D02*
X016993Y032517D01*
X019786Y034980D02*
X020301Y034980D01*
X020202Y035078D02*
X019884Y035078D01*
X019959Y035177D02*
X020128Y035177D01*
X020128Y035275D02*
X019959Y035275D01*
X019959Y035374D02*
X020128Y035374D01*
X020128Y035472D02*
X019959Y035472D01*
X019886Y035571D02*
X020201Y035571D01*
X020299Y035669D02*
X019787Y035669D01*
X019975Y036654D02*
X023119Y036654D01*
X023467Y036654D02*
X030611Y036654D01*
X030975Y036654D02*
X031181Y036654D01*
X031083Y036753D02*
X031051Y036753D01*
X031280Y036556D02*
X023548Y036556D01*
X023578Y036457D02*
X031378Y036457D01*
X031477Y036359D02*
X029957Y036359D01*
X030055Y036260D02*
X055675Y036260D01*
X055774Y036162D02*
X030154Y036162D01*
X030252Y036063D02*
X055872Y036063D01*
X055971Y035965D02*
X030351Y035965D01*
X030449Y035866D02*
X055993Y035866D01*
X055993Y035768D02*
X030503Y035768D01*
X030503Y035669D02*
X055993Y035669D01*
X055993Y035571D02*
X030503Y035571D01*
X030503Y035472D02*
X055993Y035472D01*
X055993Y035374D02*
X030503Y035374D01*
X030503Y035275D02*
X055993Y035275D01*
X055993Y035177D02*
X030503Y035177D01*
X030503Y035078D02*
X055993Y035078D01*
X055993Y034980D02*
X030503Y034980D01*
X030503Y034881D02*
X055993Y034881D01*
X055993Y034783D02*
X030503Y034783D01*
X030503Y034684D02*
X055993Y034684D01*
X055993Y034586D02*
X030503Y034586D01*
X030503Y034487D02*
X055993Y034487D01*
X055993Y034389D02*
X030527Y034389D01*
X030625Y034290D02*
X055993Y034290D01*
X055993Y034192D02*
X030724Y034192D01*
X030822Y034093D02*
X055993Y034093D01*
X055993Y033995D02*
X030921Y033995D01*
X031019Y033896D02*
X055993Y033896D01*
X055993Y033798D02*
X031118Y033798D01*
X031216Y033699D02*
X055993Y033699D01*
X055993Y033601D02*
X031315Y033601D01*
X031413Y033502D02*
X055993Y033502D01*
X055993Y033404D02*
X031512Y033404D01*
X030083Y034684D02*
X024723Y034684D01*
X024787Y034710D02*
X024908Y034831D01*
X024973Y034989D01*
X024973Y035161D01*
X024908Y035319D01*
X024787Y035440D01*
X024629Y035505D01*
X024458Y035505D01*
X024300Y035440D01*
X024179Y035319D01*
X024113Y035161D01*
X024113Y034989D01*
X024179Y034831D01*
X024300Y034710D01*
X024458Y034645D01*
X024629Y034645D01*
X024787Y034710D01*
X024859Y034783D02*
X030083Y034783D01*
X030083Y034881D02*
X024928Y034881D01*
X024969Y034980D02*
X030083Y034980D01*
X030083Y035078D02*
X024973Y035078D01*
X024967Y035177D02*
X030083Y035177D01*
X030083Y035275D02*
X024926Y035275D01*
X024853Y035374D02*
X030083Y035374D01*
X030083Y035472D02*
X024708Y035472D01*
X024378Y035472D02*
X023708Y035472D01*
X023853Y035374D02*
X024234Y035374D01*
X024161Y035275D02*
X023926Y035275D01*
X023967Y035177D02*
X024120Y035177D01*
X024113Y035078D02*
X023973Y035078D01*
X023969Y034980D02*
X024117Y034980D01*
X024158Y034881D02*
X023928Y034881D01*
X023859Y034783D02*
X024228Y034783D01*
X024363Y034684D02*
X023723Y034684D01*
X023557Y035768D02*
X029954Y035768D01*
X029855Y035866D02*
X023578Y035866D01*
X023565Y035965D02*
X029757Y035965D01*
X044814Y030843D02*
X050195Y030843D01*
X055993Y014196D02*
X015393Y014196D01*
X015393Y014098D02*
X055993Y014098D01*
X055993Y013999D02*
X015393Y013999D01*
X015393Y013901D02*
X055993Y013901D01*
X055993Y006710D02*
X052246Y006710D01*
X052203Y006612D02*
X055993Y006612D01*
X055993Y006513D02*
X052105Y006513D01*
X051929Y006415D02*
X055993Y006415D01*
X018199Y015674D02*
X015653Y015674D01*
X015752Y015772D02*
X018109Y015772D01*
X018069Y015871D02*
X015850Y015871D01*
X015949Y015969D02*
X018057Y015969D01*
X018064Y016068D02*
X016047Y016068D01*
X016146Y016166D02*
X018104Y016166D01*
X008426Y031434D02*
X007703Y031434D01*
X007703Y031532D02*
X008444Y031532D01*
X008542Y031631D02*
X007703Y031631D01*
X007703Y031729D02*
X008641Y031729D01*
X007703Y035571D02*
X009641Y035571D01*
X009543Y035669D02*
X007703Y035669D01*
X007703Y035768D02*
X009444Y035768D01*
X009346Y035866D02*
X007703Y035866D01*
X007703Y035965D02*
X009276Y035965D01*
X009276Y036063D02*
X007703Y036063D01*
X007703Y036162D02*
X009276Y036162D01*
X009276Y036260D02*
X007703Y036260D01*
X007703Y036359D02*
X009276Y036359D01*
X009276Y036457D02*
X007722Y036457D01*
X007821Y036556D02*
X009317Y036556D01*
X009416Y036654D02*
X007919Y036654D01*
X010531Y036654D02*
X011416Y036654D01*
X011317Y036556D02*
X010629Y036556D01*
X010671Y036457D02*
X011276Y036457D01*
X011276Y036359D02*
X010671Y036359D01*
X010671Y036260D02*
X011276Y036260D01*
X011276Y036162D02*
X010671Y036162D01*
X010671Y036063D02*
X011276Y036063D01*
X011276Y035965D02*
X010671Y035965D01*
X010601Y035866D02*
X011346Y035866D01*
X011444Y035768D02*
X010502Y035768D01*
X010404Y035669D02*
X011543Y035669D01*
X011641Y035571D02*
X010305Y035571D01*
D26*
X026893Y023725D03*
X026893Y023025D03*
D27*
X037043Y006525D03*
X043943Y006525D03*
X053343Y032025D03*
D28*
X050793Y031025D03*
X048393Y031025D03*
X048793Y024825D03*
D29*
X045393Y025925D02*
X045393Y030575D01*
X040943Y030575D01*
X040943Y025925D01*
X045393Y025925D01*
X045393Y025933D02*
X040943Y025933D01*
X040943Y026001D02*
X045393Y026001D01*
X045393Y026070D02*
X040943Y026070D01*
X040943Y026138D02*
X045393Y026138D01*
X045393Y026207D02*
X040943Y026207D01*
X040943Y026275D02*
X045393Y026275D01*
X045393Y026344D02*
X040943Y026344D01*
X040943Y026412D02*
X045393Y026412D01*
X045393Y026481D02*
X040943Y026481D01*
X040943Y026549D02*
X045393Y026549D01*
X045393Y026618D02*
X040943Y026618D01*
X040943Y026686D02*
X045393Y026686D01*
X045393Y026755D02*
X040943Y026755D01*
X040943Y026823D02*
X045393Y026823D01*
X045393Y026892D02*
X040943Y026892D01*
X040943Y026960D02*
X045393Y026960D01*
X045393Y027029D02*
X040943Y027029D01*
X040943Y027097D02*
X045393Y027097D01*
X045393Y027166D02*
X040943Y027166D01*
X040943Y027234D02*
X045393Y027234D01*
X045393Y027303D02*
X040943Y027303D01*
X040943Y027371D02*
X045393Y027371D01*
X045393Y027440D02*
X040943Y027440D01*
X040943Y027508D02*
X045393Y027508D01*
X045393Y027577D02*
X040943Y027577D01*
X040943Y027645D02*
X045393Y027645D01*
X045393Y027714D02*
X040943Y027714D01*
X040943Y027782D02*
X045393Y027782D01*
X045393Y027851D02*
X040943Y027851D01*
X040943Y027919D02*
X045393Y027919D01*
X045393Y027988D02*
X040943Y027988D01*
X040943Y028056D02*
X045393Y028056D01*
X045393Y028125D02*
X040943Y028125D01*
X040943Y028193D02*
X045393Y028193D01*
X045393Y028262D02*
X040943Y028262D01*
X040943Y028330D02*
X045393Y028330D01*
X045393Y028399D02*
X040943Y028399D01*
X040943Y028467D02*
X045393Y028467D01*
X045393Y028536D02*
X040943Y028536D01*
X040943Y028604D02*
X045393Y028604D01*
X045393Y028673D02*
X040943Y028673D01*
X040943Y028741D02*
X045393Y028741D01*
X045393Y028810D02*
X040943Y028810D01*
X040943Y028878D02*
X045393Y028878D01*
X045393Y028947D02*
X040943Y028947D01*
X040943Y029015D02*
X045393Y029015D01*
X045393Y029084D02*
X040943Y029084D01*
X040943Y029152D02*
X045393Y029152D01*
X045393Y029221D02*
X040943Y029221D01*
X040943Y029289D02*
X045393Y029289D01*
X045393Y029358D02*
X040943Y029358D01*
X040943Y029426D02*
X045393Y029426D01*
X045393Y029495D02*
X040943Y029495D01*
X040943Y029563D02*
X045393Y029563D01*
X045393Y029632D02*
X040943Y029632D01*
X040943Y029700D02*
X045393Y029700D01*
X045393Y029769D02*
X040943Y029769D01*
X040943Y029837D02*
X045393Y029837D01*
X045393Y029906D02*
X040943Y029906D01*
X040943Y029974D02*
X045393Y029974D01*
X045393Y030043D02*
X040943Y030043D01*
X040943Y030111D02*
X045393Y030111D01*
X045393Y030180D02*
X040943Y030180D01*
X040943Y030248D02*
X045393Y030248D01*
X045393Y030317D02*
X040943Y030317D01*
X040943Y030385D02*
X045393Y030385D01*
X045393Y030454D02*
X040943Y030454D01*
X040943Y030522D02*
X045393Y030522D01*
X020193Y028825D02*
X019693Y029325D01*
X018393Y029325D01*
X017293Y028225D01*
X008893Y028225D01*
X008493Y027825D01*
X008493Y018525D01*
X008893Y018125D01*
X010041Y018125D01*
D30*
X045993Y012925D03*
X049443Y012925D03*
D31*
X040793Y006725D02*
X039293Y008225D01*
X028593Y008225D01*
X027893Y008925D01*
X026743Y008525D02*
X026743Y008175D01*
X026793Y008125D01*
X026793Y008025D01*
X028093Y006725D01*
X033293Y006725D01*
D32*
X028393Y022225D03*
D33*
X028393Y023078D01*
X029041Y023725D01*
D34*
X022293Y030325D03*
D35*
X026743Y009175D02*
X026743Y008525D01*
D36*
X045443Y023275D03*
X046143Y022925D03*
X020193Y028825D03*
M02*
