G75*
%MOIN*%
%OFA0B0*%
%FSLAX24Y24*%
%IPPOS*%
%LPD*%
%AMOC8*
5,1,8,0,0,1.08239X$1,22.5*
%
%ADD10C,0.0591*%
%ADD11C,0.1210*%
%ADD12C,0.0600*%
%ADD13C,0.0531*%
%ADD14C,0.1095*%
%ADD15C,0.1620*%
%ADD16C,0.1325*%
%ADD17C,0.1424*%
%ADD18C,0.0100*%
%ADD19C,0.0270*%
%ADD20C,0.0472*%
%ADD21C,0.0120*%
%ADD22C,0.0376*%
%ADD23C,0.1181*%
%ADD24C,0.0945*%
%ADD25C,0.0320*%
%ADD26C,0.1502*%
%ADD27C,0.0416*%
%ADD28C,0.0240*%
D10*
X010041Y013125D03*
X010041Y014125D03*
X010041Y015125D03*
X010041Y016125D03*
X010041Y017125D03*
X010041Y018125D03*
X010041Y019125D03*
X010041Y020125D03*
X010041Y021125D03*
X010041Y022125D03*
X010041Y023725D03*
X010041Y024725D03*
X010041Y025725D03*
X010041Y026725D03*
X010041Y027725D03*
X010041Y028725D03*
X010041Y029725D03*
X010041Y030725D03*
X018041Y030775D03*
X019041Y030775D03*
X020041Y030775D03*
X020041Y031775D03*
X019041Y031775D03*
X018041Y031775D03*
X029041Y030725D03*
X029041Y029725D03*
X029041Y028725D03*
X029041Y027725D03*
X029041Y026725D03*
X029041Y025725D03*
X029041Y023725D03*
X029041Y022725D03*
X029041Y021725D03*
X029041Y020725D03*
X029041Y019725D03*
X029041Y018725D03*
X029041Y017725D03*
X029041Y016725D03*
D11*
X020456Y008735D03*
X016431Y008735D03*
X014256Y008735D03*
X010231Y008735D03*
X032081Y034165D03*
X036106Y034165D03*
X038281Y034165D03*
X042306Y034165D03*
X044481Y034165D03*
X048506Y034165D03*
X050681Y034165D03*
X054706Y034165D03*
D12*
X053282Y029648D03*
X052282Y029648D03*
X052282Y028648D03*
X052282Y027648D03*
X052282Y026648D03*
X053282Y026648D03*
X053282Y027648D03*
X053282Y028648D03*
X027743Y010175D03*
X026743Y010175D03*
X025743Y010175D03*
X024743Y010175D03*
X023743Y010175D03*
X023743Y009175D03*
X024743Y009175D03*
X025743Y009175D03*
X026743Y009175D03*
X027743Y009175D03*
D13*
X026893Y023025D03*
X026893Y023725D03*
X021543Y035325D03*
X020543Y035325D03*
X019543Y035325D03*
D14*
X012823Y031225D03*
X010973Y031225D03*
X009123Y031225D03*
X009973Y036225D03*
X011973Y036225D03*
X033293Y012725D03*
X033293Y006725D03*
X040793Y006725D03*
X040793Y012725D03*
D15*
X051770Y010449D03*
D16*
X051770Y008087D03*
D17*
X053541Y007695D03*
X049998Y007695D03*
D18*
X007776Y006575D02*
X007393Y006958D01*
X007393Y031225D01*
X008426Y031225D01*
X008426Y031086D01*
X008532Y030830D01*
X008728Y030634D01*
X008985Y030528D01*
X009262Y030528D01*
X009518Y030634D01*
X009595Y030711D01*
X009595Y030636D01*
X009663Y030473D01*
X009788Y030348D01*
X009952Y030280D01*
X010129Y030280D01*
X010293Y030348D01*
X010393Y030448D01*
X010393Y030425D01*
X017193Y030425D01*
X017193Y032325D01*
X021693Y032325D01*
X021693Y029025D01*
X022593Y029025D01*
X022593Y026525D01*
X026593Y022625D01*
X026773Y022625D01*
X026811Y022609D01*
X026976Y022609D01*
X027014Y022625D01*
X028193Y022625D01*
X028193Y024225D01*
X029443Y024225D01*
X029493Y024175D01*
X029493Y016375D01*
X029320Y016375D01*
X029418Y016473D01*
X029486Y016636D01*
X029486Y016814D01*
X029418Y016977D01*
X029293Y017102D01*
X029129Y017170D01*
X028952Y017170D01*
X028788Y017102D01*
X028663Y016977D01*
X028595Y016814D01*
X028595Y016636D01*
X028663Y016473D01*
X028761Y016375D01*
X016013Y016375D01*
X015193Y015555D01*
X015193Y006575D01*
X007776Y006575D01*
X007740Y006612D02*
X015193Y006612D01*
X015193Y006710D02*
X007641Y006710D01*
X007543Y006809D02*
X015193Y006809D01*
X015193Y006907D02*
X007444Y006907D01*
X007393Y007006D02*
X015193Y007006D01*
X015193Y007104D02*
X007393Y007104D01*
X007393Y007203D02*
X015193Y007203D01*
X015193Y007301D02*
X007393Y007301D01*
X007393Y007400D02*
X015193Y007400D01*
X015193Y007498D02*
X007393Y007498D01*
X007393Y007597D02*
X015193Y007597D01*
X015193Y007695D02*
X007393Y007695D01*
X007393Y007794D02*
X015193Y007794D01*
X015193Y007892D02*
X007393Y007892D01*
X007393Y007991D02*
X010055Y007991D01*
X010081Y007980D02*
X010381Y007980D01*
X010658Y008095D01*
X010871Y008307D01*
X010986Y008585D01*
X010986Y008885D01*
X010871Y009163D01*
X010658Y009375D01*
X010381Y009490D01*
X010081Y009490D01*
X009803Y009375D01*
X009591Y009163D01*
X009476Y008885D01*
X009476Y008585D01*
X009591Y008307D01*
X009803Y008095D01*
X010081Y007980D01*
X009817Y008089D02*
X007393Y008089D01*
X007393Y008188D02*
X009711Y008188D01*
X009612Y008286D02*
X007393Y008286D01*
X007393Y008385D02*
X009559Y008385D01*
X009518Y008483D02*
X007393Y008483D01*
X007393Y008582D02*
X009477Y008582D01*
X009476Y008680D02*
X007393Y008680D01*
X007393Y008779D02*
X009476Y008779D01*
X009476Y008877D02*
X007393Y008877D01*
X007393Y008976D02*
X009513Y008976D01*
X009554Y009074D02*
X007393Y009074D01*
X007393Y009173D02*
X009601Y009173D01*
X009699Y009271D02*
X007393Y009271D01*
X007393Y009370D02*
X009798Y009370D01*
X010028Y009468D02*
X007393Y009468D01*
X007393Y009567D02*
X015193Y009567D01*
X015193Y009665D02*
X007393Y009665D01*
X007393Y009764D02*
X015193Y009764D01*
X015193Y009862D02*
X007393Y009862D01*
X007393Y009961D02*
X015193Y009961D01*
X015193Y010059D02*
X007393Y010059D01*
X007393Y010158D02*
X015193Y010158D01*
X015193Y010256D02*
X007393Y010256D01*
X007393Y010355D02*
X015193Y010355D01*
X015193Y010453D02*
X007393Y010453D01*
X007393Y010552D02*
X015193Y010552D01*
X015193Y010650D02*
X007393Y010650D01*
X007393Y010749D02*
X015193Y010749D01*
X015193Y010847D02*
X007393Y010847D01*
X007393Y010946D02*
X015193Y010946D01*
X015193Y011044D02*
X007393Y011044D01*
X007393Y011143D02*
X015193Y011143D01*
X015193Y011241D02*
X007393Y011241D01*
X007393Y011340D02*
X015193Y011340D01*
X015193Y011438D02*
X007393Y011438D01*
X007393Y011537D02*
X015193Y011537D01*
X015193Y011635D02*
X014137Y011635D01*
X014112Y011625D02*
X014425Y011754D01*
X014664Y011994D01*
X014793Y012306D01*
X014793Y012644D01*
X014664Y012956D01*
X014425Y013196D01*
X014112Y013325D01*
X013774Y013325D01*
X013462Y013196D01*
X013223Y012956D01*
X013093Y012644D01*
X013093Y012306D01*
X013223Y011994D01*
X013462Y011754D01*
X013774Y011625D01*
X014112Y011625D01*
X014374Y011734D02*
X015193Y011734D01*
X015193Y011832D02*
X014502Y011832D01*
X014601Y011931D02*
X015193Y011931D01*
X015193Y012029D02*
X014679Y012029D01*
X014719Y012128D02*
X015193Y012128D01*
X015193Y012226D02*
X014760Y012226D01*
X014793Y012325D02*
X015193Y012325D01*
X015193Y012423D02*
X014793Y012423D01*
X014793Y012522D02*
X015193Y012522D01*
X015193Y012620D02*
X014793Y012620D01*
X014762Y012719D02*
X015193Y012719D01*
X015193Y012817D02*
X014722Y012817D01*
X014681Y012916D02*
X015193Y012916D01*
X015193Y013014D02*
X014606Y013014D01*
X014508Y013113D02*
X015193Y013113D01*
X015193Y013211D02*
X014388Y013211D01*
X014150Y013310D02*
X015193Y013310D01*
X015193Y013408D02*
X010387Y013408D01*
X010418Y013377D02*
X010293Y013502D01*
X010129Y013570D01*
X009952Y013570D01*
X009788Y013502D01*
X009663Y013377D01*
X009595Y013214D01*
X009595Y013036D01*
X009663Y012873D01*
X009788Y012748D01*
X009952Y012680D01*
X010129Y012680D01*
X010293Y012748D01*
X010418Y012873D01*
X010486Y013036D01*
X010486Y013214D01*
X010418Y013377D01*
X010446Y013310D02*
X013737Y013310D01*
X013499Y013211D02*
X010486Y013211D01*
X010486Y013113D02*
X013379Y013113D01*
X013280Y013014D02*
X010477Y013014D01*
X010436Y012916D02*
X013206Y012916D01*
X013165Y012817D02*
X010362Y012817D01*
X010223Y012719D02*
X013124Y012719D01*
X013093Y012620D02*
X007393Y012620D01*
X007393Y012522D02*
X013093Y012522D01*
X013093Y012423D02*
X007393Y012423D01*
X007393Y012325D02*
X013093Y012325D01*
X013126Y012226D02*
X007393Y012226D01*
X007393Y012128D02*
X013167Y012128D01*
X013208Y012029D02*
X007393Y012029D01*
X007393Y011931D02*
X013286Y011931D01*
X013384Y011832D02*
X007393Y011832D01*
X007393Y011734D02*
X013512Y011734D01*
X013750Y011635D02*
X007393Y011635D01*
X007393Y012719D02*
X009858Y012719D01*
X009719Y012817D02*
X007393Y012817D01*
X007393Y012916D02*
X009645Y012916D01*
X009605Y013014D02*
X007393Y013014D01*
X007393Y013113D02*
X009595Y013113D01*
X009595Y013211D02*
X007393Y013211D01*
X007393Y013310D02*
X009635Y013310D01*
X009694Y013408D02*
X007393Y013408D01*
X007393Y013507D02*
X009798Y013507D01*
X009895Y013704D02*
X007393Y013704D01*
X007393Y013802D02*
X009734Y013802D01*
X009788Y013748D02*
X009952Y013680D01*
X010129Y013680D01*
X010293Y013748D01*
X010418Y013873D01*
X010486Y014036D01*
X010486Y014214D01*
X010418Y014377D01*
X010293Y014502D01*
X010129Y014570D01*
X009952Y014570D01*
X009788Y014502D01*
X009663Y014377D01*
X009595Y014214D01*
X009595Y014036D01*
X009663Y013873D01*
X009788Y013748D01*
X009652Y013901D02*
X007393Y013901D01*
X007393Y013999D02*
X009611Y013999D01*
X009595Y014098D02*
X007393Y014098D01*
X007393Y014196D02*
X009595Y014196D01*
X009629Y014295D02*
X007393Y014295D01*
X007393Y014393D02*
X009679Y014393D01*
X009777Y014492D02*
X007393Y014492D01*
X007393Y014590D02*
X015193Y014590D01*
X015193Y014492D02*
X010304Y014492D01*
X010402Y014393D02*
X015193Y014393D01*
X015193Y014295D02*
X010452Y014295D01*
X010486Y014196D02*
X015193Y014196D01*
X015193Y014098D02*
X010486Y014098D01*
X010470Y013999D02*
X015193Y013999D01*
X015193Y013901D02*
X010430Y013901D01*
X010347Y013802D02*
X015193Y013802D01*
X015193Y013704D02*
X010187Y013704D01*
X010283Y013507D02*
X015193Y013507D01*
X015193Y013605D02*
X007393Y013605D01*
X007393Y014689D02*
X009931Y014689D01*
X009952Y014680D02*
X010129Y014680D01*
X010293Y014748D01*
X010418Y014873D01*
X010486Y015036D01*
X010486Y015214D01*
X010418Y015377D01*
X010293Y015502D01*
X010129Y015570D01*
X009952Y015570D01*
X009788Y015502D01*
X009663Y015377D01*
X009595Y015214D01*
X009595Y015036D01*
X009663Y014873D01*
X009788Y014748D01*
X009952Y014680D01*
X010150Y014689D02*
X015193Y014689D01*
X015193Y014787D02*
X010332Y014787D01*
X010423Y014886D02*
X015193Y014886D01*
X015193Y014984D02*
X010464Y014984D01*
X010486Y015083D02*
X015193Y015083D01*
X015193Y015181D02*
X010486Y015181D01*
X010459Y015280D02*
X015193Y015280D01*
X015193Y015378D02*
X010417Y015378D01*
X010319Y015477D02*
X011648Y015477D01*
X011632Y015483D02*
X011737Y015440D01*
X011850Y015440D01*
X011955Y015483D01*
X012035Y015564D01*
X012078Y015668D01*
X012078Y015782D01*
X012035Y015886D01*
X011955Y015967D01*
X011850Y016010D01*
X011737Y016010D01*
X011632Y015967D01*
X011552Y015886D01*
X011508Y015782D01*
X011508Y015668D01*
X011552Y015564D01*
X011632Y015483D01*
X011547Y015575D02*
X007393Y015575D01*
X007393Y015477D02*
X009762Y015477D01*
X009664Y015378D02*
X007393Y015378D01*
X007393Y015280D02*
X009623Y015280D01*
X009595Y015181D02*
X007393Y015181D01*
X007393Y015083D02*
X009595Y015083D01*
X009617Y014984D02*
X007393Y014984D01*
X007393Y014886D02*
X009658Y014886D01*
X009749Y014787D02*
X007393Y014787D01*
X007393Y015674D02*
X011508Y015674D01*
X011508Y015772D02*
X010317Y015772D01*
X010293Y015748D02*
X010418Y015873D01*
X010486Y016036D01*
X010486Y016214D01*
X010418Y016377D01*
X010293Y016502D01*
X010129Y016570D01*
X009952Y016570D01*
X009788Y016502D01*
X009663Y016377D01*
X009595Y016214D01*
X009595Y016036D01*
X009663Y015873D01*
X009788Y015748D01*
X009952Y015680D01*
X010129Y015680D01*
X010293Y015748D01*
X010416Y015871D02*
X011545Y015871D01*
X011638Y015969D02*
X010458Y015969D01*
X010486Y016068D02*
X015706Y016068D01*
X015804Y016166D02*
X010486Y016166D01*
X010465Y016265D02*
X015903Y016265D01*
X016001Y016363D02*
X010424Y016363D01*
X010334Y016462D02*
X028674Y016462D01*
X028627Y016560D02*
X010154Y016560D01*
X010129Y016680D02*
X010293Y016748D01*
X010418Y016873D01*
X010486Y017036D01*
X010486Y017214D01*
X010418Y017377D01*
X010293Y017502D01*
X010129Y017570D01*
X009952Y017570D01*
X009788Y017502D01*
X009663Y017377D01*
X009595Y017214D01*
X009595Y017036D01*
X009663Y016873D01*
X009788Y016748D01*
X009952Y016680D01*
X010129Y016680D01*
X010302Y016757D02*
X022708Y016757D01*
X022702Y016764D02*
X022782Y016683D01*
X022887Y016640D01*
X023000Y016640D01*
X023105Y016683D01*
X023143Y016722D01*
X023182Y016683D01*
X023287Y016640D01*
X023400Y016640D01*
X023505Y016683D01*
X023585Y016764D01*
X023628Y016868D01*
X023628Y016982D01*
X023585Y017086D01*
X023546Y017125D01*
X023585Y017164D01*
X023628Y017268D01*
X023628Y017382D01*
X023585Y017486D01*
X023546Y017525D01*
X023585Y017564D01*
X023628Y017668D01*
X023628Y017782D01*
X023585Y017886D01*
X023505Y017967D01*
X023400Y018010D01*
X023287Y018010D01*
X023182Y017967D01*
X023143Y017928D01*
X023105Y017967D01*
X023000Y018010D01*
X022887Y018010D01*
X022782Y017967D01*
X022702Y017886D01*
X022658Y017782D01*
X022658Y017668D01*
X022702Y017564D01*
X022740Y017525D01*
X022702Y017486D01*
X022658Y017382D01*
X022658Y017268D01*
X022702Y017164D01*
X022740Y017125D01*
X022702Y017086D01*
X022658Y016982D01*
X022658Y016868D01*
X022702Y016764D01*
X022664Y016856D02*
X010401Y016856D01*
X010452Y016954D02*
X022658Y016954D01*
X022688Y017053D02*
X010486Y017053D01*
X010486Y017151D02*
X011589Y017151D01*
X011602Y017138D02*
X011726Y017087D01*
X011861Y017087D01*
X011985Y017138D01*
X012080Y017233D01*
X012131Y017358D01*
X012131Y017492D01*
X012080Y017617D01*
X011985Y017712D01*
X011861Y017763D01*
X011726Y017763D01*
X011602Y017712D01*
X011507Y017617D01*
X011455Y017492D01*
X011455Y017358D01*
X011507Y017233D01*
X011602Y017138D01*
X011500Y017250D02*
X010471Y017250D01*
X010430Y017348D02*
X011459Y017348D01*
X011455Y017447D02*
X010349Y017447D01*
X010190Y017545D02*
X011477Y017545D01*
X011534Y017644D02*
X007393Y017644D01*
X007393Y017742D02*
X009802Y017742D01*
X009788Y017748D02*
X009952Y017680D01*
X010129Y017680D01*
X010293Y017748D01*
X010418Y017873D01*
X010486Y018036D01*
X010486Y018214D01*
X010418Y018377D01*
X010293Y018502D01*
X010129Y018570D01*
X009952Y018570D01*
X009788Y018502D01*
X009663Y018377D01*
X009595Y018214D01*
X009595Y018036D01*
X009663Y017873D01*
X009788Y017748D01*
X009695Y017841D02*
X007393Y017841D01*
X007393Y017939D02*
X009636Y017939D01*
X009595Y018038D02*
X007393Y018038D01*
X007393Y018136D02*
X009595Y018136D01*
X009604Y018235D02*
X007393Y018235D01*
X007393Y018333D02*
X009645Y018333D01*
X009717Y018432D02*
X007393Y018432D01*
X007393Y018530D02*
X009855Y018530D01*
X009952Y018680D02*
X010129Y018680D01*
X010293Y018748D01*
X010418Y018873D01*
X010486Y019036D01*
X010486Y019214D01*
X010418Y019377D01*
X010293Y019502D01*
X010129Y019570D01*
X009952Y019570D01*
X009788Y019502D01*
X009663Y019377D01*
X009595Y019214D01*
X009595Y019036D01*
X009663Y018873D01*
X009788Y018748D01*
X009952Y018680D01*
X009838Y018727D02*
X007393Y018727D01*
X007393Y018629D02*
X028599Y018629D01*
X028595Y018636D02*
X028663Y018473D01*
X028788Y018348D01*
X028952Y018280D01*
X029129Y018280D01*
X029293Y018348D01*
X029418Y018473D01*
X029486Y018636D01*
X029486Y018814D01*
X029418Y018977D01*
X029293Y019102D01*
X029129Y019170D01*
X028952Y019170D01*
X028788Y019102D01*
X028663Y018977D01*
X028595Y018814D01*
X028595Y018636D01*
X028595Y018727D02*
X010243Y018727D01*
X010371Y018826D02*
X028600Y018826D01*
X028641Y018924D02*
X010439Y018924D01*
X010480Y019023D02*
X028708Y019023D01*
X028833Y019121D02*
X010486Y019121D01*
X010483Y019220D02*
X029493Y019220D01*
X029493Y019318D02*
X029222Y019318D01*
X029293Y019348D02*
X029129Y019280D01*
X028952Y019280D01*
X028788Y019348D01*
X028663Y019473D01*
X028595Y019636D01*
X028595Y019814D01*
X028663Y019977D01*
X028788Y020102D01*
X028952Y020170D01*
X029129Y020170D01*
X029293Y020102D01*
X029418Y019977D01*
X029486Y019814D01*
X029486Y019636D01*
X029418Y019473D01*
X029293Y019348D01*
X029362Y019417D02*
X029493Y019417D01*
X029493Y019515D02*
X029436Y019515D01*
X029476Y019614D02*
X029493Y019614D01*
X029486Y019712D02*
X029493Y019712D01*
X029486Y019811D02*
X029493Y019811D01*
X029493Y019909D02*
X029446Y019909D01*
X029493Y020008D02*
X029388Y020008D01*
X029284Y020106D02*
X029493Y020106D01*
X029493Y020205D02*
X010486Y020205D01*
X010486Y020214D02*
X010418Y020377D01*
X010293Y020502D01*
X010129Y020570D01*
X009952Y020570D01*
X009788Y020502D01*
X009663Y020377D01*
X009595Y020214D01*
X009595Y020036D01*
X009663Y019873D01*
X009788Y019748D01*
X009952Y019680D01*
X010129Y019680D01*
X010293Y019748D01*
X010418Y019873D01*
X010486Y020036D01*
X010486Y020214D01*
X010449Y020303D02*
X029493Y020303D01*
X029493Y020402D02*
X010394Y020402D01*
X010295Y020500D02*
X029493Y020500D01*
X029493Y020599D02*
X007393Y020599D01*
X007393Y020697D02*
X009910Y020697D01*
X009952Y020680D02*
X010129Y020680D01*
X010293Y020748D01*
X010418Y020873D01*
X010486Y021036D01*
X010486Y021214D01*
X010418Y021377D01*
X010293Y021502D01*
X010129Y021570D01*
X009952Y021570D01*
X009788Y021502D01*
X009663Y021377D01*
X009595Y021214D01*
X009595Y021036D01*
X009663Y020873D01*
X009788Y020748D01*
X009952Y020680D01*
X010171Y020697D02*
X029493Y020697D01*
X029493Y020796D02*
X010341Y020796D01*
X010427Y020894D02*
X029493Y020894D01*
X029493Y020993D02*
X010468Y020993D01*
X010486Y021091D02*
X029493Y021091D01*
X029493Y021190D02*
X010486Y021190D01*
X010455Y021288D02*
X028932Y021288D01*
X028952Y021280D02*
X029129Y021280D01*
X029293Y021348D01*
X029418Y021473D01*
X029486Y021636D01*
X029486Y021814D01*
X029418Y021977D01*
X029293Y022102D01*
X029129Y022170D01*
X028952Y022170D01*
X028788Y022102D01*
X028663Y021977D01*
X028595Y021814D01*
X028595Y021636D01*
X028663Y021473D01*
X028788Y021348D01*
X028952Y021280D01*
X029149Y021288D02*
X029493Y021288D01*
X029493Y021387D02*
X029332Y021387D01*
X029423Y021485D02*
X029493Y021485D01*
X029493Y021584D02*
X029464Y021584D01*
X029486Y021682D02*
X029493Y021682D01*
X029486Y021781D02*
X029493Y021781D01*
X029493Y021879D02*
X029459Y021879D01*
X029493Y021978D02*
X029418Y021978D01*
X029493Y022076D02*
X029319Y022076D01*
X029493Y022175D02*
X028751Y022175D01*
X028751Y022154D02*
X028697Y022022D01*
X028596Y021922D01*
X028464Y021867D01*
X028322Y021867D01*
X028191Y021922D01*
X028090Y022022D01*
X028036Y022154D01*
X028036Y022296D01*
X028090Y022428D01*
X028191Y022528D01*
X028322Y022583D01*
X028464Y022583D01*
X028596Y022528D01*
X028697Y022428D01*
X028751Y022296D01*
X028751Y022154D01*
X028762Y022076D02*
X028719Y022076D01*
X028663Y021978D02*
X028652Y021978D01*
X028622Y021879D02*
X028493Y021879D01*
X028595Y021781D02*
X010326Y021781D01*
X010293Y021748D02*
X010418Y021873D01*
X010486Y022036D01*
X010486Y022214D01*
X010418Y022377D01*
X010293Y022502D01*
X010129Y022570D01*
X009952Y022570D01*
X009788Y022502D01*
X009663Y022377D01*
X009595Y022214D01*
X009595Y022036D01*
X009663Y021873D01*
X009788Y021748D01*
X009952Y021680D01*
X010129Y021680D01*
X010293Y021748D01*
X010135Y021682D02*
X028595Y021682D01*
X028617Y021584D02*
X007393Y021584D01*
X007393Y021682D02*
X009946Y021682D01*
X009755Y021781D02*
X007393Y021781D01*
X007393Y021879D02*
X009660Y021879D01*
X009620Y021978D02*
X007393Y021978D01*
X007393Y022076D02*
X009595Y022076D01*
X009595Y022175D02*
X007393Y022175D01*
X007393Y022273D02*
X009620Y022273D01*
X009661Y022372D02*
X007393Y022372D01*
X007393Y022470D02*
X009756Y022470D01*
X009948Y022569D02*
X007393Y022569D01*
X007393Y022667D02*
X026550Y022667D01*
X026449Y022766D02*
X007393Y022766D01*
X007393Y022864D02*
X026348Y022864D01*
X026247Y022963D02*
X007393Y022963D01*
X007393Y023061D02*
X026146Y023061D01*
X026045Y023160D02*
X007393Y023160D01*
X007393Y023258D02*
X025944Y023258D01*
X025843Y023357D02*
X010302Y023357D01*
X010293Y023348D02*
X010418Y023473D01*
X010486Y023636D01*
X010486Y023814D01*
X010418Y023977D01*
X010293Y024102D01*
X010129Y024170D01*
X009952Y024170D01*
X009788Y024102D01*
X009663Y023977D01*
X009595Y023814D01*
X009595Y023636D01*
X009663Y023473D01*
X009788Y023348D01*
X009952Y023280D01*
X010129Y023280D01*
X010293Y023348D01*
X010400Y023455D02*
X025742Y023455D01*
X025641Y023554D02*
X010451Y023554D01*
X010486Y023652D02*
X025540Y023652D01*
X025439Y023751D02*
X010486Y023751D01*
X010471Y023849D02*
X025338Y023849D01*
X025237Y023948D02*
X010430Y023948D01*
X010349Y024046D02*
X025136Y024046D01*
X025035Y024145D02*
X010191Y024145D01*
X010129Y024280D02*
X010293Y024348D01*
X010418Y024473D01*
X010486Y024636D01*
X010486Y024814D01*
X010418Y024977D01*
X010293Y025102D01*
X010129Y025170D01*
X009952Y025170D01*
X009788Y025102D01*
X009663Y024977D01*
X009595Y024814D01*
X009595Y024636D01*
X009663Y024473D01*
X009788Y024348D01*
X009952Y024280D01*
X010129Y024280D01*
X010278Y024342D02*
X024833Y024342D01*
X024732Y024440D02*
X010385Y024440D01*
X010445Y024539D02*
X024631Y024539D01*
X024530Y024637D02*
X010486Y024637D01*
X010486Y024736D02*
X024429Y024736D01*
X024328Y024834D02*
X010477Y024834D01*
X010437Y024933D02*
X024227Y024933D01*
X024126Y025031D02*
X010364Y025031D01*
X010227Y025130D02*
X024025Y025130D01*
X023924Y025228D02*
X007393Y025228D01*
X007393Y025130D02*
X009854Y025130D01*
X009717Y025031D02*
X007393Y025031D01*
X007393Y024933D02*
X009645Y024933D01*
X009604Y024834D02*
X007393Y024834D01*
X007393Y024736D02*
X009595Y024736D01*
X009595Y024637D02*
X007393Y024637D01*
X007393Y024539D02*
X009636Y024539D01*
X009696Y024440D02*
X007393Y024440D01*
X007393Y024342D02*
X009803Y024342D01*
X009890Y024145D02*
X007393Y024145D01*
X007393Y024243D02*
X024934Y024243D01*
X025036Y024440D02*
X035312Y024440D01*
X035308Y024432D02*
X035308Y024318D01*
X035352Y024214D01*
X035383Y024182D01*
X035383Y021618D01*
X035352Y021586D01*
X035308Y021482D01*
X035308Y021368D01*
X035352Y021264D01*
X035432Y021183D01*
X035537Y021140D01*
X035650Y021140D01*
X035755Y021183D01*
X035835Y021264D01*
X035878Y021368D01*
X035878Y021482D01*
X035835Y021586D01*
X035803Y021618D01*
X035803Y024182D01*
X035835Y024214D01*
X035878Y024318D01*
X035878Y024432D01*
X035835Y024536D01*
X035755Y024617D01*
X035650Y024660D01*
X035537Y024660D01*
X035432Y024617D01*
X035352Y024536D01*
X035308Y024432D01*
X035308Y024342D02*
X029610Y024342D01*
X029643Y024308D02*
X029526Y024425D01*
X029493Y024425D01*
X027993Y024425D01*
X027993Y022825D01*
X027260Y022825D01*
X027309Y022942D01*
X027309Y023108D01*
X027246Y023261D01*
X027129Y023377D01*
X026976Y023441D01*
X026811Y023441D01*
X026658Y023377D01*
X026541Y023261D01*
X026478Y023108D01*
X026478Y023035D01*
X022793Y026625D01*
X022793Y029225D01*
X021893Y029225D01*
X021893Y032525D01*
X016993Y032525D01*
X016993Y030625D01*
X013197Y030625D01*
X013218Y030634D01*
X013415Y030830D01*
X013521Y031086D01*
X013521Y031364D01*
X013415Y031620D01*
X013218Y031816D01*
X012962Y031922D01*
X012685Y031922D01*
X012428Y031816D01*
X012232Y031620D01*
X012126Y031364D01*
X012126Y031086D01*
X012232Y030830D01*
X012428Y030634D01*
X012449Y030625D01*
X011347Y030625D01*
X011368Y030634D01*
X011565Y030830D01*
X011671Y031086D01*
X011671Y031364D01*
X011565Y031620D01*
X011368Y031816D01*
X011112Y031922D01*
X010835Y031922D01*
X010578Y031816D01*
X010382Y031620D01*
X010301Y031425D01*
X009795Y031425D01*
X009715Y031620D01*
X009518Y031816D01*
X009262Y031922D01*
X008985Y031922D01*
X008728Y031816D01*
X008532Y031620D01*
X008451Y031425D01*
X007693Y031425D01*
X007693Y036442D01*
X007976Y036725D01*
X009487Y036725D01*
X009382Y036620D01*
X009276Y036364D01*
X009276Y036086D01*
X009382Y035830D01*
X009578Y035634D01*
X009835Y035528D01*
X010112Y035528D01*
X010368Y035634D01*
X010565Y035830D01*
X010671Y036086D01*
X010671Y036364D01*
X010565Y036620D01*
X010460Y036725D01*
X011487Y036725D01*
X011382Y036620D01*
X011276Y036364D01*
X011276Y036086D01*
X011382Y035830D01*
X011578Y035634D01*
X011835Y035528D01*
X012112Y035528D01*
X012368Y035634D01*
X012565Y035830D01*
X012671Y036086D01*
X012671Y036364D01*
X012565Y036620D01*
X012460Y036725D01*
X015393Y036725D01*
X015743Y036375D01*
X015743Y036266D01*
X015708Y036182D01*
X015708Y036068D01*
X015743Y035984D01*
X015743Y035925D01*
X015790Y035925D01*
X015832Y035883D01*
X015937Y035840D01*
X016050Y035840D01*
X016155Y035883D01*
X016196Y035925D01*
X017843Y035925D01*
X017843Y036975D01*
X019526Y036975D01*
X019508Y036932D01*
X019508Y036818D01*
X019552Y036714D01*
X019632Y036633D01*
X019737Y036590D01*
X019850Y036590D01*
X019955Y036633D01*
X020035Y036714D01*
X020078Y036818D01*
X020078Y036932D01*
X020060Y036975D01*
X030526Y036975D01*
X030508Y036932D01*
X030508Y036818D01*
X030552Y036714D01*
X030632Y036633D01*
X030737Y036590D01*
X030850Y036590D01*
X030955Y036633D01*
X031035Y036714D01*
X031060Y036775D01*
X031510Y036325D01*
X055610Y036325D01*
X055993Y035942D01*
X055993Y006308D01*
X055610Y005925D01*
X024338Y005925D01*
X025943Y007575D01*
X025943Y008771D01*
X025998Y008794D01*
X026125Y008920D01*
X026193Y009085D01*
X026193Y009265D01*
X026125Y009430D01*
X025998Y009556D01*
X025833Y009625D01*
X025654Y009625D01*
X025488Y009556D01*
X025362Y009430D01*
X025339Y009375D01*
X025148Y009375D01*
X025125Y009430D01*
X024998Y009556D01*
X024833Y009625D01*
X024654Y009625D01*
X024488Y009556D01*
X024362Y009430D01*
X024293Y009265D01*
X024293Y009085D01*
X024362Y008920D01*
X024488Y008794D01*
X024543Y008771D01*
X024543Y006825D01*
X023943Y006225D01*
X022093Y006225D01*
X021293Y007025D01*
X015393Y007025D01*
X015393Y015413D01*
X016155Y016175D01*
X018108Y016175D01*
X018057Y016052D01*
X018057Y015898D01*
X018116Y015756D01*
X018225Y015648D01*
X018366Y015589D01*
X018520Y015589D01*
X018662Y015648D01*
X018680Y015665D01*
X029705Y015665D01*
X029819Y015712D01*
X030069Y015962D01*
X030156Y016049D01*
X030203Y016163D01*
X030203Y018247D01*
X030572Y018615D01*
X031207Y018615D01*
X031225Y018598D01*
X031366Y018539D01*
X031520Y018539D01*
X031662Y018598D01*
X031771Y018706D01*
X031830Y018848D01*
X031830Y019002D01*
X031771Y019144D01*
X031662Y019252D01*
X031520Y019311D01*
X031366Y019311D01*
X031225Y019252D01*
X031207Y019235D01*
X030382Y019235D01*
X030268Y019188D01*
X030181Y019101D01*
X029693Y018613D01*
X029693Y019479D01*
X029725Y019448D01*
X029866Y019389D01*
X030020Y019389D01*
X030162Y019448D01*
X030271Y019556D01*
X030330Y019698D01*
X030330Y019852D01*
X030271Y019994D01*
X030162Y020102D01*
X030020Y020161D01*
X029866Y020161D01*
X029725Y020102D01*
X029693Y020071D01*
X029693Y024225D01*
X029693Y024258D01*
X029643Y024308D01*
X029693Y024243D02*
X032058Y024243D01*
X032082Y024267D02*
X032002Y024186D01*
X031958Y024082D01*
X031958Y023968D01*
X032002Y023864D01*
X032082Y023783D01*
X032187Y023740D01*
X032300Y023740D01*
X032405Y023783D01*
X032485Y023864D01*
X032528Y023968D01*
X032528Y024082D01*
X032485Y024186D01*
X032405Y024267D01*
X032300Y024310D01*
X032187Y024310D01*
X032082Y024267D01*
X031984Y024145D02*
X029693Y024145D01*
X029693Y024225D02*
X029693Y024225D01*
X029693Y024046D02*
X031958Y024046D01*
X031967Y023948D02*
X029693Y023948D01*
X029693Y023849D02*
X031610Y023849D01*
X031637Y023860D02*
X031532Y023817D01*
X031452Y023736D01*
X031408Y023632D01*
X031408Y023518D01*
X031452Y023414D01*
X031532Y023333D01*
X031637Y023290D01*
X031750Y023290D01*
X031855Y023333D01*
X031935Y023414D01*
X031978Y023518D01*
X031978Y023632D01*
X031935Y023736D01*
X031855Y023817D01*
X031750Y023860D01*
X031637Y023860D01*
X031776Y023849D02*
X032016Y023849D01*
X031921Y023751D02*
X032161Y023751D01*
X032325Y023751D02*
X032766Y023751D01*
X032758Y023768D02*
X032802Y023664D01*
X032882Y023583D01*
X032987Y023540D01*
X033100Y023540D01*
X033205Y023583D01*
X033285Y023664D01*
X033328Y023768D01*
X033328Y023882D01*
X033285Y023986D01*
X033205Y024067D01*
X033100Y024110D01*
X032987Y024110D01*
X032882Y024067D01*
X032802Y023986D01*
X032758Y023882D01*
X032758Y023768D01*
X032758Y023849D02*
X032470Y023849D01*
X032520Y023948D02*
X032786Y023948D01*
X032861Y024046D02*
X032528Y024046D01*
X032502Y024145D02*
X035383Y024145D01*
X035383Y024046D02*
X033225Y024046D01*
X033301Y023948D02*
X035383Y023948D01*
X035383Y023849D02*
X033328Y023849D01*
X033321Y023751D02*
X035383Y023751D01*
X035383Y023652D02*
X033273Y023652D01*
X033133Y023554D02*
X035383Y023554D01*
X035383Y023455D02*
X031952Y023455D01*
X031978Y023554D02*
X032954Y023554D01*
X032813Y023652D02*
X031970Y023652D01*
X031878Y023357D02*
X035383Y023357D01*
X035383Y023258D02*
X029693Y023258D01*
X029693Y023160D02*
X035383Y023160D01*
X035383Y023061D02*
X029693Y023061D01*
X029693Y022963D02*
X035383Y022963D01*
X035383Y022864D02*
X029693Y022864D01*
X029693Y022766D02*
X035383Y022766D01*
X035383Y022667D02*
X029693Y022667D01*
X029693Y022569D02*
X035383Y022569D01*
X035383Y022470D02*
X029693Y022470D01*
X029693Y022372D02*
X035383Y022372D01*
X035383Y022273D02*
X029693Y022273D01*
X029693Y022175D02*
X035383Y022175D01*
X035383Y022076D02*
X029693Y022076D01*
X029693Y021978D02*
X035383Y021978D01*
X035383Y021879D02*
X029693Y021879D01*
X029693Y021781D02*
X035383Y021781D01*
X035383Y021682D02*
X033539Y021682D01*
X033505Y021717D02*
X033400Y021760D01*
X033287Y021760D01*
X033182Y021717D01*
X033102Y021636D01*
X033058Y021532D01*
X033058Y021418D01*
X033102Y021314D01*
X033182Y021233D01*
X033287Y021190D01*
X033400Y021190D01*
X033505Y021233D01*
X033585Y021314D01*
X033628Y021418D01*
X033628Y021532D01*
X033585Y021636D01*
X033505Y021717D01*
X033607Y021584D02*
X035350Y021584D01*
X035310Y021485D02*
X033628Y021485D01*
X033615Y021387D02*
X035308Y021387D01*
X035342Y021288D02*
X033559Y021288D01*
X033127Y021288D02*
X029693Y021288D01*
X029693Y021190D02*
X035426Y021190D01*
X035761Y021190D02*
X042262Y021190D01*
X042258Y021182D02*
X042258Y021068D01*
X042302Y020964D01*
X042382Y020883D01*
X042487Y020840D01*
X042600Y020840D01*
X042705Y020883D01*
X042785Y020964D01*
X042828Y021068D01*
X042828Y021182D01*
X042785Y021286D01*
X042705Y021367D01*
X042600Y021410D01*
X042487Y021410D01*
X042382Y021367D01*
X042302Y021286D01*
X042258Y021182D01*
X042258Y021091D02*
X033046Y021091D01*
X033000Y021110D02*
X032887Y021110D01*
X032782Y021067D01*
X032702Y020986D01*
X032658Y020882D01*
X032658Y020768D01*
X032702Y020664D01*
X032782Y020583D01*
X032887Y020540D01*
X033000Y020540D01*
X033105Y020583D01*
X033185Y020664D01*
X033228Y020768D01*
X033228Y020882D01*
X033185Y020986D01*
X033105Y021067D01*
X033000Y021110D01*
X032841Y021091D02*
X029693Y021091D01*
X029693Y020993D02*
X032708Y020993D01*
X032663Y020894D02*
X029693Y020894D01*
X029693Y020796D02*
X032658Y020796D01*
X032688Y020697D02*
X029693Y020697D01*
X029693Y020599D02*
X032767Y020599D01*
X033120Y020599D02*
X039587Y020599D01*
X039602Y020564D02*
X039558Y020668D01*
X039558Y020782D01*
X039602Y020886D01*
X039682Y020967D01*
X039787Y021010D01*
X039900Y021010D01*
X040005Y020967D01*
X040085Y020886D01*
X040128Y020782D01*
X040128Y020668D01*
X040085Y020564D01*
X040005Y020483D01*
X039900Y020440D01*
X039787Y020440D01*
X039682Y020483D01*
X039602Y020564D01*
X039665Y020500D02*
X029693Y020500D01*
X029693Y020402D02*
X034767Y020402D01*
X034782Y020417D02*
X034702Y020336D01*
X034658Y020232D01*
X034658Y020118D01*
X034702Y020014D01*
X034782Y019933D01*
X034887Y019890D01*
X035000Y019890D01*
X035105Y019933D01*
X035185Y020014D01*
X035228Y020118D01*
X035228Y020232D01*
X035185Y020336D01*
X035105Y020417D01*
X035000Y020460D01*
X034887Y020460D01*
X034782Y020417D01*
X034688Y020303D02*
X029693Y020303D01*
X029693Y020205D02*
X034658Y020205D01*
X034663Y020106D02*
X030153Y020106D01*
X030257Y020008D02*
X034708Y020008D01*
X034841Y019909D02*
X030306Y019909D01*
X030330Y019811D02*
X055993Y019811D01*
X055993Y019909D02*
X035046Y019909D01*
X035179Y020008D02*
X055993Y020008D01*
X055993Y020106D02*
X043689Y020106D01*
X043650Y020090D02*
X043755Y020133D01*
X043835Y020214D01*
X043878Y020318D01*
X043878Y020432D01*
X043835Y020536D01*
X043755Y020617D01*
X043650Y020660D01*
X043537Y020660D01*
X043432Y020617D01*
X043352Y020536D01*
X043308Y020432D01*
X043308Y020318D01*
X043352Y020214D01*
X043432Y020133D01*
X043537Y020090D01*
X043650Y020090D01*
X043498Y020106D02*
X035223Y020106D01*
X035228Y020205D02*
X043361Y020205D01*
X043315Y020303D02*
X035199Y020303D01*
X035120Y020402D02*
X043308Y020402D01*
X043337Y020500D02*
X040021Y020500D01*
X040099Y020599D02*
X043414Y020599D01*
X043773Y020599D02*
X055993Y020599D01*
X055993Y020697D02*
X040128Y020697D01*
X040123Y020796D02*
X044673Y020796D01*
X044687Y020790D02*
X044800Y020790D01*
X044905Y020833D01*
X044985Y020914D01*
X045028Y021018D01*
X045028Y021132D01*
X044985Y021236D01*
X044908Y021314D01*
X044955Y021333D01*
X045018Y021397D01*
X045082Y021333D01*
X045187Y021290D01*
X045300Y021290D01*
X045405Y021333D01*
X045485Y021414D01*
X045528Y021518D01*
X045528Y021632D01*
X045485Y021736D01*
X045405Y021817D01*
X045300Y021860D01*
X045187Y021860D01*
X045082Y021817D01*
X045018Y021753D01*
X044955Y021817D01*
X044850Y021860D01*
X044737Y021860D01*
X044632Y021817D01*
X044552Y021736D01*
X044508Y021632D01*
X044508Y021518D01*
X044552Y021414D01*
X044629Y021336D01*
X044582Y021317D01*
X044502Y021236D01*
X044458Y021132D01*
X044458Y021018D01*
X044502Y020914D01*
X044582Y020833D01*
X044687Y020790D01*
X044813Y020796D02*
X055993Y020796D01*
X055993Y020894D02*
X044965Y020894D01*
X045018Y020993D02*
X055993Y020993D01*
X055993Y021091D02*
X045028Y021091D01*
X045004Y021190D02*
X055993Y021190D01*
X055993Y021288D02*
X044933Y021288D01*
X045008Y021387D02*
X045029Y021387D01*
X045046Y021781D02*
X044991Y021781D01*
X044596Y021781D02*
X044563Y021781D01*
X044578Y021818D02*
X044535Y021714D01*
X044455Y021633D01*
X044350Y021590D01*
X044237Y021590D01*
X044132Y021633D01*
X044052Y021714D01*
X044008Y021818D01*
X044008Y021932D01*
X044052Y022036D01*
X044132Y022117D01*
X044237Y022160D01*
X044350Y022160D01*
X044455Y022117D01*
X044535Y022036D01*
X044578Y021932D01*
X044578Y021818D01*
X044578Y021879D02*
X055993Y021879D01*
X055993Y021781D02*
X045441Y021781D01*
X045507Y021682D02*
X055993Y021682D01*
X055993Y021584D02*
X045528Y021584D01*
X045515Y021485D02*
X055993Y021485D01*
X055993Y021387D02*
X045458Y021387D01*
X044579Y021387D02*
X042657Y021387D01*
X042783Y021288D02*
X044553Y021288D01*
X044482Y021190D02*
X042825Y021190D01*
X042828Y021091D02*
X044458Y021091D01*
X044469Y020993D02*
X042797Y020993D01*
X042715Y020894D02*
X044521Y020894D01*
X044522Y021485D02*
X039728Y021485D01*
X039728Y021468D02*
X039685Y021364D01*
X039605Y021283D01*
X039500Y021240D01*
X039387Y021240D01*
X039282Y021283D01*
X039202Y021364D01*
X039158Y021468D01*
X039158Y021582D01*
X039202Y021686D01*
X039282Y021767D01*
X039387Y021810D01*
X039500Y021810D01*
X039605Y021767D01*
X039685Y021686D01*
X039728Y021582D01*
X039728Y021468D01*
X039694Y021387D02*
X042430Y021387D01*
X042303Y021288D02*
X039609Y021288D01*
X039728Y021584D02*
X044508Y021584D01*
X044503Y021682D02*
X044529Y021682D01*
X044559Y021978D02*
X055993Y021978D01*
X055993Y022076D02*
X044495Y022076D01*
X044752Y022275D02*
X046435Y022275D01*
X046493Y022334D01*
X046493Y023516D01*
X046435Y023575D01*
X044752Y023575D01*
X044693Y023516D01*
X044693Y023434D01*
X044693Y022416D01*
X044693Y022334D01*
X044752Y022275D01*
X044693Y022372D02*
X035803Y022372D01*
X035803Y022470D02*
X044693Y022470D01*
X044693Y022569D02*
X038819Y022569D01*
X038855Y022583D02*
X038935Y022664D01*
X038978Y022768D01*
X038978Y022882D01*
X038935Y022986D01*
X038855Y023067D01*
X038750Y023110D01*
X038637Y023110D01*
X038532Y023067D01*
X038452Y022986D01*
X038408Y022882D01*
X038408Y022768D01*
X038452Y022664D01*
X038532Y022583D01*
X038637Y022540D01*
X038750Y022540D01*
X038855Y022583D01*
X038936Y022667D02*
X044693Y022667D01*
X044693Y022766D02*
X038977Y022766D01*
X038978Y022864D02*
X044693Y022864D01*
X044693Y022963D02*
X038945Y022963D01*
X038860Y023061D02*
X042436Y023061D01*
X042487Y023040D02*
X042600Y023040D01*
X042705Y023083D01*
X042785Y023164D01*
X042828Y023268D01*
X042828Y023382D01*
X042785Y023486D01*
X042705Y023567D01*
X042600Y023610D01*
X042487Y023610D01*
X042382Y023567D01*
X042302Y023486D01*
X042258Y023382D01*
X042258Y023268D01*
X042302Y023164D01*
X042382Y023083D01*
X042487Y023040D01*
X042651Y023061D02*
X044693Y023061D01*
X044693Y023160D02*
X042781Y023160D01*
X042824Y023258D02*
X044693Y023258D01*
X044693Y023357D02*
X044090Y023357D01*
X044050Y023340D02*
X044155Y023383D01*
X044235Y023464D01*
X044278Y023568D01*
X044278Y023682D01*
X044235Y023786D01*
X044155Y023867D01*
X044050Y023910D01*
X043937Y023910D01*
X043832Y023867D01*
X043752Y023786D01*
X043708Y023682D01*
X043708Y023568D01*
X043752Y023464D01*
X043832Y023383D01*
X043937Y023340D01*
X044050Y023340D01*
X043897Y023357D02*
X042828Y023357D01*
X042798Y023455D02*
X043760Y023455D01*
X043714Y023554D02*
X042718Y023554D01*
X042369Y023554D02*
X040099Y023554D01*
X040085Y023586D02*
X040128Y023482D01*
X040128Y023368D01*
X040085Y023264D01*
X040005Y023183D01*
X039900Y023140D01*
X039787Y023140D01*
X039682Y023183D01*
X039602Y023264D01*
X039558Y023368D01*
X039558Y023482D01*
X039602Y023586D01*
X039682Y023667D01*
X039787Y023710D01*
X039900Y023710D01*
X040005Y023667D01*
X040085Y023586D01*
X040019Y023652D02*
X043708Y023652D01*
X043737Y023751D02*
X038275Y023751D01*
X038250Y023740D02*
X038355Y023783D01*
X038435Y023864D01*
X038478Y023968D01*
X038478Y024082D01*
X038435Y024186D01*
X038355Y024267D01*
X038250Y024310D01*
X038137Y024310D01*
X038032Y024267D01*
X037952Y024186D01*
X037908Y024082D01*
X037908Y023968D01*
X037952Y023864D01*
X038032Y023783D01*
X038137Y023740D01*
X038250Y023740D01*
X038111Y023751D02*
X037671Y023751D01*
X037678Y023768D02*
X037635Y023664D01*
X037555Y023583D01*
X037450Y023540D01*
X037337Y023540D01*
X037232Y023583D01*
X037152Y023664D01*
X037108Y023768D01*
X037108Y023882D01*
X037152Y023986D01*
X037232Y024067D01*
X037337Y024110D01*
X037450Y024110D01*
X037555Y024067D01*
X037635Y023986D01*
X037678Y023882D01*
X037678Y023768D01*
X037678Y023849D02*
X037966Y023849D01*
X037917Y023948D02*
X037651Y023948D01*
X037575Y024046D02*
X037908Y024046D01*
X037934Y024145D02*
X035803Y024145D01*
X035803Y024046D02*
X037211Y024046D01*
X037136Y023948D02*
X035803Y023948D01*
X035803Y023849D02*
X037108Y023849D01*
X037116Y023751D02*
X035803Y023751D01*
X035803Y023652D02*
X037163Y023652D01*
X037304Y023554D02*
X035803Y023554D01*
X035803Y023455D02*
X038125Y023455D01*
X038137Y023460D02*
X038032Y023417D01*
X037952Y023336D01*
X037908Y023232D01*
X037908Y023118D01*
X037952Y023014D01*
X038032Y022933D01*
X038137Y022890D01*
X038250Y022890D01*
X038355Y022933D01*
X038435Y023014D01*
X038478Y023118D01*
X038478Y023232D01*
X038435Y023336D01*
X038355Y023417D01*
X038250Y023460D01*
X038137Y023460D01*
X038262Y023455D02*
X039558Y023455D01*
X039563Y023357D02*
X038415Y023357D01*
X038467Y023258D02*
X039607Y023258D01*
X039739Y023160D02*
X038478Y023160D01*
X038455Y023061D02*
X038526Y023061D01*
X038442Y022963D02*
X038384Y022963D01*
X038408Y022864D02*
X035803Y022864D01*
X035803Y022766D02*
X038409Y022766D01*
X038450Y022667D02*
X035803Y022667D01*
X035803Y022569D02*
X038568Y022569D01*
X038687Y022010D02*
X038582Y021967D01*
X038502Y021886D01*
X038458Y021782D01*
X038458Y021668D01*
X038502Y021564D01*
X038582Y021483D01*
X038687Y021440D01*
X038800Y021440D01*
X038905Y021483D01*
X038985Y021564D01*
X039028Y021668D01*
X039028Y021782D01*
X038985Y021886D01*
X038905Y021967D01*
X038800Y022010D01*
X038687Y022010D01*
X038608Y021978D02*
X035803Y021978D01*
X035803Y022076D02*
X044091Y022076D01*
X044027Y021978D02*
X038878Y021978D01*
X038988Y021879D02*
X044008Y021879D01*
X044024Y021781D02*
X039571Y021781D01*
X039687Y021682D02*
X044083Y021682D01*
X043850Y020500D02*
X055993Y020500D01*
X055993Y020402D02*
X043878Y020402D01*
X043872Y020303D02*
X055993Y020303D01*
X055993Y020205D02*
X043826Y020205D01*
X042371Y020894D02*
X040077Y020894D01*
X039942Y020993D02*
X042290Y020993D01*
X039744Y020993D02*
X033179Y020993D01*
X033223Y020894D02*
X039609Y020894D01*
X039564Y020796D02*
X033228Y020796D01*
X033199Y020697D02*
X039558Y020697D01*
X039277Y021288D02*
X035845Y021288D01*
X035878Y021387D02*
X039192Y021387D01*
X039158Y021485D02*
X038906Y021485D01*
X038993Y021584D02*
X039159Y021584D01*
X039200Y021682D02*
X039028Y021682D01*
X039028Y021781D02*
X039315Y021781D01*
X038580Y021485D02*
X035877Y021485D01*
X035836Y021584D02*
X038493Y021584D01*
X038458Y021682D02*
X035803Y021682D01*
X035803Y021781D02*
X038458Y021781D01*
X038499Y021879D02*
X035803Y021879D01*
X035803Y022175D02*
X055993Y022175D01*
X055993Y022273D02*
X035803Y022273D01*
X035803Y022963D02*
X038003Y022963D01*
X037932Y023061D02*
X035803Y023061D01*
X035803Y023160D02*
X037908Y023160D01*
X037919Y023258D02*
X035803Y023258D01*
X035803Y023357D02*
X037972Y023357D01*
X037623Y023652D02*
X039667Y023652D01*
X039588Y023554D02*
X037483Y023554D01*
X038420Y023849D02*
X043814Y023849D01*
X044172Y023849D02*
X046908Y023849D01*
X046908Y023818D02*
X046952Y023714D01*
X047032Y023633D01*
X047137Y023590D01*
X047250Y023590D01*
X047355Y023633D01*
X047435Y023714D01*
X047478Y023818D01*
X047478Y023932D01*
X047435Y024036D01*
X047355Y024117D01*
X047250Y024160D01*
X047137Y024160D01*
X047032Y024117D01*
X046952Y024036D01*
X046908Y023932D01*
X046908Y023818D01*
X046936Y023751D02*
X044250Y023751D01*
X044278Y023652D02*
X047013Y023652D01*
X046915Y023948D02*
X038470Y023948D01*
X038478Y024046D02*
X046961Y024046D01*
X047099Y024145D02*
X038452Y024145D01*
X038378Y024243D02*
X048572Y024243D01*
X048669Y024203D02*
X048441Y024297D01*
X048266Y024472D01*
X048171Y024701D01*
X048135Y024614D01*
X048055Y024533D01*
X047950Y024490D01*
X047837Y024490D01*
X047732Y024533D01*
X047652Y024614D01*
X047608Y024718D01*
X047608Y024832D01*
X047652Y024936D01*
X047732Y025017D01*
X047837Y025060D01*
X047950Y025060D01*
X048055Y025017D01*
X048135Y024936D01*
X048171Y024850D01*
X048171Y024949D01*
X048266Y025178D01*
X048441Y025353D01*
X048669Y025447D01*
X048917Y025447D01*
X049146Y025353D01*
X049321Y025178D01*
X049416Y024949D01*
X049416Y024701D01*
X049321Y024472D01*
X049146Y024297D01*
X048917Y024203D01*
X048669Y024203D01*
X048396Y024342D02*
X035878Y024342D01*
X035875Y024440D02*
X048298Y024440D01*
X048238Y024539D02*
X048060Y024539D01*
X048145Y024637D02*
X048197Y024637D01*
X048171Y024933D02*
X048137Y024933D01*
X048205Y025031D02*
X048020Y025031D01*
X048246Y025130D02*
X044992Y025130D01*
X044955Y025167D02*
X044850Y025210D01*
X044737Y025210D01*
X044632Y025167D01*
X044552Y025086D01*
X044508Y024982D01*
X044508Y024868D01*
X044552Y024764D01*
X044632Y024683D01*
X044737Y024640D01*
X044850Y024640D01*
X044955Y024683D01*
X045035Y024764D01*
X045078Y024868D01*
X045078Y024982D01*
X045035Y025086D01*
X044955Y025167D01*
X045058Y025031D02*
X047767Y025031D01*
X047650Y024933D02*
X045078Y024933D01*
X045064Y024834D02*
X047609Y024834D01*
X047608Y024736D02*
X045007Y024736D01*
X044580Y024736D02*
X024732Y024736D01*
X024631Y024834D02*
X044522Y024834D01*
X044508Y024933D02*
X024530Y024933D01*
X024429Y025031D02*
X044529Y025031D01*
X044595Y025130D02*
X038895Y025130D01*
X038905Y025133D02*
X038985Y025214D01*
X039028Y025318D01*
X039028Y025432D01*
X038985Y025536D01*
X038905Y025617D01*
X038800Y025660D01*
X038687Y025660D01*
X038582Y025617D01*
X038502Y025536D01*
X038458Y025432D01*
X038458Y025318D01*
X038502Y025214D01*
X038582Y025133D01*
X038687Y025090D01*
X038800Y025090D01*
X038905Y025133D01*
X038991Y025228D02*
X048316Y025228D01*
X048415Y025327D02*
X039028Y025327D01*
X039028Y025425D02*
X048615Y025425D01*
X048971Y025425D02*
X055993Y025425D01*
X055993Y025327D02*
X049172Y025327D01*
X049271Y025228D02*
X055993Y025228D01*
X055993Y025130D02*
X049341Y025130D01*
X049382Y025031D02*
X055993Y025031D01*
X055993Y024933D02*
X049416Y024933D01*
X049416Y024834D02*
X055993Y024834D01*
X055993Y024736D02*
X049416Y024736D01*
X049389Y024637D02*
X055993Y024637D01*
X055993Y024539D02*
X049348Y024539D01*
X049289Y024440D02*
X055993Y024440D01*
X055993Y024342D02*
X049190Y024342D01*
X049015Y024243D02*
X055993Y024243D01*
X055993Y024145D02*
X047287Y024145D01*
X047425Y024046D02*
X055993Y024046D01*
X055993Y023948D02*
X047472Y023948D01*
X047478Y023849D02*
X055993Y023849D01*
X055993Y023751D02*
X047450Y023751D01*
X047373Y023652D02*
X055993Y023652D01*
X055993Y023554D02*
X046456Y023554D01*
X046493Y023455D02*
X055993Y023455D01*
X055993Y023357D02*
X046493Y023357D01*
X046493Y023258D02*
X055993Y023258D01*
X055993Y023160D02*
X046493Y023160D01*
X046493Y023061D02*
X055993Y023061D01*
X055993Y022963D02*
X046493Y022963D01*
X046493Y022864D02*
X055993Y022864D01*
X055993Y022766D02*
X046493Y022766D01*
X046493Y022667D02*
X055993Y022667D01*
X055993Y022569D02*
X046493Y022569D01*
X046493Y022470D02*
X055993Y022470D01*
X055993Y022372D02*
X046493Y022372D01*
X044693Y023455D02*
X044226Y023455D01*
X044272Y023554D02*
X044730Y023554D01*
X042289Y023455D02*
X040128Y023455D01*
X040123Y023357D02*
X042258Y023357D01*
X042263Y023258D02*
X040079Y023258D01*
X039947Y023160D02*
X042306Y023160D01*
X042350Y026190D02*
X042455Y026233D01*
X042535Y026314D01*
X042543Y026334D01*
X042552Y026314D01*
X042632Y026233D01*
X042737Y026190D01*
X042850Y026190D01*
X042955Y026233D01*
X043035Y026314D01*
X043043Y026334D01*
X043052Y026314D01*
X043132Y026233D01*
X043237Y026190D01*
X043350Y026190D01*
X043455Y026233D01*
X043535Y026314D01*
X043543Y026334D01*
X043552Y026314D01*
X043632Y026233D01*
X043737Y026190D01*
X043850Y026190D01*
X043955Y026233D01*
X044035Y026314D01*
X044043Y026334D01*
X044052Y026314D01*
X044132Y026233D01*
X044237Y026190D01*
X044350Y026190D01*
X044455Y026233D01*
X044535Y026314D01*
X044543Y026334D01*
X044552Y026314D01*
X044632Y026233D01*
X044737Y026190D01*
X044850Y026190D01*
X044955Y026233D01*
X045035Y026314D01*
X045078Y026418D01*
X045078Y026532D01*
X045035Y026636D01*
X044955Y026717D01*
X044934Y026725D01*
X044955Y026733D01*
X045035Y026814D01*
X045078Y026918D01*
X045078Y027032D01*
X045035Y027136D01*
X044955Y027217D01*
X044934Y027225D01*
X044955Y027233D01*
X045035Y027314D01*
X045078Y027418D01*
X045078Y027532D01*
X045035Y027636D01*
X044955Y027717D01*
X044934Y027725D01*
X044955Y027733D01*
X045035Y027814D01*
X045078Y027918D01*
X045078Y028032D01*
X045035Y028136D01*
X044955Y028217D01*
X044934Y028225D01*
X044955Y028233D01*
X045035Y028314D01*
X045078Y028418D01*
X045078Y028532D01*
X045035Y028636D01*
X044955Y028717D01*
X044934Y028725D01*
X044955Y028733D01*
X045035Y028814D01*
X045078Y028918D01*
X045078Y029032D01*
X045035Y029136D01*
X044955Y029217D01*
X044934Y029225D01*
X044955Y029233D01*
X045035Y029314D01*
X045078Y029418D01*
X045078Y029532D01*
X045035Y029636D01*
X044955Y029717D01*
X044934Y029725D01*
X044955Y029733D01*
X045035Y029814D01*
X045078Y029918D01*
X045078Y030032D01*
X045035Y030136D01*
X044955Y030217D01*
X044850Y030260D01*
X044737Y030260D01*
X044632Y030217D01*
X044552Y030136D01*
X044543Y030116D01*
X044535Y030136D01*
X044455Y030217D01*
X044350Y030260D01*
X044237Y030260D01*
X044132Y030217D01*
X044052Y030136D01*
X044043Y030116D01*
X044035Y030136D01*
X043955Y030217D01*
X043850Y030260D01*
X043737Y030260D01*
X043632Y030217D01*
X043552Y030136D01*
X043543Y030116D01*
X043535Y030136D01*
X043455Y030217D01*
X043350Y030260D01*
X043237Y030260D01*
X043132Y030217D01*
X043052Y030136D01*
X043043Y030116D01*
X043035Y030136D01*
X042955Y030217D01*
X042850Y030260D01*
X042737Y030260D01*
X042632Y030217D01*
X042552Y030136D01*
X042543Y030116D01*
X042535Y030136D01*
X042455Y030217D01*
X042350Y030260D01*
X042237Y030260D01*
X042132Y030217D01*
X042052Y030136D01*
X042043Y030116D01*
X042035Y030136D01*
X041955Y030217D01*
X041850Y030260D01*
X041737Y030260D01*
X041632Y030217D01*
X041552Y030136D01*
X041508Y030032D01*
X041508Y029918D01*
X041552Y029814D01*
X041632Y029733D01*
X041652Y029725D01*
X041632Y029717D01*
X041552Y029636D01*
X041508Y029532D01*
X041508Y029418D01*
X041552Y029314D01*
X041632Y029233D01*
X041652Y029225D01*
X041632Y029217D01*
X041552Y029136D01*
X041508Y029032D01*
X041508Y028918D01*
X041552Y028814D01*
X041632Y028733D01*
X041652Y028725D01*
X041632Y028717D01*
X041552Y028636D01*
X041508Y028532D01*
X041508Y028418D01*
X041552Y028314D01*
X041632Y028233D01*
X041652Y028225D01*
X041632Y028217D01*
X041552Y028136D01*
X041508Y028032D01*
X041508Y027918D01*
X041552Y027814D01*
X041632Y027733D01*
X041652Y027725D01*
X041632Y027717D01*
X041552Y027636D01*
X041508Y027532D01*
X041508Y027418D01*
X041552Y027314D01*
X041632Y027233D01*
X041652Y027225D01*
X041632Y027217D01*
X041552Y027136D01*
X041508Y027032D01*
X041508Y026918D01*
X041552Y026814D01*
X041632Y026733D01*
X041652Y026725D01*
X041632Y026717D01*
X041552Y026636D01*
X041508Y026532D01*
X041508Y026418D01*
X041552Y026314D01*
X041632Y026233D01*
X041737Y026190D01*
X041850Y026190D01*
X041955Y026233D01*
X042035Y026314D01*
X042043Y026334D01*
X042052Y026314D01*
X042132Y026233D01*
X042237Y026190D01*
X042350Y026190D01*
X042406Y026213D02*
X042681Y026213D01*
X042554Y026312D02*
X042533Y026312D01*
X042181Y026213D02*
X041906Y026213D01*
X042033Y026312D02*
X042054Y026312D01*
X041681Y026213D02*
X032215Y026213D01*
X032228Y026182D02*
X032185Y026286D01*
X032105Y026367D01*
X032000Y026410D01*
X031887Y026410D01*
X031782Y026367D01*
X031702Y026286D01*
X031658Y026182D01*
X031658Y026068D01*
X031702Y025964D01*
X031782Y025883D01*
X031887Y025840D01*
X032000Y025840D01*
X032105Y025883D01*
X032185Y025964D01*
X032228Y026068D01*
X032228Y026182D01*
X032228Y026115D02*
X055993Y026115D01*
X055993Y026213D02*
X053409Y026213D01*
X053372Y026198D02*
X053537Y026266D01*
X053664Y026393D01*
X053732Y026558D01*
X053732Y026737D01*
X053664Y026903D01*
X053537Y027029D01*
X053372Y027098D01*
X053193Y027098D01*
X053027Y027029D01*
X052901Y026903D01*
X052832Y026737D01*
X052832Y026558D01*
X052901Y026393D01*
X053027Y026266D01*
X053193Y026198D01*
X053372Y026198D01*
X053156Y026213D02*
X052409Y026213D01*
X052372Y026198D02*
X052537Y026266D01*
X052664Y026393D01*
X052732Y026558D01*
X052732Y026737D01*
X052664Y026903D01*
X052537Y027029D01*
X052372Y027098D01*
X052193Y027098D01*
X052027Y027029D01*
X051901Y026903D01*
X051832Y026737D01*
X051832Y026558D01*
X051901Y026393D01*
X052027Y026266D01*
X052193Y026198D01*
X052372Y026198D01*
X052156Y026213D02*
X044906Y026213D01*
X045033Y026312D02*
X051982Y026312D01*
X051894Y026410D02*
X045075Y026410D01*
X045078Y026509D02*
X051853Y026509D01*
X051832Y026607D02*
X045047Y026607D01*
X044966Y026706D02*
X051832Y026706D01*
X051860Y026804D02*
X045025Y026804D01*
X045072Y026903D02*
X051901Y026903D01*
X051999Y027001D02*
X045078Y027001D01*
X045050Y027100D02*
X055993Y027100D01*
X055993Y027198D02*
X053372Y027198D01*
X053537Y027266D01*
X053664Y027393D01*
X053732Y027558D01*
X053732Y027737D01*
X053664Y027903D01*
X053537Y028029D01*
X053372Y028098D01*
X053193Y028098D01*
X053027Y028029D01*
X052901Y027903D01*
X052832Y027737D01*
X052832Y027558D01*
X052901Y027393D01*
X053027Y027266D01*
X053193Y027198D01*
X053372Y027198D01*
X053192Y027198D02*
X052372Y027198D01*
X052537Y027266D01*
X052664Y027393D01*
X052732Y027558D01*
X052732Y027737D01*
X052664Y027903D01*
X052537Y028029D01*
X052372Y028098D01*
X052193Y028098D01*
X052027Y028029D01*
X051901Y027903D01*
X051832Y027737D01*
X051832Y027558D01*
X051901Y027393D01*
X052027Y027266D01*
X052193Y027198D01*
X052372Y027198D01*
X052192Y027198D02*
X044973Y027198D01*
X045018Y027297D02*
X051997Y027297D01*
X051900Y027395D02*
X045069Y027395D01*
X045078Y027494D02*
X051859Y027494D01*
X051832Y027592D02*
X045053Y027592D01*
X044981Y027691D02*
X051832Y027691D01*
X051854Y027789D02*
X045010Y027789D01*
X045066Y027888D02*
X051895Y027888D01*
X051984Y027986D02*
X045078Y027986D01*
X045056Y028085D02*
X052161Y028085D01*
X052193Y028198D02*
X052372Y028198D01*
X052537Y028266D01*
X052664Y028393D01*
X052732Y028558D01*
X052732Y028737D01*
X052664Y028903D01*
X052537Y029029D01*
X052372Y029098D01*
X052193Y029098D01*
X052027Y029029D01*
X051901Y028903D01*
X051832Y028737D01*
X051832Y028558D01*
X051901Y028393D01*
X052027Y028266D01*
X052193Y028198D01*
X052012Y028282D02*
X045003Y028282D01*
X044988Y028183D02*
X055993Y028183D01*
X055993Y028085D02*
X053404Y028085D01*
X053372Y028198D02*
X053537Y028266D01*
X053664Y028393D01*
X053732Y028558D01*
X053732Y028737D01*
X053664Y028903D01*
X053537Y029029D01*
X053372Y029098D01*
X053193Y029098D01*
X053027Y029029D01*
X052901Y028903D01*
X052832Y028737D01*
X052832Y028558D01*
X052901Y028393D01*
X053027Y028266D01*
X053193Y028198D01*
X053372Y028198D01*
X053552Y028282D02*
X055993Y028282D01*
X055993Y028380D02*
X053651Y028380D01*
X053699Y028479D02*
X055993Y028479D01*
X055993Y028577D02*
X053732Y028577D01*
X053732Y028676D02*
X055993Y028676D01*
X055993Y028774D02*
X053717Y028774D01*
X053676Y028873D02*
X055993Y028873D01*
X055993Y028971D02*
X053595Y028971D01*
X053440Y029070D02*
X055993Y029070D01*
X055993Y029168D02*
X045003Y029168D01*
X044988Y029267D02*
X052027Y029267D01*
X052027Y029266D02*
X052193Y029198D01*
X052372Y029198D01*
X052537Y029266D01*
X052664Y029393D01*
X052732Y029558D01*
X052732Y029737D01*
X052664Y029903D01*
X052537Y030029D01*
X052372Y030098D01*
X052193Y030098D01*
X052027Y030029D01*
X051901Y029903D01*
X051832Y029737D01*
X051832Y029558D01*
X051901Y029393D01*
X052027Y029266D01*
X051929Y029365D02*
X045056Y029365D01*
X045078Y029464D02*
X051872Y029464D01*
X051832Y029562D02*
X045066Y029562D01*
X045011Y029661D02*
X051832Y029661D01*
X051841Y029759D02*
X044980Y029759D01*
X045053Y029858D02*
X051882Y029858D01*
X051954Y029956D02*
X045078Y029956D01*
X045069Y030055D02*
X052088Y030055D01*
X052476Y030055D02*
X053088Y030055D01*
X053027Y030029D02*
X052901Y029903D01*
X052832Y029737D01*
X052832Y029558D01*
X052901Y029393D01*
X053027Y029266D01*
X053193Y029198D01*
X053372Y029198D01*
X053537Y029266D01*
X053664Y029393D01*
X053732Y029558D01*
X053732Y029737D01*
X053664Y029903D01*
X053537Y030029D01*
X053372Y030098D01*
X053193Y030098D01*
X053027Y030029D01*
X052954Y029956D02*
X052610Y029956D01*
X052682Y029858D02*
X052882Y029858D01*
X052841Y029759D02*
X052723Y029759D01*
X052732Y029661D02*
X052832Y029661D01*
X052832Y029562D02*
X052732Y029562D01*
X052693Y029464D02*
X052872Y029464D01*
X052929Y029365D02*
X052636Y029365D01*
X052537Y029267D02*
X053027Y029267D01*
X053125Y029070D02*
X052440Y029070D01*
X052595Y028971D02*
X052969Y028971D01*
X052888Y028873D02*
X052676Y028873D01*
X052717Y028774D02*
X052847Y028774D01*
X052832Y028676D02*
X052732Y028676D01*
X052732Y028577D02*
X052832Y028577D01*
X052865Y028479D02*
X052699Y028479D01*
X052651Y028380D02*
X052914Y028380D01*
X053012Y028282D02*
X052552Y028282D01*
X052404Y028085D02*
X053161Y028085D01*
X052984Y027986D02*
X052580Y027986D01*
X052670Y027888D02*
X052895Y027888D01*
X052854Y027789D02*
X052711Y027789D01*
X052732Y027691D02*
X052832Y027691D01*
X052832Y027592D02*
X052732Y027592D01*
X052705Y027494D02*
X052859Y027494D01*
X052900Y027395D02*
X052665Y027395D01*
X052567Y027297D02*
X052997Y027297D01*
X052999Y027001D02*
X052565Y027001D01*
X052664Y026903D02*
X052901Y026903D01*
X052860Y026804D02*
X052705Y026804D01*
X052732Y026706D02*
X052832Y026706D01*
X052832Y026607D02*
X052732Y026607D01*
X052712Y026509D02*
X052853Y026509D01*
X052894Y026410D02*
X052671Y026410D01*
X052582Y026312D02*
X052982Y026312D01*
X053582Y026312D02*
X055993Y026312D01*
X055993Y026410D02*
X053671Y026410D01*
X053712Y026509D02*
X055993Y026509D01*
X055993Y026607D02*
X053732Y026607D01*
X053732Y026706D02*
X055993Y026706D01*
X055993Y026804D02*
X053705Y026804D01*
X053664Y026903D02*
X055993Y026903D01*
X055993Y027001D02*
X053565Y027001D01*
X053567Y027297D02*
X055993Y027297D01*
X055993Y027395D02*
X053665Y027395D01*
X053705Y027494D02*
X055993Y027494D01*
X055993Y027592D02*
X053732Y027592D01*
X053732Y027691D02*
X055993Y027691D01*
X055993Y027789D02*
X053711Y027789D01*
X053670Y027888D02*
X055993Y027888D01*
X055993Y027986D02*
X053580Y027986D01*
X052125Y029070D02*
X045063Y029070D01*
X045078Y028971D02*
X051969Y028971D01*
X051888Y028873D02*
X045059Y028873D01*
X044995Y028774D02*
X051847Y028774D01*
X051832Y028676D02*
X044996Y028676D01*
X045060Y028577D02*
X051832Y028577D01*
X051865Y028479D02*
X045078Y028479D01*
X045062Y028380D02*
X051914Y028380D01*
X053537Y029267D02*
X055993Y029267D01*
X055993Y029365D02*
X053636Y029365D01*
X053693Y029464D02*
X055993Y029464D01*
X055993Y029562D02*
X053732Y029562D01*
X053732Y029661D02*
X055993Y029661D01*
X055993Y029759D02*
X053723Y029759D01*
X053682Y029858D02*
X055993Y029858D01*
X055993Y029956D02*
X053610Y029956D01*
X053476Y030055D02*
X055993Y030055D01*
X055993Y030153D02*
X045018Y030153D01*
X044870Y030252D02*
X055993Y030252D01*
X055993Y030350D02*
X033628Y030350D01*
X033628Y030382D02*
X033585Y030486D01*
X033505Y030567D01*
X033400Y030610D01*
X033287Y030610D01*
X033182Y030567D01*
X033102Y030486D01*
X033058Y030382D01*
X033058Y030268D01*
X033102Y030164D01*
X033182Y030083D01*
X033287Y030040D01*
X033400Y030040D01*
X033505Y030083D01*
X033585Y030164D01*
X033628Y030268D01*
X033628Y030382D01*
X033601Y030449D02*
X050558Y030449D01*
X050669Y030403D02*
X050917Y030403D01*
X051146Y030497D01*
X051321Y030672D01*
X051416Y030901D01*
X051416Y031149D01*
X051321Y031378D01*
X051146Y031553D01*
X050917Y031647D01*
X050669Y031647D01*
X050441Y031553D01*
X050266Y031378D01*
X050171Y031149D01*
X050171Y030901D01*
X050266Y030672D01*
X050441Y030497D01*
X050669Y030403D01*
X050391Y030547D02*
X037518Y030547D01*
X037505Y030533D02*
X037585Y030614D01*
X037628Y030718D01*
X037628Y030832D01*
X037585Y030936D01*
X037505Y031017D01*
X037400Y031060D01*
X037287Y031060D01*
X037182Y031017D01*
X037102Y030936D01*
X037058Y030832D01*
X037058Y030718D01*
X037102Y030614D01*
X037182Y030533D01*
X037287Y030490D01*
X037400Y030490D01*
X037505Y030533D01*
X037598Y030646D02*
X050292Y030646D01*
X050236Y030744D02*
X044660Y030744D01*
X044650Y030740D02*
X044755Y030783D01*
X044835Y030864D01*
X044878Y030968D01*
X044878Y031082D01*
X044835Y031186D01*
X044755Y031267D01*
X044650Y031310D01*
X044537Y031310D01*
X044432Y031267D01*
X044352Y031186D01*
X044308Y031082D01*
X044308Y030968D01*
X044352Y030864D01*
X044432Y030783D01*
X044537Y030740D01*
X044650Y030740D01*
X044527Y030744D02*
X037628Y030744D01*
X037624Y030843D02*
X044373Y030843D01*
X044320Y030941D02*
X037580Y030941D01*
X037449Y031040D02*
X044308Y031040D01*
X044332Y031138D02*
X035378Y031138D01*
X035378Y031118D02*
X035335Y031014D01*
X035255Y030933D01*
X035150Y030890D01*
X035037Y030890D01*
X034932Y030933D01*
X034852Y031014D01*
X034808Y031118D01*
X034808Y031232D01*
X034852Y031336D01*
X034932Y031417D01*
X035037Y031460D01*
X035150Y031460D01*
X035255Y031417D01*
X035335Y031336D01*
X035378Y031232D01*
X035378Y031118D01*
X035346Y031040D02*
X037237Y031040D01*
X037106Y030941D02*
X035262Y030941D01*
X035376Y031237D02*
X044402Y031237D01*
X044785Y031237D02*
X050207Y031237D01*
X050171Y031138D02*
X044855Y031138D01*
X044878Y031040D02*
X050171Y031040D01*
X050171Y030941D02*
X044867Y030941D01*
X044814Y030843D02*
X050195Y030843D01*
X050248Y031335D02*
X035335Y031335D01*
X035214Y031434D02*
X050322Y031434D01*
X050420Y031532D02*
X032941Y031532D01*
X032928Y031500D02*
X033057Y031813D01*
X033057Y032151D01*
X032928Y032463D01*
X032689Y032702D01*
X032377Y032832D01*
X032038Y032832D01*
X031726Y032702D01*
X031487Y032463D01*
X031357Y032151D01*
X031357Y031813D01*
X031487Y031500D01*
X031726Y031261D01*
X032038Y031132D01*
X032377Y031132D01*
X032689Y031261D01*
X032928Y031500D01*
X032861Y031434D02*
X034973Y031434D01*
X034851Y031335D02*
X032763Y031335D01*
X032630Y031237D02*
X034810Y031237D01*
X034808Y031138D02*
X032392Y031138D01*
X032023Y031138D02*
X029723Y031138D01*
X029723Y031179D02*
X029647Y031255D01*
X028239Y031255D01*
X028163Y031179D01*
X028163Y025321D01*
X028239Y025245D01*
X028347Y025245D01*
X030497Y025245D01*
X030573Y025321D01*
X030573Y029129D01*
X030497Y029205D01*
X030397Y029305D01*
X030097Y029305D01*
X029723Y029679D01*
X029723Y031179D01*
X029666Y031237D02*
X031785Y031237D01*
X031652Y031335D02*
X021893Y031335D01*
X021893Y031237D02*
X028221Y031237D01*
X028163Y031138D02*
X021893Y031138D01*
X021893Y031040D02*
X028163Y031040D01*
X028163Y030941D02*
X021893Y030941D01*
X021893Y030843D02*
X028163Y030843D01*
X028163Y030744D02*
X021893Y030744D01*
X021893Y030646D02*
X028163Y030646D01*
X028163Y030547D02*
X021893Y030547D01*
X021893Y030449D02*
X022014Y030449D01*
X022032Y030467D02*
X021952Y030386D01*
X021908Y030282D01*
X021908Y030168D01*
X021952Y030064D01*
X022032Y029983D01*
X022137Y029940D01*
X022250Y029940D01*
X022355Y029983D01*
X022435Y030064D01*
X022478Y030168D01*
X022478Y030282D01*
X022435Y030386D01*
X022355Y030467D01*
X022250Y030510D01*
X022137Y030510D01*
X022032Y030467D01*
X021937Y030350D02*
X021893Y030350D01*
X021893Y030252D02*
X021908Y030252D01*
X021915Y030153D02*
X021893Y030153D01*
X021893Y030055D02*
X021961Y030055D01*
X021893Y029956D02*
X022098Y029956D01*
X022289Y029956D02*
X028163Y029956D01*
X028163Y029858D02*
X021893Y029858D01*
X021893Y029759D02*
X028163Y029759D01*
X028163Y029661D02*
X021893Y029661D01*
X021893Y029562D02*
X028163Y029562D01*
X028163Y029464D02*
X021893Y029464D01*
X021893Y029365D02*
X028163Y029365D01*
X028163Y029267D02*
X024155Y029267D01*
X024050Y029310D01*
X023937Y029310D01*
X023832Y029267D01*
X023752Y029186D01*
X023708Y029082D01*
X023708Y028968D01*
X023752Y028864D01*
X023832Y028783D01*
X023937Y028740D01*
X024050Y028740D01*
X024155Y028783D01*
X024235Y028864D01*
X024278Y028968D01*
X024278Y029082D01*
X024235Y029186D01*
X024155Y029267D01*
X024243Y029168D02*
X028163Y029168D01*
X028163Y029070D02*
X024278Y029070D01*
X024278Y028971D02*
X028163Y028971D01*
X028163Y028873D02*
X024239Y028873D01*
X024132Y028774D02*
X028163Y028774D01*
X028163Y028676D02*
X022793Y028676D01*
X022793Y028774D02*
X023854Y028774D01*
X023748Y028873D02*
X022793Y028873D01*
X022793Y028971D02*
X023708Y028971D01*
X023708Y029070D02*
X022793Y029070D01*
X022793Y029168D02*
X023744Y029168D01*
X023832Y029267D02*
X021893Y029267D01*
X021693Y029267D02*
X020678Y029267D01*
X020678Y029268D02*
X020635Y029164D01*
X020555Y029083D01*
X020450Y029040D01*
X020360Y029040D01*
X020422Y028978D01*
X020463Y028879D01*
X020463Y028771D01*
X020422Y028672D01*
X020346Y028596D01*
X020247Y028555D01*
X020140Y028555D01*
X020040Y028596D01*
X019964Y028672D01*
X019923Y028771D01*
X019923Y028879D01*
X019964Y028978D01*
X020040Y029054D01*
X020140Y029095D01*
X020220Y029095D01*
X020152Y029164D01*
X020108Y029268D01*
X020108Y029382D01*
X020152Y029486D01*
X020232Y029567D01*
X020337Y029610D01*
X020450Y029610D01*
X020555Y029567D01*
X020635Y029486D01*
X020678Y029382D01*
X020678Y029268D01*
X020678Y029365D02*
X021693Y029365D01*
X021693Y029464D02*
X020644Y029464D01*
X020559Y029562D02*
X021693Y029562D01*
X021693Y029661D02*
X016683Y029661D01*
X016664Y029706D02*
X016793Y029394D01*
X016793Y029056D01*
X016664Y028744D01*
X016425Y028504D01*
X016112Y028375D01*
X015774Y028375D01*
X015462Y028504D01*
X015223Y028744D01*
X015093Y029056D01*
X015093Y029394D01*
X015223Y029706D01*
X015462Y029946D01*
X015774Y030075D01*
X016112Y030075D01*
X016425Y029946D01*
X016664Y029706D01*
X016611Y029759D02*
X021693Y029759D01*
X021693Y029858D02*
X016513Y029858D01*
X016400Y029956D02*
X021693Y029956D01*
X021693Y030055D02*
X016162Y030055D01*
X015725Y030055D02*
X010341Y030055D01*
X010293Y030102D02*
X010129Y030170D01*
X009952Y030170D01*
X009788Y030102D01*
X009663Y029977D01*
X009595Y029814D01*
X009595Y029636D01*
X009663Y029473D01*
X009788Y029348D01*
X009952Y029280D01*
X010129Y029280D01*
X010293Y029348D01*
X010418Y029473D01*
X010486Y029636D01*
X010486Y029814D01*
X010418Y029977D01*
X010293Y030102D01*
X010171Y030153D02*
X021693Y030153D01*
X021693Y030252D02*
X007393Y030252D01*
X007393Y030350D02*
X009786Y030350D01*
X009687Y030449D02*
X007393Y030449D01*
X007393Y030547D02*
X008937Y030547D01*
X008716Y030646D02*
X007393Y030646D01*
X007393Y030744D02*
X008618Y030744D01*
X008527Y030843D02*
X007393Y030843D01*
X007393Y030941D02*
X008486Y030941D01*
X008445Y031040D02*
X007393Y031040D01*
X007393Y031138D02*
X008426Y031138D01*
X008455Y031434D02*
X007693Y031434D01*
X007693Y031532D02*
X008496Y031532D01*
X008542Y031631D02*
X007693Y031631D01*
X007693Y031729D02*
X008641Y031729D01*
X008755Y031828D02*
X007693Y031828D01*
X007693Y031926D02*
X016993Y031926D01*
X016993Y031828D02*
X013191Y031828D01*
X013306Y031729D02*
X016993Y031729D01*
X016993Y031631D02*
X013404Y031631D01*
X013451Y031532D02*
X016993Y031532D01*
X016993Y031434D02*
X013492Y031434D01*
X013521Y031335D02*
X016993Y031335D01*
X016993Y031237D02*
X013521Y031237D01*
X013521Y031138D02*
X016993Y031138D01*
X016993Y031040D02*
X013501Y031040D01*
X013461Y030941D02*
X016993Y030941D01*
X016993Y030843D02*
X013420Y030843D01*
X013329Y030744D02*
X016993Y030744D01*
X016993Y030646D02*
X013230Y030646D01*
X012416Y030646D02*
X011380Y030646D01*
X011479Y030744D02*
X012318Y030744D01*
X012227Y030843D02*
X011570Y030843D01*
X011611Y030941D02*
X012186Y030941D01*
X012145Y031040D02*
X011651Y031040D01*
X011671Y031138D02*
X012126Y031138D01*
X012126Y031237D02*
X011671Y031237D01*
X011671Y031335D02*
X012126Y031335D01*
X012155Y031434D02*
X011642Y031434D01*
X011601Y031532D02*
X012196Y031532D01*
X012242Y031631D02*
X011554Y031631D01*
X011456Y031729D02*
X012341Y031729D01*
X012455Y031828D02*
X011341Y031828D01*
X010605Y031828D02*
X009491Y031828D01*
X009606Y031729D02*
X010491Y031729D01*
X010392Y031631D02*
X009704Y031631D01*
X009751Y031532D02*
X010346Y031532D01*
X010305Y031434D02*
X009792Y031434D01*
X009595Y030646D02*
X009530Y030646D01*
X009632Y030547D02*
X009309Y030547D01*
X009740Y030055D02*
X007393Y030055D01*
X007393Y030153D02*
X009910Y030153D01*
X009654Y029956D02*
X007393Y029956D01*
X007393Y029858D02*
X009613Y029858D01*
X009595Y029759D02*
X007393Y029759D01*
X007393Y029661D02*
X009595Y029661D01*
X009626Y029562D02*
X007393Y029562D01*
X007393Y029464D02*
X009672Y029464D01*
X009771Y029365D02*
X007393Y029365D01*
X007393Y029267D02*
X015093Y029267D01*
X015093Y029365D02*
X010310Y029365D01*
X010409Y029464D02*
X015122Y029464D01*
X015163Y029562D02*
X010455Y029562D01*
X010486Y029661D02*
X015204Y029661D01*
X015275Y029759D02*
X010486Y029759D01*
X010468Y029858D02*
X015374Y029858D01*
X015487Y029956D02*
X010427Y029956D01*
X010295Y030350D02*
X017903Y030350D01*
X017952Y030330D02*
X018129Y030330D01*
X018293Y030398D01*
X018418Y030523D01*
X018486Y030686D01*
X018486Y030864D01*
X018418Y031027D01*
X018293Y031152D01*
X018129Y031220D01*
X017952Y031220D01*
X017788Y031152D01*
X017663Y031027D01*
X017595Y030864D01*
X017595Y030686D01*
X017663Y030523D01*
X017788Y030398D01*
X017952Y030330D01*
X018178Y030350D02*
X018903Y030350D01*
X018952Y030330D02*
X019129Y030330D01*
X019293Y030398D01*
X019418Y030523D01*
X019486Y030686D01*
X019486Y030864D01*
X019418Y031027D01*
X019293Y031152D01*
X019129Y031220D01*
X018952Y031220D01*
X018788Y031152D01*
X018663Y031027D01*
X018595Y030864D01*
X018595Y030686D01*
X018663Y030523D01*
X018788Y030398D01*
X018952Y030330D01*
X019178Y030350D02*
X019903Y030350D01*
X019952Y030330D02*
X020129Y030330D01*
X020293Y030398D01*
X020418Y030523D01*
X020486Y030686D01*
X020486Y030864D01*
X020418Y031027D01*
X020293Y031152D01*
X020129Y031220D01*
X019952Y031220D01*
X019788Y031152D01*
X019663Y031027D01*
X019595Y030864D01*
X019595Y030686D01*
X019663Y030523D01*
X019788Y030398D01*
X019952Y030330D01*
X020178Y030350D02*
X021693Y030350D01*
X021693Y030449D02*
X020344Y030449D01*
X020428Y030547D02*
X021693Y030547D01*
X021693Y030646D02*
X020469Y030646D01*
X020486Y030744D02*
X021693Y030744D01*
X021693Y030843D02*
X020486Y030843D01*
X020454Y030941D02*
X021693Y030941D01*
X021693Y031040D02*
X020406Y031040D01*
X020307Y031138D02*
X021693Y031138D01*
X021693Y031237D02*
X017193Y031237D01*
X017193Y031335D02*
X018939Y031335D01*
X018952Y031330D02*
X019129Y031330D01*
X019293Y031398D01*
X019418Y031523D01*
X019486Y031686D01*
X019486Y031864D01*
X019418Y032027D01*
X019293Y032152D01*
X019129Y032220D01*
X018952Y032220D01*
X018788Y032152D01*
X018663Y032027D01*
X018595Y031864D01*
X018595Y031686D01*
X018663Y031523D01*
X018788Y031398D01*
X018952Y031330D01*
X019142Y031335D02*
X019939Y031335D01*
X019952Y031330D02*
X020129Y031330D01*
X020293Y031398D01*
X020418Y031523D01*
X020486Y031686D01*
X020486Y031864D01*
X020418Y032027D01*
X020293Y032152D01*
X020129Y032220D01*
X019952Y032220D01*
X019788Y032152D01*
X019663Y032027D01*
X019595Y031864D01*
X019595Y031686D01*
X019663Y031523D01*
X019788Y031398D01*
X019952Y031330D01*
X020142Y031335D02*
X021693Y031335D01*
X021693Y031434D02*
X020329Y031434D01*
X020422Y031532D02*
X021693Y031532D01*
X021693Y031631D02*
X020463Y031631D01*
X020486Y031729D02*
X021693Y031729D01*
X021693Y031828D02*
X020486Y031828D01*
X020460Y031926D02*
X021693Y031926D01*
X021693Y032025D02*
X020419Y032025D01*
X020322Y032123D02*
X021693Y032123D01*
X021693Y032222D02*
X017193Y032222D01*
X017193Y032320D02*
X021693Y032320D01*
X021893Y032320D02*
X031428Y032320D01*
X031468Y032419D02*
X021893Y032419D01*
X021893Y032517D02*
X031541Y032517D01*
X031639Y032616D02*
X028962Y032616D01*
X029005Y032633D02*
X029085Y032714D01*
X031754Y032714D01*
X031992Y032813D02*
X029126Y032813D01*
X029128Y032818D02*
X029085Y032714D01*
X029128Y032818D02*
X029128Y032932D01*
X029085Y033036D01*
X029005Y033117D01*
X028900Y033160D01*
X028787Y033160D01*
X028682Y033117D01*
X028602Y033036D01*
X028558Y032932D01*
X028558Y032818D01*
X028602Y032714D01*
X028601Y032714D02*
X022463Y032714D01*
X022442Y032664D02*
X022486Y032768D01*
X022486Y032882D01*
X022442Y032986D01*
X022362Y033067D01*
X022257Y033110D01*
X022144Y033110D01*
X022039Y033067D01*
X021959Y032986D01*
X021916Y032882D01*
X021916Y032768D01*
X021959Y032664D01*
X022039Y032583D01*
X022144Y032540D01*
X022257Y032540D01*
X022362Y032583D01*
X022442Y032664D01*
X022394Y032616D02*
X028725Y032616D01*
X028682Y032633D02*
X028787Y032590D01*
X028900Y032590D01*
X029005Y032633D01*
X029128Y032911D02*
X055993Y032911D01*
X055993Y032813D02*
X032423Y032813D01*
X032661Y032714D02*
X055993Y032714D01*
X055993Y032616D02*
X032776Y032616D01*
X032874Y032517D02*
X038182Y032517D01*
X038152Y032486D02*
X038232Y032567D01*
X038337Y032610D01*
X038450Y032610D01*
X038555Y032567D01*
X038635Y032486D01*
X038678Y032382D01*
X038678Y032268D01*
X038635Y032164D01*
X038555Y032083D01*
X038450Y032040D01*
X038337Y032040D01*
X038232Y032083D01*
X038152Y032164D01*
X038108Y032268D01*
X038108Y032382D01*
X038152Y032486D01*
X038124Y032419D02*
X032947Y032419D01*
X032987Y032320D02*
X038108Y032320D01*
X038128Y032222D02*
X033028Y032222D01*
X033057Y032123D02*
X038192Y032123D01*
X038594Y032123D02*
X055993Y032123D01*
X055993Y032025D02*
X033057Y032025D01*
X033057Y031926D02*
X055993Y031926D01*
X055993Y031828D02*
X033057Y031828D01*
X033023Y031729D02*
X055993Y031729D01*
X055993Y031631D02*
X050958Y031631D01*
X051167Y031532D02*
X055993Y031532D01*
X055993Y031434D02*
X051265Y031434D01*
X051339Y031335D02*
X055993Y031335D01*
X055993Y031237D02*
X051379Y031237D01*
X051416Y031138D02*
X055993Y031138D01*
X055993Y031040D02*
X051416Y031040D01*
X051416Y030941D02*
X055993Y030941D01*
X055993Y030843D02*
X051391Y030843D01*
X051351Y030744D02*
X055993Y030744D01*
X055993Y030646D02*
X051294Y030646D01*
X051196Y030547D02*
X055993Y030547D01*
X055993Y030449D02*
X051028Y030449D01*
X050629Y031631D02*
X032982Y031631D01*
X033162Y030547D02*
X029723Y030547D01*
X029723Y030449D02*
X033086Y030449D01*
X033058Y030350D02*
X029723Y030350D01*
X029723Y030252D02*
X033065Y030252D01*
X033112Y030153D02*
X029723Y030153D01*
X029723Y030055D02*
X033251Y030055D01*
X033435Y030055D02*
X041518Y030055D01*
X041508Y029956D02*
X029723Y029956D01*
X029723Y029858D02*
X038731Y029858D01*
X038737Y029860D02*
X038632Y029817D01*
X038552Y029736D01*
X038508Y029632D01*
X038508Y029518D01*
X038552Y029414D01*
X038632Y029333D01*
X038737Y029290D01*
X038850Y029290D01*
X038955Y029333D01*
X039035Y029414D01*
X039078Y029518D01*
X039078Y029632D01*
X039035Y029736D01*
X038955Y029817D01*
X038850Y029860D01*
X038737Y029860D01*
X038856Y029858D02*
X041533Y029858D01*
X041606Y029759D02*
X039012Y029759D01*
X039066Y029661D02*
X041576Y029661D01*
X041521Y029562D02*
X039078Y029562D01*
X039056Y029464D02*
X041508Y029464D01*
X041530Y029365D02*
X038986Y029365D01*
X038600Y029365D02*
X034928Y029365D01*
X034928Y029318D02*
X034885Y029214D01*
X034805Y029133D01*
X034700Y029090D01*
X034587Y029090D01*
X034482Y029133D01*
X034402Y029214D01*
X034358Y029318D01*
X034358Y029432D01*
X034402Y029536D01*
X034482Y029617D01*
X034587Y029660D01*
X034700Y029660D01*
X034805Y029617D01*
X034885Y029536D01*
X034928Y029432D01*
X034928Y029318D01*
X034907Y029267D02*
X037282Y029267D01*
X037202Y029186D01*
X037158Y029082D01*
X037158Y028968D01*
X037202Y028864D01*
X037282Y028783D01*
X037387Y028740D01*
X037500Y028740D01*
X037605Y028783D01*
X037685Y028864D01*
X037728Y028968D01*
X037728Y029082D01*
X037685Y029186D01*
X037605Y029267D01*
X037500Y029310D01*
X037387Y029310D01*
X037282Y029267D01*
X037194Y029168D02*
X034839Y029168D01*
X034915Y029464D02*
X038531Y029464D01*
X038508Y029562D02*
X034859Y029562D01*
X034427Y029562D02*
X032966Y029562D01*
X032978Y029532D02*
X032935Y029636D01*
X032855Y029717D01*
X032750Y029760D01*
X032637Y029760D01*
X032532Y029717D01*
X032452Y029636D01*
X032408Y029532D01*
X032408Y029418D01*
X032452Y029314D01*
X032532Y029233D01*
X032637Y029190D01*
X032750Y029190D01*
X032855Y029233D01*
X032935Y029314D01*
X032978Y029418D01*
X032978Y029532D01*
X032978Y029464D02*
X034372Y029464D01*
X034358Y029365D02*
X032956Y029365D01*
X032888Y029267D02*
X034380Y029267D01*
X034447Y029168D02*
X030534Y029168D01*
X030573Y029070D02*
X037158Y029070D01*
X037158Y028971D02*
X030573Y028971D01*
X030573Y028873D02*
X037198Y028873D01*
X037304Y028774D02*
X030573Y028774D01*
X030573Y028676D02*
X041591Y028676D01*
X041591Y028774D02*
X037582Y028774D01*
X037689Y028873D02*
X041527Y028873D01*
X041508Y028971D02*
X037728Y028971D01*
X037728Y029070D02*
X041524Y029070D01*
X041583Y029168D02*
X037693Y029168D01*
X037605Y029267D02*
X041599Y029267D01*
X041568Y030153D02*
X033574Y030153D01*
X033621Y030252D02*
X041716Y030252D01*
X041870Y030252D02*
X042216Y030252D01*
X042370Y030252D02*
X042716Y030252D01*
X042870Y030252D02*
X043216Y030252D01*
X043370Y030252D02*
X043716Y030252D01*
X043870Y030252D02*
X044216Y030252D01*
X044370Y030252D02*
X044716Y030252D01*
X044568Y030153D02*
X044518Y030153D01*
X044068Y030153D02*
X044018Y030153D01*
X043568Y030153D02*
X043518Y030153D01*
X043068Y030153D02*
X043018Y030153D01*
X042568Y030153D02*
X042518Y030153D01*
X042068Y030153D02*
X042018Y030153D01*
X041527Y028577D02*
X030573Y028577D01*
X030573Y028479D02*
X041508Y028479D01*
X041524Y028380D02*
X030573Y028380D01*
X030573Y028282D02*
X041584Y028282D01*
X041598Y028183D02*
X030573Y028183D01*
X030573Y028085D02*
X041530Y028085D01*
X041508Y027986D02*
X030573Y027986D01*
X030573Y027888D02*
X041521Y027888D01*
X041576Y027789D02*
X030573Y027789D01*
X030573Y027691D02*
X041606Y027691D01*
X041533Y027592D02*
X030573Y027592D01*
X030573Y027494D02*
X041508Y027494D01*
X041518Y027395D02*
X030573Y027395D01*
X030573Y027297D02*
X041569Y027297D01*
X041613Y027198D02*
X030573Y027198D01*
X030573Y027100D02*
X041536Y027100D01*
X041508Y027001D02*
X030573Y027001D01*
X030573Y026903D02*
X041515Y026903D01*
X041561Y026804D02*
X030573Y026804D01*
X030573Y026706D02*
X041621Y026706D01*
X041540Y026607D02*
X030573Y026607D01*
X030573Y026509D02*
X041508Y026509D01*
X041512Y026410D02*
X030573Y026410D01*
X030573Y026312D02*
X031727Y026312D01*
X031671Y026213D02*
X030573Y026213D01*
X030573Y026115D02*
X031658Y026115D01*
X031680Y026016D02*
X030573Y026016D01*
X030573Y025918D02*
X031748Y025918D01*
X032139Y025918D02*
X055993Y025918D01*
X055993Y026016D02*
X032207Y026016D01*
X032160Y026312D02*
X041554Y026312D01*
X042906Y026213D02*
X043181Y026213D01*
X043054Y026312D02*
X043033Y026312D01*
X043406Y026213D02*
X043681Y026213D01*
X043554Y026312D02*
X043533Y026312D01*
X043906Y026213D02*
X044181Y026213D01*
X044054Y026312D02*
X044033Y026312D01*
X044406Y026213D02*
X044681Y026213D01*
X044554Y026312D02*
X044533Y026312D01*
X047642Y024637D02*
X035705Y024637D01*
X035833Y024539D02*
X047727Y024539D01*
X041035Y018636D02*
X040955Y018717D01*
X040850Y018760D01*
X040737Y018760D01*
X040632Y018717D01*
X040552Y018636D01*
X040508Y018532D01*
X040508Y018418D01*
X040552Y018314D01*
X040632Y018233D01*
X040737Y018190D01*
X040850Y018190D01*
X040955Y018233D01*
X041035Y018314D01*
X041078Y018418D01*
X041078Y018532D01*
X041035Y018636D01*
X041038Y018629D02*
X055993Y018629D01*
X055993Y018727D02*
X040930Y018727D01*
X041078Y018530D02*
X055993Y018530D01*
X055993Y018432D02*
X041078Y018432D01*
X041043Y018333D02*
X055993Y018333D01*
X055993Y018235D02*
X040956Y018235D01*
X040631Y018235D02*
X040306Y018235D01*
X040305Y018233D02*
X040385Y018314D01*
X040428Y018418D01*
X040428Y018532D01*
X040385Y018636D01*
X040305Y018717D01*
X040200Y018760D01*
X040087Y018760D01*
X039982Y018717D01*
X039918Y018653D01*
X039905Y018667D01*
X039800Y018710D01*
X039687Y018710D01*
X039582Y018667D01*
X039502Y018586D01*
X039458Y018482D01*
X039458Y018368D01*
X039502Y018264D01*
X039582Y018183D01*
X039687Y018140D01*
X039800Y018140D01*
X039905Y018183D01*
X039968Y018247D01*
X039982Y018233D01*
X040087Y018190D01*
X040200Y018190D01*
X040305Y018233D01*
X040393Y018333D02*
X040544Y018333D01*
X040508Y018432D02*
X040428Y018432D01*
X040428Y018530D02*
X040508Y018530D01*
X040548Y018629D02*
X040388Y018629D01*
X040280Y018727D02*
X040657Y018727D01*
X040007Y018727D02*
X031779Y018727D01*
X031820Y018826D02*
X055993Y018826D01*
X055993Y018924D02*
X031830Y018924D01*
X031821Y019023D02*
X055993Y019023D01*
X055993Y019121D02*
X031780Y019121D01*
X031695Y019220D02*
X055993Y019220D01*
X055993Y019318D02*
X029693Y019318D01*
X029693Y019220D02*
X030344Y019220D01*
X030201Y019121D02*
X029693Y019121D01*
X029693Y019023D02*
X030102Y019023D01*
X030004Y018924D02*
X029693Y018924D01*
X029693Y018826D02*
X029905Y018826D01*
X029807Y018727D02*
X029693Y018727D01*
X029693Y018629D02*
X029708Y018629D01*
X029493Y018629D02*
X029483Y018629D01*
X029486Y018727D02*
X029493Y018727D01*
X029481Y018826D02*
X029493Y018826D01*
X029493Y018924D02*
X029440Y018924D01*
X029493Y019023D02*
X029373Y019023D01*
X029493Y019121D02*
X029248Y019121D01*
X028859Y019318D02*
X010443Y019318D01*
X010379Y019417D02*
X028719Y019417D01*
X028646Y019515D02*
X010262Y019515D01*
X010207Y019712D02*
X028595Y019712D01*
X028595Y019811D02*
X010356Y019811D01*
X010433Y019909D02*
X028635Y019909D01*
X028693Y020008D02*
X010474Y020008D01*
X010486Y020106D02*
X028797Y020106D01*
X028605Y019614D02*
X007393Y019614D01*
X007393Y019712D02*
X009874Y019712D01*
X009725Y019811D02*
X007393Y019811D01*
X007393Y019909D02*
X009648Y019909D01*
X009607Y020008D02*
X007393Y020008D01*
X007393Y020106D02*
X009595Y020106D01*
X009595Y020205D02*
X007393Y020205D01*
X007393Y020303D02*
X009632Y020303D01*
X009687Y020402D02*
X007393Y020402D01*
X007393Y020500D02*
X009786Y020500D01*
X009740Y020796D02*
X007393Y020796D01*
X007393Y020894D02*
X009654Y020894D01*
X009613Y020993D02*
X007393Y020993D01*
X007393Y021091D02*
X009595Y021091D01*
X009595Y021190D02*
X007393Y021190D01*
X007393Y021288D02*
X009626Y021288D01*
X009672Y021387D02*
X007393Y021387D01*
X007393Y021485D02*
X009771Y021485D01*
X010310Y021485D02*
X028658Y021485D01*
X028749Y021387D02*
X010409Y021387D01*
X010421Y021879D02*
X028294Y021879D01*
X028135Y021978D02*
X010461Y021978D01*
X010486Y022076D02*
X028068Y022076D01*
X028036Y022175D02*
X010486Y022175D01*
X010461Y022273D02*
X028036Y022273D01*
X028067Y022372D02*
X010420Y022372D01*
X010325Y022470D02*
X028132Y022470D01*
X028288Y022569D02*
X010133Y022569D01*
X009779Y023357D02*
X007393Y023357D01*
X007393Y023455D02*
X009681Y023455D01*
X009630Y023554D02*
X007393Y023554D01*
X007393Y023652D02*
X009595Y023652D01*
X009595Y023751D02*
X007393Y023751D01*
X007393Y023849D02*
X009610Y023849D01*
X009651Y023948D02*
X007393Y023948D01*
X007393Y024046D02*
X009732Y024046D01*
X009952Y025280D02*
X010129Y025280D01*
X010293Y025348D01*
X010418Y025473D01*
X010486Y025636D01*
X010486Y025814D01*
X010418Y025977D01*
X010293Y026102D01*
X010129Y026170D01*
X009952Y026170D01*
X009788Y026102D01*
X009663Y025977D01*
X009595Y025814D01*
X009595Y025636D01*
X009663Y025473D01*
X009788Y025348D01*
X009952Y025280D01*
X009839Y025327D02*
X007393Y025327D01*
X007393Y025425D02*
X009711Y025425D01*
X009642Y025524D02*
X007393Y025524D01*
X007393Y025622D02*
X009601Y025622D01*
X009595Y025721D02*
X007393Y025721D01*
X007393Y025819D02*
X009598Y025819D01*
X009638Y025918D02*
X007393Y025918D01*
X007393Y026016D02*
X009702Y026016D01*
X009817Y026115D02*
X007393Y026115D01*
X007393Y026213D02*
X022913Y026213D01*
X022812Y026312D02*
X010206Y026312D01*
X010129Y026280D02*
X010293Y026348D01*
X010418Y026473D01*
X010486Y026636D01*
X010486Y026814D01*
X010418Y026977D01*
X010293Y027102D01*
X010129Y027170D01*
X009952Y027170D01*
X009788Y027102D01*
X009663Y026977D01*
X009595Y026814D01*
X009595Y026636D01*
X009663Y026473D01*
X009788Y026348D01*
X009952Y026280D01*
X010129Y026280D01*
X010264Y026115D02*
X023014Y026115D01*
X023115Y026016D02*
X010379Y026016D01*
X010443Y025918D02*
X023216Y025918D01*
X023317Y025819D02*
X010484Y025819D01*
X010486Y025721D02*
X023418Y025721D01*
X023519Y025622D02*
X010480Y025622D01*
X010439Y025524D02*
X023620Y025524D01*
X023721Y025425D02*
X010370Y025425D01*
X010242Y025327D02*
X023822Y025327D01*
X023924Y025524D02*
X028163Y025524D01*
X028163Y025622D02*
X023823Y025622D01*
X023722Y025721D02*
X028163Y025721D01*
X028163Y025819D02*
X023620Y025819D01*
X023519Y025918D02*
X028163Y025918D01*
X028163Y026016D02*
X023418Y026016D01*
X023317Y026115D02*
X028163Y026115D01*
X028163Y026213D02*
X023216Y026213D01*
X023115Y026312D02*
X028163Y026312D01*
X028163Y026410D02*
X023014Y026410D01*
X022913Y026509D02*
X028163Y026509D01*
X028163Y026607D02*
X022812Y026607D01*
X022793Y026706D02*
X028163Y026706D01*
X028163Y026804D02*
X022793Y026804D01*
X022793Y026903D02*
X028163Y026903D01*
X028163Y027001D02*
X022793Y027001D01*
X022793Y027100D02*
X028163Y027100D01*
X028163Y027198D02*
X022793Y027198D01*
X022793Y027297D02*
X028163Y027297D01*
X028163Y027395D02*
X022793Y027395D01*
X022793Y027494D02*
X028163Y027494D01*
X028163Y027592D02*
X022793Y027592D01*
X022793Y027691D02*
X028163Y027691D01*
X028163Y027789D02*
X022793Y027789D01*
X022793Y027888D02*
X028163Y027888D01*
X028163Y027986D02*
X022793Y027986D01*
X022793Y028085D02*
X025681Y028085D01*
X025652Y028114D02*
X025732Y028033D01*
X025837Y027990D01*
X025950Y027990D01*
X026055Y028033D01*
X026135Y028114D01*
X026178Y028218D01*
X026178Y028332D01*
X026135Y028436D01*
X026055Y028517D01*
X025950Y028560D01*
X025837Y028560D01*
X025732Y028517D01*
X025652Y028436D01*
X025608Y028332D01*
X025608Y028218D01*
X025652Y028114D01*
X025623Y028183D02*
X022793Y028183D01*
X022793Y028282D02*
X025608Y028282D01*
X025628Y028380D02*
X022793Y028380D01*
X022793Y028479D02*
X025694Y028479D01*
X026093Y028479D02*
X028163Y028479D01*
X028163Y028577D02*
X022793Y028577D01*
X022593Y028577D02*
X020300Y028577D01*
X020424Y028676D02*
X022593Y028676D01*
X022593Y028774D02*
X020463Y028774D01*
X020463Y028873D02*
X022593Y028873D01*
X022593Y028971D02*
X020425Y028971D01*
X020521Y029070D02*
X021693Y029070D01*
X021693Y029168D02*
X020637Y029168D01*
X020150Y029168D02*
X016793Y029168D01*
X016793Y029070D02*
X020078Y029070D01*
X019962Y028971D02*
X016758Y028971D01*
X016717Y028873D02*
X019923Y028873D01*
X019923Y028774D02*
X016677Y028774D01*
X016596Y028676D02*
X019963Y028676D01*
X020086Y028577D02*
X016497Y028577D01*
X016362Y028479D02*
X022593Y028479D01*
X022593Y028380D02*
X016125Y028380D01*
X015762Y028380D02*
X010325Y028380D01*
X010293Y028348D02*
X010418Y028473D01*
X010486Y028636D01*
X010486Y028814D01*
X010418Y028977D01*
X010293Y029102D01*
X010129Y029170D01*
X009952Y029170D01*
X009788Y029102D01*
X009663Y028977D01*
X009595Y028814D01*
X009595Y028636D01*
X009663Y028473D01*
X009788Y028348D01*
X009952Y028280D01*
X010129Y028280D01*
X010293Y028348D01*
X010134Y028282D02*
X022593Y028282D01*
X022593Y028183D02*
X007393Y028183D01*
X007393Y028085D02*
X009770Y028085D01*
X009788Y028102D02*
X009663Y027977D01*
X009595Y027814D01*
X009595Y027636D01*
X009663Y027473D01*
X009788Y027348D01*
X009952Y027280D01*
X010129Y027280D01*
X010293Y027348D01*
X010418Y027473D01*
X010486Y027636D01*
X010486Y027814D01*
X010418Y027977D01*
X010293Y028102D01*
X010129Y028170D01*
X009952Y028170D01*
X009788Y028102D01*
X009672Y027986D02*
X007393Y027986D01*
X007393Y027888D02*
X009626Y027888D01*
X009595Y027789D02*
X007393Y027789D01*
X007393Y027691D02*
X009595Y027691D01*
X009614Y027592D02*
X007393Y027592D01*
X007393Y027494D02*
X009654Y027494D01*
X009741Y027395D02*
X007393Y027395D01*
X007393Y027297D02*
X009911Y027297D01*
X009785Y027100D02*
X007393Y027100D01*
X007393Y027198D02*
X018517Y027198D01*
X018532Y027183D02*
X018637Y027140D01*
X018750Y027140D01*
X018855Y027183D01*
X018935Y027264D01*
X018978Y027368D01*
X018978Y027482D01*
X018935Y027586D01*
X018855Y027667D01*
X018750Y027710D01*
X018637Y027710D01*
X018532Y027667D01*
X018452Y027586D01*
X018408Y027482D01*
X018408Y027368D01*
X018452Y027264D01*
X018532Y027183D01*
X018438Y027297D02*
X010170Y027297D01*
X010340Y027395D02*
X018408Y027395D01*
X018413Y027494D02*
X010427Y027494D01*
X010467Y027592D02*
X018082Y027592D01*
X018087Y027590D02*
X018200Y027590D01*
X018305Y027633D01*
X018385Y027714D01*
X018428Y027818D01*
X018428Y027932D01*
X018385Y028036D01*
X018305Y028117D01*
X018200Y028160D01*
X018087Y028160D01*
X017982Y028117D01*
X017902Y028036D01*
X017858Y027932D01*
X017858Y027818D01*
X017902Y027714D01*
X017982Y027633D01*
X018087Y027590D01*
X018205Y027592D02*
X018457Y027592D01*
X018362Y027691D02*
X018590Y027691D01*
X018416Y027789D02*
X021305Y027789D01*
X021305Y027842D02*
X021305Y027708D01*
X021357Y027583D01*
X021452Y027488D01*
X021576Y027437D01*
X021711Y027437D01*
X021835Y027488D01*
X021930Y027583D01*
X021981Y027708D01*
X021981Y027842D01*
X021930Y027967D01*
X021835Y028062D01*
X021711Y028113D01*
X021576Y028113D01*
X021452Y028062D01*
X021357Y027967D01*
X021305Y027842D01*
X021324Y027888D02*
X018428Y027888D01*
X018406Y027986D02*
X021376Y027986D01*
X021507Y028085D02*
X018337Y028085D01*
X017950Y028085D02*
X010311Y028085D01*
X010409Y027986D02*
X017881Y027986D01*
X017858Y027888D02*
X010455Y027888D01*
X010486Y027789D02*
X017870Y027789D01*
X017925Y027691D02*
X010486Y027691D01*
X010296Y027100D02*
X022593Y027100D01*
X022593Y027198D02*
X019569Y027198D01*
X019555Y027183D02*
X019635Y027264D01*
X019678Y027368D01*
X019678Y027482D01*
X019635Y027586D01*
X019555Y027667D01*
X019450Y027710D01*
X019337Y027710D01*
X019232Y027667D01*
X019152Y027586D01*
X019108Y027482D01*
X019108Y027368D01*
X019152Y027264D01*
X019232Y027183D01*
X019337Y027140D01*
X019450Y027140D01*
X019555Y027183D01*
X019649Y027297D02*
X022593Y027297D01*
X022593Y027395D02*
X019678Y027395D01*
X019673Y027494D02*
X021447Y027494D01*
X021353Y027592D02*
X019629Y027592D01*
X019497Y027691D02*
X021312Y027691D01*
X021840Y027494D02*
X022593Y027494D01*
X022593Y027592D02*
X021933Y027592D01*
X021974Y027691D02*
X022593Y027691D01*
X022593Y027789D02*
X021981Y027789D01*
X021963Y027888D02*
X022593Y027888D01*
X022593Y027986D02*
X021910Y027986D01*
X021779Y028085D02*
X022593Y028085D01*
X022593Y027001D02*
X010394Y027001D01*
X010449Y026903D02*
X022593Y026903D01*
X022593Y026804D02*
X010486Y026804D01*
X010486Y026706D02*
X022593Y026706D01*
X022593Y026607D02*
X010474Y026607D01*
X010433Y026509D02*
X022610Y026509D01*
X022711Y026410D02*
X010355Y026410D01*
X009875Y026312D02*
X007393Y026312D01*
X007393Y026410D02*
X009726Y026410D01*
X009648Y026509D02*
X007393Y026509D01*
X007393Y026607D02*
X009607Y026607D01*
X009595Y026706D02*
X007393Y026706D01*
X007393Y026804D02*
X009595Y026804D01*
X009632Y026903D02*
X007393Y026903D01*
X007393Y027001D02*
X009687Y027001D01*
X009948Y028282D02*
X007393Y028282D01*
X007393Y028380D02*
X009756Y028380D01*
X009661Y028479D02*
X007393Y028479D01*
X007393Y028577D02*
X009620Y028577D01*
X009595Y028676D02*
X007393Y028676D01*
X007393Y028774D02*
X009595Y028774D01*
X009620Y028873D02*
X007393Y028873D01*
X007393Y028971D02*
X009661Y028971D01*
X009755Y029070D02*
X007393Y029070D01*
X007393Y029168D02*
X009947Y029168D01*
X010134Y029168D02*
X015093Y029168D01*
X015093Y029070D02*
X010326Y029070D01*
X010421Y028971D02*
X015128Y028971D01*
X015169Y028873D02*
X010461Y028873D01*
X010486Y028774D02*
X015210Y028774D01*
X015291Y028676D02*
X010486Y028676D01*
X010461Y028577D02*
X015389Y028577D01*
X015524Y028479D02*
X010420Y028479D01*
X007693Y032025D02*
X016993Y032025D01*
X016993Y032123D02*
X007693Y032123D01*
X007693Y032222D02*
X016993Y032222D01*
X016993Y032320D02*
X007693Y032320D01*
X007693Y032419D02*
X016993Y032419D01*
X016993Y032517D02*
X007693Y032517D01*
X007693Y032616D02*
X022007Y032616D01*
X021938Y032714D02*
X007693Y032714D01*
X007693Y032813D02*
X021916Y032813D01*
X021928Y032911D02*
X007693Y032911D01*
X007693Y033010D02*
X021982Y033010D01*
X022139Y033108D02*
X007693Y033108D01*
X007693Y033207D02*
X055993Y033207D01*
X055993Y033305D02*
X007693Y033305D01*
X007693Y033404D02*
X055993Y033404D01*
X055993Y033502D02*
X055078Y033502D01*
X055133Y033525D02*
X055346Y033737D01*
X055461Y034015D01*
X055461Y034315D01*
X055346Y034593D01*
X055133Y034805D01*
X054856Y034920D01*
X054556Y034920D01*
X054278Y034805D01*
X054066Y034593D01*
X053951Y034315D01*
X053951Y034015D01*
X054066Y033737D01*
X054278Y033525D01*
X054556Y033410D01*
X054856Y033410D01*
X055133Y033525D01*
X055209Y033601D02*
X055993Y033601D01*
X055993Y033699D02*
X055308Y033699D01*
X055371Y033798D02*
X055993Y033798D01*
X055993Y033896D02*
X055412Y033896D01*
X055452Y033995D02*
X055993Y033995D01*
X055993Y034093D02*
X055461Y034093D01*
X055461Y034192D02*
X055993Y034192D01*
X055993Y034290D02*
X055461Y034290D01*
X055430Y034389D02*
X055993Y034389D01*
X055993Y034487D02*
X055390Y034487D01*
X055349Y034586D02*
X055993Y034586D01*
X055993Y034684D02*
X055254Y034684D01*
X055156Y034783D02*
X055993Y034783D01*
X055993Y034881D02*
X054950Y034881D01*
X054462Y034881D02*
X050925Y034881D01*
X050831Y034920D02*
X051108Y034805D01*
X051321Y034593D01*
X051436Y034315D01*
X051436Y034015D01*
X051321Y033737D01*
X051108Y033525D01*
X050831Y033410D01*
X050531Y033410D01*
X050253Y033525D01*
X050041Y033737D01*
X049926Y034015D01*
X049926Y034315D01*
X050041Y034593D01*
X050253Y034805D01*
X050531Y034920D01*
X050831Y034920D01*
X051131Y034783D02*
X054256Y034783D01*
X054157Y034684D02*
X051229Y034684D01*
X051324Y034586D02*
X054063Y034586D01*
X054022Y034487D02*
X051365Y034487D01*
X051405Y034389D02*
X053981Y034389D01*
X053951Y034290D02*
X051436Y034290D01*
X051436Y034192D02*
X053951Y034192D01*
X053951Y034093D02*
X051436Y034093D01*
X051427Y033995D02*
X053959Y033995D01*
X054000Y033896D02*
X051387Y033896D01*
X051346Y033798D02*
X054041Y033798D01*
X054104Y033699D02*
X051283Y033699D01*
X051184Y033601D02*
X054203Y033601D01*
X054333Y033502D02*
X051053Y033502D01*
X050308Y033502D02*
X048878Y033502D01*
X048933Y033525D02*
X049146Y033737D01*
X049261Y034015D01*
X049261Y034315D01*
X049146Y034593D01*
X048933Y034805D01*
X048656Y034920D01*
X048356Y034920D01*
X048078Y034805D01*
X047866Y034593D01*
X047751Y034315D01*
X047751Y034015D01*
X047866Y033737D01*
X048078Y033525D01*
X048356Y033410D01*
X048656Y033410D01*
X048933Y033525D01*
X049009Y033601D02*
X050178Y033601D01*
X050079Y033699D02*
X049108Y033699D01*
X049171Y033798D02*
X050016Y033798D01*
X049975Y033896D02*
X049212Y033896D01*
X049252Y033995D02*
X049934Y033995D01*
X049926Y034093D02*
X049261Y034093D01*
X049261Y034192D02*
X049926Y034192D01*
X049926Y034290D02*
X049261Y034290D01*
X049230Y034389D02*
X049956Y034389D01*
X049997Y034487D02*
X049190Y034487D01*
X049149Y034586D02*
X050038Y034586D01*
X050132Y034684D02*
X049054Y034684D01*
X048956Y034783D02*
X050231Y034783D01*
X050437Y034881D02*
X048750Y034881D01*
X048262Y034881D02*
X044725Y034881D01*
X044631Y034920D02*
X044908Y034805D01*
X045121Y034593D01*
X045236Y034315D01*
X045236Y034015D01*
X045121Y033737D01*
X044908Y033525D01*
X044631Y033410D01*
X044331Y033410D01*
X044053Y033525D01*
X043841Y033737D01*
X043726Y034015D01*
X043726Y034315D01*
X043841Y034593D01*
X044053Y034805D01*
X044331Y034920D01*
X044631Y034920D01*
X044931Y034783D02*
X048056Y034783D01*
X047957Y034684D02*
X045029Y034684D01*
X045124Y034586D02*
X047863Y034586D01*
X047822Y034487D02*
X045165Y034487D01*
X045205Y034389D02*
X047781Y034389D01*
X047751Y034290D02*
X045236Y034290D01*
X045236Y034192D02*
X047751Y034192D01*
X047751Y034093D02*
X045236Y034093D01*
X045227Y033995D02*
X047759Y033995D01*
X047800Y033896D02*
X045187Y033896D01*
X045146Y033798D02*
X047841Y033798D01*
X047904Y033699D02*
X045083Y033699D01*
X044984Y033601D02*
X048003Y033601D01*
X048133Y033502D02*
X044853Y033502D01*
X044108Y033502D02*
X042678Y033502D01*
X042733Y033525D02*
X042946Y033737D01*
X043061Y034015D01*
X043061Y034315D01*
X042946Y034593D01*
X042733Y034805D01*
X042456Y034920D01*
X042156Y034920D01*
X041878Y034805D01*
X041666Y034593D01*
X041551Y034315D01*
X041551Y034015D01*
X041666Y033737D01*
X041878Y033525D01*
X042156Y033410D01*
X042456Y033410D01*
X042733Y033525D01*
X042809Y033601D02*
X043978Y033601D01*
X043879Y033699D02*
X042908Y033699D01*
X042971Y033798D02*
X043816Y033798D01*
X043775Y033896D02*
X043012Y033896D01*
X043052Y033995D02*
X043734Y033995D01*
X043726Y034093D02*
X043061Y034093D01*
X043061Y034192D02*
X043726Y034192D01*
X043726Y034290D02*
X043061Y034290D01*
X043030Y034389D02*
X043756Y034389D01*
X043797Y034487D02*
X042990Y034487D01*
X042949Y034586D02*
X043838Y034586D01*
X043932Y034684D02*
X042854Y034684D01*
X042756Y034783D02*
X044031Y034783D01*
X044237Y034881D02*
X042550Y034881D01*
X042062Y034881D02*
X038525Y034881D01*
X038431Y034920D02*
X038708Y034805D01*
X038921Y034593D01*
X039036Y034315D01*
X039036Y034015D01*
X038921Y033737D01*
X038708Y033525D01*
X038431Y033410D01*
X038131Y033410D01*
X037853Y033525D01*
X037641Y033737D01*
X037526Y034015D01*
X037526Y034315D01*
X037641Y034593D01*
X037853Y034805D01*
X038131Y034920D01*
X038431Y034920D01*
X038731Y034783D02*
X041856Y034783D01*
X041757Y034684D02*
X038829Y034684D01*
X038924Y034586D02*
X041663Y034586D01*
X041622Y034487D02*
X038965Y034487D01*
X039005Y034389D02*
X041581Y034389D01*
X041551Y034290D02*
X039036Y034290D01*
X039036Y034192D02*
X041551Y034192D01*
X041551Y034093D02*
X039036Y034093D01*
X039027Y033995D02*
X041559Y033995D01*
X041600Y033896D02*
X038987Y033896D01*
X038946Y033798D02*
X041641Y033798D01*
X041704Y033699D02*
X038883Y033699D01*
X038784Y033601D02*
X041803Y033601D01*
X041933Y033502D02*
X038653Y033502D01*
X037908Y033502D02*
X036478Y033502D01*
X036533Y033525D02*
X036746Y033737D01*
X036861Y034015D01*
X036861Y034315D01*
X036746Y034593D01*
X036533Y034805D01*
X036256Y034920D01*
X035956Y034920D01*
X035678Y034805D01*
X035466Y034593D01*
X035351Y034315D01*
X035351Y034015D01*
X035466Y033737D01*
X035678Y033525D01*
X035956Y033410D01*
X036256Y033410D01*
X036533Y033525D01*
X036609Y033601D02*
X037778Y033601D01*
X037679Y033699D02*
X036708Y033699D01*
X036771Y033798D02*
X037616Y033798D01*
X037575Y033896D02*
X036812Y033896D01*
X036852Y033995D02*
X037534Y033995D01*
X037526Y034093D02*
X036861Y034093D01*
X036861Y034192D02*
X037526Y034192D01*
X037526Y034290D02*
X036861Y034290D01*
X036830Y034389D02*
X037556Y034389D01*
X037597Y034487D02*
X036790Y034487D01*
X036749Y034586D02*
X037638Y034586D01*
X037732Y034684D02*
X036654Y034684D01*
X036556Y034783D02*
X037831Y034783D01*
X038037Y034881D02*
X036350Y034881D01*
X035862Y034881D02*
X032325Y034881D01*
X032231Y034920D02*
X032508Y034805D01*
X032721Y034593D01*
X032836Y034315D01*
X032836Y034015D01*
X032721Y033737D01*
X032508Y033525D01*
X032231Y033410D01*
X031931Y033410D01*
X031653Y033525D01*
X031441Y033737D01*
X031326Y034015D01*
X031326Y034315D01*
X031441Y034593D01*
X031653Y034805D01*
X031931Y034920D01*
X032231Y034920D01*
X032531Y034783D02*
X035656Y034783D01*
X035557Y034684D02*
X032629Y034684D01*
X032724Y034586D02*
X035463Y034586D01*
X035422Y034487D02*
X032765Y034487D01*
X032805Y034389D02*
X035381Y034389D01*
X035351Y034290D02*
X032836Y034290D01*
X032836Y034192D02*
X035351Y034192D01*
X035351Y034093D02*
X032836Y034093D01*
X032827Y033995D02*
X035359Y033995D01*
X035400Y033896D02*
X032787Y033896D01*
X032746Y033798D02*
X035441Y033798D01*
X035504Y033699D02*
X032683Y033699D01*
X032584Y033601D02*
X035603Y033601D01*
X035733Y033502D02*
X032453Y033502D01*
X031708Y033502D02*
X007693Y033502D01*
X007693Y033601D02*
X031578Y033601D01*
X031479Y033699D02*
X007693Y033699D01*
X007693Y033798D02*
X031416Y033798D01*
X031375Y033896D02*
X007693Y033896D01*
X007693Y033995D02*
X031334Y033995D01*
X031326Y034093D02*
X007693Y034093D01*
X007693Y034192D02*
X031326Y034192D01*
X031326Y034290D02*
X007693Y034290D01*
X007693Y034389D02*
X031356Y034389D01*
X031397Y034487D02*
X007693Y034487D01*
X007693Y034586D02*
X031438Y034586D01*
X031532Y034684D02*
X024723Y034684D01*
X024787Y034710D02*
X024908Y034831D01*
X024973Y034989D01*
X024973Y035161D01*
X024908Y035319D01*
X024787Y035440D01*
X024629Y035505D01*
X024458Y035505D01*
X024300Y035440D01*
X024179Y035319D01*
X024113Y035161D01*
X024113Y034989D01*
X024179Y034831D01*
X024300Y034710D01*
X024458Y034645D01*
X024629Y034645D01*
X024787Y034710D01*
X024859Y034783D02*
X031631Y034783D01*
X031837Y034881D02*
X024928Y034881D01*
X024969Y034980D02*
X055993Y034980D01*
X055993Y035078D02*
X024973Y035078D01*
X024967Y035177D02*
X055993Y035177D01*
X055993Y035275D02*
X024926Y035275D01*
X024853Y035374D02*
X055993Y035374D01*
X055993Y035472D02*
X024708Y035472D01*
X024378Y035472D02*
X023708Y035472D01*
X023787Y035440D02*
X023629Y035505D01*
X023458Y035505D01*
X023300Y035440D01*
X023179Y035319D01*
X023113Y035161D01*
X023113Y034989D01*
X023179Y034831D01*
X023300Y034710D01*
X023458Y034645D01*
X023629Y034645D01*
X023787Y034710D01*
X023908Y034831D01*
X023973Y034989D01*
X023973Y035161D01*
X023908Y035319D01*
X023787Y035440D01*
X023853Y035374D02*
X024234Y035374D01*
X024161Y035275D02*
X023926Y035275D01*
X023967Y035177D02*
X024120Y035177D01*
X024113Y035078D02*
X023973Y035078D01*
X023969Y034980D02*
X024117Y034980D01*
X024158Y034881D02*
X023928Y034881D01*
X023859Y034783D02*
X024228Y034783D01*
X024363Y034684D02*
X023723Y034684D01*
X023363Y034684D02*
X017798Y034684D01*
X017862Y034710D02*
X017983Y034831D01*
X018048Y034989D01*
X018048Y035161D01*
X017983Y035319D01*
X017862Y035440D01*
X017704Y035505D01*
X017533Y035505D01*
X017375Y035440D01*
X017254Y035319D01*
X017188Y035161D01*
X017188Y034989D01*
X017254Y034831D01*
X017375Y034710D01*
X017533Y034645D01*
X017704Y034645D01*
X017862Y034710D01*
X017934Y034783D02*
X023228Y034783D01*
X023158Y034881D02*
X018003Y034881D01*
X018044Y034980D02*
X019301Y034980D01*
X019308Y034973D02*
X019461Y034909D01*
X019626Y034909D01*
X019779Y034973D01*
X019896Y035089D01*
X019959Y035242D01*
X019959Y035408D01*
X019896Y035561D01*
X019779Y035677D01*
X019626Y035741D01*
X019461Y035741D01*
X019308Y035677D01*
X019191Y035561D01*
X019128Y035408D01*
X019128Y035242D01*
X019191Y035089D01*
X019308Y034973D01*
X019202Y035078D02*
X018048Y035078D01*
X018042Y035177D02*
X019155Y035177D01*
X019128Y035275D02*
X018001Y035275D01*
X017928Y035374D02*
X019128Y035374D01*
X019154Y035472D02*
X017783Y035472D01*
X017453Y035472D02*
X016783Y035472D01*
X016862Y035440D02*
X016704Y035505D01*
X016533Y035505D01*
X016375Y035440D01*
X016254Y035319D01*
X016188Y035161D01*
X016188Y034989D01*
X016254Y034831D01*
X016375Y034710D01*
X016533Y034645D01*
X016704Y034645D01*
X016862Y034710D01*
X016983Y034831D01*
X017048Y034989D01*
X017048Y035161D01*
X016983Y035319D01*
X016862Y035440D01*
X016928Y035374D02*
X017309Y035374D01*
X017236Y035275D02*
X017001Y035275D01*
X017042Y035177D02*
X017195Y035177D01*
X017188Y035078D02*
X017048Y035078D01*
X017044Y034980D02*
X017192Y034980D01*
X017233Y034881D02*
X017003Y034881D01*
X016934Y034783D02*
X017303Y034783D01*
X017438Y034684D02*
X016798Y034684D01*
X016438Y034684D02*
X015373Y034684D01*
X015437Y034710D02*
X015558Y034831D01*
X015623Y034989D01*
X015623Y035161D01*
X015558Y035319D01*
X015437Y035440D01*
X015279Y035505D01*
X015108Y035505D01*
X014950Y035440D01*
X014829Y035319D01*
X014763Y035161D01*
X014763Y034989D01*
X014829Y034831D01*
X014950Y034710D01*
X015108Y034645D01*
X015279Y034645D01*
X015437Y034710D01*
X015509Y034783D02*
X016303Y034783D01*
X016233Y034881D02*
X015578Y034881D01*
X015619Y034980D02*
X016192Y034980D01*
X016188Y035078D02*
X015623Y035078D01*
X015617Y035177D02*
X016195Y035177D01*
X016236Y035275D02*
X015576Y035275D01*
X015503Y035374D02*
X016309Y035374D01*
X016453Y035472D02*
X015358Y035472D01*
X015028Y035472D02*
X014358Y035472D01*
X014437Y035440D02*
X014279Y035505D01*
X014108Y035505D01*
X013950Y035440D01*
X013829Y035319D01*
X013763Y035161D01*
X013763Y034989D01*
X013829Y034831D01*
X013950Y034710D01*
X014108Y034645D01*
X014279Y034645D01*
X014437Y034710D01*
X014558Y034831D01*
X014623Y034989D01*
X014623Y035161D01*
X014558Y035319D01*
X014437Y035440D01*
X014503Y035374D02*
X014884Y035374D01*
X014811Y035275D02*
X014576Y035275D01*
X014617Y035177D02*
X014770Y035177D01*
X014763Y035078D02*
X014623Y035078D01*
X014619Y034980D02*
X014767Y034980D01*
X014808Y034881D02*
X014578Y034881D01*
X014509Y034783D02*
X014878Y034783D01*
X015013Y034684D02*
X014373Y034684D01*
X014013Y034684D02*
X007693Y034684D01*
X007693Y034783D02*
X013878Y034783D01*
X013808Y034881D02*
X007693Y034881D01*
X007693Y034980D02*
X013767Y034980D01*
X013763Y035078D02*
X007693Y035078D01*
X007693Y035177D02*
X013770Y035177D01*
X013811Y035275D02*
X007693Y035275D01*
X007693Y035374D02*
X013884Y035374D01*
X014028Y035472D02*
X007693Y035472D01*
X007693Y035571D02*
X009731Y035571D01*
X009543Y035669D02*
X007693Y035669D01*
X007693Y035768D02*
X009444Y035768D01*
X009367Y035866D02*
X007693Y035866D01*
X007693Y035965D02*
X009326Y035965D01*
X009285Y036063D02*
X007693Y036063D01*
X007693Y036162D02*
X009276Y036162D01*
X009276Y036260D02*
X007693Y036260D01*
X007693Y036359D02*
X009276Y036359D01*
X009314Y036457D02*
X007708Y036457D01*
X007807Y036556D02*
X009355Y036556D01*
X009416Y036654D02*
X007905Y036654D01*
X010216Y035571D02*
X011731Y035571D01*
X011543Y035669D02*
X010404Y035669D01*
X010502Y035768D02*
X011444Y035768D01*
X011367Y035866D02*
X010580Y035866D01*
X010620Y035965D02*
X011326Y035965D01*
X011285Y036063D02*
X010661Y036063D01*
X010671Y036162D02*
X011276Y036162D01*
X011276Y036260D02*
X010671Y036260D01*
X010671Y036359D02*
X011276Y036359D01*
X011314Y036457D02*
X010632Y036457D01*
X010591Y036556D02*
X011355Y036556D01*
X011416Y036654D02*
X010531Y036654D01*
X012216Y035571D02*
X019201Y035571D01*
X019299Y035669D02*
X012404Y035669D01*
X012502Y035768D02*
X055993Y035768D01*
X055993Y035866D02*
X016113Y035866D01*
X015874Y035866D02*
X012580Y035866D01*
X012620Y035965D02*
X015743Y035965D01*
X015710Y036063D02*
X012661Y036063D01*
X012671Y036162D02*
X013835Y036162D01*
X013887Y036140D02*
X014000Y036140D01*
X014105Y036183D01*
X014185Y036264D01*
X014228Y036368D01*
X014228Y036482D01*
X014185Y036586D01*
X014105Y036667D01*
X014000Y036710D01*
X013887Y036710D01*
X013782Y036667D01*
X013702Y036586D01*
X013658Y036482D01*
X013658Y036368D01*
X013702Y036264D01*
X013782Y036183D01*
X013887Y036140D01*
X014052Y036162D02*
X015708Y036162D01*
X015741Y036260D02*
X014181Y036260D01*
X014224Y036359D02*
X015743Y036359D01*
X015661Y036457D02*
X014228Y036457D01*
X014198Y036556D02*
X015563Y036556D01*
X015464Y036654D02*
X014117Y036654D01*
X013769Y036654D02*
X012531Y036654D01*
X012591Y036556D02*
X013689Y036556D01*
X013658Y036457D02*
X012632Y036457D01*
X012671Y036359D02*
X013662Y036359D01*
X013705Y036260D02*
X012671Y036260D01*
X017193Y032123D02*
X018759Y032123D01*
X018662Y032025D02*
X017193Y032025D01*
X017193Y031926D02*
X018621Y031926D01*
X018595Y031828D02*
X017193Y031828D01*
X017193Y031729D02*
X018595Y031729D01*
X018618Y031631D02*
X017193Y031631D01*
X017193Y031532D02*
X018659Y031532D01*
X018752Y031434D02*
X017193Y031434D01*
X017193Y031138D02*
X017774Y031138D01*
X017675Y031040D02*
X017193Y031040D01*
X017193Y030941D02*
X017627Y030941D01*
X017595Y030843D02*
X017193Y030843D01*
X017193Y030744D02*
X017595Y030744D01*
X017612Y030646D02*
X017193Y030646D01*
X017193Y030547D02*
X017653Y030547D01*
X017737Y030449D02*
X017193Y030449D01*
X016724Y029562D02*
X020227Y029562D01*
X020142Y029464D02*
X016765Y029464D01*
X016793Y029365D02*
X020108Y029365D01*
X020109Y029267D02*
X016793Y029267D01*
X018344Y030449D02*
X018737Y030449D01*
X018653Y030547D02*
X018428Y030547D01*
X018469Y030646D02*
X018612Y030646D01*
X018595Y030744D02*
X018486Y030744D01*
X018486Y030843D02*
X018595Y030843D01*
X018627Y030941D02*
X018454Y030941D01*
X018406Y031040D02*
X018675Y031040D01*
X018774Y031138D02*
X018307Y031138D01*
X019307Y031138D02*
X019774Y031138D01*
X019675Y031040D02*
X019406Y031040D01*
X019454Y030941D02*
X019627Y030941D01*
X019595Y030843D02*
X019486Y030843D01*
X019486Y030744D02*
X019595Y030744D01*
X019612Y030646D02*
X019469Y030646D01*
X019428Y030547D02*
X019653Y030547D01*
X019737Y030449D02*
X019344Y030449D01*
X019329Y031434D02*
X019752Y031434D01*
X019659Y031532D02*
X019422Y031532D01*
X019463Y031631D02*
X019618Y031631D01*
X019595Y031729D02*
X019486Y031729D01*
X019486Y031828D02*
X019595Y031828D01*
X019621Y031926D02*
X019460Y031926D01*
X019419Y032025D02*
X019662Y032025D01*
X019759Y032123D02*
X019322Y032123D01*
X021893Y032123D02*
X031357Y032123D01*
X031357Y032025D02*
X021893Y032025D01*
X021893Y031926D02*
X031357Y031926D01*
X031357Y031828D02*
X021893Y031828D01*
X021893Y031729D02*
X031392Y031729D01*
X031433Y031631D02*
X021893Y031631D01*
X021893Y031532D02*
X031474Y031532D01*
X031554Y031434D02*
X021893Y031434D01*
X021893Y032222D02*
X031387Y032222D01*
X029723Y031040D02*
X034841Y031040D01*
X034924Y030941D02*
X029723Y030941D01*
X029723Y030843D02*
X037063Y030843D01*
X037058Y030744D02*
X029723Y030744D01*
X029723Y030646D02*
X037088Y030646D01*
X037168Y030547D02*
X033524Y030547D01*
X032911Y029661D02*
X038520Y029661D01*
X038574Y029759D02*
X032752Y029759D01*
X032634Y029759D02*
X029723Y029759D01*
X029742Y029661D02*
X032476Y029661D01*
X032421Y029562D02*
X029840Y029562D01*
X029939Y029464D02*
X032408Y029464D01*
X032430Y029365D02*
X030037Y029365D01*
X030436Y029267D02*
X032499Y029267D01*
X028682Y032633D02*
X028602Y032714D01*
X028561Y032813D02*
X022486Y032813D01*
X022473Y032911D02*
X028558Y032911D01*
X028591Y033010D02*
X022419Y033010D01*
X022262Y033108D02*
X028673Y033108D01*
X029013Y033108D02*
X055993Y033108D01*
X055993Y033010D02*
X029096Y033010D01*
X028163Y030449D02*
X022373Y030449D01*
X022450Y030350D02*
X028163Y030350D01*
X028163Y030252D02*
X022478Y030252D01*
X022472Y030153D02*
X028163Y030153D01*
X028163Y030055D02*
X022426Y030055D01*
X019290Y027691D02*
X018797Y027691D01*
X018929Y027592D02*
X019157Y027592D01*
X019113Y027494D02*
X018973Y027494D01*
X018978Y027395D02*
X019108Y027395D01*
X019138Y027297D02*
X018949Y027297D01*
X018869Y027198D02*
X019217Y027198D01*
X024025Y025425D02*
X028163Y025425D01*
X028163Y025327D02*
X024126Y025327D01*
X024227Y025228D02*
X038496Y025228D01*
X038458Y025327D02*
X030573Y025327D01*
X030573Y025425D02*
X038458Y025425D01*
X038496Y025524D02*
X030573Y025524D01*
X030573Y025622D02*
X038595Y025622D01*
X038892Y025622D02*
X055993Y025622D01*
X055993Y025524D02*
X038990Y025524D01*
X038591Y025130D02*
X024328Y025130D01*
X024834Y024637D02*
X035481Y024637D01*
X035354Y024539D02*
X024935Y024539D01*
X025137Y024342D02*
X027993Y024342D01*
X027993Y024243D02*
X025238Y024243D01*
X025339Y024145D02*
X027993Y024145D01*
X027993Y024046D02*
X025440Y024046D01*
X025541Y023948D02*
X027993Y023948D01*
X027993Y023849D02*
X025642Y023849D01*
X025743Y023751D02*
X027993Y023751D01*
X027993Y023652D02*
X025844Y023652D01*
X025946Y023554D02*
X027993Y023554D01*
X027993Y023455D02*
X026047Y023455D01*
X026148Y023357D02*
X026637Y023357D01*
X026540Y023258D02*
X026249Y023258D01*
X026350Y023160D02*
X026499Y023160D01*
X026478Y023061D02*
X026451Y023061D01*
X027150Y023357D02*
X027993Y023357D01*
X027993Y023258D02*
X027247Y023258D01*
X027288Y023160D02*
X027993Y023160D01*
X027993Y023061D02*
X027309Y023061D01*
X027309Y022963D02*
X027993Y022963D01*
X027993Y022864D02*
X027277Y022864D01*
X028193Y022864D02*
X028616Y022864D01*
X028595Y022814D02*
X028595Y022636D01*
X028663Y022473D01*
X028788Y022348D01*
X028952Y022280D01*
X029129Y022280D01*
X029293Y022348D01*
X029418Y022473D01*
X029486Y022636D01*
X029486Y022814D01*
X029418Y022977D01*
X029293Y023102D01*
X029129Y023170D01*
X028952Y023170D01*
X028788Y023102D01*
X028663Y022977D01*
X028595Y022814D01*
X028595Y022766D02*
X028193Y022766D01*
X028193Y022667D02*
X028595Y022667D01*
X028623Y022569D02*
X028499Y022569D01*
X028654Y022470D02*
X028666Y022470D01*
X028720Y022372D02*
X028764Y022372D01*
X028751Y022273D02*
X029493Y022273D01*
X029493Y022372D02*
X029317Y022372D01*
X029415Y022470D02*
X029493Y022470D01*
X029493Y022569D02*
X029458Y022569D01*
X029486Y022667D02*
X029493Y022667D01*
X029486Y022766D02*
X029493Y022766D01*
X029493Y022864D02*
X029465Y022864D01*
X029493Y022963D02*
X029424Y022963D01*
X029493Y023061D02*
X029334Y023061D01*
X029493Y023160D02*
X029155Y023160D01*
X029129Y023280D02*
X029293Y023348D01*
X029418Y023473D01*
X029486Y023636D01*
X029486Y023814D01*
X029418Y023977D01*
X029293Y024102D01*
X029129Y024170D01*
X028952Y024170D01*
X028788Y024102D01*
X028663Y023977D01*
X028595Y023814D01*
X028595Y023636D01*
X028663Y023473D01*
X028788Y023348D01*
X028952Y023280D01*
X029129Y023280D01*
X029302Y023357D02*
X029493Y023357D01*
X029493Y023455D02*
X029400Y023455D01*
X029451Y023554D02*
X029493Y023554D01*
X029486Y023652D02*
X029493Y023652D01*
X029486Y023751D02*
X029493Y023751D01*
X029493Y023849D02*
X029471Y023849D01*
X029493Y023948D02*
X029430Y023948D01*
X029493Y024046D02*
X029349Y024046D01*
X029493Y024145D02*
X029191Y024145D01*
X028890Y024145D02*
X028193Y024145D01*
X028193Y024046D02*
X028732Y024046D01*
X028651Y023948D02*
X028193Y023948D01*
X028193Y023849D02*
X028610Y023849D01*
X028595Y023751D02*
X028193Y023751D01*
X028193Y023652D02*
X028595Y023652D01*
X028630Y023554D02*
X028193Y023554D01*
X028193Y023455D02*
X028681Y023455D01*
X028779Y023357D02*
X028193Y023357D01*
X028193Y023258D02*
X029493Y023258D01*
X029693Y023357D02*
X031509Y023357D01*
X031435Y023455D02*
X029693Y023455D01*
X029693Y023554D02*
X031408Y023554D01*
X031417Y023652D02*
X029693Y023652D01*
X029693Y023751D02*
X031466Y023751D01*
X032428Y024243D02*
X035339Y024243D01*
X035847Y024243D02*
X038008Y024243D01*
X033147Y021682D02*
X029693Y021682D01*
X029693Y021584D02*
X033080Y021584D01*
X033058Y021485D02*
X029693Y021485D01*
X029693Y021387D02*
X033071Y021387D01*
X030330Y019712D02*
X055993Y019712D01*
X055993Y019614D02*
X030294Y019614D01*
X030230Y019515D02*
X055993Y019515D01*
X055993Y019417D02*
X030087Y019417D01*
X029799Y019417D02*
X029693Y019417D01*
X029693Y020106D02*
X029733Y020106D01*
X029493Y018530D02*
X029442Y018530D01*
X029493Y018432D02*
X029377Y018432D01*
X029493Y018333D02*
X029258Y018333D01*
X029212Y018136D02*
X029493Y018136D01*
X029493Y018038D02*
X029358Y018038D01*
X029418Y017977D02*
X029293Y018102D01*
X029129Y018170D01*
X028952Y018170D01*
X028788Y018102D01*
X028663Y017977D01*
X028595Y017814D01*
X028595Y017636D01*
X028663Y017473D01*
X028788Y017348D01*
X023628Y017348D01*
X023621Y017250D02*
X029493Y017250D01*
X029493Y017348D02*
X029293Y017348D01*
X029418Y017473D01*
X029486Y017636D01*
X029486Y017814D01*
X029418Y017977D01*
X029434Y017939D02*
X029493Y017939D01*
X029493Y017841D02*
X029475Y017841D01*
X029486Y017742D02*
X029493Y017742D01*
X029486Y017644D02*
X029493Y017644D01*
X029493Y017545D02*
X029448Y017545D01*
X029493Y017447D02*
X029392Y017447D01*
X029293Y017348D02*
X029129Y017280D01*
X028952Y017280D01*
X028788Y017348D01*
X028689Y017447D02*
X023601Y017447D01*
X023566Y017545D02*
X028633Y017545D01*
X028595Y017644D02*
X023618Y017644D01*
X023628Y017742D02*
X028595Y017742D01*
X028606Y017841D02*
X023604Y017841D01*
X023532Y017939D02*
X028647Y017939D01*
X028723Y018038D02*
X012366Y018038D01*
X012378Y018068D02*
X012335Y017964D01*
X012255Y017883D01*
X012150Y017840D01*
X012037Y017840D01*
X011932Y017883D01*
X011852Y017964D01*
X011808Y018068D01*
X011808Y018182D01*
X011852Y018286D01*
X011932Y018367D01*
X012037Y018410D01*
X012150Y018410D01*
X012255Y018367D01*
X012335Y018286D01*
X012378Y018182D01*
X012378Y018068D01*
X012378Y018136D02*
X028869Y018136D01*
X028823Y018333D02*
X012288Y018333D01*
X012356Y018235D02*
X029493Y018235D01*
X030203Y018235D02*
X039531Y018235D01*
X039473Y018333D02*
X030290Y018333D01*
X030388Y018432D02*
X039458Y018432D01*
X039478Y018530D02*
X030487Y018530D01*
X030203Y018136D02*
X055993Y018136D01*
X055993Y018038D02*
X030203Y018038D01*
X030203Y017939D02*
X055993Y017939D01*
X055993Y017841D02*
X030203Y017841D01*
X030203Y017742D02*
X038657Y017742D01*
X038682Y017767D02*
X038602Y017686D01*
X038558Y017582D01*
X038558Y017468D01*
X038602Y017364D01*
X038682Y017283D01*
X038787Y017240D01*
X038900Y017240D01*
X039005Y017283D01*
X039085Y017364D01*
X039128Y017468D01*
X039128Y017582D01*
X039085Y017686D01*
X039005Y017767D01*
X038900Y017810D01*
X038787Y017810D01*
X038682Y017767D01*
X038584Y017644D02*
X034578Y017644D01*
X034555Y017667D02*
X034450Y017710D01*
X034337Y017710D01*
X034232Y017667D01*
X034152Y017586D01*
X034108Y017482D01*
X034108Y017368D01*
X034152Y017264D01*
X034232Y017183D01*
X034337Y017140D01*
X034450Y017140D01*
X034555Y017183D01*
X034635Y017264D01*
X034678Y017368D01*
X034678Y017482D01*
X034635Y017586D01*
X034555Y017667D01*
X034652Y017545D02*
X038558Y017545D01*
X038567Y017447D02*
X037583Y017447D01*
X037550Y017460D02*
X037437Y017460D01*
X037332Y017417D01*
X037252Y017336D01*
X037208Y017232D01*
X037208Y017118D01*
X037252Y017014D01*
X037332Y016933D01*
X037437Y016890D01*
X037550Y016890D01*
X037655Y016933D01*
X037735Y017014D01*
X037778Y017118D01*
X037778Y017232D01*
X037735Y017336D01*
X037655Y017417D01*
X037550Y017460D01*
X037404Y017447D02*
X035125Y017447D01*
X035105Y017467D02*
X035000Y017510D01*
X034887Y017510D01*
X034782Y017467D01*
X034702Y017386D01*
X034658Y017282D01*
X034658Y017168D01*
X034702Y017064D01*
X034782Y016983D01*
X034887Y016940D01*
X035000Y016940D01*
X035105Y016983D01*
X035185Y017064D01*
X035228Y017168D01*
X035228Y017282D01*
X035185Y017386D01*
X035105Y017467D01*
X035201Y017348D02*
X037263Y017348D01*
X037216Y017250D02*
X035228Y017250D01*
X035221Y017151D02*
X037208Y017151D01*
X037236Y017053D02*
X035174Y017053D01*
X035034Y016954D02*
X037311Y016954D01*
X037675Y016954D02*
X038035Y016954D01*
X038052Y016914D02*
X038132Y016833D01*
X038237Y016790D01*
X038350Y016790D01*
X038455Y016833D01*
X038535Y016914D01*
X038578Y017018D01*
X038578Y017132D01*
X038535Y017236D01*
X038455Y017317D01*
X038350Y017360D01*
X038237Y017360D01*
X038132Y017317D01*
X038052Y017236D01*
X038008Y017132D01*
X038008Y017018D01*
X038052Y016914D01*
X038110Y016856D02*
X030203Y016856D01*
X030203Y016954D02*
X034853Y016954D01*
X034713Y017053D02*
X030203Y017053D01*
X030203Y017151D02*
X034310Y017151D01*
X034477Y017151D02*
X034665Y017151D01*
X034658Y017250D02*
X034621Y017250D01*
X034670Y017348D02*
X034686Y017348D01*
X034678Y017447D02*
X034762Y017447D01*
X034209Y017644D02*
X030203Y017644D01*
X030203Y017545D02*
X034135Y017545D01*
X034108Y017447D02*
X030203Y017447D01*
X030203Y017348D02*
X034117Y017348D01*
X034166Y017250D02*
X030203Y017250D01*
X030203Y016757D02*
X055993Y016757D01*
X055993Y016659D02*
X030203Y016659D01*
X030203Y016560D02*
X055993Y016560D01*
X055993Y016462D02*
X030203Y016462D01*
X030203Y016363D02*
X055993Y016363D01*
X055993Y016265D02*
X030203Y016265D01*
X030203Y016166D02*
X055993Y016166D01*
X055993Y016068D02*
X030164Y016068D01*
X030076Y015969D02*
X055993Y015969D01*
X055993Y015871D02*
X029977Y015871D01*
X029879Y015772D02*
X055993Y015772D01*
X055993Y015674D02*
X039088Y015674D01*
X039105Y015667D02*
X039000Y015710D01*
X038887Y015710D01*
X038782Y015667D01*
X038702Y015586D01*
X038658Y015482D01*
X038658Y015368D01*
X038702Y015264D01*
X038782Y015183D01*
X038887Y015140D01*
X039000Y015140D01*
X039105Y015183D01*
X039185Y015264D01*
X039228Y015368D01*
X039228Y015482D01*
X039185Y015586D01*
X039105Y015667D01*
X039190Y015575D02*
X055993Y015575D01*
X055993Y015477D02*
X039228Y015477D01*
X039228Y015378D02*
X055993Y015378D01*
X055993Y015280D02*
X039192Y015280D01*
X039099Y015181D02*
X055993Y015181D01*
X055993Y015083D02*
X038678Y015083D01*
X038678Y015082D02*
X038635Y015186D01*
X038555Y015267D01*
X038450Y015310D01*
X038337Y015310D01*
X038232Y015267D01*
X038152Y015186D01*
X038108Y015082D01*
X038108Y014968D01*
X038152Y014864D01*
X038232Y014783D01*
X038337Y014740D01*
X038450Y014740D01*
X038555Y014783D01*
X038635Y014864D01*
X038678Y014968D01*
X038678Y015082D01*
X038678Y014984D02*
X055993Y014984D01*
X055993Y014886D02*
X038644Y014886D01*
X038558Y014787D02*
X055993Y014787D01*
X055993Y014689D02*
X015393Y014689D01*
X015393Y014787D02*
X016426Y014787D01*
X016561Y014787D01*
X038228Y014787D01*
X038143Y014886D02*
X037757Y014886D01*
X037755Y014883D02*
X037835Y014964D01*
X037878Y015068D01*
X037878Y015182D01*
X037835Y015286D01*
X037755Y015367D01*
X037650Y015410D01*
X037537Y015410D01*
X037432Y015367D01*
X037352Y015286D01*
X037308Y015182D01*
X037308Y015068D01*
X037352Y014964D01*
X037432Y014883D01*
X037537Y014840D01*
X037650Y014840D01*
X037755Y014883D01*
X037843Y014984D02*
X038108Y014984D01*
X038109Y015083D02*
X037878Y015083D01*
X037878Y015181D02*
X038149Y015181D01*
X038263Y015280D02*
X037838Y015280D01*
X037727Y015378D02*
X038658Y015378D01*
X038658Y015477D02*
X033019Y015477D01*
X033030Y015452D02*
X032971Y015594D01*
X032862Y015702D01*
X032720Y015761D01*
X032566Y015761D01*
X032425Y015702D01*
X032316Y015594D01*
X032257Y015452D01*
X032257Y015298D01*
X032316Y015156D01*
X032425Y015048D01*
X032566Y014989D01*
X032720Y014989D01*
X032862Y015048D01*
X032971Y015156D01*
X033030Y015298D01*
X033030Y015452D01*
X033030Y015378D02*
X037459Y015378D01*
X037349Y015280D02*
X033022Y015280D01*
X032981Y015181D02*
X037308Y015181D01*
X037308Y015083D02*
X032897Y015083D01*
X032978Y015575D02*
X038697Y015575D01*
X038799Y015674D02*
X032891Y015674D01*
X032396Y015674D02*
X029726Y015674D01*
X029493Y016462D02*
X029407Y016462D01*
X029454Y016560D02*
X029493Y016560D01*
X029486Y016659D02*
X029493Y016659D01*
X029486Y016757D02*
X029493Y016757D01*
X029493Y016856D02*
X029468Y016856D01*
X029493Y016954D02*
X029428Y016954D01*
X029493Y017053D02*
X029343Y017053D01*
X029493Y017151D02*
X029176Y017151D01*
X028906Y017151D02*
X023572Y017151D01*
X023599Y017053D02*
X028738Y017053D01*
X028653Y016954D02*
X023628Y016954D01*
X023623Y016856D02*
X028613Y016856D01*
X028595Y016757D02*
X023578Y016757D01*
X023445Y016659D02*
X028595Y016659D01*
X028704Y018432D02*
X010364Y018432D01*
X010436Y018333D02*
X011898Y018333D01*
X011830Y018235D02*
X010477Y018235D01*
X010486Y018136D02*
X011808Y018136D01*
X011821Y018038D02*
X010486Y018038D01*
X010445Y017939D02*
X011876Y017939D01*
X012035Y017841D02*
X010386Y017841D01*
X010280Y017742D02*
X011675Y017742D01*
X011911Y017742D02*
X022658Y017742D01*
X022669Y017644D02*
X012053Y017644D01*
X012110Y017545D02*
X022720Y017545D01*
X022685Y017447D02*
X012131Y017447D01*
X012127Y017348D02*
X022658Y017348D01*
X022666Y017250D02*
X012087Y017250D01*
X011997Y017151D02*
X022714Y017151D01*
X022842Y016659D02*
X007393Y016659D01*
X007393Y016757D02*
X009779Y016757D01*
X009680Y016856D02*
X007393Y016856D01*
X007393Y016954D02*
X009629Y016954D01*
X009595Y017053D02*
X007393Y017053D01*
X007393Y017151D02*
X009595Y017151D01*
X009610Y017250D02*
X007393Y017250D01*
X007393Y017348D02*
X009651Y017348D01*
X009732Y017447D02*
X007393Y017447D01*
X007393Y017545D02*
X009891Y017545D01*
X009927Y016560D02*
X007393Y016560D01*
X007393Y016462D02*
X009747Y016462D01*
X009657Y016363D02*
X007393Y016363D01*
X007393Y016265D02*
X009616Y016265D01*
X009595Y016166D02*
X007393Y016166D01*
X007393Y016068D02*
X009595Y016068D01*
X009623Y015969D02*
X007393Y015969D01*
X007393Y015871D02*
X009665Y015871D01*
X009764Y015772D02*
X007393Y015772D01*
X007393Y018826D02*
X009710Y018826D01*
X009642Y018924D02*
X007393Y018924D01*
X007393Y019023D02*
X009601Y019023D01*
X009595Y019121D02*
X007393Y019121D01*
X007393Y019220D02*
X009598Y019220D01*
X009639Y019318D02*
X007393Y019318D01*
X007393Y019417D02*
X009702Y019417D01*
X009819Y019515D02*
X007393Y019515D01*
X010226Y018530D02*
X028639Y018530D01*
X031693Y018629D02*
X039544Y018629D01*
X039956Y018235D02*
X039981Y018235D01*
X039103Y017644D02*
X055993Y017644D01*
X055993Y017742D02*
X039029Y017742D01*
X039128Y017545D02*
X055993Y017545D01*
X055993Y017447D02*
X039119Y017447D01*
X039069Y017348D02*
X055993Y017348D01*
X055993Y017250D02*
X038923Y017250D01*
X038764Y017250D02*
X038522Y017250D01*
X038570Y017151D02*
X055993Y017151D01*
X055993Y017053D02*
X038578Y017053D01*
X038552Y016954D02*
X055993Y016954D01*
X055993Y016856D02*
X038477Y016856D01*
X038379Y017348D02*
X038617Y017348D01*
X038208Y017348D02*
X037723Y017348D01*
X037771Y017250D02*
X038065Y017250D01*
X038016Y017151D02*
X037778Y017151D01*
X037751Y017053D02*
X038008Y017053D01*
X038524Y015280D02*
X038695Y015280D01*
X038637Y015181D02*
X038788Y015181D01*
X037430Y014886D02*
X016732Y014886D01*
X016685Y014838D02*
X016780Y014933D01*
X016831Y015058D01*
X016831Y015192D01*
X016780Y015317D01*
X016685Y015412D01*
X016561Y015463D01*
X016426Y015463D01*
X016302Y015412D01*
X016207Y015317D01*
X016155Y015192D01*
X016155Y015058D01*
X016207Y014933D01*
X016302Y014838D01*
X016426Y014787D01*
X016561Y014787D02*
X016685Y014838D01*
X016801Y014984D02*
X037343Y014984D01*
X040202Y013120D02*
X040096Y012864D01*
X040096Y012586D01*
X040202Y012330D01*
X040398Y012134D01*
X040655Y012028D01*
X040932Y012028D01*
X041188Y012134D01*
X041385Y012330D01*
X041491Y012586D01*
X041491Y012864D01*
X041385Y013120D01*
X041188Y013316D01*
X040932Y013422D01*
X040655Y013422D01*
X040398Y013316D01*
X040202Y013120D01*
X040199Y013113D02*
X033888Y013113D01*
X033885Y013120D02*
X033688Y013316D01*
X033432Y013422D01*
X033155Y013422D01*
X032898Y013316D01*
X032702Y013120D01*
X032596Y012864D01*
X032596Y012586D01*
X032702Y012330D01*
X032898Y012134D01*
X033155Y012028D01*
X033432Y012028D01*
X033688Y012134D01*
X033885Y012330D01*
X033991Y012586D01*
X033991Y012864D01*
X033885Y013120D01*
X033929Y013014D02*
X040158Y013014D01*
X040117Y012916D02*
X033969Y012916D01*
X033991Y012817D02*
X040096Y012817D01*
X040096Y012719D02*
X033991Y012719D01*
X033991Y012620D02*
X040096Y012620D01*
X040123Y012522D02*
X033964Y012522D01*
X033923Y012423D02*
X040163Y012423D01*
X040207Y012325D02*
X033879Y012325D01*
X033781Y012226D02*
X040306Y012226D01*
X040413Y012128D02*
X033674Y012128D01*
X033436Y012029D02*
X040651Y012029D01*
X040936Y012029D02*
X045802Y012029D01*
X045814Y012024D02*
X046173Y012024D01*
X046504Y012161D01*
X046757Y012415D01*
X046894Y012746D01*
X046894Y013104D01*
X046757Y013435D01*
X046504Y013689D01*
X046173Y013826D01*
X045814Y013826D01*
X045483Y013689D01*
X045229Y013435D01*
X045092Y013104D01*
X045092Y012746D01*
X045229Y012415D01*
X045483Y012161D01*
X045814Y012024D01*
X045564Y012128D02*
X041174Y012128D01*
X041281Y012226D02*
X045418Y012226D01*
X045319Y012325D02*
X041379Y012325D01*
X041423Y012423D02*
X045226Y012423D01*
X045185Y012522D02*
X041464Y012522D01*
X041491Y012620D02*
X045144Y012620D01*
X045103Y012719D02*
X041491Y012719D01*
X041491Y012817D02*
X045092Y012817D01*
X045092Y012916D02*
X041469Y012916D01*
X041429Y013014D02*
X045092Y013014D01*
X045096Y013113D02*
X041388Y013113D01*
X041294Y013211D02*
X045136Y013211D01*
X045177Y013310D02*
X041195Y013310D01*
X040967Y013408D02*
X045218Y013408D01*
X045300Y013507D02*
X015393Y013507D01*
X015393Y013605D02*
X045399Y013605D01*
X045518Y013704D02*
X015393Y013704D01*
X015393Y013802D02*
X045756Y013802D01*
X046231Y013802D02*
X049206Y013802D01*
X049264Y013826D02*
X048933Y013689D01*
X048679Y013435D01*
X048542Y013104D01*
X048542Y012746D01*
X048679Y012415D01*
X048933Y012161D01*
X049264Y012024D01*
X049623Y012024D01*
X049954Y012161D01*
X050207Y012415D01*
X050344Y012746D01*
X050344Y013104D01*
X050207Y013435D01*
X049954Y013689D01*
X049623Y013826D01*
X049264Y013826D01*
X048968Y013704D02*
X046469Y013704D01*
X046588Y013605D02*
X048849Y013605D01*
X048750Y013507D02*
X046686Y013507D01*
X046769Y013408D02*
X048668Y013408D01*
X048627Y013310D02*
X046809Y013310D01*
X046850Y013211D02*
X048586Y013211D01*
X048546Y013113D02*
X046891Y013113D01*
X046894Y013014D02*
X048542Y013014D01*
X048542Y012916D02*
X046894Y012916D01*
X046894Y012817D02*
X048542Y012817D01*
X048553Y012719D02*
X046883Y012719D01*
X046842Y012620D02*
X048594Y012620D01*
X048635Y012522D02*
X046802Y012522D01*
X046761Y012423D02*
X048676Y012423D01*
X048769Y012325D02*
X046667Y012325D01*
X046569Y012226D02*
X048868Y012226D01*
X049014Y012128D02*
X046423Y012128D01*
X046185Y012029D02*
X049252Y012029D01*
X049635Y012029D02*
X055993Y012029D01*
X055993Y011931D02*
X016716Y011931D01*
X016731Y011892D02*
X016680Y012017D01*
X016585Y012112D01*
X016461Y012163D01*
X016326Y012163D01*
X016202Y012112D01*
X016107Y012017D01*
X016055Y011892D01*
X016055Y011758D01*
X016107Y011633D01*
X016202Y011538D01*
X016326Y011487D01*
X016461Y011487D01*
X016585Y011538D01*
X016680Y011633D01*
X016731Y011758D01*
X016731Y011892D01*
X016731Y011832D02*
X055993Y011832D01*
X055993Y011734D02*
X020381Y011734D01*
X020362Y011752D02*
X020471Y011644D01*
X020530Y011502D01*
X020530Y011348D01*
X020471Y011206D01*
X020362Y011098D01*
X020220Y011039D01*
X020066Y011039D01*
X019925Y011098D01*
X019816Y011206D01*
X019757Y011348D01*
X019757Y011502D01*
X019816Y011644D01*
X019925Y011752D01*
X020066Y011811D01*
X020220Y011811D01*
X020362Y011752D01*
X020474Y011635D02*
X055993Y011635D01*
X055993Y011537D02*
X020515Y011537D01*
X020530Y011438D02*
X055993Y011438D01*
X055993Y011340D02*
X052130Y011340D01*
X051961Y011410D02*
X052314Y011263D01*
X052584Y010993D01*
X052730Y010640D01*
X052730Y010258D01*
X052584Y009905D01*
X052314Y009635D01*
X051961Y009489D01*
X051579Y009489D01*
X051226Y009635D01*
X050956Y009905D01*
X050809Y010258D01*
X050809Y010640D01*
X050956Y010993D01*
X051226Y011263D01*
X051579Y011410D01*
X051961Y011410D01*
X052336Y011241D02*
X055993Y011241D01*
X055993Y011143D02*
X052435Y011143D01*
X052533Y011044D02*
X055993Y011044D01*
X055993Y010946D02*
X052604Y010946D01*
X052644Y010847D02*
X055993Y010847D01*
X055993Y010749D02*
X052685Y010749D01*
X052726Y010650D02*
X055993Y010650D01*
X055993Y010552D02*
X052730Y010552D01*
X052730Y010453D02*
X055993Y010453D01*
X055993Y010355D02*
X052730Y010355D01*
X052729Y010256D02*
X055993Y010256D01*
X055993Y010158D02*
X052688Y010158D01*
X052647Y010059D02*
X055993Y010059D01*
X055993Y009961D02*
X052607Y009961D01*
X052540Y009862D02*
X055993Y009862D01*
X055993Y009764D02*
X052442Y009764D01*
X052343Y009665D02*
X055993Y009665D01*
X055993Y009567D02*
X052147Y009567D01*
X051931Y008900D02*
X051608Y008900D01*
X051309Y008776D01*
X051081Y008548D01*
X050957Y008249D01*
X050957Y007926D01*
X051081Y007627D01*
X051309Y007398D01*
X051468Y007333D01*
X051333Y007198D01*
X051255Y007009D01*
X051255Y006804D01*
X051333Y006614D01*
X051478Y006470D01*
X051667Y006391D01*
X051872Y006391D01*
X052061Y006470D01*
X052206Y006614D01*
X052285Y006804D01*
X052285Y007009D01*
X052206Y007198D01*
X052071Y007333D01*
X052230Y007398D01*
X052459Y007627D01*
X052582Y007926D01*
X052582Y008249D01*
X052459Y008548D01*
X052230Y008776D01*
X051931Y008900D01*
X051986Y008877D02*
X055993Y008877D01*
X055993Y008779D02*
X052224Y008779D01*
X052326Y008680D02*
X055993Y008680D01*
X055993Y008582D02*
X052425Y008582D01*
X052485Y008483D02*
X053192Y008483D01*
X053053Y008426D02*
X053370Y008557D01*
X053713Y008557D01*
X054030Y008426D01*
X054272Y008183D01*
X054403Y007866D01*
X054403Y007524D01*
X054272Y007207D01*
X054030Y006964D01*
X053713Y006833D01*
X053370Y006833D01*
X053053Y006964D01*
X052811Y007207D01*
X052680Y007524D01*
X052680Y007866D01*
X052811Y008183D01*
X053053Y008426D01*
X053012Y008385D02*
X052526Y008385D01*
X052567Y008286D02*
X052914Y008286D01*
X052815Y008188D02*
X052582Y008188D01*
X052582Y008089D02*
X052772Y008089D01*
X052731Y007991D02*
X052582Y007991D01*
X052568Y007892D02*
X052690Y007892D01*
X052680Y007794D02*
X052528Y007794D01*
X052487Y007695D02*
X052680Y007695D01*
X052680Y007597D02*
X052428Y007597D01*
X052330Y007498D02*
X052690Y007498D01*
X052731Y007400D02*
X052231Y007400D01*
X052103Y007301D02*
X052772Y007301D01*
X052815Y007203D02*
X052202Y007203D01*
X052245Y007104D02*
X052914Y007104D01*
X053012Y007006D02*
X052285Y007006D01*
X052285Y006907D02*
X053192Y006907D01*
X053891Y006907D02*
X055993Y006907D01*
X055993Y006809D02*
X052285Y006809D01*
X052246Y006710D02*
X055993Y006710D01*
X055993Y006612D02*
X052203Y006612D01*
X052105Y006513D02*
X055993Y006513D01*
X055993Y006415D02*
X051929Y006415D01*
X051611Y006415D02*
X048509Y006415D01*
X048509Y006350D02*
X048452Y006211D01*
X048346Y006105D01*
X048207Y006048D01*
X048057Y006048D01*
X047918Y006105D01*
X047812Y006211D01*
X047755Y006350D01*
X047755Y006500D01*
X047812Y006639D01*
X047918Y006745D01*
X048057Y006802D01*
X048207Y006802D01*
X048346Y006745D01*
X048452Y006639D01*
X048509Y006500D01*
X048509Y006350D01*
X048495Y006316D02*
X055993Y006316D01*
X055903Y006218D02*
X048454Y006218D01*
X048359Y006119D02*
X055804Y006119D01*
X055706Y006021D02*
X024431Y006021D01*
X024527Y006119D02*
X032934Y006119D01*
X032898Y006134D02*
X033155Y006028D01*
X033432Y006028D01*
X033688Y006134D01*
X033885Y006330D01*
X033991Y006586D01*
X033991Y006864D01*
X033885Y007120D01*
X033688Y007316D01*
X033432Y007422D01*
X033155Y007422D01*
X032898Y007316D01*
X032702Y007120D01*
X032596Y006864D01*
X032596Y006586D01*
X032702Y006330D01*
X032898Y006134D01*
X032814Y006218D02*
X024622Y006218D01*
X024718Y006316D02*
X032716Y006316D01*
X032667Y006415D02*
X024814Y006415D01*
X024910Y006513D02*
X032626Y006513D01*
X032596Y006612D02*
X025006Y006612D01*
X025102Y006710D02*
X032596Y006710D01*
X032596Y006809D02*
X025198Y006809D01*
X025293Y006907D02*
X032614Y006907D01*
X032655Y007006D02*
X025389Y007006D01*
X025485Y007104D02*
X032695Y007104D01*
X032784Y007203D02*
X025581Y007203D01*
X025677Y007301D02*
X032883Y007301D01*
X033099Y007400D02*
X025773Y007400D01*
X025868Y007498D02*
X043754Y007498D01*
X043796Y007516D02*
X043524Y007403D01*
X043315Y007194D01*
X043203Y006922D01*
X043203Y006628D01*
X043315Y006356D01*
X043524Y006147D01*
X043796Y006034D01*
X044091Y006034D01*
X044363Y006147D01*
X044571Y006356D01*
X044684Y006628D01*
X044684Y006922D01*
X044571Y007194D01*
X044363Y007403D01*
X044091Y007516D01*
X043796Y007516D01*
X043521Y007400D02*
X040988Y007400D01*
X040932Y007422D02*
X040655Y007422D01*
X040398Y007316D01*
X040202Y007120D01*
X040096Y006864D01*
X040096Y006586D01*
X040202Y006330D01*
X040398Y006134D01*
X040655Y006028D01*
X040932Y006028D01*
X041188Y006134D01*
X041385Y006330D01*
X041491Y006586D01*
X041491Y006864D01*
X041385Y007120D01*
X041188Y007316D01*
X040932Y007422D01*
X041204Y007301D02*
X043422Y007301D01*
X043324Y007203D02*
X041302Y007203D01*
X041391Y007104D02*
X043278Y007104D01*
X043237Y007006D02*
X041432Y007006D01*
X041473Y006907D02*
X043203Y006907D01*
X043203Y006809D02*
X041491Y006809D01*
X041491Y006710D02*
X043203Y006710D01*
X043209Y006612D02*
X041491Y006612D01*
X041460Y006513D02*
X043250Y006513D01*
X043291Y006415D02*
X041420Y006415D01*
X041371Y006316D02*
X043355Y006316D01*
X043454Y006218D02*
X041272Y006218D01*
X041153Y006119D02*
X043592Y006119D01*
X044295Y006119D02*
X045227Y006119D01*
X045241Y006105D02*
X045380Y006048D01*
X045530Y006048D01*
X045668Y006105D01*
X045774Y006211D01*
X045832Y006350D01*
X045832Y006500D01*
X045774Y006639D01*
X045668Y006745D01*
X045530Y006802D01*
X045380Y006802D01*
X045241Y006745D01*
X045135Y006639D01*
X045078Y006500D01*
X045078Y006350D01*
X045135Y006211D01*
X045241Y006105D01*
X045132Y006218D02*
X044433Y006218D01*
X044532Y006316D02*
X045092Y006316D01*
X045078Y006415D02*
X044596Y006415D01*
X044636Y006513D02*
X045083Y006513D01*
X045124Y006612D02*
X044677Y006612D01*
X044684Y006710D02*
X045206Y006710D01*
X045703Y006710D02*
X047884Y006710D01*
X047801Y006612D02*
X045786Y006612D01*
X045827Y006513D02*
X047760Y006513D01*
X047755Y006415D02*
X045832Y006415D01*
X045818Y006316D02*
X047769Y006316D01*
X047810Y006218D02*
X045777Y006218D01*
X045682Y006119D02*
X047904Y006119D01*
X048504Y006513D02*
X051435Y006513D01*
X051336Y006612D02*
X048463Y006612D01*
X048380Y006710D02*
X051294Y006710D01*
X051255Y006809D02*
X044684Y006809D01*
X044684Y006907D02*
X049648Y006907D01*
X049510Y006964D02*
X049827Y006833D01*
X050169Y006833D01*
X050486Y006964D01*
X050729Y007207D01*
X050860Y007524D01*
X050860Y007866D01*
X050729Y008183D01*
X050486Y008426D01*
X050169Y008557D01*
X049827Y008557D01*
X049510Y008426D01*
X049267Y008183D01*
X049136Y007866D01*
X049136Y007524D01*
X049267Y007207D01*
X049510Y006964D01*
X049469Y007006D02*
X044649Y007006D01*
X044609Y007104D02*
X049370Y007104D01*
X049272Y007203D02*
X044563Y007203D01*
X044465Y007301D02*
X049228Y007301D01*
X049188Y007400D02*
X044366Y007400D01*
X044133Y007498D02*
X049147Y007498D01*
X049136Y007597D02*
X025943Y007597D01*
X025943Y007695D02*
X049136Y007695D01*
X049136Y007794D02*
X025943Y007794D01*
X025943Y007892D02*
X049147Y007892D01*
X049188Y007991D02*
X025943Y007991D01*
X025943Y008089D02*
X049228Y008089D01*
X049272Y008188D02*
X047009Y008188D01*
X047035Y008214D02*
X047078Y008318D01*
X047078Y008432D01*
X047035Y008536D01*
X046955Y008617D01*
X046850Y008660D01*
X046737Y008660D01*
X046632Y008617D01*
X046552Y008536D01*
X046508Y008432D01*
X046508Y008318D01*
X046552Y008214D01*
X046632Y008133D01*
X046737Y008090D01*
X046850Y008090D01*
X046955Y008133D01*
X047035Y008214D01*
X047065Y008286D02*
X049370Y008286D01*
X049469Y008385D02*
X047078Y008385D01*
X047057Y008483D02*
X049648Y008483D01*
X050348Y008483D02*
X051054Y008483D01*
X051013Y008385D02*
X050527Y008385D01*
X050626Y008286D02*
X050972Y008286D01*
X050957Y008188D02*
X050724Y008188D01*
X050768Y008089D02*
X050957Y008089D01*
X050957Y007991D02*
X050808Y007991D01*
X050849Y007892D02*
X050971Y007892D01*
X051012Y007794D02*
X050860Y007794D01*
X050860Y007695D02*
X051053Y007695D01*
X051111Y007597D02*
X050860Y007597D01*
X050849Y007498D02*
X051210Y007498D01*
X051308Y007400D02*
X050808Y007400D01*
X050768Y007301D02*
X051436Y007301D01*
X051338Y007203D02*
X050724Y007203D01*
X050626Y007104D02*
X051294Y007104D01*
X051255Y007006D02*
X050527Y007006D01*
X050348Y006907D02*
X051255Y006907D01*
X051115Y008582D02*
X046990Y008582D01*
X046597Y008582D02*
X045500Y008582D01*
X045464Y008494D02*
X045593Y008806D01*
X045593Y009144D01*
X045464Y009456D01*
X045225Y009696D01*
X044912Y009825D01*
X044574Y009825D01*
X044262Y009696D01*
X044023Y009456D01*
X043893Y009144D01*
X043893Y008806D01*
X044023Y008494D01*
X044262Y008254D01*
X044574Y008125D01*
X044912Y008125D01*
X045225Y008254D01*
X045464Y008494D01*
X045453Y008483D02*
X046530Y008483D01*
X046508Y008385D02*
X045355Y008385D01*
X045256Y008286D02*
X046522Y008286D01*
X046578Y008188D02*
X045063Y008188D01*
X044423Y008188D02*
X025943Y008188D01*
X025943Y008286D02*
X044230Y008286D01*
X044132Y008385D02*
X025943Y008385D01*
X025943Y008483D02*
X044033Y008483D01*
X043986Y008582D02*
X025943Y008582D01*
X025943Y008680D02*
X043945Y008680D01*
X043905Y008779D02*
X027962Y008779D01*
X027998Y008794D02*
X028125Y008920D01*
X028193Y009085D01*
X028193Y009265D01*
X028125Y009430D01*
X027998Y009556D01*
X027833Y009625D01*
X027654Y009625D01*
X027488Y009556D01*
X027362Y009430D01*
X027293Y009265D01*
X027293Y009085D01*
X027362Y008920D01*
X027488Y008794D01*
X027654Y008725D01*
X027833Y008725D01*
X027998Y008794D01*
X028082Y008877D02*
X043893Y008877D01*
X043893Y008976D02*
X028148Y008976D01*
X028189Y009074D02*
X043893Y009074D01*
X043905Y009173D02*
X028193Y009173D01*
X028191Y009271D02*
X043946Y009271D01*
X043987Y009370D02*
X038289Y009370D01*
X038335Y009388D02*
X038430Y009483D01*
X038481Y009608D01*
X038481Y009742D01*
X038430Y009867D01*
X038396Y009900D01*
X038430Y009933D01*
X038481Y010058D01*
X038481Y010192D01*
X038430Y010317D01*
X038396Y010350D01*
X038430Y010383D01*
X038481Y010508D01*
X038481Y010642D01*
X038430Y010767D01*
X038396Y010800D01*
X038430Y010833D01*
X038481Y010958D01*
X038481Y011092D01*
X038430Y011217D01*
X038335Y011312D01*
X038211Y011363D01*
X038076Y011363D01*
X037952Y011312D01*
X037857Y011217D01*
X037805Y011092D01*
X037805Y010958D01*
X037857Y010833D01*
X037890Y010800D01*
X037857Y010767D01*
X037805Y010642D01*
X037805Y010508D01*
X037857Y010383D01*
X037890Y010350D01*
X037857Y010317D01*
X037805Y010192D01*
X037805Y010058D01*
X037837Y009982D01*
X037761Y010013D01*
X037626Y010013D01*
X037502Y009962D01*
X037468Y009928D01*
X037435Y009962D01*
X037311Y010013D01*
X037176Y010013D01*
X037052Y009962D01*
X037018Y009928D01*
X036985Y009962D01*
X036861Y010013D01*
X036726Y010013D01*
X036602Y009962D01*
X036568Y009928D01*
X036535Y009962D01*
X036411Y010013D01*
X036276Y010013D01*
X036200Y009982D01*
X036231Y010058D01*
X036231Y010192D01*
X036180Y010317D01*
X036146Y010350D01*
X036180Y010383D01*
X036231Y010508D01*
X036231Y010642D01*
X036180Y010767D01*
X036146Y010800D01*
X036180Y010833D01*
X036231Y010958D01*
X036231Y011092D01*
X036180Y011217D01*
X036085Y011312D01*
X035961Y011363D01*
X035826Y011363D01*
X035702Y011312D01*
X035607Y011217D01*
X035555Y011092D01*
X035555Y010958D01*
X035607Y010833D01*
X035640Y010800D01*
X035607Y010767D01*
X035555Y010642D01*
X035555Y010508D01*
X035607Y010383D01*
X035640Y010350D01*
X035607Y010317D01*
X035555Y010192D01*
X035555Y010058D01*
X035607Y009933D01*
X035640Y009900D01*
X035607Y009867D01*
X035555Y009742D01*
X035555Y009608D01*
X035607Y009483D01*
X035702Y009388D01*
X035826Y009337D01*
X035961Y009337D01*
X036085Y009388D01*
X036118Y009422D01*
X036152Y009388D01*
X036276Y009337D01*
X036411Y009337D01*
X036535Y009388D01*
X036568Y009422D01*
X036602Y009388D01*
X036726Y009337D01*
X036861Y009337D01*
X036985Y009388D01*
X037018Y009422D01*
X037052Y009388D01*
X037176Y009337D01*
X037311Y009337D01*
X037435Y009388D01*
X037468Y009422D01*
X037502Y009388D01*
X037626Y009337D01*
X037761Y009337D01*
X037885Y009388D01*
X037918Y009422D01*
X037952Y009388D01*
X038076Y009337D01*
X038211Y009337D01*
X038335Y009388D01*
X038414Y009468D02*
X044034Y009468D01*
X044133Y009567D02*
X038464Y009567D01*
X038481Y009665D02*
X044231Y009665D01*
X044426Y009764D02*
X038473Y009764D01*
X038432Y009862D02*
X050999Y009862D01*
X050933Y009961D02*
X038441Y009961D01*
X038481Y010059D02*
X050892Y010059D01*
X050851Y010158D02*
X038481Y010158D01*
X038455Y010256D02*
X050810Y010256D01*
X050809Y010355D02*
X038401Y010355D01*
X038459Y010453D02*
X050809Y010453D01*
X050809Y010552D02*
X038481Y010552D01*
X038478Y010650D02*
X050813Y010650D01*
X050854Y010749D02*
X038437Y010749D01*
X038436Y010847D02*
X050895Y010847D01*
X050936Y010946D02*
X038476Y010946D01*
X038481Y011044D02*
X051006Y011044D01*
X051105Y011143D02*
X038461Y011143D01*
X038405Y011241D02*
X051203Y011241D01*
X051409Y011340D02*
X038268Y011340D01*
X038019Y011340D02*
X036018Y011340D01*
X036155Y011241D02*
X037881Y011241D01*
X037826Y011143D02*
X036211Y011143D01*
X036231Y011044D02*
X037805Y011044D01*
X037810Y010946D02*
X036226Y010946D01*
X036186Y010847D02*
X037851Y010847D01*
X037849Y010749D02*
X036187Y010749D01*
X036228Y010650D02*
X037808Y010650D01*
X037805Y010552D02*
X036231Y010552D01*
X036209Y010453D02*
X037828Y010453D01*
X037886Y010355D02*
X036151Y010355D01*
X036205Y010256D02*
X037832Y010256D01*
X037805Y010158D02*
X036231Y010158D01*
X036231Y010059D02*
X037805Y010059D01*
X037501Y009961D02*
X037436Y009961D01*
X037051Y009961D02*
X036986Y009961D01*
X036601Y009961D02*
X036536Y009961D01*
X036489Y009370D02*
X036647Y009370D01*
X036939Y009370D02*
X037097Y009370D01*
X037389Y009370D02*
X037547Y009370D01*
X037839Y009370D02*
X037997Y009370D01*
X036197Y009370D02*
X036039Y009370D01*
X035747Y009370D02*
X028150Y009370D01*
X028087Y009468D02*
X035622Y009468D01*
X035572Y009567D02*
X027974Y009567D01*
X027926Y009764D02*
X035564Y009764D01*
X035555Y009665D02*
X015393Y009665D01*
X015393Y009567D02*
X023513Y009567D01*
X023488Y009556D02*
X023362Y009430D01*
X023293Y009265D01*
X023293Y009085D01*
X023362Y008920D01*
X023488Y008794D01*
X023654Y008725D01*
X023833Y008725D01*
X023998Y008794D01*
X024125Y008920D01*
X024193Y009085D01*
X024193Y009265D01*
X024125Y009430D01*
X023998Y009556D01*
X023833Y009625D01*
X023654Y009625D01*
X023488Y009556D01*
X023400Y009468D02*
X020659Y009468D01*
X020606Y009490D02*
X020306Y009490D01*
X020028Y009375D01*
X019816Y009163D01*
X019701Y008885D01*
X019701Y008585D01*
X019816Y008307D01*
X020028Y008095D01*
X020306Y007980D01*
X020606Y007980D01*
X020883Y008095D01*
X021096Y008307D01*
X021211Y008585D01*
X021211Y008885D01*
X021096Y009163D01*
X020883Y009375D01*
X020606Y009490D01*
X020889Y009370D02*
X023337Y009370D01*
X023296Y009271D02*
X020988Y009271D01*
X021086Y009173D02*
X023293Y009173D01*
X023298Y009074D02*
X021133Y009074D01*
X021173Y008976D02*
X023339Y008976D01*
X023405Y008877D02*
X021211Y008877D01*
X021211Y008779D02*
X023525Y008779D01*
X023962Y008779D02*
X024525Y008779D01*
X024543Y008680D02*
X021211Y008680D01*
X021209Y008582D02*
X024543Y008582D01*
X024543Y008483D02*
X021169Y008483D01*
X021128Y008385D02*
X024543Y008385D01*
X024543Y008286D02*
X021075Y008286D01*
X020976Y008188D02*
X024543Y008188D01*
X024543Y008089D02*
X020869Y008089D01*
X020631Y007991D02*
X024543Y007991D01*
X024543Y007892D02*
X015393Y007892D01*
X015393Y007794D02*
X024543Y007794D01*
X024543Y007695D02*
X015393Y007695D01*
X015393Y007597D02*
X024543Y007597D01*
X024543Y007498D02*
X015393Y007498D01*
X015393Y007400D02*
X024543Y007400D01*
X024543Y007301D02*
X015393Y007301D01*
X015393Y007203D02*
X024543Y007203D01*
X024543Y007104D02*
X015393Y007104D01*
X015393Y007991D02*
X016255Y007991D01*
X016281Y007980D02*
X016581Y007980D01*
X016858Y008095D01*
X017071Y008307D01*
X017186Y008585D01*
X017186Y008885D01*
X017071Y009163D01*
X016858Y009375D01*
X016581Y009490D01*
X016281Y009490D01*
X016003Y009375D01*
X015791Y009163D01*
X015676Y008885D01*
X015676Y008585D01*
X015791Y008307D01*
X016003Y008095D01*
X016281Y007980D01*
X016017Y008089D02*
X015393Y008089D01*
X015393Y008188D02*
X015911Y008188D01*
X015812Y008286D02*
X015393Y008286D01*
X015393Y008385D02*
X015759Y008385D01*
X015718Y008483D02*
X015393Y008483D01*
X015393Y008582D02*
X015677Y008582D01*
X015676Y008680D02*
X015393Y008680D01*
X015393Y008779D02*
X015676Y008779D01*
X015676Y008877D02*
X015393Y008877D01*
X015393Y008976D02*
X015713Y008976D01*
X015754Y009074D02*
X015393Y009074D01*
X015393Y009173D02*
X015801Y009173D01*
X015899Y009271D02*
X015393Y009271D01*
X015393Y009370D02*
X015998Y009370D01*
X016228Y009468D02*
X015393Y009468D01*
X015193Y009468D02*
X014459Y009468D01*
X014406Y009490D02*
X014106Y009490D01*
X013828Y009375D01*
X013616Y009163D01*
X013501Y008885D01*
X013501Y008585D01*
X013616Y008307D01*
X013828Y008095D01*
X014106Y007980D01*
X014406Y007980D01*
X014683Y008095D01*
X014896Y008307D01*
X015011Y008585D01*
X015011Y008885D01*
X014896Y009163D01*
X014683Y009375D01*
X014406Y009490D01*
X014689Y009370D02*
X015193Y009370D01*
X015193Y009271D02*
X014788Y009271D01*
X014886Y009173D02*
X015193Y009173D01*
X015193Y009074D02*
X014933Y009074D01*
X014973Y008976D02*
X015193Y008976D01*
X015193Y008877D02*
X015011Y008877D01*
X015011Y008779D02*
X015193Y008779D01*
X015193Y008680D02*
X015011Y008680D01*
X015009Y008582D02*
X015193Y008582D01*
X015193Y008483D02*
X014969Y008483D01*
X014928Y008385D02*
X015193Y008385D01*
X015193Y008286D02*
X014875Y008286D01*
X014776Y008188D02*
X015193Y008188D01*
X015193Y008089D02*
X014669Y008089D01*
X014431Y007991D02*
X015193Y007991D01*
X014080Y007991D02*
X010406Y007991D01*
X010644Y008089D02*
X013842Y008089D01*
X013736Y008188D02*
X010751Y008188D01*
X010850Y008286D02*
X013637Y008286D01*
X013584Y008385D02*
X010903Y008385D01*
X010944Y008483D02*
X013543Y008483D01*
X013502Y008582D02*
X010984Y008582D01*
X010986Y008680D02*
X013501Y008680D01*
X013501Y008779D02*
X010986Y008779D01*
X010986Y008877D02*
X013501Y008877D01*
X013538Y008976D02*
X010948Y008976D01*
X010908Y009074D02*
X013579Y009074D01*
X013626Y009173D02*
X010861Y009173D01*
X010763Y009271D02*
X013724Y009271D01*
X013823Y009370D02*
X010664Y009370D01*
X010434Y009468D02*
X014053Y009468D01*
X015393Y009764D02*
X023561Y009764D01*
X023488Y009794D02*
X023654Y009725D01*
X023833Y009725D01*
X023998Y009794D01*
X024125Y009920D01*
X024193Y010085D01*
X024193Y010265D01*
X024125Y010430D01*
X023998Y010556D01*
X023833Y010625D01*
X023654Y010625D01*
X023488Y010556D01*
X023362Y010430D01*
X023293Y010265D01*
X023293Y010085D01*
X023362Y009920D01*
X023488Y009794D01*
X023420Y009862D02*
X015393Y009862D01*
X015393Y009961D02*
X023345Y009961D01*
X023304Y010059D02*
X015393Y010059D01*
X015393Y010158D02*
X023293Y010158D01*
X023293Y010256D02*
X015393Y010256D01*
X015393Y010355D02*
X023331Y010355D01*
X023385Y010453D02*
X015393Y010453D01*
X015393Y010552D02*
X023483Y010552D01*
X024003Y010552D02*
X025483Y010552D01*
X025488Y010556D02*
X025362Y010430D01*
X025293Y010265D01*
X025293Y010085D01*
X025362Y009920D01*
X025488Y009794D01*
X025654Y009725D01*
X025833Y009725D01*
X025998Y009794D01*
X026125Y009920D01*
X026193Y010085D01*
X026193Y010265D01*
X026125Y010430D01*
X025998Y010556D01*
X025833Y010625D01*
X025654Y010625D01*
X025488Y010556D01*
X025385Y010453D02*
X024102Y010453D01*
X024156Y010355D02*
X025331Y010355D01*
X025293Y010256D02*
X024193Y010256D01*
X024193Y010158D02*
X025293Y010158D01*
X025304Y010059D02*
X024182Y010059D01*
X024142Y009961D02*
X025345Y009961D01*
X025420Y009862D02*
X024067Y009862D01*
X023926Y009764D02*
X025561Y009764D01*
X025513Y009567D02*
X024974Y009567D01*
X025087Y009468D02*
X025400Y009468D01*
X025974Y009567D02*
X026513Y009567D01*
X026488Y009556D02*
X026362Y009430D01*
X026293Y009265D01*
X026293Y009085D01*
X026362Y008920D01*
X026488Y008794D01*
X026654Y008725D01*
X026833Y008725D01*
X026998Y008794D01*
X027125Y008920D01*
X027193Y009085D01*
X027193Y009265D01*
X027125Y009430D01*
X026998Y009556D01*
X026833Y009625D01*
X026654Y009625D01*
X026488Y009556D01*
X026400Y009468D02*
X026087Y009468D01*
X026150Y009370D02*
X026337Y009370D01*
X026296Y009271D02*
X026191Y009271D01*
X026193Y009173D02*
X026293Y009173D01*
X026298Y009074D02*
X026189Y009074D01*
X026148Y008976D02*
X026339Y008976D01*
X026405Y008877D02*
X026082Y008877D01*
X025962Y008779D02*
X026525Y008779D01*
X026962Y008779D02*
X027525Y008779D01*
X027405Y008877D02*
X027082Y008877D01*
X027148Y008976D02*
X027339Y008976D01*
X027298Y009074D02*
X027189Y009074D01*
X027193Y009173D02*
X027293Y009173D01*
X027296Y009271D02*
X027191Y009271D01*
X027150Y009370D02*
X027337Y009370D01*
X027400Y009468D02*
X027087Y009468D01*
X026974Y009567D02*
X027513Y009567D01*
X027561Y009764D02*
X026926Y009764D01*
X026998Y009794D02*
X027125Y009920D01*
X027193Y010085D01*
X027193Y010265D01*
X027125Y010430D01*
X026998Y010556D01*
X026833Y010625D01*
X026654Y010625D01*
X026488Y010556D01*
X026362Y010430D01*
X026293Y010265D01*
X026293Y010085D01*
X026362Y009920D01*
X026488Y009794D01*
X026654Y009725D01*
X026833Y009725D01*
X026998Y009794D01*
X027067Y009862D02*
X027420Y009862D01*
X027362Y009920D02*
X027488Y009794D01*
X027654Y009725D01*
X027833Y009725D01*
X027998Y009794D01*
X028125Y009920D01*
X028193Y010085D01*
X028193Y010265D01*
X028125Y010430D01*
X027998Y010556D01*
X027833Y010625D01*
X027654Y010625D01*
X027488Y010556D01*
X027362Y010430D01*
X027293Y010265D01*
X027293Y010085D01*
X027362Y009920D01*
X027345Y009961D02*
X027142Y009961D01*
X027182Y010059D02*
X027304Y010059D01*
X027293Y010158D02*
X027193Y010158D01*
X027193Y010256D02*
X027293Y010256D01*
X027331Y010355D02*
X027156Y010355D01*
X027102Y010453D02*
X027385Y010453D01*
X027483Y010552D02*
X027003Y010552D01*
X026483Y010552D02*
X026003Y010552D01*
X026102Y010453D02*
X026385Y010453D01*
X026331Y010355D02*
X026156Y010355D01*
X026193Y010256D02*
X026293Y010256D01*
X026293Y010158D02*
X026193Y010158D01*
X026182Y010059D02*
X026304Y010059D01*
X026345Y009961D02*
X026142Y009961D01*
X026067Y009862D02*
X026420Y009862D01*
X026561Y009764D02*
X025926Y009764D01*
X024513Y009567D02*
X023974Y009567D01*
X024087Y009468D02*
X024400Y009468D01*
X024337Y009370D02*
X024150Y009370D01*
X024191Y009271D02*
X024296Y009271D01*
X024293Y009173D02*
X024193Y009173D01*
X024189Y009074D02*
X024298Y009074D01*
X024339Y008976D02*
X024148Y008976D01*
X024082Y008877D02*
X024405Y008877D01*
X024543Y007006D02*
X021313Y007006D01*
X021411Y006907D02*
X024543Y006907D01*
X024527Y006809D02*
X021510Y006809D01*
X021608Y006710D02*
X024428Y006710D01*
X024330Y006612D02*
X021707Y006612D01*
X021805Y006513D02*
X024231Y006513D01*
X024133Y006415D02*
X021904Y006415D01*
X022002Y006316D02*
X024034Y006316D01*
X020280Y007991D02*
X016606Y007991D01*
X016844Y008089D02*
X020042Y008089D01*
X019936Y008188D02*
X016951Y008188D01*
X017050Y008286D02*
X019837Y008286D01*
X019784Y008385D02*
X017103Y008385D01*
X017144Y008483D02*
X019743Y008483D01*
X019702Y008582D02*
X017184Y008582D01*
X017186Y008680D02*
X019701Y008680D01*
X019701Y008779D02*
X017186Y008779D01*
X017186Y008877D02*
X019701Y008877D01*
X019738Y008976D02*
X017148Y008976D01*
X017108Y009074D02*
X019779Y009074D01*
X019826Y009173D02*
X017061Y009173D01*
X016963Y009271D02*
X019924Y009271D01*
X020023Y009370D02*
X016864Y009370D01*
X016634Y009468D02*
X020253Y009468D01*
X020233Y011044D02*
X035555Y011044D01*
X035560Y010946D02*
X015393Y010946D01*
X015393Y011044D02*
X020054Y011044D01*
X019880Y011143D02*
X015393Y011143D01*
X015393Y011241D02*
X019801Y011241D01*
X019761Y011340D02*
X015393Y011340D01*
X015393Y011438D02*
X019757Y011438D01*
X019771Y011537D02*
X016580Y011537D01*
X016681Y011635D02*
X019812Y011635D01*
X019906Y011734D02*
X016721Y011734D01*
X016667Y012029D02*
X033151Y012029D01*
X032913Y012128D02*
X016546Y012128D01*
X016240Y012128D02*
X015393Y012128D01*
X015393Y012226D02*
X032806Y012226D01*
X032707Y012325D02*
X015393Y012325D01*
X015393Y012423D02*
X032663Y012423D01*
X032623Y012522D02*
X015393Y012522D01*
X015393Y012620D02*
X032596Y012620D01*
X032596Y012719D02*
X015393Y012719D01*
X015393Y012817D02*
X032596Y012817D01*
X032617Y012916D02*
X015393Y012916D01*
X015393Y013014D02*
X032658Y013014D01*
X032699Y013113D02*
X015393Y013113D01*
X015393Y013211D02*
X032793Y013211D01*
X032891Y013310D02*
X015393Y013310D01*
X015393Y013408D02*
X033120Y013408D01*
X033467Y013408D02*
X040620Y013408D01*
X040391Y013310D02*
X033695Y013310D01*
X033794Y013211D02*
X040293Y013211D01*
X035769Y011340D02*
X020526Y011340D01*
X020485Y011241D02*
X035631Y011241D01*
X035576Y011143D02*
X020407Y011143D01*
X016206Y011537D02*
X015393Y011537D01*
X015393Y011635D02*
X016106Y011635D01*
X016065Y011734D02*
X015393Y011734D01*
X015393Y011832D02*
X016055Y011832D01*
X016071Y011931D02*
X015393Y011931D01*
X015393Y012029D02*
X016119Y012029D01*
X015393Y010847D02*
X035601Y010847D01*
X035599Y010749D02*
X015393Y010749D01*
X015393Y010650D02*
X035558Y010650D01*
X035555Y010552D02*
X028003Y010552D01*
X028102Y010453D02*
X035578Y010453D01*
X035636Y010355D02*
X028156Y010355D01*
X028193Y010256D02*
X035582Y010256D01*
X035555Y010158D02*
X028193Y010158D01*
X028182Y010059D02*
X035555Y010059D01*
X035595Y009961D02*
X028142Y009961D01*
X028067Y009862D02*
X035605Y009862D01*
X033704Y007301D02*
X040383Y007301D01*
X040284Y007203D02*
X033802Y007203D01*
X033891Y007104D02*
X040195Y007104D01*
X040155Y007006D02*
X033932Y007006D01*
X033973Y006907D02*
X040114Y006907D01*
X040096Y006809D02*
X033991Y006809D01*
X033991Y006710D02*
X040096Y006710D01*
X040096Y006612D02*
X033991Y006612D01*
X033960Y006513D02*
X040126Y006513D01*
X040167Y006415D02*
X033920Y006415D01*
X033871Y006316D02*
X040216Y006316D01*
X040314Y006218D02*
X033772Y006218D01*
X033653Y006119D02*
X040434Y006119D01*
X040599Y007400D02*
X033488Y007400D01*
X032390Y015083D02*
X016831Y015083D01*
X016831Y015181D02*
X032306Y015181D01*
X032265Y015280D02*
X016795Y015280D01*
X016718Y015378D02*
X032257Y015378D01*
X032267Y015477D02*
X015456Y015477D01*
X015393Y015378D02*
X016268Y015378D01*
X016191Y015280D02*
X015393Y015280D01*
X015393Y015181D02*
X016155Y015181D01*
X016155Y015083D02*
X015393Y015083D01*
X015393Y014984D02*
X016186Y014984D01*
X016255Y014886D02*
X015393Y014886D01*
X015393Y014590D02*
X055993Y014590D01*
X055993Y014492D02*
X015393Y014492D01*
X015393Y014393D02*
X055993Y014393D01*
X055993Y014295D02*
X015393Y014295D01*
X015393Y014196D02*
X055993Y014196D01*
X055993Y014098D02*
X015393Y014098D01*
X015393Y013999D02*
X055993Y013999D01*
X055993Y013901D02*
X015393Y013901D01*
X015193Y015477D02*
X013588Y015477D01*
X013605Y015483D02*
X013685Y015564D01*
X013728Y015668D01*
X013728Y015782D01*
X013685Y015886D01*
X013605Y015967D01*
X013500Y016010D01*
X013387Y016010D01*
X013282Y015967D01*
X013202Y015886D01*
X013158Y015782D01*
X013158Y015668D01*
X013202Y015564D01*
X013282Y015483D01*
X013387Y015440D01*
X013500Y015440D01*
X013605Y015483D01*
X013690Y015575D02*
X015213Y015575D01*
X015312Y015674D02*
X013728Y015674D01*
X013728Y015772D02*
X015410Y015772D01*
X015509Y015871D02*
X013692Y015871D01*
X013599Y015969D02*
X015607Y015969D01*
X015752Y015772D02*
X018109Y015772D01*
X018069Y015871D02*
X015850Y015871D01*
X015949Y015969D02*
X018057Y015969D01*
X018064Y016068D02*
X016047Y016068D01*
X016146Y016166D02*
X018104Y016166D01*
X018199Y015674D02*
X015653Y015674D01*
X015555Y015575D02*
X032308Y015575D01*
X028657Y022963D02*
X028193Y022963D01*
X028193Y023061D02*
X028747Y023061D01*
X028926Y023160D02*
X028193Y023160D01*
X029493Y024425D02*
X029493Y024425D01*
X030573Y025721D02*
X055993Y025721D01*
X055993Y025819D02*
X030573Y025819D01*
X028163Y028085D02*
X026106Y028085D01*
X026164Y028183D02*
X028163Y028183D01*
X028163Y028282D02*
X026178Y028282D01*
X026158Y028380D02*
X028163Y028380D01*
X023117Y034980D02*
X021786Y034980D01*
X021779Y034973D02*
X021896Y035089D01*
X021959Y035242D01*
X021959Y035408D01*
X021896Y035561D01*
X021779Y035677D01*
X021626Y035741D01*
X021461Y035741D01*
X021308Y035677D01*
X021191Y035561D01*
X021128Y035408D01*
X021128Y035242D01*
X021191Y035089D01*
X021308Y034973D01*
X021461Y034909D01*
X021626Y034909D01*
X021779Y034973D01*
X021884Y035078D02*
X023113Y035078D01*
X023120Y035177D02*
X021932Y035177D01*
X021959Y035275D02*
X023161Y035275D01*
X023234Y035374D02*
X021959Y035374D01*
X021932Y035472D02*
X023378Y035472D01*
X023350Y036140D02*
X023455Y036183D01*
X023535Y036264D01*
X023578Y036368D01*
X023578Y036482D01*
X023535Y036586D01*
X023455Y036667D01*
X023350Y036710D01*
X023237Y036710D01*
X023132Y036667D01*
X023052Y036586D01*
X023008Y036482D01*
X023008Y036368D01*
X023052Y036264D01*
X023132Y036183D01*
X023237Y036140D01*
X023350Y036140D01*
X023402Y036162D02*
X055774Y036162D01*
X055675Y036260D02*
X023531Y036260D01*
X023574Y036359D02*
X031477Y036359D01*
X031378Y036457D02*
X023578Y036457D01*
X023548Y036556D02*
X031280Y036556D01*
X031181Y036654D02*
X030975Y036654D01*
X031051Y036753D02*
X031083Y036753D01*
X030611Y036654D02*
X023467Y036654D01*
X023119Y036654D02*
X019975Y036654D01*
X020051Y036753D02*
X030536Y036753D01*
X030508Y036851D02*
X020078Y036851D01*
X020071Y036950D02*
X030516Y036950D01*
X023185Y036162D02*
X017843Y036162D01*
X017843Y036260D02*
X023055Y036260D01*
X023012Y036359D02*
X017843Y036359D01*
X017843Y036457D02*
X023008Y036457D01*
X023039Y036556D02*
X017843Y036556D01*
X017843Y036654D02*
X019611Y036654D01*
X019536Y036753D02*
X017843Y036753D01*
X017843Y036851D02*
X019508Y036851D01*
X019516Y036950D02*
X017843Y036950D01*
X017843Y036063D02*
X055872Y036063D01*
X055971Y035965D02*
X017843Y035965D01*
X019787Y035669D02*
X020299Y035669D01*
X020308Y035677D02*
X020191Y035561D01*
X020128Y035408D01*
X020128Y035242D01*
X020191Y035089D01*
X020308Y034973D01*
X020461Y034909D01*
X020626Y034909D01*
X020779Y034973D01*
X020896Y035089D01*
X020959Y035242D01*
X020959Y035408D01*
X020896Y035561D01*
X020779Y035677D01*
X020626Y035741D01*
X020461Y035741D01*
X020308Y035677D01*
X020201Y035571D02*
X019886Y035571D01*
X019932Y035472D02*
X020154Y035472D01*
X020128Y035374D02*
X019959Y035374D01*
X019959Y035275D02*
X020128Y035275D01*
X020155Y035177D02*
X019932Y035177D01*
X019884Y035078D02*
X020202Y035078D01*
X020301Y034980D02*
X019786Y034980D01*
X020786Y034980D02*
X021301Y034980D01*
X021202Y035078D02*
X020884Y035078D01*
X020932Y035177D02*
X021155Y035177D01*
X021128Y035275D02*
X020959Y035275D01*
X020959Y035374D02*
X021128Y035374D01*
X021154Y035472D02*
X020932Y035472D01*
X020886Y035571D02*
X021201Y035571D01*
X021299Y035669D02*
X020787Y035669D01*
X021787Y035669D02*
X055993Y035669D01*
X055993Y035571D02*
X021886Y035571D01*
X038604Y032517D02*
X055993Y032517D01*
X055993Y032419D02*
X038663Y032419D01*
X038678Y032320D02*
X055993Y032320D01*
X055993Y032222D02*
X038659Y032222D01*
X023154Y017939D02*
X023132Y017939D01*
X022754Y017939D02*
X012310Y017939D01*
X012151Y017841D02*
X022683Y017841D01*
X023045Y016659D02*
X023242Y016659D01*
X013288Y015969D02*
X011949Y015969D01*
X012042Y015871D02*
X013195Y015871D01*
X013158Y015772D02*
X012078Y015772D01*
X012078Y015674D02*
X013158Y015674D01*
X013197Y015575D02*
X012040Y015575D01*
X011938Y015477D02*
X013298Y015477D01*
X045061Y009764D02*
X051098Y009764D01*
X051196Y009665D02*
X045255Y009665D01*
X045354Y009567D02*
X051392Y009567D01*
X051553Y008877D02*
X045593Y008877D01*
X045593Y008976D02*
X055993Y008976D01*
X055993Y009074D02*
X045593Y009074D01*
X045582Y009173D02*
X055993Y009173D01*
X055993Y009271D02*
X045541Y009271D01*
X045500Y009370D02*
X055993Y009370D01*
X055993Y009468D02*
X045452Y009468D01*
X045582Y008779D02*
X051315Y008779D01*
X051213Y008680D02*
X045541Y008680D01*
X049873Y012128D02*
X055993Y012128D01*
X055993Y012226D02*
X050019Y012226D01*
X050117Y012325D02*
X055993Y012325D01*
X055993Y012423D02*
X050211Y012423D01*
X050252Y012522D02*
X055993Y012522D01*
X055993Y012620D02*
X050292Y012620D01*
X050333Y012719D02*
X055993Y012719D01*
X055993Y012817D02*
X050344Y012817D01*
X050344Y012916D02*
X055993Y012916D01*
X055993Y013014D02*
X050344Y013014D01*
X050341Y013113D02*
X055993Y013113D01*
X055993Y013211D02*
X050300Y013211D01*
X050259Y013310D02*
X055993Y013310D01*
X055993Y013408D02*
X050219Y013408D01*
X050136Y013507D02*
X055993Y013507D01*
X055993Y013605D02*
X050038Y013605D01*
X049919Y013704D02*
X055993Y013704D01*
X055993Y013802D02*
X049681Y013802D01*
X053891Y008483D02*
X055993Y008483D01*
X055993Y008385D02*
X054071Y008385D01*
X054169Y008286D02*
X055993Y008286D01*
X055993Y008188D02*
X054268Y008188D01*
X054311Y008089D02*
X055993Y008089D01*
X055993Y007991D02*
X054352Y007991D01*
X054393Y007892D02*
X055993Y007892D01*
X055993Y007794D02*
X054403Y007794D01*
X054403Y007695D02*
X055993Y007695D01*
X055993Y007597D02*
X054403Y007597D01*
X054393Y007498D02*
X055993Y007498D01*
X055993Y007400D02*
X054352Y007400D01*
X054311Y007301D02*
X055993Y007301D01*
X055993Y007203D02*
X054268Y007203D01*
X054169Y007104D02*
X055993Y007104D01*
X055993Y007006D02*
X054071Y007006D01*
D19*
X046793Y008375D03*
X045843Y008375D03*
X045793Y014625D03*
X045293Y014625D03*
X044793Y014625D03*
X044293Y014625D03*
X043793Y014625D03*
X043793Y015125D03*
X043793Y015625D03*
X043793Y016125D03*
X043793Y016625D03*
X043793Y017125D03*
X043793Y017625D03*
X043793Y018125D03*
X044293Y018125D03*
X044293Y017625D03*
X044293Y017125D03*
X044293Y016625D03*
X044293Y016125D03*
X044293Y015625D03*
X044293Y015125D03*
X044793Y015125D03*
X044793Y015625D03*
X044793Y016125D03*
X044793Y016625D03*
X044793Y017125D03*
X044793Y017625D03*
X044793Y018125D03*
X044793Y018625D03*
X044293Y018625D03*
X044293Y019125D03*
X044293Y019625D03*
X044793Y019625D03*
X044793Y019125D03*
X045293Y019125D03*
X045293Y018625D03*
X045293Y018125D03*
X045293Y017625D03*
X045293Y017125D03*
X045293Y016625D03*
X045293Y016125D03*
X045293Y015625D03*
X045293Y015125D03*
X045793Y015125D03*
X045793Y015625D03*
X045793Y016125D03*
X045793Y016625D03*
X045793Y017125D03*
X045793Y017625D03*
X045793Y018125D03*
X045793Y018625D03*
X045793Y019125D03*
X045793Y019625D03*
X045293Y019625D03*
X045293Y020125D03*
X044793Y020125D03*
X045793Y020125D03*
X046293Y020125D03*
X046293Y019625D03*
X046293Y019125D03*
X046293Y018625D03*
X046293Y018125D03*
X046293Y017625D03*
X046293Y017125D03*
X046293Y016625D03*
X046293Y016125D03*
X046293Y015625D03*
X046293Y015125D03*
X046293Y014625D03*
X046793Y014625D03*
X046793Y015125D03*
X046793Y015625D03*
X046793Y016125D03*
X046793Y016625D03*
X046793Y017125D03*
X046793Y017625D03*
X046793Y018125D03*
X046793Y018625D03*
X046793Y019125D03*
X046793Y019625D03*
X046793Y020125D03*
X046793Y020625D03*
X046293Y020625D03*
X046293Y021125D03*
X046793Y021125D03*
X046793Y021625D03*
X047293Y021625D03*
X047293Y021125D03*
X047293Y020625D03*
X047293Y020125D03*
X047293Y019625D03*
X047293Y019125D03*
X047293Y018625D03*
X047293Y018125D03*
X047293Y017625D03*
X047293Y017125D03*
X047293Y016625D03*
X047293Y016125D03*
X047293Y015625D03*
X047293Y015125D03*
X047293Y014625D03*
X047793Y014625D03*
X047793Y015125D03*
X047793Y015625D03*
X047793Y016125D03*
X047793Y016625D03*
X047793Y017125D03*
X047793Y017625D03*
X047793Y018125D03*
X047793Y018625D03*
X047793Y019125D03*
X047793Y019625D03*
X047793Y020125D03*
X047793Y020625D03*
X047793Y021125D03*
X047793Y021625D03*
X047793Y022125D03*
X047293Y022125D03*
X048293Y022125D03*
X048293Y021625D03*
X048293Y021125D03*
X048293Y020625D03*
X048293Y020125D03*
X048293Y019625D03*
X048293Y019125D03*
X048293Y018625D03*
X048293Y018125D03*
X048293Y017625D03*
X048293Y017125D03*
X048293Y016625D03*
X048293Y016125D03*
X048293Y015625D03*
X048293Y015125D03*
X048293Y014625D03*
X048793Y014625D03*
X048793Y015125D03*
X048793Y015625D03*
X048793Y016125D03*
X048793Y016625D03*
X048793Y017125D03*
X048793Y017625D03*
X048793Y018125D03*
X048793Y018625D03*
X048793Y019125D03*
X048793Y019625D03*
X048793Y020125D03*
X048793Y020625D03*
X048793Y021125D03*
X048793Y021625D03*
X048793Y022125D03*
X049293Y022125D03*
X049293Y021625D03*
X049293Y021125D03*
X049293Y020625D03*
X049293Y020125D03*
X049293Y019625D03*
X049293Y019125D03*
X049293Y018625D03*
X049293Y018125D03*
X049293Y017625D03*
X049293Y017125D03*
X049293Y016625D03*
X049293Y016125D03*
X049293Y015625D03*
X049293Y015125D03*
X049293Y014625D03*
X049793Y014625D03*
X049793Y015125D03*
X049793Y015625D03*
X049793Y016125D03*
X049793Y016625D03*
X049793Y017125D03*
X049793Y017625D03*
X049793Y018125D03*
X049793Y018625D03*
X049793Y019125D03*
X049793Y019625D03*
X049793Y020125D03*
X049793Y020625D03*
X049793Y021125D03*
X049793Y021625D03*
X049793Y022125D03*
X050293Y022125D03*
X050293Y021625D03*
X050293Y021125D03*
X050293Y020625D03*
X050293Y020125D03*
X050293Y019625D03*
X050293Y019125D03*
X050293Y018625D03*
X050293Y018125D03*
X050293Y017625D03*
X050293Y017125D03*
X050293Y016625D03*
X050293Y016125D03*
X050293Y015625D03*
X050293Y015125D03*
X050293Y014625D03*
X050793Y014625D03*
X050793Y015125D03*
X050793Y015625D03*
X050793Y016125D03*
X050793Y016625D03*
X050793Y017125D03*
X050793Y017625D03*
X050793Y018125D03*
X050793Y018625D03*
X050793Y019125D03*
X050793Y019625D03*
X050793Y020125D03*
X050793Y020625D03*
X050793Y021125D03*
X050793Y021625D03*
X050793Y022125D03*
X051293Y022125D03*
X051293Y021625D03*
X051293Y021125D03*
X051293Y020625D03*
X051293Y020125D03*
X051293Y019625D03*
X051293Y019125D03*
X051293Y018625D03*
X051293Y018125D03*
X051293Y017625D03*
X051293Y017125D03*
X051293Y016625D03*
X051293Y016125D03*
X051293Y015625D03*
X051293Y015125D03*
X051293Y014625D03*
X044743Y021075D03*
X044793Y021575D03*
X045243Y021575D03*
X044293Y021875D03*
X043993Y022225D03*
X042543Y022525D03*
X042543Y023325D03*
X043993Y023625D03*
X044093Y024025D03*
X044793Y024925D03*
X045693Y024775D03*
X045793Y023875D03*
X047193Y023875D03*
X047893Y024775D03*
X044793Y026475D03*
X044293Y026475D03*
X043793Y026475D03*
X043293Y026475D03*
X042793Y026475D03*
X042293Y026475D03*
X041793Y026475D03*
X041793Y026975D03*
X041793Y027475D03*
X041793Y027975D03*
X041793Y028475D03*
X041793Y028975D03*
X041793Y029475D03*
X041793Y029975D03*
X042293Y029975D03*
X042293Y029475D03*
X042293Y028975D03*
X042293Y028475D03*
X042293Y027975D03*
X042293Y027475D03*
X042293Y026975D03*
X042793Y026975D03*
X042793Y027475D03*
X042793Y027975D03*
X042793Y028475D03*
X042793Y028975D03*
X042793Y029475D03*
X042793Y029975D03*
X043293Y029975D03*
X043293Y029475D03*
X043293Y028975D03*
X043293Y028475D03*
X043293Y027975D03*
X043293Y027475D03*
X043293Y026975D03*
X043793Y026975D03*
X043793Y027475D03*
X043793Y027975D03*
X043793Y028475D03*
X043793Y028975D03*
X043793Y029475D03*
X043793Y029975D03*
X044293Y029975D03*
X044293Y029475D03*
X044293Y028975D03*
X044293Y028475D03*
X044293Y027975D03*
X044293Y027475D03*
X044293Y026975D03*
X044793Y026975D03*
X044793Y027475D03*
X044793Y027975D03*
X044793Y028475D03*
X044793Y028975D03*
X044793Y029475D03*
X044793Y029975D03*
X044593Y031025D03*
X038793Y029575D03*
X037443Y029025D03*
X037343Y030775D03*
X038393Y032325D03*
X035093Y031175D03*
X033743Y030075D03*
X033343Y030325D03*
X032693Y029475D03*
X034643Y029375D03*
X035093Y028275D03*
X031943Y026125D03*
X032243Y024025D03*
X031693Y023575D03*
X031693Y022775D03*
X032193Y022325D03*
X033043Y022325D03*
X033343Y021475D03*
X032943Y020825D03*
X034943Y020175D03*
X035593Y021425D03*
X037393Y023825D03*
X038193Y024025D03*
X038193Y023175D03*
X038693Y022825D03*
X038743Y021725D03*
X039443Y021525D03*
X040143Y021525D03*
X039843Y020725D03*
X040143Y018475D03*
X039743Y018425D03*
X038843Y018325D03*
X038293Y018775D03*
X037493Y018675D03*
X038843Y017525D03*
X038293Y017075D03*
X038393Y016725D03*
X038943Y016325D03*
X038943Y015425D03*
X038393Y015025D03*
X037593Y015125D03*
X037593Y016625D03*
X037493Y017175D03*
X034943Y017225D03*
X034393Y017425D03*
X040793Y018475D03*
X042543Y021125D03*
X043593Y020375D03*
X039843Y023425D03*
X038743Y025375D03*
X035593Y024375D03*
X033043Y023825D03*
X025893Y028275D03*
X023993Y029025D03*
X022193Y030225D03*
X020393Y030025D03*
X020393Y029325D03*
X019443Y029025D03*
X018143Y028725D03*
X018143Y027875D03*
X018693Y027425D03*
X019393Y027425D03*
X022201Y032825D03*
X023293Y035875D03*
X023293Y036425D03*
X019793Y036875D03*
X016343Y036425D03*
X015993Y036125D03*
X013943Y035875D03*
X013943Y036425D03*
X028843Y032875D03*
X030793Y036875D03*
X012093Y018125D03*
X013443Y017225D03*
X013443Y015725D03*
X011793Y015725D03*
X011693Y014125D03*
X011693Y013075D03*
X017293Y009875D03*
X022943Y016925D03*
X022943Y017325D03*
X022943Y017725D03*
X023343Y017725D03*
X023343Y017325D03*
X023343Y016925D03*
D20*
X018443Y015975D03*
X020143Y011425D03*
X029943Y019775D03*
X031443Y018925D03*
X032643Y015375D03*
D21*
X035593Y021425D02*
X035593Y024375D01*
D22*
X021643Y027775D03*
X011793Y017425D03*
X016493Y015125D03*
X016393Y011825D03*
X035893Y011025D03*
X035893Y010575D03*
X035893Y010125D03*
X035893Y009675D03*
X036343Y009675D03*
X036793Y009675D03*
X037243Y009675D03*
X037693Y009675D03*
X038143Y009675D03*
X038143Y010125D03*
X038143Y010575D03*
X038143Y011025D03*
D23*
X036993Y006925D03*
X043943Y006775D03*
D24*
X048793Y024825D03*
X048393Y031025D03*
X050793Y031025D03*
D25*
X031443Y018925D02*
X030443Y018925D01*
X029893Y018375D01*
X029893Y016225D01*
X029643Y015975D01*
X018443Y015975D01*
D26*
X045993Y012925D03*
X049443Y012925D03*
D27*
X028393Y022225D03*
D28*
X020193Y028825D03*
X045443Y023275D03*
X046143Y022925D03*
M02*
