G75*
G70*
%OFA0B0*%
%FSLAX24Y24*%
%IPPOS*%
%LPD*%
%AMOC8*
5,1,8,0,0,1.08239X$1,22.5*
%
%ADD10C,0.1340*%
%ADD11C,0.0730*%
%ADD12OC8,0.0600*%
%ADD13C,0.0867*%
%ADD14C,0.0634*%
%ADD15C,0.0600*%
%ADD16C,0.0600*%
%ADD17C,0.0640*%
%ADD18OC8,0.0640*%
%ADD19OC8,0.0595*%
%ADD20C,0.0595*%
%ADD21OC8,0.0860*%
%ADD22OC8,0.0730*%
%ADD23R,0.0730X0.0730*%
%ADD24C,0.0740*%
%ADD25C,0.1380*%
%ADD26OC8,0.0930*%
%ADD27R,0.1025X0.1025*%
%ADD28C,0.0390*%
%ADD29R,0.0476X0.0476*%
%ADD30C,0.0580*%
%ADD31R,0.0611X0.0611*%
%ADD32OC8,0.0611*%
D10*
X002081Y002081D03*
X002081Y030331D03*
X050331Y030331D03*
X050331Y002081D03*
D11*
X029081Y007435D02*
X029081Y008085D01*
X029081Y020215D02*
X029081Y020865D01*
D12*
X020706Y021331D03*
X020706Y018331D03*
X020706Y017081D03*
X020706Y014081D03*
X020706Y012831D03*
X018706Y012331D03*
X018706Y010331D03*
X020706Y009831D03*
X014206Y014831D03*
X013206Y014831D03*
X011206Y014831D03*
X009206Y014831D03*
X009206Y016831D03*
X011206Y016831D03*
X012206Y016831D03*
X015206Y016831D03*
X011206Y012831D03*
X009206Y012831D03*
X009206Y009831D03*
X011206Y009831D03*
X028706Y005831D03*
X029706Y005831D03*
X033706Y008206D03*
X035706Y008206D03*
X037206Y010706D03*
X037206Y011706D03*
X040706Y006706D03*
X043706Y006706D03*
X044706Y004456D03*
X045706Y004456D03*
D13*
X026206Y005706D03*
X022206Y005706D03*
X019206Y005706D03*
X015206Y005706D03*
X012206Y005706D03*
X008206Y005706D03*
X039956Y026781D03*
X043956Y026781D03*
D14*
X041956Y024781D03*
X040956Y024781D03*
X025206Y007706D03*
X024206Y007706D03*
X018206Y007706D03*
X017206Y007706D03*
X011206Y007706D03*
X010206Y007706D03*
D15*
X005512Y014456D02*
X004992Y014456D01*
X004512Y015456D02*
X003992Y015456D01*
X004992Y016456D02*
X005512Y016456D01*
X005512Y018581D02*
X004992Y018581D01*
X004512Y019581D02*
X003992Y019581D01*
X004992Y020581D02*
X005512Y020581D01*
X005512Y022831D02*
X004992Y022831D01*
X004512Y023831D02*
X003992Y023831D01*
X004992Y024831D02*
X005512Y024831D01*
X012706Y022091D02*
X012706Y021571D01*
X013706Y021571D02*
X013706Y022091D01*
X014706Y022091D02*
X014706Y021571D01*
X015706Y021571D02*
X015706Y022091D01*
X016706Y022091D02*
X016706Y021571D01*
X017706Y021571D02*
X017706Y022091D01*
X018706Y022091D02*
X018706Y021571D01*
X018706Y019091D02*
X018706Y018571D01*
X017706Y018571D02*
X017706Y019091D01*
X016706Y019091D02*
X016706Y018571D01*
X015706Y018571D02*
X015706Y019091D01*
X014706Y019091D02*
X014706Y018571D01*
X013706Y018571D02*
X013706Y019091D01*
X012706Y019091D02*
X012706Y018571D01*
X047024Y022706D02*
X047544Y022706D01*
X048024Y023706D02*
X048544Y023706D01*
X047544Y024706D02*
X047024Y024706D01*
D16*
X016706Y012831D03*
X015706Y012831D03*
X014706Y012831D03*
X013706Y012831D03*
X013706Y009831D03*
X014706Y009831D03*
X015706Y009831D03*
X016706Y009831D03*
D17*
X022581Y009801D02*
X022581Y010361D01*
X023581Y010361D02*
X023581Y009801D01*
X023581Y012051D02*
X023581Y012611D01*
X022581Y012611D02*
X022581Y012051D01*
X022581Y014426D02*
X022581Y014986D01*
X023581Y014986D02*
X023581Y014426D01*
X044426Y016581D02*
X044986Y016581D01*
X044986Y017581D02*
X044426Y017581D01*
D18*
X047206Y027206D03*
X048206Y027206D03*
X048206Y028206D03*
X047206Y028206D03*
X026456Y015581D03*
X025456Y015581D03*
X025456Y014581D03*
X026456Y014581D03*
X026456Y013581D03*
X025456Y013581D03*
X025456Y011956D03*
X026456Y011956D03*
X026456Y010956D03*
X025456Y010956D03*
X025456Y009956D03*
X026456Y009956D03*
X047206Y005206D03*
X048206Y005206D03*
X048206Y004206D03*
X047206Y004206D03*
X005206Y004206D03*
X004206Y004206D03*
X004206Y005206D03*
X005206Y005206D03*
X005206Y027206D03*
X004206Y027206D03*
X004206Y028206D03*
X005206Y028206D03*
D19*
X032206Y005706D03*
X032206Y004706D03*
X032206Y003706D03*
X034206Y003706D03*
X034206Y004706D03*
X034206Y005706D03*
X039456Y003706D03*
X040456Y003706D03*
X041456Y003706D03*
D20*
X041456Y001706D03*
X039456Y001706D03*
X034206Y001706D03*
X032206Y001706D03*
D21*
X031956Y024831D03*
X027956Y024831D03*
X023956Y024831D03*
X023956Y028831D03*
X027956Y028831D03*
X031956Y028831D03*
X035956Y028831D03*
X035956Y024831D03*
X015706Y024831D03*
X011706Y024831D03*
X011706Y028831D03*
X015706Y028831D03*
D22*
X018331Y027456D03*
X019331Y027456D03*
X020331Y027456D03*
X007706Y027331D03*
X004956Y010581D03*
X004956Y009581D03*
X004956Y008581D03*
X004956Y007581D03*
X047581Y019081D03*
X047581Y020081D03*
D23*
X047581Y018081D03*
X021331Y027456D03*
X008706Y027331D03*
X004956Y011581D03*
D24*
X033581Y014376D02*
X033581Y015036D01*
X034581Y015036D02*
X034581Y014376D01*
X035581Y014376D02*
X035581Y015036D01*
X041206Y016376D02*
X041206Y017036D01*
X042206Y017036D02*
X042206Y016376D01*
X043206Y016376D02*
X043206Y017036D01*
D25*
X034581Y021606D03*
X042206Y009806D03*
D26*
X029206Y003606D03*
D27*
X009696Y019206D03*
X008356Y019206D03*
X008356Y024506D03*
X009696Y024506D03*
D28*
X008331Y023081D03*
X007581Y022331D03*
X011581Y019331D03*
X011581Y018581D03*
X013331Y017831D03*
X014331Y019581D03*
X017081Y017581D03*
X015831Y016331D03*
X019581Y019081D03*
X018831Y020581D03*
X023081Y021831D03*
X024331Y019831D03*
X024081Y019331D03*
X023081Y016581D03*
X027081Y016081D03*
X031331Y016581D03*
X033331Y016581D03*
X034331Y016331D03*
X035581Y018081D03*
X036831Y017831D03*
X032831Y018081D03*
X034831Y013081D03*
X033581Y009081D03*
X030081Y006581D03*
X031831Y006331D03*
X030831Y005331D03*
X030581Y004331D03*
X031081Y003081D03*
X027831Y006831D03*
X028331Y008331D03*
X027581Y010331D03*
X024331Y008831D03*
X023581Y011081D03*
X019331Y009331D03*
X021331Y006581D03*
X024331Y005331D03*
X015581Y003831D03*
X015081Y011581D03*
X011831Y011581D03*
X024581Y024331D03*
X019831Y026831D03*
X030581Y025331D03*
X036331Y028081D03*
X039581Y024581D03*
X045331Y015831D03*
X044081Y009581D03*
D29*
X044081Y008331D03*
X037831Y006331D03*
X040831Y003081D03*
X038581Y002831D03*
D30*
X039706Y018581D03*
X040706Y018581D03*
X041706Y018581D03*
X042706Y018581D03*
X043706Y018581D03*
X043706Y019581D03*
X042706Y019581D03*
X041706Y019581D03*
X040706Y019581D03*
X039706Y019581D03*
X039706Y020581D03*
X040706Y020581D03*
X041706Y020581D03*
X042706Y020581D03*
X043706Y020581D03*
X043706Y021581D03*
X044706Y021581D03*
X044706Y022581D03*
X043706Y022581D03*
X042706Y022581D03*
X041706Y022581D03*
X040706Y022581D03*
X039706Y022581D03*
X039706Y023581D03*
X040706Y023581D03*
X041706Y023581D03*
X042706Y023581D03*
X043706Y023581D03*
X044706Y023581D03*
X042706Y021581D03*
X041706Y021581D03*
X040706Y021581D03*
X039706Y021581D03*
D31*
X038706Y021581D03*
X038706Y022581D03*
X038706Y023581D03*
X038706Y020581D03*
X038706Y019581D03*
X038706Y018581D03*
D32*
X044706Y018581D03*
X044706Y019581D03*
X044706Y020581D03*
M02*
