G04 EAGLE Gerber RS-274X export*
G75*
%MOMM*%
%FSLAX34Y34*%
%LPD*%
%INSoldermask Top*%
%IPPOS*%
%AMOC8*
5,1,8,0,0,1.08239X$1,22.5*%
G01*
%ADD10C,11.801600*%
%ADD11C,5.101600*%
%ADD12C,6.851600*%
%ADD13C,3.101600*%
%ADD14R,30.708600X0.025400*%
%ADD15R,30.683200X0.025400*%
%ADD16R,30.657800X0.025400*%
%ADD17R,30.607000X0.025400*%
%ADD18R,30.581600X0.025400*%
%ADD19R,30.556200X0.025400*%
%ADD20R,30.530800X0.025400*%
%ADD21R,30.480000X0.025400*%
%ADD22R,30.454600X0.025400*%
%ADD23R,30.429200X0.025400*%
%ADD24R,30.403800X0.025400*%
%ADD25R,30.353000X0.025400*%
%ADD26R,30.327600X0.025400*%
%ADD27R,30.302200X0.025400*%
%ADD28R,30.276800X0.025400*%
%ADD29R,30.251400X0.025400*%
%ADD30R,30.200600X0.025400*%
%ADD31R,30.175200X0.025400*%
%ADD32R,30.149800X0.025400*%
%ADD33R,30.124400X0.025400*%
%ADD34R,30.099000X0.025400*%
%ADD35R,30.048200X0.025400*%
%ADD36R,30.022800X0.025400*%
%ADD37R,29.997400X0.025400*%
%ADD38R,29.972000X0.025400*%
%ADD39R,29.946600X0.025400*%
%ADD40R,29.895800X0.025400*%
%ADD41R,29.870400X0.025400*%
%ADD42R,29.845000X0.025400*%
%ADD43R,29.819600X0.025400*%
%ADD44R,29.794200X0.025400*%
%ADD45R,29.743400X0.025400*%
%ADD46R,29.718000X0.025400*%
%ADD47R,29.692600X0.025400*%
%ADD48R,29.667200X0.025400*%
%ADD49R,29.641800X0.025400*%
%ADD50R,29.591000X0.025400*%
%ADD51R,29.565600X0.025400*%
%ADD52R,29.540200X0.025400*%
%ADD53R,29.514800X0.025400*%
%ADD54R,29.464000X0.025400*%
%ADD55R,29.438600X0.025400*%
%ADD56R,29.413200X0.025400*%
%ADD57R,29.387800X0.025400*%
%ADD58R,29.362400X0.025400*%
%ADD59R,29.311600X0.025400*%
%ADD60R,29.286200X0.025400*%
%ADD61R,29.260800X0.025400*%
%ADD62R,29.235400X0.025400*%
%ADD63R,8.712200X0.025400*%
%ADD64R,3.733800X0.025400*%
%ADD65R,2.032000X0.025400*%
%ADD66R,4.419600X0.025400*%
%ADD67R,4.597400X0.025400*%
%ADD68R,4.445000X0.025400*%
%ADD69R,8.585200X0.025400*%
%ADD70R,3.581400X0.025400*%
%ADD71R,1.879600X0.025400*%
%ADD72R,4.267200X0.025400*%
%ADD73R,4.368800X0.025400*%
%ADD74R,4.343400X0.025400*%
%ADD75R,8.534400X0.025400*%
%ADD76R,3.505200X0.025400*%
%ADD77R,1.803400X0.025400*%
%ADD78R,0.889000X0.025400*%
%ADD79R,2.895600X0.025400*%
%ADD80R,0.914400X0.025400*%
%ADD81R,3.022600X0.025400*%
%ADD82R,3.200400X0.025400*%
%ADD83R,2.209800X0.025400*%
%ADD84R,2.260600X0.025400*%
%ADD85R,3.175000X0.025400*%
%ADD86R,1.727200X0.025400*%
%ADD87R,0.787400X0.025400*%
%ADD88R,1.066800X0.025400*%
%ADD89R,1.524000X0.025400*%
%ADD90R,1.778000X0.025400*%
%ADD91R,2.057400X0.025400*%
%ADD92R,0.812800X0.025400*%
%ADD93R,2.971800X0.025400*%
%ADD94R,3.073400X0.025400*%
%ADD95R,1.143000X0.025400*%
%ADD96R,0.711200X0.025400*%
%ADD97R,1.117600X0.025400*%
%ADD98R,0.939800X0.025400*%
%ADD99R,3.048000X0.025400*%
%ADD100R,1.676400X0.025400*%
%ADD101R,0.736600X0.025400*%
%ADD102R,1.346200X0.025400*%
%ADD103R,1.625600X0.025400*%
%ADD104R,1.092200X0.025400*%
%ADD105R,0.228600X0.025400*%
%ADD106R,0.685800X0.025400*%
%ADD107R,0.635000X0.025400*%
%ADD108R,0.990600X0.025400*%
%ADD109R,2.997200X0.025400*%
%ADD110R,1.270000X0.025400*%
%ADD111R,1.397000X0.025400*%
%ADD112R,0.965200X0.025400*%
%ADD113R,0.660400X0.025400*%
%ADD114R,2.819400X0.025400*%
%ADD115R,0.076200X0.025400*%
%ADD116R,0.482600X0.025400*%
%ADD117R,0.558800X0.025400*%
%ADD118R,0.863600X0.025400*%
%ADD119R,0.762000X0.025400*%
%ADD120R,2.921000X0.025400*%
%ADD121R,1.600200X0.025400*%
%ADD122R,1.193800X0.025400*%
%ADD123R,2.794000X0.025400*%
%ADD124R,2.870200X0.025400*%
%ADD125R,0.508000X0.025400*%
%ADD126R,0.152400X0.025400*%
%ADD127R,0.355600X0.025400*%
%ADD128R,1.549400X0.025400*%
%ADD129R,0.609600X0.025400*%
%ADD130R,0.177800X0.025400*%
%ADD131R,2.717800X0.025400*%
%ADD132R,0.457200X0.025400*%
%ADD133R,0.025400X0.025400*%
%ADD134R,2.844800X0.025400*%
%ADD135R,0.584200X0.025400*%
%ADD136R,0.050800X0.025400*%
%ADD137R,2.692400X0.025400*%
%ADD138R,0.406400X0.025400*%
%ADD139R,1.498600X0.025400*%
%ADD140R,0.533400X0.025400*%
%ADD141R,1.041400X0.025400*%
%ADD142R,2.641600X0.025400*%
%ADD143R,2.743200X0.025400*%
%ADD144R,0.381000X0.025400*%
%ADD145R,2.768600X0.025400*%
%ADD146R,1.473200X0.025400*%
%ADD147R,1.016000X0.025400*%
%ADD148R,2.590800X0.025400*%
%ADD149R,0.330200X0.025400*%
%ADD150R,1.422400X0.025400*%
%ADD151R,0.431800X0.025400*%
%ADD152R,2.565400X0.025400*%
%ADD153R,2.667000X0.025400*%
%ADD154R,2.540000X0.025400*%
%ADD155R,0.279400X0.025400*%
%ADD156R,2.514600X0.025400*%
%ADD157R,2.616200X0.025400*%
%ADD158R,1.371600X0.025400*%
%ADD159R,2.489200X0.025400*%
%ADD160R,0.254000X0.025400*%
%ADD161R,2.438400X0.025400*%
%ADD162R,0.304800X0.025400*%
%ADD163R,2.387600X0.025400*%
%ADD164R,1.320800X0.025400*%
%ADD165R,2.362200X0.025400*%
%ADD166R,2.336800X0.025400*%
%ADD167R,1.295400X0.025400*%
%ADD168R,2.311400X0.025400*%
%ADD169R,2.463800X0.025400*%
%ADD170R,1.219200X0.025400*%
%ADD171R,2.286000X0.025400*%
%ADD172R,1.168400X0.025400*%
%ADD173R,2.235200X0.025400*%
%ADD174R,2.413000X0.025400*%
%ADD175R,2.184400X0.025400*%
%ADD176R,0.203200X0.025400*%
%ADD177R,2.159000X0.025400*%
%ADD178R,2.133600X0.025400*%
%ADD179R,0.127000X0.025400*%
%ADD180R,0.101600X0.025400*%
%ADD181R,2.108200X0.025400*%
%ADD182R,0.838200X0.025400*%
%ADD183R,2.082800X0.025400*%
%ADD184R,1.447800X0.025400*%
%ADD185R,1.574800X0.025400*%
%ADD186R,2.006600X0.025400*%
%ADD187R,1.955800X0.025400*%
%ADD188R,1.651000X0.025400*%
%ADD189R,1.930400X0.025400*%
%ADD190R,1.905000X0.025400*%
%ADD191R,1.854200X0.025400*%
%ADD192R,1.752600X0.025400*%
%ADD193R,1.701800X0.025400*%
%ADD194R,1.981200X0.025400*%
%ADD195R,1.828800X0.025400*%
%ADD196R,1.244600X0.025400*%
%ADD197R,2.946400X0.025400*%
%ADD198R,3.429000X0.025400*%
%ADD199R,3.098800X0.025400*%
%ADD200R,3.606800X0.025400*%
%ADD201R,3.149600X0.025400*%
%ADD202R,3.276600X0.025400*%
%ADD203R,3.911600X0.025400*%
%ADD204R,6.400800X0.025400*%
%ADD205R,3.454400X0.025400*%
%ADD206R,9.118600X0.025400*%
%ADD207R,6.426200X0.025400*%
%ADD208R,9.194800X0.025400*%
%ADD209R,6.451600X0.025400*%
%ADD210R,3.556000X0.025400*%
%ADD211R,9.271000X0.025400*%
%ADD212R,6.527800X0.025400*%
%ADD213R,9.372600X0.025400*%
%ADD214R,24.892000X0.025400*%
%ADD215R,24.866600X0.025400*%
%ADD216R,24.815800X0.025400*%
%ADD217R,24.790400X0.025400*%
%ADD218R,24.765000X0.025400*%
%ADD219R,24.739600X0.025400*%
%ADD220R,24.714200X0.025400*%
%ADD221R,24.663400X0.025400*%
%ADD222R,24.638000X0.025400*%
%ADD223R,24.612600X0.025400*%
%ADD224R,24.587200X0.025400*%
%ADD225R,24.561800X0.025400*%
%ADD226R,24.511000X0.025400*%
%ADD227R,24.485600X0.025400*%
%ADD228R,24.460200X0.025400*%
%ADD229R,24.434800X0.025400*%
%ADD230R,24.384000X0.025400*%
%ADD231R,24.358600X0.025400*%
%ADD232R,24.333200X0.025400*%
%ADD233R,24.307800X0.025400*%
%ADD234R,24.282400X0.025400*%
%ADD235R,24.231600X0.025400*%
%ADD236R,24.206200X0.025400*%
%ADD237R,24.180800X0.025400*%
%ADD238R,24.155400X0.025400*%
%ADD239R,24.130000X0.025400*%
%ADD240R,24.079200X0.025400*%
%ADD241R,24.053800X0.025400*%
%ADD242R,24.028400X0.025400*%
%ADD243R,24.003000X0.025400*%
%ADD244R,23.952200X0.025400*%
%ADD245R,23.926800X0.025400*%
%ADD246R,23.901400X0.025400*%
%ADD247R,23.876000X0.025400*%
%ADD248R,23.850600X0.025400*%
%ADD249R,23.799800X0.025400*%
%ADD250R,23.774400X0.025400*%
%ADD251R,23.749000X0.025400*%
%ADD252R,23.723600X0.025400*%
%ADD253R,23.698200X0.025400*%
%ADD254R,23.647400X0.025400*%
%ADD255R,23.622000X0.025400*%
%ADD256R,23.596600X0.025400*%
%ADD257R,23.571200X0.025400*%
%ADD258R,23.545800X0.025400*%
%ADD259R,23.495000X0.025400*%
%ADD260R,5.232400X0.025400*%
%ADD261R,5.130800X0.025400*%
%ADD262R,9.880600X0.025400*%
%ADD263R,5.080000X0.025400*%
%ADD264R,5.003800X0.025400*%
%ADD265R,9.804400X0.025400*%
%ADD266R,4.978400X0.025400*%
%ADD267R,4.902200X0.025400*%
%ADD268R,5.384800X0.025400*%
%ADD269R,4.216400X0.025400*%
%ADD270R,4.876800X0.025400*%
%ADD271R,4.800600X0.025400*%
%ADD272R,4.140200X0.025400*%
%ADD273R,4.775200X0.025400*%
%ADD274R,4.699000X0.025400*%
%ADD275R,4.064000X0.025400*%
%ADD276R,4.648200X0.025400*%
%ADD277R,4.013200X0.025400*%
%ADD278R,4.089400X0.025400*%
%ADD279R,3.479800X0.025400*%
%ADD280R,3.378200X0.025400*%
%ADD281R,3.302000X0.025400*%
%ADD282R,5.181600X0.025400*%
%ADD283R,3.352800X0.025400*%
%ADD284R,14.605000X0.025400*%
%ADD285R,14.655800X0.025400*%
%ADD286R,4.241800X0.025400*%
%ADD287R,14.706600X0.025400*%
%ADD288R,19.075400X0.025400*%
%ADD289R,19.050000X0.025400*%
%ADD290R,18.999200X0.025400*%
%ADD291R,18.973800X0.025400*%
%ADD292R,18.948400X0.025400*%
%ADD293R,18.923000X0.025400*%
%ADD294R,18.897600X0.025400*%
%ADD295R,18.846800X0.025400*%
%ADD296R,18.821400X0.025400*%
%ADD297R,18.796000X0.025400*%
%ADD298R,18.770600X0.025400*%
%ADD299R,18.719800X0.025400*%
%ADD300R,18.694400X0.025400*%
%ADD301R,18.669000X0.025400*%
%ADD302R,18.643600X0.025400*%
%ADD303R,18.618200X0.025400*%
%ADD304R,18.567400X0.025400*%
%ADD305R,18.542000X0.025400*%
%ADD306R,18.516600X0.025400*%
%ADD307R,18.491200X0.025400*%
%ADD308R,18.465800X0.025400*%
%ADD309R,18.415000X0.025400*%
%ADD310R,18.389600X0.025400*%
%ADD311R,18.364200X0.025400*%
%ADD312R,18.338800X0.025400*%
%ADD313R,18.313400X0.025400*%
%ADD314R,18.262600X0.025400*%
%ADD315R,18.237200X0.025400*%
%ADD316R,18.211800X0.025400*%
%ADD317R,18.186400X0.025400*%
%ADD318R,18.135600X0.025400*%
%ADD319R,18.110200X0.025400*%
%ADD320R,18.084800X0.025400*%
%ADD321R,18.059400X0.025400*%
%ADD322R,18.034000X0.025400*%
%ADD323R,17.983200X0.025400*%
%ADD324R,17.957800X0.025400*%
%ADD325R,17.932400X0.025400*%
%ADD326R,17.907000X0.025400*%
%ADD327R,17.881600X0.025400*%
%ADD328R,17.830800X0.025400*%
%ADD329R,17.805400X0.025400*%
%ADD330R,17.780000X0.025400*%
%ADD331R,17.754600X0.025400*%
%ADD332R,17.729200X0.025400*%
%ADD333R,17.678400X0.025400*%
%ADD334R,17.653000X0.025400*%
%ADD335R,17.627600X0.025400*%
%ADD336R,17.602200X0.025400*%
%ADD337R,17.551400X0.025400*%
%ADD338R,17.526000X0.025400*%
%ADD339R,7.721600X0.025400*%
%ADD340R,7.467600X0.025400*%
%ADD341R,9.017000X0.025400*%
%ADD342R,7.340600X0.025400*%
%ADD343R,8.839200X0.025400*%
%ADD344R,7.213600X0.025400*%
%ADD345R,8.686800X0.025400*%
%ADD346R,7.086600X0.025400*%
%ADD347R,7.010400X0.025400*%
%ADD348R,8.458200X0.025400*%
%ADD349R,6.908800X0.025400*%
%ADD350R,8.356600X0.025400*%
%ADD351R,6.832600X0.025400*%
%ADD352R,8.255000X0.025400*%
%ADD353R,6.756400X0.025400*%
%ADD354R,8.153400X0.025400*%
%ADD355R,6.705600X0.025400*%
%ADD356R,8.077200X0.025400*%
%ADD357R,6.680200X0.025400*%
%ADD358R,7.975600X0.025400*%
%ADD359R,6.629400X0.025400*%
%ADD360R,7.899400X0.025400*%
%ADD361R,6.604000X0.025400*%
%ADD362R,7.797800X0.025400*%
%ADD363R,6.578600X0.025400*%
%ADD364R,7.645400X0.025400*%
%ADD365R,7.569200X0.025400*%
%ADD366R,6.553200X0.025400*%
%ADD367R,7.493000X0.025400*%
%ADD368R,7.416800X0.025400*%
%ADD369R,7.289800X0.025400*%
%ADD370R,7.162800X0.025400*%
%ADD371R,8.788400X0.025400*%
%ADD372R,8.864600X0.025400*%
%ADD373R,7.035800X0.025400*%
%ADD374R,8.890000X0.025400*%
%ADD375R,6.985000X0.025400*%
%ADD376R,8.966200X0.025400*%
%ADD377R,8.991600X0.025400*%
%ADD378R,6.883400X0.025400*%
%ADD379R,6.807200X0.025400*%
%ADD380R,9.067800X0.025400*%
%ADD381R,9.093200X0.025400*%
%ADD382R,9.144000X0.025400*%
%ADD383R,6.654800X0.025400*%
%ADD384R,9.169400X0.025400*%
%ADD385R,9.245600X0.025400*%
%ADD386R,6.477000X0.025400*%
%ADD387R,9.296400X0.025400*%
%ADD388R,9.321800X0.025400*%
%ADD389R,6.375400X0.025400*%
%ADD390R,6.350000X0.025400*%
%ADD391R,6.299200X0.025400*%
%ADD392R,8.737600X0.025400*%
%ADD393R,6.273800X0.025400*%
%ADD394R,8.559800X0.025400*%
%ADD395R,6.223000X0.025400*%
%ADD396R,8.407400X0.025400*%
%ADD397R,6.146800X0.025400*%
%ADD398R,8.280400X0.025400*%
%ADD399R,6.121400X0.025400*%
%ADD400R,8.178800X0.025400*%
%ADD401R,6.070600X0.025400*%
%ADD402R,6.045200X0.025400*%
%ADD403R,8.026400X0.025400*%
%ADD404R,5.969000X0.025400*%
%ADD405R,7.924800X0.025400*%
%ADD406R,5.867400X0.025400*%
%ADD407R,7.848600X0.025400*%
%ADD408R,5.791200X0.025400*%
%ADD409R,5.664200X0.025400*%
%ADD410R,5.588000X0.025400*%
%ADD411R,5.486400X0.025400*%
%ADD412R,7.594600X0.025400*%
%ADD413R,7.518400X0.025400*%
%ADD414R,5.308600X0.025400*%
%ADD415R,5.156200X0.025400*%
%ADD416R,5.054600X0.025400*%
%ADD417R,7.315200X0.025400*%
%ADD418R,7.264400X0.025400*%
%ADD419R,4.749800X0.025400*%
%ADD420R,7.112000X0.025400*%
%ADD421R,4.673600X0.025400*%
%ADD422R,5.029200X0.025400*%
%ADD423R,3.327400X0.025400*%
%ADD424R,4.953000X0.025400*%
%ADD425R,4.927600X0.025400*%
%ADD426R,3.251200X0.025400*%
%ADD427R,3.225800X0.025400*%
%ADD428R,3.124200X0.025400*%
%ADD429R,3.759200X0.025400*%
%ADD430R,3.632200X0.025400*%
%ADD431R,3.708400X0.025400*%
%ADD432R,3.683000X0.025400*%
%ADD433R,3.657600X0.025400*%
%ADD434R,3.784600X0.025400*%
%ADD435R,3.835400X0.025400*%
%ADD436R,3.886200X0.025400*%
%ADD437R,3.962400X0.025400*%
%ADD438R,3.987800X0.025400*%
%ADD439R,3.530600X0.025400*%
%ADD440R,4.114800X0.025400*%
%ADD441R,4.165600X0.025400*%
%ADD442R,4.191000X0.025400*%
%ADD443R,3.403600X0.025400*%
%ADD444R,4.038600X0.025400*%
%ADD445R,4.318000X0.025400*%
%ADD446R,3.937000X0.025400*%
%ADD447R,4.495800X0.025400*%
%ADD448R,4.851400X0.025400*%
%ADD449R,3.860800X0.025400*%
%ADD450R,3.810000X0.025400*%
%ADD451R,4.292600X0.025400*%
%ADD452R,4.394200X0.025400*%
%ADD453R,4.572000X0.025400*%
%ADD454R,6.019800X0.025400*%
%ADD455R,5.943600X0.025400*%
%ADD456R,5.715000X0.025400*%
%ADD457R,4.521200X0.025400*%
%ADD458R,7.442200X0.025400*%
%ADD459R,7.366000X0.025400*%
%ADD460R,7.239000X0.025400*%
%ADD461R,7.188200X0.025400*%
%ADD462R,7.137400X0.025400*%
%ADD463R,7.061200X0.025400*%
%ADD464R,6.934200X0.025400*%
%ADD465R,6.858000X0.025400*%
%ADD466R,6.781800X0.025400*%
%ADD467R,6.731000X0.025400*%
%ADD468R,6.502400X0.025400*%
%ADD469R,6.324600X0.025400*%
%ADD470R,6.197600X0.025400*%
%ADD471R,6.172200X0.025400*%
%ADD472R,5.994400X0.025400*%
%ADD473R,5.918200X0.025400*%
%ADD474R,5.892800X0.025400*%
%ADD475R,5.842000X0.025400*%
%ADD476R,5.816600X0.025400*%
%ADD477R,5.765800X0.025400*%
%ADD478R,5.740400X0.025400*%
%ADD479R,5.689600X0.025400*%
%ADD480R,5.613400X0.025400*%
%ADD481R,5.562600X0.025400*%
%ADD482R,5.537200X0.025400*%
%ADD483R,5.461000X0.025400*%
%ADD484R,5.435600X0.025400*%
%ADD485R,5.410200X0.025400*%
%ADD486R,5.334000X0.025400*%
%ADD487R,5.283200X0.025400*%
%ADD488R,5.257800X0.025400*%
%ADD489R,5.105400X0.025400*%
%ADD490R,4.826000X0.025400*%
%ADD491R,4.724400X0.025400*%
%ADD492R,4.546600X0.025400*%
%ADD493R,4.470400X0.025400*%
%ADD494C,10.401600*%
%ADD495C,2.081600*%
%ADD496C,2.411600*%
%ADD497C,4.417600*%


D10*
X131600Y222800D03*
X466880Y222800D03*
X634520Y222800D03*
X299240Y222800D03*
D11*
X759000Y208300D03*
D12*
X1086500Y219800D03*
D13*
X1173000Y253600D03*
X1173000Y207900D03*
X1226340Y207900D03*
X1226340Y253600D03*
D14*
X382016Y2032D03*
D15*
X382143Y2286D03*
D16*
X382016Y2540D03*
D17*
X382016Y2794D03*
D18*
X382143Y3048D03*
D19*
X382016Y3302D03*
D20*
X382143Y3556D03*
D21*
X382143Y3810D03*
D22*
X382016Y4064D03*
D23*
X382143Y4318D03*
D24*
X382016Y4572D03*
D25*
X382016Y4826D03*
D26*
X382143Y5080D03*
D27*
X382016Y5334D03*
D28*
X382143Y5588D03*
D29*
X382016Y5842D03*
D30*
X382016Y6096D03*
D31*
X382143Y6350D03*
D32*
X382016Y6604D03*
D33*
X382143Y6858D03*
D34*
X382016Y7112D03*
D35*
X382016Y7366D03*
D36*
X382143Y7620D03*
D37*
X382016Y7874D03*
D38*
X382143Y8128D03*
D39*
X382016Y8382D03*
D40*
X382016Y8636D03*
D41*
X382143Y8890D03*
D42*
X382016Y9144D03*
D43*
X382143Y9398D03*
D44*
X382016Y9652D03*
D45*
X382016Y9906D03*
D46*
X382143Y10160D03*
D47*
X382016Y10414D03*
D48*
X382143Y10668D03*
D49*
X382016Y10922D03*
D50*
X382016Y11176D03*
D51*
X382143Y11430D03*
D52*
X382016Y11684D03*
D53*
X382143Y11938D03*
D54*
X382143Y12192D03*
D55*
X382016Y12446D03*
D56*
X382143Y12700D03*
D57*
X382016Y12954D03*
D58*
X382143Y13208D03*
D59*
X382143Y13462D03*
D60*
X382016Y13716D03*
D61*
X382143Y13970D03*
D62*
X382016Y14224D03*
D63*
X279654Y14478D03*
D64*
X343916Y14478D03*
D65*
X375031Y14478D03*
D66*
X410337Y14478D03*
D67*
X457454Y14478D03*
D68*
X505714Y14478D03*
D69*
X279273Y14732D03*
D70*
X343916Y14732D03*
D71*
X374777Y14732D03*
D72*
X410337Y14732D03*
D73*
X457581Y14732D03*
D74*
X506222Y14732D03*
D75*
X279019Y14986D03*
D76*
X343789Y14986D03*
D77*
X374650Y14986D03*
D78*
X394208Y14986D03*
D79*
X416433Y14986D03*
D72*
X457581Y14986D03*
D80*
X489585Y14986D03*
D81*
X512572Y14986D03*
D82*
X252603Y15240D03*
D83*
X281686Y15240D03*
D84*
X307086Y15240D03*
D85*
X342138Y15240D03*
D86*
X374523Y15240D03*
D87*
X394208Y15240D03*
D88*
X408051Y15240D03*
D89*
X423037Y15240D03*
D90*
X445897Y15240D03*
D91*
X468122Y15240D03*
D92*
X489585Y15240D03*
D93*
X512826Y15240D03*
D94*
X251968Y15494D03*
D95*
X277622Y15494D03*
D96*
X288163Y15494D03*
D97*
X302387Y15494D03*
D98*
X312928Y15494D03*
D99*
X341757Y15494D03*
D100*
X374269Y15494D03*
D101*
X394208Y15494D03*
D78*
X407670Y15494D03*
D102*
X423418Y15494D03*
D103*
X445643Y15494D03*
D104*
X464312Y15494D03*
D87*
X474218Y15494D03*
D96*
X489585Y15494D03*
D79*
X512953Y15494D03*
D93*
X251714Y15748D03*
D105*
X273558Y15748D03*
D106*
X279146Y15748D03*
D107*
X288036Y15748D03*
D108*
X302260Y15748D03*
D92*
X312801Y15748D03*
D109*
X341503Y15748D03*
D103*
X374269Y15748D03*
D106*
X394208Y15748D03*
D87*
X407416Y15748D03*
D110*
X423545Y15748D03*
D111*
X446278Y15748D03*
D112*
X464185Y15748D03*
D96*
X474345Y15748D03*
D113*
X489585Y15748D03*
D114*
X513080Y15748D03*
D79*
X251587Y16002D03*
D115*
X273304Y16002D03*
D116*
X279146Y16002D03*
D117*
X287909Y16002D03*
D118*
X302133Y16002D03*
D119*
X312801Y16002D03*
D120*
X341376Y16002D03*
D121*
X374142Y16002D03*
D107*
X394462Y16002D03*
D106*
X407416Y16002D03*
D122*
X423672Y16002D03*
D110*
X446405Y16002D03*
D118*
X464185Y16002D03*
D113*
X474345Y16002D03*
D107*
X489712Y16002D03*
D123*
X513207Y16002D03*
D124*
X251460Y16256D03*
D125*
X287909Y16256D03*
D126*
X299085Y16256D03*
D127*
X303657Y16256D03*
D106*
X312674Y16256D03*
D79*
X341249Y16256D03*
D128*
X374142Y16256D03*
D129*
X394335Y16256D03*
D107*
X407416Y16256D03*
D95*
X423926Y16256D03*
D122*
X446532Y16256D03*
D130*
X461010Y16256D03*
D127*
X465709Y16256D03*
D129*
X474345Y16256D03*
X489839Y16256D03*
D131*
X513334Y16256D03*
D114*
X251460Y16510D03*
D132*
X287909Y16510D03*
D133*
X298704Y16510D03*
D115*
X303784Y16510D03*
D107*
X312674Y16510D03*
D134*
X341249Y16510D03*
D89*
X374269Y16510D03*
D135*
X394462Y16510D03*
X407416Y16510D03*
D104*
X423926Y16510D03*
X446532Y16510D03*
D136*
X460629Y16510D03*
D115*
X465836Y16510D03*
D117*
X474345Y16510D03*
D135*
X489966Y16510D03*
D137*
X513461Y16510D03*
D123*
X251333Y16764D03*
D138*
X287909Y16764D03*
D135*
X312674Y16764D03*
D123*
X341249Y16764D03*
D139*
X374142Y16764D03*
D117*
X394589Y16764D03*
D140*
X407416Y16764D03*
D88*
X424053Y16764D03*
D141*
X446532Y16764D03*
D140*
X474218Y16764D03*
D117*
X489839Y16764D03*
D142*
X513461Y16764D03*
D143*
X251333Y17018D03*
D144*
X287782Y17018D03*
D117*
X312547Y17018D03*
D145*
X341122Y17018D03*
D146*
X374269Y17018D03*
D117*
X394589Y17018D03*
D116*
X407416Y17018D03*
D88*
X424307Y17018D03*
D147*
X446659Y17018D03*
D125*
X474345Y17018D03*
D140*
X489966Y17018D03*
D148*
X513461Y17018D03*
D137*
X251333Y17272D03*
D149*
X287782Y17272D03*
D125*
X312547Y17272D03*
D131*
X341122Y17272D03*
D150*
X374269Y17272D03*
D140*
X394716Y17272D03*
D151*
X407416Y17272D03*
D141*
X424434Y17272D03*
D112*
X446659Y17272D03*
D116*
X474472Y17272D03*
D140*
X489966Y17272D03*
D152*
X513588Y17272D03*
D153*
X251206Y17526D03*
D149*
X287782Y17526D03*
D125*
X312547Y17526D03*
D137*
X341249Y17526D03*
D150*
X374269Y17526D03*
D125*
X394589Y17526D03*
D144*
X407416Y17526D03*
D147*
X424561Y17526D03*
D80*
X446659Y17526D03*
D132*
X474345Y17526D03*
D140*
X489966Y17526D03*
D154*
X513461Y17526D03*
D142*
X251333Y17780D03*
D155*
X287782Y17780D03*
D132*
X312547Y17780D03*
D153*
X341122Y17780D03*
D111*
X374396Y17780D03*
D140*
X394462Y17780D03*
D144*
X407416Y17780D03*
D147*
X424561Y17780D03*
D80*
X446659Y17780D03*
D151*
X474472Y17780D03*
D125*
X489839Y17780D03*
D156*
X513588Y17780D03*
D157*
X251206Y18034D03*
D155*
X287782Y18034D03*
D132*
X312547Y18034D03*
D142*
X341249Y18034D03*
D158*
X374523Y18034D03*
D140*
X394462Y18034D03*
D149*
X407416Y18034D03*
D108*
X424688Y18034D03*
D78*
X446532Y18034D03*
D132*
X474599Y18034D03*
D140*
X489712Y18034D03*
D159*
X513461Y18034D03*
D148*
X251333Y18288D03*
D160*
X287655Y18288D03*
D151*
X312674Y18288D03*
D148*
X341249Y18288D03*
D158*
X374777Y18288D03*
D125*
X394335Y18288D03*
D149*
X407416Y18288D03*
D108*
X424688Y18288D03*
D78*
X446532Y18288D03*
D151*
X474726Y18288D03*
D140*
X489712Y18288D03*
D161*
X513461Y18288D03*
D152*
X251460Y18542D03*
D160*
X287909Y18542D03*
D151*
X312674Y18542D03*
D148*
X341503Y18542D03*
D102*
X374904Y18542D03*
D140*
X394208Y18542D03*
D162*
X407543Y18542D03*
D147*
X424561Y18542D03*
D78*
X446532Y18542D03*
D132*
X474853Y18542D03*
D125*
X489585Y18542D03*
D161*
X513461Y18542D03*
D148*
X251587Y18796D03*
D160*
X287909Y18796D03*
D151*
X312674Y18796D03*
D152*
X341630Y18796D03*
D158*
X375031Y18796D03*
D125*
X394081Y18796D03*
D162*
X407543Y18796D03*
D147*
X424561Y18796D03*
D80*
X446659Y18796D03*
D132*
X474853Y18796D03*
D140*
X489458Y18796D03*
D163*
X513461Y18796D03*
D152*
X251714Y19050D03*
D160*
X287909Y19050D03*
D151*
X312928Y19050D03*
D154*
X341757Y19050D03*
D102*
X375158Y19050D03*
D125*
X394081Y19050D03*
D149*
X407670Y19050D03*
D147*
X424561Y19050D03*
D98*
X446532Y19050D03*
D132*
X474853Y19050D03*
D125*
X489331Y19050D03*
D163*
X513461Y19050D03*
D152*
X251714Y19304D03*
D155*
X288036Y19304D03*
D151*
X312928Y19304D03*
D154*
X342011Y19304D03*
D164*
X375285Y19304D03*
D125*
X393827Y19304D03*
D162*
X407797Y19304D03*
D141*
X424434Y19304D03*
D112*
X446659Y19304D03*
D132*
X475107Y19304D03*
D125*
X489331Y19304D03*
D165*
X513334Y19304D03*
D152*
X251968Y19558D03*
D155*
X288036Y19558D03*
D151*
X312928Y19558D03*
D156*
X342138Y19558D03*
D164*
X375539Y19558D03*
D125*
X393827Y19558D03*
D149*
X407924Y19558D03*
D141*
X424434Y19558D03*
D112*
X446659Y19558D03*
D132*
X475107Y19558D03*
D116*
X489204Y19558D03*
D166*
X513207Y19558D03*
D154*
X252095Y19812D03*
D155*
X288036Y19812D03*
D132*
X313055Y19812D03*
D159*
X342265Y19812D03*
D167*
X375666Y19812D03*
D116*
X393700Y19812D03*
D149*
X407924Y19812D03*
D141*
X424434Y19812D03*
D112*
X446659Y19812D03*
D132*
X475107Y19812D03*
D125*
X489077Y19812D03*
D166*
X513207Y19812D03*
D154*
X252095Y20066D03*
D162*
X288163Y20066D03*
D132*
X313055Y20066D03*
D159*
X342519Y20066D03*
D110*
X375793Y20066D03*
D116*
X393700Y20066D03*
D149*
X407924Y20066D03*
D141*
X424434Y20066D03*
D108*
X446786Y20066D03*
D116*
X475234Y20066D03*
X488950Y20066D03*
D168*
X513080Y20066D03*
D154*
X252349Y20320D03*
D155*
X288290Y20320D03*
D132*
X313055Y20320D03*
D169*
X342646Y20320D03*
D170*
X376047Y20320D03*
D132*
X393573Y20320D03*
D127*
X408051Y20320D03*
D88*
X424307Y20320D03*
D108*
X446786Y20320D03*
D116*
X475234Y20320D03*
D132*
X488823Y20320D03*
D168*
X513080Y20320D03*
D156*
X252476Y20574D03*
D162*
X288163Y20574D03*
D116*
X313182Y20574D03*
D161*
X342773Y20574D03*
D122*
X376174Y20574D03*
D132*
X393319Y20574D03*
D127*
X408051Y20574D03*
D141*
X424180Y20574D03*
D112*
X446913Y20574D03*
D116*
X475234Y20574D03*
D132*
X488823Y20574D03*
D171*
X512953Y20574D03*
D156*
X252476Y20828D03*
D149*
X288290Y20828D03*
D116*
X313182Y20828D03*
D161*
X343027Y20828D03*
D122*
X376428Y20828D03*
D132*
X393319Y20828D03*
D138*
X407797Y20828D03*
D141*
X424180Y20828D03*
D112*
X446913Y20828D03*
D116*
X475234Y20828D03*
D151*
X488696Y20828D03*
D171*
X512699Y20828D03*
D159*
X252603Y21082D03*
D149*
X288290Y21082D03*
D116*
X313182Y21082D03*
D163*
X343281Y21082D03*
D172*
X376555Y21082D03*
D151*
X393192Y21082D03*
X407670Y21082D03*
D141*
X424180Y21082D03*
D108*
X447040Y21082D03*
D116*
X475234Y21082D03*
D138*
X488569Y21082D03*
D168*
X512572Y21082D03*
D156*
X252730Y21336D03*
D149*
X288290Y21336D03*
D116*
X313182Y21336D03*
D165*
X343408Y21336D03*
D97*
X376809Y21336D03*
D138*
X393065Y21336D03*
D116*
X407670Y21336D03*
D141*
X424180Y21336D03*
D108*
X447040Y21336D03*
D116*
X475234Y21336D03*
D138*
X488569Y21336D03*
D168*
X512318Y21336D03*
D159*
X252857Y21590D03*
D149*
X288290Y21590D03*
D116*
X313182Y21590D03*
D168*
X343662Y21590D03*
D104*
X376936Y21590D03*
D144*
X392938Y21590D03*
D125*
X407543Y21590D03*
D88*
X424053Y21590D03*
D108*
X447040Y21590D03*
D125*
X475361Y21590D03*
D144*
X488442Y21590D03*
D166*
X512191Y21590D03*
D169*
X252984Y21844D03*
D149*
X288290Y21844D03*
D125*
X313309Y21844D03*
D171*
X343789Y21844D03*
D141*
X377190Y21844D03*
D127*
X392811Y21844D03*
D140*
X407416Y21844D03*
D141*
X423926Y21844D03*
D108*
X447040Y21844D03*
D140*
X475234Y21844D03*
D127*
X488315Y21844D03*
D166*
X511937Y21844D03*
D169*
X252984Y22098D03*
D149*
X288290Y22098D03*
D140*
X313182Y22098D03*
D173*
X344043Y22098D03*
D147*
X377317Y22098D03*
D149*
X392684Y22098D03*
D117*
X407289Y22098D03*
D141*
X423926Y22098D03*
D108*
X447040Y22098D03*
D140*
X475234Y22098D03*
D127*
X488061Y22098D03*
D166*
X511683Y22098D03*
D161*
X253111Y22352D03*
D144*
X288290Y22352D03*
D140*
X313182Y22352D03*
D84*
X344170Y22352D03*
D108*
X377444Y22352D03*
D162*
X392557Y22352D03*
D117*
X407289Y22352D03*
D141*
X423926Y22352D03*
D112*
X447167Y22352D03*
D140*
X475234Y22352D03*
D149*
X487934Y22352D03*
D165*
X511556Y22352D03*
D161*
X253111Y22606D03*
D144*
X288290Y22606D03*
D140*
X313182Y22606D03*
D173*
X344297Y22606D03*
D108*
X377444Y22606D03*
D162*
X392557Y22606D03*
D135*
X407162Y22606D03*
D147*
X423799Y22606D03*
D112*
X447167Y22606D03*
D140*
X475234Y22606D03*
D149*
X487934Y22606D03*
D165*
X511302Y22606D03*
D174*
X253238Y22860D03*
D144*
X288290Y22860D03*
D117*
X313055Y22860D03*
D173*
X344297Y22860D03*
D112*
X377571Y22860D03*
D155*
X392684Y22860D03*
D129*
X407035Y22860D03*
D147*
X423799Y22860D03*
D108*
X447294Y22860D03*
D117*
X475107Y22860D03*
D162*
X488061Y22860D03*
D165*
X511048Y22860D03*
D163*
X253365Y23114D03*
D138*
X288163Y23114D03*
D117*
X313055Y23114D03*
D83*
X344424Y23114D03*
D112*
X377571Y23114D03*
D160*
X392811Y23114D03*
D107*
X406908Y23114D03*
D147*
X423799Y23114D03*
D108*
X447294Y23114D03*
D117*
X475107Y23114D03*
D155*
X488188Y23114D03*
D165*
X511048Y23114D03*
D174*
X253492Y23368D03*
D138*
X288163Y23368D03*
D117*
X313055Y23368D03*
D83*
X344424Y23368D03*
D98*
X377698Y23368D03*
D105*
X392938Y23368D03*
D107*
X406908Y23368D03*
D108*
X423672Y23368D03*
D112*
X447421Y23368D03*
D135*
X474980Y23368D03*
D105*
X488188Y23368D03*
D165*
X510794Y23368D03*
D163*
X253619Y23622D03*
D151*
X288036Y23622D03*
D135*
X312928Y23622D03*
D175*
X344551Y23622D03*
D80*
X377825Y23622D03*
D105*
X392938Y23622D03*
D113*
X406781Y23622D03*
D108*
X423672Y23622D03*
D112*
X447421Y23622D03*
D135*
X474980Y23622D03*
D176*
X488315Y23622D03*
D165*
X510794Y23622D03*
D163*
X253619Y23876D03*
D151*
X288036Y23876D03*
D135*
X312928Y23876D03*
D177*
X344678Y23876D03*
D80*
X377825Y23876D03*
D130*
X392938Y23876D03*
D106*
X406908Y23876D03*
D108*
X423672Y23876D03*
D112*
X447421Y23876D03*
D129*
X474853Y23876D03*
D130*
X488442Y23876D03*
D165*
X510540Y23876D03*
X253746Y24130D03*
D132*
X287909Y24130D03*
D129*
X312801Y24130D03*
D177*
X344678Y24130D03*
D78*
X377952Y24130D03*
D126*
X393065Y24130D03*
D106*
X406654Y24130D03*
D112*
X423545Y24130D03*
D98*
X447548Y24130D03*
D129*
X474853Y24130D03*
D126*
X488569Y24130D03*
D166*
X510413Y24130D03*
X253873Y24384D03*
D136*
X280035Y24384D03*
D116*
X287782Y24384D03*
D107*
X312674Y24384D03*
D178*
X344805Y24384D03*
D118*
X378079Y24384D03*
D179*
X393192Y24384D03*
D106*
X406654Y24384D03*
D112*
X423545Y24384D03*
D98*
X447548Y24384D03*
D107*
X474726Y24384D03*
D180*
X488569Y24384D03*
D165*
X510286Y24384D03*
D168*
X253746Y24638D03*
D125*
X280035Y24638D03*
X287655Y24638D03*
D176*
X305181Y24638D03*
D113*
X312547Y24638D03*
D181*
X344932Y24638D03*
D182*
X378206Y24638D03*
D180*
X393319Y24638D03*
D96*
X406527Y24638D03*
D80*
X423545Y24638D03*
D98*
X447548Y24638D03*
D105*
X467106Y24638D03*
D107*
X474472Y24638D03*
D115*
X488696Y24638D03*
D166*
X510159Y24638D03*
D171*
X253873Y24892D03*
D96*
X280035Y24892D03*
D140*
X287528Y24892D03*
D151*
X305308Y24892D03*
D106*
X312420Y24892D03*
D183*
X345059Y24892D03*
D182*
X378206Y24892D03*
D133*
X393446Y24892D03*
D96*
X406527Y24892D03*
D80*
X423545Y24892D03*
D78*
X447548Y24892D03*
D151*
X467360Y24892D03*
D113*
X474345Y24892D03*
D136*
X488823Y24892D03*
D165*
X510032Y24892D03*
D171*
X253873Y25146D03*
D184*
X282956Y25146D03*
D135*
X305308Y25146D03*
D96*
X312293Y25146D03*
D91*
X345186Y25146D03*
D92*
X378333Y25146D03*
D101*
X406400Y25146D03*
D78*
X423418Y25146D03*
X447548Y25146D03*
D135*
X467360Y25146D03*
D106*
X474218Y25146D03*
D166*
X509905Y25146D03*
D84*
X254000Y25400D03*
D136*
X274447Y25400D03*
D146*
X282575Y25400D03*
D111*
X308864Y25400D03*
D91*
X345186Y25400D03*
D87*
X378460Y25400D03*
D101*
X406400Y25400D03*
D78*
X423418Y25400D03*
D118*
X447675Y25400D03*
D111*
X470662Y25400D03*
D168*
X509778Y25400D03*
D173*
X254127Y25654D03*
D185*
X282067Y25654D03*
D126*
X299847Y25654D03*
D184*
X308610Y25654D03*
D186*
X345186Y25654D03*
D101*
X378460Y25654D03*
X406400Y25654D03*
D118*
X423291Y25654D03*
X447675Y25654D03*
D126*
X461899Y25654D03*
D184*
X470408Y25654D03*
D166*
X509651Y25654D03*
D173*
X254127Y25908D03*
D128*
X282194Y25908D03*
D100*
X307467Y25908D03*
D187*
X345440Y25908D03*
D96*
X378587Y25908D03*
D119*
X406273Y25908D03*
D118*
X423291Y25908D03*
D182*
X447802Y25908D03*
D188*
X469392Y25908D03*
D168*
X509524Y25908D03*
D83*
X254254Y26162D03*
D128*
X282194Y26162D03*
D188*
X307340Y26162D03*
D189*
X345567Y26162D03*
D106*
X378714Y26162D03*
D119*
X406273Y26162D03*
D182*
X423418Y26162D03*
X447802Y26162D03*
D188*
X469392Y26162D03*
D168*
X509524Y26162D03*
D83*
X254254Y26416D03*
D128*
X282194Y26416D03*
D188*
X307340Y26416D03*
D190*
X345694Y26416D03*
D113*
X378841Y26416D03*
D119*
X406273Y26416D03*
D182*
X423418Y26416D03*
D92*
X447929Y26416D03*
D103*
X469265Y26416D03*
D168*
X509270Y26416D03*
D175*
X254381Y26670D03*
D128*
X282194Y26670D03*
D103*
X307467Y26670D03*
D71*
X345821Y26670D03*
D129*
X379095Y26670D03*
D101*
X406146Y26670D03*
D182*
X423418Y26670D03*
D92*
X447929Y26670D03*
D121*
X469392Y26670D03*
D171*
X509143Y26670D03*
D178*
X254381Y26924D03*
D89*
X282321Y26924D03*
D116*
X301752Y26924D03*
D88*
X310261Y26924D03*
D191*
X345948Y26924D03*
D135*
X379222Y26924D03*
D101*
X406146Y26924D03*
D92*
X423545Y26924D03*
D119*
X447929Y26924D03*
D116*
X463804Y26924D03*
D141*
X472186Y26924D03*
D171*
X509143Y26924D03*
D178*
X254381Y27178D03*
D139*
X282194Y27178D03*
D138*
X301371Y27178D03*
D141*
X310388Y27178D03*
D90*
X346075Y27178D03*
D140*
X379476Y27178D03*
D119*
X406019Y27178D03*
D92*
X423545Y27178D03*
D119*
X447929Y27178D03*
D138*
X463423Y27178D03*
D147*
X472313Y27178D03*
D171*
X508889Y27178D03*
D181*
X254508Y27432D03*
D139*
X282194Y27432D03*
D162*
X301117Y27432D03*
D108*
X310388Y27432D03*
D192*
X346202Y27432D03*
D125*
X379603Y27432D03*
D87*
X405892Y27432D03*
D92*
X423545Y27432D03*
D119*
X447929Y27432D03*
D155*
X463042Y27432D03*
D108*
X472440Y27432D03*
D171*
X508889Y27432D03*
D181*
X254508Y27686D03*
D146*
X282321Y27686D03*
D130*
X300482Y27686D03*
D112*
X310515Y27686D03*
D193*
X346456Y27686D03*
D132*
X379857Y27686D03*
D92*
X405765Y27686D03*
D87*
X423672Y27686D03*
D119*
X447929Y27686D03*
D130*
X462534Y27686D03*
D112*
X472567Y27686D03*
D171*
X508635Y27686D03*
D183*
X254635Y27940D03*
D146*
X282321Y27940D03*
D98*
X310642Y27940D03*
D188*
X346710Y27940D03*
D151*
X379984Y27940D03*
D182*
X405638Y27940D03*
D87*
X423672Y27940D03*
D119*
X447929Y27940D03*
D112*
X472821Y27940D03*
D171*
X508381Y27940D03*
D91*
X254762Y28194D03*
D146*
X282321Y28194D03*
D80*
X310769Y28194D03*
D121*
X346964Y28194D03*
D144*
X380238Y28194D03*
D118*
X405511Y28194D03*
D87*
X423672Y28194D03*
D119*
X447929Y28194D03*
D98*
X472948Y28194D03*
D168*
X508254Y28194D03*
D91*
X254762Y28448D03*
D139*
X282194Y28448D03*
D98*
X310896Y28448D03*
D121*
X346964Y28448D03*
D133*
X364744Y28448D03*
D144*
X380492Y28448D03*
D78*
X405384Y28448D03*
D92*
X423545Y28448D03*
D119*
X447929Y28448D03*
D98*
X472948Y28448D03*
D168*
X508000Y28448D03*
D65*
X254889Y28702D03*
D89*
X282321Y28702D03*
D80*
X311023Y28702D03*
D136*
X325247Y28702D03*
D121*
X347218Y28702D03*
D136*
X364871Y28702D03*
D144*
X380492Y28702D03*
D78*
X405384Y28702D03*
D87*
X423418Y28702D03*
D119*
X447929Y28702D03*
D80*
X473075Y28702D03*
D166*
X507873Y28702D03*
D65*
X255143Y28956D03*
D89*
X282321Y28956D03*
D78*
X311150Y28956D03*
D180*
X325501Y28956D03*
D121*
X347218Y28956D03*
D180*
X365125Y28956D03*
D144*
X380492Y28956D03*
D80*
X405257Y28956D03*
D87*
X423418Y28956D03*
X448056Y28956D03*
D80*
X473075Y28956D03*
D166*
X507619Y28956D03*
D65*
X255143Y29210D03*
D128*
X282194Y29210D03*
D78*
X311150Y29210D03*
D126*
X325755Y29210D03*
D121*
X347218Y29210D03*
D126*
X365379Y29210D03*
D144*
X380492Y29210D03*
D112*
X405257Y29210D03*
D92*
X423291Y29210D03*
D87*
X448056Y29210D03*
D80*
X473329Y29210D03*
D166*
X507365Y29210D03*
D186*
X255270Y29464D03*
D128*
X282194Y29464D03*
D80*
X311277Y29464D03*
D176*
X326009Y29464D03*
D121*
X347218Y29464D03*
D176*
X365379Y29464D03*
D144*
X380492Y29464D03*
D108*
X405130Y29464D03*
D92*
X423291Y29464D03*
D87*
X448056Y29464D03*
D80*
X473329Y29464D03*
D166*
X507365Y29464D03*
D186*
X255270Y29718D03*
D128*
X282194Y29718D03*
D78*
X311404Y29718D03*
D160*
X326009Y29718D03*
D121*
X347218Y29718D03*
D160*
X365633Y29718D03*
D144*
X380492Y29718D03*
D108*
X405130Y29718D03*
D92*
X423291Y29718D03*
D87*
X448056Y29718D03*
D78*
X473456Y29718D03*
D166*
X507111Y29718D03*
D194*
X255397Y29972D03*
D185*
X282321Y29972D03*
D78*
X311404Y29972D03*
D162*
X326263Y29972D03*
D103*
X347345Y29972D03*
D155*
X365760Y29972D03*
D138*
X380619Y29972D03*
D147*
X405003Y29972D03*
D87*
X423164Y29972D03*
X448056Y29972D03*
D78*
X473456Y29972D03*
D166*
X507111Y29972D03*
D187*
X255524Y30226D03*
D121*
X282194Y30226D03*
D78*
X311404Y30226D03*
D149*
X326390Y30226D03*
D188*
X347218Y30226D03*
D149*
X366014Y30226D03*
D138*
X380619Y30226D03*
D147*
X405003Y30226D03*
D92*
X423037Y30226D03*
X448183Y30226D03*
D78*
X473456Y30226D03*
D166*
X506857Y30226D03*
D194*
X255651Y30480D03*
D121*
X282194Y30480D03*
D118*
X311531Y30480D03*
D127*
X326517Y30480D03*
D188*
X347218Y30480D03*
D144*
X366014Y30480D03*
D138*
X380619Y30480D03*
D141*
X405130Y30480D03*
D92*
X423037Y30480D03*
X448183Y30480D03*
D78*
X473456Y30480D03*
D171*
X506857Y30480D03*
D187*
X255778Y30734D03*
D121*
X282194Y30734D03*
D118*
X311531Y30734D03*
D144*
X326644Y30734D03*
D188*
X347218Y30734D03*
D138*
X366141Y30734D03*
X380619Y30734D03*
D147*
X405257Y30734D03*
D87*
X422910Y30734D03*
D92*
X448183Y30734D03*
D118*
X473583Y30734D03*
D84*
X506984Y30734D03*
D187*
X255778Y30988D03*
D121*
X282194Y30988D03*
D78*
X311658Y30988D03*
D138*
X326771Y30988D03*
D188*
X347218Y30988D03*
D151*
X366268Y30988D03*
X380492Y30988D03*
D108*
X405384Y30988D03*
D87*
X422910Y30988D03*
D92*
X448183Y30988D03*
D118*
X473583Y30988D03*
D83*
X506984Y30988D03*
D189*
X255905Y31242D03*
D121*
X282194Y31242D03*
D78*
X311658Y31242D03*
D116*
X326898Y31242D03*
D100*
X347091Y31242D03*
D132*
X366395Y31242D03*
D151*
X380492Y31242D03*
D98*
X405638Y31242D03*
D87*
X422910Y31242D03*
X448310Y31242D03*
D118*
X473583Y31242D03*
D177*
X506984Y31242D03*
D190*
X256032Y31496D03*
D121*
X282194Y31496D03*
D78*
X311658Y31496D03*
D125*
X327025Y31496D03*
D100*
X347091Y31496D03*
D116*
X366522Y31496D03*
D151*
X380492Y31496D03*
D80*
X405765Y31496D03*
D119*
X422783Y31496D03*
D133*
X435864Y31496D03*
D87*
X448310Y31496D03*
D118*
X473583Y31496D03*
D181*
X507238Y31496D03*
D190*
X256032Y31750D03*
D121*
X282194Y31750D03*
D78*
X311658Y31750D03*
D125*
X327025Y31750D03*
D100*
X347091Y31750D03*
D125*
X366649Y31750D03*
D132*
X380365Y31750D03*
D118*
X406019Y31750D03*
D119*
X422783Y31750D03*
D133*
X435864Y31750D03*
D87*
X448310Y31750D03*
D118*
X473583Y31750D03*
D91*
X507238Y31750D03*
D71*
X256159Y32004D03*
D121*
X282194Y32004D03*
D78*
X311658Y32004D03*
D140*
X327152Y32004D03*
D193*
X346964Y32004D03*
D140*
X366776Y32004D03*
D132*
X380365Y32004D03*
D182*
X406146Y32004D03*
D119*
X422783Y32004D03*
D136*
X435737Y32004D03*
D87*
X448310Y32004D03*
D118*
X473583Y32004D03*
D186*
X507492Y32004D03*
D71*
X256159Y32258D03*
D121*
X282194Y32258D03*
D78*
X311658Y32258D03*
D140*
X327152Y32258D03*
D193*
X346964Y32258D03*
D140*
X366776Y32258D03*
D116*
X380238Y32258D03*
D87*
X406400Y32258D03*
D101*
X422656Y32258D03*
D115*
X435864Y32258D03*
D119*
X448437Y32258D03*
D118*
X473583Y32258D03*
D187*
X507492Y32258D03*
D191*
X256286Y32512D03*
D121*
X282194Y32512D03*
D78*
X311658Y32512D03*
D125*
X327025Y32512D03*
D193*
X346964Y32512D03*
D125*
X366649Y32512D03*
D132*
X380365Y32512D03*
D101*
X406654Y32512D03*
D119*
X422529Y32512D03*
D115*
X435864Y32512D03*
D119*
X448437Y32512D03*
D118*
X473583Y32512D03*
D71*
X507619Y32512D03*
D195*
X256413Y32766D03*
D121*
X282194Y32766D03*
D78*
X311658Y32766D03*
D116*
X326898Y32766D03*
D100*
X347091Y32766D03*
D116*
X366522Y32766D03*
D132*
X380365Y32766D03*
D106*
X406908Y32766D03*
D96*
X422529Y32766D03*
D180*
X435737Y32766D03*
D119*
X448437Y32766D03*
D118*
X473583Y32766D03*
D195*
X507873Y32766D03*
X256413Y33020D03*
D121*
X282194Y33020D03*
D78*
X311658Y33020D03*
D132*
X326771Y33020D03*
D100*
X347091Y33020D03*
D132*
X366395Y33020D03*
D151*
X380492Y33020D03*
D107*
X407162Y33020D03*
D96*
X422529Y33020D03*
D180*
X435737Y33020D03*
D101*
X448564Y33020D03*
D78*
X473456Y33020D03*
D86*
X508127Y33020D03*
D77*
X256540Y33274D03*
D121*
X282194Y33274D03*
D80*
X311531Y33274D03*
D151*
X326644Y33274D03*
D100*
X347091Y33274D03*
D151*
X366268Y33274D03*
D138*
X380365Y33274D03*
D135*
X407416Y33274D03*
D106*
X422402Y33274D03*
D179*
X435864Y33274D03*
D101*
X448564Y33274D03*
D78*
X473456Y33274D03*
D100*
X508381Y33274D03*
D77*
X256540Y33528D03*
D121*
X282194Y33528D03*
D80*
X311531Y33528D03*
D138*
X326517Y33528D03*
D188*
X347218Y33528D03*
D138*
X366141Y33528D03*
X380365Y33528D03*
D117*
X407543Y33528D03*
D106*
X422402Y33528D03*
D179*
X435864Y33528D03*
D101*
X448564Y33528D03*
D78*
X473456Y33528D03*
D188*
X508254Y33528D03*
D90*
X256667Y33782D03*
D121*
X282194Y33782D03*
D78*
X311404Y33782D03*
D144*
X326390Y33782D03*
D188*
X347218Y33782D03*
D144*
X366014Y33782D03*
X380492Y33782D03*
D117*
X407543Y33782D03*
D113*
X422275Y33782D03*
D179*
X435864Y33782D03*
D96*
X448691Y33782D03*
D78*
X473456Y33782D03*
D103*
X508127Y33782D03*
D192*
X256794Y34036D03*
D121*
X282194Y34036D03*
D78*
X311404Y34036D03*
D149*
X326390Y34036D03*
D188*
X347218Y34036D03*
D127*
X365887Y34036D03*
D144*
X380492Y34036D03*
D117*
X407543Y34036D03*
D113*
X422275Y34036D03*
D126*
X435737Y34036D03*
D96*
X448691Y34036D03*
D78*
X473202Y34036D03*
D121*
X508254Y34036D03*
D192*
X256794Y34290D03*
D121*
X282194Y34290D03*
D80*
X311277Y34290D03*
D162*
X326263Y34290D03*
D188*
X347218Y34290D03*
D162*
X365633Y34290D03*
D144*
X380492Y34290D03*
D140*
X407416Y34290D03*
D107*
X422148Y34290D03*
D126*
X435737Y34290D03*
D106*
X448818Y34290D03*
D78*
X473202Y34290D03*
D185*
X508127Y34290D03*
D193*
X256794Y34544D03*
D121*
X282194Y34544D03*
D80*
X311277Y34544D03*
D160*
X326009Y34544D03*
D188*
X347218Y34544D03*
D160*
X365633Y34544D03*
D144*
X380492Y34544D03*
D140*
X407416Y34544D03*
D107*
X422148Y34544D03*
D126*
X435737Y34544D03*
D113*
X448691Y34544D03*
D78*
X473202Y34544D03*
D185*
X508127Y34544D03*
D193*
X256794Y34798D03*
D185*
X282067Y34798D03*
D98*
X311150Y34798D03*
D105*
X325882Y34798D03*
D121*
X347218Y34798D03*
D176*
X365379Y34798D03*
D127*
X380365Y34798D03*
D140*
X407416Y34798D03*
D129*
X422021Y34798D03*
D130*
X435864Y34798D03*
D107*
X448818Y34798D03*
D80*
X473075Y34798D03*
D128*
X508000Y34798D03*
D100*
X256921Y35052D03*
D128*
X282194Y35052D03*
D98*
X311150Y35052D03*
D130*
X325628Y35052D03*
D121*
X347218Y35052D03*
D130*
X365252Y35052D03*
D127*
X380365Y35052D03*
D136*
X391795Y35052D03*
D140*
X407416Y35052D03*
D129*
X422021Y35052D03*
D130*
X435864Y35052D03*
D107*
X448818Y35052D03*
D78*
X472948Y35052D03*
D136*
X487045Y35052D03*
D89*
X507873Y35052D03*
D188*
X257048Y35306D03*
D128*
X282194Y35306D03*
D98*
X310896Y35306D03*
D179*
X325374Y35306D03*
D121*
X347218Y35306D03*
D179*
X364998Y35306D03*
D127*
X380365Y35306D03*
D180*
X392049Y35306D03*
D140*
X407416Y35306D03*
D135*
X422148Y35306D03*
D130*
X435864Y35306D03*
D129*
X448945Y35306D03*
D80*
X472821Y35306D03*
D180*
X487553Y35306D03*
D89*
X507873Y35306D03*
D188*
X257048Y35560D03*
D128*
X282194Y35560D03*
D112*
X310769Y35560D03*
D115*
X325374Y35560D03*
D103*
X347091Y35560D03*
D180*
X364871Y35560D03*
D127*
X380365Y35560D03*
D126*
X392303Y35560D03*
D125*
X407289Y35560D03*
D129*
X422275Y35560D03*
D130*
X435864Y35560D03*
D129*
X448945Y35560D03*
D98*
X472694Y35560D03*
D126*
X487807Y35560D03*
D139*
X507746Y35560D03*
D121*
X257048Y35814D03*
D89*
X282067Y35814D03*
D112*
X310769Y35814D03*
D136*
X325247Y35814D03*
D121*
X346964Y35814D03*
D115*
X364744Y35814D03*
D149*
X380238Y35814D03*
D130*
X392684Y35814D03*
D125*
X407289Y35814D03*
D129*
X422275Y35814D03*
D130*
X435864Y35814D03*
D135*
X448818Y35814D03*
D112*
X472567Y35814D03*
D176*
X488061Y35814D03*
D139*
X507746Y35814D03*
D121*
X257048Y36068D03*
D89*
X282067Y36068D03*
D127*
X301117Y36068D03*
D108*
X310642Y36068D03*
D133*
X325120Y36068D03*
D121*
X346964Y36068D03*
D133*
X364744Y36068D03*
D149*
X380238Y36068D03*
D105*
X392938Y36068D03*
D125*
X407289Y36068D03*
D129*
X422275Y36068D03*
D176*
X435737Y36068D03*
D135*
X448818Y36068D03*
D127*
X463169Y36068D03*
D112*
X472313Y36068D03*
D176*
X488315Y36068D03*
D146*
X507619Y36068D03*
D185*
X257175Y36322D03*
D139*
X282194Y36322D03*
D132*
X301625Y36322D03*
D147*
X310261Y36322D03*
D133*
X325120Y36322D03*
D103*
X346837Y36322D03*
D127*
X380111Y36322D03*
D155*
X393192Y36322D03*
D125*
X407289Y36322D03*
D135*
X422402Y36322D03*
D176*
X435737Y36322D03*
D135*
X448818Y36322D03*
D132*
X463677Y36322D03*
D108*
X472186Y36322D03*
D160*
X488569Y36322D03*
D146*
X507365Y36322D03*
D89*
X257175Y36576D03*
D139*
X282194Y36576D03*
D140*
X302006Y36576D03*
D141*
X310134Y36576D03*
D100*
X346583Y36576D03*
D138*
X379857Y36576D03*
D162*
X393319Y36576D03*
D116*
X407162Y36576D03*
D135*
X422402Y36576D03*
D176*
X435737Y36576D03*
D117*
X448691Y36576D03*
D140*
X464058Y36576D03*
D147*
X472059Y36576D03*
D162*
X488823Y36576D03*
D146*
X507365Y36576D03*
D89*
X257175Y36830D03*
D146*
X282067Y36830D03*
D121*
X307340Y36830D03*
D193*
X346202Y36830D03*
D116*
X379730Y36830D03*
D127*
X393573Y36830D03*
D125*
X407035Y36830D03*
D135*
X422402Y36830D03*
D176*
X435737Y36830D03*
D117*
X448691Y36830D03*
D121*
X469392Y36830D03*
D149*
X488950Y36830D03*
D184*
X507238Y36830D03*
D139*
X257302Y37084D03*
D146*
X282067Y37084D03*
D185*
X307467Y37084D03*
D192*
X345948Y37084D03*
D140*
X379476Y37084D03*
D144*
X393700Y37084D03*
D116*
X407162Y37084D03*
D135*
X422402Y37084D03*
D130*
X435610Y37084D03*
D117*
X448691Y37084D03*
D121*
X469392Y37084D03*
D144*
X488950Y37084D03*
D184*
X507238Y37084D03*
D146*
X257429Y37338D03*
X282067Y37338D03*
D185*
X307467Y37338D03*
D90*
X345821Y37338D03*
D117*
X379349Y37338D03*
D127*
X393573Y37338D03*
D132*
X407289Y37338D03*
D135*
X422402Y37338D03*
D176*
X435737Y37338D03*
D117*
X448691Y37338D03*
D103*
X469519Y37338D03*
D144*
X488950Y37338D03*
D111*
X507238Y37338D03*
D139*
X257556Y37592D03*
X282194Y37592D03*
D185*
X307467Y37592D03*
D191*
X345694Y37592D03*
D107*
X379222Y37592D03*
D176*
X392557Y37592D03*
D132*
X407289Y37592D03*
D135*
X422402Y37592D03*
D176*
X435737Y37592D03*
D135*
X448818Y37592D03*
D103*
X469519Y37592D03*
D176*
X488061Y37592D03*
D158*
X507111Y37592D03*
D146*
X257683Y37846D03*
D139*
X282194Y37846D03*
D103*
X307467Y37846D03*
D71*
X345567Y37846D03*
D113*
X379095Y37846D03*
D126*
X392303Y37846D03*
D116*
X407416Y37846D03*
D135*
X422402Y37846D03*
D176*
X435737Y37846D03*
D135*
X448818Y37846D03*
D103*
X469519Y37846D03*
D179*
X487680Y37846D03*
D102*
X507238Y37846D03*
D146*
X257683Y38100D03*
D89*
X282321Y38100D03*
D103*
X307467Y38100D03*
D189*
X345567Y38100D03*
D106*
X378968Y38100D03*
D180*
X392049Y38100D03*
D132*
X407543Y38100D03*
D117*
X422275Y38100D03*
D160*
X435737Y38100D03*
D135*
X448818Y38100D03*
D188*
X469646Y38100D03*
D179*
X487426Y38100D03*
D164*
X507111Y38100D03*
D146*
X257937Y38354D03*
D89*
X282321Y38354D03*
D103*
X307467Y38354D03*
D187*
X345440Y38354D03*
D101*
X378714Y38354D03*
D115*
X391922Y38354D03*
D116*
X407670Y38354D03*
D117*
X422275Y38354D03*
D160*
X435737Y38354D03*
D129*
X448945Y38354D03*
D188*
X469646Y38354D03*
D115*
X487172Y38354D03*
D167*
X507238Y38354D03*
D184*
X258064Y38608D03*
D128*
X282194Y38608D03*
D100*
X307467Y38608D03*
D194*
X345313Y38608D03*
D87*
X378714Y38608D03*
D133*
X391668Y38608D03*
D116*
X407670Y38608D03*
D135*
X422148Y38608D03*
D162*
X435737Y38608D03*
D129*
X448945Y38608D03*
D100*
X469519Y38608D03*
D133*
X486918Y38608D03*
D110*
X507111Y38608D03*
D184*
X258064Y38862D03*
D185*
X282321Y38862D03*
D100*
X307467Y38862D03*
D65*
X345313Y38862D03*
D92*
X378587Y38862D03*
D132*
X407797Y38862D03*
D135*
X422148Y38862D03*
D149*
X435864Y38862D03*
D135*
X449072Y38862D03*
D100*
X469519Y38862D03*
D196*
X506984Y38862D03*
D184*
X258318Y39116D03*
D185*
X282321Y39116D03*
D126*
X299847Y39116D03*
D135*
X305816Y39116D03*
D107*
X312674Y39116D03*
D91*
X345186Y39116D03*
D182*
X378460Y39116D03*
D132*
X407797Y39116D03*
D135*
X422148Y39116D03*
D127*
X435737Y39116D03*
D129*
X449199Y39116D03*
D126*
X461899Y39116D03*
D135*
X467868Y39116D03*
D113*
X474853Y39116D03*
D196*
X506984Y39116D03*
D184*
X258318Y39370D03*
D185*
X282321Y39370D03*
D138*
X305689Y39370D03*
D107*
X312928Y39370D03*
D183*
X345059Y39370D03*
D118*
X378333Y39370D03*
D116*
X407924Y39370D03*
D135*
X422148Y39370D03*
D144*
X435864Y39370D03*
D129*
X449199Y39370D03*
D144*
X467614Y39370D03*
D107*
X474980Y39370D03*
D122*
X506984Y39370D03*
D150*
X258445Y39624D03*
D185*
X282321Y39624D03*
D115*
X305562Y39624D03*
D129*
X313055Y39624D03*
D181*
X344932Y39624D03*
D78*
X378206Y39624D03*
D116*
X407924Y39624D03*
D117*
X422021Y39624D03*
D138*
X435737Y39624D03*
D129*
X449199Y39624D03*
D115*
X467614Y39624D03*
D129*
X475107Y39624D03*
D172*
X506857Y39624D03*
D111*
X258572Y39878D03*
D121*
X282448Y39878D03*
D135*
X313182Y39878D03*
D177*
X344932Y39878D03*
D80*
X378333Y39878D03*
D116*
X407924Y39878D03*
D135*
X421894Y39878D03*
D151*
X435864Y39878D03*
D135*
X449326Y39878D03*
X475234Y39878D03*
D172*
X506857Y39878D03*
D111*
X258572Y40132D03*
D103*
X282321Y40132D03*
D117*
X313309Y40132D03*
D175*
X344805Y40132D03*
D98*
X378206Y40132D03*
D116*
X407924Y40132D03*
D135*
X421894Y40132D03*
D132*
X435737Y40132D03*
D129*
X449453Y40132D03*
D117*
X475361Y40132D03*
D95*
X506730Y40132D03*
D111*
X258826Y40386D03*
D103*
X282321Y40386D03*
D117*
X313309Y40386D03*
D83*
X344678Y40386D03*
D112*
X378079Y40386D03*
D125*
X408051Y40386D03*
D135*
X421894Y40386D03*
D132*
X435737Y40386D03*
D129*
X449453Y40386D03*
D117*
X475361Y40386D03*
D95*
X506730Y40386D03*
D111*
X258826Y40640D03*
D103*
X282321Y40640D03*
D140*
X313436Y40640D03*
D83*
X344678Y40640D03*
D108*
X377952Y40640D03*
D125*
X408051Y40640D03*
D117*
X421767Y40640D03*
D116*
X435864Y40640D03*
D135*
X449580Y40640D03*
D140*
X475488Y40640D03*
D97*
X506603Y40640D03*
D158*
X258953Y40894D03*
D103*
X282321Y40894D03*
D117*
X313563Y40894D03*
D173*
X344551Y40894D03*
D108*
X377952Y40894D03*
D125*
X408051Y40894D03*
D117*
X421767Y40894D03*
D116*
X435864Y40894D03*
D135*
X449580Y40894D03*
D140*
X475488Y40894D03*
D104*
X506476Y40894D03*
D102*
X259080Y41148D03*
D103*
X282321Y41148D03*
D140*
X313690Y41148D03*
D84*
X344424Y41148D03*
D147*
X377825Y41148D03*
D125*
X408051Y41148D03*
D117*
X421767Y41148D03*
D125*
X435737Y41148D03*
D117*
X449707Y41148D03*
D140*
X475742Y41148D03*
D104*
X506476Y41148D03*
D102*
X259080Y41402D03*
D103*
X282321Y41402D03*
D140*
X313690Y41402D03*
D84*
X344424Y41402D03*
D141*
X377698Y41402D03*
D125*
X408051Y41402D03*
D140*
X421640Y41402D03*
X435864Y41402D03*
D117*
X449707Y41402D03*
D140*
X475742Y41402D03*
D88*
X506349Y41402D03*
D164*
X259207Y41656D03*
D103*
X282321Y41656D03*
D125*
X313817Y41656D03*
D171*
X344297Y41656D03*
D141*
X377698Y41656D03*
D125*
X408051Y41656D03*
D140*
X421640Y41656D03*
X435864Y41656D03*
X449834Y41656D03*
X475742Y41656D03*
D104*
X506222Y41656D03*
D164*
X259207Y41910D03*
D188*
X282448Y41910D03*
D125*
X313817Y41910D03*
D168*
X344424Y41910D03*
D88*
X377571Y41910D03*
D125*
X408051Y41910D03*
X421513Y41910D03*
D140*
X435864Y41910D03*
X449834Y41910D03*
D116*
X475742Y41910D03*
D88*
X506095Y41910D03*
D167*
X259334Y42164D03*
D188*
X282448Y42164D03*
D125*
X313817Y42164D03*
D166*
X344297Y42164D03*
D88*
X377571Y42164D03*
D125*
X408051Y42164D03*
X421513Y42164D03*
D117*
X435737Y42164D03*
D125*
X449961Y42164D03*
D116*
X475742Y42164D03*
D141*
X505968Y42164D03*
D110*
X259461Y42418D03*
D103*
X282575Y42418D03*
D125*
X313817Y42418D03*
D166*
X344297Y42418D03*
D104*
X377444Y42418D03*
D140*
X407924Y42418D03*
D132*
X421513Y42418D03*
D117*
X435737Y42418D03*
D125*
X449961Y42418D03*
D116*
X475742Y42418D03*
D141*
X505968Y42418D03*
D110*
X259461Y42672D03*
D121*
X282448Y42672D03*
D116*
X313944Y42672D03*
D166*
X344043Y42672D03*
D104*
X377444Y42672D03*
D140*
X407924Y42672D03*
D132*
X421513Y42672D03*
D117*
X435737Y42672D03*
D116*
X450088Y42672D03*
X475742Y42672D03*
D141*
X505714Y42672D03*
D196*
X259588Y42926D03*
D121*
X282448Y42926D03*
D116*
X313944Y42926D03*
D165*
X343916Y42926D03*
D97*
X377317Y42926D03*
D117*
X407797Y42926D03*
D151*
X421386Y42926D03*
D117*
X435737Y42926D03*
D116*
X450088Y42926D03*
D132*
X475869Y42926D03*
D141*
X505714Y42926D03*
D196*
X259588Y43180D03*
D121*
X282448Y43180D03*
D116*
X313944Y43180D03*
D174*
X343662Y43180D03*
D172*
X377063Y43180D03*
D117*
X407797Y43180D03*
D151*
X421386Y43180D03*
D135*
X435864Y43180D03*
D132*
X450215Y43180D03*
X475869Y43180D03*
D141*
X505460Y43180D03*
D170*
X259715Y43434D03*
D121*
X282448Y43434D03*
D116*
X313944Y43434D03*
D169*
X343408Y43434D03*
D122*
X376682Y43434D03*
D135*
X407670Y43434D03*
D138*
X421259Y43434D03*
D135*
X435864Y43434D03*
D132*
X450215Y43434D03*
X475869Y43434D03*
D147*
X505333Y43434D03*
D122*
X259842Y43688D03*
D121*
X282448Y43688D03*
D132*
X313817Y43688D03*
D159*
X343281Y43688D03*
D170*
X376555Y43688D03*
D96*
X407035Y43688D03*
D144*
X421132Y43688D03*
D135*
X435864Y43688D03*
D132*
X450215Y43688D03*
X475869Y43688D03*
D172*
X504571Y43688D03*
D122*
X259842Y43942D03*
D185*
X282575Y43942D03*
D132*
X313817Y43942D03*
D156*
X343154Y43942D03*
D110*
X376301Y43942D03*
D118*
X406273Y43942D03*
D127*
X421259Y43942D03*
D135*
X435864Y43942D03*
D116*
X450088Y43942D03*
D151*
X475742Y43942D03*
D167*
X503682Y43942D03*
D172*
X259969Y44196D03*
D185*
X282575Y44196D03*
D132*
X313817Y44196D03*
D152*
X342900Y44196D03*
D167*
X376174Y44196D03*
D98*
X405638Y44196D03*
D144*
X421386Y44196D03*
D135*
X435864Y44196D03*
D116*
X450088Y44196D03*
D151*
X475742Y44196D03*
D158*
X503301Y44196D03*
D95*
X259842Y44450D03*
D185*
X282575Y44450D03*
D132*
X313817Y44450D03*
D148*
X342773Y44450D03*
D167*
X375920Y44450D03*
D147*
X405257Y44450D03*
D144*
X421386Y44450D03*
D135*
X435864Y44450D03*
D116*
X449834Y44450D03*
D151*
X475742Y44450D03*
D150*
X502793Y44450D03*
D97*
X259969Y44704D03*
D128*
X282448Y44704D03*
D132*
X313817Y44704D03*
D148*
X342519Y44704D03*
D164*
X375793Y44704D03*
D88*
X405003Y44704D03*
D144*
X421386Y44704D03*
D117*
X435737Y44704D03*
D116*
X449834Y44704D03*
D132*
X475615Y44704D03*
D184*
X502412Y44704D03*
D104*
X260096Y44958D03*
D89*
X282575Y44958D03*
D132*
X313563Y44958D03*
D157*
X342392Y44958D03*
D158*
X375539Y44958D03*
D97*
X404749Y44958D03*
D144*
X421640Y44958D03*
D117*
X435737Y44958D03*
D125*
X449707Y44958D03*
D151*
X475488Y44958D03*
D139*
X502158Y44958D03*
D104*
X260096Y45212D03*
D89*
X282575Y45212D03*
D132*
X313563Y45212D03*
D142*
X342265Y45212D03*
D111*
X375412Y45212D03*
D95*
X404622Y45212D03*
D138*
X421767Y45212D03*
D117*
X435737Y45212D03*
D140*
X449580Y45212D03*
D151*
X475488Y45212D03*
D89*
X501777Y45212D03*
D141*
X260096Y45466D03*
D89*
X282575Y45466D03*
D132*
X313563Y45466D03*
D153*
X342138Y45466D03*
D111*
X375158Y45466D03*
D172*
X404241Y45466D03*
D151*
X421894Y45466D03*
D117*
X435737Y45466D03*
D140*
X449326Y45466D03*
D151*
X475488Y45466D03*
D128*
X501650Y45466D03*
D147*
X260223Y45720D03*
D146*
X282575Y45720D03*
D132*
X313563Y45720D03*
D153*
X341884Y45720D03*
D150*
X375031Y45720D03*
D122*
X404114Y45720D03*
D138*
X422021Y45720D03*
D117*
X435737Y45720D03*
X449199Y45720D03*
D151*
X475488Y45720D03*
D185*
X501269Y45720D03*
D147*
X260223Y45974D03*
D146*
X282575Y45974D03*
D132*
X313309Y45974D03*
D137*
X341757Y45974D03*
D184*
X374904Y45974D03*
D170*
X403987Y45974D03*
D132*
X422275Y45974D03*
D135*
X435864Y45974D03*
X449072Y45974D03*
D132*
X475361Y45974D03*
D185*
X501015Y45974D03*
D112*
X260223Y46228D03*
D146*
X282575Y46228D03*
D132*
X313309Y46228D03*
D131*
X341630Y46228D03*
D139*
X374904Y46228D03*
D196*
X403606Y46228D03*
D116*
X422402Y46228D03*
D129*
X435991Y46228D03*
D107*
X448818Y46228D03*
D116*
X475488Y46228D03*
D121*
X500888Y46228D03*
D112*
X260223Y46482D03*
D146*
X282575Y46482D03*
D132*
X313309Y46482D03*
D143*
X341503Y46482D03*
D128*
X374904Y46482D03*
D110*
X403479Y46482D03*
D125*
X422529Y46482D03*
D106*
X436118Y46482D03*
D113*
X448437Y46482D03*
D140*
X475488Y46482D03*
D121*
X500634Y46482D03*
D112*
X260477Y46736D03*
D139*
X282448Y46736D03*
D116*
X313182Y46736D03*
D145*
X341376Y46736D03*
D185*
X375031Y46736D03*
D164*
X403479Y46736D03*
D135*
X422656Y46736D03*
D119*
X436245Y46736D03*
D101*
X448310Y46736D03*
D117*
X475615Y46736D03*
D188*
X500380Y46736D03*
D98*
X260604Y46990D03*
D128*
X282448Y46990D03*
D125*
X313309Y46990D03*
D114*
X341376Y46990D03*
D103*
X375031Y46990D03*
D139*
X402590Y46990D03*
D107*
X422656Y46990D03*
D78*
X436372Y46990D03*
D182*
X448056Y46990D03*
D129*
X475615Y46990D03*
D77*
X499364Y46990D03*
D112*
X260731Y47244D03*
D121*
X282448Y47244D03*
D117*
X313309Y47244D03*
D124*
X341376Y47244D03*
D193*
X375158Y47244D03*
D188*
X402082Y47244D03*
D101*
X422910Y47244D03*
D181*
X441960Y47244D03*
D107*
X475742Y47244D03*
D71*
X498729Y47244D03*
D112*
X260985Y47498D03*
D188*
X282448Y47498D03*
D129*
X313309Y47498D03*
D120*
X341376Y47498D03*
D90*
X375285Y47498D03*
D86*
X401955Y47498D03*
D182*
X423164Y47498D03*
D173*
X441579Y47498D03*
D96*
X475869Y47498D03*
D187*
X498348Y47498D03*
D108*
X261112Y47752D03*
D193*
X282448Y47752D03*
D107*
X313436Y47752D03*
D197*
X341503Y47752D03*
D71*
X375539Y47752D03*
D195*
X401701Y47752D03*
D198*
X435864Y47752D03*
D92*
X476123Y47752D03*
D194*
X497967Y47752D03*
D147*
X261493Y48006D03*
D77*
X282448Y48006D03*
D126*
X298831Y48006D03*
D149*
X304800Y48006D03*
D96*
X313563Y48006D03*
D81*
X341630Y48006D03*
D189*
X375793Y48006D03*
X401701Y48006D03*
D76*
X435737Y48006D03*
D179*
X460756Y48006D03*
D149*
X466852Y48006D03*
D78*
X476250Y48006D03*
D65*
X497713Y48006D03*
D141*
X261874Y48260D03*
D190*
X282448Y48260D03*
D162*
X299085Y48260D03*
D140*
X304800Y48260D03*
D92*
X313563Y48260D03*
D199*
X341757Y48260D03*
D187*
X375666Y48260D03*
D186*
X401828Y48260D03*
D200*
X435737Y48260D03*
D155*
X461010Y48260D03*
D140*
X466852Y48260D03*
D98*
X476250Y48260D03*
D91*
X497332Y48260D03*
D104*
X262128Y48514D03*
D186*
X282448Y48514D03*
D97*
X302641Y48514D03*
D78*
X313690Y48514D03*
D201*
X342011Y48514D03*
D186*
X375666Y48514D03*
D181*
X401828Y48514D03*
D64*
X435864Y48514D03*
D97*
X464693Y48514D03*
D108*
X476250Y48514D03*
D183*
X496951Y48514D03*
D172*
X262763Y48768D03*
D175*
X282575Y48768D03*
D166*
X307721Y48768D03*
D202*
X342392Y48768D03*
D65*
X375793Y48768D03*
D173*
X402209Y48768D03*
D203*
X435991Y48768D03*
D166*
X469773Y48768D03*
D181*
X496824Y48768D03*
D204*
X288925Y49022D03*
D205*
X343281Y49022D03*
D181*
X375920Y49022D03*
D206*
X436118Y49022D03*
D181*
X496570Y49022D03*
D207*
X289306Y49276D03*
D76*
X343281Y49276D03*
D178*
X376047Y49276D03*
D208*
X436245Y49276D03*
D178*
X496189Y49276D03*
D209*
X289687Y49530D03*
D210*
X343535Y49530D03*
D175*
X376301Y49530D03*
D211*
X436372Y49530D03*
D177*
X496062Y49530D03*
D212*
X290068Y49784D03*
D64*
X343662Y49784D03*
D166*
X376301Y49784D03*
D213*
X436626Y49784D03*
D177*
X495808Y49784D03*
D214*
X382143Y50038D03*
D215*
X382016Y50292D03*
D216*
X382016Y50546D03*
D217*
X382143Y50800D03*
D218*
X382016Y51054D03*
D219*
X382143Y51308D03*
D220*
X382016Y51562D03*
D221*
X382016Y51816D03*
D222*
X382143Y52070D03*
D223*
X382016Y52324D03*
D224*
X382143Y52578D03*
D225*
X382016Y52832D03*
D226*
X382016Y53086D03*
D227*
X382143Y53340D03*
D228*
X382016Y53594D03*
D229*
X382143Y53848D03*
D230*
X382143Y54102D03*
D231*
X382016Y54356D03*
D232*
X382143Y54610D03*
D233*
X382016Y54864D03*
D234*
X382143Y55118D03*
D235*
X382143Y55372D03*
D236*
X382016Y55626D03*
D237*
X382143Y55880D03*
D238*
X382016Y56134D03*
D239*
X382143Y56388D03*
D240*
X382143Y56642D03*
D241*
X382016Y56896D03*
D242*
X382143Y57150D03*
D243*
X382016Y57404D03*
D244*
X382016Y57658D03*
D245*
X382143Y57912D03*
D246*
X382016Y58166D03*
D247*
X382143Y58420D03*
D248*
X382016Y58674D03*
D249*
X382016Y58928D03*
D250*
X382143Y59182D03*
D251*
X382016Y59436D03*
D252*
X382143Y59690D03*
D253*
X382016Y59944D03*
D254*
X382016Y60198D03*
D255*
X382143Y60452D03*
D256*
X382016Y60706D03*
D257*
X382143Y60960D03*
D258*
X382016Y61214D03*
D259*
X382016Y61468D03*
D201*
X280543Y61722D03*
D260*
X322707Y61722D03*
D261*
X374777Y61722D03*
D262*
X450088Y61722D03*
D94*
X280162Y61976D03*
D263*
X322707Y61976D03*
D264*
X374650Y61976D03*
D265*
X450215Y61976D03*
D109*
X280035Y62230D03*
D266*
X322707Y62230D03*
D267*
X374650Y62230D03*
D268*
X428625Y62230D03*
D269*
X478155Y62230D03*
D93*
X279908Y62484D03*
D270*
X322707Y62484D03*
D271*
X374650Y62484D03*
D123*
X416433Y62484D03*
D178*
X444373Y62484D03*
D272*
X478282Y62484D03*
D120*
X279908Y62738D03*
D273*
X322961Y62738D03*
D274*
X374904Y62738D03*
D157*
X416306Y62738D03*
D194*
X444627Y62738D03*
D275*
X478409Y62738D03*
D124*
X279908Y62992D03*
D276*
X323342Y62992D03*
D175*
X363347Y62992D03*
D196*
X384048Y62992D03*
D101*
X394462Y62992D03*
D169*
X416560Y62992D03*
D190*
X444754Y62992D03*
D277*
X478663Y62992D03*
D134*
X279781Y63246D03*
D127*
X303149Y63246D03*
D278*
X325882Y63246D03*
D144*
X355600Y63246D03*
D185*
X365633Y63246D03*
D104*
X384048Y63246D03*
D113*
X394589Y63246D03*
D138*
X407797Y63246D03*
D195*
X419481Y63246D03*
X444881Y63246D03*
D203*
X478917Y63246D03*
D123*
X279781Y63500D03*
D178*
X316611Y63500D03*
D77*
X337058Y63500D03*
D146*
X365633Y63500D03*
D130*
X379984Y63500D03*
D135*
X385572Y63500D03*
D129*
X394589Y63500D03*
D86*
X419481Y63500D03*
D90*
X444881Y63500D03*
D279*
X481076Y63500D03*
D143*
X279781Y63754D03*
D189*
X316103Y63754D03*
D103*
X337693Y63754D03*
D102*
X365760Y63754D03*
D149*
X385572Y63754D03*
D117*
X394589Y63754D03*
D132*
X413639Y63754D03*
D98*
X423164Y63754D03*
D193*
X445008Y63754D03*
D280*
X481330Y63754D03*
D131*
X279654Y64008D03*
D90*
X316103Y64008D03*
D185*
X337947Y64008D03*
D110*
X365887Y64008D03*
D140*
X394716Y64008D03*
D155*
X413512Y64008D03*
D87*
X423672Y64008D03*
D100*
X445135Y64008D03*
D281*
X481457Y64008D03*
D137*
X279781Y64262D03*
D116*
X310388Y64262D03*
D104*
X319024Y64262D03*
D139*
X338074Y64262D03*
D125*
X362839Y64262D03*
D135*
X368808Y64262D03*
D125*
X394589Y64262D03*
D179*
X413766Y64262D03*
D96*
X423799Y64262D03*
D188*
X445008Y64262D03*
D144*
X467614Y64262D03*
D143*
X484251Y64262D03*
D153*
X279654Y64516D03*
D105*
X310388Y64516D03*
D147*
X318897Y64516D03*
D146*
X338201Y64516D03*
D105*
X362712Y64516D03*
D140*
X368808Y64516D03*
D116*
X394716Y64516D03*
D107*
X423926Y64516D03*
D121*
X445008Y64516D03*
D131*
X484124Y64516D03*
D142*
X279781Y64770D03*
D112*
X318643Y64770D03*
D150*
X338201Y64770D03*
D125*
X368935Y64770D03*
D151*
X394716Y64770D03*
D135*
X424180Y64770D03*
D185*
X445135Y64770D03*
D137*
X484251Y64770D03*
D157*
X279908Y65024D03*
D80*
X318643Y65024D03*
D150*
X338201Y65024D03*
D116*
X368808Y65024D03*
D151*
X394716Y65024D03*
D140*
X424180Y65024D03*
D128*
X445008Y65024D03*
D142*
X484251Y65024D03*
D148*
X279781Y65278D03*
D118*
X318643Y65278D03*
D150*
X338201Y65278D03*
D151*
X368808Y65278D03*
D138*
X394843Y65278D03*
D125*
X424307Y65278D03*
D89*
X445135Y65278D03*
D148*
X484251Y65278D03*
D152*
X279908Y65532D03*
D182*
X318516Y65532D03*
D111*
X338074Y65532D03*
D138*
X368935Y65532D03*
X394843Y65532D03*
D116*
X424434Y65532D03*
D89*
X445135Y65532D03*
D148*
X484251Y65532D03*
D152*
X279908Y65786D03*
D87*
X318516Y65786D03*
D111*
X338074Y65786D03*
D138*
X368935Y65786D03*
D144*
X394716Y65786D03*
D132*
X424561Y65786D03*
D128*
X445008Y65786D03*
D154*
X484251Y65786D03*
D159*
X279781Y66040D03*
D119*
X318389Y66040D03*
D102*
X337820Y66040D03*
D127*
X368935Y66040D03*
D149*
X394716Y66040D03*
D132*
X424815Y66040D03*
D89*
X444881Y66040D03*
D159*
X484251Y66040D03*
D161*
X279781Y66294D03*
D96*
X318389Y66294D03*
D164*
X337693Y66294D03*
D127*
X368935Y66294D03*
D155*
X394462Y66294D03*
D132*
X424815Y66294D03*
D128*
X444754Y66294D03*
D161*
X484505Y66294D03*
D174*
X279654Y66548D03*
D96*
X318389Y66548D03*
D167*
X337566Y66548D03*
D144*
X369062Y66548D03*
D160*
X394335Y66548D03*
D151*
X424942Y66548D03*
D128*
X444754Y66548D03*
D163*
X484505Y66548D03*
D165*
X279654Y66802D03*
D113*
X318389Y66802D03*
D196*
X337566Y66802D03*
D127*
X369189Y66802D03*
D105*
X394208Y66802D03*
D132*
X425069Y66802D03*
D128*
X444754Y66802D03*
D165*
X484632Y66802D03*
D166*
X279527Y67056D03*
D113*
X318389Y67056D03*
D196*
X337566Y67056D03*
D144*
X369316Y67056D03*
D176*
X394335Y67056D03*
D151*
X425196Y67056D03*
D185*
X444627Y67056D03*
D168*
X484632Y67056D03*
X279654Y67310D03*
D107*
X318262Y67310D03*
D170*
X337439Y67310D03*
D144*
X369316Y67310D03*
D130*
X394208Y67310D03*
D151*
X425196Y67310D03*
D185*
X444627Y67310D03*
D171*
X484505Y67310D03*
D84*
X279654Y67564D03*
D107*
X318262Y67564D03*
D122*
X337312Y67564D03*
D144*
X369316Y67564D03*
D126*
X394081Y67564D03*
D132*
X425323Y67564D03*
D185*
X444627Y67564D03*
D84*
X484632Y67564D03*
X279654Y67818D03*
D107*
X318262Y67818D03*
D122*
X337312Y67818D03*
D144*
X369570Y67818D03*
D126*
X394081Y67818D03*
D116*
X425196Y67818D03*
D185*
X444627Y67818D03*
D83*
X484632Y67818D03*
X279654Y68072D03*
D107*
X318262Y68072D03*
D95*
X337312Y68072D03*
D144*
X369570Y68072D03*
D179*
X393954Y68072D03*
D116*
X425196Y68072D03*
D185*
X444627Y68072D03*
D83*
X484632Y68072D03*
X279654Y68326D03*
D129*
X318135Y68326D03*
D95*
X337312Y68326D03*
D144*
X369570Y68326D03*
D179*
X393954Y68326D03*
D125*
X425069Y68326D03*
D185*
X444627Y68326D03*
D177*
X484632Y68326D03*
D175*
X279781Y68580D03*
D129*
X318135Y68580D03*
D95*
X337312Y68580D03*
D144*
X369570Y68580D03*
D179*
X393954Y68580D03*
D125*
X425069Y68580D03*
D121*
X444500Y68580D03*
D178*
X484505Y68580D03*
D177*
X279908Y68834D03*
D107*
X318262Y68834D03*
D97*
X337439Y68834D03*
D138*
X369697Y68834D03*
D126*
X393827Y68834D03*
D117*
X425069Y68834D03*
D121*
X444500Y68834D03*
D178*
X484505Y68834D03*
D177*
X279908Y69088D03*
D107*
X318262Y69088D03*
D97*
X337439Y69088D03*
D138*
X369697Y69088D03*
D126*
X393827Y69088D03*
D117*
X425069Y69088D03*
D103*
X444627Y69088D03*
D183*
X484505Y69088D03*
D177*
X280162Y69342D03*
D113*
X318389Y69342D03*
D95*
X337566Y69342D03*
D138*
X369697Y69342D03*
D130*
X393954Y69342D03*
D117*
X425069Y69342D03*
D103*
X444627Y69342D03*
D183*
X484505Y69342D03*
D177*
X280162Y69596D03*
D113*
X318389Y69596D03*
D97*
X337693Y69596D03*
D151*
X369570Y69596D03*
D130*
X393954Y69596D03*
D135*
X424942Y69596D03*
D103*
X444627Y69596D03*
D91*
X484378Y69596D03*
D177*
X280416Y69850D03*
D106*
X318516Y69850D03*
D95*
X337820Y69850D03*
D151*
X369570Y69850D03*
D176*
X394081Y69850D03*
D135*
X424942Y69850D03*
D188*
X444754Y69850D03*
D65*
X484251Y69850D03*
D178*
X280543Y70104D03*
D96*
X318643Y70104D03*
D97*
X337947Y70104D03*
D151*
X369570Y70104D03*
D160*
X394081Y70104D03*
D135*
X424942Y70104D03*
D188*
X444754Y70104D03*
D65*
X484251Y70104D03*
D177*
X280670Y70358D03*
D101*
X318770Y70358D03*
D95*
X338074Y70358D03*
D132*
X369697Y70358D03*
D160*
X394081Y70358D03*
D135*
X424942Y70358D03*
D100*
X444881Y70358D03*
D186*
X484124Y70358D03*
D178*
X280797Y70612D03*
D87*
X318770Y70612D03*
D97*
X338201Y70612D03*
D132*
X369697Y70612D03*
D160*
X394081Y70612D03*
D129*
X424815Y70612D03*
D193*
X445008Y70612D03*
D186*
X484124Y70612D03*
D177*
X280924Y70866D03*
D92*
X318897Y70866D03*
D95*
X338328Y70866D03*
D116*
X369570Y70866D03*
D162*
X394081Y70866D03*
D129*
X424815Y70866D03*
D193*
X445262Y70866D03*
D186*
X483870Y70866D03*
D178*
X281051Y71120D03*
D92*
X318897Y71120D03*
D97*
X338455Y71120D03*
D116*
X369570Y71120D03*
D162*
X394081Y71120D03*
D129*
X424815Y71120D03*
D193*
X445516Y71120D03*
D186*
X483616Y71120D03*
D181*
X281178Y71374D03*
D118*
X318897Y71374D03*
D95*
X338582Y71374D03*
D116*
X369570Y71374D03*
D127*
X394081Y71374D03*
D129*
X424815Y71374D03*
D193*
X445770Y71374D03*
D65*
X483489Y71374D03*
D178*
X281305Y71628D03*
D78*
X319024Y71628D03*
D97*
X338709Y71628D03*
D125*
X369443Y71628D03*
D144*
X393954Y71628D03*
D129*
X424815Y71628D03*
D86*
X445897Y71628D03*
D162*
X457327Y71628D03*
D65*
X483235Y71628D03*
D181*
X281432Y71882D03*
D80*
X318897Y71882D03*
D104*
X338836Y71882D03*
D140*
X369316Y71882D03*
D144*
X393954Y71882D03*
D115*
X405130Y71882D03*
D129*
X424815Y71882D03*
D83*
X448564Y71882D03*
D91*
X483108Y71882D03*
D183*
X281559Y72136D03*
D115*
X301244Y72136D03*
D98*
X319024Y72136D03*
D97*
X338963Y72136D03*
D115*
X353568Y72136D03*
D140*
X369316Y72136D03*
D149*
X386588Y72136D03*
D151*
X393954Y72136D03*
D176*
X405765Y72136D03*
D129*
X424815Y72136D03*
D84*
X449072Y72136D03*
D91*
X482854Y72136D03*
D181*
X281686Y72390D03*
D126*
X301625Y72390D03*
D112*
X318897Y72390D03*
D104*
X339090Y72390D03*
D126*
X353949Y72390D03*
D117*
X369189Y72390D03*
D135*
X386588Y72390D03*
D132*
X393827Y72390D03*
D160*
X406273Y72390D03*
D129*
X424815Y72390D03*
D168*
X449580Y72390D03*
D91*
X482600Y72390D03*
D183*
X281813Y72644D03*
D176*
X302133Y72644D03*
D149*
X306578Y72644D03*
D147*
X318897Y72644D03*
D88*
X339217Y72644D03*
D176*
X354457Y72644D03*
D149*
X358902Y72644D03*
D135*
X369062Y72644D03*
D119*
X386461Y72644D03*
D116*
X393700Y72644D03*
D162*
X406527Y72644D03*
X411353Y72644D03*
D129*
X424815Y72644D03*
D166*
X450215Y72644D03*
D183*
X482473Y72644D03*
X281813Y72898D03*
D92*
X305181Y72898D03*
D141*
X318770Y72898D03*
X339344Y72898D03*
D92*
X357505Y72898D03*
D117*
X368935Y72898D03*
D133*
X380746Y72898D03*
D150*
X389001Y72898D03*
D87*
X408940Y72898D03*
D129*
X424815Y72898D03*
D171*
X450215Y72898D03*
D183*
X482219Y72898D03*
D91*
X281940Y73152D03*
D78*
X305562Y73152D03*
D104*
X318770Y73152D03*
D88*
X339471Y73152D03*
D78*
X357886Y73152D03*
D135*
X368808Y73152D03*
D185*
X388493Y73152D03*
D119*
X409067Y73152D03*
D129*
X424815Y73152D03*
D173*
X450215Y73152D03*
D183*
X482219Y73152D03*
D65*
X282067Y73406D03*
D98*
X306070Y73406D03*
D97*
X318643Y73406D03*
D141*
X339598Y73406D03*
D98*
X358394Y73406D03*
D129*
X368681Y73406D03*
D128*
X388620Y73406D03*
D119*
X409067Y73406D03*
D129*
X424815Y73406D03*
D83*
X450342Y73406D03*
D183*
X481965Y73406D03*
D91*
X282194Y73660D03*
D108*
X306324Y73660D03*
D172*
X318643Y73660D03*
D147*
X339725Y73660D03*
D108*
X358648Y73660D03*
D113*
X368427Y73660D03*
D128*
X388620Y73660D03*
D101*
X408940Y73660D03*
D135*
X424688Y73660D03*
D175*
X450469Y73660D03*
D183*
X481711Y73660D03*
D65*
X282321Y73914D03*
D147*
X306705Y73914D03*
D170*
X318389Y73914D03*
D147*
X339725Y73914D03*
X359029Y73914D03*
D106*
X368300Y73914D03*
D128*
X388620Y73914D03*
D96*
X409067Y73914D03*
D135*
X424688Y73914D03*
D178*
X450723Y73914D03*
D183*
X481711Y73914D03*
D65*
X282321Y74168D03*
D168*
X313182Y74168D03*
D147*
X339725Y74168D03*
D90*
X362839Y74168D03*
D128*
X388620Y74168D03*
D96*
X409067Y74168D03*
D117*
X424815Y74168D03*
D183*
X450723Y74168D03*
X481457Y74168D03*
D186*
X282448Y74422D03*
D168*
X313182Y74422D03*
D108*
X339852Y74422D03*
D192*
X362966Y74422D03*
D89*
X388747Y74422D03*
D113*
X409067Y74422D03*
D117*
X424815Y74422D03*
D65*
X450977Y74422D03*
D183*
X481457Y74422D03*
D194*
X282575Y74676D03*
D171*
X313309Y74676D03*
D108*
X339852Y74676D03*
D86*
X362839Y74676D03*
D89*
X388747Y74676D03*
D113*
X409067Y74676D03*
D117*
X424815Y74676D03*
D186*
X451104Y74676D03*
D183*
X481203Y74676D03*
D194*
X282575Y74930D03*
D168*
X313436Y74930D03*
D108*
X339852Y74930D03*
D193*
X362966Y74930D03*
D89*
X388747Y74930D03*
D107*
X409194Y74930D03*
D117*
X424815Y74930D03*
D189*
X451231Y74930D03*
D91*
X481076Y74930D03*
D187*
X282702Y75184D03*
D171*
X313563Y75184D03*
D108*
X339852Y75184D03*
D193*
X362966Y75184D03*
D139*
X388874Y75184D03*
D107*
X409194Y75184D03*
D117*
X424815Y75184D03*
D71*
X451485Y75184D03*
D183*
X480949Y75184D03*
D189*
X282575Y75438D03*
D171*
X313563Y75438D03*
D108*
X339852Y75438D03*
D193*
X362966Y75438D03*
D139*
X388874Y75438D03*
D129*
X409321Y75438D03*
D140*
X424942Y75438D03*
D77*
X451612Y75438D03*
D91*
X480822Y75438D03*
D190*
X282702Y75692D03*
D171*
X313563Y75692D03*
D108*
X339852Y75692D03*
D193*
X362966Y75692D03*
D139*
X388874Y75692D03*
D129*
X409321Y75692D03*
D140*
X424942Y75692D03*
D192*
X451866Y75692D03*
D65*
X480695Y75692D03*
D71*
X282829Y75946D03*
D168*
X313690Y75946D03*
D112*
X339725Y75946D03*
D193*
X362966Y75946D03*
D139*
X388874Y75946D03*
D107*
X409194Y75946D03*
D140*
X424942Y75946D03*
D86*
X451739Y75946D03*
D91*
X480568Y75946D03*
D71*
X282829Y76200D03*
D168*
X313690Y76200D03*
D98*
X339852Y76200D03*
D193*
X362966Y76200D03*
D89*
X388747Y76200D03*
D113*
X409321Y76200D03*
D140*
X424942Y76200D03*
D193*
X451866Y76200D03*
D65*
X480441Y76200D03*
D191*
X282956Y76454D03*
D168*
X313690Y76454D03*
D98*
X339852Y76454D03*
D86*
X363093Y76454D03*
D139*
X388620Y76454D03*
D113*
X409321Y76454D03*
D135*
X424942Y76454D03*
D188*
X451866Y76454D03*
D65*
X480441Y76454D03*
D191*
X282956Y76708D03*
D166*
X313563Y76708D03*
D98*
X339852Y76708D03*
D86*
X363093Y76708D03*
D89*
X388747Y76708D03*
D113*
X409321Y76708D03*
D135*
X424942Y76708D03*
D103*
X451993Y76708D03*
D65*
X480187Y76708D03*
D195*
X283083Y76962D03*
D165*
X313690Y76962D03*
D112*
X339979Y76962D03*
D192*
X362966Y76962D03*
D128*
X388620Y76962D03*
D113*
X409321Y76962D03*
D129*
X424815Y76962D03*
D121*
X451866Y76962D03*
D186*
X480060Y76962D03*
D195*
X283337Y77216D03*
D166*
X313563Y77216D03*
D98*
X340106Y77216D03*
D192*
X362966Y77216D03*
D128*
X388620Y77216D03*
D106*
X409194Y77216D03*
D129*
X424815Y77216D03*
D185*
X451993Y77216D03*
D186*
X480060Y77216D03*
D195*
X283337Y77470D03*
D168*
X313436Y77470D03*
D98*
X340106Y77470D03*
D192*
X362966Y77470D03*
D128*
X388620Y77470D03*
D106*
X409194Y77470D03*
D129*
X424815Y77470D03*
D89*
X451993Y77470D03*
D194*
X479933Y77470D03*
D195*
X283591Y77724D03*
D168*
X313436Y77724D03*
D112*
X340233Y77724D03*
D90*
X363093Y77724D03*
D185*
X388747Y77724D03*
D106*
X409194Y77724D03*
D107*
X424688Y77724D03*
D146*
X451993Y77724D03*
D194*
X479933Y77724D03*
D195*
X283591Y77978D03*
D171*
X313309Y77978D03*
D98*
X340360Y77978D03*
D90*
X363093Y77978D03*
D185*
X388747Y77978D03*
D106*
X409194Y77978D03*
D113*
X424815Y77978D03*
D184*
X452120Y77978D03*
D194*
X479679Y77978D03*
D77*
X283718Y78232D03*
D171*
X313309Y78232D03*
D98*
X340360Y78232D03*
D90*
X363093Y78232D03*
D103*
X388747Y78232D03*
D106*
X409194Y78232D03*
D113*
X424815Y78232D03*
D111*
X452120Y78232D03*
D187*
X479552Y78232D03*
D77*
X283972Y78486D03*
D84*
X313182Y78486D03*
D112*
X340487Y78486D03*
D90*
X363093Y78486D03*
D103*
X388747Y78486D03*
D106*
X409194Y78486D03*
X424688Y78486D03*
D102*
X452120Y78486D03*
D186*
X479298Y78486D03*
D77*
X283972Y78740D03*
D173*
X313055Y78740D03*
D98*
X340614Y78740D03*
D90*
X363093Y78740D03*
D103*
X388747Y78740D03*
D106*
X409194Y78740D03*
X424688Y78740D03*
D167*
X452120Y78740D03*
D186*
X479044Y78740D03*
D90*
X284099Y78994D03*
D83*
X312928Y78994D03*
D98*
X340614Y78994D03*
D90*
X363093Y78994D03*
D103*
X388747Y78994D03*
D106*
X409194Y78994D03*
X424688Y78994D03*
D170*
X452247Y78994D03*
D65*
X478917Y78994D03*
D90*
X284099Y79248D03*
D83*
X312928Y79248D03*
D98*
X340868Y79248D03*
D90*
X363093Y79248D03*
D188*
X388874Y79248D03*
D106*
X409194Y79248D03*
X424688Y79248D03*
D172*
X452247Y79248D03*
D65*
X478663Y79248D03*
D90*
X284353Y79502D03*
D175*
X312801Y79502D03*
D98*
X340868Y79502D03*
D90*
X363093Y79502D03*
D188*
X388874Y79502D03*
D106*
X409194Y79502D03*
X424688Y79502D03*
D104*
X452374Y79502D03*
D65*
X478409Y79502D03*
D192*
X284480Y79756D03*
D177*
X312674Y79756D03*
D80*
X340995Y79756D03*
D90*
X363093Y79756D03*
D188*
X388874Y79756D03*
D106*
X409194Y79756D03*
D96*
X424561Y79756D03*
D141*
X452374Y79756D03*
D91*
X478282Y79756D03*
D192*
X284480Y80010D03*
D178*
X312547Y80010D03*
D80*
X340995Y80010D03*
D90*
X363093Y80010D03*
D188*
X388874Y80010D03*
D113*
X409067Y80010D03*
D96*
X424561Y80010D03*
D112*
X452501Y80010D03*
D65*
X478155Y80010D03*
D86*
X284607Y80264D03*
D181*
X312420Y80264D03*
D80*
X341249Y80264D03*
D90*
X363093Y80264D03*
D100*
X389001Y80264D03*
D113*
X409067Y80264D03*
D96*
X424561Y80264D03*
D80*
X452501Y80264D03*
D91*
X478028Y80264D03*
D193*
X284734Y80518D03*
D183*
X312293Y80518D03*
D78*
X341376Y80518D03*
D192*
X363220Y80518D03*
D100*
X389001Y80518D03*
D107*
X409194Y80518D03*
D96*
X424561Y80518D03*
D118*
X452755Y80518D03*
D91*
X477774Y80518D03*
D86*
X284861Y80772D03*
D65*
X312293Y80772D03*
D78*
X341376Y80772D03*
D192*
X363220Y80772D03*
D100*
X389001Y80772D03*
D107*
X409194Y80772D03*
D96*
X424561Y80772D03*
D92*
X453009Y80772D03*
D91*
X477520Y80772D03*
D193*
X284988Y81026D03*
D186*
X312166Y81026D03*
D118*
X341503Y81026D03*
D192*
X363220Y81026D03*
D100*
X389001Y81026D03*
D107*
X409194Y81026D03*
D96*
X424561Y81026D03*
D119*
X453263Y81026D03*
D91*
X477520Y81026D03*
D193*
X284988Y81280D03*
D187*
X311912Y81280D03*
D182*
X341630Y81280D03*
D192*
X363220Y81280D03*
D100*
X389001Y81280D03*
D129*
X409067Y81280D03*
D106*
X424434Y81280D03*
X453644Y81280D03*
D91*
X477266Y81280D03*
D100*
X285115Y81534D03*
D189*
X311785Y81534D03*
D182*
X341630Y81534D03*
D86*
X363347Y81534D03*
D100*
X389001Y81534D03*
D135*
X409194Y81534D03*
D106*
X424434Y81534D03*
D113*
X453517Y81534D03*
D91*
X477266Y81534D03*
D188*
X285242Y81788D03*
D190*
X311912Y81788D03*
D92*
X341757Y81788D03*
D86*
X363347Y81788D03*
D100*
X389001Y81788D03*
D135*
X409194Y81788D03*
D106*
X424434Y81788D03*
D113*
X453517Y81788D03*
D91*
X477012Y81788D03*
D188*
X285242Y82042D03*
D190*
X311912Y82042D03*
D87*
X341884Y82042D03*
D86*
X363347Y82042D03*
D100*
X389001Y82042D03*
D117*
X409067Y82042D03*
D106*
X424434Y82042D03*
D113*
X453517Y82042D03*
D65*
X476885Y82042D03*
D103*
X285369Y82296D03*
D71*
X311785Y82296D03*
D119*
X342011Y82296D03*
D193*
X363220Y82296D03*
D100*
X389001Y82296D03*
D140*
X409194Y82296D03*
D106*
X424434Y82296D03*
D113*
X453517Y82296D03*
D91*
X476758Y82296D03*
D103*
X285369Y82550D03*
D191*
X311912Y82550D03*
D119*
X342011Y82550D03*
D100*
X363347Y82550D03*
D188*
X389128Y82550D03*
D140*
X409194Y82550D03*
D113*
X424307Y82550D03*
D107*
X453390Y82550D03*
D65*
X476631Y82550D03*
D121*
X285496Y82804D03*
D191*
X311912Y82804D03*
D119*
X342011Y82804D03*
D100*
X363347Y82804D03*
D188*
X389128Y82804D03*
D125*
X409067Y82804D03*
D113*
X424307Y82804D03*
D107*
X453390Y82804D03*
D91*
X476504Y82804D03*
D128*
X285496Y83058D03*
D195*
X311785Y83058D03*
D101*
X342138Y83058D03*
D188*
X363474Y83058D03*
X389128Y83058D03*
D116*
X409194Y83058D03*
D113*
X424307Y83058D03*
D115*
X437388Y83058D03*
D107*
X453390Y83058D03*
D65*
X476377Y83058D03*
D128*
X285496Y83312D03*
D77*
X311912Y83312D03*
D101*
X342138Y83312D03*
D188*
X363474Y83312D03*
X389128Y83312D03*
D132*
X409067Y83312D03*
D113*
X424307Y83312D03*
D179*
X437642Y83312D03*
D129*
X453263Y83312D03*
D186*
X476250Y83312D03*
D89*
X285623Y83566D03*
D90*
X311785Y83566D03*
D96*
X342011Y83566D03*
D103*
X363347Y83566D03*
X389001Y83566D03*
D151*
X409194Y83566D03*
D129*
X424307Y83566D03*
D130*
X437896Y83566D03*
D129*
X453263Y83566D03*
D65*
X476123Y83566D03*
D89*
X285623Y83820D03*
D192*
X311912Y83820D03*
D96*
X342011Y83820D03*
D121*
X363474Y83820D03*
X389128Y83820D03*
D151*
X409194Y83820D03*
D129*
X424307Y83820D03*
D176*
X438277Y83820D03*
D135*
X453136Y83820D03*
D186*
X475996Y83820D03*
D139*
X285750Y84074D03*
D86*
X311785Y84074D03*
D96*
X342011Y84074D03*
D121*
X363474Y84074D03*
X389128Y84074D03*
D151*
X409194Y84074D03*
D129*
X424307Y84074D03*
D105*
X438404Y84074D03*
D135*
X453136Y84074D03*
D194*
X475869Y84074D03*
D146*
X285877Y84328D03*
D86*
X311785Y84328D03*
D96*
X342011Y84328D03*
D121*
X363474Y84328D03*
X389128Y84328D03*
D151*
X409194Y84328D03*
D129*
X424307Y84328D03*
D155*
X438658Y84328D03*
D117*
X453009Y84328D03*
D186*
X475742Y84328D03*
D146*
X285877Y84582D03*
D193*
X311658Y84582D03*
D106*
X342138Y84582D03*
D185*
X363347Y84582D03*
D121*
X389128Y84582D03*
D132*
X409321Y84582D03*
D129*
X424307Y84582D03*
D162*
X438785Y84582D03*
D117*
X453009Y84582D03*
D194*
X475615Y84582D03*
D150*
X285877Y84836D03*
D86*
X311531Y84836D03*
D106*
X342138Y84836D03*
D185*
X363347Y84836D03*
D121*
X389128Y84836D03*
D132*
X409321Y84836D03*
D129*
X424307Y84836D03*
D127*
X439039Y84836D03*
D117*
X452755Y84836D03*
D194*
X475615Y84836D03*
D150*
X285877Y85090D03*
D193*
X311404Y85090D03*
D106*
X342138Y85090D03*
D121*
X363220Y85090D03*
X389128Y85090D03*
D116*
X409194Y85090D03*
D107*
X424434Y85090D03*
D144*
X439166Y85090D03*
D140*
X452882Y85090D03*
D194*
X475361Y85090D03*
D150*
X286131Y85344D03*
D193*
X311404Y85344D03*
D106*
X342138Y85344D03*
D103*
X363347Y85344D03*
D121*
X389128Y85344D03*
D116*
X409194Y85344D03*
D107*
X424434Y85344D03*
D149*
X438658Y85344D03*
D116*
X452882Y85344D03*
D187*
X475234Y85344D03*
D111*
X286258Y85598D03*
D80*
X307467Y85598D03*
D96*
X316103Y85598D03*
D106*
X342392Y85598D03*
D80*
X359791Y85598D03*
D113*
X368173Y85598D03*
D103*
X389255Y85598D03*
D125*
X409321Y85598D03*
D106*
X424434Y85598D03*
D176*
X438023Y85598D03*
D116*
X452882Y85598D03*
D194*
X475107Y85598D03*
D150*
X286385Y85852D03*
D182*
X307086Y85852D03*
D113*
X316103Y85852D03*
D106*
X342392Y85852D03*
D182*
X359410Y85852D03*
D113*
X368427Y85852D03*
D103*
X389255Y85852D03*
D125*
X409321Y85852D03*
D106*
X424434Y85852D03*
D126*
X437769Y85852D03*
D132*
X452755Y85852D03*
D194*
X474853Y85852D03*
D111*
X286512Y86106D03*
D87*
X306832Y86106D03*
D107*
X316230Y86106D03*
D106*
X342646Y86106D03*
D87*
X359156Y86106D03*
D129*
X368681Y86106D03*
D188*
X389382Y86106D03*
D125*
X409321Y86106D03*
D106*
X424434Y86106D03*
D180*
X437515Y86106D03*
D138*
X452755Y86106D03*
D186*
X474726Y86106D03*
D150*
X286639Y86360D03*
D96*
X306451Y86360D03*
D117*
X316357Y86360D03*
D106*
X342646Y86360D03*
D96*
X358775Y86360D03*
D135*
X368808Y86360D03*
D100*
X389255Y86360D03*
D125*
X409321Y86360D03*
D96*
X424307Y86360D03*
D136*
X437261Y86360D03*
D144*
X452628Y86360D03*
D186*
X474472Y86360D03*
D111*
X286766Y86614D03*
D115*
X303276Y86614D03*
D162*
X307467Y86614D03*
D140*
X316230Y86614D03*
D106*
X342646Y86614D03*
D115*
X355600Y86614D03*
D162*
X359791Y86614D03*
D135*
X369062Y86614D03*
D193*
X389382Y86614D03*
D115*
X407162Y86614D03*
D176*
X410845Y86614D03*
D101*
X424434Y86614D03*
D133*
X436880Y86614D03*
D127*
X452501Y86614D03*
D186*
X474218Y86614D03*
D111*
X287020Y86868D03*
D116*
X316230Y86868D03*
D106*
X342900Y86868D03*
D135*
X369062Y86868D03*
D193*
X389382Y86868D03*
D101*
X424434Y86868D03*
D149*
X452628Y86868D03*
D65*
X474091Y86868D03*
D111*
X287020Y87122D03*
D151*
X316230Y87122D03*
D133*
X329438Y87122D03*
D106*
X342900Y87122D03*
D117*
X369189Y87122D03*
D193*
X389382Y87122D03*
D119*
X424307Y87122D03*
D162*
X452501Y87122D03*
D136*
X464185Y87122D03*
D190*
X474472Y87122D03*
D158*
X287147Y87376D03*
D138*
X316103Y87376D03*
D136*
X329565Y87376D03*
D106*
X343154Y87376D03*
D140*
X369316Y87376D03*
D86*
X389509Y87376D03*
D119*
X424307Y87376D03*
D155*
X452374Y87376D03*
D191*
X474726Y87376D03*
D111*
X287274Y87630D03*
D127*
X316103Y87630D03*
D180*
X329565Y87630D03*
D106*
X343154Y87630D03*
D117*
X369443Y87630D03*
D86*
X389509Y87630D03*
D119*
X424307Y87630D03*
D160*
X452247Y87630D03*
D90*
X474853Y87630D03*
D158*
X287401Y87884D03*
D162*
X316103Y87884D03*
D179*
X329692Y87884D03*
D113*
X343281Y87884D03*
D140*
X369570Y87884D03*
D86*
X389509Y87884D03*
D87*
X424434Y87884D03*
D105*
X452120Y87884D03*
D193*
X474980Y87884D03*
D102*
X287528Y88138D03*
D155*
X315976Y88138D03*
D176*
X329565Y88138D03*
D113*
X343535Y88138D03*
D140*
X369570Y88138D03*
D192*
X389636Y88138D03*
D87*
X424434Y88138D03*
D176*
X451993Y88138D03*
D149*
X468884Y88138D03*
D172*
X477647Y88138D03*
D158*
X287655Y88392D03*
D160*
X315849Y88392D03*
D105*
X329438Y88392D03*
D113*
X343535Y88392D03*
D125*
X369697Y88392D03*
D90*
X389509Y88392D03*
D92*
X424307Y88392D03*
D130*
X451866Y88392D03*
D104*
X477774Y88392D03*
D164*
X287655Y88646D03*
D176*
X315849Y88646D03*
D155*
X329438Y88646D03*
D107*
X343662Y88646D03*
D125*
X369697Y88646D03*
D90*
X389509Y88646D03*
D92*
X424307Y88646D03*
D130*
X451866Y88646D03*
D104*
X477774Y88646D03*
D167*
X287782Y88900D03*
D126*
X315595Y88900D03*
D149*
X329438Y88900D03*
D135*
X343662Y88900D03*
D125*
X369697Y88900D03*
D192*
X389382Y88900D03*
D92*
X424307Y88900D03*
D130*
X451866Y88900D03*
D141*
X477774Y88900D03*
D167*
X287782Y89154D03*
D179*
X315468Y89154D03*
D127*
X329311Y89154D03*
D135*
X343662Y89154D03*
D125*
X369697Y89154D03*
D86*
X389509Y89154D03*
D92*
X424307Y89154D03*
D176*
X451993Y89154D03*
D108*
X477774Y89154D03*
D196*
X287782Y89408D03*
D179*
X315468Y89408D03*
D138*
X329311Y89408D03*
D140*
X343662Y89408D03*
D116*
X369824Y89408D03*
D193*
X389382Y89408D03*
D92*
X424307Y89408D03*
D176*
X451993Y89408D03*
D108*
X477774Y89408D03*
D196*
X287782Y89662D03*
D180*
X315595Y89662D03*
D151*
X329184Y89662D03*
D125*
X343789Y89662D03*
D116*
X369824Y89662D03*
D193*
X389382Y89662D03*
D92*
X424307Y89662D03*
D176*
X451993Y89662D03*
D98*
X477774Y89662D03*
D170*
X287909Y89916D03*
D180*
X315595Y89916D03*
D116*
X329184Y89916D03*
X343916Y89916D03*
X369824Y89916D03*
D193*
X389382Y89916D03*
D92*
X424307Y89916D03*
D105*
X452120Y89916D03*
D98*
X477774Y89916D03*
D172*
X287909Y90170D03*
D180*
X315595Y90170D03*
D125*
X329057Y90170D03*
D132*
X344043Y90170D03*
D116*
X369824Y90170D03*
D193*
X389382Y90170D03*
D92*
X424307Y90170D03*
D160*
X451993Y90170D03*
D78*
X477774Y90170D03*
D172*
X287909Y90424D03*
D180*
X315595Y90424D03*
D117*
X329057Y90424D03*
D151*
X343916Y90424D03*
D116*
X369824Y90424D03*
D193*
X389382Y90424D03*
D87*
X424434Y90424D03*
D155*
X452120Y90424D03*
D118*
X477647Y90424D03*
D95*
X288036Y90678D03*
D179*
X315722Y90678D03*
D117*
X329057Y90678D03*
D138*
X344043Y90678D03*
D116*
X369824Y90678D03*
D100*
X389255Y90678D03*
D87*
X424434Y90678D03*
D155*
X452120Y90678D03*
D118*
X477647Y90678D03*
D95*
X288036Y90932D03*
D179*
X315722Y90932D03*
D135*
X328930Y90932D03*
D138*
X344043Y90932D03*
D116*
X369824Y90932D03*
D100*
X389255Y90932D03*
D87*
X424434Y90932D03*
D149*
X452120Y90932D03*
D182*
X477520Y90932D03*
D97*
X288163Y91186D03*
D179*
X315722Y91186D03*
D107*
X328930Y91186D03*
D138*
X344043Y91186D03*
D116*
X369824Y91186D03*
D100*
X389255Y91186D03*
D119*
X424307Y91186D03*
D127*
X452247Y91186D03*
D92*
X477647Y91186D03*
D104*
X288290Y91440D03*
D126*
X315849Y91440D03*
D107*
X328930Y91440D03*
D138*
X344043Y91440D03*
D116*
X369824Y91440D03*
D188*
X389382Y91440D03*
D119*
X424307Y91440D03*
D144*
X452120Y91440D03*
D87*
X477520Y91440D03*
D104*
X288290Y91694D03*
D126*
X315849Y91694D03*
D113*
X328803Y91694D03*
D151*
X343916Y91694D03*
D116*
X369824Y91694D03*
D188*
X389382Y91694D03*
D119*
X424307Y91694D03*
D117*
X451231Y91694D03*
D119*
X477393Y91694D03*
D88*
X288417Y91948D03*
D130*
X315976Y91948D03*
D106*
X328930Y91948D03*
D151*
X343916Y91948D03*
D116*
X369824Y91948D03*
D188*
X389382Y91948D03*
D119*
X424307Y91948D03*
D106*
X450596Y91948D03*
D119*
X477393Y91948D03*
D88*
X288417Y92202D03*
D176*
X315849Y92202D03*
D96*
X328803Y92202D03*
D132*
X343789Y92202D03*
X369697Y92202D03*
D188*
X389382Y92202D03*
D101*
X424434Y92202D03*
D87*
X450088Y92202D03*
D101*
X477266Y92202D03*
D141*
X288544Y92456D03*
D105*
X315976Y92456D03*
D101*
X328676Y92456D03*
D132*
X343789Y92456D03*
D116*
X369570Y92456D03*
D103*
X389509Y92456D03*
D96*
X424307Y92456D03*
D182*
X449834Y92456D03*
D96*
X477139Y92456D03*
D147*
X288671Y92710D03*
D105*
X315976Y92710D03*
D101*
X328676Y92710D03*
D116*
X343662Y92710D03*
X369570Y92710D03*
D103*
X389509Y92710D03*
D96*
X424307Y92710D03*
D78*
X449580Y92710D03*
D96*
X477139Y92710D03*
D147*
X288671Y92964D03*
D160*
X316103Y92964D03*
D87*
X328676Y92964D03*
D125*
X343535Y92964D03*
D116*
X369570Y92964D03*
D188*
X389636Y92964D03*
D106*
X424434Y92964D03*
D98*
X449326Y92964D03*
D106*
X477012Y92964D03*
D108*
X288798Y93218D03*
D162*
X316103Y93218D03*
D87*
X328676Y93218D03*
D117*
X343535Y93218D03*
D132*
X369443Y93218D03*
D103*
X389763Y93218D03*
D113*
X424307Y93218D03*
D147*
X449199Y93218D03*
D106*
X477012Y93218D03*
D147*
X288925Y93472D03*
D149*
X316230Y93472D03*
D87*
X328676Y93472D03*
D117*
X343535Y93472D03*
D116*
X369316Y93472D03*
D103*
X389763Y93472D03*
D113*
X424307Y93472D03*
D141*
X449072Y93472D03*
D106*
X476758Y93472D03*
D108*
X289052Y93726D03*
D144*
X316230Y93726D03*
D92*
X328549Y93726D03*
D135*
X343408Y93726D03*
D116*
X369316Y93726D03*
D121*
X389890Y93726D03*
D106*
X424180Y93726D03*
D104*
X449072Y93726D03*
D113*
X476631Y93726D03*
D112*
X289179Y93980D03*
D138*
X316357Y93980D03*
D92*
X328549Y93980D03*
D129*
X343281Y93980D03*
D125*
X369189Y93980D03*
D121*
X389890Y93980D03*
D101*
X424180Y93980D03*
D95*
X448818Y93980D03*
D113*
X476631Y93980D03*
D112*
X289179Y94234D03*
D132*
X316357Y94234D03*
D182*
X328422Y94234D03*
D106*
X343154Y94234D03*
D116*
X369062Y94234D03*
D188*
X389890Y94234D03*
D87*
X423926Y94234D03*
D122*
X448818Y94234D03*
D107*
X476504Y94234D03*
D112*
X289433Y94488D03*
D125*
X316611Y94488D03*
D182*
X328422Y94488D03*
D96*
X343027Y94488D03*
D140*
X369062Y94488D03*
D100*
X389763Y94488D03*
D182*
X423926Y94488D03*
D196*
X448818Y94488D03*
D113*
X476377Y94488D03*
D112*
X289433Y94742D03*
D117*
X316611Y94742D03*
D182*
X328422Y94742D03*
D87*
X342900Y94742D03*
D135*
X369062Y94742D03*
D86*
X389763Y94742D03*
D98*
X423926Y94742D03*
D167*
X448564Y94742D03*
D107*
X476250Y94742D03*
D112*
X289687Y94996D03*
D149*
X309880Y94996D03*
D113*
X316865Y94996D03*
D78*
X328422Y94996D03*
D182*
X342646Y94996D03*
D149*
X362204Y94996D03*
D107*
X369062Y94996D03*
D192*
X389636Y94996D03*
D126*
X412877Y94996D03*
D147*
X423799Y94996D03*
D146*
X447929Y94996D03*
D107*
X475996Y94996D03*
D98*
X289814Y95250D03*
D140*
X309880Y95250D03*
D87*
X317246Y95250D03*
D141*
X328422Y95250D03*
D80*
X342519Y95250D03*
D140*
X362204Y95250D03*
D106*
X369062Y95250D03*
D77*
X389636Y95250D03*
D149*
X412750Y95250D03*
D97*
X423545Y95250D03*
D103*
X447675Y95250D03*
D126*
X458851Y95250D03*
D107*
X475996Y95250D03*
D112*
X289941Y95504D03*
D145*
X320294Y95504D03*
D147*
X342011Y95504D03*
D158*
X365887Y95504D03*
D191*
X389382Y95504D03*
D190*
X420116Y95504D03*
D192*
X447548Y95504D03*
D127*
X458597Y95504D03*
D107*
X475742Y95504D03*
D112*
X290195Y95758D03*
D272*
X326644Y95758D03*
D139*
X365760Y95758D03*
D190*
X389382Y95758D03*
D91*
X420116Y95758D03*
D166*
X449707Y95758D03*
D113*
X475615Y95758D03*
D108*
X290322Y96012D03*
D151*
X302260Y96012D03*
D269*
X326517Y96012D03*
D138*
X354711Y96012D03*
D121*
X365760Y96012D03*
D194*
X389255Y96012D03*
D138*
X406273Y96012D03*
D177*
X420116Y96012D03*
D169*
X449834Y96012D03*
D179*
X465836Y96012D03*
D107*
X475488Y96012D03*
D108*
X290576Y96266D03*
D270*
X323469Y96266D03*
D168*
X362966Y96266D03*
D183*
X389001Y96266D03*
D145*
X417068Y96266D03*
D152*
X449834Y96266D03*
D138*
X465709Y96266D03*
D107*
X475234Y96266D03*
D108*
X290830Y96520D03*
D266*
X323215Y96520D03*
D156*
X363474Y96520D03*
D84*
X388366Y96520D03*
D124*
X416814Y96520D03*
D201*
X452501Y96520D03*
D113*
X475107Y96520D03*
D141*
X291084Y96774D03*
D263*
X323215Y96774D03*
D264*
X375158Y96774D03*
D109*
X416687Y96774D03*
D202*
X452628Y96774D03*
D113*
X474853Y96774D03*
D88*
X291465Y97028D03*
D282*
X323215Y97028D03*
D261*
X375285Y97028D03*
D94*
X416560Y97028D03*
D283*
X452755Y97028D03*
D96*
X474599Y97028D03*
D284*
X359410Y97282D03*
D198*
X452882Y97282D03*
D96*
X474345Y97282D03*
D285*
X359664Y97536D03*
D286*
X456438Y97536D03*
D287*
X360172Y97790D03*
D72*
X456311Y97790D03*
D288*
X382016Y98044D03*
D289*
X382143Y98298D03*
D290*
X382143Y98552D03*
D291*
X382016Y98806D03*
D292*
X382143Y99060D03*
D293*
X382016Y99314D03*
D294*
X382143Y99568D03*
D295*
X382143Y99822D03*
D296*
X382016Y100076D03*
D297*
X382143Y100330D03*
D298*
X382016Y100584D03*
D299*
X382016Y100838D03*
D300*
X382143Y101092D03*
D301*
X382016Y101346D03*
D302*
X382143Y101600D03*
D303*
X382016Y101854D03*
D304*
X382016Y102108D03*
D305*
X382143Y102362D03*
D306*
X382016Y102616D03*
D307*
X382143Y102870D03*
D308*
X382016Y103124D03*
D309*
X382016Y103378D03*
D310*
X382143Y103632D03*
D311*
X382016Y103886D03*
D312*
X382143Y104140D03*
D313*
X382016Y104394D03*
D314*
X382016Y104648D03*
D315*
X382143Y104902D03*
D316*
X382016Y105156D03*
D317*
X382143Y105410D03*
D318*
X382143Y105664D03*
D319*
X382016Y105918D03*
D320*
X382143Y106172D03*
D321*
X382016Y106426D03*
D322*
X382143Y106680D03*
D323*
X382143Y106934D03*
D324*
X382016Y107188D03*
D325*
X382143Y107442D03*
D326*
X382016Y107696D03*
D327*
X382143Y107950D03*
D328*
X382143Y108204D03*
D329*
X382016Y108458D03*
D330*
X382143Y108712D03*
D331*
X382016Y108966D03*
D332*
X382143Y109220D03*
D333*
X382143Y109474D03*
D334*
X382016Y109728D03*
D335*
X382143Y109982D03*
D336*
X382016Y110236D03*
D337*
X382016Y110490D03*
D338*
X382143Y110744D03*
D339*
X333121Y110998D03*
D211*
X423164Y110998D03*
D340*
X332105Y111252D03*
D341*
X424434Y111252D03*
D342*
X331470Y111506D03*
D343*
X425069Y111506D03*
D344*
X331089Y111760D03*
D345*
X425577Y111760D03*
D346*
X330708Y112014D03*
D69*
X426085Y112014D03*
D347*
X330327Y112268D03*
D348*
X426466Y112268D03*
D349*
X330073Y112522D03*
D350*
X426974Y112522D03*
D351*
X329692Y112776D03*
D352*
X427228Y112776D03*
D353*
X329565Y113030D03*
D354*
X427482Y113030D03*
D355*
X329565Y113284D03*
D356*
X427863Y113284D03*
D357*
X329438Y113538D03*
D358*
X428117Y113538D03*
D359*
X329438Y113792D03*
D360*
X428498Y113792D03*
D361*
X329565Y114046D03*
D362*
X428752Y114046D03*
D361*
X329565Y114300D03*
D339*
X428879Y114300D03*
D363*
X329692Y114554D03*
D144*
X374904Y114554D03*
D364*
X429260Y114554D03*
D363*
X329692Y114808D03*
D182*
X374904Y114808D03*
D365*
X429387Y114808D03*
D366*
X329819Y115062D03*
D95*
X374904Y115062D03*
D367*
X429768Y115062D03*
D212*
X329946Y115316D03*
D158*
X375031Y115316D03*
D368*
X429895Y115316D03*
D212*
X329946Y115570D03*
D185*
X375031Y115570D03*
D342*
X430022Y115570D03*
D212*
X330200Y115824D03*
D86*
X375031Y115824D03*
D369*
X430276Y115824D03*
D366*
X330327Y116078D03*
D71*
X375031Y116078D03*
D344*
X430403Y116078D03*
D366*
X330581Y116332D03*
D91*
X375158Y116332D03*
D370*
X430657Y116332D03*
D371*
X342011Y116586D03*
D346*
X430784Y116586D03*
D372*
X342392Y116840D03*
D373*
X430784Y116840D03*
D374*
X342773Y117094D03*
D375*
X431038Y117094D03*
D376*
X343154Y117348D03*
D349*
X431165Y117348D03*
D377*
X343535Y117602D03*
D378*
X431292Y117602D03*
D341*
X343916Y117856D03*
D379*
X431419Y117856D03*
D380*
X344170Y118110D03*
D353*
X431419Y118110D03*
D381*
X344551Y118364D03*
D355*
X431673Y118364D03*
D382*
X344805Y118618D03*
D383*
X431673Y118618D03*
D384*
X345186Y118872D03*
D361*
X431673Y118872D03*
D208*
X345567Y119126D03*
D363*
X431800Y119126D03*
D385*
X345821Y119380D03*
D212*
X431800Y119380D03*
D385*
X346075Y119634D03*
D386*
X432054Y119634D03*
D387*
X346329Y119888D03*
D207*
X432054Y119888D03*
D388*
X346710Y120142D03*
D389*
X432054Y120142D03*
D388*
X346964Y120396D03*
D390*
X432181Y120396D03*
D213*
X347218Y120650D03*
D391*
X432181Y120650D03*
D392*
X344297Y120904D03*
D393*
X432308Y120904D03*
D394*
X343408Y121158D03*
D395*
X432308Y121158D03*
D396*
X342900Y121412D03*
D397*
X432435Y121412D03*
D398*
X342519Y121666D03*
D399*
X432562Y121666D03*
D400*
X342011Y121920D03*
D401*
X432562Y121920D03*
D356*
X341757Y122174D03*
D402*
X432689Y122174D03*
D403*
X341503Y122428D03*
D404*
X432816Y122428D03*
D405*
X341249Y122682D03*
D406*
X433070Y122682D03*
D407*
X341122Y122936D03*
D408*
X433451Y122936D03*
D362*
X340868Y123190D03*
D409*
X433832Y123190D03*
D339*
X340741Y123444D03*
D410*
X434213Y123444D03*
D364*
X340614Y123698D03*
D411*
X434467Y123698D03*
D412*
X340360Y123952D03*
D268*
X434721Y123952D03*
D413*
X340233Y124206D03*
D414*
X435102Y124206D03*
D367*
X340106Y124460D03*
D260*
X435229Y124460D03*
D368*
X339979Y124714D03*
D415*
X435610Y124714D03*
D342*
X339852Y124968D03*
D416*
X435864Y124968D03*
D417*
X339725Y125222D03*
D266*
X435991Y125222D03*
D418*
X339725Y125476D03*
D267*
X436372Y125476D03*
D344*
X339471Y125730D03*
D271*
X436626Y125730D03*
D370*
X339471Y125984D03*
D419*
X436880Y125984D03*
D420*
X339471Y126238D03*
D160*
X394335Y126238D03*
D421*
X437007Y126238D03*
D263*
X329311Y126492D03*
D190*
X365252Y126492D03*
D119*
X394335Y126492D03*
D98*
X419100Y126492D03*
D279*
X442722Y126492D03*
D422*
X329311Y126746D03*
D77*
X365252Y126746D03*
D88*
X394335Y126746D03*
D96*
X418465Y126746D03*
D198*
X442976Y126746D03*
D264*
X329184Y127000D03*
D192*
X365252Y127000D03*
D110*
X394335Y127000D03*
D138*
X417449Y127000D03*
D280*
X442976Y127000D03*
D266*
X329311Y127254D03*
D86*
X365125Y127254D03*
D146*
X394335Y127254D03*
D423*
X442976Y127254D03*
D424*
X329438Y127508D03*
D100*
X365125Y127508D03*
D121*
X393954Y127508D03*
D423*
X442976Y127508D03*
D424*
X329438Y127762D03*
D103*
X365125Y127762D03*
D193*
X393700Y127762D03*
D202*
X442976Y127762D03*
D425*
X329565Y128016D03*
D185*
X365125Y128016D03*
D90*
X393573Y128016D03*
D202*
X442976Y128016D03*
D424*
X329692Y128270D03*
D89*
X365125Y128270D03*
D190*
X393446Y128270D03*
D426*
X442849Y128270D03*
D424*
X329946Y128524D03*
D146*
X365125Y128524D03*
D194*
X393319Y128524D03*
D427*
X442722Y128524D03*
D425*
X330073Y128778D03*
D150*
X365125Y128778D03*
D183*
X393065Y128778D03*
D427*
X442722Y128778D03*
D424*
X330200Y129032D03*
D111*
X364998Y129032D03*
D177*
X392938Y129032D03*
D82*
X442595Y129032D03*
D424*
X330454Y129286D03*
D102*
X364998Y129286D03*
D173*
X392811Y129286D03*
D427*
X442468Y129286D03*
D266*
X330581Y129540D03*
D167*
X364998Y129540D03*
D166*
X392811Y129540D03*
D427*
X442214Y129540D03*
D266*
X330835Y129794D03*
D196*
X364998Y129794D03*
D174*
X392684Y129794D03*
D427*
X441960Y129794D03*
D266*
X331089Y130048D03*
D122*
X364998Y130048D03*
D159*
X392811Y130048D03*
D202*
X441706Y130048D03*
D264*
X331216Y130302D03*
D122*
X364998Y130302D03*
D148*
X392811Y130302D03*
D281*
X441325Y130302D03*
D266*
X331343Y130556D03*
D95*
X364998Y130556D03*
D153*
X392684Y130556D03*
D283*
X441071Y130556D03*
D264*
X331470Y130810D03*
D104*
X364998Y130810D03*
D145*
X392938Y130810D03*
D283*
X440817Y130810D03*
D264*
X331724Y131064D03*
D88*
X364871Y131064D03*
D124*
X392938Y131064D03*
D136*
X419989Y131064D03*
D280*
X440436Y131064D03*
D264*
X331978Y131318D03*
D147*
X364871Y131318D03*
D93*
X393192Y131318D03*
D179*
X419862Y131318D03*
D198*
X440182Y131318D03*
D422*
X332105Y131572D03*
D112*
X364871Y131572D03*
D428*
X393446Y131572D03*
D126*
X419989Y131572D03*
D205*
X439801Y131572D03*
D264*
X332232Y131826D03*
D112*
X364871Y131826D03*
D281*
X394081Y131826D03*
D429*
X438277Y131826D03*
D264*
X332486Y132080D03*
D80*
X364871Y132080D03*
D210*
X395097Y132080D03*
D64*
X438150Y132080D03*
D422*
X332613Y132334D03*
D118*
X364871Y132334D03*
D430*
X394970Y132334D03*
D431*
X438023Y132334D03*
D422*
X332867Y132588D03*
D182*
X364744Y132588D03*
D432*
X394970Y132588D03*
X438150Y132588D03*
D422*
X332867Y132842D03*
D87*
X364744Y132842D03*
D64*
X394970Y132842D03*
D433*
X438023Y132842D03*
D422*
X333121Y133096D03*
D119*
X364871Y133096D03*
D434*
X394970Y133096D03*
D433*
X438023Y133096D03*
D422*
X333375Y133350D03*
D101*
X364744Y133350D03*
D435*
X394716Y133350D03*
D200*
X438023Y133350D03*
D422*
X333375Y133604D03*
D106*
X364744Y133604D03*
D436*
X394716Y133604D03*
D70*
X437896Y133604D03*
D422*
X333629Y133858D03*
D106*
X364744Y133858D03*
D203*
X394589Y133858D03*
D70*
X437896Y133858D03*
D422*
X333629Y134112D03*
D107*
X364744Y134112D03*
D437*
X394589Y134112D03*
D210*
X437769Y134112D03*
D422*
X333883Y134366D03*
D129*
X364617Y134366D03*
D438*
X394462Y134366D03*
D210*
X437769Y134366D03*
D422*
X334137Y134620D03*
D117*
X364617Y134620D03*
D277*
X394335Y134620D03*
D439*
X437642Y134620D03*
D422*
X334137Y134874D03*
D117*
X364617Y134874D03*
D275*
X394335Y134874D03*
D279*
X437642Y134874D03*
D422*
X334391Y135128D03*
D125*
X364617Y135128D03*
D278*
X394208Y135128D03*
D279*
X437642Y135128D03*
D422*
X334391Y135382D03*
D116*
X364490Y135382D03*
D440*
X394081Y135382D03*
D205*
X437515Y135382D03*
D422*
X334645Y135636D03*
D116*
X364490Y135636D03*
D441*
X394081Y135636D03*
D198*
X437388Y135636D03*
D264*
X334772Y135890D03*
D151*
X364490Y135890D03*
D442*
X393954Y135890D03*
D198*
X437388Y135890D03*
D264*
X334772Y136144D03*
D151*
X364490Y136144D03*
D269*
X393827Y136144D03*
D443*
X437261Y136144D03*
D264*
X335026Y136398D03*
D138*
X364363Y136398D03*
D286*
X393700Y136398D03*
D443*
X437261Y136398D03*
D444*
X330200Y136652D03*
D118*
X355727Y136652D03*
D127*
X364363Y136652D03*
D286*
X393700Y136652D03*
D280*
X437134Y136652D03*
D438*
X330200Y136906D03*
D182*
X356108Y136906D03*
D127*
X364363Y136906D03*
D72*
X393573Y136906D03*
D283*
X437007Y136906D03*
D437*
X330327Y137160D03*
D92*
X356235Y137160D03*
D149*
X364236Y137160D03*
D445*
X393573Y137160D03*
D283*
X437007Y137160D03*
D446*
X330200Y137414D03*
D119*
X356489Y137414D03*
D149*
X364236Y137414D03*
D167*
X378206Y137414D03*
D178*
X404495Y137414D03*
D423*
X436880Y137414D03*
D203*
X330327Y137668D03*
D119*
X356743Y137668D03*
D162*
X364109Y137668D03*
D98*
X376174Y137668D03*
D194*
X405257Y137668D03*
D423*
X436880Y137668D03*
D203*
X330327Y137922D03*
D96*
X356997Y137922D03*
D155*
X363982Y137922D03*
D92*
X375285Y137922D03*
D71*
X405765Y137922D03*
D281*
X436753Y137922D03*
D436*
X330454Y138176D03*
D96*
X357251Y138176D03*
D162*
X363855Y138176D03*
D101*
X374904Y138176D03*
D90*
X406273Y138176D03*
D202*
X436626Y138176D03*
D436*
X330708Y138430D03*
D106*
X357632Y138430D03*
D162*
X363601Y138430D03*
D106*
X374396Y138430D03*
D86*
X406527Y138430D03*
D202*
X436626Y138430D03*
D203*
X330835Y138684D03*
D141*
X359918Y138684D03*
D113*
X374015Y138684D03*
D188*
X406908Y138684D03*
D426*
X436499Y138684D03*
D203*
X331089Y138938D03*
D112*
X360045Y138938D03*
D129*
X373761Y138938D03*
D121*
X407162Y138938D03*
D426*
X436499Y138938D03*
D437*
X331343Y139192D03*
D80*
X360299Y139192D03*
D129*
X373507Y139192D03*
D128*
X407416Y139192D03*
D427*
X436372Y139192D03*
D437*
X331597Y139446D03*
D182*
X360426Y139446D03*
D129*
X373253Y139446D03*
D139*
X407416Y139446D03*
D82*
X436245Y139446D03*
D438*
X331978Y139700D03*
D87*
X360680Y139700D03*
D135*
X373126Y139700D03*
D184*
X407670Y139700D03*
D82*
X436245Y139700D03*
D277*
X332105Y139954D03*
D96*
X360807Y139954D03*
D135*
X372872Y139954D03*
D150*
X407797Y139954D03*
D85*
X436118Y139954D03*
D444*
X332486Y140208D03*
D107*
X361188Y140208D03*
D129*
X372745Y140208D03*
D111*
X407924Y140208D03*
D85*
X436118Y140208D03*
D444*
X332740Y140462D03*
D117*
X361315Y140462D03*
D135*
X372618Y140462D03*
D158*
X408051Y140462D03*
D201*
X435991Y140462D03*
D278*
X332994Y140716D03*
D116*
X361696Y140716D03*
D129*
X372491Y140716D03*
D102*
X408178Y140716D03*
D201*
X435737Y140716D03*
D440*
X333375Y140970D03*
D127*
X362077Y140970D03*
D129*
X372237Y140970D03*
D164*
X408305Y140970D03*
D201*
X435737Y140970D03*
D441*
X333629Y141224D03*
D160*
X362585Y141224D03*
D129*
X372237Y141224D03*
D164*
X408305Y141224D03*
D428*
X435610Y141224D03*
D442*
X334010Y141478D03*
D180*
X363093Y141478D03*
D107*
X372110Y141478D03*
D110*
X408305Y141478D03*
D428*
X435610Y141478D03*
D269*
X334391Y141732D03*
D107*
X372110Y141732D03*
D196*
X408432Y141732D03*
D199*
X435483Y141732D03*
D72*
X334645Y141986D03*
D113*
X371983Y141986D03*
D196*
X408432Y141986D03*
D94*
X435356Y141986D03*
D445*
X335153Y142240D03*
D113*
X371983Y142240D03*
D170*
X408559Y142240D03*
D94*
X435356Y142240D03*
D73*
X335407Y142494D03*
D106*
X371856Y142494D03*
D170*
X408559Y142494D03*
D94*
X435102Y142494D03*
D66*
X335915Y142748D03*
D106*
X371856Y142748D03*
D122*
X408432Y142748D03*
D94*
X435102Y142748D03*
D447*
X336550Y143002D03*
D96*
X371729Y143002D03*
D172*
X408559Y143002D03*
D99*
X434975Y143002D03*
D67*
X337058Y143256D03*
D96*
X371729Y143256D03*
D172*
X408559Y143256D03*
D81*
X434848Y143256D03*
D421*
X337693Y143510D03*
D101*
X371602Y143510D03*
D172*
X408559Y143510D03*
D81*
X434848Y143510D03*
D448*
X338582Y143764D03*
D101*
X371602Y143764D03*
D172*
X408559Y143764D03*
D81*
X434594Y143764D03*
D271*
X338582Y144018D03*
D119*
X371475Y144018D03*
D97*
X408559Y144018D03*
D109*
X434467Y144018D03*
D66*
X336931Y144272D03*
D160*
X361315Y144272D03*
D119*
X371475Y144272D03*
D97*
X408559Y144272D03*
D109*
X434467Y144272D03*
D440*
X335407Y144526D03*
D119*
X371475Y144526D03*
D97*
X408559Y144526D03*
D93*
X434340Y144526D03*
D437*
X334899Y144780D03*
D87*
X371348Y144780D03*
D97*
X408559Y144780D03*
D109*
X434213Y144780D03*
D449*
X334391Y145034D03*
D87*
X371348Y145034D03*
D104*
X408432Y145034D03*
D93*
X434086Y145034D03*
D429*
X334137Y145288D03*
D182*
X371348Y145288D03*
D104*
X408432Y145288D03*
D197*
X433959Y145288D03*
D433*
X333883Y145542D03*
D182*
X371348Y145542D03*
D104*
X408432Y145542D03*
D197*
X433959Y145542D03*
D70*
X333502Y145796D03*
D182*
X371348Y145796D03*
D104*
X408432Y145796D03*
D120*
X433832Y145796D03*
D76*
X333375Y146050D03*
D118*
X371221Y146050D03*
D104*
X408178Y146050D03*
D197*
X433705Y146050D03*
D205*
X333121Y146304D03*
D78*
X371348Y146304D03*
D104*
X408178Y146304D03*
D120*
X433578Y146304D03*
D280*
X332994Y146558D03*
D130*
X358648Y146558D03*
D78*
X371348Y146558D03*
D104*
X408178Y146558D03*
D79*
X433451Y146558D03*
D281*
X332867Y146812D03*
D144*
X357886Y146812D03*
D80*
X371221Y146812D03*
D88*
X408051Y146812D03*
D120*
X433324Y146812D03*
D426*
X332613Y147066D03*
D106*
X358394Y147066D03*
D98*
X371348Y147066D03*
D88*
X408051Y147066D03*
D79*
X433197Y147066D03*
D85*
X332486Y147320D03*
D119*
X357759Y147320D03*
D98*
X371348Y147320D03*
D104*
X407924Y147320D03*
D79*
X433197Y147320D03*
D201*
X332359Y147574D03*
D182*
X357378Y147574D03*
D112*
X371221Y147574D03*
D104*
X407924Y147574D03*
D124*
X433070Y147574D03*
D94*
X332232Y147828D03*
D80*
X356997Y147828D03*
D108*
X371348Y147828D03*
D88*
X407797Y147828D03*
D124*
X432816Y147828D03*
D81*
X332232Y148082D03*
D112*
X356743Y148082D03*
D108*
X371348Y148082D03*
D104*
X407670Y148082D03*
D124*
X432816Y148082D03*
D93*
X331978Y148336D03*
D108*
X356362Y148336D03*
D147*
X371475Y148336D03*
D104*
X407670Y148336D03*
D134*
X432689Y148336D03*
D120*
X331978Y148590D03*
D141*
X356108Y148590D03*
X371348Y148590D03*
D88*
X407543Y148590D03*
D124*
X432562Y148590D03*
D134*
X331851Y148844D03*
D104*
X355854Y148844D03*
D141*
X371348Y148844D03*
D104*
X407416Y148844D03*
D134*
X432435Y148844D03*
D114*
X331724Y149098D03*
D95*
X355600Y149098D03*
D88*
X371475Y149098D03*
D104*
X407416Y149098D03*
D114*
X432308Y149098D03*
D145*
X331724Y149352D03*
D122*
X355346Y149352D03*
D88*
X371475Y149352D03*
D97*
X407289Y149352D03*
D114*
X432308Y149352D03*
D131*
X331470Y149606D03*
D122*
X355092Y149606D03*
D104*
X371602Y149606D03*
X407162Y149606D03*
D114*
X432054Y149606D03*
D153*
X331470Y149860D03*
D196*
X354838Y149860D03*
D97*
X371475Y149860D03*
X407035Y149860D03*
D114*
X432054Y149860D03*
D157*
X331470Y150114D03*
D110*
X354711Y150114D03*
D95*
X371602Y150114D03*
D97*
X407035Y150114D03*
D123*
X431927Y150114D03*
D148*
X331343Y150368D03*
D164*
X354457Y150368D03*
D95*
X371602Y150368D03*
D97*
X406781Y150368D03*
D123*
X431673Y150368D03*
D152*
X331470Y150622D03*
D102*
X354330Y150622D03*
D172*
X371729Y150622D03*
D97*
X406781Y150622D03*
D123*
X431673Y150622D03*
D152*
X331470Y150876D03*
D158*
X354203Y150876D03*
D172*
X371729Y150876D03*
D95*
X406654Y150876D03*
D145*
X431546Y150876D03*
D154*
X331597Y151130D03*
D111*
X353822Y151130D03*
D122*
X371856Y151130D03*
D95*
X406654Y151130D03*
D123*
X431419Y151130D03*
D156*
X331724Y151384D03*
D150*
X353695Y151384D03*
D170*
X371729Y151384D03*
D95*
X406400Y151384D03*
D145*
X431292Y151384D03*
D154*
X331851Y151638D03*
D184*
X353568Y151638D03*
D196*
X371856Y151638D03*
D172*
X406273Y151638D03*
D143*
X431165Y151638D03*
D152*
X332232Y151892D03*
D146*
X353441Y151892D03*
D196*
X371856Y151892D03*
D172*
X406273Y151892D03*
D145*
X431038Y151892D03*
D272*
X340106Y152146D03*
D110*
X371983Y152146D03*
D172*
X406019Y152146D03*
D143*
X430911Y152146D03*
D440*
X340233Y152400D03*
D110*
X371983Y152400D03*
D172*
X406019Y152400D03*
D143*
X430911Y152400D03*
D278*
X340360Y152654D03*
D167*
X372110Y152654D03*
D122*
X405892Y152654D03*
D143*
X430657Y152654D03*
D278*
X340360Y152908D03*
D167*
X372110Y152908D03*
D122*
X405638Y152908D03*
D131*
X430530Y152908D03*
D275*
X340487Y153162D03*
D164*
X372237Y153162D03*
D122*
X405638Y153162D03*
D143*
X430403Y153162D03*
D275*
X340487Y153416D03*
D102*
X372364Y153416D03*
D170*
X405511Y153416D03*
D131*
X430276Y153416D03*
D277*
X340487Y153670D03*
D102*
X372364Y153670D03*
D170*
X405257Y153670D03*
D137*
X430149Y153670D03*
D438*
X340614Y153924D03*
D158*
X372491Y153924D03*
D196*
X405130Y153924D03*
D131*
X430022Y153924D03*
D438*
X340614Y154178D03*
D158*
X372491Y154178D03*
D196*
X405130Y154178D03*
D137*
X429895Y154178D03*
D437*
X340741Y154432D03*
D111*
X372618Y154432D03*
D196*
X404876Y154432D03*
D137*
X429895Y154432D03*
D437*
X340741Y154686D03*
D150*
X372745Y154686D03*
D110*
X404749Y154686D03*
D137*
X429641Y154686D03*
D446*
X340868Y154940D03*
D150*
X372745Y154940D03*
D167*
X404622Y154940D03*
D153*
X429514Y154940D03*
D203*
X340995Y155194D03*
D184*
X372872Y155194D03*
D167*
X404368Y155194D03*
D153*
X429514Y155194D03*
D203*
X340995Y155448D03*
D146*
X372999Y155448D03*
D164*
X404241Y155448D03*
D153*
X429260Y155448D03*
D436*
X341122Y155702D03*
D139*
X373126Y155702D03*
D164*
X403987Y155702D03*
D153*
X429260Y155702D03*
D436*
X341122Y155956D03*
D139*
X373126Y155956D03*
D158*
X403733Y155956D03*
D153*
X429006Y155956D03*
D449*
X341249Y156210D03*
D89*
X373253Y156210D03*
D111*
X403606Y156210D03*
D142*
X428879Y156210D03*
D435*
X341376Y156464D03*
D128*
X373380Y156464D03*
D150*
X403225Y156464D03*
D142*
X428879Y156464D03*
D435*
X341376Y156718D03*
D185*
X373507Y156718D03*
D184*
X403098Y156718D03*
D142*
X428625Y156718D03*
D450*
X341503Y156972D03*
D121*
X373634Y156972D03*
D89*
X402717Y156972D03*
D142*
X428625Y156972D03*
D434*
X341630Y157226D03*
D188*
X373888Y157226D03*
D185*
X402209Y157226D03*
D157*
X428498Y157226D03*
D434*
X341630Y157480D03*
D193*
X374142Y157480D03*
D177*
X399288Y157480D03*
D157*
X428244Y157480D03*
D434*
X341884Y157734D03*
D192*
X374396Y157734D03*
D83*
X398780Y157734D03*
D157*
X428244Y157734D03*
D434*
X341884Y157988D03*
D77*
X374650Y157988D03*
D171*
X398399Y157988D03*
D157*
X427990Y157988D03*
D429*
X342011Y158242D03*
D195*
X375031Y158242D03*
D166*
X398145Y158242D03*
D157*
X427990Y158242D03*
D64*
X342138Y158496D03*
D73*
X387731Y158496D03*
D148*
X427863Y158496D03*
D64*
X342138Y158750D03*
D73*
X387731Y158750D03*
D148*
X427609Y158750D03*
D431*
X342265Y159004D03*
D74*
X387604Y159004D03*
D148*
X427609Y159004D03*
D431*
X342265Y159258D03*
D74*
X387604Y159258D03*
D152*
X427482Y159258D03*
D432*
X342392Y159512D03*
D445*
X387477Y159512D03*
D148*
X427355Y159512D03*
D433*
X342519Y159766D03*
D451*
X387604Y159766D03*
D152*
X427228Y159766D03*
D432*
X342646Y160020D03*
D72*
X387477Y160020D03*
D152*
X426974Y160020D03*
D433*
X342773Y160274D03*
D72*
X387477Y160274D03*
D152*
X426974Y160274D03*
D433*
X342773Y160528D03*
D72*
X387477Y160528D03*
D154*
X426847Y160528D03*
D430*
X342900Y160782D03*
D269*
X387477Y160782D03*
D152*
X426720Y160782D03*
D167*
X331470Y161036D03*
D122*
X355092Y161036D03*
D269*
X387477Y161036D03*
D154*
X426593Y161036D03*
D106*
X328422Y161290D03*
D96*
X357505Y161290D03*
D442*
X387350Y161290D03*
D154*
X426339Y161290D03*
D107*
X328422Y161544D03*
D132*
X359029Y161544D03*
D441*
X387223Y161544D03*
D154*
X426339Y161544D03*
D129*
X328295Y161798D03*
D160*
X360045Y161798D03*
D272*
X387350Y161798D03*
D156*
X426212Y161798D03*
D117*
X328295Y162052D03*
D115*
X360934Y162052D03*
D440*
X387223Y162052D03*
D156*
X425958Y162052D03*
D125*
X328295Y162306D03*
D440*
X387223Y162306D03*
D156*
X425958Y162306D03*
D125*
X328295Y162560D03*
D278*
X387096Y162560D03*
D156*
X425704Y162560D03*
D116*
X328422Y162814D03*
D275*
X387223Y162814D03*
D156*
X425704Y162814D03*
D116*
X328422Y163068D03*
D444*
X387096Y163068D03*
D156*
X425450Y163068D03*
D132*
X328549Y163322D03*
D444*
X387096Y163322D03*
D159*
X425323Y163322D03*
D151*
X328676Y163576D03*
D203*
X387477Y163576D03*
D156*
X425196Y163576D03*
D151*
X328676Y163830D03*
D434*
X387858Y163830D03*
D159*
X425069Y163830D03*
D151*
X328930Y164084D03*
D432*
X388366Y164084D03*
D156*
X424942Y164084D03*
D132*
X329057Y164338D03*
D107*
X348234Y164338D03*
D70*
X388620Y164338D03*
D159*
X424815Y164338D03*
D132*
X329311Y164592D03*
D188*
X347218Y164592D03*
D205*
X389001Y164592D03*
D159*
X424561Y164592D03*
D116*
X329692Y164846D03*
D161*
X345567Y164846D03*
D283*
X389255Y164846D03*
D159*
X424561Y164846D03*
D82*
X343281Y165100D03*
D202*
X389636Y165100D03*
D159*
X424307Y165100D03*
D423*
X344170Y165354D03*
D85*
X389890Y165354D03*
D159*
X424307Y165354D03*
D205*
X344805Y165608D03*
D94*
X390144Y165608D03*
D159*
X424053Y165608D03*
D279*
X345186Y165862D03*
D93*
X390398Y165862D03*
D169*
X423926Y165862D03*
D76*
X345567Y166116D03*
D124*
X390652Y166116D03*
D159*
X423799Y166116D03*
D439*
X345694Y166370D03*
D145*
X390906Y166370D03*
D169*
X423672Y166370D03*
D434*
X347218Y166624D03*
D137*
X391033Y166624D03*
D159*
X423545Y166624D03*
D449*
X347853Y166878D03*
D148*
X391287Y166878D03*
D159*
X423291Y166878D03*
D446*
X348234Y167132D03*
D169*
X391414Y167132D03*
X423164Y167132D03*
D438*
X348742Y167386D03*
D163*
X391541Y167386D03*
D159*
X423037Y167386D03*
D278*
X349250Y167640D03*
D173*
X391541Y167640D03*
D159*
X422783Y167640D03*
D272*
X349758Y167894D03*
D190*
X390652Y167894D03*
D159*
X422783Y167894D03*
D442*
X350266Y168148D03*
D192*
X390652Y168148D03*
D169*
X422656Y168148D03*
D72*
X350647Y168402D03*
D100*
X390779Y168402D03*
D174*
X422656Y168402D03*
D445*
X351155Y168656D03*
D185*
X391033Y168656D03*
D163*
X422783Y168656D03*
D452*
X351536Y168910D03*
D146*
X391287Y168910D03*
D166*
X422783Y168910D03*
D68*
X352044Y169164D03*
D158*
X391541Y169164D03*
D166*
X422783Y169164D03*
D447*
X352552Y169418D03*
D167*
X391922Y169418D03*
D168*
X422656Y169418D03*
D453*
X352933Y169672D03*
D122*
X392430Y169672D03*
D171*
X422529Y169672D03*
D150*
X337439Y169926D03*
D81*
X361442Y169926D03*
D104*
X392684Y169926D03*
D171*
X422529Y169926D03*
D111*
X337312Y170180D03*
D116*
X348996Y170180D03*
D174*
X365252Y170180D03*
D108*
X393192Y170180D03*
D84*
X422402Y170180D03*
D164*
X337185Y170434D03*
D162*
X348361Y170434D03*
D161*
X365887Y170434D03*
D78*
X393700Y170434D03*
D173*
X422275Y170434D03*
D167*
X337312Y170688D03*
D176*
X348107Y170688D03*
D169*
X366268Y170688D03*
D87*
X394208Y170688D03*
D173*
X422275Y170688D03*
D110*
X337185Y170942D03*
D179*
X347726Y170942D03*
D154*
X366649Y170942D03*
D113*
X394843Y170942D03*
D173*
X422021Y170942D03*
D196*
X337312Y171196D03*
D133*
X347472Y171196D03*
D157*
X367030Y171196D03*
D138*
X395605Y171196D03*
D84*
X421894Y171196D03*
D196*
X337312Y171450D03*
D137*
X367411Y171450D03*
D171*
X421513Y171450D03*
D170*
X337439Y171704D03*
D143*
X367919Y171704D03*
D171*
X421259Y171704D03*
D122*
X337566Y171958D03*
D124*
X368300Y171958D03*
D166*
X421005Y171958D03*
D122*
X337566Y172212D03*
D197*
X368681Y172212D03*
D165*
X420624Y172212D03*
D172*
X337693Y172466D03*
D179*
X354584Y172466D03*
D148*
X371221Y172466D03*
D174*
X420370Y172466D03*
D172*
X337693Y172720D03*
D136*
X354203Y172720D03*
D157*
X371856Y172720D03*
D169*
X419862Y172720D03*
D95*
X337820Y172974D03*
D133*
X353822Y172974D03*
D137*
X372491Y172974D03*
D159*
X419481Y172974D03*
D95*
X338074Y173228D03*
D143*
X372999Y173228D03*
D152*
X419100Y173228D03*
D95*
X338074Y173482D03*
D134*
X373507Y173482D03*
D157*
X418592Y173482D03*
D95*
X338328Y173736D03*
D133*
X352552Y173736D03*
D114*
X374396Y173736D03*
D137*
X418211Y173736D03*
D172*
X338455Y173990D03*
D133*
X346710Y173990D03*
D179*
X352044Y173990D03*
D124*
X375158Y173990D03*
D145*
X417576Y173990D03*
D172*
X338709Y174244D03*
D180*
X346583Y174244D03*
D130*
X351536Y174244D03*
D93*
X375920Y174244D03*
D124*
X416814Y174244D03*
D150*
X340233Y174498D03*
D155*
X351028Y174498D03*
D176*
X362077Y174498D03*
D131*
X378460Y174498D03*
D81*
X416052Y174498D03*
D146*
X340487Y174752D03*
D144*
X350520Y174752D03*
D136*
X361569Y174752D03*
D138*
X367157Y174752D03*
D174*
X382524Y174752D03*
D426*
X414655Y174752D03*
D190*
X342900Y175006D03*
D155*
X366776Y175006D03*
D454*
X400812Y175006D03*
D71*
X343027Y175260D03*
D130*
X366522Y175260D03*
D455*
X400939Y175260D03*
D190*
X343154Y175514D03*
D115*
X366268Y175514D03*
D133*
X371348Y175514D03*
D456*
X401828Y175514D03*
D71*
X343281Y175768D03*
D141*
X378714Y175768D03*
D457*
X407797Y175768D03*
D190*
X343408Y176022D03*
D112*
X378587Y176022D03*
D68*
X407924Y176022D03*
D71*
X343535Y176276D03*
D80*
X378587Y176276D03*
D116*
X388366Y176276D03*
D64*
X411480Y176276D03*
D195*
X343535Y176530D03*
D151*
X376174Y176530D03*
D155*
X381508Y176530D03*
D151*
X388366Y176530D03*
D432*
X411480Y176530D03*
D195*
X343535Y176784D03*
D127*
X376047Y176784D03*
D176*
X381635Y176784D03*
D144*
X388112Y176784D03*
D430*
X411480Y176784D03*
D77*
X343662Y177038D03*
D162*
X375793Y177038D03*
D176*
X381635Y177038D03*
D149*
X388112Y177038D03*
D200*
X411607Y177038D03*
D77*
X343662Y177292D03*
D160*
X375539Y177292D03*
D126*
X381635Y177292D03*
D162*
X387985Y177292D03*
D113*
X396875Y177292D03*
D114*
X415290Y177292D03*
D90*
X343789Y177546D03*
D176*
X375285Y177546D03*
D179*
X381508Y177546D03*
D155*
X387858Y177546D03*
D129*
X396621Y177546D03*
X404749Y177546D03*
D187*
X419608Y177546D03*
D192*
X343916Y177800D03*
D126*
X375031Y177800D03*
D115*
X381508Y177800D03*
D105*
X387604Y177800D03*
D117*
X396367Y177800D03*
X404749Y177800D03*
D190*
X419608Y177800D03*
D192*
X343916Y178054D03*
D180*
X374523Y178054D03*
D136*
X381381Y178054D03*
D176*
X387477Y178054D03*
D140*
X396240Y178054D03*
D125*
X404749Y178054D03*
D191*
X419608Y178054D03*
D86*
X344043Y178308D03*
D133*
X374142Y178308D03*
X381254Y178308D03*
D130*
X387096Y178308D03*
D116*
X395986Y178308D03*
D125*
X404749Y178308D03*
D195*
X419735Y178308D03*
D86*
X344043Y178562D03*
D126*
X386969Y178562D03*
D151*
X395732Y178562D03*
D132*
X404749Y178562D03*
D77*
X419608Y178562D03*
D86*
X344297Y178816D03*
D179*
X386588Y178816D03*
D138*
X395351Y178816D03*
D115*
X402844Y178816D03*
D105*
X405638Y178816D03*
D90*
X419481Y178816D03*
D86*
X344551Y179070D03*
D179*
X386334Y179070D03*
D144*
X395224Y179070D03*
D133*
X402590Y179070D03*
D179*
X405892Y179070D03*
D192*
X419608Y179070D03*
D90*
X344805Y179324D03*
D133*
X354838Y179324D03*
D115*
X386080Y179324D03*
D144*
X394716Y179324D03*
D180*
X406019Y179324D03*
D86*
X419481Y179324D03*
D71*
X345567Y179578D03*
D136*
X385699Y179578D03*
D149*
X394208Y179578D03*
D136*
X406019Y179578D03*
D192*
X419354Y179578D03*
D190*
X345694Y179832D03*
D133*
X385318Y179832D03*
D162*
X393827Y179832D03*
D133*
X405892Y179832D03*
D86*
X419227Y179832D03*
D71*
X345821Y180086D03*
D155*
X393446Y180086D03*
D193*
X419100Y180086D03*
D71*
X346075Y180340D03*
D133*
X357886Y180340D03*
D155*
X392938Y180340D03*
D86*
X418973Y180340D03*
D189*
X346329Y180594D03*
D115*
X357632Y180594D03*
D105*
X392430Y180594D03*
D86*
X418719Y180594D03*
D181*
X347472Y180848D03*
D176*
X392049Y180848D03*
D86*
X418719Y180848D03*
D181*
X347472Y181102D03*
D130*
X391414Y181102D03*
D86*
X418465Y181102D03*
D181*
X347726Y181356D03*
D179*
X390906Y181356D03*
D86*
X418211Y181356D03*
D183*
X347853Y181610D03*
D180*
X390271Y181610D03*
D192*
X418084Y181610D03*
D181*
X347980Y181864D03*
D136*
X389763Y181864D03*
D86*
X417957Y181864D03*
D183*
X348107Y182118D03*
D192*
X417830Y182118D03*
D181*
X348234Y182372D03*
D133*
X372872Y182372D03*
D192*
X417576Y182372D03*
D177*
X348742Y182626D03*
D115*
X371856Y182626D03*
D192*
X417322Y182626D03*
D181*
X348742Y182880D03*
D126*
X370713Y182880D03*
D90*
X417195Y182880D03*
D181*
X348742Y183134D03*
D105*
X369824Y183134D03*
D133*
X397256Y183134D03*
D90*
X416941Y183134D03*
D183*
X348869Y183388D03*
D155*
X368808Y183388D03*
D133*
X396748Y183388D03*
D77*
X416814Y183388D03*
D91*
X348996Y183642D03*
D127*
X368173Y183642D03*
D133*
X396240Y183642D03*
D77*
X416560Y183642D03*
D183*
X349123Y183896D03*
D151*
X367538Y183896D03*
D133*
X395478Y183896D03*
D77*
X416306Y183896D03*
D91*
X349250Y184150D03*
D116*
X367030Y184150D03*
D195*
X416179Y184150D03*
D183*
X349377Y184404D03*
D117*
X366649Y184404D03*
D195*
X415925Y184404D03*
D183*
X349631Y184658D03*
D107*
X366268Y184658D03*
D191*
X415798Y184658D03*
D183*
X349885Y184912D03*
D96*
X365887Y184912D03*
D71*
X415417Y184912D03*
D177*
X350266Y185166D03*
D87*
X365506Y185166D03*
D71*
X415163Y185166D03*
D93*
X354584Y185420D03*
D190*
X415036Y185420D03*
D93*
X354584Y185674D03*
D133*
X374904Y185674D03*
D189*
X414655Y185674D03*
D197*
X354711Y185928D03*
D180*
X374523Y185928D03*
D187*
X414528Y185928D03*
D120*
X354838Y186182D03*
D130*
X374142Y186182D03*
D194*
X414147Y186182D03*
D197*
X354965Y186436D03*
D105*
X373888Y186436D03*
D186*
X413766Y186436D03*
D197*
X355219Y186690D03*
D162*
X373507Y186690D03*
D65*
X413639Y186690D03*
D81*
X355600Y186944D03*
D138*
X373253Y186944D03*
D115*
X378968Y186944D03*
D136*
X384683Y186944D03*
D91*
X413258Y186944D03*
D279*
X358140Y187198D03*
D126*
X378841Y187198D03*
D179*
X383794Y187198D03*
D183*
X412877Y187198D03*
D279*
X358394Y187452D03*
D155*
X378714Y187452D03*
X382778Y187452D03*
D178*
X412623Y187452D03*
D451*
X362458Y187706D03*
D177*
X412242Y187706D03*
D72*
X362585Y187960D03*
D83*
X411988Y187960D03*
D72*
X362585Y188214D03*
D173*
X411607Y188214D03*
D286*
X362712Y188468D03*
D84*
X411226Y188468D03*
D269*
X362839Y188722D03*
D168*
X410972Y188722D03*
D269*
X362839Y188976D03*
D166*
X410591Y188976D03*
D442*
X362966Y189230D03*
D174*
X410210Y189230D03*
D442*
X362966Y189484D03*
D161*
X409829Y189484D03*
D441*
X363093Y189738D03*
D169*
X409448Y189738D03*
D441*
X363347Y189992D03*
D154*
X409067Y189992D03*
D442*
X363474Y190246D03*
D136*
X386969Y190246D03*
D152*
X408686Y190246D03*
D269*
X363855Y190500D03*
D180*
X386461Y190500D03*
D157*
X408432Y190500D03*
D452*
X364744Y190754D03*
D153*
X407924Y190754D03*
D73*
X364871Y191008D03*
D137*
X407543Y191008D03*
D74*
X364998Y191262D03*
D143*
X407289Y191262D03*
D74*
X364998Y191516D03*
D123*
X406781Y191516D03*
D445*
X365125Y191770D03*
D134*
X406527Y191770D03*
D451*
X365252Y192024D03*
D124*
X406146Y192024D03*
D451*
X365252Y192278D03*
D79*
X405765Y192278D03*
D451*
X365506Y192532D03*
D197*
X405511Y192532D03*
D451*
X365506Y192786D03*
D93*
X405130Y192786D03*
D451*
X365760Y193040D03*
D81*
X404876Y193040D03*
D445*
X366141Y193294D03*
D99*
X404495Y193294D03*
D367*
X382016Y193548D03*
D340*
X382143Y193802D03*
D458*
X382016Y194056D03*
D368*
X382143Y194310D03*
D459*
X382143Y194564D03*
D342*
X382016Y194818D03*
D417*
X382143Y195072D03*
D369*
X382016Y195326D03*
D460*
X382016Y195580D03*
D344*
X382143Y195834D03*
D461*
X382016Y196088D03*
D370*
X382143Y196342D03*
D462*
X382016Y196596D03*
D346*
X382016Y196850D03*
D463*
X382143Y197104D03*
D373*
X382016Y197358D03*
D347*
X382143Y197612D03*
D375*
X382016Y197866D03*
D464*
X382016Y198120D03*
D349*
X382143Y198374D03*
D378*
X382016Y198628D03*
D465*
X382143Y198882D03*
D351*
X382016Y199136D03*
D466*
X382016Y199390D03*
D353*
X382143Y199644D03*
D467*
X382016Y199898D03*
D355*
X382143Y200152D03*
D383*
X382143Y200406D03*
D359*
X382016Y200660D03*
D361*
X382143Y200914D03*
D363*
X382016Y201168D03*
D366*
X382143Y201422D03*
D468*
X382143Y201676D03*
D386*
X382016Y201930D03*
D209*
X382143Y202184D03*
D207*
X382016Y202438D03*
D204*
X382143Y202692D03*
D390*
X382143Y202946D03*
D469*
X382016Y203200D03*
D391*
X382143Y203454D03*
D393*
X382016Y203708D03*
D395*
X382016Y203962D03*
D470*
X382143Y204216D03*
D471*
X382016Y204470D03*
D397*
X382143Y204724D03*
D399*
X382016Y204978D03*
D401*
X382016Y205232D03*
D402*
X382143Y205486D03*
D454*
X382016Y205740D03*
D472*
X382143Y205994D03*
D404*
X382016Y206248D03*
D473*
X382016Y206502D03*
D474*
X382143Y206756D03*
D406*
X382016Y207010D03*
D475*
X382143Y207264D03*
D476*
X382016Y207518D03*
D477*
X382016Y207772D03*
D478*
X382143Y208026D03*
D456*
X382016Y208280D03*
D479*
X382143Y208534D03*
D409*
X382016Y208788D03*
D480*
X382016Y209042D03*
D410*
X382143Y209296D03*
D481*
X382016Y209550D03*
D482*
X382143Y209804D03*
D411*
X382143Y210058D03*
D483*
X382016Y210312D03*
D484*
X382143Y210566D03*
D485*
X382016Y210820D03*
D268*
X382143Y211074D03*
D486*
X382143Y211328D03*
D414*
X382016Y211582D03*
D487*
X382143Y211836D03*
D488*
X382016Y212090D03*
D260*
X382143Y212344D03*
D282*
X382143Y212598D03*
D415*
X382016Y212852D03*
D261*
X382143Y213106D03*
D489*
X382016Y213360D03*
D416*
X382016Y213614D03*
D422*
X382143Y213868D03*
D264*
X382016Y214122D03*
D266*
X382143Y214376D03*
D424*
X382016Y214630D03*
D267*
X382016Y214884D03*
D270*
X382143Y215138D03*
D448*
X382016Y215392D03*
D490*
X382143Y215646D03*
D271*
X382016Y215900D03*
D419*
X382016Y216154D03*
D491*
X382143Y216408D03*
D274*
X382016Y216662D03*
D421*
X382143Y216916D03*
D276*
X382016Y217170D03*
D67*
X382016Y217424D03*
D453*
X382143Y217678D03*
D492*
X382016Y217932D03*
D457*
X382143Y218186D03*
D493*
X382143Y218440D03*
D68*
X382016Y218694D03*
D66*
X382143Y218948D03*
D452*
X382016Y219202D03*
D73*
X382143Y219456D03*
D445*
X382143Y219710D03*
D451*
X382016Y219964D03*
D72*
X382143Y220218D03*
D286*
X382016Y220472D03*
D269*
X382143Y220726D03*
D441*
X382143Y220980D03*
D272*
X382016Y221234D03*
D440*
X382143Y221488D03*
D278*
X382016Y221742D03*
D444*
X382016Y221996D03*
D277*
X382143Y222250D03*
D438*
X382016Y222504D03*
D437*
X382143Y222758D03*
D446*
X382016Y223012D03*
D436*
X382016Y223266D03*
D449*
X382143Y223520D03*
D435*
X382016Y223774D03*
D450*
X382143Y224028D03*
D434*
X382016Y224282D03*
D64*
X382016Y224536D03*
D431*
X382143Y224790D03*
D432*
X382016Y225044D03*
D433*
X382143Y225298D03*
D430*
X382016Y225552D03*
D70*
X382016Y225806D03*
D210*
X382143Y226060D03*
D439*
X382016Y226314D03*
D76*
X382143Y226568D03*
D205*
X382143Y226822D03*
D198*
X382016Y227076D03*
D443*
X382143Y227330D03*
D280*
X382016Y227584D03*
D283*
X382143Y227838D03*
D281*
X382143Y228092D03*
D202*
X382016Y228346D03*
D426*
X382143Y228600D03*
D427*
X382016Y228854D03*
D82*
X382143Y229108D03*
D201*
X382143Y229362D03*
D428*
X382016Y229616D03*
D199*
X382143Y229870D03*
D94*
X382016Y230124D03*
D81*
X382016Y230378D03*
D109*
X382143Y230632D03*
D93*
X382016Y230886D03*
D197*
X382143Y231140D03*
D120*
X382016Y231394D03*
D124*
X382016Y231648D03*
D134*
X382143Y231902D03*
D114*
X382016Y232156D03*
D123*
X382143Y232410D03*
D145*
X382016Y232664D03*
D131*
X382016Y232918D03*
D137*
X382143Y233172D03*
D153*
X382016Y233426D03*
D142*
X382143Y233680D03*
D157*
X382016Y233934D03*
D152*
X382016Y234188D03*
D154*
X382143Y234442D03*
D156*
X382016Y234696D03*
D159*
X382143Y234950D03*
D161*
X382143Y235204D03*
D174*
X382016Y235458D03*
D163*
X382143Y235712D03*
D165*
X382016Y235966D03*
D166*
X382143Y236220D03*
D171*
X382143Y236474D03*
D84*
X382016Y236728D03*
D173*
X382143Y236982D03*
D83*
X382016Y237236D03*
D175*
X382143Y237490D03*
D178*
X382143Y237744D03*
D181*
X382016Y237998D03*
D183*
X382143Y238252D03*
D91*
X382016Y238506D03*
D186*
X382016Y238760D03*
D194*
X382143Y239014D03*
D187*
X382016Y239268D03*
D189*
X382143Y239522D03*
D190*
X382016Y239776D03*
D191*
X382016Y240030D03*
D195*
X382143Y240284D03*
D77*
X382016Y240538D03*
D90*
X382143Y240792D03*
D192*
X382016Y241046D03*
D193*
X382016Y241300D03*
D100*
X382143Y241554D03*
D188*
X382016Y241808D03*
D103*
X382143Y242062D03*
D121*
X382016Y242316D03*
D128*
X382016Y242570D03*
D89*
X382143Y242824D03*
D139*
X382016Y243078D03*
D146*
X382143Y243332D03*
D184*
X382016Y243586D03*
D111*
X382016Y243840D03*
D158*
X382143Y244094D03*
D102*
X382016Y244348D03*
D164*
X382143Y244602D03*
D110*
X382143Y244856D03*
D196*
X382016Y245110D03*
D170*
X382143Y245364D03*
D122*
X382016Y245618D03*
D172*
X382143Y245872D03*
D97*
X382143Y246126D03*
D104*
X382016Y246380D03*
D88*
X382143Y246634D03*
D141*
X382016Y246888D03*
D108*
X382016Y247142D03*
D112*
X382143Y247396D03*
D98*
X382016Y247650D03*
D80*
X382143Y247904D03*
D78*
X382016Y248158D03*
D182*
X382016Y248412D03*
D92*
X382143Y248666D03*
D87*
X382016Y248920D03*
D119*
X382143Y249174D03*
D101*
X382016Y249428D03*
D106*
X382016Y249682D03*
D113*
X382143Y249936D03*
D107*
X382016Y250190D03*
D129*
X382143Y250444D03*
D135*
X382016Y250698D03*
D140*
X382016Y250952D03*
D125*
X382143Y251206D03*
D116*
X382016Y251460D03*
D132*
X382143Y251714D03*
D151*
X382016Y251968D03*
D144*
X382016Y252222D03*
D127*
X382143Y252476D03*
D149*
X382016Y252730D03*
D162*
X382143Y252984D03*
D160*
X382143Y253238D03*
D105*
X382016Y253492D03*
D176*
X382143Y253746D03*
D130*
X382016Y254000D03*
D126*
X382143Y254254D03*
D180*
X382143Y254508D03*
D115*
X382016Y254762D03*
D136*
X382143Y255016D03*
D494*
X925020Y209800D03*
D495*
X925020Y114500D03*
D496*
X849800Y209800D03*
D497*
X1269210Y306600D03*
X1269210Y56700D03*
X59210Y306600D03*
X59210Y56700D03*
M02*
